<?xml version="1.0" encoding="utf-8" standalone="no"?>
<!DOCTYPE svg PUBLIC "-//W3C//DTD SVG 1.1//EN"
  "http://www.w3.org/Graphics/SVG/1.1/DTD/svg11.dtd">
<!-- Created with matplotlib (http://matplotlib.org/) -->
<svg height="252pt" version="1.1" viewBox="0 0 504 252" width="504pt" xmlns="http://www.w3.org/2000/svg" xmlns:xlink="http://www.w3.org/1999/xlink">
 <defs>
  <style type="text/css">
*{stroke-linecap:butt;stroke-linejoin:round;}
  </style>
 </defs>
 <g id="figure_1">
  <g id="patch_1">
   <path d="M 0 252 
L 504 252 
L 504 0 
L 0 0 
z
" style="fill:#ffffff;"/>
  </g>
  <g id="axes_1">
   <g id="patch_2">
    <path d="M 63 224.28 
L 453.6 224.28 
L 453.6 30.24 
L 63 30.24 
z
" style="fill:#ffffff;"/>
   </g>
   <g id="patch_3">
    <path clip-path="url(#paa4a3bfcf8)" d="M 80.754545 224.28 
L 82.220349 224.28 
L 82.220349 65.712283 
L 80.754545 65.712283 
z
" style="fill:#1f77b4;"/>
   </g>
   <g id="patch_4">
    <path clip-path="url(#paa4a3bfcf8)" d="M 82.5868 224.28 
L 84.052603 224.28 
L 84.052603 50.221004 
L 82.5868 50.221004 
z
" style="fill:#1f77b4;"/>
   </g>
   <g id="patch_5">
    <path clip-path="url(#paa4a3bfcf8)" d="M 84.419054 224.28 
L 85.884858 224.28 
L 85.884858 68.22554 
L 84.419054 68.22554 
z
" style="fill:#1f77b4;"/>
   </g>
   <g id="patch_6">
    <path clip-path="url(#paa4a3bfcf8)" d="M 86.251309 224.28 
L 87.717112 224.28 
L 87.717112 74.778366 
L 86.251309 74.778366 
z
" style="fill:#1f77b4;"/>
   </g>
   <g id="patch_7">
    <path clip-path="url(#paa4a3bfcf8)" d="M 88.083563 224.28 
L 89.549367 224.28 
L 89.549367 105.791519 
L 88.083563 105.791519 
z
" style="fill:#1f77b4;"/>
   </g>
   <g id="patch_8">
    <path clip-path="url(#paa4a3bfcf8)" d="M 89.915818 224.28 
L 91.381621 224.28 
L 91.381621 72.40148 
L 89.915818 72.40148 
z
" style="fill:#1f77b4;"/>
   </g>
   <g id="patch_9">
    <path clip-path="url(#paa4a3bfcf8)" d="M 91.748072 224.28 
L 93.213876 224.28 
L 93.213876 112.999977 
L 91.748072 112.999977 
z
" style="fill:#1f77b4;"/>
   </g>
   <g id="patch_10">
    <path clip-path="url(#paa4a3bfcf8)" d="M 93.580326 224.28 
L 95.04613 224.28 
L 95.04613 106.505721 
L 93.580326 106.505721 
z
" style="fill:#1f77b4;"/>
   </g>
   <g id="patch_11">
    <path clip-path="url(#paa4a3bfcf8)" d="M 95.412581 224.28 
L 96.878384 224.28 
L 96.878384 74.431318 
L 95.412581 74.431318 
z
" style="fill:#1f77b4;"/>
   </g>
   <g id="patch_12">
    <path clip-path="url(#paa4a3bfcf8)" d="M 97.244835 224.28 
L 98.710639 224.28 
L 98.710639 88.802776 
L 97.244835 88.802776 
z
" style="fill:#1f77b4;"/>
   </g>
   <g id="patch_13">
    <path clip-path="url(#paa4a3bfcf8)" d="M 99.07709 224.28 
L 100.542893 224.28 
L 100.542893 74.32292 
L 99.07709 74.32292 
z
" style="fill:#1f77b4;"/>
   </g>
   <g id="patch_14">
    <path clip-path="url(#paa4a3bfcf8)" d="M 100.909344 224.28 
L 102.375148 224.28 
L 102.375148 77.223437 
L 100.909344 77.223437 
z
" style="fill:#1f77b4;"/>
   </g>
   <g id="patch_15">
    <path clip-path="url(#paa4a3bfcf8)" d="M 102.741599 224.28 
L 104.207402 224.28 
L 104.207402 87.812335 
L 102.741599 87.812335 
z
" style="fill:#1f77b4;"/>
   </g>
   <g id="patch_16">
    <path clip-path="url(#paa4a3bfcf8)" d="M 104.573853 224.28 
L 106.039657 224.28 
L 106.039657 50.262091 
L 104.573853 50.262091 
z
" style="fill:#1f77b4;"/>
   </g>
   <g id="patch_17">
    <path clip-path="url(#paa4a3bfcf8)" d="M 106.406108 224.28 
L 107.871911 224.28 
L 107.871911 90.551129 
L 106.406108 90.551129 
z
" style="fill:#1f77b4;"/>
   </g>
   <g id="patch_18">
    <path clip-path="url(#paa4a3bfcf8)" d="M 108.238362 224.28 
L 109.704165 224.28 
L 109.704165 91.422683 
L 108.238362 91.422683 
z
" style="fill:#1f77b4;"/>
   </g>
   <g id="patch_19">
    <path clip-path="url(#paa4a3bfcf8)" d="M 110.070616 224.28 
L 111.53642 224.28 
L 111.53642 126.622267 
L 110.070616 126.622267 
z
" style="fill:#1f77b4;"/>
   </g>
   <g id="patch_20">
    <path clip-path="url(#paa4a3bfcf8)" d="M 111.902871 224.28 
L 113.368674 224.28 
L 113.368674 84.404795 
L 111.902871 84.404795 
z
" style="fill:#1f77b4;"/>
   </g>
   <g id="patch_21">
    <path clip-path="url(#paa4a3bfcf8)" d="M 113.735125 224.28 
L 115.200929 224.28 
L 115.200929 60.824763 
L 113.735125 60.824763 
z
" style="fill:#1f77b4;"/>
   </g>
   <g id="patch_22">
    <path clip-path="url(#paa4a3bfcf8)" d="M 115.56738 224.28 
L 117.033183 224.28 
L 117.033183 78.771603 
L 115.56738 78.771603 
z
" style="fill:#1f77b4;"/>
   </g>
   <g id="patch_23">
    <path clip-path="url(#paa4a3bfcf8)" d="M 117.399634 224.28 
L 118.865438 224.28 
L 118.865438 92.955114 
L 117.399634 92.955114 
z
" style="fill:#1f77b4;"/>
   </g>
   <g id="patch_24">
    <path clip-path="url(#paa4a3bfcf8)" d="M 119.231889 224.28 
L 120.697692 224.28 
L 120.697692 77.620313 
L 119.231889 77.620313 
z
" style="fill:#1f77b4;"/>
   </g>
   <g id="patch_25">
    <path clip-path="url(#paa4a3bfcf8)" d="M 121.064143 224.28 
L 122.529947 224.28 
L 122.529947 74.604405 
L 121.064143 74.604405 
z
" style="fill:#1f77b4;"/>
   </g>
   <g id="patch_26">
    <path clip-path="url(#paa4a3bfcf8)" d="M 122.896397 224.28 
L 124.362201 224.28 
L 124.362201 93.614243 
L 122.896397 93.614243 
z
" style="fill:#1f77b4;"/>
   </g>
   <g id="patch_27">
    <path clip-path="url(#paa4a3bfcf8)" d="M 124.728652 224.28 
L 126.194455 224.28 
L 126.194455 74.604405 
L 124.728652 74.604405 
z
" style="fill:#1f77b4;"/>
   </g>
   <g id="patch_28">
    <path clip-path="url(#paa4a3bfcf8)" d="M 126.560906 224.28 
L 128.02671 224.28 
L 128.02671 79.04522 
L 126.560906 79.04522 
z
" style="fill:#1f77b4;"/>
   </g>
   <g id="patch_29">
    <path clip-path="url(#paa4a3bfcf8)" d="M 128.393161 224.28 
L 129.858964 224.28 
L 129.858964 57.439078 
L 128.393161 57.439078 
z
" style="fill:#1f77b4;"/>
   </g>
   <g id="patch_30">
    <path clip-path="url(#paa4a3bfcf8)" d="M 130.225415 224.28 
L 131.691219 224.28 
L 131.691219 66.117901 
L 130.225415 66.117901 
z
" style="fill:#1f77b4;"/>
   </g>
   <g id="patch_31">
    <path clip-path="url(#paa4a3bfcf8)" d="M 132.05767 224.28 
L 133.523473 224.28 
L 133.523473 79.226175 
L 132.05767 79.226175 
z
" style="fill:#1f77b4;"/>
   </g>
   <g id="patch_32">
    <path clip-path="url(#paa4a3bfcf8)" d="M 133.889924 224.28 
L 135.355728 224.28 
L 135.355728 71.039514 
L 133.889924 71.039514 
z
" style="fill:#1f77b4;"/>
   </g>
   <g id="patch_33">
    <path clip-path="url(#paa4a3bfcf8)" d="M 135.722178 224.28 
L 137.187982 224.28 
L 137.187982 98.766638 
L 135.722178 98.766638 
z
" style="fill:#1f77b4;"/>
   </g>
   <g id="patch_34">
    <path clip-path="url(#paa4a3bfcf8)" d="M 137.554433 224.28 
L 139.020236 224.28 
L 139.020236 89.724158 
L 137.554433 89.724158 
z
" style="fill:#1f77b4;"/>
   </g>
   <g id="patch_35">
    <path clip-path="url(#paa4a3bfcf8)" d="M 139.386687 224.28 
L 140.852491 224.28 
L 140.852491 104.905978 
L 139.386687 104.905978 
z
" style="fill:#1f77b4;"/>
   </g>
   <g id="patch_36">
    <path clip-path="url(#paa4a3bfcf8)" d="M 141.218942 224.28 
L 142.684745 224.28 
L 142.684745 98.327802 
L 141.218942 98.327802 
z
" style="fill:#1f77b4;"/>
   </g>
   <g id="patch_37">
    <path clip-path="url(#paa4a3bfcf8)" d="M 143.051196 224.28 
L 144.517 224.28 
L 144.517 82.554164 
L 143.051196 82.554164 
z
" style="fill:#1f77b4;"/>
   </g>
   <g id="patch_38">
    <path clip-path="url(#paa4a3bfcf8)" d="M 144.883451 224.28 
L 146.349254 224.28 
L 146.349254 39.48 
L 144.883451 39.48 
z
" style="fill:#1f77b4;"/>
   </g>
   <g id="patch_39">
    <path clip-path="url(#paa4a3bfcf8)" d="M 146.715705 224.28 
L 148.181509 224.28 
L 148.181509 82.663436 
L 146.715705 82.663436 
z
" style="fill:#1f77b4;"/>
   </g>
   <g id="patch_40">
    <path clip-path="url(#paa4a3bfcf8)" d="M 148.547959 224.28 
L 150.013763 224.28 
L 150.013763 69.067372 
L 148.547959 69.067372 
z
" style="fill:#1f77b4;"/>
   </g>
   <g id="patch_41">
    <path clip-path="url(#paa4a3bfcf8)" d="M 150.380214 224.28 
L 151.846017 224.28 
L 151.846017 68.573462 
L 150.380214 68.573462 
z
" style="fill:#1f77b4;"/>
   </g>
   <g id="patch_42">
    <path clip-path="url(#paa4a3bfcf8)" d="M 152.212468 224.28 
L 153.678272 224.28 
L 153.678272 106.534569 
L 152.212468 106.534569 
z
" style="fill:#1f77b4;"/>
   </g>
   <g id="patch_43">
    <path clip-path="url(#paa4a3bfcf8)" d="M 154.044723 224.28 
L 155.510526 224.28 
L 155.510526 126.922983 
L 154.044723 126.922983 
z
" style="fill:#1f77b4;"/>
   </g>
   <g id="patch_44">
    <path clip-path="url(#paa4a3bfcf8)" d="M 155.876977 224.28 
L 157.342781 224.28 
L 157.342781 122.19806 
L 155.876977 122.19806 
z
" style="fill:#1f77b4;"/>
   </g>
   <g id="patch_45">
    <path clip-path="url(#paa4a3bfcf8)" d="M 157.709232 224.28 
L 159.175035 224.28 
L 159.175035 114.041121 
L 157.709232 114.041121 
z
" style="fill:#1f77b4;"/>
   </g>
   <g id="patch_46">
    <path clip-path="url(#paa4a3bfcf8)" d="M 159.541486 224.28 
L 161.00729 224.28 
L 161.00729 95.990254 
L 159.541486 95.990254 
z
" style="fill:#1f77b4;"/>
   </g>
   <g id="patch_47">
    <path clip-path="url(#paa4a3bfcf8)" d="M 161.373741 224.28 
L 162.839544 224.28 
L 162.839544 80.390578 
L 161.373741 80.390578 
z
" style="fill:#1f77b4;"/>
   </g>
   <g id="patch_48">
    <path clip-path="url(#paa4a3bfcf8)" d="M 163.205995 224.28 
L 164.671798 224.28 
L 164.671798 136.218974 
L 163.205995 136.218974 
z
" style="fill:#1f77b4;"/>
   </g>
   <g id="patch_49">
    <path clip-path="url(#paa4a3bfcf8)" d="M 165.038249 224.28 
L 166.504053 224.28 
L 166.504053 99.08309 
L 165.038249 99.08309 
z
" style="fill:#1f77b4;"/>
   </g>
   <g id="patch_50">
    <path clip-path="url(#paa4a3bfcf8)" d="M 166.870504 224.28 
L 168.336307 224.28 
L 168.336307 106.661324 
L 166.870504 106.661324 
z
" style="fill:#1f77b4;"/>
   </g>
   <g id="patch_51">
    <path clip-path="url(#paa4a3bfcf8)" d="M 168.702758 224.28 
L 170.168562 224.28 
L 170.168562 98.567326 
L 168.702758 98.567326 
z
" style="fill:#1f77b4;"/>
   </g>
   <g id="patch_52">
    <path clip-path="url(#paa4a3bfcf8)" d="M 170.535013 224.28 
L 172.000816 224.28 
L 172.000816 127.458853 
L 170.535013 127.458853 
z
" style="fill:#1f77b4;"/>
   </g>
   <g id="patch_53">
    <path clip-path="url(#paa4a3bfcf8)" d="M 172.367267 224.28 
L 173.833071 224.28 
L 173.833071 82.684416 
L 172.367267 82.684416 
z
" style="fill:#1f77b4;"/>
   </g>
   <g id="patch_54">
    <path clip-path="url(#paa4a3bfcf8)" d="M 174.199522 224.28 
L 175.665325 224.28 
L 175.665325 98.08041 
L 174.199522 98.08041 
z
" style="fill:#1f77b4;"/>
   </g>
   <g id="patch_55">
    <path clip-path="url(#paa4a3bfcf8)" d="M 176.031776 224.28 
L 177.49758 224.28 
L 177.49758 90.043233 
L 176.031776 90.043233 
z
" style="fill:#1f77b4;"/>
   </g>
   <g id="patch_56">
    <path clip-path="url(#paa4a3bfcf8)" d="M 177.86403 224.28 
L 179.329834 224.28 
L 179.329834 102.14533 
L 177.86403 102.14533 
z
" style="fill:#1f77b4;"/>
   </g>
   <g id="patch_57">
    <path clip-path="url(#paa4a3bfcf8)" d="M 179.696285 224.28 
L 181.162088 224.28 
L 181.162088 112.383683 
L 179.696285 112.383683 
z
" style="fill:#1f77b4;"/>
   </g>
   <g id="patch_58">
    <path clip-path="url(#paa4a3bfcf8)" d="M 181.528539 224.28 
L 182.994343 224.28 
L 182.994343 72.71531 
L 181.528539 72.71531 
z
" style="fill:#1f77b4;"/>
   </g>
   <g id="patch_59">
    <path clip-path="url(#paa4a3bfcf8)" d="M 183.360794 224.28 
L 184.826597 224.28 
L 184.826597 97.468486 
L 183.360794 97.468486 
z
" style="fill:#1f77b4;"/>
   </g>
   <g id="patch_60">
    <path clip-path="url(#paa4a3bfcf8)" d="M 185.193048 224.28 
L 186.658852 224.28 
L 186.658852 55.80262 
L 185.193048 55.80262 
z
" style="fill:#1f77b4;"/>
   </g>
   <g id="patch_61">
    <path clip-path="url(#paa4a3bfcf8)" d="M 187.025303 224.28 
L 188.491106 224.28 
L 188.491106 63.263715 
L 187.025303 63.263715 
z
" style="fill:#1f77b4;"/>
   </g>
   <g id="patch_62">
    <path clip-path="url(#paa4a3bfcf8)" d="M 188.857557 224.28 
L 190.323361 224.28 
L 190.323361 90.658653 
L 188.857557 90.658653 
z
" style="fill:#1f77b4;"/>
   </g>
   <g id="patch_63">
    <path clip-path="url(#paa4a3bfcf8)" d="M 190.689811 224.28 
L 192.155615 224.28 
L 192.155615 78.685934 
L 190.689811 78.685934 
z
" style="fill:#1f77b4;"/>
   </g>
   <g id="patch_64">
    <path clip-path="url(#paa4a3bfcf8)" d="M 192.522066 224.28 
L 193.987869 224.28 
L 193.987869 119.552803 
L 192.522066 119.552803 
z
" style="fill:#1f77b4;"/>
   </g>
   <g id="patch_65">
    <path clip-path="url(#paa4a3bfcf8)" d="M 194.35432 224.28 
L 195.820124 224.28 
L 195.820124 117.355123 
L 194.35432 117.355123 
z
" style="fill:#1f77b4;"/>
   </g>
   <g id="patch_66">
    <path clip-path="url(#paa4a3bfcf8)" d="M 196.186575 224.28 
L 197.652378 224.28 
L 197.652378 141.73153 
L 196.186575 141.73153 
z
" style="fill:#1f77b4;"/>
   </g>
   <g id="patch_67">
    <path clip-path="url(#paa4a3bfcf8)" d="M 198.018829 224.28 
L 199.484633 224.28 
L 199.484633 102.398841 
L 198.018829 102.398841 
z
" style="fill:#1f77b4;"/>
   </g>
   <g id="patch_68">
    <path clip-path="url(#paa4a3bfcf8)" d="M 199.851084 224.28 
L 201.316887 224.28 
L 201.316887 64.34682 
L 199.851084 64.34682 
z
" style="fill:#1f77b4;"/>
   </g>
   <g id="patch_69">
    <path clip-path="url(#paa4a3bfcf8)" d="M 201.683338 224.28 
L 203.149142 224.28 
L 203.149142 126.679088 
L 201.683338 126.679088 
z
" style="fill:#1f77b4;"/>
   </g>
   <g id="patch_70">
    <path clip-path="url(#paa4a3bfcf8)" d="M 203.515592 224.28 
L 204.981396 224.28 
L 204.981396 130.779849 
L 203.515592 130.779849 
z
" style="fill:#1f77b4;"/>
   </g>
   <g id="patch_71">
    <path clip-path="url(#paa4a3bfcf8)" d="M 205.347847 224.28 
L 206.81365 224.28 
L 206.81365 137.736544 
L 205.347847 137.736544 
z
" style="fill:#1f77b4;"/>
   </g>
   <g id="patch_72">
    <path clip-path="url(#paa4a3bfcf8)" d="M 207.180101 224.28 
L 208.645905 224.28 
L 208.645905 82.670429 
L 207.180101 82.670429 
z
" style="fill:#1f77b4;"/>
   </g>
   <g id="patch_73">
    <path clip-path="url(#paa4a3bfcf8)" d="M 209.012356 224.28 
L 210.478159 224.28 
L 210.478159 96.126626 
L 209.012356 96.126626 
z
" style="fill:#1f77b4;"/>
   </g>
   <g id="patch_74">
    <path clip-path="url(#paa4a3bfcf8)" d="M 210.84461 224.28 
L 212.310414 224.28 
L 212.310414 108.116828 
L 210.84461 108.116828 
z
" style="fill:#1f77b4;"/>
   </g>
   <g id="patch_75">
    <path clip-path="url(#paa4a3bfcf8)" d="M 212.676865 224.28 
L 214.142668 224.28 
L 214.142668 73.721486 
L 212.676865 73.721486 
z
" style="fill:#1f77b4;"/>
   </g>
   <g id="patch_76">
    <path clip-path="url(#paa4a3bfcf8)" d="M 214.509119 224.28 
L 215.974923 224.28 
L 215.974923 101.895315 
L 214.509119 101.895315 
z
" style="fill:#1f77b4;"/>
   </g>
   <g id="patch_77">
    <path clip-path="url(#paa4a3bfcf8)" d="M 216.341373 224.28 
L 217.807177 224.28 
L 217.807177 70.334927 
L 216.341373 70.334927 
z
" style="fill:#1f77b4;"/>
   </g>
   <g id="patch_78">
    <path clip-path="url(#paa4a3bfcf8)" d="M 218.173628 224.28 
L 219.639431 224.28 
L 219.639431 117.988901 
L 218.173628 117.988901 
z
" style="fill:#1f77b4;"/>
   </g>
   <g id="patch_79">
    <path clip-path="url(#paa4a3bfcf8)" d="M 220.005882 224.28 
L 221.471686 224.28 
L 221.471686 82.573396 
L 220.005882 82.573396 
z
" style="fill:#1f77b4;"/>
   </g>
   <g id="patch_80">
    <path clip-path="url(#paa4a3bfcf8)" d="M 221.838137 224.28 
L 223.30394 224.28 
L 223.30394 73.618334 
L 221.838137 73.618334 
z
" style="fill:#1f77b4;"/>
   </g>
   <g id="patch_81">
    <path clip-path="url(#paa4a3bfcf8)" d="M 223.670391 224.28 
L 225.136195 224.28 
L 225.136195 99.169633 
L 223.670391 99.169633 
z
" style="fill:#1f77b4;"/>
   </g>
   <g id="patch_82">
    <path clip-path="url(#paa4a3bfcf8)" d="M 225.502646 224.28 
L 226.968449 224.28 
L 226.968449 82.589131 
L 225.502646 82.589131 
z
" style="fill:#1f77b4;"/>
   </g>
   <g id="patch_83">
    <path clip-path="url(#paa4a3bfcf8)" d="M 227.3349 224.28 
L 228.800704 224.28 
L 228.800704 111.466672 
L 227.3349 111.466672 
z
" style="fill:#1f77b4;"/>
   </g>
   <g id="patch_84">
    <path clip-path="url(#paa4a3bfcf8)" d="M 229.167155 224.28 
L 230.632958 224.28 
L 230.632958 100.783363 
L 229.167155 100.783363 
z
" style="fill:#1f77b4;"/>
   </g>
   <g id="patch_85">
    <path clip-path="url(#paa4a3bfcf8)" d="M 230.999409 224.28 
L 232.465212 224.28 
L 232.465212 130.989651 
L 230.999409 130.989651 
z
" style="fill:#1f77b4;"/>
   </g>
   <g id="patch_86">
    <path clip-path="url(#paa4a3bfcf8)" d="M 232.831663 224.28 
L 234.297467 224.28 
L 234.297467 94.901905 
L 232.831663 94.901905 
z
" style="fill:#1f77b4;"/>
   </g>
   <g id="patch_87">
    <path clip-path="url(#paa4a3bfcf8)" d="M 234.663918 224.28 
L 236.129721 224.28 
L 236.129721 91.511849 
L 234.663918 91.511849 
z
" style="fill:#1f77b4;"/>
   </g>
   <g id="patch_88">
    <path clip-path="url(#paa4a3bfcf8)" d="M 236.496172 224.28 
L 237.961976 224.28 
L 237.961976 92.641285 
L 236.496172 92.641285 
z
" style="fill:#1f77b4;"/>
   </g>
   <g id="patch_89">
    <path clip-path="url(#paa4a3bfcf8)" d="M 238.328427 224.28 
L 239.79423 224.28 
L 239.79423 84.377696 
L 238.328427 84.377696 
z
" style="fill:#1f77b4;"/>
   </g>
   <g id="patch_90">
    <path clip-path="url(#paa4a3bfcf8)" d="M 240.160681 224.28 
L 241.626485 224.28 
L 241.626485 119.179529 
L 240.160681 119.179529 
z
" style="fill:#1f77b4;"/>
   </g>
   <g id="patch_91">
    <path clip-path="url(#paa4a3bfcf8)" d="M 241.992936 224.28 
L 243.458739 224.28 
L 243.458739 102.550947 
L 241.992936 102.550947 
z
" style="fill:#1f77b4;"/>
   </g>
   <g id="patch_92">
    <path clip-path="url(#paa4a3bfcf8)" d="M 243.82519 224.28 
L 245.290994 224.28 
L 245.290994 104.328148 
L 243.82519 104.328148 
z
" style="fill:#1f77b4;"/>
   </g>
   <g id="patch_93">
    <path clip-path="url(#paa4a3bfcf8)" d="M 245.657444 224.28 
L 247.123248 224.28 
L 247.123248 80.332008 
L 245.657444 80.332008 
z
" style="fill:#1f77b4;"/>
   </g>
   <g id="patch_94">
    <path clip-path="url(#paa4a3bfcf8)" d="M 247.489699 224.28 
L 248.955502 224.28 
L 248.955502 118.078941 
L 247.489699 118.078941 
z
" style="fill:#1f77b4;"/>
   </g>
   <g id="patch_95">
    <path clip-path="url(#paa4a3bfcf8)" d="M 249.321953 224.28 
L 250.787757 224.28 
L 250.787757 95.178144 
L 249.321953 95.178144 
z
" style="fill:#1f77b4;"/>
   </g>
   <g id="patch_96">
    <path clip-path="url(#paa4a3bfcf8)" d="M 251.154208 224.28 
L 252.620011 224.28 
L 252.620011 115.51236 
L 251.154208 115.51236 
z
" style="fill:#1f77b4;"/>
   </g>
   <g id="patch_97">
    <path clip-path="url(#paa4a3bfcf8)" d="M 252.986462 224.28 
L 254.452266 224.28 
L 254.452266 114.943271 
L 252.986462 114.943271 
z
" style="fill:#1f77b4;"/>
   </g>
   <g id="patch_98">
    <path clip-path="url(#paa4a3bfcf8)" d="M 254.818717 224.28 
L 256.28452 224.28 
L 256.28452 86.154896 
L 254.818717 86.154896 
z
" style="fill:#1f77b4;"/>
   </g>
   <g id="patch_99">
    <path clip-path="url(#paa4a3bfcf8)" d="M 256.650971 224.28 
L 258.116775 224.28 
L 258.116775 114.014021 
L 256.650971 114.014021 
z
" style="fill:#1f77b4;"/>
   </g>
   <g id="patch_100">
    <path clip-path="url(#paa4a3bfcf8)" d="M 258.483225 224.28 
L 259.949029 224.28 
L 259.949029 91.781969 
L 258.483225 91.781969 
z
" style="fill:#1f77b4;"/>
   </g>
   <g id="patch_101">
    <path clip-path="url(#paa4a3bfcf8)" d="M 260.31548 224.28 
L 261.781283 224.28 
L 261.781283 130.642603 
L 260.31548 130.642603 
z
" style="fill:#1f77b4;"/>
   </g>
   <g id="patch_102">
    <path clip-path="url(#paa4a3bfcf8)" d="M 262.147734 224.28 
L 263.613538 224.28 
L 263.613538 132.080623 
L 262.147734 132.080623 
z
" style="fill:#1f77b4;"/>
   </g>
   <g id="patch_103">
    <path clip-path="url(#paa4a3bfcf8)" d="M 263.979989 224.28 
L 265.445792 224.28 
L 265.445792 93.148307 
L 263.979989 93.148307 
z
" style="fill:#1f77b4;"/>
   </g>
   <g id="patch_104">
    <path clip-path="url(#paa4a3bfcf8)" d="M 265.812243 224.28 
L 267.278047 224.28 
L 267.278047 84.743102 
L 265.812243 84.743102 
z
" style="fill:#1f77b4;"/>
   </g>
   <g id="patch_105">
    <path clip-path="url(#paa4a3bfcf8)" d="M 267.644498 224.28 
L 269.110301 224.28 
L 269.110301 97.468486 
L 267.644498 97.468486 
z
" style="fill:#1f77b4;"/>
   </g>
   <g id="patch_106">
    <path clip-path="url(#paa4a3bfcf8)" d="M 269.476752 224.28 
L 270.942556 224.28 
L 270.942556 112.101324 
L 269.476752 112.101324 
z
" style="fill:#1f77b4;"/>
   </g>
   <g id="patch_107">
    <path clip-path="url(#paa4a3bfcf8)" d="M 271.309006 224.28 
L 272.77481 224.28 
L 272.77481 123.039892 
L 271.309006 123.039892 
z
" style="fill:#1f77b4;"/>
   </g>
   <g id="patch_108">
    <path clip-path="url(#paa4a3bfcf8)" d="M 273.141261 224.28 
L 274.607064 224.28 
L 274.607064 119.029171 
L 273.141261 119.029171 
z
" style="fill:#1f77b4;"/>
   </g>
   <g id="patch_109">
    <path clip-path="url(#paa4a3bfcf8)" d="M 274.973515 224.28 
L 276.439319 224.28 
L 276.439319 102.93034 
L 274.973515 102.93034 
z
" style="fill:#1f77b4;"/>
   </g>
   <g id="patch_110">
    <path clip-path="url(#paa4a3bfcf8)" d="M 276.80577 224.28 
L 278.271573 224.28 
L 278.271573 91.422683 
L 276.80577 91.422683 
z
" style="fill:#1f77b4;"/>
   </g>
   <g id="patch_111">
    <path clip-path="url(#paa4a3bfcf8)" d="M 278.638024 224.28 
L 280.103828 224.28 
L 280.103828 124.429832 
L 278.638024 124.429832 
z
" style="fill:#1f77b4;"/>
   </g>
   <g id="patch_112">
    <path clip-path="url(#paa4a3bfcf8)" d="M 280.470279 224.28 
L 281.936082 224.28 
L 281.936082 135.256506 
L 280.470279 135.256506 
z
" style="fill:#1f77b4;"/>
   </g>
   <g id="patch_113">
    <path clip-path="url(#paa4a3bfcf8)" d="M 282.302533 224.28 
L 283.768337 224.28 
L 283.768337 116.424126 
L 282.302533 116.424126 
z
" style="fill:#1f77b4;"/>
   </g>
   <g id="patch_114">
    <path clip-path="url(#paa4a3bfcf8)" d="M 284.134788 224.28 
L 285.600591 224.28 
L 285.600591 111.136233 
L 284.134788 111.136233 
z
" style="fill:#1f77b4;"/>
   </g>
   <g id="patch_115">
    <path clip-path="url(#paa4a3bfcf8)" d="M 285.967042 224.28 
L 287.432845 224.28 
L 287.432845 113.696695 
L 285.967042 113.696695 
z
" style="fill:#1f77b4;"/>
   </g>
   <g id="patch_116">
    <path clip-path="url(#paa4a3bfcf8)" d="M 287.799296 224.28 
L 289.2651 224.28 
L 289.2651 135.818601 
L 287.799296 135.818601 
z
" style="fill:#1f77b4;"/>
   </g>
   <g id="patch_117">
    <path clip-path="url(#paa4a3bfcf8)" d="M 289.631551 224.28 
L 291.097354 224.28 
L 291.097354 127.820762 
L 289.631551 127.820762 
z
" style="fill:#1f77b4;"/>
   </g>
   <g id="patch_118">
    <path clip-path="url(#paa4a3bfcf8)" d="M 291.463805 224.28 
L 292.929609 224.28 
L 292.929609 107.253142 
L 291.463805 107.253142 
z
" style="fill:#1f77b4;"/>
   </g>
   <g id="patch_119">
    <path clip-path="url(#paa4a3bfcf8)" d="M 293.29606 224.28 
L 294.761863 224.28 
L 294.761863 118.717964 
L 293.29606 118.717964 
z
" style="fill:#1f77b4;"/>
   </g>
   <g id="patch_120">
    <path clip-path="url(#paa4a3bfcf8)" d="M 295.128314 224.28 
L 296.594118 224.28 
L 296.594118 113.672219 
L 295.128314 113.672219 
z
" style="fill:#1f77b4;"/>
   </g>
   <g id="patch_121">
    <path clip-path="url(#paa4a3bfcf8)" d="M 296.960569 224.28 
L 298.426372 224.28 
L 298.426372 120.551112 
L 296.960569 120.551112 
z
" style="fill:#1f77b4;"/>
   </g>
   <g id="patch_122">
    <path clip-path="url(#paa4a3bfcf8)" d="M 298.792823 224.28 
L 300.258627 224.28 
L 300.258627 126.215775 
L 298.792823 126.215775 
z
" style="fill:#1f77b4;"/>
   </g>
   <g id="patch_123">
    <path clip-path="url(#paa4a3bfcf8)" d="M 300.625077 224.28 
L 302.090881 224.28 
L 302.090881 122.875547 
L 300.625077 122.875547 
z
" style="fill:#1f77b4;"/>
   </g>
   <g id="patch_124">
    <path clip-path="url(#paa4a3bfcf8)" d="M 302.457332 224.28 
L 303.923135 224.28 
L 303.923135 102.507239 
L 302.457332 102.507239 
z
" style="fill:#1f77b4;"/>
   </g>
   <g id="patch_125">
    <path clip-path="url(#paa4a3bfcf8)" d="M 304.289586 224.28 
L 305.75539 224.28 
L 305.75539 148.663748 
L 304.289586 148.663748 
z
" style="fill:#1f77b4;"/>
   </g>
   <g id="patch_126">
    <path clip-path="url(#paa4a3bfcf8)" d="M 306.121841 224.28 
L 307.587644 224.28 
L 307.587644 127.402906 
L 306.121841 127.402906 
z
" style="fill:#1f77b4;"/>
   </g>
   <g id="patch_127">
    <path clip-path="url(#paa4a3bfcf8)" d="M 307.954095 224.28 
L 309.419899 224.28 
L 309.419899 117.354249 
L 307.954095 117.354249 
z
" style="fill:#1f77b4;"/>
   </g>
   <g id="patch_128">
    <path clip-path="url(#paa4a3bfcf8)" d="M 309.78635 224.28 
L 311.252153 224.28 
L 311.252153 130.218628 
L 309.78635 130.218628 
z
" style="fill:#1f77b4;"/>
   </g>
   <g id="patch_129">
    <path clip-path="url(#paa4a3bfcf8)" d="M 311.618604 224.28 
L 313.084408 224.28 
L 313.084408 122.660499 
L 311.618604 122.660499 
z
" style="fill:#1f77b4;"/>
   </g>
   <g id="patch_130">
    <path clip-path="url(#paa4a3bfcf8)" d="M 313.450858 224.28 
L 314.916662 224.28 
L 314.916662 101.612956 
L 313.450858 101.612956 
z
" style="fill:#1f77b4;"/>
   </g>
   <g id="patch_131">
    <path clip-path="url(#paa4a3bfcf8)" d="M 315.283113 224.28 
L 316.748916 224.28 
L 316.748916 137.584438 
L 315.283113 137.584438 
z
" style="fill:#1f77b4;"/>
   </g>
   <g id="patch_132">
    <path clip-path="url(#paa4a3bfcf8)" d="M 317.115367 224.28 
L 318.581171 224.28 
L 318.581171 127.751702 
L 317.115367 127.751702 
z
" style="fill:#1f77b4;"/>
   </g>
   <g id="patch_133">
    <path clip-path="url(#paa4a3bfcf8)" d="M 318.947622 224.28 
L 320.413425 224.28 
L 320.413425 139.324048 
L 318.947622 139.324048 
z
" style="fill:#1f77b4;"/>
   </g>
   <g id="patch_134">
    <path clip-path="url(#paa4a3bfcf8)" d="M 320.779876 224.28 
L 322.24568 224.28 
L 322.24568 170.664144 
L 320.779876 170.664144 
z
" style="fill:#1f77b4;"/>
   </g>
   <g id="patch_135">
    <path clip-path="url(#paa4a3bfcf8)" d="M 322.612131 224.28 
L 324.077934 224.28 
L 324.077934 136.396432 
L 322.612131 136.396432 
z
" style="fill:#1f77b4;"/>
   </g>
   <g id="patch_136">
    <path clip-path="url(#paa4a3bfcf8)" d="M 324.444385 224.28 
L 325.910189 224.28 
L 325.910189 120.026606 
L 324.444385 120.026606 
z
" style="fill:#1f77b4;"/>
   </g>
   <g id="patch_137">
    <path clip-path="url(#paa4a3bfcf8)" d="M 326.276639 224.28 
L 327.742443 224.28 
L 327.742443 132.960045 
L 326.276639 132.960045 
z
" style="fill:#1f77b4;"/>
   </g>
   <g id="patch_138">
    <path clip-path="url(#paa4a3bfcf8)" d="M 328.108894 224.28 
L 329.574697 224.28 
L 329.574697 116.790405 
L 328.108894 116.790405 
z
" style="fill:#1f77b4;"/>
   </g>
   <g id="patch_139">
    <path clip-path="url(#paa4a3bfcf8)" d="M 329.941148 224.28 
L 331.406952 224.28 
L 331.406952 137.354529 
L 329.941148 137.354529 
z
" style="fill:#1f77b4;"/>
   </g>
   <g id="patch_140">
    <path clip-path="url(#paa4a3bfcf8)" d="M 331.773403 224.28 
L 333.239206 224.28 
L 333.239206 135.537991 
L 331.773403 135.537991 
z
" style="fill:#1f77b4;"/>
   </g>
   <g id="patch_141">
    <path clip-path="url(#paa4a3bfcf8)" d="M 333.605657 224.28 
L 335.071461 224.28 
L 335.071461 112.101324 
L 333.605657 112.101324 
z
" style="fill:#1f77b4;"/>
   </g>
   <g id="patch_142">
    <path clip-path="url(#paa4a3bfcf8)" d="M 335.437912 224.28 
L 336.903715 224.28 
L 336.903715 135.857939 
L 335.437912 135.857939 
z
" style="fill:#1f77b4;"/>
   </g>
   <g id="patch_143">
    <path clip-path="url(#paa4a3bfcf8)" d="M 337.270166 224.28 
L 338.73597 224.28 
L 338.73597 108.08798 
L 337.270166 108.08798 
z
" style="fill:#1f77b4;"/>
   </g>
   <g id="patch_144">
    <path clip-path="url(#paa4a3bfcf8)" d="M 339.10242 224.28 
L 340.568224 224.28 
L 340.568224 172.002508 
L 339.10242 172.002508 
z
" style="fill:#1f77b4;"/>
   </g>
   <g id="patch_145">
    <path clip-path="url(#paa4a3bfcf8)" d="M 340.934675 224.28 
L 342.400478 224.28 
L 342.400478 162.100712 
L 340.934675 162.100712 
z
" style="fill:#1f77b4;"/>
   </g>
   <g id="patch_146">
    <path clip-path="url(#paa4a3bfcf8)" d="M 342.766929 224.28 
L 344.232733 224.28 
L 344.232733 140.936904 
L 342.766929 140.936904 
z
" style="fill:#1f77b4;"/>
   </g>
   <g id="patch_147">
    <path clip-path="url(#paa4a3bfcf8)" d="M 344.599184 224.28 
L 346.064987 224.28 
L 346.064987 147.379583 
L 344.599184 147.379583 
z
" style="fill:#1f77b4;"/>
   </g>
   <g id="patch_148">
    <path clip-path="url(#paa4a3bfcf8)" d="M 346.431438 224.28 
L 347.897242 224.28 
L 347.897242 123.846757 
L 346.431438 123.846757 
z
" style="fill:#1f77b4;"/>
   </g>
   <g id="patch_149">
    <path clip-path="url(#paa4a3bfcf8)" d="M 348.263693 224.28 
L 349.729496 224.28 
L 349.729496 143.300677 
L 348.263693 143.300677 
z
" style="fill:#1f77b4;"/>
   </g>
   <g id="patch_150">
    <path clip-path="url(#paa4a3bfcf8)" d="M 350.095947 224.28 
L 351.561751 224.28 
L 351.561751 163.106015 
L 350.095947 163.106015 
z
" style="fill:#1f77b4;"/>
   </g>
   <g id="patch_151">
    <path clip-path="url(#paa4a3bfcf8)" d="M 351.928202 224.28 
L 353.394005 224.28 
L 353.394005 142.833866 
L 351.928202 142.833866 
z
" style="fill:#1f77b4;"/>
   </g>
   <g id="patch_152">
    <path clip-path="url(#paa4a3bfcf8)" d="M 353.760456 224.28 
L 355.226259 224.28 
L 355.226259 121.914827 
L 353.760456 121.914827 
z
" style="fill:#1f77b4;"/>
   </g>
   <g id="patch_153">
    <path clip-path="url(#paa4a3bfcf8)" d="M 355.59271 224.28 
L 357.058514 224.28 
L 357.058514 107.213804 
L 355.59271 107.213804 
z
" style="fill:#1f77b4;"/>
   </g>
   <g id="patch_154">
    <path clip-path="url(#paa4a3bfcf8)" d="M 357.424965 224.28 
L 358.890768 224.28 
L 358.890768 141.37574 
L 357.424965 141.37574 
z
" style="fill:#1f77b4;"/>
   </g>
   <g id="patch_155">
    <path clip-path="url(#paa4a3bfcf8)" d="M 359.257219 224.28 
L 360.723023 224.28 
L 360.723023 133.86744 
L 359.257219 133.86744 
z
" style="fill:#1f77b4;"/>
   </g>
   <g id="patch_156">
    <path clip-path="url(#paa4a3bfcf8)" d="M 361.089474 224.28 
L 362.555277 224.28 
L 362.555277 122.080921 
L 361.089474 122.080921 
z
" style="fill:#1f77b4;"/>
   </g>
   <g id="patch_157">
    <path clip-path="url(#paa4a3bfcf8)" d="M 362.921728 224.28 
L 364.387532 224.28 
L 364.387532 129.899554 
L 362.921728 129.899554 
z
" style="fill:#1f77b4;"/>
   </g>
   <g id="patch_158">
    <path clip-path="url(#paa4a3bfcf8)" d="M 364.753983 224.28 
L 366.219786 224.28 
L 366.219786 129.384664 
L 364.753983 129.384664 
z
" style="fill:#1f77b4;"/>
   </g>
   <g id="patch_159">
    <path clip-path="url(#paa4a3bfcf8)" d="M 366.586237 224.28 
L 368.052041 224.28 
L 368.052041 104.097365 
L 366.586237 104.097365 
z
" style="fill:#1f77b4;"/>
   </g>
   <g id="patch_160">
    <path clip-path="url(#paa4a3bfcf8)" d="M 368.418491 224.28 
L 369.884295 224.28 
L 369.884295 124.105513 
L 368.418491 124.105513 
z
" style="fill:#1f77b4;"/>
   </g>
   <g id="patch_161">
    <path clip-path="url(#paa4a3bfcf8)" d="M 370.250746 224.28 
L 371.716549 224.28 
L 371.716549 135.297592 
L 370.250746 135.297592 
z
" style="fill:#1f77b4;"/>
   </g>
   <g id="patch_162">
    <path clip-path="url(#paa4a3bfcf8)" d="M 372.083 224.28 
L 373.548804 224.28 
L 373.548804 136.501333 
L 372.083 136.501333 
z
" style="fill:#1f77b4;"/>
   </g>
   <g id="patch_163">
    <path clip-path="url(#paa4a3bfcf8)" d="M 373.915255 224.28 
L 375.381058 224.28 
L 375.381058 135.450573 
L 373.915255 135.450573 
z
" style="fill:#1f77b4;"/>
   </g>
   <g id="patch_164">
    <path clip-path="url(#paa4a3bfcf8)" d="M 375.747509 224.28 
L 377.213313 224.28 
L 377.213313 131.180222 
L 375.747509 131.180222 
z
" style="fill:#1f77b4;"/>
   </g>
   <g id="patch_165">
    <path clip-path="url(#paa4a3bfcf8)" d="M 377.579764 224.28 
L 379.045567 224.28 
L 379.045567 118.120028 
L 377.579764 118.120028 
z
" style="fill:#1f77b4;"/>
   </g>
   <g id="patch_166">
    <path clip-path="url(#paa4a3bfcf8)" d="M 379.412018 224.28 
L 380.877822 224.28 
L 380.877822 115.05604 
L 379.412018 115.05604 
z
" style="fill:#1f77b4;"/>
   </g>
   <g id="patch_167">
    <path clip-path="url(#paa4a3bfcf8)" d="M 381.244272 224.28 
L 382.710076 224.28 
L 382.710076 127.638934 
L 381.244272 127.638934 
z
" style="fill:#1f77b4;"/>
   </g>
   <g id="patch_168">
    <path clip-path="url(#paa4a3bfcf8)" d="M 383.076527 224.28 
L 384.54233 224.28 
L 384.54233 100.962569 
L 383.076527 100.962569 
z
" style="fill:#1f77b4;"/>
   </g>
   <g id="patch_169">
    <path clip-path="url(#paa4a3bfcf8)" d="M 384.908781 224.28 
L 386.374585 224.28 
L 386.374585 120.343932 
L 384.908781 120.343932 
z
" style="fill:#1f77b4;"/>
   </g>
   <g id="patch_170">
    <path clip-path="url(#paa4a3bfcf8)" d="M 386.741036 224.28 
L 388.206839 224.28 
L 388.206839 121.826535 
L 386.741036 121.826535 
z
" style="fill:#1f77b4;"/>
   </g>
   <g id="patch_171">
    <path clip-path="url(#paa4a3bfcf8)" d="M 388.57329 224.28 
L 390.039094 224.28 
L 390.039094 112.042754 
L 388.57329 112.042754 
z
" style="fill:#1f77b4;"/>
   </g>
   <g id="patch_172">
    <path clip-path="url(#paa4a3bfcf8)" d="M 390.405545 224.28 
L 391.871348 224.28 
L 391.871348 102.631372 
L 390.405545 102.631372 
z
" style="fill:#1f77b4;"/>
   </g>
   <g id="patch_173">
    <path clip-path="url(#paa4a3bfcf8)" d="M 392.237799 224.28 
L 393.703603 224.28 
L 393.703603 111.511255 
L 392.237799 111.511255 
z
" style="fill:#1f77b4;"/>
   </g>
   <g id="patch_174">
    <path clip-path="url(#paa4a3bfcf8)" d="M 394.070053 224.28 
L 395.535857 224.28 
L 395.535857 159.603191 
L 394.070053 159.603191 
z
" style="fill:#1f77b4;"/>
   </g>
   <g id="patch_175">
    <path clip-path="url(#paa4a3bfcf8)" d="M 395.902308 224.28 
L 397.368111 224.28 
L 397.368111 125.802289 
L 395.902308 125.802289 
z
" style="fill:#1f77b4;"/>
   </g>
   <g id="patch_176">
    <path clip-path="url(#paa4a3bfcf8)" d="M 397.734562 224.28 
L 399.200366 224.28 
L 399.200366 150.607916 
L 397.734562 150.607916 
z
" style="fill:#1f77b4;"/>
   </g>
   <g id="patch_177">
    <path clip-path="url(#paa4a3bfcf8)" d="M 399.566817 224.28 
L 401.03262 224.28 
L 401.03262 141.553198 
L 399.566817 141.553198 
z
" style="fill:#1f77b4;"/>
   </g>
   <g id="patch_178">
    <path clip-path="url(#paa4a3bfcf8)" d="M 401.399071 224.28 
L 402.864875 224.28 
L 402.864875 132.290426 
L 401.399071 132.290426 
z
" style="fill:#1f77b4;"/>
   </g>
   <g id="patch_179">
    <path clip-path="url(#paa4a3bfcf8)" d="M 403.231326 224.28 
L 404.697129 224.28 
L 404.697129 113.555079 
L 403.231326 113.555079 
z
" style="fill:#1f77b4;"/>
   </g>
   <g id="patch_180">
    <path clip-path="url(#paa4a3bfcf8)" d="M 405.06358 224.28 
L 406.529384 224.28 
L 406.529384 114.041121 
L 405.06358 114.041121 
z
" style="fill:#1f77b4;"/>
   </g>
   <g id="patch_181">
    <path clip-path="url(#paa4a3bfcf8)" d="M 406.895835 224.28 
L 408.361638 224.28 
L 408.361638 121.288917 
L 406.895835 121.288917 
z
" style="fill:#1f77b4;"/>
   </g>
   <g id="patch_182">
    <path clip-path="url(#paa4a3bfcf8)" d="M 408.728089 224.28 
L 410.193892 224.28 
L 410.193892 118.215313 
L 408.728089 118.215313 
z
" style="fill:#1f77b4;"/>
   </g>
   <g id="patch_183">
    <path clip-path="url(#paa4a3bfcf8)" d="M 410.560343 224.28 
L 412.026147 224.28 
L 412.026147 147.109463 
L 410.560343 147.109463 
z
" style="fill:#1f77b4;"/>
   </g>
   <g id="patch_184">
    <path clip-path="url(#paa4a3bfcf8)" d="M 412.392598 224.28 
L 413.858401 224.28 
L 413.858401 120.147243 
L 412.392598 120.147243 
z
" style="fill:#1f77b4;"/>
   </g>
   <g id="patch_185">
    <path clip-path="url(#paa4a3bfcf8)" d="M 414.224852 224.28 
L 415.690656 224.28 
L 415.690656 122.969958 
L 414.224852 122.969958 
z
" style="fill:#1f77b4;"/>
   </g>
   <g id="patch_186">
    <path clip-path="url(#paa4a3bfcf8)" d="M 416.057107 224.28 
L 417.52291 224.28 
L 417.52291 103.04748 
L 416.057107 103.04748 
z
" style="fill:#1f77b4;"/>
   </g>
   <g id="patch_187">
    <path clip-path="url(#paa4a3bfcf8)" d="M 417.889361 224.28 
L 419.355165 224.28 
L 419.355165 110.609979 
L 417.889361 110.609979 
z
" style="fill:#1f77b4;"/>
   </g>
   <g id="patch_188">
    <path clip-path="url(#paa4a3bfcf8)" d="M 419.721616 224.28 
L 421.187419 224.28 
L 421.187419 101.390041 
L 419.721616 101.390041 
z
" style="fill:#1f77b4;"/>
   </g>
   <g id="patch_189">
    <path clip-path="url(#paa4a3bfcf8)" d="M 421.55387 224.28 
L 423.019674 224.28 
L 423.019674 122.291597 
L 421.55387 122.291597 
z
" style="fill:#1f77b4;"/>
   </g>
   <g id="patch_190">
    <path clip-path="url(#paa4a3bfcf8)" d="M 423.386124 224.28 
L 424.851928 224.28 
L 424.851928 85.776378 
L 423.386124 85.776378 
z
" style="fill:#1f77b4;"/>
   </g>
   <g id="patch_191">
    <path clip-path="url(#paa4a3bfcf8)" d="M 425.218379 224.28 
L 426.684182 224.28 
L 426.684182 109.520755 
L 425.218379 109.520755 
z
" style="fill:#1f77b4;"/>
   </g>
   <g id="patch_192">
    <path clip-path="url(#paa4a3bfcf8)" d="M 427.050633 224.28 
L 428.516437 224.28 
L 428.516437 111.024338 
L 427.050633 111.024338 
z
" style="fill:#1f77b4;"/>
   </g>
   <g id="patch_193">
    <path clip-path="url(#paa4a3bfcf8)" d="M 428.882888 224.28 
L 430.348691 224.28 
L 430.348691 116.934645 
L 428.882888 116.934645 
z
" style="fill:#1f77b4;"/>
   </g>
   <g id="patch_194">
    <path clip-path="url(#paa4a3bfcf8)" d="M 430.715142 224.28 
L 432.180946 224.28 
L 432.180946 114.975615 
L 430.715142 114.975615 
z
" style="fill:#1f77b4;"/>
   </g>
   <g id="patch_195">
    <path clip-path="url(#paa4a3bfcf8)" d="M 432.547397 224.28 
L 434.0132 224.28 
L 434.0132 59.654241 
L 432.547397 59.654241 
z
" style="fill:#1f77b4;"/>
   </g>
   <g id="patch_196">
    <path clip-path="url(#paa4a3bfcf8)" d="M 434.379651 224.28 
L 435.845455 224.28 
L 435.845455 108.323134 
L 434.379651 108.323134 
z
" style="fill:#1f77b4;"/>
   </g>
   <g id="matplotlib.axis_1">
    <g id="xtick_1">
     <g id="line2d_1">
      <defs>
       <path d="M 0 0 
L 0 3.5 
" id="md1969f0331" style="stroke:#000000;stroke-width:0.8;"/>
      </defs>
      <g>
       <use style="stroke:#000000;stroke-width:0.8;" x="79.655193" xlink:href="#md1969f0331" y="224.28"/>
      </g>
     </g>
     <g id="text_1">
      <!-- 0 -->
      <defs>
       <path d="M 31.78125 66.40625 
Q 24.171875 66.40625 20.328125 58.90625 
Q 16.5 51.421875 16.5 36.375 
Q 16.5 21.390625 20.328125 13.890625 
Q 24.171875 6.390625 31.78125 6.390625 
Q 39.453125 6.390625 43.28125 13.890625 
Q 47.125 21.390625 47.125 36.375 
Q 47.125 51.421875 43.28125 58.90625 
Q 39.453125 66.40625 31.78125 66.40625 
z
M 31.78125 74.21875 
Q 44.046875 74.21875 50.515625 64.515625 
Q 56.984375 54.828125 56.984375 36.375 
Q 56.984375 17.96875 50.515625 8.265625 
Q 44.046875 -1.421875 31.78125 -1.421875 
Q 19.53125 -1.421875 13.0625 8.265625 
Q 6.59375 17.96875 6.59375 36.375 
Q 6.59375 54.828125 13.0625 64.515625 
Q 19.53125 74.21875 31.78125 74.21875 
z
" id="DejaVuSans-30"/>
      </defs>
      <g transform="translate(76.473943 238.878438)scale(0.1 -0.1)">
       <use xlink:href="#DejaVuSans-30"/>
      </g>
     </g>
    </g>
    <g id="xtick_2">
     <g id="line2d_2">
      <g>
       <use style="stroke:#000000;stroke-width:0.8;" x="125.461554" xlink:href="#md1969f0331" y="224.28"/>
      </g>
     </g>
     <g id="text_2">
      <!-- 25 -->
      <defs>
       <path d="M 19.1875 8.296875 
L 53.609375 8.296875 
L 53.609375 0 
L 7.328125 0 
L 7.328125 8.296875 
Q 12.9375 14.109375 22.625 23.890625 
Q 32.328125 33.6875 34.8125 36.53125 
Q 39.546875 41.84375 41.421875 45.53125 
Q 43.3125 49.21875 43.3125 52.78125 
Q 43.3125 58.59375 39.234375 62.25 
Q 35.15625 65.921875 28.609375 65.921875 
Q 23.96875 65.921875 18.8125 64.3125 
Q 13.671875 62.703125 7.8125 59.421875 
L 7.8125 69.390625 
Q 13.765625 71.78125 18.9375 73 
Q 24.125 74.21875 28.421875 74.21875 
Q 39.75 74.21875 46.484375 68.546875 
Q 53.21875 62.890625 53.21875 53.421875 
Q 53.21875 48.921875 51.53125 44.890625 
Q 49.859375 40.875 45.40625 35.40625 
Q 44.1875 33.984375 37.640625 27.21875 
Q 31.109375 20.453125 19.1875 8.296875 
z
" id="DejaVuSans-32"/>
       <path d="M 10.796875 72.90625 
L 49.515625 72.90625 
L 49.515625 64.59375 
L 19.828125 64.59375 
L 19.828125 46.734375 
Q 21.96875 47.46875 24.109375 47.828125 
Q 26.265625 48.1875 28.421875 48.1875 
Q 40.625 48.1875 47.75 41.5 
Q 54.890625 34.8125 54.890625 23.390625 
Q 54.890625 11.625 47.5625 5.09375 
Q 40.234375 -1.421875 26.90625 -1.421875 
Q 22.3125 -1.421875 17.546875 -0.640625 
Q 12.796875 0.140625 7.71875 1.703125 
L 7.71875 11.625 
Q 12.109375 9.234375 16.796875 8.0625 
Q 21.484375 6.890625 26.703125 6.890625 
Q 35.15625 6.890625 40.078125 11.328125 
Q 45.015625 15.765625 45.015625 23.390625 
Q 45.015625 31 40.078125 35.4375 
Q 35.15625 39.890625 26.703125 39.890625 
Q 22.75 39.890625 18.8125 39.015625 
Q 14.890625 38.140625 10.796875 36.28125 
z
" id="DejaVuSans-35"/>
      </defs>
      <g transform="translate(119.099054 238.878438)scale(0.1 -0.1)">
       <use xlink:href="#DejaVuSans-32"/>
       <use x="63.623047" xlink:href="#DejaVuSans-35"/>
      </g>
     </g>
    </g>
    <g id="xtick_3">
     <g id="line2d_3">
      <g>
       <use style="stroke:#000000;stroke-width:0.8;" x="171.267914" xlink:href="#md1969f0331" y="224.28"/>
      </g>
     </g>
     <g id="text_3">
      <!-- 50 -->
      <g transform="translate(164.905414 238.878438)scale(0.1 -0.1)">
       <use xlink:href="#DejaVuSans-35"/>
       <use x="63.623047" xlink:href="#DejaVuSans-30"/>
      </g>
     </g>
    </g>
    <g id="xtick_4">
     <g id="line2d_4">
      <g>
       <use style="stroke:#000000;stroke-width:0.8;" x="217.074275" xlink:href="#md1969f0331" y="224.28"/>
      </g>
     </g>
     <g id="text_4">
      <!-- 75 -->
      <defs>
       <path d="M 8.203125 72.90625 
L 55.078125 72.90625 
L 55.078125 68.703125 
L 28.609375 0 
L 18.3125 0 
L 43.21875 64.59375 
L 8.203125 64.59375 
z
" id="DejaVuSans-37"/>
      </defs>
      <g transform="translate(210.711775 238.878438)scale(0.1 -0.1)">
       <use xlink:href="#DejaVuSans-37"/>
       <use x="63.623047" xlink:href="#DejaVuSans-35"/>
      </g>
     </g>
    </g>
    <g id="xtick_5">
     <g id="line2d_5">
      <g>
       <use style="stroke:#000000;stroke-width:0.8;" x="262.880636" xlink:href="#md1969f0331" y="224.28"/>
      </g>
     </g>
     <g id="text_5">
      <!-- 100 -->
      <defs>
       <path d="M 12.40625 8.296875 
L 28.515625 8.296875 
L 28.515625 63.921875 
L 10.984375 60.40625 
L 10.984375 69.390625 
L 28.421875 72.90625 
L 38.28125 72.90625 
L 38.28125 8.296875 
L 54.390625 8.296875 
L 54.390625 0 
L 12.40625 0 
z
" id="DejaVuSans-31"/>
      </defs>
      <g transform="translate(253.336886 238.878438)scale(0.1 -0.1)">
       <use xlink:href="#DejaVuSans-31"/>
       <use x="63.623047" xlink:href="#DejaVuSans-30"/>
       <use x="127.246094" xlink:href="#DejaVuSans-30"/>
      </g>
     </g>
    </g>
    <g id="xtick_6">
     <g id="line2d_6">
      <g>
       <use style="stroke:#000000;stroke-width:0.8;" x="308.686997" xlink:href="#md1969f0331" y="224.28"/>
      </g>
     </g>
     <g id="text_6">
      <!-- 125 -->
      <g transform="translate(299.143247 238.878438)scale(0.1 -0.1)">
       <use xlink:href="#DejaVuSans-31"/>
       <use x="63.623047" xlink:href="#DejaVuSans-32"/>
       <use x="127.246094" xlink:href="#DejaVuSans-35"/>
      </g>
     </g>
    </g>
    <g id="xtick_7">
     <g id="line2d_7">
      <g>
       <use style="stroke:#000000;stroke-width:0.8;" x="354.493358" xlink:href="#md1969f0331" y="224.28"/>
      </g>
     </g>
     <g id="text_7">
      <!-- 150 -->
      <g transform="translate(344.949608 238.878438)scale(0.1 -0.1)">
       <use xlink:href="#DejaVuSans-31"/>
       <use x="63.623047" xlink:href="#DejaVuSans-35"/>
       <use x="127.246094" xlink:href="#DejaVuSans-30"/>
      </g>
     </g>
    </g>
    <g id="xtick_8">
     <g id="line2d_8">
      <g>
       <use style="stroke:#000000;stroke-width:0.8;" x="400.299719" xlink:href="#md1969f0331" y="224.28"/>
      </g>
     </g>
     <g id="text_8">
      <!-- 175 -->
      <g transform="translate(390.755969 238.878438)scale(0.1 -0.1)">
       <use xlink:href="#DejaVuSans-31"/>
       <use x="63.623047" xlink:href="#DejaVuSans-37"/>
       <use x="127.246094" xlink:href="#DejaVuSans-35"/>
      </g>
     </g>
    </g>
    <g id="xtick_9">
     <g id="line2d_9">
      <g>
       <use style="stroke:#000000;stroke-width:0.8;" x="446.106079" xlink:href="#md1969f0331" y="224.28"/>
      </g>
     </g>
     <g id="text_9">
      <!-- 200 -->
      <g transform="translate(436.562329 238.878438)scale(0.1 -0.1)">
       <use xlink:href="#DejaVuSans-32"/>
       <use x="63.623047" xlink:href="#DejaVuSans-30"/>
       <use x="127.246094" xlink:href="#DejaVuSans-30"/>
      </g>
     </g>
    </g>
    <g id="text_10">
     <!-- number of chunk (from beginning to end) -->
     <defs>
      <path d="M 54.890625 33.015625 
L 54.890625 0 
L 45.90625 0 
L 45.90625 32.71875 
Q 45.90625 40.484375 42.875 44.328125 
Q 39.84375 48.1875 33.796875 48.1875 
Q 26.515625 48.1875 22.3125 43.546875 
Q 18.109375 38.921875 18.109375 30.90625 
L 18.109375 0 
L 9.078125 0 
L 9.078125 54.6875 
L 18.109375 54.6875 
L 18.109375 46.1875 
Q 21.34375 51.125 25.703125 53.5625 
Q 30.078125 56 35.796875 56 
Q 45.21875 56 50.046875 50.171875 
Q 54.890625 44.34375 54.890625 33.015625 
z
" id="DejaVuSans-6e"/>
      <path d="M 8.5 21.578125 
L 8.5 54.6875 
L 17.484375 54.6875 
L 17.484375 21.921875 
Q 17.484375 14.15625 20.5 10.265625 
Q 23.53125 6.390625 29.59375 6.390625 
Q 36.859375 6.390625 41.078125 11.03125 
Q 45.3125 15.671875 45.3125 23.6875 
L 45.3125 54.6875 
L 54.296875 54.6875 
L 54.296875 0 
L 45.3125 0 
L 45.3125 8.40625 
Q 42.046875 3.421875 37.71875 1 
Q 33.40625 -1.421875 27.6875 -1.421875 
Q 18.265625 -1.421875 13.375 4.4375 
Q 8.5 10.296875 8.5 21.578125 
z
M 31.109375 56 
z
" id="DejaVuSans-75"/>
      <path d="M 52 44.1875 
Q 55.375 50.25 60.0625 53.125 
Q 64.75 56 71.09375 56 
Q 79.640625 56 84.28125 50.015625 
Q 88.921875 44.046875 88.921875 33.015625 
L 88.921875 0 
L 79.890625 0 
L 79.890625 32.71875 
Q 79.890625 40.578125 77.09375 44.375 
Q 74.3125 48.1875 68.609375 48.1875 
Q 61.625 48.1875 57.5625 43.546875 
Q 53.515625 38.921875 53.515625 30.90625 
L 53.515625 0 
L 44.484375 0 
L 44.484375 32.71875 
Q 44.484375 40.625 41.703125 44.40625 
Q 38.921875 48.1875 33.109375 48.1875 
Q 26.21875 48.1875 22.15625 43.53125 
Q 18.109375 38.875 18.109375 30.90625 
L 18.109375 0 
L 9.078125 0 
L 9.078125 54.6875 
L 18.109375 54.6875 
L 18.109375 46.1875 
Q 21.1875 51.21875 25.484375 53.609375 
Q 29.78125 56 35.6875 56 
Q 41.65625 56 45.828125 52.96875 
Q 50 49.953125 52 44.1875 
z
" id="DejaVuSans-6d"/>
      <path d="M 48.6875 27.296875 
Q 48.6875 37.203125 44.609375 42.84375 
Q 40.53125 48.484375 33.40625 48.484375 
Q 26.265625 48.484375 22.1875 42.84375 
Q 18.109375 37.203125 18.109375 27.296875 
Q 18.109375 17.390625 22.1875 11.75 
Q 26.265625 6.109375 33.40625 6.109375 
Q 40.53125 6.109375 44.609375 11.75 
Q 48.6875 17.390625 48.6875 27.296875 
z
M 18.109375 46.390625 
Q 20.953125 51.265625 25.265625 53.625 
Q 29.59375 56 35.59375 56 
Q 45.5625 56 51.78125 48.09375 
Q 58.015625 40.1875 58.015625 27.296875 
Q 58.015625 14.40625 51.78125 6.484375 
Q 45.5625 -1.421875 35.59375 -1.421875 
Q 29.59375 -1.421875 25.265625 0.953125 
Q 20.953125 3.328125 18.109375 8.203125 
L 18.109375 0 
L 9.078125 0 
L 9.078125 75.984375 
L 18.109375 75.984375 
z
" id="DejaVuSans-62"/>
      <path d="M 56.203125 29.59375 
L 56.203125 25.203125 
L 14.890625 25.203125 
Q 15.484375 15.921875 20.484375 11.0625 
Q 25.484375 6.203125 34.421875 6.203125 
Q 39.59375 6.203125 44.453125 7.46875 
Q 49.3125 8.734375 54.109375 11.28125 
L 54.109375 2.78125 
Q 49.265625 0.734375 44.1875 -0.34375 
Q 39.109375 -1.421875 33.890625 -1.421875 
Q 20.796875 -1.421875 13.15625 6.1875 
Q 5.515625 13.8125 5.515625 26.8125 
Q 5.515625 40.234375 12.765625 48.109375 
Q 20.015625 56 32.328125 56 
Q 43.359375 56 49.78125 48.890625 
Q 56.203125 41.796875 56.203125 29.59375 
z
M 47.21875 32.234375 
Q 47.125 39.59375 43.09375 43.984375 
Q 39.0625 48.390625 32.421875 48.390625 
Q 24.90625 48.390625 20.390625 44.140625 
Q 15.875 39.890625 15.1875 32.171875 
z
" id="DejaVuSans-65"/>
      <path d="M 41.109375 46.296875 
Q 39.59375 47.171875 37.8125 47.578125 
Q 36.03125 48 33.890625 48 
Q 26.265625 48 22.1875 43.046875 
Q 18.109375 38.09375 18.109375 28.8125 
L 18.109375 0 
L 9.078125 0 
L 9.078125 54.6875 
L 18.109375 54.6875 
L 18.109375 46.1875 
Q 20.953125 51.171875 25.484375 53.578125 
Q 30.03125 56 36.53125 56 
Q 37.453125 56 38.578125 55.875 
Q 39.703125 55.765625 41.0625 55.515625 
z
" id="DejaVuSans-72"/>
      <path id="DejaVuSans-20"/>
      <path d="M 30.609375 48.390625 
Q 23.390625 48.390625 19.1875 42.75 
Q 14.984375 37.109375 14.984375 27.296875 
Q 14.984375 17.484375 19.15625 11.84375 
Q 23.34375 6.203125 30.609375 6.203125 
Q 37.796875 6.203125 41.984375 11.859375 
Q 46.1875 17.53125 46.1875 27.296875 
Q 46.1875 37.015625 41.984375 42.703125 
Q 37.796875 48.390625 30.609375 48.390625 
z
M 30.609375 56 
Q 42.328125 56 49.015625 48.375 
Q 55.71875 40.765625 55.71875 27.296875 
Q 55.71875 13.875 49.015625 6.21875 
Q 42.328125 -1.421875 30.609375 -1.421875 
Q 18.84375 -1.421875 12.171875 6.21875 
Q 5.515625 13.875 5.515625 27.296875 
Q 5.515625 40.765625 12.171875 48.375 
Q 18.84375 56 30.609375 56 
z
" id="DejaVuSans-6f"/>
      <path d="M 37.109375 75.984375 
L 37.109375 68.5 
L 28.515625 68.5 
Q 23.6875 68.5 21.796875 66.546875 
Q 19.921875 64.59375 19.921875 59.515625 
L 19.921875 54.6875 
L 34.71875 54.6875 
L 34.71875 47.703125 
L 19.921875 47.703125 
L 19.921875 0 
L 10.890625 0 
L 10.890625 47.703125 
L 2.296875 47.703125 
L 2.296875 54.6875 
L 10.890625 54.6875 
L 10.890625 58.5 
Q 10.890625 67.625 15.140625 71.796875 
Q 19.390625 75.984375 28.609375 75.984375 
z
" id="DejaVuSans-66"/>
      <path d="M 48.78125 52.59375 
L 48.78125 44.1875 
Q 44.96875 46.296875 41.140625 47.34375 
Q 37.3125 48.390625 33.40625 48.390625 
Q 24.65625 48.390625 19.8125 42.84375 
Q 14.984375 37.3125 14.984375 27.296875 
Q 14.984375 17.28125 19.8125 11.734375 
Q 24.65625 6.203125 33.40625 6.203125 
Q 37.3125 6.203125 41.140625 7.25 
Q 44.96875 8.296875 48.78125 10.40625 
L 48.78125 2.09375 
Q 45.015625 0.34375 40.984375 -0.53125 
Q 36.96875 -1.421875 32.421875 -1.421875 
Q 20.0625 -1.421875 12.78125 6.34375 
Q 5.515625 14.109375 5.515625 27.296875 
Q 5.515625 40.671875 12.859375 48.328125 
Q 20.21875 56 33.015625 56 
Q 37.15625 56 41.109375 55.140625 
Q 45.0625 54.296875 48.78125 52.59375 
z
" id="DejaVuSans-63"/>
      <path d="M 54.890625 33.015625 
L 54.890625 0 
L 45.90625 0 
L 45.90625 32.71875 
Q 45.90625 40.484375 42.875 44.328125 
Q 39.84375 48.1875 33.796875 48.1875 
Q 26.515625 48.1875 22.3125 43.546875 
Q 18.109375 38.921875 18.109375 30.90625 
L 18.109375 0 
L 9.078125 0 
L 9.078125 75.984375 
L 18.109375 75.984375 
L 18.109375 46.1875 
Q 21.34375 51.125 25.703125 53.5625 
Q 30.078125 56 35.796875 56 
Q 45.21875 56 50.046875 50.171875 
Q 54.890625 44.34375 54.890625 33.015625 
z
" id="DejaVuSans-68"/>
      <path d="M 9.078125 75.984375 
L 18.109375 75.984375 
L 18.109375 31.109375 
L 44.921875 54.6875 
L 56.390625 54.6875 
L 27.390625 29.109375 
L 57.625 0 
L 45.90625 0 
L 18.109375 26.703125 
L 18.109375 0 
L 9.078125 0 
z
" id="DejaVuSans-6b"/>
      <path d="M 31 75.875 
Q 24.46875 64.65625 21.28125 53.65625 
Q 18.109375 42.671875 18.109375 31.390625 
Q 18.109375 20.125 21.3125 9.0625 
Q 24.515625 -2 31 -13.1875 
L 23.1875 -13.1875 
Q 15.875 -1.703125 12.234375 9.375 
Q 8.59375 20.453125 8.59375 31.390625 
Q 8.59375 42.28125 12.203125 53.3125 
Q 15.828125 64.359375 23.1875 75.875 
z
" id="DejaVuSans-28"/>
      <path d="M 45.40625 27.984375 
Q 45.40625 37.75 41.375 43.109375 
Q 37.359375 48.484375 30.078125 48.484375 
Q 22.859375 48.484375 18.828125 43.109375 
Q 14.796875 37.75 14.796875 27.984375 
Q 14.796875 18.265625 18.828125 12.890625 
Q 22.859375 7.515625 30.078125 7.515625 
Q 37.359375 7.515625 41.375 12.890625 
Q 45.40625 18.265625 45.40625 27.984375 
z
M 54.390625 6.78125 
Q 54.390625 -7.171875 48.1875 -13.984375 
Q 42 -20.796875 29.203125 -20.796875 
Q 24.46875 -20.796875 20.265625 -20.09375 
Q 16.0625 -19.390625 12.109375 -17.921875 
L 12.109375 -9.1875 
Q 16.0625 -11.328125 19.921875 -12.34375 
Q 23.78125 -13.375 27.78125 -13.375 
Q 36.625 -13.375 41.015625 -8.765625 
Q 45.40625 -4.15625 45.40625 5.171875 
L 45.40625 9.625 
Q 42.625 4.78125 38.28125 2.390625 
Q 33.9375 0 27.875 0 
Q 17.828125 0 11.671875 7.65625 
Q 5.515625 15.328125 5.515625 27.984375 
Q 5.515625 40.671875 11.671875 48.328125 
Q 17.828125 56 27.875 56 
Q 33.9375 56 38.28125 53.609375 
Q 42.625 51.21875 45.40625 46.390625 
L 45.40625 54.6875 
L 54.390625 54.6875 
z
" id="DejaVuSans-67"/>
      <path d="M 9.421875 54.6875 
L 18.40625 54.6875 
L 18.40625 0 
L 9.421875 0 
z
M 9.421875 75.984375 
L 18.40625 75.984375 
L 18.40625 64.59375 
L 9.421875 64.59375 
z
" id="DejaVuSans-69"/>
      <path d="M 18.3125 70.21875 
L 18.3125 54.6875 
L 36.8125 54.6875 
L 36.8125 47.703125 
L 18.3125 47.703125 
L 18.3125 18.015625 
Q 18.3125 11.328125 20.140625 9.421875 
Q 21.96875 7.515625 27.59375 7.515625 
L 36.8125 7.515625 
L 36.8125 0 
L 27.59375 0 
Q 17.1875 0 13.234375 3.875 
Q 9.28125 7.765625 9.28125 18.015625 
L 9.28125 47.703125 
L 2.6875 47.703125 
L 2.6875 54.6875 
L 9.28125 54.6875 
L 9.28125 70.21875 
z
" id="DejaVuSans-74"/>
      <path d="M 45.40625 46.390625 
L 45.40625 75.984375 
L 54.390625 75.984375 
L 54.390625 0 
L 45.40625 0 
L 45.40625 8.203125 
Q 42.578125 3.328125 38.25 0.953125 
Q 33.9375 -1.421875 27.875 -1.421875 
Q 17.96875 -1.421875 11.734375 6.484375 
Q 5.515625 14.40625 5.515625 27.296875 
Q 5.515625 40.1875 11.734375 48.09375 
Q 17.96875 56 27.875 56 
Q 33.9375 56 38.25 53.625 
Q 42.578125 51.265625 45.40625 46.390625 
z
M 14.796875 27.296875 
Q 14.796875 17.390625 18.875 11.75 
Q 22.953125 6.109375 30.078125 6.109375 
Q 37.203125 6.109375 41.296875 11.75 
Q 45.40625 17.390625 45.40625 27.296875 
Q 45.40625 37.203125 41.296875 42.84375 
Q 37.203125 48.484375 30.078125 48.484375 
Q 22.953125 48.484375 18.875 42.84375 
Q 14.796875 37.203125 14.796875 27.296875 
z
" id="DejaVuSans-64"/>
      <path d="M 8.015625 75.875 
L 15.828125 75.875 
Q 23.140625 64.359375 26.78125 53.3125 
Q 30.421875 42.28125 30.421875 31.390625 
Q 30.421875 20.453125 26.78125 9.375 
Q 23.140625 -1.703125 15.828125 -13.1875 
L 8.015625 -13.1875 
Q 14.5 -2 17.703125 9.0625 
Q 20.90625 20.125 20.90625 31.390625 
Q 20.90625 42.671875 17.703125 53.65625 
Q 14.5 64.65625 8.015625 75.875 
z
" id="DejaVuSans-29"/>
     </defs>
     <g transform="translate(154.313281 252.556563)scale(0.1 -0.1)">
      <use xlink:href="#DejaVuSans-6e"/>
      <use x="63.378906" xlink:href="#DejaVuSans-75"/>
      <use x="126.757812" xlink:href="#DejaVuSans-6d"/>
      <use x="224.169922" xlink:href="#DejaVuSans-62"/>
      <use x="287.646484" xlink:href="#DejaVuSans-65"/>
      <use x="349.169922" xlink:href="#DejaVuSans-72"/>
      <use x="390.283203" xlink:href="#DejaVuSans-20"/>
      <use x="422.070312" xlink:href="#DejaVuSans-6f"/>
      <use x="483.251953" xlink:href="#DejaVuSans-66"/>
      <use x="518.457031" xlink:href="#DejaVuSans-20"/>
      <use x="550.244141" xlink:href="#DejaVuSans-63"/>
      <use x="605.224609" xlink:href="#DejaVuSans-68"/>
      <use x="668.603516" xlink:href="#DejaVuSans-75"/>
      <use x="731.982422" xlink:href="#DejaVuSans-6e"/>
      <use x="795.361328" xlink:href="#DejaVuSans-6b"/>
      <use x="853.271484" xlink:href="#DejaVuSans-20"/>
      <use x="885.058594" xlink:href="#DejaVuSans-28"/>
      <use x="924.072266" xlink:href="#DejaVuSans-66"/>
      <use x="959.277344" xlink:href="#DejaVuSans-72"/>
      <use x="1000.359375" xlink:href="#DejaVuSans-6f"/>
      <use x="1061.541016" xlink:href="#DejaVuSans-6d"/>
      <use x="1158.953125" xlink:href="#DejaVuSans-20"/>
      <use x="1190.740234" xlink:href="#DejaVuSans-62"/>
      <use x="1254.216797" xlink:href="#DejaVuSans-65"/>
      <use x="1315.740234" xlink:href="#DejaVuSans-67"/>
      <use x="1379.216797" xlink:href="#DejaVuSans-69"/>
      <use x="1407" xlink:href="#DejaVuSans-6e"/>
      <use x="1470.378906" xlink:href="#DejaVuSans-6e"/>
      <use x="1533.757812" xlink:href="#DejaVuSans-69"/>
      <use x="1561.541016" xlink:href="#DejaVuSans-6e"/>
      <use x="1624.919922" xlink:href="#DejaVuSans-67"/>
      <use x="1688.396484" xlink:href="#DejaVuSans-20"/>
      <use x="1720.183594" xlink:href="#DejaVuSans-74"/>
      <use x="1759.392578" xlink:href="#DejaVuSans-6f"/>
      <use x="1820.574219" xlink:href="#DejaVuSans-20"/>
      <use x="1852.361328" xlink:href="#DejaVuSans-65"/>
      <use x="1913.884766" xlink:href="#DejaVuSans-6e"/>
      <use x="1977.263672" xlink:href="#DejaVuSans-64"/>
      <use x="2040.740234" xlink:href="#DejaVuSans-29"/>
     </g>
    </g>
   </g>
   <g id="matplotlib.axis_2">
    <g id="ytick_1">
     <g id="line2d_10">
      <defs>
       <path d="M 0 0 
L -3.5 0 
" id="m01b85de9f7" style="stroke:#000000;stroke-width:0.8;"/>
      </defs>
      <g>
       <use style="stroke:#000000;stroke-width:0.8;" x="63" xlink:href="#m01b85de9f7" y="224.28"/>
      </g>
     </g>
     <g id="text_11">
      <!-- 0.0 -->
      <defs>
       <path d="M 10.6875 12.40625 
L 21 12.40625 
L 21 0 
L 10.6875 0 
z
" id="DejaVuSans-2e"/>
      </defs>
      <g transform="translate(40.096875 228.079219)scale(0.1 -0.1)">
       <use xlink:href="#DejaVuSans-30"/>
       <use x="63.623047" xlink:href="#DejaVuSans-2e"/>
       <use x="95.410156" xlink:href="#DejaVuSans-30"/>
      </g>
     </g>
    </g>
    <g id="ytick_2">
     <g id="line2d_11">
      <g>
       <use style="stroke:#000000;stroke-width:0.8;" x="63" xlink:href="#m01b85de9f7" y="202.425592"/>
      </g>
     </g>
     <g id="text_12">
      <!-- 2.5 -->
      <g transform="translate(40.096875 206.224811)scale(0.1 -0.1)">
       <use xlink:href="#DejaVuSans-32"/>
       <use x="63.623047" xlink:href="#DejaVuSans-2e"/>
       <use x="95.410156" xlink:href="#DejaVuSans-35"/>
      </g>
     </g>
    </g>
    <g id="ytick_3">
     <g id="line2d_12">
      <g>
       <use style="stroke:#000000;stroke-width:0.8;" x="63" xlink:href="#m01b85de9f7" y="180.571184"/>
      </g>
     </g>
     <g id="text_13">
      <!-- 5.0 -->
      <g transform="translate(40.096875 184.370403)scale(0.1 -0.1)">
       <use xlink:href="#DejaVuSans-35"/>
       <use x="63.623047" xlink:href="#DejaVuSans-2e"/>
       <use x="95.410156" xlink:href="#DejaVuSans-30"/>
      </g>
     </g>
    </g>
    <g id="ytick_4">
     <g id="line2d_13">
      <g>
       <use style="stroke:#000000;stroke-width:0.8;" x="63" xlink:href="#m01b85de9f7" y="158.716776"/>
      </g>
     </g>
     <g id="text_14">
      <!-- 7.5 -->
      <g transform="translate(40.096875 162.515995)scale(0.1 -0.1)">
       <use xlink:href="#DejaVuSans-37"/>
       <use x="63.623047" xlink:href="#DejaVuSans-2e"/>
       <use x="95.410156" xlink:href="#DejaVuSans-35"/>
      </g>
     </g>
    </g>
    <g id="ytick_5">
     <g id="line2d_14">
      <g>
       <use style="stroke:#000000;stroke-width:0.8;" x="63" xlink:href="#m01b85de9f7" y="136.862368"/>
      </g>
     </g>
     <g id="text_15">
      <!-- 10.0 -->
      <g transform="translate(33.734375 140.661587)scale(0.1 -0.1)">
       <use xlink:href="#DejaVuSans-31"/>
       <use x="63.623047" xlink:href="#DejaVuSans-30"/>
       <use x="127.246094" xlink:href="#DejaVuSans-2e"/>
       <use x="159.033203" xlink:href="#DejaVuSans-30"/>
      </g>
     </g>
    </g>
    <g id="ytick_6">
     <g id="line2d_15">
      <g>
       <use style="stroke:#000000;stroke-width:0.8;" x="63" xlink:href="#m01b85de9f7" y="115.00796"/>
      </g>
     </g>
     <g id="text_16">
      <!-- 12.5 -->
      <g transform="translate(33.734375 118.807179)scale(0.1 -0.1)">
       <use xlink:href="#DejaVuSans-31"/>
       <use x="63.623047" xlink:href="#DejaVuSans-32"/>
       <use x="127.246094" xlink:href="#DejaVuSans-2e"/>
       <use x="159.033203" xlink:href="#DejaVuSans-35"/>
      </g>
     </g>
    </g>
    <g id="ytick_7">
     <g id="line2d_16">
      <g>
       <use style="stroke:#000000;stroke-width:0.8;" x="63" xlink:href="#m01b85de9f7" y="93.153552"/>
      </g>
     </g>
     <g id="text_17">
      <!-- 15.0 -->
      <g transform="translate(33.734375 96.952771)scale(0.1 -0.1)">
       <use xlink:href="#DejaVuSans-31"/>
       <use x="63.623047" xlink:href="#DejaVuSans-35"/>
       <use x="127.246094" xlink:href="#DejaVuSans-2e"/>
       <use x="159.033203" xlink:href="#DejaVuSans-30"/>
      </g>
     </g>
    </g>
    <g id="ytick_8">
     <g id="line2d_17">
      <g>
       <use style="stroke:#000000;stroke-width:0.8;" x="63" xlink:href="#m01b85de9f7" y="71.299144"/>
      </g>
     </g>
     <g id="text_18">
      <!-- 17.5 -->
      <g transform="translate(33.734375 75.098363)scale(0.1 -0.1)">
       <use xlink:href="#DejaVuSans-31"/>
       <use x="63.623047" xlink:href="#DejaVuSans-37"/>
       <use x="127.246094" xlink:href="#DejaVuSans-2e"/>
       <use x="159.033203" xlink:href="#DejaVuSans-35"/>
      </g>
     </g>
    </g>
    <g id="ytick_9">
     <g id="line2d_18">
      <g>
       <use style="stroke:#000000;stroke-width:0.8;" x="63" xlink:href="#m01b85de9f7" y="49.444736"/>
      </g>
     </g>
     <g id="text_19">
      <!-- 20.0 -->
      <g transform="translate(33.734375 53.243955)scale(0.1 -0.1)">
       <use xlink:href="#DejaVuSans-32"/>
       <use x="63.623047" xlink:href="#DejaVuSans-30"/>
       <use x="127.246094" xlink:href="#DejaVuSans-2e"/>
       <use x="159.033203" xlink:href="#DejaVuSans-30"/>
      </g>
     </g>
    </g>
    <g id="text_20">
     <!-- GFI -->
     <defs>
      <path d="M 59.515625 10.40625 
L 59.515625 29.984375 
L 43.40625 29.984375 
L 43.40625 38.09375 
L 69.28125 38.09375 
L 69.28125 6.78125 
Q 63.578125 2.734375 56.6875 0.65625 
Q 49.8125 -1.421875 42 -1.421875 
Q 24.90625 -1.421875 15.25 8.5625 
Q 5.609375 18.5625 5.609375 36.375 
Q 5.609375 54.25 15.25 64.234375 
Q 24.90625 74.21875 42 74.21875 
Q 49.125 74.21875 55.546875 72.453125 
Q 61.96875 70.703125 67.390625 67.28125 
L 67.390625 56.78125 
Q 61.921875 61.421875 55.765625 63.765625 
Q 49.609375 66.109375 42.828125 66.109375 
Q 29.4375 66.109375 22.71875 58.640625 
Q 16.015625 51.171875 16.015625 36.375 
Q 16.015625 21.625 22.71875 14.15625 
Q 29.4375 6.6875 42.828125 6.6875 
Q 48.046875 6.6875 52.140625 7.59375 
Q 56.25 8.5 59.515625 10.40625 
z
" id="DejaVuSans-47"/>
      <path d="M 9.8125 72.90625 
L 51.703125 72.90625 
L 51.703125 64.59375 
L 19.671875 64.59375 
L 19.671875 43.109375 
L 48.578125 43.109375 
L 48.578125 34.8125 
L 19.671875 34.8125 
L 19.671875 0 
L 9.8125 0 
z
" id="DejaVuSans-46"/>
      <path d="M 9.8125 72.90625 
L 19.671875 72.90625 
L 19.671875 0 
L 9.8125 0 
z
" id="DejaVuSans-49"/>
     </defs>
     <g transform="translate(27.654688 135.485)rotate(-90)scale(0.1 -0.1)">
      <use xlink:href="#DejaVuSans-47"/>
      <use x="77.490234" xlink:href="#DejaVuSans-46"/>
      <use x="135.009766" xlink:href="#DejaVuSans-49"/>
     </g>
    </g>
   </g>
   <g id="patch_197">
    <path d="M 63 224.28 
L 63 30.24 
" style="fill:none;stroke:#000000;stroke-linecap:square;stroke-linejoin:miter;stroke-width:0.8;"/>
   </g>
   <g id="patch_198">
    <path d="M 453.6 224.28 
L 453.6 30.24 
" style="fill:none;stroke:#000000;stroke-linecap:square;stroke-linejoin:miter;stroke-width:0.8;"/>
   </g>
   <g id="patch_199">
    <path d="M 63 224.28 
L 453.6 224.28 
" style="fill:none;stroke:#000000;stroke-linecap:square;stroke-linejoin:miter;stroke-width:0.8;"/>
   </g>
   <g id="patch_200">
    <path d="M 63 30.24 
L 453.6 30.24 
" style="fill:none;stroke:#000000;stroke-linecap:square;stroke-linejoin:miter;stroke-width:0.8;"/>
   </g>
  </g>
  <g id="text_21">
   <!-- GFI for the chunks of size 10 of document en119716549.txt -->
   <defs>
    <path d="M 44.28125 53.078125 
L 44.28125 44.578125 
Q 40.484375 46.53125 36.375 47.5 
Q 32.28125 48.484375 27.875 48.484375 
Q 21.1875 48.484375 17.84375 46.4375 
Q 14.5 44.390625 14.5 40.28125 
Q 14.5 37.15625 16.890625 35.375 
Q 19.28125 33.59375 26.515625 31.984375 
L 29.59375 31.296875 
Q 39.15625 29.25 43.1875 25.515625 
Q 47.21875 21.78125 47.21875 15.09375 
Q 47.21875 7.46875 41.1875 3.015625 
Q 35.15625 -1.421875 24.609375 -1.421875 
Q 20.21875 -1.421875 15.453125 -0.5625 
Q 10.6875 0.296875 5.421875 2 
L 5.421875 11.28125 
Q 10.40625 8.6875 15.234375 7.390625 
Q 20.0625 6.109375 24.8125 6.109375 
Q 31.15625 6.109375 34.5625 8.28125 
Q 37.984375 10.453125 37.984375 14.40625 
Q 37.984375 18.0625 35.515625 20.015625 
Q 33.0625 21.96875 24.703125 23.78125 
L 21.578125 24.515625 
Q 13.234375 26.265625 9.515625 29.90625 
Q 5.8125 33.546875 5.8125 39.890625 
Q 5.8125 47.609375 11.28125 51.796875 
Q 16.75 56 26.8125 56 
Q 31.78125 56 36.171875 55.265625 
Q 40.578125 54.546875 44.28125 53.078125 
z
" id="DejaVuSans-73"/>
    <path d="M 5.515625 54.6875 
L 48.1875 54.6875 
L 48.1875 46.484375 
L 14.40625 7.171875 
L 48.1875 7.171875 
L 48.1875 0 
L 4.296875 0 
L 4.296875 8.203125 
L 38.09375 47.515625 
L 5.515625 47.515625 
z
" id="DejaVuSans-7a"/>
    <path d="M 10.984375 1.515625 
L 10.984375 10.5 
Q 14.703125 8.734375 18.5 7.8125 
Q 22.3125 6.890625 25.984375 6.890625 
Q 35.75 6.890625 40.890625 13.453125 
Q 46.046875 20.015625 46.78125 33.40625 
Q 43.953125 29.203125 39.59375 26.953125 
Q 35.25 24.703125 29.984375 24.703125 
Q 19.046875 24.703125 12.671875 31.3125 
Q 6.296875 37.9375 6.296875 49.421875 
Q 6.296875 60.640625 12.9375 67.421875 
Q 19.578125 74.21875 30.609375 74.21875 
Q 43.265625 74.21875 49.921875 64.515625 
Q 56.59375 54.828125 56.59375 36.375 
Q 56.59375 19.140625 48.40625 8.859375 
Q 40.234375 -1.421875 26.421875 -1.421875 
Q 22.703125 -1.421875 18.890625 -0.6875 
Q 15.09375 0.046875 10.984375 1.515625 
z
M 30.609375 32.421875 
Q 37.25 32.421875 41.125 36.953125 
Q 45.015625 41.5 45.015625 49.421875 
Q 45.015625 57.28125 41.125 61.84375 
Q 37.25 66.40625 30.609375 66.40625 
Q 23.96875 66.40625 20.09375 61.84375 
Q 16.21875 57.28125 16.21875 49.421875 
Q 16.21875 41.5 20.09375 36.953125 
Q 23.96875 32.421875 30.609375 32.421875 
z
" id="DejaVuSans-39"/>
    <path d="M 33.015625 40.375 
Q 26.375 40.375 22.484375 35.828125 
Q 18.609375 31.296875 18.609375 23.390625 
Q 18.609375 15.53125 22.484375 10.953125 
Q 26.375 6.390625 33.015625 6.390625 
Q 39.65625 6.390625 43.53125 10.953125 
Q 47.40625 15.53125 47.40625 23.390625 
Q 47.40625 31.296875 43.53125 35.828125 
Q 39.65625 40.375 33.015625 40.375 
z
M 52.59375 71.296875 
L 52.59375 62.3125 
Q 48.875 64.0625 45.09375 64.984375 
Q 41.3125 65.921875 37.59375 65.921875 
Q 27.828125 65.921875 22.671875 59.328125 
Q 17.53125 52.734375 16.796875 39.40625 
Q 19.671875 43.65625 24.015625 45.921875 
Q 28.375 48.1875 33.59375 48.1875 
Q 44.578125 48.1875 50.953125 41.515625 
Q 57.328125 34.859375 57.328125 23.390625 
Q 57.328125 12.15625 50.6875 5.359375 
Q 44.046875 -1.421875 33.015625 -1.421875 
Q 20.359375 -1.421875 13.671875 8.265625 
Q 6.984375 17.96875 6.984375 36.375 
Q 6.984375 53.65625 15.1875 63.9375 
Q 23.390625 74.21875 37.203125 74.21875 
Q 40.921875 74.21875 44.703125 73.484375 
Q 48.484375 72.75 52.59375 71.296875 
z
" id="DejaVuSans-36"/>
    <path d="M 37.796875 64.3125 
L 12.890625 25.390625 
L 37.796875 25.390625 
z
M 35.203125 72.90625 
L 47.609375 72.90625 
L 47.609375 25.390625 
L 58.015625 25.390625 
L 58.015625 17.1875 
L 47.609375 17.1875 
L 47.609375 0 
L 37.796875 0 
L 37.796875 17.1875 
L 4.890625 17.1875 
L 4.890625 26.703125 
z
" id="DejaVuSans-34"/>
    <path d="M 54.890625 54.6875 
L 35.109375 28.078125 
L 55.90625 0 
L 45.3125 0 
L 29.390625 21.484375 
L 13.484375 0 
L 2.875 0 
L 24.125 28.609375 
L 4.6875 54.6875 
L 15.28125 54.6875 
L 29.78125 35.203125 
L 44.28125 54.6875 
z
" id="DejaVuSans-78"/>
   </defs>
   <g transform="translate(42.51625 15.677812)scale(0.14 -0.14)">
    <use xlink:href="#DejaVuSans-47"/>
    <use x="77.490234" xlink:href="#DejaVuSans-46"/>
    <use x="135.009766" xlink:href="#DejaVuSans-49"/>
    <use x="164.501953" xlink:href="#DejaVuSans-20"/>
    <use x="196.289062" xlink:href="#DejaVuSans-66"/>
    <use x="231.494141" xlink:href="#DejaVuSans-6f"/>
    <use x="292.675781" xlink:href="#DejaVuSans-72"/>
    <use x="333.789062" xlink:href="#DejaVuSans-20"/>
    <use x="365.576172" xlink:href="#DejaVuSans-74"/>
    <use x="404.785156" xlink:href="#DejaVuSans-68"/>
    <use x="468.164062" xlink:href="#DejaVuSans-65"/>
    <use x="529.6875" xlink:href="#DejaVuSans-20"/>
    <use x="561.474609" xlink:href="#DejaVuSans-63"/>
    <use x="616.455078" xlink:href="#DejaVuSans-68"/>
    <use x="679.833984" xlink:href="#DejaVuSans-75"/>
    <use x="743.212891" xlink:href="#DejaVuSans-6e"/>
    <use x="806.591797" xlink:href="#DejaVuSans-6b"/>
    <use x="864.501953" xlink:href="#DejaVuSans-73"/>
    <use x="916.601562" xlink:href="#DejaVuSans-20"/>
    <use x="948.388672" xlink:href="#DejaVuSans-6f"/>
    <use x="1009.570312" xlink:href="#DejaVuSans-66"/>
    <use x="1044.775391" xlink:href="#DejaVuSans-20"/>
    <use x="1076.5625" xlink:href="#DejaVuSans-73"/>
    <use x="1128.662109" xlink:href="#DejaVuSans-69"/>
    <use x="1156.445312" xlink:href="#DejaVuSans-7a"/>
    <use x="1208.935547" xlink:href="#DejaVuSans-65"/>
    <use x="1270.458984" xlink:href="#DejaVuSans-20"/>
    <use x="1302.246094" xlink:href="#DejaVuSans-31"/>
    <use x="1365.869141" xlink:href="#DejaVuSans-30"/>
    <use x="1429.492188" xlink:href="#DejaVuSans-20"/>
    <use x="1461.279297" xlink:href="#DejaVuSans-6f"/>
    <use x="1522.460938" xlink:href="#DejaVuSans-66"/>
    <use x="1557.666016" xlink:href="#DejaVuSans-20"/>
    <use x="1589.453125" xlink:href="#DejaVuSans-64"/>
    <use x="1652.929688" xlink:href="#DejaVuSans-6f"/>
    <use x="1714.111328" xlink:href="#DejaVuSans-63"/>
    <use x="1769.091797" xlink:href="#DejaVuSans-75"/>
    <use x="1832.470703" xlink:href="#DejaVuSans-6d"/>
    <use x="1929.882812" xlink:href="#DejaVuSans-65"/>
    <use x="1991.40625" xlink:href="#DejaVuSans-6e"/>
    <use x="2054.785156" xlink:href="#DejaVuSans-74"/>
    <use x="2093.994141" xlink:href="#DejaVuSans-20"/>
    <use x="2125.78125" xlink:href="#DejaVuSans-65"/>
    <use x="2187.304688" xlink:href="#DejaVuSans-6e"/>
    <use x="2250.683594" xlink:href="#DejaVuSans-31"/>
    <use x="2314.306641" xlink:href="#DejaVuSans-31"/>
    <use x="2377.929688" xlink:href="#DejaVuSans-39"/>
    <use x="2441.552734" xlink:href="#DejaVuSans-37"/>
    <use x="2505.175781" xlink:href="#DejaVuSans-31"/>
    <use x="2568.798828" xlink:href="#DejaVuSans-36"/>
    <use x="2632.421875" xlink:href="#DejaVuSans-35"/>
    <use x="2696.044922" xlink:href="#DejaVuSans-34"/>
    <use x="2759.667969" xlink:href="#DejaVuSans-39"/>
    <use x="2823.291016" xlink:href="#DejaVuSans-2e"/>
    <use x="2855.078125" xlink:href="#DejaVuSans-74"/>
    <use x="2894.287109" xlink:href="#DejaVuSans-78"/>
    <use x="2953.466797" xlink:href="#DejaVuSans-74"/>
   </g>
  </g>
 </g>
 <defs>
  <clipPath id="paa4a3bfcf8">
   <rect height="194.04" width="390.6" x="63" y="30.24"/>
  </clipPath>
 </defs>
</svg>
