<?xml version="1.0" encoding="utf-8" standalone="no"?>
<!DOCTYPE svg PUBLIC "-//W3C//DTD SVG 1.1//EN"
  "http://www.w3.org/Graphics/SVG/1.1/DTD/svg11.dtd">
<!-- Created with matplotlib (https://matplotlib.org/) -->
<svg height="242.29625pt" version="1.1" viewBox="0 0 451.44375 242.29625" width="451.44375pt" xmlns="http://www.w3.org/2000/svg" xmlns:xlink="http://www.w3.org/1999/xlink">
 <defs>
  <style type="text/css">
*{stroke-linecap:butt;stroke-linejoin:round;}
  </style>
 </defs>
 <g id="figure_1">
  <g id="patch_1">
   <path d="M 0 242.29625 
L 451.44375 242.29625 
L 451.44375 0 
L 0 0 
z
" style="fill:#ffffff;"/>
  </g>
  <g id="axes_1">
   <g id="patch_2">
    <path d="M 50.14375 204.74 
L 440.74375 204.74 
L 440.74375 10.7 
L 50.14375 10.7 
z
" style="fill:#ffffff;"/>
   </g>
   <g id="patch_3">
    <path clip-path="url(#pe2fb4aa4c2)" d="M 67.898295 204.74 
L 69.364099 204.74 
L 69.364099 46.172283 
L 67.898295 46.172283 
z
" style="fill:#1f77b4;"/>
   </g>
   <g id="patch_4">
    <path clip-path="url(#pe2fb4aa4c2)" d="M 69.73055 204.74 
L 71.196353 204.74 
L 71.196353 30.681004 
L 69.73055 30.681004 
z
" style="fill:#1f77b4;"/>
   </g>
   <g id="patch_5">
    <path clip-path="url(#pe2fb4aa4c2)" d="M 71.562804 204.74 
L 73.028608 204.74 
L 73.028608 48.68554 
L 71.562804 48.68554 
z
" style="fill:#1f77b4;"/>
   </g>
   <g id="patch_6">
    <path clip-path="url(#pe2fb4aa4c2)" d="M 73.395059 204.74 
L 74.860862 204.74 
L 74.860862 55.238366 
L 73.395059 55.238366 
z
" style="fill:#1f77b4;"/>
   </g>
   <g id="patch_7">
    <path clip-path="url(#pe2fb4aa4c2)" d="M 75.227313 204.74 
L 76.693117 204.74 
L 76.693117 86.251519 
L 75.227313 86.251519 
z
" style="fill:#1f77b4;"/>
   </g>
   <g id="patch_8">
    <path clip-path="url(#pe2fb4aa4c2)" d="M 77.059568 204.74 
L 78.525371 204.74 
L 78.525371 52.86148 
L 77.059568 52.86148 
z
" style="fill:#1f77b4;"/>
   </g>
   <g id="patch_9">
    <path clip-path="url(#pe2fb4aa4c2)" d="M 78.891822 204.74 
L 80.357626 204.74 
L 80.357626 93.459977 
L 78.891822 93.459977 
z
" style="fill:#1f77b4;"/>
   </g>
   <g id="patch_10">
    <path clip-path="url(#pe2fb4aa4c2)" d="M 80.724076 204.74 
L 82.18988 204.74 
L 82.18988 86.965721 
L 80.724076 86.965721 
z
" style="fill:#1f77b4;"/>
   </g>
   <g id="patch_11">
    <path clip-path="url(#pe2fb4aa4c2)" d="M 82.556331 204.74 
L 84.022134 204.74 
L 84.022134 54.891318 
L 82.556331 54.891318 
z
" style="fill:#1f77b4;"/>
   </g>
   <g id="patch_12">
    <path clip-path="url(#pe2fb4aa4c2)" d="M 84.388585 204.74 
L 85.854389 204.74 
L 85.854389 69.262776 
L 84.388585 69.262776 
z
" style="fill:#1f77b4;"/>
   </g>
   <g id="patch_13">
    <path clip-path="url(#pe2fb4aa4c2)" d="M 86.22084 204.74 
L 87.686643 204.74 
L 87.686643 54.78292 
L 86.22084 54.78292 
z
" style="fill:#1f77b4;"/>
   </g>
   <g id="patch_14">
    <path clip-path="url(#pe2fb4aa4c2)" d="M 88.053094 204.74 
L 89.518898 204.74 
L 89.518898 57.683437 
L 88.053094 57.683437 
z
" style="fill:#1f77b4;"/>
   </g>
   <g id="patch_15">
    <path clip-path="url(#pe2fb4aa4c2)" d="M 89.885349 204.74 
L 91.351152 204.74 
L 91.351152 68.272335 
L 89.885349 68.272335 
z
" style="fill:#1f77b4;"/>
   </g>
   <g id="patch_16">
    <path clip-path="url(#pe2fb4aa4c2)" d="M 91.717603 204.74 
L 93.183407 204.74 
L 93.183407 30.722091 
L 91.717603 30.722091 
z
" style="fill:#1f77b4;"/>
   </g>
   <g id="patch_17">
    <path clip-path="url(#pe2fb4aa4c2)" d="M 93.549858 204.74 
L 95.015661 204.74 
L 95.015661 71.011129 
L 93.549858 71.011129 
z
" style="fill:#1f77b4;"/>
   </g>
   <g id="patch_18">
    <path clip-path="url(#pe2fb4aa4c2)" d="M 95.382112 204.74 
L 96.847915 204.74 
L 96.847915 71.882683 
L 95.382112 71.882683 
z
" style="fill:#1f77b4;"/>
   </g>
   <g id="patch_19">
    <path clip-path="url(#pe2fb4aa4c2)" d="M 97.214366 204.74 
L 98.68017 204.74 
L 98.68017 107.082267 
L 97.214366 107.082267 
z
" style="fill:#1f77b4;"/>
   </g>
   <g id="patch_20">
    <path clip-path="url(#pe2fb4aa4c2)" d="M 99.046621 204.74 
L 100.512424 204.74 
L 100.512424 64.864795 
L 99.046621 64.864795 
z
" style="fill:#1f77b4;"/>
   </g>
   <g id="patch_21">
    <path clip-path="url(#pe2fb4aa4c2)" d="M 100.878875 204.74 
L 102.344679 204.74 
L 102.344679 41.284763 
L 100.878875 41.284763 
z
" style="fill:#1f77b4;"/>
   </g>
   <g id="patch_22">
    <path clip-path="url(#pe2fb4aa4c2)" d="M 102.71113 204.74 
L 104.176933 204.74 
L 104.176933 59.231603 
L 102.71113 59.231603 
z
" style="fill:#1f77b4;"/>
   </g>
   <g id="patch_23">
    <path clip-path="url(#pe2fb4aa4c2)" d="M 104.543384 204.74 
L 106.009188 204.74 
L 106.009188 73.415114 
L 104.543384 73.415114 
z
" style="fill:#1f77b4;"/>
   </g>
   <g id="patch_24">
    <path clip-path="url(#pe2fb4aa4c2)" d="M 106.375639 204.74 
L 107.841442 204.74 
L 107.841442 58.080313 
L 106.375639 58.080313 
z
" style="fill:#1f77b4;"/>
   </g>
   <g id="patch_25">
    <path clip-path="url(#pe2fb4aa4c2)" d="M 108.207893 204.74 
L 109.673697 204.74 
L 109.673697 55.064405 
L 108.207893 55.064405 
z
" style="fill:#1f77b4;"/>
   </g>
   <g id="patch_26">
    <path clip-path="url(#pe2fb4aa4c2)" d="M 110.040147 204.74 
L 111.505951 204.74 
L 111.505951 74.074243 
L 110.040147 74.074243 
z
" style="fill:#1f77b4;"/>
   </g>
   <g id="patch_27">
    <path clip-path="url(#pe2fb4aa4c2)" d="M 111.872402 204.74 
L 113.338205 204.74 
L 113.338205 55.064405 
L 111.872402 55.064405 
z
" style="fill:#1f77b4;"/>
   </g>
   <g id="patch_28">
    <path clip-path="url(#pe2fb4aa4c2)" d="M 113.704656 204.74 
L 115.17046 204.74 
L 115.17046 59.50522 
L 113.704656 59.50522 
z
" style="fill:#1f77b4;"/>
   </g>
   <g id="patch_29">
    <path clip-path="url(#pe2fb4aa4c2)" d="M 115.536911 204.74 
L 117.002714 204.74 
L 117.002714 37.899078 
L 115.536911 37.899078 
z
" style="fill:#1f77b4;"/>
   </g>
   <g id="patch_30">
    <path clip-path="url(#pe2fb4aa4c2)" d="M 117.369165 204.74 
L 118.834969 204.74 
L 118.834969 46.577901 
L 117.369165 46.577901 
z
" style="fill:#1f77b4;"/>
   </g>
   <g id="patch_31">
    <path clip-path="url(#pe2fb4aa4c2)" d="M 119.20142 204.74 
L 120.667223 204.74 
L 120.667223 59.686175 
L 119.20142 59.686175 
z
" style="fill:#1f77b4;"/>
   </g>
   <g id="patch_32">
    <path clip-path="url(#pe2fb4aa4c2)" d="M 121.033674 204.74 
L 122.499478 204.74 
L 122.499478 51.499514 
L 121.033674 51.499514 
z
" style="fill:#1f77b4;"/>
   </g>
   <g id="patch_33">
    <path clip-path="url(#pe2fb4aa4c2)" d="M 122.865928 204.74 
L 124.331732 204.74 
L 124.331732 79.226638 
L 122.865928 79.226638 
z
" style="fill:#1f77b4;"/>
   </g>
   <g id="patch_34">
    <path clip-path="url(#pe2fb4aa4c2)" d="M 124.698183 204.74 
L 126.163986 204.74 
L 126.163986 70.184158 
L 124.698183 70.184158 
z
" style="fill:#1f77b4;"/>
   </g>
   <g id="patch_35">
    <path clip-path="url(#pe2fb4aa4c2)" d="M 126.530437 204.74 
L 127.996241 204.74 
L 127.996241 85.365978 
L 126.530437 85.365978 
z
" style="fill:#1f77b4;"/>
   </g>
   <g id="patch_36">
    <path clip-path="url(#pe2fb4aa4c2)" d="M 128.362692 204.74 
L 129.828495 204.74 
L 129.828495 78.787802 
L 128.362692 78.787802 
z
" style="fill:#1f77b4;"/>
   </g>
   <g id="patch_37">
    <path clip-path="url(#pe2fb4aa4c2)" d="M 130.194946 204.74 
L 131.66075 204.74 
L 131.66075 63.014164 
L 130.194946 63.014164 
z
" style="fill:#1f77b4;"/>
   </g>
   <g id="patch_38">
    <path clip-path="url(#pe2fb4aa4c2)" d="M 132.027201 204.74 
L 133.493004 204.74 
L 133.493004 19.94 
L 132.027201 19.94 
z
" style="fill:#1f77b4;"/>
   </g>
   <g id="patch_39">
    <path clip-path="url(#pe2fb4aa4c2)" d="M 133.859455 204.74 
L 135.325259 204.74 
L 135.325259 63.123436 
L 133.859455 63.123436 
z
" style="fill:#1f77b4;"/>
   </g>
   <g id="patch_40">
    <path clip-path="url(#pe2fb4aa4c2)" d="M 135.691709 204.74 
L 137.157513 204.74 
L 137.157513 49.527372 
L 135.691709 49.527372 
z
" style="fill:#1f77b4;"/>
   </g>
   <g id="patch_41">
    <path clip-path="url(#pe2fb4aa4c2)" d="M 137.523964 204.74 
L 138.989767 204.74 
L 138.989767 49.033462 
L 137.523964 49.033462 
z
" style="fill:#1f77b4;"/>
   </g>
   <g id="patch_42">
    <path clip-path="url(#pe2fb4aa4c2)" d="M 139.356218 204.74 
L 140.822022 204.74 
L 140.822022 86.994569 
L 139.356218 86.994569 
z
" style="fill:#1f77b4;"/>
   </g>
   <g id="patch_43">
    <path clip-path="url(#pe2fb4aa4c2)" d="M 141.188473 204.74 
L 142.654276 204.74 
L 142.654276 107.382983 
L 141.188473 107.382983 
z
" style="fill:#1f77b4;"/>
   </g>
   <g id="patch_44">
    <path clip-path="url(#pe2fb4aa4c2)" d="M 143.020727 204.74 
L 144.486531 204.74 
L 144.486531 102.65806 
L 143.020727 102.65806 
z
" style="fill:#1f77b4;"/>
   </g>
   <g id="patch_45">
    <path clip-path="url(#pe2fb4aa4c2)" d="M 144.852982 204.74 
L 146.318785 204.74 
L 146.318785 94.501121 
L 144.852982 94.501121 
z
" style="fill:#1f77b4;"/>
   </g>
   <g id="patch_46">
    <path clip-path="url(#pe2fb4aa4c2)" d="M 146.685236 204.74 
L 148.15104 204.74 
L 148.15104 76.450254 
L 146.685236 76.450254 
z
" style="fill:#1f77b4;"/>
   </g>
   <g id="patch_47">
    <path clip-path="url(#pe2fb4aa4c2)" d="M 148.517491 204.74 
L 149.983294 204.74 
L 149.983294 60.850578 
L 148.517491 60.850578 
z
" style="fill:#1f77b4;"/>
   </g>
   <g id="patch_48">
    <path clip-path="url(#pe2fb4aa4c2)" d="M 150.349745 204.74 
L 151.815548 204.74 
L 151.815548 116.678974 
L 150.349745 116.678974 
z
" style="fill:#1f77b4;"/>
   </g>
   <g id="patch_49">
    <path clip-path="url(#pe2fb4aa4c2)" d="M 152.181999 204.74 
L 153.647803 204.74 
L 153.647803 79.54309 
L 152.181999 79.54309 
z
" style="fill:#1f77b4;"/>
   </g>
   <g id="patch_50">
    <path clip-path="url(#pe2fb4aa4c2)" d="M 154.014254 204.74 
L 155.480057 204.74 
L 155.480057 87.121324 
L 154.014254 87.121324 
z
" style="fill:#1f77b4;"/>
   </g>
   <g id="patch_51">
    <path clip-path="url(#pe2fb4aa4c2)" d="M 155.846508 204.74 
L 157.312312 204.74 
L 157.312312 79.027326 
L 155.846508 79.027326 
z
" style="fill:#1f77b4;"/>
   </g>
   <g id="patch_52">
    <path clip-path="url(#pe2fb4aa4c2)" d="M 157.678763 204.74 
L 159.144566 204.74 
L 159.144566 107.918853 
L 157.678763 107.918853 
z
" style="fill:#1f77b4;"/>
   </g>
   <g id="patch_53">
    <path clip-path="url(#pe2fb4aa4c2)" d="M 159.511017 204.74 
L 160.976821 204.74 
L 160.976821 63.144416 
L 159.511017 63.144416 
z
" style="fill:#1f77b4;"/>
   </g>
   <g id="patch_54">
    <path clip-path="url(#pe2fb4aa4c2)" d="M 161.343272 204.74 
L 162.809075 204.74 
L 162.809075 78.54041 
L 161.343272 78.54041 
z
" style="fill:#1f77b4;"/>
   </g>
   <g id="patch_55">
    <path clip-path="url(#pe2fb4aa4c2)" d="M 163.175526 204.74 
L 164.64133 204.74 
L 164.64133 70.503233 
L 163.175526 70.503233 
z
" style="fill:#1f77b4;"/>
   </g>
   <g id="patch_56">
    <path clip-path="url(#pe2fb4aa4c2)" d="M 165.00778 204.74 
L 166.473584 204.74 
L 166.473584 82.60533 
L 165.00778 82.60533 
z
" style="fill:#1f77b4;"/>
   </g>
   <g id="patch_57">
    <path clip-path="url(#pe2fb4aa4c2)" d="M 166.840035 204.74 
L 168.305838 204.74 
L 168.305838 92.843683 
L 166.840035 92.843683 
z
" style="fill:#1f77b4;"/>
   </g>
   <g id="patch_58">
    <path clip-path="url(#pe2fb4aa4c2)" d="M 168.672289 204.74 
L 170.138093 204.74 
L 170.138093 53.17531 
L 168.672289 53.17531 
z
" style="fill:#1f77b4;"/>
   </g>
   <g id="patch_59">
    <path clip-path="url(#pe2fb4aa4c2)" d="M 170.504544 204.74 
L 171.970347 204.74 
L 171.970347 77.928486 
L 170.504544 77.928486 
z
" style="fill:#1f77b4;"/>
   </g>
   <g id="patch_60">
    <path clip-path="url(#pe2fb4aa4c2)" d="M 172.336798 204.74 
L 173.802602 204.74 
L 173.802602 36.26262 
L 172.336798 36.26262 
z
" style="fill:#1f77b4;"/>
   </g>
   <g id="patch_61">
    <path clip-path="url(#pe2fb4aa4c2)" d="M 174.169053 204.74 
L 175.634856 204.74 
L 175.634856 43.723715 
L 174.169053 43.723715 
z
" style="fill:#1f77b4;"/>
   </g>
   <g id="patch_62">
    <path clip-path="url(#pe2fb4aa4c2)" d="M 176.001307 204.74 
L 177.467111 204.74 
L 177.467111 71.118653 
L 176.001307 71.118653 
z
" style="fill:#1f77b4;"/>
   </g>
   <g id="patch_63">
    <path clip-path="url(#pe2fb4aa4c2)" d="M 177.833561 204.74 
L 179.299365 204.74 
L 179.299365 59.145934 
L 177.833561 59.145934 
z
" style="fill:#1f77b4;"/>
   </g>
   <g id="patch_64">
    <path clip-path="url(#pe2fb4aa4c2)" d="M 179.665816 204.74 
L 181.131619 204.74 
L 181.131619 100.012803 
L 179.665816 100.012803 
z
" style="fill:#1f77b4;"/>
   </g>
   <g id="patch_65">
    <path clip-path="url(#pe2fb4aa4c2)" d="M 181.49807 204.74 
L 182.963874 204.74 
L 182.963874 97.815123 
L 181.49807 97.815123 
z
" style="fill:#1f77b4;"/>
   </g>
   <g id="patch_66">
    <path clip-path="url(#pe2fb4aa4c2)" d="M 183.330325 204.74 
L 184.796128 204.74 
L 184.796128 122.19153 
L 183.330325 122.19153 
z
" style="fill:#1f77b4;"/>
   </g>
   <g id="patch_67">
    <path clip-path="url(#pe2fb4aa4c2)" d="M 185.162579 204.74 
L 186.628383 204.74 
L 186.628383 82.858841 
L 185.162579 82.858841 
z
" style="fill:#1f77b4;"/>
   </g>
   <g id="patch_68">
    <path clip-path="url(#pe2fb4aa4c2)" d="M 186.994834 204.74 
L 188.460637 204.74 
L 188.460637 44.80682 
L 186.994834 44.80682 
z
" style="fill:#1f77b4;"/>
   </g>
   <g id="patch_69">
    <path clip-path="url(#pe2fb4aa4c2)" d="M 188.827088 204.74 
L 190.292892 204.74 
L 190.292892 107.139088 
L 188.827088 107.139088 
z
" style="fill:#1f77b4;"/>
   </g>
   <g id="patch_70">
    <path clip-path="url(#pe2fb4aa4c2)" d="M 190.659342 204.74 
L 192.125146 204.74 
L 192.125146 111.239849 
L 190.659342 111.239849 
z
" style="fill:#1f77b4;"/>
   </g>
   <g id="patch_71">
    <path clip-path="url(#pe2fb4aa4c2)" d="M 192.491597 204.74 
L 193.9574 204.74 
L 193.9574 118.196544 
L 192.491597 118.196544 
z
" style="fill:#1f77b4;"/>
   </g>
   <g id="patch_72">
    <path clip-path="url(#pe2fb4aa4c2)" d="M 194.323851 204.74 
L 195.789655 204.74 
L 195.789655 63.130429 
L 194.323851 63.130429 
z
" style="fill:#1f77b4;"/>
   </g>
   <g id="patch_73">
    <path clip-path="url(#pe2fb4aa4c2)" d="M 196.156106 204.74 
L 197.621909 204.74 
L 197.621909 76.586626 
L 196.156106 76.586626 
z
" style="fill:#1f77b4;"/>
   </g>
   <g id="patch_74">
    <path clip-path="url(#pe2fb4aa4c2)" d="M 197.98836 204.74 
L 199.454164 204.74 
L 199.454164 88.576828 
L 197.98836 88.576828 
z
" style="fill:#1f77b4;"/>
   </g>
   <g id="patch_75">
    <path clip-path="url(#pe2fb4aa4c2)" d="M 199.820615 204.74 
L 201.286418 204.74 
L 201.286418 54.181486 
L 199.820615 54.181486 
z
" style="fill:#1f77b4;"/>
   </g>
   <g id="patch_76">
    <path clip-path="url(#pe2fb4aa4c2)" d="M 201.652869 204.74 
L 203.118673 204.74 
L 203.118673 82.355315 
L 201.652869 82.355315 
z
" style="fill:#1f77b4;"/>
   </g>
   <g id="patch_77">
    <path clip-path="url(#pe2fb4aa4c2)" d="M 203.485123 204.74 
L 204.950927 204.74 
L 204.950927 50.794927 
L 203.485123 50.794927 
z
" style="fill:#1f77b4;"/>
   </g>
   <g id="patch_78">
    <path clip-path="url(#pe2fb4aa4c2)" d="M 205.317378 204.74 
L 206.783181 204.74 
L 206.783181 98.448901 
L 205.317378 98.448901 
z
" style="fill:#1f77b4;"/>
   </g>
   <g id="patch_79">
    <path clip-path="url(#pe2fb4aa4c2)" d="M 207.149632 204.74 
L 208.615436 204.74 
L 208.615436 63.033396 
L 207.149632 63.033396 
z
" style="fill:#1f77b4;"/>
   </g>
   <g id="patch_80">
    <path clip-path="url(#pe2fb4aa4c2)" d="M 208.981887 204.74 
L 210.44769 204.74 
L 210.44769 54.078334 
L 208.981887 54.078334 
z
" style="fill:#1f77b4;"/>
   </g>
   <g id="patch_81">
    <path clip-path="url(#pe2fb4aa4c2)" d="M 210.814141 204.74 
L 212.279945 204.74 
L 212.279945 79.629633 
L 210.814141 79.629633 
z
" style="fill:#1f77b4;"/>
   </g>
   <g id="patch_82">
    <path clip-path="url(#pe2fb4aa4c2)" d="M 212.646396 204.74 
L 214.112199 204.74 
L 214.112199 63.049131 
L 212.646396 63.049131 
z
" style="fill:#1f77b4;"/>
   </g>
   <g id="patch_83">
    <path clip-path="url(#pe2fb4aa4c2)" d="M 214.47865 204.74 
L 215.944454 204.74 
L 215.944454 91.926672 
L 214.47865 91.926672 
z
" style="fill:#1f77b4;"/>
   </g>
   <g id="patch_84">
    <path clip-path="url(#pe2fb4aa4c2)" d="M 216.310905 204.74 
L 217.776708 204.74 
L 217.776708 81.243363 
L 216.310905 81.243363 
z
" style="fill:#1f77b4;"/>
   </g>
   <g id="patch_85">
    <path clip-path="url(#pe2fb4aa4c2)" d="M 218.143159 204.74 
L 219.608962 204.74 
L 219.608962 111.449651 
L 218.143159 111.449651 
z
" style="fill:#1f77b4;"/>
   </g>
   <g id="patch_86">
    <path clip-path="url(#pe2fb4aa4c2)" d="M 219.975413 204.74 
L 221.441217 204.74 
L 221.441217 75.361905 
L 219.975413 75.361905 
z
" style="fill:#1f77b4;"/>
   </g>
   <g id="patch_87">
    <path clip-path="url(#pe2fb4aa4c2)" d="M 221.807668 204.74 
L 223.273471 204.74 
L 223.273471 71.971849 
L 221.807668 71.971849 
z
" style="fill:#1f77b4;"/>
   </g>
   <g id="patch_88">
    <path clip-path="url(#pe2fb4aa4c2)" d="M 223.639922 204.74 
L 225.105726 204.74 
L 225.105726 73.101285 
L 223.639922 73.101285 
z
" style="fill:#1f77b4;"/>
   </g>
   <g id="patch_89">
    <path clip-path="url(#pe2fb4aa4c2)" d="M 225.472177 204.74 
L 226.93798 204.74 
L 226.93798 64.837696 
L 225.472177 64.837696 
z
" style="fill:#1f77b4;"/>
   </g>
   <g id="patch_90">
    <path clip-path="url(#pe2fb4aa4c2)" d="M 227.304431 204.74 
L 228.770235 204.74 
L 228.770235 99.639529 
L 227.304431 99.639529 
z
" style="fill:#1f77b4;"/>
   </g>
   <g id="patch_91">
    <path clip-path="url(#pe2fb4aa4c2)" d="M 229.136686 204.74 
L 230.602489 204.74 
L 230.602489 83.010947 
L 229.136686 83.010947 
z
" style="fill:#1f77b4;"/>
   </g>
   <g id="patch_92">
    <path clip-path="url(#pe2fb4aa4c2)" d="M 230.96894 204.74 
L 232.434744 204.74 
L 232.434744 84.788148 
L 230.96894 84.788148 
z
" style="fill:#1f77b4;"/>
   </g>
   <g id="patch_93">
    <path clip-path="url(#pe2fb4aa4c2)" d="M 232.801194 204.74 
L 234.266998 204.74 
L 234.266998 60.792008 
L 232.801194 60.792008 
z
" style="fill:#1f77b4;"/>
   </g>
   <g id="patch_94">
    <path clip-path="url(#pe2fb4aa4c2)" d="M 234.633449 204.74 
L 236.099252 204.74 
L 236.099252 98.538941 
L 234.633449 98.538941 
z
" style="fill:#1f77b4;"/>
   </g>
   <g id="patch_95">
    <path clip-path="url(#pe2fb4aa4c2)" d="M 236.465703 204.74 
L 237.931507 204.74 
L 237.931507 75.638144 
L 236.465703 75.638144 
z
" style="fill:#1f77b4;"/>
   </g>
   <g id="patch_96">
    <path clip-path="url(#pe2fb4aa4c2)" d="M 238.297958 204.74 
L 239.763761 204.74 
L 239.763761 95.97236 
L 238.297958 95.97236 
z
" style="fill:#1f77b4;"/>
   </g>
   <g id="patch_97">
    <path clip-path="url(#pe2fb4aa4c2)" d="M 240.130212 204.74 
L 241.596016 204.74 
L 241.596016 95.403271 
L 240.130212 95.403271 
z
" style="fill:#1f77b4;"/>
   </g>
   <g id="patch_98">
    <path clip-path="url(#pe2fb4aa4c2)" d="M 241.962467 204.74 
L 243.42827 204.74 
L 243.42827 66.614896 
L 241.962467 66.614896 
z
" style="fill:#1f77b4;"/>
   </g>
   <g id="patch_99">
    <path clip-path="url(#pe2fb4aa4c2)" d="M 243.794721 204.74 
L 245.260525 204.74 
L 245.260525 94.474021 
L 243.794721 94.474021 
z
" style="fill:#1f77b4;"/>
   </g>
   <g id="patch_100">
    <path clip-path="url(#pe2fb4aa4c2)" d="M 245.626975 204.74 
L 247.092779 204.74 
L 247.092779 72.241969 
L 245.626975 72.241969 
z
" style="fill:#1f77b4;"/>
   </g>
   <g id="patch_101">
    <path clip-path="url(#pe2fb4aa4c2)" d="M 247.45923 204.74 
L 248.925033 204.74 
L 248.925033 111.102603 
L 247.45923 111.102603 
z
" style="fill:#1f77b4;"/>
   </g>
   <g id="patch_102">
    <path clip-path="url(#pe2fb4aa4c2)" d="M 249.291484 204.74 
L 250.757288 204.74 
L 250.757288 112.540623 
L 249.291484 112.540623 
z
" style="fill:#1f77b4;"/>
   </g>
   <g id="patch_103">
    <path clip-path="url(#pe2fb4aa4c2)" d="M 251.123739 204.74 
L 252.589542 204.74 
L 252.589542 73.608307 
L 251.123739 73.608307 
z
" style="fill:#1f77b4;"/>
   </g>
   <g id="patch_104">
    <path clip-path="url(#pe2fb4aa4c2)" d="M 252.955993 204.74 
L 254.421797 204.74 
L 254.421797 65.203102 
L 252.955993 65.203102 
z
" style="fill:#1f77b4;"/>
   </g>
   <g id="patch_105">
    <path clip-path="url(#pe2fb4aa4c2)" d="M 254.788248 204.74 
L 256.254051 204.74 
L 256.254051 77.928486 
L 254.788248 77.928486 
z
" style="fill:#1f77b4;"/>
   </g>
   <g id="patch_106">
    <path clip-path="url(#pe2fb4aa4c2)" d="M 256.620502 204.74 
L 258.086306 204.74 
L 258.086306 92.561324 
L 256.620502 92.561324 
z
" style="fill:#1f77b4;"/>
   </g>
   <g id="patch_107">
    <path clip-path="url(#pe2fb4aa4c2)" d="M 258.452756 204.74 
L 259.91856 204.74 
L 259.91856 103.499892 
L 258.452756 103.499892 
z
" style="fill:#1f77b4;"/>
   </g>
   <g id="patch_108">
    <path clip-path="url(#pe2fb4aa4c2)" d="M 260.285011 204.74 
L 261.750814 204.74 
L 261.750814 99.489171 
L 260.285011 99.489171 
z
" style="fill:#1f77b4;"/>
   </g>
   <g id="patch_109">
    <path clip-path="url(#pe2fb4aa4c2)" d="M 262.117265 204.74 
L 263.583069 204.74 
L 263.583069 83.39034 
L 262.117265 83.39034 
z
" style="fill:#1f77b4;"/>
   </g>
   <g id="patch_110">
    <path clip-path="url(#pe2fb4aa4c2)" d="M 263.94952 204.74 
L 265.415323 204.74 
L 265.415323 71.882683 
L 263.94952 71.882683 
z
" style="fill:#1f77b4;"/>
   </g>
   <g id="patch_111">
    <path clip-path="url(#pe2fb4aa4c2)" d="M 265.781774 204.74 
L 267.247578 204.74 
L 267.247578 104.889832 
L 265.781774 104.889832 
z
" style="fill:#1f77b4;"/>
   </g>
   <g id="patch_112">
    <path clip-path="url(#pe2fb4aa4c2)" d="M 267.614029 204.74 
L 269.079832 204.74 
L 269.079832 115.716506 
L 267.614029 115.716506 
z
" style="fill:#1f77b4;"/>
   </g>
   <g id="patch_113">
    <path clip-path="url(#pe2fb4aa4c2)" d="M 269.446283 204.74 
L 270.912087 204.74 
L 270.912087 96.884126 
L 269.446283 96.884126 
z
" style="fill:#1f77b4;"/>
   </g>
   <g id="patch_114">
    <path clip-path="url(#pe2fb4aa4c2)" d="M 271.278538 204.74 
L 272.744341 204.74 
L 272.744341 91.596233 
L 271.278538 91.596233 
z
" style="fill:#1f77b4;"/>
   </g>
   <g id="patch_115">
    <path clip-path="url(#pe2fb4aa4c2)" d="M 273.110792 204.74 
L 274.576595 204.74 
L 274.576595 94.156695 
L 273.110792 94.156695 
z
" style="fill:#1f77b4;"/>
   </g>
   <g id="patch_116">
    <path clip-path="url(#pe2fb4aa4c2)" d="M 274.943046 204.74 
L 276.40885 204.74 
L 276.40885 116.278601 
L 274.943046 116.278601 
z
" style="fill:#1f77b4;"/>
   </g>
   <g id="patch_117">
    <path clip-path="url(#pe2fb4aa4c2)" d="M 276.775301 204.74 
L 278.241104 204.74 
L 278.241104 108.280762 
L 276.775301 108.280762 
z
" style="fill:#1f77b4;"/>
   </g>
   <g id="patch_118">
    <path clip-path="url(#pe2fb4aa4c2)" d="M 278.607555 204.74 
L 280.073359 204.74 
L 280.073359 87.713142 
L 278.607555 87.713142 
z
" style="fill:#1f77b4;"/>
   </g>
   <g id="patch_119">
    <path clip-path="url(#pe2fb4aa4c2)" d="M 280.43981 204.74 
L 281.905613 204.74 
L 281.905613 99.177964 
L 280.43981 99.177964 
z
" style="fill:#1f77b4;"/>
   </g>
   <g id="patch_120">
    <path clip-path="url(#pe2fb4aa4c2)" d="M 282.272064 204.74 
L 283.737868 204.74 
L 283.737868 94.132219 
L 282.272064 94.132219 
z
" style="fill:#1f77b4;"/>
   </g>
   <g id="patch_121">
    <path clip-path="url(#pe2fb4aa4c2)" d="M 284.104319 204.74 
L 285.570122 204.74 
L 285.570122 101.011112 
L 284.104319 101.011112 
z
" style="fill:#1f77b4;"/>
   </g>
   <g id="patch_122">
    <path clip-path="url(#pe2fb4aa4c2)" d="M 285.936573 204.74 
L 287.402377 204.74 
L 287.402377 106.675775 
L 285.936573 106.675775 
z
" style="fill:#1f77b4;"/>
   </g>
   <g id="patch_123">
    <path clip-path="url(#pe2fb4aa4c2)" d="M 287.768827 204.74 
L 289.234631 204.74 
L 289.234631 103.335547 
L 287.768827 103.335547 
z
" style="fill:#1f77b4;"/>
   </g>
   <g id="patch_124">
    <path clip-path="url(#pe2fb4aa4c2)" d="M 289.601082 204.74 
L 291.066885 204.74 
L 291.066885 82.967239 
L 289.601082 82.967239 
z
" style="fill:#1f77b4;"/>
   </g>
   <g id="patch_125">
    <path clip-path="url(#pe2fb4aa4c2)" d="M 291.433336 204.74 
L 292.89914 204.74 
L 292.89914 129.123748 
L 291.433336 129.123748 
z
" style="fill:#1f77b4;"/>
   </g>
   <g id="patch_126">
    <path clip-path="url(#pe2fb4aa4c2)" d="M 293.265591 204.74 
L 294.731394 204.74 
L 294.731394 107.862906 
L 293.265591 107.862906 
z
" style="fill:#1f77b4;"/>
   </g>
   <g id="patch_127">
    <path clip-path="url(#pe2fb4aa4c2)" d="M 295.097845 204.74 
L 296.563649 204.74 
L 296.563649 97.814249 
L 295.097845 97.814249 
z
" style="fill:#1f77b4;"/>
   </g>
   <g id="patch_128">
    <path clip-path="url(#pe2fb4aa4c2)" d="M 296.9301 204.74 
L 298.395903 204.74 
L 298.395903 110.678628 
L 296.9301 110.678628 
z
" style="fill:#1f77b4;"/>
   </g>
   <g id="patch_129">
    <path clip-path="url(#pe2fb4aa4c2)" d="M 298.762354 204.74 
L 300.228158 204.74 
L 300.228158 103.120499 
L 298.762354 103.120499 
z
" style="fill:#1f77b4;"/>
   </g>
   <g id="patch_130">
    <path clip-path="url(#pe2fb4aa4c2)" d="M 300.594608 204.74 
L 302.060412 204.74 
L 302.060412 82.072956 
L 300.594608 82.072956 
z
" style="fill:#1f77b4;"/>
   </g>
   <g id="patch_131">
    <path clip-path="url(#pe2fb4aa4c2)" d="M 302.426863 204.74 
L 303.892666 204.74 
L 303.892666 118.044438 
L 302.426863 118.044438 
z
" style="fill:#1f77b4;"/>
   </g>
   <g id="patch_132">
    <path clip-path="url(#pe2fb4aa4c2)" d="M 304.259117 204.74 
L 305.724921 204.74 
L 305.724921 108.211702 
L 304.259117 108.211702 
z
" style="fill:#1f77b4;"/>
   </g>
   <g id="patch_133">
    <path clip-path="url(#pe2fb4aa4c2)" d="M 306.091372 204.74 
L 307.557175 204.74 
L 307.557175 119.784048 
L 306.091372 119.784048 
z
" style="fill:#1f77b4;"/>
   </g>
   <g id="patch_134">
    <path clip-path="url(#pe2fb4aa4c2)" d="M 307.923626 204.74 
L 309.38943 204.74 
L 309.38943 151.124144 
L 307.923626 151.124144 
z
" style="fill:#1f77b4;"/>
   </g>
   <g id="patch_135">
    <path clip-path="url(#pe2fb4aa4c2)" d="M 309.755881 204.74 
L 311.221684 204.74 
L 311.221684 116.856432 
L 309.755881 116.856432 
z
" style="fill:#1f77b4;"/>
   </g>
   <g id="patch_136">
    <path clip-path="url(#pe2fb4aa4c2)" d="M 311.588135 204.74 
L 313.053939 204.74 
L 313.053939 100.486606 
L 311.588135 100.486606 
z
" style="fill:#1f77b4;"/>
   </g>
   <g id="patch_137">
    <path clip-path="url(#pe2fb4aa4c2)" d="M 313.420389 204.74 
L 314.886193 204.74 
L 314.886193 113.420045 
L 313.420389 113.420045 
z
" style="fill:#1f77b4;"/>
   </g>
   <g id="patch_138">
    <path clip-path="url(#pe2fb4aa4c2)" d="M 315.252644 204.74 
L 316.718447 204.74 
L 316.718447 97.250405 
L 315.252644 97.250405 
z
" style="fill:#1f77b4;"/>
   </g>
   <g id="patch_139">
    <path clip-path="url(#pe2fb4aa4c2)" d="M 317.084898 204.74 
L 318.550702 204.74 
L 318.550702 117.814529 
L 317.084898 117.814529 
z
" style="fill:#1f77b4;"/>
   </g>
   <g id="patch_140">
    <path clip-path="url(#pe2fb4aa4c2)" d="M 318.917153 204.74 
L 320.382956 204.74 
L 320.382956 115.997991 
L 318.917153 115.997991 
z
" style="fill:#1f77b4;"/>
   </g>
   <g id="patch_141">
    <path clip-path="url(#pe2fb4aa4c2)" d="M 320.749407 204.74 
L 322.215211 204.74 
L 322.215211 92.561324 
L 320.749407 92.561324 
z
" style="fill:#1f77b4;"/>
   </g>
   <g id="patch_142">
    <path clip-path="url(#pe2fb4aa4c2)" d="M 322.581662 204.74 
L 324.047465 204.74 
L 324.047465 116.317939 
L 322.581662 116.317939 
z
" style="fill:#1f77b4;"/>
   </g>
   <g id="patch_143">
    <path clip-path="url(#pe2fb4aa4c2)" d="M 324.413916 204.74 
L 325.87972 204.74 
L 325.87972 88.54798 
L 324.413916 88.54798 
z
" style="fill:#1f77b4;"/>
   </g>
   <g id="patch_144">
    <path clip-path="url(#pe2fb4aa4c2)" d="M 326.24617 204.74 
L 327.711974 204.74 
L 327.711974 152.462508 
L 326.24617 152.462508 
z
" style="fill:#1f77b4;"/>
   </g>
   <g id="patch_145">
    <path clip-path="url(#pe2fb4aa4c2)" d="M 328.078425 204.74 
L 329.544228 204.74 
L 329.544228 142.560712 
L 328.078425 142.560712 
z
" style="fill:#1f77b4;"/>
   </g>
   <g id="patch_146">
    <path clip-path="url(#pe2fb4aa4c2)" d="M 329.910679 204.74 
L 331.376483 204.74 
L 331.376483 121.396904 
L 329.910679 121.396904 
z
" style="fill:#1f77b4;"/>
   </g>
   <g id="patch_147">
    <path clip-path="url(#pe2fb4aa4c2)" d="M 331.742934 204.74 
L 333.208737 204.74 
L 333.208737 127.839583 
L 331.742934 127.839583 
z
" style="fill:#1f77b4;"/>
   </g>
   <g id="patch_148">
    <path clip-path="url(#pe2fb4aa4c2)" d="M 333.575188 204.74 
L 335.040992 204.74 
L 335.040992 104.306757 
L 333.575188 104.306757 
z
" style="fill:#1f77b4;"/>
   </g>
   <g id="patch_149">
    <path clip-path="url(#pe2fb4aa4c2)" d="M 335.407443 204.74 
L 336.873246 204.74 
L 336.873246 123.760677 
L 335.407443 123.760677 
z
" style="fill:#1f77b4;"/>
   </g>
   <g id="patch_150">
    <path clip-path="url(#pe2fb4aa4c2)" d="M 337.239697 204.74 
L 338.705501 204.74 
L 338.705501 143.566015 
L 337.239697 143.566015 
z
" style="fill:#1f77b4;"/>
   </g>
   <g id="patch_151">
    <path clip-path="url(#pe2fb4aa4c2)" d="M 339.071952 204.74 
L 340.537755 204.74 
L 340.537755 123.293866 
L 339.071952 123.293866 
z
" style="fill:#1f77b4;"/>
   </g>
   <g id="patch_152">
    <path clip-path="url(#pe2fb4aa4c2)" d="M 340.904206 204.74 
L 342.370009 204.74 
L 342.370009 102.374827 
L 340.904206 102.374827 
z
" style="fill:#1f77b4;"/>
   </g>
   <g id="patch_153">
    <path clip-path="url(#pe2fb4aa4c2)" d="M 342.73646 204.74 
L 344.202264 204.74 
L 344.202264 87.673804 
L 342.73646 87.673804 
z
" style="fill:#1f77b4;"/>
   </g>
   <g id="patch_154">
    <path clip-path="url(#pe2fb4aa4c2)" d="M 344.568715 204.74 
L 346.034518 204.74 
L 346.034518 121.83574 
L 344.568715 121.83574 
z
" style="fill:#1f77b4;"/>
   </g>
   <g id="patch_155">
    <path clip-path="url(#pe2fb4aa4c2)" d="M 346.400969 204.74 
L 347.866773 204.74 
L 347.866773 114.32744 
L 346.400969 114.32744 
z
" style="fill:#1f77b4;"/>
   </g>
   <g id="patch_156">
    <path clip-path="url(#pe2fb4aa4c2)" d="M 348.233224 204.74 
L 349.699027 204.74 
L 349.699027 102.540921 
L 348.233224 102.540921 
z
" style="fill:#1f77b4;"/>
   </g>
   <g id="patch_157">
    <path clip-path="url(#pe2fb4aa4c2)" d="M 350.065478 204.74 
L 351.531282 204.74 
L 351.531282 110.359554 
L 350.065478 110.359554 
z
" style="fill:#1f77b4;"/>
   </g>
   <g id="patch_158">
    <path clip-path="url(#pe2fb4aa4c2)" d="M 351.897733 204.74 
L 353.363536 204.74 
L 353.363536 109.844664 
L 351.897733 109.844664 
z
" style="fill:#1f77b4;"/>
   </g>
   <g id="patch_159">
    <path clip-path="url(#pe2fb4aa4c2)" d="M 353.729987 204.74 
L 355.195791 204.74 
L 355.195791 84.557365 
L 353.729987 84.557365 
z
" style="fill:#1f77b4;"/>
   </g>
   <g id="patch_160">
    <path clip-path="url(#pe2fb4aa4c2)" d="M 355.562241 204.74 
L 357.028045 204.74 
L 357.028045 104.565513 
L 355.562241 104.565513 
z
" style="fill:#1f77b4;"/>
   </g>
   <g id="patch_161">
    <path clip-path="url(#pe2fb4aa4c2)" d="M 357.394496 204.74 
L 358.860299 204.74 
L 358.860299 115.757592 
L 357.394496 115.757592 
z
" style="fill:#1f77b4;"/>
   </g>
   <g id="patch_162">
    <path clip-path="url(#pe2fb4aa4c2)" d="M 359.22675 204.74 
L 360.692554 204.74 
L 360.692554 116.961333 
L 359.22675 116.961333 
z
" style="fill:#1f77b4;"/>
   </g>
   <g id="patch_163">
    <path clip-path="url(#pe2fb4aa4c2)" d="M 361.059005 204.74 
L 362.524808 204.74 
L 362.524808 115.910573 
L 361.059005 115.910573 
z
" style="fill:#1f77b4;"/>
   </g>
   <g id="patch_164">
    <path clip-path="url(#pe2fb4aa4c2)" d="M 362.891259 204.74 
L 364.357063 204.74 
L 364.357063 111.640222 
L 362.891259 111.640222 
z
" style="fill:#1f77b4;"/>
   </g>
   <g id="patch_165">
    <path clip-path="url(#pe2fb4aa4c2)" d="M 364.723514 204.74 
L 366.189317 204.74 
L 366.189317 98.580028 
L 364.723514 98.580028 
z
" style="fill:#1f77b4;"/>
   </g>
   <g id="patch_166">
    <path clip-path="url(#pe2fb4aa4c2)" d="M 366.555768 204.74 
L 368.021572 204.74 
L 368.021572 95.51604 
L 366.555768 95.51604 
z
" style="fill:#1f77b4;"/>
   </g>
   <g id="patch_167">
    <path clip-path="url(#pe2fb4aa4c2)" d="M 368.388022 204.74 
L 369.853826 204.74 
L 369.853826 108.098934 
L 368.388022 108.098934 
z
" style="fill:#1f77b4;"/>
   </g>
   <g id="patch_168">
    <path clip-path="url(#pe2fb4aa4c2)" d="M 370.220277 204.74 
L 371.68608 204.74 
L 371.68608 81.422569 
L 370.220277 81.422569 
z
" style="fill:#1f77b4;"/>
   </g>
   <g id="patch_169">
    <path clip-path="url(#pe2fb4aa4c2)" d="M 372.052531 204.74 
L 373.518335 204.74 
L 373.518335 100.803932 
L 372.052531 100.803932 
z
" style="fill:#1f77b4;"/>
   </g>
   <g id="patch_170">
    <path clip-path="url(#pe2fb4aa4c2)" d="M 373.884786 204.74 
L 375.350589 204.74 
L 375.350589 102.286535 
L 373.884786 102.286535 
z
" style="fill:#1f77b4;"/>
   </g>
   <g id="patch_171">
    <path clip-path="url(#pe2fb4aa4c2)" d="M 375.71704 204.74 
L 377.182844 204.74 
L 377.182844 92.502754 
L 375.71704 92.502754 
z
" style="fill:#1f77b4;"/>
   </g>
   <g id="patch_172">
    <path clip-path="url(#pe2fb4aa4c2)" d="M 377.549295 204.74 
L 379.015098 204.74 
L 379.015098 83.091372 
L 377.549295 83.091372 
z
" style="fill:#1f77b4;"/>
   </g>
   <g id="patch_173">
    <path clip-path="url(#pe2fb4aa4c2)" d="M 379.381549 204.74 
L 380.847353 204.74 
L 380.847353 91.971255 
L 379.381549 91.971255 
z
" style="fill:#1f77b4;"/>
   </g>
   <g id="patch_174">
    <path clip-path="url(#pe2fb4aa4c2)" d="M 381.213803 204.74 
L 382.679607 204.74 
L 382.679607 140.063191 
L 381.213803 140.063191 
z
" style="fill:#1f77b4;"/>
   </g>
   <g id="patch_175">
    <path clip-path="url(#pe2fb4aa4c2)" d="M 383.046058 204.74 
L 384.511861 204.74 
L 384.511861 106.262289 
L 383.046058 106.262289 
z
" style="fill:#1f77b4;"/>
   </g>
   <g id="patch_176">
    <path clip-path="url(#pe2fb4aa4c2)" d="M 384.878312 204.74 
L 386.344116 204.74 
L 386.344116 131.067916 
L 384.878312 131.067916 
z
" style="fill:#1f77b4;"/>
   </g>
   <g id="patch_177">
    <path clip-path="url(#pe2fb4aa4c2)" d="M 386.710567 204.74 
L 388.17637 204.74 
L 388.17637 122.013198 
L 386.710567 122.013198 
z
" style="fill:#1f77b4;"/>
   </g>
   <g id="patch_178">
    <path clip-path="url(#pe2fb4aa4c2)" d="M 388.542821 204.74 
L 390.008625 204.74 
L 390.008625 112.750426 
L 388.542821 112.750426 
z
" style="fill:#1f77b4;"/>
   </g>
   <g id="patch_179">
    <path clip-path="url(#pe2fb4aa4c2)" d="M 390.375076 204.74 
L 391.840879 204.74 
L 391.840879 94.015079 
L 390.375076 94.015079 
z
" style="fill:#1f77b4;"/>
   </g>
   <g id="patch_180">
    <path clip-path="url(#pe2fb4aa4c2)" d="M 392.20733 204.74 
L 393.673134 204.74 
L 393.673134 94.501121 
L 392.20733 94.501121 
z
" style="fill:#1f77b4;"/>
   </g>
   <g id="patch_181">
    <path clip-path="url(#pe2fb4aa4c2)" d="M 394.039585 204.74 
L 395.505388 204.74 
L 395.505388 101.748917 
L 394.039585 101.748917 
z
" style="fill:#1f77b4;"/>
   </g>
   <g id="patch_182">
    <path clip-path="url(#pe2fb4aa4c2)" d="M 395.871839 204.74 
L 397.337642 204.74 
L 397.337642 98.675313 
L 395.871839 98.675313 
z
" style="fill:#1f77b4;"/>
   </g>
   <g id="patch_183">
    <path clip-path="url(#pe2fb4aa4c2)" d="M 397.704093 204.74 
L 399.169897 204.74 
L 399.169897 127.569463 
L 397.704093 127.569463 
z
" style="fill:#1f77b4;"/>
   </g>
   <g id="patch_184">
    <path clip-path="url(#pe2fb4aa4c2)" d="M 399.536348 204.74 
L 401.002151 204.74 
L 401.002151 100.607243 
L 399.536348 100.607243 
z
" style="fill:#1f77b4;"/>
   </g>
   <g id="patch_185">
    <path clip-path="url(#pe2fb4aa4c2)" d="M 401.368602 204.74 
L 402.834406 204.74 
L 402.834406 103.429958 
L 401.368602 103.429958 
z
" style="fill:#1f77b4;"/>
   </g>
   <g id="patch_186">
    <path clip-path="url(#pe2fb4aa4c2)" d="M 403.200857 204.74 
L 404.66666 204.74 
L 404.66666 83.50748 
L 403.200857 83.50748 
z
" style="fill:#1f77b4;"/>
   </g>
   <g id="patch_187">
    <path clip-path="url(#pe2fb4aa4c2)" d="M 405.033111 204.74 
L 406.498915 204.74 
L 406.498915 91.069979 
L 405.033111 91.069979 
z
" style="fill:#1f77b4;"/>
   </g>
   <g id="patch_188">
    <path clip-path="url(#pe2fb4aa4c2)" d="M 406.865366 204.74 
L 408.331169 204.74 
L 408.331169 81.850041 
L 406.865366 81.850041 
z
" style="fill:#1f77b4;"/>
   </g>
   <g id="patch_189">
    <path clip-path="url(#pe2fb4aa4c2)" d="M 408.69762 204.74 
L 410.163424 204.74 
L 410.163424 102.751597 
L 408.69762 102.751597 
z
" style="fill:#1f77b4;"/>
   </g>
   <g id="patch_190">
    <path clip-path="url(#pe2fb4aa4c2)" d="M 410.529874 204.74 
L 411.995678 204.74 
L 411.995678 66.236378 
L 410.529874 66.236378 
z
" style="fill:#1f77b4;"/>
   </g>
   <g id="patch_191">
    <path clip-path="url(#pe2fb4aa4c2)" d="M 412.362129 204.74 
L 413.827932 204.74 
L 413.827932 89.980755 
L 412.362129 89.980755 
z
" style="fill:#1f77b4;"/>
   </g>
   <g id="patch_192">
    <path clip-path="url(#pe2fb4aa4c2)" d="M 414.194383 204.74 
L 415.660187 204.74 
L 415.660187 91.484338 
L 414.194383 91.484338 
z
" style="fill:#1f77b4;"/>
   </g>
   <g id="patch_193">
    <path clip-path="url(#pe2fb4aa4c2)" d="M 416.026638 204.74 
L 417.492441 204.74 
L 417.492441 97.394645 
L 416.026638 97.394645 
z
" style="fill:#1f77b4;"/>
   </g>
   <g id="patch_194">
    <path clip-path="url(#pe2fb4aa4c2)" d="M 417.858892 204.74 
L 419.324696 204.74 
L 419.324696 95.435615 
L 417.858892 95.435615 
z
" style="fill:#1f77b4;"/>
   </g>
   <g id="patch_195">
    <path clip-path="url(#pe2fb4aa4c2)" d="M 419.691147 204.74 
L 421.15695 204.74 
L 421.15695 40.114241 
L 419.691147 40.114241 
z
" style="fill:#1f77b4;"/>
   </g>
   <g id="patch_196">
    <path clip-path="url(#pe2fb4aa4c2)" d="M 421.523401 204.74 
L 422.989205 204.74 
L 422.989205 88.783134 
L 421.523401 88.783134 
z
" style="fill:#1f77b4;"/>
   </g>
   <g id="matplotlib.axis_1">
    <g id="xtick_1">
     <g id="line2d_1">
      <defs>
       <path d="M 0 0 
L 0 3.5 
" id="me8096ccde0" style="stroke:#000000;stroke-width:0.8;"/>
      </defs>
      <g>
       <use style="stroke:#000000;stroke-width:0.8;" x="66.798943" xlink:href="#me8096ccde0" y="204.74"/>
      </g>
     </g>
     <g id="text_1">
      <!-- 0 -->
      <defs>
       <path d="M 31.78125 66.40625 
Q 24.171875 66.40625 20.328125 58.90625 
Q 16.5 51.421875 16.5 36.375 
Q 16.5 21.390625 20.328125 13.890625 
Q 24.171875 6.390625 31.78125 6.390625 
Q 39.453125 6.390625 43.28125 13.890625 
Q 47.125 21.390625 47.125 36.375 
Q 47.125 51.421875 43.28125 58.90625 
Q 39.453125 66.40625 31.78125 66.40625 
z
M 31.78125 74.21875 
Q 44.046875 74.21875 50.515625 64.515625 
Q 56.984375 54.828125 56.984375 36.375 
Q 56.984375 17.96875 50.515625 8.265625 
Q 44.046875 -1.421875 31.78125 -1.421875 
Q 19.53125 -1.421875 13.0625 8.265625 
Q 6.59375 17.96875 6.59375 36.375 
Q 6.59375 54.828125 13.0625 64.515625 
Q 19.53125 74.21875 31.78125 74.21875 
z
" id="DejaVuSans-48"/>
      </defs>
      <g transform="translate(63.617693 219.338437)scale(0.1 -0.1)">
       <use xlink:href="#DejaVuSans-48"/>
      </g>
     </g>
    </g>
    <g id="xtick_2">
     <g id="line2d_2">
      <g>
       <use style="stroke:#000000;stroke-width:0.8;" x="112.605304" xlink:href="#me8096ccde0" y="204.74"/>
      </g>
     </g>
     <g id="text_2">
      <!-- 25 -->
      <defs>
       <path d="M 19.1875 8.296875 
L 53.609375 8.296875 
L 53.609375 0 
L 7.328125 0 
L 7.328125 8.296875 
Q 12.9375 14.109375 22.625 23.890625 
Q 32.328125 33.6875 34.8125 36.53125 
Q 39.546875 41.84375 41.421875 45.53125 
Q 43.3125 49.21875 43.3125 52.78125 
Q 43.3125 58.59375 39.234375 62.25 
Q 35.15625 65.921875 28.609375 65.921875 
Q 23.96875 65.921875 18.8125 64.3125 
Q 13.671875 62.703125 7.8125 59.421875 
L 7.8125 69.390625 
Q 13.765625 71.78125 18.9375 73 
Q 24.125 74.21875 28.421875 74.21875 
Q 39.75 74.21875 46.484375 68.546875 
Q 53.21875 62.890625 53.21875 53.421875 
Q 53.21875 48.921875 51.53125 44.890625 
Q 49.859375 40.875 45.40625 35.40625 
Q 44.1875 33.984375 37.640625 27.21875 
Q 31.109375 20.453125 19.1875 8.296875 
z
" id="DejaVuSans-50"/>
       <path d="M 10.796875 72.90625 
L 49.515625 72.90625 
L 49.515625 64.59375 
L 19.828125 64.59375 
L 19.828125 46.734375 
Q 21.96875 47.46875 24.109375 47.828125 
Q 26.265625 48.1875 28.421875 48.1875 
Q 40.625 48.1875 47.75 41.5 
Q 54.890625 34.8125 54.890625 23.390625 
Q 54.890625 11.625 47.5625 5.09375 
Q 40.234375 -1.421875 26.90625 -1.421875 
Q 22.3125 -1.421875 17.546875 -0.640625 
Q 12.796875 0.140625 7.71875 1.703125 
L 7.71875 11.625 
Q 12.109375 9.234375 16.796875 8.0625 
Q 21.484375 6.890625 26.703125 6.890625 
Q 35.15625 6.890625 40.078125 11.328125 
Q 45.015625 15.765625 45.015625 23.390625 
Q 45.015625 31 40.078125 35.4375 
Q 35.15625 39.890625 26.703125 39.890625 
Q 22.75 39.890625 18.8125 39.015625 
Q 14.890625 38.140625 10.796875 36.28125 
z
" id="DejaVuSans-53"/>
      </defs>
      <g transform="translate(106.242804 219.338437)scale(0.1 -0.1)">
       <use xlink:href="#DejaVuSans-50"/>
       <use x="63.623047" xlink:href="#DejaVuSans-53"/>
      </g>
     </g>
    </g>
    <g id="xtick_3">
     <g id="line2d_3">
      <g>
       <use style="stroke:#000000;stroke-width:0.8;" x="158.411664" xlink:href="#me8096ccde0" y="204.74"/>
      </g>
     </g>
     <g id="text_3">
      <!-- 50 -->
      <g transform="translate(152.049164 219.338437)scale(0.1 -0.1)">
       <use xlink:href="#DejaVuSans-53"/>
       <use x="63.623047" xlink:href="#DejaVuSans-48"/>
      </g>
     </g>
    </g>
    <g id="xtick_4">
     <g id="line2d_4">
      <g>
       <use style="stroke:#000000;stroke-width:0.8;" x="204.218025" xlink:href="#me8096ccde0" y="204.74"/>
      </g>
     </g>
     <g id="text_4">
      <!-- 75 -->
      <defs>
       <path d="M 8.203125 72.90625 
L 55.078125 72.90625 
L 55.078125 68.703125 
L 28.609375 0 
L 18.3125 0 
L 43.21875 64.59375 
L 8.203125 64.59375 
z
" id="DejaVuSans-55"/>
      </defs>
      <g transform="translate(197.855525 219.338437)scale(0.1 -0.1)">
       <use xlink:href="#DejaVuSans-55"/>
       <use x="63.623047" xlink:href="#DejaVuSans-53"/>
      </g>
     </g>
    </g>
    <g id="xtick_5">
     <g id="line2d_5">
      <g>
       <use style="stroke:#000000;stroke-width:0.8;" x="250.024386" xlink:href="#me8096ccde0" y="204.74"/>
      </g>
     </g>
     <g id="text_5">
      <!-- 100 -->
      <defs>
       <path d="M 12.40625 8.296875 
L 28.515625 8.296875 
L 28.515625 63.921875 
L 10.984375 60.40625 
L 10.984375 69.390625 
L 28.421875 72.90625 
L 38.28125 72.90625 
L 38.28125 8.296875 
L 54.390625 8.296875 
L 54.390625 0 
L 12.40625 0 
z
" id="DejaVuSans-49"/>
      </defs>
      <g transform="translate(240.480636 219.338437)scale(0.1 -0.1)">
       <use xlink:href="#DejaVuSans-49"/>
       <use x="63.623047" xlink:href="#DejaVuSans-48"/>
       <use x="127.246094" xlink:href="#DejaVuSans-48"/>
      </g>
     </g>
    </g>
    <g id="xtick_6">
     <g id="line2d_6">
      <g>
       <use style="stroke:#000000;stroke-width:0.8;" x="295.830747" xlink:href="#me8096ccde0" y="204.74"/>
      </g>
     </g>
     <g id="text_6">
      <!-- 125 -->
      <g transform="translate(286.286997 219.338437)scale(0.1 -0.1)">
       <use xlink:href="#DejaVuSans-49"/>
       <use x="63.623047" xlink:href="#DejaVuSans-50"/>
       <use x="127.246094" xlink:href="#DejaVuSans-53"/>
      </g>
     </g>
    </g>
    <g id="xtick_7">
     <g id="line2d_7">
      <g>
       <use style="stroke:#000000;stroke-width:0.8;" x="341.637108" xlink:href="#me8096ccde0" y="204.74"/>
      </g>
     </g>
     <g id="text_7">
      <!-- 150 -->
      <g transform="translate(332.093358 219.338437)scale(0.1 -0.1)">
       <use xlink:href="#DejaVuSans-49"/>
       <use x="63.623047" xlink:href="#DejaVuSans-53"/>
       <use x="127.246094" xlink:href="#DejaVuSans-48"/>
      </g>
     </g>
    </g>
    <g id="xtick_8">
     <g id="line2d_8">
      <g>
       <use style="stroke:#000000;stroke-width:0.8;" x="387.443469" xlink:href="#me8096ccde0" y="204.74"/>
      </g>
     </g>
     <g id="text_8">
      <!-- 175 -->
      <g transform="translate(377.899719 219.338437)scale(0.1 -0.1)">
       <use xlink:href="#DejaVuSans-49"/>
       <use x="63.623047" xlink:href="#DejaVuSans-55"/>
       <use x="127.246094" xlink:href="#DejaVuSans-53"/>
      </g>
     </g>
    </g>
    <g id="xtick_9">
     <g id="line2d_9">
      <g>
       <use style="stroke:#000000;stroke-width:0.8;" x="433.249829" xlink:href="#me8096ccde0" y="204.74"/>
      </g>
     </g>
     <g id="text_9">
      <!-- 200 -->
      <g transform="translate(423.706079 219.338437)scale(0.1 -0.1)">
       <use xlink:href="#DejaVuSans-50"/>
       <use x="63.623047" xlink:href="#DejaVuSans-48"/>
       <use x="127.246094" xlink:href="#DejaVuSans-48"/>
      </g>
     </g>
    </g>
    <g id="text_10">
     <!-- number of chunk (from beginning to end) -->
     <defs>
      <path d="M 54.890625 33.015625 
L 54.890625 0 
L 45.90625 0 
L 45.90625 32.71875 
Q 45.90625 40.484375 42.875 44.328125 
Q 39.84375 48.1875 33.796875 48.1875 
Q 26.515625 48.1875 22.3125 43.546875 
Q 18.109375 38.921875 18.109375 30.90625 
L 18.109375 0 
L 9.078125 0 
L 9.078125 54.6875 
L 18.109375 54.6875 
L 18.109375 46.1875 
Q 21.34375 51.125 25.703125 53.5625 
Q 30.078125 56 35.796875 56 
Q 45.21875 56 50.046875 50.171875 
Q 54.890625 44.34375 54.890625 33.015625 
z
" id="DejaVuSans-110"/>
      <path d="M 8.5 21.578125 
L 8.5 54.6875 
L 17.484375 54.6875 
L 17.484375 21.921875 
Q 17.484375 14.15625 20.5 10.265625 
Q 23.53125 6.390625 29.59375 6.390625 
Q 36.859375 6.390625 41.078125 11.03125 
Q 45.3125 15.671875 45.3125 23.6875 
L 45.3125 54.6875 
L 54.296875 54.6875 
L 54.296875 0 
L 45.3125 0 
L 45.3125 8.40625 
Q 42.046875 3.421875 37.71875 1 
Q 33.40625 -1.421875 27.6875 -1.421875 
Q 18.265625 -1.421875 13.375 4.4375 
Q 8.5 10.296875 8.5 21.578125 
z
M 31.109375 56 
z
" id="DejaVuSans-117"/>
      <path d="M 52 44.1875 
Q 55.375 50.25 60.0625 53.125 
Q 64.75 56 71.09375 56 
Q 79.640625 56 84.28125 50.015625 
Q 88.921875 44.046875 88.921875 33.015625 
L 88.921875 0 
L 79.890625 0 
L 79.890625 32.71875 
Q 79.890625 40.578125 77.09375 44.375 
Q 74.3125 48.1875 68.609375 48.1875 
Q 61.625 48.1875 57.5625 43.546875 
Q 53.515625 38.921875 53.515625 30.90625 
L 53.515625 0 
L 44.484375 0 
L 44.484375 32.71875 
Q 44.484375 40.625 41.703125 44.40625 
Q 38.921875 48.1875 33.109375 48.1875 
Q 26.21875 48.1875 22.15625 43.53125 
Q 18.109375 38.875 18.109375 30.90625 
L 18.109375 0 
L 9.078125 0 
L 9.078125 54.6875 
L 18.109375 54.6875 
L 18.109375 46.1875 
Q 21.1875 51.21875 25.484375 53.609375 
Q 29.78125 56 35.6875 56 
Q 41.65625 56 45.828125 52.96875 
Q 50 49.953125 52 44.1875 
z
" id="DejaVuSans-109"/>
      <path d="M 48.6875 27.296875 
Q 48.6875 37.203125 44.609375 42.84375 
Q 40.53125 48.484375 33.40625 48.484375 
Q 26.265625 48.484375 22.1875 42.84375 
Q 18.109375 37.203125 18.109375 27.296875 
Q 18.109375 17.390625 22.1875 11.75 
Q 26.265625 6.109375 33.40625 6.109375 
Q 40.53125 6.109375 44.609375 11.75 
Q 48.6875 17.390625 48.6875 27.296875 
z
M 18.109375 46.390625 
Q 20.953125 51.265625 25.265625 53.625 
Q 29.59375 56 35.59375 56 
Q 45.5625 56 51.78125 48.09375 
Q 58.015625 40.1875 58.015625 27.296875 
Q 58.015625 14.40625 51.78125 6.484375 
Q 45.5625 -1.421875 35.59375 -1.421875 
Q 29.59375 -1.421875 25.265625 0.953125 
Q 20.953125 3.328125 18.109375 8.203125 
L 18.109375 0 
L 9.078125 0 
L 9.078125 75.984375 
L 18.109375 75.984375 
z
" id="DejaVuSans-98"/>
      <path d="M 56.203125 29.59375 
L 56.203125 25.203125 
L 14.890625 25.203125 
Q 15.484375 15.921875 20.484375 11.0625 
Q 25.484375 6.203125 34.421875 6.203125 
Q 39.59375 6.203125 44.453125 7.46875 
Q 49.3125 8.734375 54.109375 11.28125 
L 54.109375 2.78125 
Q 49.265625 0.734375 44.1875 -0.34375 
Q 39.109375 -1.421875 33.890625 -1.421875 
Q 20.796875 -1.421875 13.15625 6.1875 
Q 5.515625 13.8125 5.515625 26.8125 
Q 5.515625 40.234375 12.765625 48.109375 
Q 20.015625 56 32.328125 56 
Q 43.359375 56 49.78125 48.890625 
Q 56.203125 41.796875 56.203125 29.59375 
z
M 47.21875 32.234375 
Q 47.125 39.59375 43.09375 43.984375 
Q 39.0625 48.390625 32.421875 48.390625 
Q 24.90625 48.390625 20.390625 44.140625 
Q 15.875 39.890625 15.1875 32.171875 
z
" id="DejaVuSans-101"/>
      <path d="M 41.109375 46.296875 
Q 39.59375 47.171875 37.8125 47.578125 
Q 36.03125 48 33.890625 48 
Q 26.265625 48 22.1875 43.046875 
Q 18.109375 38.09375 18.109375 28.8125 
L 18.109375 0 
L 9.078125 0 
L 9.078125 54.6875 
L 18.109375 54.6875 
L 18.109375 46.1875 
Q 20.953125 51.171875 25.484375 53.578125 
Q 30.03125 56 36.53125 56 
Q 37.453125 56 38.578125 55.875 
Q 39.703125 55.765625 41.0625 55.515625 
z
" id="DejaVuSans-114"/>
      <path id="DejaVuSans-32"/>
      <path d="M 30.609375 48.390625 
Q 23.390625 48.390625 19.1875 42.75 
Q 14.984375 37.109375 14.984375 27.296875 
Q 14.984375 17.484375 19.15625 11.84375 
Q 23.34375 6.203125 30.609375 6.203125 
Q 37.796875 6.203125 41.984375 11.859375 
Q 46.1875 17.53125 46.1875 27.296875 
Q 46.1875 37.015625 41.984375 42.703125 
Q 37.796875 48.390625 30.609375 48.390625 
z
M 30.609375 56 
Q 42.328125 56 49.015625 48.375 
Q 55.71875 40.765625 55.71875 27.296875 
Q 55.71875 13.875 49.015625 6.21875 
Q 42.328125 -1.421875 30.609375 -1.421875 
Q 18.84375 -1.421875 12.171875 6.21875 
Q 5.515625 13.875 5.515625 27.296875 
Q 5.515625 40.765625 12.171875 48.375 
Q 18.84375 56 30.609375 56 
z
" id="DejaVuSans-111"/>
      <path d="M 37.109375 75.984375 
L 37.109375 68.5 
L 28.515625 68.5 
Q 23.6875 68.5 21.796875 66.546875 
Q 19.921875 64.59375 19.921875 59.515625 
L 19.921875 54.6875 
L 34.71875 54.6875 
L 34.71875 47.703125 
L 19.921875 47.703125 
L 19.921875 0 
L 10.890625 0 
L 10.890625 47.703125 
L 2.296875 47.703125 
L 2.296875 54.6875 
L 10.890625 54.6875 
L 10.890625 58.5 
Q 10.890625 67.625 15.140625 71.796875 
Q 19.390625 75.984375 28.609375 75.984375 
z
" id="DejaVuSans-102"/>
      <path d="M 48.78125 52.59375 
L 48.78125 44.1875 
Q 44.96875 46.296875 41.140625 47.34375 
Q 37.3125 48.390625 33.40625 48.390625 
Q 24.65625 48.390625 19.8125 42.84375 
Q 14.984375 37.3125 14.984375 27.296875 
Q 14.984375 17.28125 19.8125 11.734375 
Q 24.65625 6.203125 33.40625 6.203125 
Q 37.3125 6.203125 41.140625 7.25 
Q 44.96875 8.296875 48.78125 10.40625 
L 48.78125 2.09375 
Q 45.015625 0.34375 40.984375 -0.53125 
Q 36.96875 -1.421875 32.421875 -1.421875 
Q 20.0625 -1.421875 12.78125 6.34375 
Q 5.515625 14.109375 5.515625 27.296875 
Q 5.515625 40.671875 12.859375 48.328125 
Q 20.21875 56 33.015625 56 
Q 37.15625 56 41.109375 55.140625 
Q 45.0625 54.296875 48.78125 52.59375 
z
" id="DejaVuSans-99"/>
      <path d="M 54.890625 33.015625 
L 54.890625 0 
L 45.90625 0 
L 45.90625 32.71875 
Q 45.90625 40.484375 42.875 44.328125 
Q 39.84375 48.1875 33.796875 48.1875 
Q 26.515625 48.1875 22.3125 43.546875 
Q 18.109375 38.921875 18.109375 30.90625 
L 18.109375 0 
L 9.078125 0 
L 9.078125 75.984375 
L 18.109375 75.984375 
L 18.109375 46.1875 
Q 21.34375 51.125 25.703125 53.5625 
Q 30.078125 56 35.796875 56 
Q 45.21875 56 50.046875 50.171875 
Q 54.890625 44.34375 54.890625 33.015625 
z
" id="DejaVuSans-104"/>
      <path d="M 9.078125 75.984375 
L 18.109375 75.984375 
L 18.109375 31.109375 
L 44.921875 54.6875 
L 56.390625 54.6875 
L 27.390625 29.109375 
L 57.625 0 
L 45.90625 0 
L 18.109375 26.703125 
L 18.109375 0 
L 9.078125 0 
z
" id="DejaVuSans-107"/>
      <path d="M 31 75.875 
Q 24.46875 64.65625 21.28125 53.65625 
Q 18.109375 42.671875 18.109375 31.390625 
Q 18.109375 20.125 21.3125 9.0625 
Q 24.515625 -2 31 -13.1875 
L 23.1875 -13.1875 
Q 15.875 -1.703125 12.234375 9.375 
Q 8.59375 20.453125 8.59375 31.390625 
Q 8.59375 42.28125 12.203125 53.3125 
Q 15.828125 64.359375 23.1875 75.875 
z
" id="DejaVuSans-40"/>
      <path d="M 45.40625 27.984375 
Q 45.40625 37.75 41.375 43.109375 
Q 37.359375 48.484375 30.078125 48.484375 
Q 22.859375 48.484375 18.828125 43.109375 
Q 14.796875 37.75 14.796875 27.984375 
Q 14.796875 18.265625 18.828125 12.890625 
Q 22.859375 7.515625 30.078125 7.515625 
Q 37.359375 7.515625 41.375 12.890625 
Q 45.40625 18.265625 45.40625 27.984375 
z
M 54.390625 6.78125 
Q 54.390625 -7.171875 48.1875 -13.984375 
Q 42 -20.796875 29.203125 -20.796875 
Q 24.46875 -20.796875 20.265625 -20.09375 
Q 16.0625 -19.390625 12.109375 -17.921875 
L 12.109375 -9.1875 
Q 16.0625 -11.328125 19.921875 -12.34375 
Q 23.78125 -13.375 27.78125 -13.375 
Q 36.625 -13.375 41.015625 -8.765625 
Q 45.40625 -4.15625 45.40625 5.171875 
L 45.40625 9.625 
Q 42.625 4.78125 38.28125 2.390625 
Q 33.9375 0 27.875 0 
Q 17.828125 0 11.671875 7.65625 
Q 5.515625 15.328125 5.515625 27.984375 
Q 5.515625 40.671875 11.671875 48.328125 
Q 17.828125 56 27.875 56 
Q 33.9375 56 38.28125 53.609375 
Q 42.625 51.21875 45.40625 46.390625 
L 45.40625 54.6875 
L 54.390625 54.6875 
z
" id="DejaVuSans-103"/>
      <path d="M 9.421875 54.6875 
L 18.40625 54.6875 
L 18.40625 0 
L 9.421875 0 
z
M 9.421875 75.984375 
L 18.40625 75.984375 
L 18.40625 64.59375 
L 9.421875 64.59375 
z
" id="DejaVuSans-105"/>
      <path d="M 18.3125 70.21875 
L 18.3125 54.6875 
L 36.8125 54.6875 
L 36.8125 47.703125 
L 18.3125 47.703125 
L 18.3125 18.015625 
Q 18.3125 11.328125 20.140625 9.421875 
Q 21.96875 7.515625 27.59375 7.515625 
L 36.8125 7.515625 
L 36.8125 0 
L 27.59375 0 
Q 17.1875 0 13.234375 3.875 
Q 9.28125 7.765625 9.28125 18.015625 
L 9.28125 47.703125 
L 2.6875 47.703125 
L 2.6875 54.6875 
L 9.28125 54.6875 
L 9.28125 70.21875 
z
" id="DejaVuSans-116"/>
      <path d="M 45.40625 46.390625 
L 45.40625 75.984375 
L 54.390625 75.984375 
L 54.390625 0 
L 45.40625 0 
L 45.40625 8.203125 
Q 42.578125 3.328125 38.25 0.953125 
Q 33.9375 -1.421875 27.875 -1.421875 
Q 17.96875 -1.421875 11.734375 6.484375 
Q 5.515625 14.40625 5.515625 27.296875 
Q 5.515625 40.1875 11.734375 48.09375 
Q 17.96875 56 27.875 56 
Q 33.9375 56 38.25 53.625 
Q 42.578125 51.265625 45.40625 46.390625 
z
M 14.796875 27.296875 
Q 14.796875 17.390625 18.875 11.75 
Q 22.953125 6.109375 30.078125 6.109375 
Q 37.203125 6.109375 41.296875 11.75 
Q 45.40625 17.390625 45.40625 27.296875 
Q 45.40625 37.203125 41.296875 42.84375 
Q 37.203125 48.484375 30.078125 48.484375 
Q 22.953125 48.484375 18.875 42.84375 
Q 14.796875 37.203125 14.796875 27.296875 
z
" id="DejaVuSans-100"/>
      <path d="M 8.015625 75.875 
L 15.828125 75.875 
Q 23.140625 64.359375 26.78125 53.3125 
Q 30.421875 42.28125 30.421875 31.390625 
Q 30.421875 20.453125 26.78125 9.375 
Q 23.140625 -1.703125 15.828125 -13.1875 
L 8.015625 -13.1875 
Q 14.5 -2 17.703125 9.0625 
Q 20.90625 20.125 20.90625 31.390625 
Q 20.90625 42.671875 17.703125 53.65625 
Q 14.5 64.65625 8.015625 75.875 
z
" id="DejaVuSans-41"/>
     </defs>
     <g transform="translate(141.457031 233.016562)scale(0.1 -0.1)">
      <use xlink:href="#DejaVuSans-110"/>
      <use x="63.378906" xlink:href="#DejaVuSans-117"/>
      <use x="126.757812" xlink:href="#DejaVuSans-109"/>
      <use x="224.169922" xlink:href="#DejaVuSans-98"/>
      <use x="287.646484" xlink:href="#DejaVuSans-101"/>
      <use x="349.169922" xlink:href="#DejaVuSans-114"/>
      <use x="390.283203" xlink:href="#DejaVuSans-32"/>
      <use x="422.070312" xlink:href="#DejaVuSans-111"/>
      <use x="483.251953" xlink:href="#DejaVuSans-102"/>
      <use x="518.457031" xlink:href="#DejaVuSans-32"/>
      <use x="550.244141" xlink:href="#DejaVuSans-99"/>
      <use x="605.224609" xlink:href="#DejaVuSans-104"/>
      <use x="668.603516" xlink:href="#DejaVuSans-117"/>
      <use x="731.982422" xlink:href="#DejaVuSans-110"/>
      <use x="795.361328" xlink:href="#DejaVuSans-107"/>
      <use x="853.271484" xlink:href="#DejaVuSans-32"/>
      <use x="885.058594" xlink:href="#DejaVuSans-40"/>
      <use x="924.072266" xlink:href="#DejaVuSans-102"/>
      <use x="959.277344" xlink:href="#DejaVuSans-114"/>
      <use x="1000.359375" xlink:href="#DejaVuSans-111"/>
      <use x="1061.541016" xlink:href="#DejaVuSans-109"/>
      <use x="1158.953125" xlink:href="#DejaVuSans-32"/>
      <use x="1190.740234" xlink:href="#DejaVuSans-98"/>
      <use x="1254.216797" xlink:href="#DejaVuSans-101"/>
      <use x="1315.740234" xlink:href="#DejaVuSans-103"/>
      <use x="1379.216797" xlink:href="#DejaVuSans-105"/>
      <use x="1407" xlink:href="#DejaVuSans-110"/>
      <use x="1470.378906" xlink:href="#DejaVuSans-110"/>
      <use x="1533.757812" xlink:href="#DejaVuSans-105"/>
      <use x="1561.541016" xlink:href="#DejaVuSans-110"/>
      <use x="1624.919922" xlink:href="#DejaVuSans-103"/>
      <use x="1688.396484" xlink:href="#DejaVuSans-32"/>
      <use x="1720.183594" xlink:href="#DejaVuSans-116"/>
      <use x="1759.392578" xlink:href="#DejaVuSans-111"/>
      <use x="1820.574219" xlink:href="#DejaVuSans-32"/>
      <use x="1852.361328" xlink:href="#DejaVuSans-101"/>
      <use x="1913.884766" xlink:href="#DejaVuSans-110"/>
      <use x="1977.263672" xlink:href="#DejaVuSans-100"/>
      <use x="2040.740234" xlink:href="#DejaVuSans-41"/>
     </g>
    </g>
   </g>
   <g id="matplotlib.axis_2">
    <g id="ytick_1">
     <g id="line2d_10">
      <defs>
       <path d="M 0 0 
L -3.5 0 
" id="mf85e2a825e" style="stroke:#000000;stroke-width:0.8;"/>
      </defs>
      <g>
       <use style="stroke:#000000;stroke-width:0.8;" x="50.14375" xlink:href="#mf85e2a825e" y="204.74"/>
      </g>
     </g>
     <g id="text_11">
      <!-- 0.0 -->
      <defs>
       <path d="M 10.6875 12.40625 
L 21 12.40625 
L 21 0 
L 10.6875 0 
z
" id="DejaVuSans-46"/>
      </defs>
      <g transform="translate(27.240625 208.539219)scale(0.1 -0.1)">
       <use xlink:href="#DejaVuSans-48"/>
       <use x="63.623047" xlink:href="#DejaVuSans-46"/>
       <use x="95.410156" xlink:href="#DejaVuSans-48"/>
      </g>
     </g>
    </g>
    <g id="ytick_2">
     <g id="line2d_11">
      <g>
       <use style="stroke:#000000;stroke-width:0.8;" x="50.14375" xlink:href="#mf85e2a825e" y="182.885592"/>
      </g>
     </g>
     <g id="text_12">
      <!-- 2.5 -->
      <g transform="translate(27.240625 186.684811)scale(0.1 -0.1)">
       <use xlink:href="#DejaVuSans-50"/>
       <use x="63.623047" xlink:href="#DejaVuSans-46"/>
       <use x="95.410156" xlink:href="#DejaVuSans-53"/>
      </g>
     </g>
    </g>
    <g id="ytick_3">
     <g id="line2d_12">
      <g>
       <use style="stroke:#000000;stroke-width:0.8;" x="50.14375" xlink:href="#mf85e2a825e" y="161.031184"/>
      </g>
     </g>
     <g id="text_13">
      <!-- 5.0 -->
      <g transform="translate(27.240625 164.830403)scale(0.1 -0.1)">
       <use xlink:href="#DejaVuSans-53"/>
       <use x="63.623047" xlink:href="#DejaVuSans-46"/>
       <use x="95.410156" xlink:href="#DejaVuSans-48"/>
      </g>
     </g>
    </g>
    <g id="ytick_4">
     <g id="line2d_13">
      <g>
       <use style="stroke:#000000;stroke-width:0.8;" x="50.14375" xlink:href="#mf85e2a825e" y="139.176776"/>
      </g>
     </g>
     <g id="text_14">
      <!-- 7.5 -->
      <g transform="translate(27.240625 142.975995)scale(0.1 -0.1)">
       <use xlink:href="#DejaVuSans-55"/>
       <use x="63.623047" xlink:href="#DejaVuSans-46"/>
       <use x="95.410156" xlink:href="#DejaVuSans-53"/>
      </g>
     </g>
    </g>
    <g id="ytick_5">
     <g id="line2d_14">
      <g>
       <use style="stroke:#000000;stroke-width:0.8;" x="50.14375" xlink:href="#mf85e2a825e" y="117.322368"/>
      </g>
     </g>
     <g id="text_15">
      <!-- 10.0 -->
      <g transform="translate(20.878125 121.121587)scale(0.1 -0.1)">
       <use xlink:href="#DejaVuSans-49"/>
       <use x="63.623047" xlink:href="#DejaVuSans-48"/>
       <use x="127.246094" xlink:href="#DejaVuSans-46"/>
       <use x="159.033203" xlink:href="#DejaVuSans-48"/>
      </g>
     </g>
    </g>
    <g id="ytick_6">
     <g id="line2d_15">
      <g>
       <use style="stroke:#000000;stroke-width:0.8;" x="50.14375" xlink:href="#mf85e2a825e" y="95.46796"/>
      </g>
     </g>
     <g id="text_16">
      <!-- 12.5 -->
      <g transform="translate(20.878125 99.267179)scale(0.1 -0.1)">
       <use xlink:href="#DejaVuSans-49"/>
       <use x="63.623047" xlink:href="#DejaVuSans-50"/>
       <use x="127.246094" xlink:href="#DejaVuSans-46"/>
       <use x="159.033203" xlink:href="#DejaVuSans-53"/>
      </g>
     </g>
    </g>
    <g id="ytick_7">
     <g id="line2d_16">
      <g>
       <use style="stroke:#000000;stroke-width:0.8;" x="50.14375" xlink:href="#mf85e2a825e" y="73.613552"/>
      </g>
     </g>
     <g id="text_17">
      <!-- 15.0 -->
      <g transform="translate(20.878125 77.412771)scale(0.1 -0.1)">
       <use xlink:href="#DejaVuSans-49"/>
       <use x="63.623047" xlink:href="#DejaVuSans-53"/>
       <use x="127.246094" xlink:href="#DejaVuSans-46"/>
       <use x="159.033203" xlink:href="#DejaVuSans-48"/>
      </g>
     </g>
    </g>
    <g id="ytick_8">
     <g id="line2d_17">
      <g>
       <use style="stroke:#000000;stroke-width:0.8;" x="50.14375" xlink:href="#mf85e2a825e" y="51.759144"/>
      </g>
     </g>
     <g id="text_18">
      <!-- 17.5 -->
      <g transform="translate(20.878125 55.558363)scale(0.1 -0.1)">
       <use xlink:href="#DejaVuSans-49"/>
       <use x="63.623047" xlink:href="#DejaVuSans-55"/>
       <use x="127.246094" xlink:href="#DejaVuSans-46"/>
       <use x="159.033203" xlink:href="#DejaVuSans-53"/>
      </g>
     </g>
    </g>
    <g id="ytick_9">
     <g id="line2d_18">
      <g>
       <use style="stroke:#000000;stroke-width:0.8;" x="50.14375" xlink:href="#mf85e2a825e" y="29.904736"/>
      </g>
     </g>
     <g id="text_19">
      <!-- 20.0 -->
      <g transform="translate(20.878125 33.703955)scale(0.1 -0.1)">
       <use xlink:href="#DejaVuSans-50"/>
       <use x="63.623047" xlink:href="#DejaVuSans-48"/>
       <use x="127.246094" xlink:href="#DejaVuSans-46"/>
       <use x="159.033203" xlink:href="#DejaVuSans-48"/>
      </g>
     </g>
    </g>
    <g id="text_20">
     <!-- GFI -->
     <defs>
      <path d="M 59.515625 10.40625 
L 59.515625 29.984375 
L 43.40625 29.984375 
L 43.40625 38.09375 
L 69.28125 38.09375 
L 69.28125 6.78125 
Q 63.578125 2.734375 56.6875 0.65625 
Q 49.8125 -1.421875 42 -1.421875 
Q 24.90625 -1.421875 15.25 8.5625 
Q 5.609375 18.5625 5.609375 36.375 
Q 5.609375 54.25 15.25 64.234375 
Q 24.90625 74.21875 42 74.21875 
Q 49.125 74.21875 55.546875 72.453125 
Q 61.96875 70.703125 67.390625 67.28125 
L 67.390625 56.78125 
Q 61.921875 61.421875 55.765625 63.765625 
Q 49.609375 66.109375 42.828125 66.109375 
Q 29.4375 66.109375 22.71875 58.640625 
Q 16.015625 51.171875 16.015625 36.375 
Q 16.015625 21.625 22.71875 14.15625 
Q 29.4375 6.6875 42.828125 6.6875 
Q 48.046875 6.6875 52.140625 7.59375 
Q 56.25 8.5 59.515625 10.40625 
z
" id="DejaVuSans-71"/>
      <path d="M 9.8125 72.90625 
L 51.703125 72.90625 
L 51.703125 64.59375 
L 19.671875 64.59375 
L 19.671875 43.109375 
L 48.578125 43.109375 
L 48.578125 34.8125 
L 19.671875 34.8125 
L 19.671875 0 
L 9.8125 0 
z
" id="DejaVuSans-70"/>
      <path d="M 9.8125 72.90625 
L 19.671875 72.90625 
L 19.671875 0 
L 9.8125 0 
z
" id="DejaVuSans-73"/>
     </defs>
     <g transform="translate(14.798438 115.945)rotate(-90)scale(0.1 -0.1)">
      <use xlink:href="#DejaVuSans-71"/>
      <use x="77.490234" xlink:href="#DejaVuSans-70"/>
      <use x="135.009766" xlink:href="#DejaVuSans-73"/>
     </g>
    </g>
   </g>
   <g id="patch_197">
    <path d="M 50.14375 204.74 
L 50.14375 10.7 
" style="fill:none;stroke:#000000;stroke-linecap:square;stroke-linejoin:miter;stroke-width:0.8;"/>
   </g>
   <g id="patch_198">
    <path d="M 440.74375 204.74 
L 440.74375 10.7 
" style="fill:none;stroke:#000000;stroke-linecap:square;stroke-linejoin:miter;stroke-width:0.8;"/>
   </g>
   <g id="patch_199">
    <path d="M 50.14375 204.74 
L 440.74375 204.74 
" style="fill:none;stroke:#000000;stroke-linecap:square;stroke-linejoin:miter;stroke-width:0.8;"/>
   </g>
   <g id="patch_200">
    <path d="M 50.14375 10.7 
L 440.74375 10.7 
" style="fill:none;stroke:#000000;stroke-linecap:square;stroke-linejoin:miter;stroke-width:0.8;"/>
   </g>
  </g>
 </g>
 <defs>
  <clipPath id="pe2fb4aa4c2">
   <rect height="194.04" width="390.6" x="50.14375" y="10.7"/>
  </clipPath>
 </defs>
</svg>
