<?xml version="1.0" encoding="utf-8" standalone="no"?>
<!DOCTYPE svg PUBLIC "-//W3C//DTD SVG 1.1//EN"
  "http://www.w3.org/Graphics/SVG/1.1/DTD/svg11.dtd">
<!-- Created with matplotlib (http://matplotlib.org/) -->
<svg height="504pt" version="1.1" viewBox="0 0 1008 504" width="1008pt" xmlns="http://www.w3.org/2000/svg" xmlns:xlink="http://www.w3.org/1999/xlink">
 <defs>
  <style type="text/css">
*{stroke-linecap:butt;stroke-linejoin:round;}
  </style>
 </defs>
 <g id="figure_1">
  <g id="patch_1">
   <path d="M 0 504 
L 1008 504 
L 1008 0 
L 0 0 
z
" style="fill:#ffffff;"/>
  </g>
  <g id="axes_1">
   <g id="patch_2">
    <path d="M 126 448.56 
L 907.2 448.56 
L 907.2 60.48 
L 126 60.48 
z
" style="fill:#ffffff;"/>
   </g>
   <g id="PathCollection_1">
    <defs>
     <path d="M 0 3 
C 0.795609 3 1.55874 2.683901 2.12132 2.12132 
C 2.683901 1.55874 3 0.795609 3 0 
C 3 -0.795609 2.683901 -1.55874 2.12132 -2.12132 
C 1.55874 -2.683901 0.795609 -3 0 -3 
C -0.795609 -3 -1.55874 -2.683901 -2.12132 -2.12132 
C -2.683901 -1.55874 -3 -0.795609 -3 0 
C -3 0.795609 -2.683901 1.55874 -2.12132 2.12132 
C -1.55874 2.683901 -0.795609 3 0 3 
z
" id="m7629bb5845" style="stroke:#1f77b4;"/>
    </defs>
    <g clip-path="url(#p75977acaf4)">
     <use style="fill:#1f77b4;stroke:#1f77b4;" x="166.1721" xlink:href="#m7629bb5845" y="78.338231"/>
     <use style="fill:#1f77b4;stroke:#1f77b4;" x="173.251451" xlink:href="#m7629bb5845" y="187.850042"/>
     <use style="fill:#1f77b4;stroke:#1f77b4;" x="180.330803" xlink:href="#m7629bb5845" y="226.34717"/>
     <use style="fill:#1f77b4;stroke:#1f77b4;" x="187.410154" xlink:href="#m7629bb5845" y="255.709787"/>
     <use style="fill:#1f77b4;stroke:#1f77b4;" x="194.489506" xlink:href="#m7629bb5845" y="277.141918"/>
     <use style="fill:#1f77b4;stroke:#1f77b4;" x="212.187885" xlink:href="#m7629bb5845" y="299.421251"/>
     <use style="fill:#1f77b4;stroke:#1f77b4;" x="229.886263" xlink:href="#m7629bb5845" y="319.046317"/>
     <use style="fill:#1f77b4;stroke:#1f77b4;" x="265.283021" xlink:href="#m7629bb5845" y="340.52089"/>
     <use style="fill:#1f77b4;stroke:#1f77b4;" x="300.679779" xlink:href="#m7629bb5845" y="357.262358"/>
     <use style="fill:#1f77b4;stroke:#1f77b4;" x="336.076536" xlink:href="#m7629bb5845" y="375.828285"/>
     <use style="fill:#1f77b4;stroke:#1f77b4;" x="371.473294" xlink:href="#m7629bb5845" y="385.129524"/>
     <use style="fill:#1f77b4;stroke:#1f77b4;" x="406.870051" xlink:href="#m7629bb5845" y="388.267477"/>
     <use style="fill:#1f77b4;stroke:#1f77b4;" x="442.266809" xlink:href="#m7629bb5845" y="393.656647"/>
     <use style="fill:#1f77b4;stroke:#1f77b4;" x="477.663567" xlink:href="#m7629bb5845" y="393.379171"/>
     <use style="fill:#1f77b4;stroke:#1f77b4;" x="513.060324" xlink:href="#m7629bb5845" y="388.60133"/>
     <use style="fill:#1f77b4;stroke:#1f77b4;" x="690.044112" xlink:href="#m7629bb5845" y="416.854572"/>
     <use style="fill:#1f77b4;stroke:#1f77b4;" x="867.0279" xlink:href="#m7629bb5845" y="427.795945"/>
    </g>
   </g>
   <g id="PathCollection_2">
    <defs>
     <path d="M 0 3 
C 0.795609 3 1.55874 2.683901 2.12132 2.12132 
C 2.683901 1.55874 3 0.795609 3 0 
C 3 -0.795609 2.683901 -1.55874 2.12132 -2.12132 
C 1.55874 -2.683901 0.795609 -3 0 -3 
C -0.795609 -3 -1.55874 -2.683901 -2.12132 -2.12132 
C -2.683901 -1.55874 -3 -0.795609 -3 0 
C -3 0.795609 -2.683901 1.55874 -2.12132 2.12132 
C -1.55874 2.683901 -0.795609 3 0 3 
z
" id="m77f1a78982" style="stroke:#ff7f0e;"/>
    </defs>
    <g clip-path="url(#p75977acaf4)">
     <use style="fill:#ff7f0e;stroke:#ff7f0e;" x="166.1721" xlink:href="#m77f1a78982" y="111.026552"/>
     <use style="fill:#ff7f0e;stroke:#ff7f0e;" x="173.251451" xlink:href="#m77f1a78982" y="209.95914"/>
     <use style="fill:#ff7f0e;stroke:#ff7f0e;" x="180.330803" xlink:href="#m77f1a78982" y="251.552994"/>
     <use style="fill:#ff7f0e;stroke:#ff7f0e;" x="187.410154" xlink:href="#m77f1a78982" y="288.897899"/>
     <use style="fill:#ff7f0e;stroke:#ff7f0e;" x="194.489506" xlink:href="#m77f1a78982" y="290.957777"/>
     <use style="fill:#ff7f0e;stroke:#ff7f0e;" x="212.187885" xlink:href="#m77f1a78982" y="300.313132"/>
     <use style="fill:#ff7f0e;stroke:#ff7f0e;" x="229.886263" xlink:href="#m77f1a78982" y="305.721488"/>
     <use style="fill:#ff7f0e;stroke:#ff7f0e;" x="265.283021" xlink:href="#m77f1a78982" y="321.685811"/>
     <use style="fill:#ff7f0e;stroke:#ff7f0e;" x="300.679779" xlink:href="#m77f1a78982" y="344.858385"/>
     <use style="fill:#ff7f0e;stroke:#ff7f0e;" x="336.076536" xlink:href="#m77f1a78982" y="368.314738"/>
     <use style="fill:#ff7f0e;stroke:#ff7f0e;" x="371.473294" xlink:href="#m77f1a78982" y="386.600738"/>
     <use style="fill:#ff7f0e;stroke:#ff7f0e;" x="406.870051" xlink:href="#m77f1a78982" y="398.387097"/>
     <use style="fill:#ff7f0e;stroke:#ff7f0e;" x="442.266809" xlink:href="#m77f1a78982" y="405.880231"/>
     <use style="fill:#ff7f0e;stroke:#ff7f0e;" x="477.663567" xlink:href="#m77f1a78982" y="398.530974"/>
     <use style="fill:#ff7f0e;stroke:#ff7f0e;" x="513.060324" xlink:href="#m77f1a78982" y="393.442381"/>
     <use style="fill:#ff7f0e;stroke:#ff7f0e;" x="690.044112" xlink:href="#m77f1a78982" y="427.795945"/>
     <use style="fill:#ff7f0e;stroke:#ff7f0e;" x="867.0279" xlink:href="#m77f1a78982" y="427.795945"/>
    </g>
   </g>
   <g id="matplotlib.axis_1">
    <g id="xtick_1">
     <g id="line2d_1">
      <defs>
       <path d="M 0 0 
L 0 3.5 
" id="m943173f075" style="stroke:#000000;stroke-width:0.8;"/>
      </defs>
      <g>
       <use style="stroke:#000000;stroke-width:0.8;" x="159.092748" xlink:href="#m943173f075" y="448.56"/>
      </g>
     </g>
     <g id="text_1">
      <!-- 0 -->
      <defs>
       <path d="M 31.78125 66.40625 
Q 24.171875 66.40625 20.328125 58.90625 
Q 16.5 51.421875 16.5 36.375 
Q 16.5 21.390625 20.328125 13.890625 
Q 24.171875 6.390625 31.78125 6.390625 
Q 39.453125 6.390625 43.28125 13.890625 
Q 47.125 21.390625 47.125 36.375 
Q 47.125 51.421875 43.28125 58.90625 
Q 39.453125 66.40625 31.78125 66.40625 
z
M 31.78125 74.21875 
Q 44.046875 74.21875 50.515625 64.515625 
Q 56.984375 54.828125 56.984375 36.375 
Q 56.984375 17.96875 50.515625 8.265625 
Q 44.046875 -1.421875 31.78125 -1.421875 
Q 19.53125 -1.421875 13.0625 8.265625 
Q 6.59375 17.96875 6.59375 36.375 
Q 6.59375 54.828125 13.0625 64.515625 
Q 19.53125 74.21875 31.78125 74.21875 
z
" id="DejaVuSans-30"/>
      </defs>
      <g transform="translate(155.911498 463.158437)scale(0.1 -0.1)">
       <use xlink:href="#DejaVuSans-30"/>
      </g>
     </g>
    </g>
    <g id="xtick_2">
     <g id="line2d_2">
      <g>
       <use style="stroke:#000000;stroke-width:0.8;" x="300.679779" xlink:href="#m943173f075" y="448.56"/>
      </g>
     </g>
     <g id="text_2">
      <!-- 200 -->
      <defs>
       <path d="M 19.1875 8.296875 
L 53.609375 8.296875 
L 53.609375 0 
L 7.328125 0 
L 7.328125 8.296875 
Q 12.9375 14.109375 22.625 23.890625 
Q 32.328125 33.6875 34.8125 36.53125 
Q 39.546875 41.84375 41.421875 45.53125 
Q 43.3125 49.21875 43.3125 52.78125 
Q 43.3125 58.59375 39.234375 62.25 
Q 35.15625 65.921875 28.609375 65.921875 
Q 23.96875 65.921875 18.8125 64.3125 
Q 13.671875 62.703125 7.8125 59.421875 
L 7.8125 69.390625 
Q 13.765625 71.78125 18.9375 73 
Q 24.125 74.21875 28.421875 74.21875 
Q 39.75 74.21875 46.484375 68.546875 
Q 53.21875 62.890625 53.21875 53.421875 
Q 53.21875 48.921875 51.53125 44.890625 
Q 49.859375 40.875 45.40625 35.40625 
Q 44.1875 33.984375 37.640625 27.21875 
Q 31.109375 20.453125 19.1875 8.296875 
z
" id="DejaVuSans-32"/>
      </defs>
      <g transform="translate(291.136029 463.158437)scale(0.1 -0.1)">
       <use xlink:href="#DejaVuSans-32"/>
       <use x="63.623047" xlink:href="#DejaVuSans-30"/>
       <use x="127.246094" xlink:href="#DejaVuSans-30"/>
      </g>
     </g>
    </g>
    <g id="xtick_3">
     <g id="line2d_3">
      <g>
       <use style="stroke:#000000;stroke-width:0.8;" x="442.266809" xlink:href="#m943173f075" y="448.56"/>
      </g>
     </g>
     <g id="text_3">
      <!-- 400 -->
      <defs>
       <path d="M 37.796875 64.3125 
L 12.890625 25.390625 
L 37.796875 25.390625 
z
M 35.203125 72.90625 
L 47.609375 72.90625 
L 47.609375 25.390625 
L 58.015625 25.390625 
L 58.015625 17.1875 
L 47.609375 17.1875 
L 47.609375 0 
L 37.796875 0 
L 37.796875 17.1875 
L 4.890625 17.1875 
L 4.890625 26.703125 
z
" id="DejaVuSans-34"/>
      </defs>
      <g transform="translate(432.723059 463.158437)scale(0.1 -0.1)">
       <use xlink:href="#DejaVuSans-34"/>
       <use x="63.623047" xlink:href="#DejaVuSans-30"/>
       <use x="127.246094" xlink:href="#DejaVuSans-30"/>
      </g>
     </g>
    </g>
    <g id="xtick_4">
     <g id="line2d_4">
      <g>
       <use style="stroke:#000000;stroke-width:0.8;" x="583.853839" xlink:href="#m943173f075" y="448.56"/>
      </g>
     </g>
     <g id="text_4">
      <!-- 600 -->
      <defs>
       <path d="M 33.015625 40.375 
Q 26.375 40.375 22.484375 35.828125 
Q 18.609375 31.296875 18.609375 23.390625 
Q 18.609375 15.53125 22.484375 10.953125 
Q 26.375 6.390625 33.015625 6.390625 
Q 39.65625 6.390625 43.53125 10.953125 
Q 47.40625 15.53125 47.40625 23.390625 
Q 47.40625 31.296875 43.53125 35.828125 
Q 39.65625 40.375 33.015625 40.375 
z
M 52.59375 71.296875 
L 52.59375 62.3125 
Q 48.875 64.0625 45.09375 64.984375 
Q 41.3125 65.921875 37.59375 65.921875 
Q 27.828125 65.921875 22.671875 59.328125 
Q 17.53125 52.734375 16.796875 39.40625 
Q 19.671875 43.65625 24.015625 45.921875 
Q 28.375 48.1875 33.59375 48.1875 
Q 44.578125 48.1875 50.953125 41.515625 
Q 57.328125 34.859375 57.328125 23.390625 
Q 57.328125 12.15625 50.6875 5.359375 
Q 44.046875 -1.421875 33.015625 -1.421875 
Q 20.359375 -1.421875 13.671875 8.265625 
Q 6.984375 17.96875 6.984375 36.375 
Q 6.984375 53.65625 15.1875 63.9375 
Q 23.390625 74.21875 37.203125 74.21875 
Q 40.921875 74.21875 44.703125 73.484375 
Q 48.484375 72.75 52.59375 71.296875 
z
" id="DejaVuSans-36"/>
      </defs>
      <g transform="translate(574.310089 463.158437)scale(0.1 -0.1)">
       <use xlink:href="#DejaVuSans-36"/>
       <use x="63.623047" xlink:href="#DejaVuSans-30"/>
       <use x="127.246094" xlink:href="#DejaVuSans-30"/>
      </g>
     </g>
    </g>
    <g id="xtick_5">
     <g id="line2d_5">
      <g>
       <use style="stroke:#000000;stroke-width:0.8;" x="725.44087" xlink:href="#m943173f075" y="448.56"/>
      </g>
     </g>
     <g id="text_5">
      <!-- 800 -->
      <defs>
       <path d="M 31.78125 34.625 
Q 24.75 34.625 20.71875 30.859375 
Q 16.703125 27.09375 16.703125 20.515625 
Q 16.703125 13.921875 20.71875 10.15625 
Q 24.75 6.390625 31.78125 6.390625 
Q 38.8125 6.390625 42.859375 10.171875 
Q 46.921875 13.96875 46.921875 20.515625 
Q 46.921875 27.09375 42.890625 30.859375 
Q 38.875 34.625 31.78125 34.625 
z
M 21.921875 38.8125 
Q 15.578125 40.375 12.03125 44.71875 
Q 8.5 49.078125 8.5 55.328125 
Q 8.5 64.0625 14.71875 69.140625 
Q 20.953125 74.21875 31.78125 74.21875 
Q 42.671875 74.21875 48.875 69.140625 
Q 55.078125 64.0625 55.078125 55.328125 
Q 55.078125 49.078125 51.53125 44.71875 
Q 48 40.375 41.703125 38.8125 
Q 48.828125 37.15625 52.796875 32.3125 
Q 56.78125 27.484375 56.78125 20.515625 
Q 56.78125 9.90625 50.3125 4.234375 
Q 43.84375 -1.421875 31.78125 -1.421875 
Q 19.734375 -1.421875 13.25 4.234375 
Q 6.78125 9.90625 6.78125 20.515625 
Q 6.78125 27.484375 10.78125 32.3125 
Q 14.796875 37.15625 21.921875 38.8125 
z
M 18.3125 54.390625 
Q 18.3125 48.734375 21.84375 45.5625 
Q 25.390625 42.390625 31.78125 42.390625 
Q 38.140625 42.390625 41.71875 45.5625 
Q 45.3125 48.734375 45.3125 54.390625 
Q 45.3125 60.0625 41.71875 63.234375 
Q 38.140625 66.40625 31.78125 66.40625 
Q 25.390625 66.40625 21.84375 63.234375 
Q 18.3125 60.0625 18.3125 54.390625 
z
" id="DejaVuSans-38"/>
      </defs>
      <g transform="translate(715.89712 463.158437)scale(0.1 -0.1)">
       <use xlink:href="#DejaVuSans-38"/>
       <use x="63.623047" xlink:href="#DejaVuSans-30"/>
       <use x="127.246094" xlink:href="#DejaVuSans-30"/>
      </g>
     </g>
    </g>
    <g id="xtick_6">
     <g id="line2d_6">
      <g>
       <use style="stroke:#000000;stroke-width:0.8;" x="867.0279" xlink:href="#m943173f075" y="448.56"/>
      </g>
     </g>
     <g id="text_6">
      <!-- 1000 -->
      <defs>
       <path d="M 12.40625 8.296875 
L 28.515625 8.296875 
L 28.515625 63.921875 
L 10.984375 60.40625 
L 10.984375 69.390625 
L 28.421875 72.90625 
L 38.28125 72.90625 
L 38.28125 8.296875 
L 54.390625 8.296875 
L 54.390625 0 
L 12.40625 0 
z
" id="DejaVuSans-31"/>
      </defs>
      <g transform="translate(854.3029 463.158437)scale(0.1 -0.1)">
       <use xlink:href="#DejaVuSans-31"/>
       <use x="63.623047" xlink:href="#DejaVuSans-30"/>
       <use x="127.246094" xlink:href="#DejaVuSans-30"/>
       <use x="190.869141" xlink:href="#DejaVuSans-30"/>
      </g>
     </g>
    </g>
    <g id="text_7">
     <!-- length of chunk in sentences -->
     <defs>
      <path d="M 9.421875 75.984375 
L 18.40625 75.984375 
L 18.40625 0 
L 9.421875 0 
z
" id="DejaVuSans-6c"/>
      <path d="M 56.203125 29.59375 
L 56.203125 25.203125 
L 14.890625 25.203125 
Q 15.484375 15.921875 20.484375 11.0625 
Q 25.484375 6.203125 34.421875 6.203125 
Q 39.59375 6.203125 44.453125 7.46875 
Q 49.3125 8.734375 54.109375 11.28125 
L 54.109375 2.78125 
Q 49.265625 0.734375 44.1875 -0.34375 
Q 39.109375 -1.421875 33.890625 -1.421875 
Q 20.796875 -1.421875 13.15625 6.1875 
Q 5.515625 13.8125 5.515625 26.8125 
Q 5.515625 40.234375 12.765625 48.109375 
Q 20.015625 56 32.328125 56 
Q 43.359375 56 49.78125 48.890625 
Q 56.203125 41.796875 56.203125 29.59375 
z
M 47.21875 32.234375 
Q 47.125 39.59375 43.09375 43.984375 
Q 39.0625 48.390625 32.421875 48.390625 
Q 24.90625 48.390625 20.390625 44.140625 
Q 15.875 39.890625 15.1875 32.171875 
z
" id="DejaVuSans-65"/>
      <path d="M 54.890625 33.015625 
L 54.890625 0 
L 45.90625 0 
L 45.90625 32.71875 
Q 45.90625 40.484375 42.875 44.328125 
Q 39.84375 48.1875 33.796875 48.1875 
Q 26.515625 48.1875 22.3125 43.546875 
Q 18.109375 38.921875 18.109375 30.90625 
L 18.109375 0 
L 9.078125 0 
L 9.078125 54.6875 
L 18.109375 54.6875 
L 18.109375 46.1875 
Q 21.34375 51.125 25.703125 53.5625 
Q 30.078125 56 35.796875 56 
Q 45.21875 56 50.046875 50.171875 
Q 54.890625 44.34375 54.890625 33.015625 
z
" id="DejaVuSans-6e"/>
      <path d="M 45.40625 27.984375 
Q 45.40625 37.75 41.375 43.109375 
Q 37.359375 48.484375 30.078125 48.484375 
Q 22.859375 48.484375 18.828125 43.109375 
Q 14.796875 37.75 14.796875 27.984375 
Q 14.796875 18.265625 18.828125 12.890625 
Q 22.859375 7.515625 30.078125 7.515625 
Q 37.359375 7.515625 41.375 12.890625 
Q 45.40625 18.265625 45.40625 27.984375 
z
M 54.390625 6.78125 
Q 54.390625 -7.171875 48.1875 -13.984375 
Q 42 -20.796875 29.203125 -20.796875 
Q 24.46875 -20.796875 20.265625 -20.09375 
Q 16.0625 -19.390625 12.109375 -17.921875 
L 12.109375 -9.1875 
Q 16.0625 -11.328125 19.921875 -12.34375 
Q 23.78125 -13.375 27.78125 -13.375 
Q 36.625 -13.375 41.015625 -8.765625 
Q 45.40625 -4.15625 45.40625 5.171875 
L 45.40625 9.625 
Q 42.625 4.78125 38.28125 2.390625 
Q 33.9375 0 27.875 0 
Q 17.828125 0 11.671875 7.65625 
Q 5.515625 15.328125 5.515625 27.984375 
Q 5.515625 40.671875 11.671875 48.328125 
Q 17.828125 56 27.875 56 
Q 33.9375 56 38.28125 53.609375 
Q 42.625 51.21875 45.40625 46.390625 
L 45.40625 54.6875 
L 54.390625 54.6875 
z
" id="DejaVuSans-67"/>
      <path d="M 18.3125 70.21875 
L 18.3125 54.6875 
L 36.8125 54.6875 
L 36.8125 47.703125 
L 18.3125 47.703125 
L 18.3125 18.015625 
Q 18.3125 11.328125 20.140625 9.421875 
Q 21.96875 7.515625 27.59375 7.515625 
L 36.8125 7.515625 
L 36.8125 0 
L 27.59375 0 
Q 17.1875 0 13.234375 3.875 
Q 9.28125 7.765625 9.28125 18.015625 
L 9.28125 47.703125 
L 2.6875 47.703125 
L 2.6875 54.6875 
L 9.28125 54.6875 
L 9.28125 70.21875 
z
" id="DejaVuSans-74"/>
      <path d="M 54.890625 33.015625 
L 54.890625 0 
L 45.90625 0 
L 45.90625 32.71875 
Q 45.90625 40.484375 42.875 44.328125 
Q 39.84375 48.1875 33.796875 48.1875 
Q 26.515625 48.1875 22.3125 43.546875 
Q 18.109375 38.921875 18.109375 30.90625 
L 18.109375 0 
L 9.078125 0 
L 9.078125 75.984375 
L 18.109375 75.984375 
L 18.109375 46.1875 
Q 21.34375 51.125 25.703125 53.5625 
Q 30.078125 56 35.796875 56 
Q 45.21875 56 50.046875 50.171875 
Q 54.890625 44.34375 54.890625 33.015625 
z
" id="DejaVuSans-68"/>
      <path id="DejaVuSans-20"/>
      <path d="M 30.609375 48.390625 
Q 23.390625 48.390625 19.1875 42.75 
Q 14.984375 37.109375 14.984375 27.296875 
Q 14.984375 17.484375 19.15625 11.84375 
Q 23.34375 6.203125 30.609375 6.203125 
Q 37.796875 6.203125 41.984375 11.859375 
Q 46.1875 17.53125 46.1875 27.296875 
Q 46.1875 37.015625 41.984375 42.703125 
Q 37.796875 48.390625 30.609375 48.390625 
z
M 30.609375 56 
Q 42.328125 56 49.015625 48.375 
Q 55.71875 40.765625 55.71875 27.296875 
Q 55.71875 13.875 49.015625 6.21875 
Q 42.328125 -1.421875 30.609375 -1.421875 
Q 18.84375 -1.421875 12.171875 6.21875 
Q 5.515625 13.875 5.515625 27.296875 
Q 5.515625 40.765625 12.171875 48.375 
Q 18.84375 56 30.609375 56 
z
" id="DejaVuSans-6f"/>
      <path d="M 37.109375 75.984375 
L 37.109375 68.5 
L 28.515625 68.5 
Q 23.6875 68.5 21.796875 66.546875 
Q 19.921875 64.59375 19.921875 59.515625 
L 19.921875 54.6875 
L 34.71875 54.6875 
L 34.71875 47.703125 
L 19.921875 47.703125 
L 19.921875 0 
L 10.890625 0 
L 10.890625 47.703125 
L 2.296875 47.703125 
L 2.296875 54.6875 
L 10.890625 54.6875 
L 10.890625 58.5 
Q 10.890625 67.625 15.140625 71.796875 
Q 19.390625 75.984375 28.609375 75.984375 
z
" id="DejaVuSans-66"/>
      <path d="M 48.78125 52.59375 
L 48.78125 44.1875 
Q 44.96875 46.296875 41.140625 47.34375 
Q 37.3125 48.390625 33.40625 48.390625 
Q 24.65625 48.390625 19.8125 42.84375 
Q 14.984375 37.3125 14.984375 27.296875 
Q 14.984375 17.28125 19.8125 11.734375 
Q 24.65625 6.203125 33.40625 6.203125 
Q 37.3125 6.203125 41.140625 7.25 
Q 44.96875 8.296875 48.78125 10.40625 
L 48.78125 2.09375 
Q 45.015625 0.34375 40.984375 -0.53125 
Q 36.96875 -1.421875 32.421875 -1.421875 
Q 20.0625 -1.421875 12.78125 6.34375 
Q 5.515625 14.109375 5.515625 27.296875 
Q 5.515625 40.671875 12.859375 48.328125 
Q 20.21875 56 33.015625 56 
Q 37.15625 56 41.109375 55.140625 
Q 45.0625 54.296875 48.78125 52.59375 
z
" id="DejaVuSans-63"/>
      <path d="M 8.5 21.578125 
L 8.5 54.6875 
L 17.484375 54.6875 
L 17.484375 21.921875 
Q 17.484375 14.15625 20.5 10.265625 
Q 23.53125 6.390625 29.59375 6.390625 
Q 36.859375 6.390625 41.078125 11.03125 
Q 45.3125 15.671875 45.3125 23.6875 
L 45.3125 54.6875 
L 54.296875 54.6875 
L 54.296875 0 
L 45.3125 0 
L 45.3125 8.40625 
Q 42.046875 3.421875 37.71875 1 
Q 33.40625 -1.421875 27.6875 -1.421875 
Q 18.265625 -1.421875 13.375 4.4375 
Q 8.5 10.296875 8.5 21.578125 
z
M 31.109375 56 
z
" id="DejaVuSans-75"/>
      <path d="M 9.078125 75.984375 
L 18.109375 75.984375 
L 18.109375 31.109375 
L 44.921875 54.6875 
L 56.390625 54.6875 
L 27.390625 29.109375 
L 57.625 0 
L 45.90625 0 
L 18.109375 26.703125 
L 18.109375 0 
L 9.078125 0 
z
" id="DejaVuSans-6b"/>
      <path d="M 9.421875 54.6875 
L 18.40625 54.6875 
L 18.40625 0 
L 9.421875 0 
z
M 9.421875 75.984375 
L 18.40625 75.984375 
L 18.40625 64.59375 
L 9.421875 64.59375 
z
" id="DejaVuSans-69"/>
      <path d="M 44.28125 53.078125 
L 44.28125 44.578125 
Q 40.484375 46.53125 36.375 47.5 
Q 32.28125 48.484375 27.875 48.484375 
Q 21.1875 48.484375 17.84375 46.4375 
Q 14.5 44.390625 14.5 40.28125 
Q 14.5 37.15625 16.890625 35.375 
Q 19.28125 33.59375 26.515625 31.984375 
L 29.59375 31.296875 
Q 39.15625 29.25 43.1875 25.515625 
Q 47.21875 21.78125 47.21875 15.09375 
Q 47.21875 7.46875 41.1875 3.015625 
Q 35.15625 -1.421875 24.609375 -1.421875 
Q 20.21875 -1.421875 15.453125 -0.5625 
Q 10.6875 0.296875 5.421875 2 
L 5.421875 11.28125 
Q 10.40625 8.6875 15.234375 7.390625 
Q 20.0625 6.109375 24.8125 6.109375 
Q 31.15625 6.109375 34.5625 8.28125 
Q 37.984375 10.453125 37.984375 14.40625 
Q 37.984375 18.0625 35.515625 20.015625 
Q 33.0625 21.96875 24.703125 23.78125 
L 21.578125 24.515625 
Q 13.234375 26.265625 9.515625 29.90625 
Q 5.8125 33.546875 5.8125 39.890625 
Q 5.8125 47.609375 11.28125 51.796875 
Q 16.75 56 26.8125 56 
Q 31.78125 56 36.171875 55.265625 
Q 40.578125 54.546875 44.28125 53.078125 
z
" id="DejaVuSans-73"/>
     </defs>
     <g transform="translate(444.292188 476.836563)scale(0.1 -0.1)">
      <use xlink:href="#DejaVuSans-6c"/>
      <use x="27.783203" xlink:href="#DejaVuSans-65"/>
      <use x="89.306641" xlink:href="#DejaVuSans-6e"/>
      <use x="152.685547" xlink:href="#DejaVuSans-67"/>
      <use x="216.162109" xlink:href="#DejaVuSans-74"/>
      <use x="255.371094" xlink:href="#DejaVuSans-68"/>
      <use x="318.75" xlink:href="#DejaVuSans-20"/>
      <use x="350.537109" xlink:href="#DejaVuSans-6f"/>
      <use x="411.71875" xlink:href="#DejaVuSans-66"/>
      <use x="446.923828" xlink:href="#DejaVuSans-20"/>
      <use x="478.710938" xlink:href="#DejaVuSans-63"/>
      <use x="533.691406" xlink:href="#DejaVuSans-68"/>
      <use x="597.070312" xlink:href="#DejaVuSans-75"/>
      <use x="660.449219" xlink:href="#DejaVuSans-6e"/>
      <use x="723.828125" xlink:href="#DejaVuSans-6b"/>
      <use x="781.738281" xlink:href="#DejaVuSans-20"/>
      <use x="813.525391" xlink:href="#DejaVuSans-69"/>
      <use x="841.308594" xlink:href="#DejaVuSans-6e"/>
      <use x="904.6875" xlink:href="#DejaVuSans-20"/>
      <use x="936.474609" xlink:href="#DejaVuSans-73"/>
      <use x="988.574219" xlink:href="#DejaVuSans-65"/>
      <use x="1050.097656" xlink:href="#DejaVuSans-6e"/>
      <use x="1113.476562" xlink:href="#DejaVuSans-74"/>
      <use x="1152.685547" xlink:href="#DejaVuSans-65"/>
      <use x="1214.208984" xlink:href="#DejaVuSans-6e"/>
      <use x="1277.587891" xlink:href="#DejaVuSans-63"/>
      <use x="1332.568359" xlink:href="#DejaVuSans-65"/>
      <use x="1394.091797" xlink:href="#DejaVuSans-73"/>
     </g>
    </g>
   </g>
   <g id="matplotlib.axis_2">
    <g id="ytick_1">
     <g id="line2d_7">
      <defs>
       <path d="M 0 0 
L -3.5 0 
" id="m9d9c92098c" style="stroke:#000000;stroke-width:0.8;"/>
      </defs>
      <g>
       <use style="stroke:#000000;stroke-width:0.8;" x="126" xlink:href="#m9d9c92098c" y="427.795945"/>
      </g>
     </g>
     <g id="text_8">
      <!-- 0 -->
      <g transform="translate(112.6375 431.595164)scale(0.1 -0.1)">
       <use xlink:href="#DejaVuSans-30"/>
      </g>
     </g>
    </g>
    <g id="ytick_2">
     <g id="line2d_8">
      <g>
       <use style="stroke:#000000;stroke-width:0.8;" x="126" xlink:href="#m9d9c92098c" y="374.023793"/>
      </g>
     </g>
     <g id="text_9">
      <!-- 2 -->
      <g transform="translate(112.6375 377.823012)scale(0.1 -0.1)">
       <use xlink:href="#DejaVuSans-32"/>
      </g>
     </g>
    </g>
    <g id="ytick_3">
     <g id="line2d_9">
      <g>
       <use style="stroke:#000000;stroke-width:0.8;" x="126" xlink:href="#m9d9c92098c" y="320.251641"/>
      </g>
     </g>
     <g id="text_10">
      <!-- 4 -->
      <g transform="translate(112.6375 324.05086)scale(0.1 -0.1)">
       <use xlink:href="#DejaVuSans-34"/>
      </g>
     </g>
    </g>
    <g id="ytick_4">
     <g id="line2d_10">
      <g>
       <use style="stroke:#000000;stroke-width:0.8;" x="126" xlink:href="#m9d9c92098c" y="266.479489"/>
      </g>
     </g>
     <g id="text_11">
      <!-- 6 -->
      <g transform="translate(112.6375 270.278708)scale(0.1 -0.1)">
       <use xlink:href="#DejaVuSans-36"/>
      </g>
     </g>
    </g>
    <g id="ytick_5">
     <g id="line2d_11">
      <g>
       <use style="stroke:#000000;stroke-width:0.8;" x="126" xlink:href="#m9d9c92098c" y="212.707337"/>
      </g>
     </g>
     <g id="text_12">
      <!-- 8 -->
      <g transform="translate(112.6375 216.506556)scale(0.1 -0.1)">
       <use xlink:href="#DejaVuSans-38"/>
      </g>
     </g>
    </g>
    <g id="ytick_6">
     <g id="line2d_12">
      <g>
       <use style="stroke:#000000;stroke-width:0.8;" x="126" xlink:href="#m9d9c92098c" y="158.935185"/>
      </g>
     </g>
     <g id="text_13">
      <!-- 10 -->
      <g transform="translate(106.275 162.734404)scale(0.1 -0.1)">
       <use xlink:href="#DejaVuSans-31"/>
       <use x="63.623047" xlink:href="#DejaVuSans-30"/>
      </g>
     </g>
    </g>
    <g id="ytick_7">
     <g id="line2d_13">
      <g>
       <use style="stroke:#000000;stroke-width:0.8;" x="126" xlink:href="#m9d9c92098c" y="105.163033"/>
      </g>
     </g>
     <g id="text_14">
      <!-- 12 -->
      <g transform="translate(106.275 108.962252)scale(0.1 -0.1)">
       <use xlink:href="#DejaVuSans-31"/>
       <use x="63.623047" xlink:href="#DejaVuSans-32"/>
      </g>
     </g>
    </g>
    <g id="text_15">
     <!-- mean variance of the GFI over all documents -->
     <defs>
      <path d="M 52 44.1875 
Q 55.375 50.25 60.0625 53.125 
Q 64.75 56 71.09375 56 
Q 79.640625 56 84.28125 50.015625 
Q 88.921875 44.046875 88.921875 33.015625 
L 88.921875 0 
L 79.890625 0 
L 79.890625 32.71875 
Q 79.890625 40.578125 77.09375 44.375 
Q 74.3125 48.1875 68.609375 48.1875 
Q 61.625 48.1875 57.5625 43.546875 
Q 53.515625 38.921875 53.515625 30.90625 
L 53.515625 0 
L 44.484375 0 
L 44.484375 32.71875 
Q 44.484375 40.625 41.703125 44.40625 
Q 38.921875 48.1875 33.109375 48.1875 
Q 26.21875 48.1875 22.15625 43.53125 
Q 18.109375 38.875 18.109375 30.90625 
L 18.109375 0 
L 9.078125 0 
L 9.078125 54.6875 
L 18.109375 54.6875 
L 18.109375 46.1875 
Q 21.1875 51.21875 25.484375 53.609375 
Q 29.78125 56 35.6875 56 
Q 41.65625 56 45.828125 52.96875 
Q 50 49.953125 52 44.1875 
z
" id="DejaVuSans-6d"/>
      <path d="M 34.28125 27.484375 
Q 23.390625 27.484375 19.1875 25 
Q 14.984375 22.515625 14.984375 16.5 
Q 14.984375 11.71875 18.140625 8.90625 
Q 21.296875 6.109375 26.703125 6.109375 
Q 34.1875 6.109375 38.703125 11.40625 
Q 43.21875 16.703125 43.21875 25.484375 
L 43.21875 27.484375 
z
M 52.203125 31.203125 
L 52.203125 0 
L 43.21875 0 
L 43.21875 8.296875 
Q 40.140625 3.328125 35.546875 0.953125 
Q 30.953125 -1.421875 24.3125 -1.421875 
Q 15.921875 -1.421875 10.953125 3.296875 
Q 6 8.015625 6 15.921875 
Q 6 25.140625 12.171875 29.828125 
Q 18.359375 34.515625 30.609375 34.515625 
L 43.21875 34.515625 
L 43.21875 35.40625 
Q 43.21875 41.609375 39.140625 45 
Q 35.0625 48.390625 27.6875 48.390625 
Q 23 48.390625 18.546875 47.265625 
Q 14.109375 46.140625 10.015625 43.890625 
L 10.015625 52.203125 
Q 14.9375 54.109375 19.578125 55.046875 
Q 24.21875 56 28.609375 56 
Q 40.484375 56 46.34375 49.84375 
Q 52.203125 43.703125 52.203125 31.203125 
z
" id="DejaVuSans-61"/>
      <path d="M 2.984375 54.6875 
L 12.5 54.6875 
L 29.59375 8.796875 
L 46.6875 54.6875 
L 56.203125 54.6875 
L 35.6875 0 
L 23.484375 0 
z
" id="DejaVuSans-76"/>
      <path d="M 41.109375 46.296875 
Q 39.59375 47.171875 37.8125 47.578125 
Q 36.03125 48 33.890625 48 
Q 26.265625 48 22.1875 43.046875 
Q 18.109375 38.09375 18.109375 28.8125 
L 18.109375 0 
L 9.078125 0 
L 9.078125 54.6875 
L 18.109375 54.6875 
L 18.109375 46.1875 
Q 20.953125 51.171875 25.484375 53.578125 
Q 30.03125 56 36.53125 56 
Q 37.453125 56 38.578125 55.875 
Q 39.703125 55.765625 41.0625 55.515625 
z
" id="DejaVuSans-72"/>
      <path d="M 59.515625 10.40625 
L 59.515625 29.984375 
L 43.40625 29.984375 
L 43.40625 38.09375 
L 69.28125 38.09375 
L 69.28125 6.78125 
Q 63.578125 2.734375 56.6875 0.65625 
Q 49.8125 -1.421875 42 -1.421875 
Q 24.90625 -1.421875 15.25 8.5625 
Q 5.609375 18.5625 5.609375 36.375 
Q 5.609375 54.25 15.25 64.234375 
Q 24.90625 74.21875 42 74.21875 
Q 49.125 74.21875 55.546875 72.453125 
Q 61.96875 70.703125 67.390625 67.28125 
L 67.390625 56.78125 
Q 61.921875 61.421875 55.765625 63.765625 
Q 49.609375 66.109375 42.828125 66.109375 
Q 29.4375 66.109375 22.71875 58.640625 
Q 16.015625 51.171875 16.015625 36.375 
Q 16.015625 21.625 22.71875 14.15625 
Q 29.4375 6.6875 42.828125 6.6875 
Q 48.046875 6.6875 52.140625 7.59375 
Q 56.25 8.5 59.515625 10.40625 
z
" id="DejaVuSans-47"/>
      <path d="M 9.8125 72.90625 
L 51.703125 72.90625 
L 51.703125 64.59375 
L 19.671875 64.59375 
L 19.671875 43.109375 
L 48.578125 43.109375 
L 48.578125 34.8125 
L 19.671875 34.8125 
L 19.671875 0 
L 9.8125 0 
z
" id="DejaVuSans-46"/>
      <path d="M 9.8125 72.90625 
L 19.671875 72.90625 
L 19.671875 0 
L 9.8125 0 
z
" id="DejaVuSans-49"/>
      <path d="M 45.40625 46.390625 
L 45.40625 75.984375 
L 54.390625 75.984375 
L 54.390625 0 
L 45.40625 0 
L 45.40625 8.203125 
Q 42.578125 3.328125 38.25 0.953125 
Q 33.9375 -1.421875 27.875 -1.421875 
Q 17.96875 -1.421875 11.734375 6.484375 
Q 5.515625 14.40625 5.515625 27.296875 
Q 5.515625 40.1875 11.734375 48.09375 
Q 17.96875 56 27.875 56 
Q 33.9375 56 38.25 53.625 
Q 42.578125 51.265625 45.40625 46.390625 
z
M 14.796875 27.296875 
Q 14.796875 17.390625 18.875 11.75 
Q 22.953125 6.109375 30.078125 6.109375 
Q 37.203125 6.109375 41.296875 11.75 
Q 45.40625 17.390625 45.40625 27.296875 
Q 45.40625 37.203125 41.296875 42.84375 
Q 37.203125 48.484375 30.078125 48.484375 
Q 22.953125 48.484375 18.875 42.84375 
Q 14.796875 37.203125 14.796875 27.296875 
z
" id="DejaVuSans-64"/>
     </defs>
     <g transform="translate(100.195312 367.424688)rotate(-90)scale(0.1 -0.1)">
      <use xlink:href="#DejaVuSans-6d"/>
      <use x="97.412109" xlink:href="#DejaVuSans-65"/>
      <use x="158.935547" xlink:href="#DejaVuSans-61"/>
      <use x="220.214844" xlink:href="#DejaVuSans-6e"/>
      <use x="283.59375" xlink:href="#DejaVuSans-20"/>
      <use x="315.380859" xlink:href="#DejaVuSans-76"/>
      <use x="374.560547" xlink:href="#DejaVuSans-61"/>
      <use x="435.839844" xlink:href="#DejaVuSans-72"/>
      <use x="476.953125" xlink:href="#DejaVuSans-69"/>
      <use x="504.736328" xlink:href="#DejaVuSans-61"/>
      <use x="566.015625" xlink:href="#DejaVuSans-6e"/>
      <use x="629.394531" xlink:href="#DejaVuSans-63"/>
      <use x="684.375" xlink:href="#DejaVuSans-65"/>
      <use x="745.898438" xlink:href="#DejaVuSans-20"/>
      <use x="777.685547" xlink:href="#DejaVuSans-6f"/>
      <use x="838.867188" xlink:href="#DejaVuSans-66"/>
      <use x="874.072266" xlink:href="#DejaVuSans-20"/>
      <use x="905.859375" xlink:href="#DejaVuSans-74"/>
      <use x="945.068359" xlink:href="#DejaVuSans-68"/>
      <use x="1008.447266" xlink:href="#DejaVuSans-65"/>
      <use x="1069.970703" xlink:href="#DejaVuSans-20"/>
      <use x="1101.757812" xlink:href="#DejaVuSans-47"/>
      <use x="1179.248047" xlink:href="#DejaVuSans-46"/>
      <use x="1236.767578" xlink:href="#DejaVuSans-49"/>
      <use x="1266.259766" xlink:href="#DejaVuSans-20"/>
      <use x="1298.046875" xlink:href="#DejaVuSans-6f"/>
      <use x="1359.228516" xlink:href="#DejaVuSans-76"/>
      <use x="1418.408203" xlink:href="#DejaVuSans-65"/>
      <use x="1479.931641" xlink:href="#DejaVuSans-72"/>
      <use x="1521.044922" xlink:href="#DejaVuSans-20"/>
      <use x="1552.832031" xlink:href="#DejaVuSans-61"/>
      <use x="1614.111328" xlink:href="#DejaVuSans-6c"/>
      <use x="1641.894531" xlink:href="#DejaVuSans-6c"/>
      <use x="1669.677734" xlink:href="#DejaVuSans-20"/>
      <use x="1701.464844" xlink:href="#DejaVuSans-64"/>
      <use x="1764.941406" xlink:href="#DejaVuSans-6f"/>
      <use x="1826.123047" xlink:href="#DejaVuSans-63"/>
      <use x="1881.103516" xlink:href="#DejaVuSans-75"/>
      <use x="1944.482422" xlink:href="#DejaVuSans-6d"/>
      <use x="2041.894531" xlink:href="#DejaVuSans-65"/>
      <use x="2103.417969" xlink:href="#DejaVuSans-6e"/>
      <use x="2166.796875" xlink:href="#DejaVuSans-74"/>
      <use x="2206.005859" xlink:href="#DejaVuSans-73"/>
     </g>
    </g>
   </g>
   <g id="patch_3">
    <path d="M 126 448.56 
L 126 60.48 
" style="fill:none;stroke:#000000;stroke-linecap:square;stroke-linejoin:miter;stroke-width:0.8;"/>
   </g>
   <g id="patch_4">
    <path d="M 907.2 448.56 
L 907.2 60.48 
" style="fill:none;stroke:#000000;stroke-linecap:square;stroke-linejoin:miter;stroke-width:0.8;"/>
   </g>
   <g id="patch_5">
    <path d="M 126 448.56 
L 907.2 448.56 
" style="fill:none;stroke:#000000;stroke-linecap:square;stroke-linejoin:miter;stroke-width:0.8;"/>
   </g>
   <g id="patch_6">
    <path d="M 126 60.48 
L 907.2 60.48 
" style="fill:none;stroke:#000000;stroke-linecap:square;stroke-linejoin:miter;stroke-width:0.8;"/>
   </g>
   <g id="legend_1">
    <g id="patch_7">
     <path d="M 795.010938 97.83625 
L 900.2 97.83625 
Q 902.2 97.83625 902.2 95.83625 
L 902.2 67.48 
Q 902.2 65.48 900.2 65.48 
L 795.010938 65.48 
Q 793.010938 65.48 793.010938 67.48 
L 793.010938 95.83625 
Q 793.010938 97.83625 795.010938 97.83625 
z
" style="fill:#ffffff;opacity:0.8;stroke:#cccccc;stroke-linejoin:miter;"/>
    </g>
    <g id="PathCollection_3">
     <g>
      <use style="fill:#1f77b4;stroke:#1f77b4;" x="807.010938" xlink:href="#m7629bb5845" y="74.453438"/>
     </g>
    </g>
    <g id="text_16">
     <!-- mean values -->
     <g transform="translate(825.010938 77.078438)scale(0.1 -0.1)">
      <use xlink:href="#DejaVuSans-6d"/>
      <use x="97.412109" xlink:href="#DejaVuSans-65"/>
      <use x="158.935547" xlink:href="#DejaVuSans-61"/>
      <use x="220.214844" xlink:href="#DejaVuSans-6e"/>
      <use x="283.59375" xlink:href="#DejaVuSans-20"/>
      <use x="315.380859" xlink:href="#DejaVuSans-76"/>
      <use x="374.560547" xlink:href="#DejaVuSans-61"/>
      <use x="435.839844" xlink:href="#DejaVuSans-6c"/>
      <use x="463.623047" xlink:href="#DejaVuSans-75"/>
      <use x="527.001953" xlink:href="#DejaVuSans-65"/>
      <use x="588.525391" xlink:href="#DejaVuSans-73"/>
     </g>
    </g>
    <g id="PathCollection_4">
     <g>
      <use style="fill:#ff7f0e;stroke:#ff7f0e;" x="807.010938" xlink:href="#m77f1a78982" y="89.131563"/>
     </g>
    </g>
    <g id="text_17">
     <!-- median values -->
     <g transform="translate(825.010938 91.756563)scale(0.1 -0.1)">
      <use xlink:href="#DejaVuSans-6d"/>
      <use x="97.412109" xlink:href="#DejaVuSans-65"/>
      <use x="158.935547" xlink:href="#DejaVuSans-64"/>
      <use x="222.412109" xlink:href="#DejaVuSans-69"/>
      <use x="250.195312" xlink:href="#DejaVuSans-61"/>
      <use x="311.474609" xlink:href="#DejaVuSans-6e"/>
      <use x="374.853516" xlink:href="#DejaVuSans-20"/>
      <use x="406.640625" xlink:href="#DejaVuSans-76"/>
      <use x="465.820312" xlink:href="#DejaVuSans-61"/>
      <use x="527.099609" xlink:href="#DejaVuSans-6c"/>
      <use x="554.882812" xlink:href="#DejaVuSans-75"/>
      <use x="618.261719" xlink:href="#DejaVuSans-65"/>
      <use x="679.785156" xlink:href="#DejaVuSans-73"/>
     </g>
    </g>
   </g>
  </g>
  <g id="text_18">
   <!-- Variances of GFI values of the different chunk sizes over all documents -->
   <defs>
    <path d="M 28.609375 0 
L 0.78125 72.90625 
L 11.078125 72.90625 
L 34.1875 11.53125 
L 57.328125 72.90625 
L 67.578125 72.90625 
L 39.796875 0 
z
" id="DejaVuSans-56"/>
    <path d="M 5.515625 54.6875 
L 48.1875 54.6875 
L 48.1875 46.484375 
L 14.40625 7.171875 
L 48.1875 7.171875 
L 48.1875 0 
L 4.296875 0 
L 4.296875 8.203125 
L 38.09375 47.515625 
L 5.515625 47.515625 
z
" id="DejaVuSans-7a"/>
   </defs>
   <g transform="translate(254.669844 20.717812)scale(0.14 -0.14)">
    <use xlink:href="#DejaVuSans-56"/>
    <use x="68.298828" xlink:href="#DejaVuSans-61"/>
    <use x="129.578125" xlink:href="#DejaVuSans-72"/>
    <use x="170.691406" xlink:href="#DejaVuSans-69"/>
    <use x="198.474609" xlink:href="#DejaVuSans-61"/>
    <use x="259.753906" xlink:href="#DejaVuSans-6e"/>
    <use x="323.132812" xlink:href="#DejaVuSans-63"/>
    <use x="378.113281" xlink:href="#DejaVuSans-65"/>
    <use x="439.636719" xlink:href="#DejaVuSans-73"/>
    <use x="491.736328" xlink:href="#DejaVuSans-20"/>
    <use x="523.523438" xlink:href="#DejaVuSans-6f"/>
    <use x="584.705078" xlink:href="#DejaVuSans-66"/>
    <use x="619.910156" xlink:href="#DejaVuSans-20"/>
    <use x="651.697266" xlink:href="#DejaVuSans-47"/>
    <use x="729.1875" xlink:href="#DejaVuSans-46"/>
    <use x="786.707031" xlink:href="#DejaVuSans-49"/>
    <use x="816.199219" xlink:href="#DejaVuSans-20"/>
    <use x="847.986328" xlink:href="#DejaVuSans-76"/>
    <use x="907.166016" xlink:href="#DejaVuSans-61"/>
    <use x="968.445312" xlink:href="#DejaVuSans-6c"/>
    <use x="996.228516" xlink:href="#DejaVuSans-75"/>
    <use x="1059.607422" xlink:href="#DejaVuSans-65"/>
    <use x="1121.130859" xlink:href="#DejaVuSans-73"/>
    <use x="1173.230469" xlink:href="#DejaVuSans-20"/>
    <use x="1205.017578" xlink:href="#DejaVuSans-6f"/>
    <use x="1266.199219" xlink:href="#DejaVuSans-66"/>
    <use x="1301.404297" xlink:href="#DejaVuSans-20"/>
    <use x="1333.191406" xlink:href="#DejaVuSans-74"/>
    <use x="1372.400391" xlink:href="#DejaVuSans-68"/>
    <use x="1435.779297" xlink:href="#DejaVuSans-65"/>
    <use x="1497.302734" xlink:href="#DejaVuSans-20"/>
    <use x="1529.089844" xlink:href="#DejaVuSans-64"/>
    <use x="1592.566406" xlink:href="#DejaVuSans-69"/>
    <use x="1620.349609" xlink:href="#DejaVuSans-66"/>
    <use x="1655.554688" xlink:href="#DejaVuSans-66"/>
    <use x="1690.759766" xlink:href="#DejaVuSans-65"/>
    <use x="1752.283203" xlink:href="#DejaVuSans-72"/>
    <use x="1793.365234" xlink:href="#DejaVuSans-65"/>
    <use x="1854.888672" xlink:href="#DejaVuSans-6e"/>
    <use x="1918.267578" xlink:href="#DejaVuSans-74"/>
    <use x="1957.476562" xlink:href="#DejaVuSans-20"/>
    <use x="1989.263672" xlink:href="#DejaVuSans-63"/>
    <use x="2044.244141" xlink:href="#DejaVuSans-68"/>
    <use x="2107.623047" xlink:href="#DejaVuSans-75"/>
    <use x="2171.001953" xlink:href="#DejaVuSans-6e"/>
    <use x="2234.380859" xlink:href="#DejaVuSans-6b"/>
    <use x="2292.291016" xlink:href="#DejaVuSans-20"/>
    <use x="2324.078125" xlink:href="#DejaVuSans-73"/>
    <use x="2376.177734" xlink:href="#DejaVuSans-69"/>
    <use x="2403.960938" xlink:href="#DejaVuSans-7a"/>
    <use x="2456.451172" xlink:href="#DejaVuSans-65"/>
    <use x="2517.974609" xlink:href="#DejaVuSans-73"/>
    <use x="2570.074219" xlink:href="#DejaVuSans-20"/>
    <use x="2601.861328" xlink:href="#DejaVuSans-6f"/>
    <use x="2663.042969" xlink:href="#DejaVuSans-76"/>
    <use x="2722.222656" xlink:href="#DejaVuSans-65"/>
    <use x="2783.746094" xlink:href="#DejaVuSans-72"/>
    <use x="2824.859375" xlink:href="#DejaVuSans-20"/>
    <use x="2856.646484" xlink:href="#DejaVuSans-61"/>
    <use x="2917.925781" xlink:href="#DejaVuSans-6c"/>
    <use x="2945.708984" xlink:href="#DejaVuSans-6c"/>
    <use x="2973.492188" xlink:href="#DejaVuSans-20"/>
    <use x="3005.279297" xlink:href="#DejaVuSans-64"/>
    <use x="3068.755859" xlink:href="#DejaVuSans-6f"/>
    <use x="3129.9375" xlink:href="#DejaVuSans-63"/>
    <use x="3184.917969" xlink:href="#DejaVuSans-75"/>
    <use x="3248.296875" xlink:href="#DejaVuSans-6d"/>
    <use x="3345.708984" xlink:href="#DejaVuSans-65"/>
    <use x="3407.232422" xlink:href="#DejaVuSans-6e"/>
    <use x="3470.611328" xlink:href="#DejaVuSans-74"/>
    <use x="3509.820312" xlink:href="#DejaVuSans-73"/>
   </g>
  </g>
 </g>
 <defs>
  <clipPath id="p75977acaf4">
   <rect height="388.08" width="781.2" x="126" y="60.48"/>
  </clipPath>
 </defs>
</svg>
