<?xml version="1.0" encoding="utf-8" standalone="no"?>
<!DOCTYPE svg PUBLIC "-//W3C//DTD SVG 1.1//EN"
  "http://www.w3.org/Graphics/SVG/1.1/DTD/svg11.dtd">
<!-- Created with matplotlib (https://matplotlib.org/) -->
<svg height="436.33625pt" version="1.1" viewBox="0 0 848.40625 436.33625" width="848.40625pt" xmlns="http://www.w3.org/2000/svg" xmlns:xlink="http://www.w3.org/1999/xlink">
 <defs>
  <style type="text/css">
*{stroke-linecap:butt;stroke-linejoin:round;}
  </style>
 </defs>
 <g id="figure_1">
  <g id="patch_1">
   <path d="M 0 436.33625 
L 848.40625 436.33625 
L 848.40625 0 
L 0 0 
z
" style="fill:#ffffff;"/>
  </g>
  <g id="axes_1">
   <g id="patch_2">
    <path d="M 56.50625 398.78 
L 837.70625 398.78 
L 837.70625 10.7 
L 56.50625 10.7 
z
" style="fill:#ffffff;"/>
   </g>
   <g id="patch_3">
    <path clip-path="url(#p48e547dc15)" d="M 92.015341 398.78 
L 108.155837 398.78 
L 108.155837 398.78 
L 92.015341 398.78 
z
" style="fill:#ab9004;opacity:0.3;"/>
   </g>
   <g id="patch_4">
    <path clip-path="url(#p48e547dc15)" d="M 108.155837 398.78 
L 124.296333 398.78 
L 124.296333 398.78 
L 108.155837 398.78 
z
" style="fill:#ab9004;opacity:0.3;"/>
   </g>
   <g id="patch_5">
    <path clip-path="url(#p48e547dc15)" d="M 124.296333 398.78 
L 140.436829 398.78 
L 140.436829 398.78 
L 124.296333 398.78 
z
" style="fill:#ab9004;opacity:0.3;"/>
   </g>
   <g id="patch_6">
    <path clip-path="url(#p48e547dc15)" d="M 140.436829 398.78 
L 156.577324 398.78 
L 156.577324 398.78 
L 140.436829 398.78 
z
" style="fill:#ab9004;opacity:0.3;"/>
   </g>
   <g id="patch_7">
    <path clip-path="url(#p48e547dc15)" d="M 156.577324 398.78 
L 172.71782 398.78 
L 172.71782 398.78 
L 156.577324 398.78 
z
" style="fill:#ab9004;opacity:0.3;"/>
   </g>
   <g id="patch_8">
    <path clip-path="url(#p48e547dc15)" d="M 172.71782 398.78 
L 188.858316 398.78 
L 188.858316 398.78 
L 172.71782 398.78 
z
" style="fill:#ab9004;opacity:0.3;"/>
   </g>
   <g id="patch_9">
    <path clip-path="url(#p48e547dc15)" d="M 188.858316 398.78 
L 204.998812 398.78 
L 204.998812 398.78 
L 188.858316 398.78 
z
" style="fill:#ab9004;opacity:0.3;"/>
   </g>
   <g id="patch_10">
    <path clip-path="url(#p48e547dc15)" d="M 204.998812 398.78 
L 221.139308 398.78 
L 221.139308 398.78 
L 204.998812 398.78 
z
" style="fill:#ab9004;opacity:0.3;"/>
   </g>
   <g id="patch_11">
    <path clip-path="url(#p48e547dc15)" d="M 221.139308 398.78 
L 237.279804 398.78 
L 237.279804 398.78 
L 221.139308 398.78 
z
" style="fill:#ab9004;opacity:0.3;"/>
   </g>
   <g id="patch_12">
    <path clip-path="url(#p48e547dc15)" d="M 237.279804 398.78 
L 253.4203 398.78 
L 253.4203 306.38 
L 237.279804 306.38 
z
" style="fill:#ab9004;opacity:0.3;"/>
   </g>
   <g id="patch_13">
    <path clip-path="url(#p48e547dc15)" d="M 253.4203 398.78 
L 269.560795 398.78 
L 269.560795 352.58 
L 253.4203 352.58 
z
" style="fill:#ab9004;opacity:0.3;"/>
   </g>
   <g id="patch_14">
    <path clip-path="url(#p48e547dc15)" d="M 269.560795 398.78 
L 285.701291 398.78 
L 285.701291 213.98 
L 269.560795 213.98 
z
" style="fill:#ab9004;opacity:0.3;"/>
   </g>
   <g id="patch_15">
    <path clip-path="url(#p48e547dc15)" d="M 285.701291 398.78 
L 301.841787 398.78 
L 301.841787 213.98 
L 285.701291 213.98 
z
" style="fill:#ab9004;opacity:0.3;"/>
   </g>
   <g id="patch_16">
    <path clip-path="url(#p48e547dc15)" d="M 301.841787 398.78 
L 317.982283 398.78 
L 317.982283 121.58 
L 301.841787 121.58 
z
" style="fill:#ab9004;opacity:0.3;"/>
   </g>
   <g id="patch_17">
    <path clip-path="url(#p48e547dc15)" d="M 317.982283 398.78 
L 334.122779 398.78 
L 334.122779 29.18 
L 317.982283 29.18 
z
" style="fill:#ab9004;opacity:0.3;"/>
   </g>
   <g id="patch_18">
    <path clip-path="url(#p48e547dc15)" d="M 334.122779 398.78 
L 350.263275 398.78 
L 350.263275 121.58 
L 334.122779 121.58 
z
" style="fill:#ab9004;opacity:0.3;"/>
   </g>
   <g id="patch_19">
    <path clip-path="url(#p48e547dc15)" d="M 350.263275 398.78 
L 366.403771 398.78 
L 366.403771 121.58 
L 350.263275 121.58 
z
" style="fill:#ab9004;opacity:0.3;"/>
   </g>
   <g id="patch_20">
    <path clip-path="url(#p48e547dc15)" d="M 366.403771 398.78 
L 382.544267 398.78 
L 382.544267 306.38 
L 366.403771 306.38 
z
" style="fill:#ab9004;opacity:0.3;"/>
   </g>
   <g id="patch_21">
    <path clip-path="url(#p48e547dc15)" d="M 382.544267 398.78 
L 398.684762 398.78 
L 398.684762 306.38 
L 382.544267 306.38 
z
" style="fill:#ab9004;opacity:0.3;"/>
   </g>
   <g id="patch_22">
    <path clip-path="url(#p48e547dc15)" d="M 398.684762 398.78 
L 414.825258 398.78 
L 414.825258 398.78 
L 398.684762 398.78 
z
" style="fill:#ab9004;opacity:0.3;"/>
   </g>
   <g id="patch_23">
    <path clip-path="url(#p48e547dc15)" d="M 414.825258 398.78 
L 430.965754 398.78 
L 430.965754 398.78 
L 414.825258 398.78 
z
" style="fill:#ab9004;opacity:0.3;"/>
   </g>
   <g id="patch_24">
    <path clip-path="url(#p48e547dc15)" d="M 430.965754 398.78 
L 447.10625 398.78 
L 447.10625 398.78 
L 430.965754 398.78 
z
" style="fill:#ab9004;opacity:0.3;"/>
   </g>
   <g id="patch_25">
    <path clip-path="url(#p48e547dc15)" d="M 447.10625 398.78 
L 463.246746 398.78 
L 463.246746 306.38 
L 447.10625 306.38 
z
" style="fill:#ab9004;opacity:0.3;"/>
   </g>
   <g id="patch_26">
    <path clip-path="url(#p48e547dc15)" d="M 463.246746 398.78 
L 479.387242 398.78 
L 479.387242 398.78 
L 463.246746 398.78 
z
" style="fill:#ab9004;opacity:0.3;"/>
   </g>
   <g id="patch_27">
    <path clip-path="url(#p48e547dc15)" d="M 479.387242 398.78 
L 495.527738 398.78 
L 495.527738 352.58 
L 479.387242 352.58 
z
" style="fill:#ab9004;opacity:0.3;"/>
   </g>
   <g id="patch_28">
    <path clip-path="url(#p48e547dc15)" d="M 495.527738 398.78 
L 511.668233 398.78 
L 511.668233 398.78 
L 495.527738 398.78 
z
" style="fill:#ab9004;opacity:0.3;"/>
   </g>
   <g id="patch_29">
    <path clip-path="url(#p48e547dc15)" d="M 511.668233 398.78 
L 527.808729 398.78 
L 527.808729 398.78 
L 511.668233 398.78 
z
" style="fill:#ab9004;opacity:0.3;"/>
   </g>
   <g id="patch_30">
    <path clip-path="url(#p48e547dc15)" d="M 527.808729 398.78 
L 543.949225 398.78 
L 543.949225 398.78 
L 527.808729 398.78 
z
" style="fill:#ab9004;opacity:0.3;"/>
   </g>
   <g id="patch_31">
    <path clip-path="url(#p48e547dc15)" d="M 543.949225 398.78 
L 560.089721 398.78 
L 560.089721 398.78 
L 543.949225 398.78 
z
" style="fill:#ab9004;opacity:0.3;"/>
   </g>
   <g id="patch_32">
    <path clip-path="url(#p48e547dc15)" d="M 560.089721 398.78 
L 576.230217 398.78 
L 576.230217 398.78 
L 560.089721 398.78 
z
" style="fill:#ab9004;opacity:0.3;"/>
   </g>
   <g id="patch_33">
    <path clip-path="url(#p48e547dc15)" d="M 576.230217 398.78 
L 592.370713 398.78 
L 592.370713 398.78 
L 576.230217 398.78 
z
" style="fill:#ab9004;opacity:0.3;"/>
   </g>
   <g id="patch_34">
    <path clip-path="url(#p48e547dc15)" d="M 592.370713 398.78 
L 608.511209 398.78 
L 608.511209 398.78 
L 592.370713 398.78 
z
" style="fill:#ab9004;opacity:0.3;"/>
   </g>
   <g id="patch_35">
    <path clip-path="url(#p48e547dc15)" d="M 608.511209 398.78 
L 624.651705 398.78 
L 624.651705 398.78 
L 608.511209 398.78 
z
" style="fill:#ab9004;opacity:0.3;"/>
   </g>
   <g id="patch_36">
    <path clip-path="url(#p48e547dc15)" d="M 624.651705 398.78 
L 640.7922 398.78 
L 640.7922 398.78 
L 624.651705 398.78 
z
" style="fill:#ab9004;opacity:0.3;"/>
   </g>
   <g id="patch_37">
    <path clip-path="url(#p48e547dc15)" d="M 640.7922 398.78 
L 656.932696 398.78 
L 656.932696 398.78 
L 640.7922 398.78 
z
" style="fill:#ab9004;opacity:0.3;"/>
   </g>
   <g id="patch_38">
    <path clip-path="url(#p48e547dc15)" d="M 656.932696 398.78 
L 673.073192 398.78 
L 673.073192 398.78 
L 656.932696 398.78 
z
" style="fill:#ab9004;opacity:0.3;"/>
   </g>
   <g id="patch_39">
    <path clip-path="url(#p48e547dc15)" d="M 673.073192 398.78 
L 689.213688 398.78 
L 689.213688 398.78 
L 673.073192 398.78 
z
" style="fill:#ab9004;opacity:0.3;"/>
   </g>
   <g id="patch_40">
    <path clip-path="url(#p48e547dc15)" d="M 689.213688 398.78 
L 705.354184 398.78 
L 705.354184 398.78 
L 689.213688 398.78 
z
" style="fill:#ab9004;opacity:0.3;"/>
   </g>
   <g id="patch_41">
    <path clip-path="url(#p48e547dc15)" d="M 705.354184 398.78 
L 721.49468 398.78 
L 721.49468 398.78 
L 705.354184 398.78 
z
" style="fill:#ab9004;opacity:0.3;"/>
   </g>
   <g id="patch_42">
    <path clip-path="url(#p48e547dc15)" d="M 721.49468 398.78 
L 737.635176 398.78 
L 737.635176 398.78 
L 721.49468 398.78 
z
" style="fill:#ab9004;opacity:0.3;"/>
   </g>
   <g id="patch_43">
    <path clip-path="url(#p48e547dc15)" d="M 737.635176 398.78 
L 753.775671 398.78 
L 753.775671 398.78 
L 737.635176 398.78 
z
" style="fill:#ab9004;opacity:0.3;"/>
   </g>
   <g id="patch_44">
    <path clip-path="url(#p48e547dc15)" d="M 753.775671 398.78 
L 769.916167 398.78 
L 769.916167 398.78 
L 753.775671 398.78 
z
" style="fill:#ab9004;opacity:0.3;"/>
   </g>
   <g id="patch_45">
    <path clip-path="url(#p48e547dc15)" d="M 769.916167 398.78 
L 786.056663 398.78 
L 786.056663 398.78 
L 769.916167 398.78 
z
" style="fill:#ab9004;opacity:0.3;"/>
   </g>
   <g id="patch_46">
    <path clip-path="url(#p48e547dc15)" d="M 786.056663 398.78 
L 802.197159 398.78 
L 802.197159 398.78 
L 786.056663 398.78 
z
" style="fill:#ab9004;opacity:0.3;"/>
   </g>
   <g id="patch_47">
    <path clip-path="url(#p48e547dc15)" d="M 92.015341 398.78 
L 108.155837 398.78 
L 108.155837 398.78 
L 92.015341 398.78 
z
" style="fill:#1fb57a;opacity:0.3;"/>
   </g>
   <g id="patch_48">
    <path clip-path="url(#p48e547dc15)" d="M 108.155837 398.78 
L 124.296333 398.78 
L 124.296333 398.78 
L 108.155837 398.78 
z
" style="fill:#1fb57a;opacity:0.3;"/>
   </g>
   <g id="patch_49">
    <path clip-path="url(#p48e547dc15)" d="M 124.296333 398.78 
L 140.436829 398.78 
L 140.436829 398.78 
L 124.296333 398.78 
z
" style="fill:#1fb57a;opacity:0.3;"/>
   </g>
   <g id="patch_50">
    <path clip-path="url(#p48e547dc15)" d="M 140.436829 398.78 
L 156.577324 398.78 
L 156.577324 398.78 
L 140.436829 398.78 
z
" style="fill:#1fb57a;opacity:0.3;"/>
   </g>
   <g id="patch_51">
    <path clip-path="url(#p48e547dc15)" d="M 156.577324 398.78 
L 172.71782 398.78 
L 172.71782 398.78 
L 156.577324 398.78 
z
" style="fill:#1fb57a;opacity:0.3;"/>
   </g>
   <g id="patch_52">
    <path clip-path="url(#p48e547dc15)" d="M 172.71782 398.78 
L 188.858316 398.78 
L 188.858316 398.78 
L 172.71782 398.78 
z
" style="fill:#1fb57a;opacity:0.3;"/>
   </g>
   <g id="patch_53">
    <path clip-path="url(#p48e547dc15)" d="M 188.858316 398.78 
L 204.998812 398.78 
L 204.998812 398.78 
L 188.858316 398.78 
z
" style="fill:#1fb57a;opacity:0.3;"/>
   </g>
   <g id="patch_54">
    <path clip-path="url(#p48e547dc15)" d="M 204.998812 398.78 
L 221.139308 398.78 
L 221.139308 398.78 
L 204.998812 398.78 
z
" style="fill:#1fb57a;opacity:0.3;"/>
   </g>
   <g id="patch_55">
    <path clip-path="url(#p48e547dc15)" d="M 221.139308 398.78 
L 237.279804 398.78 
L 237.279804 353.606667 
L 221.139308 353.606667 
z
" style="fill:#1fb57a;opacity:0.3;"/>
   </g>
   <g id="patch_56">
    <path clip-path="url(#p48e547dc15)" d="M 237.279804 398.78 
L 253.4203 398.78 
L 253.4203 398.78 
L 237.279804 398.78 
z
" style="fill:#1fb57a;opacity:0.3;"/>
   </g>
   <g id="patch_57">
    <path clip-path="url(#p48e547dc15)" d="M 253.4203 398.78 
L 269.560795 398.78 
L 269.560795 398.78 
L 253.4203 398.78 
z
" style="fill:#1fb57a;opacity:0.3;"/>
   </g>
   <g id="patch_58">
    <path clip-path="url(#p48e547dc15)" d="M 269.560795 398.78 
L 285.701291 398.78 
L 285.701291 398.78 
L 269.560795 398.78 
z
" style="fill:#1fb57a;opacity:0.3;"/>
   </g>
   <g id="patch_59">
    <path clip-path="url(#p48e547dc15)" d="M 285.701291 398.78 
L 301.841787 398.78 
L 301.841787 263.26 
L 285.701291 263.26 
z
" style="fill:#1fb57a;opacity:0.3;"/>
   </g>
   <g id="patch_60">
    <path clip-path="url(#p48e547dc15)" d="M 301.841787 398.78 
L 317.982283 398.78 
L 317.982283 308.433333 
L 301.841787 308.433333 
z
" style="fill:#1fb57a;opacity:0.3;"/>
   </g>
   <g id="patch_61">
    <path clip-path="url(#p48e547dc15)" d="M 317.982283 398.78 
L 334.122779 398.78 
L 334.122779 82.566667 
L 317.982283 82.566667 
z
" style="fill:#1fb57a;opacity:0.3;"/>
   </g>
   <g id="patch_62">
    <path clip-path="url(#p48e547dc15)" d="M 334.122779 398.78 
L 350.263275 398.78 
L 350.263275 263.26 
L 334.122779 263.26 
z
" style="fill:#1fb57a;opacity:0.3;"/>
   </g>
   <g id="patch_63">
    <path clip-path="url(#p48e547dc15)" d="M 350.263275 398.78 
L 366.403771 398.78 
L 366.403771 218.086667 
L 350.263275 218.086667 
z
" style="fill:#1fb57a;opacity:0.3;"/>
   </g>
   <g id="patch_64">
    <path clip-path="url(#p48e547dc15)" d="M 366.403771 398.78 
L 382.544267 398.78 
L 382.544267 82.566667 
L 366.403771 82.566667 
z
" style="fill:#1fb57a;opacity:0.3;"/>
   </g>
   <g id="patch_65">
    <path clip-path="url(#p48e547dc15)" d="M 382.544267 398.78 
L 398.684762 398.78 
L 398.684762 127.74 
L 382.544267 127.74 
z
" style="fill:#1fb57a;opacity:0.3;"/>
   </g>
   <g id="patch_66">
    <path clip-path="url(#p48e547dc15)" d="M 398.684762 398.78 
L 414.825258 398.78 
L 414.825258 263.26 
L 398.684762 263.26 
z
" style="fill:#1fb57a;opacity:0.3;"/>
   </g>
   <g id="patch_67">
    <path clip-path="url(#p48e547dc15)" d="M 414.825258 398.78 
L 430.965754 398.78 
L 430.965754 353.606667 
L 414.825258 353.606667 
z
" style="fill:#1fb57a;opacity:0.3;"/>
   </g>
   <g id="patch_68">
    <path clip-path="url(#p48e547dc15)" d="M 430.965754 398.78 
L 447.10625 398.78 
L 447.10625 308.433333 
L 430.965754 308.433333 
z
" style="fill:#1fb57a;opacity:0.3;"/>
   </g>
   <g id="patch_69">
    <path clip-path="url(#p48e547dc15)" d="M 447.10625 398.78 
L 463.246746 398.78 
L 463.246746 218.086667 
L 447.10625 218.086667 
z
" style="fill:#1fb57a;opacity:0.3;"/>
   </g>
   <g id="patch_70">
    <path clip-path="url(#p48e547dc15)" d="M 463.246746 398.78 
L 479.387242 398.78 
L 479.387242 398.78 
L 463.246746 398.78 
z
" style="fill:#1fb57a;opacity:0.3;"/>
   </g>
   <g id="patch_71">
    <path clip-path="url(#p48e547dc15)" d="M 479.387242 398.78 
L 495.527738 398.78 
L 495.527738 398.78 
L 479.387242 398.78 
z
" style="fill:#1fb57a;opacity:0.3;"/>
   </g>
   <g id="patch_72">
    <path clip-path="url(#p48e547dc15)" d="M 495.527738 398.78 
L 511.668233 398.78 
L 511.668233 353.606667 
L 495.527738 353.606667 
z
" style="fill:#1fb57a;opacity:0.3;"/>
   </g>
   <g id="patch_73">
    <path clip-path="url(#p48e547dc15)" d="M 511.668233 398.78 
L 527.808729 398.78 
L 527.808729 398.78 
L 511.668233 398.78 
z
" style="fill:#1fb57a;opacity:0.3;"/>
   </g>
   <g id="patch_74">
    <path clip-path="url(#p48e547dc15)" d="M 527.808729 398.78 
L 543.949225 398.78 
L 543.949225 398.78 
L 527.808729 398.78 
z
" style="fill:#1fb57a;opacity:0.3;"/>
   </g>
   <g id="patch_75">
    <path clip-path="url(#p48e547dc15)" d="M 543.949225 398.78 
L 560.089721 398.78 
L 560.089721 398.78 
L 543.949225 398.78 
z
" style="fill:#1fb57a;opacity:0.3;"/>
   </g>
   <g id="patch_76">
    <path clip-path="url(#p48e547dc15)" d="M 560.089721 398.78 
L 576.230217 398.78 
L 576.230217 398.78 
L 560.089721 398.78 
z
" style="fill:#1fb57a;opacity:0.3;"/>
   </g>
   <g id="patch_77">
    <path clip-path="url(#p48e547dc15)" d="M 576.230217 398.78 
L 592.370713 398.78 
L 592.370713 398.78 
L 576.230217 398.78 
z
" style="fill:#1fb57a;opacity:0.3;"/>
   </g>
   <g id="patch_78">
    <path clip-path="url(#p48e547dc15)" d="M 592.370713 398.78 
L 608.511209 398.78 
L 608.511209 398.78 
L 592.370713 398.78 
z
" style="fill:#1fb57a;opacity:0.3;"/>
   </g>
   <g id="patch_79">
    <path clip-path="url(#p48e547dc15)" d="M 608.511209 398.78 
L 624.651705 398.78 
L 624.651705 398.78 
L 608.511209 398.78 
z
" style="fill:#1fb57a;opacity:0.3;"/>
   </g>
   <g id="patch_80">
    <path clip-path="url(#p48e547dc15)" d="M 624.651705 398.78 
L 640.7922 398.78 
L 640.7922 398.78 
L 624.651705 398.78 
z
" style="fill:#1fb57a;opacity:0.3;"/>
   </g>
   <g id="patch_81">
    <path clip-path="url(#p48e547dc15)" d="M 640.7922 398.78 
L 656.932696 398.78 
L 656.932696 353.606667 
L 640.7922 353.606667 
z
" style="fill:#1fb57a;opacity:0.3;"/>
   </g>
   <g id="patch_82">
    <path clip-path="url(#p48e547dc15)" d="M 656.932696 398.78 
L 673.073192 398.78 
L 673.073192 398.78 
L 656.932696 398.78 
z
" style="fill:#1fb57a;opacity:0.3;"/>
   </g>
   <g id="patch_83">
    <path clip-path="url(#p48e547dc15)" d="M 673.073192 398.78 
L 689.213688 398.78 
L 689.213688 398.78 
L 673.073192 398.78 
z
" style="fill:#1fb57a;opacity:0.3;"/>
   </g>
   <g id="patch_84">
    <path clip-path="url(#p48e547dc15)" d="M 689.213688 398.78 
L 705.354184 398.78 
L 705.354184 398.78 
L 689.213688 398.78 
z
" style="fill:#1fb57a;opacity:0.3;"/>
   </g>
   <g id="patch_85">
    <path clip-path="url(#p48e547dc15)" d="M 705.354184 398.78 
L 721.49468 398.78 
L 721.49468 398.78 
L 705.354184 398.78 
z
" style="fill:#1fb57a;opacity:0.3;"/>
   </g>
   <g id="patch_86">
    <path clip-path="url(#p48e547dc15)" d="M 721.49468 398.78 
L 737.635176 398.78 
L 737.635176 398.78 
L 721.49468 398.78 
z
" style="fill:#1fb57a;opacity:0.3;"/>
   </g>
   <g id="patch_87">
    <path clip-path="url(#p48e547dc15)" d="M 737.635176 398.78 
L 753.775671 398.78 
L 753.775671 398.78 
L 737.635176 398.78 
z
" style="fill:#1fb57a;opacity:0.3;"/>
   </g>
   <g id="patch_88">
    <path clip-path="url(#p48e547dc15)" d="M 753.775671 398.78 
L 769.916167 398.78 
L 769.916167 398.78 
L 753.775671 398.78 
z
" style="fill:#1fb57a;opacity:0.3;"/>
   </g>
   <g id="patch_89">
    <path clip-path="url(#p48e547dc15)" d="M 769.916167 398.78 
L 786.056663 398.78 
L 786.056663 398.78 
L 769.916167 398.78 
z
" style="fill:#1fb57a;opacity:0.3;"/>
   </g>
   <g id="patch_90">
    <path clip-path="url(#p48e547dc15)" d="M 786.056663 398.78 
L 802.197159 398.78 
L 802.197159 398.78 
L 786.056663 398.78 
z
" style="fill:#1fb57a;opacity:0.3;"/>
   </g>
   <g id="patch_91">
    <path clip-path="url(#p48e547dc15)" d="M 92.015341 398.78 
L 108.155837 398.78 
L 108.155837 398.78 
L 92.015341 398.78 
z
" style="fill:#00555a;opacity:0.3;"/>
   </g>
   <g id="patch_92">
    <path clip-path="url(#p48e547dc15)" d="M 108.155837 398.78 
L 124.296333 398.78 
L 124.296333 398.78 
L 108.155837 398.78 
z
" style="fill:#00555a;opacity:0.3;"/>
   </g>
   <g id="patch_93">
    <path clip-path="url(#p48e547dc15)" d="M 124.296333 398.78 
L 140.436829 398.78 
L 140.436829 398.78 
L 124.296333 398.78 
z
" style="fill:#00555a;opacity:0.3;"/>
   </g>
   <g id="patch_94">
    <path clip-path="url(#p48e547dc15)" d="M 140.436829 398.78 
L 156.577324 398.78 
L 156.577324 398.78 
L 140.436829 398.78 
z
" style="fill:#00555a;opacity:0.3;"/>
   </g>
   <g id="patch_95">
    <path clip-path="url(#p48e547dc15)" d="M 156.577324 398.78 
L 172.71782 398.78 
L 172.71782 398.78 
L 156.577324 398.78 
z
" style="fill:#00555a;opacity:0.3;"/>
   </g>
   <g id="patch_96">
    <path clip-path="url(#p48e547dc15)" d="M 172.71782 398.78 
L 188.858316 398.78 
L 188.858316 398.78 
L 172.71782 398.78 
z
" style="fill:#00555a;opacity:0.3;"/>
   </g>
   <g id="patch_97">
    <path clip-path="url(#p48e547dc15)" d="M 188.858316 398.78 
L 204.998812 398.78 
L 204.998812 398.78 
L 188.858316 398.78 
z
" style="fill:#00555a;opacity:0.3;"/>
   </g>
   <g id="patch_98">
    <path clip-path="url(#p48e547dc15)" d="M 204.998812 398.78 
L 221.139308 398.78 
L 221.139308 398.78 
L 204.998812 398.78 
z
" style="fill:#00555a;opacity:0.3;"/>
   </g>
   <g id="patch_99">
    <path clip-path="url(#p48e547dc15)" d="M 221.139308 398.78 
L 237.279804 398.78 
L 237.279804 398.78 
L 221.139308 398.78 
z
" style="fill:#00555a;opacity:0.3;"/>
   </g>
   <g id="patch_100">
    <path clip-path="url(#p48e547dc15)" d="M 237.279804 398.78 
L 253.4203 398.78 
L 253.4203 363.116842 
L 237.279804 363.116842 
z
" style="fill:#00555a;opacity:0.3;"/>
   </g>
   <g id="patch_101">
    <path clip-path="url(#p48e547dc15)" d="M 253.4203 398.78 
L 269.560795 398.78 
L 269.560795 398.78 
L 253.4203 398.78 
z
" style="fill:#00555a;opacity:0.3;"/>
   </g>
   <g id="patch_102">
    <path clip-path="url(#p48e547dc15)" d="M 269.560795 398.78 
L 285.701291 398.78 
L 285.701291 398.78 
L 269.560795 398.78 
z
" style="fill:#00555a;opacity:0.3;"/>
   </g>
   <g id="patch_103">
    <path clip-path="url(#p48e547dc15)" d="M 285.701291 398.78 
L 301.841787 398.78 
L 301.841787 363.116842 
L 285.701291 363.116842 
z
" style="fill:#00555a;opacity:0.3;"/>
   </g>
   <g id="patch_104">
    <path clip-path="url(#p48e547dc15)" d="M 301.841787 398.78 
L 317.982283 398.78 
L 317.982283 291.790526 
L 301.841787 291.790526 
z
" style="fill:#00555a;opacity:0.3;"/>
   </g>
   <g id="patch_105">
    <path clip-path="url(#p48e547dc15)" d="M 317.982283 398.78 
L 334.122779 398.78 
L 334.122779 113.474737 
L 317.982283 113.474737 
z
" style="fill:#00555a;opacity:0.3;"/>
   </g>
   <g id="patch_106">
    <path clip-path="url(#p48e547dc15)" d="M 334.122779 398.78 
L 350.263275 398.78 
L 350.263275 77.811579 
L 334.122779 77.811579 
z
" style="fill:#00555a;opacity:0.3;"/>
   </g>
   <g id="patch_107">
    <path clip-path="url(#p48e547dc15)" d="M 350.263275 398.78 
L 366.403771 398.78 
L 366.403771 184.801053 
L 350.263275 184.801053 
z
" style="fill:#00555a;opacity:0.3;"/>
   </g>
   <g id="patch_108">
    <path clip-path="url(#p48e547dc15)" d="M 366.403771 398.78 
L 382.544267 398.78 
L 382.544267 42.148421 
L 366.403771 42.148421 
z
" style="fill:#00555a;opacity:0.3;"/>
   </g>
   <g id="patch_109">
    <path clip-path="url(#p48e547dc15)" d="M 382.544267 398.78 
L 398.684762 398.78 
L 398.684762 113.474737 
L 382.544267 113.474737 
z
" style="fill:#00555a;opacity:0.3;"/>
   </g>
   <g id="patch_110">
    <path clip-path="url(#p48e547dc15)" d="M 398.684762 398.78 
L 414.825258 398.78 
L 414.825258 291.790526 
L 398.684762 291.790526 
z
" style="fill:#00555a;opacity:0.3;"/>
   </g>
   <g id="patch_111">
    <path clip-path="url(#p48e547dc15)" d="M 414.825258 398.78 
L 430.965754 398.78 
L 430.965754 327.453684 
L 414.825258 327.453684 
z
" style="fill:#00555a;opacity:0.3;"/>
   </g>
   <g id="patch_112">
    <path clip-path="url(#p48e547dc15)" d="M 430.965754 398.78 
L 447.10625 398.78 
L 447.10625 327.453684 
L 430.965754 327.453684 
z
" style="fill:#00555a;opacity:0.3;"/>
   </g>
   <g id="patch_113">
    <path clip-path="url(#p48e547dc15)" d="M 447.10625 398.78 
L 463.246746 398.78 
L 463.246746 291.790526 
L 447.10625 291.790526 
z
" style="fill:#00555a;opacity:0.3;"/>
   </g>
   <g id="patch_114">
    <path clip-path="url(#p48e547dc15)" d="M 463.246746 398.78 
L 479.387242 398.78 
L 479.387242 363.116842 
L 463.246746 363.116842 
z
" style="fill:#00555a;opacity:0.3;"/>
   </g>
   <g id="patch_115">
    <path clip-path="url(#p48e547dc15)" d="M 479.387242 398.78 
L 495.527738 398.78 
L 495.527738 398.78 
L 479.387242 398.78 
z
" style="fill:#00555a;opacity:0.3;"/>
   </g>
   <g id="patch_116">
    <path clip-path="url(#p48e547dc15)" d="M 495.527738 398.78 
L 511.668233 398.78 
L 511.668233 398.78 
L 495.527738 398.78 
z
" style="fill:#00555a;opacity:0.3;"/>
   </g>
   <g id="patch_117">
    <path clip-path="url(#p48e547dc15)" d="M 511.668233 398.78 
L 527.808729 398.78 
L 527.808729 398.78 
L 511.668233 398.78 
z
" style="fill:#00555a;opacity:0.3;"/>
   </g>
   <g id="patch_118">
    <path clip-path="url(#p48e547dc15)" d="M 527.808729 398.78 
L 543.949225 398.78 
L 543.949225 398.78 
L 527.808729 398.78 
z
" style="fill:#00555a;opacity:0.3;"/>
   </g>
   <g id="patch_119">
    <path clip-path="url(#p48e547dc15)" d="M 543.949225 398.78 
L 560.089721 398.78 
L 560.089721 398.78 
L 543.949225 398.78 
z
" style="fill:#00555a;opacity:0.3;"/>
   </g>
   <g id="patch_120">
    <path clip-path="url(#p48e547dc15)" d="M 560.089721 398.78 
L 576.230217 398.78 
L 576.230217 398.78 
L 560.089721 398.78 
z
" style="fill:#00555a;opacity:0.3;"/>
   </g>
   <g id="patch_121">
    <path clip-path="url(#p48e547dc15)" d="M 576.230217 398.78 
L 592.370713 398.78 
L 592.370713 398.78 
L 576.230217 398.78 
z
" style="fill:#00555a;opacity:0.3;"/>
   </g>
   <g id="patch_122">
    <path clip-path="url(#p48e547dc15)" d="M 592.370713 398.78 
L 608.511209 398.78 
L 608.511209 398.78 
L 592.370713 398.78 
z
" style="fill:#00555a;opacity:0.3;"/>
   </g>
   <g id="patch_123">
    <path clip-path="url(#p48e547dc15)" d="M 608.511209 398.78 
L 624.651705 398.78 
L 624.651705 398.78 
L 608.511209 398.78 
z
" style="fill:#00555a;opacity:0.3;"/>
   </g>
   <g id="patch_124">
    <path clip-path="url(#p48e547dc15)" d="M 624.651705 398.78 
L 640.7922 398.78 
L 640.7922 398.78 
L 624.651705 398.78 
z
" style="fill:#00555a;opacity:0.3;"/>
   </g>
   <g id="patch_125">
    <path clip-path="url(#p48e547dc15)" d="M 640.7922 398.78 
L 656.932696 398.78 
L 656.932696 398.78 
L 640.7922 398.78 
z
" style="fill:#00555a;opacity:0.3;"/>
   </g>
   <g id="patch_126">
    <path clip-path="url(#p48e547dc15)" d="M 656.932696 398.78 
L 673.073192 398.78 
L 673.073192 398.78 
L 656.932696 398.78 
z
" style="fill:#00555a;opacity:0.3;"/>
   </g>
   <g id="patch_127">
    <path clip-path="url(#p48e547dc15)" d="M 673.073192 398.78 
L 689.213688 398.78 
L 689.213688 398.78 
L 673.073192 398.78 
z
" style="fill:#00555a;opacity:0.3;"/>
   </g>
   <g id="patch_128">
    <path clip-path="url(#p48e547dc15)" d="M 689.213688 398.78 
L 705.354184 398.78 
L 705.354184 398.78 
L 689.213688 398.78 
z
" style="fill:#00555a;opacity:0.3;"/>
   </g>
   <g id="patch_129">
    <path clip-path="url(#p48e547dc15)" d="M 705.354184 398.78 
L 721.49468 398.78 
L 721.49468 398.78 
L 705.354184 398.78 
z
" style="fill:#00555a;opacity:0.3;"/>
   </g>
   <g id="patch_130">
    <path clip-path="url(#p48e547dc15)" d="M 721.49468 398.78 
L 737.635176 398.78 
L 737.635176 398.78 
L 721.49468 398.78 
z
" style="fill:#00555a;opacity:0.3;"/>
   </g>
   <g id="patch_131">
    <path clip-path="url(#p48e547dc15)" d="M 737.635176 398.78 
L 753.775671 398.78 
L 753.775671 398.78 
L 737.635176 398.78 
z
" style="fill:#00555a;opacity:0.3;"/>
   </g>
   <g id="patch_132">
    <path clip-path="url(#p48e547dc15)" d="M 753.775671 398.78 
L 769.916167 398.78 
L 769.916167 398.78 
L 753.775671 398.78 
z
" style="fill:#00555a;opacity:0.3;"/>
   </g>
   <g id="patch_133">
    <path clip-path="url(#p48e547dc15)" d="M 769.916167 398.78 
L 786.056663 398.78 
L 786.056663 398.78 
L 769.916167 398.78 
z
" style="fill:#00555a;opacity:0.3;"/>
   </g>
   <g id="patch_134">
    <path clip-path="url(#p48e547dc15)" d="M 786.056663 398.78 
L 802.197159 398.78 
L 802.197159 398.78 
L 786.056663 398.78 
z
" style="fill:#00555a;opacity:0.3;"/>
   </g>
   <g id="matplotlib.axis_1">
    <g id="xtick_1">
     <g id="line2d_1">
      <defs>
       <path d="M 0 0 
L 0 3.5 
" id="m6eaf787707" style="stroke:#000000;stroke-width:0.8;"/>
      </defs>
      <g>
       <use style="stroke:#000000;stroke-width:0.8;" x="92.015341" xlink:href="#m6eaf787707" y="398.78"/>
      </g>
     </g>
     <g id="text_1">
      <!-- 0 -->
      <defs>
       <path d="M 31.78125 66.40625 
Q 24.171875 66.40625 20.328125 58.90625 
Q 16.5 51.421875 16.5 36.375 
Q 16.5 21.390625 20.328125 13.890625 
Q 24.171875 6.390625 31.78125 6.390625 
Q 39.453125 6.390625 43.28125 13.890625 
Q 47.125 21.390625 47.125 36.375 
Q 47.125 51.421875 43.28125 58.90625 
Q 39.453125 66.40625 31.78125 66.40625 
z
M 31.78125 74.21875 
Q 44.046875 74.21875 50.515625 64.515625 
Q 56.984375 54.828125 56.984375 36.375 
Q 56.984375 17.96875 50.515625 8.265625 
Q 44.046875 -1.421875 31.78125 -1.421875 
Q 19.53125 -1.421875 13.0625 8.265625 
Q 6.59375 17.96875 6.59375 36.375 
Q 6.59375 54.828125 13.0625 64.515625 
Q 19.53125 74.21875 31.78125 74.21875 
z
" id="DejaVuSans-48"/>
      </defs>
      <g transform="translate(88.834091 413.378437)scale(0.1 -0.1)">
       <use xlink:href="#DejaVuSans-48"/>
      </g>
     </g>
    </g>
    <g id="xtick_2">
     <g id="line2d_2">
      <g>
       <use style="stroke:#000000;stroke-width:0.8;" x="253.4203" xlink:href="#m6eaf787707" y="398.78"/>
      </g>
     </g>
     <g id="text_2">
      <!-- 10 -->
      <defs>
       <path d="M 12.40625 8.296875 
L 28.515625 8.296875 
L 28.515625 63.921875 
L 10.984375 60.40625 
L 10.984375 69.390625 
L 28.421875 72.90625 
L 38.28125 72.90625 
L 38.28125 8.296875 
L 54.390625 8.296875 
L 54.390625 0 
L 12.40625 0 
z
" id="DejaVuSans-49"/>
      </defs>
      <g transform="translate(247.0578 413.378437)scale(0.1 -0.1)">
       <use xlink:href="#DejaVuSans-49"/>
       <use x="63.623047" xlink:href="#DejaVuSans-48"/>
      </g>
     </g>
    </g>
    <g id="xtick_3">
     <g id="line2d_3">
      <g>
       <use style="stroke:#000000;stroke-width:0.8;" x="414.825258" xlink:href="#m6eaf787707" y="398.78"/>
      </g>
     </g>
     <g id="text_3">
      <!-- 20 -->
      <defs>
       <path d="M 19.1875 8.296875 
L 53.609375 8.296875 
L 53.609375 0 
L 7.328125 0 
L 7.328125 8.296875 
Q 12.9375 14.109375 22.625 23.890625 
Q 32.328125 33.6875 34.8125 36.53125 
Q 39.546875 41.84375 41.421875 45.53125 
Q 43.3125 49.21875 43.3125 52.78125 
Q 43.3125 58.59375 39.234375 62.25 
Q 35.15625 65.921875 28.609375 65.921875 
Q 23.96875 65.921875 18.8125 64.3125 
Q 13.671875 62.703125 7.8125 59.421875 
L 7.8125 69.390625 
Q 13.765625 71.78125 18.9375 73 
Q 24.125 74.21875 28.421875 74.21875 
Q 39.75 74.21875 46.484375 68.546875 
Q 53.21875 62.890625 53.21875 53.421875 
Q 53.21875 48.921875 51.53125 44.890625 
Q 49.859375 40.875 45.40625 35.40625 
Q 44.1875 33.984375 37.640625 27.21875 
Q 31.109375 20.453125 19.1875 8.296875 
z
" id="DejaVuSans-50"/>
      </defs>
      <g transform="translate(408.462758 413.378437)scale(0.1 -0.1)">
       <use xlink:href="#DejaVuSans-50"/>
       <use x="63.623047" xlink:href="#DejaVuSans-48"/>
      </g>
     </g>
    </g>
    <g id="xtick_4">
     <g id="line2d_4">
      <g>
       <use style="stroke:#000000;stroke-width:0.8;" x="576.230217" xlink:href="#m6eaf787707" y="398.78"/>
      </g>
     </g>
     <g id="text_4">
      <!-- 30 -->
      <defs>
       <path d="M 40.578125 39.3125 
Q 47.65625 37.796875 51.625 33 
Q 55.609375 28.21875 55.609375 21.1875 
Q 55.609375 10.40625 48.1875 4.484375 
Q 40.765625 -1.421875 27.09375 -1.421875 
Q 22.515625 -1.421875 17.65625 -0.515625 
Q 12.796875 0.390625 7.625 2.203125 
L 7.625 11.71875 
Q 11.71875 9.328125 16.59375 8.109375 
Q 21.484375 6.890625 26.8125 6.890625 
Q 36.078125 6.890625 40.9375 10.546875 
Q 45.796875 14.203125 45.796875 21.1875 
Q 45.796875 27.640625 41.28125 31.265625 
Q 36.765625 34.90625 28.71875 34.90625 
L 20.21875 34.90625 
L 20.21875 43.015625 
L 29.109375 43.015625 
Q 36.375 43.015625 40.234375 45.921875 
Q 44.09375 48.828125 44.09375 54.296875 
Q 44.09375 59.90625 40.109375 62.90625 
Q 36.140625 65.921875 28.71875 65.921875 
Q 24.65625 65.921875 20.015625 65.03125 
Q 15.375 64.15625 9.8125 62.3125 
L 9.8125 71.09375 
Q 15.4375 72.65625 20.34375 73.4375 
Q 25.25 74.21875 29.59375 74.21875 
Q 40.828125 74.21875 47.359375 69.109375 
Q 53.90625 64.015625 53.90625 55.328125 
Q 53.90625 49.265625 50.4375 45.09375 
Q 46.96875 40.921875 40.578125 39.3125 
z
" id="DejaVuSans-51"/>
      </defs>
      <g transform="translate(569.867717 413.378437)scale(0.1 -0.1)">
       <use xlink:href="#DejaVuSans-51"/>
       <use x="63.623047" xlink:href="#DejaVuSans-48"/>
      </g>
     </g>
    </g>
    <g id="xtick_5">
     <g id="line2d_5">
      <g>
       <use style="stroke:#000000;stroke-width:0.8;" x="737.635176" xlink:href="#m6eaf787707" y="398.78"/>
      </g>
     </g>
     <g id="text_5">
      <!-- 40 -->
      <defs>
       <path d="M 37.796875 64.3125 
L 12.890625 25.390625 
L 37.796875 25.390625 
z
M 35.203125 72.90625 
L 47.609375 72.90625 
L 47.609375 25.390625 
L 58.015625 25.390625 
L 58.015625 17.1875 
L 47.609375 17.1875 
L 47.609375 0 
L 37.796875 0 
L 37.796875 17.1875 
L 4.890625 17.1875 
L 4.890625 26.703125 
z
" id="DejaVuSans-52"/>
      </defs>
      <g transform="translate(731.272676 413.378437)scale(0.1 -0.1)">
       <use xlink:href="#DejaVuSans-52"/>
       <use x="63.623047" xlink:href="#DejaVuSans-48"/>
      </g>
     </g>
    </g>
    <g id="text_6">
     <!-- GFI -->
     <defs>
      <path d="M 59.515625 10.40625 
L 59.515625 29.984375 
L 43.40625 29.984375 
L 43.40625 38.09375 
L 69.28125 38.09375 
L 69.28125 6.78125 
Q 63.578125 2.734375 56.6875 0.65625 
Q 49.8125 -1.421875 42 -1.421875 
Q 24.90625 -1.421875 15.25 8.5625 
Q 5.609375 18.5625 5.609375 36.375 
Q 5.609375 54.25 15.25 64.234375 
Q 24.90625 74.21875 42 74.21875 
Q 49.125 74.21875 55.546875 72.453125 
Q 61.96875 70.703125 67.390625 67.28125 
L 67.390625 56.78125 
Q 61.921875 61.421875 55.765625 63.765625 
Q 49.609375 66.109375 42.828125 66.109375 
Q 29.4375 66.109375 22.71875 58.640625 
Q 16.015625 51.171875 16.015625 36.375 
Q 16.015625 21.625 22.71875 14.15625 
Q 29.4375 6.6875 42.828125 6.6875 
Q 48.046875 6.6875 52.140625 7.59375 
Q 56.25 8.5 59.515625 10.40625 
z
" id="DejaVuSans-71"/>
      <path d="M 9.8125 72.90625 
L 51.703125 72.90625 
L 51.703125 64.59375 
L 19.671875 64.59375 
L 19.671875 43.109375 
L 48.578125 43.109375 
L 48.578125 34.8125 
L 19.671875 34.8125 
L 19.671875 0 
L 9.8125 0 
z
" id="DejaVuSans-70"/>
      <path d="M 9.8125 72.90625 
L 19.671875 72.90625 
L 19.671875 0 
L 9.8125 0 
z
" id="DejaVuSans-73"/>
     </defs>
     <g transform="translate(438.88125 427.056562)scale(0.1 -0.1)">
      <use xlink:href="#DejaVuSans-71"/>
      <use x="77.490234" xlink:href="#DejaVuSans-70"/>
      <use x="135.009766" xlink:href="#DejaVuSans-73"/>
     </g>
    </g>
   </g>
   <g id="matplotlib.axis_2">
    <g id="ytick_1">
     <g id="line2d_6">
      <defs>
       <path d="M 0 0 
L -3.5 0 
" id="m0c481b45b3" style="stroke:#000000;stroke-width:0.8;"/>
      </defs>
      <g>
       <use style="stroke:#000000;stroke-width:0.8;" x="56.50625" xlink:href="#m0c481b45b3" y="398.78"/>
      </g>
     </g>
     <g id="text_7">
      <!-- 0.000 -->
      <defs>
       <path d="M 10.6875 12.40625 
L 21 12.40625 
L 21 0 
L 10.6875 0 
z
" id="DejaVuSans-46"/>
      </defs>
      <g transform="translate(20.878125 402.579219)scale(0.1 -0.1)">
       <use xlink:href="#DejaVuSans-48"/>
       <use x="63.623047" xlink:href="#DejaVuSans-46"/>
       <use x="95.410156" xlink:href="#DejaVuSans-48"/>
       <use x="159.033203" xlink:href="#DejaVuSans-48"/>
       <use x="222.65625" xlink:href="#DejaVuSans-48"/>
      </g>
     </g>
    </g>
    <g id="ytick_2">
     <g id="line2d_7">
      <g>
       <use style="stroke:#000000;stroke-width:0.8;" x="56.50625" xlink:href="#m0c481b45b3" y="347.96"/>
      </g>
     </g>
     <g id="text_8">
      <!-- 0.025 -->
      <defs>
       <path d="M 10.796875 72.90625 
L 49.515625 72.90625 
L 49.515625 64.59375 
L 19.828125 64.59375 
L 19.828125 46.734375 
Q 21.96875 47.46875 24.109375 47.828125 
Q 26.265625 48.1875 28.421875 48.1875 
Q 40.625 48.1875 47.75 41.5 
Q 54.890625 34.8125 54.890625 23.390625 
Q 54.890625 11.625 47.5625 5.09375 
Q 40.234375 -1.421875 26.90625 -1.421875 
Q 22.3125 -1.421875 17.546875 -0.640625 
Q 12.796875 0.140625 7.71875 1.703125 
L 7.71875 11.625 
Q 12.109375 9.234375 16.796875 8.0625 
Q 21.484375 6.890625 26.703125 6.890625 
Q 35.15625 6.890625 40.078125 11.328125 
Q 45.015625 15.765625 45.015625 23.390625 
Q 45.015625 31 40.078125 35.4375 
Q 35.15625 39.890625 26.703125 39.890625 
Q 22.75 39.890625 18.8125 39.015625 
Q 14.890625 38.140625 10.796875 36.28125 
z
" id="DejaVuSans-53"/>
      </defs>
      <g transform="translate(20.878125 351.759219)scale(0.1 -0.1)">
       <use xlink:href="#DejaVuSans-48"/>
       <use x="63.623047" xlink:href="#DejaVuSans-46"/>
       <use x="95.410156" xlink:href="#DejaVuSans-48"/>
       <use x="159.033203" xlink:href="#DejaVuSans-50"/>
       <use x="222.65625" xlink:href="#DejaVuSans-53"/>
      </g>
     </g>
    </g>
    <g id="ytick_3">
     <g id="line2d_8">
      <g>
       <use style="stroke:#000000;stroke-width:0.8;" x="56.50625" xlink:href="#m0c481b45b3" y="297.14"/>
      </g>
     </g>
     <g id="text_9">
      <!-- 0.050 -->
      <g transform="translate(20.878125 300.939219)scale(0.1 -0.1)">
       <use xlink:href="#DejaVuSans-48"/>
       <use x="63.623047" xlink:href="#DejaVuSans-46"/>
       <use x="95.410156" xlink:href="#DejaVuSans-48"/>
       <use x="159.033203" xlink:href="#DejaVuSans-53"/>
       <use x="222.65625" xlink:href="#DejaVuSans-48"/>
      </g>
     </g>
    </g>
    <g id="ytick_4">
     <g id="line2d_9">
      <g>
       <use style="stroke:#000000;stroke-width:0.8;" x="56.50625" xlink:href="#m0c481b45b3" y="246.32"/>
      </g>
     </g>
     <g id="text_10">
      <!-- 0.075 -->
      <defs>
       <path d="M 8.203125 72.90625 
L 55.078125 72.90625 
L 55.078125 68.703125 
L 28.609375 0 
L 18.3125 0 
L 43.21875 64.59375 
L 8.203125 64.59375 
z
" id="DejaVuSans-55"/>
      </defs>
      <g transform="translate(20.878125 250.119219)scale(0.1 -0.1)">
       <use xlink:href="#DejaVuSans-48"/>
       <use x="63.623047" xlink:href="#DejaVuSans-46"/>
       <use x="95.410156" xlink:href="#DejaVuSans-48"/>
       <use x="159.033203" xlink:href="#DejaVuSans-55"/>
       <use x="222.65625" xlink:href="#DejaVuSans-53"/>
      </g>
     </g>
    </g>
    <g id="ytick_5">
     <g id="line2d_10">
      <g>
       <use style="stroke:#000000;stroke-width:0.8;" x="56.50625" xlink:href="#m0c481b45b3" y="195.5"/>
      </g>
     </g>
     <g id="text_11">
      <!-- 0.100 -->
      <g transform="translate(20.878125 199.299219)scale(0.1 -0.1)">
       <use xlink:href="#DejaVuSans-48"/>
       <use x="63.623047" xlink:href="#DejaVuSans-46"/>
       <use x="95.410156" xlink:href="#DejaVuSans-49"/>
       <use x="159.033203" xlink:href="#DejaVuSans-48"/>
       <use x="222.65625" xlink:href="#DejaVuSans-48"/>
      </g>
     </g>
    </g>
    <g id="ytick_6">
     <g id="line2d_11">
      <g>
       <use style="stroke:#000000;stroke-width:0.8;" x="56.50625" xlink:href="#m0c481b45b3" y="144.68"/>
      </g>
     </g>
     <g id="text_12">
      <!-- 0.125 -->
      <g transform="translate(20.878125 148.479219)scale(0.1 -0.1)">
       <use xlink:href="#DejaVuSans-48"/>
       <use x="63.623047" xlink:href="#DejaVuSans-46"/>
       <use x="95.410156" xlink:href="#DejaVuSans-49"/>
       <use x="159.033203" xlink:href="#DejaVuSans-50"/>
       <use x="222.65625" xlink:href="#DejaVuSans-53"/>
      </g>
     </g>
    </g>
    <g id="ytick_7">
     <g id="line2d_12">
      <g>
       <use style="stroke:#000000;stroke-width:0.8;" x="56.50625" xlink:href="#m0c481b45b3" y="93.86"/>
      </g>
     </g>
     <g id="text_13">
      <!-- 0.150 -->
      <g transform="translate(20.878125 97.659219)scale(0.1 -0.1)">
       <use xlink:href="#DejaVuSans-48"/>
       <use x="63.623047" xlink:href="#DejaVuSans-46"/>
       <use x="95.410156" xlink:href="#DejaVuSans-49"/>
       <use x="159.033203" xlink:href="#DejaVuSans-53"/>
       <use x="222.65625" xlink:href="#DejaVuSans-48"/>
      </g>
     </g>
    </g>
    <g id="ytick_8">
     <g id="line2d_13">
      <g>
       <use style="stroke:#000000;stroke-width:0.8;" x="56.50625" xlink:href="#m0c481b45b3" y="43.04"/>
      </g>
     </g>
     <g id="text_14">
      <!-- 0.175 -->
      <g transform="translate(20.878125 46.839219)scale(0.1 -0.1)">
       <use xlink:href="#DejaVuSans-48"/>
       <use x="63.623047" xlink:href="#DejaVuSans-46"/>
       <use x="95.410156" xlink:href="#DejaVuSans-49"/>
       <use x="159.033203" xlink:href="#DejaVuSans-55"/>
       <use x="222.65625" xlink:href="#DejaVuSans-53"/>
      </g>
     </g>
    </g>
    <g id="text_15">
     <!-- probability -->
     <defs>
      <path d="M 18.109375 8.203125 
L 18.109375 -20.796875 
L 9.078125 -20.796875 
L 9.078125 54.6875 
L 18.109375 54.6875 
L 18.109375 46.390625 
Q 20.953125 51.265625 25.265625 53.625 
Q 29.59375 56 35.59375 56 
Q 45.5625 56 51.78125 48.09375 
Q 58.015625 40.1875 58.015625 27.296875 
Q 58.015625 14.40625 51.78125 6.484375 
Q 45.5625 -1.421875 35.59375 -1.421875 
Q 29.59375 -1.421875 25.265625 0.953125 
Q 20.953125 3.328125 18.109375 8.203125 
z
M 48.6875 27.296875 
Q 48.6875 37.203125 44.609375 42.84375 
Q 40.53125 48.484375 33.40625 48.484375 
Q 26.265625 48.484375 22.1875 42.84375 
Q 18.109375 37.203125 18.109375 27.296875 
Q 18.109375 17.390625 22.1875 11.75 
Q 26.265625 6.109375 33.40625 6.109375 
Q 40.53125 6.109375 44.609375 11.75 
Q 48.6875 17.390625 48.6875 27.296875 
z
" id="DejaVuSans-112"/>
      <path d="M 41.109375 46.296875 
Q 39.59375 47.171875 37.8125 47.578125 
Q 36.03125 48 33.890625 48 
Q 26.265625 48 22.1875 43.046875 
Q 18.109375 38.09375 18.109375 28.8125 
L 18.109375 0 
L 9.078125 0 
L 9.078125 54.6875 
L 18.109375 54.6875 
L 18.109375 46.1875 
Q 20.953125 51.171875 25.484375 53.578125 
Q 30.03125 56 36.53125 56 
Q 37.453125 56 38.578125 55.875 
Q 39.703125 55.765625 41.0625 55.515625 
z
" id="DejaVuSans-114"/>
      <path d="M 30.609375 48.390625 
Q 23.390625 48.390625 19.1875 42.75 
Q 14.984375 37.109375 14.984375 27.296875 
Q 14.984375 17.484375 19.15625 11.84375 
Q 23.34375 6.203125 30.609375 6.203125 
Q 37.796875 6.203125 41.984375 11.859375 
Q 46.1875 17.53125 46.1875 27.296875 
Q 46.1875 37.015625 41.984375 42.703125 
Q 37.796875 48.390625 30.609375 48.390625 
z
M 30.609375 56 
Q 42.328125 56 49.015625 48.375 
Q 55.71875 40.765625 55.71875 27.296875 
Q 55.71875 13.875 49.015625 6.21875 
Q 42.328125 -1.421875 30.609375 -1.421875 
Q 18.84375 -1.421875 12.171875 6.21875 
Q 5.515625 13.875 5.515625 27.296875 
Q 5.515625 40.765625 12.171875 48.375 
Q 18.84375 56 30.609375 56 
z
" id="DejaVuSans-111"/>
      <path d="M 48.6875 27.296875 
Q 48.6875 37.203125 44.609375 42.84375 
Q 40.53125 48.484375 33.40625 48.484375 
Q 26.265625 48.484375 22.1875 42.84375 
Q 18.109375 37.203125 18.109375 27.296875 
Q 18.109375 17.390625 22.1875 11.75 
Q 26.265625 6.109375 33.40625 6.109375 
Q 40.53125 6.109375 44.609375 11.75 
Q 48.6875 17.390625 48.6875 27.296875 
z
M 18.109375 46.390625 
Q 20.953125 51.265625 25.265625 53.625 
Q 29.59375 56 35.59375 56 
Q 45.5625 56 51.78125 48.09375 
Q 58.015625 40.1875 58.015625 27.296875 
Q 58.015625 14.40625 51.78125 6.484375 
Q 45.5625 -1.421875 35.59375 -1.421875 
Q 29.59375 -1.421875 25.265625 0.953125 
Q 20.953125 3.328125 18.109375 8.203125 
L 18.109375 0 
L 9.078125 0 
L 9.078125 75.984375 
L 18.109375 75.984375 
z
" id="DejaVuSans-98"/>
      <path d="M 34.28125 27.484375 
Q 23.390625 27.484375 19.1875 25 
Q 14.984375 22.515625 14.984375 16.5 
Q 14.984375 11.71875 18.140625 8.90625 
Q 21.296875 6.109375 26.703125 6.109375 
Q 34.1875 6.109375 38.703125 11.40625 
Q 43.21875 16.703125 43.21875 25.484375 
L 43.21875 27.484375 
z
M 52.203125 31.203125 
L 52.203125 0 
L 43.21875 0 
L 43.21875 8.296875 
Q 40.140625 3.328125 35.546875 0.953125 
Q 30.953125 -1.421875 24.3125 -1.421875 
Q 15.921875 -1.421875 10.953125 3.296875 
Q 6 8.015625 6 15.921875 
Q 6 25.140625 12.171875 29.828125 
Q 18.359375 34.515625 30.609375 34.515625 
L 43.21875 34.515625 
L 43.21875 35.40625 
Q 43.21875 41.609375 39.140625 45 
Q 35.0625 48.390625 27.6875 48.390625 
Q 23 48.390625 18.546875 47.265625 
Q 14.109375 46.140625 10.015625 43.890625 
L 10.015625 52.203125 
Q 14.9375 54.109375 19.578125 55.046875 
Q 24.21875 56 28.609375 56 
Q 40.484375 56 46.34375 49.84375 
Q 52.203125 43.703125 52.203125 31.203125 
z
" id="DejaVuSans-97"/>
      <path d="M 9.421875 54.6875 
L 18.40625 54.6875 
L 18.40625 0 
L 9.421875 0 
z
M 9.421875 75.984375 
L 18.40625 75.984375 
L 18.40625 64.59375 
L 9.421875 64.59375 
z
" id="DejaVuSans-105"/>
      <path d="M 9.421875 75.984375 
L 18.40625 75.984375 
L 18.40625 0 
L 9.421875 0 
z
" id="DejaVuSans-108"/>
      <path d="M 18.3125 70.21875 
L 18.3125 54.6875 
L 36.8125 54.6875 
L 36.8125 47.703125 
L 18.3125 47.703125 
L 18.3125 18.015625 
Q 18.3125 11.328125 20.140625 9.421875 
Q 21.96875 7.515625 27.59375 7.515625 
L 36.8125 7.515625 
L 36.8125 0 
L 27.59375 0 
Q 17.1875 0 13.234375 3.875 
Q 9.28125 7.765625 9.28125 18.015625 
L 9.28125 47.703125 
L 2.6875 47.703125 
L 2.6875 54.6875 
L 9.28125 54.6875 
L 9.28125 70.21875 
z
" id="DejaVuSans-116"/>
      <path d="M 32.171875 -5.078125 
Q 28.375 -14.84375 24.75 -17.8125 
Q 21.140625 -20.796875 15.09375 -20.796875 
L 7.90625 -20.796875 
L 7.90625 -13.28125 
L 13.1875 -13.28125 
Q 16.890625 -13.28125 18.9375 -11.515625 
Q 21 -9.765625 23.484375 -3.21875 
L 25.09375 0.875 
L 2.984375 54.6875 
L 12.5 54.6875 
L 29.59375 11.921875 
L 46.6875 54.6875 
L 56.203125 54.6875 
z
" id="DejaVuSans-121"/>
     </defs>
     <g transform="translate(14.798438 231.526719)rotate(-90)scale(0.1 -0.1)">
      <use xlink:href="#DejaVuSans-112"/>
      <use x="63.476562" xlink:href="#DejaVuSans-114"/>
      <use x="104.558594" xlink:href="#DejaVuSans-111"/>
      <use x="165.740234" xlink:href="#DejaVuSans-98"/>
      <use x="229.216797" xlink:href="#DejaVuSans-97"/>
      <use x="290.496094" xlink:href="#DejaVuSans-98"/>
      <use x="353.972656" xlink:href="#DejaVuSans-105"/>
      <use x="381.755859" xlink:href="#DejaVuSans-108"/>
      <use x="409.539062" xlink:href="#DejaVuSans-105"/>
      <use x="437.322266" xlink:href="#DejaVuSans-116"/>
      <use x="476.53125" xlink:href="#DejaVuSans-121"/>
     </g>
    </g>
   </g>
   <g id="patch_135">
    <path d="M 56.50625 398.78 
L 56.50625 10.7 
" style="fill:none;stroke:#000000;stroke-linecap:square;stroke-linejoin:miter;stroke-width:0.8;"/>
   </g>
   <g id="patch_136">
    <path d="M 837.70625 398.78 
L 837.70625 10.7 
" style="fill:none;stroke:#000000;stroke-linecap:square;stroke-linejoin:miter;stroke-width:0.8;"/>
   </g>
   <g id="patch_137">
    <path d="M 56.50625 398.78 
L 837.70625 398.78 
" style="fill:none;stroke:#000000;stroke-linecap:square;stroke-linejoin:miter;stroke-width:0.8;"/>
   </g>
   <g id="patch_138">
    <path d="M 56.50625 10.7 
L 837.70625 10.7 
" style="fill:none;stroke:#000000;stroke-linecap:square;stroke-linejoin:miter;stroke-width:0.8;"/>
   </g>
  </g>
 </g>
 <defs>
  <clipPath id="p48e547dc15">
   <rect height="388.08" width="781.2" x="56.50625" y="10.7"/>
  </clipPath>
 </defs>
</svg>
