<?xml version="1.0" encoding="utf-8" standalone="no"?>
<!DOCTYPE svg PUBLIC "-//W3C//DTD SVG 1.1//EN"
  "http://www.w3.org/Graphics/SVG/1.1/DTD/svg11.dtd">
<!-- Created with matplotlib (http://matplotlib.org/) -->
<svg height="504pt" version="1.1" viewBox="0 0 1008 504" width="1008pt" xmlns="http://www.w3.org/2000/svg" xmlns:xlink="http://www.w3.org/1999/xlink">
 <defs>
  <style type="text/css">
*{stroke-linecap:butt;stroke-linejoin:round;}
  </style>
 </defs>
 <g id="figure_1">
  <g id="patch_1">
   <path d="M 0 504 
L 1008 504 
L 1008 0 
L 0 0 
z
" style="fill:#ffffff;"/>
  </g>
  <g id="axes_1">
   <g id="patch_2">
    <path d="M 126 448.56 
L 907.2 448.56 
L 907.2 60.48 
L 126 60.48 
z
" style="fill:#ffffff;"/>
   </g>
   <g id="PathCollection_1">
    <defs>
     <path d="M 0 3 
C 0.795609 3 1.55874 2.683901 2.12132 2.12132 
C 2.683901 1.55874 3 0.795609 3 0 
C 3 -0.795609 2.683901 -1.55874 2.12132 -2.12132 
C 1.55874 -2.683901 0.795609 -3 0 -3 
C -0.795609 -3 -1.55874 -2.683901 -2.12132 -2.12132 
C -2.683901 -1.55874 -3 -0.795609 -3 0 
C -3 0.795609 -2.683901 1.55874 -2.12132 2.12132 
C -1.55874 2.683901 -0.795609 3 0 3 
z
" id="mc701e38f92" style="stroke:#ffa500;"/>
    </defs>
    <g clip-path="url(#p54040f0461)">
     <use style="fill:#ffa500;stroke:#ffa500;" x="768.90804" xlink:href="#mc701e38f92" y="209.987835"/>
     <use style="fill:#ffa500;stroke:#ffa500;" x="686.301849" xlink:href="#mc701e38f92" y="206.72709"/>
     <use style="fill:#ffa500;stroke:#ffa500;" x="596.512511" xlink:href="#mc701e38f92" y="205.856824"/>
     <use style="fill:#ffa500;stroke:#ffa500;" x="506.723173" xlink:href="#mc701e38f92" y="202.708994"/>
     <use style="fill:#ffa500;stroke:#ffa500;" x="416.933835" xlink:href="#mc701e38f92" y="197.024723"/>
     <use style="fill:#ffa500;stroke:#ffa500;" x="416.933835" xlink:href="#mc701e38f92" y="216.539618"/>
     <use style="fill:#ffa500;stroke:#ffa500;" x="327.144496" xlink:href="#mc701e38f92" y="155.849562"/>
     <use style="fill:#ffa500;stroke:#ffa500;" x="327.144496" xlink:href="#mc701e38f92" y="253.856414"/>
     <use style="fill:#ffa500;stroke:#ffa500;" x="327.144496" xlink:href="#mc701e38f92" y="214.713711"/>
     <use style="fill:#ffa500;stroke:#ffa500;" x="282.249827" xlink:href="#mc701e38f92" y="156.353546"/>
     <use style="fill:#ffa500;stroke:#ffa500;" x="282.249827" xlink:href="#mc701e38f92" y="240.769372"/>
     <use style="fill:#ffa500;stroke:#ffa500;" x="282.249827" xlink:href="#mc701e38f92" y="216.10173"/>
     <use style="fill:#ffa500;stroke:#ffa500;" x="282.249827" xlink:href="#mc701e38f92" y="216.545126"/>
     <use style="fill:#ffa500;stroke:#ffa500;" x="237.355158" xlink:href="#mc701e38f92" y="167.515537"/>
     <use style="fill:#ffa500;stroke:#ffa500;" x="237.355158" xlink:href="#mc701e38f92" y="144.114738"/>
     <use style="fill:#ffa500;stroke:#ffa500;" x="237.355158" xlink:href="#mc701e38f92" y="290.013774"/>
     <use style="fill:#ffa500;stroke:#ffa500;" x="237.355158" xlink:href="#mc701e38f92" y="218.880524"/>
     <use style="fill:#ffa500;stroke:#ffa500;" x="237.355158" xlink:href="#mc701e38f92" y="216.856328"/>
     <use style="fill:#ffa500;stroke:#ffa500;" x="237.355158" xlink:href="#mc701e38f92" y="210.590962"/>
     <use style="fill:#ffa500;stroke:#ffa500;" x="219.397291" xlink:href="#mc701e38f92" y="154.403709"/>
     <use style="fill:#ffa500;stroke:#ffa500;" x="219.397291" xlink:href="#mc701e38f92" y="148.471577"/>
     <use style="fill:#ffa500;stroke:#ffa500;" x="219.397291" xlink:href="#mc701e38f92" y="196.56205"/>
     <use style="fill:#ffa500;stroke:#ffa500;" x="219.397291" xlink:href="#mc701e38f92" y="338.520102"/>
     <use style="fill:#ffa500;stroke:#ffa500;" x="219.397291" xlink:href="#mc701e38f92" y="194.110983"/>
     <use style="fill:#ffa500;stroke:#ffa500;" x="219.397291" xlink:href="#mc701e38f92" y="207.892035"/>
     <use style="fill:#ffa500;stroke:#ffa500;" x="219.397291" xlink:href="#mc701e38f92" y="205.457493"/>
     <use style="fill:#ffa500;stroke:#ffa500;" x="219.397291" xlink:href="#mc701e38f92" y="236.464859"/>
     <use style="fill:#ffa500;stroke:#ffa500;" x="201.439423" xlink:href="#mc701e38f92" y="155.8413"/>
     <use style="fill:#ffa500;stroke:#ffa500;" x="201.439423" xlink:href="#mc701e38f92" y="154.434003"/>
     <use style="fill:#ffa500;stroke:#ffa500;" x="201.439423" xlink:href="#mc701e38f92" y="173.687267"/>
     <use style="fill:#ffa500;stroke:#ffa500;" x="201.439423" xlink:href="#mc701e38f92" y="178.446191"/>
     <use style="fill:#ffa500;stroke:#ffa500;" x="201.439423" xlink:href="#mc701e38f92" y="342.226995"/>
     <use style="fill:#ffa500;stroke:#ffa500;" x="201.439423" xlink:href="#mc701e38f92" y="242.319878"/>
     <use style="fill:#ffa500;stroke:#ffa500;" x="201.439423" xlink:href="#mc701e38f92" y="225.806852"/>
     <use style="fill:#ffa500;stroke:#ffa500;" x="201.439423" xlink:href="#mc701e38f92" y="174.155448"/>
     <use style="fill:#ffa500;stroke:#ffa500;" x="201.439423" xlink:href="#mc701e38f92" y="224.617121"/>
     <use style="fill:#ffa500;stroke:#ffa500;" x="201.439423" xlink:href="#mc701e38f92" y="210.194385"/>
     <use style="fill:#ffa500;stroke:#ffa500;" x="201.439423" xlink:href="#mc701e38f92" y="217.61368"/>
     <use style="fill:#ffa500;stroke:#ffa500;" x="183.481555" xlink:href="#mc701e38f92" y="162.181025"/>
     <use style="fill:#ffa500;stroke:#ffa500;" x="183.481555" xlink:href="#mc701e38f92" y="142.071265"/>
     <use style="fill:#ffa500;stroke:#ffa500;" x="183.481555" xlink:href="#mc701e38f92" y="158.03349"/>
     <use style="fill:#ffa500;stroke:#ffa500;" x="183.481555" xlink:href="#mc701e38f92" y="138.65905"/>
     <use style="fill:#ffa500;stroke:#ffa500;" x="183.481555" xlink:href="#mc701e38f92" y="173.816705"/>
     <use style="fill:#ffa500;stroke:#ffa500;" x="183.481555" xlink:href="#mc701e38f92" y="218.277396"/>
     <use style="fill:#ffa500;stroke:#ffa500;" x="183.481555" xlink:href="#mc701e38f92" y="365.451537"/>
     <use style="fill:#ffa500;stroke:#ffa500;" x="183.481555" xlink:href="#mc701e38f92" y="310.823052"/>
     <use style="fill:#ffa500;stroke:#ffa500;" x="183.481555" xlink:href="#mc701e38f92" y="203.722468"/>
     <use style="fill:#ffa500;stroke:#ffa500;" x="183.481555" xlink:href="#mc701e38f92" y="184.496745"/>
     <use style="fill:#ffa500;stroke:#ffa500;" x="183.481555" xlink:href="#mc701e38f92" y="212.615157"/>
     <use style="fill:#ffa500;stroke:#ffa500;" x="183.481555" xlink:href="#mc701e38f92" y="200.065147"/>
     <use style="fill:#ffa500;stroke:#ffa500;" x="183.481555" xlink:href="#mc701e38f92" y="223.562336"/>
     <use style="fill:#ffa500;stroke:#ffa500;" x="183.481555" xlink:href="#mc701e38f92" y="187.881419"/>
     <use style="fill:#ffa500;stroke:#ffa500;" x="183.481555" xlink:href="#mc701e38f92" y="236.6301"/>
     <use style="fill:#ffa500;stroke:#ffa500;" x="183.481555" xlink:href="#mc701e38f92" y="234.435156"/>
     <use style="fill:#ffa500;stroke:#ffa500;" x="183.481555" xlink:href="#mc701e38f92" y="233.950451"/>
     <use style="fill:#ffa500;stroke:#ffa500;" x="165.523688" xlink:href="#mc701e38f92" y="119.785839"/>
     <use style="fill:#ffa500;stroke:#ffa500;" x="165.523688" xlink:href="#mc701e38f92" y="206.848266"/>
     <use style="fill:#ffa500;stroke:#ffa500;" x="165.523688" xlink:href="#mc701e38f92" y="137.604265"/>
     <use style="fill:#ffa500;stroke:#ffa500;" x="165.523688" xlink:href="#mc701e38f92" y="146.565804"/>
     <use style="fill:#ffa500;stroke:#ffa500;" x="165.523688" xlink:href="#mc701e38f92" y="218.236086"/>
     <use style="fill:#ffa500;stroke:#ffa500;" x="165.523688" xlink:href="#mc701e38f92" y="98.076001"/>
     <use style="fill:#ffa500;stroke:#ffa500;" x="165.523688" xlink:href="#mc701e38f92" y="205.322547"/>
     <use style="fill:#ffa500;stroke:#ffa500;" x="165.523688" xlink:href="#mc701e38f92" y="78.34354"/>
     <use style="fill:#ffa500;stroke:#ffa500;" x="165.523688" xlink:href="#mc701e38f92" y="250.524066"/>
     <use style="fill:#ffa500;stroke:#ffa500;" x="165.523688" xlink:href="#mc701e38f92" y="105.319039"/>
     <use style="fill:#ffa500;stroke:#ffa500;" x="165.523688" xlink:href="#mc701e38f92" y="178.804212"/>
     <use style="fill:#ffa500;stroke:#ffa500;" x="165.523688" xlink:href="#mc701e38f92" y="260.488063"/>
     <use style="fill:#ffa500;stroke:#ffa500;" x="165.523688" xlink:href="#mc701e38f92" y="403.024457"/>
     <use style="fill:#ffa500;stroke:#ffa500;" x="165.523688" xlink:href="#mc701e38f92" y="330.191984"/>
     <use style="fill:#ffa500;stroke:#ffa500;" x="165.523688" xlink:href="#mc701e38f92" y="289.005807"/>
     <use style="fill:#ffa500;stroke:#ffa500;" x="165.523688" xlink:href="#mc701e38f92" y="326.30608"/>
     <use style="fill:#ffa500;stroke:#ffa500;" x="165.523688" xlink:href="#mc701e38f92" y="214.892721"/>
     <use style="fill:#ffa500;stroke:#ffa500;" x="165.523688" xlink:href="#mc701e38f92" y="188.856338"/>
     <use style="fill:#ffa500;stroke:#ffa500;" x="165.523688" xlink:href="#mc701e38f92" y="223.330999"/>
     <use style="fill:#ffa500;stroke:#ffa500;" x="165.523688" xlink:href="#mc701e38f92" y="130.97537"/>
     <use style="fill:#ffa500;stroke:#ffa500;" x="165.523688" xlink:href="#mc701e38f92" y="317.903604"/>
     <use style="fill:#ffa500;stroke:#ffa500;" x="165.523688" xlink:href="#mc701e38f92" y="123.688267"/>
     <use style="fill:#ffa500;stroke:#ffa500;" x="165.523688" xlink:href="#mc701e38f92" y="187.809815"/>
     <use style="fill:#ffa500;stroke:#ffa500;" x="165.523688" xlink:href="#mc701e38f92" y="206.358053"/>
     <use style="fill:#ffa500;stroke:#ffa500;" x="165.523688" xlink:href="#mc701e38f92" y="254.029917"/>
     <use style="fill:#ffa500;stroke:#ffa500;" x="165.523688" xlink:href="#mc701e38f92" y="187.057971"/>
     <use style="fill:#ffa500;stroke:#ffa500;" x="165.523688" xlink:href="#mc701e38f92" y="226.341129"/>
     <use style="fill:#ffa500;stroke:#ffa500;" x="165.523688" xlink:href="#mc701e38f92" y="150.380104"/>
     <use style="fill:#ffa500;stroke:#ffa500;" x="165.523688" xlink:href="#mc701e38f92" y="213.796626"/>
     <use style="fill:#ffa500;stroke:#ffa500;" x="165.523688" xlink:href="#mc701e38f92" y="237.935499"/>
     <use style="fill:#ffa500;stroke:#ffa500;" x="165.523688" xlink:href="#mc701e38f92" y="227.588694"/>
     <use style="fill:#ffa500;stroke:#ffa500;" x="165.523688" xlink:href="#mc701e38f92" y="234.008285"/>
     <use style="fill:#ffa500;stroke:#ffa500;" x="165.523688" xlink:href="#mc701e38f92" y="181.954796"/>
     <use style="fill:#ffa500;stroke:#ffa500;" x="165.523688" xlink:href="#mc701e38f92" y="289.022331"/>
    </g>
   </g>
   <g id="PathCollection_2">
    <defs>
     <path d="M 0 3 
C 0.795609 3 1.55874 2.683901 2.12132 2.12132 
C 2.683901 1.55874 3 0.795609 3 0 
C 3 -0.795609 2.683901 -1.55874 2.12132 -2.12132 
C 1.55874 -2.683901 0.795609 -3 0 -3 
C -0.795609 -3 -1.55874 -2.683901 -2.12132 -2.12132 
C -2.683901 -1.55874 -3 -0.795609 -3 0 
C -3 0.795609 -2.683901 1.55874 -2.12132 2.12132 
C -1.55874 2.683901 -0.795609 3 0 3 
z
" id="m6862c104f3" style="stroke:#008000;"/>
    </defs>
    <g clip-path="url(#p54040f0461)">
     <use style="fill:#008000;stroke:#008000;" x="867.676312" xlink:href="#m6862c104f3" y="247.442332"/>
     <use style="fill:#008000;stroke:#008000;" x="865.880525" xlink:href="#m6862c104f3" y="248.51364"/>
     <use style="fill:#008000;stroke:#008000;" x="776.091187" xlink:href="#m6862c104f3" y="245.387842"/>
     <use style="fill:#008000;stroke:#008000;" x="686.301849" xlink:href="#m6862c104f3" y="245.638457"/>
     <use style="fill:#008000;stroke:#008000;" x="596.512511" xlink:href="#m6862c104f3" y="247.345941"/>
     <use style="fill:#008000;stroke:#008000;" x="506.723173" xlink:href="#m6862c104f3" y="237.795045"/>
     <use style="fill:#008000;stroke:#008000;" x="506.723173" xlink:href="#m6862c104f3" y="259.474589"/>
     <use style="fill:#008000;stroke:#008000;" x="416.933835" xlink:href="#m6862c104f3" y="217.743119"/>
     <use style="fill:#008000;stroke:#008000;" x="416.933835" xlink:href="#m6862c104f3" y="275.009943"/>
     <use style="fill:#008000;stroke:#008000;" x="327.144496" xlink:href="#m6862c104f3" y="200.078917"/>
     <use style="fill:#008000;stroke:#008000;" x="327.144496" xlink:href="#m6862c104f3" y="278.714083"/>
     <use style="fill:#008000;stroke:#008000;" x="327.144496" xlink:href="#m6862c104f3" y="261.732875"/>
     <use style="fill:#008000;stroke:#008000;" x="327.144496" xlink:href="#m6862c104f3" y="257.183255"/>
     <use style="fill:#008000;stroke:#008000;" x="282.249827" xlink:href="#m6862c104f3" y="178.137742"/>
     <use style="fill:#008000;stroke:#008000;" x="282.249827" xlink:href="#m6862c104f3" y="256.7674"/>
     <use style="fill:#008000;stroke:#008000;" x="282.249827" xlink:href="#m6862c104f3" y="283.897124"/>
     <use style="fill:#008000;stroke:#008000;" x="282.249827" xlink:href="#m6862c104f3" y="264.988111"/>
     <use style="fill:#008000;stroke:#008000;" x="282.249827" xlink:href="#m6862c104f3" y="259.422263"/>
     <use style="fill:#008000;stroke:#008000;" x="237.355158" xlink:href="#m6862c104f3" y="173.841491"/>
     <use style="fill:#008000;stroke:#008000;" x="237.355158" xlink:href="#m6862c104f3" y="226.6303"/>
     <use style="fill:#008000;stroke:#008000;" x="237.355158" xlink:href="#m6862c104f3" y="254.663338"/>
     <use style="fill:#008000;stroke:#008000;" x="237.355158" xlink:href="#m6862c104f3" y="301.809186"/>
     <use style="fill:#008000;stroke:#008000;" x="237.355158" xlink:href="#m6862c104f3" y="287.496611"/>
     <use style="fill:#008000;stroke:#008000;" x="237.355158" xlink:href="#m6862c104f3" y="237.001891"/>
     <use style="fill:#008000;stroke:#008000;" x="237.355158" xlink:href="#m6862c104f3" y="243.8814"/>
     <use style="fill:#008000;stroke:#008000;" x="237.355158" xlink:href="#m6862c104f3" y="270.77428"/>
     <use style="fill:#008000;stroke:#008000;" x="219.397291" xlink:href="#m6862c104f3" y="167.691793"/>
     <use style="fill:#008000;stroke:#008000;" x="219.397291" xlink:href="#m6862c104f3" y="187.674869"/>
     <use style="fill:#008000;stroke:#008000;" x="219.397291" xlink:href="#m6862c104f3" y="240.259881"/>
     <use style="fill:#008000;stroke:#008000;" x="219.397291" xlink:href="#m6862c104f3" y="306.042095"/>
     <use style="fill:#008000;stroke:#008000;" x="219.397291" xlink:href="#m6862c104f3" y="299.093735"/>
     <use style="fill:#008000;stroke:#008000;" x="219.397291" xlink:href="#m6862c104f3" y="289.239898"/>
     <use style="fill:#008000;stroke:#008000;" x="219.397291" xlink:href="#m6862c104f3" y="231.617807"/>
     <use style="fill:#008000;stroke:#008000;" x="219.397291" xlink:href="#m6862c104f3" y="236.720982"/>
     <use style="fill:#008000;stroke:#008000;" x="219.397291" xlink:href="#m6862c104f3" y="274.285639"/>
     <use style="fill:#008000;stroke:#008000;" x="219.397291" xlink:href="#m6862c104f3" y="259.521407"/>
     <use style="fill:#008000;stroke:#008000;" x="201.439423" xlink:href="#m6862c104f3" y="162.211319"/>
     <use style="fill:#008000;stroke:#008000;" x="201.439423" xlink:href="#m6862c104f3" y="167.823985"/>
     <use style="fill:#008000;stroke:#008000;" x="201.439423" xlink:href="#m6862c104f3" y="237.029431"/>
     <use style="fill:#008000;stroke:#008000;" x="201.439423" xlink:href="#m6862c104f3" y="226.049204"/>
     <use style="fill:#008000;stroke:#008000;" x="201.439423" xlink:href="#m6862c104f3" y="300.126488"/>
     <use style="fill:#008000;stroke:#008000;" x="201.439423" xlink:href="#m6862c104f3" y="332.439254"/>
     <use style="fill:#008000;stroke:#008000;" x="201.439423" xlink:href="#m6862c104f3" y="266.131024"/>
     <use style="fill:#008000;stroke:#008000;" x="201.439423" xlink:href="#m6862c104f3" y="290.864762"/>
     <use style="fill:#008000;stroke:#008000;" x="201.439423" xlink:href="#m6862c104f3" y="246.326959"/>
     <use style="fill:#008000;stroke:#008000;" x="201.439423" xlink:href="#m6862c104f3" y="239.673278"/>
     <use style="fill:#008000;stroke:#008000;" x="201.439423" xlink:href="#m6862c104f3" y="203.328645"/>
     <use style="fill:#008000;stroke:#008000;" x="201.439423" xlink:href="#m6862c104f3" y="302.924559"/>
     <use style="fill:#008000;stroke:#008000;" x="201.439423" xlink:href="#m6862c104f3" y="244.192603"/>
     <use style="fill:#008000;stroke:#008000;" x="183.481555" xlink:href="#m6862c104f3" y="162.181025"/>
     <use style="fill:#008000;stroke:#008000;" x="183.481555" xlink:href="#m6862c104f3" y="164.502653"/>
     <use style="fill:#008000;stroke:#008000;" x="183.481555" xlink:href="#m6862c104f3" y="163.285382"/>
     <use style="fill:#008000;stroke:#008000;" x="183.481555" xlink:href="#m6862c104f3" y="213.160451"/>
     <use style="fill:#008000;stroke:#008000;" x="183.481555" xlink:href="#m6862c104f3" y="285.108887"/>
     <use style="fill:#008000;stroke:#008000;" x="183.481555" xlink:href="#m6862c104f3" y="191.750799"/>
     <use style="fill:#008000;stroke:#008000;" x="183.481555" xlink:href="#m6862c104f3" y="250.199093"/>
     <use style="fill:#008000;stroke:#008000;" x="183.481555" xlink:href="#m6862c104f3" y="370.405996"/>
     <use style="fill:#008000;stroke:#008000;" x="183.481555" xlink:href="#m6862c104f3" y="343.094507"/>
     <use style="fill:#008000;stroke:#008000;" x="183.481555" xlink:href="#m6862c104f3" y="257.579832"/>
     <use style="fill:#008000;stroke:#008000;" x="183.481555" xlink:href="#m6862c104f3" y="262.985948"/>
     <use style="fill:#008000;stroke:#008000;" x="183.481555" xlink:href="#m6862c104f3" y="316.496307"/>
     <use style="fill:#008000;stroke:#008000;" x="183.481555" xlink:href="#m6862c104f3" y="262.999718"/>
     <use style="fill:#008000;stroke:#008000;" x="183.481555" xlink:href="#m6862c104f3" y="202.370251"/>
     <use style="fill:#008000;stroke:#008000;" x="183.481555" xlink:href="#m6862c104f3" y="258.188467"/>
     <use style="fill:#008000;stroke:#008000;" x="183.481555" xlink:href="#m6862c104f3" y="216.068682"/>
     <use style="fill:#008000;stroke:#008000;" x="183.481555" xlink:href="#m6862c104f3" y="252.848448"/>
     <use style="fill:#008000;stroke:#008000;" x="183.481555" xlink:href="#m6862c104f3" y="296.741813"/>
     <use style="fill:#008000;stroke:#008000;" x="183.481555" xlink:href="#m6862c104f3" y="236.990875"/>
     <use style="fill:#008000;stroke:#008000;" x="183.481555" xlink:href="#m6862c104f3" y="283.112232"/>
     <use style="fill:#008000;stroke:#008000;" x="165.523688" xlink:href="#m6862c104f3" y="119.785839"/>
     <use style="fill:#008000;stroke:#008000;" x="165.523688" xlink:href="#m6862c104f3" y="206.848266"/>
     <use style="fill:#008000;stroke:#008000;" x="165.523688" xlink:href="#m6862c104f3" y="155.604456"/>
     <use style="fill:#008000;stroke:#008000;" x="165.523688" xlink:href="#m6862c104f3" y="171.541895"/>
     <use style="fill:#008000;stroke:#008000;" x="165.523688" xlink:href="#m6862c104f3" y="197.963839"/>
     <use style="fill:#008000;stroke:#008000;" x="165.523688" xlink:href="#m6862c104f3" y="129.540532"/>
     <use style="fill:#008000;stroke:#008000;" x="165.523688" xlink:href="#m6862c104f3" y="189.093182"/>
     <use style="fill:#008000;stroke:#008000;" x="165.523688" xlink:href="#m6862c104f3" y="234.008285"/>
     <use style="fill:#008000;stroke:#008000;" x="165.523688" xlink:href="#m6862c104f3" y="227.181101"/>
     <use style="fill:#008000;stroke:#008000;" x="165.523688" xlink:href="#m6862c104f3" y="302.585816"/>
     <use style="fill:#008000;stroke:#008000;" x="165.523688" xlink:href="#m6862c104f3" y="219.445095"/>
     <use style="fill:#008000;stroke:#008000;" x="165.523688" xlink:href="#m6862c104f3" y="164.563241"/>
     <use style="fill:#008000;stroke:#008000;" x="165.523688" xlink:href="#m6862c104f3" y="201.692765"/>
     <use style="fill:#008000;stroke:#008000;" x="165.523688" xlink:href="#m6862c104f3" y="291.974627"/>
     <use style="fill:#008000;stroke:#008000;" x="165.523688" xlink:href="#m6862c104f3" y="428.017071"/>
     <use style="fill:#008000;stroke:#008000;" x="165.523688" xlink:href="#m6862c104f3" y="311.842034"/>
     <use style="fill:#008000;stroke:#008000;" x="165.523688" xlink:href="#m6862c104f3" y="285.824929"/>
     <use style="fill:#008000;stroke:#008000;" x="165.523688" xlink:href="#m6862c104f3" y="386.792339"/>
     <use style="fill:#008000;stroke:#008000;" x="165.523688" xlink:href="#m6862c104f3" y="274.773098"/>
     <use style="fill:#008000;stroke:#008000;" x="165.523688" xlink:href="#m6862c104f3" y="227.734657"/>
     <use style="fill:#008000;stroke:#008000;" x="165.523688" xlink:href="#m6862c104f3" y="283.734638"/>
     <use style="fill:#008000;stroke:#008000;" x="165.523688" xlink:href="#m6862c104f3" y="243.052444"/>
     <use style="fill:#008000;stroke:#008000;" x="165.523688" xlink:href="#m6862c104f3" y="264.365705"/>
     <use style="fill:#008000;stroke:#008000;" x="165.523688" xlink:href="#m6862c104f3" y="374.980402"/>
     <use style="fill:#008000;stroke:#008000;" x="165.523688" xlink:href="#m6862c104f3" y="278.689297"/>
     <use style="fill:#008000;stroke:#008000;" x="165.523688" xlink:href="#m6862c104f3" y="244.817763"/>
     <use style="fill:#008000;stroke:#008000;" x="165.523688" xlink:href="#m6862c104f3" y="212.818954"/>
     <use style="fill:#008000;stroke:#008000;" x="165.523688" xlink:href="#m6862c104f3" y="186.75503"/>
     <use style="fill:#008000;stroke:#008000;" x="165.523688" xlink:href="#m6862c104f3" y="301.184027"/>
     <use style="fill:#008000;stroke:#008000;" x="165.523688" xlink:href="#m6862c104f3" y="195.353041"/>
     <use style="fill:#008000;stroke:#008000;" x="165.523688" xlink:href="#m6862c104f3" y="178.897848"/>
     <use style="fill:#008000;stroke:#008000;" x="165.523688" xlink:href="#m6862c104f3" y="255.453738"/>
     <use style="fill:#008000;stroke:#008000;" x="165.523688" xlink:href="#m6862c104f3" y="177.680577"/>
     <use style="fill:#008000;stroke:#008000;" x="165.523688" xlink:href="#m6862c104f3" y="299.490312"/>
     <use style="fill:#008000;stroke:#008000;" x="165.523688" xlink:href="#m6862c104f3" y="268.014765"/>
     <use style="fill:#008000;stroke:#008000;" x="165.523688" xlink:href="#m6862c104f3" y="318.71879"/>
     <use style="fill:#008000;stroke:#008000;" x="165.523688" xlink:href="#m6862c104f3" y="260.534882"/>
     <use style="fill:#008000;stroke:#008000;" x="165.523688" xlink:href="#m6862c104f3" y="205.352841"/>
     <use style="fill:#008000;stroke:#008000;" x="165.523688" xlink:href="#m6862c104f3" y="258.921033"/>
     <use style="fill:#008000;stroke:#008000;" x="165.523688" xlink:href="#m6862c104f3" y="308.440836"/>
    </g>
   </g>
   <g id="matplotlib.axis_1">
    <g id="xtick_1">
     <g id="line2d_1">
      <defs>
       <path d="M 0 0 
L 0 3.5 
" id="mb38f97b526" style="stroke:#000000;stroke-width:0.8;"/>
      </defs>
      <g>
       <use style="stroke:#000000;stroke-width:0.8;" x="147.56582" xlink:href="#mb38f97b526" y="448.56"/>
      </g>
     </g>
     <g id="text_1">
      <!-- 0 -->
      <defs>
       <path d="M 31.78125 66.40625 
Q 24.171875 66.40625 20.328125 58.90625 
Q 16.5 51.421875 16.5 36.375 
Q 16.5 21.390625 20.328125 13.890625 
Q 24.171875 6.390625 31.78125 6.390625 
Q 39.453125 6.390625 43.28125 13.890625 
Q 47.125 21.390625 47.125 36.375 
Q 47.125 51.421875 43.28125 58.90625 
Q 39.453125 66.40625 31.78125 66.40625 
z
M 31.78125 74.21875 
Q 44.046875 74.21875 50.515625 64.515625 
Q 56.984375 54.828125 56.984375 36.375 
Q 56.984375 17.96875 50.515625 8.265625 
Q 44.046875 -1.421875 31.78125 -1.421875 
Q 19.53125 -1.421875 13.0625 8.265625 
Q 6.59375 17.96875 6.59375 36.375 
Q 6.59375 54.828125 13.0625 64.515625 
Q 19.53125 74.21875 31.78125 74.21875 
z
" id="DejaVuSans-30"/>
      </defs>
      <g transform="translate(144.38457 463.158437)scale(0.1 -0.1)">
       <use xlink:href="#DejaVuSans-30"/>
      </g>
     </g>
    </g>
    <g id="xtick_2">
     <g id="line2d_2">
      <g>
       <use style="stroke:#000000;stroke-width:0.8;" x="237.355158" xlink:href="#mb38f97b526" y="448.56"/>
      </g>
     </g>
     <g id="text_2">
      <!-- 50 -->
      <defs>
       <path d="M 10.796875 72.90625 
L 49.515625 72.90625 
L 49.515625 64.59375 
L 19.828125 64.59375 
L 19.828125 46.734375 
Q 21.96875 47.46875 24.109375 47.828125 
Q 26.265625 48.1875 28.421875 48.1875 
Q 40.625 48.1875 47.75 41.5 
Q 54.890625 34.8125 54.890625 23.390625 
Q 54.890625 11.625 47.5625 5.09375 
Q 40.234375 -1.421875 26.90625 -1.421875 
Q 22.3125 -1.421875 17.546875 -0.640625 
Q 12.796875 0.140625 7.71875 1.703125 
L 7.71875 11.625 
Q 12.109375 9.234375 16.796875 8.0625 
Q 21.484375 6.890625 26.703125 6.890625 
Q 35.15625 6.890625 40.078125 11.328125 
Q 45.015625 15.765625 45.015625 23.390625 
Q 45.015625 31 40.078125 35.4375 
Q 35.15625 39.890625 26.703125 39.890625 
Q 22.75 39.890625 18.8125 39.015625 
Q 14.890625 38.140625 10.796875 36.28125 
z
" id="DejaVuSans-35"/>
      </defs>
      <g transform="translate(230.992658 463.158437)scale(0.1 -0.1)">
       <use xlink:href="#DejaVuSans-35"/>
       <use x="63.623047" xlink:href="#DejaVuSans-30"/>
      </g>
     </g>
    </g>
    <g id="xtick_3">
     <g id="line2d_3">
      <g>
       <use style="stroke:#000000;stroke-width:0.8;" x="327.144496" xlink:href="#mb38f97b526" y="448.56"/>
      </g>
     </g>
     <g id="text_3">
      <!-- 100 -->
      <defs>
       <path d="M 12.40625 8.296875 
L 28.515625 8.296875 
L 28.515625 63.921875 
L 10.984375 60.40625 
L 10.984375 69.390625 
L 28.421875 72.90625 
L 38.28125 72.90625 
L 38.28125 8.296875 
L 54.390625 8.296875 
L 54.390625 0 
L 12.40625 0 
z
" id="DejaVuSans-31"/>
      </defs>
      <g transform="translate(317.600746 463.158437)scale(0.1 -0.1)">
       <use xlink:href="#DejaVuSans-31"/>
       <use x="63.623047" xlink:href="#DejaVuSans-30"/>
       <use x="127.246094" xlink:href="#DejaVuSans-30"/>
      </g>
     </g>
    </g>
    <g id="xtick_4">
     <g id="line2d_4">
      <g>
       <use style="stroke:#000000;stroke-width:0.8;" x="416.933835" xlink:href="#mb38f97b526" y="448.56"/>
      </g>
     </g>
     <g id="text_4">
      <!-- 150 -->
      <g transform="translate(407.390085 463.158437)scale(0.1 -0.1)">
       <use xlink:href="#DejaVuSans-31"/>
       <use x="63.623047" xlink:href="#DejaVuSans-35"/>
       <use x="127.246094" xlink:href="#DejaVuSans-30"/>
      </g>
     </g>
    </g>
    <g id="xtick_5">
     <g id="line2d_5">
      <g>
       <use style="stroke:#000000;stroke-width:0.8;" x="506.723173" xlink:href="#mb38f97b526" y="448.56"/>
      </g>
     </g>
     <g id="text_5">
      <!-- 200 -->
      <defs>
       <path d="M 19.1875 8.296875 
L 53.609375 8.296875 
L 53.609375 0 
L 7.328125 0 
L 7.328125 8.296875 
Q 12.9375 14.109375 22.625 23.890625 
Q 32.328125 33.6875 34.8125 36.53125 
Q 39.546875 41.84375 41.421875 45.53125 
Q 43.3125 49.21875 43.3125 52.78125 
Q 43.3125 58.59375 39.234375 62.25 
Q 35.15625 65.921875 28.609375 65.921875 
Q 23.96875 65.921875 18.8125 64.3125 
Q 13.671875 62.703125 7.8125 59.421875 
L 7.8125 69.390625 
Q 13.765625 71.78125 18.9375 73 
Q 24.125 74.21875 28.421875 74.21875 
Q 39.75 74.21875 46.484375 68.546875 
Q 53.21875 62.890625 53.21875 53.421875 
Q 53.21875 48.921875 51.53125 44.890625 
Q 49.859375 40.875 45.40625 35.40625 
Q 44.1875 33.984375 37.640625 27.21875 
Q 31.109375 20.453125 19.1875 8.296875 
z
" id="DejaVuSans-32"/>
      </defs>
      <g transform="translate(497.179423 463.158437)scale(0.1 -0.1)">
       <use xlink:href="#DejaVuSans-32"/>
       <use x="63.623047" xlink:href="#DejaVuSans-30"/>
       <use x="127.246094" xlink:href="#DejaVuSans-30"/>
      </g>
     </g>
    </g>
    <g id="xtick_6">
     <g id="line2d_6">
      <g>
       <use style="stroke:#000000;stroke-width:0.8;" x="596.512511" xlink:href="#mb38f97b526" y="448.56"/>
      </g>
     </g>
     <g id="text_6">
      <!-- 250 -->
      <g transform="translate(586.968761 463.158437)scale(0.1 -0.1)">
       <use xlink:href="#DejaVuSans-32"/>
       <use x="63.623047" xlink:href="#DejaVuSans-35"/>
       <use x="127.246094" xlink:href="#DejaVuSans-30"/>
      </g>
     </g>
    </g>
    <g id="xtick_7">
     <g id="line2d_7">
      <g>
       <use style="stroke:#000000;stroke-width:0.8;" x="686.301849" xlink:href="#mb38f97b526" y="448.56"/>
      </g>
     </g>
     <g id="text_7">
      <!-- 300 -->
      <defs>
       <path d="M 40.578125 39.3125 
Q 47.65625 37.796875 51.625 33 
Q 55.609375 28.21875 55.609375 21.1875 
Q 55.609375 10.40625 48.1875 4.484375 
Q 40.765625 -1.421875 27.09375 -1.421875 
Q 22.515625 -1.421875 17.65625 -0.515625 
Q 12.796875 0.390625 7.625 2.203125 
L 7.625 11.71875 
Q 11.71875 9.328125 16.59375 8.109375 
Q 21.484375 6.890625 26.8125 6.890625 
Q 36.078125 6.890625 40.9375 10.546875 
Q 45.796875 14.203125 45.796875 21.1875 
Q 45.796875 27.640625 41.28125 31.265625 
Q 36.765625 34.90625 28.71875 34.90625 
L 20.21875 34.90625 
L 20.21875 43.015625 
L 29.109375 43.015625 
Q 36.375 43.015625 40.234375 45.921875 
Q 44.09375 48.828125 44.09375 54.296875 
Q 44.09375 59.90625 40.109375 62.90625 
Q 36.140625 65.921875 28.71875 65.921875 
Q 24.65625 65.921875 20.015625 65.03125 
Q 15.375 64.15625 9.8125 62.3125 
L 9.8125 71.09375 
Q 15.4375 72.65625 20.34375 73.4375 
Q 25.25 74.21875 29.59375 74.21875 
Q 40.828125 74.21875 47.359375 69.109375 
Q 53.90625 64.015625 53.90625 55.328125 
Q 53.90625 49.265625 50.4375 45.09375 
Q 46.96875 40.921875 40.578125 39.3125 
z
" id="DejaVuSans-33"/>
      </defs>
      <g transform="translate(676.758099 463.158437)scale(0.1 -0.1)">
       <use xlink:href="#DejaVuSans-33"/>
       <use x="63.623047" xlink:href="#DejaVuSans-30"/>
       <use x="127.246094" xlink:href="#DejaVuSans-30"/>
      </g>
     </g>
    </g>
    <g id="xtick_8">
     <g id="line2d_8">
      <g>
       <use style="stroke:#000000;stroke-width:0.8;" x="776.091187" xlink:href="#mb38f97b526" y="448.56"/>
      </g>
     </g>
     <g id="text_8">
      <!-- 350 -->
      <g transform="translate(766.547437 463.158437)scale(0.1 -0.1)">
       <use xlink:href="#DejaVuSans-33"/>
       <use x="63.623047" xlink:href="#DejaVuSans-35"/>
       <use x="127.246094" xlink:href="#DejaVuSans-30"/>
      </g>
     </g>
    </g>
    <g id="xtick_9">
     <g id="line2d_9">
      <g>
       <use style="stroke:#000000;stroke-width:0.8;" x="865.880525" xlink:href="#mb38f97b526" y="448.56"/>
      </g>
     </g>
     <g id="text_9">
      <!-- 400 -->
      <defs>
       <path d="M 37.796875 64.3125 
L 12.890625 25.390625 
L 37.796875 25.390625 
z
M 35.203125 72.90625 
L 47.609375 72.90625 
L 47.609375 25.390625 
L 58.015625 25.390625 
L 58.015625 17.1875 
L 47.609375 17.1875 
L 47.609375 0 
L 37.796875 0 
L 37.796875 17.1875 
L 4.890625 17.1875 
L 4.890625 26.703125 
z
" id="DejaVuSans-34"/>
      </defs>
      <g transform="translate(856.336775 463.158437)scale(0.1 -0.1)">
       <use xlink:href="#DejaVuSans-34"/>
       <use x="63.623047" xlink:href="#DejaVuSans-30"/>
       <use x="127.246094" xlink:href="#DejaVuSans-30"/>
      </g>
     </g>
    </g>
    <g id="text_10">
     <!-- length of chunk in sentences -->
     <defs>
      <path d="M 9.421875 75.984375 
L 18.40625 75.984375 
L 18.40625 0 
L 9.421875 0 
z
" id="DejaVuSans-6c"/>
      <path d="M 56.203125 29.59375 
L 56.203125 25.203125 
L 14.890625 25.203125 
Q 15.484375 15.921875 20.484375 11.0625 
Q 25.484375 6.203125 34.421875 6.203125 
Q 39.59375 6.203125 44.453125 7.46875 
Q 49.3125 8.734375 54.109375 11.28125 
L 54.109375 2.78125 
Q 49.265625 0.734375 44.1875 -0.34375 
Q 39.109375 -1.421875 33.890625 -1.421875 
Q 20.796875 -1.421875 13.15625 6.1875 
Q 5.515625 13.8125 5.515625 26.8125 
Q 5.515625 40.234375 12.765625 48.109375 
Q 20.015625 56 32.328125 56 
Q 43.359375 56 49.78125 48.890625 
Q 56.203125 41.796875 56.203125 29.59375 
z
M 47.21875 32.234375 
Q 47.125 39.59375 43.09375 43.984375 
Q 39.0625 48.390625 32.421875 48.390625 
Q 24.90625 48.390625 20.390625 44.140625 
Q 15.875 39.890625 15.1875 32.171875 
z
" id="DejaVuSans-65"/>
      <path d="M 54.890625 33.015625 
L 54.890625 0 
L 45.90625 0 
L 45.90625 32.71875 
Q 45.90625 40.484375 42.875 44.328125 
Q 39.84375 48.1875 33.796875 48.1875 
Q 26.515625 48.1875 22.3125 43.546875 
Q 18.109375 38.921875 18.109375 30.90625 
L 18.109375 0 
L 9.078125 0 
L 9.078125 54.6875 
L 18.109375 54.6875 
L 18.109375 46.1875 
Q 21.34375 51.125 25.703125 53.5625 
Q 30.078125 56 35.796875 56 
Q 45.21875 56 50.046875 50.171875 
Q 54.890625 44.34375 54.890625 33.015625 
z
" id="DejaVuSans-6e"/>
      <path d="M 45.40625 27.984375 
Q 45.40625 37.75 41.375 43.109375 
Q 37.359375 48.484375 30.078125 48.484375 
Q 22.859375 48.484375 18.828125 43.109375 
Q 14.796875 37.75 14.796875 27.984375 
Q 14.796875 18.265625 18.828125 12.890625 
Q 22.859375 7.515625 30.078125 7.515625 
Q 37.359375 7.515625 41.375 12.890625 
Q 45.40625 18.265625 45.40625 27.984375 
z
M 54.390625 6.78125 
Q 54.390625 -7.171875 48.1875 -13.984375 
Q 42 -20.796875 29.203125 -20.796875 
Q 24.46875 -20.796875 20.265625 -20.09375 
Q 16.0625 -19.390625 12.109375 -17.921875 
L 12.109375 -9.1875 
Q 16.0625 -11.328125 19.921875 -12.34375 
Q 23.78125 -13.375 27.78125 -13.375 
Q 36.625 -13.375 41.015625 -8.765625 
Q 45.40625 -4.15625 45.40625 5.171875 
L 45.40625 9.625 
Q 42.625 4.78125 38.28125 2.390625 
Q 33.9375 0 27.875 0 
Q 17.828125 0 11.671875 7.65625 
Q 5.515625 15.328125 5.515625 27.984375 
Q 5.515625 40.671875 11.671875 48.328125 
Q 17.828125 56 27.875 56 
Q 33.9375 56 38.28125 53.609375 
Q 42.625 51.21875 45.40625 46.390625 
L 45.40625 54.6875 
L 54.390625 54.6875 
z
" id="DejaVuSans-67"/>
      <path d="M 18.3125 70.21875 
L 18.3125 54.6875 
L 36.8125 54.6875 
L 36.8125 47.703125 
L 18.3125 47.703125 
L 18.3125 18.015625 
Q 18.3125 11.328125 20.140625 9.421875 
Q 21.96875 7.515625 27.59375 7.515625 
L 36.8125 7.515625 
L 36.8125 0 
L 27.59375 0 
Q 17.1875 0 13.234375 3.875 
Q 9.28125 7.765625 9.28125 18.015625 
L 9.28125 47.703125 
L 2.6875 47.703125 
L 2.6875 54.6875 
L 9.28125 54.6875 
L 9.28125 70.21875 
z
" id="DejaVuSans-74"/>
      <path d="M 54.890625 33.015625 
L 54.890625 0 
L 45.90625 0 
L 45.90625 32.71875 
Q 45.90625 40.484375 42.875 44.328125 
Q 39.84375 48.1875 33.796875 48.1875 
Q 26.515625 48.1875 22.3125 43.546875 
Q 18.109375 38.921875 18.109375 30.90625 
L 18.109375 0 
L 9.078125 0 
L 9.078125 75.984375 
L 18.109375 75.984375 
L 18.109375 46.1875 
Q 21.34375 51.125 25.703125 53.5625 
Q 30.078125 56 35.796875 56 
Q 45.21875 56 50.046875 50.171875 
Q 54.890625 44.34375 54.890625 33.015625 
z
" id="DejaVuSans-68"/>
      <path id="DejaVuSans-20"/>
      <path d="M 30.609375 48.390625 
Q 23.390625 48.390625 19.1875 42.75 
Q 14.984375 37.109375 14.984375 27.296875 
Q 14.984375 17.484375 19.15625 11.84375 
Q 23.34375 6.203125 30.609375 6.203125 
Q 37.796875 6.203125 41.984375 11.859375 
Q 46.1875 17.53125 46.1875 27.296875 
Q 46.1875 37.015625 41.984375 42.703125 
Q 37.796875 48.390625 30.609375 48.390625 
z
M 30.609375 56 
Q 42.328125 56 49.015625 48.375 
Q 55.71875 40.765625 55.71875 27.296875 
Q 55.71875 13.875 49.015625 6.21875 
Q 42.328125 -1.421875 30.609375 -1.421875 
Q 18.84375 -1.421875 12.171875 6.21875 
Q 5.515625 13.875 5.515625 27.296875 
Q 5.515625 40.765625 12.171875 48.375 
Q 18.84375 56 30.609375 56 
z
" id="DejaVuSans-6f"/>
      <path d="M 37.109375 75.984375 
L 37.109375 68.5 
L 28.515625 68.5 
Q 23.6875 68.5 21.796875 66.546875 
Q 19.921875 64.59375 19.921875 59.515625 
L 19.921875 54.6875 
L 34.71875 54.6875 
L 34.71875 47.703125 
L 19.921875 47.703125 
L 19.921875 0 
L 10.890625 0 
L 10.890625 47.703125 
L 2.296875 47.703125 
L 2.296875 54.6875 
L 10.890625 54.6875 
L 10.890625 58.5 
Q 10.890625 67.625 15.140625 71.796875 
Q 19.390625 75.984375 28.609375 75.984375 
z
" id="DejaVuSans-66"/>
      <path d="M 48.78125 52.59375 
L 48.78125 44.1875 
Q 44.96875 46.296875 41.140625 47.34375 
Q 37.3125 48.390625 33.40625 48.390625 
Q 24.65625 48.390625 19.8125 42.84375 
Q 14.984375 37.3125 14.984375 27.296875 
Q 14.984375 17.28125 19.8125 11.734375 
Q 24.65625 6.203125 33.40625 6.203125 
Q 37.3125 6.203125 41.140625 7.25 
Q 44.96875 8.296875 48.78125 10.40625 
L 48.78125 2.09375 
Q 45.015625 0.34375 40.984375 -0.53125 
Q 36.96875 -1.421875 32.421875 -1.421875 
Q 20.0625 -1.421875 12.78125 6.34375 
Q 5.515625 14.109375 5.515625 27.296875 
Q 5.515625 40.671875 12.859375 48.328125 
Q 20.21875 56 33.015625 56 
Q 37.15625 56 41.109375 55.140625 
Q 45.0625 54.296875 48.78125 52.59375 
z
" id="DejaVuSans-63"/>
      <path d="M 8.5 21.578125 
L 8.5 54.6875 
L 17.484375 54.6875 
L 17.484375 21.921875 
Q 17.484375 14.15625 20.5 10.265625 
Q 23.53125 6.390625 29.59375 6.390625 
Q 36.859375 6.390625 41.078125 11.03125 
Q 45.3125 15.671875 45.3125 23.6875 
L 45.3125 54.6875 
L 54.296875 54.6875 
L 54.296875 0 
L 45.3125 0 
L 45.3125 8.40625 
Q 42.046875 3.421875 37.71875 1 
Q 33.40625 -1.421875 27.6875 -1.421875 
Q 18.265625 -1.421875 13.375 4.4375 
Q 8.5 10.296875 8.5 21.578125 
z
M 31.109375 56 
z
" id="DejaVuSans-75"/>
      <path d="M 9.078125 75.984375 
L 18.109375 75.984375 
L 18.109375 31.109375 
L 44.921875 54.6875 
L 56.390625 54.6875 
L 27.390625 29.109375 
L 57.625 0 
L 45.90625 0 
L 18.109375 26.703125 
L 18.109375 0 
L 9.078125 0 
z
" id="DejaVuSans-6b"/>
      <path d="M 9.421875 54.6875 
L 18.40625 54.6875 
L 18.40625 0 
L 9.421875 0 
z
M 9.421875 75.984375 
L 18.40625 75.984375 
L 18.40625 64.59375 
L 9.421875 64.59375 
z
" id="DejaVuSans-69"/>
      <path d="M 44.28125 53.078125 
L 44.28125 44.578125 
Q 40.484375 46.53125 36.375 47.5 
Q 32.28125 48.484375 27.875 48.484375 
Q 21.1875 48.484375 17.84375 46.4375 
Q 14.5 44.390625 14.5 40.28125 
Q 14.5 37.15625 16.890625 35.375 
Q 19.28125 33.59375 26.515625 31.984375 
L 29.59375 31.296875 
Q 39.15625 29.25 43.1875 25.515625 
Q 47.21875 21.78125 47.21875 15.09375 
Q 47.21875 7.46875 41.1875 3.015625 
Q 35.15625 -1.421875 24.609375 -1.421875 
Q 20.21875 -1.421875 15.453125 -0.5625 
Q 10.6875 0.296875 5.421875 2 
L 5.421875 11.28125 
Q 10.40625 8.6875 15.234375 7.390625 
Q 20.0625 6.109375 24.8125 6.109375 
Q 31.15625 6.109375 34.5625 8.28125 
Q 37.984375 10.453125 37.984375 14.40625 
Q 37.984375 18.0625 35.515625 20.015625 
Q 33.0625 21.96875 24.703125 23.78125 
L 21.578125 24.515625 
Q 13.234375 26.265625 9.515625 29.90625 
Q 5.8125 33.546875 5.8125 39.890625 
Q 5.8125 47.609375 11.28125 51.796875 
Q 16.75 56 26.8125 56 
Q 31.78125 56 36.171875 55.265625 
Q 40.578125 54.546875 44.28125 53.078125 
z
" id="DejaVuSans-73"/>
     </defs>
     <g transform="translate(444.292188 476.836563)scale(0.1 -0.1)">
      <use xlink:href="#DejaVuSans-6c"/>
      <use x="27.783203" xlink:href="#DejaVuSans-65"/>
      <use x="89.306641" xlink:href="#DejaVuSans-6e"/>
      <use x="152.685547" xlink:href="#DejaVuSans-67"/>
      <use x="216.162109" xlink:href="#DejaVuSans-74"/>
      <use x="255.371094" xlink:href="#DejaVuSans-68"/>
      <use x="318.75" xlink:href="#DejaVuSans-20"/>
      <use x="350.537109" xlink:href="#DejaVuSans-6f"/>
      <use x="411.71875" xlink:href="#DejaVuSans-66"/>
      <use x="446.923828" xlink:href="#DejaVuSans-20"/>
      <use x="478.710938" xlink:href="#DejaVuSans-63"/>
      <use x="533.691406" xlink:href="#DejaVuSans-68"/>
      <use x="597.070312" xlink:href="#DejaVuSans-75"/>
      <use x="660.449219" xlink:href="#DejaVuSans-6e"/>
      <use x="723.828125" xlink:href="#DejaVuSans-6b"/>
      <use x="781.738281" xlink:href="#DejaVuSans-20"/>
      <use x="813.525391" xlink:href="#DejaVuSans-69"/>
      <use x="841.308594" xlink:href="#DejaVuSans-6e"/>
      <use x="904.6875" xlink:href="#DejaVuSans-20"/>
      <use x="936.474609" xlink:href="#DejaVuSans-73"/>
      <use x="988.574219" xlink:href="#DejaVuSans-65"/>
      <use x="1050.097656" xlink:href="#DejaVuSans-6e"/>
      <use x="1113.476562" xlink:href="#DejaVuSans-74"/>
      <use x="1152.685547" xlink:href="#DejaVuSans-65"/>
      <use x="1214.208984" xlink:href="#DejaVuSans-6e"/>
      <use x="1277.587891" xlink:href="#DejaVuSans-63"/>
      <use x="1332.568359" xlink:href="#DejaVuSans-65"/>
      <use x="1394.091797" xlink:href="#DejaVuSans-73"/>
     </g>
    </g>
   </g>
   <g id="matplotlib.axis_2">
    <g id="ytick_1">
     <g id="line2d_10">
      <defs>
       <path d="M 0 0 
L -3.5 0 
" id="m2675da6912" style="stroke:#000000;stroke-width:0.8;"/>
      </defs>
      <g>
       <use style="stroke:#000000;stroke-width:0.8;" x="126" xlink:href="#m2675da6912" y="415.475323"/>
      </g>
     </g>
     <g id="text_11">
      <!-- 10 -->
      <g transform="translate(106.275 419.274542)scale(0.1 -0.1)">
       <use xlink:href="#DejaVuSans-31"/>
       <use x="63.623047" xlink:href="#DejaVuSans-30"/>
      </g>
     </g>
    </g>
    <g id="ytick_2">
     <g id="line2d_11">
      <g>
       <use style="stroke:#000000;stroke-width:0.8;" x="126" xlink:href="#m2675da6912" y="360.39518"/>
      </g>
     </g>
     <g id="text_12">
      <!-- 12 -->
      <g transform="translate(106.275 364.194399)scale(0.1 -0.1)">
       <use xlink:href="#DejaVuSans-31"/>
       <use x="63.623047" xlink:href="#DejaVuSans-32"/>
      </g>
     </g>
    </g>
    <g id="ytick_3">
     <g id="line2d_12">
      <g>
       <use style="stroke:#000000;stroke-width:0.8;" x="126" xlink:href="#m2675da6912" y="305.315038"/>
      </g>
     </g>
     <g id="text_13">
      <!-- 14 -->
      <g transform="translate(106.275 309.114256)scale(0.1 -0.1)">
       <use xlink:href="#DejaVuSans-31"/>
       <use x="63.623047" xlink:href="#DejaVuSans-34"/>
      </g>
     </g>
    </g>
    <g id="ytick_4">
     <g id="line2d_13">
      <g>
       <use style="stroke:#000000;stroke-width:0.8;" x="126" xlink:href="#m2675da6912" y="250.234895"/>
      </g>
     </g>
     <g id="text_14">
      <!-- 16 -->
      <defs>
       <path d="M 33.015625 40.375 
Q 26.375 40.375 22.484375 35.828125 
Q 18.609375 31.296875 18.609375 23.390625 
Q 18.609375 15.53125 22.484375 10.953125 
Q 26.375 6.390625 33.015625 6.390625 
Q 39.65625 6.390625 43.53125 10.953125 
Q 47.40625 15.53125 47.40625 23.390625 
Q 47.40625 31.296875 43.53125 35.828125 
Q 39.65625 40.375 33.015625 40.375 
z
M 52.59375 71.296875 
L 52.59375 62.3125 
Q 48.875 64.0625 45.09375 64.984375 
Q 41.3125 65.921875 37.59375 65.921875 
Q 27.828125 65.921875 22.671875 59.328125 
Q 17.53125 52.734375 16.796875 39.40625 
Q 19.671875 43.65625 24.015625 45.921875 
Q 28.375 48.1875 33.59375 48.1875 
Q 44.578125 48.1875 50.953125 41.515625 
Q 57.328125 34.859375 57.328125 23.390625 
Q 57.328125 12.15625 50.6875 5.359375 
Q 44.046875 -1.421875 33.015625 -1.421875 
Q 20.359375 -1.421875 13.671875 8.265625 
Q 6.984375 17.96875 6.984375 36.375 
Q 6.984375 53.65625 15.1875 63.9375 
Q 23.390625 74.21875 37.203125 74.21875 
Q 40.921875 74.21875 44.703125 73.484375 
Q 48.484375 72.75 52.59375 71.296875 
z
" id="DejaVuSans-36"/>
      </defs>
      <g transform="translate(106.275 254.034114)scale(0.1 -0.1)">
       <use xlink:href="#DejaVuSans-31"/>
       <use x="63.623047" xlink:href="#DejaVuSans-36"/>
      </g>
     </g>
    </g>
    <g id="ytick_5">
     <g id="line2d_14">
      <g>
       <use style="stroke:#000000;stroke-width:0.8;" x="126" xlink:href="#m2675da6912" y="195.154752"/>
      </g>
     </g>
     <g id="text_15">
      <!-- 18 -->
      <defs>
       <path d="M 31.78125 34.625 
Q 24.75 34.625 20.71875 30.859375 
Q 16.703125 27.09375 16.703125 20.515625 
Q 16.703125 13.921875 20.71875 10.15625 
Q 24.75 6.390625 31.78125 6.390625 
Q 38.8125 6.390625 42.859375 10.171875 
Q 46.921875 13.96875 46.921875 20.515625 
Q 46.921875 27.09375 42.890625 30.859375 
Q 38.875 34.625 31.78125 34.625 
z
M 21.921875 38.8125 
Q 15.578125 40.375 12.03125 44.71875 
Q 8.5 49.078125 8.5 55.328125 
Q 8.5 64.0625 14.71875 69.140625 
Q 20.953125 74.21875 31.78125 74.21875 
Q 42.671875 74.21875 48.875 69.140625 
Q 55.078125 64.0625 55.078125 55.328125 
Q 55.078125 49.078125 51.53125 44.71875 
Q 48 40.375 41.703125 38.8125 
Q 48.828125 37.15625 52.796875 32.3125 
Q 56.78125 27.484375 56.78125 20.515625 
Q 56.78125 9.90625 50.3125 4.234375 
Q 43.84375 -1.421875 31.78125 -1.421875 
Q 19.734375 -1.421875 13.25 4.234375 
Q 6.78125 9.90625 6.78125 20.515625 
Q 6.78125 27.484375 10.78125 32.3125 
Q 14.796875 37.15625 21.921875 38.8125 
z
M 18.3125 54.390625 
Q 18.3125 48.734375 21.84375 45.5625 
Q 25.390625 42.390625 31.78125 42.390625 
Q 38.140625 42.390625 41.71875 45.5625 
Q 45.3125 48.734375 45.3125 54.390625 
Q 45.3125 60.0625 41.71875 63.234375 
Q 38.140625 66.40625 31.78125 66.40625 
Q 25.390625 66.40625 21.84375 63.234375 
Q 18.3125 60.0625 18.3125 54.390625 
z
" id="DejaVuSans-38"/>
      </defs>
      <g transform="translate(106.275 198.953971)scale(0.1 -0.1)">
       <use xlink:href="#DejaVuSans-31"/>
       <use x="63.623047" xlink:href="#DejaVuSans-38"/>
      </g>
     </g>
    </g>
    <g id="ytick_6">
     <g id="line2d_15">
      <g>
       <use style="stroke:#000000;stroke-width:0.8;" x="126" xlink:href="#m2675da6912" y="140.074609"/>
      </g>
     </g>
     <g id="text_16">
      <!-- 20 -->
      <g transform="translate(106.275 143.873828)scale(0.1 -0.1)">
       <use xlink:href="#DejaVuSans-32"/>
       <use x="63.623047" xlink:href="#DejaVuSans-30"/>
      </g>
     </g>
    </g>
    <g id="ytick_7">
     <g id="line2d_16">
      <g>
       <use style="stroke:#000000;stroke-width:0.8;" x="126" xlink:href="#m2675da6912" y="84.994467"/>
      </g>
     </g>
     <g id="text_17">
      <!-- 22 -->
      <g transform="translate(106.275 88.793686)scale(0.1 -0.1)">
       <use xlink:href="#DejaVuSans-32"/>
       <use x="63.623047" xlink:href="#DejaVuSans-32"/>
      </g>
     </g>
    </g>
    <g id="text_18">
     <!-- GFI -->
     <defs>
      <path d="M 59.515625 10.40625 
L 59.515625 29.984375 
L 43.40625 29.984375 
L 43.40625 38.09375 
L 69.28125 38.09375 
L 69.28125 6.78125 
Q 63.578125 2.734375 56.6875 0.65625 
Q 49.8125 -1.421875 42 -1.421875 
Q 24.90625 -1.421875 15.25 8.5625 
Q 5.609375 18.5625 5.609375 36.375 
Q 5.609375 54.25 15.25 64.234375 
Q 24.90625 74.21875 42 74.21875 
Q 49.125 74.21875 55.546875 72.453125 
Q 61.96875 70.703125 67.390625 67.28125 
L 67.390625 56.78125 
Q 61.921875 61.421875 55.765625 63.765625 
Q 49.609375 66.109375 42.828125 66.109375 
Q 29.4375 66.109375 22.71875 58.640625 
Q 16.015625 51.171875 16.015625 36.375 
Q 16.015625 21.625 22.71875 14.15625 
Q 29.4375 6.6875 42.828125 6.6875 
Q 48.046875 6.6875 52.140625 7.59375 
Q 56.25 8.5 59.515625 10.40625 
z
" id="DejaVuSans-47"/>
      <path d="M 9.8125 72.90625 
L 51.703125 72.90625 
L 51.703125 64.59375 
L 19.671875 64.59375 
L 19.671875 43.109375 
L 48.578125 43.109375 
L 48.578125 34.8125 
L 19.671875 34.8125 
L 19.671875 0 
L 9.8125 0 
z
" id="DejaVuSans-46"/>
      <path d="M 9.8125 72.90625 
L 19.671875 72.90625 
L 19.671875 0 
L 9.8125 0 
z
" id="DejaVuSans-49"/>
     </defs>
     <g transform="translate(100.195312 262.745)rotate(-90)scale(0.1 -0.1)">
      <use xlink:href="#DejaVuSans-47"/>
      <use x="77.490234" xlink:href="#DejaVuSans-46"/>
      <use x="135.009766" xlink:href="#DejaVuSans-49"/>
     </g>
    </g>
   </g>
   <g id="line2d_17">
    <path clip-path="url(#p54040f0461)" d="M 165.523688 210.305193 
L 183.481555 210.980735 
L 201.439423 209.031193 
L 219.397291 210.235351 
L 237.355158 207.99531 
L 282.249827 207.442444 
L 327.144496 208.139896 
L 416.933835 206.78217 
L 506.723173 202.708994 
L 596.512511 205.856824 
L 686.301849 206.72709 
L 768.90804 209.987835 
" style="fill:none;stroke:#ffa500;stroke-linecap:square;stroke-width:1.5;"/>
   </g>
   <g id="line2d_18">
    <path clip-path="url(#p54040f0461)" d="M 165.523688 246.10175 
L 183.481555 249.503568 
L 201.439423 247.624732 
L 219.397291 249.214811 
L 237.355158 249.512312 
L 282.249827 248.642528 
L 327.144496 249.427282 
L 416.933835 246.376531 
L 506.723173 248.634817 
L 596.512511 247.345941 
L 686.301849 245.638457 
L 776.091187 245.387842 
L 865.880525 248.51364 
L 867.676312 247.442332 
" style="fill:none;stroke:#008000;stroke-linecap:square;stroke-width:1.5;"/>
   </g>
   <g id="patch_3">
    <path d="M 126 448.56 
L 126 60.48 
" style="fill:none;stroke:#000000;stroke-linecap:square;stroke-linejoin:miter;stroke-width:0.8;"/>
   </g>
   <g id="patch_4">
    <path d="M 907.2 448.56 
L 907.2 60.48 
" style="fill:none;stroke:#000000;stroke-linecap:square;stroke-linejoin:miter;stroke-width:0.8;"/>
   </g>
   <g id="patch_5">
    <path d="M 126 448.56 
L 907.2 448.56 
" style="fill:none;stroke:#000000;stroke-linecap:square;stroke-linejoin:miter;stroke-width:0.8;"/>
   </g>
   <g id="patch_6">
    <path d="M 126 60.48 
L 907.2 60.48 
" style="fill:none;stroke:#000000;stroke-linecap:square;stroke-linejoin:miter;stroke-width:0.8;"/>
   </g>
   <g id="legend_1">
    <g id="patch_7">
     <path d="M 690.170313 97.83625 
L 900.2 97.83625 
Q 902.2 97.83625 902.2 95.83625 
L 902.2 67.48 
Q 902.2 65.48 900.2 65.48 
L 690.170313 65.48 
Q 688.170313 65.48 688.170313 67.48 
L 688.170313 95.83625 
Q 688.170313 97.83625 690.170313 97.83625 
z
" style="fill:#ffffff;opacity:0.8;stroke:#cccccc;stroke-linejoin:miter;"/>
    </g>
    <g id="PathCollection_3">
     <g>
      <use style="fill:#ffa500;stroke:#ffa500;" x="702.170313" xlink:href="#mc701e38f92" y="74.453438"/>
     </g>
    </g>
    <g id="text_19">
     <!-- with ";" and ":" not end of sentence -->
     <defs>
      <path d="M 4.203125 54.6875 
L 13.1875 54.6875 
L 24.421875 12.015625 
L 35.59375 54.6875 
L 46.1875 54.6875 
L 57.421875 12.015625 
L 68.609375 54.6875 
L 77.59375 54.6875 
L 63.28125 0 
L 52.6875 0 
L 40.921875 44.828125 
L 29.109375 0 
L 18.5 0 
z
" id="DejaVuSans-77"/>
      <path d="M 17.921875 72.90625 
L 17.921875 45.796875 
L 9.625 45.796875 
L 9.625 72.90625 
z
M 36.375 72.90625 
L 36.375 45.796875 
L 28.078125 45.796875 
L 28.078125 72.90625 
z
" id="DejaVuSans-22"/>
      <path d="M 11.71875 51.703125 
L 22.015625 51.703125 
L 22.015625 39.3125 
L 11.71875 39.3125 
z
M 11.71875 12.40625 
L 22.015625 12.40625 
L 22.015625 4 
L 14.015625 -11.625 
L 7.71875 -11.625 
L 11.71875 4 
z
" id="DejaVuSans-3b"/>
      <path d="M 34.28125 27.484375 
Q 23.390625 27.484375 19.1875 25 
Q 14.984375 22.515625 14.984375 16.5 
Q 14.984375 11.71875 18.140625 8.90625 
Q 21.296875 6.109375 26.703125 6.109375 
Q 34.1875 6.109375 38.703125 11.40625 
Q 43.21875 16.703125 43.21875 25.484375 
L 43.21875 27.484375 
z
M 52.203125 31.203125 
L 52.203125 0 
L 43.21875 0 
L 43.21875 8.296875 
Q 40.140625 3.328125 35.546875 0.953125 
Q 30.953125 -1.421875 24.3125 -1.421875 
Q 15.921875 -1.421875 10.953125 3.296875 
Q 6 8.015625 6 15.921875 
Q 6 25.140625 12.171875 29.828125 
Q 18.359375 34.515625 30.609375 34.515625 
L 43.21875 34.515625 
L 43.21875 35.40625 
Q 43.21875 41.609375 39.140625 45 
Q 35.0625 48.390625 27.6875 48.390625 
Q 23 48.390625 18.546875 47.265625 
Q 14.109375 46.140625 10.015625 43.890625 
L 10.015625 52.203125 
Q 14.9375 54.109375 19.578125 55.046875 
Q 24.21875 56 28.609375 56 
Q 40.484375 56 46.34375 49.84375 
Q 52.203125 43.703125 52.203125 31.203125 
z
" id="DejaVuSans-61"/>
      <path d="M 45.40625 46.390625 
L 45.40625 75.984375 
L 54.390625 75.984375 
L 54.390625 0 
L 45.40625 0 
L 45.40625 8.203125 
Q 42.578125 3.328125 38.25 0.953125 
Q 33.9375 -1.421875 27.875 -1.421875 
Q 17.96875 -1.421875 11.734375 6.484375 
Q 5.515625 14.40625 5.515625 27.296875 
Q 5.515625 40.1875 11.734375 48.09375 
Q 17.96875 56 27.875 56 
Q 33.9375 56 38.25 53.625 
Q 42.578125 51.265625 45.40625 46.390625 
z
M 14.796875 27.296875 
Q 14.796875 17.390625 18.875 11.75 
Q 22.953125 6.109375 30.078125 6.109375 
Q 37.203125 6.109375 41.296875 11.75 
Q 45.40625 17.390625 45.40625 27.296875 
Q 45.40625 37.203125 41.296875 42.84375 
Q 37.203125 48.484375 30.078125 48.484375 
Q 22.953125 48.484375 18.875 42.84375 
Q 14.796875 37.203125 14.796875 27.296875 
z
" id="DejaVuSans-64"/>
      <path d="M 11.71875 12.40625 
L 22.015625 12.40625 
L 22.015625 0 
L 11.71875 0 
z
M 11.71875 51.703125 
L 22.015625 51.703125 
L 22.015625 39.3125 
L 11.71875 39.3125 
z
" id="DejaVuSans-3a"/>
     </defs>
     <g transform="translate(720.170313 77.078438)scale(0.1 -0.1)">
      <use xlink:href="#DejaVuSans-77"/>
      <use x="81.787109" xlink:href="#DejaVuSans-69"/>
      <use x="109.570312" xlink:href="#DejaVuSans-74"/>
      <use x="148.779297" xlink:href="#DejaVuSans-68"/>
      <use x="212.158203" xlink:href="#DejaVuSans-20"/>
      <use x="243.945312" xlink:href="#DejaVuSans-22"/>
      <use x="289.941406" xlink:href="#DejaVuSans-3b"/>
      <use x="323.632812" xlink:href="#DejaVuSans-22"/>
      <use x="369.628906" xlink:href="#DejaVuSans-20"/>
      <use x="401.416016" xlink:href="#DejaVuSans-61"/>
      <use x="462.695312" xlink:href="#DejaVuSans-6e"/>
      <use x="526.074219" xlink:href="#DejaVuSans-64"/>
      <use x="589.550781" xlink:href="#DejaVuSans-20"/>
      <use x="621.337891" xlink:href="#DejaVuSans-22"/>
      <use x="667.333984" xlink:href="#DejaVuSans-3a"/>
      <use x="701.025391" xlink:href="#DejaVuSans-22"/>
      <use x="747.021484" xlink:href="#DejaVuSans-20"/>
      <use x="778.808594" xlink:href="#DejaVuSans-6e"/>
      <use x="842.1875" xlink:href="#DejaVuSans-6f"/>
      <use x="903.369141" xlink:href="#DejaVuSans-74"/>
      <use x="942.578125" xlink:href="#DejaVuSans-20"/>
      <use x="974.365234" xlink:href="#DejaVuSans-65"/>
      <use x="1035.888672" xlink:href="#DejaVuSans-6e"/>
      <use x="1099.267578" xlink:href="#DejaVuSans-64"/>
      <use x="1162.744141" xlink:href="#DejaVuSans-20"/>
      <use x="1194.53125" xlink:href="#DejaVuSans-6f"/>
      <use x="1255.712891" xlink:href="#DejaVuSans-66"/>
      <use x="1290.917969" xlink:href="#DejaVuSans-20"/>
      <use x="1322.705078" xlink:href="#DejaVuSans-73"/>
      <use x="1374.804688" xlink:href="#DejaVuSans-65"/>
      <use x="1436.328125" xlink:href="#DejaVuSans-6e"/>
      <use x="1499.707031" xlink:href="#DejaVuSans-74"/>
      <use x="1538.916016" xlink:href="#DejaVuSans-65"/>
      <use x="1600.439453" xlink:href="#DejaVuSans-6e"/>
      <use x="1663.818359" xlink:href="#DejaVuSans-63"/>
      <use x="1718.798828" xlink:href="#DejaVuSans-65"/>
     </g>
    </g>
    <g id="PathCollection_4">
     <g>
      <use style="fill:#008000;stroke:#008000;" x="702.170313" xlink:href="#m6862c104f3" y="89.131563"/>
     </g>
    </g>
    <g id="text_20">
     <!-- with ";" and ":" end of sentence -->
     <g transform="translate(720.170313 91.756563)scale(0.1 -0.1)">
      <use xlink:href="#DejaVuSans-77"/>
      <use x="81.787109" xlink:href="#DejaVuSans-69"/>
      <use x="109.570312" xlink:href="#DejaVuSans-74"/>
      <use x="148.779297" xlink:href="#DejaVuSans-68"/>
      <use x="212.158203" xlink:href="#DejaVuSans-20"/>
      <use x="243.945312" xlink:href="#DejaVuSans-22"/>
      <use x="289.941406" xlink:href="#DejaVuSans-3b"/>
      <use x="323.632812" xlink:href="#DejaVuSans-22"/>
      <use x="369.628906" xlink:href="#DejaVuSans-20"/>
      <use x="401.416016" xlink:href="#DejaVuSans-61"/>
      <use x="462.695312" xlink:href="#DejaVuSans-6e"/>
      <use x="526.074219" xlink:href="#DejaVuSans-64"/>
      <use x="589.550781" xlink:href="#DejaVuSans-20"/>
      <use x="621.337891" xlink:href="#DejaVuSans-22"/>
      <use x="667.333984" xlink:href="#DejaVuSans-3a"/>
      <use x="701.025391" xlink:href="#DejaVuSans-22"/>
      <use x="747.021484" xlink:href="#DejaVuSans-20"/>
      <use x="778.808594" xlink:href="#DejaVuSans-65"/>
      <use x="840.332031" xlink:href="#DejaVuSans-6e"/>
      <use x="903.710938" xlink:href="#DejaVuSans-64"/>
      <use x="967.1875" xlink:href="#DejaVuSans-20"/>
      <use x="998.974609" xlink:href="#DejaVuSans-6f"/>
      <use x="1060.15625" xlink:href="#DejaVuSans-66"/>
      <use x="1095.361328" xlink:href="#DejaVuSans-20"/>
      <use x="1127.148438" xlink:href="#DejaVuSans-73"/>
      <use x="1179.248047" xlink:href="#DejaVuSans-65"/>
      <use x="1240.771484" xlink:href="#DejaVuSans-6e"/>
      <use x="1304.150391" xlink:href="#DejaVuSans-74"/>
      <use x="1343.359375" xlink:href="#DejaVuSans-65"/>
      <use x="1404.882812" xlink:href="#DejaVuSans-6e"/>
      <use x="1468.261719" xlink:href="#DejaVuSans-63"/>
      <use x="1523.242188" xlink:href="#DejaVuSans-65"/>
     </g>
    </g>
   </g>
  </g>
  <g id="text_21">
   <!-- Comparison of GFI values of the different chunk sizes of document en114417450.txt -->
   <defs>
    <path d="M 64.40625 67.28125 
L 64.40625 56.890625 
Q 59.421875 61.53125 53.78125 63.8125 
Q 48.140625 66.109375 41.796875 66.109375 
Q 29.296875 66.109375 22.65625 58.46875 
Q 16.015625 50.828125 16.015625 36.375 
Q 16.015625 21.96875 22.65625 14.328125 
Q 29.296875 6.6875 41.796875 6.6875 
Q 48.140625 6.6875 53.78125 8.984375 
Q 59.421875 11.28125 64.40625 15.921875 
L 64.40625 5.609375 
Q 59.234375 2.09375 53.4375 0.328125 
Q 47.65625 -1.421875 41.21875 -1.421875 
Q 24.65625 -1.421875 15.125 8.703125 
Q 5.609375 18.84375 5.609375 36.375 
Q 5.609375 53.953125 15.125 64.078125 
Q 24.65625 74.21875 41.21875 74.21875 
Q 47.75 74.21875 53.53125 72.484375 
Q 59.328125 70.75 64.40625 67.28125 
z
" id="DejaVuSans-43"/>
    <path d="M 52 44.1875 
Q 55.375 50.25 60.0625 53.125 
Q 64.75 56 71.09375 56 
Q 79.640625 56 84.28125 50.015625 
Q 88.921875 44.046875 88.921875 33.015625 
L 88.921875 0 
L 79.890625 0 
L 79.890625 32.71875 
Q 79.890625 40.578125 77.09375 44.375 
Q 74.3125 48.1875 68.609375 48.1875 
Q 61.625 48.1875 57.5625 43.546875 
Q 53.515625 38.921875 53.515625 30.90625 
L 53.515625 0 
L 44.484375 0 
L 44.484375 32.71875 
Q 44.484375 40.625 41.703125 44.40625 
Q 38.921875 48.1875 33.109375 48.1875 
Q 26.21875 48.1875 22.15625 43.53125 
Q 18.109375 38.875 18.109375 30.90625 
L 18.109375 0 
L 9.078125 0 
L 9.078125 54.6875 
L 18.109375 54.6875 
L 18.109375 46.1875 
Q 21.1875 51.21875 25.484375 53.609375 
Q 29.78125 56 35.6875 56 
Q 41.65625 56 45.828125 52.96875 
Q 50 49.953125 52 44.1875 
z
" id="DejaVuSans-6d"/>
    <path d="M 18.109375 8.203125 
L 18.109375 -20.796875 
L 9.078125 -20.796875 
L 9.078125 54.6875 
L 18.109375 54.6875 
L 18.109375 46.390625 
Q 20.953125 51.265625 25.265625 53.625 
Q 29.59375 56 35.59375 56 
Q 45.5625 56 51.78125 48.09375 
Q 58.015625 40.1875 58.015625 27.296875 
Q 58.015625 14.40625 51.78125 6.484375 
Q 45.5625 -1.421875 35.59375 -1.421875 
Q 29.59375 -1.421875 25.265625 0.953125 
Q 20.953125 3.328125 18.109375 8.203125 
z
M 48.6875 27.296875 
Q 48.6875 37.203125 44.609375 42.84375 
Q 40.53125 48.484375 33.40625 48.484375 
Q 26.265625 48.484375 22.1875 42.84375 
Q 18.109375 37.203125 18.109375 27.296875 
Q 18.109375 17.390625 22.1875 11.75 
Q 26.265625 6.109375 33.40625 6.109375 
Q 40.53125 6.109375 44.609375 11.75 
Q 48.6875 17.390625 48.6875 27.296875 
z
" id="DejaVuSans-70"/>
    <path d="M 41.109375 46.296875 
Q 39.59375 47.171875 37.8125 47.578125 
Q 36.03125 48 33.890625 48 
Q 26.265625 48 22.1875 43.046875 
Q 18.109375 38.09375 18.109375 28.8125 
L 18.109375 0 
L 9.078125 0 
L 9.078125 54.6875 
L 18.109375 54.6875 
L 18.109375 46.1875 
Q 20.953125 51.171875 25.484375 53.578125 
Q 30.03125 56 36.53125 56 
Q 37.453125 56 38.578125 55.875 
Q 39.703125 55.765625 41.0625 55.515625 
z
" id="DejaVuSans-72"/>
    <path d="M 2.984375 54.6875 
L 12.5 54.6875 
L 29.59375 8.796875 
L 46.6875 54.6875 
L 56.203125 54.6875 
L 35.6875 0 
L 23.484375 0 
z
" id="DejaVuSans-76"/>
    <path d="M 5.515625 54.6875 
L 48.1875 54.6875 
L 48.1875 46.484375 
L 14.40625 7.171875 
L 48.1875 7.171875 
L 48.1875 0 
L 4.296875 0 
L 4.296875 8.203125 
L 38.09375 47.515625 
L 5.515625 47.515625 
z
" id="DejaVuSans-7a"/>
    <path d="M 8.203125 72.90625 
L 55.078125 72.90625 
L 55.078125 68.703125 
L 28.609375 0 
L 18.3125 0 
L 43.21875 64.59375 
L 8.203125 64.59375 
z
" id="DejaVuSans-37"/>
    <path d="M 10.6875 12.40625 
L 21 12.40625 
L 21 0 
L 10.6875 0 
z
" id="DejaVuSans-2e"/>
    <path d="M 54.890625 54.6875 
L 35.109375 28.078125 
L 55.90625 0 
L 45.3125 0 
L 29.390625 21.484375 
L 13.484375 0 
L 2.875 0 
L 24.125 28.609375 
L 4.6875 54.6875 
L 15.28125 54.6875 
L 29.78125 35.203125 
L 44.28125 54.6875 
z
" id="DejaVuSans-78"/>
   </defs>
   <g transform="translate(207.185781 20.717812)scale(0.14 -0.14)">
    <use xlink:href="#DejaVuSans-43"/>
    <use x="69.824219" xlink:href="#DejaVuSans-6f"/>
    <use x="131.005859" xlink:href="#DejaVuSans-6d"/>
    <use x="228.417969" xlink:href="#DejaVuSans-70"/>
    <use x="291.894531" xlink:href="#DejaVuSans-61"/>
    <use x="353.173828" xlink:href="#DejaVuSans-72"/>
    <use x="394.287109" xlink:href="#DejaVuSans-69"/>
    <use x="422.070312" xlink:href="#DejaVuSans-73"/>
    <use x="474.169922" xlink:href="#DejaVuSans-6f"/>
    <use x="535.351562" xlink:href="#DejaVuSans-6e"/>
    <use x="598.730469" xlink:href="#DejaVuSans-20"/>
    <use x="630.517578" xlink:href="#DejaVuSans-6f"/>
    <use x="691.699219" xlink:href="#DejaVuSans-66"/>
    <use x="726.904297" xlink:href="#DejaVuSans-20"/>
    <use x="758.691406" xlink:href="#DejaVuSans-47"/>
    <use x="836.181641" xlink:href="#DejaVuSans-46"/>
    <use x="893.701172" xlink:href="#DejaVuSans-49"/>
    <use x="923.193359" xlink:href="#DejaVuSans-20"/>
    <use x="954.980469" xlink:href="#DejaVuSans-76"/>
    <use x="1014.160156" xlink:href="#DejaVuSans-61"/>
    <use x="1075.439453" xlink:href="#DejaVuSans-6c"/>
    <use x="1103.222656" xlink:href="#DejaVuSans-75"/>
    <use x="1166.601562" xlink:href="#DejaVuSans-65"/>
    <use x="1228.125" xlink:href="#DejaVuSans-73"/>
    <use x="1280.224609" xlink:href="#DejaVuSans-20"/>
    <use x="1312.011719" xlink:href="#DejaVuSans-6f"/>
    <use x="1373.193359" xlink:href="#DejaVuSans-66"/>
    <use x="1408.398438" xlink:href="#DejaVuSans-20"/>
    <use x="1440.185547" xlink:href="#DejaVuSans-74"/>
    <use x="1479.394531" xlink:href="#DejaVuSans-68"/>
    <use x="1542.773438" xlink:href="#DejaVuSans-65"/>
    <use x="1604.296875" xlink:href="#DejaVuSans-20"/>
    <use x="1636.083984" xlink:href="#DejaVuSans-64"/>
    <use x="1699.560547" xlink:href="#DejaVuSans-69"/>
    <use x="1727.34375" xlink:href="#DejaVuSans-66"/>
    <use x="1762.548828" xlink:href="#DejaVuSans-66"/>
    <use x="1797.753906" xlink:href="#DejaVuSans-65"/>
    <use x="1859.277344" xlink:href="#DejaVuSans-72"/>
    <use x="1900.359375" xlink:href="#DejaVuSans-65"/>
    <use x="1961.882812" xlink:href="#DejaVuSans-6e"/>
    <use x="2025.261719" xlink:href="#DejaVuSans-74"/>
    <use x="2064.470703" xlink:href="#DejaVuSans-20"/>
    <use x="2096.257812" xlink:href="#DejaVuSans-63"/>
    <use x="2151.238281" xlink:href="#DejaVuSans-68"/>
    <use x="2214.617188" xlink:href="#DejaVuSans-75"/>
    <use x="2277.996094" xlink:href="#DejaVuSans-6e"/>
    <use x="2341.375" xlink:href="#DejaVuSans-6b"/>
    <use x="2399.285156" xlink:href="#DejaVuSans-20"/>
    <use x="2431.072266" xlink:href="#DejaVuSans-73"/>
    <use x="2483.171875" xlink:href="#DejaVuSans-69"/>
    <use x="2510.955078" xlink:href="#DejaVuSans-7a"/>
    <use x="2563.445312" xlink:href="#DejaVuSans-65"/>
    <use x="2624.96875" xlink:href="#DejaVuSans-73"/>
    <use x="2677.068359" xlink:href="#DejaVuSans-20"/>
    <use x="2708.855469" xlink:href="#DejaVuSans-6f"/>
    <use x="2770.037109" xlink:href="#DejaVuSans-66"/>
    <use x="2805.242188" xlink:href="#DejaVuSans-20"/>
    <use x="2837.029297" xlink:href="#DejaVuSans-64"/>
    <use x="2900.505859" xlink:href="#DejaVuSans-6f"/>
    <use x="2961.6875" xlink:href="#DejaVuSans-63"/>
    <use x="3016.667969" xlink:href="#DejaVuSans-75"/>
    <use x="3080.046875" xlink:href="#DejaVuSans-6d"/>
    <use x="3177.458984" xlink:href="#DejaVuSans-65"/>
    <use x="3238.982422" xlink:href="#DejaVuSans-6e"/>
    <use x="3302.361328" xlink:href="#DejaVuSans-74"/>
    <use x="3341.570312" xlink:href="#DejaVuSans-20"/>
    <use x="3373.357422" xlink:href="#DejaVuSans-65"/>
    <use x="3434.880859" xlink:href="#DejaVuSans-6e"/>
    <use x="3498.259766" xlink:href="#DejaVuSans-31"/>
    <use x="3561.882812" xlink:href="#DejaVuSans-31"/>
    <use x="3625.505859" xlink:href="#DejaVuSans-34"/>
    <use x="3689.128906" xlink:href="#DejaVuSans-34"/>
    <use x="3752.751953" xlink:href="#DejaVuSans-31"/>
    <use x="3816.375" xlink:href="#DejaVuSans-37"/>
    <use x="3879.998047" xlink:href="#DejaVuSans-34"/>
    <use x="3943.621094" xlink:href="#DejaVuSans-35"/>
    <use x="4007.244141" xlink:href="#DejaVuSans-30"/>
    <use x="4070.867188" xlink:href="#DejaVuSans-2e"/>
    <use x="4102.654297" xlink:href="#DejaVuSans-74"/>
    <use x="4141.863281" xlink:href="#DejaVuSans-78"/>
    <use x="4201.042969" xlink:href="#DejaVuSans-74"/>
   </g>
  </g>
 </g>
 <defs>
  <clipPath id="p54040f0461">
   <rect height="388.08" width="781.2" x="126" y="60.48"/>
  </clipPath>
 </defs>
</svg>
