<?xml version="1.0" encoding="utf-8" standalone="no"?>
<!DOCTYPE svg PUBLIC "-//W3C//DTD SVG 1.1//EN"
  "http://www.w3.org/Graphics/SVG/1.1/DTD/svg11.dtd">
<!-- Created with matplotlib (http://matplotlib.org/) -->
<svg height="504pt" version="1.1" viewBox="0 0 1008 504" width="1008pt" xmlns="http://www.w3.org/2000/svg" xmlns:xlink="http://www.w3.org/1999/xlink">
 <defs>
  <style type="text/css">
*{stroke-linecap:butt;stroke-linejoin:round;}
  </style>
 </defs>
 <g id="figure_1">
  <g id="patch_1">
   <path d="M 0 504 
L 1008 504 
L 1008 0 
L 0 0 
z
" style="fill:#ffffff;"/>
  </g>
  <g id="axes_1">
   <g id="patch_2">
    <path d="M 126 448.56 
L 907.2 448.56 
L 907.2 60.48 
L 126 60.48 
z
" style="fill:#ffffff;"/>
   </g>
   <g id="PathCollection_1">
    <defs>
     <path d="M 0 3 
C 0.795609 3 1.55874 2.683901 2.12132 2.12132 
C 2.683901 1.55874 3 0.795609 3 0 
C 3 -0.795609 2.683901 -1.55874 2.12132 -2.12132 
C 1.55874 -2.683901 0.795609 -3 0 -3 
C -0.795609 -3 -1.55874 -2.683901 -2.12132 -2.12132 
C -2.683901 -1.55874 -3 -0.795609 -3 0 
C -3 0.795609 -2.683901 1.55874 -2.12132 2.12132 
C -1.55874 2.683901 -0.795609 3 0 3 
z
" id="mc3eaee67ea" style="stroke:#ffa500;"/>
    </defs>
    <g clip-path="url(#pcb36eb0710)">
     <use style="fill:#ffa500;stroke:#ffa500;" x="867.027793" xlink:href="#mc3eaee67ea" y="344.330898"/>
     <use style="fill:#ffa500;stroke:#ffa500;" x="864.972498" xlink:href="#mc3eaee67ea" y="344.330898"/>
     <use style="fill:#ffa500;stroke:#ffa500;" x="762.207749" xlink:href="#mc3eaee67ea" y="334.682942"/>
     <use style="fill:#ffa500;stroke:#ffa500;" x="659.443001" xlink:href="#mc3eaee67ea" y="333.911106"/>
     <use style="fill:#ffa500;stroke:#ffa500;" x="556.678252" xlink:href="#mc3eaee67ea" y="331.981515"/>
     <use style="fill:#ffa500;stroke:#ffa500;" x="453.913503" xlink:href="#mc3eaee67ea" y="299.178466"/>
     <use style="fill:#ffa500;stroke:#ffa500;" x="453.913503" xlink:href="#mc3eaee67ea" y="311.141931"/>
     <use style="fill:#ffa500;stroke:#ffa500;" x="351.148755" xlink:href="#mc3eaee67ea" y="250.938689"/>
     <use style="fill:#ffa500;stroke:#ffa500;" x="351.148755" xlink:href="#mc3eaee67ea" y="369.415582"/>
     <use style="fill:#ffa500;stroke:#ffa500;" x="351.148755" xlink:href="#mc3eaee67ea" y="246.693588"/>
     <use style="fill:#ffa500;stroke:#ffa500;" x="299.76638" xlink:href="#mc3eaee67ea" y="254.411953"/>
     <use style="fill:#ffa500;stroke:#ffa500;" x="299.76638" xlink:href="#mc3eaee67ea" y="287.215001"/>
     <use style="fill:#ffa500;stroke:#ffa500;" x="299.76638" xlink:href="#mc3eaee67ea" y="326.192741"/>
     <use style="fill:#ffa500;stroke:#ffa500;" x="299.76638" xlink:href="#mc3eaee67ea" y="239.74706"/>
     <use style="fill:#ffa500;stroke:#ffa500;" x="248.384006" xlink:href="#mc3eaee67ea" y="247.079507"/>
     <use style="fill:#ffa500;stroke:#ffa500;" x="248.384006" xlink:href="#mc3eaee67ea" y="196.52422"/>
     <use style="fill:#ffa500;stroke:#ffa500;" x="248.384006" xlink:href="#mc3eaee67ea" y="328.894169"/>
     <use style="fill:#ffa500;stroke:#ffa500;" x="248.384006" xlink:href="#mc3eaee67ea" y="378.677619"/>
     <use style="fill:#ffa500;stroke:#ffa500;" x="248.384006" xlink:href="#mc3eaee67ea" y="240.518897"/>
     <use style="fill:#ffa500;stroke:#ffa500;" x="248.384006" xlink:href="#mc3eaee67ea" y="217.749722"/>
     <use style="fill:#ffa500;stroke:#ffa500;" x="248.384006" xlink:href="#mc3eaee67ea" y="281.426228"/>
     <use style="fill:#ffa500;stroke:#ffa500;" x="227.831056" xlink:href="#mc3eaee67ea" y="222.380741"/>
     <use style="fill:#ffa500;stroke:#ffa500;" x="227.831056" xlink:href="#mc3eaee67ea" y="200.383402"/>
     <use style="fill:#ffa500;stroke:#ffa500;" x="227.831056" xlink:href="#mc3eaee67ea" y="246.30767"/>
     <use style="fill:#ffa500;stroke:#ffa500;" x="227.831056" xlink:href="#mc3eaee67ea" y="392.184757"/>
     <use style="fill:#ffa500;stroke:#ffa500;" x="227.831056" xlink:href="#mc3eaee67ea" y="363.24089"/>
     <use style="fill:#ffa500;stroke:#ffa500;" x="227.831056" xlink:href="#mc3eaee67ea" y="216.977886"/>
     <use style="fill:#ffa500;stroke:#ffa500;" x="227.831056" xlink:href="#mc3eaee67ea" y="210.803194"/>
     <use style="fill:#ffa500;stroke:#ffa500;" x="227.831056" xlink:href="#mc3eaee67ea" y="212.346867"/>
     <use style="fill:#ffa500;stroke:#ffa500;" x="207.278106" xlink:href="#mc3eaee67ea" y="209.645439"/>
     <use style="fill:#ffa500;stroke:#ffa500;" x="207.278106" xlink:href="#mc3eaee67ea" y="224.69625"/>
     <use style="fill:#ffa500;stroke:#ffa500;" x="207.278106" xlink:href="#mc3eaee67ea" y="203.856666"/>
     <use style="fill:#ffa500;stroke:#ffa500;" x="207.278106" xlink:href="#mc3eaee67ea" y="227.011759"/>
     <use style="fill:#ffa500;stroke:#ffa500;" x="207.278106" xlink:href="#mc3eaee67ea" y="382.922719"/>
     <use style="fill:#ffa500;stroke:#ffa500;" x="207.278106" xlink:href="#mc3eaee67ea" y="308.054585"/>
     <use style="fill:#ffa500;stroke:#ffa500;" x="207.278106" xlink:href="#mc3eaee67ea" y="293.389693"/>
     <use style="fill:#ffa500;stroke:#ffa500;" x="207.278106" xlink:href="#mc3eaee67ea" y="185.71851"/>
     <use style="fill:#ffa500;stroke:#ffa500;" x="207.278106" xlink:href="#mc3eaee67ea" y="230.485023"/>
     <use style="fill:#ffa500;stroke:#ffa500;" x="207.278106" xlink:href="#mc3eaee67ea" y="198.839729"/>
     <use style="fill:#ffa500;stroke:#ffa500;" x="207.278106" xlink:href="#mc3eaee67ea" y="218.521558"/>
     <use style="fill:#ffa500;stroke:#ffa500;" x="186.725157" xlink:href="#mc3eaee67ea" y="205.014421"/>
     <use style="fill:#ffa500;stroke:#ffa500;" x="186.725157" xlink:href="#mc3eaee67ea" y="193.050956"/>
     <use style="fill:#ffa500;stroke:#ffa500;" x="186.725157" xlink:href="#mc3eaee67ea" y="206.944012"/>
     <use style="fill:#ffa500;stroke:#ffa500;" x="186.725157" xlink:href="#mc3eaee67ea" y="157.160562"/>
     <use style="fill:#ffa500;stroke:#ffa500;" x="186.725157" xlink:href="#mc3eaee67ea" y="183.788919"/>
     <use style="fill:#ffa500;stroke:#ffa500;" x="186.725157" xlink:href="#mc3eaee67ea" y="256.341544"/>
     <use style="fill:#ffa500;stroke:#ffa500;" x="186.725157" xlink:href="#mc3eaee67ea" y="396.429857"/>
     <use style="fill:#ffa500;stroke:#ffa500;" x="186.725157" xlink:href="#mc3eaee67ea" y="347.418243"/>
     <use style="fill:#ffa500;stroke:#ffa500;" x="186.725157" xlink:href="#mc3eaee67ea" y="266.375418"/>
     <use style="fill:#ffa500;stroke:#ffa500;" x="186.725157" xlink:href="#mc3eaee67ea" y="296.477039"/>
     <use style="fill:#ffa500;stroke:#ffa500;" x="186.725157" xlink:href="#mc3eaee67ea" y="226.625841"/>
     <use style="fill:#ffa500;stroke:#ffa500;" x="186.725157" xlink:href="#mc3eaee67ea" y="183.017082"/>
     <use style="fill:#ffa500;stroke:#ffa500;" x="186.725157" xlink:href="#mc3eaee67ea" y="208.487685"/>
     <use style="fill:#ffa500;stroke:#ffa500;" x="186.725157" xlink:href="#mc3eaee67ea" y="187.648101"/>
     <use style="fill:#ffa500;stroke:#ffa500;" x="186.725157" xlink:href="#mc3eaee67ea" y="195.752384"/>
     <use style="fill:#ffa500;stroke:#ffa500;" x="186.725157" xlink:href="#mc3eaee67ea" y="211.189112"/>
     <use style="fill:#ffa500;stroke:#ffa500;" x="186.725157" xlink:href="#mc3eaee67ea" y="242.834406"/>
     <use style="fill:#ffa500;stroke:#ffa500;" x="166.172207" xlink:href="#mc3eaee67ea" y="152.529543"/>
     <use style="fill:#ffa500;stroke:#ffa500;" x="166.172207" xlink:href="#mc3eaee67ea" y="144.039342"/>
     <use style="fill:#ffa500;stroke:#ffa500;" x="166.172207" xlink:href="#mc3eaee67ea" y="141.723833"/>
     <use style="fill:#ffa500;stroke:#ffa500;" x="166.172207" xlink:href="#mc3eaee67ea" y="173.369127"/>
     <use style="fill:#ffa500;stroke:#ffa500;" x="166.172207" xlink:href="#mc3eaee67ea" y="211.960949"/>
     <use style="fill:#ffa500;stroke:#ffa500;" x="166.172207" xlink:href="#mc3eaee67ea" y="157.160562"/>
     <use style="fill:#ffa500;stroke:#ffa500;" x="166.172207" xlink:href="#mc3eaee67ea" y="172.983209"/>
     <use style="fill:#ffa500;stroke:#ffa500;" x="166.172207" xlink:href="#mc3eaee67ea" y="91.940383"/>
     <use style="fill:#ffa500;stroke:#ffa500;" x="166.172207" xlink:href="#mc3eaee67ea" y="274.093782"/>
     <use style="fill:#ffa500;stroke:#ffa500;" x="166.172207" xlink:href="#mc3eaee67ea" y="78.433245"/>
     <use style="fill:#ffa500;stroke:#ffa500;" x="166.172207" xlink:href="#mc3eaee67ea" y="212.732785"/>
     <use style="fill:#ffa500;stroke:#ffa500;" x="166.172207" xlink:href="#mc3eaee67ea" y="229.327269"/>
     <use style="fill:#ffa500;stroke:#ffa500;" x="166.172207" xlink:href="#mc3eaee67ea" y="386.781902"/>
     <use style="fill:#ffa500;stroke:#ffa500;" x="166.172207" xlink:href="#mc3eaee67ea" y="360.539463"/>
     <use style="fill:#ffa500;stroke:#ffa500;" x="166.172207" xlink:href="#mc3eaee67ea" y="302.265812"/>
     <use style="fill:#ffa500;stroke:#ffa500;" x="166.172207" xlink:href="#mc3eaee67ea" y="348.19008"/>
     <use style="fill:#ffa500;stroke:#ffa500;" x="166.172207" xlink:href="#mc3eaee67ea" y="355.522526"/>
     <use style="fill:#ffa500;stroke:#ffa500;" x="166.172207" xlink:href="#mc3eaee67ea" y="108.534866"/>
     <use style="fill:#ffa500;stroke:#ffa500;" x="166.172207" xlink:href="#mc3eaee67ea" y="319.246213"/>
     <use style="fill:#ffa500;stroke:#ffa500;" x="166.172207" xlink:href="#mc3eaee67ea" y="167.966272"/>
     <use style="fill:#ffa500;stroke:#ffa500;" x="166.172207" xlink:href="#mc3eaee67ea" y="264.059908"/>
     <use style="fill:#ffa500;stroke:#ffa500;" x="166.172207" xlink:href="#mc3eaee67ea" y="155.230971"/>
     <use style="fill:#ffa500;stroke:#ffa500;" x="166.172207" xlink:href="#mc3eaee67ea" y="131.689959"/>
     <use style="fill:#ffa500;stroke:#ffa500;" x="166.172207" xlink:href="#mc3eaee67ea" y="178.386064"/>
     <use style="fill:#ffa500;stroke:#ffa500;" x="166.172207" xlink:href="#mc3eaee67ea" y="261.358481"/>
     <use style="fill:#ffa500;stroke:#ffa500;" x="166.172207" xlink:href="#mc3eaee67ea" y="130.146287"/>
     <use style="fill:#ffa500;stroke:#ffa500;" x="166.172207" xlink:href="#mc3eaee67ea" y="216.206049"/>
     <use style="fill:#ffa500;stroke:#ffa500;" x="166.172207" xlink:href="#mc3eaee67ea" y="133.61955"/>
     <use style="fill:#ffa500;stroke:#ffa500;" x="166.172207" xlink:href="#mc3eaee67ea" y="147.126688"/>
     <use style="fill:#ffa500;stroke:#ffa500;" x="166.172207" xlink:href="#mc3eaee67ea" y="228.555432"/>
     <use style="fill:#ffa500;stroke:#ffa500;" x="166.172207" xlink:href="#mc3eaee67ea" y="227.783596"/>
     <use style="fill:#ffa500;stroke:#ffa500;" x="166.172207" xlink:href="#mc3eaee67ea" y="203.08483"/>
     <use style="fill:#ffa500;stroke:#ffa500;" x="166.172207" xlink:href="#mc3eaee67ea" y="165.650763"/>
     <use style="fill:#ffa500;stroke:#ffa500;" x="166.172207" xlink:href="#mc3eaee67ea" y="284.513574"/>
     <use style="fill:#ffa500;stroke:#ffa500;" x="166.172207" xlink:href="#mc3eaee67ea" y="344.716816"/>
    </g>
   </g>
   <g id="PathCollection_2">
    <defs>
     <path d="M 0 3 
C 0.795609 3 1.55874 2.683901 2.12132 2.12132 
C 2.683901 1.55874 3 0.795609 3 0 
C 3 -0.795609 2.683901 -1.55874 2.12132 -2.12132 
C 1.55874 -2.683901 0.795609 -3 0 -3 
C -0.795609 -3 -1.55874 -2.683901 -2.12132 -2.12132 
C -2.683901 -1.55874 -3 -0.795609 -3 0 
C -3 0.795609 -2.683901 1.55874 -2.12132 2.12132 
C -1.55874 2.683901 -0.795609 3 0 3 
z
" id="m2a488be5c1" style="stroke:#008000;"/>
    </defs>
    <g clip-path="url(#pcb36eb0710)">
     <use style="fill:#008000;stroke:#008000;" x="867.027793" xlink:href="#m2a488be5c1" y="289.144592"/>
     <use style="fill:#008000;stroke:#008000;" x="864.972498" xlink:href="#m2a488be5c1" y="291.074183"/>
     <use style="fill:#008000;stroke:#008000;" x="762.207749" xlink:href="#m2a488be5c1" y="284.513574"/>
     <use style="fill:#008000;stroke:#008000;" x="659.443001" xlink:href="#m2a488be5c1" y="275.637455"/>
     <use style="fill:#008000;stroke:#008000;" x="556.678252" xlink:href="#m2a488be5c1" y="286.829083"/>
     <use style="fill:#008000;stroke:#008000;" x="453.913503" xlink:href="#m2a488be5c1" y="264.445826"/>
     <use style="fill:#008000;stroke:#008000;" x="453.913503" xlink:href="#m2a488be5c1" y="304.581321"/>
     <use style="fill:#008000;stroke:#008000;" x="351.148755" xlink:href="#m2a488be5c1" y="237.431551"/>
     <use style="fill:#008000;stroke:#008000;" x="351.148755" xlink:href="#m2a488be5c1" y="345.102734"/>
     <use style="fill:#008000;stroke:#008000;" x="351.148755" xlink:href="#m2a488be5c1" y="279.882555"/>
     <use style="fill:#008000;stroke:#008000;" x="299.76638" xlink:href="#m2a488be5c1" y="244.378079"/>
     <use style="fill:#008000;stroke:#008000;" x="299.76638" xlink:href="#m2a488be5c1" y="286.829083"/>
     <use style="fill:#008000;stroke:#008000;" x="299.76638" xlink:href="#m2a488be5c1" y="329.280087"/>
     <use style="fill:#008000;stroke:#008000;" x="299.76638" xlink:href="#m2a488be5c1" y="279.882555"/>
     <use style="fill:#008000;stroke:#008000;" x="248.384006" xlink:href="#m2a488be5c1" y="235.116042"/>
     <use style="fill:#008000;stroke:#008000;" x="248.384006" xlink:href="#m2a488be5c1" y="230.485023"/>
     <use style="fill:#008000;stroke:#008000;" x="248.384006" xlink:href="#m2a488be5c1" y="331.595596"/>
     <use style="fill:#008000;stroke:#008000;" x="248.384006" xlink:href="#m2a488be5c1" y="353.978853"/>
     <use style="fill:#008000;stroke:#008000;" x="248.384006" xlink:href="#m2a488be5c1" y="228.555432"/>
     <use style="fill:#008000;stroke:#008000;" x="248.384006" xlink:href="#m2a488be5c1" y="324.649068"/>
     <use style="fill:#008000;stroke:#008000;" x="248.384006" xlink:href="#m2a488be5c1" y="329.280087"/>
     <use style="fill:#008000;stroke:#008000;" x="227.831056" xlink:href="#m2a488be5c1" y="233.186451"/>
     <use style="fill:#008000;stroke:#008000;" x="227.831056" xlink:href="#m2a488be5c1" y="235.116042"/>
     <use style="fill:#008000;stroke:#008000;" x="227.831056" xlink:href="#m2a488be5c1" y="250.938689"/>
     <use style="fill:#008000;stroke:#008000;" x="227.831056" xlink:href="#m2a488be5c1" y="408.007404"/>
     <use style="fill:#008000;stroke:#008000;" x="227.831056" xlink:href="#m2a488be5c1" y="345.102734"/>
     <use style="fill:#008000;stroke:#008000;" x="227.831056" xlink:href="#m2a488be5c1" y="215.048295"/>
     <use style="fill:#008000;stroke:#008000;" x="227.831056" xlink:href="#m2a488be5c1" y="335.840697"/>
     <use style="fill:#008000;stroke:#008000;" x="227.831056" xlink:href="#m2a488be5c1" y="302.265812"/>
     <use style="fill:#008000;stroke:#008000;" x="207.278106" xlink:href="#m2a488be5c1" y="246.30767"/>
     <use style="fill:#008000;stroke:#008000;" x="207.278106" xlink:href="#m2a488be5c1" y="217.363804"/>
     <use style="fill:#008000;stroke:#008000;" x="207.278106" xlink:href="#m2a488be5c1" y="266.761336"/>
     <use style="fill:#008000;stroke:#008000;" x="207.278106" xlink:href="#m2a488be5c1" y="226.239923"/>
     <use style="fill:#008000;stroke:#008000;" x="207.278106" xlink:href="#m2a488be5c1" y="401.060876"/>
     <use style="fill:#008000;stroke:#008000;" x="207.278106" xlink:href="#m2a488be5c1" y="358.223953"/>
     <use style="fill:#008000;stroke:#008000;" x="207.278106" xlink:href="#m2a488be5c1" y="358.223953"/>
     <use style="fill:#008000;stroke:#008000;" x="207.278106" xlink:href="#m2a488be5c1" y="166.036681"/>
     <use style="fill:#008000;stroke:#008000;" x="207.278106" xlink:href="#m2a488be5c1" y="324.649068"/>
     <use style="fill:#008000;stroke:#008000;" x="207.278106" xlink:href="#m2a488be5c1" y="318.088459"/>
     <use style="fill:#008000;stroke:#008000;" x="207.278106" xlink:href="#m2a488be5c1" y="331.595596"/>
     <use style="fill:#008000;stroke:#008000;" x="186.725157" xlink:href="#m2a488be5c1" y="266.375418"/>
     <use style="fill:#008000;stroke:#008000;" x="186.725157" xlink:href="#m2a488be5c1" y="186.104428"/>
     <use style="fill:#008000;stroke:#008000;" x="186.725157" xlink:href="#m2a488be5c1" y="233.186451"/>
     <use style="fill:#008000;stroke:#008000;" x="186.725157" xlink:href="#m2a488be5c1" y="228.169514"/>
     <use style="fill:#008000;stroke:#008000;" x="186.725157" xlink:href="#m2a488be5c1" y="250.938689"/>
     <use style="fill:#008000;stroke:#008000;" x="186.725157" xlink:href="#m2a488be5c1" y="253.254198"/>
     <use style="fill:#008000;stroke:#008000;" x="186.725157" xlink:href="#m2a488be5c1" y="380.993128"/>
     <use style="fill:#008000;stroke:#008000;" x="186.725157" xlink:href="#m2a488be5c1" y="416.497604"/>
     <use style="fill:#008000;stroke:#008000;" x="186.725157" xlink:href="#m2a488be5c1" y="338.156206"/>
     <use style="fill:#008000;stroke:#008000;" x="186.725157" xlink:href="#m2a488be5c1" y="349.347834"/>
     <use style="fill:#008000;stroke:#008000;" x="186.725157" xlink:href="#m2a488be5c1" y="284.513574"/>
     <use style="fill:#008000;stroke:#008000;" x="186.725157" xlink:href="#m2a488be5c1" y="150.214034"/>
     <use style="fill:#008000;stroke:#008000;" x="186.725157" xlink:href="#m2a488be5c1" y="335.840697"/>
     <use style="fill:#008000;stroke:#008000;" x="186.725157" xlink:href="#m2a488be5c1" y="335.840697"/>
     <use style="fill:#008000;stroke:#008000;" x="186.725157" xlink:href="#m2a488be5c1" y="289.144592"/>
     <use style="fill:#008000;stroke:#008000;" x="186.725157" xlink:href="#m2a488be5c1" y="315.772949"/>
     <use style="fill:#008000;stroke:#008000;" x="186.725157" xlink:href="#m2a488be5c1" y="347.032325"/>
     <use style="fill:#008000;stroke:#008000;" x="166.172207" xlink:href="#m2a488be5c1" y="235.116042"/>
     <use style="fill:#008000;stroke:#008000;" x="166.172207" xlink:href="#m2a488be5c1" y="304.581321"/>
     <use style="fill:#008000;stroke:#008000;" x="166.172207" xlink:href="#m2a488be5c1" y="183.788919"/>
     <use style="fill:#008000;stroke:#008000;" x="166.172207" xlink:href="#m2a488be5c1" y="188.419937"/>
     <use style="fill:#008000;stroke:#008000;" x="166.172207" xlink:href="#m2a488be5c1" y="239.74706"/>
     <use style="fill:#008000;stroke:#008000;" x="166.172207" xlink:href="#m2a488be5c1" y="215.048295"/>
     <use style="fill:#008000;stroke:#008000;" x="166.172207" xlink:href="#m2a488be5c1" y="266.375418"/>
     <use style="fill:#008000;stroke:#008000;" x="166.172207" xlink:href="#m2a488be5c1" y="192.665038"/>
     <use style="fill:#008000;stroke:#008000;" x="166.172207" xlink:href="#m2a488be5c1" y="335.840697"/>
     <use style="fill:#008000;stroke:#008000;" x="166.172207" xlink:href="#m2a488be5c1" y="176.842391"/>
     <use style="fill:#008000;stroke:#008000;" x="166.172207" xlink:href="#m2a488be5c1" y="259.814808"/>
     <use style="fill:#008000;stroke:#008000;" x="166.172207" xlink:href="#m2a488be5c1" y="244.378079"/>
     <use style="fill:#008000;stroke:#008000;" x="166.172207" xlink:href="#m2a488be5c1" y="367.871909"/>
     <use style="fill:#008000;stroke:#008000;" x="166.172207" xlink:href="#m2a488be5c1" y="403.376385"/>
     <use style="fill:#008000;stroke:#008000;" x="166.172207" xlink:href="#m2a488be5c1" y="418.813114"/>
     <use style="fill:#008000;stroke:#008000;" x="166.172207" xlink:href="#m2a488be5c1" y="428.075151"/>
     <use style="fill:#008000;stroke:#008000;" x="166.172207" xlink:href="#m2a488be5c1" y="390.255166"/>
     <use style="fill:#008000;stroke:#008000;" x="166.172207" xlink:href="#m2a488be5c1" y="304.581321"/>
     <use style="fill:#008000;stroke:#008000;" x="166.172207" xlink:href="#m2a488be5c1" y="365.170481"/>
     <use style="fill:#008000;stroke:#008000;" x="166.172207" xlink:href="#m2a488be5c1" y="335.840697"/>
     <use style="fill:#008000;stroke:#008000;" x="166.172207" xlink:href="#m2a488be5c1" y="380.60721"/>
     <use style="fill:#008000;stroke:#008000;" x="166.172207" xlink:href="#m2a488be5c1" y="197.296056"/>
     <use style="fill:#008000;stroke:#008000;" x="166.172207" xlink:href="#m2a488be5c1" y="170.281781"/>
     <use style="fill:#008000;stroke:#008000;" x="166.172207" xlink:href="#m2a488be5c1" y="117.025067"/>
     <use style="fill:#008000;stroke:#008000;" x="166.172207" xlink:href="#m2a488be5c1" y="307.282749"/>
     <use style="fill:#008000;stroke:#008000;" x="166.172207" xlink:href="#m2a488be5c1" y="349.347834"/>
     <use style="fill:#008000;stroke:#008000;" x="166.172207" xlink:href="#m2a488be5c1" y="313.843358"/>
     <use style="fill:#008000;stroke:#008000;" x="166.172207" xlink:href="#m2a488be5c1" y="355.908444"/>
     <use style="fill:#008000;stroke:#008000;" x="166.172207" xlink:href="#m2a488be5c1" y="331.209678"/>
     <use style="fill:#008000;stroke:#008000;" x="166.172207" xlink:href="#m2a488be5c1" y="213.118703"/>
     <use style="fill:#008000;stroke:#008000;" x="166.172207" xlink:href="#m2a488be5c1" y="295.705202"/>
     <use style="fill:#008000;stroke:#008000;" x="166.172207" xlink:href="#m2a488be5c1" y="329.280087"/>
     <use style="fill:#008000;stroke:#008000;" x="166.172207" xlink:href="#m2a488be5c1" y="347.032325"/>
     <use style="fill:#008000;stroke:#008000;" x="166.172207" xlink:href="#m2a488be5c1" y="342.787225"/>
     <use style="fill:#008000;stroke:#008000;" x="166.172207" xlink:href="#m2a488be5c1" y="327.350496"/>
    </g>
   </g>
   <g id="matplotlib.axis_1">
    <g id="xtick_1">
     <g id="line2d_1">
      <defs>
       <path d="M 0 0 
L 0 3.5 
" id="m3b325cd8f6" style="stroke:#000000;stroke-width:0.8;"/>
      </defs>
      <g>
       <use style="stroke:#000000;stroke-width:0.8;" x="145.619257" xlink:href="#m3b325cd8f6" y="448.56"/>
      </g>
     </g>
     <g id="text_1">
      <!-- 0 -->
      <defs>
       <path d="M 31.78125 66.40625 
Q 24.171875 66.40625 20.328125 58.90625 
Q 16.5 51.421875 16.5 36.375 
Q 16.5 21.390625 20.328125 13.890625 
Q 24.171875 6.390625 31.78125 6.390625 
Q 39.453125 6.390625 43.28125 13.890625 
Q 47.125 21.390625 47.125 36.375 
Q 47.125 51.421875 43.28125 58.90625 
Q 39.453125 66.40625 31.78125 66.40625 
z
M 31.78125 74.21875 
Q 44.046875 74.21875 50.515625 64.515625 
Q 56.984375 54.828125 56.984375 36.375 
Q 56.984375 17.96875 50.515625 8.265625 
Q 44.046875 -1.421875 31.78125 -1.421875 
Q 19.53125 -1.421875 13.0625 8.265625 
Q 6.59375 17.96875 6.59375 36.375 
Q 6.59375 54.828125 13.0625 64.515625 
Q 19.53125 74.21875 31.78125 74.21875 
z
" id="DejaVuSans-30"/>
      </defs>
      <g transform="translate(142.438007 463.158437)scale(0.1 -0.1)">
       <use xlink:href="#DejaVuSans-30"/>
      </g>
     </g>
    </g>
    <g id="xtick_2">
     <g id="line2d_2">
      <g>
       <use style="stroke:#000000;stroke-width:0.8;" x="248.384006" xlink:href="#m3b325cd8f6" y="448.56"/>
      </g>
     </g>
     <g id="text_2">
      <!-- 50 -->
      <defs>
       <path d="M 10.796875 72.90625 
L 49.515625 72.90625 
L 49.515625 64.59375 
L 19.828125 64.59375 
L 19.828125 46.734375 
Q 21.96875 47.46875 24.109375 47.828125 
Q 26.265625 48.1875 28.421875 48.1875 
Q 40.625 48.1875 47.75 41.5 
Q 54.890625 34.8125 54.890625 23.390625 
Q 54.890625 11.625 47.5625 5.09375 
Q 40.234375 -1.421875 26.90625 -1.421875 
Q 22.3125 -1.421875 17.546875 -0.640625 
Q 12.796875 0.140625 7.71875 1.703125 
L 7.71875 11.625 
Q 12.109375 9.234375 16.796875 8.0625 
Q 21.484375 6.890625 26.703125 6.890625 
Q 35.15625 6.890625 40.078125 11.328125 
Q 45.015625 15.765625 45.015625 23.390625 
Q 45.015625 31 40.078125 35.4375 
Q 35.15625 39.890625 26.703125 39.890625 
Q 22.75 39.890625 18.8125 39.015625 
Q 14.890625 38.140625 10.796875 36.28125 
z
" id="DejaVuSans-35"/>
      </defs>
      <g transform="translate(242.021506 463.158437)scale(0.1 -0.1)">
       <use xlink:href="#DejaVuSans-35"/>
       <use x="63.623047" xlink:href="#DejaVuSans-30"/>
      </g>
     </g>
    </g>
    <g id="xtick_3">
     <g id="line2d_3">
      <g>
       <use style="stroke:#000000;stroke-width:0.8;" x="351.148755" xlink:href="#m3b325cd8f6" y="448.56"/>
      </g>
     </g>
     <g id="text_3">
      <!-- 100 -->
      <defs>
       <path d="M 12.40625 8.296875 
L 28.515625 8.296875 
L 28.515625 63.921875 
L 10.984375 60.40625 
L 10.984375 69.390625 
L 28.421875 72.90625 
L 38.28125 72.90625 
L 38.28125 8.296875 
L 54.390625 8.296875 
L 54.390625 0 
L 12.40625 0 
z
" id="DejaVuSans-31"/>
      </defs>
      <g transform="translate(341.605005 463.158437)scale(0.1 -0.1)">
       <use xlink:href="#DejaVuSans-31"/>
       <use x="63.623047" xlink:href="#DejaVuSans-30"/>
       <use x="127.246094" xlink:href="#DejaVuSans-30"/>
      </g>
     </g>
    </g>
    <g id="xtick_4">
     <g id="line2d_4">
      <g>
       <use style="stroke:#000000;stroke-width:0.8;" x="453.913503" xlink:href="#m3b325cd8f6" y="448.56"/>
      </g>
     </g>
     <g id="text_4">
      <!-- 150 -->
      <g transform="translate(444.369753 463.158437)scale(0.1 -0.1)">
       <use xlink:href="#DejaVuSans-31"/>
       <use x="63.623047" xlink:href="#DejaVuSans-35"/>
       <use x="127.246094" xlink:href="#DejaVuSans-30"/>
      </g>
     </g>
    </g>
    <g id="xtick_5">
     <g id="line2d_5">
      <g>
       <use style="stroke:#000000;stroke-width:0.8;" x="556.678252" xlink:href="#m3b325cd8f6" y="448.56"/>
      </g>
     </g>
     <g id="text_5">
      <!-- 200 -->
      <defs>
       <path d="M 19.1875 8.296875 
L 53.609375 8.296875 
L 53.609375 0 
L 7.328125 0 
L 7.328125 8.296875 
Q 12.9375 14.109375 22.625 23.890625 
Q 32.328125 33.6875 34.8125 36.53125 
Q 39.546875 41.84375 41.421875 45.53125 
Q 43.3125 49.21875 43.3125 52.78125 
Q 43.3125 58.59375 39.234375 62.25 
Q 35.15625 65.921875 28.609375 65.921875 
Q 23.96875 65.921875 18.8125 64.3125 
Q 13.671875 62.703125 7.8125 59.421875 
L 7.8125 69.390625 
Q 13.765625 71.78125 18.9375 73 
Q 24.125 74.21875 28.421875 74.21875 
Q 39.75 74.21875 46.484375 68.546875 
Q 53.21875 62.890625 53.21875 53.421875 
Q 53.21875 48.921875 51.53125 44.890625 
Q 49.859375 40.875 45.40625 35.40625 
Q 44.1875 33.984375 37.640625 27.21875 
Q 31.109375 20.453125 19.1875 8.296875 
z
" id="DejaVuSans-32"/>
      </defs>
      <g transform="translate(547.134502 463.158437)scale(0.1 -0.1)">
       <use xlink:href="#DejaVuSans-32"/>
       <use x="63.623047" xlink:href="#DejaVuSans-30"/>
       <use x="127.246094" xlink:href="#DejaVuSans-30"/>
      </g>
     </g>
    </g>
    <g id="xtick_6">
     <g id="line2d_6">
      <g>
       <use style="stroke:#000000;stroke-width:0.8;" x="659.443001" xlink:href="#m3b325cd8f6" y="448.56"/>
      </g>
     </g>
     <g id="text_6">
      <!-- 250 -->
      <g transform="translate(649.899251 463.158437)scale(0.1 -0.1)">
       <use xlink:href="#DejaVuSans-32"/>
       <use x="63.623047" xlink:href="#DejaVuSans-35"/>
       <use x="127.246094" xlink:href="#DejaVuSans-30"/>
      </g>
     </g>
    </g>
    <g id="xtick_7">
     <g id="line2d_7">
      <g>
       <use style="stroke:#000000;stroke-width:0.8;" x="762.207749" xlink:href="#m3b325cd8f6" y="448.56"/>
      </g>
     </g>
     <g id="text_7">
      <!-- 300 -->
      <defs>
       <path d="M 40.578125 39.3125 
Q 47.65625 37.796875 51.625 33 
Q 55.609375 28.21875 55.609375 21.1875 
Q 55.609375 10.40625 48.1875 4.484375 
Q 40.765625 -1.421875 27.09375 -1.421875 
Q 22.515625 -1.421875 17.65625 -0.515625 
Q 12.796875 0.390625 7.625 2.203125 
L 7.625 11.71875 
Q 11.71875 9.328125 16.59375 8.109375 
Q 21.484375 6.890625 26.8125 6.890625 
Q 36.078125 6.890625 40.9375 10.546875 
Q 45.796875 14.203125 45.796875 21.1875 
Q 45.796875 27.640625 41.28125 31.265625 
Q 36.765625 34.90625 28.71875 34.90625 
L 20.21875 34.90625 
L 20.21875 43.015625 
L 29.109375 43.015625 
Q 36.375 43.015625 40.234375 45.921875 
Q 44.09375 48.828125 44.09375 54.296875 
Q 44.09375 59.90625 40.109375 62.90625 
Q 36.140625 65.921875 28.71875 65.921875 
Q 24.65625 65.921875 20.015625 65.03125 
Q 15.375 64.15625 9.8125 62.3125 
L 9.8125 71.09375 
Q 15.4375 72.65625 20.34375 73.4375 
Q 25.25 74.21875 29.59375 74.21875 
Q 40.828125 74.21875 47.359375 69.109375 
Q 53.90625 64.015625 53.90625 55.328125 
Q 53.90625 49.265625 50.4375 45.09375 
Q 46.96875 40.921875 40.578125 39.3125 
z
" id="DejaVuSans-33"/>
      </defs>
      <g transform="translate(752.663999 463.158437)scale(0.1 -0.1)">
       <use xlink:href="#DejaVuSans-33"/>
       <use x="63.623047" xlink:href="#DejaVuSans-30"/>
       <use x="127.246094" xlink:href="#DejaVuSans-30"/>
      </g>
     </g>
    </g>
    <g id="xtick_8">
     <g id="line2d_8">
      <g>
       <use style="stroke:#000000;stroke-width:0.8;" x="864.972498" xlink:href="#m3b325cd8f6" y="448.56"/>
      </g>
     </g>
     <g id="text_8">
      <!-- 350 -->
      <g transform="translate(855.428748 463.158437)scale(0.1 -0.1)">
       <use xlink:href="#DejaVuSans-33"/>
       <use x="63.623047" xlink:href="#DejaVuSans-35"/>
       <use x="127.246094" xlink:href="#DejaVuSans-30"/>
      </g>
     </g>
    </g>
    <g id="text_9">
     <!-- length of chunk in sentences -->
     <defs>
      <path d="M 9.421875 75.984375 
L 18.40625 75.984375 
L 18.40625 0 
L 9.421875 0 
z
" id="DejaVuSans-6c"/>
      <path d="M 56.203125 29.59375 
L 56.203125 25.203125 
L 14.890625 25.203125 
Q 15.484375 15.921875 20.484375 11.0625 
Q 25.484375 6.203125 34.421875 6.203125 
Q 39.59375 6.203125 44.453125 7.46875 
Q 49.3125 8.734375 54.109375 11.28125 
L 54.109375 2.78125 
Q 49.265625 0.734375 44.1875 -0.34375 
Q 39.109375 -1.421875 33.890625 -1.421875 
Q 20.796875 -1.421875 13.15625 6.1875 
Q 5.515625 13.8125 5.515625 26.8125 
Q 5.515625 40.234375 12.765625 48.109375 
Q 20.015625 56 32.328125 56 
Q 43.359375 56 49.78125 48.890625 
Q 56.203125 41.796875 56.203125 29.59375 
z
M 47.21875 32.234375 
Q 47.125 39.59375 43.09375 43.984375 
Q 39.0625 48.390625 32.421875 48.390625 
Q 24.90625 48.390625 20.390625 44.140625 
Q 15.875 39.890625 15.1875 32.171875 
z
" id="DejaVuSans-65"/>
      <path d="M 54.890625 33.015625 
L 54.890625 0 
L 45.90625 0 
L 45.90625 32.71875 
Q 45.90625 40.484375 42.875 44.328125 
Q 39.84375 48.1875 33.796875 48.1875 
Q 26.515625 48.1875 22.3125 43.546875 
Q 18.109375 38.921875 18.109375 30.90625 
L 18.109375 0 
L 9.078125 0 
L 9.078125 54.6875 
L 18.109375 54.6875 
L 18.109375 46.1875 
Q 21.34375 51.125 25.703125 53.5625 
Q 30.078125 56 35.796875 56 
Q 45.21875 56 50.046875 50.171875 
Q 54.890625 44.34375 54.890625 33.015625 
z
" id="DejaVuSans-6e"/>
      <path d="M 45.40625 27.984375 
Q 45.40625 37.75 41.375 43.109375 
Q 37.359375 48.484375 30.078125 48.484375 
Q 22.859375 48.484375 18.828125 43.109375 
Q 14.796875 37.75 14.796875 27.984375 
Q 14.796875 18.265625 18.828125 12.890625 
Q 22.859375 7.515625 30.078125 7.515625 
Q 37.359375 7.515625 41.375 12.890625 
Q 45.40625 18.265625 45.40625 27.984375 
z
M 54.390625 6.78125 
Q 54.390625 -7.171875 48.1875 -13.984375 
Q 42 -20.796875 29.203125 -20.796875 
Q 24.46875 -20.796875 20.265625 -20.09375 
Q 16.0625 -19.390625 12.109375 -17.921875 
L 12.109375 -9.1875 
Q 16.0625 -11.328125 19.921875 -12.34375 
Q 23.78125 -13.375 27.78125 -13.375 
Q 36.625 -13.375 41.015625 -8.765625 
Q 45.40625 -4.15625 45.40625 5.171875 
L 45.40625 9.625 
Q 42.625 4.78125 38.28125 2.390625 
Q 33.9375 0 27.875 0 
Q 17.828125 0 11.671875 7.65625 
Q 5.515625 15.328125 5.515625 27.984375 
Q 5.515625 40.671875 11.671875 48.328125 
Q 17.828125 56 27.875 56 
Q 33.9375 56 38.28125 53.609375 
Q 42.625 51.21875 45.40625 46.390625 
L 45.40625 54.6875 
L 54.390625 54.6875 
z
" id="DejaVuSans-67"/>
      <path d="M 18.3125 70.21875 
L 18.3125 54.6875 
L 36.8125 54.6875 
L 36.8125 47.703125 
L 18.3125 47.703125 
L 18.3125 18.015625 
Q 18.3125 11.328125 20.140625 9.421875 
Q 21.96875 7.515625 27.59375 7.515625 
L 36.8125 7.515625 
L 36.8125 0 
L 27.59375 0 
Q 17.1875 0 13.234375 3.875 
Q 9.28125 7.765625 9.28125 18.015625 
L 9.28125 47.703125 
L 2.6875 47.703125 
L 2.6875 54.6875 
L 9.28125 54.6875 
L 9.28125 70.21875 
z
" id="DejaVuSans-74"/>
      <path d="M 54.890625 33.015625 
L 54.890625 0 
L 45.90625 0 
L 45.90625 32.71875 
Q 45.90625 40.484375 42.875 44.328125 
Q 39.84375 48.1875 33.796875 48.1875 
Q 26.515625 48.1875 22.3125 43.546875 
Q 18.109375 38.921875 18.109375 30.90625 
L 18.109375 0 
L 9.078125 0 
L 9.078125 75.984375 
L 18.109375 75.984375 
L 18.109375 46.1875 
Q 21.34375 51.125 25.703125 53.5625 
Q 30.078125 56 35.796875 56 
Q 45.21875 56 50.046875 50.171875 
Q 54.890625 44.34375 54.890625 33.015625 
z
" id="DejaVuSans-68"/>
      <path id="DejaVuSans-20"/>
      <path d="M 30.609375 48.390625 
Q 23.390625 48.390625 19.1875 42.75 
Q 14.984375 37.109375 14.984375 27.296875 
Q 14.984375 17.484375 19.15625 11.84375 
Q 23.34375 6.203125 30.609375 6.203125 
Q 37.796875 6.203125 41.984375 11.859375 
Q 46.1875 17.53125 46.1875 27.296875 
Q 46.1875 37.015625 41.984375 42.703125 
Q 37.796875 48.390625 30.609375 48.390625 
z
M 30.609375 56 
Q 42.328125 56 49.015625 48.375 
Q 55.71875 40.765625 55.71875 27.296875 
Q 55.71875 13.875 49.015625 6.21875 
Q 42.328125 -1.421875 30.609375 -1.421875 
Q 18.84375 -1.421875 12.171875 6.21875 
Q 5.515625 13.875 5.515625 27.296875 
Q 5.515625 40.765625 12.171875 48.375 
Q 18.84375 56 30.609375 56 
z
" id="DejaVuSans-6f"/>
      <path d="M 37.109375 75.984375 
L 37.109375 68.5 
L 28.515625 68.5 
Q 23.6875 68.5 21.796875 66.546875 
Q 19.921875 64.59375 19.921875 59.515625 
L 19.921875 54.6875 
L 34.71875 54.6875 
L 34.71875 47.703125 
L 19.921875 47.703125 
L 19.921875 0 
L 10.890625 0 
L 10.890625 47.703125 
L 2.296875 47.703125 
L 2.296875 54.6875 
L 10.890625 54.6875 
L 10.890625 58.5 
Q 10.890625 67.625 15.140625 71.796875 
Q 19.390625 75.984375 28.609375 75.984375 
z
" id="DejaVuSans-66"/>
      <path d="M 48.78125 52.59375 
L 48.78125 44.1875 
Q 44.96875 46.296875 41.140625 47.34375 
Q 37.3125 48.390625 33.40625 48.390625 
Q 24.65625 48.390625 19.8125 42.84375 
Q 14.984375 37.3125 14.984375 27.296875 
Q 14.984375 17.28125 19.8125 11.734375 
Q 24.65625 6.203125 33.40625 6.203125 
Q 37.3125 6.203125 41.140625 7.25 
Q 44.96875 8.296875 48.78125 10.40625 
L 48.78125 2.09375 
Q 45.015625 0.34375 40.984375 -0.53125 
Q 36.96875 -1.421875 32.421875 -1.421875 
Q 20.0625 -1.421875 12.78125 6.34375 
Q 5.515625 14.109375 5.515625 27.296875 
Q 5.515625 40.671875 12.859375 48.328125 
Q 20.21875 56 33.015625 56 
Q 37.15625 56 41.109375 55.140625 
Q 45.0625 54.296875 48.78125 52.59375 
z
" id="DejaVuSans-63"/>
      <path d="M 8.5 21.578125 
L 8.5 54.6875 
L 17.484375 54.6875 
L 17.484375 21.921875 
Q 17.484375 14.15625 20.5 10.265625 
Q 23.53125 6.390625 29.59375 6.390625 
Q 36.859375 6.390625 41.078125 11.03125 
Q 45.3125 15.671875 45.3125 23.6875 
L 45.3125 54.6875 
L 54.296875 54.6875 
L 54.296875 0 
L 45.3125 0 
L 45.3125 8.40625 
Q 42.046875 3.421875 37.71875 1 
Q 33.40625 -1.421875 27.6875 -1.421875 
Q 18.265625 -1.421875 13.375 4.4375 
Q 8.5 10.296875 8.5 21.578125 
z
M 31.109375 56 
z
" id="DejaVuSans-75"/>
      <path d="M 9.078125 75.984375 
L 18.109375 75.984375 
L 18.109375 31.109375 
L 44.921875 54.6875 
L 56.390625 54.6875 
L 27.390625 29.109375 
L 57.625 0 
L 45.90625 0 
L 18.109375 26.703125 
L 18.109375 0 
L 9.078125 0 
z
" id="DejaVuSans-6b"/>
      <path d="M 9.421875 54.6875 
L 18.40625 54.6875 
L 18.40625 0 
L 9.421875 0 
z
M 9.421875 75.984375 
L 18.40625 75.984375 
L 18.40625 64.59375 
L 9.421875 64.59375 
z
" id="DejaVuSans-69"/>
      <path d="M 44.28125 53.078125 
L 44.28125 44.578125 
Q 40.484375 46.53125 36.375 47.5 
Q 32.28125 48.484375 27.875 48.484375 
Q 21.1875 48.484375 17.84375 46.4375 
Q 14.5 44.390625 14.5 40.28125 
Q 14.5 37.15625 16.890625 35.375 
Q 19.28125 33.59375 26.515625 31.984375 
L 29.59375 31.296875 
Q 39.15625 29.25 43.1875 25.515625 
Q 47.21875 21.78125 47.21875 15.09375 
Q 47.21875 7.46875 41.1875 3.015625 
Q 35.15625 -1.421875 24.609375 -1.421875 
Q 20.21875 -1.421875 15.453125 -0.5625 
Q 10.6875 0.296875 5.421875 2 
L 5.421875 11.28125 
Q 10.40625 8.6875 15.234375 7.390625 
Q 20.0625 6.109375 24.8125 6.109375 
Q 31.15625 6.109375 34.5625 8.28125 
Q 37.984375 10.453125 37.984375 14.40625 
Q 37.984375 18.0625 35.515625 20.015625 
Q 33.0625 21.96875 24.703125 23.78125 
L 21.578125 24.515625 
Q 13.234375 26.265625 9.515625 29.90625 
Q 5.8125 33.546875 5.8125 39.890625 
Q 5.8125 47.609375 11.28125 51.796875 
Q 16.75 56 26.8125 56 
Q 31.78125 56 36.171875 55.265625 
Q 40.578125 54.546875 44.28125 53.078125 
z
" id="DejaVuSans-73"/>
     </defs>
     <g transform="translate(444.292188 476.836563)scale(0.1 -0.1)">
      <use xlink:href="#DejaVuSans-6c"/>
      <use x="27.783203" xlink:href="#DejaVuSans-65"/>
      <use x="89.306641" xlink:href="#DejaVuSans-6e"/>
      <use x="152.685547" xlink:href="#DejaVuSans-67"/>
      <use x="216.162109" xlink:href="#DejaVuSans-74"/>
      <use x="255.371094" xlink:href="#DejaVuSans-68"/>
      <use x="318.75" xlink:href="#DejaVuSans-20"/>
      <use x="350.537109" xlink:href="#DejaVuSans-6f"/>
      <use x="411.71875" xlink:href="#DejaVuSans-66"/>
      <use x="446.923828" xlink:href="#DejaVuSans-20"/>
      <use x="478.710938" xlink:href="#DejaVuSans-63"/>
      <use x="533.691406" xlink:href="#DejaVuSans-68"/>
      <use x="597.070312" xlink:href="#DejaVuSans-75"/>
      <use x="660.449219" xlink:href="#DejaVuSans-6e"/>
      <use x="723.828125" xlink:href="#DejaVuSans-6b"/>
      <use x="781.738281" xlink:href="#DejaVuSans-20"/>
      <use x="813.525391" xlink:href="#DejaVuSans-69"/>
      <use x="841.308594" xlink:href="#DejaVuSans-6e"/>
      <use x="904.6875" xlink:href="#DejaVuSans-20"/>
      <use x="936.474609" xlink:href="#DejaVuSans-73"/>
      <use x="988.574219" xlink:href="#DejaVuSans-65"/>
      <use x="1050.097656" xlink:href="#DejaVuSans-6e"/>
      <use x="1113.476562" xlink:href="#DejaVuSans-74"/>
      <use x="1152.685547" xlink:href="#DejaVuSans-65"/>
      <use x="1214.208984" xlink:href="#DejaVuSans-6e"/>
      <use x="1277.587891" xlink:href="#DejaVuSans-63"/>
      <use x="1332.568359" xlink:href="#DejaVuSans-65"/>
      <use x="1394.091797" xlink:href="#DejaVuSans-73"/>
     </g>
    </g>
   </g>
   <g id="matplotlib.axis_2">
    <g id="ytick_1">
     <g id="line2d_9">
      <defs>
       <path d="M 0 0 
L -3.5 0 
" id="mdea8c91391" style="stroke:#000000;stroke-width:0.8;"/>
      </defs>
      <g>
       <use style="stroke:#000000;stroke-width:0.8;" x="126" xlink:href="#mdea8c91391" y="392.570675"/>
      </g>
     </g>
     <g id="text_10">
      <!-- 12 -->
      <g transform="translate(106.275 396.369894)scale(0.1 -0.1)">
       <use xlink:href="#DejaVuSans-31"/>
       <use x="63.623047" xlink:href="#DejaVuSans-32"/>
      </g>
     </g>
    </g>
    <g id="ytick_2">
     <g id="line2d_10">
      <g>
       <use style="stroke:#000000;stroke-width:0.8;" x="126" xlink:href="#mdea8c91391" y="315.387031"/>
      </g>
     </g>
     <g id="text_11">
      <!-- 14 -->
      <defs>
       <path d="M 37.796875 64.3125 
L 12.890625 25.390625 
L 37.796875 25.390625 
z
M 35.203125 72.90625 
L 47.609375 72.90625 
L 47.609375 25.390625 
L 58.015625 25.390625 
L 58.015625 17.1875 
L 47.609375 17.1875 
L 47.609375 0 
L 37.796875 0 
L 37.796875 17.1875 
L 4.890625 17.1875 
L 4.890625 26.703125 
z
" id="DejaVuSans-34"/>
      </defs>
      <g transform="translate(106.275 319.18625)scale(0.1 -0.1)">
       <use xlink:href="#DejaVuSans-31"/>
       <use x="63.623047" xlink:href="#DejaVuSans-34"/>
      </g>
     </g>
    </g>
    <g id="ytick_3">
     <g id="line2d_11">
      <g>
       <use style="stroke:#000000;stroke-width:0.8;" x="126" xlink:href="#mdea8c91391" y="238.203388"/>
      </g>
     </g>
     <g id="text_12">
      <!-- 16 -->
      <defs>
       <path d="M 33.015625 40.375 
Q 26.375 40.375 22.484375 35.828125 
Q 18.609375 31.296875 18.609375 23.390625 
Q 18.609375 15.53125 22.484375 10.953125 
Q 26.375 6.390625 33.015625 6.390625 
Q 39.65625 6.390625 43.53125 10.953125 
Q 47.40625 15.53125 47.40625 23.390625 
Q 47.40625 31.296875 43.53125 35.828125 
Q 39.65625 40.375 33.015625 40.375 
z
M 52.59375 71.296875 
L 52.59375 62.3125 
Q 48.875 64.0625 45.09375 64.984375 
Q 41.3125 65.921875 37.59375 65.921875 
Q 27.828125 65.921875 22.671875 59.328125 
Q 17.53125 52.734375 16.796875 39.40625 
Q 19.671875 43.65625 24.015625 45.921875 
Q 28.375 48.1875 33.59375 48.1875 
Q 44.578125 48.1875 50.953125 41.515625 
Q 57.328125 34.859375 57.328125 23.390625 
Q 57.328125 12.15625 50.6875 5.359375 
Q 44.046875 -1.421875 33.015625 -1.421875 
Q 20.359375 -1.421875 13.671875 8.265625 
Q 6.984375 17.96875 6.984375 36.375 
Q 6.984375 53.65625 15.1875 63.9375 
Q 23.390625 74.21875 37.203125 74.21875 
Q 40.921875 74.21875 44.703125 73.484375 
Q 48.484375 72.75 52.59375 71.296875 
z
" id="DejaVuSans-36"/>
      </defs>
      <g transform="translate(106.275 242.002606)scale(0.1 -0.1)">
       <use xlink:href="#DejaVuSans-31"/>
       <use x="63.623047" xlink:href="#DejaVuSans-36"/>
      </g>
     </g>
    </g>
    <g id="ytick_4">
     <g id="line2d_12">
      <g>
       <use style="stroke:#000000;stroke-width:0.8;" x="126" xlink:href="#mdea8c91391" y="161.019744"/>
      </g>
     </g>
     <g id="text_13">
      <!-- 18 -->
      <defs>
       <path d="M 31.78125 34.625 
Q 24.75 34.625 20.71875 30.859375 
Q 16.703125 27.09375 16.703125 20.515625 
Q 16.703125 13.921875 20.71875 10.15625 
Q 24.75 6.390625 31.78125 6.390625 
Q 38.8125 6.390625 42.859375 10.171875 
Q 46.921875 13.96875 46.921875 20.515625 
Q 46.921875 27.09375 42.890625 30.859375 
Q 38.875 34.625 31.78125 34.625 
z
M 21.921875 38.8125 
Q 15.578125 40.375 12.03125 44.71875 
Q 8.5 49.078125 8.5 55.328125 
Q 8.5 64.0625 14.71875 69.140625 
Q 20.953125 74.21875 31.78125 74.21875 
Q 42.671875 74.21875 48.875 69.140625 
Q 55.078125 64.0625 55.078125 55.328125 
Q 55.078125 49.078125 51.53125 44.71875 
Q 48 40.375 41.703125 38.8125 
Q 48.828125 37.15625 52.796875 32.3125 
Q 56.78125 27.484375 56.78125 20.515625 
Q 56.78125 9.90625 50.3125 4.234375 
Q 43.84375 -1.421875 31.78125 -1.421875 
Q 19.734375 -1.421875 13.25 4.234375 
Q 6.78125 9.90625 6.78125 20.515625 
Q 6.78125 27.484375 10.78125 32.3125 
Q 14.796875 37.15625 21.921875 38.8125 
z
M 18.3125 54.390625 
Q 18.3125 48.734375 21.84375 45.5625 
Q 25.390625 42.390625 31.78125 42.390625 
Q 38.140625 42.390625 41.71875 45.5625 
Q 45.3125 48.734375 45.3125 54.390625 
Q 45.3125 60.0625 41.71875 63.234375 
Q 38.140625 66.40625 31.78125 66.40625 
Q 25.390625 66.40625 21.84375 63.234375 
Q 18.3125 60.0625 18.3125 54.390625 
z
" id="DejaVuSans-38"/>
      </defs>
      <g transform="translate(106.275 164.818963)scale(0.1 -0.1)">
       <use xlink:href="#DejaVuSans-31"/>
       <use x="63.623047" xlink:href="#DejaVuSans-38"/>
      </g>
     </g>
    </g>
    <g id="ytick_5">
     <g id="line2d_13">
      <g>
       <use style="stroke:#000000;stroke-width:0.8;" x="126" xlink:href="#mdea8c91391" y="83.8361"/>
      </g>
     </g>
     <g id="text_14">
      <!-- 20 -->
      <g transform="translate(106.275 87.635319)scale(0.1 -0.1)">
       <use xlink:href="#DejaVuSans-32"/>
       <use x="63.623047" xlink:href="#DejaVuSans-30"/>
      </g>
     </g>
    </g>
    <g id="text_15">
     <!-- grade level -->
     <defs>
      <path d="M 41.109375 46.296875 
Q 39.59375 47.171875 37.8125 47.578125 
Q 36.03125 48 33.890625 48 
Q 26.265625 48 22.1875 43.046875 
Q 18.109375 38.09375 18.109375 28.8125 
L 18.109375 0 
L 9.078125 0 
L 9.078125 54.6875 
L 18.109375 54.6875 
L 18.109375 46.1875 
Q 20.953125 51.171875 25.484375 53.578125 
Q 30.03125 56 36.53125 56 
Q 37.453125 56 38.578125 55.875 
Q 39.703125 55.765625 41.0625 55.515625 
z
" id="DejaVuSans-72"/>
      <path d="M 34.28125 27.484375 
Q 23.390625 27.484375 19.1875 25 
Q 14.984375 22.515625 14.984375 16.5 
Q 14.984375 11.71875 18.140625 8.90625 
Q 21.296875 6.109375 26.703125 6.109375 
Q 34.1875 6.109375 38.703125 11.40625 
Q 43.21875 16.703125 43.21875 25.484375 
L 43.21875 27.484375 
z
M 52.203125 31.203125 
L 52.203125 0 
L 43.21875 0 
L 43.21875 8.296875 
Q 40.140625 3.328125 35.546875 0.953125 
Q 30.953125 -1.421875 24.3125 -1.421875 
Q 15.921875 -1.421875 10.953125 3.296875 
Q 6 8.015625 6 15.921875 
Q 6 25.140625 12.171875 29.828125 
Q 18.359375 34.515625 30.609375 34.515625 
L 43.21875 34.515625 
L 43.21875 35.40625 
Q 43.21875 41.609375 39.140625 45 
Q 35.0625 48.390625 27.6875 48.390625 
Q 23 48.390625 18.546875 47.265625 
Q 14.109375 46.140625 10.015625 43.890625 
L 10.015625 52.203125 
Q 14.9375 54.109375 19.578125 55.046875 
Q 24.21875 56 28.609375 56 
Q 40.484375 56 46.34375 49.84375 
Q 52.203125 43.703125 52.203125 31.203125 
z
" id="DejaVuSans-61"/>
      <path d="M 45.40625 46.390625 
L 45.40625 75.984375 
L 54.390625 75.984375 
L 54.390625 0 
L 45.40625 0 
L 45.40625 8.203125 
Q 42.578125 3.328125 38.25 0.953125 
Q 33.9375 -1.421875 27.875 -1.421875 
Q 17.96875 -1.421875 11.734375 6.484375 
Q 5.515625 14.40625 5.515625 27.296875 
Q 5.515625 40.1875 11.734375 48.09375 
Q 17.96875 56 27.875 56 
Q 33.9375 56 38.25 53.625 
Q 42.578125 51.265625 45.40625 46.390625 
z
M 14.796875 27.296875 
Q 14.796875 17.390625 18.875 11.75 
Q 22.953125 6.109375 30.078125 6.109375 
Q 37.203125 6.109375 41.296875 11.75 
Q 45.40625 17.390625 45.40625 27.296875 
Q 45.40625 37.203125 41.296875 42.84375 
Q 37.203125 48.484375 30.078125 48.484375 
Q 22.953125 48.484375 18.875 42.84375 
Q 14.796875 37.203125 14.796875 27.296875 
z
" id="DejaVuSans-64"/>
      <path d="M 2.984375 54.6875 
L 12.5 54.6875 
L 29.59375 8.796875 
L 46.6875 54.6875 
L 56.203125 54.6875 
L 35.6875 0 
L 23.484375 0 
z
" id="DejaVuSans-76"/>
     </defs>
     <g transform="translate(100.195312 282.544219)rotate(-90)scale(0.1 -0.1)">
      <use xlink:href="#DejaVuSans-67"/>
      <use x="63.476562" xlink:href="#DejaVuSans-72"/>
      <use x="104.589844" xlink:href="#DejaVuSans-61"/>
      <use x="165.869141" xlink:href="#DejaVuSans-64"/>
      <use x="229.345703" xlink:href="#DejaVuSans-65"/>
      <use x="290.869141" xlink:href="#DejaVuSans-20"/>
      <use x="322.65625" xlink:href="#DejaVuSans-6c"/>
      <use x="350.439453" xlink:href="#DejaVuSans-65"/>
      <use x="411.962891" xlink:href="#DejaVuSans-76"/>
      <use x="471.142578" xlink:href="#DejaVuSans-65"/>
      <use x="532.666016" xlink:href="#DejaVuSans-6c"/>
     </g>
    </g>
   </g>
   <g id="line2d_14">
    <path clip-path="url(#pcb36eb0710)" d="M 166.172207 213.184861 
L 186.725157 233.209152 
L 207.278106 243.921994 
L 227.831056 258.078176 
L 248.384006 270.124337 
L 299.76638 276.891689 
L 351.148755 289.015953 
L 453.913503 305.160198 
L 556.678252 331.981515 
L 659.443001 333.911106 
L 762.207749 334.682942 
L 864.972498 344.330898 
L 867.027793 344.330898 
" style="fill:none;stroke:#ffa500;stroke-linecap:square;stroke-width:1.5;"/>
   </g>
   <g id="line2d_15">
    <path clip-path="url(#pcb36eb0710)" d="M 166.172207 292.419384 
L 186.725157 291.84602 
L 207.278106 292.231938 
L 227.831056 290.688265 
L 248.384006 290.522872 
L 299.76638 285.092451 
L 351.148755 287.47228 
L 453.913503 284.513574 
L 556.678252 286.829083 
L 659.443001 275.637455 
L 762.207749 284.513574 
L 864.972498 291.074183 
L 867.027793 289.144592 
" style="fill:none;stroke:#008000;stroke-linecap:square;stroke-width:1.5;"/>
   </g>
   <g id="patch_3">
    <path d="M 126 448.56 
L 126 60.48 
" style="fill:none;stroke:#000000;stroke-linecap:square;stroke-linejoin:miter;stroke-width:0.8;"/>
   </g>
   <g id="patch_4">
    <path d="M 907.2 448.56 
L 907.2 60.48 
" style="fill:none;stroke:#000000;stroke-linecap:square;stroke-linejoin:miter;stroke-width:0.8;"/>
   </g>
   <g id="patch_5">
    <path d="M 126 448.56 
L 907.2 448.56 
" style="fill:none;stroke:#000000;stroke-linecap:square;stroke-linejoin:miter;stroke-width:0.8;"/>
   </g>
   <g id="patch_6">
    <path d="M 126 60.48 
L 907.2 60.48 
" style="fill:none;stroke:#000000;stroke-linecap:square;stroke-linejoin:miter;stroke-width:0.8;"/>
   </g>
   <g id="legend_1">
    <g id="patch_7">
     <path d="M 724.715625 127.1925 
L 900.2 127.1925 
Q 902.2 127.1925 902.2 125.1925 
L 902.2 67.48 
Q 902.2 65.48 900.2 65.48 
L 724.715625 65.48 
Q 722.715625 65.48 722.715625 67.48 
L 722.715625 125.1925 
Q 722.715625 127.1925 724.715625 127.1925 
z
" style="fill:#ffffff;opacity:0.8;stroke:#cccccc;stroke-linejoin:miter;"/>
    </g>
    <g id="line2d_16">
     <path d="M 726.715625 73.578438 
L 746.715625 73.578438 
" style="fill:none;stroke:#ffa500;stroke-linecap:square;stroke-width:1.5;"/>
    </g>
    <g id="line2d_17"/>
    <g id="text_16">
     <!-- mean GFIs of this chunk size -->
     <defs>
      <path d="M 52 44.1875 
Q 55.375 50.25 60.0625 53.125 
Q 64.75 56 71.09375 56 
Q 79.640625 56 84.28125 50.015625 
Q 88.921875 44.046875 88.921875 33.015625 
L 88.921875 0 
L 79.890625 0 
L 79.890625 32.71875 
Q 79.890625 40.578125 77.09375 44.375 
Q 74.3125 48.1875 68.609375 48.1875 
Q 61.625 48.1875 57.5625 43.546875 
Q 53.515625 38.921875 53.515625 30.90625 
L 53.515625 0 
L 44.484375 0 
L 44.484375 32.71875 
Q 44.484375 40.625 41.703125 44.40625 
Q 38.921875 48.1875 33.109375 48.1875 
Q 26.21875 48.1875 22.15625 43.53125 
Q 18.109375 38.875 18.109375 30.90625 
L 18.109375 0 
L 9.078125 0 
L 9.078125 54.6875 
L 18.109375 54.6875 
L 18.109375 46.1875 
Q 21.1875 51.21875 25.484375 53.609375 
Q 29.78125 56 35.6875 56 
Q 41.65625 56 45.828125 52.96875 
Q 50 49.953125 52 44.1875 
z
" id="DejaVuSans-6d"/>
      <path d="M 59.515625 10.40625 
L 59.515625 29.984375 
L 43.40625 29.984375 
L 43.40625 38.09375 
L 69.28125 38.09375 
L 69.28125 6.78125 
Q 63.578125 2.734375 56.6875 0.65625 
Q 49.8125 -1.421875 42 -1.421875 
Q 24.90625 -1.421875 15.25 8.5625 
Q 5.609375 18.5625 5.609375 36.375 
Q 5.609375 54.25 15.25 64.234375 
Q 24.90625 74.21875 42 74.21875 
Q 49.125 74.21875 55.546875 72.453125 
Q 61.96875 70.703125 67.390625 67.28125 
L 67.390625 56.78125 
Q 61.921875 61.421875 55.765625 63.765625 
Q 49.609375 66.109375 42.828125 66.109375 
Q 29.4375 66.109375 22.71875 58.640625 
Q 16.015625 51.171875 16.015625 36.375 
Q 16.015625 21.625 22.71875 14.15625 
Q 29.4375 6.6875 42.828125 6.6875 
Q 48.046875 6.6875 52.140625 7.59375 
Q 56.25 8.5 59.515625 10.40625 
z
" id="DejaVuSans-47"/>
      <path d="M 9.8125 72.90625 
L 51.703125 72.90625 
L 51.703125 64.59375 
L 19.671875 64.59375 
L 19.671875 43.109375 
L 48.578125 43.109375 
L 48.578125 34.8125 
L 19.671875 34.8125 
L 19.671875 0 
L 9.8125 0 
z
" id="DejaVuSans-46"/>
      <path d="M 9.8125 72.90625 
L 19.671875 72.90625 
L 19.671875 0 
L 9.8125 0 
z
" id="DejaVuSans-49"/>
      <path d="M 5.515625 54.6875 
L 48.1875 54.6875 
L 48.1875 46.484375 
L 14.40625 7.171875 
L 48.1875 7.171875 
L 48.1875 0 
L 4.296875 0 
L 4.296875 8.203125 
L 38.09375 47.515625 
L 5.515625 47.515625 
z
" id="DejaVuSans-7a"/>
     </defs>
     <g transform="translate(754.715625 77.078438)scale(0.1 -0.1)">
      <use xlink:href="#DejaVuSans-6d"/>
      <use x="97.412109" xlink:href="#DejaVuSans-65"/>
      <use x="158.935547" xlink:href="#DejaVuSans-61"/>
      <use x="220.214844" xlink:href="#DejaVuSans-6e"/>
      <use x="283.59375" xlink:href="#DejaVuSans-20"/>
      <use x="315.380859" xlink:href="#DejaVuSans-47"/>
      <use x="392.871094" xlink:href="#DejaVuSans-46"/>
      <use x="450.390625" xlink:href="#DejaVuSans-49"/>
      <use x="479.882812" xlink:href="#DejaVuSans-73"/>
      <use x="531.982422" xlink:href="#DejaVuSans-20"/>
      <use x="563.769531" xlink:href="#DejaVuSans-6f"/>
      <use x="624.951172" xlink:href="#DejaVuSans-66"/>
      <use x="660.15625" xlink:href="#DejaVuSans-20"/>
      <use x="691.943359" xlink:href="#DejaVuSans-74"/>
      <use x="731.152344" xlink:href="#DejaVuSans-68"/>
      <use x="794.53125" xlink:href="#DejaVuSans-69"/>
      <use x="822.314453" xlink:href="#DejaVuSans-73"/>
      <use x="874.414062" xlink:href="#DejaVuSans-20"/>
      <use x="906.201172" xlink:href="#DejaVuSans-63"/>
      <use x="961.181641" xlink:href="#DejaVuSans-68"/>
      <use x="1024.560547" xlink:href="#DejaVuSans-75"/>
      <use x="1087.939453" xlink:href="#DejaVuSans-6e"/>
      <use x="1151.318359" xlink:href="#DejaVuSans-6b"/>
      <use x="1209.228516" xlink:href="#DejaVuSans-20"/>
      <use x="1241.015625" xlink:href="#DejaVuSans-73"/>
      <use x="1293.115234" xlink:href="#DejaVuSans-69"/>
      <use x="1320.898438" xlink:href="#DejaVuSans-7a"/>
      <use x="1373.388672" xlink:href="#DejaVuSans-65"/>
     </g>
    </g>
    <g id="line2d_18">
     <path d="M 726.715625 88.256563 
L 746.715625 88.256563 
" style="fill:none;stroke:#008000;stroke-linecap:square;stroke-width:1.5;"/>
    </g>
    <g id="line2d_19"/>
    <g id="text_17">
     <!-- mean CLIs of this chunk size -->
     <defs>
      <path d="M 64.40625 67.28125 
L 64.40625 56.890625 
Q 59.421875 61.53125 53.78125 63.8125 
Q 48.140625 66.109375 41.796875 66.109375 
Q 29.296875 66.109375 22.65625 58.46875 
Q 16.015625 50.828125 16.015625 36.375 
Q 16.015625 21.96875 22.65625 14.328125 
Q 29.296875 6.6875 41.796875 6.6875 
Q 48.140625 6.6875 53.78125 8.984375 
Q 59.421875 11.28125 64.40625 15.921875 
L 64.40625 5.609375 
Q 59.234375 2.09375 53.4375 0.328125 
Q 47.65625 -1.421875 41.21875 -1.421875 
Q 24.65625 -1.421875 15.125 8.703125 
Q 5.609375 18.84375 5.609375 36.375 
Q 5.609375 53.953125 15.125 64.078125 
Q 24.65625 74.21875 41.21875 74.21875 
Q 47.75 74.21875 53.53125 72.484375 
Q 59.328125 70.75 64.40625 67.28125 
z
" id="DejaVuSans-43"/>
      <path d="M 9.8125 72.90625 
L 19.671875 72.90625 
L 19.671875 8.296875 
L 55.171875 8.296875 
L 55.171875 0 
L 9.8125 0 
z
" id="DejaVuSans-4c"/>
     </defs>
     <g transform="translate(754.715625 91.756563)scale(0.1 -0.1)">
      <use xlink:href="#DejaVuSans-6d"/>
      <use x="97.412109" xlink:href="#DejaVuSans-65"/>
      <use x="158.935547" xlink:href="#DejaVuSans-61"/>
      <use x="220.214844" xlink:href="#DejaVuSans-6e"/>
      <use x="283.59375" xlink:href="#DejaVuSans-20"/>
      <use x="315.380859" xlink:href="#DejaVuSans-43"/>
      <use x="385.205078" xlink:href="#DejaVuSans-4c"/>
      <use x="440.917969" xlink:href="#DejaVuSans-49"/>
      <use x="470.410156" xlink:href="#DejaVuSans-73"/>
      <use x="522.509766" xlink:href="#DejaVuSans-20"/>
      <use x="554.296875" xlink:href="#DejaVuSans-6f"/>
      <use x="615.478516" xlink:href="#DejaVuSans-66"/>
      <use x="650.683594" xlink:href="#DejaVuSans-20"/>
      <use x="682.470703" xlink:href="#DejaVuSans-74"/>
      <use x="721.679688" xlink:href="#DejaVuSans-68"/>
      <use x="785.058594" xlink:href="#DejaVuSans-69"/>
      <use x="812.841797" xlink:href="#DejaVuSans-73"/>
      <use x="864.941406" xlink:href="#DejaVuSans-20"/>
      <use x="896.728516" xlink:href="#DejaVuSans-63"/>
      <use x="951.708984" xlink:href="#DejaVuSans-68"/>
      <use x="1015.087891" xlink:href="#DejaVuSans-75"/>
      <use x="1078.466797" xlink:href="#DejaVuSans-6e"/>
      <use x="1141.845703" xlink:href="#DejaVuSans-6b"/>
      <use x="1199.755859" xlink:href="#DejaVuSans-20"/>
      <use x="1231.542969" xlink:href="#DejaVuSans-73"/>
      <use x="1283.642578" xlink:href="#DejaVuSans-69"/>
      <use x="1311.425781" xlink:href="#DejaVuSans-7a"/>
      <use x="1363.916016" xlink:href="#DejaVuSans-65"/>
     </g>
    </g>
    <g id="PathCollection_3">
     <g>
      <use style="fill:#ffa500;stroke:#ffa500;" x="736.715625" xlink:href="#mc3eaee67ea" y="103.809688"/>
     </g>
    </g>
    <g id="text_18">
     <!-- GFI -->
     <g transform="translate(754.715625 106.434688)scale(0.1 -0.1)">
      <use xlink:href="#DejaVuSans-47"/>
      <use x="77.490234" xlink:href="#DejaVuSans-46"/>
      <use x="135.009766" xlink:href="#DejaVuSans-49"/>
     </g>
    </g>
    <g id="PathCollection_4">
     <g>
      <use style="fill:#008000;stroke:#008000;" x="736.715625" xlink:href="#m2a488be5c1" y="118.487813"/>
     </g>
    </g>
    <g id="text_19">
     <!-- CLI -->
     <g transform="translate(754.715625 121.112813)scale(0.1 -0.1)">
      <use xlink:href="#DejaVuSans-43"/>
      <use x="69.824219" xlink:href="#DejaVuSans-4c"/>
      <use x="125.537109" xlink:href="#DejaVuSans-49"/>
     </g>
    </g>
   </g>
  </g>
 </g>
 <defs>
  <clipPath id="pcb36eb0710">
   <rect height="388.08" width="781.2" x="126" y="60.48"/>
  </clipPath>
 </defs>
</svg>
