<?xml version="1.0" encoding="utf-8" standalone="no"?>
<!DOCTYPE svg PUBLIC "-//W3C//DTD SVG 1.1//EN"
  "http://www.w3.org/Graphics/SVG/1.1/DTD/svg11.dtd">
<!-- Created with matplotlib (https://matplotlib.org/) -->
<svg height="436.33625pt" version="1.1" viewBox="0 0 832.503125 436.33625" width="832.503125pt" xmlns="http://www.w3.org/2000/svg" xmlns:xlink="http://www.w3.org/1999/xlink">
 <defs>
  <style type="text/css">
*{stroke-linecap:butt;stroke-linejoin:round;}
  </style>
 </defs>
 <g id="figure_1">
  <g id="patch_1">
   <path d="M 0 436.33625 
L 832.503125 436.33625 
L 832.503125 0 
L 0 0 
z
" style="fill:#ffffff;"/>
  </g>
  <g id="axes_1">
   <g id="patch_2">
    <path d="M 40.603125 398.78 
L 821.803125 398.78 
L 821.803125 10.7 
L 40.603125 10.7 
z
" style="fill:#ffffff;"/>
   </g>
   <g id="matplotlib.axis_1">
    <g id="xtick_1">
     <g id="line2d_1">
      <defs>
       <path d="M 0 0 
L 0 3.5 
" id="maad199a75d" style="stroke:#000000;stroke-width:0.8;"/>
      </defs>
      <g>
       <use style="stroke:#000000;stroke-width:0.8;" x="71.281047" xlink:href="#maad199a75d" y="398.78"/>
      </g>
     </g>
     <g id="text_1">
      <!-- 0 -->
      <defs>
       <path d="M 31.78125 66.40625 
Q 24.171875 66.40625 20.328125 58.90625 
Q 16.5 51.421875 16.5 36.375 
Q 16.5 21.390625 20.328125 13.890625 
Q 24.171875 6.390625 31.78125 6.390625 
Q 39.453125 6.390625 43.28125 13.890625 
Q 47.125 21.390625 47.125 36.375 
Q 47.125 51.421875 43.28125 58.90625 
Q 39.453125 66.40625 31.78125 66.40625 
z
M 31.78125 74.21875 
Q 44.046875 74.21875 50.515625 64.515625 
Q 56.984375 54.828125 56.984375 36.375 
Q 56.984375 17.96875 50.515625 8.265625 
Q 44.046875 -1.421875 31.78125 -1.421875 
Q 19.53125 -1.421875 13.0625 8.265625 
Q 6.59375 17.96875 6.59375 36.375 
Q 6.59375 54.828125 13.0625 64.515625 
Q 19.53125 74.21875 31.78125 74.21875 
z
" id="DejaVuSans-48"/>
      </defs>
      <g transform="translate(68.099797 413.378437)scale(0.1 -0.1)">
       <use xlink:href="#DejaVuSans-48"/>
      </g>
     </g>
    </g>
    <g id="xtick_2">
     <g id="line2d_2">
      <g>
       <use style="stroke:#000000;stroke-width:0.8;" x="214.283644" xlink:href="#maad199a75d" y="398.78"/>
      </g>
     </g>
     <g id="text_2">
      <!-- 20 -->
      <defs>
       <path d="M 19.1875 8.296875 
L 53.609375 8.296875 
L 53.609375 0 
L 7.328125 0 
L 7.328125 8.296875 
Q 12.9375 14.109375 22.625 23.890625 
Q 32.328125 33.6875 34.8125 36.53125 
Q 39.546875 41.84375 41.421875 45.53125 
Q 43.3125 49.21875 43.3125 52.78125 
Q 43.3125 58.59375 39.234375 62.25 
Q 35.15625 65.921875 28.609375 65.921875 
Q 23.96875 65.921875 18.8125 64.3125 
Q 13.671875 62.703125 7.8125 59.421875 
L 7.8125 69.390625 
Q 13.765625 71.78125 18.9375 73 
Q 24.125 74.21875 28.421875 74.21875 
Q 39.75 74.21875 46.484375 68.546875 
Q 53.21875 62.890625 53.21875 53.421875 
Q 53.21875 48.921875 51.53125 44.890625 
Q 49.859375 40.875 45.40625 35.40625 
Q 44.1875 33.984375 37.640625 27.21875 
Q 31.109375 20.453125 19.1875 8.296875 
z
" id="DejaVuSans-50"/>
      </defs>
      <g transform="translate(207.921144 413.378437)scale(0.1 -0.1)">
       <use xlink:href="#DejaVuSans-50"/>
       <use x="63.623047" xlink:href="#DejaVuSans-48"/>
      </g>
     </g>
    </g>
    <g id="xtick_3">
     <g id="line2d_3">
      <g>
       <use style="stroke:#000000;stroke-width:0.8;" x="357.286242" xlink:href="#maad199a75d" y="398.78"/>
      </g>
     </g>
     <g id="text_3">
      <!-- 40 -->
      <defs>
       <path d="M 37.796875 64.3125 
L 12.890625 25.390625 
L 37.796875 25.390625 
z
M 35.203125 72.90625 
L 47.609375 72.90625 
L 47.609375 25.390625 
L 58.015625 25.390625 
L 58.015625 17.1875 
L 47.609375 17.1875 
L 47.609375 0 
L 37.796875 0 
L 37.796875 17.1875 
L 4.890625 17.1875 
L 4.890625 26.703125 
z
" id="DejaVuSans-52"/>
      </defs>
      <g transform="translate(350.923742 413.378437)scale(0.1 -0.1)">
       <use xlink:href="#DejaVuSans-52"/>
       <use x="63.623047" xlink:href="#DejaVuSans-48"/>
      </g>
     </g>
    </g>
    <g id="xtick_4">
     <g id="line2d_4">
      <g>
       <use style="stroke:#000000;stroke-width:0.8;" x="500.288839" xlink:href="#maad199a75d" y="398.78"/>
      </g>
     </g>
     <g id="text_4">
      <!-- 60 -->
      <defs>
       <path d="M 33.015625 40.375 
Q 26.375 40.375 22.484375 35.828125 
Q 18.609375 31.296875 18.609375 23.390625 
Q 18.609375 15.53125 22.484375 10.953125 
Q 26.375 6.390625 33.015625 6.390625 
Q 39.65625 6.390625 43.53125 10.953125 
Q 47.40625 15.53125 47.40625 23.390625 
Q 47.40625 31.296875 43.53125 35.828125 
Q 39.65625 40.375 33.015625 40.375 
z
M 52.59375 71.296875 
L 52.59375 62.3125 
Q 48.875 64.0625 45.09375 64.984375 
Q 41.3125 65.921875 37.59375 65.921875 
Q 27.828125 65.921875 22.671875 59.328125 
Q 17.53125 52.734375 16.796875 39.40625 
Q 19.671875 43.65625 24.015625 45.921875 
Q 28.375 48.1875 33.59375 48.1875 
Q 44.578125 48.1875 50.953125 41.515625 
Q 57.328125 34.859375 57.328125 23.390625 
Q 57.328125 12.15625 50.6875 5.359375 
Q 44.046875 -1.421875 33.015625 -1.421875 
Q 20.359375 -1.421875 13.671875 8.265625 
Q 6.984375 17.96875 6.984375 36.375 
Q 6.984375 53.65625 15.1875 63.9375 
Q 23.390625 74.21875 37.203125 74.21875 
Q 40.921875 74.21875 44.703125 73.484375 
Q 48.484375 72.75 52.59375 71.296875 
z
" id="DejaVuSans-54"/>
      </defs>
      <g transform="translate(493.926339 413.378437)scale(0.1 -0.1)">
       <use xlink:href="#DejaVuSans-54"/>
       <use x="63.623047" xlink:href="#DejaVuSans-48"/>
      </g>
     </g>
    </g>
    <g id="xtick_5">
     <g id="line2d_5">
      <g>
       <use style="stroke:#000000;stroke-width:0.8;" x="643.291437" xlink:href="#maad199a75d" y="398.78"/>
      </g>
     </g>
     <g id="text_5">
      <!-- 80 -->
      <defs>
       <path d="M 31.78125 34.625 
Q 24.75 34.625 20.71875 30.859375 
Q 16.703125 27.09375 16.703125 20.515625 
Q 16.703125 13.921875 20.71875 10.15625 
Q 24.75 6.390625 31.78125 6.390625 
Q 38.8125 6.390625 42.859375 10.171875 
Q 46.921875 13.96875 46.921875 20.515625 
Q 46.921875 27.09375 42.890625 30.859375 
Q 38.875 34.625 31.78125 34.625 
z
M 21.921875 38.8125 
Q 15.578125 40.375 12.03125 44.71875 
Q 8.5 49.078125 8.5 55.328125 
Q 8.5 64.0625 14.71875 69.140625 
Q 20.953125 74.21875 31.78125 74.21875 
Q 42.671875 74.21875 48.875 69.140625 
Q 55.078125 64.0625 55.078125 55.328125 
Q 55.078125 49.078125 51.53125 44.71875 
Q 48 40.375 41.703125 38.8125 
Q 48.828125 37.15625 52.796875 32.3125 
Q 56.78125 27.484375 56.78125 20.515625 
Q 56.78125 9.90625 50.3125 4.234375 
Q 43.84375 -1.421875 31.78125 -1.421875 
Q 19.734375 -1.421875 13.25 4.234375 
Q 6.78125 9.90625 6.78125 20.515625 
Q 6.78125 27.484375 10.78125 32.3125 
Q 14.796875 37.15625 21.921875 38.8125 
z
M 18.3125 54.390625 
Q 18.3125 48.734375 21.84375 45.5625 
Q 25.390625 42.390625 31.78125 42.390625 
Q 38.140625 42.390625 41.71875 45.5625 
Q 45.3125 48.734375 45.3125 54.390625 
Q 45.3125 60.0625 41.71875 63.234375 
Q 38.140625 66.40625 31.78125 66.40625 
Q 25.390625 66.40625 21.84375 63.234375 
Q 18.3125 60.0625 18.3125 54.390625 
z
" id="DejaVuSans-56"/>
      </defs>
      <g transform="translate(636.928937 413.378437)scale(0.1 -0.1)">
       <use xlink:href="#DejaVuSans-56"/>
       <use x="63.623047" xlink:href="#DejaVuSans-48"/>
      </g>
     </g>
    </g>
    <g id="xtick_6">
     <g id="line2d_6">
      <g>
       <use style="stroke:#000000;stroke-width:0.8;" x="786.294034" xlink:href="#maad199a75d" y="398.78"/>
      </g>
     </g>
     <g id="text_6">
      <!-- 100 -->
      <defs>
       <path d="M 12.40625 8.296875 
L 28.515625 8.296875 
L 28.515625 63.921875 
L 10.984375 60.40625 
L 10.984375 69.390625 
L 28.421875 72.90625 
L 38.28125 72.90625 
L 38.28125 8.296875 
L 54.390625 8.296875 
L 54.390625 0 
L 12.40625 0 
z
" id="DejaVuSans-49"/>
      </defs>
      <g transform="translate(776.750284 413.378437)scale(0.1 -0.1)">
       <use xlink:href="#DejaVuSans-49"/>
       <use x="63.623047" xlink:href="#DejaVuSans-48"/>
       <use x="127.246094" xlink:href="#DejaVuSans-48"/>
      </g>
     </g>
    </g>
    <g id="text_7">
     <!-- document's percentage of the chunk's end -->
     <defs>
      <path d="M 45.40625 46.390625 
L 45.40625 75.984375 
L 54.390625 75.984375 
L 54.390625 0 
L 45.40625 0 
L 45.40625 8.203125 
Q 42.578125 3.328125 38.25 0.953125 
Q 33.9375 -1.421875 27.875 -1.421875 
Q 17.96875 -1.421875 11.734375 6.484375 
Q 5.515625 14.40625 5.515625 27.296875 
Q 5.515625 40.1875 11.734375 48.09375 
Q 17.96875 56 27.875 56 
Q 33.9375 56 38.25 53.625 
Q 42.578125 51.265625 45.40625 46.390625 
z
M 14.796875 27.296875 
Q 14.796875 17.390625 18.875 11.75 
Q 22.953125 6.109375 30.078125 6.109375 
Q 37.203125 6.109375 41.296875 11.75 
Q 45.40625 17.390625 45.40625 27.296875 
Q 45.40625 37.203125 41.296875 42.84375 
Q 37.203125 48.484375 30.078125 48.484375 
Q 22.953125 48.484375 18.875 42.84375 
Q 14.796875 37.203125 14.796875 27.296875 
z
" id="DejaVuSans-100"/>
      <path d="M 30.609375 48.390625 
Q 23.390625 48.390625 19.1875 42.75 
Q 14.984375 37.109375 14.984375 27.296875 
Q 14.984375 17.484375 19.15625 11.84375 
Q 23.34375 6.203125 30.609375 6.203125 
Q 37.796875 6.203125 41.984375 11.859375 
Q 46.1875 17.53125 46.1875 27.296875 
Q 46.1875 37.015625 41.984375 42.703125 
Q 37.796875 48.390625 30.609375 48.390625 
z
M 30.609375 56 
Q 42.328125 56 49.015625 48.375 
Q 55.71875 40.765625 55.71875 27.296875 
Q 55.71875 13.875 49.015625 6.21875 
Q 42.328125 -1.421875 30.609375 -1.421875 
Q 18.84375 -1.421875 12.171875 6.21875 
Q 5.515625 13.875 5.515625 27.296875 
Q 5.515625 40.765625 12.171875 48.375 
Q 18.84375 56 30.609375 56 
z
" id="DejaVuSans-111"/>
      <path d="M 48.78125 52.59375 
L 48.78125 44.1875 
Q 44.96875 46.296875 41.140625 47.34375 
Q 37.3125 48.390625 33.40625 48.390625 
Q 24.65625 48.390625 19.8125 42.84375 
Q 14.984375 37.3125 14.984375 27.296875 
Q 14.984375 17.28125 19.8125 11.734375 
Q 24.65625 6.203125 33.40625 6.203125 
Q 37.3125 6.203125 41.140625 7.25 
Q 44.96875 8.296875 48.78125 10.40625 
L 48.78125 2.09375 
Q 45.015625 0.34375 40.984375 -0.53125 
Q 36.96875 -1.421875 32.421875 -1.421875 
Q 20.0625 -1.421875 12.78125 6.34375 
Q 5.515625 14.109375 5.515625 27.296875 
Q 5.515625 40.671875 12.859375 48.328125 
Q 20.21875 56 33.015625 56 
Q 37.15625 56 41.109375 55.140625 
Q 45.0625 54.296875 48.78125 52.59375 
z
" id="DejaVuSans-99"/>
      <path d="M 8.5 21.578125 
L 8.5 54.6875 
L 17.484375 54.6875 
L 17.484375 21.921875 
Q 17.484375 14.15625 20.5 10.265625 
Q 23.53125 6.390625 29.59375 6.390625 
Q 36.859375 6.390625 41.078125 11.03125 
Q 45.3125 15.671875 45.3125 23.6875 
L 45.3125 54.6875 
L 54.296875 54.6875 
L 54.296875 0 
L 45.3125 0 
L 45.3125 8.40625 
Q 42.046875 3.421875 37.71875 1 
Q 33.40625 -1.421875 27.6875 -1.421875 
Q 18.265625 -1.421875 13.375 4.4375 
Q 8.5 10.296875 8.5 21.578125 
z
M 31.109375 56 
z
" id="DejaVuSans-117"/>
      <path d="M 52 44.1875 
Q 55.375 50.25 60.0625 53.125 
Q 64.75 56 71.09375 56 
Q 79.640625 56 84.28125 50.015625 
Q 88.921875 44.046875 88.921875 33.015625 
L 88.921875 0 
L 79.890625 0 
L 79.890625 32.71875 
Q 79.890625 40.578125 77.09375 44.375 
Q 74.3125 48.1875 68.609375 48.1875 
Q 61.625 48.1875 57.5625 43.546875 
Q 53.515625 38.921875 53.515625 30.90625 
L 53.515625 0 
L 44.484375 0 
L 44.484375 32.71875 
Q 44.484375 40.625 41.703125 44.40625 
Q 38.921875 48.1875 33.109375 48.1875 
Q 26.21875 48.1875 22.15625 43.53125 
Q 18.109375 38.875 18.109375 30.90625 
L 18.109375 0 
L 9.078125 0 
L 9.078125 54.6875 
L 18.109375 54.6875 
L 18.109375 46.1875 
Q 21.1875 51.21875 25.484375 53.609375 
Q 29.78125 56 35.6875 56 
Q 41.65625 56 45.828125 52.96875 
Q 50 49.953125 52 44.1875 
z
" id="DejaVuSans-109"/>
      <path d="M 56.203125 29.59375 
L 56.203125 25.203125 
L 14.890625 25.203125 
Q 15.484375 15.921875 20.484375 11.0625 
Q 25.484375 6.203125 34.421875 6.203125 
Q 39.59375 6.203125 44.453125 7.46875 
Q 49.3125 8.734375 54.109375 11.28125 
L 54.109375 2.78125 
Q 49.265625 0.734375 44.1875 -0.34375 
Q 39.109375 -1.421875 33.890625 -1.421875 
Q 20.796875 -1.421875 13.15625 6.1875 
Q 5.515625 13.8125 5.515625 26.8125 
Q 5.515625 40.234375 12.765625 48.109375 
Q 20.015625 56 32.328125 56 
Q 43.359375 56 49.78125 48.890625 
Q 56.203125 41.796875 56.203125 29.59375 
z
M 47.21875 32.234375 
Q 47.125 39.59375 43.09375 43.984375 
Q 39.0625 48.390625 32.421875 48.390625 
Q 24.90625 48.390625 20.390625 44.140625 
Q 15.875 39.890625 15.1875 32.171875 
z
" id="DejaVuSans-101"/>
      <path d="M 54.890625 33.015625 
L 54.890625 0 
L 45.90625 0 
L 45.90625 32.71875 
Q 45.90625 40.484375 42.875 44.328125 
Q 39.84375 48.1875 33.796875 48.1875 
Q 26.515625 48.1875 22.3125 43.546875 
Q 18.109375 38.921875 18.109375 30.90625 
L 18.109375 0 
L 9.078125 0 
L 9.078125 54.6875 
L 18.109375 54.6875 
L 18.109375 46.1875 
Q 21.34375 51.125 25.703125 53.5625 
Q 30.078125 56 35.796875 56 
Q 45.21875 56 50.046875 50.171875 
Q 54.890625 44.34375 54.890625 33.015625 
z
" id="DejaVuSans-110"/>
      <path d="M 18.3125 70.21875 
L 18.3125 54.6875 
L 36.8125 54.6875 
L 36.8125 47.703125 
L 18.3125 47.703125 
L 18.3125 18.015625 
Q 18.3125 11.328125 20.140625 9.421875 
Q 21.96875 7.515625 27.59375 7.515625 
L 36.8125 7.515625 
L 36.8125 0 
L 27.59375 0 
Q 17.1875 0 13.234375 3.875 
Q 9.28125 7.765625 9.28125 18.015625 
L 9.28125 47.703125 
L 2.6875 47.703125 
L 2.6875 54.6875 
L 9.28125 54.6875 
L 9.28125 70.21875 
z
" id="DejaVuSans-116"/>
      <path d="M 17.921875 72.90625 
L 17.921875 45.796875 
L 9.625 45.796875 
L 9.625 72.90625 
z
" id="DejaVuSans-39"/>
      <path d="M 44.28125 53.078125 
L 44.28125 44.578125 
Q 40.484375 46.53125 36.375 47.5 
Q 32.28125 48.484375 27.875 48.484375 
Q 21.1875 48.484375 17.84375 46.4375 
Q 14.5 44.390625 14.5 40.28125 
Q 14.5 37.15625 16.890625 35.375 
Q 19.28125 33.59375 26.515625 31.984375 
L 29.59375 31.296875 
Q 39.15625 29.25 43.1875 25.515625 
Q 47.21875 21.78125 47.21875 15.09375 
Q 47.21875 7.46875 41.1875 3.015625 
Q 35.15625 -1.421875 24.609375 -1.421875 
Q 20.21875 -1.421875 15.453125 -0.5625 
Q 10.6875 0.296875 5.421875 2 
L 5.421875 11.28125 
Q 10.40625 8.6875 15.234375 7.390625 
Q 20.0625 6.109375 24.8125 6.109375 
Q 31.15625 6.109375 34.5625 8.28125 
Q 37.984375 10.453125 37.984375 14.40625 
Q 37.984375 18.0625 35.515625 20.015625 
Q 33.0625 21.96875 24.703125 23.78125 
L 21.578125 24.515625 
Q 13.234375 26.265625 9.515625 29.90625 
Q 5.8125 33.546875 5.8125 39.890625 
Q 5.8125 47.609375 11.28125 51.796875 
Q 16.75 56 26.8125 56 
Q 31.78125 56 36.171875 55.265625 
Q 40.578125 54.546875 44.28125 53.078125 
z
" id="DejaVuSans-115"/>
      <path id="DejaVuSans-32"/>
      <path d="M 18.109375 8.203125 
L 18.109375 -20.796875 
L 9.078125 -20.796875 
L 9.078125 54.6875 
L 18.109375 54.6875 
L 18.109375 46.390625 
Q 20.953125 51.265625 25.265625 53.625 
Q 29.59375 56 35.59375 56 
Q 45.5625 56 51.78125 48.09375 
Q 58.015625 40.1875 58.015625 27.296875 
Q 58.015625 14.40625 51.78125 6.484375 
Q 45.5625 -1.421875 35.59375 -1.421875 
Q 29.59375 -1.421875 25.265625 0.953125 
Q 20.953125 3.328125 18.109375 8.203125 
z
M 48.6875 27.296875 
Q 48.6875 37.203125 44.609375 42.84375 
Q 40.53125 48.484375 33.40625 48.484375 
Q 26.265625 48.484375 22.1875 42.84375 
Q 18.109375 37.203125 18.109375 27.296875 
Q 18.109375 17.390625 22.1875 11.75 
Q 26.265625 6.109375 33.40625 6.109375 
Q 40.53125 6.109375 44.609375 11.75 
Q 48.6875 17.390625 48.6875 27.296875 
z
" id="DejaVuSans-112"/>
      <path d="M 41.109375 46.296875 
Q 39.59375 47.171875 37.8125 47.578125 
Q 36.03125 48 33.890625 48 
Q 26.265625 48 22.1875 43.046875 
Q 18.109375 38.09375 18.109375 28.8125 
L 18.109375 0 
L 9.078125 0 
L 9.078125 54.6875 
L 18.109375 54.6875 
L 18.109375 46.1875 
Q 20.953125 51.171875 25.484375 53.578125 
Q 30.03125 56 36.53125 56 
Q 37.453125 56 38.578125 55.875 
Q 39.703125 55.765625 41.0625 55.515625 
z
" id="DejaVuSans-114"/>
      <path d="M 34.28125 27.484375 
Q 23.390625 27.484375 19.1875 25 
Q 14.984375 22.515625 14.984375 16.5 
Q 14.984375 11.71875 18.140625 8.90625 
Q 21.296875 6.109375 26.703125 6.109375 
Q 34.1875 6.109375 38.703125 11.40625 
Q 43.21875 16.703125 43.21875 25.484375 
L 43.21875 27.484375 
z
M 52.203125 31.203125 
L 52.203125 0 
L 43.21875 0 
L 43.21875 8.296875 
Q 40.140625 3.328125 35.546875 0.953125 
Q 30.953125 -1.421875 24.3125 -1.421875 
Q 15.921875 -1.421875 10.953125 3.296875 
Q 6 8.015625 6 15.921875 
Q 6 25.140625 12.171875 29.828125 
Q 18.359375 34.515625 30.609375 34.515625 
L 43.21875 34.515625 
L 43.21875 35.40625 
Q 43.21875 41.609375 39.140625 45 
Q 35.0625 48.390625 27.6875 48.390625 
Q 23 48.390625 18.546875 47.265625 
Q 14.109375 46.140625 10.015625 43.890625 
L 10.015625 52.203125 
Q 14.9375 54.109375 19.578125 55.046875 
Q 24.21875 56 28.609375 56 
Q 40.484375 56 46.34375 49.84375 
Q 52.203125 43.703125 52.203125 31.203125 
z
" id="DejaVuSans-97"/>
      <path d="M 45.40625 27.984375 
Q 45.40625 37.75 41.375 43.109375 
Q 37.359375 48.484375 30.078125 48.484375 
Q 22.859375 48.484375 18.828125 43.109375 
Q 14.796875 37.75 14.796875 27.984375 
Q 14.796875 18.265625 18.828125 12.890625 
Q 22.859375 7.515625 30.078125 7.515625 
Q 37.359375 7.515625 41.375 12.890625 
Q 45.40625 18.265625 45.40625 27.984375 
z
M 54.390625 6.78125 
Q 54.390625 -7.171875 48.1875 -13.984375 
Q 42 -20.796875 29.203125 -20.796875 
Q 24.46875 -20.796875 20.265625 -20.09375 
Q 16.0625 -19.390625 12.109375 -17.921875 
L 12.109375 -9.1875 
Q 16.0625 -11.328125 19.921875 -12.34375 
Q 23.78125 -13.375 27.78125 -13.375 
Q 36.625 -13.375 41.015625 -8.765625 
Q 45.40625 -4.15625 45.40625 5.171875 
L 45.40625 9.625 
Q 42.625 4.78125 38.28125 2.390625 
Q 33.9375 0 27.875 0 
Q 17.828125 0 11.671875 7.65625 
Q 5.515625 15.328125 5.515625 27.984375 
Q 5.515625 40.671875 11.671875 48.328125 
Q 17.828125 56 27.875 56 
Q 33.9375 56 38.28125 53.609375 
Q 42.625 51.21875 45.40625 46.390625 
L 45.40625 54.6875 
L 54.390625 54.6875 
z
" id="DejaVuSans-103"/>
      <path d="M 37.109375 75.984375 
L 37.109375 68.5 
L 28.515625 68.5 
Q 23.6875 68.5 21.796875 66.546875 
Q 19.921875 64.59375 19.921875 59.515625 
L 19.921875 54.6875 
L 34.71875 54.6875 
L 34.71875 47.703125 
L 19.921875 47.703125 
L 19.921875 0 
L 10.890625 0 
L 10.890625 47.703125 
L 2.296875 47.703125 
L 2.296875 54.6875 
L 10.890625 54.6875 
L 10.890625 58.5 
Q 10.890625 67.625 15.140625 71.796875 
Q 19.390625 75.984375 28.609375 75.984375 
z
" id="DejaVuSans-102"/>
      <path d="M 54.890625 33.015625 
L 54.890625 0 
L 45.90625 0 
L 45.90625 32.71875 
Q 45.90625 40.484375 42.875 44.328125 
Q 39.84375 48.1875 33.796875 48.1875 
Q 26.515625 48.1875 22.3125 43.546875 
Q 18.109375 38.921875 18.109375 30.90625 
L 18.109375 0 
L 9.078125 0 
L 9.078125 75.984375 
L 18.109375 75.984375 
L 18.109375 46.1875 
Q 21.34375 51.125 25.703125 53.5625 
Q 30.078125 56 35.796875 56 
Q 45.21875 56 50.046875 50.171875 
Q 54.890625 44.34375 54.890625 33.015625 
z
" id="DejaVuSans-104"/>
      <path d="M 9.078125 75.984375 
L 18.109375 75.984375 
L 18.109375 31.109375 
L 44.921875 54.6875 
L 56.390625 54.6875 
L 27.390625 29.109375 
L 57.625 0 
L 45.90625 0 
L 18.109375 26.703125 
L 18.109375 0 
L 9.078125 0 
z
" id="DejaVuSans-107"/>
     </defs>
     <g transform="translate(323.903125 427.056562)scale(0.1 -0.1)">
      <use xlink:href="#DejaVuSans-100"/>
      <use x="63.476562" xlink:href="#DejaVuSans-111"/>
      <use x="124.658203" xlink:href="#DejaVuSans-99"/>
      <use x="179.638672" xlink:href="#DejaVuSans-117"/>
      <use x="243.017578" xlink:href="#DejaVuSans-109"/>
      <use x="340.429688" xlink:href="#DejaVuSans-101"/>
      <use x="401.953125" xlink:href="#DejaVuSans-110"/>
      <use x="465.332031" xlink:href="#DejaVuSans-116"/>
      <use x="504.541016" xlink:href="#DejaVuSans-39"/>
      <use x="532.03125" xlink:href="#DejaVuSans-115"/>
      <use x="584.130859" xlink:href="#DejaVuSans-32"/>
      <use x="615.917969" xlink:href="#DejaVuSans-112"/>
      <use x="679.394531" xlink:href="#DejaVuSans-101"/>
      <use x="740.917969" xlink:href="#DejaVuSans-114"/>
      <use x="782" xlink:href="#DejaVuSans-99"/>
      <use x="836.980469" xlink:href="#DejaVuSans-101"/>
      <use x="898.503906" xlink:href="#DejaVuSans-110"/>
      <use x="961.882812" xlink:href="#DejaVuSans-116"/>
      <use x="1001.091797" xlink:href="#DejaVuSans-97"/>
      <use x="1062.371094" xlink:href="#DejaVuSans-103"/>
      <use x="1125.847656" xlink:href="#DejaVuSans-101"/>
      <use x="1187.371094" xlink:href="#DejaVuSans-32"/>
      <use x="1219.158203" xlink:href="#DejaVuSans-111"/>
      <use x="1280.339844" xlink:href="#DejaVuSans-102"/>
      <use x="1315.544922" xlink:href="#DejaVuSans-32"/>
      <use x="1347.332031" xlink:href="#DejaVuSans-116"/>
      <use x="1386.541016" xlink:href="#DejaVuSans-104"/>
      <use x="1449.919922" xlink:href="#DejaVuSans-101"/>
      <use x="1511.443359" xlink:href="#DejaVuSans-32"/>
      <use x="1543.230469" xlink:href="#DejaVuSans-99"/>
      <use x="1598.210938" xlink:href="#DejaVuSans-104"/>
      <use x="1661.589844" xlink:href="#DejaVuSans-117"/>
      <use x="1724.96875" xlink:href="#DejaVuSans-110"/>
      <use x="1788.347656" xlink:href="#DejaVuSans-107"/>
      <use x="1846.257812" xlink:href="#DejaVuSans-39"/>
      <use x="1873.748047" xlink:href="#DejaVuSans-115"/>
      <use x="1925.847656" xlink:href="#DejaVuSans-32"/>
      <use x="1957.634766" xlink:href="#DejaVuSans-101"/>
      <use x="2019.158203" xlink:href="#DejaVuSans-110"/>
      <use x="2082.537109" xlink:href="#DejaVuSans-100"/>
     </g>
    </g>
   </g>
   <g id="matplotlib.axis_2">
    <g id="ytick_1">
     <g id="line2d_7">
      <defs>
       <path d="M 0 0 
L -3.5 0 
" id="ma7758a9b96" style="stroke:#000000;stroke-width:0.8;"/>
      </defs>
      <g>
       <use style="stroke:#000000;stroke-width:0.8;" x="40.603125" xlink:href="#ma7758a9b96" y="322.059679"/>
      </g>
     </g>
     <g id="text_8">
      <!-- 10 -->
      <g transform="translate(20.878125 325.858898)scale(0.1 -0.1)">
       <use xlink:href="#DejaVuSans-49"/>
       <use x="63.623047" xlink:href="#DejaVuSans-48"/>
      </g>
     </g>
    </g>
    <g id="ytick_2">
     <g id="line2d_8">
      <g>
       <use style="stroke:#000000;stroke-width:0.8;" x="40.603125" xlink:href="#ma7758a9b96" y="243.170214"/>
      </g>
     </g>
     <g id="text_9">
      <!-- 15 -->
      <defs>
       <path d="M 10.796875 72.90625 
L 49.515625 72.90625 
L 49.515625 64.59375 
L 19.828125 64.59375 
L 19.828125 46.734375 
Q 21.96875 47.46875 24.109375 47.828125 
Q 26.265625 48.1875 28.421875 48.1875 
Q 40.625 48.1875 47.75 41.5 
Q 54.890625 34.8125 54.890625 23.390625 
Q 54.890625 11.625 47.5625 5.09375 
Q 40.234375 -1.421875 26.90625 -1.421875 
Q 22.3125 -1.421875 17.546875 -0.640625 
Q 12.796875 0.140625 7.71875 1.703125 
L 7.71875 11.625 
Q 12.109375 9.234375 16.796875 8.0625 
Q 21.484375 6.890625 26.703125 6.890625 
Q 35.15625 6.890625 40.078125 11.328125 
Q 45.015625 15.765625 45.015625 23.390625 
Q 45.015625 31 40.078125 35.4375 
Q 35.15625 39.890625 26.703125 39.890625 
Q 22.75 39.890625 18.8125 39.015625 
Q 14.890625 38.140625 10.796875 36.28125 
z
" id="DejaVuSans-53"/>
      </defs>
      <g transform="translate(20.878125 246.969433)scale(0.1 -0.1)">
       <use xlink:href="#DejaVuSans-49"/>
       <use x="63.623047" xlink:href="#DejaVuSans-53"/>
      </g>
     </g>
    </g>
    <g id="ytick_3">
     <g id="line2d_9">
      <g>
       <use style="stroke:#000000;stroke-width:0.8;" x="40.603125" xlink:href="#ma7758a9b96" y="164.280749"/>
      </g>
     </g>
     <g id="text_10">
      <!-- 20 -->
      <g transform="translate(20.878125 168.079968)scale(0.1 -0.1)">
       <use xlink:href="#DejaVuSans-50"/>
       <use x="63.623047" xlink:href="#DejaVuSans-48"/>
      </g>
     </g>
    </g>
    <g id="ytick_4">
     <g id="line2d_10">
      <g>
       <use style="stroke:#000000;stroke-width:0.8;" x="40.603125" xlink:href="#ma7758a9b96" y="85.391284"/>
      </g>
     </g>
     <g id="text_11">
      <!-- 25 -->
      <g transform="translate(20.878125 89.190502)scale(0.1 -0.1)">
       <use xlink:href="#DejaVuSans-50"/>
       <use x="63.623047" xlink:href="#DejaVuSans-53"/>
      </g>
     </g>
    </g>
    <g id="text_12">
     <!-- GFI -->
     <defs>
      <path d="M 59.515625 10.40625 
L 59.515625 29.984375 
L 43.40625 29.984375 
L 43.40625 38.09375 
L 69.28125 38.09375 
L 69.28125 6.78125 
Q 63.578125 2.734375 56.6875 0.65625 
Q 49.8125 -1.421875 42 -1.421875 
Q 24.90625 -1.421875 15.25 8.5625 
Q 5.609375 18.5625 5.609375 36.375 
Q 5.609375 54.25 15.25 64.234375 
Q 24.90625 74.21875 42 74.21875 
Q 49.125 74.21875 55.546875 72.453125 
Q 61.96875 70.703125 67.390625 67.28125 
L 67.390625 56.78125 
Q 61.921875 61.421875 55.765625 63.765625 
Q 49.609375 66.109375 42.828125 66.109375 
Q 29.4375 66.109375 22.71875 58.640625 
Q 16.015625 51.171875 16.015625 36.375 
Q 16.015625 21.625 22.71875 14.15625 
Q 29.4375 6.6875 42.828125 6.6875 
Q 48.046875 6.6875 52.140625 7.59375 
Q 56.25 8.5 59.515625 10.40625 
z
" id="DejaVuSans-71"/>
      <path d="M 9.8125 72.90625 
L 51.703125 72.90625 
L 51.703125 64.59375 
L 19.671875 64.59375 
L 19.671875 43.109375 
L 48.578125 43.109375 
L 48.578125 34.8125 
L 19.671875 34.8125 
L 19.671875 0 
L 9.8125 0 
z
" id="DejaVuSans-70"/>
      <path d="M 9.8125 72.90625 
L 19.671875 72.90625 
L 19.671875 0 
L 9.8125 0 
z
" id="DejaVuSans-73"/>
     </defs>
     <g transform="translate(14.798438 212.965)rotate(-90)scale(0.1 -0.1)">
      <use xlink:href="#DejaVuSans-71"/>
      <use x="77.490234" xlink:href="#DejaVuSans-70"/>
      <use x="135.009766" xlink:href="#DejaVuSans-73"/>
     </g>
    </g>
   </g>
   <g id="line2d_11">
    <path clip-path="url(#pd83e787822)" d="M 76.112216 239.050606 
L 80.943385 273.089833 
L 85.774554 201.396664 
L 90.605722 263.156071 
L 95.436891 161.470706 
L 100.26806 165.045977 
L 105.099229 266.313228 
L 109.930398 305.0874 
L 114.761567 251.70921 
L 119.592735 268.6594 
L 124.423904 238.85496 
L 129.255073 306.191852 
L 134.086242 257.289851 
L 138.917411 199.768386 
L 143.74858 299.528848 
L 148.579748 283.102484 
L 153.410917 278.95132 
L 158.242086 236.94268 
L 163.073255 187.706187 
L 167.904424 255.544816 
L 172.735593 243.681418 
L 177.566761 235.276534 
L 182.39793 166.813101 
L 187.229099 214.500205 
L 192.060268 236.7423 
L 196.891437 279.992661 
L 201.722606 227.275565 
L 206.553774 241.985294 
L 211.384943 194.214568 
L 216.216112 197.68886 
L 221.047281 178.21894 
L 225.87845 219.919911 
L 230.709619 267.512348 
L 235.540787 174.512712 
L 240.371956 243.668796 
L 245.203125 308.904072 
L 250.034294 226.395158 
L 254.865463 215.134476 
L 259.696631 226.909518 
L 264.5278 203.196922 
L 269.358969 224.340877 
L 274.190138 272.381405 
L 279.021307 237.001058 
L 283.852476 242.97299 
L 288.683644 189.104108 
L 293.514813 226.530848 
L 298.345982 228.226972 
L 303.177151 251.305296 
L 308.00832 250.637891 
L 312.839489 253.82187 
L 317.670657 243.440016 
L 322.501826 271.617755 
L 327.332995 254.325185 
L 332.164164 306.856102 
L 336.995333 246.325793 
L 341.826502 261.161746 
L 346.65767 288.080409 
L 351.488839 246.111213 
L 356.320008 276.026099 
L 361.151177 316.654173 
L 365.982346 291.68408 
L 370.813515 260.814632 
L 375.644683 195.44051 
L 380.475852 176.828907 
L 385.307021 182.447415 
L 390.13819 201.994647 
L 394.969359 337.881751 
L 399.800528 330.264184 
L 404.631696 235.677293 
L 409.462865 28.34 
L 414.294034 281.037157 
L 419.125203 275.451783 
L 423.956372 253.64358 
L 428.787541 240.694663 
L 433.618709 232.22509 
L 438.449878 219.145216 
L 443.281047 264.621838 
L 448.112216 297.482455 
L 452.943385 248.820278 
L 457.774554 262.204664 
L 462.605722 199.85832 
L 467.436891 261.131768 
L 472.26806 289.363152 
L 477.099229 275.424961 
L 481.930398 270.974017 
L 486.761567 250.568468 
L 491.592735 318.329786 
L 496.423904 246.210614 
L 501.255073 257.384518 
L 506.086242 303.746279 
L 510.917411 260.38074 
L 515.74858 219.686398 
L 520.579748 320.079554 
L 525.410917 353.803222 
L 530.242086 381.14 
L 535.073255 261.180679 
L 539.904424 260.574808 
L 544.735593 299.681894 
L 549.566761 320.486623 
L 554.39793 256.863848 
L 559.229099 273.085099 
L 564.060268 244.94996 
L 568.891437 203.253722 
L 573.722606 212.794614 
L 578.553774 233.78079 
L 583.384943 236.859057 
L 588.216112 236.098562 
L 593.047281 241.355756 
L 597.87845 262.659068 
L 602.709619 288.411745 
L 607.540787 271.859157 
L 612.371956 267.321435 
L 617.203125 296.769295 
L 622.034294 196.406117 
L 626.865463 314.210178 
L 631.696631 200.424746 
L 636.5278 310.492906 
L 641.358969 231.702841 
L 646.190138 260.779921 
L 651.021307 227.666856 
L 655.852476 260.956633 
L 660.683644 257.35454 
L 665.514813 325.141102 
L 670.345982 308.044177 
L 675.177151 318.616943 
L 680.00832 257.586475 
L 684.839489 200.224367 
L 689.670657 250.533757 
L 694.501826 220.768762 
L 699.332995 236.803834 
L 704.164164 282.439812 
L 708.995333 256.067064 
L 713.826502 215.134476 
L 718.65767 218.006052 
L 723.488839 163.745878 
L 728.320008 151.429655 
L 737.982346 244.118466 
L 742.813515 223.643494 
L 747.644683 253.558379 
L 752.475852 241.860649 
L 757.307021 247.606958 
L 762.13819 303.400743 
L 766.969359 225.374329 
L 771.800528 257.02636 
L 776.631696 226.971051 
L 781.462865 173.992042 
L 786.294034 218.880148 
L 786.294034 218.880148 
" style="fill:none;stroke:#acc2d9;stroke-linecap:square;stroke-width:1.5;"/>
    <defs>
     <path d="M 0 3 
C 0.795609 3 1.55874 2.683901 2.12132 2.12132 
C 2.683901 1.55874 3 0.795609 3 0 
C 3 -0.795609 2.683901 -1.55874 2.12132 -2.12132 
C 1.55874 -2.683901 0.795609 -3 0 -3 
C -0.795609 -3 -1.55874 -2.683901 -2.12132 -2.12132 
C -2.683901 -1.55874 -3 -0.795609 -3 0 
C -3 0.795609 -2.683901 1.55874 -2.12132 2.12132 
C -1.55874 2.683901 -0.795609 3 0 3 
z
" id="m4728d3bc59" style="stroke:#acc2d9;"/>
    </defs>
    <g clip-path="url(#pd83e787822)">
     <use style="fill:#acc2d9;stroke:#acc2d9;" x="76.112216" xlink:href="#m4728d3bc59" y="239.050606"/>
     <use style="fill:#acc2d9;stroke:#acc2d9;" x="80.943385" xlink:href="#m4728d3bc59" y="273.089833"/>
     <use style="fill:#acc2d9;stroke:#acc2d9;" x="85.774554" xlink:href="#m4728d3bc59" y="201.396664"/>
     <use style="fill:#acc2d9;stroke:#acc2d9;" x="90.605722" xlink:href="#m4728d3bc59" y="263.156071"/>
     <use style="fill:#acc2d9;stroke:#acc2d9;" x="95.436891" xlink:href="#m4728d3bc59" y="161.470706"/>
     <use style="fill:#acc2d9;stroke:#acc2d9;" x="100.26806" xlink:href="#m4728d3bc59" y="165.045977"/>
     <use style="fill:#acc2d9;stroke:#acc2d9;" x="105.099229" xlink:href="#m4728d3bc59" y="266.313228"/>
     <use style="fill:#acc2d9;stroke:#acc2d9;" x="109.930398" xlink:href="#m4728d3bc59" y="305.0874"/>
     <use style="fill:#acc2d9;stroke:#acc2d9;" x="114.761567" xlink:href="#m4728d3bc59" y="251.70921"/>
     <use style="fill:#acc2d9;stroke:#acc2d9;" x="119.592735" xlink:href="#m4728d3bc59" y="268.6594"/>
     <use style="fill:#acc2d9;stroke:#acc2d9;" x="124.423904" xlink:href="#m4728d3bc59" y="238.85496"/>
     <use style="fill:#acc2d9;stroke:#acc2d9;" x="129.255073" xlink:href="#m4728d3bc59" y="306.191852"/>
     <use style="fill:#acc2d9;stroke:#acc2d9;" x="134.086242" xlink:href="#m4728d3bc59" y="257.289851"/>
     <use style="fill:#acc2d9;stroke:#acc2d9;" x="138.917411" xlink:href="#m4728d3bc59" y="199.768386"/>
     <use style="fill:#acc2d9;stroke:#acc2d9;" x="143.74858" xlink:href="#m4728d3bc59" y="299.528848"/>
     <use style="fill:#acc2d9;stroke:#acc2d9;" x="148.579748" xlink:href="#m4728d3bc59" y="283.102484"/>
     <use style="fill:#acc2d9;stroke:#acc2d9;" x="153.410917" xlink:href="#m4728d3bc59" y="278.95132"/>
     <use style="fill:#acc2d9;stroke:#acc2d9;" x="158.242086" xlink:href="#m4728d3bc59" y="236.94268"/>
     <use style="fill:#acc2d9;stroke:#acc2d9;" x="163.073255" xlink:href="#m4728d3bc59" y="187.706187"/>
     <use style="fill:#acc2d9;stroke:#acc2d9;" x="167.904424" xlink:href="#m4728d3bc59" y="255.544816"/>
     <use style="fill:#acc2d9;stroke:#acc2d9;" x="172.735593" xlink:href="#m4728d3bc59" y="243.681418"/>
     <use style="fill:#acc2d9;stroke:#acc2d9;" x="177.566761" xlink:href="#m4728d3bc59" y="235.276534"/>
     <use style="fill:#acc2d9;stroke:#acc2d9;" x="182.39793" xlink:href="#m4728d3bc59" y="166.813101"/>
     <use style="fill:#acc2d9;stroke:#acc2d9;" x="187.229099" xlink:href="#m4728d3bc59" y="214.500205"/>
     <use style="fill:#acc2d9;stroke:#acc2d9;" x="192.060268" xlink:href="#m4728d3bc59" y="236.7423"/>
     <use style="fill:#acc2d9;stroke:#acc2d9;" x="196.891437" xlink:href="#m4728d3bc59" y="279.992661"/>
     <use style="fill:#acc2d9;stroke:#acc2d9;" x="201.722606" xlink:href="#m4728d3bc59" y="227.275565"/>
     <use style="fill:#acc2d9;stroke:#acc2d9;" x="206.553774" xlink:href="#m4728d3bc59" y="241.985294"/>
     <use style="fill:#acc2d9;stroke:#acc2d9;" x="211.384943" xlink:href="#m4728d3bc59" y="194.214568"/>
     <use style="fill:#acc2d9;stroke:#acc2d9;" x="216.216112" xlink:href="#m4728d3bc59" y="197.68886"/>
     <use style="fill:#acc2d9;stroke:#acc2d9;" x="221.047281" xlink:href="#m4728d3bc59" y="178.21894"/>
     <use style="fill:#acc2d9;stroke:#acc2d9;" x="225.87845" xlink:href="#m4728d3bc59" y="219.919911"/>
     <use style="fill:#acc2d9;stroke:#acc2d9;" x="230.709619" xlink:href="#m4728d3bc59" y="267.512348"/>
     <use style="fill:#acc2d9;stroke:#acc2d9;" x="235.540787" xlink:href="#m4728d3bc59" y="174.512712"/>
     <use style="fill:#acc2d9;stroke:#acc2d9;" x="240.371956" xlink:href="#m4728d3bc59" y="243.668796"/>
     <use style="fill:#acc2d9;stroke:#acc2d9;" x="245.203125" xlink:href="#m4728d3bc59" y="308.904072"/>
     <use style="fill:#acc2d9;stroke:#acc2d9;" x="250.034294" xlink:href="#m4728d3bc59" y="226.395158"/>
     <use style="fill:#acc2d9;stroke:#acc2d9;" x="254.865463" xlink:href="#m4728d3bc59" y="215.134476"/>
     <use style="fill:#acc2d9;stroke:#acc2d9;" x="259.696631" xlink:href="#m4728d3bc59" y="226.909518"/>
     <use style="fill:#acc2d9;stroke:#acc2d9;" x="264.5278" xlink:href="#m4728d3bc59" y="203.196922"/>
     <use style="fill:#acc2d9;stroke:#acc2d9;" x="269.358969" xlink:href="#m4728d3bc59" y="224.340877"/>
     <use style="fill:#acc2d9;stroke:#acc2d9;" x="274.190138" xlink:href="#m4728d3bc59" y="272.381405"/>
     <use style="fill:#acc2d9;stroke:#acc2d9;" x="279.021307" xlink:href="#m4728d3bc59" y="237.001058"/>
     <use style="fill:#acc2d9;stroke:#acc2d9;" x="283.852476" xlink:href="#m4728d3bc59" y="242.97299"/>
     <use style="fill:#acc2d9;stroke:#acc2d9;" x="288.683644" xlink:href="#m4728d3bc59" y="189.104108"/>
     <use style="fill:#acc2d9;stroke:#acc2d9;" x="293.514813" xlink:href="#m4728d3bc59" y="226.530848"/>
     <use style="fill:#acc2d9;stroke:#acc2d9;" x="298.345982" xlink:href="#m4728d3bc59" y="228.226972"/>
     <use style="fill:#acc2d9;stroke:#acc2d9;" x="303.177151" xlink:href="#m4728d3bc59" y="251.305296"/>
     <use style="fill:#acc2d9;stroke:#acc2d9;" x="308.00832" xlink:href="#m4728d3bc59" y="250.637891"/>
     <use style="fill:#acc2d9;stroke:#acc2d9;" x="312.839489" xlink:href="#m4728d3bc59" y="253.82187"/>
     <use style="fill:#acc2d9;stroke:#acc2d9;" x="317.670657" xlink:href="#m4728d3bc59" y="243.440016"/>
     <use style="fill:#acc2d9;stroke:#acc2d9;" x="322.501826" xlink:href="#m4728d3bc59" y="271.617755"/>
     <use style="fill:#acc2d9;stroke:#acc2d9;" x="327.332995" xlink:href="#m4728d3bc59" y="254.325185"/>
     <use style="fill:#acc2d9;stroke:#acc2d9;" x="332.164164" xlink:href="#m4728d3bc59" y="306.856102"/>
     <use style="fill:#acc2d9;stroke:#acc2d9;" x="336.995333" xlink:href="#m4728d3bc59" y="246.325793"/>
     <use style="fill:#acc2d9;stroke:#acc2d9;" x="341.826502" xlink:href="#m4728d3bc59" y="261.161746"/>
     <use style="fill:#acc2d9;stroke:#acc2d9;" x="346.65767" xlink:href="#m4728d3bc59" y="288.080409"/>
     <use style="fill:#acc2d9;stroke:#acc2d9;" x="351.488839" xlink:href="#m4728d3bc59" y="246.111213"/>
     <use style="fill:#acc2d9;stroke:#acc2d9;" x="356.320008" xlink:href="#m4728d3bc59" y="276.026099"/>
     <use style="fill:#acc2d9;stroke:#acc2d9;" x="361.151177" xlink:href="#m4728d3bc59" y="316.654173"/>
     <use style="fill:#acc2d9;stroke:#acc2d9;" x="365.982346" xlink:href="#m4728d3bc59" y="291.68408"/>
     <use style="fill:#acc2d9;stroke:#acc2d9;" x="370.813515" xlink:href="#m4728d3bc59" y="260.814632"/>
     <use style="fill:#acc2d9;stroke:#acc2d9;" x="375.644683" xlink:href="#m4728d3bc59" y="195.44051"/>
     <use style="fill:#acc2d9;stroke:#acc2d9;" x="380.475852" xlink:href="#m4728d3bc59" y="176.828907"/>
     <use style="fill:#acc2d9;stroke:#acc2d9;" x="385.307021" xlink:href="#m4728d3bc59" y="182.447415"/>
     <use style="fill:#acc2d9;stroke:#acc2d9;" x="390.13819" xlink:href="#m4728d3bc59" y="201.994647"/>
     <use style="fill:#acc2d9;stroke:#acc2d9;" x="394.969359" xlink:href="#m4728d3bc59" y="337.881751"/>
     <use style="fill:#acc2d9;stroke:#acc2d9;" x="399.800528" xlink:href="#m4728d3bc59" y="330.264184"/>
     <use style="fill:#acc2d9;stroke:#acc2d9;" x="404.631696" xlink:href="#m4728d3bc59" y="235.677293"/>
     <use style="fill:#acc2d9;stroke:#acc2d9;" x="409.462865" xlink:href="#m4728d3bc59" y="28.34"/>
     <use style="fill:#acc2d9;stroke:#acc2d9;" x="414.294034" xlink:href="#m4728d3bc59" y="281.037157"/>
     <use style="fill:#acc2d9;stroke:#acc2d9;" x="419.125203" xlink:href="#m4728d3bc59" y="275.451783"/>
     <use style="fill:#acc2d9;stroke:#acc2d9;" x="423.956372" xlink:href="#m4728d3bc59" y="253.64358"/>
     <use style="fill:#acc2d9;stroke:#acc2d9;" x="428.787541" xlink:href="#m4728d3bc59" y="240.694663"/>
     <use style="fill:#acc2d9;stroke:#acc2d9;" x="433.618709" xlink:href="#m4728d3bc59" y="232.22509"/>
     <use style="fill:#acc2d9;stroke:#acc2d9;" x="438.449878" xlink:href="#m4728d3bc59" y="219.145216"/>
     <use style="fill:#acc2d9;stroke:#acc2d9;" x="443.281047" xlink:href="#m4728d3bc59" y="264.621838"/>
     <use style="fill:#acc2d9;stroke:#acc2d9;" x="448.112216" xlink:href="#m4728d3bc59" y="297.482455"/>
     <use style="fill:#acc2d9;stroke:#acc2d9;" x="452.943385" xlink:href="#m4728d3bc59" y="248.820278"/>
     <use style="fill:#acc2d9;stroke:#acc2d9;" x="457.774554" xlink:href="#m4728d3bc59" y="262.204664"/>
     <use style="fill:#acc2d9;stroke:#acc2d9;" x="462.605722" xlink:href="#m4728d3bc59" y="199.85832"/>
     <use style="fill:#acc2d9;stroke:#acc2d9;" x="467.436891" xlink:href="#m4728d3bc59" y="261.131768"/>
     <use style="fill:#acc2d9;stroke:#acc2d9;" x="472.26806" xlink:href="#m4728d3bc59" y="289.363152"/>
     <use style="fill:#acc2d9;stroke:#acc2d9;" x="477.099229" xlink:href="#m4728d3bc59" y="275.424961"/>
     <use style="fill:#acc2d9;stroke:#acc2d9;" x="481.930398" xlink:href="#m4728d3bc59" y="270.974017"/>
     <use style="fill:#acc2d9;stroke:#acc2d9;" x="486.761567" xlink:href="#m4728d3bc59" y="250.568468"/>
     <use style="fill:#acc2d9;stroke:#acc2d9;" x="491.592735" xlink:href="#m4728d3bc59" y="318.329786"/>
     <use style="fill:#acc2d9;stroke:#acc2d9;" x="496.423904" xlink:href="#m4728d3bc59" y="246.210614"/>
     <use style="fill:#acc2d9;stroke:#acc2d9;" x="501.255073" xlink:href="#m4728d3bc59" y="257.384518"/>
     <use style="fill:#acc2d9;stroke:#acc2d9;" x="506.086242" xlink:href="#m4728d3bc59" y="303.746279"/>
     <use style="fill:#acc2d9;stroke:#acc2d9;" x="510.917411" xlink:href="#m4728d3bc59" y="260.38074"/>
     <use style="fill:#acc2d9;stroke:#acc2d9;" x="515.74858" xlink:href="#m4728d3bc59" y="219.686398"/>
     <use style="fill:#acc2d9;stroke:#acc2d9;" x="520.579748" xlink:href="#m4728d3bc59" y="320.079554"/>
     <use style="fill:#acc2d9;stroke:#acc2d9;" x="525.410917" xlink:href="#m4728d3bc59" y="353.803222"/>
     <use style="fill:#acc2d9;stroke:#acc2d9;" x="530.242086" xlink:href="#m4728d3bc59" y="381.14"/>
     <use style="fill:#acc2d9;stroke:#acc2d9;" x="535.073255" xlink:href="#m4728d3bc59" y="261.180679"/>
     <use style="fill:#acc2d9;stroke:#acc2d9;" x="539.904424" xlink:href="#m4728d3bc59" y="260.574808"/>
     <use style="fill:#acc2d9;stroke:#acc2d9;" x="544.735593" xlink:href="#m4728d3bc59" y="299.681894"/>
     <use style="fill:#acc2d9;stroke:#acc2d9;" x="549.566761" xlink:href="#m4728d3bc59" y="320.486623"/>
     <use style="fill:#acc2d9;stroke:#acc2d9;" x="554.39793" xlink:href="#m4728d3bc59" y="256.863848"/>
     <use style="fill:#acc2d9;stroke:#acc2d9;" x="559.229099" xlink:href="#m4728d3bc59" y="273.085099"/>
     <use style="fill:#acc2d9;stroke:#acc2d9;" x="564.060268" xlink:href="#m4728d3bc59" y="244.94996"/>
     <use style="fill:#acc2d9;stroke:#acc2d9;" x="568.891437" xlink:href="#m4728d3bc59" y="203.253722"/>
     <use style="fill:#acc2d9;stroke:#acc2d9;" x="573.722606" xlink:href="#m4728d3bc59" y="212.794614"/>
     <use style="fill:#acc2d9;stroke:#acc2d9;" x="578.553774" xlink:href="#m4728d3bc59" y="233.78079"/>
     <use style="fill:#acc2d9;stroke:#acc2d9;" x="583.384943" xlink:href="#m4728d3bc59" y="236.859057"/>
     <use style="fill:#acc2d9;stroke:#acc2d9;" x="588.216112" xlink:href="#m4728d3bc59" y="236.098562"/>
     <use style="fill:#acc2d9;stroke:#acc2d9;" x="593.047281" xlink:href="#m4728d3bc59" y="241.355756"/>
     <use style="fill:#acc2d9;stroke:#acc2d9;" x="597.87845" xlink:href="#m4728d3bc59" y="262.659068"/>
     <use style="fill:#acc2d9;stroke:#acc2d9;" x="602.709619" xlink:href="#m4728d3bc59" y="288.411745"/>
     <use style="fill:#acc2d9;stroke:#acc2d9;" x="607.540787" xlink:href="#m4728d3bc59" y="271.859157"/>
     <use style="fill:#acc2d9;stroke:#acc2d9;" x="612.371956" xlink:href="#m4728d3bc59" y="267.321435"/>
     <use style="fill:#acc2d9;stroke:#acc2d9;" x="617.203125" xlink:href="#m4728d3bc59" y="296.769295"/>
     <use style="fill:#acc2d9;stroke:#acc2d9;" x="622.034294" xlink:href="#m4728d3bc59" y="196.406117"/>
     <use style="fill:#acc2d9;stroke:#acc2d9;" x="626.865463" xlink:href="#m4728d3bc59" y="314.210178"/>
     <use style="fill:#acc2d9;stroke:#acc2d9;" x="631.696631" xlink:href="#m4728d3bc59" y="200.424746"/>
     <use style="fill:#acc2d9;stroke:#acc2d9;" x="636.5278" xlink:href="#m4728d3bc59" y="310.492906"/>
     <use style="fill:#acc2d9;stroke:#acc2d9;" x="641.358969" xlink:href="#m4728d3bc59" y="231.702841"/>
     <use style="fill:#acc2d9;stroke:#acc2d9;" x="646.190138" xlink:href="#m4728d3bc59" y="260.779921"/>
     <use style="fill:#acc2d9;stroke:#acc2d9;" x="651.021307" xlink:href="#m4728d3bc59" y="227.666856"/>
     <use style="fill:#acc2d9;stroke:#acc2d9;" x="655.852476" xlink:href="#m4728d3bc59" y="260.956633"/>
     <use style="fill:#acc2d9;stroke:#acc2d9;" x="660.683644" xlink:href="#m4728d3bc59" y="257.35454"/>
     <use style="fill:#acc2d9;stroke:#acc2d9;" x="665.514813" xlink:href="#m4728d3bc59" y="325.141102"/>
     <use style="fill:#acc2d9;stroke:#acc2d9;" x="670.345982" xlink:href="#m4728d3bc59" y="308.044177"/>
     <use style="fill:#acc2d9;stroke:#acc2d9;" x="675.177151" xlink:href="#m4728d3bc59" y="318.616943"/>
     <use style="fill:#acc2d9;stroke:#acc2d9;" x="680.00832" xlink:href="#m4728d3bc59" y="257.586475"/>
     <use style="fill:#acc2d9;stroke:#acc2d9;" x="684.839489" xlink:href="#m4728d3bc59" y="200.224367"/>
     <use style="fill:#acc2d9;stroke:#acc2d9;" x="689.670657" xlink:href="#m4728d3bc59" y="250.533757"/>
     <use style="fill:#acc2d9;stroke:#acc2d9;" x="694.501826" xlink:href="#m4728d3bc59" y="220.768762"/>
     <use style="fill:#acc2d9;stroke:#acc2d9;" x="699.332995" xlink:href="#m4728d3bc59" y="236.803834"/>
     <use style="fill:#acc2d9;stroke:#acc2d9;" x="704.164164" xlink:href="#m4728d3bc59" y="282.439812"/>
     <use style="fill:#acc2d9;stroke:#acc2d9;" x="708.995333" xlink:href="#m4728d3bc59" y="256.067064"/>
     <use style="fill:#acc2d9;stroke:#acc2d9;" x="713.826502" xlink:href="#m4728d3bc59" y="215.134476"/>
     <use style="fill:#acc2d9;stroke:#acc2d9;" x="718.65767" xlink:href="#m4728d3bc59" y="218.006052"/>
     <use style="fill:#acc2d9;stroke:#acc2d9;" x="723.488839" xlink:href="#m4728d3bc59" y="163.745878"/>
     <use style="fill:#acc2d9;stroke:#acc2d9;" x="728.320008" xlink:href="#m4728d3bc59" y="151.429655"/>
     <use style="fill:#acc2d9;stroke:#acc2d9;" x="733.151177" xlink:href="#m4728d3bc59" y="197.273901"/>
     <use style="fill:#acc2d9;stroke:#acc2d9;" x="737.982346" xlink:href="#m4728d3bc59" y="244.118466"/>
     <use style="fill:#acc2d9;stroke:#acc2d9;" x="742.813515" xlink:href="#m4728d3bc59" y="223.643494"/>
     <use style="fill:#acc2d9;stroke:#acc2d9;" x="747.644683" xlink:href="#m4728d3bc59" y="253.558379"/>
     <use style="fill:#acc2d9;stroke:#acc2d9;" x="752.475852" xlink:href="#m4728d3bc59" y="241.860649"/>
     <use style="fill:#acc2d9;stroke:#acc2d9;" x="757.307021" xlink:href="#m4728d3bc59" y="247.606958"/>
     <use style="fill:#acc2d9;stroke:#acc2d9;" x="762.13819" xlink:href="#m4728d3bc59" y="303.400743"/>
     <use style="fill:#acc2d9;stroke:#acc2d9;" x="766.969359" xlink:href="#m4728d3bc59" y="225.374329"/>
     <use style="fill:#acc2d9;stroke:#acc2d9;" x="771.800528" xlink:href="#m4728d3bc59" y="257.02636"/>
     <use style="fill:#acc2d9;stroke:#acc2d9;" x="776.631696" xlink:href="#m4728d3bc59" y="226.971051"/>
     <use style="fill:#acc2d9;stroke:#acc2d9;" x="781.462865" xlink:href="#m4728d3bc59" y="173.992042"/>
     <use style="fill:#acc2d9;stroke:#acc2d9;" x="786.294034" xlink:href="#m4728d3bc59" y="218.880148"/>
    </g>
   </g>
   <g id="line2d_12">
    <path clip-path="url(#pd83e787822)" d="M 77.444952 282.428768 
L 83.608857 300.415566 
L 89.772762 299.830206 
L 95.936667 275.529095 
L 102.100572 269.677074 
L 108.264477 233.627744 
L 114.428383 278.126136 
L 120.592288 296.764561 
L 126.756193 265.410732 
L 132.920098 263.935499 
L 139.084003 329.595201 
L 145.247908 312.960569 
L 151.411813 330.205806 
L 157.575718 260.167738 
L 163.739623 255.647372 
L 169.903528 289.497264 
L 176.067433 267.976218 
L 182.231338 267.193634 
L 188.395243 279.984772 
L 194.559148 288.389656 
L 200.723053 284.145402 
L 206.886958 284.754429 
L 213.050863 301.330684 
L 219.214769 243.30906 
L 225.378674 213.630843 
L 231.542579 265.980314 
L 237.706484 249.78904 
L 243.870389 305.0874 
L 250.034294 298.544308 
L 256.198199 326.499579 
L 262.362104 285.951971 
L 268.526009 291.68408 
L 274.689914 252.774218 
L 280.853819 240.86822 
L 287.017724 304.178593 
L 293.181629 276.029254 
L 299.345534 246.614528 
L 305.509439 236.486699 
L 311.673344 238.586736 
L 317.837249 276.138122 
L 324.001155 257.412918 
L 330.16506 282.63388 
L 336.328965 239.536565 
L 342.49287 243.552039 
L 348.656775 236.597144 
L 354.82068 292.619709 
L 360.984585 292.607086 
L 367.14849 180.882248 
L 373.312395 250.150354 
L 379.4763 244.432446 
L 385.640205 240.330193 
L 391.80411 151.579545 
L 397.968015 255.194546 
L 404.13192 275.006847 
L 410.295825 257.122605 
L 416.45973 300.948859 
L 422.623636 274.664466 
L 428.787541 178.253651 
L 434.951446 250.972382 
L 441.115351 237.797842 
L 447.279256 245.123517 
L 453.443161 254.689654 
L 459.607066 301.14766 
L 465.770971 295.521263 
L 471.934876 314.973828 
L 478.098781 322.528283 
L 484.262686 251.127006 
L 490.426591 318.213029 
L 496.590496 316.862441 
L 502.754401 326.408067 
L 508.918306 246.652395 
L 515.082211 281.393738 
L 521.246116 243.891264 
L 527.410022 239.718011 
L 533.573927 281.538894 
L 539.737832 276.310101 
L 545.901737 266.920677 
L 552.065642 208.640295 
L 558.229547 259.069597 
L 564.393452 224.689568 
L 570.557357 300.357188 
L 576.721262 301.330684 
L 582.885167 275.424961 
L 589.049072 248.285407 
L 595.212977 301.974422 
L 601.376882 296.554715 
L 607.540787 288.05832 
L 613.704692 321.777255 
L 619.868597 268.197108 
L 626.032503 282.439812 
L 632.196408 291.990171 
L 638.360313 230.232342 
L 644.524218 223.520426 
L 650.688123 280.248263 
L 656.852028 268.583666 
L 663.015933 288.4007 
L 669.179838 292.596042 
L 675.343743 280.128351 
L 681.507648 274.071218 
L 687.671553 288.197165 
L 693.835458 245.917145 
L 699.999363 280.229329 
L 706.163268 268.064574 
L 712.327173 275.858853 
L 718.491078 296.33698 
L 724.654983 245.904523 
L 730.818889 289.301618 
L 736.982794 315.6933 
L 743.146699 302.783827 
L 749.310604 274.244775 
L 755.474509 344.167663 
L 761.638414 263.597852 
L 767.802319 262.447644 
L 773.966224 220.028778 
L 780.130129 244.001709 
L 786.294034 279.825415 
" style="fill:none;stroke:#56ae57;stroke-linecap:square;stroke-width:1.5;"/>
    <defs>
     <path d="M 0 3 
C 0.795609 3 1.55874 2.683901 2.12132 2.12132 
C 2.683901 1.55874 3 0.795609 3 0 
C 3 -0.795609 2.683901 -1.55874 2.12132 -2.12132 
C 1.55874 -2.683901 0.795609 -3 0 -3 
C -0.795609 -3 -1.55874 -2.683901 -2.12132 -2.12132 
C -2.683901 -1.55874 -3 -0.795609 -3 0 
C -3 0.795609 -2.683901 1.55874 -2.12132 2.12132 
C -1.55874 2.683901 -0.795609 3 0 3 
z
" id="m7614f8ebcf" style="stroke:#56ae57;"/>
    </defs>
    <g clip-path="url(#pd83e787822)">
     <use style="fill:#56ae57;stroke:#56ae57;" x="77.444952" xlink:href="#m7614f8ebcf" y="282.428768"/>
     <use style="fill:#56ae57;stroke:#56ae57;" x="83.608857" xlink:href="#m7614f8ebcf" y="300.415566"/>
     <use style="fill:#56ae57;stroke:#56ae57;" x="89.772762" xlink:href="#m7614f8ebcf" y="299.830206"/>
     <use style="fill:#56ae57;stroke:#56ae57;" x="95.936667" xlink:href="#m7614f8ebcf" y="275.529095"/>
     <use style="fill:#56ae57;stroke:#56ae57;" x="102.100572" xlink:href="#m7614f8ebcf" y="269.677074"/>
     <use style="fill:#56ae57;stroke:#56ae57;" x="108.264477" xlink:href="#m7614f8ebcf" y="233.627744"/>
     <use style="fill:#56ae57;stroke:#56ae57;" x="114.428383" xlink:href="#m7614f8ebcf" y="278.126136"/>
     <use style="fill:#56ae57;stroke:#56ae57;" x="120.592288" xlink:href="#m7614f8ebcf" y="296.764561"/>
     <use style="fill:#56ae57;stroke:#56ae57;" x="126.756193" xlink:href="#m7614f8ebcf" y="265.410732"/>
     <use style="fill:#56ae57;stroke:#56ae57;" x="132.920098" xlink:href="#m7614f8ebcf" y="263.935499"/>
     <use style="fill:#56ae57;stroke:#56ae57;" x="139.084003" xlink:href="#m7614f8ebcf" y="329.595201"/>
     <use style="fill:#56ae57;stroke:#56ae57;" x="145.247908" xlink:href="#m7614f8ebcf" y="312.960569"/>
     <use style="fill:#56ae57;stroke:#56ae57;" x="151.411813" xlink:href="#m7614f8ebcf" y="330.205806"/>
     <use style="fill:#56ae57;stroke:#56ae57;" x="157.575718" xlink:href="#m7614f8ebcf" y="260.167738"/>
     <use style="fill:#56ae57;stroke:#56ae57;" x="163.739623" xlink:href="#m7614f8ebcf" y="255.647372"/>
     <use style="fill:#56ae57;stroke:#56ae57;" x="169.903528" xlink:href="#m7614f8ebcf" y="289.497264"/>
     <use style="fill:#56ae57;stroke:#56ae57;" x="176.067433" xlink:href="#m7614f8ebcf" y="267.976218"/>
     <use style="fill:#56ae57;stroke:#56ae57;" x="182.231338" xlink:href="#m7614f8ebcf" y="267.193634"/>
     <use style="fill:#56ae57;stroke:#56ae57;" x="188.395243" xlink:href="#m7614f8ebcf" y="279.984772"/>
     <use style="fill:#56ae57;stroke:#56ae57;" x="194.559148" xlink:href="#m7614f8ebcf" y="288.389656"/>
     <use style="fill:#56ae57;stroke:#56ae57;" x="200.723053" xlink:href="#m7614f8ebcf" y="284.145402"/>
     <use style="fill:#56ae57;stroke:#56ae57;" x="206.886958" xlink:href="#m7614f8ebcf" y="284.754429"/>
     <use style="fill:#56ae57;stroke:#56ae57;" x="213.050863" xlink:href="#m7614f8ebcf" y="301.330684"/>
     <use style="fill:#56ae57;stroke:#56ae57;" x="219.214769" xlink:href="#m7614f8ebcf" y="243.30906"/>
     <use style="fill:#56ae57;stroke:#56ae57;" x="225.378674" xlink:href="#m7614f8ebcf" y="213.630843"/>
     <use style="fill:#56ae57;stroke:#56ae57;" x="231.542579" xlink:href="#m7614f8ebcf" y="265.980314"/>
     <use style="fill:#56ae57;stroke:#56ae57;" x="237.706484" xlink:href="#m7614f8ebcf" y="249.78904"/>
     <use style="fill:#56ae57;stroke:#56ae57;" x="243.870389" xlink:href="#m7614f8ebcf" y="305.0874"/>
     <use style="fill:#56ae57;stroke:#56ae57;" x="250.034294" xlink:href="#m7614f8ebcf" y="298.544308"/>
     <use style="fill:#56ae57;stroke:#56ae57;" x="256.198199" xlink:href="#m7614f8ebcf" y="326.499579"/>
     <use style="fill:#56ae57;stroke:#56ae57;" x="262.362104" xlink:href="#m7614f8ebcf" y="285.951971"/>
     <use style="fill:#56ae57;stroke:#56ae57;" x="268.526009" xlink:href="#m7614f8ebcf" y="291.68408"/>
     <use style="fill:#56ae57;stroke:#56ae57;" x="274.689914" xlink:href="#m7614f8ebcf" y="252.774218"/>
     <use style="fill:#56ae57;stroke:#56ae57;" x="280.853819" xlink:href="#m7614f8ebcf" y="240.86822"/>
     <use style="fill:#56ae57;stroke:#56ae57;" x="287.017724" xlink:href="#m7614f8ebcf" y="304.178593"/>
     <use style="fill:#56ae57;stroke:#56ae57;" x="293.181629" xlink:href="#m7614f8ebcf" y="276.029254"/>
     <use style="fill:#56ae57;stroke:#56ae57;" x="299.345534" xlink:href="#m7614f8ebcf" y="246.614528"/>
     <use style="fill:#56ae57;stroke:#56ae57;" x="305.509439" xlink:href="#m7614f8ebcf" y="236.486699"/>
     <use style="fill:#56ae57;stroke:#56ae57;" x="311.673344" xlink:href="#m7614f8ebcf" y="238.586736"/>
     <use style="fill:#56ae57;stroke:#56ae57;" x="317.837249" xlink:href="#m7614f8ebcf" y="276.138122"/>
     <use style="fill:#56ae57;stroke:#56ae57;" x="324.001155" xlink:href="#m7614f8ebcf" y="257.412918"/>
     <use style="fill:#56ae57;stroke:#56ae57;" x="330.16506" xlink:href="#m7614f8ebcf" y="282.63388"/>
     <use style="fill:#56ae57;stroke:#56ae57;" x="336.328965" xlink:href="#m7614f8ebcf" y="239.536565"/>
     <use style="fill:#56ae57;stroke:#56ae57;" x="342.49287" xlink:href="#m7614f8ebcf" y="243.552039"/>
     <use style="fill:#56ae57;stroke:#56ae57;" x="348.656775" xlink:href="#m7614f8ebcf" y="236.597144"/>
     <use style="fill:#56ae57;stroke:#56ae57;" x="354.82068" xlink:href="#m7614f8ebcf" y="292.619709"/>
     <use style="fill:#56ae57;stroke:#56ae57;" x="360.984585" xlink:href="#m7614f8ebcf" y="292.607086"/>
     <use style="fill:#56ae57;stroke:#56ae57;" x="367.14849" xlink:href="#m7614f8ebcf" y="180.882248"/>
     <use style="fill:#56ae57;stroke:#56ae57;" x="373.312395" xlink:href="#m7614f8ebcf" y="250.150354"/>
     <use style="fill:#56ae57;stroke:#56ae57;" x="379.4763" xlink:href="#m7614f8ebcf" y="244.432446"/>
     <use style="fill:#56ae57;stroke:#56ae57;" x="385.640205" xlink:href="#m7614f8ebcf" y="240.330193"/>
     <use style="fill:#56ae57;stroke:#56ae57;" x="391.80411" xlink:href="#m7614f8ebcf" y="151.579545"/>
     <use style="fill:#56ae57;stroke:#56ae57;" x="397.968015" xlink:href="#m7614f8ebcf" y="255.194546"/>
     <use style="fill:#56ae57;stroke:#56ae57;" x="404.13192" xlink:href="#m7614f8ebcf" y="275.006847"/>
     <use style="fill:#56ae57;stroke:#56ae57;" x="410.295825" xlink:href="#m7614f8ebcf" y="257.122605"/>
     <use style="fill:#56ae57;stroke:#56ae57;" x="416.45973" xlink:href="#m7614f8ebcf" y="300.948859"/>
     <use style="fill:#56ae57;stroke:#56ae57;" x="422.623636" xlink:href="#m7614f8ebcf" y="274.664466"/>
     <use style="fill:#56ae57;stroke:#56ae57;" x="428.787541" xlink:href="#m7614f8ebcf" y="178.253651"/>
     <use style="fill:#56ae57;stroke:#56ae57;" x="434.951446" xlink:href="#m7614f8ebcf" y="250.972382"/>
     <use style="fill:#56ae57;stroke:#56ae57;" x="441.115351" xlink:href="#m7614f8ebcf" y="237.797842"/>
     <use style="fill:#56ae57;stroke:#56ae57;" x="447.279256" xlink:href="#m7614f8ebcf" y="245.123517"/>
     <use style="fill:#56ae57;stroke:#56ae57;" x="453.443161" xlink:href="#m7614f8ebcf" y="254.689654"/>
     <use style="fill:#56ae57;stroke:#56ae57;" x="459.607066" xlink:href="#m7614f8ebcf" y="301.14766"/>
     <use style="fill:#56ae57;stroke:#56ae57;" x="465.770971" xlink:href="#m7614f8ebcf" y="295.521263"/>
     <use style="fill:#56ae57;stroke:#56ae57;" x="471.934876" xlink:href="#m7614f8ebcf" y="314.973828"/>
     <use style="fill:#56ae57;stroke:#56ae57;" x="478.098781" xlink:href="#m7614f8ebcf" y="322.528283"/>
     <use style="fill:#56ae57;stroke:#56ae57;" x="484.262686" xlink:href="#m7614f8ebcf" y="251.127006"/>
     <use style="fill:#56ae57;stroke:#56ae57;" x="490.426591" xlink:href="#m7614f8ebcf" y="318.213029"/>
     <use style="fill:#56ae57;stroke:#56ae57;" x="496.590496" xlink:href="#m7614f8ebcf" y="316.862441"/>
     <use style="fill:#56ae57;stroke:#56ae57;" x="502.754401" xlink:href="#m7614f8ebcf" y="326.408067"/>
     <use style="fill:#56ae57;stroke:#56ae57;" x="508.918306" xlink:href="#m7614f8ebcf" y="246.652395"/>
     <use style="fill:#56ae57;stroke:#56ae57;" x="515.082211" xlink:href="#m7614f8ebcf" y="281.393738"/>
     <use style="fill:#56ae57;stroke:#56ae57;" x="521.246116" xlink:href="#m7614f8ebcf" y="243.891264"/>
     <use style="fill:#56ae57;stroke:#56ae57;" x="527.410022" xlink:href="#m7614f8ebcf" y="239.718011"/>
     <use style="fill:#56ae57;stroke:#56ae57;" x="533.573927" xlink:href="#m7614f8ebcf" y="281.538894"/>
     <use style="fill:#56ae57;stroke:#56ae57;" x="539.737832" xlink:href="#m7614f8ebcf" y="276.310101"/>
     <use style="fill:#56ae57;stroke:#56ae57;" x="545.901737" xlink:href="#m7614f8ebcf" y="266.920677"/>
     <use style="fill:#56ae57;stroke:#56ae57;" x="552.065642" xlink:href="#m7614f8ebcf" y="208.640295"/>
     <use style="fill:#56ae57;stroke:#56ae57;" x="558.229547" xlink:href="#m7614f8ebcf" y="259.069597"/>
     <use style="fill:#56ae57;stroke:#56ae57;" x="564.393452" xlink:href="#m7614f8ebcf" y="224.689568"/>
     <use style="fill:#56ae57;stroke:#56ae57;" x="570.557357" xlink:href="#m7614f8ebcf" y="300.357188"/>
     <use style="fill:#56ae57;stroke:#56ae57;" x="576.721262" xlink:href="#m7614f8ebcf" y="301.330684"/>
     <use style="fill:#56ae57;stroke:#56ae57;" x="582.885167" xlink:href="#m7614f8ebcf" y="275.424961"/>
     <use style="fill:#56ae57;stroke:#56ae57;" x="589.049072" xlink:href="#m7614f8ebcf" y="248.285407"/>
     <use style="fill:#56ae57;stroke:#56ae57;" x="595.212977" xlink:href="#m7614f8ebcf" y="301.974422"/>
     <use style="fill:#56ae57;stroke:#56ae57;" x="601.376882" xlink:href="#m7614f8ebcf" y="296.554715"/>
     <use style="fill:#56ae57;stroke:#56ae57;" x="607.540787" xlink:href="#m7614f8ebcf" y="288.05832"/>
     <use style="fill:#56ae57;stroke:#56ae57;" x="613.704692" xlink:href="#m7614f8ebcf" y="321.777255"/>
     <use style="fill:#56ae57;stroke:#56ae57;" x="619.868597" xlink:href="#m7614f8ebcf" y="268.197108"/>
     <use style="fill:#56ae57;stroke:#56ae57;" x="626.032503" xlink:href="#m7614f8ebcf" y="282.439812"/>
     <use style="fill:#56ae57;stroke:#56ae57;" x="632.196408" xlink:href="#m7614f8ebcf" y="291.990171"/>
     <use style="fill:#56ae57;stroke:#56ae57;" x="638.360313" xlink:href="#m7614f8ebcf" y="230.232342"/>
     <use style="fill:#56ae57;stroke:#56ae57;" x="644.524218" xlink:href="#m7614f8ebcf" y="223.520426"/>
     <use style="fill:#56ae57;stroke:#56ae57;" x="650.688123" xlink:href="#m7614f8ebcf" y="280.248263"/>
     <use style="fill:#56ae57;stroke:#56ae57;" x="656.852028" xlink:href="#m7614f8ebcf" y="268.583666"/>
     <use style="fill:#56ae57;stroke:#56ae57;" x="663.015933" xlink:href="#m7614f8ebcf" y="288.4007"/>
     <use style="fill:#56ae57;stroke:#56ae57;" x="669.179838" xlink:href="#m7614f8ebcf" y="292.596042"/>
     <use style="fill:#56ae57;stroke:#56ae57;" x="675.343743" xlink:href="#m7614f8ebcf" y="280.128351"/>
     <use style="fill:#56ae57;stroke:#56ae57;" x="681.507648" xlink:href="#m7614f8ebcf" y="274.071218"/>
     <use style="fill:#56ae57;stroke:#56ae57;" x="687.671553" xlink:href="#m7614f8ebcf" y="288.197165"/>
     <use style="fill:#56ae57;stroke:#56ae57;" x="693.835458" xlink:href="#m7614f8ebcf" y="245.917145"/>
     <use style="fill:#56ae57;stroke:#56ae57;" x="699.999363" xlink:href="#m7614f8ebcf" y="280.229329"/>
     <use style="fill:#56ae57;stroke:#56ae57;" x="706.163268" xlink:href="#m7614f8ebcf" y="268.064574"/>
     <use style="fill:#56ae57;stroke:#56ae57;" x="712.327173" xlink:href="#m7614f8ebcf" y="275.858853"/>
     <use style="fill:#56ae57;stroke:#56ae57;" x="718.491078" xlink:href="#m7614f8ebcf" y="296.33698"/>
     <use style="fill:#56ae57;stroke:#56ae57;" x="724.654983" xlink:href="#m7614f8ebcf" y="245.904523"/>
     <use style="fill:#56ae57;stroke:#56ae57;" x="730.818889" xlink:href="#m7614f8ebcf" y="289.301618"/>
     <use style="fill:#56ae57;stroke:#56ae57;" x="736.982794" xlink:href="#m7614f8ebcf" y="315.6933"/>
     <use style="fill:#56ae57;stroke:#56ae57;" x="743.146699" xlink:href="#m7614f8ebcf" y="302.783827"/>
     <use style="fill:#56ae57;stroke:#56ae57;" x="749.310604" xlink:href="#m7614f8ebcf" y="274.244775"/>
     <use style="fill:#56ae57;stroke:#56ae57;" x="755.474509" xlink:href="#m7614f8ebcf" y="344.167663"/>
     <use style="fill:#56ae57;stroke:#56ae57;" x="761.638414" xlink:href="#m7614f8ebcf" y="263.597852"/>
     <use style="fill:#56ae57;stroke:#56ae57;" x="767.802319" xlink:href="#m7614f8ebcf" y="262.447644"/>
     <use style="fill:#56ae57;stroke:#56ae57;" x="773.966224" xlink:href="#m7614f8ebcf" y="220.028778"/>
     <use style="fill:#56ae57;stroke:#56ae57;" x="780.130129" xlink:href="#m7614f8ebcf" y="244.001709"/>
     <use style="fill:#56ae57;stroke:#56ae57;" x="786.294034" xlink:href="#m7614f8ebcf" y="279.825415"/>
    </g>
   </g>
   <g id="line2d_13">
    <path clip-path="url(#pd83e787822)" d="M 80.56693 240.257615 
L 89.852813 247.367134 
L 99.138696 233.755545 
L 108.424579 176.59855 
L 117.710462 229.558626 
L 126.996345 232.627426 
L 136.282228 286.942823 
L 145.568111 126.912387 
L 154.853994 115.757417 
L 164.139877 259.864803 
L 173.42576 226.971051 
L 182.711642 260.574808 
L 191.997525 299.787606 
L 201.283408 250.972382 
L 210.569291 236.098562 
L 219.855174 311.370157 
L 229.141057 234.222571 
L 238.42694 167.142859 
L 247.712823 279.554036 
L 256.998706 275.41865 
L 266.284589 210.906001 
L 275.570472 276.68877 
L 284.856355 235.276534 
L 294.142238 250.533757 
L 303.428121 209.10101 
L 312.714004 198.03124 
L 321.999887 205.956476 
L 331.28577 172.213873 
L 340.571653 177.598868 
L 349.857536 188.999974 
L 359.143418 200.399502 
L 368.429301 167.647751 
L 377.715184 225.326995 
L 387.001067 233.012407 
L 396.28695 193.450918 
L 405.572833 220.664627 
L 414.858716 288.137209 
L 424.144599 279.737059 
L 433.430482 296.818206 
L 442.716365 272.152626 
L 452.002248 260.38074 
L 461.288131 261.562504 
L 470.574014 286.893911 
L 479.859897 314.077643 
L 489.14578 317.278978 
L 498.431663 288.365989 
L 507.717546 188.53137 
L 517.003429 300.357188 
L 526.289312 258.454259 
L 535.575194 209.378701 
L 544.861077 227.363921 
L 554.14696 283.223973 
L 563.432843 248.129206 
L 572.718726 265.153553 
L 582.004609 275.305049 
L 591.290492 194.187745 
L 600.576375 273.738304 
L 609.862258 273.738304 
L 619.148141 290.562272 
L 628.434024 264.877439 
L 637.719907 239.536565 
L 647.00579 240.257615 
L 656.291673 281.207559 
L 665.577556 244.94996 
L 674.863439 264.382014 
L 684.149322 250.382289 
L 693.435205 261.0513 
L 702.721088 173.378282 
L 712.006971 279.42939 
L 721.292853 242.97299 
L 730.578736 227.379699 
L 739.864619 335.08433 
L 749.150502 295.786332 
L 758.436385 206.003809 
L 767.722268 243.684573 
L 777.008151 238.331134 
L 786.294034 271.94278 
" style="fill:none;stroke:#b2996e;stroke-linecap:square;stroke-width:1.5;"/>
    <defs>
     <path d="M 0 3 
C 0.795609 3 1.55874 2.683901 2.12132 2.12132 
C 2.683901 1.55874 3 0.795609 3 0 
C 3 -0.795609 2.683901 -1.55874 2.12132 -2.12132 
C 1.55874 -2.683901 0.795609 -3 0 -3 
C -0.795609 -3 -1.55874 -2.683901 -2.12132 -2.12132 
C -2.683901 -1.55874 -3 -0.795609 -3 0 
C -3 0.795609 -2.683901 1.55874 -2.12132 2.12132 
C -1.55874 2.683901 -0.795609 3 0 3 
z
" id="mc6bccc6f8f" style="stroke:#b2996e;"/>
    </defs>
    <g clip-path="url(#pd83e787822)">
     <use style="fill:#b2996e;stroke:#b2996e;" x="80.56693" xlink:href="#mc6bccc6f8f" y="240.257615"/>
     <use style="fill:#b2996e;stroke:#b2996e;" x="89.852813" xlink:href="#mc6bccc6f8f" y="247.367134"/>
     <use style="fill:#b2996e;stroke:#b2996e;" x="99.138696" xlink:href="#mc6bccc6f8f" y="233.755545"/>
     <use style="fill:#b2996e;stroke:#b2996e;" x="108.424579" xlink:href="#mc6bccc6f8f" y="176.59855"/>
     <use style="fill:#b2996e;stroke:#b2996e;" x="117.710462" xlink:href="#mc6bccc6f8f" y="229.558626"/>
     <use style="fill:#b2996e;stroke:#b2996e;" x="126.996345" xlink:href="#mc6bccc6f8f" y="232.627426"/>
     <use style="fill:#b2996e;stroke:#b2996e;" x="136.282228" xlink:href="#mc6bccc6f8f" y="286.942823"/>
     <use style="fill:#b2996e;stroke:#b2996e;" x="145.568111" xlink:href="#mc6bccc6f8f" y="126.912387"/>
     <use style="fill:#b2996e;stroke:#b2996e;" x="154.853994" xlink:href="#mc6bccc6f8f" y="115.757417"/>
     <use style="fill:#b2996e;stroke:#b2996e;" x="164.139877" xlink:href="#mc6bccc6f8f" y="259.864803"/>
     <use style="fill:#b2996e;stroke:#b2996e;" x="173.42576" xlink:href="#mc6bccc6f8f" y="226.971051"/>
     <use style="fill:#b2996e;stroke:#b2996e;" x="182.711642" xlink:href="#mc6bccc6f8f" y="260.574808"/>
     <use style="fill:#b2996e;stroke:#b2996e;" x="191.997525" xlink:href="#mc6bccc6f8f" y="299.787606"/>
     <use style="fill:#b2996e;stroke:#b2996e;" x="201.283408" xlink:href="#mc6bccc6f8f" y="250.972382"/>
     <use style="fill:#b2996e;stroke:#b2996e;" x="210.569291" xlink:href="#mc6bccc6f8f" y="236.098562"/>
     <use style="fill:#b2996e;stroke:#b2996e;" x="219.855174" xlink:href="#mc6bccc6f8f" y="311.370157"/>
     <use style="fill:#b2996e;stroke:#b2996e;" x="229.141057" xlink:href="#mc6bccc6f8f" y="234.222571"/>
     <use style="fill:#b2996e;stroke:#b2996e;" x="238.42694" xlink:href="#mc6bccc6f8f" y="167.142859"/>
     <use style="fill:#b2996e;stroke:#b2996e;" x="247.712823" xlink:href="#mc6bccc6f8f" y="279.554036"/>
     <use style="fill:#b2996e;stroke:#b2996e;" x="256.998706" xlink:href="#mc6bccc6f8f" y="275.41865"/>
     <use style="fill:#b2996e;stroke:#b2996e;" x="266.284589" xlink:href="#mc6bccc6f8f" y="210.906001"/>
     <use style="fill:#b2996e;stroke:#b2996e;" x="275.570472" xlink:href="#mc6bccc6f8f" y="276.68877"/>
     <use style="fill:#b2996e;stroke:#b2996e;" x="284.856355" xlink:href="#mc6bccc6f8f" y="235.276534"/>
     <use style="fill:#b2996e;stroke:#b2996e;" x="294.142238" xlink:href="#mc6bccc6f8f" y="250.533757"/>
     <use style="fill:#b2996e;stroke:#b2996e;" x="303.428121" xlink:href="#mc6bccc6f8f" y="209.10101"/>
     <use style="fill:#b2996e;stroke:#b2996e;" x="312.714004" xlink:href="#mc6bccc6f8f" y="198.03124"/>
     <use style="fill:#b2996e;stroke:#b2996e;" x="321.999887" xlink:href="#mc6bccc6f8f" y="205.956476"/>
     <use style="fill:#b2996e;stroke:#b2996e;" x="331.28577" xlink:href="#mc6bccc6f8f" y="172.213873"/>
     <use style="fill:#b2996e;stroke:#b2996e;" x="340.571653" xlink:href="#mc6bccc6f8f" y="177.598868"/>
     <use style="fill:#b2996e;stroke:#b2996e;" x="349.857536" xlink:href="#mc6bccc6f8f" y="188.999974"/>
     <use style="fill:#b2996e;stroke:#b2996e;" x="359.143418" xlink:href="#mc6bccc6f8f" y="200.399502"/>
     <use style="fill:#b2996e;stroke:#b2996e;" x="368.429301" xlink:href="#mc6bccc6f8f" y="167.647751"/>
     <use style="fill:#b2996e;stroke:#b2996e;" x="377.715184" xlink:href="#mc6bccc6f8f" y="225.326995"/>
     <use style="fill:#b2996e;stroke:#b2996e;" x="387.001067" xlink:href="#mc6bccc6f8f" y="233.012407"/>
     <use style="fill:#b2996e;stroke:#b2996e;" x="396.28695" xlink:href="#mc6bccc6f8f" y="193.450918"/>
     <use style="fill:#b2996e;stroke:#b2996e;" x="405.572833" xlink:href="#mc6bccc6f8f" y="220.664627"/>
     <use style="fill:#b2996e;stroke:#b2996e;" x="414.858716" xlink:href="#mc6bccc6f8f" y="288.137209"/>
     <use style="fill:#b2996e;stroke:#b2996e;" x="424.144599" xlink:href="#mc6bccc6f8f" y="279.737059"/>
     <use style="fill:#b2996e;stroke:#b2996e;" x="433.430482" xlink:href="#mc6bccc6f8f" y="296.818206"/>
     <use style="fill:#b2996e;stroke:#b2996e;" x="442.716365" xlink:href="#mc6bccc6f8f" y="272.152626"/>
     <use style="fill:#b2996e;stroke:#b2996e;" x="452.002248" xlink:href="#mc6bccc6f8f" y="260.38074"/>
     <use style="fill:#b2996e;stroke:#b2996e;" x="461.288131" xlink:href="#mc6bccc6f8f" y="261.562504"/>
     <use style="fill:#b2996e;stroke:#b2996e;" x="470.574014" xlink:href="#mc6bccc6f8f" y="286.893911"/>
     <use style="fill:#b2996e;stroke:#b2996e;" x="479.859897" xlink:href="#mc6bccc6f8f" y="314.077643"/>
     <use style="fill:#b2996e;stroke:#b2996e;" x="489.14578" xlink:href="#mc6bccc6f8f" y="317.278978"/>
     <use style="fill:#b2996e;stroke:#b2996e;" x="498.431663" xlink:href="#mc6bccc6f8f" y="288.365989"/>
     <use style="fill:#b2996e;stroke:#b2996e;" x="507.717546" xlink:href="#mc6bccc6f8f" y="188.53137"/>
     <use style="fill:#b2996e;stroke:#b2996e;" x="517.003429" xlink:href="#mc6bccc6f8f" y="300.357188"/>
     <use style="fill:#b2996e;stroke:#b2996e;" x="526.289312" xlink:href="#mc6bccc6f8f" y="258.454259"/>
     <use style="fill:#b2996e;stroke:#b2996e;" x="535.575194" xlink:href="#mc6bccc6f8f" y="209.378701"/>
     <use style="fill:#b2996e;stroke:#b2996e;" x="544.861077" xlink:href="#mc6bccc6f8f" y="227.363921"/>
     <use style="fill:#b2996e;stroke:#b2996e;" x="554.14696" xlink:href="#mc6bccc6f8f" y="283.223973"/>
     <use style="fill:#b2996e;stroke:#b2996e;" x="563.432843" xlink:href="#mc6bccc6f8f" y="248.129206"/>
     <use style="fill:#b2996e;stroke:#b2996e;" x="572.718726" xlink:href="#mc6bccc6f8f" y="265.153553"/>
     <use style="fill:#b2996e;stroke:#b2996e;" x="582.004609" xlink:href="#mc6bccc6f8f" y="275.305049"/>
     <use style="fill:#b2996e;stroke:#b2996e;" x="591.290492" xlink:href="#mc6bccc6f8f" y="194.187745"/>
     <use style="fill:#b2996e;stroke:#b2996e;" x="600.576375" xlink:href="#mc6bccc6f8f" y="273.738304"/>
     <use style="fill:#b2996e;stroke:#b2996e;" x="609.862258" xlink:href="#mc6bccc6f8f" y="273.738304"/>
     <use style="fill:#b2996e;stroke:#b2996e;" x="619.148141" xlink:href="#mc6bccc6f8f" y="290.562272"/>
     <use style="fill:#b2996e;stroke:#b2996e;" x="628.434024" xlink:href="#mc6bccc6f8f" y="264.877439"/>
     <use style="fill:#b2996e;stroke:#b2996e;" x="637.719907" xlink:href="#mc6bccc6f8f" y="239.536565"/>
     <use style="fill:#b2996e;stroke:#b2996e;" x="647.00579" xlink:href="#mc6bccc6f8f" y="240.257615"/>
     <use style="fill:#b2996e;stroke:#b2996e;" x="656.291673" xlink:href="#mc6bccc6f8f" y="281.207559"/>
     <use style="fill:#b2996e;stroke:#b2996e;" x="665.577556" xlink:href="#mc6bccc6f8f" y="244.94996"/>
     <use style="fill:#b2996e;stroke:#b2996e;" x="674.863439" xlink:href="#mc6bccc6f8f" y="264.382014"/>
     <use style="fill:#b2996e;stroke:#b2996e;" x="684.149322" xlink:href="#mc6bccc6f8f" y="250.382289"/>
     <use style="fill:#b2996e;stroke:#b2996e;" x="693.435205" xlink:href="#mc6bccc6f8f" y="261.0513"/>
     <use style="fill:#b2996e;stroke:#b2996e;" x="702.721088" xlink:href="#mc6bccc6f8f" y="173.378282"/>
     <use style="fill:#b2996e;stroke:#b2996e;" x="712.006971" xlink:href="#mc6bccc6f8f" y="279.42939"/>
     <use style="fill:#b2996e;stroke:#b2996e;" x="721.292853" xlink:href="#mc6bccc6f8f" y="242.97299"/>
     <use style="fill:#b2996e;stroke:#b2996e;" x="730.578736" xlink:href="#mc6bccc6f8f" y="227.379699"/>
     <use style="fill:#b2996e;stroke:#b2996e;" x="739.864619" xlink:href="#mc6bccc6f8f" y="335.08433"/>
     <use style="fill:#b2996e;stroke:#b2996e;" x="749.150502" xlink:href="#mc6bccc6f8f" y="295.786332"/>
     <use style="fill:#b2996e;stroke:#b2996e;" x="758.436385" xlink:href="#mc6bccc6f8f" y="206.003809"/>
     <use style="fill:#b2996e;stroke:#b2996e;" x="767.722268" xlink:href="#mc6bccc6f8f" y="243.684573"/>
     <use style="fill:#b2996e;stroke:#b2996e;" x="777.008151" xlink:href="#mc6bccc6f8f" y="238.331134"/>
     <use style="fill:#b2996e;stroke:#b2996e;" x="786.294034" xlink:href="#mc6bccc6f8f" y="271.94278"/>
    </g>
   </g>
   <g id="line2d_14">
    <path clip-path="url(#pd83e787822)" d="M 81.795944 261.202768 
L 92.310841 183.53609 
L 102.825738 243.638818 
L 113.340635 240.014636 
L 123.855531 200.424746 
L 134.370428 269.741764 
L 144.885325 280.051039 
L 155.400222 223.334247 
L 165.915119 246.990042 
L 176.430016 191.994618 
L 186.944913 204.801534 
L 197.459809 196.88892 
L 207.974706 217.875096 
L 218.489603 190.566719 
L 229.0045 207.532687 
L 239.519397 230.265475 
L 250.034294 247.092598 
L 260.549191 208.973209 
L 271.064088 177.403222 
L 281.578984 175.814389 
L 292.093881 236.300519 
L 302.608778 240.345971 
L 313.123675 220.69145 
L 323.638572 264.47037 
L 334.153469 264.178479 
L 344.668366 207.406464 
L 355.183263 208.84383 
L 365.698159 253.95756 
L 376.213056 269.741764 
L 386.727953 291.344855 
L 397.24285 189.247687 
L 407.757747 226.971051 
L 418.272644 203.297901 
L 428.787541 237.55644 
L 439.302437 226.917406 
L 449.817334 257.47603 
L 460.332231 260.809899 
L 470.847128 246.620839 
L 481.362025 217.769384 
L 491.876922 239.948368 
L 502.391819 253.509467 
L 512.906716 245.664699 
L 523.421612 214.419737 
L 533.936509 257.59752 
L 544.451406 237.037347 
L 554.966303 246.84173 
L 565.4812 214.050535 
L 575.996097 279.389945 
L 586.510994 227.275565 
L 597.02589 223.551982 
L 607.540787 247.968271 
L 618.055684 246.210614 
L 628.570581 227.147764 
L 639.085478 250.121954 
L 649.600375 232.816761 
L 660.115272 231.98211 
L 670.630169 261.747105 
L 681.145065 236.691811 
L 691.659962 240.341238 
L 702.174859 243.607262 
L 712.689756 252.991953 
L 723.204653 206.125299 
L 733.71955 267.444503 
L 744.234447 271.859157 
L 754.749343 253.190754 
L 765.26424 250.268688 
L 775.779137 245.904523 
L 786.294034 218.037608 
" style="fill:none;stroke:#a8ff04;stroke-linecap:square;stroke-width:1.5;"/>
    <defs>
     <path d="M 0 3 
C 0.795609 3 1.55874 2.683901 2.12132 2.12132 
C 2.683901 1.55874 3 0.795609 3 0 
C 3 -0.795609 2.683901 -1.55874 2.12132 -2.12132 
C 1.55874 -2.683901 0.795609 -3 0 -3 
C -0.795609 -3 -1.55874 -2.683901 -2.12132 -2.12132 
C -2.683901 -1.55874 -3 -0.795609 -3 0 
C -3 0.795609 -2.683901 1.55874 -2.12132 2.12132 
C -1.55874 2.683901 -0.795609 3 0 3 
z
" id="md175079781" style="stroke:#a8ff04;"/>
    </defs>
    <g clip-path="url(#pd83e787822)">
     <use style="fill:#a8ff04;stroke:#a8ff04;" x="81.795944" xlink:href="#md175079781" y="261.202768"/>
     <use style="fill:#a8ff04;stroke:#a8ff04;" x="92.310841" xlink:href="#md175079781" y="183.53609"/>
     <use style="fill:#a8ff04;stroke:#a8ff04;" x="102.825738" xlink:href="#md175079781" y="243.638818"/>
     <use style="fill:#a8ff04;stroke:#a8ff04;" x="113.340635" xlink:href="#md175079781" y="240.014636"/>
     <use style="fill:#a8ff04;stroke:#a8ff04;" x="123.855531" xlink:href="#md175079781" y="200.424746"/>
     <use style="fill:#a8ff04;stroke:#a8ff04;" x="134.370428" xlink:href="#md175079781" y="269.741764"/>
     <use style="fill:#a8ff04;stroke:#a8ff04;" x="144.885325" xlink:href="#md175079781" y="280.051039"/>
     <use style="fill:#a8ff04;stroke:#a8ff04;" x="155.400222" xlink:href="#md175079781" y="223.334247"/>
     <use style="fill:#a8ff04;stroke:#a8ff04;" x="165.915119" xlink:href="#md175079781" y="246.990042"/>
     <use style="fill:#a8ff04;stroke:#a8ff04;" x="176.430016" xlink:href="#md175079781" y="191.994618"/>
     <use style="fill:#a8ff04;stroke:#a8ff04;" x="186.944913" xlink:href="#md175079781" y="204.801534"/>
     <use style="fill:#a8ff04;stroke:#a8ff04;" x="197.459809" xlink:href="#md175079781" y="196.88892"/>
     <use style="fill:#a8ff04;stroke:#a8ff04;" x="207.974706" xlink:href="#md175079781" y="217.875096"/>
     <use style="fill:#a8ff04;stroke:#a8ff04;" x="218.489603" xlink:href="#md175079781" y="190.566719"/>
     <use style="fill:#a8ff04;stroke:#a8ff04;" x="229.0045" xlink:href="#md175079781" y="207.532687"/>
     <use style="fill:#a8ff04;stroke:#a8ff04;" x="239.519397" xlink:href="#md175079781" y="230.265475"/>
     <use style="fill:#a8ff04;stroke:#a8ff04;" x="250.034294" xlink:href="#md175079781" y="247.092598"/>
     <use style="fill:#a8ff04;stroke:#a8ff04;" x="260.549191" xlink:href="#md175079781" y="208.973209"/>
     <use style="fill:#a8ff04;stroke:#a8ff04;" x="271.064088" xlink:href="#md175079781" y="177.403222"/>
     <use style="fill:#a8ff04;stroke:#a8ff04;" x="281.578984" xlink:href="#md175079781" y="175.814389"/>
     <use style="fill:#a8ff04;stroke:#a8ff04;" x="292.093881" xlink:href="#md175079781" y="236.300519"/>
     <use style="fill:#a8ff04;stroke:#a8ff04;" x="302.608778" xlink:href="#md175079781" y="240.345971"/>
     <use style="fill:#a8ff04;stroke:#a8ff04;" x="313.123675" xlink:href="#md175079781" y="220.69145"/>
     <use style="fill:#a8ff04;stroke:#a8ff04;" x="323.638572" xlink:href="#md175079781" y="264.47037"/>
     <use style="fill:#a8ff04;stroke:#a8ff04;" x="334.153469" xlink:href="#md175079781" y="264.178479"/>
     <use style="fill:#a8ff04;stroke:#a8ff04;" x="344.668366" xlink:href="#md175079781" y="207.406464"/>
     <use style="fill:#a8ff04;stroke:#a8ff04;" x="355.183263" xlink:href="#md175079781" y="208.84383"/>
     <use style="fill:#a8ff04;stroke:#a8ff04;" x="365.698159" xlink:href="#md175079781" y="253.95756"/>
     <use style="fill:#a8ff04;stroke:#a8ff04;" x="376.213056" xlink:href="#md175079781" y="269.741764"/>
     <use style="fill:#a8ff04;stroke:#a8ff04;" x="386.727953" xlink:href="#md175079781" y="291.344855"/>
     <use style="fill:#a8ff04;stroke:#a8ff04;" x="397.24285" xlink:href="#md175079781" y="189.247687"/>
     <use style="fill:#a8ff04;stroke:#a8ff04;" x="407.757747" xlink:href="#md175079781" y="226.971051"/>
     <use style="fill:#a8ff04;stroke:#a8ff04;" x="418.272644" xlink:href="#md175079781" y="203.297901"/>
     <use style="fill:#a8ff04;stroke:#a8ff04;" x="428.787541" xlink:href="#md175079781" y="237.55644"/>
     <use style="fill:#a8ff04;stroke:#a8ff04;" x="439.302437" xlink:href="#md175079781" y="226.917406"/>
     <use style="fill:#a8ff04;stroke:#a8ff04;" x="449.817334" xlink:href="#md175079781" y="257.47603"/>
     <use style="fill:#a8ff04;stroke:#a8ff04;" x="460.332231" xlink:href="#md175079781" y="260.809899"/>
     <use style="fill:#a8ff04;stroke:#a8ff04;" x="470.847128" xlink:href="#md175079781" y="246.620839"/>
     <use style="fill:#a8ff04;stroke:#a8ff04;" x="481.362025" xlink:href="#md175079781" y="217.769384"/>
     <use style="fill:#a8ff04;stroke:#a8ff04;" x="491.876922" xlink:href="#md175079781" y="239.948368"/>
     <use style="fill:#a8ff04;stroke:#a8ff04;" x="502.391819" xlink:href="#md175079781" y="253.509467"/>
     <use style="fill:#a8ff04;stroke:#a8ff04;" x="512.906716" xlink:href="#md175079781" y="245.664699"/>
     <use style="fill:#a8ff04;stroke:#a8ff04;" x="523.421612" xlink:href="#md175079781" y="214.419737"/>
     <use style="fill:#a8ff04;stroke:#a8ff04;" x="533.936509" xlink:href="#md175079781" y="257.59752"/>
     <use style="fill:#a8ff04;stroke:#a8ff04;" x="544.451406" xlink:href="#md175079781" y="237.037347"/>
     <use style="fill:#a8ff04;stroke:#a8ff04;" x="554.966303" xlink:href="#md175079781" y="246.84173"/>
     <use style="fill:#a8ff04;stroke:#a8ff04;" x="565.4812" xlink:href="#md175079781" y="214.050535"/>
     <use style="fill:#a8ff04;stroke:#a8ff04;" x="575.996097" xlink:href="#md175079781" y="279.389945"/>
     <use style="fill:#a8ff04;stroke:#a8ff04;" x="586.510994" xlink:href="#md175079781" y="227.275565"/>
     <use style="fill:#a8ff04;stroke:#a8ff04;" x="597.02589" xlink:href="#md175079781" y="223.551982"/>
     <use style="fill:#a8ff04;stroke:#a8ff04;" x="607.540787" xlink:href="#md175079781" y="247.968271"/>
     <use style="fill:#a8ff04;stroke:#a8ff04;" x="618.055684" xlink:href="#md175079781" y="246.210614"/>
     <use style="fill:#a8ff04;stroke:#a8ff04;" x="628.570581" xlink:href="#md175079781" y="227.147764"/>
     <use style="fill:#a8ff04;stroke:#a8ff04;" x="639.085478" xlink:href="#md175079781" y="250.121954"/>
     <use style="fill:#a8ff04;stroke:#a8ff04;" x="649.600375" xlink:href="#md175079781" y="232.816761"/>
     <use style="fill:#a8ff04;stroke:#a8ff04;" x="660.115272" xlink:href="#md175079781" y="231.98211"/>
     <use style="fill:#a8ff04;stroke:#a8ff04;" x="670.630169" xlink:href="#md175079781" y="261.747105"/>
     <use style="fill:#a8ff04;stroke:#a8ff04;" x="681.145065" xlink:href="#md175079781" y="236.691811"/>
     <use style="fill:#a8ff04;stroke:#a8ff04;" x="691.659962" xlink:href="#md175079781" y="240.341238"/>
     <use style="fill:#a8ff04;stroke:#a8ff04;" x="702.174859" xlink:href="#md175079781" y="243.607262"/>
     <use style="fill:#a8ff04;stroke:#a8ff04;" x="712.689756" xlink:href="#md175079781" y="252.991953"/>
     <use style="fill:#a8ff04;stroke:#a8ff04;" x="723.204653" xlink:href="#md175079781" y="206.125299"/>
     <use style="fill:#a8ff04;stroke:#a8ff04;" x="733.71955" xlink:href="#md175079781" y="267.444503"/>
     <use style="fill:#a8ff04;stroke:#a8ff04;" x="744.234447" xlink:href="#md175079781" y="271.859157"/>
     <use style="fill:#a8ff04;stroke:#a8ff04;" x="754.749343" xlink:href="#md175079781" y="253.190754"/>
     <use style="fill:#a8ff04;stroke:#a8ff04;" x="765.26424" xlink:href="#md175079781" y="250.268688"/>
     <use style="fill:#a8ff04;stroke:#a8ff04;" x="775.779137" xlink:href="#md175079781" y="245.904523"/>
     <use style="fill:#a8ff04;stroke:#a8ff04;" x="786.294034" xlink:href="#md175079781" y="218.037608"/>
    </g>
   </g>
   <g id="patch_3">
    <path d="M 40.603125 398.78 
L 40.603125 10.7 
" style="fill:none;stroke:#000000;stroke-linecap:square;stroke-linejoin:miter;stroke-width:0.8;"/>
   </g>
   <g id="patch_4">
    <path d="M 821.803125 398.78 
L 821.803125 10.7 
" style="fill:none;stroke:#000000;stroke-linecap:square;stroke-linejoin:miter;stroke-width:0.8;"/>
   </g>
   <g id="patch_5">
    <path d="M 40.603125 398.78 
L 821.803125 398.78 
" style="fill:none;stroke:#000000;stroke-linecap:square;stroke-linejoin:miter;stroke-width:0.8;"/>
   </g>
   <g id="patch_6">
    <path d="M 40.603125 10.7 
L 821.803125 10.7 
" style="fill:none;stroke:#000000;stroke-linecap:square;stroke-linejoin:miter;stroke-width:0.8;"/>
   </g>
  </g>
 </g>
 <defs>
  <clipPath id="pd83e787822">
   <rect height="388.08" width="781.2" x="40.603125" y="10.7"/>
  </clipPath>
 </defs>
</svg>
