<?xml version="1.0" encoding="utf-8" standalone="no"?>
<!DOCTYPE svg PUBLIC "-//W3C//DTD SVG 1.1//EN"
  "http://www.w3.org/Graphics/SVG/1.1/DTD/svg11.dtd">
<!-- Created with matplotlib (https://matplotlib.org/) -->
<svg height="504pt" version="1.1" viewBox="0 0 1008 504" width="1008pt" xmlns="http://www.w3.org/2000/svg" xmlns:xlink="http://www.w3.org/1999/xlink">
 <defs>
  <style type="text/css">
*{stroke-linecap:butt;stroke-linejoin:round;}
  </style>
 </defs>
 <g id="figure_1">
  <g id="patch_1">
   <path d="M 0 504 
L 1008 504 
L 1008 0 
L 0 0 
z
" style="fill:#ffffff;"/>
  </g>
  <g id="axes_1">
   <g id="patch_2">
    <path d="M 126 448.56 
L 907.2 448.56 
L 907.2 60.48 
L 126 60.48 
z
" style="fill:#ffffff;"/>
   </g>
   <g id="matplotlib.axis_1">
    <g id="xtick_1">
     <g id="line2d_1">
      <defs>
       <path d="M 0 0 
L 0 3.5 
" id="m5da53207c4" style="stroke:#000000;stroke-width:0.8;"/>
      </defs>
      <g>
       <use style="stroke:#000000;stroke-width:0.8;" x="156.677922" xlink:href="#m5da53207c4" y="448.56"/>
      </g>
     </g>
     <g id="text_1">
      <!-- 0 -->
      <defs>
       <path d="M 31.78125 66.40625 
Q 24.171875 66.40625 20.328125 58.90625 
Q 16.5 51.421875 16.5 36.375 
Q 16.5 21.390625 20.328125 13.890625 
Q 24.171875 6.390625 31.78125 6.390625 
Q 39.453125 6.390625 43.28125 13.890625 
Q 47.125 21.390625 47.125 36.375 
Q 47.125 51.421875 43.28125 58.90625 
Q 39.453125 66.40625 31.78125 66.40625 
z
M 31.78125 74.21875 
Q 44.046875 74.21875 50.515625 64.515625 
Q 56.984375 54.828125 56.984375 36.375 
Q 56.984375 17.96875 50.515625 8.265625 
Q 44.046875 -1.421875 31.78125 -1.421875 
Q 19.53125 -1.421875 13.0625 8.265625 
Q 6.59375 17.96875 6.59375 36.375 
Q 6.59375 54.828125 13.0625 64.515625 
Q 19.53125 74.21875 31.78125 74.21875 
z
" id="DejaVuSans-48"/>
      </defs>
      <g transform="translate(153.496672 463.158437)scale(0.1 -0.1)">
       <use xlink:href="#DejaVuSans-48"/>
      </g>
     </g>
    </g>
    <g id="xtick_2">
     <g id="line2d_2">
      <g>
       <use style="stroke:#000000;stroke-width:0.8;" x="299.680519" xlink:href="#m5da53207c4" y="448.56"/>
      </g>
     </g>
     <g id="text_2">
      <!-- 20 -->
      <defs>
       <path d="M 19.1875 8.296875 
L 53.609375 8.296875 
L 53.609375 0 
L 7.328125 0 
L 7.328125 8.296875 
Q 12.9375 14.109375 22.625 23.890625 
Q 32.328125 33.6875 34.8125 36.53125 
Q 39.546875 41.84375 41.421875 45.53125 
Q 43.3125 49.21875 43.3125 52.78125 
Q 43.3125 58.59375 39.234375 62.25 
Q 35.15625 65.921875 28.609375 65.921875 
Q 23.96875 65.921875 18.8125 64.3125 
Q 13.671875 62.703125 7.8125 59.421875 
L 7.8125 69.390625 
Q 13.765625 71.78125 18.9375 73 
Q 24.125 74.21875 28.421875 74.21875 
Q 39.75 74.21875 46.484375 68.546875 
Q 53.21875 62.890625 53.21875 53.421875 
Q 53.21875 48.921875 51.53125 44.890625 
Q 49.859375 40.875 45.40625 35.40625 
Q 44.1875 33.984375 37.640625 27.21875 
Q 31.109375 20.453125 19.1875 8.296875 
z
" id="DejaVuSans-50"/>
      </defs>
      <g transform="translate(293.318019 463.158437)scale(0.1 -0.1)">
       <use xlink:href="#DejaVuSans-50"/>
       <use x="63.623047" xlink:href="#DejaVuSans-48"/>
      </g>
     </g>
    </g>
    <g id="xtick_3">
     <g id="line2d_3">
      <g>
       <use style="stroke:#000000;stroke-width:0.8;" x="442.683117" xlink:href="#m5da53207c4" y="448.56"/>
      </g>
     </g>
     <g id="text_3">
      <!-- 40 -->
      <defs>
       <path d="M 37.796875 64.3125 
L 12.890625 25.390625 
L 37.796875 25.390625 
z
M 35.203125 72.90625 
L 47.609375 72.90625 
L 47.609375 25.390625 
L 58.015625 25.390625 
L 58.015625 17.1875 
L 47.609375 17.1875 
L 47.609375 0 
L 37.796875 0 
L 37.796875 17.1875 
L 4.890625 17.1875 
L 4.890625 26.703125 
z
" id="DejaVuSans-52"/>
      </defs>
      <g transform="translate(436.320617 463.158437)scale(0.1 -0.1)">
       <use xlink:href="#DejaVuSans-52"/>
       <use x="63.623047" xlink:href="#DejaVuSans-48"/>
      </g>
     </g>
    </g>
    <g id="xtick_4">
     <g id="line2d_4">
      <g>
       <use style="stroke:#000000;stroke-width:0.8;" x="585.685714" xlink:href="#m5da53207c4" y="448.56"/>
      </g>
     </g>
     <g id="text_4">
      <!-- 60 -->
      <defs>
       <path d="M 33.015625 40.375 
Q 26.375 40.375 22.484375 35.828125 
Q 18.609375 31.296875 18.609375 23.390625 
Q 18.609375 15.53125 22.484375 10.953125 
Q 26.375 6.390625 33.015625 6.390625 
Q 39.65625 6.390625 43.53125 10.953125 
Q 47.40625 15.53125 47.40625 23.390625 
Q 47.40625 31.296875 43.53125 35.828125 
Q 39.65625 40.375 33.015625 40.375 
z
M 52.59375 71.296875 
L 52.59375 62.3125 
Q 48.875 64.0625 45.09375 64.984375 
Q 41.3125 65.921875 37.59375 65.921875 
Q 27.828125 65.921875 22.671875 59.328125 
Q 17.53125 52.734375 16.796875 39.40625 
Q 19.671875 43.65625 24.015625 45.921875 
Q 28.375 48.1875 33.59375 48.1875 
Q 44.578125 48.1875 50.953125 41.515625 
Q 57.328125 34.859375 57.328125 23.390625 
Q 57.328125 12.15625 50.6875 5.359375 
Q 44.046875 -1.421875 33.015625 -1.421875 
Q 20.359375 -1.421875 13.671875 8.265625 
Q 6.984375 17.96875 6.984375 36.375 
Q 6.984375 53.65625 15.1875 63.9375 
Q 23.390625 74.21875 37.203125 74.21875 
Q 40.921875 74.21875 44.703125 73.484375 
Q 48.484375 72.75 52.59375 71.296875 
z
" id="DejaVuSans-54"/>
      </defs>
      <g transform="translate(579.323214 463.158437)scale(0.1 -0.1)">
       <use xlink:href="#DejaVuSans-54"/>
       <use x="63.623047" xlink:href="#DejaVuSans-48"/>
      </g>
     </g>
    </g>
    <g id="xtick_5">
     <g id="line2d_5">
      <g>
       <use style="stroke:#000000;stroke-width:0.8;" x="728.688312" xlink:href="#m5da53207c4" y="448.56"/>
      </g>
     </g>
     <g id="text_5">
      <!-- 80 -->
      <defs>
       <path d="M 31.78125 34.625 
Q 24.75 34.625 20.71875 30.859375 
Q 16.703125 27.09375 16.703125 20.515625 
Q 16.703125 13.921875 20.71875 10.15625 
Q 24.75 6.390625 31.78125 6.390625 
Q 38.8125 6.390625 42.859375 10.171875 
Q 46.921875 13.96875 46.921875 20.515625 
Q 46.921875 27.09375 42.890625 30.859375 
Q 38.875 34.625 31.78125 34.625 
z
M 21.921875 38.8125 
Q 15.578125 40.375 12.03125 44.71875 
Q 8.5 49.078125 8.5 55.328125 
Q 8.5 64.0625 14.71875 69.140625 
Q 20.953125 74.21875 31.78125 74.21875 
Q 42.671875 74.21875 48.875 69.140625 
Q 55.078125 64.0625 55.078125 55.328125 
Q 55.078125 49.078125 51.53125 44.71875 
Q 48 40.375 41.703125 38.8125 
Q 48.828125 37.15625 52.796875 32.3125 
Q 56.78125 27.484375 56.78125 20.515625 
Q 56.78125 9.90625 50.3125 4.234375 
Q 43.84375 -1.421875 31.78125 -1.421875 
Q 19.734375 -1.421875 13.25 4.234375 
Q 6.78125 9.90625 6.78125 20.515625 
Q 6.78125 27.484375 10.78125 32.3125 
Q 14.796875 37.15625 21.921875 38.8125 
z
M 18.3125 54.390625 
Q 18.3125 48.734375 21.84375 45.5625 
Q 25.390625 42.390625 31.78125 42.390625 
Q 38.140625 42.390625 41.71875 45.5625 
Q 45.3125 48.734375 45.3125 54.390625 
Q 45.3125 60.0625 41.71875 63.234375 
Q 38.140625 66.40625 31.78125 66.40625 
Q 25.390625 66.40625 21.84375 63.234375 
Q 18.3125 60.0625 18.3125 54.390625 
z
" id="DejaVuSans-56"/>
      </defs>
      <g transform="translate(722.325812 463.158437)scale(0.1 -0.1)">
       <use xlink:href="#DejaVuSans-56"/>
       <use x="63.623047" xlink:href="#DejaVuSans-48"/>
      </g>
     </g>
    </g>
    <g id="xtick_6">
     <g id="line2d_6">
      <g>
       <use style="stroke:#000000;stroke-width:0.8;" x="871.690909" xlink:href="#m5da53207c4" y="448.56"/>
      </g>
     </g>
     <g id="text_6">
      <!-- 100 -->
      <defs>
       <path d="M 12.40625 8.296875 
L 28.515625 8.296875 
L 28.515625 63.921875 
L 10.984375 60.40625 
L 10.984375 69.390625 
L 28.421875 72.90625 
L 38.28125 72.90625 
L 38.28125 8.296875 
L 54.390625 8.296875 
L 54.390625 0 
L 12.40625 0 
z
" id="DejaVuSans-49"/>
      </defs>
      <g transform="translate(862.147159 463.158437)scale(0.1 -0.1)">
       <use xlink:href="#DejaVuSans-49"/>
       <use x="63.623047" xlink:href="#DejaVuSans-48"/>
       <use x="127.246094" xlink:href="#DejaVuSans-48"/>
      </g>
     </g>
    </g>
    <g id="text_7">
     <!-- document's percentage of the chunk's end -->
     <defs>
      <path d="M 45.40625 46.390625 
L 45.40625 75.984375 
L 54.390625 75.984375 
L 54.390625 0 
L 45.40625 0 
L 45.40625 8.203125 
Q 42.578125 3.328125 38.25 0.953125 
Q 33.9375 -1.421875 27.875 -1.421875 
Q 17.96875 -1.421875 11.734375 6.484375 
Q 5.515625 14.40625 5.515625 27.296875 
Q 5.515625 40.1875 11.734375 48.09375 
Q 17.96875 56 27.875 56 
Q 33.9375 56 38.25 53.625 
Q 42.578125 51.265625 45.40625 46.390625 
z
M 14.796875 27.296875 
Q 14.796875 17.390625 18.875 11.75 
Q 22.953125 6.109375 30.078125 6.109375 
Q 37.203125 6.109375 41.296875 11.75 
Q 45.40625 17.390625 45.40625 27.296875 
Q 45.40625 37.203125 41.296875 42.84375 
Q 37.203125 48.484375 30.078125 48.484375 
Q 22.953125 48.484375 18.875 42.84375 
Q 14.796875 37.203125 14.796875 27.296875 
z
" id="DejaVuSans-100"/>
      <path d="M 30.609375 48.390625 
Q 23.390625 48.390625 19.1875 42.75 
Q 14.984375 37.109375 14.984375 27.296875 
Q 14.984375 17.484375 19.15625 11.84375 
Q 23.34375 6.203125 30.609375 6.203125 
Q 37.796875 6.203125 41.984375 11.859375 
Q 46.1875 17.53125 46.1875 27.296875 
Q 46.1875 37.015625 41.984375 42.703125 
Q 37.796875 48.390625 30.609375 48.390625 
z
M 30.609375 56 
Q 42.328125 56 49.015625 48.375 
Q 55.71875 40.765625 55.71875 27.296875 
Q 55.71875 13.875 49.015625 6.21875 
Q 42.328125 -1.421875 30.609375 -1.421875 
Q 18.84375 -1.421875 12.171875 6.21875 
Q 5.515625 13.875 5.515625 27.296875 
Q 5.515625 40.765625 12.171875 48.375 
Q 18.84375 56 30.609375 56 
z
" id="DejaVuSans-111"/>
      <path d="M 48.78125 52.59375 
L 48.78125 44.1875 
Q 44.96875 46.296875 41.140625 47.34375 
Q 37.3125 48.390625 33.40625 48.390625 
Q 24.65625 48.390625 19.8125 42.84375 
Q 14.984375 37.3125 14.984375 27.296875 
Q 14.984375 17.28125 19.8125 11.734375 
Q 24.65625 6.203125 33.40625 6.203125 
Q 37.3125 6.203125 41.140625 7.25 
Q 44.96875 8.296875 48.78125 10.40625 
L 48.78125 2.09375 
Q 45.015625 0.34375 40.984375 -0.53125 
Q 36.96875 -1.421875 32.421875 -1.421875 
Q 20.0625 -1.421875 12.78125 6.34375 
Q 5.515625 14.109375 5.515625 27.296875 
Q 5.515625 40.671875 12.859375 48.328125 
Q 20.21875 56 33.015625 56 
Q 37.15625 56 41.109375 55.140625 
Q 45.0625 54.296875 48.78125 52.59375 
z
" id="DejaVuSans-99"/>
      <path d="M 8.5 21.578125 
L 8.5 54.6875 
L 17.484375 54.6875 
L 17.484375 21.921875 
Q 17.484375 14.15625 20.5 10.265625 
Q 23.53125 6.390625 29.59375 6.390625 
Q 36.859375 6.390625 41.078125 11.03125 
Q 45.3125 15.671875 45.3125 23.6875 
L 45.3125 54.6875 
L 54.296875 54.6875 
L 54.296875 0 
L 45.3125 0 
L 45.3125 8.40625 
Q 42.046875 3.421875 37.71875 1 
Q 33.40625 -1.421875 27.6875 -1.421875 
Q 18.265625 -1.421875 13.375 4.4375 
Q 8.5 10.296875 8.5 21.578125 
z
M 31.109375 56 
z
" id="DejaVuSans-117"/>
      <path d="M 52 44.1875 
Q 55.375 50.25 60.0625 53.125 
Q 64.75 56 71.09375 56 
Q 79.640625 56 84.28125 50.015625 
Q 88.921875 44.046875 88.921875 33.015625 
L 88.921875 0 
L 79.890625 0 
L 79.890625 32.71875 
Q 79.890625 40.578125 77.09375 44.375 
Q 74.3125 48.1875 68.609375 48.1875 
Q 61.625 48.1875 57.5625 43.546875 
Q 53.515625 38.921875 53.515625 30.90625 
L 53.515625 0 
L 44.484375 0 
L 44.484375 32.71875 
Q 44.484375 40.625 41.703125 44.40625 
Q 38.921875 48.1875 33.109375 48.1875 
Q 26.21875 48.1875 22.15625 43.53125 
Q 18.109375 38.875 18.109375 30.90625 
L 18.109375 0 
L 9.078125 0 
L 9.078125 54.6875 
L 18.109375 54.6875 
L 18.109375 46.1875 
Q 21.1875 51.21875 25.484375 53.609375 
Q 29.78125 56 35.6875 56 
Q 41.65625 56 45.828125 52.96875 
Q 50 49.953125 52 44.1875 
z
" id="DejaVuSans-109"/>
      <path d="M 56.203125 29.59375 
L 56.203125 25.203125 
L 14.890625 25.203125 
Q 15.484375 15.921875 20.484375 11.0625 
Q 25.484375 6.203125 34.421875 6.203125 
Q 39.59375 6.203125 44.453125 7.46875 
Q 49.3125 8.734375 54.109375 11.28125 
L 54.109375 2.78125 
Q 49.265625 0.734375 44.1875 -0.34375 
Q 39.109375 -1.421875 33.890625 -1.421875 
Q 20.796875 -1.421875 13.15625 6.1875 
Q 5.515625 13.8125 5.515625 26.8125 
Q 5.515625 40.234375 12.765625 48.109375 
Q 20.015625 56 32.328125 56 
Q 43.359375 56 49.78125 48.890625 
Q 56.203125 41.796875 56.203125 29.59375 
z
M 47.21875 32.234375 
Q 47.125 39.59375 43.09375 43.984375 
Q 39.0625 48.390625 32.421875 48.390625 
Q 24.90625 48.390625 20.390625 44.140625 
Q 15.875 39.890625 15.1875 32.171875 
z
" id="DejaVuSans-101"/>
      <path d="M 54.890625 33.015625 
L 54.890625 0 
L 45.90625 0 
L 45.90625 32.71875 
Q 45.90625 40.484375 42.875 44.328125 
Q 39.84375 48.1875 33.796875 48.1875 
Q 26.515625 48.1875 22.3125 43.546875 
Q 18.109375 38.921875 18.109375 30.90625 
L 18.109375 0 
L 9.078125 0 
L 9.078125 54.6875 
L 18.109375 54.6875 
L 18.109375 46.1875 
Q 21.34375 51.125 25.703125 53.5625 
Q 30.078125 56 35.796875 56 
Q 45.21875 56 50.046875 50.171875 
Q 54.890625 44.34375 54.890625 33.015625 
z
" id="DejaVuSans-110"/>
      <path d="M 18.3125 70.21875 
L 18.3125 54.6875 
L 36.8125 54.6875 
L 36.8125 47.703125 
L 18.3125 47.703125 
L 18.3125 18.015625 
Q 18.3125 11.328125 20.140625 9.421875 
Q 21.96875 7.515625 27.59375 7.515625 
L 36.8125 7.515625 
L 36.8125 0 
L 27.59375 0 
Q 17.1875 0 13.234375 3.875 
Q 9.28125 7.765625 9.28125 18.015625 
L 9.28125 47.703125 
L 2.6875 47.703125 
L 2.6875 54.6875 
L 9.28125 54.6875 
L 9.28125 70.21875 
z
" id="DejaVuSans-116"/>
      <path d="M 17.921875 72.90625 
L 17.921875 45.796875 
L 9.625 45.796875 
L 9.625 72.90625 
z
" id="DejaVuSans-39"/>
      <path d="M 44.28125 53.078125 
L 44.28125 44.578125 
Q 40.484375 46.53125 36.375 47.5 
Q 32.28125 48.484375 27.875 48.484375 
Q 21.1875 48.484375 17.84375 46.4375 
Q 14.5 44.390625 14.5 40.28125 
Q 14.5 37.15625 16.890625 35.375 
Q 19.28125 33.59375 26.515625 31.984375 
L 29.59375 31.296875 
Q 39.15625 29.25 43.1875 25.515625 
Q 47.21875 21.78125 47.21875 15.09375 
Q 47.21875 7.46875 41.1875 3.015625 
Q 35.15625 -1.421875 24.609375 -1.421875 
Q 20.21875 -1.421875 15.453125 -0.5625 
Q 10.6875 0.296875 5.421875 2 
L 5.421875 11.28125 
Q 10.40625 8.6875 15.234375 7.390625 
Q 20.0625 6.109375 24.8125 6.109375 
Q 31.15625 6.109375 34.5625 8.28125 
Q 37.984375 10.453125 37.984375 14.40625 
Q 37.984375 18.0625 35.515625 20.015625 
Q 33.0625 21.96875 24.703125 23.78125 
L 21.578125 24.515625 
Q 13.234375 26.265625 9.515625 29.90625 
Q 5.8125 33.546875 5.8125 39.890625 
Q 5.8125 47.609375 11.28125 51.796875 
Q 16.75 56 26.8125 56 
Q 31.78125 56 36.171875 55.265625 
Q 40.578125 54.546875 44.28125 53.078125 
z
" id="DejaVuSans-115"/>
      <path id="DejaVuSans-32"/>
      <path d="M 18.109375 8.203125 
L 18.109375 -20.796875 
L 9.078125 -20.796875 
L 9.078125 54.6875 
L 18.109375 54.6875 
L 18.109375 46.390625 
Q 20.953125 51.265625 25.265625 53.625 
Q 29.59375 56 35.59375 56 
Q 45.5625 56 51.78125 48.09375 
Q 58.015625 40.1875 58.015625 27.296875 
Q 58.015625 14.40625 51.78125 6.484375 
Q 45.5625 -1.421875 35.59375 -1.421875 
Q 29.59375 -1.421875 25.265625 0.953125 
Q 20.953125 3.328125 18.109375 8.203125 
z
M 48.6875 27.296875 
Q 48.6875 37.203125 44.609375 42.84375 
Q 40.53125 48.484375 33.40625 48.484375 
Q 26.265625 48.484375 22.1875 42.84375 
Q 18.109375 37.203125 18.109375 27.296875 
Q 18.109375 17.390625 22.1875 11.75 
Q 26.265625 6.109375 33.40625 6.109375 
Q 40.53125 6.109375 44.609375 11.75 
Q 48.6875 17.390625 48.6875 27.296875 
z
" id="DejaVuSans-112"/>
      <path d="M 41.109375 46.296875 
Q 39.59375 47.171875 37.8125 47.578125 
Q 36.03125 48 33.890625 48 
Q 26.265625 48 22.1875 43.046875 
Q 18.109375 38.09375 18.109375 28.8125 
L 18.109375 0 
L 9.078125 0 
L 9.078125 54.6875 
L 18.109375 54.6875 
L 18.109375 46.1875 
Q 20.953125 51.171875 25.484375 53.578125 
Q 30.03125 56 36.53125 56 
Q 37.453125 56 38.578125 55.875 
Q 39.703125 55.765625 41.0625 55.515625 
z
" id="DejaVuSans-114"/>
      <path d="M 34.28125 27.484375 
Q 23.390625 27.484375 19.1875 25 
Q 14.984375 22.515625 14.984375 16.5 
Q 14.984375 11.71875 18.140625 8.90625 
Q 21.296875 6.109375 26.703125 6.109375 
Q 34.1875 6.109375 38.703125 11.40625 
Q 43.21875 16.703125 43.21875 25.484375 
L 43.21875 27.484375 
z
M 52.203125 31.203125 
L 52.203125 0 
L 43.21875 0 
L 43.21875 8.296875 
Q 40.140625 3.328125 35.546875 0.953125 
Q 30.953125 -1.421875 24.3125 -1.421875 
Q 15.921875 -1.421875 10.953125 3.296875 
Q 6 8.015625 6 15.921875 
Q 6 25.140625 12.171875 29.828125 
Q 18.359375 34.515625 30.609375 34.515625 
L 43.21875 34.515625 
L 43.21875 35.40625 
Q 43.21875 41.609375 39.140625 45 
Q 35.0625 48.390625 27.6875 48.390625 
Q 23 48.390625 18.546875 47.265625 
Q 14.109375 46.140625 10.015625 43.890625 
L 10.015625 52.203125 
Q 14.9375 54.109375 19.578125 55.046875 
Q 24.21875 56 28.609375 56 
Q 40.484375 56 46.34375 49.84375 
Q 52.203125 43.703125 52.203125 31.203125 
z
" id="DejaVuSans-97"/>
      <path d="M 45.40625 27.984375 
Q 45.40625 37.75 41.375 43.109375 
Q 37.359375 48.484375 30.078125 48.484375 
Q 22.859375 48.484375 18.828125 43.109375 
Q 14.796875 37.75 14.796875 27.984375 
Q 14.796875 18.265625 18.828125 12.890625 
Q 22.859375 7.515625 30.078125 7.515625 
Q 37.359375 7.515625 41.375 12.890625 
Q 45.40625 18.265625 45.40625 27.984375 
z
M 54.390625 6.78125 
Q 54.390625 -7.171875 48.1875 -13.984375 
Q 42 -20.796875 29.203125 -20.796875 
Q 24.46875 -20.796875 20.265625 -20.09375 
Q 16.0625 -19.390625 12.109375 -17.921875 
L 12.109375 -9.1875 
Q 16.0625 -11.328125 19.921875 -12.34375 
Q 23.78125 -13.375 27.78125 -13.375 
Q 36.625 -13.375 41.015625 -8.765625 
Q 45.40625 -4.15625 45.40625 5.171875 
L 45.40625 9.625 
Q 42.625 4.78125 38.28125 2.390625 
Q 33.9375 0 27.875 0 
Q 17.828125 0 11.671875 7.65625 
Q 5.515625 15.328125 5.515625 27.984375 
Q 5.515625 40.671875 11.671875 48.328125 
Q 17.828125 56 27.875 56 
Q 33.9375 56 38.28125 53.609375 
Q 42.625 51.21875 45.40625 46.390625 
L 45.40625 54.6875 
L 54.390625 54.6875 
z
" id="DejaVuSans-103"/>
      <path d="M 37.109375 75.984375 
L 37.109375 68.5 
L 28.515625 68.5 
Q 23.6875 68.5 21.796875 66.546875 
Q 19.921875 64.59375 19.921875 59.515625 
L 19.921875 54.6875 
L 34.71875 54.6875 
L 34.71875 47.703125 
L 19.921875 47.703125 
L 19.921875 0 
L 10.890625 0 
L 10.890625 47.703125 
L 2.296875 47.703125 
L 2.296875 54.6875 
L 10.890625 54.6875 
L 10.890625 58.5 
Q 10.890625 67.625 15.140625 71.796875 
Q 19.390625 75.984375 28.609375 75.984375 
z
" id="DejaVuSans-102"/>
      <path d="M 54.890625 33.015625 
L 54.890625 0 
L 45.90625 0 
L 45.90625 32.71875 
Q 45.90625 40.484375 42.875 44.328125 
Q 39.84375 48.1875 33.796875 48.1875 
Q 26.515625 48.1875 22.3125 43.546875 
Q 18.109375 38.921875 18.109375 30.90625 
L 18.109375 0 
L 9.078125 0 
L 9.078125 75.984375 
L 18.109375 75.984375 
L 18.109375 46.1875 
Q 21.34375 51.125 25.703125 53.5625 
Q 30.078125 56 35.796875 56 
Q 45.21875 56 50.046875 50.171875 
Q 54.890625 44.34375 54.890625 33.015625 
z
" id="DejaVuSans-104"/>
      <path d="M 9.078125 75.984375 
L 18.109375 75.984375 
L 18.109375 31.109375 
L 44.921875 54.6875 
L 56.390625 54.6875 
L 27.390625 29.109375 
L 57.625 0 
L 45.90625 0 
L 18.109375 26.703125 
L 18.109375 0 
L 9.078125 0 
z
" id="DejaVuSans-107"/>
     </defs>
     <g transform="translate(409.3 476.836563)scale(0.1 -0.1)">
      <use xlink:href="#DejaVuSans-100"/>
      <use x="63.476562" xlink:href="#DejaVuSans-111"/>
      <use x="124.658203" xlink:href="#DejaVuSans-99"/>
      <use x="179.638672" xlink:href="#DejaVuSans-117"/>
      <use x="243.017578" xlink:href="#DejaVuSans-109"/>
      <use x="340.429688" xlink:href="#DejaVuSans-101"/>
      <use x="401.953125" xlink:href="#DejaVuSans-110"/>
      <use x="465.332031" xlink:href="#DejaVuSans-116"/>
      <use x="504.541016" xlink:href="#DejaVuSans-39"/>
      <use x="532.03125" xlink:href="#DejaVuSans-115"/>
      <use x="584.130859" xlink:href="#DejaVuSans-32"/>
      <use x="615.917969" xlink:href="#DejaVuSans-112"/>
      <use x="679.394531" xlink:href="#DejaVuSans-101"/>
      <use x="740.917969" xlink:href="#DejaVuSans-114"/>
      <use x="782" xlink:href="#DejaVuSans-99"/>
      <use x="836.980469" xlink:href="#DejaVuSans-101"/>
      <use x="898.503906" xlink:href="#DejaVuSans-110"/>
      <use x="961.882812" xlink:href="#DejaVuSans-116"/>
      <use x="1001.091797" xlink:href="#DejaVuSans-97"/>
      <use x="1062.371094" xlink:href="#DejaVuSans-103"/>
      <use x="1125.847656" xlink:href="#DejaVuSans-101"/>
      <use x="1187.371094" xlink:href="#DejaVuSans-32"/>
      <use x="1219.158203" xlink:href="#DejaVuSans-111"/>
      <use x="1280.339844" xlink:href="#DejaVuSans-102"/>
      <use x="1315.544922" xlink:href="#DejaVuSans-32"/>
      <use x="1347.332031" xlink:href="#DejaVuSans-116"/>
      <use x="1386.541016" xlink:href="#DejaVuSans-104"/>
      <use x="1449.919922" xlink:href="#DejaVuSans-101"/>
      <use x="1511.443359" xlink:href="#DejaVuSans-32"/>
      <use x="1543.230469" xlink:href="#DejaVuSans-99"/>
      <use x="1598.210938" xlink:href="#DejaVuSans-104"/>
      <use x="1661.589844" xlink:href="#DejaVuSans-117"/>
      <use x="1724.96875" xlink:href="#DejaVuSans-110"/>
      <use x="1788.347656" xlink:href="#DejaVuSans-107"/>
      <use x="1846.257812" xlink:href="#DejaVuSans-39"/>
      <use x="1873.748047" xlink:href="#DejaVuSans-115"/>
      <use x="1925.847656" xlink:href="#DejaVuSans-32"/>
      <use x="1957.634766" xlink:href="#DejaVuSans-101"/>
      <use x="2019.158203" xlink:href="#DejaVuSans-110"/>
      <use x="2082.537109" xlink:href="#DejaVuSans-100"/>
     </g>
    </g>
   </g>
   <g id="matplotlib.axis_2">
    <g id="ytick_1">
     <g id="line2d_7">
      <defs>
       <path d="M 0 0 
L -3.5 0 
" id="m4f3a447e7a" style="stroke:#000000;stroke-width:0.8;"/>
      </defs>
      <g>
       <use style="stroke:#000000;stroke-width:0.8;" x="126" xlink:href="#m4f3a447e7a" y="371.839679"/>
      </g>
     </g>
     <g id="text_8">
      <!-- 10 -->
      <g transform="translate(106.275 375.638898)scale(0.1 -0.1)">
       <use xlink:href="#DejaVuSans-49"/>
       <use x="63.623047" xlink:href="#DejaVuSans-48"/>
      </g>
     </g>
    </g>
    <g id="ytick_2">
     <g id="line2d_8">
      <g>
       <use style="stroke:#000000;stroke-width:0.8;" x="126" xlink:href="#m4f3a447e7a" y="292.950214"/>
      </g>
     </g>
     <g id="text_9">
      <!-- 15 -->
      <defs>
       <path d="M 10.796875 72.90625 
L 49.515625 72.90625 
L 49.515625 64.59375 
L 19.828125 64.59375 
L 19.828125 46.734375 
Q 21.96875 47.46875 24.109375 47.828125 
Q 26.265625 48.1875 28.421875 48.1875 
Q 40.625 48.1875 47.75 41.5 
Q 54.890625 34.8125 54.890625 23.390625 
Q 54.890625 11.625 47.5625 5.09375 
Q 40.234375 -1.421875 26.90625 -1.421875 
Q 22.3125 -1.421875 17.546875 -0.640625 
Q 12.796875 0.140625 7.71875 1.703125 
L 7.71875 11.625 
Q 12.109375 9.234375 16.796875 8.0625 
Q 21.484375 6.890625 26.703125 6.890625 
Q 35.15625 6.890625 40.078125 11.328125 
Q 45.015625 15.765625 45.015625 23.390625 
Q 45.015625 31 40.078125 35.4375 
Q 35.15625 39.890625 26.703125 39.890625 
Q 22.75 39.890625 18.8125 39.015625 
Q 14.890625 38.140625 10.796875 36.28125 
z
" id="DejaVuSans-53"/>
      </defs>
      <g transform="translate(106.275 296.749433)scale(0.1 -0.1)">
       <use xlink:href="#DejaVuSans-49"/>
       <use x="63.623047" xlink:href="#DejaVuSans-53"/>
      </g>
     </g>
    </g>
    <g id="ytick_3">
     <g id="line2d_9">
      <g>
       <use style="stroke:#000000;stroke-width:0.8;" x="126" xlink:href="#m4f3a447e7a" y="214.060749"/>
      </g>
     </g>
     <g id="text_10">
      <!-- 20 -->
      <g transform="translate(106.275 217.859968)scale(0.1 -0.1)">
       <use xlink:href="#DejaVuSans-50"/>
       <use x="63.623047" xlink:href="#DejaVuSans-48"/>
      </g>
     </g>
    </g>
    <g id="ytick_4">
     <g id="line2d_10">
      <g>
       <use style="stroke:#000000;stroke-width:0.8;" x="126" xlink:href="#m4f3a447e7a" y="135.171284"/>
      </g>
     </g>
     <g id="text_11">
      <!-- 25 -->
      <g transform="translate(106.275 138.970502)scale(0.1 -0.1)">
       <use xlink:href="#DejaVuSans-50"/>
       <use x="63.623047" xlink:href="#DejaVuSans-53"/>
      </g>
     </g>
    </g>
    <g id="text_12">
     <!-- GFI -->
     <defs>
      <path d="M 59.515625 10.40625 
L 59.515625 29.984375 
L 43.40625 29.984375 
L 43.40625 38.09375 
L 69.28125 38.09375 
L 69.28125 6.78125 
Q 63.578125 2.734375 56.6875 0.65625 
Q 49.8125 -1.421875 42 -1.421875 
Q 24.90625 -1.421875 15.25 8.5625 
Q 5.609375 18.5625 5.609375 36.375 
Q 5.609375 54.25 15.25 64.234375 
Q 24.90625 74.21875 42 74.21875 
Q 49.125 74.21875 55.546875 72.453125 
Q 61.96875 70.703125 67.390625 67.28125 
L 67.390625 56.78125 
Q 61.921875 61.421875 55.765625 63.765625 
Q 49.609375 66.109375 42.828125 66.109375 
Q 29.4375 66.109375 22.71875 58.640625 
Q 16.015625 51.171875 16.015625 36.375 
Q 16.015625 21.625 22.71875 14.15625 
Q 29.4375 6.6875 42.828125 6.6875 
Q 48.046875 6.6875 52.140625 7.59375 
Q 56.25 8.5 59.515625 10.40625 
z
" id="DejaVuSans-71"/>
      <path d="M 9.8125 72.90625 
L 51.703125 72.90625 
L 51.703125 64.59375 
L 19.671875 64.59375 
L 19.671875 43.109375 
L 48.578125 43.109375 
L 48.578125 34.8125 
L 19.671875 34.8125 
L 19.671875 0 
L 9.8125 0 
z
" id="DejaVuSans-70"/>
      <path d="M 9.8125 72.90625 
L 19.671875 72.90625 
L 19.671875 0 
L 9.8125 0 
z
" id="DejaVuSans-73"/>
     </defs>
     <g transform="translate(100.195312 262.745)rotate(-90)scale(0.1 -0.1)">
      <use xlink:href="#DejaVuSans-71"/>
      <use x="77.490234" xlink:href="#DejaVuSans-70"/>
      <use x="135.009766" xlink:href="#DejaVuSans-73"/>
     </g>
    </g>
   </g>
   <g id="line2d_11">
    <path clip-path="url(#pb4d6e32ff7)" d="M 161.509091 288.830606 
L 166.34026 322.869833 
L 171.171429 251.176664 
L 176.002597 312.936071 
L 180.833766 211.250706 
L 185.664935 214.825977 
L 190.496104 316.093228 
L 195.327273 354.8674 
L 200.158442 301.48921 
L 204.98961 318.4394 
L 209.820779 288.63496 
L 214.651948 355.971852 
L 219.483117 307.069851 
L 224.314286 249.548386 
L 229.145455 349.308848 
L 233.976623 332.882484 
L 238.807792 328.73132 
L 243.638961 286.72268 
L 248.47013 237.486187 
L 253.301299 305.324816 
L 258.132468 293.461418 
L 262.963636 285.056534 
L 267.794805 216.593101 
L 272.625974 264.280205 
L 277.457143 286.5223 
L 282.288312 329.772661 
L 287.119481 277.055565 
L 291.950649 291.765294 
L 296.781818 243.994568 
L 301.612987 247.46886 
L 306.444156 227.99894 
L 311.275325 269.699911 
L 316.106494 317.292348 
L 320.937662 224.292712 
L 325.768831 293.448796 
L 330.6 358.684072 
L 335.431169 276.175158 
L 340.262338 264.914476 
L 345.093506 276.689518 
L 349.924675 252.976922 
L 354.755844 274.120877 
L 359.587013 322.161405 
L 364.418182 286.781058 
L 369.249351 292.75299 
L 374.080519 238.884108 
L 378.911688 276.310848 
L 383.742857 278.006972 
L 388.574026 301.085296 
L 393.405195 300.417891 
L 398.236364 303.60187 
L 403.067532 293.220016 
L 407.898701 321.397755 
L 412.72987 304.105185 
L 417.561039 356.636102 
L 422.392208 296.105793 
L 427.223377 310.941746 
L 432.054545 337.860409 
L 436.885714 295.891213 
L 441.716883 325.806099 
L 446.548052 366.434173 
L 451.379221 341.46408 
L 456.21039 310.594632 
L 461.041558 245.22051 
L 465.872727 226.608907 
L 470.703896 232.227415 
L 475.535065 251.774647 
L 480.366234 387.661751 
L 485.197403 380.044184 
L 490.028571 285.457293 
L 494.85974 78.12 
L 499.690909 330.817157 
L 504.522078 325.231783 
L 509.353247 303.42358 
L 514.184416 290.474663 
L 519.015584 282.00509 
L 523.846753 268.925216 
L 528.677922 314.401838 
L 533.509091 347.262455 
L 538.34026 298.600278 
L 543.171429 311.984664 
L 548.002597 249.63832 
L 552.833766 310.911768 
L 557.664935 339.143152 
L 562.496104 325.204961 
L 567.327273 320.754017 
L 572.158442 300.348468 
L 576.98961 368.109786 
L 581.820779 295.990614 
L 586.651948 307.164518 
L 591.483117 353.526279 
L 596.314286 310.16074 
L 601.145455 269.466398 
L 605.976623 369.859554 
L 610.807792 403.583222 
L 615.638961 430.92 
L 620.47013 310.960679 
L 625.301299 310.354808 
L 630.132468 349.461894 
L 634.963636 370.266623 
L 639.794805 306.643848 
L 644.625974 322.865099 
L 649.457143 294.72996 
L 654.288312 253.033722 
L 659.119481 262.574614 
L 663.950649 283.56079 
L 668.781818 286.639057 
L 673.612987 285.878562 
L 678.444156 291.135756 
L 683.275325 312.439068 
L 688.106494 338.191745 
L 692.937662 321.639157 
L 697.768831 317.101435 
L 702.6 346.549295 
L 707.431169 246.186117 
L 712.262338 363.990178 
L 717.093506 250.204746 
L 721.924675 360.272906 
L 726.755844 281.482841 
L 731.587013 310.559921 
L 736.418182 277.446856 
L 741.249351 310.736633 
L 746.080519 307.13454 
L 750.911688 374.921102 
L 755.742857 357.824177 
L 760.574026 368.396943 
L 765.405195 307.366475 
L 770.236364 250.004367 
L 775.067532 300.313757 
L 779.898701 270.548762 
L 784.72987 286.583834 
L 789.561039 332.219812 
L 794.392208 305.847064 
L 799.223377 264.914476 
L 804.054545 267.786052 
L 808.885714 213.525878 
L 813.716883 201.209655 
L 823.379221 293.898466 
L 828.21039 273.423494 
L 833.041558 303.338379 
L 837.872727 291.640649 
L 842.703896 297.386958 
L 847.535065 353.180743 
L 852.366234 275.154329 
L 857.197403 306.80636 
L 862.028571 276.751051 
L 866.85974 223.772042 
L 871.690909 268.660148 
L 871.690909 268.660148 
" style="fill:none;stroke:#acc2d9;stroke-linecap:square;stroke-width:1.5;"/>
    <defs>
     <path d="M 0 3 
C 0.795609 3 1.55874 2.683901 2.12132 2.12132 
C 2.683901 1.55874 3 0.795609 3 0 
C 3 -0.795609 2.683901 -1.55874 2.12132 -2.12132 
C 1.55874 -2.683901 0.795609 -3 0 -3 
C -0.795609 -3 -1.55874 -2.683901 -2.12132 -2.12132 
C -2.683901 -1.55874 -3 -0.795609 -3 0 
C -3 0.795609 -2.683901 1.55874 -2.12132 2.12132 
C -1.55874 2.683901 -0.795609 3 0 3 
z
" id="m635442d517" style="stroke:#acc2d9;"/>
    </defs>
    <g clip-path="url(#pb4d6e32ff7)">
     <use style="fill:#acc2d9;stroke:#acc2d9;" x="161.509091" xlink:href="#m635442d517" y="288.830606"/>
     <use style="fill:#acc2d9;stroke:#acc2d9;" x="166.34026" xlink:href="#m635442d517" y="322.869833"/>
     <use style="fill:#acc2d9;stroke:#acc2d9;" x="171.171429" xlink:href="#m635442d517" y="251.176664"/>
     <use style="fill:#acc2d9;stroke:#acc2d9;" x="176.002597" xlink:href="#m635442d517" y="312.936071"/>
     <use style="fill:#acc2d9;stroke:#acc2d9;" x="180.833766" xlink:href="#m635442d517" y="211.250706"/>
     <use style="fill:#acc2d9;stroke:#acc2d9;" x="185.664935" xlink:href="#m635442d517" y="214.825977"/>
     <use style="fill:#acc2d9;stroke:#acc2d9;" x="190.496104" xlink:href="#m635442d517" y="316.093228"/>
     <use style="fill:#acc2d9;stroke:#acc2d9;" x="195.327273" xlink:href="#m635442d517" y="354.8674"/>
     <use style="fill:#acc2d9;stroke:#acc2d9;" x="200.158442" xlink:href="#m635442d517" y="301.48921"/>
     <use style="fill:#acc2d9;stroke:#acc2d9;" x="204.98961" xlink:href="#m635442d517" y="318.4394"/>
     <use style="fill:#acc2d9;stroke:#acc2d9;" x="209.820779" xlink:href="#m635442d517" y="288.63496"/>
     <use style="fill:#acc2d9;stroke:#acc2d9;" x="214.651948" xlink:href="#m635442d517" y="355.971852"/>
     <use style="fill:#acc2d9;stroke:#acc2d9;" x="219.483117" xlink:href="#m635442d517" y="307.069851"/>
     <use style="fill:#acc2d9;stroke:#acc2d9;" x="224.314286" xlink:href="#m635442d517" y="249.548386"/>
     <use style="fill:#acc2d9;stroke:#acc2d9;" x="229.145455" xlink:href="#m635442d517" y="349.308848"/>
     <use style="fill:#acc2d9;stroke:#acc2d9;" x="233.976623" xlink:href="#m635442d517" y="332.882484"/>
     <use style="fill:#acc2d9;stroke:#acc2d9;" x="238.807792" xlink:href="#m635442d517" y="328.73132"/>
     <use style="fill:#acc2d9;stroke:#acc2d9;" x="243.638961" xlink:href="#m635442d517" y="286.72268"/>
     <use style="fill:#acc2d9;stroke:#acc2d9;" x="248.47013" xlink:href="#m635442d517" y="237.486187"/>
     <use style="fill:#acc2d9;stroke:#acc2d9;" x="253.301299" xlink:href="#m635442d517" y="305.324816"/>
     <use style="fill:#acc2d9;stroke:#acc2d9;" x="258.132468" xlink:href="#m635442d517" y="293.461418"/>
     <use style="fill:#acc2d9;stroke:#acc2d9;" x="262.963636" xlink:href="#m635442d517" y="285.056534"/>
     <use style="fill:#acc2d9;stroke:#acc2d9;" x="267.794805" xlink:href="#m635442d517" y="216.593101"/>
     <use style="fill:#acc2d9;stroke:#acc2d9;" x="272.625974" xlink:href="#m635442d517" y="264.280205"/>
     <use style="fill:#acc2d9;stroke:#acc2d9;" x="277.457143" xlink:href="#m635442d517" y="286.5223"/>
     <use style="fill:#acc2d9;stroke:#acc2d9;" x="282.288312" xlink:href="#m635442d517" y="329.772661"/>
     <use style="fill:#acc2d9;stroke:#acc2d9;" x="287.119481" xlink:href="#m635442d517" y="277.055565"/>
     <use style="fill:#acc2d9;stroke:#acc2d9;" x="291.950649" xlink:href="#m635442d517" y="291.765294"/>
     <use style="fill:#acc2d9;stroke:#acc2d9;" x="296.781818" xlink:href="#m635442d517" y="243.994568"/>
     <use style="fill:#acc2d9;stroke:#acc2d9;" x="301.612987" xlink:href="#m635442d517" y="247.46886"/>
     <use style="fill:#acc2d9;stroke:#acc2d9;" x="306.444156" xlink:href="#m635442d517" y="227.99894"/>
     <use style="fill:#acc2d9;stroke:#acc2d9;" x="311.275325" xlink:href="#m635442d517" y="269.699911"/>
     <use style="fill:#acc2d9;stroke:#acc2d9;" x="316.106494" xlink:href="#m635442d517" y="317.292348"/>
     <use style="fill:#acc2d9;stroke:#acc2d9;" x="320.937662" xlink:href="#m635442d517" y="224.292712"/>
     <use style="fill:#acc2d9;stroke:#acc2d9;" x="325.768831" xlink:href="#m635442d517" y="293.448796"/>
     <use style="fill:#acc2d9;stroke:#acc2d9;" x="330.6" xlink:href="#m635442d517" y="358.684072"/>
     <use style="fill:#acc2d9;stroke:#acc2d9;" x="335.431169" xlink:href="#m635442d517" y="276.175158"/>
     <use style="fill:#acc2d9;stroke:#acc2d9;" x="340.262338" xlink:href="#m635442d517" y="264.914476"/>
     <use style="fill:#acc2d9;stroke:#acc2d9;" x="345.093506" xlink:href="#m635442d517" y="276.689518"/>
     <use style="fill:#acc2d9;stroke:#acc2d9;" x="349.924675" xlink:href="#m635442d517" y="252.976922"/>
     <use style="fill:#acc2d9;stroke:#acc2d9;" x="354.755844" xlink:href="#m635442d517" y="274.120877"/>
     <use style="fill:#acc2d9;stroke:#acc2d9;" x="359.587013" xlink:href="#m635442d517" y="322.161405"/>
     <use style="fill:#acc2d9;stroke:#acc2d9;" x="364.418182" xlink:href="#m635442d517" y="286.781058"/>
     <use style="fill:#acc2d9;stroke:#acc2d9;" x="369.249351" xlink:href="#m635442d517" y="292.75299"/>
     <use style="fill:#acc2d9;stroke:#acc2d9;" x="374.080519" xlink:href="#m635442d517" y="238.884108"/>
     <use style="fill:#acc2d9;stroke:#acc2d9;" x="378.911688" xlink:href="#m635442d517" y="276.310848"/>
     <use style="fill:#acc2d9;stroke:#acc2d9;" x="383.742857" xlink:href="#m635442d517" y="278.006972"/>
     <use style="fill:#acc2d9;stroke:#acc2d9;" x="388.574026" xlink:href="#m635442d517" y="301.085296"/>
     <use style="fill:#acc2d9;stroke:#acc2d9;" x="393.405195" xlink:href="#m635442d517" y="300.417891"/>
     <use style="fill:#acc2d9;stroke:#acc2d9;" x="398.236364" xlink:href="#m635442d517" y="303.60187"/>
     <use style="fill:#acc2d9;stroke:#acc2d9;" x="403.067532" xlink:href="#m635442d517" y="293.220016"/>
     <use style="fill:#acc2d9;stroke:#acc2d9;" x="407.898701" xlink:href="#m635442d517" y="321.397755"/>
     <use style="fill:#acc2d9;stroke:#acc2d9;" x="412.72987" xlink:href="#m635442d517" y="304.105185"/>
     <use style="fill:#acc2d9;stroke:#acc2d9;" x="417.561039" xlink:href="#m635442d517" y="356.636102"/>
     <use style="fill:#acc2d9;stroke:#acc2d9;" x="422.392208" xlink:href="#m635442d517" y="296.105793"/>
     <use style="fill:#acc2d9;stroke:#acc2d9;" x="427.223377" xlink:href="#m635442d517" y="310.941746"/>
     <use style="fill:#acc2d9;stroke:#acc2d9;" x="432.054545" xlink:href="#m635442d517" y="337.860409"/>
     <use style="fill:#acc2d9;stroke:#acc2d9;" x="436.885714" xlink:href="#m635442d517" y="295.891213"/>
     <use style="fill:#acc2d9;stroke:#acc2d9;" x="441.716883" xlink:href="#m635442d517" y="325.806099"/>
     <use style="fill:#acc2d9;stroke:#acc2d9;" x="446.548052" xlink:href="#m635442d517" y="366.434173"/>
     <use style="fill:#acc2d9;stroke:#acc2d9;" x="451.379221" xlink:href="#m635442d517" y="341.46408"/>
     <use style="fill:#acc2d9;stroke:#acc2d9;" x="456.21039" xlink:href="#m635442d517" y="310.594632"/>
     <use style="fill:#acc2d9;stroke:#acc2d9;" x="461.041558" xlink:href="#m635442d517" y="245.22051"/>
     <use style="fill:#acc2d9;stroke:#acc2d9;" x="465.872727" xlink:href="#m635442d517" y="226.608907"/>
     <use style="fill:#acc2d9;stroke:#acc2d9;" x="470.703896" xlink:href="#m635442d517" y="232.227415"/>
     <use style="fill:#acc2d9;stroke:#acc2d9;" x="475.535065" xlink:href="#m635442d517" y="251.774647"/>
     <use style="fill:#acc2d9;stroke:#acc2d9;" x="480.366234" xlink:href="#m635442d517" y="387.661751"/>
     <use style="fill:#acc2d9;stroke:#acc2d9;" x="485.197403" xlink:href="#m635442d517" y="380.044184"/>
     <use style="fill:#acc2d9;stroke:#acc2d9;" x="490.028571" xlink:href="#m635442d517" y="285.457293"/>
     <use style="fill:#acc2d9;stroke:#acc2d9;" x="494.85974" xlink:href="#m635442d517" y="78.12"/>
     <use style="fill:#acc2d9;stroke:#acc2d9;" x="499.690909" xlink:href="#m635442d517" y="330.817157"/>
     <use style="fill:#acc2d9;stroke:#acc2d9;" x="504.522078" xlink:href="#m635442d517" y="325.231783"/>
     <use style="fill:#acc2d9;stroke:#acc2d9;" x="509.353247" xlink:href="#m635442d517" y="303.42358"/>
     <use style="fill:#acc2d9;stroke:#acc2d9;" x="514.184416" xlink:href="#m635442d517" y="290.474663"/>
     <use style="fill:#acc2d9;stroke:#acc2d9;" x="519.015584" xlink:href="#m635442d517" y="282.00509"/>
     <use style="fill:#acc2d9;stroke:#acc2d9;" x="523.846753" xlink:href="#m635442d517" y="268.925216"/>
     <use style="fill:#acc2d9;stroke:#acc2d9;" x="528.677922" xlink:href="#m635442d517" y="314.401838"/>
     <use style="fill:#acc2d9;stroke:#acc2d9;" x="533.509091" xlink:href="#m635442d517" y="347.262455"/>
     <use style="fill:#acc2d9;stroke:#acc2d9;" x="538.34026" xlink:href="#m635442d517" y="298.600278"/>
     <use style="fill:#acc2d9;stroke:#acc2d9;" x="543.171429" xlink:href="#m635442d517" y="311.984664"/>
     <use style="fill:#acc2d9;stroke:#acc2d9;" x="548.002597" xlink:href="#m635442d517" y="249.63832"/>
     <use style="fill:#acc2d9;stroke:#acc2d9;" x="552.833766" xlink:href="#m635442d517" y="310.911768"/>
     <use style="fill:#acc2d9;stroke:#acc2d9;" x="557.664935" xlink:href="#m635442d517" y="339.143152"/>
     <use style="fill:#acc2d9;stroke:#acc2d9;" x="562.496104" xlink:href="#m635442d517" y="325.204961"/>
     <use style="fill:#acc2d9;stroke:#acc2d9;" x="567.327273" xlink:href="#m635442d517" y="320.754017"/>
     <use style="fill:#acc2d9;stroke:#acc2d9;" x="572.158442" xlink:href="#m635442d517" y="300.348468"/>
     <use style="fill:#acc2d9;stroke:#acc2d9;" x="576.98961" xlink:href="#m635442d517" y="368.109786"/>
     <use style="fill:#acc2d9;stroke:#acc2d9;" x="581.820779" xlink:href="#m635442d517" y="295.990614"/>
     <use style="fill:#acc2d9;stroke:#acc2d9;" x="586.651948" xlink:href="#m635442d517" y="307.164518"/>
     <use style="fill:#acc2d9;stroke:#acc2d9;" x="591.483117" xlink:href="#m635442d517" y="353.526279"/>
     <use style="fill:#acc2d9;stroke:#acc2d9;" x="596.314286" xlink:href="#m635442d517" y="310.16074"/>
     <use style="fill:#acc2d9;stroke:#acc2d9;" x="601.145455" xlink:href="#m635442d517" y="269.466398"/>
     <use style="fill:#acc2d9;stroke:#acc2d9;" x="605.976623" xlink:href="#m635442d517" y="369.859554"/>
     <use style="fill:#acc2d9;stroke:#acc2d9;" x="610.807792" xlink:href="#m635442d517" y="403.583222"/>
     <use style="fill:#acc2d9;stroke:#acc2d9;" x="615.638961" xlink:href="#m635442d517" y="430.92"/>
     <use style="fill:#acc2d9;stroke:#acc2d9;" x="620.47013" xlink:href="#m635442d517" y="310.960679"/>
     <use style="fill:#acc2d9;stroke:#acc2d9;" x="625.301299" xlink:href="#m635442d517" y="310.354808"/>
     <use style="fill:#acc2d9;stroke:#acc2d9;" x="630.132468" xlink:href="#m635442d517" y="349.461894"/>
     <use style="fill:#acc2d9;stroke:#acc2d9;" x="634.963636" xlink:href="#m635442d517" y="370.266623"/>
     <use style="fill:#acc2d9;stroke:#acc2d9;" x="639.794805" xlink:href="#m635442d517" y="306.643848"/>
     <use style="fill:#acc2d9;stroke:#acc2d9;" x="644.625974" xlink:href="#m635442d517" y="322.865099"/>
     <use style="fill:#acc2d9;stroke:#acc2d9;" x="649.457143" xlink:href="#m635442d517" y="294.72996"/>
     <use style="fill:#acc2d9;stroke:#acc2d9;" x="654.288312" xlink:href="#m635442d517" y="253.033722"/>
     <use style="fill:#acc2d9;stroke:#acc2d9;" x="659.119481" xlink:href="#m635442d517" y="262.574614"/>
     <use style="fill:#acc2d9;stroke:#acc2d9;" x="663.950649" xlink:href="#m635442d517" y="283.56079"/>
     <use style="fill:#acc2d9;stroke:#acc2d9;" x="668.781818" xlink:href="#m635442d517" y="286.639057"/>
     <use style="fill:#acc2d9;stroke:#acc2d9;" x="673.612987" xlink:href="#m635442d517" y="285.878562"/>
     <use style="fill:#acc2d9;stroke:#acc2d9;" x="678.444156" xlink:href="#m635442d517" y="291.135756"/>
     <use style="fill:#acc2d9;stroke:#acc2d9;" x="683.275325" xlink:href="#m635442d517" y="312.439068"/>
     <use style="fill:#acc2d9;stroke:#acc2d9;" x="688.106494" xlink:href="#m635442d517" y="338.191745"/>
     <use style="fill:#acc2d9;stroke:#acc2d9;" x="692.937662" xlink:href="#m635442d517" y="321.639157"/>
     <use style="fill:#acc2d9;stroke:#acc2d9;" x="697.768831" xlink:href="#m635442d517" y="317.101435"/>
     <use style="fill:#acc2d9;stroke:#acc2d9;" x="702.6" xlink:href="#m635442d517" y="346.549295"/>
     <use style="fill:#acc2d9;stroke:#acc2d9;" x="707.431169" xlink:href="#m635442d517" y="246.186117"/>
     <use style="fill:#acc2d9;stroke:#acc2d9;" x="712.262338" xlink:href="#m635442d517" y="363.990178"/>
     <use style="fill:#acc2d9;stroke:#acc2d9;" x="717.093506" xlink:href="#m635442d517" y="250.204746"/>
     <use style="fill:#acc2d9;stroke:#acc2d9;" x="721.924675" xlink:href="#m635442d517" y="360.272906"/>
     <use style="fill:#acc2d9;stroke:#acc2d9;" x="726.755844" xlink:href="#m635442d517" y="281.482841"/>
     <use style="fill:#acc2d9;stroke:#acc2d9;" x="731.587013" xlink:href="#m635442d517" y="310.559921"/>
     <use style="fill:#acc2d9;stroke:#acc2d9;" x="736.418182" xlink:href="#m635442d517" y="277.446856"/>
     <use style="fill:#acc2d9;stroke:#acc2d9;" x="741.249351" xlink:href="#m635442d517" y="310.736633"/>
     <use style="fill:#acc2d9;stroke:#acc2d9;" x="746.080519" xlink:href="#m635442d517" y="307.13454"/>
     <use style="fill:#acc2d9;stroke:#acc2d9;" x="750.911688" xlink:href="#m635442d517" y="374.921102"/>
     <use style="fill:#acc2d9;stroke:#acc2d9;" x="755.742857" xlink:href="#m635442d517" y="357.824177"/>
     <use style="fill:#acc2d9;stroke:#acc2d9;" x="760.574026" xlink:href="#m635442d517" y="368.396943"/>
     <use style="fill:#acc2d9;stroke:#acc2d9;" x="765.405195" xlink:href="#m635442d517" y="307.366475"/>
     <use style="fill:#acc2d9;stroke:#acc2d9;" x="770.236364" xlink:href="#m635442d517" y="250.004367"/>
     <use style="fill:#acc2d9;stroke:#acc2d9;" x="775.067532" xlink:href="#m635442d517" y="300.313757"/>
     <use style="fill:#acc2d9;stroke:#acc2d9;" x="779.898701" xlink:href="#m635442d517" y="270.548762"/>
     <use style="fill:#acc2d9;stroke:#acc2d9;" x="784.72987" xlink:href="#m635442d517" y="286.583834"/>
     <use style="fill:#acc2d9;stroke:#acc2d9;" x="789.561039" xlink:href="#m635442d517" y="332.219812"/>
     <use style="fill:#acc2d9;stroke:#acc2d9;" x="794.392208" xlink:href="#m635442d517" y="305.847064"/>
     <use style="fill:#acc2d9;stroke:#acc2d9;" x="799.223377" xlink:href="#m635442d517" y="264.914476"/>
     <use style="fill:#acc2d9;stroke:#acc2d9;" x="804.054545" xlink:href="#m635442d517" y="267.786052"/>
     <use style="fill:#acc2d9;stroke:#acc2d9;" x="808.885714" xlink:href="#m635442d517" y="213.525878"/>
     <use style="fill:#acc2d9;stroke:#acc2d9;" x="813.716883" xlink:href="#m635442d517" y="201.209655"/>
     <use style="fill:#acc2d9;stroke:#acc2d9;" x="818.548052" xlink:href="#m635442d517" y="247.053901"/>
     <use style="fill:#acc2d9;stroke:#acc2d9;" x="823.379221" xlink:href="#m635442d517" y="293.898466"/>
     <use style="fill:#acc2d9;stroke:#acc2d9;" x="828.21039" xlink:href="#m635442d517" y="273.423494"/>
     <use style="fill:#acc2d9;stroke:#acc2d9;" x="833.041558" xlink:href="#m635442d517" y="303.338379"/>
     <use style="fill:#acc2d9;stroke:#acc2d9;" x="837.872727" xlink:href="#m635442d517" y="291.640649"/>
     <use style="fill:#acc2d9;stroke:#acc2d9;" x="842.703896" xlink:href="#m635442d517" y="297.386958"/>
     <use style="fill:#acc2d9;stroke:#acc2d9;" x="847.535065" xlink:href="#m635442d517" y="353.180743"/>
     <use style="fill:#acc2d9;stroke:#acc2d9;" x="852.366234" xlink:href="#m635442d517" y="275.154329"/>
     <use style="fill:#acc2d9;stroke:#acc2d9;" x="857.197403" xlink:href="#m635442d517" y="306.80636"/>
     <use style="fill:#acc2d9;stroke:#acc2d9;" x="862.028571" xlink:href="#m635442d517" y="276.751051"/>
     <use style="fill:#acc2d9;stroke:#acc2d9;" x="866.85974" xlink:href="#m635442d517" y="223.772042"/>
     <use style="fill:#acc2d9;stroke:#acc2d9;" x="871.690909" xlink:href="#m635442d517" y="268.660148"/>
    </g>
   </g>
   <g id="line2d_12">
    <path clip-path="url(#pb4d6e32ff7)" d="M 162.841827 332.208768 
L 169.005732 350.195566 
L 175.169637 349.610206 
L 181.333542 325.309095 
L 187.497447 319.457074 
L 193.661352 283.407744 
L 199.825258 327.906136 
L 205.989163 346.544561 
L 212.153068 315.190732 
L 218.316973 313.715499 
L 224.480878 379.375201 
L 230.644783 362.740569 
L 236.808688 379.985806 
L 242.972593 309.947738 
L 249.136498 305.427372 
L 255.300403 339.277264 
L 261.464308 317.756218 
L 267.628213 316.973634 
L 273.792118 329.764772 
L 279.956023 338.169656 
L 286.119928 333.925402 
L 292.283833 334.534429 
L 298.447738 351.110684 
L 304.611644 293.08906 
L 310.775549 263.410843 
L 316.939454 315.760314 
L 323.103359 299.56904 
L 329.267264 354.8674 
L 335.431169 348.324308 
L 341.595074 376.279579 
L 347.758979 335.731971 
L 353.922884 341.46408 
L 360.086789 302.554218 
L 366.250694 290.64822 
L 372.414599 353.958593 
L 378.578504 325.809254 
L 384.742409 296.394528 
L 390.906314 286.266699 
L 397.070219 288.366736 
L 403.234124 325.918122 
L 409.39803 307.192918 
L 415.561935 332.41388 
L 421.72584 289.316565 
L 427.889745 293.332039 
L 434.05365 286.377144 
L 440.217555 342.399709 
L 446.38146 342.387086 
L 452.545365 230.662248 
L 458.70927 299.930354 
L 464.873175 294.212446 
L 471.03708 290.110193 
L 477.200985 201.359545 
L 483.36489 304.974546 
L 489.528795 324.786847 
L 495.6927 306.902605 
L 501.856605 350.728859 
L 508.020511 324.444466 
L 514.184416 228.033651 
L 520.348321 300.752382 
L 526.512226 287.577842 
L 532.676131 294.903517 
L 538.840036 304.469654 
L 545.003941 350.92766 
L 551.167846 345.301263 
L 557.331751 364.753828 
L 563.495656 372.308283 
L 569.659561 300.907006 
L 575.823466 367.993029 
L 581.987371 366.642441 
L 588.151276 376.188067 
L 594.315181 296.432395 
L 600.479086 331.173738 
L 606.642991 293.671264 
L 612.806897 289.498011 
L 618.970802 331.318894 
L 625.134707 326.090101 
L 631.298612 316.700677 
L 637.462517 258.420295 
L 643.626422 308.849597 
L 649.790327 274.469568 
L 655.954232 350.137188 
L 662.118137 351.110684 
L 668.282042 325.204961 
L 674.445947 298.065407 
L 680.609852 351.754422 
L 686.773757 346.334715 
L 692.937662 337.83832 
L 699.101567 371.557255 
L 705.265472 317.977108 
L 711.429378 332.219812 
L 717.593283 341.770171 
L 723.757188 280.012342 
L 729.921093 273.300426 
L 736.084998 330.028263 
L 742.248903 318.363666 
L 748.412808 338.1807 
L 754.576713 342.376042 
L 760.740618 329.908351 
L 766.904523 323.851218 
L 773.068428 337.977165 
L 779.232333 295.697145 
L 785.396238 330.009329 
L 791.560143 317.844574 
L 797.724048 325.638853 
L 803.887953 346.11698 
L 810.051858 295.684523 
L 816.215764 339.081618 
L 822.379669 365.4733 
L 828.543574 352.563827 
L 834.707479 324.024775 
L 840.871384 393.947663 
L 847.035289 313.377852 
L 853.199194 312.227644 
L 859.363099 269.808778 
L 865.527004 293.781709 
L 871.690909 329.605415 
" style="fill:none;stroke:#56ae57;stroke-linecap:square;stroke-width:1.5;"/>
    <defs>
     <path d="M 0 3 
C 0.795609 3 1.55874 2.683901 2.12132 2.12132 
C 2.683901 1.55874 3 0.795609 3 0 
C 3 -0.795609 2.683901 -1.55874 2.12132 -2.12132 
C 1.55874 -2.683901 0.795609 -3 0 -3 
C -0.795609 -3 -1.55874 -2.683901 -2.12132 -2.12132 
C -2.683901 -1.55874 -3 -0.795609 -3 0 
C -3 0.795609 -2.683901 1.55874 -2.12132 2.12132 
C -1.55874 2.683901 -0.795609 3 0 3 
z
" id="ma1be08d991" style="stroke:#56ae57;"/>
    </defs>
    <g clip-path="url(#pb4d6e32ff7)">
     <use style="fill:#56ae57;stroke:#56ae57;" x="162.841827" xlink:href="#ma1be08d991" y="332.208768"/>
     <use style="fill:#56ae57;stroke:#56ae57;" x="169.005732" xlink:href="#ma1be08d991" y="350.195566"/>
     <use style="fill:#56ae57;stroke:#56ae57;" x="175.169637" xlink:href="#ma1be08d991" y="349.610206"/>
     <use style="fill:#56ae57;stroke:#56ae57;" x="181.333542" xlink:href="#ma1be08d991" y="325.309095"/>
     <use style="fill:#56ae57;stroke:#56ae57;" x="187.497447" xlink:href="#ma1be08d991" y="319.457074"/>
     <use style="fill:#56ae57;stroke:#56ae57;" x="193.661352" xlink:href="#ma1be08d991" y="283.407744"/>
     <use style="fill:#56ae57;stroke:#56ae57;" x="199.825258" xlink:href="#ma1be08d991" y="327.906136"/>
     <use style="fill:#56ae57;stroke:#56ae57;" x="205.989163" xlink:href="#ma1be08d991" y="346.544561"/>
     <use style="fill:#56ae57;stroke:#56ae57;" x="212.153068" xlink:href="#ma1be08d991" y="315.190732"/>
     <use style="fill:#56ae57;stroke:#56ae57;" x="218.316973" xlink:href="#ma1be08d991" y="313.715499"/>
     <use style="fill:#56ae57;stroke:#56ae57;" x="224.480878" xlink:href="#ma1be08d991" y="379.375201"/>
     <use style="fill:#56ae57;stroke:#56ae57;" x="230.644783" xlink:href="#ma1be08d991" y="362.740569"/>
     <use style="fill:#56ae57;stroke:#56ae57;" x="236.808688" xlink:href="#ma1be08d991" y="379.985806"/>
     <use style="fill:#56ae57;stroke:#56ae57;" x="242.972593" xlink:href="#ma1be08d991" y="309.947738"/>
     <use style="fill:#56ae57;stroke:#56ae57;" x="249.136498" xlink:href="#ma1be08d991" y="305.427372"/>
     <use style="fill:#56ae57;stroke:#56ae57;" x="255.300403" xlink:href="#ma1be08d991" y="339.277264"/>
     <use style="fill:#56ae57;stroke:#56ae57;" x="261.464308" xlink:href="#ma1be08d991" y="317.756218"/>
     <use style="fill:#56ae57;stroke:#56ae57;" x="267.628213" xlink:href="#ma1be08d991" y="316.973634"/>
     <use style="fill:#56ae57;stroke:#56ae57;" x="273.792118" xlink:href="#ma1be08d991" y="329.764772"/>
     <use style="fill:#56ae57;stroke:#56ae57;" x="279.956023" xlink:href="#ma1be08d991" y="338.169656"/>
     <use style="fill:#56ae57;stroke:#56ae57;" x="286.119928" xlink:href="#ma1be08d991" y="333.925402"/>
     <use style="fill:#56ae57;stroke:#56ae57;" x="292.283833" xlink:href="#ma1be08d991" y="334.534429"/>
     <use style="fill:#56ae57;stroke:#56ae57;" x="298.447738" xlink:href="#ma1be08d991" y="351.110684"/>
     <use style="fill:#56ae57;stroke:#56ae57;" x="304.611644" xlink:href="#ma1be08d991" y="293.08906"/>
     <use style="fill:#56ae57;stroke:#56ae57;" x="310.775549" xlink:href="#ma1be08d991" y="263.410843"/>
     <use style="fill:#56ae57;stroke:#56ae57;" x="316.939454" xlink:href="#ma1be08d991" y="315.760314"/>
     <use style="fill:#56ae57;stroke:#56ae57;" x="323.103359" xlink:href="#ma1be08d991" y="299.56904"/>
     <use style="fill:#56ae57;stroke:#56ae57;" x="329.267264" xlink:href="#ma1be08d991" y="354.8674"/>
     <use style="fill:#56ae57;stroke:#56ae57;" x="335.431169" xlink:href="#ma1be08d991" y="348.324308"/>
     <use style="fill:#56ae57;stroke:#56ae57;" x="341.595074" xlink:href="#ma1be08d991" y="376.279579"/>
     <use style="fill:#56ae57;stroke:#56ae57;" x="347.758979" xlink:href="#ma1be08d991" y="335.731971"/>
     <use style="fill:#56ae57;stroke:#56ae57;" x="353.922884" xlink:href="#ma1be08d991" y="341.46408"/>
     <use style="fill:#56ae57;stroke:#56ae57;" x="360.086789" xlink:href="#ma1be08d991" y="302.554218"/>
     <use style="fill:#56ae57;stroke:#56ae57;" x="366.250694" xlink:href="#ma1be08d991" y="290.64822"/>
     <use style="fill:#56ae57;stroke:#56ae57;" x="372.414599" xlink:href="#ma1be08d991" y="353.958593"/>
     <use style="fill:#56ae57;stroke:#56ae57;" x="378.578504" xlink:href="#ma1be08d991" y="325.809254"/>
     <use style="fill:#56ae57;stroke:#56ae57;" x="384.742409" xlink:href="#ma1be08d991" y="296.394528"/>
     <use style="fill:#56ae57;stroke:#56ae57;" x="390.906314" xlink:href="#ma1be08d991" y="286.266699"/>
     <use style="fill:#56ae57;stroke:#56ae57;" x="397.070219" xlink:href="#ma1be08d991" y="288.366736"/>
     <use style="fill:#56ae57;stroke:#56ae57;" x="403.234124" xlink:href="#ma1be08d991" y="325.918122"/>
     <use style="fill:#56ae57;stroke:#56ae57;" x="409.39803" xlink:href="#ma1be08d991" y="307.192918"/>
     <use style="fill:#56ae57;stroke:#56ae57;" x="415.561935" xlink:href="#ma1be08d991" y="332.41388"/>
     <use style="fill:#56ae57;stroke:#56ae57;" x="421.72584" xlink:href="#ma1be08d991" y="289.316565"/>
     <use style="fill:#56ae57;stroke:#56ae57;" x="427.889745" xlink:href="#ma1be08d991" y="293.332039"/>
     <use style="fill:#56ae57;stroke:#56ae57;" x="434.05365" xlink:href="#ma1be08d991" y="286.377144"/>
     <use style="fill:#56ae57;stroke:#56ae57;" x="440.217555" xlink:href="#ma1be08d991" y="342.399709"/>
     <use style="fill:#56ae57;stroke:#56ae57;" x="446.38146" xlink:href="#ma1be08d991" y="342.387086"/>
     <use style="fill:#56ae57;stroke:#56ae57;" x="452.545365" xlink:href="#ma1be08d991" y="230.662248"/>
     <use style="fill:#56ae57;stroke:#56ae57;" x="458.70927" xlink:href="#ma1be08d991" y="299.930354"/>
     <use style="fill:#56ae57;stroke:#56ae57;" x="464.873175" xlink:href="#ma1be08d991" y="294.212446"/>
     <use style="fill:#56ae57;stroke:#56ae57;" x="471.03708" xlink:href="#ma1be08d991" y="290.110193"/>
     <use style="fill:#56ae57;stroke:#56ae57;" x="477.200985" xlink:href="#ma1be08d991" y="201.359545"/>
     <use style="fill:#56ae57;stroke:#56ae57;" x="483.36489" xlink:href="#ma1be08d991" y="304.974546"/>
     <use style="fill:#56ae57;stroke:#56ae57;" x="489.528795" xlink:href="#ma1be08d991" y="324.786847"/>
     <use style="fill:#56ae57;stroke:#56ae57;" x="495.6927" xlink:href="#ma1be08d991" y="306.902605"/>
     <use style="fill:#56ae57;stroke:#56ae57;" x="501.856605" xlink:href="#ma1be08d991" y="350.728859"/>
     <use style="fill:#56ae57;stroke:#56ae57;" x="508.020511" xlink:href="#ma1be08d991" y="324.444466"/>
     <use style="fill:#56ae57;stroke:#56ae57;" x="514.184416" xlink:href="#ma1be08d991" y="228.033651"/>
     <use style="fill:#56ae57;stroke:#56ae57;" x="520.348321" xlink:href="#ma1be08d991" y="300.752382"/>
     <use style="fill:#56ae57;stroke:#56ae57;" x="526.512226" xlink:href="#ma1be08d991" y="287.577842"/>
     <use style="fill:#56ae57;stroke:#56ae57;" x="532.676131" xlink:href="#ma1be08d991" y="294.903517"/>
     <use style="fill:#56ae57;stroke:#56ae57;" x="538.840036" xlink:href="#ma1be08d991" y="304.469654"/>
     <use style="fill:#56ae57;stroke:#56ae57;" x="545.003941" xlink:href="#ma1be08d991" y="350.92766"/>
     <use style="fill:#56ae57;stroke:#56ae57;" x="551.167846" xlink:href="#ma1be08d991" y="345.301263"/>
     <use style="fill:#56ae57;stroke:#56ae57;" x="557.331751" xlink:href="#ma1be08d991" y="364.753828"/>
     <use style="fill:#56ae57;stroke:#56ae57;" x="563.495656" xlink:href="#ma1be08d991" y="372.308283"/>
     <use style="fill:#56ae57;stroke:#56ae57;" x="569.659561" xlink:href="#ma1be08d991" y="300.907006"/>
     <use style="fill:#56ae57;stroke:#56ae57;" x="575.823466" xlink:href="#ma1be08d991" y="367.993029"/>
     <use style="fill:#56ae57;stroke:#56ae57;" x="581.987371" xlink:href="#ma1be08d991" y="366.642441"/>
     <use style="fill:#56ae57;stroke:#56ae57;" x="588.151276" xlink:href="#ma1be08d991" y="376.188067"/>
     <use style="fill:#56ae57;stroke:#56ae57;" x="594.315181" xlink:href="#ma1be08d991" y="296.432395"/>
     <use style="fill:#56ae57;stroke:#56ae57;" x="600.479086" xlink:href="#ma1be08d991" y="331.173738"/>
     <use style="fill:#56ae57;stroke:#56ae57;" x="606.642991" xlink:href="#ma1be08d991" y="293.671264"/>
     <use style="fill:#56ae57;stroke:#56ae57;" x="612.806897" xlink:href="#ma1be08d991" y="289.498011"/>
     <use style="fill:#56ae57;stroke:#56ae57;" x="618.970802" xlink:href="#ma1be08d991" y="331.318894"/>
     <use style="fill:#56ae57;stroke:#56ae57;" x="625.134707" xlink:href="#ma1be08d991" y="326.090101"/>
     <use style="fill:#56ae57;stroke:#56ae57;" x="631.298612" xlink:href="#ma1be08d991" y="316.700677"/>
     <use style="fill:#56ae57;stroke:#56ae57;" x="637.462517" xlink:href="#ma1be08d991" y="258.420295"/>
     <use style="fill:#56ae57;stroke:#56ae57;" x="643.626422" xlink:href="#ma1be08d991" y="308.849597"/>
     <use style="fill:#56ae57;stroke:#56ae57;" x="649.790327" xlink:href="#ma1be08d991" y="274.469568"/>
     <use style="fill:#56ae57;stroke:#56ae57;" x="655.954232" xlink:href="#ma1be08d991" y="350.137188"/>
     <use style="fill:#56ae57;stroke:#56ae57;" x="662.118137" xlink:href="#ma1be08d991" y="351.110684"/>
     <use style="fill:#56ae57;stroke:#56ae57;" x="668.282042" xlink:href="#ma1be08d991" y="325.204961"/>
     <use style="fill:#56ae57;stroke:#56ae57;" x="674.445947" xlink:href="#ma1be08d991" y="298.065407"/>
     <use style="fill:#56ae57;stroke:#56ae57;" x="680.609852" xlink:href="#ma1be08d991" y="351.754422"/>
     <use style="fill:#56ae57;stroke:#56ae57;" x="686.773757" xlink:href="#ma1be08d991" y="346.334715"/>
     <use style="fill:#56ae57;stroke:#56ae57;" x="692.937662" xlink:href="#ma1be08d991" y="337.83832"/>
     <use style="fill:#56ae57;stroke:#56ae57;" x="699.101567" xlink:href="#ma1be08d991" y="371.557255"/>
     <use style="fill:#56ae57;stroke:#56ae57;" x="705.265472" xlink:href="#ma1be08d991" y="317.977108"/>
     <use style="fill:#56ae57;stroke:#56ae57;" x="711.429378" xlink:href="#ma1be08d991" y="332.219812"/>
     <use style="fill:#56ae57;stroke:#56ae57;" x="717.593283" xlink:href="#ma1be08d991" y="341.770171"/>
     <use style="fill:#56ae57;stroke:#56ae57;" x="723.757188" xlink:href="#ma1be08d991" y="280.012342"/>
     <use style="fill:#56ae57;stroke:#56ae57;" x="729.921093" xlink:href="#ma1be08d991" y="273.300426"/>
     <use style="fill:#56ae57;stroke:#56ae57;" x="736.084998" xlink:href="#ma1be08d991" y="330.028263"/>
     <use style="fill:#56ae57;stroke:#56ae57;" x="742.248903" xlink:href="#ma1be08d991" y="318.363666"/>
     <use style="fill:#56ae57;stroke:#56ae57;" x="748.412808" xlink:href="#ma1be08d991" y="338.1807"/>
     <use style="fill:#56ae57;stroke:#56ae57;" x="754.576713" xlink:href="#ma1be08d991" y="342.376042"/>
     <use style="fill:#56ae57;stroke:#56ae57;" x="760.740618" xlink:href="#ma1be08d991" y="329.908351"/>
     <use style="fill:#56ae57;stroke:#56ae57;" x="766.904523" xlink:href="#ma1be08d991" y="323.851218"/>
     <use style="fill:#56ae57;stroke:#56ae57;" x="773.068428" xlink:href="#ma1be08d991" y="337.977165"/>
     <use style="fill:#56ae57;stroke:#56ae57;" x="779.232333" xlink:href="#ma1be08d991" y="295.697145"/>
     <use style="fill:#56ae57;stroke:#56ae57;" x="785.396238" xlink:href="#ma1be08d991" y="330.009329"/>
     <use style="fill:#56ae57;stroke:#56ae57;" x="791.560143" xlink:href="#ma1be08d991" y="317.844574"/>
     <use style="fill:#56ae57;stroke:#56ae57;" x="797.724048" xlink:href="#ma1be08d991" y="325.638853"/>
     <use style="fill:#56ae57;stroke:#56ae57;" x="803.887953" xlink:href="#ma1be08d991" y="346.11698"/>
     <use style="fill:#56ae57;stroke:#56ae57;" x="810.051858" xlink:href="#ma1be08d991" y="295.684523"/>
     <use style="fill:#56ae57;stroke:#56ae57;" x="816.215764" xlink:href="#ma1be08d991" y="339.081618"/>
     <use style="fill:#56ae57;stroke:#56ae57;" x="822.379669" xlink:href="#ma1be08d991" y="365.4733"/>
     <use style="fill:#56ae57;stroke:#56ae57;" x="828.543574" xlink:href="#ma1be08d991" y="352.563827"/>
     <use style="fill:#56ae57;stroke:#56ae57;" x="834.707479" xlink:href="#ma1be08d991" y="324.024775"/>
     <use style="fill:#56ae57;stroke:#56ae57;" x="840.871384" xlink:href="#ma1be08d991" y="393.947663"/>
     <use style="fill:#56ae57;stroke:#56ae57;" x="847.035289" xlink:href="#ma1be08d991" y="313.377852"/>
     <use style="fill:#56ae57;stroke:#56ae57;" x="853.199194" xlink:href="#ma1be08d991" y="312.227644"/>
     <use style="fill:#56ae57;stroke:#56ae57;" x="859.363099" xlink:href="#ma1be08d991" y="269.808778"/>
     <use style="fill:#56ae57;stroke:#56ae57;" x="865.527004" xlink:href="#ma1be08d991" y="293.781709"/>
     <use style="fill:#56ae57;stroke:#56ae57;" x="871.690909" xlink:href="#ma1be08d991" y="329.605415"/>
    </g>
   </g>
   <g id="line2d_13">
    <path clip-path="url(#pb4d6e32ff7)" d="M 165.963805 290.037615 
L 175.249688 297.147134 
L 184.535571 283.535545 
L 193.821454 226.37855 
L 203.107337 279.338626 
L 212.39322 282.407426 
L 221.679103 336.722823 
L 230.964986 176.692387 
L 240.250869 165.537417 
L 249.536752 309.644803 
L 258.822635 276.751051 
L 268.108517 310.354808 
L 277.3944 349.567606 
L 286.680283 300.752382 
L 295.966166 285.878562 
L 305.252049 361.150157 
L 314.537932 284.002571 
L 323.823815 216.922859 
L 333.109698 329.334036 
L 342.395581 325.19865 
L 351.681464 260.686001 
L 360.967347 326.46877 
L 370.25323 285.056534 
L 379.539113 300.313757 
L 388.824996 258.88101 
L 398.110879 247.81124 
L 407.396762 255.736476 
L 416.682645 221.993873 
L 425.968528 227.378868 
L 435.254411 238.779974 
L 444.540293 250.179502 
L 453.826176 217.427751 
L 463.112059 275.106995 
L 472.397942 282.792407 
L 481.683825 243.230918 
L 490.969708 270.444627 
L 500.255591 337.917209 
L 509.541474 329.517059 
L 518.827357 346.598206 
L 528.11324 321.932626 
L 537.399123 310.16074 
L 546.685006 311.342504 
L 555.970889 336.673911 
L 565.256772 363.857643 
L 574.542655 367.058978 
L 583.828538 338.145989 
L 593.114421 238.31137 
L 602.400304 350.137188 
L 611.686187 308.234259 
L 620.972069 259.158701 
L 630.257952 277.143921 
L 639.543835 333.003973 
L 648.829718 297.909206 
L 658.115601 314.933553 
L 667.401484 325.085049 
L 676.687367 243.967745 
L 685.97325 323.518304 
L 695.259133 323.518304 
L 704.545016 340.342272 
L 713.830899 314.657439 
L 723.116782 289.316565 
L 732.402665 290.037615 
L 741.688548 330.987559 
L 750.974431 294.72996 
L 760.260314 314.162014 
L 769.546197 300.162289 
L 778.83208 310.8313 
L 788.117963 223.158282 
L 797.403846 329.20939 
L 806.689728 292.75299 
L 815.975611 277.159699 
L 825.261494 384.86433 
L 834.547377 345.566332 
L 843.83326 255.783809 
L 853.119143 293.464573 
L 862.405026 288.111134 
L 871.690909 321.72278 
" style="fill:none;stroke:#b2996e;stroke-linecap:square;stroke-width:1.5;"/>
    <defs>
     <path d="M 0 3 
C 0.795609 3 1.55874 2.683901 2.12132 2.12132 
C 2.683901 1.55874 3 0.795609 3 0 
C 3 -0.795609 2.683901 -1.55874 2.12132 -2.12132 
C 1.55874 -2.683901 0.795609 -3 0 -3 
C -0.795609 -3 -1.55874 -2.683901 -2.12132 -2.12132 
C -2.683901 -1.55874 -3 -0.795609 -3 0 
C -3 0.795609 -2.683901 1.55874 -2.12132 2.12132 
C -1.55874 2.683901 -0.795609 3 0 3 
z
" id="m9e8bdb2967" style="stroke:#b2996e;"/>
    </defs>
    <g clip-path="url(#pb4d6e32ff7)">
     <use style="fill:#b2996e;stroke:#b2996e;" x="165.963805" xlink:href="#m9e8bdb2967" y="290.037615"/>
     <use style="fill:#b2996e;stroke:#b2996e;" x="175.249688" xlink:href="#m9e8bdb2967" y="297.147134"/>
     <use style="fill:#b2996e;stroke:#b2996e;" x="184.535571" xlink:href="#m9e8bdb2967" y="283.535545"/>
     <use style="fill:#b2996e;stroke:#b2996e;" x="193.821454" xlink:href="#m9e8bdb2967" y="226.37855"/>
     <use style="fill:#b2996e;stroke:#b2996e;" x="203.107337" xlink:href="#m9e8bdb2967" y="279.338626"/>
     <use style="fill:#b2996e;stroke:#b2996e;" x="212.39322" xlink:href="#m9e8bdb2967" y="282.407426"/>
     <use style="fill:#b2996e;stroke:#b2996e;" x="221.679103" xlink:href="#m9e8bdb2967" y="336.722823"/>
     <use style="fill:#b2996e;stroke:#b2996e;" x="230.964986" xlink:href="#m9e8bdb2967" y="176.692387"/>
     <use style="fill:#b2996e;stroke:#b2996e;" x="240.250869" xlink:href="#m9e8bdb2967" y="165.537417"/>
     <use style="fill:#b2996e;stroke:#b2996e;" x="249.536752" xlink:href="#m9e8bdb2967" y="309.644803"/>
     <use style="fill:#b2996e;stroke:#b2996e;" x="258.822635" xlink:href="#m9e8bdb2967" y="276.751051"/>
     <use style="fill:#b2996e;stroke:#b2996e;" x="268.108517" xlink:href="#m9e8bdb2967" y="310.354808"/>
     <use style="fill:#b2996e;stroke:#b2996e;" x="277.3944" xlink:href="#m9e8bdb2967" y="349.567606"/>
     <use style="fill:#b2996e;stroke:#b2996e;" x="286.680283" xlink:href="#m9e8bdb2967" y="300.752382"/>
     <use style="fill:#b2996e;stroke:#b2996e;" x="295.966166" xlink:href="#m9e8bdb2967" y="285.878562"/>
     <use style="fill:#b2996e;stroke:#b2996e;" x="305.252049" xlink:href="#m9e8bdb2967" y="361.150157"/>
     <use style="fill:#b2996e;stroke:#b2996e;" x="314.537932" xlink:href="#m9e8bdb2967" y="284.002571"/>
     <use style="fill:#b2996e;stroke:#b2996e;" x="323.823815" xlink:href="#m9e8bdb2967" y="216.922859"/>
     <use style="fill:#b2996e;stroke:#b2996e;" x="333.109698" xlink:href="#m9e8bdb2967" y="329.334036"/>
     <use style="fill:#b2996e;stroke:#b2996e;" x="342.395581" xlink:href="#m9e8bdb2967" y="325.19865"/>
     <use style="fill:#b2996e;stroke:#b2996e;" x="351.681464" xlink:href="#m9e8bdb2967" y="260.686001"/>
     <use style="fill:#b2996e;stroke:#b2996e;" x="360.967347" xlink:href="#m9e8bdb2967" y="326.46877"/>
     <use style="fill:#b2996e;stroke:#b2996e;" x="370.25323" xlink:href="#m9e8bdb2967" y="285.056534"/>
     <use style="fill:#b2996e;stroke:#b2996e;" x="379.539113" xlink:href="#m9e8bdb2967" y="300.313757"/>
     <use style="fill:#b2996e;stroke:#b2996e;" x="388.824996" xlink:href="#m9e8bdb2967" y="258.88101"/>
     <use style="fill:#b2996e;stroke:#b2996e;" x="398.110879" xlink:href="#m9e8bdb2967" y="247.81124"/>
     <use style="fill:#b2996e;stroke:#b2996e;" x="407.396762" xlink:href="#m9e8bdb2967" y="255.736476"/>
     <use style="fill:#b2996e;stroke:#b2996e;" x="416.682645" xlink:href="#m9e8bdb2967" y="221.993873"/>
     <use style="fill:#b2996e;stroke:#b2996e;" x="425.968528" xlink:href="#m9e8bdb2967" y="227.378868"/>
     <use style="fill:#b2996e;stroke:#b2996e;" x="435.254411" xlink:href="#m9e8bdb2967" y="238.779974"/>
     <use style="fill:#b2996e;stroke:#b2996e;" x="444.540293" xlink:href="#m9e8bdb2967" y="250.179502"/>
     <use style="fill:#b2996e;stroke:#b2996e;" x="453.826176" xlink:href="#m9e8bdb2967" y="217.427751"/>
     <use style="fill:#b2996e;stroke:#b2996e;" x="463.112059" xlink:href="#m9e8bdb2967" y="275.106995"/>
     <use style="fill:#b2996e;stroke:#b2996e;" x="472.397942" xlink:href="#m9e8bdb2967" y="282.792407"/>
     <use style="fill:#b2996e;stroke:#b2996e;" x="481.683825" xlink:href="#m9e8bdb2967" y="243.230918"/>
     <use style="fill:#b2996e;stroke:#b2996e;" x="490.969708" xlink:href="#m9e8bdb2967" y="270.444627"/>
     <use style="fill:#b2996e;stroke:#b2996e;" x="500.255591" xlink:href="#m9e8bdb2967" y="337.917209"/>
     <use style="fill:#b2996e;stroke:#b2996e;" x="509.541474" xlink:href="#m9e8bdb2967" y="329.517059"/>
     <use style="fill:#b2996e;stroke:#b2996e;" x="518.827357" xlink:href="#m9e8bdb2967" y="346.598206"/>
     <use style="fill:#b2996e;stroke:#b2996e;" x="528.11324" xlink:href="#m9e8bdb2967" y="321.932626"/>
     <use style="fill:#b2996e;stroke:#b2996e;" x="537.399123" xlink:href="#m9e8bdb2967" y="310.16074"/>
     <use style="fill:#b2996e;stroke:#b2996e;" x="546.685006" xlink:href="#m9e8bdb2967" y="311.342504"/>
     <use style="fill:#b2996e;stroke:#b2996e;" x="555.970889" xlink:href="#m9e8bdb2967" y="336.673911"/>
     <use style="fill:#b2996e;stroke:#b2996e;" x="565.256772" xlink:href="#m9e8bdb2967" y="363.857643"/>
     <use style="fill:#b2996e;stroke:#b2996e;" x="574.542655" xlink:href="#m9e8bdb2967" y="367.058978"/>
     <use style="fill:#b2996e;stroke:#b2996e;" x="583.828538" xlink:href="#m9e8bdb2967" y="338.145989"/>
     <use style="fill:#b2996e;stroke:#b2996e;" x="593.114421" xlink:href="#m9e8bdb2967" y="238.31137"/>
     <use style="fill:#b2996e;stroke:#b2996e;" x="602.400304" xlink:href="#m9e8bdb2967" y="350.137188"/>
     <use style="fill:#b2996e;stroke:#b2996e;" x="611.686187" xlink:href="#m9e8bdb2967" y="308.234259"/>
     <use style="fill:#b2996e;stroke:#b2996e;" x="620.972069" xlink:href="#m9e8bdb2967" y="259.158701"/>
     <use style="fill:#b2996e;stroke:#b2996e;" x="630.257952" xlink:href="#m9e8bdb2967" y="277.143921"/>
     <use style="fill:#b2996e;stroke:#b2996e;" x="639.543835" xlink:href="#m9e8bdb2967" y="333.003973"/>
     <use style="fill:#b2996e;stroke:#b2996e;" x="648.829718" xlink:href="#m9e8bdb2967" y="297.909206"/>
     <use style="fill:#b2996e;stroke:#b2996e;" x="658.115601" xlink:href="#m9e8bdb2967" y="314.933553"/>
     <use style="fill:#b2996e;stroke:#b2996e;" x="667.401484" xlink:href="#m9e8bdb2967" y="325.085049"/>
     <use style="fill:#b2996e;stroke:#b2996e;" x="676.687367" xlink:href="#m9e8bdb2967" y="243.967745"/>
     <use style="fill:#b2996e;stroke:#b2996e;" x="685.97325" xlink:href="#m9e8bdb2967" y="323.518304"/>
     <use style="fill:#b2996e;stroke:#b2996e;" x="695.259133" xlink:href="#m9e8bdb2967" y="323.518304"/>
     <use style="fill:#b2996e;stroke:#b2996e;" x="704.545016" xlink:href="#m9e8bdb2967" y="340.342272"/>
     <use style="fill:#b2996e;stroke:#b2996e;" x="713.830899" xlink:href="#m9e8bdb2967" y="314.657439"/>
     <use style="fill:#b2996e;stroke:#b2996e;" x="723.116782" xlink:href="#m9e8bdb2967" y="289.316565"/>
     <use style="fill:#b2996e;stroke:#b2996e;" x="732.402665" xlink:href="#m9e8bdb2967" y="290.037615"/>
     <use style="fill:#b2996e;stroke:#b2996e;" x="741.688548" xlink:href="#m9e8bdb2967" y="330.987559"/>
     <use style="fill:#b2996e;stroke:#b2996e;" x="750.974431" xlink:href="#m9e8bdb2967" y="294.72996"/>
     <use style="fill:#b2996e;stroke:#b2996e;" x="760.260314" xlink:href="#m9e8bdb2967" y="314.162014"/>
     <use style="fill:#b2996e;stroke:#b2996e;" x="769.546197" xlink:href="#m9e8bdb2967" y="300.162289"/>
     <use style="fill:#b2996e;stroke:#b2996e;" x="778.83208" xlink:href="#m9e8bdb2967" y="310.8313"/>
     <use style="fill:#b2996e;stroke:#b2996e;" x="788.117963" xlink:href="#m9e8bdb2967" y="223.158282"/>
     <use style="fill:#b2996e;stroke:#b2996e;" x="797.403846" xlink:href="#m9e8bdb2967" y="329.20939"/>
     <use style="fill:#b2996e;stroke:#b2996e;" x="806.689728" xlink:href="#m9e8bdb2967" y="292.75299"/>
     <use style="fill:#b2996e;stroke:#b2996e;" x="815.975611" xlink:href="#m9e8bdb2967" y="277.159699"/>
     <use style="fill:#b2996e;stroke:#b2996e;" x="825.261494" xlink:href="#m9e8bdb2967" y="384.86433"/>
     <use style="fill:#b2996e;stroke:#b2996e;" x="834.547377" xlink:href="#m9e8bdb2967" y="345.566332"/>
     <use style="fill:#b2996e;stroke:#b2996e;" x="843.83326" xlink:href="#m9e8bdb2967" y="255.783809"/>
     <use style="fill:#b2996e;stroke:#b2996e;" x="853.119143" xlink:href="#m9e8bdb2967" y="293.464573"/>
     <use style="fill:#b2996e;stroke:#b2996e;" x="862.405026" xlink:href="#m9e8bdb2967" y="288.111134"/>
     <use style="fill:#b2996e;stroke:#b2996e;" x="871.690909" xlink:href="#m9e8bdb2967" y="321.72278"/>
    </g>
   </g>
   <g id="line2d_14">
    <path clip-path="url(#pb4d6e32ff7)" d="M 167.192819 310.982768 
L 177.707716 233.31609 
L 188.222613 293.418818 
L 198.73751 289.794636 
L 209.252406 250.204746 
L 219.767303 319.521764 
L 230.2822 329.831039 
L 240.797097 273.114247 
L 251.311994 296.770042 
L 261.826891 241.774618 
L 272.341788 254.581534 
L 282.856684 246.66892 
L 293.371581 267.655096 
L 303.886478 240.346719 
L 314.401375 257.312687 
L 324.916272 280.045475 
L 335.431169 296.872598 
L 345.946066 258.753209 
L 356.460963 227.183222 
L 366.975859 225.594389 
L 377.490756 286.080519 
L 388.005653 290.125971 
L 398.52055 270.47145 
L 409.035447 314.25037 
L 419.550344 313.958479 
L 430.065241 257.186464 
L 440.580138 258.62383 
L 451.095034 303.73756 
L 461.609931 319.521764 
L 472.124828 341.124855 
L 482.639725 239.027687 
L 493.154622 276.751051 
L 503.669519 253.077901 
L 514.184416 287.33644 
L 524.699312 276.697406 
L 535.214209 307.25603 
L 545.729106 310.589899 
L 556.244003 296.400839 
L 566.7589 267.549384 
L 577.273797 289.728368 
L 587.788694 303.289467 
L 598.303591 295.444699 
L 608.818487 264.199737 
L 619.333384 307.37752 
L 629.848281 286.817347 
L 640.363178 296.62173 
L 650.878075 263.830535 
L 661.392972 329.169945 
L 671.907869 277.055565 
L 682.422765 273.331982 
L 692.937662 297.748271 
L 703.452559 295.990614 
L 713.967456 276.927764 
L 724.482353 299.901954 
L 734.99725 282.596761 
L 745.512147 281.76211 
L 756.027044 311.527105 
L 766.54194 286.471811 
L 777.056837 290.121238 
L 787.571734 293.387262 
L 798.086631 302.771953 
L 808.601528 255.905299 
L 819.116425 317.224503 
L 829.631322 321.639157 
L 840.146218 302.970754 
L 850.661115 300.048688 
L 861.176012 295.684523 
L 871.690909 267.817608 
" style="fill:none;stroke:#a8ff04;stroke-linecap:square;stroke-width:1.5;"/>
    <defs>
     <path d="M 0 3 
C 0.795609 3 1.55874 2.683901 2.12132 2.12132 
C 2.683901 1.55874 3 0.795609 3 0 
C 3 -0.795609 2.683901 -1.55874 2.12132 -2.12132 
C 1.55874 -2.683901 0.795609 -3 0 -3 
C -0.795609 -3 -1.55874 -2.683901 -2.12132 -2.12132 
C -2.683901 -1.55874 -3 -0.795609 -3 0 
C -3 0.795609 -2.683901 1.55874 -2.12132 2.12132 
C -1.55874 2.683901 -0.795609 3 0 3 
z
" id="me486fac3a4" style="stroke:#a8ff04;"/>
    </defs>
    <g clip-path="url(#pb4d6e32ff7)">
     <use style="fill:#a8ff04;stroke:#a8ff04;" x="167.192819" xlink:href="#me486fac3a4" y="310.982768"/>
     <use style="fill:#a8ff04;stroke:#a8ff04;" x="177.707716" xlink:href="#me486fac3a4" y="233.31609"/>
     <use style="fill:#a8ff04;stroke:#a8ff04;" x="188.222613" xlink:href="#me486fac3a4" y="293.418818"/>
     <use style="fill:#a8ff04;stroke:#a8ff04;" x="198.73751" xlink:href="#me486fac3a4" y="289.794636"/>
     <use style="fill:#a8ff04;stroke:#a8ff04;" x="209.252406" xlink:href="#me486fac3a4" y="250.204746"/>
     <use style="fill:#a8ff04;stroke:#a8ff04;" x="219.767303" xlink:href="#me486fac3a4" y="319.521764"/>
     <use style="fill:#a8ff04;stroke:#a8ff04;" x="230.2822" xlink:href="#me486fac3a4" y="329.831039"/>
     <use style="fill:#a8ff04;stroke:#a8ff04;" x="240.797097" xlink:href="#me486fac3a4" y="273.114247"/>
     <use style="fill:#a8ff04;stroke:#a8ff04;" x="251.311994" xlink:href="#me486fac3a4" y="296.770042"/>
     <use style="fill:#a8ff04;stroke:#a8ff04;" x="261.826891" xlink:href="#me486fac3a4" y="241.774618"/>
     <use style="fill:#a8ff04;stroke:#a8ff04;" x="272.341788" xlink:href="#me486fac3a4" y="254.581534"/>
     <use style="fill:#a8ff04;stroke:#a8ff04;" x="282.856684" xlink:href="#me486fac3a4" y="246.66892"/>
     <use style="fill:#a8ff04;stroke:#a8ff04;" x="293.371581" xlink:href="#me486fac3a4" y="267.655096"/>
     <use style="fill:#a8ff04;stroke:#a8ff04;" x="303.886478" xlink:href="#me486fac3a4" y="240.346719"/>
     <use style="fill:#a8ff04;stroke:#a8ff04;" x="314.401375" xlink:href="#me486fac3a4" y="257.312687"/>
     <use style="fill:#a8ff04;stroke:#a8ff04;" x="324.916272" xlink:href="#me486fac3a4" y="280.045475"/>
     <use style="fill:#a8ff04;stroke:#a8ff04;" x="335.431169" xlink:href="#me486fac3a4" y="296.872598"/>
     <use style="fill:#a8ff04;stroke:#a8ff04;" x="345.946066" xlink:href="#me486fac3a4" y="258.753209"/>
     <use style="fill:#a8ff04;stroke:#a8ff04;" x="356.460963" xlink:href="#me486fac3a4" y="227.183222"/>
     <use style="fill:#a8ff04;stroke:#a8ff04;" x="366.975859" xlink:href="#me486fac3a4" y="225.594389"/>
     <use style="fill:#a8ff04;stroke:#a8ff04;" x="377.490756" xlink:href="#me486fac3a4" y="286.080519"/>
     <use style="fill:#a8ff04;stroke:#a8ff04;" x="388.005653" xlink:href="#me486fac3a4" y="290.125971"/>
     <use style="fill:#a8ff04;stroke:#a8ff04;" x="398.52055" xlink:href="#me486fac3a4" y="270.47145"/>
     <use style="fill:#a8ff04;stroke:#a8ff04;" x="409.035447" xlink:href="#me486fac3a4" y="314.25037"/>
     <use style="fill:#a8ff04;stroke:#a8ff04;" x="419.550344" xlink:href="#me486fac3a4" y="313.958479"/>
     <use style="fill:#a8ff04;stroke:#a8ff04;" x="430.065241" xlink:href="#me486fac3a4" y="257.186464"/>
     <use style="fill:#a8ff04;stroke:#a8ff04;" x="440.580138" xlink:href="#me486fac3a4" y="258.62383"/>
     <use style="fill:#a8ff04;stroke:#a8ff04;" x="451.095034" xlink:href="#me486fac3a4" y="303.73756"/>
     <use style="fill:#a8ff04;stroke:#a8ff04;" x="461.609931" xlink:href="#me486fac3a4" y="319.521764"/>
     <use style="fill:#a8ff04;stroke:#a8ff04;" x="472.124828" xlink:href="#me486fac3a4" y="341.124855"/>
     <use style="fill:#a8ff04;stroke:#a8ff04;" x="482.639725" xlink:href="#me486fac3a4" y="239.027687"/>
     <use style="fill:#a8ff04;stroke:#a8ff04;" x="493.154622" xlink:href="#me486fac3a4" y="276.751051"/>
     <use style="fill:#a8ff04;stroke:#a8ff04;" x="503.669519" xlink:href="#me486fac3a4" y="253.077901"/>
     <use style="fill:#a8ff04;stroke:#a8ff04;" x="514.184416" xlink:href="#me486fac3a4" y="287.33644"/>
     <use style="fill:#a8ff04;stroke:#a8ff04;" x="524.699312" xlink:href="#me486fac3a4" y="276.697406"/>
     <use style="fill:#a8ff04;stroke:#a8ff04;" x="535.214209" xlink:href="#me486fac3a4" y="307.25603"/>
     <use style="fill:#a8ff04;stroke:#a8ff04;" x="545.729106" xlink:href="#me486fac3a4" y="310.589899"/>
     <use style="fill:#a8ff04;stroke:#a8ff04;" x="556.244003" xlink:href="#me486fac3a4" y="296.400839"/>
     <use style="fill:#a8ff04;stroke:#a8ff04;" x="566.7589" xlink:href="#me486fac3a4" y="267.549384"/>
     <use style="fill:#a8ff04;stroke:#a8ff04;" x="577.273797" xlink:href="#me486fac3a4" y="289.728368"/>
     <use style="fill:#a8ff04;stroke:#a8ff04;" x="587.788694" xlink:href="#me486fac3a4" y="303.289467"/>
     <use style="fill:#a8ff04;stroke:#a8ff04;" x="598.303591" xlink:href="#me486fac3a4" y="295.444699"/>
     <use style="fill:#a8ff04;stroke:#a8ff04;" x="608.818487" xlink:href="#me486fac3a4" y="264.199737"/>
     <use style="fill:#a8ff04;stroke:#a8ff04;" x="619.333384" xlink:href="#me486fac3a4" y="307.37752"/>
     <use style="fill:#a8ff04;stroke:#a8ff04;" x="629.848281" xlink:href="#me486fac3a4" y="286.817347"/>
     <use style="fill:#a8ff04;stroke:#a8ff04;" x="640.363178" xlink:href="#me486fac3a4" y="296.62173"/>
     <use style="fill:#a8ff04;stroke:#a8ff04;" x="650.878075" xlink:href="#me486fac3a4" y="263.830535"/>
     <use style="fill:#a8ff04;stroke:#a8ff04;" x="661.392972" xlink:href="#me486fac3a4" y="329.169945"/>
     <use style="fill:#a8ff04;stroke:#a8ff04;" x="671.907869" xlink:href="#me486fac3a4" y="277.055565"/>
     <use style="fill:#a8ff04;stroke:#a8ff04;" x="682.422765" xlink:href="#me486fac3a4" y="273.331982"/>
     <use style="fill:#a8ff04;stroke:#a8ff04;" x="692.937662" xlink:href="#me486fac3a4" y="297.748271"/>
     <use style="fill:#a8ff04;stroke:#a8ff04;" x="703.452559" xlink:href="#me486fac3a4" y="295.990614"/>
     <use style="fill:#a8ff04;stroke:#a8ff04;" x="713.967456" xlink:href="#me486fac3a4" y="276.927764"/>
     <use style="fill:#a8ff04;stroke:#a8ff04;" x="724.482353" xlink:href="#me486fac3a4" y="299.901954"/>
     <use style="fill:#a8ff04;stroke:#a8ff04;" x="734.99725" xlink:href="#me486fac3a4" y="282.596761"/>
     <use style="fill:#a8ff04;stroke:#a8ff04;" x="745.512147" xlink:href="#me486fac3a4" y="281.76211"/>
     <use style="fill:#a8ff04;stroke:#a8ff04;" x="756.027044" xlink:href="#me486fac3a4" y="311.527105"/>
     <use style="fill:#a8ff04;stroke:#a8ff04;" x="766.54194" xlink:href="#me486fac3a4" y="286.471811"/>
     <use style="fill:#a8ff04;stroke:#a8ff04;" x="777.056837" xlink:href="#me486fac3a4" y="290.121238"/>
     <use style="fill:#a8ff04;stroke:#a8ff04;" x="787.571734" xlink:href="#me486fac3a4" y="293.387262"/>
     <use style="fill:#a8ff04;stroke:#a8ff04;" x="798.086631" xlink:href="#me486fac3a4" y="302.771953"/>
     <use style="fill:#a8ff04;stroke:#a8ff04;" x="808.601528" xlink:href="#me486fac3a4" y="255.905299"/>
     <use style="fill:#a8ff04;stroke:#a8ff04;" x="819.116425" xlink:href="#me486fac3a4" y="317.224503"/>
     <use style="fill:#a8ff04;stroke:#a8ff04;" x="829.631322" xlink:href="#me486fac3a4" y="321.639157"/>
     <use style="fill:#a8ff04;stroke:#a8ff04;" x="840.146218" xlink:href="#me486fac3a4" y="302.970754"/>
     <use style="fill:#a8ff04;stroke:#a8ff04;" x="850.661115" xlink:href="#me486fac3a4" y="300.048688"/>
     <use style="fill:#a8ff04;stroke:#a8ff04;" x="861.176012" xlink:href="#me486fac3a4" y="295.684523"/>
     <use style="fill:#a8ff04;stroke:#a8ff04;" x="871.690909" xlink:href="#me486fac3a4" y="267.817608"/>
    </g>
   </g>
   <g id="patch_3">
    <path d="M 126 448.56 
L 126 60.48 
" style="fill:none;stroke:#000000;stroke-linecap:square;stroke-linejoin:miter;stroke-width:0.8;"/>
   </g>
   <g id="patch_4">
    <path d="M 907.2 448.56 
L 907.2 60.48 
" style="fill:none;stroke:#000000;stroke-linecap:square;stroke-linejoin:miter;stroke-width:0.8;"/>
   </g>
   <g id="patch_5">
    <path d="M 126 448.56 
L 907.2 448.56 
" style="fill:none;stroke:#000000;stroke-linecap:square;stroke-linejoin:miter;stroke-width:0.8;"/>
   </g>
   <g id="patch_6">
    <path d="M 126 60.48 
L 907.2 60.48 
" style="fill:none;stroke:#000000;stroke-linecap:square;stroke-linejoin:miter;stroke-width:0.8;"/>
   </g>
  </g>
  <g id="text_13">
   <!-- GFI for the chunks of size 10 of document -->
   <defs>
    <path d="M 9.421875 54.6875 
L 18.40625 54.6875 
L 18.40625 0 
L 9.421875 0 
z
M 9.421875 75.984375 
L 18.40625 75.984375 
L 18.40625 64.59375 
L 9.421875 64.59375 
z
" id="DejaVuSans-105"/>
    <path d="M 5.515625 54.6875 
L 48.1875 54.6875 
L 48.1875 46.484375 
L 14.40625 7.171875 
L 48.1875 7.171875 
L 48.1875 0 
L 4.296875 0 
L 4.296875 8.203125 
L 38.09375 47.515625 
L 5.515625 47.515625 
z
" id="DejaVuSans-122"/>
   </defs>
   <g transform="translate(357.424375 20.717812)scale(0.14 -0.14)">
    <use xlink:href="#DejaVuSans-71"/>
    <use x="77.490234" xlink:href="#DejaVuSans-70"/>
    <use x="135.009766" xlink:href="#DejaVuSans-73"/>
    <use x="164.501953" xlink:href="#DejaVuSans-32"/>
    <use x="196.289062" xlink:href="#DejaVuSans-102"/>
    <use x="231.494141" xlink:href="#DejaVuSans-111"/>
    <use x="292.675781" xlink:href="#DejaVuSans-114"/>
    <use x="333.789062" xlink:href="#DejaVuSans-32"/>
    <use x="365.576172" xlink:href="#DejaVuSans-116"/>
    <use x="404.785156" xlink:href="#DejaVuSans-104"/>
    <use x="468.164062" xlink:href="#DejaVuSans-101"/>
    <use x="529.6875" xlink:href="#DejaVuSans-32"/>
    <use x="561.474609" xlink:href="#DejaVuSans-99"/>
    <use x="616.455078" xlink:href="#DejaVuSans-104"/>
    <use x="679.833984" xlink:href="#DejaVuSans-117"/>
    <use x="743.212891" xlink:href="#DejaVuSans-110"/>
    <use x="806.591797" xlink:href="#DejaVuSans-107"/>
    <use x="864.501953" xlink:href="#DejaVuSans-115"/>
    <use x="916.601562" xlink:href="#DejaVuSans-32"/>
    <use x="948.388672" xlink:href="#DejaVuSans-111"/>
    <use x="1009.570312" xlink:href="#DejaVuSans-102"/>
    <use x="1044.775391" xlink:href="#DejaVuSans-32"/>
    <use x="1076.5625" xlink:href="#DejaVuSans-115"/>
    <use x="1128.662109" xlink:href="#DejaVuSans-105"/>
    <use x="1156.445312" xlink:href="#DejaVuSans-122"/>
    <use x="1208.935547" xlink:href="#DejaVuSans-101"/>
    <use x="1270.458984" xlink:href="#DejaVuSans-32"/>
    <use x="1302.246094" xlink:href="#DejaVuSans-49"/>
    <use x="1365.869141" xlink:href="#DejaVuSans-48"/>
    <use x="1429.492188" xlink:href="#DejaVuSans-32"/>
    <use x="1461.279297" xlink:href="#DejaVuSans-111"/>
    <use x="1522.460938" xlink:href="#DejaVuSans-102"/>
    <use x="1557.666016" xlink:href="#DejaVuSans-32"/>
    <use x="1589.453125" xlink:href="#DejaVuSans-100"/>
    <use x="1652.929688" xlink:href="#DejaVuSans-111"/>
    <use x="1714.111328" xlink:href="#DejaVuSans-99"/>
    <use x="1769.091797" xlink:href="#DejaVuSans-117"/>
    <use x="1832.470703" xlink:href="#DejaVuSans-109"/>
    <use x="1929.882812" xlink:href="#DejaVuSans-101"/>
    <use x="1991.40625" xlink:href="#DejaVuSans-110"/>
    <use x="2054.785156" xlink:href="#DejaVuSans-116"/>
   </g>
  </g>
 </g>
 <defs>
  <clipPath id="pb4d6e32ff7">
   <rect height="388.08" width="781.2" x="126" y="60.48"/>
  </clipPath>
 </defs>
</svg>
