<?xml version="1.0" encoding="utf-8" standalone="no"?>
<!DOCTYPE svg PUBLIC "-//W3C//DTD SVG 1.1//EN"
  "http://www.w3.org/Graphics/SVG/1.1/DTD/svg11.dtd">
<!-- Created with matplotlib (https://matplotlib.org/) -->
<svg height="504pt" version="1.1" viewBox="0 0 1008 504" width="1008pt" xmlns="http://www.w3.org/2000/svg" xmlns:xlink="http://www.w3.org/1999/xlink">
 <defs>
  <style type="text/css">
*{stroke-linecap:butt;stroke-linejoin:round;}
  </style>
 </defs>
 <g id="figure_1">
  <g id="patch_1">
   <path d="M 0 504 
L 1008 504 
L 1008 0 
L 0 0 
z
" style="fill:#ffffff;"/>
  </g>
  <g id="axes_1">
   <g id="patch_2">
    <path d="M 126 448.56 
L 907.2 448.56 
L 907.2 60.48 
L 126 60.48 
z
" style="fill:#ffffff;"/>
   </g>
   <g id="matplotlib.axis_1">
    <g id="xtick_1">
     <g id="line2d_1">
      <defs>
       <path d="M 0 0 
L 0 3.5 
" id="m616f02718f" style="stroke:#000000;stroke-width:0.8;"/>
      </defs>
      <g>
       <use style="stroke:#000000;stroke-width:0.8;" x="151.780573" xlink:href="#m616f02718f" y="448.56"/>
      </g>
     </g>
     <g id="text_1">
      <!-- 0 -->
      <defs>
       <path d="M 31.78125 66.40625 
Q 24.171875 66.40625 20.328125 58.90625 
Q 16.5 51.421875 16.5 36.375 
Q 16.5 21.390625 20.328125 13.890625 
Q 24.171875 6.390625 31.78125 6.390625 
Q 39.453125 6.390625 43.28125 13.890625 
Q 47.125 21.390625 47.125 36.375 
Q 47.125 51.421875 43.28125 58.90625 
Q 39.453125 66.40625 31.78125 66.40625 
z
M 31.78125 74.21875 
Q 44.046875 74.21875 50.515625 64.515625 
Q 56.984375 54.828125 56.984375 36.375 
Q 56.984375 17.96875 50.515625 8.265625 
Q 44.046875 -1.421875 31.78125 -1.421875 
Q 19.53125 -1.421875 13.0625 8.265625 
Q 6.59375 17.96875 6.59375 36.375 
Q 6.59375 54.828125 13.0625 64.515625 
Q 19.53125 74.21875 31.78125 74.21875 
z
" id="DejaVuSans-48"/>
      </defs>
      <g transform="translate(148.599323 463.158437)scale(0.1 -0.1)">
       <use xlink:href="#DejaVuSans-48"/>
      </g>
     </g>
    </g>
    <g id="xtick_2">
     <g id="line2d_2">
      <g>
       <use style="stroke:#000000;stroke-width:0.8;" x="295.76264" xlink:href="#m616f02718f" y="448.56"/>
      </g>
     </g>
     <g id="text_2">
      <!-- 20 -->
      <defs>
       <path d="M 19.1875 8.296875 
L 53.609375 8.296875 
L 53.609375 0 
L 7.328125 0 
L 7.328125 8.296875 
Q 12.9375 14.109375 22.625 23.890625 
Q 32.328125 33.6875 34.8125 36.53125 
Q 39.546875 41.84375 41.421875 45.53125 
Q 43.3125 49.21875 43.3125 52.78125 
Q 43.3125 58.59375 39.234375 62.25 
Q 35.15625 65.921875 28.609375 65.921875 
Q 23.96875 65.921875 18.8125 64.3125 
Q 13.671875 62.703125 7.8125 59.421875 
L 7.8125 69.390625 
Q 13.765625 71.78125 18.9375 73 
Q 24.125 74.21875 28.421875 74.21875 
Q 39.75 74.21875 46.484375 68.546875 
Q 53.21875 62.890625 53.21875 53.421875 
Q 53.21875 48.921875 51.53125 44.890625 
Q 49.859375 40.875 45.40625 35.40625 
Q 44.1875 33.984375 37.640625 27.21875 
Q 31.109375 20.453125 19.1875 8.296875 
z
" id="DejaVuSans-50"/>
      </defs>
      <g transform="translate(289.40014 463.158437)scale(0.1 -0.1)">
       <use xlink:href="#DejaVuSans-50"/>
       <use x="63.623047" xlink:href="#DejaVuSans-48"/>
      </g>
     </g>
    </g>
    <g id="xtick_3">
     <g id="line2d_3">
      <g>
       <use style="stroke:#000000;stroke-width:0.8;" x="439.744707" xlink:href="#m616f02718f" y="448.56"/>
      </g>
     </g>
     <g id="text_3">
      <!-- 40 -->
      <defs>
       <path d="M 37.796875 64.3125 
L 12.890625 25.390625 
L 37.796875 25.390625 
z
M 35.203125 72.90625 
L 47.609375 72.90625 
L 47.609375 25.390625 
L 58.015625 25.390625 
L 58.015625 17.1875 
L 47.609375 17.1875 
L 47.609375 0 
L 37.796875 0 
L 37.796875 17.1875 
L 4.890625 17.1875 
L 4.890625 26.703125 
z
" id="DejaVuSans-52"/>
      </defs>
      <g transform="translate(433.382207 463.158437)scale(0.1 -0.1)">
       <use xlink:href="#DejaVuSans-52"/>
       <use x="63.623047" xlink:href="#DejaVuSans-48"/>
      </g>
     </g>
    </g>
    <g id="xtick_4">
     <g id="line2d_4">
      <g>
       <use style="stroke:#000000;stroke-width:0.8;" x="583.726775" xlink:href="#m616f02718f" y="448.56"/>
      </g>
     </g>
     <g id="text_4">
      <!-- 60 -->
      <defs>
       <path d="M 33.015625 40.375 
Q 26.375 40.375 22.484375 35.828125 
Q 18.609375 31.296875 18.609375 23.390625 
Q 18.609375 15.53125 22.484375 10.953125 
Q 26.375 6.390625 33.015625 6.390625 
Q 39.65625 6.390625 43.53125 10.953125 
Q 47.40625 15.53125 47.40625 23.390625 
Q 47.40625 31.296875 43.53125 35.828125 
Q 39.65625 40.375 33.015625 40.375 
z
M 52.59375 71.296875 
L 52.59375 62.3125 
Q 48.875 64.0625 45.09375 64.984375 
Q 41.3125 65.921875 37.59375 65.921875 
Q 27.828125 65.921875 22.671875 59.328125 
Q 17.53125 52.734375 16.796875 39.40625 
Q 19.671875 43.65625 24.015625 45.921875 
Q 28.375 48.1875 33.59375 48.1875 
Q 44.578125 48.1875 50.953125 41.515625 
Q 57.328125 34.859375 57.328125 23.390625 
Q 57.328125 12.15625 50.6875 5.359375 
Q 44.046875 -1.421875 33.015625 -1.421875 
Q 20.359375 -1.421875 13.671875 8.265625 
Q 6.984375 17.96875 6.984375 36.375 
Q 6.984375 53.65625 15.1875 63.9375 
Q 23.390625 74.21875 37.203125 74.21875 
Q 40.921875 74.21875 44.703125 73.484375 
Q 48.484375 72.75 52.59375 71.296875 
z
" id="DejaVuSans-54"/>
      </defs>
      <g transform="translate(577.364275 463.158437)scale(0.1 -0.1)">
       <use xlink:href="#DejaVuSans-54"/>
       <use x="63.623047" xlink:href="#DejaVuSans-48"/>
      </g>
     </g>
    </g>
    <g id="xtick_5">
     <g id="line2d_5">
      <g>
       <use style="stroke:#000000;stroke-width:0.8;" x="727.708842" xlink:href="#m616f02718f" y="448.56"/>
      </g>
     </g>
     <g id="text_5">
      <!-- 80 -->
      <defs>
       <path d="M 31.78125 34.625 
Q 24.75 34.625 20.71875 30.859375 
Q 16.703125 27.09375 16.703125 20.515625 
Q 16.703125 13.921875 20.71875 10.15625 
Q 24.75 6.390625 31.78125 6.390625 
Q 38.8125 6.390625 42.859375 10.171875 
Q 46.921875 13.96875 46.921875 20.515625 
Q 46.921875 27.09375 42.890625 30.859375 
Q 38.875 34.625 31.78125 34.625 
z
M 21.921875 38.8125 
Q 15.578125 40.375 12.03125 44.71875 
Q 8.5 49.078125 8.5 55.328125 
Q 8.5 64.0625 14.71875 69.140625 
Q 20.953125 74.21875 31.78125 74.21875 
Q 42.671875 74.21875 48.875 69.140625 
Q 55.078125 64.0625 55.078125 55.328125 
Q 55.078125 49.078125 51.53125 44.71875 
Q 48 40.375 41.703125 38.8125 
Q 48.828125 37.15625 52.796875 32.3125 
Q 56.78125 27.484375 56.78125 20.515625 
Q 56.78125 9.90625 50.3125 4.234375 
Q 43.84375 -1.421875 31.78125 -1.421875 
Q 19.734375 -1.421875 13.25 4.234375 
Q 6.78125 9.90625 6.78125 20.515625 
Q 6.78125 27.484375 10.78125 32.3125 
Q 14.796875 37.15625 21.921875 38.8125 
z
M 18.3125 54.390625 
Q 18.3125 48.734375 21.84375 45.5625 
Q 25.390625 42.390625 31.78125 42.390625 
Q 38.140625 42.390625 41.71875 45.5625 
Q 45.3125 48.734375 45.3125 54.390625 
Q 45.3125 60.0625 41.71875 63.234375 
Q 38.140625 66.40625 31.78125 66.40625 
Q 25.390625 66.40625 21.84375 63.234375 
Q 18.3125 60.0625 18.3125 54.390625 
z
" id="DejaVuSans-56"/>
      </defs>
      <g transform="translate(721.346342 463.158437)scale(0.1 -0.1)">
       <use xlink:href="#DejaVuSans-56"/>
       <use x="63.623047" xlink:href="#DejaVuSans-48"/>
      </g>
     </g>
    </g>
    <g id="xtick_6">
     <g id="line2d_6">
      <g>
       <use style="stroke:#000000;stroke-width:0.8;" x="871.690909" xlink:href="#m616f02718f" y="448.56"/>
      </g>
     </g>
     <g id="text_6">
      <!-- 100 -->
      <defs>
       <path d="M 12.40625 8.296875 
L 28.515625 8.296875 
L 28.515625 63.921875 
L 10.984375 60.40625 
L 10.984375 69.390625 
L 28.421875 72.90625 
L 38.28125 72.90625 
L 38.28125 8.296875 
L 54.390625 8.296875 
L 54.390625 0 
L 12.40625 0 
z
" id="DejaVuSans-49"/>
      </defs>
      <g transform="translate(862.147159 463.158437)scale(0.1 -0.1)">
       <use xlink:href="#DejaVuSans-49"/>
       <use x="63.623047" xlink:href="#DejaVuSans-48"/>
       <use x="127.246094" xlink:href="#DejaVuSans-48"/>
      </g>
     </g>
    </g>
    <g id="text_7">
     <!-- document's percentage of the chunk's end -->
     <defs>
      <path d="M 45.40625 46.390625 
L 45.40625 75.984375 
L 54.390625 75.984375 
L 54.390625 0 
L 45.40625 0 
L 45.40625 8.203125 
Q 42.578125 3.328125 38.25 0.953125 
Q 33.9375 -1.421875 27.875 -1.421875 
Q 17.96875 -1.421875 11.734375 6.484375 
Q 5.515625 14.40625 5.515625 27.296875 
Q 5.515625 40.1875 11.734375 48.09375 
Q 17.96875 56 27.875 56 
Q 33.9375 56 38.25 53.625 
Q 42.578125 51.265625 45.40625 46.390625 
z
M 14.796875 27.296875 
Q 14.796875 17.390625 18.875 11.75 
Q 22.953125 6.109375 30.078125 6.109375 
Q 37.203125 6.109375 41.296875 11.75 
Q 45.40625 17.390625 45.40625 27.296875 
Q 45.40625 37.203125 41.296875 42.84375 
Q 37.203125 48.484375 30.078125 48.484375 
Q 22.953125 48.484375 18.875 42.84375 
Q 14.796875 37.203125 14.796875 27.296875 
z
" id="DejaVuSans-100"/>
      <path d="M 30.609375 48.390625 
Q 23.390625 48.390625 19.1875 42.75 
Q 14.984375 37.109375 14.984375 27.296875 
Q 14.984375 17.484375 19.15625 11.84375 
Q 23.34375 6.203125 30.609375 6.203125 
Q 37.796875 6.203125 41.984375 11.859375 
Q 46.1875 17.53125 46.1875 27.296875 
Q 46.1875 37.015625 41.984375 42.703125 
Q 37.796875 48.390625 30.609375 48.390625 
z
M 30.609375 56 
Q 42.328125 56 49.015625 48.375 
Q 55.71875 40.765625 55.71875 27.296875 
Q 55.71875 13.875 49.015625 6.21875 
Q 42.328125 -1.421875 30.609375 -1.421875 
Q 18.84375 -1.421875 12.171875 6.21875 
Q 5.515625 13.875 5.515625 27.296875 
Q 5.515625 40.765625 12.171875 48.375 
Q 18.84375 56 30.609375 56 
z
" id="DejaVuSans-111"/>
      <path d="M 48.78125 52.59375 
L 48.78125 44.1875 
Q 44.96875 46.296875 41.140625 47.34375 
Q 37.3125 48.390625 33.40625 48.390625 
Q 24.65625 48.390625 19.8125 42.84375 
Q 14.984375 37.3125 14.984375 27.296875 
Q 14.984375 17.28125 19.8125 11.734375 
Q 24.65625 6.203125 33.40625 6.203125 
Q 37.3125 6.203125 41.140625 7.25 
Q 44.96875 8.296875 48.78125 10.40625 
L 48.78125 2.09375 
Q 45.015625 0.34375 40.984375 -0.53125 
Q 36.96875 -1.421875 32.421875 -1.421875 
Q 20.0625 -1.421875 12.78125 6.34375 
Q 5.515625 14.109375 5.515625 27.296875 
Q 5.515625 40.671875 12.859375 48.328125 
Q 20.21875 56 33.015625 56 
Q 37.15625 56 41.109375 55.140625 
Q 45.0625 54.296875 48.78125 52.59375 
z
" id="DejaVuSans-99"/>
      <path d="M 8.5 21.578125 
L 8.5 54.6875 
L 17.484375 54.6875 
L 17.484375 21.921875 
Q 17.484375 14.15625 20.5 10.265625 
Q 23.53125 6.390625 29.59375 6.390625 
Q 36.859375 6.390625 41.078125 11.03125 
Q 45.3125 15.671875 45.3125 23.6875 
L 45.3125 54.6875 
L 54.296875 54.6875 
L 54.296875 0 
L 45.3125 0 
L 45.3125 8.40625 
Q 42.046875 3.421875 37.71875 1 
Q 33.40625 -1.421875 27.6875 -1.421875 
Q 18.265625 -1.421875 13.375 4.4375 
Q 8.5 10.296875 8.5 21.578125 
z
M 31.109375 56 
z
" id="DejaVuSans-117"/>
      <path d="M 52 44.1875 
Q 55.375 50.25 60.0625 53.125 
Q 64.75 56 71.09375 56 
Q 79.640625 56 84.28125 50.015625 
Q 88.921875 44.046875 88.921875 33.015625 
L 88.921875 0 
L 79.890625 0 
L 79.890625 32.71875 
Q 79.890625 40.578125 77.09375 44.375 
Q 74.3125 48.1875 68.609375 48.1875 
Q 61.625 48.1875 57.5625 43.546875 
Q 53.515625 38.921875 53.515625 30.90625 
L 53.515625 0 
L 44.484375 0 
L 44.484375 32.71875 
Q 44.484375 40.625 41.703125 44.40625 
Q 38.921875 48.1875 33.109375 48.1875 
Q 26.21875 48.1875 22.15625 43.53125 
Q 18.109375 38.875 18.109375 30.90625 
L 18.109375 0 
L 9.078125 0 
L 9.078125 54.6875 
L 18.109375 54.6875 
L 18.109375 46.1875 
Q 21.1875 51.21875 25.484375 53.609375 
Q 29.78125 56 35.6875 56 
Q 41.65625 56 45.828125 52.96875 
Q 50 49.953125 52 44.1875 
z
" id="DejaVuSans-109"/>
      <path d="M 56.203125 29.59375 
L 56.203125 25.203125 
L 14.890625 25.203125 
Q 15.484375 15.921875 20.484375 11.0625 
Q 25.484375 6.203125 34.421875 6.203125 
Q 39.59375 6.203125 44.453125 7.46875 
Q 49.3125 8.734375 54.109375 11.28125 
L 54.109375 2.78125 
Q 49.265625 0.734375 44.1875 -0.34375 
Q 39.109375 -1.421875 33.890625 -1.421875 
Q 20.796875 -1.421875 13.15625 6.1875 
Q 5.515625 13.8125 5.515625 26.8125 
Q 5.515625 40.234375 12.765625 48.109375 
Q 20.015625 56 32.328125 56 
Q 43.359375 56 49.78125 48.890625 
Q 56.203125 41.796875 56.203125 29.59375 
z
M 47.21875 32.234375 
Q 47.125 39.59375 43.09375 43.984375 
Q 39.0625 48.390625 32.421875 48.390625 
Q 24.90625 48.390625 20.390625 44.140625 
Q 15.875 39.890625 15.1875 32.171875 
z
" id="DejaVuSans-101"/>
      <path d="M 54.890625 33.015625 
L 54.890625 0 
L 45.90625 0 
L 45.90625 32.71875 
Q 45.90625 40.484375 42.875 44.328125 
Q 39.84375 48.1875 33.796875 48.1875 
Q 26.515625 48.1875 22.3125 43.546875 
Q 18.109375 38.921875 18.109375 30.90625 
L 18.109375 0 
L 9.078125 0 
L 9.078125 54.6875 
L 18.109375 54.6875 
L 18.109375 46.1875 
Q 21.34375 51.125 25.703125 53.5625 
Q 30.078125 56 35.796875 56 
Q 45.21875 56 50.046875 50.171875 
Q 54.890625 44.34375 54.890625 33.015625 
z
" id="DejaVuSans-110"/>
      <path d="M 18.3125 70.21875 
L 18.3125 54.6875 
L 36.8125 54.6875 
L 36.8125 47.703125 
L 18.3125 47.703125 
L 18.3125 18.015625 
Q 18.3125 11.328125 20.140625 9.421875 
Q 21.96875 7.515625 27.59375 7.515625 
L 36.8125 7.515625 
L 36.8125 0 
L 27.59375 0 
Q 17.1875 0 13.234375 3.875 
Q 9.28125 7.765625 9.28125 18.015625 
L 9.28125 47.703125 
L 2.6875 47.703125 
L 2.6875 54.6875 
L 9.28125 54.6875 
L 9.28125 70.21875 
z
" id="DejaVuSans-116"/>
      <path d="M 17.921875 72.90625 
L 17.921875 45.796875 
L 9.625 45.796875 
L 9.625 72.90625 
z
" id="DejaVuSans-39"/>
      <path d="M 44.28125 53.078125 
L 44.28125 44.578125 
Q 40.484375 46.53125 36.375 47.5 
Q 32.28125 48.484375 27.875 48.484375 
Q 21.1875 48.484375 17.84375 46.4375 
Q 14.5 44.390625 14.5 40.28125 
Q 14.5 37.15625 16.890625 35.375 
Q 19.28125 33.59375 26.515625 31.984375 
L 29.59375 31.296875 
Q 39.15625 29.25 43.1875 25.515625 
Q 47.21875 21.78125 47.21875 15.09375 
Q 47.21875 7.46875 41.1875 3.015625 
Q 35.15625 -1.421875 24.609375 -1.421875 
Q 20.21875 -1.421875 15.453125 -0.5625 
Q 10.6875 0.296875 5.421875 2 
L 5.421875 11.28125 
Q 10.40625 8.6875 15.234375 7.390625 
Q 20.0625 6.109375 24.8125 6.109375 
Q 31.15625 6.109375 34.5625 8.28125 
Q 37.984375 10.453125 37.984375 14.40625 
Q 37.984375 18.0625 35.515625 20.015625 
Q 33.0625 21.96875 24.703125 23.78125 
L 21.578125 24.515625 
Q 13.234375 26.265625 9.515625 29.90625 
Q 5.8125 33.546875 5.8125 39.890625 
Q 5.8125 47.609375 11.28125 51.796875 
Q 16.75 56 26.8125 56 
Q 31.78125 56 36.171875 55.265625 
Q 40.578125 54.546875 44.28125 53.078125 
z
" id="DejaVuSans-115"/>
      <path id="DejaVuSans-32"/>
      <path d="M 18.109375 8.203125 
L 18.109375 -20.796875 
L 9.078125 -20.796875 
L 9.078125 54.6875 
L 18.109375 54.6875 
L 18.109375 46.390625 
Q 20.953125 51.265625 25.265625 53.625 
Q 29.59375 56 35.59375 56 
Q 45.5625 56 51.78125 48.09375 
Q 58.015625 40.1875 58.015625 27.296875 
Q 58.015625 14.40625 51.78125 6.484375 
Q 45.5625 -1.421875 35.59375 -1.421875 
Q 29.59375 -1.421875 25.265625 0.953125 
Q 20.953125 3.328125 18.109375 8.203125 
z
M 48.6875 27.296875 
Q 48.6875 37.203125 44.609375 42.84375 
Q 40.53125 48.484375 33.40625 48.484375 
Q 26.265625 48.484375 22.1875 42.84375 
Q 18.109375 37.203125 18.109375 27.296875 
Q 18.109375 17.390625 22.1875 11.75 
Q 26.265625 6.109375 33.40625 6.109375 
Q 40.53125 6.109375 44.609375 11.75 
Q 48.6875 17.390625 48.6875 27.296875 
z
" id="DejaVuSans-112"/>
      <path d="M 41.109375 46.296875 
Q 39.59375 47.171875 37.8125 47.578125 
Q 36.03125 48 33.890625 48 
Q 26.265625 48 22.1875 43.046875 
Q 18.109375 38.09375 18.109375 28.8125 
L 18.109375 0 
L 9.078125 0 
L 9.078125 54.6875 
L 18.109375 54.6875 
L 18.109375 46.1875 
Q 20.953125 51.171875 25.484375 53.578125 
Q 30.03125 56 36.53125 56 
Q 37.453125 56 38.578125 55.875 
Q 39.703125 55.765625 41.0625 55.515625 
z
" id="DejaVuSans-114"/>
      <path d="M 34.28125 27.484375 
Q 23.390625 27.484375 19.1875 25 
Q 14.984375 22.515625 14.984375 16.5 
Q 14.984375 11.71875 18.140625 8.90625 
Q 21.296875 6.109375 26.703125 6.109375 
Q 34.1875 6.109375 38.703125 11.40625 
Q 43.21875 16.703125 43.21875 25.484375 
L 43.21875 27.484375 
z
M 52.203125 31.203125 
L 52.203125 0 
L 43.21875 0 
L 43.21875 8.296875 
Q 40.140625 3.328125 35.546875 0.953125 
Q 30.953125 -1.421875 24.3125 -1.421875 
Q 15.921875 -1.421875 10.953125 3.296875 
Q 6 8.015625 6 15.921875 
Q 6 25.140625 12.171875 29.828125 
Q 18.359375 34.515625 30.609375 34.515625 
L 43.21875 34.515625 
L 43.21875 35.40625 
Q 43.21875 41.609375 39.140625 45 
Q 35.0625 48.390625 27.6875 48.390625 
Q 23 48.390625 18.546875 47.265625 
Q 14.109375 46.140625 10.015625 43.890625 
L 10.015625 52.203125 
Q 14.9375 54.109375 19.578125 55.046875 
Q 24.21875 56 28.609375 56 
Q 40.484375 56 46.34375 49.84375 
Q 52.203125 43.703125 52.203125 31.203125 
z
" id="DejaVuSans-97"/>
      <path d="M 45.40625 27.984375 
Q 45.40625 37.75 41.375 43.109375 
Q 37.359375 48.484375 30.078125 48.484375 
Q 22.859375 48.484375 18.828125 43.109375 
Q 14.796875 37.75 14.796875 27.984375 
Q 14.796875 18.265625 18.828125 12.890625 
Q 22.859375 7.515625 30.078125 7.515625 
Q 37.359375 7.515625 41.375 12.890625 
Q 45.40625 18.265625 45.40625 27.984375 
z
M 54.390625 6.78125 
Q 54.390625 -7.171875 48.1875 -13.984375 
Q 42 -20.796875 29.203125 -20.796875 
Q 24.46875 -20.796875 20.265625 -20.09375 
Q 16.0625 -19.390625 12.109375 -17.921875 
L 12.109375 -9.1875 
Q 16.0625 -11.328125 19.921875 -12.34375 
Q 23.78125 -13.375 27.78125 -13.375 
Q 36.625 -13.375 41.015625 -8.765625 
Q 45.40625 -4.15625 45.40625 5.171875 
L 45.40625 9.625 
Q 42.625 4.78125 38.28125 2.390625 
Q 33.9375 0 27.875 0 
Q 17.828125 0 11.671875 7.65625 
Q 5.515625 15.328125 5.515625 27.984375 
Q 5.515625 40.671875 11.671875 48.328125 
Q 17.828125 56 27.875 56 
Q 33.9375 56 38.28125 53.609375 
Q 42.625 51.21875 45.40625 46.390625 
L 45.40625 54.6875 
L 54.390625 54.6875 
z
" id="DejaVuSans-103"/>
      <path d="M 37.109375 75.984375 
L 37.109375 68.5 
L 28.515625 68.5 
Q 23.6875 68.5 21.796875 66.546875 
Q 19.921875 64.59375 19.921875 59.515625 
L 19.921875 54.6875 
L 34.71875 54.6875 
L 34.71875 47.703125 
L 19.921875 47.703125 
L 19.921875 0 
L 10.890625 0 
L 10.890625 47.703125 
L 2.296875 47.703125 
L 2.296875 54.6875 
L 10.890625 54.6875 
L 10.890625 58.5 
Q 10.890625 67.625 15.140625 71.796875 
Q 19.390625 75.984375 28.609375 75.984375 
z
" id="DejaVuSans-102"/>
      <path d="M 54.890625 33.015625 
L 54.890625 0 
L 45.90625 0 
L 45.90625 32.71875 
Q 45.90625 40.484375 42.875 44.328125 
Q 39.84375 48.1875 33.796875 48.1875 
Q 26.515625 48.1875 22.3125 43.546875 
Q 18.109375 38.921875 18.109375 30.90625 
L 18.109375 0 
L 9.078125 0 
L 9.078125 75.984375 
L 18.109375 75.984375 
L 18.109375 46.1875 
Q 21.34375 51.125 25.703125 53.5625 
Q 30.078125 56 35.796875 56 
Q 45.21875 56 50.046875 50.171875 
Q 54.890625 44.34375 54.890625 33.015625 
z
" id="DejaVuSans-104"/>
      <path d="M 9.078125 75.984375 
L 18.109375 75.984375 
L 18.109375 31.109375 
L 44.921875 54.6875 
L 56.390625 54.6875 
L 27.390625 29.109375 
L 57.625 0 
L 45.90625 0 
L 18.109375 26.703125 
L 18.109375 0 
L 9.078125 0 
z
" id="DejaVuSans-107"/>
     </defs>
     <g transform="translate(409.3 476.836563)scale(0.1 -0.1)">
      <use xlink:href="#DejaVuSans-100"/>
      <use x="63.476562" xlink:href="#DejaVuSans-111"/>
      <use x="124.658203" xlink:href="#DejaVuSans-99"/>
      <use x="179.638672" xlink:href="#DejaVuSans-117"/>
      <use x="243.017578" xlink:href="#DejaVuSans-109"/>
      <use x="340.429688" xlink:href="#DejaVuSans-101"/>
      <use x="401.953125" xlink:href="#DejaVuSans-110"/>
      <use x="465.332031" xlink:href="#DejaVuSans-116"/>
      <use x="504.541016" xlink:href="#DejaVuSans-39"/>
      <use x="532.03125" xlink:href="#DejaVuSans-115"/>
      <use x="584.130859" xlink:href="#DejaVuSans-32"/>
      <use x="615.917969" xlink:href="#DejaVuSans-112"/>
      <use x="679.394531" xlink:href="#DejaVuSans-101"/>
      <use x="740.917969" xlink:href="#DejaVuSans-114"/>
      <use x="782" xlink:href="#DejaVuSans-99"/>
      <use x="836.980469" xlink:href="#DejaVuSans-101"/>
      <use x="898.503906" xlink:href="#DejaVuSans-110"/>
      <use x="961.882812" xlink:href="#DejaVuSans-116"/>
      <use x="1001.091797" xlink:href="#DejaVuSans-97"/>
      <use x="1062.371094" xlink:href="#DejaVuSans-103"/>
      <use x="1125.847656" xlink:href="#DejaVuSans-101"/>
      <use x="1187.371094" xlink:href="#DejaVuSans-32"/>
      <use x="1219.158203" xlink:href="#DejaVuSans-111"/>
      <use x="1280.339844" xlink:href="#DejaVuSans-102"/>
      <use x="1315.544922" xlink:href="#DejaVuSans-32"/>
      <use x="1347.332031" xlink:href="#DejaVuSans-116"/>
      <use x="1386.541016" xlink:href="#DejaVuSans-104"/>
      <use x="1449.919922" xlink:href="#DejaVuSans-101"/>
      <use x="1511.443359" xlink:href="#DejaVuSans-32"/>
      <use x="1543.230469" xlink:href="#DejaVuSans-99"/>
      <use x="1598.210938" xlink:href="#DejaVuSans-104"/>
      <use x="1661.589844" xlink:href="#DejaVuSans-117"/>
      <use x="1724.96875" xlink:href="#DejaVuSans-110"/>
      <use x="1788.347656" xlink:href="#DejaVuSans-107"/>
      <use x="1846.257812" xlink:href="#DejaVuSans-39"/>
      <use x="1873.748047" xlink:href="#DejaVuSans-115"/>
      <use x="1925.847656" xlink:href="#DejaVuSans-32"/>
      <use x="1957.634766" xlink:href="#DejaVuSans-101"/>
      <use x="2019.158203" xlink:href="#DejaVuSans-110"/>
      <use x="2082.537109" xlink:href="#DejaVuSans-100"/>
     </g>
    </g>
   </g>
   <g id="matplotlib.axis_2">
    <g id="ytick_1">
     <g id="line2d_7">
      <defs>
       <path d="M 0 0 
L -3.5 0 
" id="m46db768437" style="stroke:#000000;stroke-width:0.8;"/>
      </defs>
      <g>
       <use style="stroke:#000000;stroke-width:0.8;" x="126" xlink:href="#m46db768437" y="406.666462"/>
      </g>
     </g>
     <g id="text_8">
      <!-- 10 -->
      <g transform="translate(106.275 410.465681)scale(0.1 -0.1)">
       <use xlink:href="#DejaVuSans-49"/>
       <use x="63.623047" xlink:href="#DejaVuSans-48"/>
      </g>
     </g>
    </g>
    <g id="ytick_2">
     <g id="line2d_8">
      <g>
       <use style="stroke:#000000;stroke-width:0.8;" x="126" xlink:href="#m46db768437" y="355.238266"/>
      </g>
     </g>
     <g id="text_9">
      <!-- 12 -->
      <g transform="translate(106.275 359.037485)scale(0.1 -0.1)">
       <use xlink:href="#DejaVuSans-49"/>
       <use x="63.623047" xlink:href="#DejaVuSans-50"/>
      </g>
     </g>
    </g>
    <g id="ytick_3">
     <g id="line2d_9">
      <g>
       <use style="stroke:#000000;stroke-width:0.8;" x="126" xlink:href="#m46db768437" y="303.810069"/>
      </g>
     </g>
     <g id="text_10">
      <!-- 14 -->
      <g transform="translate(106.275 307.609288)scale(0.1 -0.1)">
       <use xlink:href="#DejaVuSans-49"/>
       <use x="63.623047" xlink:href="#DejaVuSans-52"/>
      </g>
     </g>
    </g>
    <g id="ytick_4">
     <g id="line2d_10">
      <g>
       <use style="stroke:#000000;stroke-width:0.8;" x="126" xlink:href="#m46db768437" y="252.381873"/>
      </g>
     </g>
     <g id="text_11">
      <!-- 16 -->
      <g transform="translate(106.275 256.181091)scale(0.1 -0.1)">
       <use xlink:href="#DejaVuSans-49"/>
       <use x="63.623047" xlink:href="#DejaVuSans-54"/>
      </g>
     </g>
    </g>
    <g id="ytick_5">
     <g id="line2d_11">
      <g>
       <use style="stroke:#000000;stroke-width:0.8;" x="126" xlink:href="#m46db768437" y="200.953676"/>
      </g>
     </g>
     <g id="text_12">
      <!-- 18 -->
      <g transform="translate(106.275 204.752895)scale(0.1 -0.1)">
       <use xlink:href="#DejaVuSans-49"/>
       <use x="63.623047" xlink:href="#DejaVuSans-56"/>
      </g>
     </g>
    </g>
    <g id="ytick_6">
     <g id="line2d_12">
      <g>
       <use style="stroke:#000000;stroke-width:0.8;" x="126" xlink:href="#m46db768437" y="149.52548"/>
      </g>
     </g>
     <g id="text_13">
      <!-- 20 -->
      <g transform="translate(106.275 153.324698)scale(0.1 -0.1)">
       <use xlink:href="#DejaVuSans-50"/>
       <use x="63.623047" xlink:href="#DejaVuSans-48"/>
      </g>
     </g>
    </g>
    <g id="ytick_7">
     <g id="line2d_13">
      <g>
       <use style="stroke:#000000;stroke-width:0.8;" x="126" xlink:href="#m46db768437" y="98.097283"/>
      </g>
     </g>
     <g id="text_14">
      <!-- 22 -->
      <g transform="translate(106.275 101.896502)scale(0.1 -0.1)">
       <use xlink:href="#DejaVuSans-50"/>
       <use x="63.623047" xlink:href="#DejaVuSans-50"/>
      </g>
     </g>
    </g>
    <g id="text_15">
     <!-- GFI -->
     <defs>
      <path d="M 59.515625 10.40625 
L 59.515625 29.984375 
L 43.40625 29.984375 
L 43.40625 38.09375 
L 69.28125 38.09375 
L 69.28125 6.78125 
Q 63.578125 2.734375 56.6875 0.65625 
Q 49.8125 -1.421875 42 -1.421875 
Q 24.90625 -1.421875 15.25 8.5625 
Q 5.609375 18.5625 5.609375 36.375 
Q 5.609375 54.25 15.25 64.234375 
Q 24.90625 74.21875 42 74.21875 
Q 49.125 74.21875 55.546875 72.453125 
Q 61.96875 70.703125 67.390625 67.28125 
L 67.390625 56.78125 
Q 61.921875 61.421875 55.765625 63.765625 
Q 49.609375 66.109375 42.828125 66.109375 
Q 29.4375 66.109375 22.71875 58.640625 
Q 16.015625 51.171875 16.015625 36.375 
Q 16.015625 21.625 22.71875 14.15625 
Q 29.4375 6.6875 42.828125 6.6875 
Q 48.046875 6.6875 52.140625 7.59375 
Q 56.25 8.5 59.515625 10.40625 
z
" id="DejaVuSans-71"/>
      <path d="M 9.8125 72.90625 
L 51.703125 72.90625 
L 51.703125 64.59375 
L 19.671875 64.59375 
L 19.671875 43.109375 
L 48.578125 43.109375 
L 48.578125 34.8125 
L 19.671875 34.8125 
L 19.671875 0 
L 9.8125 0 
z
" id="DejaVuSans-70"/>
      <path d="M 9.8125 72.90625 
L 19.671875 72.90625 
L 19.671875 0 
L 9.8125 0 
z
" id="DejaVuSans-73"/>
     </defs>
     <g transform="translate(100.195312 262.745)rotate(-90)scale(0.1 -0.1)">
      <use xlink:href="#DejaVuSans-71"/>
      <use x="77.490234" xlink:href="#DejaVuSans-70"/>
      <use x="135.009766" xlink:href="#DejaVuSans-73"/>
     </g>
    </g>
   </g>
   <g id="line2d_14">
    <path clip-path="url(#p625d559b08)" d="M 161.509091 298.034683 
L 171.237609 257.925832 
L 180.966127 153.655164 
L 190.694645 346.770613 
L 200.423163 306.085767 
L 210.151681 322.321649 
L 219.880199 254.10986 
L 229.608717 356.315687 
L 239.337235 301.351802 
L 249.065753 247.249339 
L 258.794271 272.845152 
L 268.52279 192.398596 
L 278.251308 303.704642 
L 287.979826 265.048638 
L 297.708344 201.506529 
L 307.436862 205.150217 
L 317.16538 234.780572 
L 326.893898 328.354176 
L 336.622416 244.405359 
L 346.350934 232.324876 
L 356.079452 287.913614 
L 365.80797 273.341434 
L 375.536488 221.501812 
L 385.265006 272.382298 
L 394.993524 294.50928 
L 404.722042 302.719792 
L 414.45056 336.708687 
L 424.179078 295.645843 
L 433.907597 319.981666 
L 443.636115 363.63649 
L 453.364633 332.005578 
L 463.093151 187.960342 
L 472.821669 195.062576 
L 482.550187 428.634017 
L 492.278705 78.12 
L 502.007223 344.654343 
L 511.735741 284.663352 
L 521.464259 249.60475 
L 531.192777 339.490952 
L 540.921295 298.163253 
L 550.649813 254.621571 
L 560.378331 342.867213 
L 570.106849 312.938574 
L 579.835367 341.139226 
L 589.563885 338.202676 
L 599.292403 271.757446 
L 609.020922 430.92 
L 618.74944 392.374567 
L 628.477958 337.307825 
L 638.206476 351.990575 
L 647.934994 311.586013 
L 657.663512 221.992951 
L 667.39203 266.920624 
L 677.120548 281.670231 
L 686.849066 333.044428 
L 696.577584 321.1928 
L 706.306102 275.524561 
L 716.03462 290.065884 
L 725.763138 318.927388 
L 735.491656 279.013964 
L 745.220174 304.136638 
L 754.948692 398.815948 
L 764.67721 347.837748 
L 774.405729 247.082197 
L 784.134247 254.444143 
L 793.862765 322.668789 
L 803.591283 236.305418 
L 813.319801 138.573845 
L 823.048319 240.152248 
L 832.776837 270.440884 
L 842.505355 280.682809 
L 852.233873 308.932318 
L 861.962391 275.732845 
L 871.690909 200.637393 
" style="fill:none;stroke:#acc2d9;stroke-linecap:square;stroke-width:1.5;"/>
    <defs>
     <path d="M 0 3 
C 0.795609 3 1.55874 2.683901 2.12132 2.12132 
C 2.683901 1.55874 3 0.795609 3 0 
C 3 -0.795609 2.683901 -1.55874 2.12132 -2.12132 
C 1.55874 -2.683901 0.795609 -3 0 -3 
C -0.795609 -3 -1.55874 -2.683901 -2.12132 -2.12132 
C -2.683901 -1.55874 -3 -0.795609 -3 0 
C -3 0.795609 -2.683901 1.55874 -2.12132 2.12132 
C -1.55874 2.683901 -0.795609 3 0 3 
z
" id="me1b18cede2" style="stroke:#acc2d9;"/>
    </defs>
    <g clip-path="url(#p625d559b08)">
     <use style="fill:#acc2d9;stroke:#acc2d9;" x="161.509091" xlink:href="#me1b18cede2" y="298.034683"/>
     <use style="fill:#acc2d9;stroke:#acc2d9;" x="171.237609" xlink:href="#me1b18cede2" y="257.925832"/>
     <use style="fill:#acc2d9;stroke:#acc2d9;" x="180.966127" xlink:href="#me1b18cede2" y="153.655164"/>
     <use style="fill:#acc2d9;stroke:#acc2d9;" x="190.694645" xlink:href="#me1b18cede2" y="346.770613"/>
     <use style="fill:#acc2d9;stroke:#acc2d9;" x="200.423163" xlink:href="#me1b18cede2" y="306.085767"/>
     <use style="fill:#acc2d9;stroke:#acc2d9;" x="210.151681" xlink:href="#me1b18cede2" y="322.321649"/>
     <use style="fill:#acc2d9;stroke:#acc2d9;" x="219.880199" xlink:href="#me1b18cede2" y="254.10986"/>
     <use style="fill:#acc2d9;stroke:#acc2d9;" x="229.608717" xlink:href="#me1b18cede2" y="356.315687"/>
     <use style="fill:#acc2d9;stroke:#acc2d9;" x="239.337235" xlink:href="#me1b18cede2" y="301.351802"/>
     <use style="fill:#acc2d9;stroke:#acc2d9;" x="249.065753" xlink:href="#me1b18cede2" y="247.249339"/>
     <use style="fill:#acc2d9;stroke:#acc2d9;" x="258.794271" xlink:href="#me1b18cede2" y="272.845152"/>
     <use style="fill:#acc2d9;stroke:#acc2d9;" x="268.52279" xlink:href="#me1b18cede2" y="192.398596"/>
     <use style="fill:#acc2d9;stroke:#acc2d9;" x="278.251308" xlink:href="#me1b18cede2" y="303.704642"/>
     <use style="fill:#acc2d9;stroke:#acc2d9;" x="287.979826" xlink:href="#me1b18cede2" y="265.048638"/>
     <use style="fill:#acc2d9;stroke:#acc2d9;" x="297.708344" xlink:href="#me1b18cede2" y="201.506529"/>
     <use style="fill:#acc2d9;stroke:#acc2d9;" x="307.436862" xlink:href="#me1b18cede2" y="205.150217"/>
     <use style="fill:#acc2d9;stroke:#acc2d9;" x="317.16538" xlink:href="#me1b18cede2" y="234.780572"/>
     <use style="fill:#acc2d9;stroke:#acc2d9;" x="326.893898" xlink:href="#me1b18cede2" y="328.354176"/>
     <use style="fill:#acc2d9;stroke:#acc2d9;" x="336.622416" xlink:href="#me1b18cede2" y="244.405359"/>
     <use style="fill:#acc2d9;stroke:#acc2d9;" x="346.350934" xlink:href="#me1b18cede2" y="232.324876"/>
     <use style="fill:#acc2d9;stroke:#acc2d9;" x="356.079452" xlink:href="#me1b18cede2" y="287.913614"/>
     <use style="fill:#acc2d9;stroke:#acc2d9;" x="365.80797" xlink:href="#me1b18cede2" y="273.341434"/>
     <use style="fill:#acc2d9;stroke:#acc2d9;" x="375.536488" xlink:href="#me1b18cede2" y="221.501812"/>
     <use style="fill:#acc2d9;stroke:#acc2d9;" x="385.265006" xlink:href="#me1b18cede2" y="272.382298"/>
     <use style="fill:#acc2d9;stroke:#acc2d9;" x="394.993524" xlink:href="#me1b18cede2" y="294.50928"/>
     <use style="fill:#acc2d9;stroke:#acc2d9;" x="404.722042" xlink:href="#me1b18cede2" y="302.719792"/>
     <use style="fill:#acc2d9;stroke:#acc2d9;" x="414.45056" xlink:href="#me1b18cede2" y="336.708687"/>
     <use style="fill:#acc2d9;stroke:#acc2d9;" x="424.179078" xlink:href="#me1b18cede2" y="295.645843"/>
     <use style="fill:#acc2d9;stroke:#acc2d9;" x="433.907597" xlink:href="#me1b18cede2" y="319.981666"/>
     <use style="fill:#acc2d9;stroke:#acc2d9;" x="443.636115" xlink:href="#me1b18cede2" y="363.63649"/>
     <use style="fill:#acc2d9;stroke:#acc2d9;" x="453.364633" xlink:href="#me1b18cede2" y="332.005578"/>
     <use style="fill:#acc2d9;stroke:#acc2d9;" x="463.093151" xlink:href="#me1b18cede2" y="187.960342"/>
     <use style="fill:#acc2d9;stroke:#acc2d9;" x="472.821669" xlink:href="#me1b18cede2" y="195.062576"/>
     <use style="fill:#acc2d9;stroke:#acc2d9;" x="482.550187" xlink:href="#me1b18cede2" y="428.634017"/>
     <use style="fill:#acc2d9;stroke:#acc2d9;" x="492.278705" xlink:href="#me1b18cede2" y="78.12"/>
     <use style="fill:#acc2d9;stroke:#acc2d9;" x="502.007223" xlink:href="#me1b18cede2" y="344.654343"/>
     <use style="fill:#acc2d9;stroke:#acc2d9;" x="511.735741" xlink:href="#me1b18cede2" y="284.663352"/>
     <use style="fill:#acc2d9;stroke:#acc2d9;" x="521.464259" xlink:href="#me1b18cede2" y="249.60475"/>
     <use style="fill:#acc2d9;stroke:#acc2d9;" x="531.192777" xlink:href="#me1b18cede2" y="339.490952"/>
     <use style="fill:#acc2d9;stroke:#acc2d9;" x="540.921295" xlink:href="#me1b18cede2" y="298.163253"/>
     <use style="fill:#acc2d9;stroke:#acc2d9;" x="550.649813" xlink:href="#me1b18cede2" y="254.621571"/>
     <use style="fill:#acc2d9;stroke:#acc2d9;" x="560.378331" xlink:href="#me1b18cede2" y="342.867213"/>
     <use style="fill:#acc2d9;stroke:#acc2d9;" x="570.106849" xlink:href="#me1b18cede2" y="312.938574"/>
     <use style="fill:#acc2d9;stroke:#acc2d9;" x="579.835367" xlink:href="#me1b18cede2" y="341.139226"/>
     <use style="fill:#acc2d9;stroke:#acc2d9;" x="589.563885" xlink:href="#me1b18cede2" y="338.202676"/>
     <use style="fill:#acc2d9;stroke:#acc2d9;" x="599.292403" xlink:href="#me1b18cede2" y="271.757446"/>
     <use style="fill:#acc2d9;stroke:#acc2d9;" x="609.020922" xlink:href="#me1b18cede2" y="430.92"/>
     <use style="fill:#acc2d9;stroke:#acc2d9;" x="618.74944" xlink:href="#me1b18cede2" y="392.374567"/>
     <use style="fill:#acc2d9;stroke:#acc2d9;" x="628.477958" xlink:href="#me1b18cede2" y="337.307825"/>
     <use style="fill:#acc2d9;stroke:#acc2d9;" x="638.206476" xlink:href="#me1b18cede2" y="351.990575"/>
     <use style="fill:#acc2d9;stroke:#acc2d9;" x="647.934994" xlink:href="#me1b18cede2" y="311.586013"/>
     <use style="fill:#acc2d9;stroke:#acc2d9;" x="657.663512" xlink:href="#me1b18cede2" y="221.992951"/>
     <use style="fill:#acc2d9;stroke:#acc2d9;" x="667.39203" xlink:href="#me1b18cede2" y="266.920624"/>
     <use style="fill:#acc2d9;stroke:#acc2d9;" x="677.120548" xlink:href="#me1b18cede2" y="281.670231"/>
     <use style="fill:#acc2d9;stroke:#acc2d9;" x="686.849066" xlink:href="#me1b18cede2" y="333.044428"/>
     <use style="fill:#acc2d9;stroke:#acc2d9;" x="696.577584" xlink:href="#me1b18cede2" y="321.1928"/>
     <use style="fill:#acc2d9;stroke:#acc2d9;" x="706.306102" xlink:href="#me1b18cede2" y="275.524561"/>
     <use style="fill:#acc2d9;stroke:#acc2d9;" x="716.03462" xlink:href="#me1b18cede2" y="290.065884"/>
     <use style="fill:#acc2d9;stroke:#acc2d9;" x="725.763138" xlink:href="#me1b18cede2" y="318.927388"/>
     <use style="fill:#acc2d9;stroke:#acc2d9;" x="735.491656" xlink:href="#me1b18cede2" y="279.013964"/>
     <use style="fill:#acc2d9;stroke:#acc2d9;" x="745.220174" xlink:href="#me1b18cede2" y="304.136638"/>
     <use style="fill:#acc2d9;stroke:#acc2d9;" x="754.948692" xlink:href="#me1b18cede2" y="398.815948"/>
     <use style="fill:#acc2d9;stroke:#acc2d9;" x="764.67721" xlink:href="#me1b18cede2" y="347.837748"/>
     <use style="fill:#acc2d9;stroke:#acc2d9;" x="774.405729" xlink:href="#me1b18cede2" y="247.082197"/>
     <use style="fill:#acc2d9;stroke:#acc2d9;" x="784.134247" xlink:href="#me1b18cede2" y="254.444143"/>
     <use style="fill:#acc2d9;stroke:#acc2d9;" x="793.862765" xlink:href="#me1b18cede2" y="322.668789"/>
     <use style="fill:#acc2d9;stroke:#acc2d9;" x="803.591283" xlink:href="#me1b18cede2" y="236.305418"/>
     <use style="fill:#acc2d9;stroke:#acc2d9;" x="813.319801" xlink:href="#me1b18cede2" y="138.573845"/>
     <use style="fill:#acc2d9;stroke:#acc2d9;" x="823.048319" xlink:href="#me1b18cede2" y="240.152248"/>
     <use style="fill:#acc2d9;stroke:#acc2d9;" x="832.776837" xlink:href="#me1b18cede2" y="270.440884"/>
     <use style="fill:#acc2d9;stroke:#acc2d9;" x="842.505355" xlink:href="#me1b18cede2" y="280.682809"/>
     <use style="fill:#acc2d9;stroke:#acc2d9;" x="852.233873" xlink:href="#me1b18cede2" y="308.932318"/>
     <use style="fill:#acc2d9;stroke:#acc2d9;" x="861.962391" xlink:href="#me1b18cede2" y="275.732845"/>
     <use style="fill:#acc2d9;stroke:#acc2d9;" x="871.690909" xlink:href="#me1b18cede2" y="200.637393"/>
    </g>
   </g>
   <g id="line2d_15">
    <path clip-path="url(#p625d559b08)" d="M 164.19282 356.770826 
L 176.605067 350.098018 
L 189.017314 292.395581 
L 201.429562 351.270581 
L 213.841809 318.029966 
L 226.254056 407.327315 
L 238.666303 358.60167 
L 251.07855 325.057629 
L 263.490797 317.939966 
L 275.903045 345.060626 
L 288.315292 349.000026 
L 300.727539 323.936494 
L 313.139786 273.454576 
L 325.552033 332.723001 
L 337.96428 390.628579 
L 350.376528 352.617999 
L 362.788775 284.380497 
L 375.201022 353.865133 
L 387.613269 281.654802 
L 400.025516 303.167217 
L 412.437764 321.473083 
L 424.850011 280.898808 
L 437.262258 311.601441 
L 449.674505 259.900675 
L 462.086752 285.247062 
L 474.498999 201.146532 
L 486.911247 313.511999 
L 499.323494 334.72613 
L 511.735741 249.05704 
L 524.147988 280.302241 
L 536.560235 289.417888 
L 548.972483 368.187886 
L 561.38473 404.115624 
L 573.796977 342.154933 
L 586.209224 406.507035 
L 598.621471 312.848575 
L 611.033718 276.943979 
L 623.445966 337.513538 
L 635.858213 279.42539 
L 648.27046 274.753138 
L 660.682707 372.435855 
L 673.094954 308.07861 
L 685.507201 373.880987 
L 697.919449 389.960013 
L 710.331696 330.467875 
L 722.743943 304.002925 
L 735.15619 302.544936 
L 747.568437 336.664973 
L 759.980685 348.436887 
L 772.392932 340.203233 
L 784.805179 311.076873 
L 797.217426 325.582196 
L 809.629673 321.444798 
L 822.04192 375.117835 
L 834.454168 351.535436 
L 846.866415 370.553583 
L 859.278662 274.169428 
L 871.690909 309.832311 
" style="fill:none;stroke:#56ae57;stroke-linecap:square;stroke-width:1.5;"/>
    <defs>
     <path d="M 0 3 
C 0.795609 3 1.55874 2.683901 2.12132 2.12132 
C 2.683901 1.55874 3 0.795609 3 0 
C 3 -0.795609 2.683901 -1.55874 2.12132 -2.12132 
C 1.55874 -2.683901 0.795609 -3 0 -3 
C -0.795609 -3 -1.55874 -2.683901 -2.12132 -2.12132 
C -2.683901 -1.55874 -3 -0.795609 -3 0 
C -3 0.795609 -2.683901 1.55874 -2.12132 2.12132 
C -1.55874 2.683901 -0.795609 3 0 3 
z
" id="me7f4c9aac1" style="stroke:#56ae57;"/>
    </defs>
    <g clip-path="url(#p625d559b08)">
     <use style="fill:#56ae57;stroke:#56ae57;" x="164.19282" xlink:href="#me7f4c9aac1" y="356.770826"/>
     <use style="fill:#56ae57;stroke:#56ae57;" x="176.605067" xlink:href="#me7f4c9aac1" y="350.098018"/>
     <use style="fill:#56ae57;stroke:#56ae57;" x="189.017314" xlink:href="#me7f4c9aac1" y="292.395581"/>
     <use style="fill:#56ae57;stroke:#56ae57;" x="201.429562" xlink:href="#me7f4c9aac1" y="351.270581"/>
     <use style="fill:#56ae57;stroke:#56ae57;" x="213.841809" xlink:href="#me7f4c9aac1" y="318.029966"/>
     <use style="fill:#56ae57;stroke:#56ae57;" x="226.254056" xlink:href="#me7f4c9aac1" y="407.327315"/>
     <use style="fill:#56ae57;stroke:#56ae57;" x="238.666303" xlink:href="#me7f4c9aac1" y="358.60167"/>
     <use style="fill:#56ae57;stroke:#56ae57;" x="251.07855" xlink:href="#me7f4c9aac1" y="325.057629"/>
     <use style="fill:#56ae57;stroke:#56ae57;" x="263.490797" xlink:href="#me7f4c9aac1" y="317.939966"/>
     <use style="fill:#56ae57;stroke:#56ae57;" x="275.903045" xlink:href="#me7f4c9aac1" y="345.060626"/>
     <use style="fill:#56ae57;stroke:#56ae57;" x="288.315292" xlink:href="#me7f4c9aac1" y="349.000026"/>
     <use style="fill:#56ae57;stroke:#56ae57;" x="300.727539" xlink:href="#me7f4c9aac1" y="323.936494"/>
     <use style="fill:#56ae57;stroke:#56ae57;" x="313.139786" xlink:href="#me7f4c9aac1" y="273.454576"/>
     <use style="fill:#56ae57;stroke:#56ae57;" x="325.552033" xlink:href="#me7f4c9aac1" y="332.723001"/>
     <use style="fill:#56ae57;stroke:#56ae57;" x="337.96428" xlink:href="#me7f4c9aac1" y="390.628579"/>
     <use style="fill:#56ae57;stroke:#56ae57;" x="350.376528" xlink:href="#me7f4c9aac1" y="352.617999"/>
     <use style="fill:#56ae57;stroke:#56ae57;" x="362.788775" xlink:href="#me7f4c9aac1" y="284.380497"/>
     <use style="fill:#56ae57;stroke:#56ae57;" x="375.201022" xlink:href="#me7f4c9aac1" y="353.865133"/>
     <use style="fill:#56ae57;stroke:#56ae57;" x="387.613269" xlink:href="#me7f4c9aac1" y="281.654802"/>
     <use style="fill:#56ae57;stroke:#56ae57;" x="400.025516" xlink:href="#me7f4c9aac1" y="303.167217"/>
     <use style="fill:#56ae57;stroke:#56ae57;" x="412.437764" xlink:href="#me7f4c9aac1" y="321.473083"/>
     <use style="fill:#56ae57;stroke:#56ae57;" x="424.850011" xlink:href="#me7f4c9aac1" y="280.898808"/>
     <use style="fill:#56ae57;stroke:#56ae57;" x="437.262258" xlink:href="#me7f4c9aac1" y="311.601441"/>
     <use style="fill:#56ae57;stroke:#56ae57;" x="449.674505" xlink:href="#me7f4c9aac1" y="259.900675"/>
     <use style="fill:#56ae57;stroke:#56ae57;" x="462.086752" xlink:href="#me7f4c9aac1" y="285.247062"/>
     <use style="fill:#56ae57;stroke:#56ae57;" x="474.498999" xlink:href="#me7f4c9aac1" y="201.146532"/>
     <use style="fill:#56ae57;stroke:#56ae57;" x="486.911247" xlink:href="#me7f4c9aac1" y="313.511999"/>
     <use style="fill:#56ae57;stroke:#56ae57;" x="499.323494" xlink:href="#me7f4c9aac1" y="334.72613"/>
     <use style="fill:#56ae57;stroke:#56ae57;" x="511.735741" xlink:href="#me7f4c9aac1" y="249.05704"/>
     <use style="fill:#56ae57;stroke:#56ae57;" x="524.147988" xlink:href="#me7f4c9aac1" y="280.302241"/>
     <use style="fill:#56ae57;stroke:#56ae57;" x="536.560235" xlink:href="#me7f4c9aac1" y="289.417888"/>
     <use style="fill:#56ae57;stroke:#56ae57;" x="548.972483" xlink:href="#me7f4c9aac1" y="368.187886"/>
     <use style="fill:#56ae57;stroke:#56ae57;" x="561.38473" xlink:href="#me7f4c9aac1" y="404.115624"/>
     <use style="fill:#56ae57;stroke:#56ae57;" x="573.796977" xlink:href="#me7f4c9aac1" y="342.154933"/>
     <use style="fill:#56ae57;stroke:#56ae57;" x="586.209224" xlink:href="#me7f4c9aac1" y="406.507035"/>
     <use style="fill:#56ae57;stroke:#56ae57;" x="598.621471" xlink:href="#me7f4c9aac1" y="312.848575"/>
     <use style="fill:#56ae57;stroke:#56ae57;" x="611.033718" xlink:href="#me7f4c9aac1" y="276.943979"/>
     <use style="fill:#56ae57;stroke:#56ae57;" x="623.445966" xlink:href="#me7f4c9aac1" y="337.513538"/>
     <use style="fill:#56ae57;stroke:#56ae57;" x="635.858213" xlink:href="#me7f4c9aac1" y="279.42539"/>
     <use style="fill:#56ae57;stroke:#56ae57;" x="648.27046" xlink:href="#me7f4c9aac1" y="274.753138"/>
     <use style="fill:#56ae57;stroke:#56ae57;" x="660.682707" xlink:href="#me7f4c9aac1" y="372.435855"/>
     <use style="fill:#56ae57;stroke:#56ae57;" x="673.094954" xlink:href="#me7f4c9aac1" y="308.07861"/>
     <use style="fill:#56ae57;stroke:#56ae57;" x="685.507201" xlink:href="#me7f4c9aac1" y="373.880987"/>
     <use style="fill:#56ae57;stroke:#56ae57;" x="697.919449" xlink:href="#me7f4c9aac1" y="389.960013"/>
     <use style="fill:#56ae57;stroke:#56ae57;" x="710.331696" xlink:href="#me7f4c9aac1" y="330.467875"/>
     <use style="fill:#56ae57;stroke:#56ae57;" x="722.743943" xlink:href="#me7f4c9aac1" y="304.002925"/>
     <use style="fill:#56ae57;stroke:#56ae57;" x="735.15619" xlink:href="#me7f4c9aac1" y="302.544936"/>
     <use style="fill:#56ae57;stroke:#56ae57;" x="747.568437" xlink:href="#me7f4c9aac1" y="336.664973"/>
     <use style="fill:#56ae57;stroke:#56ae57;" x="759.980685" xlink:href="#me7f4c9aac1" y="348.436887"/>
     <use style="fill:#56ae57;stroke:#56ae57;" x="772.392932" xlink:href="#me7f4c9aac1" y="340.203233"/>
     <use style="fill:#56ae57;stroke:#56ae57;" x="784.805179" xlink:href="#me7f4c9aac1" y="311.076873"/>
     <use style="fill:#56ae57;stroke:#56ae57;" x="797.217426" xlink:href="#me7f4c9aac1" y="325.582196"/>
     <use style="fill:#56ae57;stroke:#56ae57;" x="809.629673" xlink:href="#me7f4c9aac1" y="321.444798"/>
     <use style="fill:#56ae57;stroke:#56ae57;" x="822.04192" xlink:href="#me7f4c9aac1" y="375.117835"/>
     <use style="fill:#56ae57;stroke:#56ae57;" x="834.454168" xlink:href="#me7f4c9aac1" y="351.535436"/>
     <use style="fill:#56ae57;stroke:#56ae57;" x="846.866415" xlink:href="#me7f4c9aac1" y="370.553583"/>
     <use style="fill:#56ae57;stroke:#56ae57;" x="859.278662" xlink:href="#me7f4c9aac1" y="274.169428"/>
     <use style="fill:#56ae57;stroke:#56ae57;" x="871.690909" xlink:href="#me7f4c9aac1" y="309.832311"/>
    </g>
   </g>
   <g id="line2d_16">
    <path clip-path="url(#p625d559b08)" d="M 170.725582 280.916808 
L 189.670591 214.867575 
L 208.615599 258.404115 
L 227.560608 199.840256 
L 246.505617 180.382398 
L 265.450626 278.255398 
L 284.395635 328.847887 
L 303.340644 323.301356 
L 322.285652 206.001354 
L 341.230661 334.664416 
L 360.17567 276.439983 
L 379.120679 284.221069 
L 398.065688 219.804682 
L 417.010697 191.619458 
L 435.955706 181.164106 
L 454.900714 184.38094 
L 473.845723 257.473264 
L 492.790732 220.128679 
L 511.735741 344.48463 
L 530.68075 347.380037 
L 549.625759 307.399757 
L 568.570768 370.777296 
L 587.515776 375.169263 
L 606.460785 270.183743 
L 625.405794 261.618377 
L 644.350803 295.6407 
L 663.295812 300.19981 
L 682.240821 265.758347 
L 701.185829 327.914465 
L 720.130838 334.404703 
L 739.075847 272.901723 
L 758.020856 313.447713 
L 776.965865 301.107518 
L 795.910874 231.306598 
L 814.855883 306.738905 
L 833.800891 328.912172 
L 852.7459 284.051356 
L 871.690909 275.208278 
" style="fill:none;stroke:#b2996e;stroke-linecap:square;stroke-width:1.5;"/>
    <defs>
     <path d="M 0 3 
C 0.795609 3 1.55874 2.683901 2.12132 2.12132 
C 2.683901 1.55874 3 0.795609 3 0 
C 3 -0.795609 2.683901 -1.55874 2.12132 -2.12132 
C 1.55874 -2.683901 0.795609 -3 0 -3 
C -0.795609 -3 -1.55874 -2.683901 -2.12132 -2.12132 
C -2.683901 -1.55874 -3 -0.795609 -3 0 
C -3 0.795609 -2.683901 1.55874 -2.12132 2.12132 
C -1.55874 2.683901 -0.795609 3 0 3 
z
" id="m7001c5530d" style="stroke:#b2996e;"/>
    </defs>
    <g clip-path="url(#p625d559b08)">
     <use style="fill:#b2996e;stroke:#b2996e;" x="170.725582" xlink:href="#m7001c5530d" y="280.916808"/>
     <use style="fill:#b2996e;stroke:#b2996e;" x="189.670591" xlink:href="#m7001c5530d" y="214.867575"/>
     <use style="fill:#b2996e;stroke:#b2996e;" x="208.615599" xlink:href="#m7001c5530d" y="258.404115"/>
     <use style="fill:#b2996e;stroke:#b2996e;" x="227.560608" xlink:href="#m7001c5530d" y="199.840256"/>
     <use style="fill:#b2996e;stroke:#b2996e;" x="246.505617" xlink:href="#m7001c5530d" y="180.382398"/>
     <use style="fill:#b2996e;stroke:#b2996e;" x="265.450626" xlink:href="#m7001c5530d" y="278.255398"/>
     <use style="fill:#b2996e;stroke:#b2996e;" x="284.395635" xlink:href="#m7001c5530d" y="328.847887"/>
     <use style="fill:#b2996e;stroke:#b2996e;" x="303.340644" xlink:href="#m7001c5530d" y="323.301356"/>
     <use style="fill:#b2996e;stroke:#b2996e;" x="322.285652" xlink:href="#m7001c5530d" y="206.001354"/>
     <use style="fill:#b2996e;stroke:#b2996e;" x="341.230661" xlink:href="#m7001c5530d" y="334.664416"/>
     <use style="fill:#b2996e;stroke:#b2996e;" x="360.17567" xlink:href="#m7001c5530d" y="276.439983"/>
     <use style="fill:#b2996e;stroke:#b2996e;" x="379.120679" xlink:href="#m7001c5530d" y="284.221069"/>
     <use style="fill:#b2996e;stroke:#b2996e;" x="398.065688" xlink:href="#m7001c5530d" y="219.804682"/>
     <use style="fill:#b2996e;stroke:#b2996e;" x="417.010697" xlink:href="#m7001c5530d" y="191.619458"/>
     <use style="fill:#b2996e;stroke:#b2996e;" x="435.955706" xlink:href="#m7001c5530d" y="181.164106"/>
     <use style="fill:#b2996e;stroke:#b2996e;" x="454.900714" xlink:href="#m7001c5530d" y="184.38094"/>
     <use style="fill:#b2996e;stroke:#b2996e;" x="473.845723" xlink:href="#m7001c5530d" y="257.473264"/>
     <use style="fill:#b2996e;stroke:#b2996e;" x="492.790732" xlink:href="#m7001c5530d" y="220.128679"/>
     <use style="fill:#b2996e;stroke:#b2996e;" x="511.735741" xlink:href="#m7001c5530d" y="344.48463"/>
     <use style="fill:#b2996e;stroke:#b2996e;" x="530.68075" xlink:href="#m7001c5530d" y="347.380037"/>
     <use style="fill:#b2996e;stroke:#b2996e;" x="549.625759" xlink:href="#m7001c5530d" y="307.399757"/>
     <use style="fill:#b2996e;stroke:#b2996e;" x="568.570768" xlink:href="#m7001c5530d" y="370.777296"/>
     <use style="fill:#b2996e;stroke:#b2996e;" x="587.515776" xlink:href="#m7001c5530d" y="375.169263"/>
     <use style="fill:#b2996e;stroke:#b2996e;" x="606.460785" xlink:href="#m7001c5530d" y="270.183743"/>
     <use style="fill:#b2996e;stroke:#b2996e;" x="625.405794" xlink:href="#m7001c5530d" y="261.618377"/>
     <use style="fill:#b2996e;stroke:#b2996e;" x="644.350803" xlink:href="#m7001c5530d" y="295.6407"/>
     <use style="fill:#b2996e;stroke:#b2996e;" x="663.295812" xlink:href="#m7001c5530d" y="300.19981"/>
     <use style="fill:#b2996e;stroke:#b2996e;" x="682.240821" xlink:href="#m7001c5530d" y="265.758347"/>
     <use style="fill:#b2996e;stroke:#b2996e;" x="701.185829" xlink:href="#m7001c5530d" y="327.914465"/>
     <use style="fill:#b2996e;stroke:#b2996e;" x="720.130838" xlink:href="#m7001c5530d" y="334.404703"/>
     <use style="fill:#b2996e;stroke:#b2996e;" x="739.075847" xlink:href="#m7001c5530d" y="272.901723"/>
     <use style="fill:#b2996e;stroke:#b2996e;" x="758.020856" xlink:href="#m7001c5530d" y="313.447713"/>
     <use style="fill:#b2996e;stroke:#b2996e;" x="776.965865" xlink:href="#m7001c5530d" y="301.107518"/>
     <use style="fill:#b2996e;stroke:#b2996e;" x="795.910874" xlink:href="#m7001c5530d" y="231.306598"/>
     <use style="fill:#b2996e;stroke:#b2996e;" x="814.855883" xlink:href="#m7001c5530d" y="306.738905"/>
     <use style="fill:#b2996e;stroke:#b2996e;" x="833.800891" xlink:href="#m7001c5530d" y="328.912172"/>
     <use style="fill:#b2996e;stroke:#b2996e;" x="852.7459" xlink:href="#m7001c5530d" y="284.051356"/>
     <use style="fill:#b2996e;stroke:#b2996e;" x="871.690909" xlink:href="#m7001c5530d" y="275.208278"/>
    </g>
   </g>
   <g id="line2d_17">
    <path clip-path="url(#p625d559b08)" d="M 172.954406 239.648251 
L 194.12824 276.164842 
L 215.302073 261.955232 
L 236.475907 289.05532 
L 257.64974 237.231126 
L 278.823573 210.748176 
L 299.997407 215.207001 
L 321.17124 239.460538 
L 342.345074 253.54415 
L 363.518907 173.341877 
L 384.69274 270.505169 
L 405.866574 275.388276 
L 427.040407 265.323778 
L 448.214241 257.21098 
L 469.388074 341.589223 
L 490.561908 221.314099 
L 511.735741 241.16024 
L 532.909574 275.845987 
L 554.083408 295.09299 
L 575.257241 254.392715 
L 596.431075 289.983599 
L 617.604908 265.169494 
L 638.778741 276.079986 
L 659.952575 281.708802 
L 681.126408 249.252467 
L 702.300242 287.029049 
L 723.474075 270.286599 
L 744.647909 260.589813 
L 765.821742 287.9059 
L 786.995575 276.195699 
L 808.169409 254.793855 
L 829.343242 321.280228 
L 850.517076 292.107583 
L 871.690909 259.900675 
" style="fill:none;stroke:#a8ff04;stroke-linecap:square;stroke-width:1.5;"/>
    <defs>
     <path d="M 0 3 
C 0.795609 3 1.55874 2.683901 2.12132 2.12132 
C 2.683901 1.55874 3 0.795609 3 0 
C 3 -0.795609 2.683901 -1.55874 2.12132 -2.12132 
C 1.55874 -2.683901 0.795609 -3 0 -3 
C -0.795609 -3 -1.55874 -2.683901 -2.12132 -2.12132 
C -2.683901 -1.55874 -3 -0.795609 -3 0 
C -3 0.795609 -2.683901 1.55874 -2.12132 2.12132 
C -1.55874 2.683901 -0.795609 3 0 3 
z
" id="mf3fc0f08f2" style="stroke:#a8ff04;"/>
    </defs>
    <g clip-path="url(#p625d559b08)">
     <use style="fill:#a8ff04;stroke:#a8ff04;" x="172.954406" xlink:href="#mf3fc0f08f2" y="239.648251"/>
     <use style="fill:#a8ff04;stroke:#a8ff04;" x="194.12824" xlink:href="#mf3fc0f08f2" y="276.164842"/>
     <use style="fill:#a8ff04;stroke:#a8ff04;" x="215.302073" xlink:href="#mf3fc0f08f2" y="261.955232"/>
     <use style="fill:#a8ff04;stroke:#a8ff04;" x="236.475907" xlink:href="#mf3fc0f08f2" y="289.05532"/>
     <use style="fill:#a8ff04;stroke:#a8ff04;" x="257.64974" xlink:href="#mf3fc0f08f2" y="237.231126"/>
     <use style="fill:#a8ff04;stroke:#a8ff04;" x="278.823573" xlink:href="#mf3fc0f08f2" y="210.748176"/>
     <use style="fill:#a8ff04;stroke:#a8ff04;" x="299.997407" xlink:href="#mf3fc0f08f2" y="215.207001"/>
     <use style="fill:#a8ff04;stroke:#a8ff04;" x="321.17124" xlink:href="#mf3fc0f08f2" y="239.460538"/>
     <use style="fill:#a8ff04;stroke:#a8ff04;" x="342.345074" xlink:href="#mf3fc0f08f2" y="253.54415"/>
     <use style="fill:#a8ff04;stroke:#a8ff04;" x="363.518907" xlink:href="#mf3fc0f08f2" y="173.341877"/>
     <use style="fill:#a8ff04;stroke:#a8ff04;" x="384.69274" xlink:href="#mf3fc0f08f2" y="270.505169"/>
     <use style="fill:#a8ff04;stroke:#a8ff04;" x="405.866574" xlink:href="#mf3fc0f08f2" y="275.388276"/>
     <use style="fill:#a8ff04;stroke:#a8ff04;" x="427.040407" xlink:href="#mf3fc0f08f2" y="265.323778"/>
     <use style="fill:#a8ff04;stroke:#a8ff04;" x="448.214241" xlink:href="#mf3fc0f08f2" y="257.21098"/>
     <use style="fill:#a8ff04;stroke:#a8ff04;" x="469.388074" xlink:href="#mf3fc0f08f2" y="341.589223"/>
     <use style="fill:#a8ff04;stroke:#a8ff04;" x="490.561908" xlink:href="#mf3fc0f08f2" y="221.314099"/>
     <use style="fill:#a8ff04;stroke:#a8ff04;" x="511.735741" xlink:href="#mf3fc0f08f2" y="241.16024"/>
     <use style="fill:#a8ff04;stroke:#a8ff04;" x="532.909574" xlink:href="#mf3fc0f08f2" y="275.845987"/>
     <use style="fill:#a8ff04;stroke:#a8ff04;" x="554.083408" xlink:href="#mf3fc0f08f2" y="295.09299"/>
     <use style="fill:#a8ff04;stroke:#a8ff04;" x="575.257241" xlink:href="#mf3fc0f08f2" y="254.392715"/>
     <use style="fill:#a8ff04;stroke:#a8ff04;" x="596.431075" xlink:href="#mf3fc0f08f2" y="289.983599"/>
     <use style="fill:#a8ff04;stroke:#a8ff04;" x="617.604908" xlink:href="#mf3fc0f08f2" y="265.169494"/>
     <use style="fill:#a8ff04;stroke:#a8ff04;" x="638.778741" xlink:href="#mf3fc0f08f2" y="276.079986"/>
     <use style="fill:#a8ff04;stroke:#a8ff04;" x="659.952575" xlink:href="#mf3fc0f08f2" y="281.708802"/>
     <use style="fill:#a8ff04;stroke:#a8ff04;" x="681.126408" xlink:href="#mf3fc0f08f2" y="249.252467"/>
     <use style="fill:#a8ff04;stroke:#a8ff04;" x="702.300242" xlink:href="#mf3fc0f08f2" y="287.029049"/>
     <use style="fill:#a8ff04;stroke:#a8ff04;" x="723.474075" xlink:href="#mf3fc0f08f2" y="270.286599"/>
     <use style="fill:#a8ff04;stroke:#a8ff04;" x="744.647909" xlink:href="#mf3fc0f08f2" y="260.589813"/>
     <use style="fill:#a8ff04;stroke:#a8ff04;" x="765.821742" xlink:href="#mf3fc0f08f2" y="287.9059"/>
     <use style="fill:#a8ff04;stroke:#a8ff04;" x="786.995575" xlink:href="#mf3fc0f08f2" y="276.195699"/>
     <use style="fill:#a8ff04;stroke:#a8ff04;" x="808.169409" xlink:href="#mf3fc0f08f2" y="254.793855"/>
     <use style="fill:#a8ff04;stroke:#a8ff04;" x="829.343242" xlink:href="#mf3fc0f08f2" y="321.280228"/>
     <use style="fill:#a8ff04;stroke:#a8ff04;" x="850.517076" xlink:href="#mf3fc0f08f2" y="292.107583"/>
     <use style="fill:#a8ff04;stroke:#a8ff04;" x="871.690909" xlink:href="#mf3fc0f08f2" y="259.900675"/>
    </g>
   </g>
   <g id="patch_3">
    <path d="M 126 448.56 
L 126 60.48 
" style="fill:none;stroke:#000000;stroke-linecap:square;stroke-linejoin:miter;stroke-width:0.8;"/>
   </g>
   <g id="patch_4">
    <path d="M 907.2 448.56 
L 907.2 60.48 
" style="fill:none;stroke:#000000;stroke-linecap:square;stroke-linejoin:miter;stroke-width:0.8;"/>
   </g>
   <g id="patch_5">
    <path d="M 126 448.56 
L 907.2 448.56 
" style="fill:none;stroke:#000000;stroke-linecap:square;stroke-linejoin:miter;stroke-width:0.8;"/>
   </g>
   <g id="patch_6">
    <path d="M 126 60.48 
L 907.2 60.48 
" style="fill:none;stroke:#000000;stroke-linecap:square;stroke-linejoin:miter;stroke-width:0.8;"/>
   </g>
  </g>
  <g id="text_16">
   <!-- GFI for the chunks of size 20 of document -->
   <defs>
    <path d="M 9.421875 54.6875 
L 18.40625 54.6875 
L 18.40625 0 
L 9.421875 0 
z
M 9.421875 75.984375 
L 18.40625 75.984375 
L 18.40625 64.59375 
L 9.421875 64.59375 
z
" id="DejaVuSans-105"/>
    <path d="M 5.515625 54.6875 
L 48.1875 54.6875 
L 48.1875 46.484375 
L 14.40625 7.171875 
L 48.1875 7.171875 
L 48.1875 0 
L 4.296875 0 
L 4.296875 8.203125 
L 38.09375 47.515625 
L 5.515625 47.515625 
z
" id="DejaVuSans-122"/>
   </defs>
   <g transform="translate(357.424375 20.717812)scale(0.14 -0.14)">
    <use xlink:href="#DejaVuSans-71"/>
    <use x="77.490234" xlink:href="#DejaVuSans-70"/>
    <use x="135.009766" xlink:href="#DejaVuSans-73"/>
    <use x="164.501953" xlink:href="#DejaVuSans-32"/>
    <use x="196.289062" xlink:href="#DejaVuSans-102"/>
    <use x="231.494141" xlink:href="#DejaVuSans-111"/>
    <use x="292.675781" xlink:href="#DejaVuSans-114"/>
    <use x="333.789062" xlink:href="#DejaVuSans-32"/>
    <use x="365.576172" xlink:href="#DejaVuSans-116"/>
    <use x="404.785156" xlink:href="#DejaVuSans-104"/>
    <use x="468.164062" xlink:href="#DejaVuSans-101"/>
    <use x="529.6875" xlink:href="#DejaVuSans-32"/>
    <use x="561.474609" xlink:href="#DejaVuSans-99"/>
    <use x="616.455078" xlink:href="#DejaVuSans-104"/>
    <use x="679.833984" xlink:href="#DejaVuSans-117"/>
    <use x="743.212891" xlink:href="#DejaVuSans-110"/>
    <use x="806.591797" xlink:href="#DejaVuSans-107"/>
    <use x="864.501953" xlink:href="#DejaVuSans-115"/>
    <use x="916.601562" xlink:href="#DejaVuSans-32"/>
    <use x="948.388672" xlink:href="#DejaVuSans-111"/>
    <use x="1009.570312" xlink:href="#DejaVuSans-102"/>
    <use x="1044.775391" xlink:href="#DejaVuSans-32"/>
    <use x="1076.5625" xlink:href="#DejaVuSans-115"/>
    <use x="1128.662109" xlink:href="#DejaVuSans-105"/>
    <use x="1156.445312" xlink:href="#DejaVuSans-122"/>
    <use x="1208.935547" xlink:href="#DejaVuSans-101"/>
    <use x="1270.458984" xlink:href="#DejaVuSans-32"/>
    <use x="1302.246094" xlink:href="#DejaVuSans-50"/>
    <use x="1365.869141" xlink:href="#DejaVuSans-48"/>
    <use x="1429.492188" xlink:href="#DejaVuSans-32"/>
    <use x="1461.279297" xlink:href="#DejaVuSans-111"/>
    <use x="1522.460938" xlink:href="#DejaVuSans-102"/>
    <use x="1557.666016" xlink:href="#DejaVuSans-32"/>
    <use x="1589.453125" xlink:href="#DejaVuSans-100"/>
    <use x="1652.929688" xlink:href="#DejaVuSans-111"/>
    <use x="1714.111328" xlink:href="#DejaVuSans-99"/>
    <use x="1769.091797" xlink:href="#DejaVuSans-117"/>
    <use x="1832.470703" xlink:href="#DejaVuSans-109"/>
    <use x="1929.882812" xlink:href="#DejaVuSans-101"/>
    <use x="1991.40625" xlink:href="#DejaVuSans-110"/>
    <use x="2054.785156" xlink:href="#DejaVuSans-116"/>
   </g>
  </g>
 </g>
 <defs>
  <clipPath id="p625d559b08">
   <rect height="388.08" width="781.2" x="126" y="60.48"/>
  </clipPath>
 </defs>
</svg>
