<?xml version="1.0" encoding="utf-8" standalone="no"?>
<!DOCTYPE svg PUBLIC "-//W3C//DTD SVG 1.1//EN"
  "http://www.w3.org/Graphics/SVG/1.1/DTD/svg11.dtd">
<!-- Created with matplotlib (https://matplotlib.org/) -->
<svg height="436.33625pt" version="1.1" viewBox="0 0 832.503125 436.33625" width="832.503125pt" xmlns="http://www.w3.org/2000/svg" xmlns:xlink="http://www.w3.org/1999/xlink">
 <defs>
  <style type="text/css">
*{stroke-linecap:butt;stroke-linejoin:round;}
  </style>
 </defs>
 <g id="figure_1">
  <g id="patch_1">
   <path d="M 0 436.33625 
L 832.503125 436.33625 
L 832.503125 0 
L 0 0 
z
" style="fill:#ffffff;"/>
  </g>
  <g id="axes_1">
   <g id="patch_2">
    <path d="M 40.603125 398.78 
L 821.803125 398.78 
L 821.803125 10.7 
L 40.603125 10.7 
z
" style="fill:#ffffff;"/>
   </g>
   <g id="matplotlib.axis_1">
    <g id="xtick_1">
     <g id="line2d_1">
      <defs>
       <path d="M 0 0 
L 0 3.5 
" id="mbb7275abef" style="stroke:#000000;stroke-width:0.8;"/>
      </defs>
      <g>
       <use style="stroke:#000000;stroke-width:0.8;" x="66.383698" xlink:href="#mbb7275abef" y="398.78"/>
      </g>
     </g>
     <g id="text_1">
      <!-- 0 -->
      <defs>
       <path d="M 31.78125 66.40625 
Q 24.171875 66.40625 20.328125 58.90625 
Q 16.5 51.421875 16.5 36.375 
Q 16.5 21.390625 20.328125 13.890625 
Q 24.171875 6.390625 31.78125 6.390625 
Q 39.453125 6.390625 43.28125 13.890625 
Q 47.125 21.390625 47.125 36.375 
Q 47.125 51.421875 43.28125 58.90625 
Q 39.453125 66.40625 31.78125 66.40625 
z
M 31.78125 74.21875 
Q 44.046875 74.21875 50.515625 64.515625 
Q 56.984375 54.828125 56.984375 36.375 
Q 56.984375 17.96875 50.515625 8.265625 
Q 44.046875 -1.421875 31.78125 -1.421875 
Q 19.53125 -1.421875 13.0625 8.265625 
Q 6.59375 17.96875 6.59375 36.375 
Q 6.59375 54.828125 13.0625 64.515625 
Q 19.53125 74.21875 31.78125 74.21875 
z
" id="DejaVuSans-48"/>
      </defs>
      <g transform="translate(63.202448 413.378437)scale(0.1 -0.1)">
       <use xlink:href="#DejaVuSans-48"/>
      </g>
     </g>
    </g>
    <g id="xtick_2">
     <g id="line2d_2">
      <g>
       <use style="stroke:#000000;stroke-width:0.8;" x="210.365765" xlink:href="#mbb7275abef" y="398.78"/>
      </g>
     </g>
     <g id="text_2">
      <!-- 20 -->
      <defs>
       <path d="M 19.1875 8.296875 
L 53.609375 8.296875 
L 53.609375 0 
L 7.328125 0 
L 7.328125 8.296875 
Q 12.9375 14.109375 22.625 23.890625 
Q 32.328125 33.6875 34.8125 36.53125 
Q 39.546875 41.84375 41.421875 45.53125 
Q 43.3125 49.21875 43.3125 52.78125 
Q 43.3125 58.59375 39.234375 62.25 
Q 35.15625 65.921875 28.609375 65.921875 
Q 23.96875 65.921875 18.8125 64.3125 
Q 13.671875 62.703125 7.8125 59.421875 
L 7.8125 69.390625 
Q 13.765625 71.78125 18.9375 73 
Q 24.125 74.21875 28.421875 74.21875 
Q 39.75 74.21875 46.484375 68.546875 
Q 53.21875 62.890625 53.21875 53.421875 
Q 53.21875 48.921875 51.53125 44.890625 
Q 49.859375 40.875 45.40625 35.40625 
Q 44.1875 33.984375 37.640625 27.21875 
Q 31.109375 20.453125 19.1875 8.296875 
z
" id="DejaVuSans-50"/>
      </defs>
      <g transform="translate(204.003265 413.378437)scale(0.1 -0.1)">
       <use xlink:href="#DejaVuSans-50"/>
       <use x="63.623047" xlink:href="#DejaVuSans-48"/>
      </g>
     </g>
    </g>
    <g id="xtick_3">
     <g id="line2d_3">
      <g>
       <use style="stroke:#000000;stroke-width:0.8;" x="354.347832" xlink:href="#mbb7275abef" y="398.78"/>
      </g>
     </g>
     <g id="text_3">
      <!-- 40 -->
      <defs>
       <path d="M 37.796875 64.3125 
L 12.890625 25.390625 
L 37.796875 25.390625 
z
M 35.203125 72.90625 
L 47.609375 72.90625 
L 47.609375 25.390625 
L 58.015625 25.390625 
L 58.015625 17.1875 
L 47.609375 17.1875 
L 47.609375 0 
L 37.796875 0 
L 37.796875 17.1875 
L 4.890625 17.1875 
L 4.890625 26.703125 
z
" id="DejaVuSans-52"/>
      </defs>
      <g transform="translate(347.985332 413.378437)scale(0.1 -0.1)">
       <use xlink:href="#DejaVuSans-52"/>
       <use x="63.623047" xlink:href="#DejaVuSans-48"/>
      </g>
     </g>
    </g>
    <g id="xtick_4">
     <g id="line2d_4">
      <g>
       <use style="stroke:#000000;stroke-width:0.8;" x="498.3299" xlink:href="#mbb7275abef" y="398.78"/>
      </g>
     </g>
     <g id="text_4">
      <!-- 60 -->
      <defs>
       <path d="M 33.015625 40.375 
Q 26.375 40.375 22.484375 35.828125 
Q 18.609375 31.296875 18.609375 23.390625 
Q 18.609375 15.53125 22.484375 10.953125 
Q 26.375 6.390625 33.015625 6.390625 
Q 39.65625 6.390625 43.53125 10.953125 
Q 47.40625 15.53125 47.40625 23.390625 
Q 47.40625 31.296875 43.53125 35.828125 
Q 39.65625 40.375 33.015625 40.375 
z
M 52.59375 71.296875 
L 52.59375 62.3125 
Q 48.875 64.0625 45.09375 64.984375 
Q 41.3125 65.921875 37.59375 65.921875 
Q 27.828125 65.921875 22.671875 59.328125 
Q 17.53125 52.734375 16.796875 39.40625 
Q 19.671875 43.65625 24.015625 45.921875 
Q 28.375 48.1875 33.59375 48.1875 
Q 44.578125 48.1875 50.953125 41.515625 
Q 57.328125 34.859375 57.328125 23.390625 
Q 57.328125 12.15625 50.6875 5.359375 
Q 44.046875 -1.421875 33.015625 -1.421875 
Q 20.359375 -1.421875 13.671875 8.265625 
Q 6.984375 17.96875 6.984375 36.375 
Q 6.984375 53.65625 15.1875 63.9375 
Q 23.390625 74.21875 37.203125 74.21875 
Q 40.921875 74.21875 44.703125 73.484375 
Q 48.484375 72.75 52.59375 71.296875 
z
" id="DejaVuSans-54"/>
      </defs>
      <g transform="translate(491.9674 413.378437)scale(0.1 -0.1)">
       <use xlink:href="#DejaVuSans-54"/>
       <use x="63.623047" xlink:href="#DejaVuSans-48"/>
      </g>
     </g>
    </g>
    <g id="xtick_5">
     <g id="line2d_5">
      <g>
       <use style="stroke:#000000;stroke-width:0.8;" x="642.311967" xlink:href="#mbb7275abef" y="398.78"/>
      </g>
     </g>
     <g id="text_5">
      <!-- 80 -->
      <defs>
       <path d="M 31.78125 34.625 
Q 24.75 34.625 20.71875 30.859375 
Q 16.703125 27.09375 16.703125 20.515625 
Q 16.703125 13.921875 20.71875 10.15625 
Q 24.75 6.390625 31.78125 6.390625 
Q 38.8125 6.390625 42.859375 10.171875 
Q 46.921875 13.96875 46.921875 20.515625 
Q 46.921875 27.09375 42.890625 30.859375 
Q 38.875 34.625 31.78125 34.625 
z
M 21.921875 38.8125 
Q 15.578125 40.375 12.03125 44.71875 
Q 8.5 49.078125 8.5 55.328125 
Q 8.5 64.0625 14.71875 69.140625 
Q 20.953125 74.21875 31.78125 74.21875 
Q 42.671875 74.21875 48.875 69.140625 
Q 55.078125 64.0625 55.078125 55.328125 
Q 55.078125 49.078125 51.53125 44.71875 
Q 48 40.375 41.703125 38.8125 
Q 48.828125 37.15625 52.796875 32.3125 
Q 56.78125 27.484375 56.78125 20.515625 
Q 56.78125 9.90625 50.3125 4.234375 
Q 43.84375 -1.421875 31.78125 -1.421875 
Q 19.734375 -1.421875 13.25 4.234375 
Q 6.78125 9.90625 6.78125 20.515625 
Q 6.78125 27.484375 10.78125 32.3125 
Q 14.796875 37.15625 21.921875 38.8125 
z
M 18.3125 54.390625 
Q 18.3125 48.734375 21.84375 45.5625 
Q 25.390625 42.390625 31.78125 42.390625 
Q 38.140625 42.390625 41.71875 45.5625 
Q 45.3125 48.734375 45.3125 54.390625 
Q 45.3125 60.0625 41.71875 63.234375 
Q 38.140625 66.40625 31.78125 66.40625 
Q 25.390625 66.40625 21.84375 63.234375 
Q 18.3125 60.0625 18.3125 54.390625 
z
" id="DejaVuSans-56"/>
      </defs>
      <g transform="translate(635.949467 413.378437)scale(0.1 -0.1)">
       <use xlink:href="#DejaVuSans-56"/>
       <use x="63.623047" xlink:href="#DejaVuSans-48"/>
      </g>
     </g>
    </g>
    <g id="xtick_6">
     <g id="line2d_6">
      <g>
       <use style="stroke:#000000;stroke-width:0.8;" x="786.294034" xlink:href="#mbb7275abef" y="398.78"/>
      </g>
     </g>
     <g id="text_6">
      <!-- 100 -->
      <defs>
       <path d="M 12.40625 8.296875 
L 28.515625 8.296875 
L 28.515625 63.921875 
L 10.984375 60.40625 
L 10.984375 69.390625 
L 28.421875 72.90625 
L 38.28125 72.90625 
L 38.28125 8.296875 
L 54.390625 8.296875 
L 54.390625 0 
L 12.40625 0 
z
" id="DejaVuSans-49"/>
      </defs>
      <g transform="translate(776.750284 413.378437)scale(0.1 -0.1)">
       <use xlink:href="#DejaVuSans-49"/>
       <use x="63.623047" xlink:href="#DejaVuSans-48"/>
       <use x="127.246094" xlink:href="#DejaVuSans-48"/>
      </g>
     </g>
    </g>
    <g id="text_7">
     <!-- document's percentage of the chunk's end -->
     <defs>
      <path d="M 45.40625 46.390625 
L 45.40625 75.984375 
L 54.390625 75.984375 
L 54.390625 0 
L 45.40625 0 
L 45.40625 8.203125 
Q 42.578125 3.328125 38.25 0.953125 
Q 33.9375 -1.421875 27.875 -1.421875 
Q 17.96875 -1.421875 11.734375 6.484375 
Q 5.515625 14.40625 5.515625 27.296875 
Q 5.515625 40.1875 11.734375 48.09375 
Q 17.96875 56 27.875 56 
Q 33.9375 56 38.25 53.625 
Q 42.578125 51.265625 45.40625 46.390625 
z
M 14.796875 27.296875 
Q 14.796875 17.390625 18.875 11.75 
Q 22.953125 6.109375 30.078125 6.109375 
Q 37.203125 6.109375 41.296875 11.75 
Q 45.40625 17.390625 45.40625 27.296875 
Q 45.40625 37.203125 41.296875 42.84375 
Q 37.203125 48.484375 30.078125 48.484375 
Q 22.953125 48.484375 18.875 42.84375 
Q 14.796875 37.203125 14.796875 27.296875 
z
" id="DejaVuSans-100"/>
      <path d="M 30.609375 48.390625 
Q 23.390625 48.390625 19.1875 42.75 
Q 14.984375 37.109375 14.984375 27.296875 
Q 14.984375 17.484375 19.15625 11.84375 
Q 23.34375 6.203125 30.609375 6.203125 
Q 37.796875 6.203125 41.984375 11.859375 
Q 46.1875 17.53125 46.1875 27.296875 
Q 46.1875 37.015625 41.984375 42.703125 
Q 37.796875 48.390625 30.609375 48.390625 
z
M 30.609375 56 
Q 42.328125 56 49.015625 48.375 
Q 55.71875 40.765625 55.71875 27.296875 
Q 55.71875 13.875 49.015625 6.21875 
Q 42.328125 -1.421875 30.609375 -1.421875 
Q 18.84375 -1.421875 12.171875 6.21875 
Q 5.515625 13.875 5.515625 27.296875 
Q 5.515625 40.765625 12.171875 48.375 
Q 18.84375 56 30.609375 56 
z
" id="DejaVuSans-111"/>
      <path d="M 48.78125 52.59375 
L 48.78125 44.1875 
Q 44.96875 46.296875 41.140625 47.34375 
Q 37.3125 48.390625 33.40625 48.390625 
Q 24.65625 48.390625 19.8125 42.84375 
Q 14.984375 37.3125 14.984375 27.296875 
Q 14.984375 17.28125 19.8125 11.734375 
Q 24.65625 6.203125 33.40625 6.203125 
Q 37.3125 6.203125 41.140625 7.25 
Q 44.96875 8.296875 48.78125 10.40625 
L 48.78125 2.09375 
Q 45.015625 0.34375 40.984375 -0.53125 
Q 36.96875 -1.421875 32.421875 -1.421875 
Q 20.0625 -1.421875 12.78125 6.34375 
Q 5.515625 14.109375 5.515625 27.296875 
Q 5.515625 40.671875 12.859375 48.328125 
Q 20.21875 56 33.015625 56 
Q 37.15625 56 41.109375 55.140625 
Q 45.0625 54.296875 48.78125 52.59375 
z
" id="DejaVuSans-99"/>
      <path d="M 8.5 21.578125 
L 8.5 54.6875 
L 17.484375 54.6875 
L 17.484375 21.921875 
Q 17.484375 14.15625 20.5 10.265625 
Q 23.53125 6.390625 29.59375 6.390625 
Q 36.859375 6.390625 41.078125 11.03125 
Q 45.3125 15.671875 45.3125 23.6875 
L 45.3125 54.6875 
L 54.296875 54.6875 
L 54.296875 0 
L 45.3125 0 
L 45.3125 8.40625 
Q 42.046875 3.421875 37.71875 1 
Q 33.40625 -1.421875 27.6875 -1.421875 
Q 18.265625 -1.421875 13.375 4.4375 
Q 8.5 10.296875 8.5 21.578125 
z
M 31.109375 56 
z
" id="DejaVuSans-117"/>
      <path d="M 52 44.1875 
Q 55.375 50.25 60.0625 53.125 
Q 64.75 56 71.09375 56 
Q 79.640625 56 84.28125 50.015625 
Q 88.921875 44.046875 88.921875 33.015625 
L 88.921875 0 
L 79.890625 0 
L 79.890625 32.71875 
Q 79.890625 40.578125 77.09375 44.375 
Q 74.3125 48.1875 68.609375 48.1875 
Q 61.625 48.1875 57.5625 43.546875 
Q 53.515625 38.921875 53.515625 30.90625 
L 53.515625 0 
L 44.484375 0 
L 44.484375 32.71875 
Q 44.484375 40.625 41.703125 44.40625 
Q 38.921875 48.1875 33.109375 48.1875 
Q 26.21875 48.1875 22.15625 43.53125 
Q 18.109375 38.875 18.109375 30.90625 
L 18.109375 0 
L 9.078125 0 
L 9.078125 54.6875 
L 18.109375 54.6875 
L 18.109375 46.1875 
Q 21.1875 51.21875 25.484375 53.609375 
Q 29.78125 56 35.6875 56 
Q 41.65625 56 45.828125 52.96875 
Q 50 49.953125 52 44.1875 
z
" id="DejaVuSans-109"/>
      <path d="M 56.203125 29.59375 
L 56.203125 25.203125 
L 14.890625 25.203125 
Q 15.484375 15.921875 20.484375 11.0625 
Q 25.484375 6.203125 34.421875 6.203125 
Q 39.59375 6.203125 44.453125 7.46875 
Q 49.3125 8.734375 54.109375 11.28125 
L 54.109375 2.78125 
Q 49.265625 0.734375 44.1875 -0.34375 
Q 39.109375 -1.421875 33.890625 -1.421875 
Q 20.796875 -1.421875 13.15625 6.1875 
Q 5.515625 13.8125 5.515625 26.8125 
Q 5.515625 40.234375 12.765625 48.109375 
Q 20.015625 56 32.328125 56 
Q 43.359375 56 49.78125 48.890625 
Q 56.203125 41.796875 56.203125 29.59375 
z
M 47.21875 32.234375 
Q 47.125 39.59375 43.09375 43.984375 
Q 39.0625 48.390625 32.421875 48.390625 
Q 24.90625 48.390625 20.390625 44.140625 
Q 15.875 39.890625 15.1875 32.171875 
z
" id="DejaVuSans-101"/>
      <path d="M 54.890625 33.015625 
L 54.890625 0 
L 45.90625 0 
L 45.90625 32.71875 
Q 45.90625 40.484375 42.875 44.328125 
Q 39.84375 48.1875 33.796875 48.1875 
Q 26.515625 48.1875 22.3125 43.546875 
Q 18.109375 38.921875 18.109375 30.90625 
L 18.109375 0 
L 9.078125 0 
L 9.078125 54.6875 
L 18.109375 54.6875 
L 18.109375 46.1875 
Q 21.34375 51.125 25.703125 53.5625 
Q 30.078125 56 35.796875 56 
Q 45.21875 56 50.046875 50.171875 
Q 54.890625 44.34375 54.890625 33.015625 
z
" id="DejaVuSans-110"/>
      <path d="M 18.3125 70.21875 
L 18.3125 54.6875 
L 36.8125 54.6875 
L 36.8125 47.703125 
L 18.3125 47.703125 
L 18.3125 18.015625 
Q 18.3125 11.328125 20.140625 9.421875 
Q 21.96875 7.515625 27.59375 7.515625 
L 36.8125 7.515625 
L 36.8125 0 
L 27.59375 0 
Q 17.1875 0 13.234375 3.875 
Q 9.28125 7.765625 9.28125 18.015625 
L 9.28125 47.703125 
L 2.6875 47.703125 
L 2.6875 54.6875 
L 9.28125 54.6875 
L 9.28125 70.21875 
z
" id="DejaVuSans-116"/>
      <path d="M 17.921875 72.90625 
L 17.921875 45.796875 
L 9.625 45.796875 
L 9.625 72.90625 
z
" id="DejaVuSans-39"/>
      <path d="M 44.28125 53.078125 
L 44.28125 44.578125 
Q 40.484375 46.53125 36.375 47.5 
Q 32.28125 48.484375 27.875 48.484375 
Q 21.1875 48.484375 17.84375 46.4375 
Q 14.5 44.390625 14.5 40.28125 
Q 14.5 37.15625 16.890625 35.375 
Q 19.28125 33.59375 26.515625 31.984375 
L 29.59375 31.296875 
Q 39.15625 29.25 43.1875 25.515625 
Q 47.21875 21.78125 47.21875 15.09375 
Q 47.21875 7.46875 41.1875 3.015625 
Q 35.15625 -1.421875 24.609375 -1.421875 
Q 20.21875 -1.421875 15.453125 -0.5625 
Q 10.6875 0.296875 5.421875 2 
L 5.421875 11.28125 
Q 10.40625 8.6875 15.234375 7.390625 
Q 20.0625 6.109375 24.8125 6.109375 
Q 31.15625 6.109375 34.5625 8.28125 
Q 37.984375 10.453125 37.984375 14.40625 
Q 37.984375 18.0625 35.515625 20.015625 
Q 33.0625 21.96875 24.703125 23.78125 
L 21.578125 24.515625 
Q 13.234375 26.265625 9.515625 29.90625 
Q 5.8125 33.546875 5.8125 39.890625 
Q 5.8125 47.609375 11.28125 51.796875 
Q 16.75 56 26.8125 56 
Q 31.78125 56 36.171875 55.265625 
Q 40.578125 54.546875 44.28125 53.078125 
z
" id="DejaVuSans-115"/>
      <path id="DejaVuSans-32"/>
      <path d="M 18.109375 8.203125 
L 18.109375 -20.796875 
L 9.078125 -20.796875 
L 9.078125 54.6875 
L 18.109375 54.6875 
L 18.109375 46.390625 
Q 20.953125 51.265625 25.265625 53.625 
Q 29.59375 56 35.59375 56 
Q 45.5625 56 51.78125 48.09375 
Q 58.015625 40.1875 58.015625 27.296875 
Q 58.015625 14.40625 51.78125 6.484375 
Q 45.5625 -1.421875 35.59375 -1.421875 
Q 29.59375 -1.421875 25.265625 0.953125 
Q 20.953125 3.328125 18.109375 8.203125 
z
M 48.6875 27.296875 
Q 48.6875 37.203125 44.609375 42.84375 
Q 40.53125 48.484375 33.40625 48.484375 
Q 26.265625 48.484375 22.1875 42.84375 
Q 18.109375 37.203125 18.109375 27.296875 
Q 18.109375 17.390625 22.1875 11.75 
Q 26.265625 6.109375 33.40625 6.109375 
Q 40.53125 6.109375 44.609375 11.75 
Q 48.6875 17.390625 48.6875 27.296875 
z
" id="DejaVuSans-112"/>
      <path d="M 41.109375 46.296875 
Q 39.59375 47.171875 37.8125 47.578125 
Q 36.03125 48 33.890625 48 
Q 26.265625 48 22.1875 43.046875 
Q 18.109375 38.09375 18.109375 28.8125 
L 18.109375 0 
L 9.078125 0 
L 9.078125 54.6875 
L 18.109375 54.6875 
L 18.109375 46.1875 
Q 20.953125 51.171875 25.484375 53.578125 
Q 30.03125 56 36.53125 56 
Q 37.453125 56 38.578125 55.875 
Q 39.703125 55.765625 41.0625 55.515625 
z
" id="DejaVuSans-114"/>
      <path d="M 34.28125 27.484375 
Q 23.390625 27.484375 19.1875 25 
Q 14.984375 22.515625 14.984375 16.5 
Q 14.984375 11.71875 18.140625 8.90625 
Q 21.296875 6.109375 26.703125 6.109375 
Q 34.1875 6.109375 38.703125 11.40625 
Q 43.21875 16.703125 43.21875 25.484375 
L 43.21875 27.484375 
z
M 52.203125 31.203125 
L 52.203125 0 
L 43.21875 0 
L 43.21875 8.296875 
Q 40.140625 3.328125 35.546875 0.953125 
Q 30.953125 -1.421875 24.3125 -1.421875 
Q 15.921875 -1.421875 10.953125 3.296875 
Q 6 8.015625 6 15.921875 
Q 6 25.140625 12.171875 29.828125 
Q 18.359375 34.515625 30.609375 34.515625 
L 43.21875 34.515625 
L 43.21875 35.40625 
Q 43.21875 41.609375 39.140625 45 
Q 35.0625 48.390625 27.6875 48.390625 
Q 23 48.390625 18.546875 47.265625 
Q 14.109375 46.140625 10.015625 43.890625 
L 10.015625 52.203125 
Q 14.9375 54.109375 19.578125 55.046875 
Q 24.21875 56 28.609375 56 
Q 40.484375 56 46.34375 49.84375 
Q 52.203125 43.703125 52.203125 31.203125 
z
" id="DejaVuSans-97"/>
      <path d="M 45.40625 27.984375 
Q 45.40625 37.75 41.375 43.109375 
Q 37.359375 48.484375 30.078125 48.484375 
Q 22.859375 48.484375 18.828125 43.109375 
Q 14.796875 37.75 14.796875 27.984375 
Q 14.796875 18.265625 18.828125 12.890625 
Q 22.859375 7.515625 30.078125 7.515625 
Q 37.359375 7.515625 41.375 12.890625 
Q 45.40625 18.265625 45.40625 27.984375 
z
M 54.390625 6.78125 
Q 54.390625 -7.171875 48.1875 -13.984375 
Q 42 -20.796875 29.203125 -20.796875 
Q 24.46875 -20.796875 20.265625 -20.09375 
Q 16.0625 -19.390625 12.109375 -17.921875 
L 12.109375 -9.1875 
Q 16.0625 -11.328125 19.921875 -12.34375 
Q 23.78125 -13.375 27.78125 -13.375 
Q 36.625 -13.375 41.015625 -8.765625 
Q 45.40625 -4.15625 45.40625 5.171875 
L 45.40625 9.625 
Q 42.625 4.78125 38.28125 2.390625 
Q 33.9375 0 27.875 0 
Q 17.828125 0 11.671875 7.65625 
Q 5.515625 15.328125 5.515625 27.984375 
Q 5.515625 40.671875 11.671875 48.328125 
Q 17.828125 56 27.875 56 
Q 33.9375 56 38.28125 53.609375 
Q 42.625 51.21875 45.40625 46.390625 
L 45.40625 54.6875 
L 54.390625 54.6875 
z
" id="DejaVuSans-103"/>
      <path d="M 37.109375 75.984375 
L 37.109375 68.5 
L 28.515625 68.5 
Q 23.6875 68.5 21.796875 66.546875 
Q 19.921875 64.59375 19.921875 59.515625 
L 19.921875 54.6875 
L 34.71875 54.6875 
L 34.71875 47.703125 
L 19.921875 47.703125 
L 19.921875 0 
L 10.890625 0 
L 10.890625 47.703125 
L 2.296875 47.703125 
L 2.296875 54.6875 
L 10.890625 54.6875 
L 10.890625 58.5 
Q 10.890625 67.625 15.140625 71.796875 
Q 19.390625 75.984375 28.609375 75.984375 
z
" id="DejaVuSans-102"/>
      <path d="M 54.890625 33.015625 
L 54.890625 0 
L 45.90625 0 
L 45.90625 32.71875 
Q 45.90625 40.484375 42.875 44.328125 
Q 39.84375 48.1875 33.796875 48.1875 
Q 26.515625 48.1875 22.3125 43.546875 
Q 18.109375 38.921875 18.109375 30.90625 
L 18.109375 0 
L 9.078125 0 
L 9.078125 75.984375 
L 18.109375 75.984375 
L 18.109375 46.1875 
Q 21.34375 51.125 25.703125 53.5625 
Q 30.078125 56 35.796875 56 
Q 45.21875 56 50.046875 50.171875 
Q 54.890625 44.34375 54.890625 33.015625 
z
" id="DejaVuSans-104"/>
      <path d="M 9.078125 75.984375 
L 18.109375 75.984375 
L 18.109375 31.109375 
L 44.921875 54.6875 
L 56.390625 54.6875 
L 27.390625 29.109375 
L 57.625 0 
L 45.90625 0 
L 18.109375 26.703125 
L 18.109375 0 
L 9.078125 0 
z
" id="DejaVuSans-107"/>
     </defs>
     <g transform="translate(323.903125 427.056562)scale(0.1 -0.1)">
      <use xlink:href="#DejaVuSans-100"/>
      <use x="63.476562" xlink:href="#DejaVuSans-111"/>
      <use x="124.658203" xlink:href="#DejaVuSans-99"/>
      <use x="179.638672" xlink:href="#DejaVuSans-117"/>
      <use x="243.017578" xlink:href="#DejaVuSans-109"/>
      <use x="340.429688" xlink:href="#DejaVuSans-101"/>
      <use x="401.953125" xlink:href="#DejaVuSans-110"/>
      <use x="465.332031" xlink:href="#DejaVuSans-116"/>
      <use x="504.541016" xlink:href="#DejaVuSans-39"/>
      <use x="532.03125" xlink:href="#DejaVuSans-115"/>
      <use x="584.130859" xlink:href="#DejaVuSans-32"/>
      <use x="615.917969" xlink:href="#DejaVuSans-112"/>
      <use x="679.394531" xlink:href="#DejaVuSans-101"/>
      <use x="740.917969" xlink:href="#DejaVuSans-114"/>
      <use x="782" xlink:href="#DejaVuSans-99"/>
      <use x="836.980469" xlink:href="#DejaVuSans-101"/>
      <use x="898.503906" xlink:href="#DejaVuSans-110"/>
      <use x="961.882812" xlink:href="#DejaVuSans-116"/>
      <use x="1001.091797" xlink:href="#DejaVuSans-97"/>
      <use x="1062.371094" xlink:href="#DejaVuSans-103"/>
      <use x="1125.847656" xlink:href="#DejaVuSans-101"/>
      <use x="1187.371094" xlink:href="#DejaVuSans-32"/>
      <use x="1219.158203" xlink:href="#DejaVuSans-111"/>
      <use x="1280.339844" xlink:href="#DejaVuSans-102"/>
      <use x="1315.544922" xlink:href="#DejaVuSans-32"/>
      <use x="1347.332031" xlink:href="#DejaVuSans-116"/>
      <use x="1386.541016" xlink:href="#DejaVuSans-104"/>
      <use x="1449.919922" xlink:href="#DejaVuSans-101"/>
      <use x="1511.443359" xlink:href="#DejaVuSans-32"/>
      <use x="1543.230469" xlink:href="#DejaVuSans-99"/>
      <use x="1598.210938" xlink:href="#DejaVuSans-104"/>
      <use x="1661.589844" xlink:href="#DejaVuSans-117"/>
      <use x="1724.96875" xlink:href="#DejaVuSans-110"/>
      <use x="1788.347656" xlink:href="#DejaVuSans-107"/>
      <use x="1846.257812" xlink:href="#DejaVuSans-39"/>
      <use x="1873.748047" xlink:href="#DejaVuSans-115"/>
      <use x="1925.847656" xlink:href="#DejaVuSans-32"/>
      <use x="1957.634766" xlink:href="#DejaVuSans-101"/>
      <use x="2019.158203" xlink:href="#DejaVuSans-110"/>
      <use x="2082.537109" xlink:href="#DejaVuSans-100"/>
     </g>
    </g>
   </g>
   <g id="matplotlib.axis_2">
    <g id="ytick_1">
     <g id="line2d_7">
      <defs>
       <path d="M 0 0 
L -3.5 0 
" id="m51d9569646" style="stroke:#000000;stroke-width:0.8;"/>
      </defs>
      <g>
       <use style="stroke:#000000;stroke-width:0.8;" x="40.603125" xlink:href="#m51d9569646" y="356.886462"/>
      </g>
     </g>
     <g id="text_8">
      <!-- 10 -->
      <g transform="translate(20.878125 360.685681)scale(0.1 -0.1)">
       <use xlink:href="#DejaVuSans-49"/>
       <use x="63.623047" xlink:href="#DejaVuSans-48"/>
      </g>
     </g>
    </g>
    <g id="ytick_2">
     <g id="line2d_8">
      <g>
       <use style="stroke:#000000;stroke-width:0.8;" x="40.603125" xlink:href="#m51d9569646" y="305.458266"/>
      </g>
     </g>
     <g id="text_9">
      <!-- 12 -->
      <g transform="translate(20.878125 309.257485)scale(0.1 -0.1)">
       <use xlink:href="#DejaVuSans-49"/>
       <use x="63.623047" xlink:href="#DejaVuSans-50"/>
      </g>
     </g>
    </g>
    <g id="ytick_3">
     <g id="line2d_9">
      <g>
       <use style="stroke:#000000;stroke-width:0.8;" x="40.603125" xlink:href="#m51d9569646" y="254.030069"/>
      </g>
     </g>
     <g id="text_10">
      <!-- 14 -->
      <g transform="translate(20.878125 257.829288)scale(0.1 -0.1)">
       <use xlink:href="#DejaVuSans-49"/>
       <use x="63.623047" xlink:href="#DejaVuSans-52"/>
      </g>
     </g>
    </g>
    <g id="ytick_4">
     <g id="line2d_10">
      <g>
       <use style="stroke:#000000;stroke-width:0.8;" x="40.603125" xlink:href="#m51d9569646" y="202.601873"/>
      </g>
     </g>
     <g id="text_11">
      <!-- 16 -->
      <g transform="translate(20.878125 206.401091)scale(0.1 -0.1)">
       <use xlink:href="#DejaVuSans-49"/>
       <use x="63.623047" xlink:href="#DejaVuSans-54"/>
      </g>
     </g>
    </g>
    <g id="ytick_5">
     <g id="line2d_11">
      <g>
       <use style="stroke:#000000;stroke-width:0.8;" x="40.603125" xlink:href="#m51d9569646" y="151.173676"/>
      </g>
     </g>
     <g id="text_12">
      <!-- 18 -->
      <g transform="translate(20.878125 154.972895)scale(0.1 -0.1)">
       <use xlink:href="#DejaVuSans-49"/>
       <use x="63.623047" xlink:href="#DejaVuSans-56"/>
      </g>
     </g>
    </g>
    <g id="ytick_6">
     <g id="line2d_12">
      <g>
       <use style="stroke:#000000;stroke-width:0.8;" x="40.603125" xlink:href="#m51d9569646" y="99.74548"/>
      </g>
     </g>
     <g id="text_13">
      <!-- 20 -->
      <g transform="translate(20.878125 103.544698)scale(0.1 -0.1)">
       <use xlink:href="#DejaVuSans-50"/>
       <use x="63.623047" xlink:href="#DejaVuSans-48"/>
      </g>
     </g>
    </g>
    <g id="ytick_7">
     <g id="line2d_13">
      <g>
       <use style="stroke:#000000;stroke-width:0.8;" x="40.603125" xlink:href="#m51d9569646" y="48.317283"/>
      </g>
     </g>
     <g id="text_14">
      <!-- 22 -->
      <g transform="translate(20.878125 52.116502)scale(0.1 -0.1)">
       <use xlink:href="#DejaVuSans-50"/>
       <use x="63.623047" xlink:href="#DejaVuSans-50"/>
      </g>
     </g>
    </g>
    <g id="text_15">
     <!-- GFI -->
     <defs>
      <path d="M 59.515625 10.40625 
L 59.515625 29.984375 
L 43.40625 29.984375 
L 43.40625 38.09375 
L 69.28125 38.09375 
L 69.28125 6.78125 
Q 63.578125 2.734375 56.6875 0.65625 
Q 49.8125 -1.421875 42 -1.421875 
Q 24.90625 -1.421875 15.25 8.5625 
Q 5.609375 18.5625 5.609375 36.375 
Q 5.609375 54.25 15.25 64.234375 
Q 24.90625 74.21875 42 74.21875 
Q 49.125 74.21875 55.546875 72.453125 
Q 61.96875 70.703125 67.390625 67.28125 
L 67.390625 56.78125 
Q 61.921875 61.421875 55.765625 63.765625 
Q 49.609375 66.109375 42.828125 66.109375 
Q 29.4375 66.109375 22.71875 58.640625 
Q 16.015625 51.171875 16.015625 36.375 
Q 16.015625 21.625 22.71875 14.15625 
Q 29.4375 6.6875 42.828125 6.6875 
Q 48.046875 6.6875 52.140625 7.59375 
Q 56.25 8.5 59.515625 10.40625 
z
" id="DejaVuSans-71"/>
      <path d="M 9.8125 72.90625 
L 51.703125 72.90625 
L 51.703125 64.59375 
L 19.671875 64.59375 
L 19.671875 43.109375 
L 48.578125 43.109375 
L 48.578125 34.8125 
L 19.671875 34.8125 
L 19.671875 0 
L 9.8125 0 
z
" id="DejaVuSans-70"/>
      <path d="M 9.8125 72.90625 
L 19.671875 72.90625 
L 19.671875 0 
L 9.8125 0 
z
" id="DejaVuSans-73"/>
     </defs>
     <g transform="translate(14.798438 212.965)rotate(-90)scale(0.1 -0.1)">
      <use xlink:href="#DejaVuSans-71"/>
      <use x="77.490234" xlink:href="#DejaVuSans-70"/>
      <use x="135.009766" xlink:href="#DejaVuSans-73"/>
     </g>
    </g>
   </g>
   <g id="line2d_14">
    <path clip-path="url(#p498899e5b1)" d="M 76.112216 248.254683 
L 85.840734 208.145832 
L 95.569252 103.875164 
L 105.29777 296.990613 
L 115.026288 256.305767 
L 124.754806 272.541649 
L 134.483324 204.32986 
L 144.211842 306.535687 
L 153.94036 251.571802 
L 163.668878 197.469339 
L 173.397396 223.065152 
L 183.125915 142.618596 
L 192.854433 253.924642 
L 202.582951 215.268638 
L 212.311469 151.726529 
L 222.039987 155.370217 
L 231.768505 185.000572 
L 241.497023 278.574176 
L 251.225541 194.625359 
L 260.954059 182.544876 
L 270.682577 238.133614 
L 280.411095 223.561434 
L 290.139613 171.721812 
L 299.868131 222.602298 
L 309.596649 244.72928 
L 319.325167 252.939792 
L 329.053685 286.928687 
L 338.782203 245.865843 
L 348.510722 270.201666 
L 358.23924 313.85649 
L 367.967758 282.225578 
L 377.696276 138.180342 
L 387.424794 145.282576 
L 397.153312 378.854017 
L 406.88183 28.34 
L 416.610348 294.874343 
L 426.338866 234.883352 
L 436.067384 199.82475 
L 445.795902 289.710952 
L 455.52442 248.383253 
L 465.252938 204.841571 
L 474.981456 293.087213 
L 484.709974 263.158574 
L 494.438492 291.359226 
L 504.16701 288.422676 
L 513.895528 221.977446 
L 523.624047 381.14 
L 533.352565 342.594567 
L 543.081083 287.527825 
L 552.809601 302.210575 
L 562.538119 261.806013 
L 572.266637 172.212951 
L 581.995155 217.140624 
L 591.723673 231.890231 
L 601.452191 283.264428 
L 611.180709 271.4128 
L 620.909227 225.744561 
L 630.637745 240.285884 
L 640.366263 269.147388 
L 650.094781 229.233964 
L 659.823299 254.356638 
L 669.551817 349.035948 
L 679.280335 298.057748 
L 689.008854 197.302197 
L 698.737372 204.664143 
L 708.46589 272.888789 
L 718.194408 186.525418 
L 727.922926 88.793845 
L 737.651444 190.372248 
L 747.379962 220.660884 
L 757.10848 230.902809 
L 766.836998 259.152318 
L 776.565516 225.952845 
L 786.294034 150.857393 
" style="fill:none;stroke:#acc2d9;stroke-linecap:square;stroke-width:1.5;"/>
    <defs>
     <path d="M 0 3 
C 0.795609 3 1.55874 2.683901 2.12132 2.12132 
C 2.683901 1.55874 3 0.795609 3 0 
C 3 -0.795609 2.683901 -1.55874 2.12132 -2.12132 
C 1.55874 -2.683901 0.795609 -3 0 -3 
C -0.795609 -3 -1.55874 -2.683901 -2.12132 -2.12132 
C -2.683901 -1.55874 -3 -0.795609 -3 0 
C -3 0.795609 -2.683901 1.55874 -2.12132 2.12132 
C -1.55874 2.683901 -0.795609 3 0 3 
z
" id="m5175f2a8fe" style="stroke:#acc2d9;"/>
    </defs>
    <g clip-path="url(#p498899e5b1)">
     <use style="fill:#acc2d9;stroke:#acc2d9;" x="76.112216" xlink:href="#m5175f2a8fe" y="248.254683"/>
     <use style="fill:#acc2d9;stroke:#acc2d9;" x="85.840734" xlink:href="#m5175f2a8fe" y="208.145832"/>
     <use style="fill:#acc2d9;stroke:#acc2d9;" x="95.569252" xlink:href="#m5175f2a8fe" y="103.875164"/>
     <use style="fill:#acc2d9;stroke:#acc2d9;" x="105.29777" xlink:href="#m5175f2a8fe" y="296.990613"/>
     <use style="fill:#acc2d9;stroke:#acc2d9;" x="115.026288" xlink:href="#m5175f2a8fe" y="256.305767"/>
     <use style="fill:#acc2d9;stroke:#acc2d9;" x="124.754806" xlink:href="#m5175f2a8fe" y="272.541649"/>
     <use style="fill:#acc2d9;stroke:#acc2d9;" x="134.483324" xlink:href="#m5175f2a8fe" y="204.32986"/>
     <use style="fill:#acc2d9;stroke:#acc2d9;" x="144.211842" xlink:href="#m5175f2a8fe" y="306.535687"/>
     <use style="fill:#acc2d9;stroke:#acc2d9;" x="153.94036" xlink:href="#m5175f2a8fe" y="251.571802"/>
     <use style="fill:#acc2d9;stroke:#acc2d9;" x="163.668878" xlink:href="#m5175f2a8fe" y="197.469339"/>
     <use style="fill:#acc2d9;stroke:#acc2d9;" x="173.397396" xlink:href="#m5175f2a8fe" y="223.065152"/>
     <use style="fill:#acc2d9;stroke:#acc2d9;" x="183.125915" xlink:href="#m5175f2a8fe" y="142.618596"/>
     <use style="fill:#acc2d9;stroke:#acc2d9;" x="192.854433" xlink:href="#m5175f2a8fe" y="253.924642"/>
     <use style="fill:#acc2d9;stroke:#acc2d9;" x="202.582951" xlink:href="#m5175f2a8fe" y="215.268638"/>
     <use style="fill:#acc2d9;stroke:#acc2d9;" x="212.311469" xlink:href="#m5175f2a8fe" y="151.726529"/>
     <use style="fill:#acc2d9;stroke:#acc2d9;" x="222.039987" xlink:href="#m5175f2a8fe" y="155.370217"/>
     <use style="fill:#acc2d9;stroke:#acc2d9;" x="231.768505" xlink:href="#m5175f2a8fe" y="185.000572"/>
     <use style="fill:#acc2d9;stroke:#acc2d9;" x="241.497023" xlink:href="#m5175f2a8fe" y="278.574176"/>
     <use style="fill:#acc2d9;stroke:#acc2d9;" x="251.225541" xlink:href="#m5175f2a8fe" y="194.625359"/>
     <use style="fill:#acc2d9;stroke:#acc2d9;" x="260.954059" xlink:href="#m5175f2a8fe" y="182.544876"/>
     <use style="fill:#acc2d9;stroke:#acc2d9;" x="270.682577" xlink:href="#m5175f2a8fe" y="238.133614"/>
     <use style="fill:#acc2d9;stroke:#acc2d9;" x="280.411095" xlink:href="#m5175f2a8fe" y="223.561434"/>
     <use style="fill:#acc2d9;stroke:#acc2d9;" x="290.139613" xlink:href="#m5175f2a8fe" y="171.721812"/>
     <use style="fill:#acc2d9;stroke:#acc2d9;" x="299.868131" xlink:href="#m5175f2a8fe" y="222.602298"/>
     <use style="fill:#acc2d9;stroke:#acc2d9;" x="309.596649" xlink:href="#m5175f2a8fe" y="244.72928"/>
     <use style="fill:#acc2d9;stroke:#acc2d9;" x="319.325167" xlink:href="#m5175f2a8fe" y="252.939792"/>
     <use style="fill:#acc2d9;stroke:#acc2d9;" x="329.053685" xlink:href="#m5175f2a8fe" y="286.928687"/>
     <use style="fill:#acc2d9;stroke:#acc2d9;" x="338.782203" xlink:href="#m5175f2a8fe" y="245.865843"/>
     <use style="fill:#acc2d9;stroke:#acc2d9;" x="348.510722" xlink:href="#m5175f2a8fe" y="270.201666"/>
     <use style="fill:#acc2d9;stroke:#acc2d9;" x="358.23924" xlink:href="#m5175f2a8fe" y="313.85649"/>
     <use style="fill:#acc2d9;stroke:#acc2d9;" x="367.967758" xlink:href="#m5175f2a8fe" y="282.225578"/>
     <use style="fill:#acc2d9;stroke:#acc2d9;" x="377.696276" xlink:href="#m5175f2a8fe" y="138.180342"/>
     <use style="fill:#acc2d9;stroke:#acc2d9;" x="387.424794" xlink:href="#m5175f2a8fe" y="145.282576"/>
     <use style="fill:#acc2d9;stroke:#acc2d9;" x="397.153312" xlink:href="#m5175f2a8fe" y="378.854017"/>
     <use style="fill:#acc2d9;stroke:#acc2d9;" x="406.88183" xlink:href="#m5175f2a8fe" y="28.34"/>
     <use style="fill:#acc2d9;stroke:#acc2d9;" x="416.610348" xlink:href="#m5175f2a8fe" y="294.874343"/>
     <use style="fill:#acc2d9;stroke:#acc2d9;" x="426.338866" xlink:href="#m5175f2a8fe" y="234.883352"/>
     <use style="fill:#acc2d9;stroke:#acc2d9;" x="436.067384" xlink:href="#m5175f2a8fe" y="199.82475"/>
     <use style="fill:#acc2d9;stroke:#acc2d9;" x="445.795902" xlink:href="#m5175f2a8fe" y="289.710952"/>
     <use style="fill:#acc2d9;stroke:#acc2d9;" x="455.52442" xlink:href="#m5175f2a8fe" y="248.383253"/>
     <use style="fill:#acc2d9;stroke:#acc2d9;" x="465.252938" xlink:href="#m5175f2a8fe" y="204.841571"/>
     <use style="fill:#acc2d9;stroke:#acc2d9;" x="474.981456" xlink:href="#m5175f2a8fe" y="293.087213"/>
     <use style="fill:#acc2d9;stroke:#acc2d9;" x="484.709974" xlink:href="#m5175f2a8fe" y="263.158574"/>
     <use style="fill:#acc2d9;stroke:#acc2d9;" x="494.438492" xlink:href="#m5175f2a8fe" y="291.359226"/>
     <use style="fill:#acc2d9;stroke:#acc2d9;" x="504.16701" xlink:href="#m5175f2a8fe" y="288.422676"/>
     <use style="fill:#acc2d9;stroke:#acc2d9;" x="513.895528" xlink:href="#m5175f2a8fe" y="221.977446"/>
     <use style="fill:#acc2d9;stroke:#acc2d9;" x="523.624047" xlink:href="#m5175f2a8fe" y="381.14"/>
     <use style="fill:#acc2d9;stroke:#acc2d9;" x="533.352565" xlink:href="#m5175f2a8fe" y="342.594567"/>
     <use style="fill:#acc2d9;stroke:#acc2d9;" x="543.081083" xlink:href="#m5175f2a8fe" y="287.527825"/>
     <use style="fill:#acc2d9;stroke:#acc2d9;" x="552.809601" xlink:href="#m5175f2a8fe" y="302.210575"/>
     <use style="fill:#acc2d9;stroke:#acc2d9;" x="562.538119" xlink:href="#m5175f2a8fe" y="261.806013"/>
     <use style="fill:#acc2d9;stroke:#acc2d9;" x="572.266637" xlink:href="#m5175f2a8fe" y="172.212951"/>
     <use style="fill:#acc2d9;stroke:#acc2d9;" x="581.995155" xlink:href="#m5175f2a8fe" y="217.140624"/>
     <use style="fill:#acc2d9;stroke:#acc2d9;" x="591.723673" xlink:href="#m5175f2a8fe" y="231.890231"/>
     <use style="fill:#acc2d9;stroke:#acc2d9;" x="601.452191" xlink:href="#m5175f2a8fe" y="283.264428"/>
     <use style="fill:#acc2d9;stroke:#acc2d9;" x="611.180709" xlink:href="#m5175f2a8fe" y="271.4128"/>
     <use style="fill:#acc2d9;stroke:#acc2d9;" x="620.909227" xlink:href="#m5175f2a8fe" y="225.744561"/>
     <use style="fill:#acc2d9;stroke:#acc2d9;" x="630.637745" xlink:href="#m5175f2a8fe" y="240.285884"/>
     <use style="fill:#acc2d9;stroke:#acc2d9;" x="640.366263" xlink:href="#m5175f2a8fe" y="269.147388"/>
     <use style="fill:#acc2d9;stroke:#acc2d9;" x="650.094781" xlink:href="#m5175f2a8fe" y="229.233964"/>
     <use style="fill:#acc2d9;stroke:#acc2d9;" x="659.823299" xlink:href="#m5175f2a8fe" y="254.356638"/>
     <use style="fill:#acc2d9;stroke:#acc2d9;" x="669.551817" xlink:href="#m5175f2a8fe" y="349.035948"/>
     <use style="fill:#acc2d9;stroke:#acc2d9;" x="679.280335" xlink:href="#m5175f2a8fe" y="298.057748"/>
     <use style="fill:#acc2d9;stroke:#acc2d9;" x="689.008854" xlink:href="#m5175f2a8fe" y="197.302197"/>
     <use style="fill:#acc2d9;stroke:#acc2d9;" x="698.737372" xlink:href="#m5175f2a8fe" y="204.664143"/>
     <use style="fill:#acc2d9;stroke:#acc2d9;" x="708.46589" xlink:href="#m5175f2a8fe" y="272.888789"/>
     <use style="fill:#acc2d9;stroke:#acc2d9;" x="718.194408" xlink:href="#m5175f2a8fe" y="186.525418"/>
     <use style="fill:#acc2d9;stroke:#acc2d9;" x="727.922926" xlink:href="#m5175f2a8fe" y="88.793845"/>
     <use style="fill:#acc2d9;stroke:#acc2d9;" x="737.651444" xlink:href="#m5175f2a8fe" y="190.372248"/>
     <use style="fill:#acc2d9;stroke:#acc2d9;" x="747.379962" xlink:href="#m5175f2a8fe" y="220.660884"/>
     <use style="fill:#acc2d9;stroke:#acc2d9;" x="757.10848" xlink:href="#m5175f2a8fe" y="230.902809"/>
     <use style="fill:#acc2d9;stroke:#acc2d9;" x="766.836998" xlink:href="#m5175f2a8fe" y="259.152318"/>
     <use style="fill:#acc2d9;stroke:#acc2d9;" x="776.565516" xlink:href="#m5175f2a8fe" y="225.952845"/>
     <use style="fill:#acc2d9;stroke:#acc2d9;" x="786.294034" xlink:href="#m5175f2a8fe" y="150.857393"/>
    </g>
   </g>
   <g id="line2d_15">
    <path clip-path="url(#p498899e5b1)" d="M 78.795945 306.990826 
L 91.208192 300.318018 
L 103.620439 242.615581 
L 116.032687 301.490581 
L 128.444934 268.249966 
L 140.857181 357.547315 
L 153.269428 308.82167 
L 165.681675 275.277629 
L 178.093922 268.159966 
L 190.50617 295.280626 
L 202.918417 299.220026 
L 215.330664 274.156494 
L 227.742911 223.674576 
L 240.155158 282.943001 
L 252.567405 340.848579 
L 264.979653 302.837999 
L 277.3919 234.600497 
L 289.804147 304.085133 
L 302.216394 231.874802 
L 314.628641 253.387217 
L 327.040889 271.693083 
L 339.453136 231.118808 
L 351.865383 261.821441 
L 364.27763 210.120675 
L 376.689877 235.467062 
L 389.102124 151.366532 
L 401.514372 263.731999 
L 413.926619 284.94613 
L 426.338866 199.27704 
L 438.751113 230.522241 
L 451.16336 239.637888 
L 463.575608 318.407886 
L 475.987855 354.335624 
L 488.400102 292.374933 
L 500.812349 356.727035 
L 513.224596 263.068575 
L 525.636843 227.163979 
L 538.049091 287.733538 
L 550.461338 229.64539 
L 562.873585 224.973138 
L 575.285832 322.655855 
L 587.698079 258.29861 
L 600.110326 324.100987 
L 612.522574 340.180013 
L 624.934821 280.687875 
L 637.347068 254.222925 
L 649.759315 252.764936 
L 662.171562 286.884973 
L 674.58381 298.656887 
L 686.996057 290.423233 
L 699.408304 261.296873 
L 711.820551 275.802196 
L 724.232798 271.664798 
L 736.645045 325.337835 
L 749.057293 301.755436 
L 761.46954 320.773583 
L 773.881787 224.389428 
L 786.294034 260.052311 
" style="fill:none;stroke:#56ae57;stroke-linecap:square;stroke-width:1.5;"/>
    <defs>
     <path d="M 0 3 
C 0.795609 3 1.55874 2.683901 2.12132 2.12132 
C 2.683901 1.55874 3 0.795609 3 0 
C 3 -0.795609 2.683901 -1.55874 2.12132 -2.12132 
C 1.55874 -2.683901 0.795609 -3 0 -3 
C -0.795609 -3 -1.55874 -2.683901 -2.12132 -2.12132 
C -2.683901 -1.55874 -3 -0.795609 -3 0 
C -3 0.795609 -2.683901 1.55874 -2.12132 2.12132 
C -1.55874 2.683901 -0.795609 3 0 3 
z
" id="mf89e23cd94" style="stroke:#56ae57;"/>
    </defs>
    <g clip-path="url(#p498899e5b1)">
     <use style="fill:#56ae57;stroke:#56ae57;" x="78.795945" xlink:href="#mf89e23cd94" y="306.990826"/>
     <use style="fill:#56ae57;stroke:#56ae57;" x="91.208192" xlink:href="#mf89e23cd94" y="300.318018"/>
     <use style="fill:#56ae57;stroke:#56ae57;" x="103.620439" xlink:href="#mf89e23cd94" y="242.615581"/>
     <use style="fill:#56ae57;stroke:#56ae57;" x="116.032687" xlink:href="#mf89e23cd94" y="301.490581"/>
     <use style="fill:#56ae57;stroke:#56ae57;" x="128.444934" xlink:href="#mf89e23cd94" y="268.249966"/>
     <use style="fill:#56ae57;stroke:#56ae57;" x="140.857181" xlink:href="#mf89e23cd94" y="357.547315"/>
     <use style="fill:#56ae57;stroke:#56ae57;" x="153.269428" xlink:href="#mf89e23cd94" y="308.82167"/>
     <use style="fill:#56ae57;stroke:#56ae57;" x="165.681675" xlink:href="#mf89e23cd94" y="275.277629"/>
     <use style="fill:#56ae57;stroke:#56ae57;" x="178.093922" xlink:href="#mf89e23cd94" y="268.159966"/>
     <use style="fill:#56ae57;stroke:#56ae57;" x="190.50617" xlink:href="#mf89e23cd94" y="295.280626"/>
     <use style="fill:#56ae57;stroke:#56ae57;" x="202.918417" xlink:href="#mf89e23cd94" y="299.220026"/>
     <use style="fill:#56ae57;stroke:#56ae57;" x="215.330664" xlink:href="#mf89e23cd94" y="274.156494"/>
     <use style="fill:#56ae57;stroke:#56ae57;" x="227.742911" xlink:href="#mf89e23cd94" y="223.674576"/>
     <use style="fill:#56ae57;stroke:#56ae57;" x="240.155158" xlink:href="#mf89e23cd94" y="282.943001"/>
     <use style="fill:#56ae57;stroke:#56ae57;" x="252.567405" xlink:href="#mf89e23cd94" y="340.848579"/>
     <use style="fill:#56ae57;stroke:#56ae57;" x="264.979653" xlink:href="#mf89e23cd94" y="302.837999"/>
     <use style="fill:#56ae57;stroke:#56ae57;" x="277.3919" xlink:href="#mf89e23cd94" y="234.600497"/>
     <use style="fill:#56ae57;stroke:#56ae57;" x="289.804147" xlink:href="#mf89e23cd94" y="304.085133"/>
     <use style="fill:#56ae57;stroke:#56ae57;" x="302.216394" xlink:href="#mf89e23cd94" y="231.874802"/>
     <use style="fill:#56ae57;stroke:#56ae57;" x="314.628641" xlink:href="#mf89e23cd94" y="253.387217"/>
     <use style="fill:#56ae57;stroke:#56ae57;" x="327.040889" xlink:href="#mf89e23cd94" y="271.693083"/>
     <use style="fill:#56ae57;stroke:#56ae57;" x="339.453136" xlink:href="#mf89e23cd94" y="231.118808"/>
     <use style="fill:#56ae57;stroke:#56ae57;" x="351.865383" xlink:href="#mf89e23cd94" y="261.821441"/>
     <use style="fill:#56ae57;stroke:#56ae57;" x="364.27763" xlink:href="#mf89e23cd94" y="210.120675"/>
     <use style="fill:#56ae57;stroke:#56ae57;" x="376.689877" xlink:href="#mf89e23cd94" y="235.467062"/>
     <use style="fill:#56ae57;stroke:#56ae57;" x="389.102124" xlink:href="#mf89e23cd94" y="151.366532"/>
     <use style="fill:#56ae57;stroke:#56ae57;" x="401.514372" xlink:href="#mf89e23cd94" y="263.731999"/>
     <use style="fill:#56ae57;stroke:#56ae57;" x="413.926619" xlink:href="#mf89e23cd94" y="284.94613"/>
     <use style="fill:#56ae57;stroke:#56ae57;" x="426.338866" xlink:href="#mf89e23cd94" y="199.27704"/>
     <use style="fill:#56ae57;stroke:#56ae57;" x="438.751113" xlink:href="#mf89e23cd94" y="230.522241"/>
     <use style="fill:#56ae57;stroke:#56ae57;" x="451.16336" xlink:href="#mf89e23cd94" y="239.637888"/>
     <use style="fill:#56ae57;stroke:#56ae57;" x="463.575608" xlink:href="#mf89e23cd94" y="318.407886"/>
     <use style="fill:#56ae57;stroke:#56ae57;" x="475.987855" xlink:href="#mf89e23cd94" y="354.335624"/>
     <use style="fill:#56ae57;stroke:#56ae57;" x="488.400102" xlink:href="#mf89e23cd94" y="292.374933"/>
     <use style="fill:#56ae57;stroke:#56ae57;" x="500.812349" xlink:href="#mf89e23cd94" y="356.727035"/>
     <use style="fill:#56ae57;stroke:#56ae57;" x="513.224596" xlink:href="#mf89e23cd94" y="263.068575"/>
     <use style="fill:#56ae57;stroke:#56ae57;" x="525.636843" xlink:href="#mf89e23cd94" y="227.163979"/>
     <use style="fill:#56ae57;stroke:#56ae57;" x="538.049091" xlink:href="#mf89e23cd94" y="287.733538"/>
     <use style="fill:#56ae57;stroke:#56ae57;" x="550.461338" xlink:href="#mf89e23cd94" y="229.64539"/>
     <use style="fill:#56ae57;stroke:#56ae57;" x="562.873585" xlink:href="#mf89e23cd94" y="224.973138"/>
     <use style="fill:#56ae57;stroke:#56ae57;" x="575.285832" xlink:href="#mf89e23cd94" y="322.655855"/>
     <use style="fill:#56ae57;stroke:#56ae57;" x="587.698079" xlink:href="#mf89e23cd94" y="258.29861"/>
     <use style="fill:#56ae57;stroke:#56ae57;" x="600.110326" xlink:href="#mf89e23cd94" y="324.100987"/>
     <use style="fill:#56ae57;stroke:#56ae57;" x="612.522574" xlink:href="#mf89e23cd94" y="340.180013"/>
     <use style="fill:#56ae57;stroke:#56ae57;" x="624.934821" xlink:href="#mf89e23cd94" y="280.687875"/>
     <use style="fill:#56ae57;stroke:#56ae57;" x="637.347068" xlink:href="#mf89e23cd94" y="254.222925"/>
     <use style="fill:#56ae57;stroke:#56ae57;" x="649.759315" xlink:href="#mf89e23cd94" y="252.764936"/>
     <use style="fill:#56ae57;stroke:#56ae57;" x="662.171562" xlink:href="#mf89e23cd94" y="286.884973"/>
     <use style="fill:#56ae57;stroke:#56ae57;" x="674.58381" xlink:href="#mf89e23cd94" y="298.656887"/>
     <use style="fill:#56ae57;stroke:#56ae57;" x="686.996057" xlink:href="#mf89e23cd94" y="290.423233"/>
     <use style="fill:#56ae57;stroke:#56ae57;" x="699.408304" xlink:href="#mf89e23cd94" y="261.296873"/>
     <use style="fill:#56ae57;stroke:#56ae57;" x="711.820551" xlink:href="#mf89e23cd94" y="275.802196"/>
     <use style="fill:#56ae57;stroke:#56ae57;" x="724.232798" xlink:href="#mf89e23cd94" y="271.664798"/>
     <use style="fill:#56ae57;stroke:#56ae57;" x="736.645045" xlink:href="#mf89e23cd94" y="325.337835"/>
     <use style="fill:#56ae57;stroke:#56ae57;" x="749.057293" xlink:href="#mf89e23cd94" y="301.755436"/>
     <use style="fill:#56ae57;stroke:#56ae57;" x="761.46954" xlink:href="#mf89e23cd94" y="320.773583"/>
     <use style="fill:#56ae57;stroke:#56ae57;" x="773.881787" xlink:href="#mf89e23cd94" y="224.389428"/>
     <use style="fill:#56ae57;stroke:#56ae57;" x="786.294034" xlink:href="#mf89e23cd94" y="260.052311"/>
    </g>
   </g>
   <g id="line2d_16">
    <path clip-path="url(#p498899e5b1)" d="M 85.328707 231.136808 
L 104.273716 165.087575 
L 123.218724 208.624115 
L 142.163733 150.060256 
L 161.108742 130.602398 
L 180.053751 228.475398 
L 198.99876 279.067887 
L 217.943769 273.521356 
L 236.888777 156.221354 
L 255.833786 284.884416 
L 274.778795 226.659983 
L 293.723804 234.441069 
L 312.668813 170.024682 
L 331.613822 141.839458 
L 350.558831 131.384106 
L 369.503839 134.60094 
L 388.448848 207.693264 
L 407.393857 170.348679 
L 426.338866 294.70463 
L 445.283875 297.600037 
L 464.228884 257.619757 
L 483.173893 320.997296 
L 502.118901 325.389263 
L 521.06391 220.403743 
L 540.008919 211.838377 
L 558.953928 245.8607 
L 577.898937 250.41981 
L 596.843946 215.978347 
L 615.788954 278.134465 
L 634.733963 284.624703 
L 653.678972 223.121723 
L 672.623981 263.667713 
L 691.56899 251.327518 
L 710.513999 181.526598 
L 729.459008 256.958905 
L 748.404016 279.132172 
L 767.349025 234.271356 
L 786.294034 225.428278 
" style="fill:none;stroke:#b2996e;stroke-linecap:square;stroke-width:1.5;"/>
    <defs>
     <path d="M 0 3 
C 0.795609 3 1.55874 2.683901 2.12132 2.12132 
C 2.683901 1.55874 3 0.795609 3 0 
C 3 -0.795609 2.683901 -1.55874 2.12132 -2.12132 
C 1.55874 -2.683901 0.795609 -3 0 -3 
C -0.795609 -3 -1.55874 -2.683901 -2.12132 -2.12132 
C -2.683901 -1.55874 -3 -0.795609 -3 0 
C -3 0.795609 -2.683901 1.55874 -2.12132 2.12132 
C -1.55874 2.683901 -0.795609 3 0 3 
z
" id="m73b0182063" style="stroke:#b2996e;"/>
    </defs>
    <g clip-path="url(#p498899e5b1)">
     <use style="fill:#b2996e;stroke:#b2996e;" x="85.328707" xlink:href="#m73b0182063" y="231.136808"/>
     <use style="fill:#b2996e;stroke:#b2996e;" x="104.273716" xlink:href="#m73b0182063" y="165.087575"/>
     <use style="fill:#b2996e;stroke:#b2996e;" x="123.218724" xlink:href="#m73b0182063" y="208.624115"/>
     <use style="fill:#b2996e;stroke:#b2996e;" x="142.163733" xlink:href="#m73b0182063" y="150.060256"/>
     <use style="fill:#b2996e;stroke:#b2996e;" x="161.108742" xlink:href="#m73b0182063" y="130.602398"/>
     <use style="fill:#b2996e;stroke:#b2996e;" x="180.053751" xlink:href="#m73b0182063" y="228.475398"/>
     <use style="fill:#b2996e;stroke:#b2996e;" x="198.99876" xlink:href="#m73b0182063" y="279.067887"/>
     <use style="fill:#b2996e;stroke:#b2996e;" x="217.943769" xlink:href="#m73b0182063" y="273.521356"/>
     <use style="fill:#b2996e;stroke:#b2996e;" x="236.888777" xlink:href="#m73b0182063" y="156.221354"/>
     <use style="fill:#b2996e;stroke:#b2996e;" x="255.833786" xlink:href="#m73b0182063" y="284.884416"/>
     <use style="fill:#b2996e;stroke:#b2996e;" x="274.778795" xlink:href="#m73b0182063" y="226.659983"/>
     <use style="fill:#b2996e;stroke:#b2996e;" x="293.723804" xlink:href="#m73b0182063" y="234.441069"/>
     <use style="fill:#b2996e;stroke:#b2996e;" x="312.668813" xlink:href="#m73b0182063" y="170.024682"/>
     <use style="fill:#b2996e;stroke:#b2996e;" x="331.613822" xlink:href="#m73b0182063" y="141.839458"/>
     <use style="fill:#b2996e;stroke:#b2996e;" x="350.558831" xlink:href="#m73b0182063" y="131.384106"/>
     <use style="fill:#b2996e;stroke:#b2996e;" x="369.503839" xlink:href="#m73b0182063" y="134.60094"/>
     <use style="fill:#b2996e;stroke:#b2996e;" x="388.448848" xlink:href="#m73b0182063" y="207.693264"/>
     <use style="fill:#b2996e;stroke:#b2996e;" x="407.393857" xlink:href="#m73b0182063" y="170.348679"/>
     <use style="fill:#b2996e;stroke:#b2996e;" x="426.338866" xlink:href="#m73b0182063" y="294.70463"/>
     <use style="fill:#b2996e;stroke:#b2996e;" x="445.283875" xlink:href="#m73b0182063" y="297.600037"/>
     <use style="fill:#b2996e;stroke:#b2996e;" x="464.228884" xlink:href="#m73b0182063" y="257.619757"/>
     <use style="fill:#b2996e;stroke:#b2996e;" x="483.173893" xlink:href="#m73b0182063" y="320.997296"/>
     <use style="fill:#b2996e;stroke:#b2996e;" x="502.118901" xlink:href="#m73b0182063" y="325.389263"/>
     <use style="fill:#b2996e;stroke:#b2996e;" x="521.06391" xlink:href="#m73b0182063" y="220.403743"/>
     <use style="fill:#b2996e;stroke:#b2996e;" x="540.008919" xlink:href="#m73b0182063" y="211.838377"/>
     <use style="fill:#b2996e;stroke:#b2996e;" x="558.953928" xlink:href="#m73b0182063" y="245.8607"/>
     <use style="fill:#b2996e;stroke:#b2996e;" x="577.898937" xlink:href="#m73b0182063" y="250.41981"/>
     <use style="fill:#b2996e;stroke:#b2996e;" x="596.843946" xlink:href="#m73b0182063" y="215.978347"/>
     <use style="fill:#b2996e;stroke:#b2996e;" x="615.788954" xlink:href="#m73b0182063" y="278.134465"/>
     <use style="fill:#b2996e;stroke:#b2996e;" x="634.733963" xlink:href="#m73b0182063" y="284.624703"/>
     <use style="fill:#b2996e;stroke:#b2996e;" x="653.678972" xlink:href="#m73b0182063" y="223.121723"/>
     <use style="fill:#b2996e;stroke:#b2996e;" x="672.623981" xlink:href="#m73b0182063" y="263.667713"/>
     <use style="fill:#b2996e;stroke:#b2996e;" x="691.56899" xlink:href="#m73b0182063" y="251.327518"/>
     <use style="fill:#b2996e;stroke:#b2996e;" x="710.513999" xlink:href="#m73b0182063" y="181.526598"/>
     <use style="fill:#b2996e;stroke:#b2996e;" x="729.459008" xlink:href="#m73b0182063" y="256.958905"/>
     <use style="fill:#b2996e;stroke:#b2996e;" x="748.404016" xlink:href="#m73b0182063" y="279.132172"/>
     <use style="fill:#b2996e;stroke:#b2996e;" x="767.349025" xlink:href="#m73b0182063" y="234.271356"/>
     <use style="fill:#b2996e;stroke:#b2996e;" x="786.294034" xlink:href="#m73b0182063" y="225.428278"/>
    </g>
   </g>
   <g id="line2d_17">
    <path clip-path="url(#p498899e5b1)" d="M 87.557531 189.868251 
L 108.731365 226.384842 
L 129.905198 212.175232 
L 151.079032 239.27532 
L 172.252865 187.451126 
L 193.426698 160.968176 
L 214.600532 165.427001 
L 235.774365 189.680538 
L 256.948199 203.76415 
L 278.122032 123.561877 
L 299.295865 220.725169 
L 320.469699 225.608276 
L 341.643532 215.543778 
L 362.817366 207.43098 
L 383.991199 291.809223 
L 405.165033 171.534099 
L 426.338866 191.38024 
L 447.512699 226.065987 
L 468.686533 245.31299 
L 489.860366 204.612715 
L 511.0342 240.203599 
L 532.208033 215.389494 
L 553.381866 226.299986 
L 574.5557 231.928802 
L 595.729533 199.472467 
L 616.903367 237.249049 
L 638.0772 220.506599 
L 659.251034 210.809813 
L 680.424867 238.1259 
L 701.5987 226.415699 
L 722.772534 205.013855 
L 743.946367 271.500228 
L 765.120201 242.327583 
L 786.294034 210.120675 
" style="fill:none;stroke:#a8ff04;stroke-linecap:square;stroke-width:1.5;"/>
    <defs>
     <path d="M 0 3 
C 0.795609 3 1.55874 2.683901 2.12132 2.12132 
C 2.683901 1.55874 3 0.795609 3 0 
C 3 -0.795609 2.683901 -1.55874 2.12132 -2.12132 
C 1.55874 -2.683901 0.795609 -3 0 -3 
C -0.795609 -3 -1.55874 -2.683901 -2.12132 -2.12132 
C -2.683901 -1.55874 -3 -0.795609 -3 0 
C -3 0.795609 -2.683901 1.55874 -2.12132 2.12132 
C -1.55874 2.683901 -0.795609 3 0 3 
z
" id="m0eb6f15cb4" style="stroke:#a8ff04;"/>
    </defs>
    <g clip-path="url(#p498899e5b1)">
     <use style="fill:#a8ff04;stroke:#a8ff04;" x="87.557531" xlink:href="#m0eb6f15cb4" y="189.868251"/>
     <use style="fill:#a8ff04;stroke:#a8ff04;" x="108.731365" xlink:href="#m0eb6f15cb4" y="226.384842"/>
     <use style="fill:#a8ff04;stroke:#a8ff04;" x="129.905198" xlink:href="#m0eb6f15cb4" y="212.175232"/>
     <use style="fill:#a8ff04;stroke:#a8ff04;" x="151.079032" xlink:href="#m0eb6f15cb4" y="239.27532"/>
     <use style="fill:#a8ff04;stroke:#a8ff04;" x="172.252865" xlink:href="#m0eb6f15cb4" y="187.451126"/>
     <use style="fill:#a8ff04;stroke:#a8ff04;" x="193.426698" xlink:href="#m0eb6f15cb4" y="160.968176"/>
     <use style="fill:#a8ff04;stroke:#a8ff04;" x="214.600532" xlink:href="#m0eb6f15cb4" y="165.427001"/>
     <use style="fill:#a8ff04;stroke:#a8ff04;" x="235.774365" xlink:href="#m0eb6f15cb4" y="189.680538"/>
     <use style="fill:#a8ff04;stroke:#a8ff04;" x="256.948199" xlink:href="#m0eb6f15cb4" y="203.76415"/>
     <use style="fill:#a8ff04;stroke:#a8ff04;" x="278.122032" xlink:href="#m0eb6f15cb4" y="123.561877"/>
     <use style="fill:#a8ff04;stroke:#a8ff04;" x="299.295865" xlink:href="#m0eb6f15cb4" y="220.725169"/>
     <use style="fill:#a8ff04;stroke:#a8ff04;" x="320.469699" xlink:href="#m0eb6f15cb4" y="225.608276"/>
     <use style="fill:#a8ff04;stroke:#a8ff04;" x="341.643532" xlink:href="#m0eb6f15cb4" y="215.543778"/>
     <use style="fill:#a8ff04;stroke:#a8ff04;" x="362.817366" xlink:href="#m0eb6f15cb4" y="207.43098"/>
     <use style="fill:#a8ff04;stroke:#a8ff04;" x="383.991199" xlink:href="#m0eb6f15cb4" y="291.809223"/>
     <use style="fill:#a8ff04;stroke:#a8ff04;" x="405.165033" xlink:href="#m0eb6f15cb4" y="171.534099"/>
     <use style="fill:#a8ff04;stroke:#a8ff04;" x="426.338866" xlink:href="#m0eb6f15cb4" y="191.38024"/>
     <use style="fill:#a8ff04;stroke:#a8ff04;" x="447.512699" xlink:href="#m0eb6f15cb4" y="226.065987"/>
     <use style="fill:#a8ff04;stroke:#a8ff04;" x="468.686533" xlink:href="#m0eb6f15cb4" y="245.31299"/>
     <use style="fill:#a8ff04;stroke:#a8ff04;" x="489.860366" xlink:href="#m0eb6f15cb4" y="204.612715"/>
     <use style="fill:#a8ff04;stroke:#a8ff04;" x="511.0342" xlink:href="#m0eb6f15cb4" y="240.203599"/>
     <use style="fill:#a8ff04;stroke:#a8ff04;" x="532.208033" xlink:href="#m0eb6f15cb4" y="215.389494"/>
     <use style="fill:#a8ff04;stroke:#a8ff04;" x="553.381866" xlink:href="#m0eb6f15cb4" y="226.299986"/>
     <use style="fill:#a8ff04;stroke:#a8ff04;" x="574.5557" xlink:href="#m0eb6f15cb4" y="231.928802"/>
     <use style="fill:#a8ff04;stroke:#a8ff04;" x="595.729533" xlink:href="#m0eb6f15cb4" y="199.472467"/>
     <use style="fill:#a8ff04;stroke:#a8ff04;" x="616.903367" xlink:href="#m0eb6f15cb4" y="237.249049"/>
     <use style="fill:#a8ff04;stroke:#a8ff04;" x="638.0772" xlink:href="#m0eb6f15cb4" y="220.506599"/>
     <use style="fill:#a8ff04;stroke:#a8ff04;" x="659.251034" xlink:href="#m0eb6f15cb4" y="210.809813"/>
     <use style="fill:#a8ff04;stroke:#a8ff04;" x="680.424867" xlink:href="#m0eb6f15cb4" y="238.1259"/>
     <use style="fill:#a8ff04;stroke:#a8ff04;" x="701.5987" xlink:href="#m0eb6f15cb4" y="226.415699"/>
     <use style="fill:#a8ff04;stroke:#a8ff04;" x="722.772534" xlink:href="#m0eb6f15cb4" y="205.013855"/>
     <use style="fill:#a8ff04;stroke:#a8ff04;" x="743.946367" xlink:href="#m0eb6f15cb4" y="271.500228"/>
     <use style="fill:#a8ff04;stroke:#a8ff04;" x="765.120201" xlink:href="#m0eb6f15cb4" y="242.327583"/>
     <use style="fill:#a8ff04;stroke:#a8ff04;" x="786.294034" xlink:href="#m0eb6f15cb4" y="210.120675"/>
    </g>
   </g>
   <g id="patch_3">
    <path d="M 40.603125 398.78 
L 40.603125 10.7 
" style="fill:none;stroke:#000000;stroke-linecap:square;stroke-linejoin:miter;stroke-width:0.8;"/>
   </g>
   <g id="patch_4">
    <path d="M 821.803125 398.78 
L 821.803125 10.7 
" style="fill:none;stroke:#000000;stroke-linecap:square;stroke-linejoin:miter;stroke-width:0.8;"/>
   </g>
   <g id="patch_5">
    <path d="M 40.603125 398.78 
L 821.803125 398.78 
" style="fill:none;stroke:#000000;stroke-linecap:square;stroke-linejoin:miter;stroke-width:0.8;"/>
   </g>
   <g id="patch_6">
    <path d="M 40.603125 10.7 
L 821.803125 10.7 
" style="fill:none;stroke:#000000;stroke-linecap:square;stroke-linejoin:miter;stroke-width:0.8;"/>
   </g>
  </g>
 </g>
 <defs>
  <clipPath id="p498899e5b1">
   <rect height="388.08" width="781.2" x="40.603125" y="10.7"/>
  </clipPath>
 </defs>
</svg>
