<?xml version="1.0" encoding="utf-8" standalone="no"?>
<!DOCTYPE svg PUBLIC "-//W3C//DTD SVG 1.1//EN"
  "http://www.w3.org/Graphics/SVG/1.1/DTD/svg11.dtd">
<!-- Created with matplotlib (https://matplotlib.org/) -->
<svg height="436.33625pt" version="1.1" viewBox="0 0 832.503125 436.33625" width="832.503125pt" xmlns="http://www.w3.org/2000/svg" xmlns:xlink="http://www.w3.org/1999/xlink">
 <defs>
  <style type="text/css">
*{stroke-linecap:butt;stroke-linejoin:round;}
  </style>
 </defs>
 <g id="figure_1">
  <g id="patch_1">
   <path d="M 0 436.33625 
L 832.503125 436.33625 
L 832.503125 0 
L 0 0 
z
" style="fill:#ffffff;"/>
  </g>
  <g id="axes_1">
   <g id="patch_2">
    <path d="M 40.603125 398.78 
L 821.803125 398.78 
L 821.803125 10.7 
L 40.603125 10.7 
z
" style="fill:#ffffff;"/>
   </g>
   <g id="matplotlib.axis_1">
    <g id="xtick_1">
     <g id="line2d_1">
      <defs>
       <path d="M 0 0 
L 0 3.5 
" id="m6f3a1aecc9" style="stroke:#000000;stroke-width:0.8;"/>
      </defs>
      <g>
       <use style="stroke:#000000;stroke-width:0.8;" x="61.316761" xlink:href="#m6f3a1aecc9" y="398.78"/>
      </g>
     </g>
     <g id="text_1">
      <!-- 0 -->
      <defs>
       <path d="M 31.78125 66.40625 
Q 24.171875 66.40625 20.328125 58.90625 
Q 16.5 51.421875 16.5 36.375 
Q 16.5 21.390625 20.328125 13.890625 
Q 24.171875 6.390625 31.78125 6.390625 
Q 39.453125 6.390625 43.28125 13.890625 
Q 47.125 21.390625 47.125 36.375 
Q 47.125 51.421875 43.28125 58.90625 
Q 39.453125 66.40625 31.78125 66.40625 
z
M 31.78125 74.21875 
Q 44.046875 74.21875 50.515625 64.515625 
Q 56.984375 54.828125 56.984375 36.375 
Q 56.984375 17.96875 50.515625 8.265625 
Q 44.046875 -1.421875 31.78125 -1.421875 
Q 19.53125 -1.421875 13.0625 8.265625 
Q 6.59375 17.96875 6.59375 36.375 
Q 6.59375 54.828125 13.0625 64.515625 
Q 19.53125 74.21875 31.78125 74.21875 
z
" id="DejaVuSans-48"/>
      </defs>
      <g transform="translate(58.135511 413.378437)scale(0.1 -0.1)">
       <use xlink:href="#DejaVuSans-48"/>
      </g>
     </g>
    </g>
    <g id="xtick_2">
     <g id="line2d_2">
      <g>
       <use style="stroke:#000000;stroke-width:0.8;" x="206.312216" xlink:href="#m6f3a1aecc9" y="398.78"/>
      </g>
     </g>
     <g id="text_2">
      <!-- 20 -->
      <defs>
       <path d="M 19.1875 8.296875 
L 53.609375 8.296875 
L 53.609375 0 
L 7.328125 0 
L 7.328125 8.296875 
Q 12.9375 14.109375 22.625 23.890625 
Q 32.328125 33.6875 34.8125 36.53125 
Q 39.546875 41.84375 41.421875 45.53125 
Q 43.3125 49.21875 43.3125 52.78125 
Q 43.3125 58.59375 39.234375 62.25 
Q 35.15625 65.921875 28.609375 65.921875 
Q 23.96875 65.921875 18.8125 64.3125 
Q 13.671875 62.703125 7.8125 59.421875 
L 7.8125 69.390625 
Q 13.765625 71.78125 18.9375 73 
Q 24.125 74.21875 28.421875 74.21875 
Q 39.75 74.21875 46.484375 68.546875 
Q 53.21875 62.890625 53.21875 53.421875 
Q 53.21875 48.921875 51.53125 44.890625 
Q 49.859375 40.875 45.40625 35.40625 
Q 44.1875 33.984375 37.640625 27.21875 
Q 31.109375 20.453125 19.1875 8.296875 
z
" id="DejaVuSans-50"/>
      </defs>
      <g transform="translate(199.949716 413.378437)scale(0.1 -0.1)">
       <use xlink:href="#DejaVuSans-50"/>
       <use x="63.623047" xlink:href="#DejaVuSans-48"/>
      </g>
     </g>
    </g>
    <g id="xtick_3">
     <g id="line2d_3">
      <g>
       <use style="stroke:#000000;stroke-width:0.8;" x="351.30767" xlink:href="#m6f3a1aecc9" y="398.78"/>
      </g>
     </g>
     <g id="text_3">
      <!-- 40 -->
      <defs>
       <path d="M 37.796875 64.3125 
L 12.890625 25.390625 
L 37.796875 25.390625 
z
M 35.203125 72.90625 
L 47.609375 72.90625 
L 47.609375 25.390625 
L 58.015625 25.390625 
L 58.015625 17.1875 
L 47.609375 17.1875 
L 47.609375 0 
L 37.796875 0 
L 37.796875 17.1875 
L 4.890625 17.1875 
L 4.890625 26.703125 
z
" id="DejaVuSans-52"/>
      </defs>
      <g transform="translate(344.94517 413.378437)scale(0.1 -0.1)">
       <use xlink:href="#DejaVuSans-52"/>
       <use x="63.623047" xlink:href="#DejaVuSans-48"/>
      </g>
     </g>
    </g>
    <g id="xtick_4">
     <g id="line2d_4">
      <g>
       <use style="stroke:#000000;stroke-width:0.8;" x="496.303125" xlink:href="#m6f3a1aecc9" y="398.78"/>
      </g>
     </g>
     <g id="text_4">
      <!-- 60 -->
      <defs>
       <path d="M 33.015625 40.375 
Q 26.375 40.375 22.484375 35.828125 
Q 18.609375 31.296875 18.609375 23.390625 
Q 18.609375 15.53125 22.484375 10.953125 
Q 26.375 6.390625 33.015625 6.390625 
Q 39.65625 6.390625 43.53125 10.953125 
Q 47.40625 15.53125 47.40625 23.390625 
Q 47.40625 31.296875 43.53125 35.828125 
Q 39.65625 40.375 33.015625 40.375 
z
M 52.59375 71.296875 
L 52.59375 62.3125 
Q 48.875 64.0625 45.09375 64.984375 
Q 41.3125 65.921875 37.59375 65.921875 
Q 27.828125 65.921875 22.671875 59.328125 
Q 17.53125 52.734375 16.796875 39.40625 
Q 19.671875 43.65625 24.015625 45.921875 
Q 28.375 48.1875 33.59375 48.1875 
Q 44.578125 48.1875 50.953125 41.515625 
Q 57.328125 34.859375 57.328125 23.390625 
Q 57.328125 12.15625 50.6875 5.359375 
Q 44.046875 -1.421875 33.015625 -1.421875 
Q 20.359375 -1.421875 13.671875 8.265625 
Q 6.984375 17.96875 6.984375 36.375 
Q 6.984375 53.65625 15.1875 63.9375 
Q 23.390625 74.21875 37.203125 74.21875 
Q 40.921875 74.21875 44.703125 73.484375 
Q 48.484375 72.75 52.59375 71.296875 
z
" id="DejaVuSans-54"/>
      </defs>
      <g transform="translate(489.940625 413.378437)scale(0.1 -0.1)">
       <use xlink:href="#DejaVuSans-54"/>
       <use x="63.623047" xlink:href="#DejaVuSans-48"/>
      </g>
     </g>
    </g>
    <g id="xtick_5">
     <g id="line2d_5">
      <g>
       <use style="stroke:#000000;stroke-width:0.8;" x="641.29858" xlink:href="#m6f3a1aecc9" y="398.78"/>
      </g>
     </g>
     <g id="text_5">
      <!-- 80 -->
      <defs>
       <path d="M 31.78125 34.625 
Q 24.75 34.625 20.71875 30.859375 
Q 16.703125 27.09375 16.703125 20.515625 
Q 16.703125 13.921875 20.71875 10.15625 
Q 24.75 6.390625 31.78125 6.390625 
Q 38.8125 6.390625 42.859375 10.171875 
Q 46.921875 13.96875 46.921875 20.515625 
Q 46.921875 27.09375 42.890625 30.859375 
Q 38.875 34.625 31.78125 34.625 
z
M 21.921875 38.8125 
Q 15.578125 40.375 12.03125 44.71875 
Q 8.5 49.078125 8.5 55.328125 
Q 8.5 64.0625 14.71875 69.140625 
Q 20.953125 74.21875 31.78125 74.21875 
Q 42.671875 74.21875 48.875 69.140625 
Q 55.078125 64.0625 55.078125 55.328125 
Q 55.078125 49.078125 51.53125 44.71875 
Q 48 40.375 41.703125 38.8125 
Q 48.828125 37.15625 52.796875 32.3125 
Q 56.78125 27.484375 56.78125 20.515625 
Q 56.78125 9.90625 50.3125 4.234375 
Q 43.84375 -1.421875 31.78125 -1.421875 
Q 19.734375 -1.421875 13.25 4.234375 
Q 6.78125 9.90625 6.78125 20.515625 
Q 6.78125 27.484375 10.78125 32.3125 
Q 14.796875 37.15625 21.921875 38.8125 
z
M 18.3125 54.390625 
Q 18.3125 48.734375 21.84375 45.5625 
Q 25.390625 42.390625 31.78125 42.390625 
Q 38.140625 42.390625 41.71875 45.5625 
Q 45.3125 48.734375 45.3125 54.390625 
Q 45.3125 60.0625 41.71875 63.234375 
Q 38.140625 66.40625 31.78125 66.40625 
Q 25.390625 66.40625 21.84375 63.234375 
Q 18.3125 60.0625 18.3125 54.390625 
z
" id="DejaVuSans-56"/>
      </defs>
      <g transform="translate(634.93608 413.378437)scale(0.1 -0.1)">
       <use xlink:href="#DejaVuSans-56"/>
       <use x="63.623047" xlink:href="#DejaVuSans-48"/>
      </g>
     </g>
    </g>
    <g id="xtick_6">
     <g id="line2d_6">
      <g>
       <use style="stroke:#000000;stroke-width:0.8;" x="786.294034" xlink:href="#m6f3a1aecc9" y="398.78"/>
      </g>
     </g>
     <g id="text_6">
      <!-- 100 -->
      <defs>
       <path d="M 12.40625 8.296875 
L 28.515625 8.296875 
L 28.515625 63.921875 
L 10.984375 60.40625 
L 10.984375 69.390625 
L 28.421875 72.90625 
L 38.28125 72.90625 
L 38.28125 8.296875 
L 54.390625 8.296875 
L 54.390625 0 
L 12.40625 0 
z
" id="DejaVuSans-49"/>
      </defs>
      <g transform="translate(776.750284 413.378437)scale(0.1 -0.1)">
       <use xlink:href="#DejaVuSans-49"/>
       <use x="63.623047" xlink:href="#DejaVuSans-48"/>
       <use x="127.246094" xlink:href="#DejaVuSans-48"/>
      </g>
     </g>
    </g>
    <g id="text_7">
     <!-- document's percentage of the chunk's end -->
     <defs>
      <path d="M 45.40625 46.390625 
L 45.40625 75.984375 
L 54.390625 75.984375 
L 54.390625 0 
L 45.40625 0 
L 45.40625 8.203125 
Q 42.578125 3.328125 38.25 0.953125 
Q 33.9375 -1.421875 27.875 -1.421875 
Q 17.96875 -1.421875 11.734375 6.484375 
Q 5.515625 14.40625 5.515625 27.296875 
Q 5.515625 40.1875 11.734375 48.09375 
Q 17.96875 56 27.875 56 
Q 33.9375 56 38.25 53.625 
Q 42.578125 51.265625 45.40625 46.390625 
z
M 14.796875 27.296875 
Q 14.796875 17.390625 18.875 11.75 
Q 22.953125 6.109375 30.078125 6.109375 
Q 37.203125 6.109375 41.296875 11.75 
Q 45.40625 17.390625 45.40625 27.296875 
Q 45.40625 37.203125 41.296875 42.84375 
Q 37.203125 48.484375 30.078125 48.484375 
Q 22.953125 48.484375 18.875 42.84375 
Q 14.796875 37.203125 14.796875 27.296875 
z
" id="DejaVuSans-100"/>
      <path d="M 30.609375 48.390625 
Q 23.390625 48.390625 19.1875 42.75 
Q 14.984375 37.109375 14.984375 27.296875 
Q 14.984375 17.484375 19.15625 11.84375 
Q 23.34375 6.203125 30.609375 6.203125 
Q 37.796875 6.203125 41.984375 11.859375 
Q 46.1875 17.53125 46.1875 27.296875 
Q 46.1875 37.015625 41.984375 42.703125 
Q 37.796875 48.390625 30.609375 48.390625 
z
M 30.609375 56 
Q 42.328125 56 49.015625 48.375 
Q 55.71875 40.765625 55.71875 27.296875 
Q 55.71875 13.875 49.015625 6.21875 
Q 42.328125 -1.421875 30.609375 -1.421875 
Q 18.84375 -1.421875 12.171875 6.21875 
Q 5.515625 13.875 5.515625 27.296875 
Q 5.515625 40.765625 12.171875 48.375 
Q 18.84375 56 30.609375 56 
z
" id="DejaVuSans-111"/>
      <path d="M 48.78125 52.59375 
L 48.78125 44.1875 
Q 44.96875 46.296875 41.140625 47.34375 
Q 37.3125 48.390625 33.40625 48.390625 
Q 24.65625 48.390625 19.8125 42.84375 
Q 14.984375 37.3125 14.984375 27.296875 
Q 14.984375 17.28125 19.8125 11.734375 
Q 24.65625 6.203125 33.40625 6.203125 
Q 37.3125 6.203125 41.140625 7.25 
Q 44.96875 8.296875 48.78125 10.40625 
L 48.78125 2.09375 
Q 45.015625 0.34375 40.984375 -0.53125 
Q 36.96875 -1.421875 32.421875 -1.421875 
Q 20.0625 -1.421875 12.78125 6.34375 
Q 5.515625 14.109375 5.515625 27.296875 
Q 5.515625 40.671875 12.859375 48.328125 
Q 20.21875 56 33.015625 56 
Q 37.15625 56 41.109375 55.140625 
Q 45.0625 54.296875 48.78125 52.59375 
z
" id="DejaVuSans-99"/>
      <path d="M 8.5 21.578125 
L 8.5 54.6875 
L 17.484375 54.6875 
L 17.484375 21.921875 
Q 17.484375 14.15625 20.5 10.265625 
Q 23.53125 6.390625 29.59375 6.390625 
Q 36.859375 6.390625 41.078125 11.03125 
Q 45.3125 15.671875 45.3125 23.6875 
L 45.3125 54.6875 
L 54.296875 54.6875 
L 54.296875 0 
L 45.3125 0 
L 45.3125 8.40625 
Q 42.046875 3.421875 37.71875 1 
Q 33.40625 -1.421875 27.6875 -1.421875 
Q 18.265625 -1.421875 13.375 4.4375 
Q 8.5 10.296875 8.5 21.578125 
z
M 31.109375 56 
z
" id="DejaVuSans-117"/>
      <path d="M 52 44.1875 
Q 55.375 50.25 60.0625 53.125 
Q 64.75 56 71.09375 56 
Q 79.640625 56 84.28125 50.015625 
Q 88.921875 44.046875 88.921875 33.015625 
L 88.921875 0 
L 79.890625 0 
L 79.890625 32.71875 
Q 79.890625 40.578125 77.09375 44.375 
Q 74.3125 48.1875 68.609375 48.1875 
Q 61.625 48.1875 57.5625 43.546875 
Q 53.515625 38.921875 53.515625 30.90625 
L 53.515625 0 
L 44.484375 0 
L 44.484375 32.71875 
Q 44.484375 40.625 41.703125 44.40625 
Q 38.921875 48.1875 33.109375 48.1875 
Q 26.21875 48.1875 22.15625 43.53125 
Q 18.109375 38.875 18.109375 30.90625 
L 18.109375 0 
L 9.078125 0 
L 9.078125 54.6875 
L 18.109375 54.6875 
L 18.109375 46.1875 
Q 21.1875 51.21875 25.484375 53.609375 
Q 29.78125 56 35.6875 56 
Q 41.65625 56 45.828125 52.96875 
Q 50 49.953125 52 44.1875 
z
" id="DejaVuSans-109"/>
      <path d="M 56.203125 29.59375 
L 56.203125 25.203125 
L 14.890625 25.203125 
Q 15.484375 15.921875 20.484375 11.0625 
Q 25.484375 6.203125 34.421875 6.203125 
Q 39.59375 6.203125 44.453125 7.46875 
Q 49.3125 8.734375 54.109375 11.28125 
L 54.109375 2.78125 
Q 49.265625 0.734375 44.1875 -0.34375 
Q 39.109375 -1.421875 33.890625 -1.421875 
Q 20.796875 -1.421875 13.15625 6.1875 
Q 5.515625 13.8125 5.515625 26.8125 
Q 5.515625 40.234375 12.765625 48.109375 
Q 20.015625 56 32.328125 56 
Q 43.359375 56 49.78125 48.890625 
Q 56.203125 41.796875 56.203125 29.59375 
z
M 47.21875 32.234375 
Q 47.125 39.59375 43.09375 43.984375 
Q 39.0625 48.390625 32.421875 48.390625 
Q 24.90625 48.390625 20.390625 44.140625 
Q 15.875 39.890625 15.1875 32.171875 
z
" id="DejaVuSans-101"/>
      <path d="M 54.890625 33.015625 
L 54.890625 0 
L 45.90625 0 
L 45.90625 32.71875 
Q 45.90625 40.484375 42.875 44.328125 
Q 39.84375 48.1875 33.796875 48.1875 
Q 26.515625 48.1875 22.3125 43.546875 
Q 18.109375 38.921875 18.109375 30.90625 
L 18.109375 0 
L 9.078125 0 
L 9.078125 54.6875 
L 18.109375 54.6875 
L 18.109375 46.1875 
Q 21.34375 51.125 25.703125 53.5625 
Q 30.078125 56 35.796875 56 
Q 45.21875 56 50.046875 50.171875 
Q 54.890625 44.34375 54.890625 33.015625 
z
" id="DejaVuSans-110"/>
      <path d="M 18.3125 70.21875 
L 18.3125 54.6875 
L 36.8125 54.6875 
L 36.8125 47.703125 
L 18.3125 47.703125 
L 18.3125 18.015625 
Q 18.3125 11.328125 20.140625 9.421875 
Q 21.96875 7.515625 27.59375 7.515625 
L 36.8125 7.515625 
L 36.8125 0 
L 27.59375 0 
Q 17.1875 0 13.234375 3.875 
Q 9.28125 7.765625 9.28125 18.015625 
L 9.28125 47.703125 
L 2.6875 47.703125 
L 2.6875 54.6875 
L 9.28125 54.6875 
L 9.28125 70.21875 
z
" id="DejaVuSans-116"/>
      <path d="M 17.921875 72.90625 
L 17.921875 45.796875 
L 9.625 45.796875 
L 9.625 72.90625 
z
" id="DejaVuSans-39"/>
      <path d="M 44.28125 53.078125 
L 44.28125 44.578125 
Q 40.484375 46.53125 36.375 47.5 
Q 32.28125 48.484375 27.875 48.484375 
Q 21.1875 48.484375 17.84375 46.4375 
Q 14.5 44.390625 14.5 40.28125 
Q 14.5 37.15625 16.890625 35.375 
Q 19.28125 33.59375 26.515625 31.984375 
L 29.59375 31.296875 
Q 39.15625 29.25 43.1875 25.515625 
Q 47.21875 21.78125 47.21875 15.09375 
Q 47.21875 7.46875 41.1875 3.015625 
Q 35.15625 -1.421875 24.609375 -1.421875 
Q 20.21875 -1.421875 15.453125 -0.5625 
Q 10.6875 0.296875 5.421875 2 
L 5.421875 11.28125 
Q 10.40625 8.6875 15.234375 7.390625 
Q 20.0625 6.109375 24.8125 6.109375 
Q 31.15625 6.109375 34.5625 8.28125 
Q 37.984375 10.453125 37.984375 14.40625 
Q 37.984375 18.0625 35.515625 20.015625 
Q 33.0625 21.96875 24.703125 23.78125 
L 21.578125 24.515625 
Q 13.234375 26.265625 9.515625 29.90625 
Q 5.8125 33.546875 5.8125 39.890625 
Q 5.8125 47.609375 11.28125 51.796875 
Q 16.75 56 26.8125 56 
Q 31.78125 56 36.171875 55.265625 
Q 40.578125 54.546875 44.28125 53.078125 
z
" id="DejaVuSans-115"/>
      <path id="DejaVuSans-32"/>
      <path d="M 18.109375 8.203125 
L 18.109375 -20.796875 
L 9.078125 -20.796875 
L 9.078125 54.6875 
L 18.109375 54.6875 
L 18.109375 46.390625 
Q 20.953125 51.265625 25.265625 53.625 
Q 29.59375 56 35.59375 56 
Q 45.5625 56 51.78125 48.09375 
Q 58.015625 40.1875 58.015625 27.296875 
Q 58.015625 14.40625 51.78125 6.484375 
Q 45.5625 -1.421875 35.59375 -1.421875 
Q 29.59375 -1.421875 25.265625 0.953125 
Q 20.953125 3.328125 18.109375 8.203125 
z
M 48.6875 27.296875 
Q 48.6875 37.203125 44.609375 42.84375 
Q 40.53125 48.484375 33.40625 48.484375 
Q 26.265625 48.484375 22.1875 42.84375 
Q 18.109375 37.203125 18.109375 27.296875 
Q 18.109375 17.390625 22.1875 11.75 
Q 26.265625 6.109375 33.40625 6.109375 
Q 40.53125 6.109375 44.609375 11.75 
Q 48.6875 17.390625 48.6875 27.296875 
z
" id="DejaVuSans-112"/>
      <path d="M 41.109375 46.296875 
Q 39.59375 47.171875 37.8125 47.578125 
Q 36.03125 48 33.890625 48 
Q 26.265625 48 22.1875 43.046875 
Q 18.109375 38.09375 18.109375 28.8125 
L 18.109375 0 
L 9.078125 0 
L 9.078125 54.6875 
L 18.109375 54.6875 
L 18.109375 46.1875 
Q 20.953125 51.171875 25.484375 53.578125 
Q 30.03125 56 36.53125 56 
Q 37.453125 56 38.578125 55.875 
Q 39.703125 55.765625 41.0625 55.515625 
z
" id="DejaVuSans-114"/>
      <path d="M 34.28125 27.484375 
Q 23.390625 27.484375 19.1875 25 
Q 14.984375 22.515625 14.984375 16.5 
Q 14.984375 11.71875 18.140625 8.90625 
Q 21.296875 6.109375 26.703125 6.109375 
Q 34.1875 6.109375 38.703125 11.40625 
Q 43.21875 16.703125 43.21875 25.484375 
L 43.21875 27.484375 
z
M 52.203125 31.203125 
L 52.203125 0 
L 43.21875 0 
L 43.21875 8.296875 
Q 40.140625 3.328125 35.546875 0.953125 
Q 30.953125 -1.421875 24.3125 -1.421875 
Q 15.921875 -1.421875 10.953125 3.296875 
Q 6 8.015625 6 15.921875 
Q 6 25.140625 12.171875 29.828125 
Q 18.359375 34.515625 30.609375 34.515625 
L 43.21875 34.515625 
L 43.21875 35.40625 
Q 43.21875 41.609375 39.140625 45 
Q 35.0625 48.390625 27.6875 48.390625 
Q 23 48.390625 18.546875 47.265625 
Q 14.109375 46.140625 10.015625 43.890625 
L 10.015625 52.203125 
Q 14.9375 54.109375 19.578125 55.046875 
Q 24.21875 56 28.609375 56 
Q 40.484375 56 46.34375 49.84375 
Q 52.203125 43.703125 52.203125 31.203125 
z
" id="DejaVuSans-97"/>
      <path d="M 45.40625 27.984375 
Q 45.40625 37.75 41.375 43.109375 
Q 37.359375 48.484375 30.078125 48.484375 
Q 22.859375 48.484375 18.828125 43.109375 
Q 14.796875 37.75 14.796875 27.984375 
Q 14.796875 18.265625 18.828125 12.890625 
Q 22.859375 7.515625 30.078125 7.515625 
Q 37.359375 7.515625 41.375 12.890625 
Q 45.40625 18.265625 45.40625 27.984375 
z
M 54.390625 6.78125 
Q 54.390625 -7.171875 48.1875 -13.984375 
Q 42 -20.796875 29.203125 -20.796875 
Q 24.46875 -20.796875 20.265625 -20.09375 
Q 16.0625 -19.390625 12.109375 -17.921875 
L 12.109375 -9.1875 
Q 16.0625 -11.328125 19.921875 -12.34375 
Q 23.78125 -13.375 27.78125 -13.375 
Q 36.625 -13.375 41.015625 -8.765625 
Q 45.40625 -4.15625 45.40625 5.171875 
L 45.40625 9.625 
Q 42.625 4.78125 38.28125 2.390625 
Q 33.9375 0 27.875 0 
Q 17.828125 0 11.671875 7.65625 
Q 5.515625 15.328125 5.515625 27.984375 
Q 5.515625 40.671875 11.671875 48.328125 
Q 17.828125 56 27.875 56 
Q 33.9375 56 38.28125 53.609375 
Q 42.625 51.21875 45.40625 46.390625 
L 45.40625 54.6875 
L 54.390625 54.6875 
z
" id="DejaVuSans-103"/>
      <path d="M 37.109375 75.984375 
L 37.109375 68.5 
L 28.515625 68.5 
Q 23.6875 68.5 21.796875 66.546875 
Q 19.921875 64.59375 19.921875 59.515625 
L 19.921875 54.6875 
L 34.71875 54.6875 
L 34.71875 47.703125 
L 19.921875 47.703125 
L 19.921875 0 
L 10.890625 0 
L 10.890625 47.703125 
L 2.296875 47.703125 
L 2.296875 54.6875 
L 10.890625 54.6875 
L 10.890625 58.5 
Q 10.890625 67.625 15.140625 71.796875 
Q 19.390625 75.984375 28.609375 75.984375 
z
" id="DejaVuSans-102"/>
      <path d="M 54.890625 33.015625 
L 54.890625 0 
L 45.90625 0 
L 45.90625 32.71875 
Q 45.90625 40.484375 42.875 44.328125 
Q 39.84375 48.1875 33.796875 48.1875 
Q 26.515625 48.1875 22.3125 43.546875 
Q 18.109375 38.921875 18.109375 30.90625 
L 18.109375 0 
L 9.078125 0 
L 9.078125 75.984375 
L 18.109375 75.984375 
L 18.109375 46.1875 
Q 21.34375 51.125 25.703125 53.5625 
Q 30.078125 56 35.796875 56 
Q 45.21875 56 50.046875 50.171875 
Q 54.890625 44.34375 54.890625 33.015625 
z
" id="DejaVuSans-104"/>
      <path d="M 9.078125 75.984375 
L 18.109375 75.984375 
L 18.109375 31.109375 
L 44.921875 54.6875 
L 56.390625 54.6875 
L 27.390625 29.109375 
L 57.625 0 
L 45.90625 0 
L 18.109375 26.703125 
L 18.109375 0 
L 9.078125 0 
z
" id="DejaVuSans-107"/>
     </defs>
     <g transform="translate(323.903125 427.056562)scale(0.1 -0.1)">
      <use xlink:href="#DejaVuSans-100"/>
      <use x="63.476562" xlink:href="#DejaVuSans-111"/>
      <use x="124.658203" xlink:href="#DejaVuSans-99"/>
      <use x="179.638672" xlink:href="#DejaVuSans-117"/>
      <use x="243.017578" xlink:href="#DejaVuSans-109"/>
      <use x="340.429688" xlink:href="#DejaVuSans-101"/>
      <use x="401.953125" xlink:href="#DejaVuSans-110"/>
      <use x="465.332031" xlink:href="#DejaVuSans-116"/>
      <use x="504.541016" xlink:href="#DejaVuSans-39"/>
      <use x="532.03125" xlink:href="#DejaVuSans-115"/>
      <use x="584.130859" xlink:href="#DejaVuSans-32"/>
      <use x="615.917969" xlink:href="#DejaVuSans-112"/>
      <use x="679.394531" xlink:href="#DejaVuSans-101"/>
      <use x="740.917969" xlink:href="#DejaVuSans-114"/>
      <use x="782" xlink:href="#DejaVuSans-99"/>
      <use x="836.980469" xlink:href="#DejaVuSans-101"/>
      <use x="898.503906" xlink:href="#DejaVuSans-110"/>
      <use x="961.882812" xlink:href="#DejaVuSans-116"/>
      <use x="1001.091797" xlink:href="#DejaVuSans-97"/>
      <use x="1062.371094" xlink:href="#DejaVuSans-103"/>
      <use x="1125.847656" xlink:href="#DejaVuSans-101"/>
      <use x="1187.371094" xlink:href="#DejaVuSans-32"/>
      <use x="1219.158203" xlink:href="#DejaVuSans-111"/>
      <use x="1280.339844" xlink:href="#DejaVuSans-102"/>
      <use x="1315.544922" xlink:href="#DejaVuSans-32"/>
      <use x="1347.332031" xlink:href="#DejaVuSans-116"/>
      <use x="1386.541016" xlink:href="#DejaVuSans-104"/>
      <use x="1449.919922" xlink:href="#DejaVuSans-101"/>
      <use x="1511.443359" xlink:href="#DejaVuSans-32"/>
      <use x="1543.230469" xlink:href="#DejaVuSans-99"/>
      <use x="1598.210938" xlink:href="#DejaVuSans-104"/>
      <use x="1661.589844" xlink:href="#DejaVuSans-117"/>
      <use x="1724.96875" xlink:href="#DejaVuSans-110"/>
      <use x="1788.347656" xlink:href="#DejaVuSans-107"/>
      <use x="1846.257812" xlink:href="#DejaVuSans-39"/>
      <use x="1873.748047" xlink:href="#DejaVuSans-115"/>
      <use x="1925.847656" xlink:href="#DejaVuSans-32"/>
      <use x="1957.634766" xlink:href="#DejaVuSans-101"/>
      <use x="2019.158203" xlink:href="#DejaVuSans-110"/>
      <use x="2082.537109" xlink:href="#DejaVuSans-100"/>
     </g>
    </g>
   </g>
   <g id="matplotlib.axis_2">
    <g id="ytick_1">
     <g id="line2d_7">
      <defs>
       <path d="M 0 0 
L -3.5 0 
" id="mf8b4c098cf" style="stroke:#000000;stroke-width:0.8;"/>
      </defs>
      <g>
       <use style="stroke:#000000;stroke-width:0.8;" x="40.603125" xlink:href="#mf8b4c098cf" y="372.177481"/>
      </g>
     </g>
     <g id="text_8">
      <!-- 10 -->
      <g transform="translate(20.878125 375.9767)scale(0.1 -0.1)">
       <use xlink:href="#DejaVuSans-49"/>
       <use x="63.623047" xlink:href="#DejaVuSans-48"/>
      </g>
     </g>
    </g>
    <g id="ytick_2">
     <g id="line2d_8">
      <g>
       <use style="stroke:#000000;stroke-width:0.8;" x="40.603125" xlink:href="#mf8b4c098cf" y="298.714213"/>
      </g>
     </g>
     <g id="text_9">
      <!-- 12 -->
      <g transform="translate(20.878125 302.513432)scale(0.1 -0.1)">
       <use xlink:href="#DejaVuSans-49"/>
       <use x="63.623047" xlink:href="#DejaVuSans-50"/>
      </g>
     </g>
    </g>
    <g id="ytick_3">
     <g id="line2d_9">
      <g>
       <use style="stroke:#000000;stroke-width:0.8;" x="40.603125" xlink:href="#mf8b4c098cf" y="225.250945"/>
      </g>
     </g>
     <g id="text_10">
      <!-- 14 -->
      <g transform="translate(20.878125 229.050163)scale(0.1 -0.1)">
       <use xlink:href="#DejaVuSans-49"/>
       <use x="63.623047" xlink:href="#DejaVuSans-52"/>
      </g>
     </g>
    </g>
    <g id="ytick_4">
     <g id="line2d_10">
      <g>
       <use style="stroke:#000000;stroke-width:0.8;" x="40.603125" xlink:href="#mf8b4c098cf" y="151.787676"/>
      </g>
     </g>
     <g id="text_11">
      <!-- 16 -->
      <g transform="translate(20.878125 155.586895)scale(0.1 -0.1)">
       <use xlink:href="#DejaVuSans-49"/>
       <use x="63.623047" xlink:href="#DejaVuSans-54"/>
      </g>
     </g>
    </g>
    <g id="ytick_5">
     <g id="line2d_11">
      <g>
       <use style="stroke:#000000;stroke-width:0.8;" x="40.603125" xlink:href="#mf8b4c098cf" y="78.324408"/>
      </g>
     </g>
     <g id="text_12">
      <!-- 18 -->
      <g transform="translate(20.878125 82.123627)scale(0.1 -0.1)">
       <use xlink:href="#DejaVuSans-49"/>
       <use x="63.623047" xlink:href="#DejaVuSans-56"/>
      </g>
     </g>
    </g>
    <g id="text_13">
     <!-- GFI -->
     <defs>
      <path d="M 59.515625 10.40625 
L 59.515625 29.984375 
L 43.40625 29.984375 
L 43.40625 38.09375 
L 69.28125 38.09375 
L 69.28125 6.78125 
Q 63.578125 2.734375 56.6875 0.65625 
Q 49.8125 -1.421875 42 -1.421875 
Q 24.90625 -1.421875 15.25 8.5625 
Q 5.609375 18.5625 5.609375 36.375 
Q 5.609375 54.25 15.25 64.234375 
Q 24.90625 74.21875 42 74.21875 
Q 49.125 74.21875 55.546875 72.453125 
Q 61.96875 70.703125 67.390625 67.28125 
L 67.390625 56.78125 
Q 61.921875 61.421875 55.765625 63.765625 
Q 49.609375 66.109375 42.828125 66.109375 
Q 29.4375 66.109375 22.71875 58.640625 
Q 16.015625 51.171875 16.015625 36.375 
Q 16.015625 21.625 22.71875 14.15625 
Q 29.4375 6.6875 42.828125 6.6875 
Q 48.046875 6.6875 52.140625 7.59375 
Q 56.25 8.5 59.515625 10.40625 
z
" id="DejaVuSans-71"/>
      <path d="M 9.8125 72.90625 
L 51.703125 72.90625 
L 51.703125 64.59375 
L 19.671875 64.59375 
L 19.671875 43.109375 
L 48.578125 43.109375 
L 48.578125 34.8125 
L 19.671875 34.8125 
L 19.671875 0 
L 9.8125 0 
z
" id="DejaVuSans-70"/>
      <path d="M 9.8125 72.90625 
L 19.671875 72.90625 
L 19.671875 0 
L 9.8125 0 
z
" id="DejaVuSans-73"/>
     </defs>
     <g transform="translate(14.798438 212.965)rotate(-90)scale(0.1 -0.1)">
      <use xlink:href="#DejaVuSans-71"/>
      <use x="77.490234" xlink:href="#DejaVuSans-70"/>
      <use x="135.009766" xlink:href="#DejaVuSans-73"/>
     </g>
    </g>
   </g>
   <g id="line2d_12">
    <path clip-path="url(#paed382e8a0)" d="M 76.112216 172.794498 
L 90.90767 77.402444 
L 105.703125 261.905442 
L 120.49858 251.194498 
L 135.294034 204.211064 
L 150.089489 241.949145 
L 164.884943 159.178081 
L 179.680398 99.221034 
L 194.475852 200.053043 
L 209.271307 113.586777 
L 224.066761 134.828681 
L 238.862216 172.816537 
L 253.65767 144.470735 
L 268.453125 164.61069 
L 283.24858 139.324633 
L 298.044034 181.018711 
L 312.839489 204.798771 
L 327.634943 266.959715 
L 342.430398 238.643298 
L 357.225852 271.220585 
L 372.021307 196.394573 
L 386.816761 57.769385 
L 401.612216 310.512414 
L 416.40767 33.61099 
L 431.203125 186.087676 
L 445.99858 227.304243 
L 460.794034 172.662264 
L 475.589489 264.660315 
L 490.384943 280.745097 
L 505.180398 246.783028 
L 519.975852 235.168486 
L 534.771307 381.14 
L 549.566761 305.388351 
L 564.362216 231.006792 
L 579.15767 127.416237 
L 593.953125 188.5891 
L 608.74858 265.11946 
L 623.544034 205.676657 
L 638.339489 247.782129 
L 653.134943 180.412639 
L 667.930398 271.022234 
L 682.725852 306.92006 
L 697.521307 141.635052 
L 712.316761 224.835877 
L 727.112216 89.652444 
L 741.90767 78.328081 
L 756.703125 181.246447 
L 771.49858 221.214138 
L 786.294034 128.936927 
" style="fill:none;stroke:#acc2d9;stroke-linecap:square;stroke-width:1.5;"/>
    <defs>
     <path d="M 0 3 
C 0.795609 3 1.55874 2.683901 2.12132 2.12132 
C 2.683901 1.55874 3 0.795609 3 0 
C 3 -0.795609 2.683901 -1.55874 2.12132 -2.12132 
C 1.55874 -2.683901 0.795609 -3 0 -3 
C -0.795609 -3 -1.55874 -2.683901 -2.12132 -2.12132 
C -2.683901 -1.55874 -3 -0.795609 -3 0 
C -3 0.795609 -2.683901 1.55874 -2.12132 2.12132 
C -1.55874 2.683901 -0.795609 3 0 3 
z
" id="md3aef4320b" style="stroke:#acc2d9;"/>
    </defs>
    <g clip-path="url(#paed382e8a0)">
     <use style="fill:#acc2d9;stroke:#acc2d9;" x="76.112216" xlink:href="#md3aef4320b" y="172.794498"/>
     <use style="fill:#acc2d9;stroke:#acc2d9;" x="90.90767" xlink:href="#md3aef4320b" y="77.402444"/>
     <use style="fill:#acc2d9;stroke:#acc2d9;" x="105.703125" xlink:href="#md3aef4320b" y="261.905442"/>
     <use style="fill:#acc2d9;stroke:#acc2d9;" x="120.49858" xlink:href="#md3aef4320b" y="251.194498"/>
     <use style="fill:#acc2d9;stroke:#acc2d9;" x="135.294034" xlink:href="#md3aef4320b" y="204.211064"/>
     <use style="fill:#acc2d9;stroke:#acc2d9;" x="150.089489" xlink:href="#md3aef4320b" y="241.949145"/>
     <use style="fill:#acc2d9;stroke:#acc2d9;" x="164.884943" xlink:href="#md3aef4320b" y="159.178081"/>
     <use style="fill:#acc2d9;stroke:#acc2d9;" x="179.680398" xlink:href="#md3aef4320b" y="99.221034"/>
     <use style="fill:#acc2d9;stroke:#acc2d9;" x="194.475852" xlink:href="#md3aef4320b" y="200.053043"/>
     <use style="fill:#acc2d9;stroke:#acc2d9;" x="209.271307" xlink:href="#md3aef4320b" y="113.586777"/>
     <use style="fill:#acc2d9;stroke:#acc2d9;" x="224.066761" xlink:href="#md3aef4320b" y="134.828681"/>
     <use style="fill:#acc2d9;stroke:#acc2d9;" x="238.862216" xlink:href="#md3aef4320b" y="172.816537"/>
     <use style="fill:#acc2d9;stroke:#acc2d9;" x="253.65767" xlink:href="#md3aef4320b" y="144.470735"/>
     <use style="fill:#acc2d9;stroke:#acc2d9;" x="268.453125" xlink:href="#md3aef4320b" y="164.61069"/>
     <use style="fill:#acc2d9;stroke:#acc2d9;" x="283.24858" xlink:href="#md3aef4320b" y="139.324633"/>
     <use style="fill:#acc2d9;stroke:#acc2d9;" x="298.044034" xlink:href="#md3aef4320b" y="181.018711"/>
     <use style="fill:#acc2d9;stroke:#acc2d9;" x="312.839489" xlink:href="#md3aef4320b" y="204.798771"/>
     <use style="fill:#acc2d9;stroke:#acc2d9;" x="327.634943" xlink:href="#md3aef4320b" y="266.959715"/>
     <use style="fill:#acc2d9;stroke:#acc2d9;" x="342.430398" xlink:href="#md3aef4320b" y="238.643298"/>
     <use style="fill:#acc2d9;stroke:#acc2d9;" x="357.225852" xlink:href="#md3aef4320b" y="271.220585"/>
     <use style="fill:#acc2d9;stroke:#acc2d9;" x="372.021307" xlink:href="#md3aef4320b" y="196.394573"/>
     <use style="fill:#acc2d9;stroke:#acc2d9;" x="386.816761" xlink:href="#md3aef4320b" y="57.769385"/>
     <use style="fill:#acc2d9;stroke:#acc2d9;" x="401.612216" xlink:href="#md3aef4320b" y="310.512414"/>
     <use style="fill:#acc2d9;stroke:#acc2d9;" x="416.40767" xlink:href="#md3aef4320b" y="33.61099"/>
     <use style="fill:#acc2d9;stroke:#acc2d9;" x="431.203125" xlink:href="#md3aef4320b" y="186.087676"/>
     <use style="fill:#acc2d9;stroke:#acc2d9;" x="445.99858" xlink:href="#md3aef4320b" y="227.304243"/>
     <use style="fill:#acc2d9;stroke:#acc2d9;" x="460.794034" xlink:href="#md3aef4320b" y="172.662264"/>
     <use style="fill:#acc2d9;stroke:#acc2d9;" x="475.589489" xlink:href="#md3aef4320b" y="264.660315"/>
     <use style="fill:#acc2d9;stroke:#acc2d9;" x="490.384943" xlink:href="#md3aef4320b" y="280.745097"/>
     <use style="fill:#acc2d9;stroke:#acc2d9;" x="505.180398" xlink:href="#md3aef4320b" y="246.783028"/>
     <use style="fill:#acc2d9;stroke:#acc2d9;" x="519.975852" xlink:href="#md3aef4320b" y="235.168486"/>
     <use style="fill:#acc2d9;stroke:#acc2d9;" x="534.771307" xlink:href="#md3aef4320b" y="381.14"/>
     <use style="fill:#acc2d9;stroke:#acc2d9;" x="549.566761" xlink:href="#md3aef4320b" y="305.388351"/>
     <use style="fill:#acc2d9;stroke:#acc2d9;" x="564.362216" xlink:href="#md3aef4320b" y="231.006792"/>
     <use style="fill:#acc2d9;stroke:#acc2d9;" x="579.15767" xlink:href="#md3aef4320b" y="127.416237"/>
     <use style="fill:#acc2d9;stroke:#acc2d9;" x="593.953125" xlink:href="#md3aef4320b" y="188.5891"/>
     <use style="fill:#acc2d9;stroke:#acc2d9;" x="608.74858" xlink:href="#md3aef4320b" y="265.11946"/>
     <use style="fill:#acc2d9;stroke:#acc2d9;" x="623.544034" xlink:href="#md3aef4320b" y="205.676657"/>
     <use style="fill:#acc2d9;stroke:#acc2d9;" x="638.339489" xlink:href="#md3aef4320b" y="247.782129"/>
     <use style="fill:#acc2d9;stroke:#acc2d9;" x="653.134943" xlink:href="#md3aef4320b" y="180.412639"/>
     <use style="fill:#acc2d9;stroke:#acc2d9;" x="667.930398" xlink:href="#md3aef4320b" y="271.022234"/>
     <use style="fill:#acc2d9;stroke:#acc2d9;" x="682.725852" xlink:href="#md3aef4320b" y="306.92006"/>
     <use style="fill:#acc2d9;stroke:#acc2d9;" x="697.521307" xlink:href="#md3aef4320b" y="141.635052"/>
     <use style="fill:#acc2d9;stroke:#acc2d9;" x="712.316761" xlink:href="#md3aef4320b" y="224.835877"/>
     <use style="fill:#acc2d9;stroke:#acc2d9;" x="727.112216" xlink:href="#md3aef4320b" y="89.652444"/>
     <use style="fill:#acc2d9;stroke:#acc2d9;" x="741.90767" xlink:href="#md3aef4320b" y="78.328081"/>
     <use style="fill:#acc2d9;stroke:#acc2d9;" x="756.703125" xlink:href="#md3aef4320b" y="181.246447"/>
     <use style="fill:#acc2d9;stroke:#acc2d9;" x="771.49858" xlink:href="#md3aef4320b" y="221.214138"/>
     <use style="fill:#acc2d9;stroke:#acc2d9;" x="786.294034" xlink:href="#md3aef4320b" y="128.936927"/>
    </g>
   </g>
   <g id="line2d_13">
    <path clip-path="url(#paed382e8a0)" d="M 80.395111 309.913688 
L 99.47346 226.841424 
L 118.551809 276.994798 
L 137.630158 328.09952 
L 156.708508 273.325307 
L 175.786857 262.085427 
L 194.865206 284.109715 
L 213.943556 271.514438 
L 233.021905 189.382504 
L 252.100254 343.677406 
L 271.178603 273.960765 
L 290.256953 258.981604 
L 309.335302 191.615787 
L 328.413651 256.230405 
L 347.492001 186.903118 
L 366.57035 205.595847 
L 385.648699 199.781229 
L 404.727048 139.199745 
L 423.805398 268.715487 
L 442.883747 140.709415 
L 461.962096 242.768261 
L 481.040446 353.275382 
L 500.118795 305.454468 
L 519.197144 282.76901 
L 538.275493 220.876207 
L 557.353843 215.002819 
L 576.432192 233.486177 
L 595.510541 261.071634 
L 614.588891 320.334453 
L 633.66724 306.170735 
L 652.745589 214.371034 
L 671.823938 273.854243 
L 690.902288 280.278606 
L 709.980637 254.47096 
L 729.058986 274.574183 
L 748.137336 280.41084 
L 767.215685 334.046372 
L 786.294034 200.306492 
" style="fill:none;stroke:#56ae57;stroke-linecap:square;stroke-width:1.5;"/>
    <defs>
     <path d="M 0 3 
C 0.795609 3 1.55874 2.683901 2.12132 2.12132 
C 2.683901 1.55874 3 0.795609 3 0 
C 3 -0.795609 2.683901 -1.55874 2.12132 -2.12132 
C 1.55874 -2.683901 0.795609 -3 0 -3 
C -0.795609 -3 -1.55874 -2.683901 -2.12132 -2.12132 
C -2.683901 -1.55874 -3 -0.795609 -3 0 
C -3 0.795609 -2.683901 1.55874 -2.12132 2.12132 
C -1.55874 2.683901 -0.795609 3 0 3 
z
" id="ma0f6f2cf29" style="stroke:#56ae57;"/>
    </defs>
    <g clip-path="url(#paed382e8a0)">
     <use style="fill:#56ae57;stroke:#56ae57;" x="80.395111" xlink:href="#ma0f6f2cf29" y="309.913688"/>
     <use style="fill:#56ae57;stroke:#56ae57;" x="99.47346" xlink:href="#ma0f6f2cf29" y="226.841424"/>
     <use style="fill:#56ae57;stroke:#56ae57;" x="118.551809" xlink:href="#ma0f6f2cf29" y="276.994798"/>
     <use style="fill:#56ae57;stroke:#56ae57;" x="137.630158" xlink:href="#ma0f6f2cf29" y="328.09952"/>
     <use style="fill:#56ae57;stroke:#56ae57;" x="156.708508" xlink:href="#ma0f6f2cf29" y="273.325307"/>
     <use style="fill:#56ae57;stroke:#56ae57;" x="175.786857" xlink:href="#ma0f6f2cf29" y="262.085427"/>
     <use style="fill:#56ae57;stroke:#56ae57;" x="194.865206" xlink:href="#ma0f6f2cf29" y="284.109715"/>
     <use style="fill:#56ae57;stroke:#56ae57;" x="213.943556" xlink:href="#ma0f6f2cf29" y="271.514438"/>
     <use style="fill:#56ae57;stroke:#56ae57;" x="233.021905" xlink:href="#ma0f6f2cf29" y="189.382504"/>
     <use style="fill:#56ae57;stroke:#56ae57;" x="252.100254" xlink:href="#ma0f6f2cf29" y="343.677406"/>
     <use style="fill:#56ae57;stroke:#56ae57;" x="271.178603" xlink:href="#ma0f6f2cf29" y="273.960765"/>
     <use style="fill:#56ae57;stroke:#56ae57;" x="290.256953" xlink:href="#ma0f6f2cf29" y="258.981604"/>
     <use style="fill:#56ae57;stroke:#56ae57;" x="309.335302" xlink:href="#ma0f6f2cf29" y="191.615787"/>
     <use style="fill:#56ae57;stroke:#56ae57;" x="328.413651" xlink:href="#ma0f6f2cf29" y="256.230405"/>
     <use style="fill:#56ae57;stroke:#56ae57;" x="347.492001" xlink:href="#ma0f6f2cf29" y="186.903118"/>
     <use style="fill:#56ae57;stroke:#56ae57;" x="366.57035" xlink:href="#ma0f6f2cf29" y="205.595847"/>
     <use style="fill:#56ae57;stroke:#56ae57;" x="385.648699" xlink:href="#ma0f6f2cf29" y="199.781229"/>
     <use style="fill:#56ae57;stroke:#56ae57;" x="404.727048" xlink:href="#ma0f6f2cf29" y="139.199745"/>
     <use style="fill:#56ae57;stroke:#56ae57;" x="423.805398" xlink:href="#ma0f6f2cf29" y="268.715487"/>
     <use style="fill:#56ae57;stroke:#56ae57;" x="442.883747" xlink:href="#ma0f6f2cf29" y="140.709415"/>
     <use style="fill:#56ae57;stroke:#56ae57;" x="461.962096" xlink:href="#ma0f6f2cf29" y="242.768261"/>
     <use style="fill:#56ae57;stroke:#56ae57;" x="481.040446" xlink:href="#ma0f6f2cf29" y="353.275382"/>
     <use style="fill:#56ae57;stroke:#56ae57;" x="500.118795" xlink:href="#ma0f6f2cf29" y="305.454468"/>
     <use style="fill:#56ae57;stroke:#56ae57;" x="519.197144" xlink:href="#ma0f6f2cf29" y="282.76901"/>
     <use style="fill:#56ae57;stroke:#56ae57;" x="538.275493" xlink:href="#ma0f6f2cf29" y="220.876207"/>
     <use style="fill:#56ae57;stroke:#56ae57;" x="557.353843" xlink:href="#ma0f6f2cf29" y="215.002819"/>
     <use style="fill:#56ae57;stroke:#56ae57;" x="576.432192" xlink:href="#ma0f6f2cf29" y="233.486177"/>
     <use style="fill:#56ae57;stroke:#56ae57;" x="595.510541" xlink:href="#ma0f6f2cf29" y="261.071634"/>
     <use style="fill:#56ae57;stroke:#56ae57;" x="614.588891" xlink:href="#ma0f6f2cf29" y="320.334453"/>
     <use style="fill:#56ae57;stroke:#56ae57;" x="633.66724" xlink:href="#ma0f6f2cf29" y="306.170735"/>
     <use style="fill:#56ae57;stroke:#56ae57;" x="652.745589" xlink:href="#ma0f6f2cf29" y="214.371034"/>
     <use style="fill:#56ae57;stroke:#56ae57;" x="671.823938" xlink:href="#ma0f6f2cf29" y="273.854243"/>
     <use style="fill:#56ae57;stroke:#56ae57;" x="690.902288" xlink:href="#ma0f6f2cf29" y="280.278606"/>
     <use style="fill:#56ae57;stroke:#56ae57;" x="709.980637" xlink:href="#ma0f6f2cf29" y="254.47096"/>
     <use style="fill:#56ae57;stroke:#56ae57;" x="729.058986" xlink:href="#ma0f6f2cf29" y="274.574183"/>
     <use style="fill:#56ae57;stroke:#56ae57;" x="748.137336" xlink:href="#ma0f6f2cf29" y="280.41084"/>
     <use style="fill:#56ae57;stroke:#56ae57;" x="767.215685" xlink:href="#ma0f6f2cf29" y="334.046372"/>
     <use style="fill:#56ae57;stroke:#56ae57;" x="786.294034" xlink:href="#ma0f6f2cf29" y="200.306492"/>
    </g>
   </g>
   <g id="line2d_14">
    <path clip-path="url(#paed382e8a0)" d="M 90.315852 185.055517 
L 119.314943 121.682429 
L 148.314034 28.34 
L 177.313125 205.922759 
L 206.312216 238.687376 
L 235.311307 160.93018 
L 264.310398 213.911889 
L 293.309489 220.321559 
L 322.30858 105.884153 
L 351.30767 42.507391 
L 380.306761 83.786402 
L 409.305852 125.403343 
L 438.304943 294.126432 
L 467.304034 240.531304 
L 496.303125 334.00964 
L 525.302216 213.397646 
L 554.301307 162.682279 
L 583.300398 240.520285 
L 612.299489 199.079655 
L 641.29858 266.195697 
L 670.29767 211.79982 
L 699.296761 212.115712 
L 728.295852 167.868786 
L 757.294943 236.075757 
L 786.294034 194.66084 
" style="fill:none;stroke:#b2996e;stroke-linecap:square;stroke-width:1.5;"/>
    <defs>
     <path d="M 0 3 
C 0.795609 3 1.55874 2.683901 2.12132 2.12132 
C 2.683901 1.55874 3 0.795609 3 0 
C 3 -0.795609 2.683901 -1.55874 2.12132 -2.12132 
C 1.55874 -2.683901 0.795609 -3 0 -3 
C -0.795609 -3 -1.55874 -2.683901 -2.12132 -2.12132 
C -2.683901 -1.55874 -3 -0.795609 -3 0 
C -3 0.795609 -2.683901 1.55874 -2.12132 2.12132 
C -1.55874 2.683901 -0.795609 3 0 3 
z
" id="m97007c408c" style="stroke:#b2996e;"/>
    </defs>
    <g clip-path="url(#paed382e8a0)">
     <use style="fill:#b2996e;stroke:#b2996e;" x="90.315852" xlink:href="#m97007c408c" y="185.055517"/>
     <use style="fill:#b2996e;stroke:#b2996e;" x="119.314943" xlink:href="#m97007c408c" y="121.682429"/>
     <use style="fill:#b2996e;stroke:#b2996e;" x="148.314034" xlink:href="#m97007c408c" y="28.34"/>
     <use style="fill:#b2996e;stroke:#b2996e;" x="177.313125" xlink:href="#m97007c408c" y="205.922759"/>
     <use style="fill:#b2996e;stroke:#b2996e;" x="206.312216" xlink:href="#m97007c408c" y="238.687376"/>
     <use style="fill:#b2996e;stroke:#b2996e;" x="235.311307" xlink:href="#m97007c408c" y="160.93018"/>
     <use style="fill:#b2996e;stroke:#b2996e;" x="264.310398" xlink:href="#m97007c408c" y="213.911889"/>
     <use style="fill:#b2996e;stroke:#b2996e;" x="293.309489" xlink:href="#m97007c408c" y="220.321559"/>
     <use style="fill:#b2996e;stroke:#b2996e;" x="322.30858" xlink:href="#m97007c408c" y="105.884153"/>
     <use style="fill:#b2996e;stroke:#b2996e;" x="351.30767" xlink:href="#m97007c408c" y="42.507391"/>
     <use style="fill:#b2996e;stroke:#b2996e;" x="380.306761" xlink:href="#m97007c408c" y="83.786402"/>
     <use style="fill:#b2996e;stroke:#b2996e;" x="409.305852" xlink:href="#m97007c408c" y="125.403343"/>
     <use style="fill:#b2996e;stroke:#b2996e;" x="438.304943" xlink:href="#m97007c408c" y="294.126432"/>
     <use style="fill:#b2996e;stroke:#b2996e;" x="467.304034" xlink:href="#m97007c408c" y="240.531304"/>
     <use style="fill:#b2996e;stroke:#b2996e;" x="496.303125" xlink:href="#m97007c408c" y="334.00964"/>
     <use style="fill:#b2996e;stroke:#b2996e;" x="525.302216" xlink:href="#m97007c408c" y="213.397646"/>
     <use style="fill:#b2996e;stroke:#b2996e;" x="554.301307" xlink:href="#m97007c408c" y="162.682279"/>
     <use style="fill:#b2996e;stroke:#b2996e;" x="583.300398" xlink:href="#m97007c408c" y="240.520285"/>
     <use style="fill:#b2996e;stroke:#b2996e;" x="612.299489" xlink:href="#m97007c408c" y="199.079655"/>
     <use style="fill:#b2996e;stroke:#b2996e;" x="641.29858" xlink:href="#m97007c408c" y="266.195697"/>
     <use style="fill:#b2996e;stroke:#b2996e;" x="670.29767" xlink:href="#m97007c408c" y="211.79982"/>
     <use style="fill:#b2996e;stroke:#b2996e;" x="699.296761" xlink:href="#m97007c408c" y="212.115712"/>
     <use style="fill:#b2996e;stroke:#b2996e;" x="728.295852" xlink:href="#m97007c408c" y="167.868786"/>
     <use style="fill:#b2996e;stroke:#b2996e;" x="757.294943" xlink:href="#m97007c408c" y="236.075757"/>
     <use style="fill:#b2996e;stroke:#b2996e;" x="786.294034" xlink:href="#m97007c408c" y="194.66084"/>
    </g>
   </g>
   <g id="line2d_15">
    <path clip-path="url(#paed382e8a0)" d="M 94.270274 151.78033 
L 127.223786 170.664063 
L 160.177299 202.594873 
L 193.130811 84.579805 
L 226.084323 101.322084 
L 259.037836 156.210165 
L 291.991348 80.961739 
L 324.944861 183.9903 
L 357.898373 149.345022 
L 390.851885 256.608741 
L 423.805398 103.871259 
L 456.75891 190.892174 
L 489.712423 184.394348 
L 522.665935 197.287151 
L 555.619447 171.567661 
L 588.57296 194.962039 
L 621.526472 166.612564 
L 654.479985 184.515562 
L 687.433497 185.551394 
L 720.387009 181.907616 
L 753.340522 183.869085 
L 786.294034 224.777106 
" style="fill:none;stroke:#a8ff04;stroke-linecap:square;stroke-width:1.5;"/>
    <defs>
     <path d="M 0 3 
C 0.795609 3 1.55874 2.683901 2.12132 2.12132 
C 2.683901 1.55874 3 0.795609 3 0 
C 3 -0.795609 2.683901 -1.55874 2.12132 -2.12132 
C 1.55874 -2.683901 0.795609 -3 0 -3 
C -0.795609 -3 -1.55874 -2.683901 -2.12132 -2.12132 
C -2.683901 -1.55874 -3 -0.795609 -3 0 
C -3 0.795609 -2.683901 1.55874 -2.12132 2.12132 
C -1.55874 2.683901 -0.795609 3 0 3 
z
" id="m3bc774841e" style="stroke:#a8ff04;"/>
    </defs>
    <g clip-path="url(#paed382e8a0)">
     <use style="fill:#a8ff04;stroke:#a8ff04;" x="94.270274" xlink:href="#m3bc774841e" y="151.78033"/>
     <use style="fill:#a8ff04;stroke:#a8ff04;" x="127.223786" xlink:href="#m3bc774841e" y="170.664063"/>
     <use style="fill:#a8ff04;stroke:#a8ff04;" x="160.177299" xlink:href="#m3bc774841e" y="202.594873"/>
     <use style="fill:#a8ff04;stroke:#a8ff04;" x="193.130811" xlink:href="#m3bc774841e" y="84.579805"/>
     <use style="fill:#a8ff04;stroke:#a8ff04;" x="226.084323" xlink:href="#m3bc774841e" y="101.322084"/>
     <use style="fill:#a8ff04;stroke:#a8ff04;" x="259.037836" xlink:href="#m3bc774841e" y="156.210165"/>
     <use style="fill:#a8ff04;stroke:#a8ff04;" x="291.991348" xlink:href="#m3bc774841e" y="80.961739"/>
     <use style="fill:#a8ff04;stroke:#a8ff04;" x="324.944861" xlink:href="#m3bc774841e" y="183.9903"/>
     <use style="fill:#a8ff04;stroke:#a8ff04;" x="357.898373" xlink:href="#m3bc774841e" y="149.345022"/>
     <use style="fill:#a8ff04;stroke:#a8ff04;" x="390.851885" xlink:href="#m3bc774841e" y="256.608741"/>
     <use style="fill:#a8ff04;stroke:#a8ff04;" x="423.805398" xlink:href="#m3bc774841e" y="103.871259"/>
     <use style="fill:#a8ff04;stroke:#a8ff04;" x="456.75891" xlink:href="#m3bc774841e" y="190.892174"/>
     <use style="fill:#a8ff04;stroke:#a8ff04;" x="489.712423" xlink:href="#m3bc774841e" y="184.394348"/>
     <use style="fill:#a8ff04;stroke:#a8ff04;" x="522.665935" xlink:href="#m3bc774841e" y="197.287151"/>
     <use style="fill:#a8ff04;stroke:#a8ff04;" x="555.619447" xlink:href="#m3bc774841e" y="171.567661"/>
     <use style="fill:#a8ff04;stroke:#a8ff04;" x="588.57296" xlink:href="#m3bc774841e" y="194.962039"/>
     <use style="fill:#a8ff04;stroke:#a8ff04;" x="621.526472" xlink:href="#m3bc774841e" y="166.612564"/>
     <use style="fill:#a8ff04;stroke:#a8ff04;" x="654.479985" xlink:href="#m3bc774841e" y="184.515562"/>
     <use style="fill:#a8ff04;stroke:#a8ff04;" x="687.433497" xlink:href="#m3bc774841e" y="185.551394"/>
     <use style="fill:#a8ff04;stroke:#a8ff04;" x="720.387009" xlink:href="#m3bc774841e" y="181.907616"/>
     <use style="fill:#a8ff04;stroke:#a8ff04;" x="753.340522" xlink:href="#m3bc774841e" y="183.869085"/>
     <use style="fill:#a8ff04;stroke:#a8ff04;" x="786.294034" xlink:href="#m3bc774841e" y="224.777106"/>
    </g>
   </g>
   <g id="patch_3">
    <path d="M 40.603125 398.78 
L 40.603125 10.7 
" style="fill:none;stroke:#000000;stroke-linecap:square;stroke-linejoin:miter;stroke-width:0.8;"/>
   </g>
   <g id="patch_4">
    <path d="M 821.803125 398.78 
L 821.803125 10.7 
" style="fill:none;stroke:#000000;stroke-linecap:square;stroke-linejoin:miter;stroke-width:0.8;"/>
   </g>
   <g id="patch_5">
    <path d="M 40.603125 398.78 
L 821.803125 398.78 
" style="fill:none;stroke:#000000;stroke-linecap:square;stroke-linejoin:miter;stroke-width:0.8;"/>
   </g>
   <g id="patch_6">
    <path d="M 40.603125 10.7 
L 821.803125 10.7 
" style="fill:none;stroke:#000000;stroke-linecap:square;stroke-linejoin:miter;stroke-width:0.8;"/>
   </g>
  </g>
 </g>
 <defs>
  <clipPath id="paed382e8a0">
   <rect height="388.08" width="781.2" x="40.603125" y="10.7"/>
  </clipPath>
 </defs>
</svg>
