<?xml version="1.0" encoding="utf-8" standalone="no"?>
<!DOCTYPE svg PUBLIC "-//W3C//DTD SVG 1.1//EN"
  "http://www.w3.org/Graphics/SVG/1.1/DTD/svg11.dtd">
<!-- Created with matplotlib (https://matplotlib.org/) -->
<svg height="504pt" version="1.1" viewBox="0 0 1008 504" width="1008pt" xmlns="http://www.w3.org/2000/svg" xmlns:xlink="http://www.w3.org/1999/xlink">
 <defs>
  <style type="text/css">
*{stroke-linecap:butt;stroke-linejoin:round;}
  </style>
 </defs>
 <g id="figure_1">
  <g id="patch_1">
   <path d="M 0 504 
L 1008 504 
L 1008 0 
L 0 0 
z
" style="fill:#ffffff;"/>
  </g>
  <g id="axes_1">
   <g id="patch_2">
    <path d="M 126 448.56 
L 907.2 448.56 
L 907.2 60.48 
L 126 60.48 
z
" style="fill:#ffffff;"/>
   </g>
   <g id="matplotlib.axis_1">
    <g id="xtick_1">
     <g id="line2d_1">
      <defs>
       <path d="M 0 0 
L 0 3.5 
" id="mc21e85f9ed" style="stroke:#000000;stroke-width:0.8;"/>
      </defs>
      <g>
       <use style="stroke:#000000;stroke-width:0.8;" x="146.713636" xlink:href="#mc21e85f9ed" y="448.56"/>
      </g>
     </g>
     <g id="text_1">
      <!-- 0 -->
      <defs>
       <path d="M 31.78125 66.40625 
Q 24.171875 66.40625 20.328125 58.90625 
Q 16.5 51.421875 16.5 36.375 
Q 16.5 21.390625 20.328125 13.890625 
Q 24.171875 6.390625 31.78125 6.390625 
Q 39.453125 6.390625 43.28125 13.890625 
Q 47.125 21.390625 47.125 36.375 
Q 47.125 51.421875 43.28125 58.90625 
Q 39.453125 66.40625 31.78125 66.40625 
z
M 31.78125 74.21875 
Q 44.046875 74.21875 50.515625 64.515625 
Q 56.984375 54.828125 56.984375 36.375 
Q 56.984375 17.96875 50.515625 8.265625 
Q 44.046875 -1.421875 31.78125 -1.421875 
Q 19.53125 -1.421875 13.0625 8.265625 
Q 6.59375 17.96875 6.59375 36.375 
Q 6.59375 54.828125 13.0625 64.515625 
Q 19.53125 74.21875 31.78125 74.21875 
z
" id="DejaVuSans-48"/>
      </defs>
      <g transform="translate(143.532386 463.158437)scale(0.1 -0.1)">
       <use xlink:href="#DejaVuSans-48"/>
      </g>
     </g>
    </g>
    <g id="xtick_2">
     <g id="line2d_2">
      <g>
       <use style="stroke:#000000;stroke-width:0.8;" x="291.709091" xlink:href="#mc21e85f9ed" y="448.56"/>
      </g>
     </g>
     <g id="text_2">
      <!-- 20 -->
      <defs>
       <path d="M 19.1875 8.296875 
L 53.609375 8.296875 
L 53.609375 0 
L 7.328125 0 
L 7.328125 8.296875 
Q 12.9375 14.109375 22.625 23.890625 
Q 32.328125 33.6875 34.8125 36.53125 
Q 39.546875 41.84375 41.421875 45.53125 
Q 43.3125 49.21875 43.3125 52.78125 
Q 43.3125 58.59375 39.234375 62.25 
Q 35.15625 65.921875 28.609375 65.921875 
Q 23.96875 65.921875 18.8125 64.3125 
Q 13.671875 62.703125 7.8125 59.421875 
L 7.8125 69.390625 
Q 13.765625 71.78125 18.9375 73 
Q 24.125 74.21875 28.421875 74.21875 
Q 39.75 74.21875 46.484375 68.546875 
Q 53.21875 62.890625 53.21875 53.421875 
Q 53.21875 48.921875 51.53125 44.890625 
Q 49.859375 40.875 45.40625 35.40625 
Q 44.1875 33.984375 37.640625 27.21875 
Q 31.109375 20.453125 19.1875 8.296875 
z
" id="DejaVuSans-50"/>
      </defs>
      <g transform="translate(285.346591 463.158437)scale(0.1 -0.1)">
       <use xlink:href="#DejaVuSans-50"/>
       <use x="63.623047" xlink:href="#DejaVuSans-48"/>
      </g>
     </g>
    </g>
    <g id="xtick_3">
     <g id="line2d_3">
      <g>
       <use style="stroke:#000000;stroke-width:0.8;" x="436.704545" xlink:href="#mc21e85f9ed" y="448.56"/>
      </g>
     </g>
     <g id="text_3">
      <!-- 40 -->
      <defs>
       <path d="M 37.796875 64.3125 
L 12.890625 25.390625 
L 37.796875 25.390625 
z
M 35.203125 72.90625 
L 47.609375 72.90625 
L 47.609375 25.390625 
L 58.015625 25.390625 
L 58.015625 17.1875 
L 47.609375 17.1875 
L 47.609375 0 
L 37.796875 0 
L 37.796875 17.1875 
L 4.890625 17.1875 
L 4.890625 26.703125 
z
" id="DejaVuSans-52"/>
      </defs>
      <g transform="translate(430.342045 463.158437)scale(0.1 -0.1)">
       <use xlink:href="#DejaVuSans-52"/>
       <use x="63.623047" xlink:href="#DejaVuSans-48"/>
      </g>
     </g>
    </g>
    <g id="xtick_4">
     <g id="line2d_4">
      <g>
       <use style="stroke:#000000;stroke-width:0.8;" x="581.7" xlink:href="#mc21e85f9ed" y="448.56"/>
      </g>
     </g>
     <g id="text_4">
      <!-- 60 -->
      <defs>
       <path d="M 33.015625 40.375 
Q 26.375 40.375 22.484375 35.828125 
Q 18.609375 31.296875 18.609375 23.390625 
Q 18.609375 15.53125 22.484375 10.953125 
Q 26.375 6.390625 33.015625 6.390625 
Q 39.65625 6.390625 43.53125 10.953125 
Q 47.40625 15.53125 47.40625 23.390625 
Q 47.40625 31.296875 43.53125 35.828125 
Q 39.65625 40.375 33.015625 40.375 
z
M 52.59375 71.296875 
L 52.59375 62.3125 
Q 48.875 64.0625 45.09375 64.984375 
Q 41.3125 65.921875 37.59375 65.921875 
Q 27.828125 65.921875 22.671875 59.328125 
Q 17.53125 52.734375 16.796875 39.40625 
Q 19.671875 43.65625 24.015625 45.921875 
Q 28.375 48.1875 33.59375 48.1875 
Q 44.578125 48.1875 50.953125 41.515625 
Q 57.328125 34.859375 57.328125 23.390625 
Q 57.328125 12.15625 50.6875 5.359375 
Q 44.046875 -1.421875 33.015625 -1.421875 
Q 20.359375 -1.421875 13.671875 8.265625 
Q 6.984375 17.96875 6.984375 36.375 
Q 6.984375 53.65625 15.1875 63.9375 
Q 23.390625 74.21875 37.203125 74.21875 
Q 40.921875 74.21875 44.703125 73.484375 
Q 48.484375 72.75 52.59375 71.296875 
z
" id="DejaVuSans-54"/>
      </defs>
      <g transform="translate(575.3375 463.158437)scale(0.1 -0.1)">
       <use xlink:href="#DejaVuSans-54"/>
       <use x="63.623047" xlink:href="#DejaVuSans-48"/>
      </g>
     </g>
    </g>
    <g id="xtick_5">
     <g id="line2d_5">
      <g>
       <use style="stroke:#000000;stroke-width:0.8;" x="726.695455" xlink:href="#mc21e85f9ed" y="448.56"/>
      </g>
     </g>
     <g id="text_5">
      <!-- 80 -->
      <defs>
       <path d="M 31.78125 34.625 
Q 24.75 34.625 20.71875 30.859375 
Q 16.703125 27.09375 16.703125 20.515625 
Q 16.703125 13.921875 20.71875 10.15625 
Q 24.75 6.390625 31.78125 6.390625 
Q 38.8125 6.390625 42.859375 10.171875 
Q 46.921875 13.96875 46.921875 20.515625 
Q 46.921875 27.09375 42.890625 30.859375 
Q 38.875 34.625 31.78125 34.625 
z
M 21.921875 38.8125 
Q 15.578125 40.375 12.03125 44.71875 
Q 8.5 49.078125 8.5 55.328125 
Q 8.5 64.0625 14.71875 69.140625 
Q 20.953125 74.21875 31.78125 74.21875 
Q 42.671875 74.21875 48.875 69.140625 
Q 55.078125 64.0625 55.078125 55.328125 
Q 55.078125 49.078125 51.53125 44.71875 
Q 48 40.375 41.703125 38.8125 
Q 48.828125 37.15625 52.796875 32.3125 
Q 56.78125 27.484375 56.78125 20.515625 
Q 56.78125 9.90625 50.3125 4.234375 
Q 43.84375 -1.421875 31.78125 -1.421875 
Q 19.734375 -1.421875 13.25 4.234375 
Q 6.78125 9.90625 6.78125 20.515625 
Q 6.78125 27.484375 10.78125 32.3125 
Q 14.796875 37.15625 21.921875 38.8125 
z
M 18.3125 54.390625 
Q 18.3125 48.734375 21.84375 45.5625 
Q 25.390625 42.390625 31.78125 42.390625 
Q 38.140625 42.390625 41.71875 45.5625 
Q 45.3125 48.734375 45.3125 54.390625 
Q 45.3125 60.0625 41.71875 63.234375 
Q 38.140625 66.40625 31.78125 66.40625 
Q 25.390625 66.40625 21.84375 63.234375 
Q 18.3125 60.0625 18.3125 54.390625 
z
" id="DejaVuSans-56"/>
      </defs>
      <g transform="translate(720.332955 463.158437)scale(0.1 -0.1)">
       <use xlink:href="#DejaVuSans-56"/>
       <use x="63.623047" xlink:href="#DejaVuSans-48"/>
      </g>
     </g>
    </g>
    <g id="xtick_6">
     <g id="line2d_6">
      <g>
       <use style="stroke:#000000;stroke-width:0.8;" x="871.690909" xlink:href="#mc21e85f9ed" y="448.56"/>
      </g>
     </g>
     <g id="text_6">
      <!-- 100 -->
      <defs>
       <path d="M 12.40625 8.296875 
L 28.515625 8.296875 
L 28.515625 63.921875 
L 10.984375 60.40625 
L 10.984375 69.390625 
L 28.421875 72.90625 
L 38.28125 72.90625 
L 38.28125 8.296875 
L 54.390625 8.296875 
L 54.390625 0 
L 12.40625 0 
z
" id="DejaVuSans-49"/>
      </defs>
      <g transform="translate(862.147159 463.158437)scale(0.1 -0.1)">
       <use xlink:href="#DejaVuSans-49"/>
       <use x="63.623047" xlink:href="#DejaVuSans-48"/>
       <use x="127.246094" xlink:href="#DejaVuSans-48"/>
      </g>
     </g>
    </g>
    <g id="text_7">
     <!-- document's percentage of the chunk's end -->
     <defs>
      <path d="M 45.40625 46.390625 
L 45.40625 75.984375 
L 54.390625 75.984375 
L 54.390625 0 
L 45.40625 0 
L 45.40625 8.203125 
Q 42.578125 3.328125 38.25 0.953125 
Q 33.9375 -1.421875 27.875 -1.421875 
Q 17.96875 -1.421875 11.734375 6.484375 
Q 5.515625 14.40625 5.515625 27.296875 
Q 5.515625 40.1875 11.734375 48.09375 
Q 17.96875 56 27.875 56 
Q 33.9375 56 38.25 53.625 
Q 42.578125 51.265625 45.40625 46.390625 
z
M 14.796875 27.296875 
Q 14.796875 17.390625 18.875 11.75 
Q 22.953125 6.109375 30.078125 6.109375 
Q 37.203125 6.109375 41.296875 11.75 
Q 45.40625 17.390625 45.40625 27.296875 
Q 45.40625 37.203125 41.296875 42.84375 
Q 37.203125 48.484375 30.078125 48.484375 
Q 22.953125 48.484375 18.875 42.84375 
Q 14.796875 37.203125 14.796875 27.296875 
z
" id="DejaVuSans-100"/>
      <path d="M 30.609375 48.390625 
Q 23.390625 48.390625 19.1875 42.75 
Q 14.984375 37.109375 14.984375 27.296875 
Q 14.984375 17.484375 19.15625 11.84375 
Q 23.34375 6.203125 30.609375 6.203125 
Q 37.796875 6.203125 41.984375 11.859375 
Q 46.1875 17.53125 46.1875 27.296875 
Q 46.1875 37.015625 41.984375 42.703125 
Q 37.796875 48.390625 30.609375 48.390625 
z
M 30.609375 56 
Q 42.328125 56 49.015625 48.375 
Q 55.71875 40.765625 55.71875 27.296875 
Q 55.71875 13.875 49.015625 6.21875 
Q 42.328125 -1.421875 30.609375 -1.421875 
Q 18.84375 -1.421875 12.171875 6.21875 
Q 5.515625 13.875 5.515625 27.296875 
Q 5.515625 40.765625 12.171875 48.375 
Q 18.84375 56 30.609375 56 
z
" id="DejaVuSans-111"/>
      <path d="M 48.78125 52.59375 
L 48.78125 44.1875 
Q 44.96875 46.296875 41.140625 47.34375 
Q 37.3125 48.390625 33.40625 48.390625 
Q 24.65625 48.390625 19.8125 42.84375 
Q 14.984375 37.3125 14.984375 27.296875 
Q 14.984375 17.28125 19.8125 11.734375 
Q 24.65625 6.203125 33.40625 6.203125 
Q 37.3125 6.203125 41.140625 7.25 
Q 44.96875 8.296875 48.78125 10.40625 
L 48.78125 2.09375 
Q 45.015625 0.34375 40.984375 -0.53125 
Q 36.96875 -1.421875 32.421875 -1.421875 
Q 20.0625 -1.421875 12.78125 6.34375 
Q 5.515625 14.109375 5.515625 27.296875 
Q 5.515625 40.671875 12.859375 48.328125 
Q 20.21875 56 33.015625 56 
Q 37.15625 56 41.109375 55.140625 
Q 45.0625 54.296875 48.78125 52.59375 
z
" id="DejaVuSans-99"/>
      <path d="M 8.5 21.578125 
L 8.5 54.6875 
L 17.484375 54.6875 
L 17.484375 21.921875 
Q 17.484375 14.15625 20.5 10.265625 
Q 23.53125 6.390625 29.59375 6.390625 
Q 36.859375 6.390625 41.078125 11.03125 
Q 45.3125 15.671875 45.3125 23.6875 
L 45.3125 54.6875 
L 54.296875 54.6875 
L 54.296875 0 
L 45.3125 0 
L 45.3125 8.40625 
Q 42.046875 3.421875 37.71875 1 
Q 33.40625 -1.421875 27.6875 -1.421875 
Q 18.265625 -1.421875 13.375 4.4375 
Q 8.5 10.296875 8.5 21.578125 
z
M 31.109375 56 
z
" id="DejaVuSans-117"/>
      <path d="M 52 44.1875 
Q 55.375 50.25 60.0625 53.125 
Q 64.75 56 71.09375 56 
Q 79.640625 56 84.28125 50.015625 
Q 88.921875 44.046875 88.921875 33.015625 
L 88.921875 0 
L 79.890625 0 
L 79.890625 32.71875 
Q 79.890625 40.578125 77.09375 44.375 
Q 74.3125 48.1875 68.609375 48.1875 
Q 61.625 48.1875 57.5625 43.546875 
Q 53.515625 38.921875 53.515625 30.90625 
L 53.515625 0 
L 44.484375 0 
L 44.484375 32.71875 
Q 44.484375 40.625 41.703125 44.40625 
Q 38.921875 48.1875 33.109375 48.1875 
Q 26.21875 48.1875 22.15625 43.53125 
Q 18.109375 38.875 18.109375 30.90625 
L 18.109375 0 
L 9.078125 0 
L 9.078125 54.6875 
L 18.109375 54.6875 
L 18.109375 46.1875 
Q 21.1875 51.21875 25.484375 53.609375 
Q 29.78125 56 35.6875 56 
Q 41.65625 56 45.828125 52.96875 
Q 50 49.953125 52 44.1875 
z
" id="DejaVuSans-109"/>
      <path d="M 56.203125 29.59375 
L 56.203125 25.203125 
L 14.890625 25.203125 
Q 15.484375 15.921875 20.484375 11.0625 
Q 25.484375 6.203125 34.421875 6.203125 
Q 39.59375 6.203125 44.453125 7.46875 
Q 49.3125 8.734375 54.109375 11.28125 
L 54.109375 2.78125 
Q 49.265625 0.734375 44.1875 -0.34375 
Q 39.109375 -1.421875 33.890625 -1.421875 
Q 20.796875 -1.421875 13.15625 6.1875 
Q 5.515625 13.8125 5.515625 26.8125 
Q 5.515625 40.234375 12.765625 48.109375 
Q 20.015625 56 32.328125 56 
Q 43.359375 56 49.78125 48.890625 
Q 56.203125 41.796875 56.203125 29.59375 
z
M 47.21875 32.234375 
Q 47.125 39.59375 43.09375 43.984375 
Q 39.0625 48.390625 32.421875 48.390625 
Q 24.90625 48.390625 20.390625 44.140625 
Q 15.875 39.890625 15.1875 32.171875 
z
" id="DejaVuSans-101"/>
      <path d="M 54.890625 33.015625 
L 54.890625 0 
L 45.90625 0 
L 45.90625 32.71875 
Q 45.90625 40.484375 42.875 44.328125 
Q 39.84375 48.1875 33.796875 48.1875 
Q 26.515625 48.1875 22.3125 43.546875 
Q 18.109375 38.921875 18.109375 30.90625 
L 18.109375 0 
L 9.078125 0 
L 9.078125 54.6875 
L 18.109375 54.6875 
L 18.109375 46.1875 
Q 21.34375 51.125 25.703125 53.5625 
Q 30.078125 56 35.796875 56 
Q 45.21875 56 50.046875 50.171875 
Q 54.890625 44.34375 54.890625 33.015625 
z
" id="DejaVuSans-110"/>
      <path d="M 18.3125 70.21875 
L 18.3125 54.6875 
L 36.8125 54.6875 
L 36.8125 47.703125 
L 18.3125 47.703125 
L 18.3125 18.015625 
Q 18.3125 11.328125 20.140625 9.421875 
Q 21.96875 7.515625 27.59375 7.515625 
L 36.8125 7.515625 
L 36.8125 0 
L 27.59375 0 
Q 17.1875 0 13.234375 3.875 
Q 9.28125 7.765625 9.28125 18.015625 
L 9.28125 47.703125 
L 2.6875 47.703125 
L 2.6875 54.6875 
L 9.28125 54.6875 
L 9.28125 70.21875 
z
" id="DejaVuSans-116"/>
      <path d="M 17.921875 72.90625 
L 17.921875 45.796875 
L 9.625 45.796875 
L 9.625 72.90625 
z
" id="DejaVuSans-39"/>
      <path d="M 44.28125 53.078125 
L 44.28125 44.578125 
Q 40.484375 46.53125 36.375 47.5 
Q 32.28125 48.484375 27.875 48.484375 
Q 21.1875 48.484375 17.84375 46.4375 
Q 14.5 44.390625 14.5 40.28125 
Q 14.5 37.15625 16.890625 35.375 
Q 19.28125 33.59375 26.515625 31.984375 
L 29.59375 31.296875 
Q 39.15625 29.25 43.1875 25.515625 
Q 47.21875 21.78125 47.21875 15.09375 
Q 47.21875 7.46875 41.1875 3.015625 
Q 35.15625 -1.421875 24.609375 -1.421875 
Q 20.21875 -1.421875 15.453125 -0.5625 
Q 10.6875 0.296875 5.421875 2 
L 5.421875 11.28125 
Q 10.40625 8.6875 15.234375 7.390625 
Q 20.0625 6.109375 24.8125 6.109375 
Q 31.15625 6.109375 34.5625 8.28125 
Q 37.984375 10.453125 37.984375 14.40625 
Q 37.984375 18.0625 35.515625 20.015625 
Q 33.0625 21.96875 24.703125 23.78125 
L 21.578125 24.515625 
Q 13.234375 26.265625 9.515625 29.90625 
Q 5.8125 33.546875 5.8125 39.890625 
Q 5.8125 47.609375 11.28125 51.796875 
Q 16.75 56 26.8125 56 
Q 31.78125 56 36.171875 55.265625 
Q 40.578125 54.546875 44.28125 53.078125 
z
" id="DejaVuSans-115"/>
      <path id="DejaVuSans-32"/>
      <path d="M 18.109375 8.203125 
L 18.109375 -20.796875 
L 9.078125 -20.796875 
L 9.078125 54.6875 
L 18.109375 54.6875 
L 18.109375 46.390625 
Q 20.953125 51.265625 25.265625 53.625 
Q 29.59375 56 35.59375 56 
Q 45.5625 56 51.78125 48.09375 
Q 58.015625 40.1875 58.015625 27.296875 
Q 58.015625 14.40625 51.78125 6.484375 
Q 45.5625 -1.421875 35.59375 -1.421875 
Q 29.59375 -1.421875 25.265625 0.953125 
Q 20.953125 3.328125 18.109375 8.203125 
z
M 48.6875 27.296875 
Q 48.6875 37.203125 44.609375 42.84375 
Q 40.53125 48.484375 33.40625 48.484375 
Q 26.265625 48.484375 22.1875 42.84375 
Q 18.109375 37.203125 18.109375 27.296875 
Q 18.109375 17.390625 22.1875 11.75 
Q 26.265625 6.109375 33.40625 6.109375 
Q 40.53125 6.109375 44.609375 11.75 
Q 48.6875 17.390625 48.6875 27.296875 
z
" id="DejaVuSans-112"/>
      <path d="M 41.109375 46.296875 
Q 39.59375 47.171875 37.8125 47.578125 
Q 36.03125 48 33.890625 48 
Q 26.265625 48 22.1875 43.046875 
Q 18.109375 38.09375 18.109375 28.8125 
L 18.109375 0 
L 9.078125 0 
L 9.078125 54.6875 
L 18.109375 54.6875 
L 18.109375 46.1875 
Q 20.953125 51.171875 25.484375 53.578125 
Q 30.03125 56 36.53125 56 
Q 37.453125 56 38.578125 55.875 
Q 39.703125 55.765625 41.0625 55.515625 
z
" id="DejaVuSans-114"/>
      <path d="M 34.28125 27.484375 
Q 23.390625 27.484375 19.1875 25 
Q 14.984375 22.515625 14.984375 16.5 
Q 14.984375 11.71875 18.140625 8.90625 
Q 21.296875 6.109375 26.703125 6.109375 
Q 34.1875 6.109375 38.703125 11.40625 
Q 43.21875 16.703125 43.21875 25.484375 
L 43.21875 27.484375 
z
M 52.203125 31.203125 
L 52.203125 0 
L 43.21875 0 
L 43.21875 8.296875 
Q 40.140625 3.328125 35.546875 0.953125 
Q 30.953125 -1.421875 24.3125 -1.421875 
Q 15.921875 -1.421875 10.953125 3.296875 
Q 6 8.015625 6 15.921875 
Q 6 25.140625 12.171875 29.828125 
Q 18.359375 34.515625 30.609375 34.515625 
L 43.21875 34.515625 
L 43.21875 35.40625 
Q 43.21875 41.609375 39.140625 45 
Q 35.0625 48.390625 27.6875 48.390625 
Q 23 48.390625 18.546875 47.265625 
Q 14.109375 46.140625 10.015625 43.890625 
L 10.015625 52.203125 
Q 14.9375 54.109375 19.578125 55.046875 
Q 24.21875 56 28.609375 56 
Q 40.484375 56 46.34375 49.84375 
Q 52.203125 43.703125 52.203125 31.203125 
z
" id="DejaVuSans-97"/>
      <path d="M 45.40625 27.984375 
Q 45.40625 37.75 41.375 43.109375 
Q 37.359375 48.484375 30.078125 48.484375 
Q 22.859375 48.484375 18.828125 43.109375 
Q 14.796875 37.75 14.796875 27.984375 
Q 14.796875 18.265625 18.828125 12.890625 
Q 22.859375 7.515625 30.078125 7.515625 
Q 37.359375 7.515625 41.375 12.890625 
Q 45.40625 18.265625 45.40625 27.984375 
z
M 54.390625 6.78125 
Q 54.390625 -7.171875 48.1875 -13.984375 
Q 42 -20.796875 29.203125 -20.796875 
Q 24.46875 -20.796875 20.265625 -20.09375 
Q 16.0625 -19.390625 12.109375 -17.921875 
L 12.109375 -9.1875 
Q 16.0625 -11.328125 19.921875 -12.34375 
Q 23.78125 -13.375 27.78125 -13.375 
Q 36.625 -13.375 41.015625 -8.765625 
Q 45.40625 -4.15625 45.40625 5.171875 
L 45.40625 9.625 
Q 42.625 4.78125 38.28125 2.390625 
Q 33.9375 0 27.875 0 
Q 17.828125 0 11.671875 7.65625 
Q 5.515625 15.328125 5.515625 27.984375 
Q 5.515625 40.671875 11.671875 48.328125 
Q 17.828125 56 27.875 56 
Q 33.9375 56 38.28125 53.609375 
Q 42.625 51.21875 45.40625 46.390625 
L 45.40625 54.6875 
L 54.390625 54.6875 
z
" id="DejaVuSans-103"/>
      <path d="M 37.109375 75.984375 
L 37.109375 68.5 
L 28.515625 68.5 
Q 23.6875 68.5 21.796875 66.546875 
Q 19.921875 64.59375 19.921875 59.515625 
L 19.921875 54.6875 
L 34.71875 54.6875 
L 34.71875 47.703125 
L 19.921875 47.703125 
L 19.921875 0 
L 10.890625 0 
L 10.890625 47.703125 
L 2.296875 47.703125 
L 2.296875 54.6875 
L 10.890625 54.6875 
L 10.890625 58.5 
Q 10.890625 67.625 15.140625 71.796875 
Q 19.390625 75.984375 28.609375 75.984375 
z
" id="DejaVuSans-102"/>
      <path d="M 54.890625 33.015625 
L 54.890625 0 
L 45.90625 0 
L 45.90625 32.71875 
Q 45.90625 40.484375 42.875 44.328125 
Q 39.84375 48.1875 33.796875 48.1875 
Q 26.515625 48.1875 22.3125 43.546875 
Q 18.109375 38.921875 18.109375 30.90625 
L 18.109375 0 
L 9.078125 0 
L 9.078125 75.984375 
L 18.109375 75.984375 
L 18.109375 46.1875 
Q 21.34375 51.125 25.703125 53.5625 
Q 30.078125 56 35.796875 56 
Q 45.21875 56 50.046875 50.171875 
Q 54.890625 44.34375 54.890625 33.015625 
z
" id="DejaVuSans-104"/>
      <path d="M 9.078125 75.984375 
L 18.109375 75.984375 
L 18.109375 31.109375 
L 44.921875 54.6875 
L 56.390625 54.6875 
L 27.390625 29.109375 
L 57.625 0 
L 45.90625 0 
L 18.109375 26.703125 
L 18.109375 0 
L 9.078125 0 
z
" id="DejaVuSans-107"/>
     </defs>
     <g transform="translate(409.3 476.836563)scale(0.1 -0.1)">
      <use xlink:href="#DejaVuSans-100"/>
      <use x="63.476562" xlink:href="#DejaVuSans-111"/>
      <use x="124.658203" xlink:href="#DejaVuSans-99"/>
      <use x="179.638672" xlink:href="#DejaVuSans-117"/>
      <use x="243.017578" xlink:href="#DejaVuSans-109"/>
      <use x="340.429688" xlink:href="#DejaVuSans-101"/>
      <use x="401.953125" xlink:href="#DejaVuSans-110"/>
      <use x="465.332031" xlink:href="#DejaVuSans-116"/>
      <use x="504.541016" xlink:href="#DejaVuSans-39"/>
      <use x="532.03125" xlink:href="#DejaVuSans-115"/>
      <use x="584.130859" xlink:href="#DejaVuSans-32"/>
      <use x="615.917969" xlink:href="#DejaVuSans-112"/>
      <use x="679.394531" xlink:href="#DejaVuSans-101"/>
      <use x="740.917969" xlink:href="#DejaVuSans-114"/>
      <use x="782" xlink:href="#DejaVuSans-99"/>
      <use x="836.980469" xlink:href="#DejaVuSans-101"/>
      <use x="898.503906" xlink:href="#DejaVuSans-110"/>
      <use x="961.882812" xlink:href="#DejaVuSans-116"/>
      <use x="1001.091797" xlink:href="#DejaVuSans-97"/>
      <use x="1062.371094" xlink:href="#DejaVuSans-103"/>
      <use x="1125.847656" xlink:href="#DejaVuSans-101"/>
      <use x="1187.371094" xlink:href="#DejaVuSans-32"/>
      <use x="1219.158203" xlink:href="#DejaVuSans-111"/>
      <use x="1280.339844" xlink:href="#DejaVuSans-102"/>
      <use x="1315.544922" xlink:href="#DejaVuSans-32"/>
      <use x="1347.332031" xlink:href="#DejaVuSans-116"/>
      <use x="1386.541016" xlink:href="#DejaVuSans-104"/>
      <use x="1449.919922" xlink:href="#DejaVuSans-101"/>
      <use x="1511.443359" xlink:href="#DejaVuSans-32"/>
      <use x="1543.230469" xlink:href="#DejaVuSans-99"/>
      <use x="1598.210938" xlink:href="#DejaVuSans-104"/>
      <use x="1661.589844" xlink:href="#DejaVuSans-117"/>
      <use x="1724.96875" xlink:href="#DejaVuSans-110"/>
      <use x="1788.347656" xlink:href="#DejaVuSans-107"/>
      <use x="1846.257812" xlink:href="#DejaVuSans-39"/>
      <use x="1873.748047" xlink:href="#DejaVuSans-115"/>
      <use x="1925.847656" xlink:href="#DejaVuSans-32"/>
      <use x="1957.634766" xlink:href="#DejaVuSans-101"/>
      <use x="2019.158203" xlink:href="#DejaVuSans-110"/>
      <use x="2082.537109" xlink:href="#DejaVuSans-100"/>
     </g>
    </g>
   </g>
   <g id="matplotlib.axis_2">
    <g id="ytick_1">
     <g id="line2d_7">
      <defs>
       <path d="M 0 0 
L -3.5 0 
" id="mef08d14cc0" style="stroke:#000000;stroke-width:0.8;"/>
      </defs>
      <g>
       <use style="stroke:#000000;stroke-width:0.8;" x="126" xlink:href="#mef08d14cc0" y="421.957481"/>
      </g>
     </g>
     <g id="text_8">
      <!-- 10 -->
      <g transform="translate(106.275 425.7567)scale(0.1 -0.1)">
       <use xlink:href="#DejaVuSans-49"/>
       <use x="63.623047" xlink:href="#DejaVuSans-48"/>
      </g>
     </g>
    </g>
    <g id="ytick_2">
     <g id="line2d_8">
      <g>
       <use style="stroke:#000000;stroke-width:0.8;" x="126" xlink:href="#mef08d14cc0" y="348.494213"/>
      </g>
     </g>
     <g id="text_9">
      <!-- 12 -->
      <g transform="translate(106.275 352.293432)scale(0.1 -0.1)">
       <use xlink:href="#DejaVuSans-49"/>
       <use x="63.623047" xlink:href="#DejaVuSans-50"/>
      </g>
     </g>
    </g>
    <g id="ytick_3">
     <g id="line2d_9">
      <g>
       <use style="stroke:#000000;stroke-width:0.8;" x="126" xlink:href="#mef08d14cc0" y="275.030945"/>
      </g>
     </g>
     <g id="text_10">
      <!-- 14 -->
      <g transform="translate(106.275 278.830163)scale(0.1 -0.1)">
       <use xlink:href="#DejaVuSans-49"/>
       <use x="63.623047" xlink:href="#DejaVuSans-52"/>
      </g>
     </g>
    </g>
    <g id="ytick_4">
     <g id="line2d_10">
      <g>
       <use style="stroke:#000000;stroke-width:0.8;" x="126" xlink:href="#mef08d14cc0" y="201.567676"/>
      </g>
     </g>
     <g id="text_11">
      <!-- 16 -->
      <g transform="translate(106.275 205.366895)scale(0.1 -0.1)">
       <use xlink:href="#DejaVuSans-49"/>
       <use x="63.623047" xlink:href="#DejaVuSans-54"/>
      </g>
     </g>
    </g>
    <g id="ytick_5">
     <g id="line2d_11">
      <g>
       <use style="stroke:#000000;stroke-width:0.8;" x="126" xlink:href="#mef08d14cc0" y="128.104408"/>
      </g>
     </g>
     <g id="text_12">
      <!-- 18 -->
      <g transform="translate(106.275 131.903627)scale(0.1 -0.1)">
       <use xlink:href="#DejaVuSans-49"/>
       <use x="63.623047" xlink:href="#DejaVuSans-56"/>
      </g>
     </g>
    </g>
    <g id="text_13">
     <!-- GFI -->
     <defs>
      <path d="M 59.515625 10.40625 
L 59.515625 29.984375 
L 43.40625 29.984375 
L 43.40625 38.09375 
L 69.28125 38.09375 
L 69.28125 6.78125 
Q 63.578125 2.734375 56.6875 0.65625 
Q 49.8125 -1.421875 42 -1.421875 
Q 24.90625 -1.421875 15.25 8.5625 
Q 5.609375 18.5625 5.609375 36.375 
Q 5.609375 54.25 15.25 64.234375 
Q 24.90625 74.21875 42 74.21875 
Q 49.125 74.21875 55.546875 72.453125 
Q 61.96875 70.703125 67.390625 67.28125 
L 67.390625 56.78125 
Q 61.921875 61.421875 55.765625 63.765625 
Q 49.609375 66.109375 42.828125 66.109375 
Q 29.4375 66.109375 22.71875 58.640625 
Q 16.015625 51.171875 16.015625 36.375 
Q 16.015625 21.625 22.71875 14.15625 
Q 29.4375 6.6875 42.828125 6.6875 
Q 48.046875 6.6875 52.140625 7.59375 
Q 56.25 8.5 59.515625 10.40625 
z
" id="DejaVuSans-71"/>
      <path d="M 9.8125 72.90625 
L 51.703125 72.90625 
L 51.703125 64.59375 
L 19.671875 64.59375 
L 19.671875 43.109375 
L 48.578125 43.109375 
L 48.578125 34.8125 
L 19.671875 34.8125 
L 19.671875 0 
L 9.8125 0 
z
" id="DejaVuSans-70"/>
      <path d="M 9.8125 72.90625 
L 19.671875 72.90625 
L 19.671875 0 
L 9.8125 0 
z
" id="DejaVuSans-73"/>
     </defs>
     <g transform="translate(100.195312 262.745)rotate(-90)scale(0.1 -0.1)">
      <use xlink:href="#DejaVuSans-71"/>
      <use x="77.490234" xlink:href="#DejaVuSans-70"/>
      <use x="135.009766" xlink:href="#DejaVuSans-73"/>
     </g>
    </g>
   </g>
   <g id="line2d_12">
    <path clip-path="url(#p78ec240a2c)" d="M 161.509091 222.574498 
L 176.304545 127.182444 
L 191.1 311.685442 
L 205.895455 300.974498 
L 220.690909 253.991064 
L 235.486364 291.729145 
L 250.281818 208.958081 
L 265.077273 149.001034 
L 279.872727 249.833043 
L 294.668182 163.366777 
L 309.463636 184.608681 
L 324.259091 222.596537 
L 339.054545 194.250735 
L 353.85 214.39069 
L 368.645455 189.104633 
L 383.440909 230.798711 
L 398.236364 254.578771 
L 413.031818 316.739715 
L 427.827273 288.423298 
L 442.622727 321.000585 
L 457.418182 246.174573 
L 472.213636 107.549385 
L 487.009091 360.292414 
L 501.804545 83.39099 
L 516.6 235.867676 
L 531.395455 277.084243 
L 546.190909 222.442264 
L 560.986364 314.440315 
L 575.781818 330.525097 
L 590.577273 296.563028 
L 605.372727 284.948486 
L 620.168182 430.92 
L 634.963636 355.168351 
L 649.759091 280.786792 
L 664.554545 177.196237 
L 679.35 238.3691 
L 694.145455 314.89946 
L 708.940909 255.456657 
L 723.736364 297.562129 
L 738.531818 230.192639 
L 753.327273 320.802234 
L 768.122727 356.70006 
L 782.918182 191.415052 
L 797.713636 274.615877 
L 812.509091 139.432444 
L 827.304545 128.108081 
L 842.1 231.026447 
L 856.895455 270.994138 
L 871.690909 178.716927 
" style="fill:none;stroke:#acc2d9;stroke-linecap:square;stroke-width:1.5;"/>
    <defs>
     <path d="M 0 3 
C 0.795609 3 1.55874 2.683901 2.12132 2.12132 
C 2.683901 1.55874 3 0.795609 3 0 
C 3 -0.795609 2.683901 -1.55874 2.12132 -2.12132 
C 1.55874 -2.683901 0.795609 -3 0 -3 
C -0.795609 -3 -1.55874 -2.683901 -2.12132 -2.12132 
C -2.683901 -1.55874 -3 -0.795609 -3 0 
C -3 0.795609 -2.683901 1.55874 -2.12132 2.12132 
C -1.55874 2.683901 -0.795609 3 0 3 
z
" id="m119557493e" style="stroke:#acc2d9;"/>
    </defs>
    <g clip-path="url(#p78ec240a2c)">
     <use style="fill:#acc2d9;stroke:#acc2d9;" x="161.509091" xlink:href="#m119557493e" y="222.574498"/>
     <use style="fill:#acc2d9;stroke:#acc2d9;" x="176.304545" xlink:href="#m119557493e" y="127.182444"/>
     <use style="fill:#acc2d9;stroke:#acc2d9;" x="191.1" xlink:href="#m119557493e" y="311.685442"/>
     <use style="fill:#acc2d9;stroke:#acc2d9;" x="205.895455" xlink:href="#m119557493e" y="300.974498"/>
     <use style="fill:#acc2d9;stroke:#acc2d9;" x="220.690909" xlink:href="#m119557493e" y="253.991064"/>
     <use style="fill:#acc2d9;stroke:#acc2d9;" x="235.486364" xlink:href="#m119557493e" y="291.729145"/>
     <use style="fill:#acc2d9;stroke:#acc2d9;" x="250.281818" xlink:href="#m119557493e" y="208.958081"/>
     <use style="fill:#acc2d9;stroke:#acc2d9;" x="265.077273" xlink:href="#m119557493e" y="149.001034"/>
     <use style="fill:#acc2d9;stroke:#acc2d9;" x="279.872727" xlink:href="#m119557493e" y="249.833043"/>
     <use style="fill:#acc2d9;stroke:#acc2d9;" x="294.668182" xlink:href="#m119557493e" y="163.366777"/>
     <use style="fill:#acc2d9;stroke:#acc2d9;" x="309.463636" xlink:href="#m119557493e" y="184.608681"/>
     <use style="fill:#acc2d9;stroke:#acc2d9;" x="324.259091" xlink:href="#m119557493e" y="222.596537"/>
     <use style="fill:#acc2d9;stroke:#acc2d9;" x="339.054545" xlink:href="#m119557493e" y="194.250735"/>
     <use style="fill:#acc2d9;stroke:#acc2d9;" x="353.85" xlink:href="#m119557493e" y="214.39069"/>
     <use style="fill:#acc2d9;stroke:#acc2d9;" x="368.645455" xlink:href="#m119557493e" y="189.104633"/>
     <use style="fill:#acc2d9;stroke:#acc2d9;" x="383.440909" xlink:href="#m119557493e" y="230.798711"/>
     <use style="fill:#acc2d9;stroke:#acc2d9;" x="398.236364" xlink:href="#m119557493e" y="254.578771"/>
     <use style="fill:#acc2d9;stroke:#acc2d9;" x="413.031818" xlink:href="#m119557493e" y="316.739715"/>
     <use style="fill:#acc2d9;stroke:#acc2d9;" x="427.827273" xlink:href="#m119557493e" y="288.423298"/>
     <use style="fill:#acc2d9;stroke:#acc2d9;" x="442.622727" xlink:href="#m119557493e" y="321.000585"/>
     <use style="fill:#acc2d9;stroke:#acc2d9;" x="457.418182" xlink:href="#m119557493e" y="246.174573"/>
     <use style="fill:#acc2d9;stroke:#acc2d9;" x="472.213636" xlink:href="#m119557493e" y="107.549385"/>
     <use style="fill:#acc2d9;stroke:#acc2d9;" x="487.009091" xlink:href="#m119557493e" y="360.292414"/>
     <use style="fill:#acc2d9;stroke:#acc2d9;" x="501.804545" xlink:href="#m119557493e" y="83.39099"/>
     <use style="fill:#acc2d9;stroke:#acc2d9;" x="516.6" xlink:href="#m119557493e" y="235.867676"/>
     <use style="fill:#acc2d9;stroke:#acc2d9;" x="531.395455" xlink:href="#m119557493e" y="277.084243"/>
     <use style="fill:#acc2d9;stroke:#acc2d9;" x="546.190909" xlink:href="#m119557493e" y="222.442264"/>
     <use style="fill:#acc2d9;stroke:#acc2d9;" x="560.986364" xlink:href="#m119557493e" y="314.440315"/>
     <use style="fill:#acc2d9;stroke:#acc2d9;" x="575.781818" xlink:href="#m119557493e" y="330.525097"/>
     <use style="fill:#acc2d9;stroke:#acc2d9;" x="590.577273" xlink:href="#m119557493e" y="296.563028"/>
     <use style="fill:#acc2d9;stroke:#acc2d9;" x="605.372727" xlink:href="#m119557493e" y="284.948486"/>
     <use style="fill:#acc2d9;stroke:#acc2d9;" x="620.168182" xlink:href="#m119557493e" y="430.92"/>
     <use style="fill:#acc2d9;stroke:#acc2d9;" x="634.963636" xlink:href="#m119557493e" y="355.168351"/>
     <use style="fill:#acc2d9;stroke:#acc2d9;" x="649.759091" xlink:href="#m119557493e" y="280.786792"/>
     <use style="fill:#acc2d9;stroke:#acc2d9;" x="664.554545" xlink:href="#m119557493e" y="177.196237"/>
     <use style="fill:#acc2d9;stroke:#acc2d9;" x="679.35" xlink:href="#m119557493e" y="238.3691"/>
     <use style="fill:#acc2d9;stroke:#acc2d9;" x="694.145455" xlink:href="#m119557493e" y="314.89946"/>
     <use style="fill:#acc2d9;stroke:#acc2d9;" x="708.940909" xlink:href="#m119557493e" y="255.456657"/>
     <use style="fill:#acc2d9;stroke:#acc2d9;" x="723.736364" xlink:href="#m119557493e" y="297.562129"/>
     <use style="fill:#acc2d9;stroke:#acc2d9;" x="738.531818" xlink:href="#m119557493e" y="230.192639"/>
     <use style="fill:#acc2d9;stroke:#acc2d9;" x="753.327273" xlink:href="#m119557493e" y="320.802234"/>
     <use style="fill:#acc2d9;stroke:#acc2d9;" x="768.122727" xlink:href="#m119557493e" y="356.70006"/>
     <use style="fill:#acc2d9;stroke:#acc2d9;" x="782.918182" xlink:href="#m119557493e" y="191.415052"/>
     <use style="fill:#acc2d9;stroke:#acc2d9;" x="797.713636" xlink:href="#m119557493e" y="274.615877"/>
     <use style="fill:#acc2d9;stroke:#acc2d9;" x="812.509091" xlink:href="#m119557493e" y="139.432444"/>
     <use style="fill:#acc2d9;stroke:#acc2d9;" x="827.304545" xlink:href="#m119557493e" y="128.108081"/>
     <use style="fill:#acc2d9;stroke:#acc2d9;" x="842.1" xlink:href="#m119557493e" y="231.026447"/>
     <use style="fill:#acc2d9;stroke:#acc2d9;" x="856.895455" xlink:href="#m119557493e" y="270.994138"/>
     <use style="fill:#acc2d9;stroke:#acc2d9;" x="871.690909" xlink:href="#m119557493e" y="178.716927"/>
    </g>
   </g>
   <g id="line2d_13">
    <path clip-path="url(#p78ec240a2c)" d="M 165.791986 359.693688 
L 184.870335 276.621424 
L 203.948684 326.774798 
L 223.027033 377.87952 
L 242.105383 323.105307 
L 261.183732 311.865427 
L 280.262081 333.889715 
L 299.340431 321.294438 
L 318.41878 239.162504 
L 337.497129 393.457406 
L 356.575478 323.740765 
L 375.653828 308.761604 
L 394.732177 241.395787 
L 413.810526 306.010405 
L 432.888876 236.683118 
L 451.967225 255.375847 
L 471.045574 249.561229 
L 490.123923 188.979745 
L 509.202273 318.495487 
L 528.280622 190.489415 
L 547.358971 292.548261 
L 566.437321 403.055382 
L 585.51567 355.234468 
L 604.594019 332.54901 
L 623.672368 270.656207 
L 642.750718 264.782819 
L 661.829067 283.266177 
L 680.907416 310.851634 
L 699.985766 370.114453 
L 719.064115 355.950735 
L 738.142464 264.151034 
L 757.220813 323.634243 
L 776.299163 330.058606 
L 795.377512 304.25096 
L 814.455861 324.354183 
L 833.534211 330.19084 
L 852.61256 383.826372 
L 871.690909 250.086492 
" style="fill:none;stroke:#56ae57;stroke-linecap:square;stroke-width:1.5;"/>
    <defs>
     <path d="M 0 3 
C 0.795609 3 1.55874 2.683901 2.12132 2.12132 
C 2.683901 1.55874 3 0.795609 3 0 
C 3 -0.795609 2.683901 -1.55874 2.12132 -2.12132 
C 1.55874 -2.683901 0.795609 -3 0 -3 
C -0.795609 -3 -1.55874 -2.683901 -2.12132 -2.12132 
C -2.683901 -1.55874 -3 -0.795609 -3 0 
C -3 0.795609 -2.683901 1.55874 -2.12132 2.12132 
C -1.55874 2.683901 -0.795609 3 0 3 
z
" id="mee8f78544b" style="stroke:#56ae57;"/>
    </defs>
    <g clip-path="url(#p78ec240a2c)">
     <use style="fill:#56ae57;stroke:#56ae57;" x="165.791986" xlink:href="#mee8f78544b" y="359.693688"/>
     <use style="fill:#56ae57;stroke:#56ae57;" x="184.870335" xlink:href="#mee8f78544b" y="276.621424"/>
     <use style="fill:#56ae57;stroke:#56ae57;" x="203.948684" xlink:href="#mee8f78544b" y="326.774798"/>
     <use style="fill:#56ae57;stroke:#56ae57;" x="223.027033" xlink:href="#mee8f78544b" y="377.87952"/>
     <use style="fill:#56ae57;stroke:#56ae57;" x="242.105383" xlink:href="#mee8f78544b" y="323.105307"/>
     <use style="fill:#56ae57;stroke:#56ae57;" x="261.183732" xlink:href="#mee8f78544b" y="311.865427"/>
     <use style="fill:#56ae57;stroke:#56ae57;" x="280.262081" xlink:href="#mee8f78544b" y="333.889715"/>
     <use style="fill:#56ae57;stroke:#56ae57;" x="299.340431" xlink:href="#mee8f78544b" y="321.294438"/>
     <use style="fill:#56ae57;stroke:#56ae57;" x="318.41878" xlink:href="#mee8f78544b" y="239.162504"/>
     <use style="fill:#56ae57;stroke:#56ae57;" x="337.497129" xlink:href="#mee8f78544b" y="393.457406"/>
     <use style="fill:#56ae57;stroke:#56ae57;" x="356.575478" xlink:href="#mee8f78544b" y="323.740765"/>
     <use style="fill:#56ae57;stroke:#56ae57;" x="375.653828" xlink:href="#mee8f78544b" y="308.761604"/>
     <use style="fill:#56ae57;stroke:#56ae57;" x="394.732177" xlink:href="#mee8f78544b" y="241.395787"/>
     <use style="fill:#56ae57;stroke:#56ae57;" x="413.810526" xlink:href="#mee8f78544b" y="306.010405"/>
     <use style="fill:#56ae57;stroke:#56ae57;" x="432.888876" xlink:href="#mee8f78544b" y="236.683118"/>
     <use style="fill:#56ae57;stroke:#56ae57;" x="451.967225" xlink:href="#mee8f78544b" y="255.375847"/>
     <use style="fill:#56ae57;stroke:#56ae57;" x="471.045574" xlink:href="#mee8f78544b" y="249.561229"/>
     <use style="fill:#56ae57;stroke:#56ae57;" x="490.123923" xlink:href="#mee8f78544b" y="188.979745"/>
     <use style="fill:#56ae57;stroke:#56ae57;" x="509.202273" xlink:href="#mee8f78544b" y="318.495487"/>
     <use style="fill:#56ae57;stroke:#56ae57;" x="528.280622" xlink:href="#mee8f78544b" y="190.489415"/>
     <use style="fill:#56ae57;stroke:#56ae57;" x="547.358971" xlink:href="#mee8f78544b" y="292.548261"/>
     <use style="fill:#56ae57;stroke:#56ae57;" x="566.437321" xlink:href="#mee8f78544b" y="403.055382"/>
     <use style="fill:#56ae57;stroke:#56ae57;" x="585.51567" xlink:href="#mee8f78544b" y="355.234468"/>
     <use style="fill:#56ae57;stroke:#56ae57;" x="604.594019" xlink:href="#mee8f78544b" y="332.54901"/>
     <use style="fill:#56ae57;stroke:#56ae57;" x="623.672368" xlink:href="#mee8f78544b" y="270.656207"/>
     <use style="fill:#56ae57;stroke:#56ae57;" x="642.750718" xlink:href="#mee8f78544b" y="264.782819"/>
     <use style="fill:#56ae57;stroke:#56ae57;" x="661.829067" xlink:href="#mee8f78544b" y="283.266177"/>
     <use style="fill:#56ae57;stroke:#56ae57;" x="680.907416" xlink:href="#mee8f78544b" y="310.851634"/>
     <use style="fill:#56ae57;stroke:#56ae57;" x="699.985766" xlink:href="#mee8f78544b" y="370.114453"/>
     <use style="fill:#56ae57;stroke:#56ae57;" x="719.064115" xlink:href="#mee8f78544b" y="355.950735"/>
     <use style="fill:#56ae57;stroke:#56ae57;" x="738.142464" xlink:href="#mee8f78544b" y="264.151034"/>
     <use style="fill:#56ae57;stroke:#56ae57;" x="757.220813" xlink:href="#mee8f78544b" y="323.634243"/>
     <use style="fill:#56ae57;stroke:#56ae57;" x="776.299163" xlink:href="#mee8f78544b" y="330.058606"/>
     <use style="fill:#56ae57;stroke:#56ae57;" x="795.377512" xlink:href="#mee8f78544b" y="304.25096"/>
     <use style="fill:#56ae57;stroke:#56ae57;" x="814.455861" xlink:href="#mee8f78544b" y="324.354183"/>
     <use style="fill:#56ae57;stroke:#56ae57;" x="833.534211" xlink:href="#mee8f78544b" y="330.19084"/>
     <use style="fill:#56ae57;stroke:#56ae57;" x="852.61256" xlink:href="#mee8f78544b" y="383.826372"/>
     <use style="fill:#56ae57;stroke:#56ae57;" x="871.690909" xlink:href="#mee8f78544b" y="250.086492"/>
    </g>
   </g>
   <g id="line2d_14">
    <path clip-path="url(#p78ec240a2c)" d="M 175.712727 234.835517 
L 204.711818 171.462429 
L 233.710909 78.12 
L 262.71 255.702759 
L 291.709091 288.467376 
L 320.708182 210.71018 
L 349.707273 263.691889 
L 378.706364 270.101559 
L 407.705455 155.664153 
L 436.704545 92.287391 
L 465.703636 133.566402 
L 494.702727 175.183343 
L 523.701818 343.906432 
L 552.700909 290.311304 
L 581.7 383.78964 
L 610.699091 263.177646 
L 639.698182 212.462279 
L 668.697273 290.300285 
L 697.696364 248.859655 
L 726.695455 315.975697 
L 755.694545 261.57982 
L 784.693636 261.895712 
L 813.692727 217.648786 
L 842.691818 285.855757 
L 871.690909 244.44084 
" style="fill:none;stroke:#b2996e;stroke-linecap:square;stroke-width:1.5;"/>
    <defs>
     <path d="M 0 3 
C 0.795609 3 1.55874 2.683901 2.12132 2.12132 
C 2.683901 1.55874 3 0.795609 3 0 
C 3 -0.795609 2.683901 -1.55874 2.12132 -2.12132 
C 1.55874 -2.683901 0.795609 -3 0 -3 
C -0.795609 -3 -1.55874 -2.683901 -2.12132 -2.12132 
C -2.683901 -1.55874 -3 -0.795609 -3 0 
C -3 0.795609 -2.683901 1.55874 -2.12132 2.12132 
C -1.55874 2.683901 -0.795609 3 0 3 
z
" id="m655ab97f4d" style="stroke:#b2996e;"/>
    </defs>
    <g clip-path="url(#p78ec240a2c)">
     <use style="fill:#b2996e;stroke:#b2996e;" x="175.712727" xlink:href="#m655ab97f4d" y="234.835517"/>
     <use style="fill:#b2996e;stroke:#b2996e;" x="204.711818" xlink:href="#m655ab97f4d" y="171.462429"/>
     <use style="fill:#b2996e;stroke:#b2996e;" x="233.710909" xlink:href="#m655ab97f4d" y="78.12"/>
     <use style="fill:#b2996e;stroke:#b2996e;" x="262.71" xlink:href="#m655ab97f4d" y="255.702759"/>
     <use style="fill:#b2996e;stroke:#b2996e;" x="291.709091" xlink:href="#m655ab97f4d" y="288.467376"/>
     <use style="fill:#b2996e;stroke:#b2996e;" x="320.708182" xlink:href="#m655ab97f4d" y="210.71018"/>
     <use style="fill:#b2996e;stroke:#b2996e;" x="349.707273" xlink:href="#m655ab97f4d" y="263.691889"/>
     <use style="fill:#b2996e;stroke:#b2996e;" x="378.706364" xlink:href="#m655ab97f4d" y="270.101559"/>
     <use style="fill:#b2996e;stroke:#b2996e;" x="407.705455" xlink:href="#m655ab97f4d" y="155.664153"/>
     <use style="fill:#b2996e;stroke:#b2996e;" x="436.704545" xlink:href="#m655ab97f4d" y="92.287391"/>
     <use style="fill:#b2996e;stroke:#b2996e;" x="465.703636" xlink:href="#m655ab97f4d" y="133.566402"/>
     <use style="fill:#b2996e;stroke:#b2996e;" x="494.702727" xlink:href="#m655ab97f4d" y="175.183343"/>
     <use style="fill:#b2996e;stroke:#b2996e;" x="523.701818" xlink:href="#m655ab97f4d" y="343.906432"/>
     <use style="fill:#b2996e;stroke:#b2996e;" x="552.700909" xlink:href="#m655ab97f4d" y="290.311304"/>
     <use style="fill:#b2996e;stroke:#b2996e;" x="581.7" xlink:href="#m655ab97f4d" y="383.78964"/>
     <use style="fill:#b2996e;stroke:#b2996e;" x="610.699091" xlink:href="#m655ab97f4d" y="263.177646"/>
     <use style="fill:#b2996e;stroke:#b2996e;" x="639.698182" xlink:href="#m655ab97f4d" y="212.462279"/>
     <use style="fill:#b2996e;stroke:#b2996e;" x="668.697273" xlink:href="#m655ab97f4d" y="290.300285"/>
     <use style="fill:#b2996e;stroke:#b2996e;" x="697.696364" xlink:href="#m655ab97f4d" y="248.859655"/>
     <use style="fill:#b2996e;stroke:#b2996e;" x="726.695455" xlink:href="#m655ab97f4d" y="315.975697"/>
     <use style="fill:#b2996e;stroke:#b2996e;" x="755.694545" xlink:href="#m655ab97f4d" y="261.57982"/>
     <use style="fill:#b2996e;stroke:#b2996e;" x="784.693636" xlink:href="#m655ab97f4d" y="261.895712"/>
     <use style="fill:#b2996e;stroke:#b2996e;" x="813.692727" xlink:href="#m655ab97f4d" y="217.648786"/>
     <use style="fill:#b2996e;stroke:#b2996e;" x="842.691818" xlink:href="#m655ab97f4d" y="285.855757"/>
     <use style="fill:#b2996e;stroke:#b2996e;" x="871.690909" xlink:href="#m655ab97f4d" y="244.44084"/>
    </g>
   </g>
   <g id="line2d_15">
    <path clip-path="url(#p78ec240a2c)" d="M 179.667149 201.56033 
L 212.620661 220.444063 
L 245.574174 252.374873 
L 278.527686 134.359805 
L 311.481198 151.102084 
L 344.434711 205.990165 
L 377.388223 130.741739 
L 410.341736 233.7703 
L 443.295248 199.125022 
L 476.24876 306.388741 
L 509.202273 153.651259 
L 542.155785 240.672174 
L 575.109298 234.174348 
L 608.06281 247.067151 
L 641.016322 221.347661 
L 673.969835 244.742039 
L 706.923347 216.392564 
L 739.87686 234.295562 
L 772.830372 235.331394 
L 805.783884 231.687616 
L 838.737397 233.649085 
L 871.690909 274.557106 
" style="fill:none;stroke:#a8ff04;stroke-linecap:square;stroke-width:1.5;"/>
    <defs>
     <path d="M 0 3 
C 0.795609 3 1.55874 2.683901 2.12132 2.12132 
C 2.683901 1.55874 3 0.795609 3 0 
C 3 -0.795609 2.683901 -1.55874 2.12132 -2.12132 
C 1.55874 -2.683901 0.795609 -3 0 -3 
C -0.795609 -3 -1.55874 -2.683901 -2.12132 -2.12132 
C -2.683901 -1.55874 -3 -0.795609 -3 0 
C -3 0.795609 -2.683901 1.55874 -2.12132 2.12132 
C -1.55874 2.683901 -0.795609 3 0 3 
z
" id="m17b4f4b0cb" style="stroke:#a8ff04;"/>
    </defs>
    <g clip-path="url(#p78ec240a2c)">
     <use style="fill:#a8ff04;stroke:#a8ff04;" x="179.667149" xlink:href="#m17b4f4b0cb" y="201.56033"/>
     <use style="fill:#a8ff04;stroke:#a8ff04;" x="212.620661" xlink:href="#m17b4f4b0cb" y="220.444063"/>
     <use style="fill:#a8ff04;stroke:#a8ff04;" x="245.574174" xlink:href="#m17b4f4b0cb" y="252.374873"/>
     <use style="fill:#a8ff04;stroke:#a8ff04;" x="278.527686" xlink:href="#m17b4f4b0cb" y="134.359805"/>
     <use style="fill:#a8ff04;stroke:#a8ff04;" x="311.481198" xlink:href="#m17b4f4b0cb" y="151.102084"/>
     <use style="fill:#a8ff04;stroke:#a8ff04;" x="344.434711" xlink:href="#m17b4f4b0cb" y="205.990165"/>
     <use style="fill:#a8ff04;stroke:#a8ff04;" x="377.388223" xlink:href="#m17b4f4b0cb" y="130.741739"/>
     <use style="fill:#a8ff04;stroke:#a8ff04;" x="410.341736" xlink:href="#m17b4f4b0cb" y="233.7703"/>
     <use style="fill:#a8ff04;stroke:#a8ff04;" x="443.295248" xlink:href="#m17b4f4b0cb" y="199.125022"/>
     <use style="fill:#a8ff04;stroke:#a8ff04;" x="476.24876" xlink:href="#m17b4f4b0cb" y="306.388741"/>
     <use style="fill:#a8ff04;stroke:#a8ff04;" x="509.202273" xlink:href="#m17b4f4b0cb" y="153.651259"/>
     <use style="fill:#a8ff04;stroke:#a8ff04;" x="542.155785" xlink:href="#m17b4f4b0cb" y="240.672174"/>
     <use style="fill:#a8ff04;stroke:#a8ff04;" x="575.109298" xlink:href="#m17b4f4b0cb" y="234.174348"/>
     <use style="fill:#a8ff04;stroke:#a8ff04;" x="608.06281" xlink:href="#m17b4f4b0cb" y="247.067151"/>
     <use style="fill:#a8ff04;stroke:#a8ff04;" x="641.016322" xlink:href="#m17b4f4b0cb" y="221.347661"/>
     <use style="fill:#a8ff04;stroke:#a8ff04;" x="673.969835" xlink:href="#m17b4f4b0cb" y="244.742039"/>
     <use style="fill:#a8ff04;stroke:#a8ff04;" x="706.923347" xlink:href="#m17b4f4b0cb" y="216.392564"/>
     <use style="fill:#a8ff04;stroke:#a8ff04;" x="739.87686" xlink:href="#m17b4f4b0cb" y="234.295562"/>
     <use style="fill:#a8ff04;stroke:#a8ff04;" x="772.830372" xlink:href="#m17b4f4b0cb" y="235.331394"/>
     <use style="fill:#a8ff04;stroke:#a8ff04;" x="805.783884" xlink:href="#m17b4f4b0cb" y="231.687616"/>
     <use style="fill:#a8ff04;stroke:#a8ff04;" x="838.737397" xlink:href="#m17b4f4b0cb" y="233.649085"/>
     <use style="fill:#a8ff04;stroke:#a8ff04;" x="871.690909" xlink:href="#m17b4f4b0cb" y="274.557106"/>
    </g>
   </g>
   <g id="patch_3">
    <path d="M 126 448.56 
L 126 60.48 
" style="fill:none;stroke:#000000;stroke-linecap:square;stroke-linejoin:miter;stroke-width:0.8;"/>
   </g>
   <g id="patch_4">
    <path d="M 907.2 448.56 
L 907.2 60.48 
" style="fill:none;stroke:#000000;stroke-linecap:square;stroke-linejoin:miter;stroke-width:0.8;"/>
   </g>
   <g id="patch_5">
    <path d="M 126 448.56 
L 907.2 448.56 
" style="fill:none;stroke:#000000;stroke-linecap:square;stroke-linejoin:miter;stroke-width:0.8;"/>
   </g>
   <g id="patch_6">
    <path d="M 126 60.48 
L 907.2 60.48 
" style="fill:none;stroke:#000000;stroke-linecap:square;stroke-linejoin:miter;stroke-width:0.8;"/>
   </g>
  </g>
  <g id="text_14">
   <!-- GFI for the chunks of size 30 of document -->
   <defs>
    <path d="M 9.421875 54.6875 
L 18.40625 54.6875 
L 18.40625 0 
L 9.421875 0 
z
M 9.421875 75.984375 
L 18.40625 75.984375 
L 18.40625 64.59375 
L 9.421875 64.59375 
z
" id="DejaVuSans-105"/>
    <path d="M 5.515625 54.6875 
L 48.1875 54.6875 
L 48.1875 46.484375 
L 14.40625 7.171875 
L 48.1875 7.171875 
L 48.1875 0 
L 4.296875 0 
L 4.296875 8.203125 
L 38.09375 47.515625 
L 5.515625 47.515625 
z
" id="DejaVuSans-122"/>
    <path d="M 40.578125 39.3125 
Q 47.65625 37.796875 51.625 33 
Q 55.609375 28.21875 55.609375 21.1875 
Q 55.609375 10.40625 48.1875 4.484375 
Q 40.765625 -1.421875 27.09375 -1.421875 
Q 22.515625 -1.421875 17.65625 -0.515625 
Q 12.796875 0.390625 7.625 2.203125 
L 7.625 11.71875 
Q 11.71875 9.328125 16.59375 8.109375 
Q 21.484375 6.890625 26.8125 6.890625 
Q 36.078125 6.890625 40.9375 10.546875 
Q 45.796875 14.203125 45.796875 21.1875 
Q 45.796875 27.640625 41.28125 31.265625 
Q 36.765625 34.90625 28.71875 34.90625 
L 20.21875 34.90625 
L 20.21875 43.015625 
L 29.109375 43.015625 
Q 36.375 43.015625 40.234375 45.921875 
Q 44.09375 48.828125 44.09375 54.296875 
Q 44.09375 59.90625 40.109375 62.90625 
Q 36.140625 65.921875 28.71875 65.921875 
Q 24.65625 65.921875 20.015625 65.03125 
Q 15.375 64.15625 9.8125 62.3125 
L 9.8125 71.09375 
Q 15.4375 72.65625 20.34375 73.4375 
Q 25.25 74.21875 29.59375 74.21875 
Q 40.828125 74.21875 47.359375 69.109375 
Q 53.90625 64.015625 53.90625 55.328125 
Q 53.90625 49.265625 50.4375 45.09375 
Q 46.96875 40.921875 40.578125 39.3125 
z
" id="DejaVuSans-51"/>
   </defs>
   <g transform="translate(357.424375 20.717812)scale(0.14 -0.14)">
    <use xlink:href="#DejaVuSans-71"/>
    <use x="77.490234" xlink:href="#DejaVuSans-70"/>
    <use x="135.009766" xlink:href="#DejaVuSans-73"/>
    <use x="164.501953" xlink:href="#DejaVuSans-32"/>
    <use x="196.289062" xlink:href="#DejaVuSans-102"/>
    <use x="231.494141" xlink:href="#DejaVuSans-111"/>
    <use x="292.675781" xlink:href="#DejaVuSans-114"/>
    <use x="333.789062" xlink:href="#DejaVuSans-32"/>
    <use x="365.576172" xlink:href="#DejaVuSans-116"/>
    <use x="404.785156" xlink:href="#DejaVuSans-104"/>
    <use x="468.164062" xlink:href="#DejaVuSans-101"/>
    <use x="529.6875" xlink:href="#DejaVuSans-32"/>
    <use x="561.474609" xlink:href="#DejaVuSans-99"/>
    <use x="616.455078" xlink:href="#DejaVuSans-104"/>
    <use x="679.833984" xlink:href="#DejaVuSans-117"/>
    <use x="743.212891" xlink:href="#DejaVuSans-110"/>
    <use x="806.591797" xlink:href="#DejaVuSans-107"/>
    <use x="864.501953" xlink:href="#DejaVuSans-115"/>
    <use x="916.601562" xlink:href="#DejaVuSans-32"/>
    <use x="948.388672" xlink:href="#DejaVuSans-111"/>
    <use x="1009.570312" xlink:href="#DejaVuSans-102"/>
    <use x="1044.775391" xlink:href="#DejaVuSans-32"/>
    <use x="1076.5625" xlink:href="#DejaVuSans-115"/>
    <use x="1128.662109" xlink:href="#DejaVuSans-105"/>
    <use x="1156.445312" xlink:href="#DejaVuSans-122"/>
    <use x="1208.935547" xlink:href="#DejaVuSans-101"/>
    <use x="1270.458984" xlink:href="#DejaVuSans-32"/>
    <use x="1302.246094" xlink:href="#DejaVuSans-51"/>
    <use x="1365.869141" xlink:href="#DejaVuSans-48"/>
    <use x="1429.492188" xlink:href="#DejaVuSans-32"/>
    <use x="1461.279297" xlink:href="#DejaVuSans-111"/>
    <use x="1522.460938" xlink:href="#DejaVuSans-102"/>
    <use x="1557.666016" xlink:href="#DejaVuSans-32"/>
    <use x="1589.453125" xlink:href="#DejaVuSans-100"/>
    <use x="1652.929688" xlink:href="#DejaVuSans-111"/>
    <use x="1714.111328" xlink:href="#DejaVuSans-99"/>
    <use x="1769.091797" xlink:href="#DejaVuSans-117"/>
    <use x="1832.470703" xlink:href="#DejaVuSans-109"/>
    <use x="1929.882812" xlink:href="#DejaVuSans-101"/>
    <use x="1991.40625" xlink:href="#DejaVuSans-110"/>
    <use x="2054.785156" xlink:href="#DejaVuSans-116"/>
   </g>
  </g>
 </g>
 <defs>
  <clipPath id="p78ec240a2c">
   <rect height="388.08" width="781.2" x="126" y="60.48"/>
  </clipPath>
 </defs>
</svg>
