<?xml version="1.0" encoding="utf-8" standalone="no"?>
<!DOCTYPE svg PUBLIC "-//W3C//DTD SVG 1.1//EN"
  "http://www.w3.org/Graphics/SVG/1.1/DTD/svg11.dtd">
<!-- Created with matplotlib (https://matplotlib.org/) -->
<svg height="242.29625pt" version="1.1" viewBox="0 0 441.903125 242.29625" width="441.903125pt" xmlns="http://www.w3.org/2000/svg" xmlns:xlink="http://www.w3.org/1999/xlink">
 <defs>
  <style type="text/css">
*{stroke-linecap:butt;stroke-linejoin:round;}
  </style>
 </defs>
 <g id="figure_1">
  <g id="patch_1">
   <path d="M 0 242.29625 
L 441.903125 242.29625 
L 441.903125 0 
L 0 0 
z
" style="fill:#ffffff;"/>
  </g>
  <g id="axes_1">
   <g id="patch_2">
    <path d="M 40.603125 204.74 
L 431.203125 204.74 
L 431.203125 10.7 
L 40.603125 10.7 
z
" style="fill:#ffffff;"/>
   </g>
   <g id="patch_3">
    <path clip-path="url(#p7d9e568226)" d="M 58.35767 204.74 
L 60.241442 204.74 
L 60.241442 89.395894 
L 58.35767 89.395894 
z
" style="fill:#1f77b4;"/>
   </g>
   <g id="patch_4">
    <path clip-path="url(#p7d9e568226)" d="M 60.712385 204.74 
L 62.596156 204.74 
L 62.596156 92.099585 
L 60.712385 92.099585 
z
" style="fill:#1f77b4;"/>
   </g>
   <g id="patch_5">
    <path clip-path="url(#p7d9e568226)" d="M 63.067099 204.74 
L 64.95087 204.74 
L 64.95087 102.704958 
L 63.067099 102.704958 
z
" style="fill:#1f77b4;"/>
   </g>
   <g id="patch_6">
    <path clip-path="url(#p7d9e568226)" d="M 65.421813 204.74 
L 67.305585 204.74 
L 67.305585 72.03548 
L 65.421813 72.03548 
z
" style="fill:#1f77b4;"/>
   </g>
   <g id="patch_7">
    <path clip-path="url(#p7d9e568226)" d="M 67.776527 204.74 
L 69.660299 204.74 
L 69.660299 57.996888 
L 67.776527 57.996888 
z
" style="fill:#1f77b4;"/>
   </g>
   <g id="patch_8">
    <path clip-path="url(#p7d9e568226)" d="M 70.131242 204.74 
L 72.015013 204.74 
L 72.015013 37.544148 
L 70.131242 37.544148 
z
" style="fill:#1f77b4;"/>
   </g>
   <g id="patch_9">
    <path clip-path="url(#p7d9e568226)" d="M 72.485956 204.74 
L 74.369727 204.74 
L 74.369727 77.428624 
L 72.485956 77.428624 
z
" style="fill:#1f77b4;"/>
   </g>
   <g id="patch_10">
    <path clip-path="url(#p7d9e568226)" d="M 74.84067 204.74 
L 76.724442 204.74 
L 76.724442 66.77216 
L 74.84067 66.77216 
z
" style="fill:#1f77b4;"/>
   </g>
   <g id="patch_11">
    <path clip-path="url(#p7d9e568226)" d="M 77.195384 204.74 
L 79.079156 204.74 
L 79.079156 60.996244 
L 77.195384 60.996244 
z
" style="fill:#1f77b4;"/>
   </g>
   <g id="patch_12">
    <path clip-path="url(#p7d9e568226)" d="M 79.550099 204.74 
L 81.43387 204.74 
L 81.43387 58.491895 
L 79.550099 58.491895 
z
" style="fill:#1f77b4;"/>
   </g>
   <g id="patch_13">
    <path clip-path="url(#p7d9e568226)" d="M 81.904813 204.74 
L 83.788584 204.74 
L 83.788584 36.453626 
L 81.904813 36.453626 
z
" style="fill:#1f77b4;"/>
   </g>
   <g id="patch_14">
    <path clip-path="url(#p7d9e568226)" d="M 84.259527 204.74 
L 86.143299 204.74 
L 86.143299 56.656768 
L 84.259527 56.656768 
z
" style="fill:#1f77b4;"/>
   </g>
   <g id="patch_15">
    <path clip-path="url(#p7d9e568226)" d="M 86.614241 204.74 
L 88.498013 204.74 
L 88.498013 103.451237 
L 86.614241 103.451237 
z
" style="fill:#1f77b4;"/>
   </g>
   <g id="patch_16">
    <path clip-path="url(#p7d9e568226)" d="M 88.968956 204.74 
L 90.852727 204.74 
L 90.852727 44.763206 
L 88.968956 44.763206 
z
" style="fill:#1f77b4;"/>
   </g>
   <g id="patch_17">
    <path clip-path="url(#p7d9e568226)" d="M 91.32367 204.74 
L 93.207441 204.74 
L 93.207441 59.906559 
L 91.32367 59.906559 
z
" style="fill:#1f77b4;"/>
   </g>
   <g id="patch_18">
    <path clip-path="url(#p7d9e568226)" d="M 93.678384 204.74 
L 95.562156 204.74 
L 95.562156 59.878081 
L 93.678384 59.878081 
z
" style="fill:#1f77b4;"/>
   </g>
   <g id="patch_19">
    <path clip-path="url(#p7d9e568226)" d="M 96.033098 204.74 
L 97.91687 204.74 
L 97.91687 99.170392 
L 96.033098 99.170392 
z
" style="fill:#1f77b4;"/>
   </g>
   <g id="patch_20">
    <path clip-path="url(#p7d9e568226)" d="M 98.387813 204.74 
L 100.271584 204.74 
L 100.271584 86.664562 
L 98.387813 86.664562 
z
" style="fill:#1f77b4;"/>
   </g>
   <g id="patch_21">
    <path clip-path="url(#p7d9e568226)" d="M 100.742527 204.74 
L 102.626298 204.74 
L 102.626298 85.482744 
L 100.742527 85.482744 
z
" style="fill:#1f77b4;"/>
   </g>
   <g id="patch_22">
    <path clip-path="url(#p7d9e568226)" d="M 103.097241 204.74 
L 104.981013 204.74 
L 104.981013 70.374569 
L 103.097241 70.374569 
z
" style="fill:#1f77b4;"/>
   </g>
   <g id="patch_23">
    <path clip-path="url(#p7d9e568226)" d="M 105.451955 204.74 
L 107.335727 204.74 
L 107.335727 88.508902 
L 105.451955 88.508902 
z
" style="fill:#1f77b4;"/>
   </g>
   <g id="patch_24">
    <path clip-path="url(#p7d9e568226)" d="M 107.80667 204.74 
L 109.690441 204.74 
L 109.690441 82.699483 
L 107.80667 82.699483 
z
" style="fill:#1f77b4;"/>
   </g>
   <g id="patch_25">
    <path clip-path="url(#p7d9e568226)" d="M 110.161384 204.74 
L 112.045155 204.74 
L 112.045155 88.343062 
L 110.161384 88.343062 
z
" style="fill:#1f77b4;"/>
   </g>
   <g id="patch_26">
    <path clip-path="url(#p7d9e568226)" d="M 112.516098 204.74 
L 114.39987 204.74 
L 114.39987 82.129094 
L 112.516098 82.129094 
z
" style="fill:#1f77b4;"/>
   </g>
   <g id="patch_27">
    <path clip-path="url(#p7d9e568226)" d="M 114.870812 204.74 
L 116.754584 204.74 
L 116.754584 57.700387 
L 114.870812 57.700387 
z
" style="fill:#1f77b4;"/>
   </g>
   <g id="patch_28">
    <path clip-path="url(#p7d9e568226)" d="M 117.225527 204.74 
L 119.109298 204.74 
L 119.109298 47.628549 
L 117.225527 47.628549 
z
" style="fill:#1f77b4;"/>
   </g>
   <g id="patch_29">
    <path clip-path="url(#p7d9e568226)" d="M 119.580241 204.74 
L 121.464012 204.74 
L 121.464012 43.789106 
L 119.580241 43.789106 
z
" style="fill:#1f77b4;"/>
   </g>
   <g id="patch_30">
    <path clip-path="url(#p7d9e568226)" d="M 121.934955 204.74 
L 123.818727 204.74 
L 123.818727 62.209052 
L 121.934955 62.209052 
z
" style="fill:#1f77b4;"/>
   </g>
   <g id="patch_31">
    <path clip-path="url(#p7d9e568226)" d="M 124.289669 204.74 
L 126.173441 204.74 
L 126.173441 35.193075 
L 124.289669 35.193075 
z
" style="fill:#1f77b4;"/>
   </g>
   <g id="patch_32">
    <path clip-path="url(#p7d9e568226)" d="M 126.644384 204.74 
L 128.528155 204.74 
L 128.528155 74.649551 
L 126.644384 74.649551 
z
" style="fill:#1f77b4;"/>
   </g>
   <g id="patch_33">
    <path clip-path="url(#p7d9e568226)" d="M 128.999098 204.74 
L 130.882869 204.74 
L 130.882869 86.043919 
L 128.999098 86.043919 
z
" style="fill:#1f77b4;"/>
   </g>
   <g id="patch_34">
    <path clip-path="url(#p7d9e568226)" d="M 131.353812 204.74 
L 133.237584 204.74 
L 133.237584 88.577583 
L 131.353812 88.577583 
z
" style="fill:#1f77b4;"/>
   </g>
   <g id="patch_35">
    <path clip-path="url(#p7d9e568226)" d="M 133.708526 204.74 
L 135.592298 204.74 
L 135.592298 131.298925 
L 133.708526 131.298925 
z
" style="fill:#1f77b4;"/>
   </g>
   <g id="patch_36">
    <path clip-path="url(#p7d9e568226)" d="M 136.063241 204.74 
L 137.947012 204.74 
L 137.947012 66.987416 
L 136.063241 66.987416 
z
" style="fill:#1f77b4;"/>
   </g>
   <g id="patch_37">
    <path clip-path="url(#p7d9e568226)" d="M 138.417955 204.74 
L 140.301726 204.74 
L 140.301726 78.294677 
L 138.417955 78.294677 
z
" style="fill:#1f77b4;"/>
   </g>
   <g id="patch_38">
    <path clip-path="url(#p7d9e568226)" d="M 140.772669 204.74 
L 142.656441 204.74 
L 142.656441 52.592855 
L 140.772669 52.592855 
z
" style="fill:#1f77b4;"/>
   </g>
   <g id="patch_39">
    <path clip-path="url(#p7d9e568226)" d="M 143.127384 204.74 
L 145.011155 204.74 
L 145.011155 50.189015 
L 143.127384 50.189015 
z
" style="fill:#1f77b4;"/>
   </g>
   <g id="patch_40">
    <path clip-path="url(#p7d9e568226)" d="M 145.482098 204.74 
L 147.365869 204.74 
L 147.365869 49.031487 
L 145.482098 49.031487 
z
" style="fill:#1f77b4;"/>
   </g>
   <g id="patch_41">
    <path clip-path="url(#p7d9e568226)" d="M 147.836812 204.74 
L 149.720583 204.74 
L 149.720583 70.059641 
L 147.836812 70.059641 
z
" style="fill:#1f77b4;"/>
   </g>
   <g id="patch_42">
    <path clip-path="url(#p7d9e568226)" d="M 150.191526 204.74 
L 152.075298 204.74 
L 152.075298 55.651678 
L 150.191526 55.651678 
z
" style="fill:#1f77b4;"/>
   </g>
   <g id="patch_43">
    <path clip-path="url(#p7d9e568226)" d="M 152.546241 204.74 
L 154.430012 204.74 
L 154.430012 19.94 
L 152.546241 19.94 
z
" style="fill:#1f77b4;"/>
   </g>
   <g id="patch_44">
    <path clip-path="url(#p7d9e568226)" d="M 154.900955 204.74 
L 156.784726 204.74 
L 156.784726 43.134122 
L 154.900955 43.134122 
z
" style="fill:#1f77b4;"/>
   </g>
   <g id="patch_45">
    <path clip-path="url(#p7d9e568226)" d="M 157.255669 204.74 
L 159.13944 204.74 
L 159.13944 66.987416 
L 157.255669 66.987416 
z
" style="fill:#1f77b4;"/>
   </g>
   <g id="patch_46">
    <path clip-path="url(#p7d9e568226)" d="M 159.610383 204.74 
L 161.494155 204.74 
L 161.494155 67.404529 
L 159.610383 67.404529 
z
" style="fill:#1f77b4;"/>
   </g>
   <g id="patch_47">
    <path clip-path="url(#p7d9e568226)" d="M 161.965098 204.74 
L 163.848869 204.74 
L 163.848869 55.978333 
L 161.965098 55.978333 
z
" style="fill:#1f77b4;"/>
   </g>
   <g id="patch_48">
    <path clip-path="url(#p7d9e568226)" d="M 164.319812 204.74 
L 166.203583 204.74 
L 166.203583 75.126131 
L 164.319812 75.126131 
z
" style="fill:#1f77b4;"/>
   </g>
   <g id="patch_49">
    <path clip-path="url(#p7d9e568226)" d="M 166.674526 204.74 
L 168.558297 204.74 
L 168.558297 36.53487 
L 166.674526 36.53487 
z
" style="fill:#1f77b4;"/>
   </g>
   <g id="patch_50">
    <path clip-path="url(#p7d9e568226)" d="M 169.02924 204.74 
L 170.913012 204.74 
L 170.913012 65.610443 
L 169.02924 65.610443 
z
" style="fill:#1f77b4;"/>
   </g>
   <g id="patch_51">
    <path clip-path="url(#p7d9e568226)" d="M 171.383955 204.74 
L 173.267726 204.74 
L 173.267726 102.118655 
L 171.383955 102.118655 
z
" style="fill:#1f77b4;"/>
   </g>
   <g id="patch_52">
    <path clip-path="url(#p7d9e568226)" d="M 173.738669 204.74 
L 175.62244 204.74 
L 175.62244 66.841678 
L 173.738669 66.841678 
z
" style="fill:#1f77b4;"/>
   </g>
   <g id="patch_53">
    <path clip-path="url(#p7d9e568226)" d="M 176.093383 204.74 
L 177.977154 204.74 
L 177.977154 61.963642 
L 176.093383 61.963642 
z
" style="fill:#1f77b4;"/>
   </g>
   <g id="patch_54">
    <path clip-path="url(#p7d9e568226)" d="M 178.448097 204.74 
L 180.331869 204.74 
L 180.331869 60.304407 
L 178.448097 60.304407 
z
" style="fill:#1f77b4;"/>
   </g>
   <g id="patch_55">
    <path clip-path="url(#p7d9e568226)" d="M 180.802812 204.74 
L 182.686583 204.74 
L 182.686583 65.381785 
L 180.802812 65.381785 
z
" style="fill:#1f77b4;"/>
   </g>
   <g id="patch_56">
    <path clip-path="url(#p7d9e568226)" d="M 183.157526 204.74 
L 185.041297 204.74 
L 185.041297 61.911713 
L 183.157526 61.911713 
z
" style="fill:#1f77b4;"/>
   </g>
   <g id="patch_57">
    <path clip-path="url(#p7d9e568226)" d="M 185.51224 204.74 
L 187.396011 204.74 
L 187.396011 43.196941 
L 185.51224 43.196941 
z
" style="fill:#1f77b4;"/>
   </g>
   <g id="patch_58">
    <path clip-path="url(#p7d9e568226)" d="M 187.866954 204.74 
L 189.750726 204.74 
L 189.750726 86.544789 
L 187.866954 86.544789 
z
" style="fill:#1f77b4;"/>
   </g>
   <g id="patch_59">
    <path clip-path="url(#p7d9e568226)" d="M 190.221669 204.74 
L 192.10544 204.74 
L 192.10544 88.887486 
L 190.221669 88.887486 
z
" style="fill:#1f77b4;"/>
   </g>
   <g id="patch_60">
    <path clip-path="url(#p7d9e568226)" d="M 192.576383 204.74 
L 194.460154 204.74 
L 194.460154 90.547559 
L 192.576383 90.547559 
z
" style="fill:#1f77b4;"/>
   </g>
   <g id="patch_61">
    <path clip-path="url(#p7d9e568226)" d="M 194.931097 204.74 
L 196.814868 204.74 
L 196.814868 76.135409 
L 194.931097 76.135409 
z
" style="fill:#1f77b4;"/>
   </g>
   <g id="patch_62">
    <path clip-path="url(#p7d9e568226)" d="M 197.285811 204.74 
L 199.169583 204.74 
L 199.169583 75.72416 
L 197.285811 75.72416 
z
" style="fill:#1f77b4;"/>
   </g>
   <g id="patch_63">
    <path clip-path="url(#p7d9e568226)" d="M 199.640526 204.74 
L 201.524297 204.74 
L 201.524297 86.833752 
L 199.640526 86.833752 
z
" style="fill:#1f77b4;"/>
   </g>
   <g id="patch_64">
    <path clip-path="url(#p7d9e568226)" d="M 201.99524 204.74 
L 203.879011 204.74 
L 203.879011 63.637955 
L 201.99524 63.637955 
z
" style="fill:#1f77b4;"/>
   </g>
   <g id="patch_65">
    <path clip-path="url(#p7d9e568226)" d="M 204.349954 204.74 
L 206.233725 204.74 
L 206.233725 66.907009 
L 204.349954 66.907009 
z
" style="fill:#1f77b4;"/>
   </g>
   <g id="patch_66">
    <path clip-path="url(#p7d9e568226)" d="M 206.704668 204.74 
L 208.58844 204.74 
L 208.58844 44.945797 
L 206.704668 44.945797 
z
" style="fill:#1f77b4;"/>
   </g>
   <g id="patch_67">
    <path clip-path="url(#p7d9e568226)" d="M 209.059383 204.74 
L 210.943154 204.74 
L 210.943154 64.887616 
L 209.059383 64.887616 
z
" style="fill:#1f77b4;"/>
   </g>
   <g id="patch_68">
    <path clip-path="url(#p7d9e568226)" d="M 211.414097 204.74 
L 213.297868 204.74 
L 213.297868 43.163438 
L 211.414097 43.163438 
z
" style="fill:#1f77b4;"/>
   </g>
   <g id="patch_69">
    <path clip-path="url(#p7d9e568226)" d="M 213.768811 204.74 
L 215.652582 204.74 
L 215.652582 37.313815 
L 213.768811 37.313815 
z
" style="fill:#1f77b4;"/>
   </g>
   <g id="patch_70">
    <path clip-path="url(#p7d9e568226)" d="M 216.123525 204.74 
L 218.007297 204.74 
L 218.007297 87.879883 
L 216.123525 87.879883 
z
" style="fill:#1f77b4;"/>
   </g>
   <g id="patch_71">
    <path clip-path="url(#p7d9e568226)" d="M 218.47824 204.74 
L 220.362011 204.74 
L 220.362011 54.567857 
L 218.47824 54.567857 
z
" style="fill:#1f77b4;"/>
   </g>
   <g id="patch_72">
    <path clip-path="url(#p7d9e568226)" d="M 220.832954 204.74 
L 222.716725 204.74 
L 222.716725 70.685309 
L 220.832954 70.685309 
z
" style="fill:#1f77b4;"/>
   </g>
   <g id="patch_73">
    <path clip-path="url(#p7d9e568226)" d="M 223.187668 204.74 
L 225.071439 204.74 
L 225.071439 62.13367 
L 223.187668 62.13367 
z
" style="fill:#1f77b4;"/>
   </g>
   <g id="patch_74">
    <path clip-path="url(#p7d9e568226)" d="M 225.542382 204.74 
L 227.426154 204.74 
L 227.426154 66.907009 
L 225.542382 66.907009 
z
" style="fill:#1f77b4;"/>
   </g>
   <g id="patch_75">
    <path clip-path="url(#p7d9e568226)" d="M 227.897097 204.74 
L 229.780868 204.74 
L 229.780868 82.522754 
L 227.897097 82.522754 
z
" style="fill:#1f77b4;"/>
   </g>
   <g id="patch_76">
    <path clip-path="url(#p7d9e568226)" d="M 230.251811 204.74 
L 232.135582 204.74 
L 232.135582 26.817327 
L 230.251811 26.817327 
z
" style="fill:#1f77b4;"/>
   </g>
   <g id="patch_77">
    <path clip-path="url(#p7d9e568226)" d="M 232.606525 204.74 
L 234.490296 204.74 
L 234.490296 79.356722 
L 232.606525 79.356722 
z
" style="fill:#1f77b4;"/>
   </g>
   <g id="patch_78">
    <path clip-path="url(#p7d9e568226)" d="M 234.961239 204.74 
L 236.845011 204.74 
L 236.845011 103.451237 
L 234.961239 103.451237 
z
" style="fill:#1f77b4;"/>
   </g>
   <g id="patch_79">
    <path clip-path="url(#p7d9e568226)" d="M 237.315954 204.74 
L 239.199725 204.74 
L 239.199725 57.325153 
L 237.315954 57.325153 
z
" style="fill:#1f77b4;"/>
   </g>
   <g id="patch_80">
    <path clip-path="url(#p7d9e568226)" d="M 239.670668 204.74 
L 241.554439 204.74 
L 241.554439 42.944831 
L 239.670668 42.944831 
z
" style="fill:#1f77b4;"/>
   </g>
   <g id="patch_81">
    <path clip-path="url(#p7d9e568226)" d="M 242.025382 204.74 
L 243.909153 204.74 
L 243.909153 40.697617 
L 242.025382 40.697617 
z
" style="fill:#1f77b4;"/>
   </g>
   <g id="patch_82">
    <path clip-path="url(#p7d9e568226)" d="M 244.380096 204.74 
L 246.263868 204.74 
L 246.263868 90.551747 
L 244.380096 90.551747 
z
" style="fill:#1f77b4;"/>
   </g>
   <g id="patch_83">
    <path clip-path="url(#p7d9e568226)" d="M 246.734811 204.74 
L 248.618582 204.74 
L 248.618582 75.052424 
L 246.734811 75.052424 
z
" style="fill:#1f77b4;"/>
   </g>
   <g id="patch_84">
    <path clip-path="url(#p7d9e568226)" d="M 249.089525 204.74 
L 250.973296 204.74 
L 250.973296 75.886649 
L 249.089525 75.886649 
z
" style="fill:#1f77b4;"/>
   </g>
   <g id="patch_85">
    <path clip-path="url(#p7d9e568226)" d="M 251.444239 204.74 
L 253.32801 204.74 
L 253.32801 66.968152 
L 251.444239 66.968152 
z
" style="fill:#1f77b4;"/>
   </g>
   <g id="patch_86">
    <path clip-path="url(#p7d9e568226)" d="M 253.798953 204.74 
L 255.682725 204.74 
L 255.682725 58.735629 
L 253.798953 58.735629 
z
" style="fill:#1f77b4;"/>
   </g>
   <g id="patch_87">
    <path clip-path="url(#p7d9e568226)" d="M 256.153668 204.74 
L 258.037439 204.74 
L 258.037439 57.658508 
L 256.153668 57.658508 
z
" style="fill:#1f77b4;"/>
   </g>
   <g id="patch_88">
    <path clip-path="url(#p7d9e568226)" d="M 258.508382 204.74 
L 260.392153 204.74 
L 260.392153 56.755602 
L 258.508382 56.755602 
z
" style="fill:#1f77b4;"/>
   </g>
   <g id="patch_89">
    <path clip-path="url(#p7d9e568226)" d="M 260.863096 204.74 
L 262.746867 204.74 
L 262.746867 65.019115 
L 260.863096 65.019115 
z
" style="fill:#1f77b4;"/>
   </g>
   <g id="patch_90">
    <path clip-path="url(#p7d9e568226)" d="M 263.21781 204.74 
L 265.101582 204.74 
L 265.101582 83.761528 
L 263.21781 83.761528 
z
" style="fill:#1f77b4;"/>
   </g>
   <g id="patch_91">
    <path clip-path="url(#p7d9e568226)" d="M 265.572525 204.74 
L 267.456296 204.74 
L 267.456296 82.843546 
L 265.572525 82.843546 
z
" style="fill:#1f77b4;"/>
   </g>
   <g id="patch_92">
    <path clip-path="url(#p7d9e568226)" d="M 267.927239 204.74 
L 269.81101 204.74 
L 269.81101 90.490604 
L 267.927239 90.490604 
z
" style="fill:#1f77b4;"/>
   </g>
   <g id="patch_93">
    <path clip-path="url(#p7d9e568226)" d="M 270.281953 204.74 
L 272.165724 204.74 
L 272.165724 112.145264 
L 270.281953 112.145264 
z
" style="fill:#1f77b4;"/>
   </g>
   <g id="patch_94">
    <path clip-path="url(#p7d9e568226)" d="M 272.636667 204.74 
L 274.520439 204.74 
L 274.520439 93.744582 
L 272.636667 93.744582 
z
" style="fill:#1f77b4;"/>
   </g>
   <g id="patch_95">
    <path clip-path="url(#p7d9e568226)" d="M 274.991382 204.74 
L 276.875153 204.74 
L 276.875153 78.940447 
L 274.991382 78.940447 
z
" style="fill:#1f77b4;"/>
   </g>
   <g id="patch_96">
    <path clip-path="url(#p7d9e568226)" d="M 277.346096 204.74 
L 279.229867 204.74 
L 279.229867 81.819192 
L 277.346096 81.819192 
z
" style="fill:#1f77b4;"/>
   </g>
   <g id="patch_97">
    <path clip-path="url(#p7d9e568226)" d="M 279.70081 204.74 
L 281.584581 204.74 
L 281.584581 86.762558 
L 279.70081 86.762558 
z
" style="fill:#1f77b4;"/>
   </g>
   <g id="patch_98">
    <path clip-path="url(#p7d9e568226)" d="M 282.055524 204.74 
L 283.939296 204.74 
L 283.939296 102.900113 
L 282.055524 102.900113 
z
" style="fill:#1f77b4;"/>
   </g>
   <g id="patch_99">
    <path clip-path="url(#p7d9e568226)" d="M 284.410239 204.74 
L 286.29401 204.74 
L 286.29401 122.640914 
L 284.410239 122.640914 
z
" style="fill:#1f77b4;"/>
   </g>
   <g id="patch_100">
    <path clip-path="url(#p7d9e568226)" d="M 286.764953 204.74 
L 288.648724 204.74 
L 288.648724 92.613856 
L 286.764953 92.613856 
z
" style="fill:#1f77b4;"/>
   </g>
   <g id="patch_101">
    <path clip-path="url(#p7d9e568226)" d="M 289.119667 204.74 
L 291.003438 204.74 
L 291.003438 98.181216 
L 289.119667 98.181216 
z
" style="fill:#1f77b4;"/>
   </g>
   <g id="patch_102">
    <path clip-path="url(#p7d9e568226)" d="M 291.474381 204.74 
L 293.358153 204.74 
L 293.358153 74.078325 
L 291.474381 74.078325 
z
" style="fill:#1f77b4;"/>
   </g>
   <g id="patch_103">
    <path clip-path="url(#p7d9e568226)" d="M 293.829096 204.74 
L 295.712867 204.74 
L 295.712867 71.171103 
L 293.829096 71.171103 
z
" style="fill:#1f77b4;"/>
   </g>
   <g id="patch_104">
    <path clip-path="url(#p7d9e568226)" d="M 296.18381 204.74 
L 298.067581 204.74 
L 298.067581 89.503103 
L 296.18381 89.503103 
z
" style="fill:#1f77b4;"/>
   </g>
   <g id="patch_105">
    <path clip-path="url(#p7d9e568226)" d="M 298.538524 204.74 
L 300.422295 204.74 
L 300.422295 131.199254 
L 298.538524 131.199254 
z
" style="fill:#1f77b4;"/>
   </g>
   <g id="patch_106">
    <path clip-path="url(#p7d9e568226)" d="M 300.893238 204.74 
L 302.77701 204.74 
L 302.77701 84.694586 
L 300.893238 84.694586 
z
" style="fill:#1f77b4;"/>
   </g>
   <g id="patch_107">
    <path clip-path="url(#p7d9e568226)" d="M 303.247953 204.74 
L 305.131724 204.74 
L 305.131724 95.650065 
L 303.247953 95.650065 
z
" style="fill:#1f77b4;"/>
   </g>
   <g id="patch_108">
    <path clip-path="url(#p7d9e568226)" d="M 305.602667 204.74 
L 307.486438 204.74 
L 307.486438 74.353887 
L 305.602667 74.353887 
z
" style="fill:#1f77b4;"/>
   </g>
   <g id="patch_109">
    <path clip-path="url(#p7d9e568226)" d="M 307.957381 204.74 
L 309.841152 204.74 
L 309.841152 65.726029 
L 307.957381 65.726029 
z
" style="fill:#1f77b4;"/>
   </g>
   <g id="patch_110">
    <path clip-path="url(#p7d9e568226)" d="M 310.312095 204.74 
L 312.195867 204.74 
L 312.195867 77.062604 
L 310.312095 77.062604 
z
" style="fill:#1f77b4;"/>
   </g>
   <g id="patch_111">
    <path clip-path="url(#p7d9e568226)" d="M 312.66681 204.74 
L 314.550581 204.74 
L 314.550581 86.58583 
L 312.66681 86.58583 
z
" style="fill:#1f77b4;"/>
   </g>
   <g id="patch_112">
    <path clip-path="url(#p7d9e568226)" d="M 315.021524 204.74 
L 316.905295 204.74 
L 316.905295 79.06022 
L 315.021524 79.06022 
z
" style="fill:#1f77b4;"/>
   </g>
   <g id="patch_113">
    <path clip-path="url(#p7d9e568226)" d="M 317.376238 204.74 
L 319.260009 204.74 
L 319.260009 86.732406 
L 317.376238 86.732406 
z
" style="fill:#1f77b4;"/>
   </g>
   <g id="patch_114">
    <path clip-path="url(#p7d9e568226)" d="M 319.730952 204.74 
L 321.614724 204.74 
L 321.614724 100.935162 
L 319.730952 100.935162 
z
" style="fill:#1f77b4;"/>
   </g>
   <g id="patch_115">
    <path clip-path="url(#p7d9e568226)" d="M 322.085667 204.74 
L 323.969438 204.74 
L 323.969438 84.874665 
L 322.085667 84.874665 
z
" style="fill:#1f77b4;"/>
   </g>
   <g id="patch_116">
    <path clip-path="url(#p7d9e568226)" d="M 324.440381 204.74 
L 326.324152 204.74 
L 326.324152 82.868673 
L 324.440381 82.868673 
z
" style="fill:#1f77b4;"/>
   </g>
   <g id="patch_117">
    <path clip-path="url(#p7d9e568226)" d="M 326.795095 204.74 
L 328.678866 204.74 
L 328.678866 70.642593 
L 326.795095 70.642593 
z
" style="fill:#1f77b4;"/>
   </g>
   <g id="patch_118">
    <path clip-path="url(#p7d9e568226)" d="M 329.149809 204.74 
L 331.033581 204.74 
L 331.033581 94.450658 
L 329.149809 94.450658 
z
" style="fill:#1f77b4;"/>
   </g>
   <g id="patch_119">
    <path clip-path="url(#p7d9e568226)" d="M 331.504524 204.74 
L 333.388295 204.74 
L 333.388295 54.877759 
L 331.504524 54.877759 
z
" style="fill:#1f77b4;"/>
   </g>
   <g id="patch_120">
    <path clip-path="url(#p7d9e568226)" d="M 333.859238 204.74 
L 335.743009 204.74 
L 335.743009 68.966606 
L 333.859238 68.966606 
z
" style="fill:#1f77b4;"/>
   </g>
   <g id="patch_121">
    <path clip-path="url(#p7d9e568226)" d="M 336.213952 204.74 
L 338.097724 204.74 
L 338.097724 71.535448 
L 336.213952 71.535448 
z
" style="fill:#1f77b4;"/>
   </g>
   <g id="patch_122">
    <path clip-path="url(#p7d9e568226)" d="M 338.568666 204.74 
L 340.452438 204.74 
L 340.452438 74.035609 
L 338.568666 74.035609 
z
" style="fill:#1f77b4;"/>
   </g>
   <g id="patch_123">
    <path clip-path="url(#p7d9e568226)" d="M 340.923381 204.74 
L 342.807152 204.74 
L 342.807152 68.106416 
L 340.923381 68.106416 
z
" style="fill:#1f77b4;"/>
   </g>
   <g id="patch_124">
    <path clip-path="url(#p7d9e568226)" d="M 343.278095 204.74 
L 345.161866 204.74 
L 345.161866 70.805082 
L 343.278095 70.805082 
z
" style="fill:#1f77b4;"/>
   </g>
   <g id="patch_125">
    <path clip-path="url(#p7d9e568226)" d="M 345.632809 204.74 
L 347.516581 204.74 
L 347.516581 58.30344 
L 345.632809 58.30344 
z
" style="fill:#1f77b4;"/>
   </g>
   <g id="patch_126">
    <path clip-path="url(#p7d9e568226)" d="M 347.987523 204.74 
L 349.871295 204.74 
L 349.871295 65.610443 
L 347.987523 65.610443 
z
" style="fill:#1f77b4;"/>
   </g>
   <g id="patch_127">
    <path clip-path="url(#p7d9e568226)" d="M 350.342238 204.74 
L 352.226009 204.74 
L 352.226009 57.103196 
L 350.342238 57.103196 
z
" style="fill:#1f77b4;"/>
   </g>
   <g id="patch_128">
    <path clip-path="url(#p7d9e568226)" d="M 352.696952 204.74 
L 354.580723 204.74 
L 354.580723 74.838005 
L 352.696952 74.838005 
z
" style="fill:#1f77b4;"/>
   </g>
   <g id="patch_129">
    <path clip-path="url(#p7d9e568226)" d="M 355.051666 204.74 
L 356.935438 204.74 
L 356.935438 86.040569 
L 355.051666 86.040569 
z
" style="fill:#1f77b4;"/>
   </g>
   <g id="patch_130">
    <path clip-path="url(#p7d9e568226)" d="M 357.40638 204.74 
L 359.290152 204.74 
L 359.290152 76.251832 
L 357.40638 76.251832 
z
" style="fill:#1f77b4;"/>
   </g>
   <g id="patch_131">
    <path clip-path="url(#p7d9e568226)" d="M 359.761095 204.74 
L 361.644866 204.74 
L 361.644866 70.123297 
L 359.761095 70.123297 
z
" style="fill:#1f77b4;"/>
   </g>
   <g id="patch_132">
    <path clip-path="url(#p7d9e568226)" d="M 362.115809 204.74 
L 363.99958 204.74 
L 363.99958 84.809334 
L 362.115809 84.809334 
z
" style="fill:#1f77b4;"/>
   </g>
   <g id="patch_133">
    <path clip-path="url(#p7d9e568226)" d="M 364.470523 204.74 
L 366.354295 204.74 
L 366.354295 76.567597 
L 364.470523 76.567597 
z
" style="fill:#1f77b4;"/>
   </g>
   <g id="patch_134">
    <path clip-path="url(#p7d9e568226)" d="M 366.825237 204.74 
L 368.709009 204.74 
L 368.709009 86.559028 
L 366.825237 86.559028 
z
" style="fill:#1f77b4;"/>
   </g>
   <g id="patch_135">
    <path clip-path="url(#p7d9e568226)" d="M 369.179952 204.74 
L 371.063723 204.74 
L 371.063723 100.752571 
L 369.179952 100.752571 
z
" style="fill:#1f77b4;"/>
   </g>
   <g id="patch_136">
    <path clip-path="url(#p7d9e568226)" d="M 371.534666 204.74 
L 373.418437 204.74 
L 373.418437 107.340935 
L 371.534666 107.340935 
z
" style="fill:#1f77b4;"/>
   </g>
   <g id="patch_137">
    <path clip-path="url(#p7d9e568226)" d="M 373.88938 204.74 
L 375.773152 204.74 
L 375.773152 84.129223 
L 373.88938 84.129223 
z
" style="fill:#1f77b4;"/>
   </g>
   <g id="patch_138">
    <path clip-path="url(#p7d9e568226)" d="M 376.244094 204.74 
L 378.127866 204.74 
L 378.127866 104.194166 
L 376.244094 104.194166 
z
" style="fill:#1f77b4;"/>
   </g>
   <g id="patch_139">
    <path clip-path="url(#p7d9e568226)" d="M 378.598809 204.74 
L 380.48258 204.74 
L 380.48258 92.578678 
L 378.598809 92.578678 
z
" style="fill:#1f77b4;"/>
   </g>
   <g id="patch_140">
    <path clip-path="url(#p7d9e568226)" d="M 380.953523 204.74 
L 382.837294 204.74 
L 382.837294 94.636599 
L 380.953523 94.636599 
z
" style="fill:#1f77b4;"/>
   </g>
   <g id="patch_141">
    <path clip-path="url(#p7d9e568226)" d="M 383.308237 204.74 
L 385.192009 204.74 
L 385.192009 73.711467 
L 383.308237 73.711467 
z
" style="fill:#1f77b4;"/>
   </g>
   <g id="patch_142">
    <path clip-path="url(#p7d9e568226)" d="M 385.662951 204.74 
L 387.546723 204.74 
L 387.546723 109.430684 
L 385.662951 109.430684 
z
" style="fill:#1f77b4;"/>
   </g>
   <g id="patch_143">
    <path clip-path="url(#p7d9e568226)" d="M 388.017666 204.74 
L 389.901437 204.74 
L 389.901437 95.940703 
L 388.017666 95.940703 
z
" style="fill:#1f77b4;"/>
   </g>
   <g id="patch_144">
    <path clip-path="url(#p7d9e568226)" d="M 390.37238 204.74 
L 392.256151 204.74 
L 392.256151 112.657022 
L 390.37238 112.657022 
z
" style="fill:#1f77b4;"/>
   </g>
   <g id="patch_145">
    <path clip-path="url(#p7d9e568226)" d="M 392.727094 204.74 
L 394.610866 204.74 
L 394.610866 122.588985 
L 392.727094 122.588985 
z
" style="fill:#1f77b4;"/>
   </g>
   <g id="patch_146">
    <path clip-path="url(#p7d9e568226)" d="M 395.081808 204.74 
L 396.96558 204.74 
L 396.96558 75.503877 
L 395.081808 75.503877 
z
" style="fill:#1f77b4;"/>
   </g>
   <g id="patch_147">
    <path clip-path="url(#p7d9e568226)" d="M 397.436523 204.74 
L 399.320294 204.74 
L 399.320294 84.65857 
L 397.436523 84.65857 
z
" style="fill:#1f77b4;"/>
   </g>
   <g id="patch_148">
    <path clip-path="url(#p7d9e568226)" d="M 399.791237 204.74 
L 401.675008 204.74 
L 401.675008 74.08 
L 399.791237 74.08 
z
" style="fill:#1f77b4;"/>
   </g>
   <g id="patch_149">
    <path clip-path="url(#p7d9e568226)" d="M 402.145951 204.74 
L 404.029723 204.74 
L 404.029723 75.653803 
L 402.145951 75.653803 
z
" style="fill:#1f77b4;"/>
   </g>
   <g id="patch_150">
    <path clip-path="url(#p7d9e568226)" d="M 404.500665 204.74 
L 406.384437 204.74 
L 406.384437 99.764233 
L 404.500665 99.764233 
z
" style="fill:#1f77b4;"/>
   </g>
   <g id="patch_151">
    <path clip-path="url(#p7d9e568226)" d="M 406.85538 204.74 
L 408.739151 204.74 
L 408.739151 113.78356 
L 406.85538 113.78356 
z
" style="fill:#1f77b4;"/>
   </g>
   <g id="patch_152">
    <path clip-path="url(#p7d9e568226)" d="M 409.210094 204.74 
L 411.093865 204.74 
L 411.093865 66.571979 
L 409.210094 66.571979 
z
" style="fill:#1f77b4;"/>
   </g>
   <g id="patch_153">
    <path clip-path="url(#p7d9e568226)" d="M 411.564808 204.74 
L 413.44858 204.74 
L 413.44858 63.49808 
L 411.564808 63.49808 
z
" style="fill:#1f77b4;"/>
   </g>
   <g id="matplotlib.axis_1">
    <g id="xtick_1">
     <g id="line2d_1">
      <defs>
       <path d="M 0 0 
L 0 3.5 
" id="mfa8f41d8b8" style="stroke:#000000;stroke-width:0.8;"/>
      </defs>
      <g>
       <use style="stroke:#000000;stroke-width:0.8;" x="56.944842" xlink:href="#mfa8f41d8b8" y="204.74"/>
      </g>
     </g>
     <g id="text_1">
      <!-- 0 -->
      <defs>
       <path d="M 31.78125 66.40625 
Q 24.171875 66.40625 20.328125 58.90625 
Q 16.5 51.421875 16.5 36.375 
Q 16.5 21.390625 20.328125 13.890625 
Q 24.171875 6.390625 31.78125 6.390625 
Q 39.453125 6.390625 43.28125 13.890625 
Q 47.125 21.390625 47.125 36.375 
Q 47.125 51.421875 43.28125 58.90625 
Q 39.453125 66.40625 31.78125 66.40625 
z
M 31.78125 74.21875 
Q 44.046875 74.21875 50.515625 64.515625 
Q 56.984375 54.828125 56.984375 36.375 
Q 56.984375 17.96875 50.515625 8.265625 
Q 44.046875 -1.421875 31.78125 -1.421875 
Q 19.53125 -1.421875 13.0625 8.265625 
Q 6.59375 17.96875 6.59375 36.375 
Q 6.59375 54.828125 13.0625 64.515625 
Q 19.53125 74.21875 31.78125 74.21875 
z
" id="DejaVuSans-48"/>
      </defs>
      <g transform="translate(53.763592 219.338437)scale(0.1 -0.1)">
       <use xlink:href="#DejaVuSans-48"/>
      </g>
     </g>
    </g>
    <g id="xtick_2">
     <g id="line2d_2">
      <g>
       <use style="stroke:#000000;stroke-width:0.8;" x="104.039127" xlink:href="#mfa8f41d8b8" y="204.74"/>
      </g>
     </g>
     <g id="text_2">
      <!-- 20 -->
      <defs>
       <path d="M 19.1875 8.296875 
L 53.609375 8.296875 
L 53.609375 0 
L 7.328125 0 
L 7.328125 8.296875 
Q 12.9375 14.109375 22.625 23.890625 
Q 32.328125 33.6875 34.8125 36.53125 
Q 39.546875 41.84375 41.421875 45.53125 
Q 43.3125 49.21875 43.3125 52.78125 
Q 43.3125 58.59375 39.234375 62.25 
Q 35.15625 65.921875 28.609375 65.921875 
Q 23.96875 65.921875 18.8125 64.3125 
Q 13.671875 62.703125 7.8125 59.421875 
L 7.8125 69.390625 
Q 13.765625 71.78125 18.9375 73 
Q 24.125 74.21875 28.421875 74.21875 
Q 39.75 74.21875 46.484375 68.546875 
Q 53.21875 62.890625 53.21875 53.421875 
Q 53.21875 48.921875 51.53125 44.890625 
Q 49.859375 40.875 45.40625 35.40625 
Q 44.1875 33.984375 37.640625 27.21875 
Q 31.109375 20.453125 19.1875 8.296875 
z
" id="DejaVuSans-50"/>
      </defs>
      <g transform="translate(97.676627 219.338437)scale(0.1 -0.1)">
       <use xlink:href="#DejaVuSans-50"/>
       <use x="63.623047" xlink:href="#DejaVuSans-48"/>
      </g>
     </g>
    </g>
    <g id="xtick_3">
     <g id="line2d_3">
      <g>
       <use style="stroke:#000000;stroke-width:0.8;" x="151.133412" xlink:href="#mfa8f41d8b8" y="204.74"/>
      </g>
     </g>
     <g id="text_3">
      <!-- 40 -->
      <defs>
       <path d="M 37.796875 64.3125 
L 12.890625 25.390625 
L 37.796875 25.390625 
z
M 35.203125 72.90625 
L 47.609375 72.90625 
L 47.609375 25.390625 
L 58.015625 25.390625 
L 58.015625 17.1875 
L 47.609375 17.1875 
L 47.609375 0 
L 37.796875 0 
L 37.796875 17.1875 
L 4.890625 17.1875 
L 4.890625 26.703125 
z
" id="DejaVuSans-52"/>
      </defs>
      <g transform="translate(144.770912 219.338437)scale(0.1 -0.1)">
       <use xlink:href="#DejaVuSans-52"/>
       <use x="63.623047" xlink:href="#DejaVuSans-48"/>
      </g>
     </g>
    </g>
    <g id="xtick_4">
     <g id="line2d_4">
      <g>
       <use style="stroke:#000000;stroke-width:0.8;" x="198.227697" xlink:href="#mfa8f41d8b8" y="204.74"/>
      </g>
     </g>
     <g id="text_4">
      <!-- 60 -->
      <defs>
       <path d="M 33.015625 40.375 
Q 26.375 40.375 22.484375 35.828125 
Q 18.609375 31.296875 18.609375 23.390625 
Q 18.609375 15.53125 22.484375 10.953125 
Q 26.375 6.390625 33.015625 6.390625 
Q 39.65625 6.390625 43.53125 10.953125 
Q 47.40625 15.53125 47.40625 23.390625 
Q 47.40625 31.296875 43.53125 35.828125 
Q 39.65625 40.375 33.015625 40.375 
z
M 52.59375 71.296875 
L 52.59375 62.3125 
Q 48.875 64.0625 45.09375 64.984375 
Q 41.3125 65.921875 37.59375 65.921875 
Q 27.828125 65.921875 22.671875 59.328125 
Q 17.53125 52.734375 16.796875 39.40625 
Q 19.671875 43.65625 24.015625 45.921875 
Q 28.375 48.1875 33.59375 48.1875 
Q 44.578125 48.1875 50.953125 41.515625 
Q 57.328125 34.859375 57.328125 23.390625 
Q 57.328125 12.15625 50.6875 5.359375 
Q 44.046875 -1.421875 33.015625 -1.421875 
Q 20.359375 -1.421875 13.671875 8.265625 
Q 6.984375 17.96875 6.984375 36.375 
Q 6.984375 53.65625 15.1875 63.9375 
Q 23.390625 74.21875 37.203125 74.21875 
Q 40.921875 74.21875 44.703125 73.484375 
Q 48.484375 72.75 52.59375 71.296875 
z
" id="DejaVuSans-54"/>
      </defs>
      <g transform="translate(191.865197 219.338437)scale(0.1 -0.1)">
       <use xlink:href="#DejaVuSans-54"/>
       <use x="63.623047" xlink:href="#DejaVuSans-48"/>
      </g>
     </g>
    </g>
    <g id="xtick_5">
     <g id="line2d_5">
      <g>
       <use style="stroke:#000000;stroke-width:0.8;" x="245.321982" xlink:href="#mfa8f41d8b8" y="204.74"/>
      </g>
     </g>
     <g id="text_5">
      <!-- 80 -->
      <defs>
       <path d="M 31.78125 34.625 
Q 24.75 34.625 20.71875 30.859375 
Q 16.703125 27.09375 16.703125 20.515625 
Q 16.703125 13.921875 20.71875 10.15625 
Q 24.75 6.390625 31.78125 6.390625 
Q 38.8125 6.390625 42.859375 10.171875 
Q 46.921875 13.96875 46.921875 20.515625 
Q 46.921875 27.09375 42.890625 30.859375 
Q 38.875 34.625 31.78125 34.625 
z
M 21.921875 38.8125 
Q 15.578125 40.375 12.03125 44.71875 
Q 8.5 49.078125 8.5 55.328125 
Q 8.5 64.0625 14.71875 69.140625 
Q 20.953125 74.21875 31.78125 74.21875 
Q 42.671875 74.21875 48.875 69.140625 
Q 55.078125 64.0625 55.078125 55.328125 
Q 55.078125 49.078125 51.53125 44.71875 
Q 48 40.375 41.703125 38.8125 
Q 48.828125 37.15625 52.796875 32.3125 
Q 56.78125 27.484375 56.78125 20.515625 
Q 56.78125 9.90625 50.3125 4.234375 
Q 43.84375 -1.421875 31.78125 -1.421875 
Q 19.734375 -1.421875 13.25 4.234375 
Q 6.78125 9.90625 6.78125 20.515625 
Q 6.78125 27.484375 10.78125 32.3125 
Q 14.796875 37.15625 21.921875 38.8125 
z
M 18.3125 54.390625 
Q 18.3125 48.734375 21.84375 45.5625 
Q 25.390625 42.390625 31.78125 42.390625 
Q 38.140625 42.390625 41.71875 45.5625 
Q 45.3125 48.734375 45.3125 54.390625 
Q 45.3125 60.0625 41.71875 63.234375 
Q 38.140625 66.40625 31.78125 66.40625 
Q 25.390625 66.40625 21.84375 63.234375 
Q 18.3125 60.0625 18.3125 54.390625 
z
" id="DejaVuSans-56"/>
      </defs>
      <g transform="translate(238.959482 219.338437)scale(0.1 -0.1)">
       <use xlink:href="#DejaVuSans-56"/>
       <use x="63.623047" xlink:href="#DejaVuSans-48"/>
      </g>
     </g>
    </g>
    <g id="xtick_6">
     <g id="line2d_6">
      <g>
       <use style="stroke:#000000;stroke-width:0.8;" x="292.416267" xlink:href="#mfa8f41d8b8" y="204.74"/>
      </g>
     </g>
     <g id="text_6">
      <!-- 100 -->
      <defs>
       <path d="M 12.40625 8.296875 
L 28.515625 8.296875 
L 28.515625 63.921875 
L 10.984375 60.40625 
L 10.984375 69.390625 
L 28.421875 72.90625 
L 38.28125 72.90625 
L 38.28125 8.296875 
L 54.390625 8.296875 
L 54.390625 0 
L 12.40625 0 
z
" id="DejaVuSans-49"/>
      </defs>
      <g transform="translate(282.872517 219.338437)scale(0.1 -0.1)">
       <use xlink:href="#DejaVuSans-49"/>
       <use x="63.623047" xlink:href="#DejaVuSans-48"/>
       <use x="127.246094" xlink:href="#DejaVuSans-48"/>
      </g>
     </g>
    </g>
    <g id="xtick_7">
     <g id="line2d_7">
      <g>
       <use style="stroke:#000000;stroke-width:0.8;" x="339.510552" xlink:href="#mfa8f41d8b8" y="204.74"/>
      </g>
     </g>
     <g id="text_7">
      <!-- 120 -->
      <g transform="translate(329.966802 219.338437)scale(0.1 -0.1)">
       <use xlink:href="#DejaVuSans-49"/>
       <use x="63.623047" xlink:href="#DejaVuSans-50"/>
       <use x="127.246094" xlink:href="#DejaVuSans-48"/>
      </g>
     </g>
    </g>
    <g id="xtick_8">
     <g id="line2d_8">
      <g>
       <use style="stroke:#000000;stroke-width:0.8;" x="386.604837" xlink:href="#mfa8f41d8b8" y="204.74"/>
      </g>
     </g>
     <g id="text_8">
      <!-- 140 -->
      <g transform="translate(377.061087 219.338437)scale(0.1 -0.1)">
       <use xlink:href="#DejaVuSans-49"/>
       <use x="63.623047" xlink:href="#DejaVuSans-52"/>
       <use x="127.246094" xlink:href="#DejaVuSans-48"/>
      </g>
     </g>
    </g>
    <g id="text_9">
     <!-- number of chunk (from beginning to end) -->
     <defs>
      <path d="M 54.890625 33.015625 
L 54.890625 0 
L 45.90625 0 
L 45.90625 32.71875 
Q 45.90625 40.484375 42.875 44.328125 
Q 39.84375 48.1875 33.796875 48.1875 
Q 26.515625 48.1875 22.3125 43.546875 
Q 18.109375 38.921875 18.109375 30.90625 
L 18.109375 0 
L 9.078125 0 
L 9.078125 54.6875 
L 18.109375 54.6875 
L 18.109375 46.1875 
Q 21.34375 51.125 25.703125 53.5625 
Q 30.078125 56 35.796875 56 
Q 45.21875 56 50.046875 50.171875 
Q 54.890625 44.34375 54.890625 33.015625 
z
" id="DejaVuSans-110"/>
      <path d="M 8.5 21.578125 
L 8.5 54.6875 
L 17.484375 54.6875 
L 17.484375 21.921875 
Q 17.484375 14.15625 20.5 10.265625 
Q 23.53125 6.390625 29.59375 6.390625 
Q 36.859375 6.390625 41.078125 11.03125 
Q 45.3125 15.671875 45.3125 23.6875 
L 45.3125 54.6875 
L 54.296875 54.6875 
L 54.296875 0 
L 45.3125 0 
L 45.3125 8.40625 
Q 42.046875 3.421875 37.71875 1 
Q 33.40625 -1.421875 27.6875 -1.421875 
Q 18.265625 -1.421875 13.375 4.4375 
Q 8.5 10.296875 8.5 21.578125 
z
M 31.109375 56 
z
" id="DejaVuSans-117"/>
      <path d="M 52 44.1875 
Q 55.375 50.25 60.0625 53.125 
Q 64.75 56 71.09375 56 
Q 79.640625 56 84.28125 50.015625 
Q 88.921875 44.046875 88.921875 33.015625 
L 88.921875 0 
L 79.890625 0 
L 79.890625 32.71875 
Q 79.890625 40.578125 77.09375 44.375 
Q 74.3125 48.1875 68.609375 48.1875 
Q 61.625 48.1875 57.5625 43.546875 
Q 53.515625 38.921875 53.515625 30.90625 
L 53.515625 0 
L 44.484375 0 
L 44.484375 32.71875 
Q 44.484375 40.625 41.703125 44.40625 
Q 38.921875 48.1875 33.109375 48.1875 
Q 26.21875 48.1875 22.15625 43.53125 
Q 18.109375 38.875 18.109375 30.90625 
L 18.109375 0 
L 9.078125 0 
L 9.078125 54.6875 
L 18.109375 54.6875 
L 18.109375 46.1875 
Q 21.1875 51.21875 25.484375 53.609375 
Q 29.78125 56 35.6875 56 
Q 41.65625 56 45.828125 52.96875 
Q 50 49.953125 52 44.1875 
z
" id="DejaVuSans-109"/>
      <path d="M 48.6875 27.296875 
Q 48.6875 37.203125 44.609375 42.84375 
Q 40.53125 48.484375 33.40625 48.484375 
Q 26.265625 48.484375 22.1875 42.84375 
Q 18.109375 37.203125 18.109375 27.296875 
Q 18.109375 17.390625 22.1875 11.75 
Q 26.265625 6.109375 33.40625 6.109375 
Q 40.53125 6.109375 44.609375 11.75 
Q 48.6875 17.390625 48.6875 27.296875 
z
M 18.109375 46.390625 
Q 20.953125 51.265625 25.265625 53.625 
Q 29.59375 56 35.59375 56 
Q 45.5625 56 51.78125 48.09375 
Q 58.015625 40.1875 58.015625 27.296875 
Q 58.015625 14.40625 51.78125 6.484375 
Q 45.5625 -1.421875 35.59375 -1.421875 
Q 29.59375 -1.421875 25.265625 0.953125 
Q 20.953125 3.328125 18.109375 8.203125 
L 18.109375 0 
L 9.078125 0 
L 9.078125 75.984375 
L 18.109375 75.984375 
z
" id="DejaVuSans-98"/>
      <path d="M 56.203125 29.59375 
L 56.203125 25.203125 
L 14.890625 25.203125 
Q 15.484375 15.921875 20.484375 11.0625 
Q 25.484375 6.203125 34.421875 6.203125 
Q 39.59375 6.203125 44.453125 7.46875 
Q 49.3125 8.734375 54.109375 11.28125 
L 54.109375 2.78125 
Q 49.265625 0.734375 44.1875 -0.34375 
Q 39.109375 -1.421875 33.890625 -1.421875 
Q 20.796875 -1.421875 13.15625 6.1875 
Q 5.515625 13.8125 5.515625 26.8125 
Q 5.515625 40.234375 12.765625 48.109375 
Q 20.015625 56 32.328125 56 
Q 43.359375 56 49.78125 48.890625 
Q 56.203125 41.796875 56.203125 29.59375 
z
M 47.21875 32.234375 
Q 47.125 39.59375 43.09375 43.984375 
Q 39.0625 48.390625 32.421875 48.390625 
Q 24.90625 48.390625 20.390625 44.140625 
Q 15.875 39.890625 15.1875 32.171875 
z
" id="DejaVuSans-101"/>
      <path d="M 41.109375 46.296875 
Q 39.59375 47.171875 37.8125 47.578125 
Q 36.03125 48 33.890625 48 
Q 26.265625 48 22.1875 43.046875 
Q 18.109375 38.09375 18.109375 28.8125 
L 18.109375 0 
L 9.078125 0 
L 9.078125 54.6875 
L 18.109375 54.6875 
L 18.109375 46.1875 
Q 20.953125 51.171875 25.484375 53.578125 
Q 30.03125 56 36.53125 56 
Q 37.453125 56 38.578125 55.875 
Q 39.703125 55.765625 41.0625 55.515625 
z
" id="DejaVuSans-114"/>
      <path id="DejaVuSans-32"/>
      <path d="M 30.609375 48.390625 
Q 23.390625 48.390625 19.1875 42.75 
Q 14.984375 37.109375 14.984375 27.296875 
Q 14.984375 17.484375 19.15625 11.84375 
Q 23.34375 6.203125 30.609375 6.203125 
Q 37.796875 6.203125 41.984375 11.859375 
Q 46.1875 17.53125 46.1875 27.296875 
Q 46.1875 37.015625 41.984375 42.703125 
Q 37.796875 48.390625 30.609375 48.390625 
z
M 30.609375 56 
Q 42.328125 56 49.015625 48.375 
Q 55.71875 40.765625 55.71875 27.296875 
Q 55.71875 13.875 49.015625 6.21875 
Q 42.328125 -1.421875 30.609375 -1.421875 
Q 18.84375 -1.421875 12.171875 6.21875 
Q 5.515625 13.875 5.515625 27.296875 
Q 5.515625 40.765625 12.171875 48.375 
Q 18.84375 56 30.609375 56 
z
" id="DejaVuSans-111"/>
      <path d="M 37.109375 75.984375 
L 37.109375 68.5 
L 28.515625 68.5 
Q 23.6875 68.5 21.796875 66.546875 
Q 19.921875 64.59375 19.921875 59.515625 
L 19.921875 54.6875 
L 34.71875 54.6875 
L 34.71875 47.703125 
L 19.921875 47.703125 
L 19.921875 0 
L 10.890625 0 
L 10.890625 47.703125 
L 2.296875 47.703125 
L 2.296875 54.6875 
L 10.890625 54.6875 
L 10.890625 58.5 
Q 10.890625 67.625 15.140625 71.796875 
Q 19.390625 75.984375 28.609375 75.984375 
z
" id="DejaVuSans-102"/>
      <path d="M 48.78125 52.59375 
L 48.78125 44.1875 
Q 44.96875 46.296875 41.140625 47.34375 
Q 37.3125 48.390625 33.40625 48.390625 
Q 24.65625 48.390625 19.8125 42.84375 
Q 14.984375 37.3125 14.984375 27.296875 
Q 14.984375 17.28125 19.8125 11.734375 
Q 24.65625 6.203125 33.40625 6.203125 
Q 37.3125 6.203125 41.140625 7.25 
Q 44.96875 8.296875 48.78125 10.40625 
L 48.78125 2.09375 
Q 45.015625 0.34375 40.984375 -0.53125 
Q 36.96875 -1.421875 32.421875 -1.421875 
Q 20.0625 -1.421875 12.78125 6.34375 
Q 5.515625 14.109375 5.515625 27.296875 
Q 5.515625 40.671875 12.859375 48.328125 
Q 20.21875 56 33.015625 56 
Q 37.15625 56 41.109375 55.140625 
Q 45.0625 54.296875 48.78125 52.59375 
z
" id="DejaVuSans-99"/>
      <path d="M 54.890625 33.015625 
L 54.890625 0 
L 45.90625 0 
L 45.90625 32.71875 
Q 45.90625 40.484375 42.875 44.328125 
Q 39.84375 48.1875 33.796875 48.1875 
Q 26.515625 48.1875 22.3125 43.546875 
Q 18.109375 38.921875 18.109375 30.90625 
L 18.109375 0 
L 9.078125 0 
L 9.078125 75.984375 
L 18.109375 75.984375 
L 18.109375 46.1875 
Q 21.34375 51.125 25.703125 53.5625 
Q 30.078125 56 35.796875 56 
Q 45.21875 56 50.046875 50.171875 
Q 54.890625 44.34375 54.890625 33.015625 
z
" id="DejaVuSans-104"/>
      <path d="M 9.078125 75.984375 
L 18.109375 75.984375 
L 18.109375 31.109375 
L 44.921875 54.6875 
L 56.390625 54.6875 
L 27.390625 29.109375 
L 57.625 0 
L 45.90625 0 
L 18.109375 26.703125 
L 18.109375 0 
L 9.078125 0 
z
" id="DejaVuSans-107"/>
      <path d="M 31 75.875 
Q 24.46875 64.65625 21.28125 53.65625 
Q 18.109375 42.671875 18.109375 31.390625 
Q 18.109375 20.125 21.3125 9.0625 
Q 24.515625 -2 31 -13.1875 
L 23.1875 -13.1875 
Q 15.875 -1.703125 12.234375 9.375 
Q 8.59375 20.453125 8.59375 31.390625 
Q 8.59375 42.28125 12.203125 53.3125 
Q 15.828125 64.359375 23.1875 75.875 
z
" id="DejaVuSans-40"/>
      <path d="M 45.40625 27.984375 
Q 45.40625 37.75 41.375 43.109375 
Q 37.359375 48.484375 30.078125 48.484375 
Q 22.859375 48.484375 18.828125 43.109375 
Q 14.796875 37.75 14.796875 27.984375 
Q 14.796875 18.265625 18.828125 12.890625 
Q 22.859375 7.515625 30.078125 7.515625 
Q 37.359375 7.515625 41.375 12.890625 
Q 45.40625 18.265625 45.40625 27.984375 
z
M 54.390625 6.78125 
Q 54.390625 -7.171875 48.1875 -13.984375 
Q 42 -20.796875 29.203125 -20.796875 
Q 24.46875 -20.796875 20.265625 -20.09375 
Q 16.0625 -19.390625 12.109375 -17.921875 
L 12.109375 -9.1875 
Q 16.0625 -11.328125 19.921875 -12.34375 
Q 23.78125 -13.375 27.78125 -13.375 
Q 36.625 -13.375 41.015625 -8.765625 
Q 45.40625 -4.15625 45.40625 5.171875 
L 45.40625 9.625 
Q 42.625 4.78125 38.28125 2.390625 
Q 33.9375 0 27.875 0 
Q 17.828125 0 11.671875 7.65625 
Q 5.515625 15.328125 5.515625 27.984375 
Q 5.515625 40.671875 11.671875 48.328125 
Q 17.828125 56 27.875 56 
Q 33.9375 56 38.28125 53.609375 
Q 42.625 51.21875 45.40625 46.390625 
L 45.40625 54.6875 
L 54.390625 54.6875 
z
" id="DejaVuSans-103"/>
      <path d="M 9.421875 54.6875 
L 18.40625 54.6875 
L 18.40625 0 
L 9.421875 0 
z
M 9.421875 75.984375 
L 18.40625 75.984375 
L 18.40625 64.59375 
L 9.421875 64.59375 
z
" id="DejaVuSans-105"/>
      <path d="M 18.3125 70.21875 
L 18.3125 54.6875 
L 36.8125 54.6875 
L 36.8125 47.703125 
L 18.3125 47.703125 
L 18.3125 18.015625 
Q 18.3125 11.328125 20.140625 9.421875 
Q 21.96875 7.515625 27.59375 7.515625 
L 36.8125 7.515625 
L 36.8125 0 
L 27.59375 0 
Q 17.1875 0 13.234375 3.875 
Q 9.28125 7.765625 9.28125 18.015625 
L 9.28125 47.703125 
L 2.6875 47.703125 
L 2.6875 54.6875 
L 9.28125 54.6875 
L 9.28125 70.21875 
z
" id="DejaVuSans-116"/>
      <path d="M 45.40625 46.390625 
L 45.40625 75.984375 
L 54.390625 75.984375 
L 54.390625 0 
L 45.40625 0 
L 45.40625 8.203125 
Q 42.578125 3.328125 38.25 0.953125 
Q 33.9375 -1.421875 27.875 -1.421875 
Q 17.96875 -1.421875 11.734375 6.484375 
Q 5.515625 14.40625 5.515625 27.296875 
Q 5.515625 40.1875 11.734375 48.09375 
Q 17.96875 56 27.875 56 
Q 33.9375 56 38.25 53.625 
Q 42.578125 51.265625 45.40625 46.390625 
z
M 14.796875 27.296875 
Q 14.796875 17.390625 18.875 11.75 
Q 22.953125 6.109375 30.078125 6.109375 
Q 37.203125 6.109375 41.296875 11.75 
Q 45.40625 17.390625 45.40625 27.296875 
Q 45.40625 37.203125 41.296875 42.84375 
Q 37.203125 48.484375 30.078125 48.484375 
Q 22.953125 48.484375 18.875 42.84375 
Q 14.796875 37.203125 14.796875 27.296875 
z
" id="DejaVuSans-100"/>
      <path d="M 8.015625 75.875 
L 15.828125 75.875 
Q 23.140625 64.359375 26.78125 53.3125 
Q 30.421875 42.28125 30.421875 31.390625 
Q 30.421875 20.453125 26.78125 9.375 
Q 23.140625 -1.703125 15.828125 -13.1875 
L 8.015625 -13.1875 
Q 14.5 -2 17.703125 9.0625 
Q 20.90625 20.125 20.90625 31.390625 
Q 20.90625 42.671875 17.703125 53.65625 
Q 14.5 64.65625 8.015625 75.875 
z
" id="DejaVuSans-41"/>
     </defs>
     <g transform="translate(131.916406 233.016562)scale(0.1 -0.1)">
      <use xlink:href="#DejaVuSans-110"/>
      <use x="63.378906" xlink:href="#DejaVuSans-117"/>
      <use x="126.757812" xlink:href="#DejaVuSans-109"/>
      <use x="224.169922" xlink:href="#DejaVuSans-98"/>
      <use x="287.646484" xlink:href="#DejaVuSans-101"/>
      <use x="349.169922" xlink:href="#DejaVuSans-114"/>
      <use x="390.283203" xlink:href="#DejaVuSans-32"/>
      <use x="422.070312" xlink:href="#DejaVuSans-111"/>
      <use x="483.251953" xlink:href="#DejaVuSans-102"/>
      <use x="518.457031" xlink:href="#DejaVuSans-32"/>
      <use x="550.244141" xlink:href="#DejaVuSans-99"/>
      <use x="605.224609" xlink:href="#DejaVuSans-104"/>
      <use x="668.603516" xlink:href="#DejaVuSans-117"/>
      <use x="731.982422" xlink:href="#DejaVuSans-110"/>
      <use x="795.361328" xlink:href="#DejaVuSans-107"/>
      <use x="853.271484" xlink:href="#DejaVuSans-32"/>
      <use x="885.058594" xlink:href="#DejaVuSans-40"/>
      <use x="924.072266" xlink:href="#DejaVuSans-102"/>
      <use x="959.277344" xlink:href="#DejaVuSans-114"/>
      <use x="1000.359375" xlink:href="#DejaVuSans-111"/>
      <use x="1061.541016" xlink:href="#DejaVuSans-109"/>
      <use x="1158.953125" xlink:href="#DejaVuSans-32"/>
      <use x="1190.740234" xlink:href="#DejaVuSans-98"/>
      <use x="1254.216797" xlink:href="#DejaVuSans-101"/>
      <use x="1315.740234" xlink:href="#DejaVuSans-103"/>
      <use x="1379.216797" xlink:href="#DejaVuSans-105"/>
      <use x="1407" xlink:href="#DejaVuSans-110"/>
      <use x="1470.378906" xlink:href="#DejaVuSans-110"/>
      <use x="1533.757812" xlink:href="#DejaVuSans-105"/>
      <use x="1561.541016" xlink:href="#DejaVuSans-110"/>
      <use x="1624.919922" xlink:href="#DejaVuSans-103"/>
      <use x="1688.396484" xlink:href="#DejaVuSans-32"/>
      <use x="1720.183594" xlink:href="#DejaVuSans-116"/>
      <use x="1759.392578" xlink:href="#DejaVuSans-111"/>
      <use x="1820.574219" xlink:href="#DejaVuSans-32"/>
      <use x="1852.361328" xlink:href="#DejaVuSans-101"/>
      <use x="1913.884766" xlink:href="#DejaVuSans-110"/>
      <use x="1977.263672" xlink:href="#DejaVuSans-100"/>
      <use x="2040.740234" xlink:href="#DejaVuSans-41"/>
     </g>
    </g>
   </g>
   <g id="matplotlib.axis_2">
    <g id="ytick_1">
     <g id="line2d_9">
      <defs>
       <path d="M 0 0 
L -3.5 0 
" id="m6e7bdbf4e8" style="stroke:#000000;stroke-width:0.8;"/>
      </defs>
      <g>
       <use style="stroke:#000000;stroke-width:0.8;" x="40.603125" xlink:href="#m6e7bdbf4e8" y="204.74"/>
      </g>
     </g>
     <g id="text_10">
      <!-- 0 -->
      <g transform="translate(27.240625 208.539219)scale(0.1 -0.1)">
       <use xlink:href="#DejaVuSans-48"/>
      </g>
     </g>
    </g>
    <g id="ytick_2">
     <g id="line2d_10">
      <g>
       <use style="stroke:#000000;stroke-width:0.8;" x="40.603125" xlink:href="#m6e7bdbf4e8" y="162.861258"/>
      </g>
     </g>
     <g id="text_11">
      <!-- 5 -->
      <defs>
       <path d="M 10.796875 72.90625 
L 49.515625 72.90625 
L 49.515625 64.59375 
L 19.828125 64.59375 
L 19.828125 46.734375 
Q 21.96875 47.46875 24.109375 47.828125 
Q 26.265625 48.1875 28.421875 48.1875 
Q 40.625 48.1875 47.75 41.5 
Q 54.890625 34.8125 54.890625 23.390625 
Q 54.890625 11.625 47.5625 5.09375 
Q 40.234375 -1.421875 26.90625 -1.421875 
Q 22.3125 -1.421875 17.546875 -0.640625 
Q 12.796875 0.140625 7.71875 1.703125 
L 7.71875 11.625 
Q 12.109375 9.234375 16.796875 8.0625 
Q 21.484375 6.890625 26.703125 6.890625 
Q 35.15625 6.890625 40.078125 11.328125 
Q 45.015625 15.765625 45.015625 23.390625 
Q 45.015625 31 40.078125 35.4375 
Q 35.15625 39.890625 26.703125 39.890625 
Q 22.75 39.890625 18.8125 39.015625 
Q 14.890625 38.140625 10.796875 36.28125 
z
" id="DejaVuSans-53"/>
      </defs>
      <g transform="translate(27.240625 166.660477)scale(0.1 -0.1)">
       <use xlink:href="#DejaVuSans-53"/>
      </g>
     </g>
    </g>
    <g id="ytick_3">
     <g id="line2d_11">
      <g>
       <use style="stroke:#000000;stroke-width:0.8;" x="40.603125" xlink:href="#m6e7bdbf4e8" y="120.982516"/>
      </g>
     </g>
     <g id="text_12">
      <!-- 10 -->
      <g transform="translate(20.878125 124.781735)scale(0.1 -0.1)">
       <use xlink:href="#DejaVuSans-49"/>
       <use x="63.623047" xlink:href="#DejaVuSans-48"/>
      </g>
     </g>
    </g>
    <g id="ytick_4">
     <g id="line2d_12">
      <g>
       <use style="stroke:#000000;stroke-width:0.8;" x="40.603125" xlink:href="#m6e7bdbf4e8" y="79.103774"/>
      </g>
     </g>
     <g id="text_13">
      <!-- 15 -->
      <g transform="translate(20.878125 82.902993)scale(0.1 -0.1)">
       <use xlink:href="#DejaVuSans-49"/>
       <use x="63.623047" xlink:href="#DejaVuSans-53"/>
      </g>
     </g>
    </g>
    <g id="ytick_5">
     <g id="line2d_13">
      <g>
       <use style="stroke:#000000;stroke-width:0.8;" x="40.603125" xlink:href="#m6e7bdbf4e8" y="37.225032"/>
      </g>
     </g>
     <g id="text_14">
      <!-- 20 -->
      <g transform="translate(20.878125 41.024251)scale(0.1 -0.1)">
       <use xlink:href="#DejaVuSans-50"/>
       <use x="63.623047" xlink:href="#DejaVuSans-48"/>
      </g>
     </g>
    </g>
    <g id="text_15">
     <!-- GFI -->
     <defs>
      <path d="M 59.515625 10.40625 
L 59.515625 29.984375 
L 43.40625 29.984375 
L 43.40625 38.09375 
L 69.28125 38.09375 
L 69.28125 6.78125 
Q 63.578125 2.734375 56.6875 0.65625 
Q 49.8125 -1.421875 42 -1.421875 
Q 24.90625 -1.421875 15.25 8.5625 
Q 5.609375 18.5625 5.609375 36.375 
Q 5.609375 54.25 15.25 64.234375 
Q 24.90625 74.21875 42 74.21875 
Q 49.125 74.21875 55.546875 72.453125 
Q 61.96875 70.703125 67.390625 67.28125 
L 67.390625 56.78125 
Q 61.921875 61.421875 55.765625 63.765625 
Q 49.609375 66.109375 42.828125 66.109375 
Q 29.4375 66.109375 22.71875 58.640625 
Q 16.015625 51.171875 16.015625 36.375 
Q 16.015625 21.625 22.71875 14.15625 
Q 29.4375 6.6875 42.828125 6.6875 
Q 48.046875 6.6875 52.140625 7.59375 
Q 56.25 8.5 59.515625 10.40625 
z
" id="DejaVuSans-71"/>
      <path d="M 9.8125 72.90625 
L 51.703125 72.90625 
L 51.703125 64.59375 
L 19.671875 64.59375 
L 19.671875 43.109375 
L 48.578125 43.109375 
L 48.578125 34.8125 
L 19.671875 34.8125 
L 19.671875 0 
L 9.8125 0 
z
" id="DejaVuSans-70"/>
      <path d="M 9.8125 72.90625 
L 19.671875 72.90625 
L 19.671875 0 
L 9.8125 0 
z
" id="DejaVuSans-73"/>
     </defs>
     <g transform="translate(14.798438 115.945)rotate(-90)scale(0.1 -0.1)">
      <use xlink:href="#DejaVuSans-71"/>
      <use x="77.490234" xlink:href="#DejaVuSans-70"/>
      <use x="135.009766" xlink:href="#DejaVuSans-73"/>
     </g>
    </g>
   </g>
   <g id="patch_154">
    <path d="M 40.603125 204.74 
L 40.603125 10.7 
" style="fill:none;stroke:#000000;stroke-linecap:square;stroke-linejoin:miter;stroke-width:0.8;"/>
   </g>
   <g id="patch_155">
    <path d="M 431.203125 204.74 
L 431.203125 10.7 
" style="fill:none;stroke:#000000;stroke-linecap:square;stroke-linejoin:miter;stroke-width:0.8;"/>
   </g>
   <g id="patch_156">
    <path d="M 40.603125 204.74 
L 431.203125 204.74 
" style="fill:none;stroke:#000000;stroke-linecap:square;stroke-linejoin:miter;stroke-width:0.8;"/>
   </g>
   <g id="patch_157">
    <path d="M 40.603125 10.7 
L 431.203125 10.7 
" style="fill:none;stroke:#000000;stroke-linecap:square;stroke-linejoin:miter;stroke-width:0.8;"/>
   </g>
  </g>
 </g>
 <defs>
  <clipPath id="p7d9e568226">
   <rect height="194.04" width="390.6" x="40.603125" y="10.7"/>
  </clipPath>
 </defs>
</svg>
