<?xml version="1.0" encoding="utf-8" standalone="no"?>
<!DOCTYPE svg PUBLIC "-//W3C//DTD SVG 1.1//EN"
  "http://www.w3.org/Graphics/SVG/1.1/DTD/svg11.dtd">
<!-- Created with matplotlib (http://matplotlib.org/) -->
<svg height="252pt" version="1.1" viewBox="0 0 504 252" width="504pt" xmlns="http://www.w3.org/2000/svg" xmlns:xlink="http://www.w3.org/1999/xlink">
 <defs>
  <style type="text/css">
*{stroke-linecap:butt;stroke-linejoin:round;}
  </style>
 </defs>
 <g id="figure_1">
  <g id="patch_1">
   <path d="M 0 252 
L 504 252 
L 504 0 
L 0 0 
z
" style="fill:#ffffff;"/>
  </g>
  <g id="axes_1">
   <g id="patch_2">
    <path d="M 63 224.28 
L 453.6 224.28 
L 453.6 30.24 
L 63 30.24 
z
" style="fill:#ffffff;"/>
   </g>
   <g id="patch_3">
    <path clip-path="url(#p76cec0fc23)" d="M 80.754545 224.28 
L 82.638317 224.28 
L 82.638317 108.935894 
L 80.754545 108.935894 
z
" style="fill:#1f77b4;"/>
   </g>
   <g id="patch_4">
    <path clip-path="url(#p76cec0fc23)" d="M 83.10926 224.28 
L 84.993031 224.28 
L 84.993031 111.639585 
L 83.10926 111.639585 
z
" style="fill:#1f77b4;"/>
   </g>
   <g id="patch_5">
    <path clip-path="url(#p76cec0fc23)" d="M 85.463974 224.28 
L 87.347745 224.28 
L 87.347745 122.244958 
L 85.463974 122.244958 
z
" style="fill:#1f77b4;"/>
   </g>
   <g id="patch_6">
    <path clip-path="url(#p76cec0fc23)" d="M 87.818688 224.28 
L 89.70246 224.28 
L 89.70246 91.57548 
L 87.818688 91.57548 
z
" style="fill:#1f77b4;"/>
   </g>
   <g id="patch_7">
    <path clip-path="url(#p76cec0fc23)" d="M 90.173402 224.28 
L 92.057174 224.28 
L 92.057174 77.536888 
L 90.173402 77.536888 
z
" style="fill:#1f77b4;"/>
   </g>
   <g id="patch_8">
    <path clip-path="url(#p76cec0fc23)" d="M 92.528117 224.28 
L 94.411888 224.28 
L 94.411888 57.084148 
L 92.528117 57.084148 
z
" style="fill:#1f77b4;"/>
   </g>
   <g id="patch_9">
    <path clip-path="url(#p76cec0fc23)" d="M 94.882831 224.28 
L 96.766602 224.28 
L 96.766602 96.968624 
L 94.882831 96.968624 
z
" style="fill:#1f77b4;"/>
   </g>
   <g id="patch_10">
    <path clip-path="url(#p76cec0fc23)" d="M 97.237545 224.28 
L 99.121317 224.28 
L 99.121317 86.31216 
L 97.237545 86.31216 
z
" style="fill:#1f77b4;"/>
   </g>
   <g id="patch_11">
    <path clip-path="url(#p76cec0fc23)" d="M 99.592259 224.28 
L 101.476031 224.28 
L 101.476031 80.536244 
L 99.592259 80.536244 
z
" style="fill:#1f77b4;"/>
   </g>
   <g id="patch_12">
    <path clip-path="url(#p76cec0fc23)" d="M 101.946974 224.28 
L 103.830745 224.28 
L 103.830745 78.031895 
L 101.946974 78.031895 
z
" style="fill:#1f77b4;"/>
   </g>
   <g id="patch_13">
    <path clip-path="url(#p76cec0fc23)" d="M 104.301688 224.28 
L 106.185459 224.28 
L 106.185459 55.993626 
L 104.301688 55.993626 
z
" style="fill:#1f77b4;"/>
   </g>
   <g id="patch_14">
    <path clip-path="url(#p76cec0fc23)" d="M 106.656402 224.28 
L 108.540174 224.28 
L 108.540174 76.196768 
L 106.656402 76.196768 
z
" style="fill:#1f77b4;"/>
   </g>
   <g id="patch_15">
    <path clip-path="url(#p76cec0fc23)" d="M 109.011116 224.28 
L 110.894888 224.28 
L 110.894888 122.991237 
L 109.011116 122.991237 
z
" style="fill:#1f77b4;"/>
   </g>
   <g id="patch_16">
    <path clip-path="url(#p76cec0fc23)" d="M 111.365831 224.28 
L 113.249602 224.28 
L 113.249602 64.303206 
L 111.365831 64.303206 
z
" style="fill:#1f77b4;"/>
   </g>
   <g id="patch_17">
    <path clip-path="url(#p76cec0fc23)" d="M 113.720545 224.28 
L 115.604316 224.28 
L 115.604316 79.446559 
L 113.720545 79.446559 
z
" style="fill:#1f77b4;"/>
   </g>
   <g id="patch_18">
    <path clip-path="url(#p76cec0fc23)" d="M 116.075259 224.28 
L 117.959031 224.28 
L 117.959031 79.418081 
L 116.075259 79.418081 
z
" style="fill:#1f77b4;"/>
   </g>
   <g id="patch_19">
    <path clip-path="url(#p76cec0fc23)" d="M 118.429973 224.28 
L 120.313745 224.28 
L 120.313745 118.710392 
L 118.429973 118.710392 
z
" style="fill:#1f77b4;"/>
   </g>
   <g id="patch_20">
    <path clip-path="url(#p76cec0fc23)" d="M 120.784688 224.28 
L 122.668459 224.28 
L 122.668459 106.204562 
L 120.784688 106.204562 
z
" style="fill:#1f77b4;"/>
   </g>
   <g id="patch_21">
    <path clip-path="url(#p76cec0fc23)" d="M 123.139402 224.28 
L 125.023173 224.28 
L 125.023173 105.022744 
L 123.139402 105.022744 
z
" style="fill:#1f77b4;"/>
   </g>
   <g id="patch_22">
    <path clip-path="url(#p76cec0fc23)" d="M 125.494116 224.28 
L 127.377888 224.28 
L 127.377888 89.914569 
L 125.494116 89.914569 
z
" style="fill:#1f77b4;"/>
   </g>
   <g id="patch_23">
    <path clip-path="url(#p76cec0fc23)" d="M 127.84883 224.28 
L 129.732602 224.28 
L 129.732602 108.048902 
L 127.84883 108.048902 
z
" style="fill:#1f77b4;"/>
   </g>
   <g id="patch_24">
    <path clip-path="url(#p76cec0fc23)" d="M 130.203545 224.28 
L 132.087316 224.28 
L 132.087316 102.239483 
L 130.203545 102.239483 
z
" style="fill:#1f77b4;"/>
   </g>
   <g id="patch_25">
    <path clip-path="url(#p76cec0fc23)" d="M 132.558259 224.28 
L 134.44203 224.28 
L 134.44203 107.883062 
L 132.558259 107.883062 
z
" style="fill:#1f77b4;"/>
   </g>
   <g id="patch_26">
    <path clip-path="url(#p76cec0fc23)" d="M 134.912973 224.28 
L 136.796745 224.28 
L 136.796745 101.669094 
L 134.912973 101.669094 
z
" style="fill:#1f77b4;"/>
   </g>
   <g id="patch_27">
    <path clip-path="url(#p76cec0fc23)" d="M 137.267687 224.28 
L 139.151459 224.28 
L 139.151459 77.240387 
L 137.267687 77.240387 
z
" style="fill:#1f77b4;"/>
   </g>
   <g id="patch_28">
    <path clip-path="url(#p76cec0fc23)" d="M 139.622402 224.28 
L 141.506173 224.28 
L 141.506173 67.168549 
L 139.622402 67.168549 
z
" style="fill:#1f77b4;"/>
   </g>
   <g id="patch_29">
    <path clip-path="url(#p76cec0fc23)" d="M 141.977116 224.28 
L 143.860887 224.28 
L 143.860887 63.329106 
L 141.977116 63.329106 
z
" style="fill:#1f77b4;"/>
   </g>
   <g id="patch_30">
    <path clip-path="url(#p76cec0fc23)" d="M 144.33183 224.28 
L 146.215602 224.28 
L 146.215602 81.749052 
L 144.33183 81.749052 
z
" style="fill:#1f77b4;"/>
   </g>
   <g id="patch_31">
    <path clip-path="url(#p76cec0fc23)" d="M 146.686544 224.28 
L 148.570316 224.28 
L 148.570316 54.733075 
L 146.686544 54.733075 
z
" style="fill:#1f77b4;"/>
   </g>
   <g id="patch_32">
    <path clip-path="url(#p76cec0fc23)" d="M 149.041259 224.28 
L 150.92503 224.28 
L 150.92503 94.189551 
L 149.041259 94.189551 
z
" style="fill:#1f77b4;"/>
   </g>
   <g id="patch_33">
    <path clip-path="url(#p76cec0fc23)" d="M 151.395973 224.28 
L 153.279744 224.28 
L 153.279744 105.583919 
L 151.395973 105.583919 
z
" style="fill:#1f77b4;"/>
   </g>
   <g id="patch_34">
    <path clip-path="url(#p76cec0fc23)" d="M 153.750687 224.28 
L 155.634459 224.28 
L 155.634459 108.117583 
L 153.750687 108.117583 
z
" style="fill:#1f77b4;"/>
   </g>
   <g id="patch_35">
    <path clip-path="url(#p76cec0fc23)" d="M 156.105401 224.28 
L 157.989173 224.28 
L 157.989173 150.838925 
L 156.105401 150.838925 
z
" style="fill:#1f77b4;"/>
   </g>
   <g id="patch_36">
    <path clip-path="url(#p76cec0fc23)" d="M 158.460116 224.28 
L 160.343887 224.28 
L 160.343887 86.527416 
L 158.460116 86.527416 
z
" style="fill:#1f77b4;"/>
   </g>
   <g id="patch_37">
    <path clip-path="url(#p76cec0fc23)" d="M 160.81483 224.28 
L 162.698601 224.28 
L 162.698601 97.834677 
L 160.81483 97.834677 
z
" style="fill:#1f77b4;"/>
   </g>
   <g id="patch_38">
    <path clip-path="url(#p76cec0fc23)" d="M 163.169544 224.28 
L 165.053316 224.28 
L 165.053316 72.132855 
L 163.169544 72.132855 
z
" style="fill:#1f77b4;"/>
   </g>
   <g id="patch_39">
    <path clip-path="url(#p76cec0fc23)" d="M 165.524259 224.28 
L 167.40803 224.28 
L 167.40803 69.729015 
L 165.524259 69.729015 
z
" style="fill:#1f77b4;"/>
   </g>
   <g id="patch_40">
    <path clip-path="url(#p76cec0fc23)" d="M 167.878973 224.28 
L 169.762744 224.28 
L 169.762744 68.571487 
L 167.878973 68.571487 
z
" style="fill:#1f77b4;"/>
   </g>
   <g id="patch_41">
    <path clip-path="url(#p76cec0fc23)" d="M 170.233687 224.28 
L 172.117458 224.28 
L 172.117458 89.599641 
L 170.233687 89.599641 
z
" style="fill:#1f77b4;"/>
   </g>
   <g id="patch_42">
    <path clip-path="url(#p76cec0fc23)" d="M 172.588401 224.28 
L 174.472173 224.28 
L 174.472173 75.191678 
L 172.588401 75.191678 
z
" style="fill:#1f77b4;"/>
   </g>
   <g id="patch_43">
    <path clip-path="url(#p76cec0fc23)" d="M 174.943116 224.28 
L 176.826887 224.28 
L 176.826887 39.48 
L 174.943116 39.48 
z
" style="fill:#1f77b4;"/>
   </g>
   <g id="patch_44">
    <path clip-path="url(#p76cec0fc23)" d="M 177.29783 224.28 
L 179.181601 224.28 
L 179.181601 62.674122 
L 177.29783 62.674122 
z
" style="fill:#1f77b4;"/>
   </g>
   <g id="patch_45">
    <path clip-path="url(#p76cec0fc23)" d="M 179.652544 224.28 
L 181.536315 224.28 
L 181.536315 86.527416 
L 179.652544 86.527416 
z
" style="fill:#1f77b4;"/>
   </g>
   <g id="patch_46">
    <path clip-path="url(#p76cec0fc23)" d="M 182.007258 224.28 
L 183.89103 224.28 
L 183.89103 86.944529 
L 182.007258 86.944529 
z
" style="fill:#1f77b4;"/>
   </g>
   <g id="patch_47">
    <path clip-path="url(#p76cec0fc23)" d="M 184.361973 224.28 
L 186.245744 224.28 
L 186.245744 75.518333 
L 184.361973 75.518333 
z
" style="fill:#1f77b4;"/>
   </g>
   <g id="patch_48">
    <path clip-path="url(#p76cec0fc23)" d="M 186.716687 224.28 
L 188.600458 224.28 
L 188.600458 94.666131 
L 186.716687 94.666131 
z
" style="fill:#1f77b4;"/>
   </g>
   <g id="patch_49">
    <path clip-path="url(#p76cec0fc23)" d="M 189.071401 224.28 
L 190.955172 224.28 
L 190.955172 56.07487 
L 189.071401 56.07487 
z
" style="fill:#1f77b4;"/>
   </g>
   <g id="patch_50">
    <path clip-path="url(#p76cec0fc23)" d="M 191.426115 224.28 
L 193.309887 224.28 
L 193.309887 85.150443 
L 191.426115 85.150443 
z
" style="fill:#1f77b4;"/>
   </g>
   <g id="patch_51">
    <path clip-path="url(#p76cec0fc23)" d="M 193.78083 224.28 
L 195.664601 224.28 
L 195.664601 121.658655 
L 193.78083 121.658655 
z
" style="fill:#1f77b4;"/>
   </g>
   <g id="patch_52">
    <path clip-path="url(#p76cec0fc23)" d="M 196.135544 224.28 
L 198.019315 224.28 
L 198.019315 86.381678 
L 196.135544 86.381678 
z
" style="fill:#1f77b4;"/>
   </g>
   <g id="patch_53">
    <path clip-path="url(#p76cec0fc23)" d="M 198.490258 224.28 
L 200.374029 224.28 
L 200.374029 81.503642 
L 198.490258 81.503642 
z
" style="fill:#1f77b4;"/>
   </g>
   <g id="patch_54">
    <path clip-path="url(#p76cec0fc23)" d="M 200.844972 224.28 
L 202.728744 224.28 
L 202.728744 79.844407 
L 200.844972 79.844407 
z
" style="fill:#1f77b4;"/>
   </g>
   <g id="patch_55">
    <path clip-path="url(#p76cec0fc23)" d="M 203.199687 224.28 
L 205.083458 224.28 
L 205.083458 84.921785 
L 203.199687 84.921785 
z
" style="fill:#1f77b4;"/>
   </g>
   <g id="patch_56">
    <path clip-path="url(#p76cec0fc23)" d="M 205.554401 224.28 
L 207.438172 224.28 
L 207.438172 81.451713 
L 205.554401 81.451713 
z
" style="fill:#1f77b4;"/>
   </g>
   <g id="patch_57">
    <path clip-path="url(#p76cec0fc23)" d="M 207.909115 224.28 
L 209.792886 224.28 
L 209.792886 62.736941 
L 207.909115 62.736941 
z
" style="fill:#1f77b4;"/>
   </g>
   <g id="patch_58">
    <path clip-path="url(#p76cec0fc23)" d="M 210.263829 224.28 
L 212.147601 224.28 
L 212.147601 106.084789 
L 210.263829 106.084789 
z
" style="fill:#1f77b4;"/>
   </g>
   <g id="patch_59">
    <path clip-path="url(#p76cec0fc23)" d="M 212.618544 224.28 
L 214.502315 224.28 
L 214.502315 108.427486 
L 212.618544 108.427486 
z
" style="fill:#1f77b4;"/>
   </g>
   <g id="patch_60">
    <path clip-path="url(#p76cec0fc23)" d="M 214.973258 224.28 
L 216.857029 224.28 
L 216.857029 110.087559 
L 214.973258 110.087559 
z
" style="fill:#1f77b4;"/>
   </g>
   <g id="patch_61">
    <path clip-path="url(#p76cec0fc23)" d="M 217.327972 224.28 
L 219.211743 224.28 
L 219.211743 95.675409 
L 217.327972 95.675409 
z
" style="fill:#1f77b4;"/>
   </g>
   <g id="patch_62">
    <path clip-path="url(#p76cec0fc23)" d="M 219.682686 224.28 
L 221.566458 224.28 
L 221.566458 95.26416 
L 219.682686 95.26416 
z
" style="fill:#1f77b4;"/>
   </g>
   <g id="patch_63">
    <path clip-path="url(#p76cec0fc23)" d="M 222.037401 224.28 
L 223.921172 224.28 
L 223.921172 106.373752 
L 222.037401 106.373752 
z
" style="fill:#1f77b4;"/>
   </g>
   <g id="patch_64">
    <path clip-path="url(#p76cec0fc23)" d="M 224.392115 224.28 
L 226.275886 224.28 
L 226.275886 83.177955 
L 224.392115 83.177955 
z
" style="fill:#1f77b4;"/>
   </g>
   <g id="patch_65">
    <path clip-path="url(#p76cec0fc23)" d="M 226.746829 224.28 
L 228.6306 224.28 
L 228.6306 86.447009 
L 226.746829 86.447009 
z
" style="fill:#1f77b4;"/>
   </g>
   <g id="patch_66">
    <path clip-path="url(#p76cec0fc23)" d="M 229.101543 224.28 
L 230.985315 224.28 
L 230.985315 64.485797 
L 229.101543 64.485797 
z
" style="fill:#1f77b4;"/>
   </g>
   <g id="patch_67">
    <path clip-path="url(#p76cec0fc23)" d="M 231.456258 224.28 
L 233.340029 224.28 
L 233.340029 84.427616 
L 231.456258 84.427616 
z
" style="fill:#1f77b4;"/>
   </g>
   <g id="patch_68">
    <path clip-path="url(#p76cec0fc23)" d="M 233.810972 224.28 
L 235.694743 224.28 
L 235.694743 62.703438 
L 233.810972 62.703438 
z
" style="fill:#1f77b4;"/>
   </g>
   <g id="patch_69">
    <path clip-path="url(#p76cec0fc23)" d="M 236.165686 224.28 
L 238.049457 224.28 
L 238.049457 56.853815 
L 236.165686 56.853815 
z
" style="fill:#1f77b4;"/>
   </g>
   <g id="patch_70">
    <path clip-path="url(#p76cec0fc23)" d="M 238.5204 224.28 
L 240.404172 224.28 
L 240.404172 107.419883 
L 238.5204 107.419883 
z
" style="fill:#1f77b4;"/>
   </g>
   <g id="patch_71">
    <path clip-path="url(#p76cec0fc23)" d="M 240.875115 224.28 
L 242.758886 224.28 
L 242.758886 74.107857 
L 240.875115 74.107857 
z
" style="fill:#1f77b4;"/>
   </g>
   <g id="patch_72">
    <path clip-path="url(#p76cec0fc23)" d="M 243.229829 224.28 
L 245.1136 224.28 
L 245.1136 90.225309 
L 243.229829 90.225309 
z
" style="fill:#1f77b4;"/>
   </g>
   <g id="patch_73">
    <path clip-path="url(#p76cec0fc23)" d="M 245.584543 224.28 
L 247.468314 224.28 
L 247.468314 81.67367 
L 245.584543 81.67367 
z
" style="fill:#1f77b4;"/>
   </g>
   <g id="patch_74">
    <path clip-path="url(#p76cec0fc23)" d="M 247.939257 224.28 
L 249.823029 224.28 
L 249.823029 86.447009 
L 247.939257 86.447009 
z
" style="fill:#1f77b4;"/>
   </g>
   <g id="patch_75">
    <path clip-path="url(#p76cec0fc23)" d="M 250.293972 224.28 
L 252.177743 224.28 
L 252.177743 102.062754 
L 250.293972 102.062754 
z
" style="fill:#1f77b4;"/>
   </g>
   <g id="patch_76">
    <path clip-path="url(#p76cec0fc23)" d="M 252.648686 224.28 
L 254.532457 224.28 
L 254.532457 46.357327 
L 252.648686 46.357327 
z
" style="fill:#1f77b4;"/>
   </g>
   <g id="patch_77">
    <path clip-path="url(#p76cec0fc23)" d="M 255.0034 224.28 
L 256.887171 224.28 
L 256.887171 98.896722 
L 255.0034 98.896722 
z
" style="fill:#1f77b4;"/>
   </g>
   <g id="patch_78">
    <path clip-path="url(#p76cec0fc23)" d="M 257.358114 224.28 
L 259.241886 224.28 
L 259.241886 122.991237 
L 257.358114 122.991237 
z
" style="fill:#1f77b4;"/>
   </g>
   <g id="patch_79">
    <path clip-path="url(#p76cec0fc23)" d="M 259.712829 224.28 
L 261.5966 224.28 
L 261.5966 76.865153 
L 259.712829 76.865153 
z
" style="fill:#1f77b4;"/>
   </g>
   <g id="patch_80">
    <path clip-path="url(#p76cec0fc23)" d="M 262.067543 224.28 
L 263.951314 224.28 
L 263.951314 62.484831 
L 262.067543 62.484831 
z
" style="fill:#1f77b4;"/>
   </g>
   <g id="patch_81">
    <path clip-path="url(#p76cec0fc23)" d="M 264.422257 224.28 
L 266.306028 224.28 
L 266.306028 60.237617 
L 264.422257 60.237617 
z
" style="fill:#1f77b4;"/>
   </g>
   <g id="patch_82">
    <path clip-path="url(#p76cec0fc23)" d="M 266.776971 224.28 
L 268.660743 224.28 
L 268.660743 110.091747 
L 266.776971 110.091747 
z
" style="fill:#1f77b4;"/>
   </g>
   <g id="patch_83">
    <path clip-path="url(#p76cec0fc23)" d="M 269.131686 224.28 
L 271.015457 224.28 
L 271.015457 94.592424 
L 269.131686 94.592424 
z
" style="fill:#1f77b4;"/>
   </g>
   <g id="patch_84">
    <path clip-path="url(#p76cec0fc23)" d="M 271.4864 224.28 
L 273.370171 224.28 
L 273.370171 95.426649 
L 271.4864 95.426649 
z
" style="fill:#1f77b4;"/>
   </g>
   <g id="patch_85">
    <path clip-path="url(#p76cec0fc23)" d="M 273.841114 224.28 
L 275.724885 224.28 
L 275.724885 86.508152 
L 273.841114 86.508152 
z
" style="fill:#1f77b4;"/>
   </g>
   <g id="patch_86">
    <path clip-path="url(#p76cec0fc23)" d="M 276.195828 224.28 
L 278.0796 224.28 
L 278.0796 78.275629 
L 276.195828 78.275629 
z
" style="fill:#1f77b4;"/>
   </g>
   <g id="patch_87">
    <path clip-path="url(#p76cec0fc23)" d="M 278.550543 224.28 
L 280.434314 224.28 
L 280.434314 77.198508 
L 278.550543 77.198508 
z
" style="fill:#1f77b4;"/>
   </g>
   <g id="patch_88">
    <path clip-path="url(#p76cec0fc23)" d="M 280.905257 224.28 
L 282.789028 224.28 
L 282.789028 76.295602 
L 280.905257 76.295602 
z
" style="fill:#1f77b4;"/>
   </g>
   <g id="patch_89">
    <path clip-path="url(#p76cec0fc23)" d="M 283.259971 224.28 
L 285.143742 224.28 
L 285.143742 84.559115 
L 283.259971 84.559115 
z
" style="fill:#1f77b4;"/>
   </g>
   <g id="patch_90">
    <path clip-path="url(#p76cec0fc23)" d="M 285.614685 224.28 
L 287.498457 224.28 
L 287.498457 103.301528 
L 285.614685 103.301528 
z
" style="fill:#1f77b4;"/>
   </g>
   <g id="patch_91">
    <path clip-path="url(#p76cec0fc23)" d="M 287.9694 224.28 
L 289.853171 224.28 
L 289.853171 102.383546 
L 287.9694 102.383546 
z
" style="fill:#1f77b4;"/>
   </g>
   <g id="patch_92">
    <path clip-path="url(#p76cec0fc23)" d="M 290.324114 224.28 
L 292.207885 224.28 
L 292.207885 110.030604 
L 290.324114 110.030604 
z
" style="fill:#1f77b4;"/>
   </g>
   <g id="patch_93">
    <path clip-path="url(#p76cec0fc23)" d="M 292.678828 224.28 
L 294.562599 224.28 
L 294.562599 131.685264 
L 292.678828 131.685264 
z
" style="fill:#1f77b4;"/>
   </g>
   <g id="patch_94">
    <path clip-path="url(#p76cec0fc23)" d="M 295.033542 224.28 
L 296.917314 224.28 
L 296.917314 113.284582 
L 295.033542 113.284582 
z
" style="fill:#1f77b4;"/>
   </g>
   <g id="patch_95">
    <path clip-path="url(#p76cec0fc23)" d="M 297.388257 224.28 
L 299.272028 224.28 
L 299.272028 98.480447 
L 297.388257 98.480447 
z
" style="fill:#1f77b4;"/>
   </g>
   <g id="patch_96">
    <path clip-path="url(#p76cec0fc23)" d="M 299.742971 224.28 
L 301.626742 224.28 
L 301.626742 101.359192 
L 299.742971 101.359192 
z
" style="fill:#1f77b4;"/>
   </g>
   <g id="patch_97">
    <path clip-path="url(#p76cec0fc23)" d="M 302.097685 224.28 
L 303.981456 224.28 
L 303.981456 106.302558 
L 302.097685 106.302558 
z
" style="fill:#1f77b4;"/>
   </g>
   <g id="patch_98">
    <path clip-path="url(#p76cec0fc23)" d="M 304.452399 224.28 
L 306.336171 224.28 
L 306.336171 122.440113 
L 304.452399 122.440113 
z
" style="fill:#1f77b4;"/>
   </g>
   <g id="patch_99">
    <path clip-path="url(#p76cec0fc23)" d="M 306.807114 224.28 
L 308.690885 224.28 
L 308.690885 142.180914 
L 306.807114 142.180914 
z
" style="fill:#1f77b4;"/>
   </g>
   <g id="patch_100">
    <path clip-path="url(#p76cec0fc23)" d="M 309.161828 224.28 
L 311.045599 224.28 
L 311.045599 112.153856 
L 309.161828 112.153856 
z
" style="fill:#1f77b4;"/>
   </g>
   <g id="patch_101">
    <path clip-path="url(#p76cec0fc23)" d="M 311.516542 224.28 
L 313.400313 224.28 
L 313.400313 117.721216 
L 311.516542 117.721216 
z
" style="fill:#1f77b4;"/>
   </g>
   <g id="patch_102">
    <path clip-path="url(#p76cec0fc23)" d="M 313.871256 224.28 
L 315.755028 224.28 
L 315.755028 93.618325 
L 313.871256 93.618325 
z
" style="fill:#1f77b4;"/>
   </g>
   <g id="patch_103">
    <path clip-path="url(#p76cec0fc23)" d="M 316.225971 224.28 
L 318.109742 224.28 
L 318.109742 90.711103 
L 316.225971 90.711103 
z
" style="fill:#1f77b4;"/>
   </g>
   <g id="patch_104">
    <path clip-path="url(#p76cec0fc23)" d="M 318.580685 224.28 
L 320.464456 224.28 
L 320.464456 109.043103 
L 318.580685 109.043103 
z
" style="fill:#1f77b4;"/>
   </g>
   <g id="patch_105">
    <path clip-path="url(#p76cec0fc23)" d="M 320.935399 224.28 
L 322.81917 224.28 
L 322.81917 150.739254 
L 320.935399 150.739254 
z
" style="fill:#1f77b4;"/>
   </g>
   <g id="patch_106">
    <path clip-path="url(#p76cec0fc23)" d="M 323.290113 224.28 
L 325.173885 224.28 
L 325.173885 104.234586 
L 323.290113 104.234586 
z
" style="fill:#1f77b4;"/>
   </g>
   <g id="patch_107">
    <path clip-path="url(#p76cec0fc23)" d="M 325.644828 224.28 
L 327.528599 224.28 
L 327.528599 115.190065 
L 325.644828 115.190065 
z
" style="fill:#1f77b4;"/>
   </g>
   <g id="patch_108">
    <path clip-path="url(#p76cec0fc23)" d="M 327.999542 224.28 
L 329.883313 224.28 
L 329.883313 93.893887 
L 327.999542 93.893887 
z
" style="fill:#1f77b4;"/>
   </g>
   <g id="patch_109">
    <path clip-path="url(#p76cec0fc23)" d="M 330.354256 224.28 
L 332.238027 224.28 
L 332.238027 85.266029 
L 330.354256 85.266029 
z
" style="fill:#1f77b4;"/>
   </g>
   <g id="patch_110">
    <path clip-path="url(#p76cec0fc23)" d="M 332.70897 224.28 
L 334.592742 224.28 
L 334.592742 96.602604 
L 332.70897 96.602604 
z
" style="fill:#1f77b4;"/>
   </g>
   <g id="patch_111">
    <path clip-path="url(#p76cec0fc23)" d="M 335.063685 224.28 
L 336.947456 224.28 
L 336.947456 106.12583 
L 335.063685 106.12583 
z
" style="fill:#1f77b4;"/>
   </g>
   <g id="patch_112">
    <path clip-path="url(#p76cec0fc23)" d="M 337.418399 224.28 
L 339.30217 224.28 
L 339.30217 98.60022 
L 337.418399 98.60022 
z
" style="fill:#1f77b4;"/>
   </g>
   <g id="patch_113">
    <path clip-path="url(#p76cec0fc23)" d="M 339.773113 224.28 
L 341.656884 224.28 
L 341.656884 106.272406 
L 339.773113 106.272406 
z
" style="fill:#1f77b4;"/>
   </g>
   <g id="patch_114">
    <path clip-path="url(#p76cec0fc23)" d="M 342.127827 224.28 
L 344.011599 224.28 
L 344.011599 120.475162 
L 342.127827 120.475162 
z
" style="fill:#1f77b4;"/>
   </g>
   <g id="patch_115">
    <path clip-path="url(#p76cec0fc23)" d="M 344.482542 224.28 
L 346.366313 224.28 
L 346.366313 104.414665 
L 344.482542 104.414665 
z
" style="fill:#1f77b4;"/>
   </g>
   <g id="patch_116">
    <path clip-path="url(#p76cec0fc23)" d="M 346.837256 224.28 
L 348.721027 224.28 
L 348.721027 102.408673 
L 346.837256 102.408673 
z
" style="fill:#1f77b4;"/>
   </g>
   <g id="patch_117">
    <path clip-path="url(#p76cec0fc23)" d="M 349.19197 224.28 
L 351.075741 224.28 
L 351.075741 90.182593 
L 349.19197 90.182593 
z
" style="fill:#1f77b4;"/>
   </g>
   <g id="patch_118">
    <path clip-path="url(#p76cec0fc23)" d="M 351.546684 224.28 
L 353.430456 224.28 
L 353.430456 113.990658 
L 351.546684 113.990658 
z
" style="fill:#1f77b4;"/>
   </g>
   <g id="patch_119">
    <path clip-path="url(#p76cec0fc23)" d="M 353.901399 224.28 
L 355.78517 224.28 
L 355.78517 74.417759 
L 353.901399 74.417759 
z
" style="fill:#1f77b4;"/>
   </g>
   <g id="patch_120">
    <path clip-path="url(#p76cec0fc23)" d="M 356.256113 224.28 
L 358.139884 224.28 
L 358.139884 88.506606 
L 356.256113 88.506606 
z
" style="fill:#1f77b4;"/>
   </g>
   <g id="patch_121">
    <path clip-path="url(#p76cec0fc23)" d="M 358.610827 224.28 
L 360.494599 224.28 
L 360.494599 91.075448 
L 358.610827 91.075448 
z
" style="fill:#1f77b4;"/>
   </g>
   <g id="patch_122">
    <path clip-path="url(#p76cec0fc23)" d="M 360.965541 224.28 
L 362.849313 224.28 
L 362.849313 93.575609 
L 360.965541 93.575609 
z
" style="fill:#1f77b4;"/>
   </g>
   <g id="patch_123">
    <path clip-path="url(#p76cec0fc23)" d="M 363.320256 224.28 
L 365.204027 224.28 
L 365.204027 87.646416 
L 363.320256 87.646416 
z
" style="fill:#1f77b4;"/>
   </g>
   <g id="patch_124">
    <path clip-path="url(#p76cec0fc23)" d="M 365.67497 224.28 
L 367.558741 224.28 
L 367.558741 90.345082 
L 365.67497 90.345082 
z
" style="fill:#1f77b4;"/>
   </g>
   <g id="patch_125">
    <path clip-path="url(#p76cec0fc23)" d="M 368.029684 224.28 
L 369.913456 224.28 
L 369.913456 77.84344 
L 368.029684 77.84344 
z
" style="fill:#1f77b4;"/>
   </g>
   <g id="patch_126">
    <path clip-path="url(#p76cec0fc23)" d="M 370.384398 224.28 
L 372.26817 224.28 
L 372.26817 85.150443 
L 370.384398 85.150443 
z
" style="fill:#1f77b4;"/>
   </g>
   <g id="patch_127">
    <path clip-path="url(#p76cec0fc23)" d="M 372.739113 224.28 
L 374.622884 224.28 
L 374.622884 76.643196 
L 372.739113 76.643196 
z
" style="fill:#1f77b4;"/>
   </g>
   <g id="patch_128">
    <path clip-path="url(#p76cec0fc23)" d="M 375.093827 224.28 
L 376.977598 224.28 
L 376.977598 94.378005 
L 375.093827 94.378005 
z
" style="fill:#1f77b4;"/>
   </g>
   <g id="patch_129">
    <path clip-path="url(#p76cec0fc23)" d="M 377.448541 224.28 
L 379.332313 224.28 
L 379.332313 105.580569 
L 377.448541 105.580569 
z
" style="fill:#1f77b4;"/>
   </g>
   <g id="patch_130">
    <path clip-path="url(#p76cec0fc23)" d="M 379.803255 224.28 
L 381.687027 224.28 
L 381.687027 95.791832 
L 379.803255 95.791832 
z
" style="fill:#1f77b4;"/>
   </g>
   <g id="patch_131">
    <path clip-path="url(#p76cec0fc23)" d="M 382.15797 224.28 
L 384.041741 224.28 
L 384.041741 89.663297 
L 382.15797 89.663297 
z
" style="fill:#1f77b4;"/>
   </g>
   <g id="patch_132">
    <path clip-path="url(#p76cec0fc23)" d="M 384.512684 224.28 
L 386.396455 224.28 
L 386.396455 104.349334 
L 384.512684 104.349334 
z
" style="fill:#1f77b4;"/>
   </g>
   <g id="patch_133">
    <path clip-path="url(#p76cec0fc23)" d="M 386.867398 224.28 
L 388.75117 224.28 
L 388.75117 96.107597 
L 386.867398 96.107597 
z
" style="fill:#1f77b4;"/>
   </g>
   <g id="patch_134">
    <path clip-path="url(#p76cec0fc23)" d="M 389.222112 224.28 
L 391.105884 224.28 
L 391.105884 106.099028 
L 389.222112 106.099028 
z
" style="fill:#1f77b4;"/>
   </g>
   <g id="patch_135">
    <path clip-path="url(#p76cec0fc23)" d="M 391.576827 224.28 
L 393.460598 224.28 
L 393.460598 120.292571 
L 391.576827 120.292571 
z
" style="fill:#1f77b4;"/>
   </g>
   <g id="patch_136">
    <path clip-path="url(#p76cec0fc23)" d="M 393.931541 224.28 
L 395.815312 224.28 
L 395.815312 126.880935 
L 393.931541 126.880935 
z
" style="fill:#1f77b4;"/>
   </g>
   <g id="patch_137">
    <path clip-path="url(#p76cec0fc23)" d="M 396.286255 224.28 
L 398.170027 224.28 
L 398.170027 103.669223 
L 396.286255 103.669223 
z
" style="fill:#1f77b4;"/>
   </g>
   <g id="patch_138">
    <path clip-path="url(#p76cec0fc23)" d="M 398.640969 224.28 
L 400.524741 224.28 
L 400.524741 123.734166 
L 398.640969 123.734166 
z
" style="fill:#1f77b4;"/>
   </g>
   <g id="patch_139">
    <path clip-path="url(#p76cec0fc23)" d="M 400.995684 224.28 
L 402.879455 224.28 
L 402.879455 112.118678 
L 400.995684 112.118678 
z
" style="fill:#1f77b4;"/>
   </g>
   <g id="patch_140">
    <path clip-path="url(#p76cec0fc23)" d="M 403.350398 224.28 
L 405.234169 224.28 
L 405.234169 114.176599 
L 403.350398 114.176599 
z
" style="fill:#1f77b4;"/>
   </g>
   <g id="patch_141">
    <path clip-path="url(#p76cec0fc23)" d="M 405.705112 224.28 
L 407.588884 224.28 
L 407.588884 93.251467 
L 405.705112 93.251467 
z
" style="fill:#1f77b4;"/>
   </g>
   <g id="patch_142">
    <path clip-path="url(#p76cec0fc23)" d="M 408.059826 224.28 
L 409.943598 224.28 
L 409.943598 128.970684 
L 408.059826 128.970684 
z
" style="fill:#1f77b4;"/>
   </g>
   <g id="patch_143">
    <path clip-path="url(#p76cec0fc23)" d="M 410.414541 224.28 
L 412.298312 224.28 
L 412.298312 115.480703 
L 410.414541 115.480703 
z
" style="fill:#1f77b4;"/>
   </g>
   <g id="patch_144">
    <path clip-path="url(#p76cec0fc23)" d="M 412.769255 224.28 
L 414.653026 224.28 
L 414.653026 132.197022 
L 412.769255 132.197022 
z
" style="fill:#1f77b4;"/>
   </g>
   <g id="patch_145">
    <path clip-path="url(#p76cec0fc23)" d="M 415.123969 224.28 
L 417.007741 224.28 
L 417.007741 142.128985 
L 415.123969 142.128985 
z
" style="fill:#1f77b4;"/>
   </g>
   <g id="patch_146">
    <path clip-path="url(#p76cec0fc23)" d="M 417.478683 224.28 
L 419.362455 224.28 
L 419.362455 95.043877 
L 417.478683 95.043877 
z
" style="fill:#1f77b4;"/>
   </g>
   <g id="patch_147">
    <path clip-path="url(#p76cec0fc23)" d="M 419.833398 224.28 
L 421.717169 224.28 
L 421.717169 104.19857 
L 419.833398 104.19857 
z
" style="fill:#1f77b4;"/>
   </g>
   <g id="patch_148">
    <path clip-path="url(#p76cec0fc23)" d="M 422.188112 224.28 
L 424.071883 224.28 
L 424.071883 93.62 
L 422.188112 93.62 
z
" style="fill:#1f77b4;"/>
   </g>
   <g id="patch_149">
    <path clip-path="url(#p76cec0fc23)" d="M 424.542826 224.28 
L 426.426598 224.28 
L 426.426598 95.193803 
L 424.542826 95.193803 
z
" style="fill:#1f77b4;"/>
   </g>
   <g id="patch_150">
    <path clip-path="url(#p76cec0fc23)" d="M 426.89754 224.28 
L 428.781312 224.28 
L 428.781312 119.304233 
L 426.89754 119.304233 
z
" style="fill:#1f77b4;"/>
   </g>
   <g id="patch_151">
    <path clip-path="url(#p76cec0fc23)" d="M 429.252255 224.28 
L 431.136026 224.28 
L 431.136026 133.32356 
L 429.252255 133.32356 
z
" style="fill:#1f77b4;"/>
   </g>
   <g id="patch_152">
    <path clip-path="url(#p76cec0fc23)" d="M 431.606969 224.28 
L 433.49074 224.28 
L 433.49074 86.111979 
L 431.606969 86.111979 
z
" style="fill:#1f77b4;"/>
   </g>
   <g id="patch_153">
    <path clip-path="url(#p76cec0fc23)" d="M 433.961683 224.28 
L 435.845455 224.28 
L 435.845455 83.03808 
L 433.961683 83.03808 
z
" style="fill:#1f77b4;"/>
   </g>
   <g id="matplotlib.axis_1">
    <g id="xtick_1">
     <g id="line2d_1">
      <defs>
       <path d="M 0 0 
L 0 3.5 
" id="m541583265b" style="stroke:#000000;stroke-width:0.8;"/>
      </defs>
      <g>
       <use style="stroke:#000000;stroke-width:0.8;" x="79.341717" xlink:href="#m541583265b" y="224.28"/>
      </g>
     </g>
     <g id="text_1">
      <!-- 0 -->
      <defs>
       <path d="M 31.78125 66.40625 
Q 24.171875 66.40625 20.328125 58.90625 
Q 16.5 51.421875 16.5 36.375 
Q 16.5 21.390625 20.328125 13.890625 
Q 24.171875 6.390625 31.78125 6.390625 
Q 39.453125 6.390625 43.28125 13.890625 
Q 47.125 21.390625 47.125 36.375 
Q 47.125 51.421875 43.28125 58.90625 
Q 39.453125 66.40625 31.78125 66.40625 
z
M 31.78125 74.21875 
Q 44.046875 74.21875 50.515625 64.515625 
Q 56.984375 54.828125 56.984375 36.375 
Q 56.984375 17.96875 50.515625 8.265625 
Q 44.046875 -1.421875 31.78125 -1.421875 
Q 19.53125 -1.421875 13.0625 8.265625 
Q 6.59375 17.96875 6.59375 36.375 
Q 6.59375 54.828125 13.0625 64.515625 
Q 19.53125 74.21875 31.78125 74.21875 
z
" id="DejaVuSans-30"/>
      </defs>
      <g transform="translate(76.160467 238.878438)scale(0.1 -0.1)">
       <use xlink:href="#DejaVuSans-30"/>
      </g>
     </g>
    </g>
    <g id="xtick_2">
     <g id="line2d_2">
      <g>
       <use style="stroke:#000000;stroke-width:0.8;" x="126.436002" xlink:href="#m541583265b" y="224.28"/>
      </g>
     </g>
     <g id="text_2">
      <!-- 20 -->
      <defs>
       <path d="M 19.1875 8.296875 
L 53.609375 8.296875 
L 53.609375 0 
L 7.328125 0 
L 7.328125 8.296875 
Q 12.9375 14.109375 22.625 23.890625 
Q 32.328125 33.6875 34.8125 36.53125 
Q 39.546875 41.84375 41.421875 45.53125 
Q 43.3125 49.21875 43.3125 52.78125 
Q 43.3125 58.59375 39.234375 62.25 
Q 35.15625 65.921875 28.609375 65.921875 
Q 23.96875 65.921875 18.8125 64.3125 
Q 13.671875 62.703125 7.8125 59.421875 
L 7.8125 69.390625 
Q 13.765625 71.78125 18.9375 73 
Q 24.125 74.21875 28.421875 74.21875 
Q 39.75 74.21875 46.484375 68.546875 
Q 53.21875 62.890625 53.21875 53.421875 
Q 53.21875 48.921875 51.53125 44.890625 
Q 49.859375 40.875 45.40625 35.40625 
Q 44.1875 33.984375 37.640625 27.21875 
Q 31.109375 20.453125 19.1875 8.296875 
z
" id="DejaVuSans-32"/>
      </defs>
      <g transform="translate(120.073502 238.878438)scale(0.1 -0.1)">
       <use xlink:href="#DejaVuSans-32"/>
       <use x="63.623047" xlink:href="#DejaVuSans-30"/>
      </g>
     </g>
    </g>
    <g id="xtick_3">
     <g id="line2d_3">
      <g>
       <use style="stroke:#000000;stroke-width:0.8;" x="173.530287" xlink:href="#m541583265b" y="224.28"/>
      </g>
     </g>
     <g id="text_3">
      <!-- 40 -->
      <defs>
       <path d="M 37.796875 64.3125 
L 12.890625 25.390625 
L 37.796875 25.390625 
z
M 35.203125 72.90625 
L 47.609375 72.90625 
L 47.609375 25.390625 
L 58.015625 25.390625 
L 58.015625 17.1875 
L 47.609375 17.1875 
L 47.609375 0 
L 37.796875 0 
L 37.796875 17.1875 
L 4.890625 17.1875 
L 4.890625 26.703125 
z
" id="DejaVuSans-34"/>
      </defs>
      <g transform="translate(167.167787 238.878438)scale(0.1 -0.1)">
       <use xlink:href="#DejaVuSans-34"/>
       <use x="63.623047" xlink:href="#DejaVuSans-30"/>
      </g>
     </g>
    </g>
    <g id="xtick_4">
     <g id="line2d_4">
      <g>
       <use style="stroke:#000000;stroke-width:0.8;" x="220.624572" xlink:href="#m541583265b" y="224.28"/>
      </g>
     </g>
     <g id="text_4">
      <!-- 60 -->
      <defs>
       <path d="M 33.015625 40.375 
Q 26.375 40.375 22.484375 35.828125 
Q 18.609375 31.296875 18.609375 23.390625 
Q 18.609375 15.53125 22.484375 10.953125 
Q 26.375 6.390625 33.015625 6.390625 
Q 39.65625 6.390625 43.53125 10.953125 
Q 47.40625 15.53125 47.40625 23.390625 
Q 47.40625 31.296875 43.53125 35.828125 
Q 39.65625 40.375 33.015625 40.375 
z
M 52.59375 71.296875 
L 52.59375 62.3125 
Q 48.875 64.0625 45.09375 64.984375 
Q 41.3125 65.921875 37.59375 65.921875 
Q 27.828125 65.921875 22.671875 59.328125 
Q 17.53125 52.734375 16.796875 39.40625 
Q 19.671875 43.65625 24.015625 45.921875 
Q 28.375 48.1875 33.59375 48.1875 
Q 44.578125 48.1875 50.953125 41.515625 
Q 57.328125 34.859375 57.328125 23.390625 
Q 57.328125 12.15625 50.6875 5.359375 
Q 44.046875 -1.421875 33.015625 -1.421875 
Q 20.359375 -1.421875 13.671875 8.265625 
Q 6.984375 17.96875 6.984375 36.375 
Q 6.984375 53.65625 15.1875 63.9375 
Q 23.390625 74.21875 37.203125 74.21875 
Q 40.921875 74.21875 44.703125 73.484375 
Q 48.484375 72.75 52.59375 71.296875 
z
" id="DejaVuSans-36"/>
      </defs>
      <g transform="translate(214.262072 238.878438)scale(0.1 -0.1)">
       <use xlink:href="#DejaVuSans-36"/>
       <use x="63.623047" xlink:href="#DejaVuSans-30"/>
      </g>
     </g>
    </g>
    <g id="xtick_5">
     <g id="line2d_5">
      <g>
       <use style="stroke:#000000;stroke-width:0.8;" x="267.718857" xlink:href="#m541583265b" y="224.28"/>
      </g>
     </g>
     <g id="text_5">
      <!-- 80 -->
      <defs>
       <path d="M 31.78125 34.625 
Q 24.75 34.625 20.71875 30.859375 
Q 16.703125 27.09375 16.703125 20.515625 
Q 16.703125 13.921875 20.71875 10.15625 
Q 24.75 6.390625 31.78125 6.390625 
Q 38.8125 6.390625 42.859375 10.171875 
Q 46.921875 13.96875 46.921875 20.515625 
Q 46.921875 27.09375 42.890625 30.859375 
Q 38.875 34.625 31.78125 34.625 
z
M 21.921875 38.8125 
Q 15.578125 40.375 12.03125 44.71875 
Q 8.5 49.078125 8.5 55.328125 
Q 8.5 64.0625 14.71875 69.140625 
Q 20.953125 74.21875 31.78125 74.21875 
Q 42.671875 74.21875 48.875 69.140625 
Q 55.078125 64.0625 55.078125 55.328125 
Q 55.078125 49.078125 51.53125 44.71875 
Q 48 40.375 41.703125 38.8125 
Q 48.828125 37.15625 52.796875 32.3125 
Q 56.78125 27.484375 56.78125 20.515625 
Q 56.78125 9.90625 50.3125 4.234375 
Q 43.84375 -1.421875 31.78125 -1.421875 
Q 19.734375 -1.421875 13.25 4.234375 
Q 6.78125 9.90625 6.78125 20.515625 
Q 6.78125 27.484375 10.78125 32.3125 
Q 14.796875 37.15625 21.921875 38.8125 
z
M 18.3125 54.390625 
Q 18.3125 48.734375 21.84375 45.5625 
Q 25.390625 42.390625 31.78125 42.390625 
Q 38.140625 42.390625 41.71875 45.5625 
Q 45.3125 48.734375 45.3125 54.390625 
Q 45.3125 60.0625 41.71875 63.234375 
Q 38.140625 66.40625 31.78125 66.40625 
Q 25.390625 66.40625 21.84375 63.234375 
Q 18.3125 60.0625 18.3125 54.390625 
z
" id="DejaVuSans-38"/>
      </defs>
      <g transform="translate(261.356357 238.878438)scale(0.1 -0.1)">
       <use xlink:href="#DejaVuSans-38"/>
       <use x="63.623047" xlink:href="#DejaVuSans-30"/>
      </g>
     </g>
    </g>
    <g id="xtick_6">
     <g id="line2d_6">
      <g>
       <use style="stroke:#000000;stroke-width:0.8;" x="314.813142" xlink:href="#m541583265b" y="224.28"/>
      </g>
     </g>
     <g id="text_6">
      <!-- 100 -->
      <defs>
       <path d="M 12.40625 8.296875 
L 28.515625 8.296875 
L 28.515625 63.921875 
L 10.984375 60.40625 
L 10.984375 69.390625 
L 28.421875 72.90625 
L 38.28125 72.90625 
L 38.28125 8.296875 
L 54.390625 8.296875 
L 54.390625 0 
L 12.40625 0 
z
" id="DejaVuSans-31"/>
      </defs>
      <g transform="translate(305.269392 238.878438)scale(0.1 -0.1)">
       <use xlink:href="#DejaVuSans-31"/>
       <use x="63.623047" xlink:href="#DejaVuSans-30"/>
       <use x="127.246094" xlink:href="#DejaVuSans-30"/>
      </g>
     </g>
    </g>
    <g id="xtick_7">
     <g id="line2d_7">
      <g>
       <use style="stroke:#000000;stroke-width:0.8;" x="361.907427" xlink:href="#m541583265b" y="224.28"/>
      </g>
     </g>
     <g id="text_7">
      <!-- 120 -->
      <g transform="translate(352.363677 238.878438)scale(0.1 -0.1)">
       <use xlink:href="#DejaVuSans-31"/>
       <use x="63.623047" xlink:href="#DejaVuSans-32"/>
       <use x="127.246094" xlink:href="#DejaVuSans-30"/>
      </g>
     </g>
    </g>
    <g id="xtick_8">
     <g id="line2d_8">
      <g>
       <use style="stroke:#000000;stroke-width:0.8;" x="409.001712" xlink:href="#m541583265b" y="224.28"/>
      </g>
     </g>
     <g id="text_8">
      <!-- 140 -->
      <g transform="translate(399.457962 238.878438)scale(0.1 -0.1)">
       <use xlink:href="#DejaVuSans-31"/>
       <use x="63.623047" xlink:href="#DejaVuSans-34"/>
       <use x="127.246094" xlink:href="#DejaVuSans-30"/>
      </g>
     </g>
    </g>
    <g id="text_9">
     <!-- number of chunk (from beginning to end) -->
     <defs>
      <path d="M 54.890625 33.015625 
L 54.890625 0 
L 45.90625 0 
L 45.90625 32.71875 
Q 45.90625 40.484375 42.875 44.328125 
Q 39.84375 48.1875 33.796875 48.1875 
Q 26.515625 48.1875 22.3125 43.546875 
Q 18.109375 38.921875 18.109375 30.90625 
L 18.109375 0 
L 9.078125 0 
L 9.078125 54.6875 
L 18.109375 54.6875 
L 18.109375 46.1875 
Q 21.34375 51.125 25.703125 53.5625 
Q 30.078125 56 35.796875 56 
Q 45.21875 56 50.046875 50.171875 
Q 54.890625 44.34375 54.890625 33.015625 
z
" id="DejaVuSans-6e"/>
      <path d="M 8.5 21.578125 
L 8.5 54.6875 
L 17.484375 54.6875 
L 17.484375 21.921875 
Q 17.484375 14.15625 20.5 10.265625 
Q 23.53125 6.390625 29.59375 6.390625 
Q 36.859375 6.390625 41.078125 11.03125 
Q 45.3125 15.671875 45.3125 23.6875 
L 45.3125 54.6875 
L 54.296875 54.6875 
L 54.296875 0 
L 45.3125 0 
L 45.3125 8.40625 
Q 42.046875 3.421875 37.71875 1 
Q 33.40625 -1.421875 27.6875 -1.421875 
Q 18.265625 -1.421875 13.375 4.4375 
Q 8.5 10.296875 8.5 21.578125 
z
M 31.109375 56 
z
" id="DejaVuSans-75"/>
      <path d="M 52 44.1875 
Q 55.375 50.25 60.0625 53.125 
Q 64.75 56 71.09375 56 
Q 79.640625 56 84.28125 50.015625 
Q 88.921875 44.046875 88.921875 33.015625 
L 88.921875 0 
L 79.890625 0 
L 79.890625 32.71875 
Q 79.890625 40.578125 77.09375 44.375 
Q 74.3125 48.1875 68.609375 48.1875 
Q 61.625 48.1875 57.5625 43.546875 
Q 53.515625 38.921875 53.515625 30.90625 
L 53.515625 0 
L 44.484375 0 
L 44.484375 32.71875 
Q 44.484375 40.625 41.703125 44.40625 
Q 38.921875 48.1875 33.109375 48.1875 
Q 26.21875 48.1875 22.15625 43.53125 
Q 18.109375 38.875 18.109375 30.90625 
L 18.109375 0 
L 9.078125 0 
L 9.078125 54.6875 
L 18.109375 54.6875 
L 18.109375 46.1875 
Q 21.1875 51.21875 25.484375 53.609375 
Q 29.78125 56 35.6875 56 
Q 41.65625 56 45.828125 52.96875 
Q 50 49.953125 52 44.1875 
z
" id="DejaVuSans-6d"/>
      <path d="M 48.6875 27.296875 
Q 48.6875 37.203125 44.609375 42.84375 
Q 40.53125 48.484375 33.40625 48.484375 
Q 26.265625 48.484375 22.1875 42.84375 
Q 18.109375 37.203125 18.109375 27.296875 
Q 18.109375 17.390625 22.1875 11.75 
Q 26.265625 6.109375 33.40625 6.109375 
Q 40.53125 6.109375 44.609375 11.75 
Q 48.6875 17.390625 48.6875 27.296875 
z
M 18.109375 46.390625 
Q 20.953125 51.265625 25.265625 53.625 
Q 29.59375 56 35.59375 56 
Q 45.5625 56 51.78125 48.09375 
Q 58.015625 40.1875 58.015625 27.296875 
Q 58.015625 14.40625 51.78125 6.484375 
Q 45.5625 -1.421875 35.59375 -1.421875 
Q 29.59375 -1.421875 25.265625 0.953125 
Q 20.953125 3.328125 18.109375 8.203125 
L 18.109375 0 
L 9.078125 0 
L 9.078125 75.984375 
L 18.109375 75.984375 
z
" id="DejaVuSans-62"/>
      <path d="M 56.203125 29.59375 
L 56.203125 25.203125 
L 14.890625 25.203125 
Q 15.484375 15.921875 20.484375 11.0625 
Q 25.484375 6.203125 34.421875 6.203125 
Q 39.59375 6.203125 44.453125 7.46875 
Q 49.3125 8.734375 54.109375 11.28125 
L 54.109375 2.78125 
Q 49.265625 0.734375 44.1875 -0.34375 
Q 39.109375 -1.421875 33.890625 -1.421875 
Q 20.796875 -1.421875 13.15625 6.1875 
Q 5.515625 13.8125 5.515625 26.8125 
Q 5.515625 40.234375 12.765625 48.109375 
Q 20.015625 56 32.328125 56 
Q 43.359375 56 49.78125 48.890625 
Q 56.203125 41.796875 56.203125 29.59375 
z
M 47.21875 32.234375 
Q 47.125 39.59375 43.09375 43.984375 
Q 39.0625 48.390625 32.421875 48.390625 
Q 24.90625 48.390625 20.390625 44.140625 
Q 15.875 39.890625 15.1875 32.171875 
z
" id="DejaVuSans-65"/>
      <path d="M 41.109375 46.296875 
Q 39.59375 47.171875 37.8125 47.578125 
Q 36.03125 48 33.890625 48 
Q 26.265625 48 22.1875 43.046875 
Q 18.109375 38.09375 18.109375 28.8125 
L 18.109375 0 
L 9.078125 0 
L 9.078125 54.6875 
L 18.109375 54.6875 
L 18.109375 46.1875 
Q 20.953125 51.171875 25.484375 53.578125 
Q 30.03125 56 36.53125 56 
Q 37.453125 56 38.578125 55.875 
Q 39.703125 55.765625 41.0625 55.515625 
z
" id="DejaVuSans-72"/>
      <path id="DejaVuSans-20"/>
      <path d="M 30.609375 48.390625 
Q 23.390625 48.390625 19.1875 42.75 
Q 14.984375 37.109375 14.984375 27.296875 
Q 14.984375 17.484375 19.15625 11.84375 
Q 23.34375 6.203125 30.609375 6.203125 
Q 37.796875 6.203125 41.984375 11.859375 
Q 46.1875 17.53125 46.1875 27.296875 
Q 46.1875 37.015625 41.984375 42.703125 
Q 37.796875 48.390625 30.609375 48.390625 
z
M 30.609375 56 
Q 42.328125 56 49.015625 48.375 
Q 55.71875 40.765625 55.71875 27.296875 
Q 55.71875 13.875 49.015625 6.21875 
Q 42.328125 -1.421875 30.609375 -1.421875 
Q 18.84375 -1.421875 12.171875 6.21875 
Q 5.515625 13.875 5.515625 27.296875 
Q 5.515625 40.765625 12.171875 48.375 
Q 18.84375 56 30.609375 56 
z
" id="DejaVuSans-6f"/>
      <path d="M 37.109375 75.984375 
L 37.109375 68.5 
L 28.515625 68.5 
Q 23.6875 68.5 21.796875 66.546875 
Q 19.921875 64.59375 19.921875 59.515625 
L 19.921875 54.6875 
L 34.71875 54.6875 
L 34.71875 47.703125 
L 19.921875 47.703125 
L 19.921875 0 
L 10.890625 0 
L 10.890625 47.703125 
L 2.296875 47.703125 
L 2.296875 54.6875 
L 10.890625 54.6875 
L 10.890625 58.5 
Q 10.890625 67.625 15.140625 71.796875 
Q 19.390625 75.984375 28.609375 75.984375 
z
" id="DejaVuSans-66"/>
      <path d="M 48.78125 52.59375 
L 48.78125 44.1875 
Q 44.96875 46.296875 41.140625 47.34375 
Q 37.3125 48.390625 33.40625 48.390625 
Q 24.65625 48.390625 19.8125 42.84375 
Q 14.984375 37.3125 14.984375 27.296875 
Q 14.984375 17.28125 19.8125 11.734375 
Q 24.65625 6.203125 33.40625 6.203125 
Q 37.3125 6.203125 41.140625 7.25 
Q 44.96875 8.296875 48.78125 10.40625 
L 48.78125 2.09375 
Q 45.015625 0.34375 40.984375 -0.53125 
Q 36.96875 -1.421875 32.421875 -1.421875 
Q 20.0625 -1.421875 12.78125 6.34375 
Q 5.515625 14.109375 5.515625 27.296875 
Q 5.515625 40.671875 12.859375 48.328125 
Q 20.21875 56 33.015625 56 
Q 37.15625 56 41.109375 55.140625 
Q 45.0625 54.296875 48.78125 52.59375 
z
" id="DejaVuSans-63"/>
      <path d="M 54.890625 33.015625 
L 54.890625 0 
L 45.90625 0 
L 45.90625 32.71875 
Q 45.90625 40.484375 42.875 44.328125 
Q 39.84375 48.1875 33.796875 48.1875 
Q 26.515625 48.1875 22.3125 43.546875 
Q 18.109375 38.921875 18.109375 30.90625 
L 18.109375 0 
L 9.078125 0 
L 9.078125 75.984375 
L 18.109375 75.984375 
L 18.109375 46.1875 
Q 21.34375 51.125 25.703125 53.5625 
Q 30.078125 56 35.796875 56 
Q 45.21875 56 50.046875 50.171875 
Q 54.890625 44.34375 54.890625 33.015625 
z
" id="DejaVuSans-68"/>
      <path d="M 9.078125 75.984375 
L 18.109375 75.984375 
L 18.109375 31.109375 
L 44.921875 54.6875 
L 56.390625 54.6875 
L 27.390625 29.109375 
L 57.625 0 
L 45.90625 0 
L 18.109375 26.703125 
L 18.109375 0 
L 9.078125 0 
z
" id="DejaVuSans-6b"/>
      <path d="M 31 75.875 
Q 24.46875 64.65625 21.28125 53.65625 
Q 18.109375 42.671875 18.109375 31.390625 
Q 18.109375 20.125 21.3125 9.0625 
Q 24.515625 -2 31 -13.1875 
L 23.1875 -13.1875 
Q 15.875 -1.703125 12.234375 9.375 
Q 8.59375 20.453125 8.59375 31.390625 
Q 8.59375 42.28125 12.203125 53.3125 
Q 15.828125 64.359375 23.1875 75.875 
z
" id="DejaVuSans-28"/>
      <path d="M 45.40625 27.984375 
Q 45.40625 37.75 41.375 43.109375 
Q 37.359375 48.484375 30.078125 48.484375 
Q 22.859375 48.484375 18.828125 43.109375 
Q 14.796875 37.75 14.796875 27.984375 
Q 14.796875 18.265625 18.828125 12.890625 
Q 22.859375 7.515625 30.078125 7.515625 
Q 37.359375 7.515625 41.375 12.890625 
Q 45.40625 18.265625 45.40625 27.984375 
z
M 54.390625 6.78125 
Q 54.390625 -7.171875 48.1875 -13.984375 
Q 42 -20.796875 29.203125 -20.796875 
Q 24.46875 -20.796875 20.265625 -20.09375 
Q 16.0625 -19.390625 12.109375 -17.921875 
L 12.109375 -9.1875 
Q 16.0625 -11.328125 19.921875 -12.34375 
Q 23.78125 -13.375 27.78125 -13.375 
Q 36.625 -13.375 41.015625 -8.765625 
Q 45.40625 -4.15625 45.40625 5.171875 
L 45.40625 9.625 
Q 42.625 4.78125 38.28125 2.390625 
Q 33.9375 0 27.875 0 
Q 17.828125 0 11.671875 7.65625 
Q 5.515625 15.328125 5.515625 27.984375 
Q 5.515625 40.671875 11.671875 48.328125 
Q 17.828125 56 27.875 56 
Q 33.9375 56 38.28125 53.609375 
Q 42.625 51.21875 45.40625 46.390625 
L 45.40625 54.6875 
L 54.390625 54.6875 
z
" id="DejaVuSans-67"/>
      <path d="M 9.421875 54.6875 
L 18.40625 54.6875 
L 18.40625 0 
L 9.421875 0 
z
M 9.421875 75.984375 
L 18.40625 75.984375 
L 18.40625 64.59375 
L 9.421875 64.59375 
z
" id="DejaVuSans-69"/>
      <path d="M 18.3125 70.21875 
L 18.3125 54.6875 
L 36.8125 54.6875 
L 36.8125 47.703125 
L 18.3125 47.703125 
L 18.3125 18.015625 
Q 18.3125 11.328125 20.140625 9.421875 
Q 21.96875 7.515625 27.59375 7.515625 
L 36.8125 7.515625 
L 36.8125 0 
L 27.59375 0 
Q 17.1875 0 13.234375 3.875 
Q 9.28125 7.765625 9.28125 18.015625 
L 9.28125 47.703125 
L 2.6875 47.703125 
L 2.6875 54.6875 
L 9.28125 54.6875 
L 9.28125 70.21875 
z
" id="DejaVuSans-74"/>
      <path d="M 45.40625 46.390625 
L 45.40625 75.984375 
L 54.390625 75.984375 
L 54.390625 0 
L 45.40625 0 
L 45.40625 8.203125 
Q 42.578125 3.328125 38.25 0.953125 
Q 33.9375 -1.421875 27.875 -1.421875 
Q 17.96875 -1.421875 11.734375 6.484375 
Q 5.515625 14.40625 5.515625 27.296875 
Q 5.515625 40.1875 11.734375 48.09375 
Q 17.96875 56 27.875 56 
Q 33.9375 56 38.25 53.625 
Q 42.578125 51.265625 45.40625 46.390625 
z
M 14.796875 27.296875 
Q 14.796875 17.390625 18.875 11.75 
Q 22.953125 6.109375 30.078125 6.109375 
Q 37.203125 6.109375 41.296875 11.75 
Q 45.40625 17.390625 45.40625 27.296875 
Q 45.40625 37.203125 41.296875 42.84375 
Q 37.203125 48.484375 30.078125 48.484375 
Q 22.953125 48.484375 18.875 42.84375 
Q 14.796875 37.203125 14.796875 27.296875 
z
" id="DejaVuSans-64"/>
      <path d="M 8.015625 75.875 
L 15.828125 75.875 
Q 23.140625 64.359375 26.78125 53.3125 
Q 30.421875 42.28125 30.421875 31.390625 
Q 30.421875 20.453125 26.78125 9.375 
Q 23.140625 -1.703125 15.828125 -13.1875 
L 8.015625 -13.1875 
Q 14.5 -2 17.703125 9.0625 
Q 20.90625 20.125 20.90625 31.390625 
Q 20.90625 42.671875 17.703125 53.65625 
Q 14.5 64.65625 8.015625 75.875 
z
" id="DejaVuSans-29"/>
     </defs>
     <g transform="translate(154.313281 252.556563)scale(0.1 -0.1)">
      <use xlink:href="#DejaVuSans-6e"/>
      <use x="63.378906" xlink:href="#DejaVuSans-75"/>
      <use x="126.757812" xlink:href="#DejaVuSans-6d"/>
      <use x="224.169922" xlink:href="#DejaVuSans-62"/>
      <use x="287.646484" xlink:href="#DejaVuSans-65"/>
      <use x="349.169922" xlink:href="#DejaVuSans-72"/>
      <use x="390.283203" xlink:href="#DejaVuSans-20"/>
      <use x="422.070312" xlink:href="#DejaVuSans-6f"/>
      <use x="483.251953" xlink:href="#DejaVuSans-66"/>
      <use x="518.457031" xlink:href="#DejaVuSans-20"/>
      <use x="550.244141" xlink:href="#DejaVuSans-63"/>
      <use x="605.224609" xlink:href="#DejaVuSans-68"/>
      <use x="668.603516" xlink:href="#DejaVuSans-75"/>
      <use x="731.982422" xlink:href="#DejaVuSans-6e"/>
      <use x="795.361328" xlink:href="#DejaVuSans-6b"/>
      <use x="853.271484" xlink:href="#DejaVuSans-20"/>
      <use x="885.058594" xlink:href="#DejaVuSans-28"/>
      <use x="924.072266" xlink:href="#DejaVuSans-66"/>
      <use x="959.277344" xlink:href="#DejaVuSans-72"/>
      <use x="1000.359375" xlink:href="#DejaVuSans-6f"/>
      <use x="1061.541016" xlink:href="#DejaVuSans-6d"/>
      <use x="1158.953125" xlink:href="#DejaVuSans-20"/>
      <use x="1190.740234" xlink:href="#DejaVuSans-62"/>
      <use x="1254.216797" xlink:href="#DejaVuSans-65"/>
      <use x="1315.740234" xlink:href="#DejaVuSans-67"/>
      <use x="1379.216797" xlink:href="#DejaVuSans-69"/>
      <use x="1407" xlink:href="#DejaVuSans-6e"/>
      <use x="1470.378906" xlink:href="#DejaVuSans-6e"/>
      <use x="1533.757812" xlink:href="#DejaVuSans-69"/>
      <use x="1561.541016" xlink:href="#DejaVuSans-6e"/>
      <use x="1624.919922" xlink:href="#DejaVuSans-67"/>
      <use x="1688.396484" xlink:href="#DejaVuSans-20"/>
      <use x="1720.183594" xlink:href="#DejaVuSans-74"/>
      <use x="1759.392578" xlink:href="#DejaVuSans-6f"/>
      <use x="1820.574219" xlink:href="#DejaVuSans-20"/>
      <use x="1852.361328" xlink:href="#DejaVuSans-65"/>
      <use x="1913.884766" xlink:href="#DejaVuSans-6e"/>
      <use x="1977.263672" xlink:href="#DejaVuSans-64"/>
      <use x="2040.740234" xlink:href="#DejaVuSans-29"/>
     </g>
    </g>
   </g>
   <g id="matplotlib.axis_2">
    <g id="ytick_1">
     <g id="line2d_9">
      <defs>
       <path d="M 0 0 
L -3.5 0 
" id="mcb94ac0015" style="stroke:#000000;stroke-width:0.8;"/>
      </defs>
      <g>
       <use style="stroke:#000000;stroke-width:0.8;" x="63" xlink:href="#mcb94ac0015" y="224.28"/>
      </g>
     </g>
     <g id="text_10">
      <!-- 0 -->
      <g transform="translate(49.6375 228.079219)scale(0.1 -0.1)">
       <use xlink:href="#DejaVuSans-30"/>
      </g>
     </g>
    </g>
    <g id="ytick_2">
     <g id="line2d_10">
      <g>
       <use style="stroke:#000000;stroke-width:0.8;" x="63" xlink:href="#mcb94ac0015" y="182.401258"/>
      </g>
     </g>
     <g id="text_11">
      <!-- 5 -->
      <defs>
       <path d="M 10.796875 72.90625 
L 49.515625 72.90625 
L 49.515625 64.59375 
L 19.828125 64.59375 
L 19.828125 46.734375 
Q 21.96875 47.46875 24.109375 47.828125 
Q 26.265625 48.1875 28.421875 48.1875 
Q 40.625 48.1875 47.75 41.5 
Q 54.890625 34.8125 54.890625 23.390625 
Q 54.890625 11.625 47.5625 5.09375 
Q 40.234375 -1.421875 26.90625 -1.421875 
Q 22.3125 -1.421875 17.546875 -0.640625 
Q 12.796875 0.140625 7.71875 1.703125 
L 7.71875 11.625 
Q 12.109375 9.234375 16.796875 8.0625 
Q 21.484375 6.890625 26.703125 6.890625 
Q 35.15625 6.890625 40.078125 11.328125 
Q 45.015625 15.765625 45.015625 23.390625 
Q 45.015625 31 40.078125 35.4375 
Q 35.15625 39.890625 26.703125 39.890625 
Q 22.75 39.890625 18.8125 39.015625 
Q 14.890625 38.140625 10.796875 36.28125 
z
" id="DejaVuSans-35"/>
      </defs>
      <g transform="translate(49.6375 186.200477)scale(0.1 -0.1)">
       <use xlink:href="#DejaVuSans-35"/>
      </g>
     </g>
    </g>
    <g id="ytick_3">
     <g id="line2d_11">
      <g>
       <use style="stroke:#000000;stroke-width:0.8;" x="63" xlink:href="#mcb94ac0015" y="140.522516"/>
      </g>
     </g>
     <g id="text_12">
      <!-- 10 -->
      <g transform="translate(43.275 144.321735)scale(0.1 -0.1)">
       <use xlink:href="#DejaVuSans-31"/>
       <use x="63.623047" xlink:href="#DejaVuSans-30"/>
      </g>
     </g>
    </g>
    <g id="ytick_4">
     <g id="line2d_12">
      <g>
       <use style="stroke:#000000;stroke-width:0.8;" x="63" xlink:href="#mcb94ac0015" y="98.643774"/>
      </g>
     </g>
     <g id="text_13">
      <!-- 15 -->
      <g transform="translate(43.275 102.442993)scale(0.1 -0.1)">
       <use xlink:href="#DejaVuSans-31"/>
       <use x="63.623047" xlink:href="#DejaVuSans-35"/>
      </g>
     </g>
    </g>
    <g id="ytick_5">
     <g id="line2d_13">
      <g>
       <use style="stroke:#000000;stroke-width:0.8;" x="63" xlink:href="#mcb94ac0015" y="56.765032"/>
      </g>
     </g>
     <g id="text_14">
      <!-- 20 -->
      <g transform="translate(43.275 60.564251)scale(0.1 -0.1)">
       <use xlink:href="#DejaVuSans-32"/>
       <use x="63.623047" xlink:href="#DejaVuSans-30"/>
      </g>
     </g>
    </g>
    <g id="text_15">
     <!-- GFI -->
     <defs>
      <path d="M 59.515625 10.40625 
L 59.515625 29.984375 
L 43.40625 29.984375 
L 43.40625 38.09375 
L 69.28125 38.09375 
L 69.28125 6.78125 
Q 63.578125 2.734375 56.6875 0.65625 
Q 49.8125 -1.421875 42 -1.421875 
Q 24.90625 -1.421875 15.25 8.5625 
Q 5.609375 18.5625 5.609375 36.375 
Q 5.609375 54.25 15.25 64.234375 
Q 24.90625 74.21875 42 74.21875 
Q 49.125 74.21875 55.546875 72.453125 
Q 61.96875 70.703125 67.390625 67.28125 
L 67.390625 56.78125 
Q 61.921875 61.421875 55.765625 63.765625 
Q 49.609375 66.109375 42.828125 66.109375 
Q 29.4375 66.109375 22.71875 58.640625 
Q 16.015625 51.171875 16.015625 36.375 
Q 16.015625 21.625 22.71875 14.15625 
Q 29.4375 6.6875 42.828125 6.6875 
Q 48.046875 6.6875 52.140625 7.59375 
Q 56.25 8.5 59.515625 10.40625 
z
" id="DejaVuSans-47"/>
      <path d="M 9.8125 72.90625 
L 51.703125 72.90625 
L 51.703125 64.59375 
L 19.671875 64.59375 
L 19.671875 43.109375 
L 48.578125 43.109375 
L 48.578125 34.8125 
L 19.671875 34.8125 
L 19.671875 0 
L 9.8125 0 
z
" id="DejaVuSans-46"/>
      <path d="M 9.8125 72.90625 
L 19.671875 72.90625 
L 19.671875 0 
L 9.8125 0 
z
" id="DejaVuSans-49"/>
     </defs>
     <g transform="translate(37.195312 135.485)rotate(-90)scale(0.1 -0.1)">
      <use xlink:href="#DejaVuSans-47"/>
      <use x="77.490234" xlink:href="#DejaVuSans-46"/>
      <use x="135.009766" xlink:href="#DejaVuSans-49"/>
     </g>
    </g>
   </g>
   <g id="patch_154">
    <path d="M 63 224.28 
L 63 30.24 
" style="fill:none;stroke:#000000;stroke-linecap:square;stroke-linejoin:miter;stroke-width:0.8;"/>
   </g>
   <g id="patch_155">
    <path d="M 453.6 224.28 
L 453.6 30.24 
" style="fill:none;stroke:#000000;stroke-linecap:square;stroke-linejoin:miter;stroke-width:0.8;"/>
   </g>
   <g id="patch_156">
    <path d="M 63 224.28 
L 453.6 224.28 
" style="fill:none;stroke:#000000;stroke-linecap:square;stroke-linejoin:miter;stroke-width:0.8;"/>
   </g>
   <g id="patch_157">
    <path d="M 63 30.24 
L 453.6 30.24 
" style="fill:none;stroke:#000000;stroke-linecap:square;stroke-linejoin:miter;stroke-width:0.8;"/>
   </g>
  </g>
  <g id="text_16">
   <!-- GFI for the chunks of size 10 of document de115685280.txt -->
   <defs>
    <path d="M 44.28125 53.078125 
L 44.28125 44.578125 
Q 40.484375 46.53125 36.375 47.5 
Q 32.28125 48.484375 27.875 48.484375 
Q 21.1875 48.484375 17.84375 46.4375 
Q 14.5 44.390625 14.5 40.28125 
Q 14.5 37.15625 16.890625 35.375 
Q 19.28125 33.59375 26.515625 31.984375 
L 29.59375 31.296875 
Q 39.15625 29.25 43.1875 25.515625 
Q 47.21875 21.78125 47.21875 15.09375 
Q 47.21875 7.46875 41.1875 3.015625 
Q 35.15625 -1.421875 24.609375 -1.421875 
Q 20.21875 -1.421875 15.453125 -0.5625 
Q 10.6875 0.296875 5.421875 2 
L 5.421875 11.28125 
Q 10.40625 8.6875 15.234375 7.390625 
Q 20.0625 6.109375 24.8125 6.109375 
Q 31.15625 6.109375 34.5625 8.28125 
Q 37.984375 10.453125 37.984375 14.40625 
Q 37.984375 18.0625 35.515625 20.015625 
Q 33.0625 21.96875 24.703125 23.78125 
L 21.578125 24.515625 
Q 13.234375 26.265625 9.515625 29.90625 
Q 5.8125 33.546875 5.8125 39.890625 
Q 5.8125 47.609375 11.28125 51.796875 
Q 16.75 56 26.8125 56 
Q 31.78125 56 36.171875 55.265625 
Q 40.578125 54.546875 44.28125 53.078125 
z
" id="DejaVuSans-73"/>
    <path d="M 5.515625 54.6875 
L 48.1875 54.6875 
L 48.1875 46.484375 
L 14.40625 7.171875 
L 48.1875 7.171875 
L 48.1875 0 
L 4.296875 0 
L 4.296875 8.203125 
L 38.09375 47.515625 
L 5.515625 47.515625 
z
" id="DejaVuSans-7a"/>
    <path d="M 10.6875 12.40625 
L 21 12.40625 
L 21 0 
L 10.6875 0 
z
" id="DejaVuSans-2e"/>
    <path d="M 54.890625 54.6875 
L 35.109375 28.078125 
L 55.90625 0 
L 45.3125 0 
L 29.390625 21.484375 
L 13.484375 0 
L 2.875 0 
L 24.125 28.609375 
L 4.6875 54.6875 
L 15.28125 54.6875 
L 29.78125 35.203125 
L 44.28125 54.6875 
z
" id="DejaVuSans-78"/>
   </defs>
   <g transform="translate(42.508594 15.677812)scale(0.14 -0.14)">
    <use xlink:href="#DejaVuSans-47"/>
    <use x="77.490234" xlink:href="#DejaVuSans-46"/>
    <use x="135.009766" xlink:href="#DejaVuSans-49"/>
    <use x="164.501953" xlink:href="#DejaVuSans-20"/>
    <use x="196.289062" xlink:href="#DejaVuSans-66"/>
    <use x="231.494141" xlink:href="#DejaVuSans-6f"/>
    <use x="292.675781" xlink:href="#DejaVuSans-72"/>
    <use x="333.789062" xlink:href="#DejaVuSans-20"/>
    <use x="365.576172" xlink:href="#DejaVuSans-74"/>
    <use x="404.785156" xlink:href="#DejaVuSans-68"/>
    <use x="468.164062" xlink:href="#DejaVuSans-65"/>
    <use x="529.6875" xlink:href="#DejaVuSans-20"/>
    <use x="561.474609" xlink:href="#DejaVuSans-63"/>
    <use x="616.455078" xlink:href="#DejaVuSans-68"/>
    <use x="679.833984" xlink:href="#DejaVuSans-75"/>
    <use x="743.212891" xlink:href="#DejaVuSans-6e"/>
    <use x="806.591797" xlink:href="#DejaVuSans-6b"/>
    <use x="864.501953" xlink:href="#DejaVuSans-73"/>
    <use x="916.601562" xlink:href="#DejaVuSans-20"/>
    <use x="948.388672" xlink:href="#DejaVuSans-6f"/>
    <use x="1009.570312" xlink:href="#DejaVuSans-66"/>
    <use x="1044.775391" xlink:href="#DejaVuSans-20"/>
    <use x="1076.5625" xlink:href="#DejaVuSans-73"/>
    <use x="1128.662109" xlink:href="#DejaVuSans-69"/>
    <use x="1156.445312" xlink:href="#DejaVuSans-7a"/>
    <use x="1208.935547" xlink:href="#DejaVuSans-65"/>
    <use x="1270.458984" xlink:href="#DejaVuSans-20"/>
    <use x="1302.246094" xlink:href="#DejaVuSans-31"/>
    <use x="1365.869141" xlink:href="#DejaVuSans-30"/>
    <use x="1429.492188" xlink:href="#DejaVuSans-20"/>
    <use x="1461.279297" xlink:href="#DejaVuSans-6f"/>
    <use x="1522.460938" xlink:href="#DejaVuSans-66"/>
    <use x="1557.666016" xlink:href="#DejaVuSans-20"/>
    <use x="1589.453125" xlink:href="#DejaVuSans-64"/>
    <use x="1652.929688" xlink:href="#DejaVuSans-6f"/>
    <use x="1714.111328" xlink:href="#DejaVuSans-63"/>
    <use x="1769.091797" xlink:href="#DejaVuSans-75"/>
    <use x="1832.470703" xlink:href="#DejaVuSans-6d"/>
    <use x="1929.882812" xlink:href="#DejaVuSans-65"/>
    <use x="1991.40625" xlink:href="#DejaVuSans-6e"/>
    <use x="2054.785156" xlink:href="#DejaVuSans-74"/>
    <use x="2093.994141" xlink:href="#DejaVuSans-20"/>
    <use x="2125.78125" xlink:href="#DejaVuSans-64"/>
    <use x="2189.257812" xlink:href="#DejaVuSans-65"/>
    <use x="2250.78125" xlink:href="#DejaVuSans-31"/>
    <use x="2314.404297" xlink:href="#DejaVuSans-31"/>
    <use x="2378.027344" xlink:href="#DejaVuSans-35"/>
    <use x="2441.650391" xlink:href="#DejaVuSans-36"/>
    <use x="2505.273438" xlink:href="#DejaVuSans-38"/>
    <use x="2568.896484" xlink:href="#DejaVuSans-35"/>
    <use x="2632.519531" xlink:href="#DejaVuSans-32"/>
    <use x="2696.142578" xlink:href="#DejaVuSans-38"/>
    <use x="2759.765625" xlink:href="#DejaVuSans-30"/>
    <use x="2823.388672" xlink:href="#DejaVuSans-2e"/>
    <use x="2855.175781" xlink:href="#DejaVuSans-74"/>
    <use x="2894.384766" xlink:href="#DejaVuSans-78"/>
    <use x="2953.564453" xlink:href="#DejaVuSans-74"/>
   </g>
  </g>
 </g>
 <defs>
  <clipPath id="p76cec0fc23">
   <rect height="194.04" width="390.6" x="63" y="30.24"/>
  </clipPath>
 </defs>
</svg>
