<?xml version="1.0" encoding="utf-8" standalone="no"?>
<!DOCTYPE svg PUBLIC "-//W3C//DTD SVG 1.1//EN"
  "http://www.w3.org/Graphics/SVG/1.1/DTD/svg11.dtd">
<!-- Created with matplotlib (http://matplotlib.org/) -->
<svg height="252pt" version="1.1" viewBox="0 0 504 252" width="504pt" xmlns="http://www.w3.org/2000/svg" xmlns:xlink="http://www.w3.org/1999/xlink">
 <defs>
  <style type="text/css">
*{stroke-linecap:butt;stroke-linejoin:round;}
  </style>
 </defs>
 <g id="figure_1">
  <g id="patch_1">
   <path d="M 0 252 
L 504 252 
L 504 0 
L 0 0 
z
" style="fill:#ffffff;"/>
  </g>
  <g id="axes_1">
   <g id="patch_2">
    <path d="M 63 224.28 
L 453.6 224.28 
L 453.6 30.24 
L 63 30.24 
z
" style="fill:#ffffff;"/>
   </g>
   <g id="patch_3">
    <path clip-path="url(#pae490b4278)" d="M 80.754545 224.28 
L 82.212824 224.28 
L 82.212824 71.47236 
L 80.754545 71.47236 
z
" style="fill:#1f77b4;"/>
   </g>
   <g id="patch_4">
    <path clip-path="url(#pae490b4278)" d="M 82.577394 224.28 
L 84.035673 224.28 
L 84.035673 96.434609 
L 82.577394 96.434609 
z
" style="fill:#1f77b4;"/>
   </g>
   <g id="patch_5">
    <path clip-path="url(#pae490b4278)" d="M 84.400243 224.28 
L 85.858522 224.28 
L 85.858522 116.099209 
L 84.400243 116.099209 
z
" style="fill:#1f77b4;"/>
   </g>
   <g id="patch_6">
    <path clip-path="url(#pae490b4278)" d="M 86.223091 224.28 
L 87.68137 224.28 
L 87.68137 90.373113 
L 86.223091 90.373113 
z
" style="fill:#1f77b4;"/>
   </g>
   <g id="patch_7">
    <path clip-path="url(#pae490b4278)" d="M 88.04594 224.28 
L 89.504219 224.28 
L 89.504219 113.975052 
L 88.04594 113.975052 
z
" style="fill:#1f77b4;"/>
   </g>
   <g id="patch_8">
    <path clip-path="url(#pae490b4278)" d="M 89.868789 224.28 
L 91.327067 224.28 
L 91.327067 93.981632 
L 89.868789 93.981632 
z
" style="fill:#1f77b4;"/>
   </g>
   <g id="patch_9">
    <path clip-path="url(#pae490b4278)" d="M 91.691637 224.28 
L 93.149916 224.28 
L 93.149916 132.703323 
L 91.691637 132.703323 
z
" style="fill:#1f77b4;"/>
   </g>
   <g id="patch_10">
    <path clip-path="url(#pae490b4278)" d="M 93.514486 224.28 
L 94.972765 224.28 
L 94.972765 118.8963 
L 93.514486 118.8963 
z
" style="fill:#1f77b4;"/>
   </g>
   <g id="patch_11">
    <path clip-path="url(#pae490b4278)" d="M 95.337334 224.28 
L 96.795613 224.28 
L 96.795613 149.216524 
L 95.337334 149.216524 
z
" style="fill:#1f77b4;"/>
   </g>
   <g id="patch_12">
    <path clip-path="url(#pae490b4278)" d="M 97.160183 224.28 
L 98.618462 224.28 
L 98.618462 153.670457 
L 97.160183 153.670457 
z
" style="fill:#1f77b4;"/>
   </g>
   <g id="patch_13">
    <path clip-path="url(#pae490b4278)" d="M 98.983032 224.28 
L 100.44131 224.28 
L 100.44131 130.250346 
L 98.983032 130.250346 
z
" style="fill:#1f77b4;"/>
   </g>
   <g id="patch_14">
    <path clip-path="url(#pae490b4278)" d="M 100.80588 224.28 
L 102.264159 224.28 
L 102.264159 112.471998 
L 100.80588 112.471998 
z
" style="fill:#1f77b4;"/>
   </g>
   <g id="patch_15">
    <path clip-path="url(#pae490b4278)" d="M 102.628729 224.28 
L 104.087008 224.28 
L 104.087008 137.605879 
L 102.628729 137.605879 
z
" style="fill:#1f77b4;"/>
   </g>
   <g id="patch_16">
    <path clip-path="url(#pae490b4278)" d="M 104.451577 224.28 
L 105.909856 224.28 
L 105.909856 89.654299 
L 104.451577 89.654299 
z
" style="fill:#1f77b4;"/>
   </g>
   <g id="patch_17">
    <path clip-path="url(#pae490b4278)" d="M 106.274426 224.28 
L 107.732705 224.28 
L 107.732705 123.455591 
L 106.274426 123.455591 
z
" style="fill:#1f77b4;"/>
   </g>
   <g id="patch_18">
    <path clip-path="url(#pae490b4278)" d="M 108.097275 224.28 
L 109.555553 224.28 
L 109.555553 113.466953 
L 108.097275 113.466953 
z
" style="fill:#1f77b4;"/>
   </g>
   <g id="patch_19">
    <path clip-path="url(#pae490b4278)" d="M 109.920123 224.28 
L 111.378402 224.28 
L 111.378402 116.120451 
L 109.920123 116.120451 
z
" style="fill:#1f77b4;"/>
   </g>
   <g id="patch_20">
    <path clip-path="url(#pae490b4278)" d="M 111.742972 224.28 
L 113.201251 224.28 
L 113.201251 129.268136 
L 111.742972 129.268136 
z
" style="fill:#1f77b4;"/>
   </g>
   <g id="patch_21">
    <path clip-path="url(#pae490b4278)" d="M 113.56582 224.28 
L 115.024099 224.28 
L 115.024099 111.40907 
L 113.56582 111.40907 
z
" style="fill:#1f77b4;"/>
   </g>
   <g id="patch_22">
    <path clip-path="url(#pae490b4278)" d="M 115.388669 224.28 
L 116.846948 224.28 
L 116.846948 135.647406 
L 115.388669 135.647406 
z
" style="fill:#1f77b4;"/>
   </g>
   <g id="patch_23">
    <path clip-path="url(#pae490b4278)" d="M 117.211518 224.28 
L 118.669797 224.28 
L 118.669797 140.975642 
L 117.211518 140.975642 
z
" style="fill:#1f77b4;"/>
   </g>
   <g id="patch_24">
    <path clip-path="url(#pae490b4278)" d="M 119.034366 224.28 
L 120.492645 224.28 
L 120.492645 155.27632 
L 119.034366 155.27632 
z
" style="fill:#1f77b4;"/>
   </g>
   <g id="patch_25">
    <path clip-path="url(#pae490b4278)" d="M 120.857215 224.28 
L 122.315494 224.28 
L 122.315494 124.940802 
L 120.857215 124.940802 
z
" style="fill:#1f77b4;"/>
   </g>
   <g id="patch_26">
    <path clip-path="url(#pae490b4278)" d="M 122.680063 224.28 
L 124.138342 224.28 
L 124.138342 139.639972 
L 122.680063 139.639972 
z
" style="fill:#1f77b4;"/>
   </g>
   <g id="patch_27">
    <path clip-path="url(#pae490b4278)" d="M 124.502912 224.28 
L 125.961191 224.28 
L 125.961191 123.45899 
L 124.502912 123.45899 
z
" style="fill:#1f77b4;"/>
   </g>
   <g id="patch_28">
    <path clip-path="url(#pae490b4278)" d="M 126.325761 224.28 
L 127.78404 224.28 
L 127.78404 134.697482 
L 126.325761 134.697482 
z
" style="fill:#1f77b4;"/>
   </g>
   <g id="patch_29">
    <path clip-path="url(#pae490b4278)" d="M 128.148609 224.28 
L 129.606888 224.28 
L 129.606888 145.857806 
L 128.148609 145.857806 
z
" style="fill:#1f77b4;"/>
   </g>
   <g id="patch_30">
    <path clip-path="url(#pae490b4278)" d="M 129.971458 224.28 
L 131.429737 224.28 
L 131.429737 107.208336 
L 129.971458 107.208336 
z
" style="fill:#1f77b4;"/>
   </g>
   <g id="patch_31">
    <path clip-path="url(#pae490b4278)" d="M 131.794307 224.28 
L 133.252585 224.28 
L 133.252585 145.117749 
L 131.794307 145.117749 
z
" style="fill:#1f77b4;"/>
   </g>
   <g id="patch_32">
    <path clip-path="url(#pae490b4278)" d="M 133.617155 224.28 
L 135.075434 224.28 
L 135.075434 130.768641 
L 133.617155 130.768641 
z
" style="fill:#1f77b4;"/>
   </g>
   <g id="patch_33">
    <path clip-path="url(#pae490b4278)" d="M 135.440004 224.28 
L 136.898283 224.28 
L 136.898283 141.449754 
L 135.440004 141.449754 
z
" style="fill:#1f77b4;"/>
   </g>
   <g id="patch_34">
    <path clip-path="url(#pae490b4278)" d="M 137.262852 224.28 
L 138.721131 224.28 
L 138.721131 142.420919 
L 137.262852 142.420919 
z
" style="fill:#1f77b4;"/>
   </g>
   <g id="patch_35">
    <path clip-path="url(#pae490b4278)" d="M 139.085701 224.28 
L 140.54398 224.28 
L 140.54398 125.530469 
L 139.085701 125.530469 
z
" style="fill:#1f77b4;"/>
   </g>
   <g id="patch_36">
    <path clip-path="url(#pae490b4278)" d="M 140.90855 224.28 
L 142.366828 224.28 
L 142.366828 143.848353 
L 140.90855 143.848353 
z
" style="fill:#1f77b4;"/>
   </g>
   <g id="patch_37">
    <path clip-path="url(#pae490b4278)" d="M 142.731398 224.28 
L 144.189677 224.28 
L 144.189677 143.844954 
L 142.731398 143.844954 
z
" style="fill:#1f77b4;"/>
   </g>
   <g id="patch_38">
    <path clip-path="url(#pae490b4278)" d="M 144.554247 224.28 
L 146.012526 224.28 
L 146.012526 128.052268 
L 144.554247 128.052268 
z
" style="fill:#1f77b4;"/>
   </g>
   <g id="patch_39">
    <path clip-path="url(#pae490b4278)" d="M 146.377095 224.28 
L 147.835374 224.28 
L 147.835374 127.970701 
L 146.377095 127.970701 
z
" style="fill:#1f77b4;"/>
   </g>
   <g id="patch_40">
    <path clip-path="url(#pae490b4278)" d="M 148.199944 224.28 
L 149.658223 224.28 
L 149.658223 140.549961 
L 148.199944 140.549961 
z
" style="fill:#1f77b4;"/>
   </g>
   <g id="patch_41">
    <path clip-path="url(#pae490b4278)" d="M 150.022793 224.28 
L 151.481071 224.28 
L 151.481071 151.003365 
L 150.022793 151.003365 
z
" style="fill:#1f77b4;"/>
   </g>
   <g id="patch_42">
    <path clip-path="url(#pae490b4278)" d="M 151.845641 224.28 
L 153.30392 224.28 
L 153.30392 120.218376 
L 151.845641 120.218376 
z
" style="fill:#1f77b4;"/>
   </g>
   <g id="patch_43">
    <path clip-path="url(#pae490b4278)" d="M 153.66849 224.28 
L 155.126769 224.28 
L 155.126769 135.600674 
L 153.66849 135.600674 
z
" style="fill:#1f77b4;"/>
   </g>
   <g id="patch_44">
    <path clip-path="url(#pae490b4278)" d="M 155.491338 224.28 
L 156.949617 224.28 
L 156.949617 139.936504 
L 155.491338 139.936504 
z
" style="fill:#1f77b4;"/>
   </g>
   <g id="patch_45">
    <path clip-path="url(#pae490b4278)" d="M 157.314187 224.28 
L 158.772466 224.28 
L 158.772466 129.985252 
L 157.314187 129.985252 
z
" style="fill:#1f77b4;"/>
   </g>
   <g id="patch_46">
    <path clip-path="url(#pae490b4278)" d="M 159.137036 224.28 
L 160.595315 224.28 
L 160.595315 145.457615 
L 159.137036 145.457615 
z
" style="fill:#1f77b4;"/>
   </g>
   <g id="patch_47">
    <path clip-path="url(#pae490b4278)" d="M 160.959884 224.28 
L 162.418163 224.28 
L 162.418163 149.071231 
L 160.959884 149.071231 
z
" style="fill:#1f77b4;"/>
   </g>
   <g id="patch_48">
    <path clip-path="url(#pae490b4278)" d="M 162.782733 224.28 
L 164.241012 224.28 
L 164.241012 149.767105 
L 162.782733 149.767105 
z
" style="fill:#1f77b4;"/>
   </g>
   <g id="patch_49">
    <path clip-path="url(#pae490b4278)" d="M 164.605581 224.28 
L 166.06386 224.28 
L 166.06386 140.883879 
L 164.605581 140.883879 
z
" style="fill:#1f77b4;"/>
   </g>
   <g id="patch_50">
    <path clip-path="url(#pae490b4278)" d="M 166.42843 224.28 
L 167.886709 224.28 
L 167.886709 139.533764 
L 166.42843 139.533764 
z
" style="fill:#1f77b4;"/>
   </g>
   <g id="patch_51">
    <path clip-path="url(#pae490b4278)" d="M 168.251279 224.28 
L 169.709558 224.28 
L 169.709558 124.019768 
L 168.251279 124.019768 
z
" style="fill:#1f77b4;"/>
   </g>
   <g id="patch_52">
    <path clip-path="url(#pae490b4278)" d="M 170.074127 224.28 
L 171.532406 224.28 
L 171.532406 130.002245 
L 170.074127 130.002245 
z
" style="fill:#1f77b4;"/>
   </g>
   <g id="patch_53">
    <path clip-path="url(#pae490b4278)" d="M 171.896976 224.28 
L 173.355255 224.28 
L 173.355255 140.733488 
L 171.896976 140.733488 
z
" style="fill:#1f77b4;"/>
   </g>
   <g id="patch_54">
    <path clip-path="url(#pae490b4278)" d="M 173.719825 224.28 
L 175.178103 224.28 
L 175.178103 128.137235 
L 173.719825 128.137235 
z
" style="fill:#1f77b4;"/>
   </g>
   <g id="patch_55">
    <path clip-path="url(#pae490b4278)" d="M 175.542673 224.28 
L 177.000952 224.28 
L 177.000952 126.419216 
L 175.542673 126.419216 
z
" style="fill:#1f77b4;"/>
   </g>
   <g id="patch_56">
    <path clip-path="url(#pae490b4278)" d="M 177.365522 224.28 
L 178.823801 224.28 
L 178.823801 149.37711 
L 177.365522 149.37711 
z
" style="fill:#1f77b4;"/>
   </g>
   <g id="patch_57">
    <path clip-path="url(#pae490b4278)" d="M 179.18837 224.28 
L 180.646649 224.28 
L 180.646649 129.475454 
L 179.18837 129.475454 
z
" style="fill:#1f77b4;"/>
   </g>
   <g id="patch_58">
    <path clip-path="url(#pae490b4278)" d="M 181.011219 224.28 
L 182.469498 224.28 
L 182.469498 126.622285 
L 181.011219 126.622285 
z
" style="fill:#1f77b4;"/>
   </g>
   <g id="patch_59">
    <path clip-path="url(#pae490b4278)" d="M 182.834068 224.28 
L 184.292346 224.28 
L 184.292346 120.781702 
L 182.834068 120.781702 
z
" style="fill:#1f77b4;"/>
   </g>
   <g id="patch_60">
    <path clip-path="url(#pae490b4278)" d="M 184.656916 224.28 
L 186.115195 224.28 
L 186.115195 125.775171 
L 184.656916 125.775171 
z
" style="fill:#1f77b4;"/>
   </g>
   <g id="patch_61">
    <path clip-path="url(#pae490b4278)" d="M 186.479765 224.28 
L 187.938044 224.28 
L 187.938044 109.858435 
L 186.479765 109.858435 
z
" style="fill:#1f77b4;"/>
   </g>
   <g id="patch_62">
    <path clip-path="url(#pae490b4278)" d="M 188.302613 224.28 
L 189.760892 224.28 
L 189.760892 138.243976 
L 188.302613 138.243976 
z
" style="fill:#1f77b4;"/>
   </g>
   <g id="patch_63">
    <path clip-path="url(#pae490b4278)" d="M 190.125462 224.28 
L 191.583741 224.28 
L 191.583741 116.773842 
L 190.125462 116.773842 
z
" style="fill:#1f77b4;"/>
   </g>
   <g id="patch_64">
    <path clip-path="url(#pae490b4278)" d="M 191.948311 224.28 
L 193.40659 224.28 
L 193.40659 144.782132 
L 191.948311 144.782132 
z
" style="fill:#1f77b4;"/>
   </g>
   <g id="patch_65">
    <path clip-path="url(#pae490b4278)" d="M 193.771159 224.28 
L 195.229438 224.28 
L 195.229438 132.947177 
L 193.771159 132.947177 
z
" style="fill:#1f77b4;"/>
   </g>
   <g id="patch_66">
    <path clip-path="url(#pae490b4278)" d="M 195.594008 224.28 
L 197.052287 224.28 
L 197.052287 116.581818 
L 195.594008 116.581818 
z
" style="fill:#1f77b4;"/>
   </g>
   <g id="patch_67">
    <path clip-path="url(#pae490b4278)" d="M 197.416856 224.28 
L 198.875135 224.28 
L 198.875135 90.465727 
L 197.416856 90.465727 
z
" style="fill:#1f77b4;"/>
   </g>
   <g id="patch_68">
    <path clip-path="url(#pae490b4278)" d="M 199.239705 224.28 
L 200.697984 224.28 
L 200.697984 114.60975 
L 199.239705 114.60975 
z
" style="fill:#1f77b4;"/>
   </g>
   <g id="patch_69">
    <path clip-path="url(#pae490b4278)" d="M 201.062554 224.28 
L 202.520833 224.28 
L 202.520833 66.483989 
L 201.062554 66.483989 
z
" style="fill:#1f77b4;"/>
   </g>
   <g id="patch_70">
    <path clip-path="url(#pae490b4278)" d="M 202.885402 224.28 
L 204.343681 224.28 
L 204.343681 39.48 
L 202.885402 39.48 
z
" style="fill:#1f77b4;"/>
   </g>
   <g id="patch_71">
    <path clip-path="url(#pae490b4278)" d="M 204.708251 224.28 
L 206.16653 224.28 
L 206.16653 108.348584 
L 204.708251 108.348584 
z
" style="fill:#1f77b4;"/>
   </g>
   <g id="patch_72">
    <path clip-path="url(#pae490b4278)" d="M 206.531099 224.28 
L 207.989378 224.28 
L 207.989378 111.757432 
L 206.531099 111.757432 
z
" style="fill:#1f77b4;"/>
   </g>
   <g id="patch_73">
    <path clip-path="url(#pae490b4278)" d="M 208.353948 224.28 
L 209.812227 224.28 
L 209.812227 126.454052 
L 208.353948 126.454052 
z
" style="fill:#1f77b4;"/>
   </g>
   <g id="patch_74">
    <path clip-path="url(#pae490b4278)" d="M 210.176797 224.28 
L 211.635076 224.28 
L 211.635076 98.636936 
L 210.176797 98.636936 
z
" style="fill:#1f77b4;"/>
   </g>
   <g id="patch_75">
    <path clip-path="url(#pae490b4278)" d="M 211.999645 224.28 
L 213.457924 224.28 
L 213.457924 121.273657 
L 211.999645 121.273657 
z
" style="fill:#1f77b4;"/>
   </g>
   <g id="patch_76">
    <path clip-path="url(#pae490b4278)" d="M 213.822494 224.28 
L 215.280773 224.28 
L 215.280773 134.423041 
L 213.822494 134.423041 
z
" style="fill:#1f77b4;"/>
   </g>
   <g id="patch_77">
    <path clip-path="url(#pae490b4278)" d="M 215.645343 224.28 
L 217.103621 224.28 
L 217.103621 142.779477 
L 215.645343 142.779477 
z
" style="fill:#1f77b4;"/>
   </g>
   <g id="patch_78">
    <path clip-path="url(#pae490b4278)" d="M 217.468191 224.28 
L 218.92647 224.28 
L 218.92647 114.523085 
L 217.468191 114.523085 
z
" style="fill:#1f77b4;"/>
   </g>
   <g id="patch_79">
    <path clip-path="url(#pae490b4278)" d="M 219.29104 224.28 
L 220.749319 224.28 
L 220.749319 136.837784 
L 219.29104 136.837784 
z
" style="fill:#1f77b4;"/>
   </g>
   <g id="patch_80">
    <path clip-path="url(#pae490b4278)" d="M 221.113888 224.28 
L 222.572167 224.28 
L 222.572167 114.485699 
L 221.113888 114.485699 
z
" style="fill:#1f77b4;"/>
   </g>
   <g id="patch_81">
    <path clip-path="url(#pae490b4278)" d="M 222.936737 224.28 
L 224.395016 224.28 
L 224.395016 134.95493 
L 222.936737 134.95493 
z
" style="fill:#1f77b4;"/>
   </g>
   <g id="patch_82">
    <path clip-path="url(#pae490b4278)" d="M 224.759586 224.28 
L 226.217864 224.28 
L 226.217864 123.447095 
L 224.759586 123.447095 
z
" style="fill:#1f77b4;"/>
   </g>
   <g id="patch_83">
    <path clip-path="url(#pae490b4278)" d="M 226.582434 224.28 
L 228.040713 224.28 
L 228.040713 102.398394 
L 226.582434 102.398394 
z
" style="fill:#1f77b4;"/>
   </g>
   <g id="patch_84">
    <path clip-path="url(#pae490b4278)" d="M 228.405283 224.28 
L 229.863562 224.28 
L 229.863562 118.725518 
L 228.405283 118.725518 
z
" style="fill:#1f77b4;"/>
   </g>
   <g id="patch_85">
    <path clip-path="url(#pae490b4278)" d="M 230.228131 224.28 
L 231.68641 224.28 
L 231.68641 73.785143 
L 230.228131 73.785143 
z
" style="fill:#1f77b4;"/>
   </g>
   <g id="patch_86">
    <path clip-path="url(#pae490b4278)" d="M 232.05098 224.28 
L 233.509259 224.28 
L 233.509259 114.986151 
L 232.05098 114.986151 
z
" style="fill:#1f77b4;"/>
   </g>
   <g id="patch_87">
    <path clip-path="url(#pae490b4278)" d="M 233.873829 224.28 
L 235.332108 224.28 
L 235.332108 137.724832 
L 233.873829 137.724832 
z
" style="fill:#1f77b4;"/>
   </g>
   <g id="patch_88">
    <path clip-path="url(#pae490b4278)" d="M 235.696677 224.28 
L 237.154956 224.28 
L 237.154956 125.741185 
L 235.696677 125.741185 
z
" style="fill:#1f77b4;"/>
   </g>
   <g id="patch_89">
    <path clip-path="url(#pae490b4278)" d="M 237.519526 224.28 
L 238.977805 224.28 
L 238.977805 133.185932 
L 237.519526 133.185932 
z
" style="fill:#1f77b4;"/>
   </g>
   <g id="patch_90">
    <path clip-path="url(#pae490b4278)" d="M 239.342374 224.28 
L 240.800653 224.28 
L 240.800653 108.924655 
L 239.342374 108.924655 
z
" style="fill:#1f77b4;"/>
   </g>
   <g id="patch_91">
    <path clip-path="url(#pae490b4278)" d="M 241.165223 224.28 
L 242.623502 224.28 
L 242.623502 115.739802 
L 241.165223 115.739802 
z
" style="fill:#1f77b4;"/>
   </g>
   <g id="patch_92">
    <path clip-path="url(#pae490b4278)" d="M 242.988072 224.28 
L 244.446351 224.28 
L 244.446351 109.169358 
L 242.988072 109.169358 
z
" style="fill:#1f77b4;"/>
   </g>
   <g id="patch_93">
    <path clip-path="url(#pae490b4278)" d="M 244.81092 224.28 
L 246.269199 224.28 
L 246.269199 117.607361 
L 244.81092 117.607361 
z
" style="fill:#1f77b4;"/>
   </g>
   <g id="patch_94">
    <path clip-path="url(#pae490b4278)" d="M 246.633769 224.28 
L 248.092048 224.28 
L 248.092048 122.283057 
L 246.633769 122.283057 
z
" style="fill:#1f77b4;"/>
   </g>
   <g id="patch_95">
    <path clip-path="url(#pae490b4278)" d="M 248.456618 224.28 
L 249.914896 224.28 
L 249.914896 120.294845 
L 248.456618 120.294845 
z
" style="fill:#1f77b4;"/>
   </g>
   <g id="patch_96">
    <path clip-path="url(#pae490b4278)" d="M 250.279466 224.28 
L 251.737745 224.28 
L 251.737745 121.405355 
L 250.279466 121.405355 
z
" style="fill:#1f77b4;"/>
   </g>
   <g id="patch_97">
    <path clip-path="url(#pae490b4278)" d="M 252.102315 224.28 
L 253.560594 224.28 
L 253.560594 105.789399 
L 252.102315 105.789399 
z
" style="fill:#1f77b4;"/>
   </g>
   <g id="patch_98">
    <path clip-path="url(#pae490b4278)" d="M 253.925163 224.28 
L 255.383442 224.28 
L 255.383442 134.362715 
L 253.925163 134.362715 
z
" style="fill:#1f77b4;"/>
   </g>
   <g id="patch_99">
    <path clip-path="url(#pae490b4278)" d="M 255.748012 224.28 
L 257.206291 224.28 
L 257.206291 109.965492 
L 255.748012 109.965492 
z
" style="fill:#1f77b4;"/>
   </g>
   <g id="patch_100">
    <path clip-path="url(#pae490b4278)" d="M 257.570861 224.28 
L 259.029139 224.28 
L 259.029139 100.168878 
L 257.570861 100.168878 
z
" style="fill:#1f77b4;"/>
   </g>
   <g id="patch_101">
    <path clip-path="url(#pae490b4278)" d="M 259.393709 224.28 
L 260.851988 224.28 
L 260.851988 104.568433 
L 259.393709 104.568433 
z
" style="fill:#1f77b4;"/>
   </g>
   <g id="patch_102">
    <path clip-path="url(#pae490b4278)" d="M 261.216558 224.28 
L 262.674837 224.28 
L 262.674837 134.503759 
L 261.216558 134.503759 
z
" style="fill:#1f77b4;"/>
   </g>
   <g id="patch_103">
    <path clip-path="url(#pae490b4278)" d="M 263.039406 224.28 
L 264.497685 224.28 
L 264.497685 144.300374 
L 263.039406 144.300374 
z
" style="fill:#1f77b4;"/>
   </g>
   <g id="patch_104">
    <path clip-path="url(#pae490b4278)" d="M 264.862255 224.28 
L 266.320534 224.28 
L 266.320534 152.341584 
L 264.862255 152.341584 
z
" style="fill:#1f77b4;"/>
   </g>
   <g id="patch_105">
    <path clip-path="url(#pae490b4278)" d="M 266.685104 224.28 
L 268.143382 224.28 
L 268.143382 143.371692 
L 266.685104 143.371692 
z
" style="fill:#1f77b4;"/>
   </g>
   <g id="patch_106">
    <path clip-path="url(#pae490b4278)" d="M 268.507952 224.28 
L 269.966231 224.28 
L 269.966231 132.582671 
L 268.507952 132.582671 
z
" style="fill:#1f77b4;"/>
   </g>
   <g id="patch_107">
    <path clip-path="url(#pae490b4278)" d="M 270.330801 224.28 
L 271.78908 224.28 
L 271.78908 108.526163 
L 270.330801 108.526163 
z
" style="fill:#1f77b4;"/>
   </g>
   <g id="patch_108">
    <path clip-path="url(#pae490b4278)" d="M 272.153649 224.28 
L 273.611928 224.28 
L 273.611928 105.902404 
L 272.153649 105.902404 
z
" style="fill:#1f77b4;"/>
   </g>
   <g id="patch_109">
    <path clip-path="url(#pae490b4278)" d="M 273.976498 224.28 
L 275.434777 224.28 
L 275.434777 128.012334 
L 273.976498 128.012334 
z
" style="fill:#1f77b4;"/>
   </g>
   <g id="patch_110">
    <path clip-path="url(#pae490b4278)" d="M 275.799347 224.28 
L 277.257626 224.28 
L 277.257626 120.135958 
L 275.799347 120.135958 
z
" style="fill:#1f77b4;"/>
   </g>
   <g id="patch_111">
    <path clip-path="url(#pae490b4278)" d="M 277.622195 224.28 
L 279.080474 224.28 
L 279.080474 122.47593 
L 277.622195 122.47593 
z
" style="fill:#1f77b4;"/>
   </g>
   <g id="patch_112">
    <path clip-path="url(#pae490b4278)" d="M 279.445044 224.28 
L 280.903323 224.28 
L 280.903323 130.890143 
L 279.445044 130.890143 
z
" style="fill:#1f77b4;"/>
   </g>
   <g id="patch_113">
    <path clip-path="url(#pae490b4278)" d="M 281.267892 224.28 
L 282.726171 224.28 
L 282.726171 111.021623 
L 281.267892 111.021623 
z
" style="fill:#1f77b4;"/>
   </g>
   <g id="patch_114">
    <path clip-path="url(#pae490b4278)" d="M 283.090741 224.28 
L 284.54902 224.28 
L 284.54902 104.246411 
L 283.090741 104.246411 
z
" style="fill:#1f77b4;"/>
   </g>
   <g id="patch_115">
    <path clip-path="url(#pae490b4278)" d="M 284.91359 224.28 
L 286.371869 224.28 
L 286.371869 77.993524 
L 284.91359 77.993524 
z
" style="fill:#1f77b4;"/>
   </g>
   <g id="patch_116">
    <path clip-path="url(#pae490b4278)" d="M 286.736438 224.28 
L 288.194717 224.28 
L 288.194717 104.568433 
L 286.736438 104.568433 
z
" style="fill:#1f77b4;"/>
   </g>
   <g id="patch_117">
    <path clip-path="url(#pae490b4278)" d="M 288.559287 224.28 
L 290.017566 224.28 
L 290.017566 133.001555 
L 288.559287 133.001555 
z
" style="fill:#1f77b4;"/>
   </g>
   <g id="patch_118">
    <path clip-path="url(#pae490b4278)" d="M 290.382136 224.28 
L 291.840414 224.28 
L 291.840414 102.010947 
L 290.382136 102.010947 
z
" style="fill:#1f77b4;"/>
   </g>
   <g id="patch_119">
    <path clip-path="url(#pae490b4278)" d="M 292.204984 224.28 
L 293.663263 224.28 
L 293.663263 135.429892 
L 292.204984 135.429892 
z
" style="fill:#1f77b4;"/>
   </g>
   <g id="patch_120">
    <path clip-path="url(#pae490b4278)" d="M 294.027833 224.28 
L 295.486112 224.28 
L 295.486112 132.582671 
L 294.027833 132.582671 
z
" style="fill:#1f77b4;"/>
   </g>
   <g id="patch_121">
    <path clip-path="url(#pae490b4278)" d="M 295.850681 224.28 
L 297.30896 224.28 
L 297.30896 104.469022 
L 295.850681 104.469022 
z
" style="fill:#1f77b4;"/>
   </g>
   <g id="patch_122">
    <path clip-path="url(#pae490b4278)" d="M 297.67353 224.28 
L 299.131809 224.28 
L 299.131809 81.500933 
L 297.67353 81.500933 
z
" style="fill:#1f77b4;"/>
   </g>
   <g id="patch_123">
    <path clip-path="url(#pae490b4278)" d="M 299.496379 224.28 
L 300.954657 224.28 
L 300.954657 100.444169 
L 299.496379 100.444169 
z
" style="fill:#1f77b4;"/>
   </g>
   <g id="patch_124">
    <path clip-path="url(#pae490b4278)" d="M 301.319227 224.28 
L 302.777506 224.28 
L 302.777506 121.687443 
L 301.319227 121.687443 
z
" style="fill:#1f77b4;"/>
   </g>
   <g id="patch_125">
    <path clip-path="url(#pae490b4278)" d="M 303.142076 224.28 
L 304.600355 224.28 
L 304.600355 47.520361 
L 303.142076 47.520361 
z
" style="fill:#1f77b4;"/>
   </g>
   <g id="patch_126">
    <path clip-path="url(#pae490b4278)" d="M 304.964924 224.28 
L 306.423203 224.28 
L 306.423203 104.12151 
L 304.964924 104.12151 
z
" style="fill:#1f77b4;"/>
   </g>
   <g id="patch_127">
    <path clip-path="url(#pae490b4278)" d="M 306.787773 224.28 
L 308.246052 224.28 
L 308.246052 113.797472 
L 306.787773 113.797472 
z
" style="fill:#1f77b4;"/>
   </g>
   <g id="patch_128">
    <path clip-path="url(#pae490b4278)" d="M 308.610622 224.28 
L 310.068901 224.28 
L 310.068901 105.646655 
L 308.610622 105.646655 
z
" style="fill:#1f77b4;"/>
   </g>
   <g id="patch_129">
    <path clip-path="url(#pae490b4278)" d="M 310.43347 224.28 
L 311.891749 224.28 
L 311.891749 130.195968 
L 310.43347 130.195968 
z
" style="fill:#1f77b4;"/>
   </g>
   <g id="patch_130">
    <path clip-path="url(#pae490b4278)" d="M 312.256319 224.28 
L 313.714598 224.28 
L 313.714598 135.280351 
L 312.256319 135.280351 
z
" style="fill:#1f77b4;"/>
   </g>
   <g id="patch_131">
    <path clip-path="url(#pae490b4278)" d="M 314.079167 224.28 
L 315.537446 224.28 
L 315.537446 127.903577 
L 314.079167 127.903577 
z
" style="fill:#1f77b4;"/>
   </g>
   <g id="patch_132">
    <path clip-path="url(#pae490b4278)" d="M 315.902016 224.28 
L 317.360295 224.28 
L 317.360295 119.073879 
L 315.902016 119.073879 
z
" style="fill:#1f77b4;"/>
   </g>
   <g id="patch_133">
    <path clip-path="url(#pae490b4278)" d="M 317.724865 224.28 
L 319.183144 224.28 
L 319.183144 110.199999 
L 317.724865 110.199999 
z
" style="fill:#1f77b4;"/>
   </g>
   <g id="patch_134">
    <path clip-path="url(#pae490b4278)" d="M 319.547713 224.28 
L 321.005992 224.28 
L 321.005992 103.665241 
L 319.547713 103.665241 
z
" style="fill:#1f77b4;"/>
   </g>
   <g id="patch_135">
    <path clip-path="url(#pae490b4278)" d="M 321.370562 224.28 
L 322.828841 224.28 
L 322.828841 142.899279 
L 321.370562 142.899279 
z
" style="fill:#1f77b4;"/>
   </g>
   <g id="patch_136">
    <path clip-path="url(#pae490b4278)" d="M 323.19341 224.28 
L 324.651689 224.28 
L 324.651689 137.797903 
L 323.19341 137.797903 
z
" style="fill:#1f77b4;"/>
   </g>
   <g id="patch_137">
    <path clip-path="url(#pae490b4278)" d="M 325.016259 224.28 
L 326.474538 224.28 
L 326.474538 117.875855 
L 325.016259 117.875855 
z
" style="fill:#1f77b4;"/>
   </g>
   <g id="patch_138">
    <path clip-path="url(#pae490b4278)" d="M 326.839108 224.28 
L 328.297387 224.28 
L 328.297387 120.771506 
L 326.839108 120.771506 
z
" style="fill:#1f77b4;"/>
   </g>
   <g id="patch_139">
    <path clip-path="url(#pae490b4278)" d="M 328.661956 224.28 
L 330.120235 224.28 
L 330.120235 124.120878 
L 328.661956 124.120878 
z
" style="fill:#1f77b4;"/>
   </g>
   <g id="patch_140">
    <path clip-path="url(#pae490b4278)" d="M 330.484805 224.28 
L 331.943084 224.28 
L 331.943084 127.853447 
L 330.484805 127.853447 
z
" style="fill:#1f77b4;"/>
   </g>
   <g id="patch_141">
    <path clip-path="url(#pae490b4278)" d="M 332.307654 224.28 
L 333.765932 224.28 
L 333.765932 120.352622 
L 332.307654 120.352622 
z
" style="fill:#1f77b4;"/>
   </g>
   <g id="patch_142">
    <path clip-path="url(#pae490b4278)" d="M 334.130502 224.28 
L 335.588781 224.28 
L 335.588781 125.095441 
L 334.130502 125.095441 
z
" style="fill:#1f77b4;"/>
   </g>
   <g id="patch_143">
    <path clip-path="url(#pae490b4278)" d="M 335.953351 224.28 
L 337.41163 224.28 
L 337.41163 110.52542 
L 335.953351 110.52542 
z
" style="fill:#1f77b4;"/>
   </g>
   <g id="patch_144">
    <path clip-path="url(#pae490b4278)" d="M 337.776199 224.28 
L 339.234478 224.28 
L 339.234478 128.12279 
L 337.776199 128.12279 
z
" style="fill:#1f77b4;"/>
   </g>
   <g id="patch_145">
    <path clip-path="url(#pae490b4278)" d="M 339.599048 224.28 
L 341.057327 224.28 
L 341.057327 124.019768 
L 339.599048 124.019768 
z
" style="fill:#1f77b4;"/>
   </g>
   <g id="patch_146">
    <path clip-path="url(#pae490b4278)" d="M 341.421897 224.28 
L 342.880175 224.28 
L 342.880175 125.408967 
L 341.421897 125.408967 
z
" style="fill:#1f77b4;"/>
   </g>
   <g id="patch_147">
    <path clip-path="url(#pae490b4278)" d="M 343.244745 224.28 
L 344.703024 224.28 
L 344.703024 79.977487 
L 343.244745 79.977487 
z
" style="fill:#1f77b4;"/>
   </g>
   <g id="patch_148">
    <path clip-path="url(#pae490b4278)" d="M 345.067594 224.28 
L 346.525873 224.28 
L 346.525873 116.644693 
L 345.067594 116.644693 
z
" style="fill:#1f77b4;"/>
   </g>
   <g id="patch_149">
    <path clip-path="url(#pae490b4278)" d="M 346.890442 224.28 
L 348.348721 224.28 
L 348.348721 112.474547 
L 346.890442 112.474547 
z
" style="fill:#1f77b4;"/>
   </g>
   <g id="patch_150">
    <path clip-path="url(#pae490b4278)" d="M 348.713291 224.28 
L 350.17157 224.28 
L 350.17157 90.831082 
L 348.713291 90.831082 
z
" style="fill:#1f77b4;"/>
   </g>
   <g id="patch_151">
    <path clip-path="url(#pae490b4278)" d="M 350.53614 224.28 
L 351.994419 224.28 
L 351.994419 106.050245 
L 350.53614 106.050245 
z
" style="fill:#1f77b4;"/>
   </g>
   <g id="patch_152">
    <path clip-path="url(#pae490b4278)" d="M 352.358988 224.28 
L 353.817267 224.28 
L 353.817267 100.955666 
L 352.358988 100.955666 
z
" style="fill:#1f77b4;"/>
   </g>
   <g id="patch_153">
    <path clip-path="url(#pae490b4278)" d="M 354.181837 224.28 
L 355.640116 224.28 
L 355.640116 128.596902 
L 354.181837 128.596902 
z
" style="fill:#1f77b4;"/>
   </g>
   <g id="patch_154">
    <path clip-path="url(#pae490b4278)" d="M 356.004685 224.28 
L 357.462964 224.28 
L 357.462964 144.600305 
L 356.004685 144.600305 
z
" style="fill:#1f77b4;"/>
   </g>
   <g id="patch_155">
    <path clip-path="url(#pae490b4278)" d="M 357.827534 224.28 
L 359.285813 224.28 
L 359.285813 193.109264 
L 357.827534 193.109264 
z
" style="fill:#1f77b4;"/>
   </g>
   <g id="patch_156">
    <path clip-path="url(#pae490b4278)" d="M 359.650383 224.28 
L 361.108662 224.28 
L 361.108662 119.993215 
L 359.650383 119.993215 
z
" style="fill:#1f77b4;"/>
   </g>
   <g id="patch_157">
    <path clip-path="url(#pae490b4278)" d="M 361.473231 224.28 
L 362.93151 224.28 
L 362.93151 61.104773 
L 361.473231 61.104773 
z
" style="fill:#1f77b4;"/>
   </g>
   <g id="patch_158">
    <path clip-path="url(#pae490b4278)" d="M 363.29608 224.28 
L 364.754359 224.28 
L 364.754359 167.391664 
L 363.29608 167.391664 
z
" style="fill:#1f77b4;"/>
   </g>
   <g id="patch_159">
    <path clip-path="url(#pae490b4278)" d="M 365.118929 224.28 
L 366.577207 224.28 
L 366.577207 143.689466 
L 365.118929 143.689466 
z
" style="fill:#1f77b4;"/>
   </g>
   <g id="patch_160">
    <path clip-path="url(#pae490b4278)" d="M 366.941777 224.28 
L 368.400056 224.28 
L 368.400056 157.068259 
L 366.941777 157.068259 
z
" style="fill:#1f77b4;"/>
   </g>
   <g id="patch_161">
    <path clip-path="url(#pae490b4278)" d="M 368.764626 224.28 
L 370.222905 224.28 
L 370.222905 152.958439 
L 368.764626 152.958439 
z
" style="fill:#1f77b4;"/>
   </g>
   <g id="patch_162">
    <path clip-path="url(#pae490b4278)" d="M 370.587474 224.28 
L 372.045753 224.28 
L 372.045753 156.226243 
L 370.587474 156.226243 
z
" style="fill:#1f77b4;"/>
   </g>
   <g id="patch_163">
    <path clip-path="url(#pae490b4278)" d="M 372.410323 224.28 
L 373.868602 224.28 
L 373.868602 133.462922 
L 372.410323 133.462922 
z
" style="fill:#1f77b4;"/>
   </g>
   <g id="patch_164">
    <path clip-path="url(#pae490b4278)" d="M 374.233172 224.28 
L 375.69145 224.28 
L 375.69145 155.722393 
L 374.233172 155.722393 
z
" style="fill:#1f77b4;"/>
   </g>
   <g id="patch_165">
    <path clip-path="url(#pae490b4278)" d="M 376.05602 224.28 
L 377.514299 224.28 
L 377.514299 155.068153 
L 376.05602 155.068153 
z
" style="fill:#1f77b4;"/>
   </g>
   <g id="patch_166">
    <path clip-path="url(#pae490b4278)" d="M 377.878869 224.28 
L 379.337148 224.28 
L 379.337148 152.750272 
L 377.878869 152.750272 
z
" style="fill:#1f77b4;"/>
   </g>
   <g id="patch_167">
    <path clip-path="url(#pae490b4278)" d="M 379.701717 224.28 
L 381.159996 224.28 
L 381.159996 142.843202 
L 379.701717 142.843202 
z
" style="fill:#1f77b4;"/>
   </g>
   <g id="patch_168">
    <path clip-path="url(#pae490b4278)" d="M 381.524566 224.28 
L 382.982845 224.28 
L 382.982845 158.635038 
L 381.524566 158.635038 
z
" style="fill:#1f77b4;"/>
   </g>
   <g id="patch_169">
    <path clip-path="url(#pae490b4278)" d="M 383.347415 224.28 
L 384.805693 224.28 
L 384.805693 161.27749 
L 383.347415 161.27749 
z
" style="fill:#1f77b4;"/>
   </g>
   <g id="patch_170">
    <path clip-path="url(#pae490b4278)" d="M 385.170263 224.28 
L 386.628542 224.28 
L 386.628542 162.957273 
L 385.170263 162.957273 
z
" style="fill:#1f77b4;"/>
   </g>
   <g id="patch_171">
    <path clip-path="url(#pae490b4278)" d="M 386.993112 224.28 
L 388.451391 224.28 
L 388.451391 146.642045 
L 386.993112 146.642045 
z
" style="fill:#1f77b4;"/>
   </g>
   <g id="patch_172">
    <path clip-path="url(#pae490b4278)" d="M 388.81596 224.28 
L 390.274239 224.28 
L 390.274239 149.564036 
L 388.81596 149.564036 
z
" style="fill:#1f77b4;"/>
   </g>
   <g id="patch_173">
    <path clip-path="url(#pae490b4278)" d="M 390.638809 224.28 
L 392.097088 224.28 
L 392.097088 145.7465 
L 390.638809 145.7465 
z
" style="fill:#1f77b4;"/>
   </g>
   <g id="patch_174">
    <path clip-path="url(#pae490b4278)" d="M 392.461658 224.28 
L 393.919937 224.28 
L 393.919937 156.244936 
L 392.461658 156.244936 
z
" style="fill:#1f77b4;"/>
   </g>
   <g id="patch_175">
    <path clip-path="url(#pae490b4278)" d="M 394.284506 224.28 
L 395.742785 224.28 
L 395.742785 122.469982 
L 394.284506 122.469982 
z
" style="fill:#1f77b4;"/>
   </g>
   <g id="patch_176">
    <path clip-path="url(#pae490b4278)" d="M 396.107355 224.28 
L 397.565634 224.28 
L 397.565634 143.872993 
L 396.107355 143.872993 
z
" style="fill:#1f77b4;"/>
   </g>
   <g id="patch_177">
    <path clip-path="url(#pae490b4278)" d="M 397.930203 224.28 
L 399.388482 224.28 
L 399.388482 147.457721 
L 397.930203 147.457721 
z
" style="fill:#1f77b4;"/>
   </g>
   <g id="patch_178">
    <path clip-path="url(#pae490b4278)" d="M 399.753052 224.28 
L 401.211331 224.28 
L 401.211331 159.826265 
L 399.753052 159.826265 
z
" style="fill:#1f77b4;"/>
   </g>
   <g id="patch_179">
    <path clip-path="url(#pae490b4278)" d="M 401.575901 224.28 
L 403.03418 224.28 
L 403.03418 132.369406 
L 401.575901 132.369406 
z
" style="fill:#1f77b4;"/>
   </g>
   <g id="patch_180">
    <path clip-path="url(#pae490b4278)" d="M 403.398749 224.28 
L 404.857028 224.28 
L 404.857028 142.296868 
L 403.398749 142.296868 
z
" style="fill:#1f77b4;"/>
   </g>
   <g id="patch_181">
    <path clip-path="url(#pae490b4278)" d="M 405.221598 224.28 
L 406.679877 224.28 
L 406.679877 157.676618 
L 405.221598 157.676618 
z
" style="fill:#1f77b4;"/>
   </g>
   <g id="patch_182">
    <path clip-path="url(#pae490b4278)" d="M 407.044447 224.28 
L 408.502725 224.28 
L 408.502725 137.732479 
L 407.044447 137.732479 
z
" style="fill:#1f77b4;"/>
   </g>
   <g id="patch_183">
    <path clip-path="url(#pae490b4278)" d="M 408.867295 224.28 
L 410.325574 224.28 
L 410.325574 137.248171 
L 408.867295 137.248171 
z
" style="fill:#1f77b4;"/>
   </g>
   <g id="patch_184">
    <path clip-path="url(#pae490b4278)" d="M 410.690144 224.28 
L 412.148423 224.28 
L 412.148423 160.201816 
L 410.690144 160.201816 
z
" style="fill:#1f77b4;"/>
   </g>
   <g id="patch_185">
    <path clip-path="url(#pae490b4278)" d="M 412.512992 224.28 
L 413.971271 224.28 
L 413.971271 136.158053 
L 412.512992 136.158053 
z
" style="fill:#1f77b4;"/>
   </g>
   <g id="patch_186">
    <path clip-path="url(#pae490b4278)" d="M 414.335841 224.28 
L 415.79412 224.28 
L 415.79412 139.315401 
L 414.335841 139.315401 
z
" style="fill:#1f77b4;"/>
   </g>
   <g id="patch_187">
    <path clip-path="url(#pae490b4278)" d="M 416.15869 224.28 
L 417.616968 224.28 
L 417.616968 121.909205 
L 416.15869 121.909205 
z
" style="fill:#1f77b4;"/>
   </g>
   <g id="patch_188">
    <path clip-path="url(#pae490b4278)" d="M 417.981538 224.28 
L 419.439817 224.28 
L 419.439817 133.268349 
L 417.981538 133.268349 
z
" style="fill:#1f77b4;"/>
   </g>
   <g id="patch_189">
    <path clip-path="url(#pae490b4278)" d="M 419.804387 224.28 
L 421.262666 224.28 
L 421.262666 145.857806 
L 419.804387 145.857806 
z
" style="fill:#1f77b4;"/>
   </g>
   <g id="patch_190">
    <path clip-path="url(#pae490b4278)" d="M 421.627235 224.28 
L 423.085514 224.28 
L 423.085514 162.829824 
L 421.627235 162.829824 
z
" style="fill:#1f77b4;"/>
   </g>
   <g id="patch_191">
    <path clip-path="url(#pae490b4278)" d="M 423.450084 224.28 
L 424.908363 224.28 
L 424.908363 145.121148 
L 423.450084 145.121148 
z
" style="fill:#1f77b4;"/>
   </g>
   <g id="patch_192">
    <path clip-path="url(#pae490b4278)" d="M 425.272933 224.28 
L 426.731211 224.28 
L 426.731211 151.912504 
L 425.272933 151.912504 
z
" style="fill:#1f77b4;"/>
   </g>
   <g id="patch_193">
    <path clip-path="url(#pae490b4278)" d="M 427.095781 224.28 
L 428.55406 224.28 
L 428.55406 177.831474 
L 427.095781 177.831474 
z
" style="fill:#1f77b4;"/>
   </g>
   <g id="patch_194">
    <path clip-path="url(#pae490b4278)" d="M 428.91863 224.28 
L 430.376909 224.28 
L 430.376909 140.446302 
L 428.91863 140.446302 
z
" style="fill:#1f77b4;"/>
   </g>
   <g id="patch_195">
    <path clip-path="url(#pae490b4278)" d="M 430.741478 224.28 
L 432.199757 224.28 
L 432.199757 148.377057 
L 430.741478 148.377057 
z
" style="fill:#1f77b4;"/>
   </g>
   <g id="patch_196">
    <path clip-path="url(#pae490b4278)" d="M 432.564327 224.28 
L 434.022606 224.28 
L 434.022606 154.225287 
L 432.564327 154.225287 
z
" style="fill:#1f77b4;"/>
   </g>
   <g id="patch_197">
    <path clip-path="url(#pae490b4278)" d="M 434.387176 224.28 
L 435.845455 224.28 
L 435.845455 149.697433 
L 434.387176 149.697433 
z
" style="fill:#1f77b4;"/>
   </g>
   <g id="matplotlib.axis_1">
    <g id="xtick_1">
     <g id="line2d_1">
      <defs>
       <path d="M 0 0 
L 0 3.5 
" id="mf3946e4451" style="stroke:#000000;stroke-width:0.8;"/>
      </defs>
      <g>
       <use style="stroke:#000000;stroke-width:0.8;" x="79.660836" xlink:href="#mf3946e4451" y="224.28"/>
      </g>
     </g>
     <g id="text_1">
      <!-- 0 -->
      <defs>
       <path d="M 31.78125 66.40625 
Q 24.171875 66.40625 20.328125 58.90625 
Q 16.5 51.421875 16.5 36.375 
Q 16.5 21.390625 20.328125 13.890625 
Q 24.171875 6.390625 31.78125 6.390625 
Q 39.453125 6.390625 43.28125 13.890625 
Q 47.125 21.390625 47.125 36.375 
Q 47.125 51.421875 43.28125 58.90625 
Q 39.453125 66.40625 31.78125 66.40625 
z
M 31.78125 74.21875 
Q 44.046875 74.21875 50.515625 64.515625 
Q 56.984375 54.828125 56.984375 36.375 
Q 56.984375 17.96875 50.515625 8.265625 
Q 44.046875 -1.421875 31.78125 -1.421875 
Q 19.53125 -1.421875 13.0625 8.265625 
Q 6.59375 17.96875 6.59375 36.375 
Q 6.59375 54.828125 13.0625 64.515625 
Q 19.53125 74.21875 31.78125 74.21875 
z
" id="DejaVuSans-30"/>
      </defs>
      <g transform="translate(76.479586 238.878438)scale(0.1 -0.1)">
       <use xlink:href="#DejaVuSans-30"/>
      </g>
     </g>
    </g>
    <g id="xtick_2">
     <g id="line2d_2">
      <g>
       <use style="stroke:#000000;stroke-width:0.8;" x="125.232052" xlink:href="#mf3946e4451" y="224.28"/>
      </g>
     </g>
     <g id="text_2">
      <!-- 25 -->
      <defs>
       <path d="M 19.1875 8.296875 
L 53.609375 8.296875 
L 53.609375 0 
L 7.328125 0 
L 7.328125 8.296875 
Q 12.9375 14.109375 22.625 23.890625 
Q 32.328125 33.6875 34.8125 36.53125 
Q 39.546875 41.84375 41.421875 45.53125 
Q 43.3125 49.21875 43.3125 52.78125 
Q 43.3125 58.59375 39.234375 62.25 
Q 35.15625 65.921875 28.609375 65.921875 
Q 23.96875 65.921875 18.8125 64.3125 
Q 13.671875 62.703125 7.8125 59.421875 
L 7.8125 69.390625 
Q 13.765625 71.78125 18.9375 73 
Q 24.125 74.21875 28.421875 74.21875 
Q 39.75 74.21875 46.484375 68.546875 
Q 53.21875 62.890625 53.21875 53.421875 
Q 53.21875 48.921875 51.53125 44.890625 
Q 49.859375 40.875 45.40625 35.40625 
Q 44.1875 33.984375 37.640625 27.21875 
Q 31.109375 20.453125 19.1875 8.296875 
z
" id="DejaVuSans-32"/>
       <path d="M 10.796875 72.90625 
L 49.515625 72.90625 
L 49.515625 64.59375 
L 19.828125 64.59375 
L 19.828125 46.734375 
Q 21.96875 47.46875 24.109375 47.828125 
Q 26.265625 48.1875 28.421875 48.1875 
Q 40.625 48.1875 47.75 41.5 
Q 54.890625 34.8125 54.890625 23.390625 
Q 54.890625 11.625 47.5625 5.09375 
Q 40.234375 -1.421875 26.90625 -1.421875 
Q 22.3125 -1.421875 17.546875 -0.640625 
Q 12.796875 0.140625 7.71875 1.703125 
L 7.71875 11.625 
Q 12.109375 9.234375 16.796875 8.0625 
Q 21.484375 6.890625 26.703125 6.890625 
Q 35.15625 6.890625 40.078125 11.328125 
Q 45.015625 15.765625 45.015625 23.390625 
Q 45.015625 31 40.078125 35.4375 
Q 35.15625 39.890625 26.703125 39.890625 
Q 22.75 39.890625 18.8125 39.015625 
Q 14.890625 38.140625 10.796875 36.28125 
z
" id="DejaVuSans-35"/>
      </defs>
      <g transform="translate(118.869552 238.878438)scale(0.1 -0.1)">
       <use xlink:href="#DejaVuSans-32"/>
       <use x="63.623047" xlink:href="#DejaVuSans-35"/>
      </g>
     </g>
    </g>
    <g id="xtick_3">
     <g id="line2d_3">
      <g>
       <use style="stroke:#000000;stroke-width:0.8;" x="170.803267" xlink:href="#mf3946e4451" y="224.28"/>
      </g>
     </g>
     <g id="text_3">
      <!-- 50 -->
      <g transform="translate(164.440767 238.878438)scale(0.1 -0.1)">
       <use xlink:href="#DejaVuSans-35"/>
       <use x="63.623047" xlink:href="#DejaVuSans-30"/>
      </g>
     </g>
    </g>
    <g id="xtick_4">
     <g id="line2d_4">
      <g>
       <use style="stroke:#000000;stroke-width:0.8;" x="216.374482" xlink:href="#mf3946e4451" y="224.28"/>
      </g>
     </g>
     <g id="text_4">
      <!-- 75 -->
      <defs>
       <path d="M 8.203125 72.90625 
L 55.078125 72.90625 
L 55.078125 68.703125 
L 28.609375 0 
L 18.3125 0 
L 43.21875 64.59375 
L 8.203125 64.59375 
z
" id="DejaVuSans-37"/>
      </defs>
      <g transform="translate(210.011982 238.878438)scale(0.1 -0.1)">
       <use xlink:href="#DejaVuSans-37"/>
       <use x="63.623047" xlink:href="#DejaVuSans-35"/>
      </g>
     </g>
    </g>
    <g id="xtick_5">
     <g id="line2d_5">
      <g>
       <use style="stroke:#000000;stroke-width:0.8;" x="261.945697" xlink:href="#mf3946e4451" y="224.28"/>
      </g>
     </g>
     <g id="text_5">
      <!-- 100 -->
      <defs>
       <path d="M 12.40625 8.296875 
L 28.515625 8.296875 
L 28.515625 63.921875 
L 10.984375 60.40625 
L 10.984375 69.390625 
L 28.421875 72.90625 
L 38.28125 72.90625 
L 38.28125 8.296875 
L 54.390625 8.296875 
L 54.390625 0 
L 12.40625 0 
z
" id="DejaVuSans-31"/>
      </defs>
      <g transform="translate(252.401947 238.878438)scale(0.1 -0.1)">
       <use xlink:href="#DejaVuSans-31"/>
       <use x="63.623047" xlink:href="#DejaVuSans-30"/>
       <use x="127.246094" xlink:href="#DejaVuSans-30"/>
      </g>
     </g>
    </g>
    <g id="xtick_6">
     <g id="line2d_6">
      <g>
       <use style="stroke:#000000;stroke-width:0.8;" x="307.516912" xlink:href="#mf3946e4451" y="224.28"/>
      </g>
     </g>
     <g id="text_6">
      <!-- 125 -->
      <g transform="translate(297.973162 238.878438)scale(0.1 -0.1)">
       <use xlink:href="#DejaVuSans-31"/>
       <use x="63.623047" xlink:href="#DejaVuSans-32"/>
       <use x="127.246094" xlink:href="#DejaVuSans-35"/>
      </g>
     </g>
    </g>
    <g id="xtick_7">
     <g id="line2d_7">
      <g>
       <use style="stroke:#000000;stroke-width:0.8;" x="353.088128" xlink:href="#mf3946e4451" y="224.28"/>
      </g>
     </g>
     <g id="text_7">
      <!-- 150 -->
      <g transform="translate(343.544378 238.878438)scale(0.1 -0.1)">
       <use xlink:href="#DejaVuSans-31"/>
       <use x="63.623047" xlink:href="#DejaVuSans-35"/>
       <use x="127.246094" xlink:href="#DejaVuSans-30"/>
      </g>
     </g>
    </g>
    <g id="xtick_8">
     <g id="line2d_8">
      <g>
       <use style="stroke:#000000;stroke-width:0.8;" x="398.659343" xlink:href="#mf3946e4451" y="224.28"/>
      </g>
     </g>
     <g id="text_8">
      <!-- 175 -->
      <g transform="translate(389.115593 238.878438)scale(0.1 -0.1)">
       <use xlink:href="#DejaVuSans-31"/>
       <use x="63.623047" xlink:href="#DejaVuSans-37"/>
       <use x="127.246094" xlink:href="#DejaVuSans-35"/>
      </g>
     </g>
    </g>
    <g id="xtick_9">
     <g id="line2d_9">
      <g>
       <use style="stroke:#000000;stroke-width:0.8;" x="444.230558" xlink:href="#mf3946e4451" y="224.28"/>
      </g>
     </g>
     <g id="text_9">
      <!-- 200 -->
      <g transform="translate(434.686808 238.878438)scale(0.1 -0.1)">
       <use xlink:href="#DejaVuSans-32"/>
       <use x="63.623047" xlink:href="#DejaVuSans-30"/>
       <use x="127.246094" xlink:href="#DejaVuSans-30"/>
      </g>
     </g>
    </g>
    <g id="text_10">
     <!-- number of chunk (from beginning to end) -->
     <defs>
      <path d="M 54.890625 33.015625 
L 54.890625 0 
L 45.90625 0 
L 45.90625 32.71875 
Q 45.90625 40.484375 42.875 44.328125 
Q 39.84375 48.1875 33.796875 48.1875 
Q 26.515625 48.1875 22.3125 43.546875 
Q 18.109375 38.921875 18.109375 30.90625 
L 18.109375 0 
L 9.078125 0 
L 9.078125 54.6875 
L 18.109375 54.6875 
L 18.109375 46.1875 
Q 21.34375 51.125 25.703125 53.5625 
Q 30.078125 56 35.796875 56 
Q 45.21875 56 50.046875 50.171875 
Q 54.890625 44.34375 54.890625 33.015625 
z
" id="DejaVuSans-6e"/>
      <path d="M 8.5 21.578125 
L 8.5 54.6875 
L 17.484375 54.6875 
L 17.484375 21.921875 
Q 17.484375 14.15625 20.5 10.265625 
Q 23.53125 6.390625 29.59375 6.390625 
Q 36.859375 6.390625 41.078125 11.03125 
Q 45.3125 15.671875 45.3125 23.6875 
L 45.3125 54.6875 
L 54.296875 54.6875 
L 54.296875 0 
L 45.3125 0 
L 45.3125 8.40625 
Q 42.046875 3.421875 37.71875 1 
Q 33.40625 -1.421875 27.6875 -1.421875 
Q 18.265625 -1.421875 13.375 4.4375 
Q 8.5 10.296875 8.5 21.578125 
z
M 31.109375 56 
z
" id="DejaVuSans-75"/>
      <path d="M 52 44.1875 
Q 55.375 50.25 60.0625 53.125 
Q 64.75 56 71.09375 56 
Q 79.640625 56 84.28125 50.015625 
Q 88.921875 44.046875 88.921875 33.015625 
L 88.921875 0 
L 79.890625 0 
L 79.890625 32.71875 
Q 79.890625 40.578125 77.09375 44.375 
Q 74.3125 48.1875 68.609375 48.1875 
Q 61.625 48.1875 57.5625 43.546875 
Q 53.515625 38.921875 53.515625 30.90625 
L 53.515625 0 
L 44.484375 0 
L 44.484375 32.71875 
Q 44.484375 40.625 41.703125 44.40625 
Q 38.921875 48.1875 33.109375 48.1875 
Q 26.21875 48.1875 22.15625 43.53125 
Q 18.109375 38.875 18.109375 30.90625 
L 18.109375 0 
L 9.078125 0 
L 9.078125 54.6875 
L 18.109375 54.6875 
L 18.109375 46.1875 
Q 21.1875 51.21875 25.484375 53.609375 
Q 29.78125 56 35.6875 56 
Q 41.65625 56 45.828125 52.96875 
Q 50 49.953125 52 44.1875 
z
" id="DejaVuSans-6d"/>
      <path d="M 48.6875 27.296875 
Q 48.6875 37.203125 44.609375 42.84375 
Q 40.53125 48.484375 33.40625 48.484375 
Q 26.265625 48.484375 22.1875 42.84375 
Q 18.109375 37.203125 18.109375 27.296875 
Q 18.109375 17.390625 22.1875 11.75 
Q 26.265625 6.109375 33.40625 6.109375 
Q 40.53125 6.109375 44.609375 11.75 
Q 48.6875 17.390625 48.6875 27.296875 
z
M 18.109375 46.390625 
Q 20.953125 51.265625 25.265625 53.625 
Q 29.59375 56 35.59375 56 
Q 45.5625 56 51.78125 48.09375 
Q 58.015625 40.1875 58.015625 27.296875 
Q 58.015625 14.40625 51.78125 6.484375 
Q 45.5625 -1.421875 35.59375 -1.421875 
Q 29.59375 -1.421875 25.265625 0.953125 
Q 20.953125 3.328125 18.109375 8.203125 
L 18.109375 0 
L 9.078125 0 
L 9.078125 75.984375 
L 18.109375 75.984375 
z
" id="DejaVuSans-62"/>
      <path d="M 56.203125 29.59375 
L 56.203125 25.203125 
L 14.890625 25.203125 
Q 15.484375 15.921875 20.484375 11.0625 
Q 25.484375 6.203125 34.421875 6.203125 
Q 39.59375 6.203125 44.453125 7.46875 
Q 49.3125 8.734375 54.109375 11.28125 
L 54.109375 2.78125 
Q 49.265625 0.734375 44.1875 -0.34375 
Q 39.109375 -1.421875 33.890625 -1.421875 
Q 20.796875 -1.421875 13.15625 6.1875 
Q 5.515625 13.8125 5.515625 26.8125 
Q 5.515625 40.234375 12.765625 48.109375 
Q 20.015625 56 32.328125 56 
Q 43.359375 56 49.78125 48.890625 
Q 56.203125 41.796875 56.203125 29.59375 
z
M 47.21875 32.234375 
Q 47.125 39.59375 43.09375 43.984375 
Q 39.0625 48.390625 32.421875 48.390625 
Q 24.90625 48.390625 20.390625 44.140625 
Q 15.875 39.890625 15.1875 32.171875 
z
" id="DejaVuSans-65"/>
      <path d="M 41.109375 46.296875 
Q 39.59375 47.171875 37.8125 47.578125 
Q 36.03125 48 33.890625 48 
Q 26.265625 48 22.1875 43.046875 
Q 18.109375 38.09375 18.109375 28.8125 
L 18.109375 0 
L 9.078125 0 
L 9.078125 54.6875 
L 18.109375 54.6875 
L 18.109375 46.1875 
Q 20.953125 51.171875 25.484375 53.578125 
Q 30.03125 56 36.53125 56 
Q 37.453125 56 38.578125 55.875 
Q 39.703125 55.765625 41.0625 55.515625 
z
" id="DejaVuSans-72"/>
      <path id="DejaVuSans-20"/>
      <path d="M 30.609375 48.390625 
Q 23.390625 48.390625 19.1875 42.75 
Q 14.984375 37.109375 14.984375 27.296875 
Q 14.984375 17.484375 19.15625 11.84375 
Q 23.34375 6.203125 30.609375 6.203125 
Q 37.796875 6.203125 41.984375 11.859375 
Q 46.1875 17.53125 46.1875 27.296875 
Q 46.1875 37.015625 41.984375 42.703125 
Q 37.796875 48.390625 30.609375 48.390625 
z
M 30.609375 56 
Q 42.328125 56 49.015625 48.375 
Q 55.71875 40.765625 55.71875 27.296875 
Q 55.71875 13.875 49.015625 6.21875 
Q 42.328125 -1.421875 30.609375 -1.421875 
Q 18.84375 -1.421875 12.171875 6.21875 
Q 5.515625 13.875 5.515625 27.296875 
Q 5.515625 40.765625 12.171875 48.375 
Q 18.84375 56 30.609375 56 
z
" id="DejaVuSans-6f"/>
      <path d="M 37.109375 75.984375 
L 37.109375 68.5 
L 28.515625 68.5 
Q 23.6875 68.5 21.796875 66.546875 
Q 19.921875 64.59375 19.921875 59.515625 
L 19.921875 54.6875 
L 34.71875 54.6875 
L 34.71875 47.703125 
L 19.921875 47.703125 
L 19.921875 0 
L 10.890625 0 
L 10.890625 47.703125 
L 2.296875 47.703125 
L 2.296875 54.6875 
L 10.890625 54.6875 
L 10.890625 58.5 
Q 10.890625 67.625 15.140625 71.796875 
Q 19.390625 75.984375 28.609375 75.984375 
z
" id="DejaVuSans-66"/>
      <path d="M 48.78125 52.59375 
L 48.78125 44.1875 
Q 44.96875 46.296875 41.140625 47.34375 
Q 37.3125 48.390625 33.40625 48.390625 
Q 24.65625 48.390625 19.8125 42.84375 
Q 14.984375 37.3125 14.984375 27.296875 
Q 14.984375 17.28125 19.8125 11.734375 
Q 24.65625 6.203125 33.40625 6.203125 
Q 37.3125 6.203125 41.140625 7.25 
Q 44.96875 8.296875 48.78125 10.40625 
L 48.78125 2.09375 
Q 45.015625 0.34375 40.984375 -0.53125 
Q 36.96875 -1.421875 32.421875 -1.421875 
Q 20.0625 -1.421875 12.78125 6.34375 
Q 5.515625 14.109375 5.515625 27.296875 
Q 5.515625 40.671875 12.859375 48.328125 
Q 20.21875 56 33.015625 56 
Q 37.15625 56 41.109375 55.140625 
Q 45.0625 54.296875 48.78125 52.59375 
z
" id="DejaVuSans-63"/>
      <path d="M 54.890625 33.015625 
L 54.890625 0 
L 45.90625 0 
L 45.90625 32.71875 
Q 45.90625 40.484375 42.875 44.328125 
Q 39.84375 48.1875 33.796875 48.1875 
Q 26.515625 48.1875 22.3125 43.546875 
Q 18.109375 38.921875 18.109375 30.90625 
L 18.109375 0 
L 9.078125 0 
L 9.078125 75.984375 
L 18.109375 75.984375 
L 18.109375 46.1875 
Q 21.34375 51.125 25.703125 53.5625 
Q 30.078125 56 35.796875 56 
Q 45.21875 56 50.046875 50.171875 
Q 54.890625 44.34375 54.890625 33.015625 
z
" id="DejaVuSans-68"/>
      <path d="M 9.078125 75.984375 
L 18.109375 75.984375 
L 18.109375 31.109375 
L 44.921875 54.6875 
L 56.390625 54.6875 
L 27.390625 29.109375 
L 57.625 0 
L 45.90625 0 
L 18.109375 26.703125 
L 18.109375 0 
L 9.078125 0 
z
" id="DejaVuSans-6b"/>
      <path d="M 31 75.875 
Q 24.46875 64.65625 21.28125 53.65625 
Q 18.109375 42.671875 18.109375 31.390625 
Q 18.109375 20.125 21.3125 9.0625 
Q 24.515625 -2 31 -13.1875 
L 23.1875 -13.1875 
Q 15.875 -1.703125 12.234375 9.375 
Q 8.59375 20.453125 8.59375 31.390625 
Q 8.59375 42.28125 12.203125 53.3125 
Q 15.828125 64.359375 23.1875 75.875 
z
" id="DejaVuSans-28"/>
      <path d="M 45.40625 27.984375 
Q 45.40625 37.75 41.375 43.109375 
Q 37.359375 48.484375 30.078125 48.484375 
Q 22.859375 48.484375 18.828125 43.109375 
Q 14.796875 37.75 14.796875 27.984375 
Q 14.796875 18.265625 18.828125 12.890625 
Q 22.859375 7.515625 30.078125 7.515625 
Q 37.359375 7.515625 41.375 12.890625 
Q 45.40625 18.265625 45.40625 27.984375 
z
M 54.390625 6.78125 
Q 54.390625 -7.171875 48.1875 -13.984375 
Q 42 -20.796875 29.203125 -20.796875 
Q 24.46875 -20.796875 20.265625 -20.09375 
Q 16.0625 -19.390625 12.109375 -17.921875 
L 12.109375 -9.1875 
Q 16.0625 -11.328125 19.921875 -12.34375 
Q 23.78125 -13.375 27.78125 -13.375 
Q 36.625 -13.375 41.015625 -8.765625 
Q 45.40625 -4.15625 45.40625 5.171875 
L 45.40625 9.625 
Q 42.625 4.78125 38.28125 2.390625 
Q 33.9375 0 27.875 0 
Q 17.828125 0 11.671875 7.65625 
Q 5.515625 15.328125 5.515625 27.984375 
Q 5.515625 40.671875 11.671875 48.328125 
Q 17.828125 56 27.875 56 
Q 33.9375 56 38.28125 53.609375 
Q 42.625 51.21875 45.40625 46.390625 
L 45.40625 54.6875 
L 54.390625 54.6875 
z
" id="DejaVuSans-67"/>
      <path d="M 9.421875 54.6875 
L 18.40625 54.6875 
L 18.40625 0 
L 9.421875 0 
z
M 9.421875 75.984375 
L 18.40625 75.984375 
L 18.40625 64.59375 
L 9.421875 64.59375 
z
" id="DejaVuSans-69"/>
      <path d="M 18.3125 70.21875 
L 18.3125 54.6875 
L 36.8125 54.6875 
L 36.8125 47.703125 
L 18.3125 47.703125 
L 18.3125 18.015625 
Q 18.3125 11.328125 20.140625 9.421875 
Q 21.96875 7.515625 27.59375 7.515625 
L 36.8125 7.515625 
L 36.8125 0 
L 27.59375 0 
Q 17.1875 0 13.234375 3.875 
Q 9.28125 7.765625 9.28125 18.015625 
L 9.28125 47.703125 
L 2.6875 47.703125 
L 2.6875 54.6875 
L 9.28125 54.6875 
L 9.28125 70.21875 
z
" id="DejaVuSans-74"/>
      <path d="M 45.40625 46.390625 
L 45.40625 75.984375 
L 54.390625 75.984375 
L 54.390625 0 
L 45.40625 0 
L 45.40625 8.203125 
Q 42.578125 3.328125 38.25 0.953125 
Q 33.9375 -1.421875 27.875 -1.421875 
Q 17.96875 -1.421875 11.734375 6.484375 
Q 5.515625 14.40625 5.515625 27.296875 
Q 5.515625 40.1875 11.734375 48.09375 
Q 17.96875 56 27.875 56 
Q 33.9375 56 38.25 53.625 
Q 42.578125 51.265625 45.40625 46.390625 
z
M 14.796875 27.296875 
Q 14.796875 17.390625 18.875 11.75 
Q 22.953125 6.109375 30.078125 6.109375 
Q 37.203125 6.109375 41.296875 11.75 
Q 45.40625 17.390625 45.40625 27.296875 
Q 45.40625 37.203125 41.296875 42.84375 
Q 37.203125 48.484375 30.078125 48.484375 
Q 22.953125 48.484375 18.875 42.84375 
Q 14.796875 37.203125 14.796875 27.296875 
z
" id="DejaVuSans-64"/>
      <path d="M 8.015625 75.875 
L 15.828125 75.875 
Q 23.140625 64.359375 26.78125 53.3125 
Q 30.421875 42.28125 30.421875 31.390625 
Q 30.421875 20.453125 26.78125 9.375 
Q 23.140625 -1.703125 15.828125 -13.1875 
L 8.015625 -13.1875 
Q 14.5 -2 17.703125 9.0625 
Q 20.90625 20.125 20.90625 31.390625 
Q 20.90625 42.671875 17.703125 53.65625 
Q 14.5 64.65625 8.015625 75.875 
z
" id="DejaVuSans-29"/>
     </defs>
     <g transform="translate(154.313281 252.556563)scale(0.1 -0.1)">
      <use xlink:href="#DejaVuSans-6e"/>
      <use x="63.378906" xlink:href="#DejaVuSans-75"/>
      <use x="126.757812" xlink:href="#DejaVuSans-6d"/>
      <use x="224.169922" xlink:href="#DejaVuSans-62"/>
      <use x="287.646484" xlink:href="#DejaVuSans-65"/>
      <use x="349.169922" xlink:href="#DejaVuSans-72"/>
      <use x="390.283203" xlink:href="#DejaVuSans-20"/>
      <use x="422.070312" xlink:href="#DejaVuSans-6f"/>
      <use x="483.251953" xlink:href="#DejaVuSans-66"/>
      <use x="518.457031" xlink:href="#DejaVuSans-20"/>
      <use x="550.244141" xlink:href="#DejaVuSans-63"/>
      <use x="605.224609" xlink:href="#DejaVuSans-68"/>
      <use x="668.603516" xlink:href="#DejaVuSans-75"/>
      <use x="731.982422" xlink:href="#DejaVuSans-6e"/>
      <use x="795.361328" xlink:href="#DejaVuSans-6b"/>
      <use x="853.271484" xlink:href="#DejaVuSans-20"/>
      <use x="885.058594" xlink:href="#DejaVuSans-28"/>
      <use x="924.072266" xlink:href="#DejaVuSans-66"/>
      <use x="959.277344" xlink:href="#DejaVuSans-72"/>
      <use x="1000.359375" xlink:href="#DejaVuSans-6f"/>
      <use x="1061.541016" xlink:href="#DejaVuSans-6d"/>
      <use x="1158.953125" xlink:href="#DejaVuSans-20"/>
      <use x="1190.740234" xlink:href="#DejaVuSans-62"/>
      <use x="1254.216797" xlink:href="#DejaVuSans-65"/>
      <use x="1315.740234" xlink:href="#DejaVuSans-67"/>
      <use x="1379.216797" xlink:href="#DejaVuSans-69"/>
      <use x="1407" xlink:href="#DejaVuSans-6e"/>
      <use x="1470.378906" xlink:href="#DejaVuSans-6e"/>
      <use x="1533.757812" xlink:href="#DejaVuSans-69"/>
      <use x="1561.541016" xlink:href="#DejaVuSans-6e"/>
      <use x="1624.919922" xlink:href="#DejaVuSans-67"/>
      <use x="1688.396484" xlink:href="#DejaVuSans-20"/>
      <use x="1720.183594" xlink:href="#DejaVuSans-74"/>
      <use x="1759.392578" xlink:href="#DejaVuSans-6f"/>
      <use x="1820.574219" xlink:href="#DejaVuSans-20"/>
      <use x="1852.361328" xlink:href="#DejaVuSans-65"/>
      <use x="1913.884766" xlink:href="#DejaVuSans-6e"/>
      <use x="1977.263672" xlink:href="#DejaVuSans-64"/>
      <use x="2040.740234" xlink:href="#DejaVuSans-29"/>
     </g>
    </g>
   </g>
   <g id="matplotlib.axis_2">
    <g id="ytick_1">
     <g id="line2d_10">
      <defs>
       <path d="M 0 0 
L -3.5 0 
" id="m53ff5f9358" style="stroke:#000000;stroke-width:0.8;"/>
      </defs>
      <g>
       <use style="stroke:#000000;stroke-width:0.8;" x="63" xlink:href="#m53ff5f9358" y="224.28"/>
      </g>
     </g>
     <g id="text_11">
      <!-- 0 -->
      <g transform="translate(49.6375 228.079219)scale(0.1 -0.1)">
       <use xlink:href="#DejaVuSans-30"/>
      </g>
     </g>
    </g>
    <g id="ytick_2">
     <g id="line2d_11">
      <g>
       <use style="stroke:#000000;stroke-width:0.8;" x="63" xlink:href="#m53ff5f9358" y="181.796851"/>
      </g>
     </g>
     <g id="text_12">
      <!-- 5 -->
      <g transform="translate(49.6375 185.596069)scale(0.1 -0.1)">
       <use xlink:href="#DejaVuSans-35"/>
      </g>
     </g>
    </g>
    <g id="ytick_3">
     <g id="line2d_12">
      <g>
       <use style="stroke:#000000;stroke-width:0.8;" x="63" xlink:href="#m53ff5f9358" y="139.313701"/>
      </g>
     </g>
     <g id="text_13">
      <!-- 10 -->
      <g transform="translate(43.275 143.11292)scale(0.1 -0.1)">
       <use xlink:href="#DejaVuSans-31"/>
       <use x="63.623047" xlink:href="#DejaVuSans-30"/>
      </g>
     </g>
    </g>
    <g id="ytick_4">
     <g id="line2d_13">
      <g>
       <use style="stroke:#000000;stroke-width:0.8;" x="63" xlink:href="#m53ff5f9358" y="96.830552"/>
      </g>
     </g>
     <g id="text_14">
      <!-- 15 -->
      <g transform="translate(43.275 100.629771)scale(0.1 -0.1)">
       <use xlink:href="#DejaVuSans-31"/>
       <use x="63.623047" xlink:href="#DejaVuSans-35"/>
      </g>
     </g>
    </g>
    <g id="ytick_5">
     <g id="line2d_14">
      <g>
       <use style="stroke:#000000;stroke-width:0.8;" x="63" xlink:href="#m53ff5f9358" y="54.347403"/>
      </g>
     </g>
     <g id="text_15">
      <!-- 20 -->
      <g transform="translate(43.275 58.146622)scale(0.1 -0.1)">
       <use xlink:href="#DejaVuSans-32"/>
       <use x="63.623047" xlink:href="#DejaVuSans-30"/>
      </g>
     </g>
    </g>
    <g id="text_16">
     <!-- GFI -->
     <defs>
      <path d="M 59.515625 10.40625 
L 59.515625 29.984375 
L 43.40625 29.984375 
L 43.40625 38.09375 
L 69.28125 38.09375 
L 69.28125 6.78125 
Q 63.578125 2.734375 56.6875 0.65625 
Q 49.8125 -1.421875 42 -1.421875 
Q 24.90625 -1.421875 15.25 8.5625 
Q 5.609375 18.5625 5.609375 36.375 
Q 5.609375 54.25 15.25 64.234375 
Q 24.90625 74.21875 42 74.21875 
Q 49.125 74.21875 55.546875 72.453125 
Q 61.96875 70.703125 67.390625 67.28125 
L 67.390625 56.78125 
Q 61.921875 61.421875 55.765625 63.765625 
Q 49.609375 66.109375 42.828125 66.109375 
Q 29.4375 66.109375 22.71875 58.640625 
Q 16.015625 51.171875 16.015625 36.375 
Q 16.015625 21.625 22.71875 14.15625 
Q 29.4375 6.6875 42.828125 6.6875 
Q 48.046875 6.6875 52.140625 7.59375 
Q 56.25 8.5 59.515625 10.40625 
z
" id="DejaVuSans-47"/>
      <path d="M 9.8125 72.90625 
L 51.703125 72.90625 
L 51.703125 64.59375 
L 19.671875 64.59375 
L 19.671875 43.109375 
L 48.578125 43.109375 
L 48.578125 34.8125 
L 19.671875 34.8125 
L 19.671875 0 
L 9.8125 0 
z
" id="DejaVuSans-46"/>
      <path d="M 9.8125 72.90625 
L 19.671875 72.90625 
L 19.671875 0 
L 9.8125 0 
z
" id="DejaVuSans-49"/>
     </defs>
     <g transform="translate(37.195312 135.485)rotate(-90)scale(0.1 -0.1)">
      <use xlink:href="#DejaVuSans-47"/>
      <use x="77.490234" xlink:href="#DejaVuSans-46"/>
      <use x="135.009766" xlink:href="#DejaVuSans-49"/>
     </g>
    </g>
   </g>
   <g id="patch_198">
    <path d="M 63 224.28 
L 63 30.24 
" style="fill:none;stroke:#000000;stroke-linecap:square;stroke-linejoin:miter;stroke-width:0.8;"/>
   </g>
   <g id="patch_199">
    <path d="M 453.6 224.28 
L 453.6 30.24 
" style="fill:none;stroke:#000000;stroke-linecap:square;stroke-linejoin:miter;stroke-width:0.8;"/>
   </g>
   <g id="patch_200">
    <path d="M 63 224.28 
L 453.6 224.28 
" style="fill:none;stroke:#000000;stroke-linecap:square;stroke-linejoin:miter;stroke-width:0.8;"/>
   </g>
   <g id="patch_201">
    <path d="M 63 30.24 
L 453.6 30.24 
" style="fill:none;stroke:#000000;stroke-linecap:square;stroke-linejoin:miter;stroke-width:0.8;"/>
   </g>
  </g>
  <g id="text_17">
   <!-- GFI for the chunks of size 10 of document de123748878.txt -->
   <defs>
    <path d="M 44.28125 53.078125 
L 44.28125 44.578125 
Q 40.484375 46.53125 36.375 47.5 
Q 32.28125 48.484375 27.875 48.484375 
Q 21.1875 48.484375 17.84375 46.4375 
Q 14.5 44.390625 14.5 40.28125 
Q 14.5 37.15625 16.890625 35.375 
Q 19.28125 33.59375 26.515625 31.984375 
L 29.59375 31.296875 
Q 39.15625 29.25 43.1875 25.515625 
Q 47.21875 21.78125 47.21875 15.09375 
Q 47.21875 7.46875 41.1875 3.015625 
Q 35.15625 -1.421875 24.609375 -1.421875 
Q 20.21875 -1.421875 15.453125 -0.5625 
Q 10.6875 0.296875 5.421875 2 
L 5.421875 11.28125 
Q 10.40625 8.6875 15.234375 7.390625 
Q 20.0625 6.109375 24.8125 6.109375 
Q 31.15625 6.109375 34.5625 8.28125 
Q 37.984375 10.453125 37.984375 14.40625 
Q 37.984375 18.0625 35.515625 20.015625 
Q 33.0625 21.96875 24.703125 23.78125 
L 21.578125 24.515625 
Q 13.234375 26.265625 9.515625 29.90625 
Q 5.8125 33.546875 5.8125 39.890625 
Q 5.8125 47.609375 11.28125 51.796875 
Q 16.75 56 26.8125 56 
Q 31.78125 56 36.171875 55.265625 
Q 40.578125 54.546875 44.28125 53.078125 
z
" id="DejaVuSans-73"/>
    <path d="M 5.515625 54.6875 
L 48.1875 54.6875 
L 48.1875 46.484375 
L 14.40625 7.171875 
L 48.1875 7.171875 
L 48.1875 0 
L 4.296875 0 
L 4.296875 8.203125 
L 38.09375 47.515625 
L 5.515625 47.515625 
z
" id="DejaVuSans-7a"/>
    <path d="M 40.578125 39.3125 
Q 47.65625 37.796875 51.625 33 
Q 55.609375 28.21875 55.609375 21.1875 
Q 55.609375 10.40625 48.1875 4.484375 
Q 40.765625 -1.421875 27.09375 -1.421875 
Q 22.515625 -1.421875 17.65625 -0.515625 
Q 12.796875 0.390625 7.625 2.203125 
L 7.625 11.71875 
Q 11.71875 9.328125 16.59375 8.109375 
Q 21.484375 6.890625 26.8125 6.890625 
Q 36.078125 6.890625 40.9375 10.546875 
Q 45.796875 14.203125 45.796875 21.1875 
Q 45.796875 27.640625 41.28125 31.265625 
Q 36.765625 34.90625 28.71875 34.90625 
L 20.21875 34.90625 
L 20.21875 43.015625 
L 29.109375 43.015625 
Q 36.375 43.015625 40.234375 45.921875 
Q 44.09375 48.828125 44.09375 54.296875 
Q 44.09375 59.90625 40.109375 62.90625 
Q 36.140625 65.921875 28.71875 65.921875 
Q 24.65625 65.921875 20.015625 65.03125 
Q 15.375 64.15625 9.8125 62.3125 
L 9.8125 71.09375 
Q 15.4375 72.65625 20.34375 73.4375 
Q 25.25 74.21875 29.59375 74.21875 
Q 40.828125 74.21875 47.359375 69.109375 
Q 53.90625 64.015625 53.90625 55.328125 
Q 53.90625 49.265625 50.4375 45.09375 
Q 46.96875 40.921875 40.578125 39.3125 
z
" id="DejaVuSans-33"/>
    <path d="M 37.796875 64.3125 
L 12.890625 25.390625 
L 37.796875 25.390625 
z
M 35.203125 72.90625 
L 47.609375 72.90625 
L 47.609375 25.390625 
L 58.015625 25.390625 
L 58.015625 17.1875 
L 47.609375 17.1875 
L 47.609375 0 
L 37.796875 0 
L 37.796875 17.1875 
L 4.890625 17.1875 
L 4.890625 26.703125 
z
" id="DejaVuSans-34"/>
    <path d="M 31.78125 34.625 
Q 24.75 34.625 20.71875 30.859375 
Q 16.703125 27.09375 16.703125 20.515625 
Q 16.703125 13.921875 20.71875 10.15625 
Q 24.75 6.390625 31.78125 6.390625 
Q 38.8125 6.390625 42.859375 10.171875 
Q 46.921875 13.96875 46.921875 20.515625 
Q 46.921875 27.09375 42.890625 30.859375 
Q 38.875 34.625 31.78125 34.625 
z
M 21.921875 38.8125 
Q 15.578125 40.375 12.03125 44.71875 
Q 8.5 49.078125 8.5 55.328125 
Q 8.5 64.0625 14.71875 69.140625 
Q 20.953125 74.21875 31.78125 74.21875 
Q 42.671875 74.21875 48.875 69.140625 
Q 55.078125 64.0625 55.078125 55.328125 
Q 55.078125 49.078125 51.53125 44.71875 
Q 48 40.375 41.703125 38.8125 
Q 48.828125 37.15625 52.796875 32.3125 
Q 56.78125 27.484375 56.78125 20.515625 
Q 56.78125 9.90625 50.3125 4.234375 
Q 43.84375 -1.421875 31.78125 -1.421875 
Q 19.734375 -1.421875 13.25 4.234375 
Q 6.78125 9.90625 6.78125 20.515625 
Q 6.78125 27.484375 10.78125 32.3125 
Q 14.796875 37.15625 21.921875 38.8125 
z
M 18.3125 54.390625 
Q 18.3125 48.734375 21.84375 45.5625 
Q 25.390625 42.390625 31.78125 42.390625 
Q 38.140625 42.390625 41.71875 45.5625 
Q 45.3125 48.734375 45.3125 54.390625 
Q 45.3125 60.0625 41.71875 63.234375 
Q 38.140625 66.40625 31.78125 66.40625 
Q 25.390625 66.40625 21.84375 63.234375 
Q 18.3125 60.0625 18.3125 54.390625 
z
" id="DejaVuSans-38"/>
    <path d="M 10.6875 12.40625 
L 21 12.40625 
L 21 0 
L 10.6875 0 
z
" id="DejaVuSans-2e"/>
    <path d="M 54.890625 54.6875 
L 35.109375 28.078125 
L 55.90625 0 
L 45.3125 0 
L 29.390625 21.484375 
L 13.484375 0 
L 2.875 0 
L 24.125 28.609375 
L 4.6875 54.6875 
L 15.28125 54.6875 
L 29.78125 35.203125 
L 44.28125 54.6875 
z
" id="DejaVuSans-78"/>
   </defs>
   <g transform="translate(42.508594 15.677812)scale(0.14 -0.14)">
    <use xlink:href="#DejaVuSans-47"/>
    <use x="77.490234" xlink:href="#DejaVuSans-46"/>
    <use x="135.009766" xlink:href="#DejaVuSans-49"/>
    <use x="164.501953" xlink:href="#DejaVuSans-20"/>
    <use x="196.289062" xlink:href="#DejaVuSans-66"/>
    <use x="231.494141" xlink:href="#DejaVuSans-6f"/>
    <use x="292.675781" xlink:href="#DejaVuSans-72"/>
    <use x="333.789062" xlink:href="#DejaVuSans-20"/>
    <use x="365.576172" xlink:href="#DejaVuSans-74"/>
    <use x="404.785156" xlink:href="#DejaVuSans-68"/>
    <use x="468.164062" xlink:href="#DejaVuSans-65"/>
    <use x="529.6875" xlink:href="#DejaVuSans-20"/>
    <use x="561.474609" xlink:href="#DejaVuSans-63"/>
    <use x="616.455078" xlink:href="#DejaVuSans-68"/>
    <use x="679.833984" xlink:href="#DejaVuSans-75"/>
    <use x="743.212891" xlink:href="#DejaVuSans-6e"/>
    <use x="806.591797" xlink:href="#DejaVuSans-6b"/>
    <use x="864.501953" xlink:href="#DejaVuSans-73"/>
    <use x="916.601562" xlink:href="#DejaVuSans-20"/>
    <use x="948.388672" xlink:href="#DejaVuSans-6f"/>
    <use x="1009.570312" xlink:href="#DejaVuSans-66"/>
    <use x="1044.775391" xlink:href="#DejaVuSans-20"/>
    <use x="1076.5625" xlink:href="#DejaVuSans-73"/>
    <use x="1128.662109" xlink:href="#DejaVuSans-69"/>
    <use x="1156.445312" xlink:href="#DejaVuSans-7a"/>
    <use x="1208.935547" xlink:href="#DejaVuSans-65"/>
    <use x="1270.458984" xlink:href="#DejaVuSans-20"/>
    <use x="1302.246094" xlink:href="#DejaVuSans-31"/>
    <use x="1365.869141" xlink:href="#DejaVuSans-30"/>
    <use x="1429.492188" xlink:href="#DejaVuSans-20"/>
    <use x="1461.279297" xlink:href="#DejaVuSans-6f"/>
    <use x="1522.460938" xlink:href="#DejaVuSans-66"/>
    <use x="1557.666016" xlink:href="#DejaVuSans-20"/>
    <use x="1589.453125" xlink:href="#DejaVuSans-64"/>
    <use x="1652.929688" xlink:href="#DejaVuSans-6f"/>
    <use x="1714.111328" xlink:href="#DejaVuSans-63"/>
    <use x="1769.091797" xlink:href="#DejaVuSans-75"/>
    <use x="1832.470703" xlink:href="#DejaVuSans-6d"/>
    <use x="1929.882812" xlink:href="#DejaVuSans-65"/>
    <use x="1991.40625" xlink:href="#DejaVuSans-6e"/>
    <use x="2054.785156" xlink:href="#DejaVuSans-74"/>
    <use x="2093.994141" xlink:href="#DejaVuSans-20"/>
    <use x="2125.78125" xlink:href="#DejaVuSans-64"/>
    <use x="2189.257812" xlink:href="#DejaVuSans-65"/>
    <use x="2250.78125" xlink:href="#DejaVuSans-31"/>
    <use x="2314.404297" xlink:href="#DejaVuSans-32"/>
    <use x="2378.027344" xlink:href="#DejaVuSans-33"/>
    <use x="2441.650391" xlink:href="#DejaVuSans-37"/>
    <use x="2505.273438" xlink:href="#DejaVuSans-34"/>
    <use x="2568.896484" xlink:href="#DejaVuSans-38"/>
    <use x="2632.519531" xlink:href="#DejaVuSans-38"/>
    <use x="2696.142578" xlink:href="#DejaVuSans-37"/>
    <use x="2759.765625" xlink:href="#DejaVuSans-38"/>
    <use x="2823.388672" xlink:href="#DejaVuSans-2e"/>
    <use x="2855.175781" xlink:href="#DejaVuSans-74"/>
    <use x="2894.384766" xlink:href="#DejaVuSans-78"/>
    <use x="2953.564453" xlink:href="#DejaVuSans-74"/>
   </g>
  </g>
 </g>
 <defs>
  <clipPath id="pae490b4278">
   <rect height="194.04" width="390.6" x="63" y="30.24"/>
  </clipPath>
 </defs>
</svg>
