<?xml version="1.0" encoding="utf-8" standalone="no"?>
<!DOCTYPE svg PUBLIC "-//W3C//DTD SVG 1.1//EN"
  "http://www.w3.org/Graphics/SVG/1.1/DTD/svg11.dtd">
<!-- Created with matplotlib (https://matplotlib.org/) -->
<svg height="242.309826pt" version="1.1" viewBox="0 0 451.44375 242.309826" width="451.44375pt" xmlns="http://www.w3.org/2000/svg" xmlns:xlink="http://www.w3.org/1999/xlink">
 <defs>
  <style type="text/css">
*{stroke-linecap:butt;stroke-linejoin:round;}
  </style>
 </defs>
 <g id="figure_1">
  <g id="patch_1">
   <path d="M 0 242.309826 
L 451.44375 242.309826 
L 451.44375 0 
L 0 0 
z
" style="fill:#ffffff;"/>
  </g>
  <g id="axes_1">
   <g id="patch_2">
    <path d="M 50.14375 204.753576 
L 440.74375 204.753576 
L 440.74375 10.713576 
L 50.14375 10.713576 
z
" style="fill:#ffffff;"/>
   </g>
   <g id="patch_3">
    <path clip-path="url(#p374e491a05)" d="M 67.898295 204.753576 
L 69.285369 204.753576 
L 69.285369 31.449991 
L 67.898295 31.449991 
z
" style="fill:#1f77b4;"/>
   </g>
   <g id="patch_4">
    <path clip-path="url(#p374e491a05)" d="M 69.632138 204.753576 
L 71.019212 204.753576 
L 71.019212 75.768394 
L 69.632138 75.768394 
z
" style="fill:#1f77b4;"/>
   </g>
   <g id="patch_5">
    <path clip-path="url(#p374e491a05)" d="M 71.36598 204.753576 
L 72.753054 204.753576 
L 72.753054 50.912616 
L 71.36598 50.912616 
z
" style="fill:#1f77b4;"/>
   </g>
   <g id="patch_6">
    <path clip-path="url(#p374e491a05)" d="M 73.099822 204.753576 
L 74.486896 204.753576 
L 74.486896 94.313593 
L 73.099822 94.313593 
z
" style="fill:#1f77b4;"/>
   </g>
   <g id="patch_7">
    <path clip-path="url(#p374e491a05)" d="M 74.833665 204.753576 
L 76.220739 204.753576 
L 76.220739 75.06216 
L 74.833665 75.06216 
z
" style="fill:#1f77b4;"/>
   </g>
   <g id="patch_8">
    <path clip-path="url(#p374e491a05)" d="M 76.567507 204.753576 
L 77.954581 204.753576 
L 77.954581 116.258211 
L 76.567507 116.258211 
z
" style="fill:#1f77b4;"/>
   </g>
   <g id="patch_9">
    <path clip-path="url(#p374e491a05)" d="M 78.301349 204.753576 
L 79.688423 204.753576 
L 79.688423 81.303956 
L 78.301349 81.303956 
z
" style="fill:#1f77b4;"/>
   </g>
   <g id="patch_10">
    <path clip-path="url(#p374e491a05)" d="M 80.035192 204.753576 
L 81.422266 204.753576 
L 81.422266 66.037082 
L 80.035192 66.037082 
z
" style="fill:#1f77b4;"/>
   </g>
   <g id="patch_11">
    <path clip-path="url(#p374e491a05)" d="M 81.769034 204.753576 
L 83.156108 204.753576 
L 83.156108 19.953576 
L 81.769034 19.953576 
z
" style="fill:#1f77b4;"/>
   </g>
   <g id="patch_12">
    <path clip-path="url(#p374e491a05)" d="M 83.502876 204.753576 
L 84.88995 204.753576 
L 84.88995 73.647753 
L 83.502876 73.647753 
z
" style="fill:#1f77b4;"/>
   </g>
   <g id="patch_13">
    <path clip-path="url(#p374e491a05)" d="M 85.236719 204.753576 
L 86.623793 204.753576 
L 86.623793 51.61207 
L 85.236719 51.61207 
z
" style="fill:#1f77b4;"/>
   </g>
   <g id="patch_14">
    <path clip-path="url(#p374e491a05)" d="M 86.970561 204.753576 
L 88.357635 204.753576 
L 88.357635 73.840538 
L 86.970561 73.840538 
z
" style="fill:#1f77b4;"/>
   </g>
   <g id="patch_15">
    <path clip-path="url(#p374e491a05)" d="M 88.704403 204.753576 
L 90.091477 204.753576 
L 90.091477 100.201787 
L 88.704403 100.201787 
z
" style="fill:#1f77b4;"/>
   </g>
   <g id="patch_16">
    <path clip-path="url(#p374e491a05)" d="M 90.438246 204.753576 
L 91.82532 204.753576 
L 91.82532 60.054916 
L 90.438246 60.054916 
z
" style="fill:#1f77b4;"/>
   </g>
   <g id="patch_17">
    <path clip-path="url(#p374e491a05)" d="M 92.172088 204.753576 
L 93.559162 204.753576 
L 93.559162 67.502833 
L 92.172088 67.502833 
z
" style="fill:#1f77b4;"/>
   </g>
   <g id="patch_18">
    <path clip-path="url(#p374e491a05)" d="M 93.90593 204.753576 
L 95.293004 204.753576 
L 95.293004 100.46045 
L 93.90593 100.46045 
z
" style="fill:#1f77b4;"/>
   </g>
   <g id="patch_19">
    <path clip-path="url(#p374e491a05)" d="M 95.639773 204.753576 
L 97.026847 204.753576 
L 97.026847 94.751477 
L 95.639773 94.751477 
z
" style="fill:#1f77b4;"/>
   </g>
   <g id="patch_20">
    <path clip-path="url(#p374e491a05)" d="M 97.373615 204.753576 
L 98.760689 204.753576 
L 98.760689 68.534575 
L 97.373615 68.534575 
z
" style="fill:#1f77b4;"/>
   </g>
   <g id="patch_21">
    <path clip-path="url(#p374e491a05)" d="M 99.107457 204.753576 
L 100.494531 204.753576 
L 100.494531 109.705439 
L 99.107457 109.705439 
z
" style="fill:#1f77b4;"/>
   </g>
   <g id="patch_22">
    <path clip-path="url(#p374e491a05)" d="M 100.8413 204.753576 
L 102.228374 204.753576 
L 102.228374 119.20134 
L 100.8413 119.20134 
z
" style="fill:#1f77b4;"/>
   </g>
   <g id="patch_23">
    <path clip-path="url(#p374e491a05)" d="M 102.575142 204.753576 
L 103.962216 204.753576 
L 103.962216 115.123779 
L 102.575142 115.123779 
z
" style="fill:#1f77b4;"/>
   </g>
   <g id="patch_24">
    <path clip-path="url(#p374e491a05)" d="M 104.308984 204.753576 
L 105.696058 204.753576 
L 105.696058 123.123897 
L 104.308984 123.123897 
z
" style="fill:#1f77b4;"/>
   </g>
   <g id="patch_25">
    <path clip-path="url(#p374e491a05)" d="M 106.042827 204.753576 
L 107.429901 204.753576 
L 107.429901 138.512837 
L 106.042827 138.512837 
z
" style="fill:#1f77b4;"/>
   </g>
   <g id="patch_26">
    <path clip-path="url(#p374e491a05)" d="M 107.776669 204.753576 
L 109.163743 204.753576 
L 109.163743 97.703325 
L 107.776669 97.703325 
z
" style="fill:#1f77b4;"/>
   </g>
   <g id="patch_27">
    <path clip-path="url(#p374e491a05)" d="M 109.510511 204.753576 
L 110.897585 204.753576 
L 110.897585 100.774332 
L 109.510511 100.774332 
z
" style="fill:#1f77b4;"/>
   </g>
   <g id="patch_28">
    <path clip-path="url(#p374e491a05)" d="M 111.244354 204.753576 
L 112.631428 204.753576 
L 112.631428 86.780423 
L 111.244354 86.780423 
z
" style="fill:#1f77b4;"/>
   </g>
   <g id="patch_29">
    <path clip-path="url(#p374e491a05)" d="M 112.978196 204.753576 
L 114.36527 204.753576 
L 114.36527 108.983704 
L 112.978196 108.983704 
z
" style="fill:#1f77b4;"/>
   </g>
   <g id="patch_30">
    <path clip-path="url(#p374e491a05)" d="M 114.712038 204.753576 
L 116.099112 204.753576 
L 116.099112 97.822484 
L 114.712038 97.822484 
z
" style="fill:#1f77b4;"/>
   </g>
   <g id="patch_31">
    <path clip-path="url(#p374e491a05)" d="M 116.445881 204.753576 
L 117.832955 204.753576 
L 117.832955 118.92524 
L 116.445881 118.92524 
z
" style="fill:#1f77b4;"/>
   </g>
   <g id="patch_32">
    <path clip-path="url(#p374e491a05)" d="M 118.179723 204.753576 
L 119.566797 204.753576 
L 119.566797 122.903986 
L 118.179723 122.903986 
z
" style="fill:#1f77b4;"/>
   </g>
   <g id="patch_33">
    <path clip-path="url(#p374e491a05)" d="M 119.913565 204.753576 
L 121.300639 204.753576 
L 121.300639 131.514429 
L 119.913565 131.514429 
z
" style="fill:#1f77b4;"/>
   </g>
   <g id="patch_34">
    <path clip-path="url(#p374e491a05)" d="M 121.647408 204.753576 
L 123.034482 204.753576 
L 123.034482 119.670225 
L 121.647408 119.670225 
z
" style="fill:#1f77b4;"/>
   </g>
   <g id="patch_35">
    <path clip-path="url(#p374e491a05)" d="M 123.38125 204.753576 
L 124.768324 204.753576 
L 124.768324 106.631526 
L 123.38125 106.631526 
z
" style="fill:#1f77b4;"/>
   </g>
   <g id="patch_36">
    <path clip-path="url(#p374e491a05)" d="M 125.115092 204.753576 
L 126.502166 204.753576 
L 126.502166 97.654886 
L 125.115092 97.654886 
z
" style="fill:#1f77b4;"/>
   </g>
   <g id="patch_37">
    <path clip-path="url(#p374e491a05)" d="M 126.848935 204.753576 
L 128.236009 204.753576 
L 128.236009 86.01025 
L 126.848935 86.01025 
z
" style="fill:#1f77b4;"/>
   </g>
   <g id="patch_38">
    <path clip-path="url(#p374e491a05)" d="M 128.582777 204.753576 
L 129.969851 204.753576 
L 129.969851 92.308235 
L 128.582777 92.308235 
z
" style="fill:#1f77b4;"/>
   </g>
   <g id="patch_39">
    <path clip-path="url(#p374e491a05)" d="M 130.316619 204.753576 
L 131.703693 204.753576 
L 131.703693 97.127875 
L 130.316619 97.127875 
z
" style="fill:#1f77b4;"/>
   </g>
   <g id="patch_40">
    <path clip-path="url(#p374e491a05)" d="M 132.050462 204.753576 
L 133.437536 204.753576 
L 133.437536 65.897578 
L 132.050462 65.897578 
z
" style="fill:#1f77b4;"/>
   </g>
   <g id="patch_41">
    <path clip-path="url(#p374e491a05)" d="M 133.784304 204.753576 
L 135.171378 204.753576 
L 135.171378 79.251129 
L 133.784304 79.251129 
z
" style="fill:#1f77b4;"/>
   </g>
   <g id="patch_42">
    <path clip-path="url(#p374e491a05)" d="M 135.518146 204.753576 
L 136.90522 204.753576 
L 136.90522 92.029229 
L 135.518146 92.029229 
z
" style="fill:#1f77b4;"/>
   </g>
   <g id="patch_43">
    <path clip-path="url(#p374e491a05)" d="M 137.251989 204.753576 
L 138.639062 204.753576 
L 138.639062 87.209589 
L 137.251989 87.209589 
z
" style="fill:#1f77b4;"/>
   </g>
   <g id="patch_44">
    <path clip-path="url(#p374e491a05)" d="M 138.985831 204.753576 
L 140.372905 204.753576 
L 140.372905 93.813706 
L 138.985831 93.813706 
z
" style="fill:#1f77b4;"/>
   </g>
   <g id="patch_45">
    <path clip-path="url(#p374e491a05)" d="M 140.719673 204.753576 
L 142.106747 204.753576 
L 142.106747 95.148674 
L 140.719673 95.148674 
z
" style="fill:#1f77b4;"/>
   </g>
   <g id="patch_46">
    <path clip-path="url(#p374e491a05)" d="M 142.453516 204.753576 
L 143.840589 204.753576 
L 143.840589 115.43863 
L 142.453516 115.43863 
z
" style="fill:#1f77b4;"/>
   </g>
   <g id="patch_47">
    <path clip-path="url(#p374e491a05)" d="M 144.187358 204.753576 
L 145.574432 204.753576 
L 145.574432 118.374009 
L 144.187358 118.374009 
z
" style="fill:#1f77b4;"/>
   </g>
   <g id="patch_48">
    <path clip-path="url(#p374e491a05)" d="M 145.9212 204.753576 
L 147.308274 204.753576 
L 147.308274 100.708455 
L 145.9212 100.708455 
z
" style="fill:#1f77b4;"/>
   </g>
   <g id="patch_49">
    <path clip-path="url(#p374e491a05)" d="M 147.655043 204.753576 
L 149.042116 204.753576 
L 149.042116 104.689138 
L 147.655043 104.689138 
z
" style="fill:#1f77b4;"/>
   </g>
   <g id="patch_50">
    <path clip-path="url(#p374e491a05)" d="M 149.388885 204.753576 
L 150.775959 204.753576 
L 150.775959 106.701277 
L 149.388885 106.701277 
z
" style="fill:#1f77b4;"/>
   </g>
   <g id="patch_51">
    <path clip-path="url(#p374e491a05)" d="M 151.122727 204.753576 
L 152.509801 204.753576 
L 152.509801 122.53779 
L 151.122727 122.53779 
z
" style="fill:#1f77b4;"/>
   </g>
   <g id="patch_52">
    <path clip-path="url(#p374e491a05)" d="M 152.85657 204.753576 
L 154.243643 204.753576 
L 154.243643 108.122466 
L 152.85657 108.122466 
z
" style="fill:#1f77b4;"/>
   </g>
   <g id="patch_53">
    <path clip-path="url(#p374e491a05)" d="M 154.590412 204.753576 
L 155.977486 204.753576 
L 155.977486 65.432568 
L 154.590412 65.432568 
z
" style="fill:#1f77b4;"/>
   </g>
   <g id="patch_54">
    <path clip-path="url(#p374e491a05)" d="M 156.324254 204.753576 
L 157.711328 204.753576 
L 157.711328 103.68646 
L 156.324254 103.68646 
z
" style="fill:#1f77b4;"/>
   </g>
   <g id="patch_55">
    <path clip-path="url(#p374e491a05)" d="M 158.058097 204.753576 
L 159.44517 204.753576 
L 159.44517 100.339353 
L 158.058097 100.339353 
z
" style="fill:#1f77b4;"/>
   </g>
   <g id="patch_56">
    <path clip-path="url(#p374e491a05)" d="M 159.791939 204.753576 
L 161.179013 204.753576 
L 161.179013 105.762538 
L 159.791939 105.762538 
z
" style="fill:#1f77b4;"/>
   </g>
   <g id="patch_57">
    <path clip-path="url(#p374e491a05)" d="M 161.525781 204.753576 
L 162.912855 204.753576 
L 162.912855 80.374904 
L 161.525781 80.374904 
z
" style="fill:#1f77b4;"/>
   </g>
   <g id="patch_58">
    <path clip-path="url(#p374e491a05)" d="M 163.259624 204.753576 
L 164.646697 204.753576 
L 164.646697 69.688382 
L 163.259624 69.688382 
z
" style="fill:#1f77b4;"/>
   </g>
   <g id="patch_59">
    <path clip-path="url(#p374e491a05)" d="M 164.993466 204.753576 
L 166.38054 204.753576 
L 166.38054 63.949378 
L 164.993466 63.949378 
z
" style="fill:#1f77b4;"/>
   </g>
   <g id="patch_60">
    <path clip-path="url(#p374e491a05)" d="M 166.727308 204.753576 
L 168.114382 204.753576 
L 168.114382 87.181495 
L 166.727308 87.181495 
z
" style="fill:#1f77b4;"/>
   </g>
   <g id="patch_61">
    <path clip-path="url(#p374e491a05)" d="M 168.461151 204.753576 
L 169.848224 204.753576 
L 169.848224 76.046432 
L 168.461151 76.046432 
z
" style="fill:#1f77b4;"/>
   </g>
   <g id="patch_62">
    <path clip-path="url(#p374e491a05)" d="M 170.194993 204.753576 
L 171.582067 204.753576 
L 171.582067 73.412341 
L 170.194993 73.412341 
z
" style="fill:#1f77b4;"/>
   </g>
   <g id="patch_63">
    <path clip-path="url(#p374e491a05)" d="M 171.928835 204.753576 
L 173.315909 204.753576 
L 173.315909 100.402323 
L 171.928835 100.402323 
z
" style="fill:#1f77b4;"/>
   </g>
   <g id="patch_64">
    <path clip-path="url(#p374e491a05)" d="M 173.662678 204.753576 
L 175.049751 204.753576 
L 175.049751 75.019534 
L 173.662678 75.019534 
z
" style="fill:#1f77b4;"/>
   </g>
   <g id="patch_65">
    <path clip-path="url(#p374e491a05)" d="M 175.39652 204.753576 
L 176.783594 204.753576 
L 176.783594 97.689762 
L 175.39652 97.689762 
z
" style="fill:#1f77b4;"/>
   </g>
   <g id="patch_66">
    <path clip-path="url(#p374e491a05)" d="M 177.130362 204.753576 
L 178.517436 204.753576 
L 178.517436 109.833317 
L 177.130362 109.833317 
z
" style="fill:#1f77b4;"/>
   </g>
   <g id="patch_67">
    <path clip-path="url(#p374e491a05)" d="M 178.864205 204.753576 
L 180.251278 204.753576 
L 180.251278 106.348644 
L 178.864205 106.348644 
z
" style="fill:#1f77b4;"/>
   </g>
   <g id="patch_68">
    <path clip-path="url(#p374e491a05)" d="M 180.598047 204.753576 
L 181.985121 204.753576 
L 181.985121 106.513336 
L 180.598047 106.513336 
z
" style="fill:#1f77b4;"/>
   </g>
   <g id="patch_69">
    <path clip-path="url(#p374e491a05)" d="M 182.331889 204.753576 
L 183.718963 204.753576 
L 183.718963 95.065359 
L 182.331889 95.065359 
z
" style="fill:#1f77b4;"/>
   </g>
   <g id="patch_70">
    <path clip-path="url(#p374e491a05)" d="M 184.065732 204.753576 
L 185.452805 204.753576 
L 185.452805 108.792856 
L 184.065732 108.792856 
z
" style="fill:#1f77b4;"/>
   </g>
   <g id="patch_71">
    <path clip-path="url(#p374e491a05)" d="M 185.799574 204.753576 
L 187.186648 204.753576 
L 187.186648 54.073719 
L 185.799574 54.073719 
z
" style="fill:#1f77b4;"/>
   </g>
   <g id="patch_72">
    <path clip-path="url(#p374e491a05)" d="M 187.533416 204.753576 
L 188.92049 204.753576 
L 188.92049 74.688214 
L 187.533416 74.688214 
z
" style="fill:#1f77b4;"/>
   </g>
   <g id="patch_73">
    <path clip-path="url(#p374e491a05)" d="M 189.267259 204.753576 
L 190.654332 204.753576 
L 190.654332 115.43863 
L 189.267259 115.43863 
z
" style="fill:#1f77b4;"/>
   </g>
   <g id="patch_74">
    <path clip-path="url(#p374e491a05)" d="M 191.001101 204.753576 
L 192.388175 204.753576 
L 192.388175 117.287047 
L 191.001101 117.287047 
z
" style="fill:#1f77b4;"/>
   </g>
   <g id="patch_75">
    <path clip-path="url(#p374e491a05)" d="M 192.734943 204.753576 
L 194.122017 204.753576 
L 194.122017 115.805795 
L 192.734943 115.805795 
z
" style="fill:#1f77b4;"/>
   </g>
   <g id="patch_76">
    <path clip-path="url(#p374e491a05)" d="M 194.468786 204.753576 
L 195.855859 204.753576 
L 195.855859 124.409457 
L 194.468786 124.409457 
z
" style="fill:#1f77b4;"/>
   </g>
   <g id="patch_77">
    <path clip-path="url(#p374e491a05)" d="M 196.202628 204.753576 
L 197.589702 204.753576 
L 197.589702 109.449683 
L 196.202628 109.449683 
z
" style="fill:#1f77b4;"/>
   </g>
   <g id="patch_78">
    <path clip-path="url(#p374e491a05)" d="M 197.93647 204.753576 
L 199.323544 204.753576 
L 199.323544 107.610954 
L 197.93647 107.610954 
z
" style="fill:#1f77b4;"/>
   </g>
   <g id="patch_79">
    <path clip-path="url(#p374e491a05)" d="M 199.670312 204.753576 
L 201.057386 204.753576 
L 201.057386 112.341467 
L 199.670312 112.341467 
z
" style="fill:#1f77b4;"/>
   </g>
   <g id="patch_80">
    <path clip-path="url(#p374e491a05)" d="M 201.404155 204.753576 
L 202.791229 204.753576 
L 202.791229 100.889615 
L 201.404155 100.889615 
z
" style="fill:#1f77b4;"/>
   </g>
   <g id="patch_81">
    <path clip-path="url(#p374e491a05)" d="M 203.137997 204.753576 
L 204.525071 204.753576 
L 204.525071 100.659048 
L 203.137997 100.659048 
z
" style="fill:#1f77b4;"/>
   </g>
   <g id="patch_82">
    <path clip-path="url(#p374e491a05)" d="M 204.871839 204.753576 
L 206.258913 204.753576 
L 206.258913 100.450762 
L 204.871839 100.450762 
z
" style="fill:#1f77b4;"/>
   </g>
   <g id="patch_83">
    <path clip-path="url(#p374e491a05)" d="M 206.605682 204.753576 
L 207.992756 204.753576 
L 207.992756 92.265609 
L 206.605682 92.265609 
z
" style="fill:#1f77b4;"/>
   </g>
   <g id="patch_84">
    <path clip-path="url(#p374e491a05)" d="M 208.339524 204.753576 
L 209.726598 204.753576 
L 209.726598 106.064794 
L 208.339524 106.064794 
z
" style="fill:#1f77b4;"/>
   </g>
   <g id="patch_85">
    <path clip-path="url(#p374e491a05)" d="M 210.073366 204.753576 
L 211.46044 204.753576 
L 211.46044 85.674086 
L 210.073366 85.674086 
z
" style="fill:#1f77b4;"/>
   </g>
   <g id="patch_86">
    <path clip-path="url(#p374e491a05)" d="M 211.807209 204.753576 
L 213.194283 204.753576 
L 213.194283 77.01811 
L 211.807209 77.01811 
z
" style="fill:#1f77b4;"/>
   </g>
   <g id="patch_87">
    <path clip-path="url(#p374e491a05)" d="M 213.541051 204.753576 
L 214.928125 204.753576 
L 214.928125 75.948586 
L 213.541051 75.948586 
z
" style="fill:#1f77b4;"/>
   </g>
   <g id="patch_88">
    <path clip-path="url(#p374e491a05)" d="M 215.274893 204.753576 
L 216.661967 204.753576 
L 216.661967 80.636472 
L 215.274893 80.636472 
z
" style="fill:#1f77b4;"/>
   </g>
   <g id="patch_89">
    <path clip-path="url(#p374e491a05)" d="M 217.008736 204.753576 
L 218.39581 204.753576 
L 218.39581 94.914231 
L 217.008736 94.914231 
z
" style="fill:#1f77b4;"/>
   </g>
   <g id="patch_90">
    <path clip-path="url(#p374e491a05)" d="M 218.742578 204.753576 
L 220.129652 204.753576 
L 220.129652 91.463466 
L 218.742578 91.463466 
z
" style="fill:#1f77b4;"/>
   </g>
   <g id="patch_91">
    <path clip-path="url(#p374e491a05)" d="M 220.47642 204.753576 
L 221.863494 204.753576 
L 221.863494 93.813706 
L 220.47642 93.813706 
z
" style="fill:#1f77b4;"/>
   </g>
   <g id="patch_92">
    <path clip-path="url(#p374e491a05)" d="M 222.210263 204.753576 
L 223.597337 204.753576 
L 223.597337 89.800085 
L 222.210263 89.800085 
z
" style="fill:#1f77b4;"/>
   </g>
   <g id="patch_93">
    <path clip-path="url(#p374e491a05)" d="M 223.944105 204.753576 
L 225.331179 204.753576 
L 225.331179 92.345048 
L 223.944105 92.345048 
z
" style="fill:#1f77b4;"/>
   </g>
   <g id="patch_94">
    <path clip-path="url(#p374e491a05)" d="M 225.677947 204.753576 
L 227.065021 204.753576 
L 227.065021 89.017317 
L 225.677947 89.017317 
z
" style="fill:#1f77b4;"/>
   </g>
   <g id="patch_95">
    <path clip-path="url(#p374e491a05)" d="M 227.41179 204.753576 
L 228.798864 204.753576 
L 228.798864 67.932968 
L 227.41179 67.932968 
z
" style="fill:#1f77b4;"/>
   </g>
   <g id="patch_96">
    <path clip-path="url(#p374e491a05)" d="M 229.145632 204.753576 
L 230.532706 204.753576 
L 230.532706 106.631526 
L 229.145632 106.631526 
z
" style="fill:#1f77b4;"/>
   </g>
   <g id="patch_97">
    <path clip-path="url(#p374e491a05)" d="M 230.879474 204.753576 
L 232.266548 204.753576 
L 232.266548 97.654886 
L 230.879474 97.654886 
z
" style="fill:#1f77b4;"/>
   </g>
   <g id="patch_98">
    <path clip-path="url(#p374e491a05)" d="M 232.613317 204.753576 
L 234.000391 204.753576 
L 234.000391 89.927963 
L 232.613317 89.927963 
z
" style="fill:#1f77b4;"/>
   </g>
   <g id="patch_99">
    <path clip-path="url(#p374e491a05)" d="M 234.347159 204.753576 
L 235.734233 204.753576 
L 235.734233 72.401912 
L 234.347159 72.401912 
z
" style="fill:#1f77b4;"/>
   </g>
   <g id="patch_100">
    <path clip-path="url(#p374e491a05)" d="M 236.081001 204.753576 
L 237.468075 204.753576 
L 237.468075 82.210727 
L 236.081001 82.210727 
z
" style="fill:#1f77b4;"/>
   </g>
   <g id="patch_101">
    <path clip-path="url(#p374e491a05)" d="M 237.814844 204.753576 
L 239.201918 204.753576 
L 239.201918 114.111413 
L 237.814844 114.111413 
z
" style="fill:#1f77b4;"/>
   </g>
   <g id="patch_102">
    <path clip-path="url(#p374e491a05)" d="M 239.548686 204.753576 
L 240.93576 204.753576 
L 240.93576 81.650776 
L 239.548686 81.650776 
z
" style="fill:#1f77b4;"/>
   </g>
   <g id="patch_103">
    <path clip-path="url(#p374e491a05)" d="M 241.282528 204.753576 
L 242.669602 204.753576 
L 242.669602 85.911435 
L 241.282528 85.911435 
z
" style="fill:#1f77b4;"/>
   </g>
   <g id="patch_104">
    <path clip-path="url(#p374e491a05)" d="M 243.016371 204.753576 
L 244.403445 204.753576 
L 244.403445 109.374119 
L 243.016371 109.374119 
z
" style="fill:#1f77b4;"/>
   </g>
   <g id="patch_105">
    <path clip-path="url(#p374e491a05)" d="M 244.750213 204.753576 
L 246.137287 204.753576 
L 246.137287 118.823519 
L 244.750213 118.823519 
z
" style="fill:#1f77b4;"/>
   </g>
   <g id="patch_106">
    <path clip-path="url(#p374e491a05)" d="M 246.484055 204.753576 
L 247.871129 204.753576 
L 247.871129 75.618235 
L 246.484055 75.618235 
z
" style="fill:#1f77b4;"/>
   </g>
   <g id="patch_107">
    <path clip-path="url(#p374e491a05)" d="M 248.217898 204.753576 
L 249.604972 204.753576 
L 249.604972 96.331544 
L 248.217898 96.331544 
z
" style="fill:#1f77b4;"/>
   </g>
   <g id="patch_108">
    <path clip-path="url(#p374e491a05)" d="M 249.95174 204.753576 
L 251.338814 204.753576 
L 251.338814 95.992474 
L 249.95174 95.992474 
z
" style="fill:#1f77b4;"/>
   </g>
   <g id="patch_109">
    <path clip-path="url(#p374e491a05)" d="M 251.685582 204.753576 
L 253.072656 204.753576 
L 253.072656 79.782016 
L 251.685582 79.782016 
z
" style="fill:#1f77b4;"/>
   </g>
   <g id="patch_110">
    <path clip-path="url(#p374e491a05)" d="M 253.419425 204.753576 
L 254.806499 204.753576 
L 254.806499 119.56366 
L 253.419425 119.56366 
z
" style="fill:#1f77b4;"/>
   </g>
   <g id="patch_111">
    <path clip-path="url(#p374e491a05)" d="M 255.153267 204.753576 
L 256.540341 204.753576 
L 256.540341 109.566904 
L 255.153267 109.566904 
z
" style="fill:#1f77b4;"/>
   </g>
   <g id="patch_112">
    <path clip-path="url(#p374e491a05)" d="M 256.887109 204.753576 
L 258.274183 204.753576 
L 258.274183 103.702929 
L 256.887109 103.702929 
z
" style="fill:#1f77b4;"/>
   </g>
   <g id="patch_113">
    <path clip-path="url(#p374e491a05)" d="M 258.620952 204.753576 
L 260.008026 204.753576 
L 260.008026 92.308235 
L 258.620952 92.308235 
z
" style="fill:#1f77b4;"/>
   </g>
   <g id="patch_114">
    <path clip-path="url(#p374e491a05)" d="M 260.354794 204.753576 
L 261.741868 204.753576 
L 261.741868 80.900947 
L 260.354794 80.900947 
z
" style="fill:#1f77b4;"/>
   </g>
   <g id="patch_115">
    <path clip-path="url(#p374e491a05)" d="M 262.088636 204.753576 
L 263.47571 204.753576 
L 263.47571 96.192041 
L 262.088636 96.192041 
z
" style="fill:#1f77b4;"/>
   </g>
   <g id="patch_116">
    <path clip-path="url(#p374e491a05)" d="M 263.822479 204.753576 
L 265.209553 204.753576 
L 265.209553 84.568717 
L 263.822479 84.568717 
z
" style="fill:#1f77b4;"/>
   </g>
   <g id="patch_117">
    <path clip-path="url(#p374e491a05)" d="M 265.556321 204.753576 
L 266.943395 204.753576 
L 266.943395 109.771315 
L 265.556321 109.771315 
z
" style="fill:#1f77b4;"/>
   </g>
   <g id="patch_118">
    <path clip-path="url(#p374e491a05)" d="M 267.290163 204.753576 
L 268.677237 204.753576 
L 268.677237 112.503252 
L 267.290163 112.503252 
z
" style="fill:#1f77b4;"/>
   </g>
   <g id="patch_119">
    <path clip-path="url(#p374e491a05)" d="M 269.024006 204.753576 
L 270.41108 204.753576 
L 270.41108 97.267378 
L 269.024006 97.267378 
z
" style="fill:#1f77b4;"/>
   </g>
   <g id="patch_120">
    <path clip-path="url(#p374e491a05)" d="M 270.757848 204.753576 
L 272.144922 204.753576 
L 272.144922 77.233177 
L 270.757848 77.233177 
z
" style="fill:#1f77b4;"/>
   </g>
   <g id="patch_121">
    <path clip-path="url(#p374e491a05)" d="M 272.49169 204.753576 
L 273.878764 204.753576 
L 273.878764 77.271928 
L 272.49169 77.271928 
z
" style="fill:#1f77b4;"/>
   </g>
   <g id="patch_122">
    <path clip-path="url(#p374e491a05)" d="M 274.225533 204.753576 
L 275.612607 204.753576 
L 275.612607 94.809604 
L 274.225533 94.809604 
z
" style="fill:#1f77b4;"/>
   </g>
   <g id="patch_123">
    <path clip-path="url(#p374e491a05)" d="M 275.959375 204.753576 
L 277.346449 204.753576 
L 277.346449 106.096764 
L 275.959375 106.096764 
z
" style="fill:#1f77b4;"/>
   </g>
   <g id="patch_124">
    <path clip-path="url(#p374e491a05)" d="M 277.693217 204.753576 
L 279.080291 204.753576 
L 279.080291 82.117724 
L 277.693217 82.117724 
z
" style="fill:#1f77b4;"/>
   </g>
   <g id="patch_125">
    <path clip-path="url(#p374e491a05)" d="M 279.42706 204.753576 
L 280.814134 204.753576 
L 280.814134 95.115736 
L 279.42706 95.115736 
z
" style="fill:#1f77b4;"/>
   </g>
   <g id="patch_126">
    <path clip-path="url(#p374e491a05)" d="M 281.160902 204.753576 
L 282.547976 204.753576 
L 282.547976 115.43863 
L 281.160902 115.43863 
z
" style="fill:#1f77b4;"/>
   </g>
   <g id="patch_127">
    <path clip-path="url(#p374e491a05)" d="M 282.894744 204.753576 
L 284.281818 204.753576 
L 284.281818 77.388181 
L 282.894744 77.388181 
z
" style="fill:#1f77b4;"/>
   </g>
   <g id="patch_128">
    <path clip-path="url(#p374e491a05)" d="M 284.628587 204.753576 
L 286.015661 204.753576 
L 286.015661 82.130319 
L 284.628587 82.130319 
z
" style="fill:#1f77b4;"/>
   </g>
   <g id="patch_129">
    <path clip-path="url(#p374e491a05)" d="M 286.362429 204.753576 
L 287.749503 204.753576 
L 287.749503 103.683553 
L 286.362429 103.683553 
z
" style="fill:#1f77b4;"/>
   </g>
   <g id="patch_130">
    <path clip-path="url(#p374e491a05)" d="M 288.096271 204.753576 
L 289.483345 204.753576 
L 289.483345 84.685939 
L 288.096271 84.685939 
z
" style="fill:#1f77b4;"/>
   </g>
   <g id="patch_131">
    <path clip-path="url(#p374e491a05)" d="M 289.830114 204.753576 
L 291.217187 204.753576 
L 291.217187 122.982456 
L 289.830114 122.982456 
z
" style="fill:#1f77b4;"/>
   </g>
   <g id="patch_132">
    <path clip-path="url(#p374e491a05)" d="M 291.563956 204.753576 
L 292.95103 204.753576 
L 292.95103 89.0706 
L 291.563956 89.0706 
z
" style="fill:#1f77b4;"/>
   </g>
   <g id="patch_133">
    <path clip-path="url(#p374e491a05)" d="M 293.297798 204.753576 
L 294.684872 204.753576 
L 294.684872 94.475377 
L 293.297798 94.475377 
z
" style="fill:#1f77b4;"/>
   </g>
   <g id="patch_134">
    <path clip-path="url(#p374e491a05)" d="M 295.031641 204.753576 
L 296.418714 204.753576 
L 296.418714 109.449683 
L 295.031641 109.449683 
z
" style="fill:#1f77b4;"/>
   </g>
   <g id="patch_135">
    <path clip-path="url(#p374e491a05)" d="M 296.765483 204.753576 
L 298.152557 204.753576 
L 298.152557 82.309541 
L 296.765483 82.309541 
z
" style="fill:#1f77b4;"/>
   </g>
   <g id="patch_136">
    <path clip-path="url(#p374e491a05)" d="M 298.499325 204.753576 
L 299.886399 204.753576 
L 299.886399 89.367044 
L 298.499325 89.367044 
z
" style="fill:#1f77b4;"/>
   </g>
   <g id="patch_137">
    <path clip-path="url(#p374e491a05)" d="M 300.233168 204.753576 
L 301.620241 204.753576 
L 301.620241 86.284412 
L 300.233168 86.284412 
z
" style="fill:#1f77b4;"/>
   </g>
   <g id="patch_138">
    <path clip-path="url(#p374e491a05)" d="M 301.96701 204.753576 
L 303.354084 204.753576 
L 303.354084 107.18857 
L 301.96701 107.18857 
z
" style="fill:#1f77b4;"/>
   </g>
   <g id="patch_139">
    <path clip-path="url(#p374e491a05)" d="M 303.700852 204.753576 
L 305.087926 204.753576 
L 305.087926 106.284706 
L 303.700852 106.284706 
z
" style="fill:#1f77b4;"/>
   </g>
   <g id="patch_140">
    <path clip-path="url(#p374e491a05)" d="M 305.434695 204.753576 
L 306.821768 204.753576 
L 306.821768 109.618249 
L 305.434695 109.618249 
z
" style="fill:#1f77b4;"/>
   </g>
   <g id="patch_141">
    <path clip-path="url(#p374e491a05)" d="M 307.168537 204.753576 
L 308.555611 204.753576 
L 308.555611 76.808855 
L 307.168537 76.808855 
z
" style="fill:#1f77b4;"/>
   </g>
   <g id="patch_142">
    <path clip-path="url(#p374e491a05)" d="M 308.902379 204.753576 
L 310.289453 204.753576 
L 310.289453 105.982449 
L 308.902379 105.982449 
z
" style="fill:#1f77b4;"/>
   </g>
   <g id="patch_143">
    <path clip-path="url(#p374e491a05)" d="M 310.636222 204.753576 
L 312.023295 204.753576 
L 312.023295 116.384151 
L 310.636222 116.384151 
z
" style="fill:#1f77b4;"/>
   </g>
   <g id="patch_144">
    <path clip-path="url(#p374e491a05)" d="M 312.370064 204.753576 
L 313.757138 204.753576 
L 313.757138 103.49658 
L 312.370064 103.49658 
z
" style="fill:#1f77b4;"/>
   </g>
   <g id="patch_145">
    <path clip-path="url(#p374e491a05)" d="M 314.103906 204.753576 
L 315.49098 204.753576 
L 315.49098 85.911435 
L 314.103906 85.911435 
z
" style="fill:#1f77b4;"/>
   </g>
   <g id="patch_146">
    <path clip-path="url(#p374e491a05)" d="M 315.837749 204.753576 
L 317.224822 204.753576 
L 317.224822 100.025471 
L 315.837749 100.025471 
z
" style="fill:#1f77b4;"/>
   </g>
   <g id="patch_147">
    <path clip-path="url(#p374e491a05)" d="M 317.571591 204.753576 
L 318.958665 204.753576 
L 318.958665 123.293432 
L 317.571591 123.293432 
z
" style="fill:#1f77b4;"/>
   </g>
   <g id="patch_148">
    <path clip-path="url(#p374e491a05)" d="M 319.305433 204.753576 
L 320.692507 204.753576 
L 320.692507 82.494577 
L 319.305433 82.494577 
z
" style="fill:#1f77b4;"/>
   </g>
   <g id="patch_149">
    <path clip-path="url(#p374e491a05)" d="M 321.039276 204.753576 
L 322.426349 204.753576 
L 322.426349 92.431269 
L 321.039276 92.431269 
z
" style="fill:#1f77b4;"/>
   </g>
   <g id="patch_150">
    <path clip-path="url(#p374e491a05)" d="M 322.773118 204.753576 
L 324.160192 204.753576 
L 324.160192 116.014081 
L 322.773118 116.014081 
z
" style="fill:#1f77b4;"/>
   </g>
   <g id="patch_151">
    <path clip-path="url(#p374e491a05)" d="M 324.50696 204.753576 
L 325.894034 204.753576 
L 325.894034 79.767484 
L 324.50696 79.767484 
z
" style="fill:#1f77b4;"/>
   </g>
   <g id="patch_152">
    <path clip-path="url(#p374e491a05)" d="M 326.240803 204.753576 
L 327.627876 204.753576 
L 327.627876 82.996401 
L 326.240803 82.996401 
z
" style="fill:#1f77b4;"/>
   </g>
   <g id="patch_153">
    <path clip-path="url(#p374e491a05)" d="M 327.974645 204.753576 
L 329.361719 204.753576 
L 329.361719 61.151565 
L 327.974645 61.151565 
z
" style="fill:#1f77b4;"/>
   </g>
   <g id="patch_154">
    <path clip-path="url(#p374e491a05)" d="M 329.708487 204.753576 
L 331.095561 204.753576 
L 331.095561 92.99025 
L 329.708487 92.99025 
z
" style="fill:#1f77b4;"/>
   </g>
   <g id="patch_155">
    <path clip-path="url(#p374e491a05)" d="M 331.44233 204.753576 
L 332.829403 204.753576 
L 332.829403 79.569855 
L 331.44233 79.569855 
z
" style="fill:#1f77b4;"/>
   </g>
   <g id="patch_156">
    <path clip-path="url(#p374e491a05)" d="M 333.176172 204.753576 
L 334.563246 204.753576 
L 334.563246 100.513732 
L 333.176172 100.513732 
z
" style="fill:#1f77b4;"/>
   </g>
   <g id="patch_157">
    <path clip-path="url(#p374e491a05)" d="M 334.910014 204.753576 
L 336.297088 204.753576 
L 336.297088 83.743324 
L 334.910014 83.743324 
z
" style="fill:#1f77b4;"/>
   </g>
   <g id="patch_158">
    <path clip-path="url(#p374e491a05)" d="M 336.643857 204.753576 
L 338.03093 204.753576 
L 338.03093 89.688676 
L 336.643857 89.688676 
z
" style="fill:#1f77b4;"/>
   </g>
   <g id="patch_159">
    <path clip-path="url(#p374e491a05)" d="M 338.377699 204.753576 
L 339.764773 204.753576 
L 339.764773 115.123779 
L 338.377699 115.123779 
z
" style="fill:#1f77b4;"/>
   </g>
   <g id="patch_160">
    <path clip-path="url(#p374e491a05)" d="M 340.111541 204.753576 
L 341.498615 204.753576 
L 341.498615 100.693924 
L 340.111541 100.693924 
z
" style="fill:#1f77b4;"/>
   </g>
   <g id="patch_161">
    <path clip-path="url(#p374e491a05)" d="M 341.845384 204.753576 
L 343.232457 204.753576 
L 343.232457 124.725277 
L 341.845384 124.725277 
z
" style="fill:#1f77b4;"/>
   </g>
   <g id="patch_162">
    <path clip-path="url(#p374e491a05)" d="M 343.579226 204.753576 
L 344.9663 204.753576 
L 344.9663 79.366413 
L 343.579226 79.366413 
z
" style="fill:#1f77b4;"/>
   </g>
   <g id="patch_163">
    <path clip-path="url(#p374e491a05)" d="M 345.313068 204.753576 
L 346.700142 204.753576 
L 346.700142 104.689138 
L 345.313068 104.689138 
z
" style="fill:#1f77b4;"/>
   </g>
   <g id="patch_164">
    <path clip-path="url(#p374e491a05)" d="M 347.046911 204.753576 
L 348.433984 204.753576 
L 348.433984 109.794566 
L 347.046911 109.794566 
z
" style="fill:#1f77b4;"/>
   </g>
   <g id="patch_165">
    <path clip-path="url(#p374e491a05)" d="M 348.780753 204.753576 
L 350.167827 204.753576 
L 350.167827 106.713871 
L 348.780753 106.713871 
z
" style="fill:#1f77b4;"/>
   </g>
   <g id="patch_166">
    <path clip-path="url(#p374e491a05)" d="M 350.514595 204.753576 
L 351.901669 204.753576 
L 351.901669 102.975381 
L 350.514595 102.975381 
z
" style="fill:#1f77b4;"/>
   </g>
   <g id="patch_167">
    <path clip-path="url(#p374e491a05)" d="M 352.248437 204.753576 
L 353.635511 204.753576 
L 353.635511 104.286129 
L 352.248437 104.286129 
z
" style="fill:#1f77b4;"/>
   </g>
   <g id="patch_168">
    <path clip-path="url(#p374e491a05)" d="M 353.98228 204.753576 
L 355.369354 204.753576 
L 355.369354 112.539096 
L 353.98228 112.539096 
z
" style="fill:#1f77b4;"/>
   </g>
   <g id="patch_169">
    <path clip-path="url(#p374e491a05)" d="M 355.716122 204.753576 
L 357.103196 204.753576 
L 357.103196 84.599718 
L 355.716122 84.599718 
z
" style="fill:#1f77b4;"/>
   </g>
   <g id="patch_170">
    <path clip-path="url(#p374e491a05)" d="M 357.449964 204.753576 
L 358.837038 204.753576 
L 358.837038 88.728623 
L 357.449964 88.728623 
z
" style="fill:#1f77b4;"/>
   </g>
   <g id="patch_171">
    <path clip-path="url(#p374e491a05)" d="M 359.183807 204.753576 
L 360.570881 204.753576 
L 360.570881 92.594023 
L 359.183807 92.594023 
z
" style="fill:#1f77b4;"/>
   </g>
   <g id="patch_172">
    <path clip-path="url(#p374e491a05)" d="M 360.917649 204.753576 
L 362.304723 204.753576 
L 362.304723 88.911721 
L 360.917649 88.911721 
z
" style="fill:#1f77b4;"/>
   </g>
   <g id="patch_173">
    <path clip-path="url(#p374e491a05)" d="M 362.651491 204.753576 
L 364.038565 204.753576 
L 364.038565 89.927963 
L 362.651491 89.927963 
z
" style="fill:#1f77b4;"/>
   </g>
   <g id="patch_174">
    <path clip-path="url(#p374e491a05)" d="M 364.385334 204.753576 
L 365.772408 204.753576 
L 365.772408 73.547 
L 364.385334 73.547 
z
" style="fill:#1f77b4;"/>
   </g>
   <g id="patch_175">
    <path clip-path="url(#p374e491a05)" d="M 366.119176 204.753576 
L 367.50625 204.753576 
L 367.50625 112.768695 
L 366.119176 112.768695 
z
" style="fill:#1f77b4;"/>
   </g>
   <g id="patch_176">
    <path clip-path="url(#p374e491a05)" d="M 367.853018 204.753576 
L 369.240092 204.753576 
L 369.240092 68.541357 
L 367.853018 68.541357 
z
" style="fill:#1f77b4;"/>
   </g>
   <g id="patch_177">
    <path clip-path="url(#p374e491a05)" d="M 369.586861 204.753576 
L 370.973935 204.753576 
L 370.973935 83.549569 
L 369.586861 83.549569 
z
" style="fill:#1f77b4;"/>
   </g>
   <g id="patch_178">
    <path clip-path="url(#p374e491a05)" d="M 371.320703 204.753576 
L 372.707777 204.753576 
L 372.707777 61.727985 
L 371.320703 61.727985 
z
" style="fill:#1f77b4;"/>
   </g>
   <g id="patch_179">
    <path clip-path="url(#p374e491a05)" d="M 373.054545 204.753576 
L 374.441619 204.753576 
L 374.441619 61.190316 
L 373.054545 61.190316 
z
" style="fill:#1f77b4;"/>
   </g>
   <g id="patch_180">
    <path clip-path="url(#p374e491a05)" d="M 374.788388 204.753576 
L 376.175462 204.753576 
L 376.175462 100.772394 
L 374.788388 100.772394 
z
" style="fill:#1f77b4;"/>
   </g>
   <g id="patch_181">
    <path clip-path="url(#p374e491a05)" d="M 376.52223 204.753576 
L 377.909304 204.753576 
L 377.909304 121.850931 
L 376.52223 121.850931 
z
" style="fill:#1f77b4;"/>
   </g>
   <g id="patch_182">
    <path clip-path="url(#p374e491a05)" d="M 378.256072 204.753576 
L 379.643146 204.753576 
L 379.643146 93.512418 
L 378.256072 93.512418 
z
" style="fill:#1f77b4;"/>
   </g>
   <g id="patch_183">
    <path clip-path="url(#p374e491a05)" d="M 379.989915 204.753576 
L 381.376989 204.753576 
L 381.376989 84.679157 
L 379.989915 84.679157 
z
" style="fill:#1f77b4;"/>
   </g>
   <g id="patch_184">
    <path clip-path="url(#p374e491a05)" d="M 381.723757 204.753576 
L 383.110831 204.753576 
L 383.110831 58.945672 
L 381.723757 58.945672 
z
" style="fill:#1f77b4;"/>
   </g>
   <g id="patch_185">
    <path clip-path="url(#p374e491a05)" d="M 383.457599 204.753576 
L 384.844673 204.753576 
L 384.844673 124.725277 
L 383.457599 124.725277 
z
" style="fill:#1f77b4;"/>
   </g>
   <g id="patch_186">
    <path clip-path="url(#p374e491a05)" d="M 385.191442 204.753576 
L 386.578516 204.753576 
L 386.578516 102.512308 
L 385.191442 102.512308 
z
" style="fill:#1f77b4;"/>
   </g>
   <g id="patch_187">
    <path clip-path="url(#p374e491a05)" d="M 386.925284 204.753576 
L 388.312358 204.753576 
L 388.312358 112.878166 
L 386.925284 112.878166 
z
" style="fill:#1f77b4;"/>
   </g>
   <g id="patch_188">
    <path clip-path="url(#p374e491a05)" d="M 388.659126 204.753576 
L 390.0462 204.753576 
L 390.0462 129.189377 
L 388.659126 129.189377 
z
" style="fill:#1f77b4;"/>
   </g>
   <g id="patch_189">
    <path clip-path="url(#p374e491a05)" d="M 390.392969 204.753576 
L 391.780043 204.753576 
L 391.780043 105.834227 
L 390.392969 105.834227 
z
" style="fill:#1f77b4;"/>
   </g>
   <g id="patch_190">
    <path clip-path="url(#p374e491a05)" d="M 392.126811 204.753576 
L 393.513885 204.753576 
L 393.513885 85.911435 
L 392.126811 85.911435 
z
" style="fill:#1f77b4;"/>
   </g>
   <g id="patch_191">
    <path clip-path="url(#p374e491a05)" d="M 393.860653 204.753576 
L 395.247727 204.753576 
L 395.247727 63.822469 
L 393.860653 63.822469 
z
" style="fill:#1f77b4;"/>
   </g>
   <g id="patch_192">
    <path clip-path="url(#p374e491a05)" d="M 395.594496 204.753576 
L 396.98157 204.753576 
L 396.98157 74.903281 
L 395.594496 74.903281 
z
" style="fill:#1f77b4;"/>
   </g>
   <g id="patch_193">
    <path clip-path="url(#p374e491a05)" d="M 397.328338 204.753576 
L 398.715412 204.753576 
L 398.715412 74.938157 
L 397.328338 74.938157 
z
" style="fill:#1f77b4;"/>
   </g>
   <g id="patch_194">
    <path clip-path="url(#p374e491a05)" d="M 399.06218 204.753576 
L 400.449254 204.753576 
L 400.449254 77.031673 
L 399.06218 77.031673 
z
" style="fill:#1f77b4;"/>
   </g>
   <g id="patch_195">
    <path clip-path="url(#p374e491a05)" d="M 400.796023 204.753576 
L 402.183097 204.753576 
L 402.183097 72.760358 
L 400.796023 72.760358 
z
" style="fill:#1f77b4;"/>
   </g>
   <g id="patch_196">
    <path clip-path="url(#p374e491a05)" d="M 402.529865 204.753576 
L 403.916939 204.753576 
L 403.916939 79.947676 
L 402.529865 79.947676 
z
" style="fill:#1f77b4;"/>
   </g>
   <g id="patch_197">
    <path clip-path="url(#p374e491a05)" d="M 404.263707 204.753576 
L 405.650781 204.753576 
L 405.650781 92.376049 
L 404.263707 92.376049 
z
" style="fill:#1f77b4;"/>
   </g>
   <g id="patch_198">
    <path clip-path="url(#p374e491a05)" d="M 405.99755 204.753576 
L 407.384624 204.753576 
L 407.384624 85.911435 
L 405.99755 85.911435 
z
" style="fill:#1f77b4;"/>
   </g>
   <g id="patch_199">
    <path clip-path="url(#p374e491a05)" d="M 407.731392 204.753576 
L 409.118466 204.753576 
L 409.118466 90.162405 
L 407.731392 90.162405 
z
" style="fill:#1f77b4;"/>
   </g>
   <g id="patch_200">
    <path clip-path="url(#p374e491a05)" d="M 409.465234 204.753576 
L 410.852308 204.753576 
L 410.852308 107.876398 
L 409.465234 107.876398 
z
" style="fill:#1f77b4;"/>
   </g>
   <g id="patch_201">
    <path clip-path="url(#p374e491a05)" d="M 411.199077 204.753576 
L 412.586151 204.753576 
L 412.586151 90.558633 
L 411.199077 90.558633 
z
" style="fill:#1f77b4;"/>
   </g>
   <g id="patch_202">
    <path clip-path="url(#p374e491a05)" d="M 412.932919 204.753576 
L 414.319993 204.753576 
L 414.319993 94.201215 
L 412.932919 94.201215 
z
" style="fill:#1f77b4;"/>
   </g>
   <g id="patch_203">
    <path clip-path="url(#p374e491a05)" d="M 414.666761 204.753576 
L 416.053835 204.753576 
L 416.053835 74.668838 
L 414.666761 74.668838 
z
" style="fill:#1f77b4;"/>
   </g>
   <g id="patch_204">
    <path clip-path="url(#p374e491a05)" d="M 416.400604 204.753576 
L 417.787678 204.753576 
L 417.787678 47.187689 
L 416.400604 47.187689 
z
" style="fill:#1f77b4;"/>
   </g>
   <g id="patch_205">
    <path clip-path="url(#p374e491a05)" d="M 418.134446 204.753576 
L 419.52152 204.753576 
L 419.52152 49.585399 
L 418.134446 49.585399 
z
" style="fill:#1f77b4;"/>
   </g>
   <g id="patch_206">
    <path clip-path="url(#p374e491a05)" d="M 419.868288 204.753576 
L 421.255362 204.753576 
L 421.255362 73.162398 
L 419.868288 73.162398 
z
" style="fill:#1f77b4;"/>
   </g>
   <g id="patch_207">
    <path clip-path="url(#p374e491a05)" d="M 421.602131 204.753576 
L 422.989205 204.753576 
L 422.989205 64.604268 
L 421.602131 64.604268 
z
" style="fill:#1f77b4;"/>
   </g>
   <g id="matplotlib.axis_1">
    <g id="xtick_1">
     <g id="line2d_1">
      <defs>
       <path d="M 0 0 
L 0 3.5 
" id="m610f9c6a2f" style="stroke:#000000;stroke-width:0.8;"/>
      </defs>
      <g>
       <use style="stroke:#000000;stroke-width:0.8;" x="66.85799" xlink:href="#m610f9c6a2f" y="204.753576"/>
      </g>
     </g>
     <g id="text_1">
      <!-- 0 -->
      <defs>
       <path d="M 31.78125 66.40625 
Q 24.171875 66.40625 20.328125 58.90625 
Q 16.5 51.421875 16.5 36.375 
Q 16.5 21.390625 20.328125 13.890625 
Q 24.171875 6.390625 31.78125 6.390625 
Q 39.453125 6.390625 43.28125 13.890625 
Q 47.125 21.390625 47.125 36.375 
Q 47.125 51.421875 43.28125 58.90625 
Q 39.453125 66.40625 31.78125 66.40625 
z
M 31.78125 74.21875 
Q 44.046875 74.21875 50.515625 64.515625 
Q 56.984375 54.828125 56.984375 36.375 
Q 56.984375 17.96875 50.515625 8.265625 
Q 44.046875 -1.421875 31.78125 -1.421875 
Q 19.53125 -1.421875 13.0625 8.265625 
Q 6.59375 17.96875 6.59375 36.375 
Q 6.59375 54.828125 13.0625 64.515625 
Q 19.53125 74.21875 31.78125 74.21875 
z
" id="DejaVuSans-48"/>
      </defs>
      <g transform="translate(63.67674 219.352014)scale(0.1 -0.1)">
       <use xlink:href="#DejaVuSans-48"/>
      </g>
     </g>
    </g>
    <g id="xtick_2">
     <g id="line2d_2">
      <g>
       <use style="stroke:#000000;stroke-width:0.8;" x="153.550107" xlink:href="#m610f9c6a2f" y="204.753576"/>
      </g>
     </g>
     <g id="text_2">
      <!-- 50 -->
      <defs>
       <path d="M 10.796875 72.90625 
L 49.515625 72.90625 
L 49.515625 64.59375 
L 19.828125 64.59375 
L 19.828125 46.734375 
Q 21.96875 47.46875 24.109375 47.828125 
Q 26.265625 48.1875 28.421875 48.1875 
Q 40.625 48.1875 47.75 41.5 
Q 54.890625 34.8125 54.890625 23.390625 
Q 54.890625 11.625 47.5625 5.09375 
Q 40.234375 -1.421875 26.90625 -1.421875 
Q 22.3125 -1.421875 17.546875 -0.640625 
Q 12.796875 0.140625 7.71875 1.703125 
L 7.71875 11.625 
Q 12.109375 9.234375 16.796875 8.0625 
Q 21.484375 6.890625 26.703125 6.890625 
Q 35.15625 6.890625 40.078125 11.328125 
Q 45.015625 15.765625 45.015625 23.390625 
Q 45.015625 31 40.078125 35.4375 
Q 35.15625 39.890625 26.703125 39.890625 
Q 22.75 39.890625 18.8125 39.015625 
Q 14.890625 38.140625 10.796875 36.28125 
z
" id="DejaVuSans-53"/>
      </defs>
      <g transform="translate(147.187607 219.352014)scale(0.1 -0.1)">
       <use xlink:href="#DejaVuSans-53"/>
       <use x="63.623047" xlink:href="#DejaVuSans-48"/>
      </g>
     </g>
    </g>
    <g id="xtick_3">
     <g id="line2d_3">
      <g>
       <use style="stroke:#000000;stroke-width:0.8;" x="240.242223" xlink:href="#m610f9c6a2f" y="204.753576"/>
      </g>
     </g>
     <g id="text_3">
      <!-- 100 -->
      <defs>
       <path d="M 12.40625 8.296875 
L 28.515625 8.296875 
L 28.515625 63.921875 
L 10.984375 60.40625 
L 10.984375 69.390625 
L 28.421875 72.90625 
L 38.28125 72.90625 
L 38.28125 8.296875 
L 54.390625 8.296875 
L 54.390625 0 
L 12.40625 0 
z
" id="DejaVuSans-49"/>
      </defs>
      <g transform="translate(230.698473 219.352014)scale(0.1 -0.1)">
       <use xlink:href="#DejaVuSans-49"/>
       <use x="63.623047" xlink:href="#DejaVuSans-48"/>
       <use x="127.246094" xlink:href="#DejaVuSans-48"/>
      </g>
     </g>
    </g>
    <g id="xtick_4">
     <g id="line2d_4">
      <g>
       <use style="stroke:#000000;stroke-width:0.8;" x="326.934339" xlink:href="#m610f9c6a2f" y="204.753576"/>
      </g>
     </g>
     <g id="text_4">
      <!-- 150 -->
      <g transform="translate(317.390589 219.352014)scale(0.1 -0.1)">
       <use xlink:href="#DejaVuSans-49"/>
       <use x="63.623047" xlink:href="#DejaVuSans-53"/>
       <use x="127.246094" xlink:href="#DejaVuSans-48"/>
      </g>
     </g>
    </g>
    <g id="xtick_5">
     <g id="line2d_5">
      <g>
       <use style="stroke:#000000;stroke-width:0.8;" x="413.626456" xlink:href="#m610f9c6a2f" y="204.753576"/>
      </g>
     </g>
     <g id="text_5">
      <!-- 200 -->
      <defs>
       <path d="M 19.1875 8.296875 
L 53.609375 8.296875 
L 53.609375 0 
L 7.328125 0 
L 7.328125 8.296875 
Q 12.9375 14.109375 22.625 23.890625 
Q 32.328125 33.6875 34.8125 36.53125 
Q 39.546875 41.84375 41.421875 45.53125 
Q 43.3125 49.21875 43.3125 52.78125 
Q 43.3125 58.59375 39.234375 62.25 
Q 35.15625 65.921875 28.609375 65.921875 
Q 23.96875 65.921875 18.8125 64.3125 
Q 13.671875 62.703125 7.8125 59.421875 
L 7.8125 69.390625 
Q 13.765625 71.78125 18.9375 73 
Q 24.125 74.21875 28.421875 74.21875 
Q 39.75 74.21875 46.484375 68.546875 
Q 53.21875 62.890625 53.21875 53.421875 
Q 53.21875 48.921875 51.53125 44.890625 
Q 49.859375 40.875 45.40625 35.40625 
Q 44.1875 33.984375 37.640625 27.21875 
Q 31.109375 20.453125 19.1875 8.296875 
z
" id="DejaVuSans-50"/>
      </defs>
      <g transform="translate(404.082706 219.352014)scale(0.1 -0.1)">
       <use xlink:href="#DejaVuSans-50"/>
       <use x="63.623047" xlink:href="#DejaVuSans-48"/>
       <use x="127.246094" xlink:href="#DejaVuSans-48"/>
      </g>
     </g>
    </g>
    <g id="text_6">
     <!-- number of chunk (from beginning to end) -->
     <defs>
      <path d="M 54.890625 33.015625 
L 54.890625 0 
L 45.90625 0 
L 45.90625 32.71875 
Q 45.90625 40.484375 42.875 44.328125 
Q 39.84375 48.1875 33.796875 48.1875 
Q 26.515625 48.1875 22.3125 43.546875 
Q 18.109375 38.921875 18.109375 30.90625 
L 18.109375 0 
L 9.078125 0 
L 9.078125 54.6875 
L 18.109375 54.6875 
L 18.109375 46.1875 
Q 21.34375 51.125 25.703125 53.5625 
Q 30.078125 56 35.796875 56 
Q 45.21875 56 50.046875 50.171875 
Q 54.890625 44.34375 54.890625 33.015625 
z
" id="DejaVuSans-110"/>
      <path d="M 8.5 21.578125 
L 8.5 54.6875 
L 17.484375 54.6875 
L 17.484375 21.921875 
Q 17.484375 14.15625 20.5 10.265625 
Q 23.53125 6.390625 29.59375 6.390625 
Q 36.859375 6.390625 41.078125 11.03125 
Q 45.3125 15.671875 45.3125 23.6875 
L 45.3125 54.6875 
L 54.296875 54.6875 
L 54.296875 0 
L 45.3125 0 
L 45.3125 8.40625 
Q 42.046875 3.421875 37.71875 1 
Q 33.40625 -1.421875 27.6875 -1.421875 
Q 18.265625 -1.421875 13.375 4.4375 
Q 8.5 10.296875 8.5 21.578125 
z
M 31.109375 56 
z
" id="DejaVuSans-117"/>
      <path d="M 52 44.1875 
Q 55.375 50.25 60.0625 53.125 
Q 64.75 56 71.09375 56 
Q 79.640625 56 84.28125 50.015625 
Q 88.921875 44.046875 88.921875 33.015625 
L 88.921875 0 
L 79.890625 0 
L 79.890625 32.71875 
Q 79.890625 40.578125 77.09375 44.375 
Q 74.3125 48.1875 68.609375 48.1875 
Q 61.625 48.1875 57.5625 43.546875 
Q 53.515625 38.921875 53.515625 30.90625 
L 53.515625 0 
L 44.484375 0 
L 44.484375 32.71875 
Q 44.484375 40.625 41.703125 44.40625 
Q 38.921875 48.1875 33.109375 48.1875 
Q 26.21875 48.1875 22.15625 43.53125 
Q 18.109375 38.875 18.109375 30.90625 
L 18.109375 0 
L 9.078125 0 
L 9.078125 54.6875 
L 18.109375 54.6875 
L 18.109375 46.1875 
Q 21.1875 51.21875 25.484375 53.609375 
Q 29.78125 56 35.6875 56 
Q 41.65625 56 45.828125 52.96875 
Q 50 49.953125 52 44.1875 
z
" id="DejaVuSans-109"/>
      <path d="M 48.6875 27.296875 
Q 48.6875 37.203125 44.609375 42.84375 
Q 40.53125 48.484375 33.40625 48.484375 
Q 26.265625 48.484375 22.1875 42.84375 
Q 18.109375 37.203125 18.109375 27.296875 
Q 18.109375 17.390625 22.1875 11.75 
Q 26.265625 6.109375 33.40625 6.109375 
Q 40.53125 6.109375 44.609375 11.75 
Q 48.6875 17.390625 48.6875 27.296875 
z
M 18.109375 46.390625 
Q 20.953125 51.265625 25.265625 53.625 
Q 29.59375 56 35.59375 56 
Q 45.5625 56 51.78125 48.09375 
Q 58.015625 40.1875 58.015625 27.296875 
Q 58.015625 14.40625 51.78125 6.484375 
Q 45.5625 -1.421875 35.59375 -1.421875 
Q 29.59375 -1.421875 25.265625 0.953125 
Q 20.953125 3.328125 18.109375 8.203125 
L 18.109375 0 
L 9.078125 0 
L 9.078125 75.984375 
L 18.109375 75.984375 
z
" id="DejaVuSans-98"/>
      <path d="M 56.203125 29.59375 
L 56.203125 25.203125 
L 14.890625 25.203125 
Q 15.484375 15.921875 20.484375 11.0625 
Q 25.484375 6.203125 34.421875 6.203125 
Q 39.59375 6.203125 44.453125 7.46875 
Q 49.3125 8.734375 54.109375 11.28125 
L 54.109375 2.78125 
Q 49.265625 0.734375 44.1875 -0.34375 
Q 39.109375 -1.421875 33.890625 -1.421875 
Q 20.796875 -1.421875 13.15625 6.1875 
Q 5.515625 13.8125 5.515625 26.8125 
Q 5.515625 40.234375 12.765625 48.109375 
Q 20.015625 56 32.328125 56 
Q 43.359375 56 49.78125 48.890625 
Q 56.203125 41.796875 56.203125 29.59375 
z
M 47.21875 32.234375 
Q 47.125 39.59375 43.09375 43.984375 
Q 39.0625 48.390625 32.421875 48.390625 
Q 24.90625 48.390625 20.390625 44.140625 
Q 15.875 39.890625 15.1875 32.171875 
z
" id="DejaVuSans-101"/>
      <path d="M 41.109375 46.296875 
Q 39.59375 47.171875 37.8125 47.578125 
Q 36.03125 48 33.890625 48 
Q 26.265625 48 22.1875 43.046875 
Q 18.109375 38.09375 18.109375 28.8125 
L 18.109375 0 
L 9.078125 0 
L 9.078125 54.6875 
L 18.109375 54.6875 
L 18.109375 46.1875 
Q 20.953125 51.171875 25.484375 53.578125 
Q 30.03125 56 36.53125 56 
Q 37.453125 56 38.578125 55.875 
Q 39.703125 55.765625 41.0625 55.515625 
z
" id="DejaVuSans-114"/>
      <path id="DejaVuSans-32"/>
      <path d="M 30.609375 48.390625 
Q 23.390625 48.390625 19.1875 42.75 
Q 14.984375 37.109375 14.984375 27.296875 
Q 14.984375 17.484375 19.15625 11.84375 
Q 23.34375 6.203125 30.609375 6.203125 
Q 37.796875 6.203125 41.984375 11.859375 
Q 46.1875 17.53125 46.1875 27.296875 
Q 46.1875 37.015625 41.984375 42.703125 
Q 37.796875 48.390625 30.609375 48.390625 
z
M 30.609375 56 
Q 42.328125 56 49.015625 48.375 
Q 55.71875 40.765625 55.71875 27.296875 
Q 55.71875 13.875 49.015625 6.21875 
Q 42.328125 -1.421875 30.609375 -1.421875 
Q 18.84375 -1.421875 12.171875 6.21875 
Q 5.515625 13.875 5.515625 27.296875 
Q 5.515625 40.765625 12.171875 48.375 
Q 18.84375 56 30.609375 56 
z
" id="DejaVuSans-111"/>
      <path d="M 37.109375 75.984375 
L 37.109375 68.5 
L 28.515625 68.5 
Q 23.6875 68.5 21.796875 66.546875 
Q 19.921875 64.59375 19.921875 59.515625 
L 19.921875 54.6875 
L 34.71875 54.6875 
L 34.71875 47.703125 
L 19.921875 47.703125 
L 19.921875 0 
L 10.890625 0 
L 10.890625 47.703125 
L 2.296875 47.703125 
L 2.296875 54.6875 
L 10.890625 54.6875 
L 10.890625 58.5 
Q 10.890625 67.625 15.140625 71.796875 
Q 19.390625 75.984375 28.609375 75.984375 
z
" id="DejaVuSans-102"/>
      <path d="M 48.78125 52.59375 
L 48.78125 44.1875 
Q 44.96875 46.296875 41.140625 47.34375 
Q 37.3125 48.390625 33.40625 48.390625 
Q 24.65625 48.390625 19.8125 42.84375 
Q 14.984375 37.3125 14.984375 27.296875 
Q 14.984375 17.28125 19.8125 11.734375 
Q 24.65625 6.203125 33.40625 6.203125 
Q 37.3125 6.203125 41.140625 7.25 
Q 44.96875 8.296875 48.78125 10.40625 
L 48.78125 2.09375 
Q 45.015625 0.34375 40.984375 -0.53125 
Q 36.96875 -1.421875 32.421875 -1.421875 
Q 20.0625 -1.421875 12.78125 6.34375 
Q 5.515625 14.109375 5.515625 27.296875 
Q 5.515625 40.671875 12.859375 48.328125 
Q 20.21875 56 33.015625 56 
Q 37.15625 56 41.109375 55.140625 
Q 45.0625 54.296875 48.78125 52.59375 
z
" id="DejaVuSans-99"/>
      <path d="M 54.890625 33.015625 
L 54.890625 0 
L 45.90625 0 
L 45.90625 32.71875 
Q 45.90625 40.484375 42.875 44.328125 
Q 39.84375 48.1875 33.796875 48.1875 
Q 26.515625 48.1875 22.3125 43.546875 
Q 18.109375 38.921875 18.109375 30.90625 
L 18.109375 0 
L 9.078125 0 
L 9.078125 75.984375 
L 18.109375 75.984375 
L 18.109375 46.1875 
Q 21.34375 51.125 25.703125 53.5625 
Q 30.078125 56 35.796875 56 
Q 45.21875 56 50.046875 50.171875 
Q 54.890625 44.34375 54.890625 33.015625 
z
" id="DejaVuSans-104"/>
      <path d="M 9.078125 75.984375 
L 18.109375 75.984375 
L 18.109375 31.109375 
L 44.921875 54.6875 
L 56.390625 54.6875 
L 27.390625 29.109375 
L 57.625 0 
L 45.90625 0 
L 18.109375 26.703125 
L 18.109375 0 
L 9.078125 0 
z
" id="DejaVuSans-107"/>
      <path d="M 31 75.875 
Q 24.46875 64.65625 21.28125 53.65625 
Q 18.109375 42.671875 18.109375 31.390625 
Q 18.109375 20.125 21.3125 9.0625 
Q 24.515625 -2 31 -13.1875 
L 23.1875 -13.1875 
Q 15.875 -1.703125 12.234375 9.375 
Q 8.59375 20.453125 8.59375 31.390625 
Q 8.59375 42.28125 12.203125 53.3125 
Q 15.828125 64.359375 23.1875 75.875 
z
" id="DejaVuSans-40"/>
      <path d="M 45.40625 27.984375 
Q 45.40625 37.75 41.375 43.109375 
Q 37.359375 48.484375 30.078125 48.484375 
Q 22.859375 48.484375 18.828125 43.109375 
Q 14.796875 37.75 14.796875 27.984375 
Q 14.796875 18.265625 18.828125 12.890625 
Q 22.859375 7.515625 30.078125 7.515625 
Q 37.359375 7.515625 41.375 12.890625 
Q 45.40625 18.265625 45.40625 27.984375 
z
M 54.390625 6.78125 
Q 54.390625 -7.171875 48.1875 -13.984375 
Q 42 -20.796875 29.203125 -20.796875 
Q 24.46875 -20.796875 20.265625 -20.09375 
Q 16.0625 -19.390625 12.109375 -17.921875 
L 12.109375 -9.1875 
Q 16.0625 -11.328125 19.921875 -12.34375 
Q 23.78125 -13.375 27.78125 -13.375 
Q 36.625 -13.375 41.015625 -8.765625 
Q 45.40625 -4.15625 45.40625 5.171875 
L 45.40625 9.625 
Q 42.625 4.78125 38.28125 2.390625 
Q 33.9375 0 27.875 0 
Q 17.828125 0 11.671875 7.65625 
Q 5.515625 15.328125 5.515625 27.984375 
Q 5.515625 40.671875 11.671875 48.328125 
Q 17.828125 56 27.875 56 
Q 33.9375 56 38.28125 53.609375 
Q 42.625 51.21875 45.40625 46.390625 
L 45.40625 54.6875 
L 54.390625 54.6875 
z
" id="DejaVuSans-103"/>
      <path d="M 9.421875 54.6875 
L 18.40625 54.6875 
L 18.40625 0 
L 9.421875 0 
z
M 9.421875 75.984375 
L 18.40625 75.984375 
L 18.40625 64.59375 
L 9.421875 64.59375 
z
" id="DejaVuSans-105"/>
      <path d="M 18.3125 70.21875 
L 18.3125 54.6875 
L 36.8125 54.6875 
L 36.8125 47.703125 
L 18.3125 47.703125 
L 18.3125 18.015625 
Q 18.3125 11.328125 20.140625 9.421875 
Q 21.96875 7.515625 27.59375 7.515625 
L 36.8125 7.515625 
L 36.8125 0 
L 27.59375 0 
Q 17.1875 0 13.234375 3.875 
Q 9.28125 7.765625 9.28125 18.015625 
L 9.28125 47.703125 
L 2.6875 47.703125 
L 2.6875 54.6875 
L 9.28125 54.6875 
L 9.28125 70.21875 
z
" id="DejaVuSans-116"/>
      <path d="M 45.40625 46.390625 
L 45.40625 75.984375 
L 54.390625 75.984375 
L 54.390625 0 
L 45.40625 0 
L 45.40625 8.203125 
Q 42.578125 3.328125 38.25 0.953125 
Q 33.9375 -1.421875 27.875 -1.421875 
Q 17.96875 -1.421875 11.734375 6.484375 
Q 5.515625 14.40625 5.515625 27.296875 
Q 5.515625 40.1875 11.734375 48.09375 
Q 17.96875 56 27.875 56 
Q 33.9375 56 38.25 53.625 
Q 42.578125 51.265625 45.40625 46.390625 
z
M 14.796875 27.296875 
Q 14.796875 17.390625 18.875 11.75 
Q 22.953125 6.109375 30.078125 6.109375 
Q 37.203125 6.109375 41.296875 11.75 
Q 45.40625 17.390625 45.40625 27.296875 
Q 45.40625 37.203125 41.296875 42.84375 
Q 37.203125 48.484375 30.078125 48.484375 
Q 22.953125 48.484375 18.875 42.84375 
Q 14.796875 37.203125 14.796875 27.296875 
z
" id="DejaVuSans-100"/>
      <path d="M 8.015625 75.875 
L 15.828125 75.875 
Q 23.140625 64.359375 26.78125 53.3125 
Q 30.421875 42.28125 30.421875 31.390625 
Q 30.421875 20.453125 26.78125 9.375 
Q 23.140625 -1.703125 15.828125 -13.1875 
L 8.015625 -13.1875 
Q 14.5 -2 17.703125 9.0625 
Q 20.90625 20.125 20.90625 31.390625 
Q 20.90625 42.671875 17.703125 53.65625 
Q 14.5 64.65625 8.015625 75.875 
z
" id="DejaVuSans-41"/>
     </defs>
     <g transform="translate(141.457031 233.030139)scale(0.1 -0.1)">
      <use xlink:href="#DejaVuSans-110"/>
      <use x="63.378906" xlink:href="#DejaVuSans-117"/>
      <use x="126.757812" xlink:href="#DejaVuSans-109"/>
      <use x="224.169922" xlink:href="#DejaVuSans-98"/>
      <use x="287.646484" xlink:href="#DejaVuSans-101"/>
      <use x="349.169922" xlink:href="#DejaVuSans-114"/>
      <use x="390.283203" xlink:href="#DejaVuSans-32"/>
      <use x="422.070312" xlink:href="#DejaVuSans-111"/>
      <use x="483.251953" xlink:href="#DejaVuSans-102"/>
      <use x="518.457031" xlink:href="#DejaVuSans-32"/>
      <use x="550.244141" xlink:href="#DejaVuSans-99"/>
      <use x="605.224609" xlink:href="#DejaVuSans-104"/>
      <use x="668.603516" xlink:href="#DejaVuSans-117"/>
      <use x="731.982422" xlink:href="#DejaVuSans-110"/>
      <use x="795.361328" xlink:href="#DejaVuSans-107"/>
      <use x="853.271484" xlink:href="#DejaVuSans-32"/>
      <use x="885.058594" xlink:href="#DejaVuSans-40"/>
      <use x="924.072266" xlink:href="#DejaVuSans-102"/>
      <use x="959.277344" xlink:href="#DejaVuSans-114"/>
      <use x="1000.359375" xlink:href="#DejaVuSans-111"/>
      <use x="1061.541016" xlink:href="#DejaVuSans-109"/>
      <use x="1158.953125" xlink:href="#DejaVuSans-32"/>
      <use x="1190.740234" xlink:href="#DejaVuSans-98"/>
      <use x="1254.216797" xlink:href="#DejaVuSans-101"/>
      <use x="1315.740234" xlink:href="#DejaVuSans-103"/>
      <use x="1379.216797" xlink:href="#DejaVuSans-105"/>
      <use x="1407" xlink:href="#DejaVuSans-110"/>
      <use x="1470.378906" xlink:href="#DejaVuSans-110"/>
      <use x="1533.757812" xlink:href="#DejaVuSans-105"/>
      <use x="1561.541016" xlink:href="#DejaVuSans-110"/>
      <use x="1624.919922" xlink:href="#DejaVuSans-103"/>
      <use x="1688.396484" xlink:href="#DejaVuSans-32"/>
      <use x="1720.183594" xlink:href="#DejaVuSans-116"/>
      <use x="1759.392578" xlink:href="#DejaVuSans-111"/>
      <use x="1820.574219" xlink:href="#DejaVuSans-32"/>
      <use x="1852.361328" xlink:href="#DejaVuSans-101"/>
      <use x="1913.884766" xlink:href="#DejaVuSans-110"/>
      <use x="1977.263672" xlink:href="#DejaVuSans-100"/>
      <use x="2040.740234" xlink:href="#DejaVuSans-41"/>
     </g>
    </g>
   </g>
   <g id="matplotlib.axis_2">
    <g id="ytick_1">
     <g id="line2d_6">
      <defs>
       <path d="M 0 0 
L -3.5 0 
" id="m0fbe5e3970" style="stroke:#000000;stroke-width:0.8;"/>
      </defs>
      <g>
       <use style="stroke:#000000;stroke-width:0.8;" x="50.14375" xlink:href="#m0fbe5e3970" y="204.753576"/>
      </g>
     </g>
     <g id="text_7">
      <!-- 0.0 -->
      <defs>
       <path d="M 10.6875 12.40625 
L 21 12.40625 
L 21 0 
L 10.6875 0 
z
" id="DejaVuSans-46"/>
      </defs>
      <g transform="translate(27.240625 208.552795)scale(0.1 -0.1)">
       <use xlink:href="#DejaVuSans-48"/>
       <use x="63.623047" xlink:href="#DejaVuSans-46"/>
       <use x="95.410156" xlink:href="#DejaVuSans-48"/>
      </g>
     </g>
    </g>
    <g id="ytick_2">
     <g id="line2d_7">
      <g>
       <use style="stroke:#000000;stroke-width:0.8;" x="50.14375" xlink:href="#m0fbe5e3970" y="180.534282"/>
      </g>
     </g>
     <g id="text_8">
      <!-- 2.5 -->
      <g transform="translate(27.240625 184.3335)scale(0.1 -0.1)">
       <use xlink:href="#DejaVuSans-50"/>
       <use x="63.623047" xlink:href="#DejaVuSans-46"/>
       <use x="95.410156" xlink:href="#DejaVuSans-53"/>
      </g>
     </g>
    </g>
    <g id="ytick_3">
     <g id="line2d_8">
      <g>
       <use style="stroke:#000000;stroke-width:0.8;" x="50.14375" xlink:href="#m0fbe5e3970" y="156.314987"/>
      </g>
     </g>
     <g id="text_9">
      <!-- 5.0 -->
      <g transform="translate(27.240625 160.114206)scale(0.1 -0.1)">
       <use xlink:href="#DejaVuSans-53"/>
       <use x="63.623047" xlink:href="#DejaVuSans-46"/>
       <use x="95.410156" xlink:href="#DejaVuSans-48"/>
      </g>
     </g>
    </g>
    <g id="ytick_4">
     <g id="line2d_9">
      <g>
       <use style="stroke:#000000;stroke-width:0.8;" x="50.14375" xlink:href="#m0fbe5e3970" y="132.095692"/>
      </g>
     </g>
     <g id="text_10">
      <!-- 7.5 -->
      <defs>
       <path d="M 8.203125 72.90625 
L 55.078125 72.90625 
L 55.078125 68.703125 
L 28.609375 0 
L 18.3125 0 
L 43.21875 64.59375 
L 8.203125 64.59375 
z
" id="DejaVuSans-55"/>
      </defs>
      <g transform="translate(27.240625 135.894911)scale(0.1 -0.1)">
       <use xlink:href="#DejaVuSans-55"/>
       <use x="63.623047" xlink:href="#DejaVuSans-46"/>
       <use x="95.410156" xlink:href="#DejaVuSans-53"/>
      </g>
     </g>
    </g>
    <g id="ytick_5">
     <g id="line2d_10">
      <g>
       <use style="stroke:#000000;stroke-width:0.8;" x="50.14375" xlink:href="#m0fbe5e3970" y="107.876398"/>
      </g>
     </g>
     <g id="text_11">
      <!-- 10.0 -->
      <g transform="translate(20.878125 111.675616)scale(0.1 -0.1)">
       <use xlink:href="#DejaVuSans-49"/>
       <use x="63.623047" xlink:href="#DejaVuSans-48"/>
       <use x="127.246094" xlink:href="#DejaVuSans-46"/>
       <use x="159.033203" xlink:href="#DejaVuSans-48"/>
      </g>
     </g>
    </g>
    <g id="ytick_6">
     <g id="line2d_11">
      <g>
       <use style="stroke:#000000;stroke-width:0.8;" x="50.14375" xlink:href="#m0fbe5e3970" y="83.657103"/>
      </g>
     </g>
     <g id="text_12">
      <!-- 12.5 -->
      <g transform="translate(20.878125 87.456322)scale(0.1 -0.1)">
       <use xlink:href="#DejaVuSans-49"/>
       <use x="63.623047" xlink:href="#DejaVuSans-50"/>
       <use x="127.246094" xlink:href="#DejaVuSans-46"/>
       <use x="159.033203" xlink:href="#DejaVuSans-53"/>
      </g>
     </g>
    </g>
    <g id="ytick_7">
     <g id="line2d_12">
      <g>
       <use style="stroke:#000000;stroke-width:0.8;" x="50.14375" xlink:href="#m0fbe5e3970" y="59.437808"/>
      </g>
     </g>
     <g id="text_13">
      <!-- 15.0 -->
      <g transform="translate(20.878125 63.237027)scale(0.1 -0.1)">
       <use xlink:href="#DejaVuSans-49"/>
       <use x="63.623047" xlink:href="#DejaVuSans-53"/>
       <use x="127.246094" xlink:href="#DejaVuSans-46"/>
       <use x="159.033203" xlink:href="#DejaVuSans-48"/>
      </g>
     </g>
    </g>
    <g id="ytick_8">
     <g id="line2d_13">
      <g>
       <use style="stroke:#000000;stroke-width:0.8;" x="50.14375" xlink:href="#m0fbe5e3970" y="35.218513"/>
      </g>
     </g>
     <g id="text_14">
      <!-- 17.5 -->
      <g transform="translate(20.878125 39.017732)scale(0.1 -0.1)">
       <use xlink:href="#DejaVuSans-49"/>
       <use x="63.623047" xlink:href="#DejaVuSans-55"/>
       <use x="127.246094" xlink:href="#DejaVuSans-46"/>
       <use x="159.033203" xlink:href="#DejaVuSans-53"/>
      </g>
     </g>
    </g>
    <g id="ytick_9">
     <g id="line2d_14">
      <g>
       <use style="stroke:#000000;stroke-width:0.8;" x="50.14375" xlink:href="#m0fbe5e3970" y="10.999219"/>
      </g>
     </g>
     <g id="text_15">
      <!-- 20.0 -->
      <g transform="translate(20.878125 14.798438)scale(0.1 -0.1)">
       <use xlink:href="#DejaVuSans-50"/>
       <use x="63.623047" xlink:href="#DejaVuSans-48"/>
       <use x="127.246094" xlink:href="#DejaVuSans-46"/>
       <use x="159.033203" xlink:href="#DejaVuSans-48"/>
      </g>
     </g>
    </g>
    <g id="text_16">
     <!-- GFI -->
     <defs>
      <path d="M 59.515625 10.40625 
L 59.515625 29.984375 
L 43.40625 29.984375 
L 43.40625 38.09375 
L 69.28125 38.09375 
L 69.28125 6.78125 
Q 63.578125 2.734375 56.6875 0.65625 
Q 49.8125 -1.421875 42 -1.421875 
Q 24.90625 -1.421875 15.25 8.5625 
Q 5.609375 18.5625 5.609375 36.375 
Q 5.609375 54.25 15.25 64.234375 
Q 24.90625 74.21875 42 74.21875 
Q 49.125 74.21875 55.546875 72.453125 
Q 61.96875 70.703125 67.390625 67.28125 
L 67.390625 56.78125 
Q 61.921875 61.421875 55.765625 63.765625 
Q 49.609375 66.109375 42.828125 66.109375 
Q 29.4375 66.109375 22.71875 58.640625 
Q 16.015625 51.171875 16.015625 36.375 
Q 16.015625 21.625 22.71875 14.15625 
Q 29.4375 6.6875 42.828125 6.6875 
Q 48.046875 6.6875 52.140625 7.59375 
Q 56.25 8.5 59.515625 10.40625 
z
" id="DejaVuSans-71"/>
      <path d="M 9.8125 72.90625 
L 51.703125 72.90625 
L 51.703125 64.59375 
L 19.671875 64.59375 
L 19.671875 43.109375 
L 48.578125 43.109375 
L 48.578125 34.8125 
L 19.671875 34.8125 
L 19.671875 0 
L 9.8125 0 
z
" id="DejaVuSans-70"/>
      <path d="M 9.8125 72.90625 
L 19.671875 72.90625 
L 19.671875 0 
L 9.8125 0 
z
" id="DejaVuSans-73"/>
     </defs>
     <g transform="translate(14.798438 115.958576)rotate(-90)scale(0.1 -0.1)">
      <use xlink:href="#DejaVuSans-71"/>
      <use x="77.490234" xlink:href="#DejaVuSans-70"/>
      <use x="135.009766" xlink:href="#DejaVuSans-73"/>
     </g>
    </g>
   </g>
   <g id="patch_208">
    <path d="M 50.14375 204.753576 
L 50.14375 10.713576 
" style="fill:none;stroke:#000000;stroke-linecap:square;stroke-linejoin:miter;stroke-width:0.8;"/>
   </g>
   <g id="patch_209">
    <path d="M 440.74375 204.753576 
L 440.74375 10.713576 
" style="fill:none;stroke:#000000;stroke-linecap:square;stroke-linejoin:miter;stroke-width:0.8;"/>
   </g>
   <g id="patch_210">
    <path d="M 50.14375 204.753576 
L 440.74375 204.753576 
" style="fill:none;stroke:#000000;stroke-linecap:square;stroke-linejoin:miter;stroke-width:0.8;"/>
   </g>
   <g id="patch_211">
    <path d="M 50.14375 10.713576 
L 440.74375 10.713576 
" style="fill:none;stroke:#000000;stroke-linecap:square;stroke-linejoin:miter;stroke-width:0.8;"/>
   </g>
  </g>
 </g>
 <defs>
  <clipPath id="p374e491a05">
   <rect height="194.04" width="390.6" x="50.14375" y="10.713576"/>
  </clipPath>
 </defs>
</svg>
