<?xml version="1.0" encoding="utf-8" standalone="no"?>
<!DOCTYPE svg PUBLIC "-//W3C//DTD SVG 1.1//EN"
  "http://www.w3.org/Graphics/SVG/1.1/DTD/svg11.dtd">
<!-- Created with matplotlib (https://matplotlib.org/) -->
<svg height="242.29625pt" version="1.1" viewBox="0 0 441.903125 242.29625" width="441.903125pt" xmlns="http://www.w3.org/2000/svg" xmlns:xlink="http://www.w3.org/1999/xlink">
 <defs>
  <style type="text/css">
*{stroke-linecap:butt;stroke-linejoin:round;}
  </style>
 </defs>
 <g id="figure_1">
  <g id="patch_1">
   <path d="M 0 242.29625 
L 441.903125 242.29625 
L 441.903125 0 
L 0 0 
z
" style="fill:#ffffff;"/>
  </g>
  <g id="axes_1">
   <g id="patch_2">
    <path d="M 40.603125 204.74 
L 431.203125 204.74 
L 431.203125 10.7 
L 40.603125 10.7 
z
" style="fill:#ffffff;"/>
   </g>
   <g id="patch_3">
    <path clip-path="url(#p5186469fe5)" d="M 58.35767 204.74 
L 59.815949 204.74 
L 59.815949 51.93236 
L 58.35767 51.93236 
z
" style="fill:#1f77b4;"/>
   </g>
   <g id="patch_4">
    <path clip-path="url(#p5186469fe5)" d="M 60.180519 204.74 
L 61.638798 204.74 
L 61.638798 76.894609 
L 60.180519 76.894609 
z
" style="fill:#1f77b4;"/>
   </g>
   <g id="patch_5">
    <path clip-path="url(#p5186469fe5)" d="M 62.003368 204.74 
L 63.461647 204.74 
L 63.461647 96.559209 
L 62.003368 96.559209 
z
" style="fill:#1f77b4;"/>
   </g>
   <g id="patch_6">
    <path clip-path="url(#p5186469fe5)" d="M 63.826216 204.74 
L 65.284495 204.74 
L 65.284495 70.833113 
L 63.826216 70.833113 
z
" style="fill:#1f77b4;"/>
   </g>
   <g id="patch_7">
    <path clip-path="url(#p5186469fe5)" d="M 65.649065 204.74 
L 67.107344 204.74 
L 67.107344 94.435052 
L 65.649065 94.435052 
z
" style="fill:#1f77b4;"/>
   </g>
   <g id="patch_8">
    <path clip-path="url(#p5186469fe5)" d="M 67.471914 204.74 
L 68.930192 204.74 
L 68.930192 74.441632 
L 67.471914 74.441632 
z
" style="fill:#1f77b4;"/>
   </g>
   <g id="patch_9">
    <path clip-path="url(#p5186469fe5)" d="M 69.294762 204.74 
L 70.753041 204.74 
L 70.753041 113.163323 
L 69.294762 113.163323 
z
" style="fill:#1f77b4;"/>
   </g>
   <g id="patch_10">
    <path clip-path="url(#p5186469fe5)" d="M 71.117611 204.74 
L 72.57589 204.74 
L 72.57589 99.3563 
L 71.117611 99.3563 
z
" style="fill:#1f77b4;"/>
   </g>
   <g id="patch_11">
    <path clip-path="url(#p5186469fe5)" d="M 72.940459 204.74 
L 74.398738 204.74 
L 74.398738 129.676524 
L 72.940459 129.676524 
z
" style="fill:#1f77b4;"/>
   </g>
   <g id="patch_12">
    <path clip-path="url(#p5186469fe5)" d="M 74.763308 204.74 
L 76.221587 204.74 
L 76.221587 134.130457 
L 74.763308 134.130457 
z
" style="fill:#1f77b4;"/>
   </g>
   <g id="patch_13">
    <path clip-path="url(#p5186469fe5)" d="M 76.586157 204.74 
L 78.044435 204.74 
L 78.044435 110.710346 
L 76.586157 110.710346 
z
" style="fill:#1f77b4;"/>
   </g>
   <g id="patch_14">
    <path clip-path="url(#p5186469fe5)" d="M 78.409005 204.74 
L 79.867284 204.74 
L 79.867284 92.931998 
L 78.409005 92.931998 
z
" style="fill:#1f77b4;"/>
   </g>
   <g id="patch_15">
    <path clip-path="url(#p5186469fe5)" d="M 80.231854 204.74 
L 81.690133 204.74 
L 81.690133 118.065879 
L 80.231854 118.065879 
z
" style="fill:#1f77b4;"/>
   </g>
   <g id="patch_16">
    <path clip-path="url(#p5186469fe5)" d="M 82.054702 204.74 
L 83.512981 204.74 
L 83.512981 70.114299 
L 82.054702 70.114299 
z
" style="fill:#1f77b4;"/>
   </g>
   <g id="patch_17">
    <path clip-path="url(#p5186469fe5)" d="M 83.877551 204.74 
L 85.33583 204.74 
L 85.33583 103.915591 
L 83.877551 103.915591 
z
" style="fill:#1f77b4;"/>
   </g>
   <g id="patch_18">
    <path clip-path="url(#p5186469fe5)" d="M 85.7004 204.74 
L 87.158678 204.74 
L 87.158678 93.926953 
L 85.7004 93.926953 
z
" style="fill:#1f77b4;"/>
   </g>
   <g id="patch_19">
    <path clip-path="url(#p5186469fe5)" d="M 87.523248 204.74 
L 88.981527 204.74 
L 88.981527 96.580451 
L 87.523248 96.580451 
z
" style="fill:#1f77b4;"/>
   </g>
   <g id="patch_20">
    <path clip-path="url(#p5186469fe5)" d="M 89.346097 204.74 
L 90.804376 204.74 
L 90.804376 109.728136 
L 89.346097 109.728136 
z
" style="fill:#1f77b4;"/>
   </g>
   <g id="patch_21">
    <path clip-path="url(#p5186469fe5)" d="M 91.168945 204.74 
L 92.627224 204.74 
L 92.627224 91.86907 
L 91.168945 91.86907 
z
" style="fill:#1f77b4;"/>
   </g>
   <g id="patch_22">
    <path clip-path="url(#p5186469fe5)" d="M 92.991794 204.74 
L 94.450073 204.74 
L 94.450073 116.107406 
L 92.991794 116.107406 
z
" style="fill:#1f77b4;"/>
   </g>
   <g id="patch_23">
    <path clip-path="url(#p5186469fe5)" d="M 94.814643 204.74 
L 96.272922 204.74 
L 96.272922 121.435642 
L 94.814643 121.435642 
z
" style="fill:#1f77b4;"/>
   </g>
   <g id="patch_24">
    <path clip-path="url(#p5186469fe5)" d="M 96.637491 204.74 
L 98.09577 204.74 
L 98.09577 135.73632 
L 96.637491 135.73632 
z
" style="fill:#1f77b4;"/>
   </g>
   <g id="patch_25">
    <path clip-path="url(#p5186469fe5)" d="M 98.46034 204.74 
L 99.918619 204.74 
L 99.918619 105.400802 
L 98.46034 105.400802 
z
" style="fill:#1f77b4;"/>
   </g>
   <g id="patch_26">
    <path clip-path="url(#p5186469fe5)" d="M 100.283188 204.74 
L 101.741467 204.74 
L 101.741467 120.099972 
L 100.283188 120.099972 
z
" style="fill:#1f77b4;"/>
   </g>
   <g id="patch_27">
    <path clip-path="url(#p5186469fe5)" d="M 102.106037 204.74 
L 103.564316 204.74 
L 103.564316 103.91899 
L 102.106037 103.91899 
z
" style="fill:#1f77b4;"/>
   </g>
   <g id="patch_28">
    <path clip-path="url(#p5186469fe5)" d="M 103.928886 204.74 
L 105.387165 204.74 
L 105.387165 115.157482 
L 103.928886 115.157482 
z
" style="fill:#1f77b4;"/>
   </g>
   <g id="patch_29">
    <path clip-path="url(#p5186469fe5)" d="M 105.751734 204.74 
L 107.210013 204.74 
L 107.210013 126.317806 
L 105.751734 126.317806 
z
" style="fill:#1f77b4;"/>
   </g>
   <g id="patch_30">
    <path clip-path="url(#p5186469fe5)" d="M 107.574583 204.74 
L 109.032862 204.74 
L 109.032862 87.668336 
L 107.574583 87.668336 
z
" style="fill:#1f77b4;"/>
   </g>
   <g id="patch_31">
    <path clip-path="url(#p5186469fe5)" d="M 109.397432 204.74 
L 110.85571 204.74 
L 110.85571 125.577749 
L 109.397432 125.577749 
z
" style="fill:#1f77b4;"/>
   </g>
   <g id="patch_32">
    <path clip-path="url(#p5186469fe5)" d="M 111.22028 204.74 
L 112.678559 204.74 
L 112.678559 111.228641 
L 111.22028 111.228641 
z
" style="fill:#1f77b4;"/>
   </g>
   <g id="patch_33">
    <path clip-path="url(#p5186469fe5)" d="M 113.043129 204.74 
L 114.501408 204.74 
L 114.501408 121.909754 
L 113.043129 121.909754 
z
" style="fill:#1f77b4;"/>
   </g>
   <g id="patch_34">
    <path clip-path="url(#p5186469fe5)" d="M 114.865977 204.74 
L 116.324256 204.74 
L 116.324256 122.880919 
L 114.865977 122.880919 
z
" style="fill:#1f77b4;"/>
   </g>
   <g id="patch_35">
    <path clip-path="url(#p5186469fe5)" d="M 116.688826 204.74 
L 118.147105 204.74 
L 118.147105 105.990469 
L 116.688826 105.990469 
z
" style="fill:#1f77b4;"/>
   </g>
   <g id="patch_36">
    <path clip-path="url(#p5186469fe5)" d="M 118.511675 204.74 
L 119.969953 204.74 
L 119.969953 124.308353 
L 118.511675 124.308353 
z
" style="fill:#1f77b4;"/>
   </g>
   <g id="patch_37">
    <path clip-path="url(#p5186469fe5)" d="M 120.334523 204.74 
L 121.792802 204.74 
L 121.792802 124.304954 
L 120.334523 124.304954 
z
" style="fill:#1f77b4;"/>
   </g>
   <g id="patch_38">
    <path clip-path="url(#p5186469fe5)" d="M 122.157372 204.74 
L 123.615651 204.74 
L 123.615651 108.512268 
L 122.157372 108.512268 
z
" style="fill:#1f77b4;"/>
   </g>
   <g id="patch_39">
    <path clip-path="url(#p5186469fe5)" d="M 123.98022 204.74 
L 125.438499 204.74 
L 125.438499 108.430701 
L 123.98022 108.430701 
z
" style="fill:#1f77b4;"/>
   </g>
   <g id="patch_40">
    <path clip-path="url(#p5186469fe5)" d="M 125.803069 204.74 
L 127.261348 204.74 
L 127.261348 121.009961 
L 125.803069 121.009961 
z
" style="fill:#1f77b4;"/>
   </g>
   <g id="patch_41">
    <path clip-path="url(#p5186469fe5)" d="M 127.625918 204.74 
L 129.084196 204.74 
L 129.084196 131.463365 
L 127.625918 131.463365 
z
" style="fill:#1f77b4;"/>
   </g>
   <g id="patch_42">
    <path clip-path="url(#p5186469fe5)" d="M 129.448766 204.74 
L 130.907045 204.74 
L 130.907045 100.678376 
L 129.448766 100.678376 
z
" style="fill:#1f77b4;"/>
   </g>
   <g id="patch_43">
    <path clip-path="url(#p5186469fe5)" d="M 131.271615 204.74 
L 132.729894 204.74 
L 132.729894 116.060674 
L 131.271615 116.060674 
z
" style="fill:#1f77b4;"/>
   </g>
   <g id="patch_44">
    <path clip-path="url(#p5186469fe5)" d="M 133.094463 204.74 
L 134.552742 204.74 
L 134.552742 120.396504 
L 133.094463 120.396504 
z
" style="fill:#1f77b4;"/>
   </g>
   <g id="patch_45">
    <path clip-path="url(#p5186469fe5)" d="M 134.917312 204.74 
L 136.375591 204.74 
L 136.375591 110.445252 
L 134.917312 110.445252 
z
" style="fill:#1f77b4;"/>
   </g>
   <g id="patch_46">
    <path clip-path="url(#p5186469fe5)" d="M 136.740161 204.74 
L 138.19844 204.74 
L 138.19844 125.917615 
L 136.740161 125.917615 
z
" style="fill:#1f77b4;"/>
   </g>
   <g id="patch_47">
    <path clip-path="url(#p5186469fe5)" d="M 138.563009 204.74 
L 140.021288 204.74 
L 140.021288 129.531231 
L 138.563009 129.531231 
z
" style="fill:#1f77b4;"/>
   </g>
   <g id="patch_48">
    <path clip-path="url(#p5186469fe5)" d="M 140.385858 204.74 
L 141.844137 204.74 
L 141.844137 130.227105 
L 140.385858 130.227105 
z
" style="fill:#1f77b4;"/>
   </g>
   <g id="patch_49">
    <path clip-path="url(#p5186469fe5)" d="M 142.208706 204.74 
L 143.666985 204.74 
L 143.666985 121.343879 
L 142.208706 121.343879 
z
" style="fill:#1f77b4;"/>
   </g>
   <g id="patch_50">
    <path clip-path="url(#p5186469fe5)" d="M 144.031555 204.74 
L 145.489834 204.74 
L 145.489834 119.993764 
L 144.031555 119.993764 
z
" style="fill:#1f77b4;"/>
   </g>
   <g id="patch_51">
    <path clip-path="url(#p5186469fe5)" d="M 145.854404 204.74 
L 147.312683 204.74 
L 147.312683 104.479768 
L 145.854404 104.479768 
z
" style="fill:#1f77b4;"/>
   </g>
   <g id="patch_52">
    <path clip-path="url(#p5186469fe5)" d="M 147.677252 204.74 
L 149.135531 204.74 
L 149.135531 110.462245 
L 147.677252 110.462245 
z
" style="fill:#1f77b4;"/>
   </g>
   <g id="patch_53">
    <path clip-path="url(#p5186469fe5)" d="M 149.500101 204.74 
L 150.95838 204.74 
L 150.95838 121.193488 
L 149.500101 121.193488 
z
" style="fill:#1f77b4;"/>
   </g>
   <g id="patch_54">
    <path clip-path="url(#p5186469fe5)" d="M 151.32295 204.74 
L 152.781228 204.74 
L 152.781228 108.597235 
L 151.32295 108.597235 
z
" style="fill:#1f77b4;"/>
   </g>
   <g id="patch_55">
    <path clip-path="url(#p5186469fe5)" d="M 153.145798 204.74 
L 154.604077 204.74 
L 154.604077 106.879216 
L 153.145798 106.879216 
z
" style="fill:#1f77b4;"/>
   </g>
   <g id="patch_56">
    <path clip-path="url(#p5186469fe5)" d="M 154.968647 204.74 
L 156.426926 204.74 
L 156.426926 129.83711 
L 154.968647 129.83711 
z
" style="fill:#1f77b4;"/>
   </g>
   <g id="patch_57">
    <path clip-path="url(#p5186469fe5)" d="M 156.791495 204.74 
L 158.249774 204.74 
L 158.249774 109.935454 
L 156.791495 109.935454 
z
" style="fill:#1f77b4;"/>
   </g>
   <g id="patch_58">
    <path clip-path="url(#p5186469fe5)" d="M 158.614344 204.74 
L 160.072623 204.74 
L 160.072623 107.082285 
L 158.614344 107.082285 
z
" style="fill:#1f77b4;"/>
   </g>
   <g id="patch_59">
    <path clip-path="url(#p5186469fe5)" d="M 160.437193 204.74 
L 161.895471 204.74 
L 161.895471 101.241702 
L 160.437193 101.241702 
z
" style="fill:#1f77b4;"/>
   </g>
   <g id="patch_60">
    <path clip-path="url(#p5186469fe5)" d="M 162.260041 204.74 
L 163.71832 204.74 
L 163.71832 106.235171 
L 162.260041 106.235171 
z
" style="fill:#1f77b4;"/>
   </g>
   <g id="patch_61">
    <path clip-path="url(#p5186469fe5)" d="M 164.08289 204.74 
L 165.541169 204.74 
L 165.541169 90.318435 
L 164.08289 90.318435 
z
" style="fill:#1f77b4;"/>
   </g>
   <g id="patch_62">
    <path clip-path="url(#p5186469fe5)" d="M 165.905738 204.74 
L 167.364017 204.74 
L 167.364017 118.703976 
L 165.905738 118.703976 
z
" style="fill:#1f77b4;"/>
   </g>
   <g id="patch_63">
    <path clip-path="url(#p5186469fe5)" d="M 167.728587 204.74 
L 169.186866 204.74 
L 169.186866 97.233842 
L 167.728587 97.233842 
z
" style="fill:#1f77b4;"/>
   </g>
   <g id="patch_64">
    <path clip-path="url(#p5186469fe5)" d="M 169.551436 204.74 
L 171.009715 204.74 
L 171.009715 125.242132 
L 169.551436 125.242132 
z
" style="fill:#1f77b4;"/>
   </g>
   <g id="patch_65">
    <path clip-path="url(#p5186469fe5)" d="M 171.374284 204.74 
L 172.832563 204.74 
L 172.832563 113.407177 
L 171.374284 113.407177 
z
" style="fill:#1f77b4;"/>
   </g>
   <g id="patch_66">
    <path clip-path="url(#p5186469fe5)" d="M 173.197133 204.74 
L 174.655412 204.74 
L 174.655412 97.041818 
L 173.197133 97.041818 
z
" style="fill:#1f77b4;"/>
   </g>
   <g id="patch_67">
    <path clip-path="url(#p5186469fe5)" d="M 175.019981 204.74 
L 176.47826 204.74 
L 176.47826 70.925727 
L 175.019981 70.925727 
z
" style="fill:#1f77b4;"/>
   </g>
   <g id="patch_68">
    <path clip-path="url(#p5186469fe5)" d="M 176.84283 204.74 
L 178.301109 204.74 
L 178.301109 95.06975 
L 176.84283 95.06975 
z
" style="fill:#1f77b4;"/>
   </g>
   <g id="patch_69">
    <path clip-path="url(#p5186469fe5)" d="M 178.665679 204.74 
L 180.123958 204.74 
L 180.123958 46.943989 
L 178.665679 46.943989 
z
" style="fill:#1f77b4;"/>
   </g>
   <g id="patch_70">
    <path clip-path="url(#p5186469fe5)" d="M 180.488527 204.74 
L 181.946806 204.74 
L 181.946806 19.94 
L 180.488527 19.94 
z
" style="fill:#1f77b4;"/>
   </g>
   <g id="patch_71">
    <path clip-path="url(#p5186469fe5)" d="M 182.311376 204.74 
L 183.769655 204.74 
L 183.769655 88.808584 
L 182.311376 88.808584 
z
" style="fill:#1f77b4;"/>
   </g>
   <g id="patch_72">
    <path clip-path="url(#p5186469fe5)" d="M 184.134224 204.74 
L 185.592503 204.74 
L 185.592503 92.217432 
L 184.134224 92.217432 
z
" style="fill:#1f77b4;"/>
   </g>
   <g id="patch_73">
    <path clip-path="url(#p5186469fe5)" d="M 185.957073 204.74 
L 187.415352 204.74 
L 187.415352 106.914052 
L 185.957073 106.914052 
z
" style="fill:#1f77b4;"/>
   </g>
   <g id="patch_74">
    <path clip-path="url(#p5186469fe5)" d="M 187.779922 204.74 
L 189.238201 204.74 
L 189.238201 79.096936 
L 187.779922 79.096936 
z
" style="fill:#1f77b4;"/>
   </g>
   <g id="patch_75">
    <path clip-path="url(#p5186469fe5)" d="M 189.60277 204.74 
L 191.061049 204.74 
L 191.061049 101.733657 
L 189.60277 101.733657 
z
" style="fill:#1f77b4;"/>
   </g>
   <g id="patch_76">
    <path clip-path="url(#p5186469fe5)" d="M 191.425619 204.74 
L 192.883898 204.74 
L 192.883898 114.883041 
L 191.425619 114.883041 
z
" style="fill:#1f77b4;"/>
   </g>
   <g id="patch_77">
    <path clip-path="url(#p5186469fe5)" d="M 193.248468 204.74 
L 194.706746 204.74 
L 194.706746 123.239477 
L 193.248468 123.239477 
z
" style="fill:#1f77b4;"/>
   </g>
   <g id="patch_78">
    <path clip-path="url(#p5186469fe5)" d="M 195.071316 204.74 
L 196.529595 204.74 
L 196.529595 94.983085 
L 195.071316 94.983085 
z
" style="fill:#1f77b4;"/>
   </g>
   <g id="patch_79">
    <path clip-path="url(#p5186469fe5)" d="M 196.894165 204.74 
L 198.352444 204.74 
L 198.352444 117.297784 
L 196.894165 117.297784 
z
" style="fill:#1f77b4;"/>
   </g>
   <g id="patch_80">
    <path clip-path="url(#p5186469fe5)" d="M 198.717013 204.74 
L 200.175292 204.74 
L 200.175292 94.945699 
L 198.717013 94.945699 
z
" style="fill:#1f77b4;"/>
   </g>
   <g id="patch_81">
    <path clip-path="url(#p5186469fe5)" d="M 200.539862 204.74 
L 201.998141 204.74 
L 201.998141 115.41493 
L 200.539862 115.41493 
z
" style="fill:#1f77b4;"/>
   </g>
   <g id="patch_82">
    <path clip-path="url(#p5186469fe5)" d="M 202.362711 204.74 
L 203.820989 204.74 
L 203.820989 103.907095 
L 202.362711 103.907095 
z
" style="fill:#1f77b4;"/>
   </g>
   <g id="patch_83">
    <path clip-path="url(#p5186469fe5)" d="M 204.185559 204.74 
L 205.643838 204.74 
L 205.643838 82.858394 
L 204.185559 82.858394 
z
" style="fill:#1f77b4;"/>
   </g>
   <g id="patch_84">
    <path clip-path="url(#p5186469fe5)" d="M 206.008408 204.74 
L 207.466687 204.74 
L 207.466687 99.185518 
L 206.008408 99.185518 
z
" style="fill:#1f77b4;"/>
   </g>
   <g id="patch_85">
    <path clip-path="url(#p5186469fe5)" d="M 207.831256 204.74 
L 209.289535 204.74 
L 209.289535 54.245143 
L 207.831256 54.245143 
z
" style="fill:#1f77b4;"/>
   </g>
   <g id="patch_86">
    <path clip-path="url(#p5186469fe5)" d="M 209.654105 204.74 
L 211.112384 204.74 
L 211.112384 95.446151 
L 209.654105 95.446151 
z
" style="fill:#1f77b4;"/>
   </g>
   <g id="patch_87">
    <path clip-path="url(#p5186469fe5)" d="M 211.476954 204.74 
L 212.935233 204.74 
L 212.935233 118.184832 
L 211.476954 118.184832 
z
" style="fill:#1f77b4;"/>
   </g>
   <g id="patch_88">
    <path clip-path="url(#p5186469fe5)" d="M 213.299802 204.74 
L 214.758081 204.74 
L 214.758081 106.201185 
L 213.299802 106.201185 
z
" style="fill:#1f77b4;"/>
   </g>
   <g id="patch_89">
    <path clip-path="url(#p5186469fe5)" d="M 215.122651 204.74 
L 216.58093 204.74 
L 216.58093 113.645932 
L 215.122651 113.645932 
z
" style="fill:#1f77b4;"/>
   </g>
   <g id="patch_90">
    <path clip-path="url(#p5186469fe5)" d="M 216.945499 204.74 
L 218.403778 204.74 
L 218.403778 89.384655 
L 216.945499 89.384655 
z
" style="fill:#1f77b4;"/>
   </g>
   <g id="patch_91">
    <path clip-path="url(#p5186469fe5)" d="M 218.768348 204.74 
L 220.226627 204.74 
L 220.226627 96.199802 
L 218.768348 96.199802 
z
" style="fill:#1f77b4;"/>
   </g>
   <g id="patch_92">
    <path clip-path="url(#p5186469fe5)" d="M 220.591197 204.74 
L 222.049476 204.74 
L 222.049476 89.629358 
L 220.591197 89.629358 
z
" style="fill:#1f77b4;"/>
   </g>
   <g id="patch_93">
    <path clip-path="url(#p5186469fe5)" d="M 222.414045 204.74 
L 223.872324 204.74 
L 223.872324 98.067361 
L 222.414045 98.067361 
z
" style="fill:#1f77b4;"/>
   </g>
   <g id="patch_94">
    <path clip-path="url(#p5186469fe5)" d="M 224.236894 204.74 
L 225.695173 204.74 
L 225.695173 102.743057 
L 224.236894 102.743057 
z
" style="fill:#1f77b4;"/>
   </g>
   <g id="patch_95">
    <path clip-path="url(#p5186469fe5)" d="M 226.059743 204.74 
L 227.518021 204.74 
L 227.518021 100.754845 
L 226.059743 100.754845 
z
" style="fill:#1f77b4;"/>
   </g>
   <g id="patch_96">
    <path clip-path="url(#p5186469fe5)" d="M 227.882591 204.74 
L 229.34087 204.74 
L 229.34087 101.865355 
L 227.882591 101.865355 
z
" style="fill:#1f77b4;"/>
   </g>
   <g id="patch_97">
    <path clip-path="url(#p5186469fe5)" d="M 229.70544 204.74 
L 231.163719 204.74 
L 231.163719 86.249399 
L 229.70544 86.249399 
z
" style="fill:#1f77b4;"/>
   </g>
   <g id="patch_98">
    <path clip-path="url(#p5186469fe5)" d="M 231.528288 204.74 
L 232.986567 204.74 
L 232.986567 114.822715 
L 231.528288 114.822715 
z
" style="fill:#1f77b4;"/>
   </g>
   <g id="patch_99">
    <path clip-path="url(#p5186469fe5)" d="M 233.351137 204.74 
L 234.809416 204.74 
L 234.809416 90.425492 
L 233.351137 90.425492 
z
" style="fill:#1f77b4;"/>
   </g>
   <g id="patch_100">
    <path clip-path="url(#p5186469fe5)" d="M 235.173986 204.74 
L 236.632264 204.74 
L 236.632264 80.628878 
L 235.173986 80.628878 
z
" style="fill:#1f77b4;"/>
   </g>
   <g id="patch_101">
    <path clip-path="url(#p5186469fe5)" d="M 236.996834 204.74 
L 238.455113 204.74 
L 238.455113 85.028433 
L 236.996834 85.028433 
z
" style="fill:#1f77b4;"/>
   </g>
   <g id="patch_102">
    <path clip-path="url(#p5186469fe5)" d="M 238.819683 204.74 
L 240.277962 204.74 
L 240.277962 114.963759 
L 238.819683 114.963759 
z
" style="fill:#1f77b4;"/>
   </g>
   <g id="patch_103">
    <path clip-path="url(#p5186469fe5)" d="M 240.642531 204.74 
L 242.10081 204.74 
L 242.10081 124.760374 
L 240.642531 124.760374 
z
" style="fill:#1f77b4;"/>
   </g>
   <g id="patch_104">
    <path clip-path="url(#p5186469fe5)" d="M 242.46538 204.74 
L 243.923659 204.74 
L 243.923659 132.801584 
L 242.46538 132.801584 
z
" style="fill:#1f77b4;"/>
   </g>
   <g id="patch_105">
    <path clip-path="url(#p5186469fe5)" d="M 244.288229 204.74 
L 245.746507 204.74 
L 245.746507 123.831692 
L 244.288229 123.831692 
z
" style="fill:#1f77b4;"/>
   </g>
   <g id="patch_106">
    <path clip-path="url(#p5186469fe5)" d="M 246.111077 204.74 
L 247.569356 204.74 
L 247.569356 113.042671 
L 246.111077 113.042671 
z
" style="fill:#1f77b4;"/>
   </g>
   <g id="patch_107">
    <path clip-path="url(#p5186469fe5)" d="M 247.933926 204.74 
L 249.392205 204.74 
L 249.392205 88.986163 
L 247.933926 88.986163 
z
" style="fill:#1f77b4;"/>
   </g>
   <g id="patch_108">
    <path clip-path="url(#p5186469fe5)" d="M 249.756774 204.74 
L 251.215053 204.74 
L 251.215053 86.362404 
L 249.756774 86.362404 
z
" style="fill:#1f77b4;"/>
   </g>
   <g id="patch_109">
    <path clip-path="url(#p5186469fe5)" d="M 251.579623 204.74 
L 253.037902 204.74 
L 253.037902 108.472334 
L 251.579623 108.472334 
z
" style="fill:#1f77b4;"/>
   </g>
   <g id="patch_110">
    <path clip-path="url(#p5186469fe5)" d="M 253.402472 204.74 
L 254.860751 204.74 
L 254.860751 100.595958 
L 253.402472 100.595958 
z
" style="fill:#1f77b4;"/>
   </g>
   <g id="patch_111">
    <path clip-path="url(#p5186469fe5)" d="M 255.22532 204.74 
L 256.683599 204.74 
L 256.683599 102.93593 
L 255.22532 102.93593 
z
" style="fill:#1f77b4;"/>
   </g>
   <g id="patch_112">
    <path clip-path="url(#p5186469fe5)" d="M 257.048169 204.74 
L 258.506448 204.74 
L 258.506448 111.350143 
L 257.048169 111.350143 
z
" style="fill:#1f77b4;"/>
   </g>
   <g id="patch_113">
    <path clip-path="url(#p5186469fe5)" d="M 258.871017 204.74 
L 260.329296 204.74 
L 260.329296 91.481623 
L 258.871017 91.481623 
z
" style="fill:#1f77b4;"/>
   </g>
   <g id="patch_114">
    <path clip-path="url(#p5186469fe5)" d="M 260.693866 204.74 
L 262.152145 204.74 
L 262.152145 84.706411 
L 260.693866 84.706411 
z
" style="fill:#1f77b4;"/>
   </g>
   <g id="patch_115">
    <path clip-path="url(#p5186469fe5)" d="M 262.516715 204.74 
L 263.974994 204.74 
L 263.974994 58.453524 
L 262.516715 58.453524 
z
" style="fill:#1f77b4;"/>
   </g>
   <g id="patch_116">
    <path clip-path="url(#p5186469fe5)" d="M 264.339563 204.74 
L 265.797842 204.74 
L 265.797842 85.028433 
L 264.339563 85.028433 
z
" style="fill:#1f77b4;"/>
   </g>
   <g id="patch_117">
    <path clip-path="url(#p5186469fe5)" d="M 266.162412 204.74 
L 267.620691 204.74 
L 267.620691 113.461555 
L 266.162412 113.461555 
z
" style="fill:#1f77b4;"/>
   </g>
   <g id="patch_118">
    <path clip-path="url(#p5186469fe5)" d="M 267.985261 204.74 
L 269.443539 204.74 
L 269.443539 82.470947 
L 267.985261 82.470947 
z
" style="fill:#1f77b4;"/>
   </g>
   <g id="patch_119">
    <path clip-path="url(#p5186469fe5)" d="M 269.808109 204.74 
L 271.266388 204.74 
L 271.266388 115.889892 
L 269.808109 115.889892 
z
" style="fill:#1f77b4;"/>
   </g>
   <g id="patch_120">
    <path clip-path="url(#p5186469fe5)" d="M 271.630958 204.74 
L 273.089237 204.74 
L 273.089237 113.042671 
L 271.630958 113.042671 
z
" style="fill:#1f77b4;"/>
   </g>
   <g id="patch_121">
    <path clip-path="url(#p5186469fe5)" d="M 273.453806 204.74 
L 274.912085 204.74 
L 274.912085 84.929022 
L 273.453806 84.929022 
z
" style="fill:#1f77b4;"/>
   </g>
   <g id="patch_122">
    <path clip-path="url(#p5186469fe5)" d="M 275.276655 204.74 
L 276.734934 204.74 
L 276.734934 61.960933 
L 275.276655 61.960933 
z
" style="fill:#1f77b4;"/>
   </g>
   <g id="patch_123">
    <path clip-path="url(#p5186469fe5)" d="M 277.099504 204.74 
L 278.557782 204.74 
L 278.557782 80.904169 
L 277.099504 80.904169 
z
" style="fill:#1f77b4;"/>
   </g>
   <g id="patch_124">
    <path clip-path="url(#p5186469fe5)" d="M 278.922352 204.74 
L 280.380631 204.74 
L 280.380631 102.147443 
L 278.922352 102.147443 
z
" style="fill:#1f77b4;"/>
   </g>
   <g id="patch_125">
    <path clip-path="url(#p5186469fe5)" d="M 280.745201 204.74 
L 282.20348 204.74 
L 282.20348 27.980361 
L 280.745201 27.980361 
z
" style="fill:#1f77b4;"/>
   </g>
   <g id="patch_126">
    <path clip-path="url(#p5186469fe5)" d="M 282.568049 204.74 
L 284.026328 204.74 
L 284.026328 84.58151 
L 282.568049 84.58151 
z
" style="fill:#1f77b4;"/>
   </g>
   <g id="patch_127">
    <path clip-path="url(#p5186469fe5)" d="M 284.390898 204.74 
L 285.849177 204.74 
L 285.849177 94.257472 
L 284.390898 94.257472 
z
" style="fill:#1f77b4;"/>
   </g>
   <g id="patch_128">
    <path clip-path="url(#p5186469fe5)" d="M 286.213747 204.74 
L 287.672026 204.74 
L 287.672026 86.106655 
L 286.213747 86.106655 
z
" style="fill:#1f77b4;"/>
   </g>
   <g id="patch_129">
    <path clip-path="url(#p5186469fe5)" d="M 288.036595 204.74 
L 289.494874 204.74 
L 289.494874 110.655968 
L 288.036595 110.655968 
z
" style="fill:#1f77b4;"/>
   </g>
   <g id="patch_130">
    <path clip-path="url(#p5186469fe5)" d="M 289.859444 204.74 
L 291.317723 204.74 
L 291.317723 115.740351 
L 289.859444 115.740351 
z
" style="fill:#1f77b4;"/>
   </g>
   <g id="patch_131">
    <path clip-path="url(#p5186469fe5)" d="M 291.682292 204.74 
L 293.140571 204.74 
L 293.140571 108.363577 
L 291.682292 108.363577 
z
" style="fill:#1f77b4;"/>
   </g>
   <g id="patch_132">
    <path clip-path="url(#p5186469fe5)" d="M 293.505141 204.74 
L 294.96342 204.74 
L 294.96342 99.533879 
L 293.505141 99.533879 
z
" style="fill:#1f77b4;"/>
   </g>
   <g id="patch_133">
    <path clip-path="url(#p5186469fe5)" d="M 295.32799 204.74 
L 296.786269 204.74 
L 296.786269 90.659999 
L 295.32799 90.659999 
z
" style="fill:#1f77b4;"/>
   </g>
   <g id="patch_134">
    <path clip-path="url(#p5186469fe5)" d="M 297.150838 204.74 
L 298.609117 204.74 
L 298.609117 84.125241 
L 297.150838 84.125241 
z
" style="fill:#1f77b4;"/>
   </g>
   <g id="patch_135">
    <path clip-path="url(#p5186469fe5)" d="M 298.973687 204.74 
L 300.431966 204.74 
L 300.431966 123.359279 
L 298.973687 123.359279 
z
" style="fill:#1f77b4;"/>
   </g>
   <g id="patch_136">
    <path clip-path="url(#p5186469fe5)" d="M 300.796535 204.74 
L 302.254814 204.74 
L 302.254814 118.257903 
L 300.796535 118.257903 
z
" style="fill:#1f77b4;"/>
   </g>
   <g id="patch_137">
    <path clip-path="url(#p5186469fe5)" d="M 302.619384 204.74 
L 304.077663 204.74 
L 304.077663 98.335855 
L 302.619384 98.335855 
z
" style="fill:#1f77b4;"/>
   </g>
   <g id="patch_138">
    <path clip-path="url(#p5186469fe5)" d="M 304.442233 204.74 
L 305.900512 204.74 
L 305.900512 101.231506 
L 304.442233 101.231506 
z
" style="fill:#1f77b4;"/>
   </g>
   <g id="patch_139">
    <path clip-path="url(#p5186469fe5)" d="M 306.265081 204.74 
L 307.72336 204.74 
L 307.72336 104.580878 
L 306.265081 104.580878 
z
" style="fill:#1f77b4;"/>
   </g>
   <g id="patch_140">
    <path clip-path="url(#p5186469fe5)" d="M 308.08793 204.74 
L 309.546209 204.74 
L 309.546209 108.313447 
L 308.08793 108.313447 
z
" style="fill:#1f77b4;"/>
   </g>
   <g id="patch_141">
    <path clip-path="url(#p5186469fe5)" d="M 309.910779 204.74 
L 311.369057 204.74 
L 311.369057 100.812622 
L 309.910779 100.812622 
z
" style="fill:#1f77b4;"/>
   </g>
   <g id="patch_142">
    <path clip-path="url(#p5186469fe5)" d="M 311.733627 204.74 
L 313.191906 204.74 
L 313.191906 105.555441 
L 311.733627 105.555441 
z
" style="fill:#1f77b4;"/>
   </g>
   <g id="patch_143">
    <path clip-path="url(#p5186469fe5)" d="M 313.556476 204.74 
L 315.014755 204.74 
L 315.014755 90.98542 
L 313.556476 90.98542 
z
" style="fill:#1f77b4;"/>
   </g>
   <g id="patch_144">
    <path clip-path="url(#p5186469fe5)" d="M 315.379324 204.74 
L 316.837603 204.74 
L 316.837603 108.58279 
L 315.379324 108.58279 
z
" style="fill:#1f77b4;"/>
   </g>
   <g id="patch_145">
    <path clip-path="url(#p5186469fe5)" d="M 317.202173 204.74 
L 318.660452 204.74 
L 318.660452 104.479768 
L 317.202173 104.479768 
z
" style="fill:#1f77b4;"/>
   </g>
   <g id="patch_146">
    <path clip-path="url(#p5186469fe5)" d="M 319.025022 204.74 
L 320.4833 204.74 
L 320.4833 105.868967 
L 319.025022 105.868967 
z
" style="fill:#1f77b4;"/>
   </g>
   <g id="patch_147">
    <path clip-path="url(#p5186469fe5)" d="M 320.84787 204.74 
L 322.306149 204.74 
L 322.306149 60.437487 
L 320.84787 60.437487 
z
" style="fill:#1f77b4;"/>
   </g>
   <g id="patch_148">
    <path clip-path="url(#p5186469fe5)" d="M 322.670719 204.74 
L 324.128998 204.74 
L 324.128998 97.104693 
L 322.670719 97.104693 
z
" style="fill:#1f77b4;"/>
   </g>
   <g id="patch_149">
    <path clip-path="url(#p5186469fe5)" d="M 324.493567 204.74 
L 325.951846 204.74 
L 325.951846 92.934547 
L 324.493567 92.934547 
z
" style="fill:#1f77b4;"/>
   </g>
   <g id="patch_150">
    <path clip-path="url(#p5186469fe5)" d="M 326.316416 204.74 
L 327.774695 204.74 
L 327.774695 71.291082 
L 326.316416 71.291082 
z
" style="fill:#1f77b4;"/>
   </g>
   <g id="patch_151">
    <path clip-path="url(#p5186469fe5)" d="M 328.139265 204.74 
L 329.597544 204.74 
L 329.597544 86.510245 
L 328.139265 86.510245 
z
" style="fill:#1f77b4;"/>
   </g>
   <g id="patch_152">
    <path clip-path="url(#p5186469fe5)" d="M 329.962113 204.74 
L 331.420392 204.74 
L 331.420392 81.415666 
L 329.962113 81.415666 
z
" style="fill:#1f77b4;"/>
   </g>
   <g id="patch_153">
    <path clip-path="url(#p5186469fe5)" d="M 331.784962 204.74 
L 333.243241 204.74 
L 333.243241 109.056902 
L 331.784962 109.056902 
z
" style="fill:#1f77b4;"/>
   </g>
   <g id="patch_154">
    <path clip-path="url(#p5186469fe5)" d="M 333.60781 204.74 
L 335.066089 204.74 
L 335.066089 125.060305 
L 333.60781 125.060305 
z
" style="fill:#1f77b4;"/>
   </g>
   <g id="patch_155">
    <path clip-path="url(#p5186469fe5)" d="M 335.430659 204.74 
L 336.888938 204.74 
L 336.888938 173.569264 
L 335.430659 173.569264 
z
" style="fill:#1f77b4;"/>
   </g>
   <g id="patch_156">
    <path clip-path="url(#p5186469fe5)" d="M 337.253508 204.74 
L 338.711787 204.74 
L 338.711787 100.453215 
L 337.253508 100.453215 
z
" style="fill:#1f77b4;"/>
   </g>
   <g id="patch_157">
    <path clip-path="url(#p5186469fe5)" d="M 339.076356 204.74 
L 340.534635 204.74 
L 340.534635 41.564773 
L 339.076356 41.564773 
z
" style="fill:#1f77b4;"/>
   </g>
   <g id="patch_158">
    <path clip-path="url(#p5186469fe5)" d="M 340.899205 204.74 
L 342.357484 204.74 
L 342.357484 147.851664 
L 340.899205 147.851664 
z
" style="fill:#1f77b4;"/>
   </g>
   <g id="patch_159">
    <path clip-path="url(#p5186469fe5)" d="M 342.722054 204.74 
L 344.180332 204.74 
L 344.180332 124.149466 
L 342.722054 124.149466 
z
" style="fill:#1f77b4;"/>
   </g>
   <g id="patch_160">
    <path clip-path="url(#p5186469fe5)" d="M 344.544902 204.74 
L 346.003181 204.74 
L 346.003181 137.528259 
L 344.544902 137.528259 
z
" style="fill:#1f77b4;"/>
   </g>
   <g id="patch_161">
    <path clip-path="url(#p5186469fe5)" d="M 346.367751 204.74 
L 347.82603 204.74 
L 347.82603 133.418439 
L 346.367751 133.418439 
z
" style="fill:#1f77b4;"/>
   </g>
   <g id="patch_162">
    <path clip-path="url(#p5186469fe5)" d="M 348.190599 204.74 
L 349.648878 204.74 
L 349.648878 136.686243 
L 348.190599 136.686243 
z
" style="fill:#1f77b4;"/>
   </g>
   <g id="patch_163">
    <path clip-path="url(#p5186469fe5)" d="M 350.013448 204.74 
L 351.471727 204.74 
L 351.471727 113.922922 
L 350.013448 113.922922 
z
" style="fill:#1f77b4;"/>
   </g>
   <g id="patch_164">
    <path clip-path="url(#p5186469fe5)" d="M 351.836297 204.74 
L 353.294575 204.74 
L 353.294575 136.182393 
L 351.836297 136.182393 
z
" style="fill:#1f77b4;"/>
   </g>
   <g id="patch_165">
    <path clip-path="url(#p5186469fe5)" d="M 353.659145 204.74 
L 355.117424 204.74 
L 355.117424 135.528153 
L 353.659145 135.528153 
z
" style="fill:#1f77b4;"/>
   </g>
   <g id="patch_166">
    <path clip-path="url(#p5186469fe5)" d="M 355.481994 204.74 
L 356.940273 204.74 
L 356.940273 133.210272 
L 355.481994 133.210272 
z
" style="fill:#1f77b4;"/>
   </g>
   <g id="patch_167">
    <path clip-path="url(#p5186469fe5)" d="M 357.304842 204.74 
L 358.763121 204.74 
L 358.763121 123.303202 
L 357.304842 123.303202 
z
" style="fill:#1f77b4;"/>
   </g>
   <g id="patch_168">
    <path clip-path="url(#p5186469fe5)" d="M 359.127691 204.74 
L 360.58597 204.74 
L 360.58597 139.095038 
L 359.127691 139.095038 
z
" style="fill:#1f77b4;"/>
   </g>
   <g id="patch_169">
    <path clip-path="url(#p5186469fe5)" d="M 360.95054 204.74 
L 362.408818 204.74 
L 362.408818 141.73749 
L 360.95054 141.73749 
z
" style="fill:#1f77b4;"/>
   </g>
   <g id="patch_170">
    <path clip-path="url(#p5186469fe5)" d="M 362.773388 204.74 
L 364.231667 204.74 
L 364.231667 143.417273 
L 362.773388 143.417273 
z
" style="fill:#1f77b4;"/>
   </g>
   <g id="patch_171">
    <path clip-path="url(#p5186469fe5)" d="M 364.596237 204.74 
L 366.054516 204.74 
L 366.054516 127.102045 
L 364.596237 127.102045 
z
" style="fill:#1f77b4;"/>
   </g>
   <g id="patch_172">
    <path clip-path="url(#p5186469fe5)" d="M 366.419085 204.74 
L 367.877364 204.74 
L 367.877364 130.024036 
L 366.419085 130.024036 
z
" style="fill:#1f77b4;"/>
   </g>
   <g id="patch_173">
    <path clip-path="url(#p5186469fe5)" d="M 368.241934 204.74 
L 369.700213 204.74 
L 369.700213 126.2065 
L 368.241934 126.2065 
z
" style="fill:#1f77b4;"/>
   </g>
   <g id="patch_174">
    <path clip-path="url(#p5186469fe5)" d="M 370.064783 204.74 
L 371.523062 204.74 
L 371.523062 136.704936 
L 370.064783 136.704936 
z
" style="fill:#1f77b4;"/>
   </g>
   <g id="patch_175">
    <path clip-path="url(#p5186469fe5)" d="M 371.887631 204.74 
L 373.34591 204.74 
L 373.34591 102.929982 
L 371.887631 102.929982 
z
" style="fill:#1f77b4;"/>
   </g>
   <g id="patch_176">
    <path clip-path="url(#p5186469fe5)" d="M 373.71048 204.74 
L 375.168759 204.74 
L 375.168759 124.332993 
L 373.71048 124.332993 
z
" style="fill:#1f77b4;"/>
   </g>
   <g id="patch_177">
    <path clip-path="url(#p5186469fe5)" d="M 375.533328 204.74 
L 376.991607 204.74 
L 376.991607 127.917721 
L 375.533328 127.917721 
z
" style="fill:#1f77b4;"/>
   </g>
   <g id="patch_178">
    <path clip-path="url(#p5186469fe5)" d="M 377.356177 204.74 
L 378.814456 204.74 
L 378.814456 140.286265 
L 377.356177 140.286265 
z
" style="fill:#1f77b4;"/>
   </g>
   <g id="patch_179">
    <path clip-path="url(#p5186469fe5)" d="M 379.179026 204.74 
L 380.637305 204.74 
L 380.637305 112.829406 
L 379.179026 112.829406 
z
" style="fill:#1f77b4;"/>
   </g>
   <g id="patch_180">
    <path clip-path="url(#p5186469fe5)" d="M 381.001874 204.74 
L 382.460153 204.74 
L 382.460153 122.756868 
L 381.001874 122.756868 
z
" style="fill:#1f77b4;"/>
   </g>
   <g id="patch_181">
    <path clip-path="url(#p5186469fe5)" d="M 382.824723 204.74 
L 384.283002 204.74 
L 384.283002 138.136618 
L 382.824723 138.136618 
z
" style="fill:#1f77b4;"/>
   </g>
   <g id="patch_182">
    <path clip-path="url(#p5186469fe5)" d="M 384.647572 204.74 
L 386.10585 204.74 
L 386.10585 118.192479 
L 384.647572 118.192479 
z
" style="fill:#1f77b4;"/>
   </g>
   <g id="patch_183">
    <path clip-path="url(#p5186469fe5)" d="M 386.47042 204.74 
L 387.928699 204.74 
L 387.928699 117.708171 
L 386.47042 117.708171 
z
" style="fill:#1f77b4;"/>
   </g>
   <g id="patch_184">
    <path clip-path="url(#p5186469fe5)" d="M 388.293269 204.74 
L 389.751548 204.74 
L 389.751548 140.661816 
L 388.293269 140.661816 
z
" style="fill:#1f77b4;"/>
   </g>
   <g id="patch_185">
    <path clip-path="url(#p5186469fe5)" d="M 390.116117 204.74 
L 391.574396 204.74 
L 391.574396 116.618053 
L 390.116117 116.618053 
z
" style="fill:#1f77b4;"/>
   </g>
   <g id="patch_186">
    <path clip-path="url(#p5186469fe5)" d="M 391.938966 204.74 
L 393.397245 204.74 
L 393.397245 119.775401 
L 391.938966 119.775401 
z
" style="fill:#1f77b4;"/>
   </g>
   <g id="patch_187">
    <path clip-path="url(#p5186469fe5)" d="M 393.761815 204.74 
L 395.220093 204.74 
L 395.220093 102.369205 
L 393.761815 102.369205 
z
" style="fill:#1f77b4;"/>
   </g>
   <g id="patch_188">
    <path clip-path="url(#p5186469fe5)" d="M 395.584663 204.74 
L 397.042942 204.74 
L 397.042942 113.728349 
L 395.584663 113.728349 
z
" style="fill:#1f77b4;"/>
   </g>
   <g id="patch_189">
    <path clip-path="url(#p5186469fe5)" d="M 397.407512 204.74 
L 398.865791 204.74 
L 398.865791 126.317806 
L 397.407512 126.317806 
z
" style="fill:#1f77b4;"/>
   </g>
   <g id="patch_190">
    <path clip-path="url(#p5186469fe5)" d="M 399.23036 204.74 
L 400.688639 204.74 
L 400.688639 143.289824 
L 399.23036 143.289824 
z
" style="fill:#1f77b4;"/>
   </g>
   <g id="patch_191">
    <path clip-path="url(#p5186469fe5)" d="M 401.053209 204.74 
L 402.511488 204.74 
L 402.511488 125.581148 
L 401.053209 125.581148 
z
" style="fill:#1f77b4;"/>
   </g>
   <g id="patch_192">
    <path clip-path="url(#p5186469fe5)" d="M 402.876058 204.74 
L 404.334336 204.74 
L 404.334336 132.372504 
L 402.876058 132.372504 
z
" style="fill:#1f77b4;"/>
   </g>
   <g id="patch_193">
    <path clip-path="url(#p5186469fe5)" d="M 404.698906 204.74 
L 406.157185 204.74 
L 406.157185 158.291474 
L 404.698906 158.291474 
z
" style="fill:#1f77b4;"/>
   </g>
   <g id="patch_194">
    <path clip-path="url(#p5186469fe5)" d="M 406.521755 204.74 
L 407.980034 204.74 
L 407.980034 120.906302 
L 406.521755 120.906302 
z
" style="fill:#1f77b4;"/>
   </g>
   <g id="patch_195">
    <path clip-path="url(#p5186469fe5)" d="M 408.344603 204.74 
L 409.802882 204.74 
L 409.802882 128.837057 
L 408.344603 128.837057 
z
" style="fill:#1f77b4;"/>
   </g>
   <g id="patch_196">
    <path clip-path="url(#p5186469fe5)" d="M 410.167452 204.74 
L 411.625731 204.74 
L 411.625731 134.685287 
L 410.167452 134.685287 
z
" style="fill:#1f77b4;"/>
   </g>
   <g id="patch_197">
    <path clip-path="url(#p5186469fe5)" d="M 411.990301 204.74 
L 413.44858 204.74 
L 413.44858 130.157433 
L 411.990301 130.157433 
z
" style="fill:#1f77b4;"/>
   </g>
   <g id="matplotlib.axis_1">
    <g id="xtick_1">
     <g id="line2d_1">
      <defs>
       <path d="M 0 0 
L 0 3.5 
" id="m171322f0ff" style="stroke:#000000;stroke-width:0.8;"/>
      </defs>
      <g>
       <use style="stroke:#000000;stroke-width:0.8;" x="57.263961" xlink:href="#m171322f0ff" y="204.74"/>
      </g>
     </g>
     <g id="text_1">
      <!-- 0 -->
      <defs>
       <path d="M 31.78125 66.40625 
Q 24.171875 66.40625 20.328125 58.90625 
Q 16.5 51.421875 16.5 36.375 
Q 16.5 21.390625 20.328125 13.890625 
Q 24.171875 6.390625 31.78125 6.390625 
Q 39.453125 6.390625 43.28125 13.890625 
Q 47.125 21.390625 47.125 36.375 
Q 47.125 51.421875 43.28125 58.90625 
Q 39.453125 66.40625 31.78125 66.40625 
z
M 31.78125 74.21875 
Q 44.046875 74.21875 50.515625 64.515625 
Q 56.984375 54.828125 56.984375 36.375 
Q 56.984375 17.96875 50.515625 8.265625 
Q 44.046875 -1.421875 31.78125 -1.421875 
Q 19.53125 -1.421875 13.0625 8.265625 
Q 6.59375 17.96875 6.59375 36.375 
Q 6.59375 54.828125 13.0625 64.515625 
Q 19.53125 74.21875 31.78125 74.21875 
z
" id="DejaVuSans-48"/>
      </defs>
      <g transform="translate(54.082711 219.338437)scale(0.1 -0.1)">
       <use xlink:href="#DejaVuSans-48"/>
      </g>
     </g>
    </g>
    <g id="xtick_2">
     <g id="line2d_2">
      <g>
       <use style="stroke:#000000;stroke-width:0.8;" x="102.835177" xlink:href="#m171322f0ff" y="204.74"/>
      </g>
     </g>
     <g id="text_2">
      <!-- 25 -->
      <defs>
       <path d="M 19.1875 8.296875 
L 53.609375 8.296875 
L 53.609375 0 
L 7.328125 0 
L 7.328125 8.296875 
Q 12.9375 14.109375 22.625 23.890625 
Q 32.328125 33.6875 34.8125 36.53125 
Q 39.546875 41.84375 41.421875 45.53125 
Q 43.3125 49.21875 43.3125 52.78125 
Q 43.3125 58.59375 39.234375 62.25 
Q 35.15625 65.921875 28.609375 65.921875 
Q 23.96875 65.921875 18.8125 64.3125 
Q 13.671875 62.703125 7.8125 59.421875 
L 7.8125 69.390625 
Q 13.765625 71.78125 18.9375 73 
Q 24.125 74.21875 28.421875 74.21875 
Q 39.75 74.21875 46.484375 68.546875 
Q 53.21875 62.890625 53.21875 53.421875 
Q 53.21875 48.921875 51.53125 44.890625 
Q 49.859375 40.875 45.40625 35.40625 
Q 44.1875 33.984375 37.640625 27.21875 
Q 31.109375 20.453125 19.1875 8.296875 
z
" id="DejaVuSans-50"/>
       <path d="M 10.796875 72.90625 
L 49.515625 72.90625 
L 49.515625 64.59375 
L 19.828125 64.59375 
L 19.828125 46.734375 
Q 21.96875 47.46875 24.109375 47.828125 
Q 26.265625 48.1875 28.421875 48.1875 
Q 40.625 48.1875 47.75 41.5 
Q 54.890625 34.8125 54.890625 23.390625 
Q 54.890625 11.625 47.5625 5.09375 
Q 40.234375 -1.421875 26.90625 -1.421875 
Q 22.3125 -1.421875 17.546875 -0.640625 
Q 12.796875 0.140625 7.71875 1.703125 
L 7.71875 11.625 
Q 12.109375 9.234375 16.796875 8.0625 
Q 21.484375 6.890625 26.703125 6.890625 
Q 35.15625 6.890625 40.078125 11.328125 
Q 45.015625 15.765625 45.015625 23.390625 
Q 45.015625 31 40.078125 35.4375 
Q 35.15625 39.890625 26.703125 39.890625 
Q 22.75 39.890625 18.8125 39.015625 
Q 14.890625 38.140625 10.796875 36.28125 
z
" id="DejaVuSans-53"/>
      </defs>
      <g transform="translate(96.472677 219.338437)scale(0.1 -0.1)">
       <use xlink:href="#DejaVuSans-50"/>
       <use x="63.623047" xlink:href="#DejaVuSans-53"/>
      </g>
     </g>
    </g>
    <g id="xtick_3">
     <g id="line2d_3">
      <g>
       <use style="stroke:#000000;stroke-width:0.8;" x="148.406392" xlink:href="#m171322f0ff" y="204.74"/>
      </g>
     </g>
     <g id="text_3">
      <!-- 50 -->
      <g transform="translate(142.043892 219.338437)scale(0.1 -0.1)">
       <use xlink:href="#DejaVuSans-53"/>
       <use x="63.623047" xlink:href="#DejaVuSans-48"/>
      </g>
     </g>
    </g>
    <g id="xtick_4">
     <g id="line2d_4">
      <g>
       <use style="stroke:#000000;stroke-width:0.8;" x="193.977607" xlink:href="#m171322f0ff" y="204.74"/>
      </g>
     </g>
     <g id="text_4">
      <!-- 75 -->
      <defs>
       <path d="M 8.203125 72.90625 
L 55.078125 72.90625 
L 55.078125 68.703125 
L 28.609375 0 
L 18.3125 0 
L 43.21875 64.59375 
L 8.203125 64.59375 
z
" id="DejaVuSans-55"/>
      </defs>
      <g transform="translate(187.615107 219.338437)scale(0.1 -0.1)">
       <use xlink:href="#DejaVuSans-55"/>
       <use x="63.623047" xlink:href="#DejaVuSans-53"/>
      </g>
     </g>
    </g>
    <g id="xtick_5">
     <g id="line2d_5">
      <g>
       <use style="stroke:#000000;stroke-width:0.8;" x="239.548822" xlink:href="#m171322f0ff" y="204.74"/>
      </g>
     </g>
     <g id="text_5">
      <!-- 100 -->
      <defs>
       <path d="M 12.40625 8.296875 
L 28.515625 8.296875 
L 28.515625 63.921875 
L 10.984375 60.40625 
L 10.984375 69.390625 
L 28.421875 72.90625 
L 38.28125 72.90625 
L 38.28125 8.296875 
L 54.390625 8.296875 
L 54.390625 0 
L 12.40625 0 
z
" id="DejaVuSans-49"/>
      </defs>
      <g transform="translate(230.005072 219.338437)scale(0.1 -0.1)">
       <use xlink:href="#DejaVuSans-49"/>
       <use x="63.623047" xlink:href="#DejaVuSans-48"/>
       <use x="127.246094" xlink:href="#DejaVuSans-48"/>
      </g>
     </g>
    </g>
    <g id="xtick_6">
     <g id="line2d_6">
      <g>
       <use style="stroke:#000000;stroke-width:0.8;" x="285.120037" xlink:href="#m171322f0ff" y="204.74"/>
      </g>
     </g>
     <g id="text_6">
      <!-- 125 -->
      <g transform="translate(275.576287 219.338437)scale(0.1 -0.1)">
       <use xlink:href="#DejaVuSans-49"/>
       <use x="63.623047" xlink:href="#DejaVuSans-50"/>
       <use x="127.246094" xlink:href="#DejaVuSans-53"/>
      </g>
     </g>
    </g>
    <g id="xtick_7">
     <g id="line2d_7">
      <g>
       <use style="stroke:#000000;stroke-width:0.8;" x="330.691253" xlink:href="#m171322f0ff" y="204.74"/>
      </g>
     </g>
     <g id="text_7">
      <!-- 150 -->
      <g transform="translate(321.147503 219.338437)scale(0.1 -0.1)">
       <use xlink:href="#DejaVuSans-49"/>
       <use x="63.623047" xlink:href="#DejaVuSans-53"/>
       <use x="127.246094" xlink:href="#DejaVuSans-48"/>
      </g>
     </g>
    </g>
    <g id="xtick_8">
     <g id="line2d_8">
      <g>
       <use style="stroke:#000000;stroke-width:0.8;" x="376.262468" xlink:href="#m171322f0ff" y="204.74"/>
      </g>
     </g>
     <g id="text_8">
      <!-- 175 -->
      <g transform="translate(366.718718 219.338437)scale(0.1 -0.1)">
       <use xlink:href="#DejaVuSans-49"/>
       <use x="63.623047" xlink:href="#DejaVuSans-55"/>
       <use x="127.246094" xlink:href="#DejaVuSans-53"/>
      </g>
     </g>
    </g>
    <g id="xtick_9">
     <g id="line2d_9">
      <g>
       <use style="stroke:#000000;stroke-width:0.8;" x="421.833683" xlink:href="#m171322f0ff" y="204.74"/>
      </g>
     </g>
     <g id="text_9">
      <!-- 200 -->
      <g transform="translate(412.289933 219.338437)scale(0.1 -0.1)">
       <use xlink:href="#DejaVuSans-50"/>
       <use x="63.623047" xlink:href="#DejaVuSans-48"/>
       <use x="127.246094" xlink:href="#DejaVuSans-48"/>
      </g>
     </g>
    </g>
    <g id="text_10">
     <!-- number of chunk (from beginning to end) -->
     <defs>
      <path d="M 54.890625 33.015625 
L 54.890625 0 
L 45.90625 0 
L 45.90625 32.71875 
Q 45.90625 40.484375 42.875 44.328125 
Q 39.84375 48.1875 33.796875 48.1875 
Q 26.515625 48.1875 22.3125 43.546875 
Q 18.109375 38.921875 18.109375 30.90625 
L 18.109375 0 
L 9.078125 0 
L 9.078125 54.6875 
L 18.109375 54.6875 
L 18.109375 46.1875 
Q 21.34375 51.125 25.703125 53.5625 
Q 30.078125 56 35.796875 56 
Q 45.21875 56 50.046875 50.171875 
Q 54.890625 44.34375 54.890625 33.015625 
z
" id="DejaVuSans-110"/>
      <path d="M 8.5 21.578125 
L 8.5 54.6875 
L 17.484375 54.6875 
L 17.484375 21.921875 
Q 17.484375 14.15625 20.5 10.265625 
Q 23.53125 6.390625 29.59375 6.390625 
Q 36.859375 6.390625 41.078125 11.03125 
Q 45.3125 15.671875 45.3125 23.6875 
L 45.3125 54.6875 
L 54.296875 54.6875 
L 54.296875 0 
L 45.3125 0 
L 45.3125 8.40625 
Q 42.046875 3.421875 37.71875 1 
Q 33.40625 -1.421875 27.6875 -1.421875 
Q 18.265625 -1.421875 13.375 4.4375 
Q 8.5 10.296875 8.5 21.578125 
z
M 31.109375 56 
z
" id="DejaVuSans-117"/>
      <path d="M 52 44.1875 
Q 55.375 50.25 60.0625 53.125 
Q 64.75 56 71.09375 56 
Q 79.640625 56 84.28125 50.015625 
Q 88.921875 44.046875 88.921875 33.015625 
L 88.921875 0 
L 79.890625 0 
L 79.890625 32.71875 
Q 79.890625 40.578125 77.09375 44.375 
Q 74.3125 48.1875 68.609375 48.1875 
Q 61.625 48.1875 57.5625 43.546875 
Q 53.515625 38.921875 53.515625 30.90625 
L 53.515625 0 
L 44.484375 0 
L 44.484375 32.71875 
Q 44.484375 40.625 41.703125 44.40625 
Q 38.921875 48.1875 33.109375 48.1875 
Q 26.21875 48.1875 22.15625 43.53125 
Q 18.109375 38.875 18.109375 30.90625 
L 18.109375 0 
L 9.078125 0 
L 9.078125 54.6875 
L 18.109375 54.6875 
L 18.109375 46.1875 
Q 21.1875 51.21875 25.484375 53.609375 
Q 29.78125 56 35.6875 56 
Q 41.65625 56 45.828125 52.96875 
Q 50 49.953125 52 44.1875 
z
" id="DejaVuSans-109"/>
      <path d="M 48.6875 27.296875 
Q 48.6875 37.203125 44.609375 42.84375 
Q 40.53125 48.484375 33.40625 48.484375 
Q 26.265625 48.484375 22.1875 42.84375 
Q 18.109375 37.203125 18.109375 27.296875 
Q 18.109375 17.390625 22.1875 11.75 
Q 26.265625 6.109375 33.40625 6.109375 
Q 40.53125 6.109375 44.609375 11.75 
Q 48.6875 17.390625 48.6875 27.296875 
z
M 18.109375 46.390625 
Q 20.953125 51.265625 25.265625 53.625 
Q 29.59375 56 35.59375 56 
Q 45.5625 56 51.78125 48.09375 
Q 58.015625 40.1875 58.015625 27.296875 
Q 58.015625 14.40625 51.78125 6.484375 
Q 45.5625 -1.421875 35.59375 -1.421875 
Q 29.59375 -1.421875 25.265625 0.953125 
Q 20.953125 3.328125 18.109375 8.203125 
L 18.109375 0 
L 9.078125 0 
L 9.078125 75.984375 
L 18.109375 75.984375 
z
" id="DejaVuSans-98"/>
      <path d="M 56.203125 29.59375 
L 56.203125 25.203125 
L 14.890625 25.203125 
Q 15.484375 15.921875 20.484375 11.0625 
Q 25.484375 6.203125 34.421875 6.203125 
Q 39.59375 6.203125 44.453125 7.46875 
Q 49.3125 8.734375 54.109375 11.28125 
L 54.109375 2.78125 
Q 49.265625 0.734375 44.1875 -0.34375 
Q 39.109375 -1.421875 33.890625 -1.421875 
Q 20.796875 -1.421875 13.15625 6.1875 
Q 5.515625 13.8125 5.515625 26.8125 
Q 5.515625 40.234375 12.765625 48.109375 
Q 20.015625 56 32.328125 56 
Q 43.359375 56 49.78125 48.890625 
Q 56.203125 41.796875 56.203125 29.59375 
z
M 47.21875 32.234375 
Q 47.125 39.59375 43.09375 43.984375 
Q 39.0625 48.390625 32.421875 48.390625 
Q 24.90625 48.390625 20.390625 44.140625 
Q 15.875 39.890625 15.1875 32.171875 
z
" id="DejaVuSans-101"/>
      <path d="M 41.109375 46.296875 
Q 39.59375 47.171875 37.8125 47.578125 
Q 36.03125 48 33.890625 48 
Q 26.265625 48 22.1875 43.046875 
Q 18.109375 38.09375 18.109375 28.8125 
L 18.109375 0 
L 9.078125 0 
L 9.078125 54.6875 
L 18.109375 54.6875 
L 18.109375 46.1875 
Q 20.953125 51.171875 25.484375 53.578125 
Q 30.03125 56 36.53125 56 
Q 37.453125 56 38.578125 55.875 
Q 39.703125 55.765625 41.0625 55.515625 
z
" id="DejaVuSans-114"/>
      <path id="DejaVuSans-32"/>
      <path d="M 30.609375 48.390625 
Q 23.390625 48.390625 19.1875 42.75 
Q 14.984375 37.109375 14.984375 27.296875 
Q 14.984375 17.484375 19.15625 11.84375 
Q 23.34375 6.203125 30.609375 6.203125 
Q 37.796875 6.203125 41.984375 11.859375 
Q 46.1875 17.53125 46.1875 27.296875 
Q 46.1875 37.015625 41.984375 42.703125 
Q 37.796875 48.390625 30.609375 48.390625 
z
M 30.609375 56 
Q 42.328125 56 49.015625 48.375 
Q 55.71875 40.765625 55.71875 27.296875 
Q 55.71875 13.875 49.015625 6.21875 
Q 42.328125 -1.421875 30.609375 -1.421875 
Q 18.84375 -1.421875 12.171875 6.21875 
Q 5.515625 13.875 5.515625 27.296875 
Q 5.515625 40.765625 12.171875 48.375 
Q 18.84375 56 30.609375 56 
z
" id="DejaVuSans-111"/>
      <path d="M 37.109375 75.984375 
L 37.109375 68.5 
L 28.515625 68.5 
Q 23.6875 68.5 21.796875 66.546875 
Q 19.921875 64.59375 19.921875 59.515625 
L 19.921875 54.6875 
L 34.71875 54.6875 
L 34.71875 47.703125 
L 19.921875 47.703125 
L 19.921875 0 
L 10.890625 0 
L 10.890625 47.703125 
L 2.296875 47.703125 
L 2.296875 54.6875 
L 10.890625 54.6875 
L 10.890625 58.5 
Q 10.890625 67.625 15.140625 71.796875 
Q 19.390625 75.984375 28.609375 75.984375 
z
" id="DejaVuSans-102"/>
      <path d="M 48.78125 52.59375 
L 48.78125 44.1875 
Q 44.96875 46.296875 41.140625 47.34375 
Q 37.3125 48.390625 33.40625 48.390625 
Q 24.65625 48.390625 19.8125 42.84375 
Q 14.984375 37.3125 14.984375 27.296875 
Q 14.984375 17.28125 19.8125 11.734375 
Q 24.65625 6.203125 33.40625 6.203125 
Q 37.3125 6.203125 41.140625 7.25 
Q 44.96875 8.296875 48.78125 10.40625 
L 48.78125 2.09375 
Q 45.015625 0.34375 40.984375 -0.53125 
Q 36.96875 -1.421875 32.421875 -1.421875 
Q 20.0625 -1.421875 12.78125 6.34375 
Q 5.515625 14.109375 5.515625 27.296875 
Q 5.515625 40.671875 12.859375 48.328125 
Q 20.21875 56 33.015625 56 
Q 37.15625 56 41.109375 55.140625 
Q 45.0625 54.296875 48.78125 52.59375 
z
" id="DejaVuSans-99"/>
      <path d="M 54.890625 33.015625 
L 54.890625 0 
L 45.90625 0 
L 45.90625 32.71875 
Q 45.90625 40.484375 42.875 44.328125 
Q 39.84375 48.1875 33.796875 48.1875 
Q 26.515625 48.1875 22.3125 43.546875 
Q 18.109375 38.921875 18.109375 30.90625 
L 18.109375 0 
L 9.078125 0 
L 9.078125 75.984375 
L 18.109375 75.984375 
L 18.109375 46.1875 
Q 21.34375 51.125 25.703125 53.5625 
Q 30.078125 56 35.796875 56 
Q 45.21875 56 50.046875 50.171875 
Q 54.890625 44.34375 54.890625 33.015625 
z
" id="DejaVuSans-104"/>
      <path d="M 9.078125 75.984375 
L 18.109375 75.984375 
L 18.109375 31.109375 
L 44.921875 54.6875 
L 56.390625 54.6875 
L 27.390625 29.109375 
L 57.625 0 
L 45.90625 0 
L 18.109375 26.703125 
L 18.109375 0 
L 9.078125 0 
z
" id="DejaVuSans-107"/>
      <path d="M 31 75.875 
Q 24.46875 64.65625 21.28125 53.65625 
Q 18.109375 42.671875 18.109375 31.390625 
Q 18.109375 20.125 21.3125 9.0625 
Q 24.515625 -2 31 -13.1875 
L 23.1875 -13.1875 
Q 15.875 -1.703125 12.234375 9.375 
Q 8.59375 20.453125 8.59375 31.390625 
Q 8.59375 42.28125 12.203125 53.3125 
Q 15.828125 64.359375 23.1875 75.875 
z
" id="DejaVuSans-40"/>
      <path d="M 45.40625 27.984375 
Q 45.40625 37.75 41.375 43.109375 
Q 37.359375 48.484375 30.078125 48.484375 
Q 22.859375 48.484375 18.828125 43.109375 
Q 14.796875 37.75 14.796875 27.984375 
Q 14.796875 18.265625 18.828125 12.890625 
Q 22.859375 7.515625 30.078125 7.515625 
Q 37.359375 7.515625 41.375 12.890625 
Q 45.40625 18.265625 45.40625 27.984375 
z
M 54.390625 6.78125 
Q 54.390625 -7.171875 48.1875 -13.984375 
Q 42 -20.796875 29.203125 -20.796875 
Q 24.46875 -20.796875 20.265625 -20.09375 
Q 16.0625 -19.390625 12.109375 -17.921875 
L 12.109375 -9.1875 
Q 16.0625 -11.328125 19.921875 -12.34375 
Q 23.78125 -13.375 27.78125 -13.375 
Q 36.625 -13.375 41.015625 -8.765625 
Q 45.40625 -4.15625 45.40625 5.171875 
L 45.40625 9.625 
Q 42.625 4.78125 38.28125 2.390625 
Q 33.9375 0 27.875 0 
Q 17.828125 0 11.671875 7.65625 
Q 5.515625 15.328125 5.515625 27.984375 
Q 5.515625 40.671875 11.671875 48.328125 
Q 17.828125 56 27.875 56 
Q 33.9375 56 38.28125 53.609375 
Q 42.625 51.21875 45.40625 46.390625 
L 45.40625 54.6875 
L 54.390625 54.6875 
z
" id="DejaVuSans-103"/>
      <path d="M 9.421875 54.6875 
L 18.40625 54.6875 
L 18.40625 0 
L 9.421875 0 
z
M 9.421875 75.984375 
L 18.40625 75.984375 
L 18.40625 64.59375 
L 9.421875 64.59375 
z
" id="DejaVuSans-105"/>
      <path d="M 18.3125 70.21875 
L 18.3125 54.6875 
L 36.8125 54.6875 
L 36.8125 47.703125 
L 18.3125 47.703125 
L 18.3125 18.015625 
Q 18.3125 11.328125 20.140625 9.421875 
Q 21.96875 7.515625 27.59375 7.515625 
L 36.8125 7.515625 
L 36.8125 0 
L 27.59375 0 
Q 17.1875 0 13.234375 3.875 
Q 9.28125 7.765625 9.28125 18.015625 
L 9.28125 47.703125 
L 2.6875 47.703125 
L 2.6875 54.6875 
L 9.28125 54.6875 
L 9.28125 70.21875 
z
" id="DejaVuSans-116"/>
      <path d="M 45.40625 46.390625 
L 45.40625 75.984375 
L 54.390625 75.984375 
L 54.390625 0 
L 45.40625 0 
L 45.40625 8.203125 
Q 42.578125 3.328125 38.25 0.953125 
Q 33.9375 -1.421875 27.875 -1.421875 
Q 17.96875 -1.421875 11.734375 6.484375 
Q 5.515625 14.40625 5.515625 27.296875 
Q 5.515625 40.1875 11.734375 48.09375 
Q 17.96875 56 27.875 56 
Q 33.9375 56 38.25 53.625 
Q 42.578125 51.265625 45.40625 46.390625 
z
M 14.796875 27.296875 
Q 14.796875 17.390625 18.875 11.75 
Q 22.953125 6.109375 30.078125 6.109375 
Q 37.203125 6.109375 41.296875 11.75 
Q 45.40625 17.390625 45.40625 27.296875 
Q 45.40625 37.203125 41.296875 42.84375 
Q 37.203125 48.484375 30.078125 48.484375 
Q 22.953125 48.484375 18.875 42.84375 
Q 14.796875 37.203125 14.796875 27.296875 
z
" id="DejaVuSans-100"/>
      <path d="M 8.015625 75.875 
L 15.828125 75.875 
Q 23.140625 64.359375 26.78125 53.3125 
Q 30.421875 42.28125 30.421875 31.390625 
Q 30.421875 20.453125 26.78125 9.375 
Q 23.140625 -1.703125 15.828125 -13.1875 
L 8.015625 -13.1875 
Q 14.5 -2 17.703125 9.0625 
Q 20.90625 20.125 20.90625 31.390625 
Q 20.90625 42.671875 17.703125 53.65625 
Q 14.5 64.65625 8.015625 75.875 
z
" id="DejaVuSans-41"/>
     </defs>
     <g transform="translate(131.916406 233.016562)scale(0.1 -0.1)">
      <use xlink:href="#DejaVuSans-110"/>
      <use x="63.378906" xlink:href="#DejaVuSans-117"/>
      <use x="126.757812" xlink:href="#DejaVuSans-109"/>
      <use x="224.169922" xlink:href="#DejaVuSans-98"/>
      <use x="287.646484" xlink:href="#DejaVuSans-101"/>
      <use x="349.169922" xlink:href="#DejaVuSans-114"/>
      <use x="390.283203" xlink:href="#DejaVuSans-32"/>
      <use x="422.070312" xlink:href="#DejaVuSans-111"/>
      <use x="483.251953" xlink:href="#DejaVuSans-102"/>
      <use x="518.457031" xlink:href="#DejaVuSans-32"/>
      <use x="550.244141" xlink:href="#DejaVuSans-99"/>
      <use x="605.224609" xlink:href="#DejaVuSans-104"/>
      <use x="668.603516" xlink:href="#DejaVuSans-117"/>
      <use x="731.982422" xlink:href="#DejaVuSans-110"/>
      <use x="795.361328" xlink:href="#DejaVuSans-107"/>
      <use x="853.271484" xlink:href="#DejaVuSans-32"/>
      <use x="885.058594" xlink:href="#DejaVuSans-40"/>
      <use x="924.072266" xlink:href="#DejaVuSans-102"/>
      <use x="959.277344" xlink:href="#DejaVuSans-114"/>
      <use x="1000.359375" xlink:href="#DejaVuSans-111"/>
      <use x="1061.541016" xlink:href="#DejaVuSans-109"/>
      <use x="1158.953125" xlink:href="#DejaVuSans-32"/>
      <use x="1190.740234" xlink:href="#DejaVuSans-98"/>
      <use x="1254.216797" xlink:href="#DejaVuSans-101"/>
      <use x="1315.740234" xlink:href="#DejaVuSans-103"/>
      <use x="1379.216797" xlink:href="#DejaVuSans-105"/>
      <use x="1407" xlink:href="#DejaVuSans-110"/>
      <use x="1470.378906" xlink:href="#DejaVuSans-110"/>
      <use x="1533.757812" xlink:href="#DejaVuSans-105"/>
      <use x="1561.541016" xlink:href="#DejaVuSans-110"/>
      <use x="1624.919922" xlink:href="#DejaVuSans-103"/>
      <use x="1688.396484" xlink:href="#DejaVuSans-32"/>
      <use x="1720.183594" xlink:href="#DejaVuSans-116"/>
      <use x="1759.392578" xlink:href="#DejaVuSans-111"/>
      <use x="1820.574219" xlink:href="#DejaVuSans-32"/>
      <use x="1852.361328" xlink:href="#DejaVuSans-101"/>
      <use x="1913.884766" xlink:href="#DejaVuSans-110"/>
      <use x="1977.263672" xlink:href="#DejaVuSans-100"/>
      <use x="2040.740234" xlink:href="#DejaVuSans-41"/>
     </g>
    </g>
   </g>
   <g id="matplotlib.axis_2">
    <g id="ytick_1">
     <g id="line2d_10">
      <defs>
       <path d="M 0 0 
L -3.5 0 
" id="mec0d291abc" style="stroke:#000000;stroke-width:0.8;"/>
      </defs>
      <g>
       <use style="stroke:#000000;stroke-width:0.8;" x="40.603125" xlink:href="#mec0d291abc" y="204.74"/>
      </g>
     </g>
     <g id="text_11">
      <!-- 0 -->
      <g transform="translate(27.240625 208.539219)scale(0.1 -0.1)">
       <use xlink:href="#DejaVuSans-48"/>
      </g>
     </g>
    </g>
    <g id="ytick_2">
     <g id="line2d_11">
      <g>
       <use style="stroke:#000000;stroke-width:0.8;" x="40.603125" xlink:href="#mec0d291abc" y="162.256851"/>
      </g>
     </g>
     <g id="text_12">
      <!-- 5 -->
      <g transform="translate(27.240625 166.056069)scale(0.1 -0.1)">
       <use xlink:href="#DejaVuSans-53"/>
      </g>
     </g>
    </g>
    <g id="ytick_3">
     <g id="line2d_12">
      <g>
       <use style="stroke:#000000;stroke-width:0.8;" x="40.603125" xlink:href="#mec0d291abc" y="119.773701"/>
      </g>
     </g>
     <g id="text_13">
      <!-- 10 -->
      <g transform="translate(20.878125 123.57292)scale(0.1 -0.1)">
       <use xlink:href="#DejaVuSans-49"/>
       <use x="63.623047" xlink:href="#DejaVuSans-48"/>
      </g>
     </g>
    </g>
    <g id="ytick_4">
     <g id="line2d_13">
      <g>
       <use style="stroke:#000000;stroke-width:0.8;" x="40.603125" xlink:href="#mec0d291abc" y="77.290552"/>
      </g>
     </g>
     <g id="text_14">
      <!-- 15 -->
      <g transform="translate(20.878125 81.089771)scale(0.1 -0.1)">
       <use xlink:href="#DejaVuSans-49"/>
       <use x="63.623047" xlink:href="#DejaVuSans-53"/>
      </g>
     </g>
    </g>
    <g id="ytick_5">
     <g id="line2d_14">
      <g>
       <use style="stroke:#000000;stroke-width:0.8;" x="40.603125" xlink:href="#mec0d291abc" y="34.807403"/>
      </g>
     </g>
     <g id="text_15">
      <!-- 20 -->
      <g transform="translate(20.878125 38.606622)scale(0.1 -0.1)">
       <use xlink:href="#DejaVuSans-50"/>
       <use x="63.623047" xlink:href="#DejaVuSans-48"/>
      </g>
     </g>
    </g>
    <g id="text_16">
     <!-- GFI -->
     <defs>
      <path d="M 59.515625 10.40625 
L 59.515625 29.984375 
L 43.40625 29.984375 
L 43.40625 38.09375 
L 69.28125 38.09375 
L 69.28125 6.78125 
Q 63.578125 2.734375 56.6875 0.65625 
Q 49.8125 -1.421875 42 -1.421875 
Q 24.90625 -1.421875 15.25 8.5625 
Q 5.609375 18.5625 5.609375 36.375 
Q 5.609375 54.25 15.25 64.234375 
Q 24.90625 74.21875 42 74.21875 
Q 49.125 74.21875 55.546875 72.453125 
Q 61.96875 70.703125 67.390625 67.28125 
L 67.390625 56.78125 
Q 61.921875 61.421875 55.765625 63.765625 
Q 49.609375 66.109375 42.828125 66.109375 
Q 29.4375 66.109375 22.71875 58.640625 
Q 16.015625 51.171875 16.015625 36.375 
Q 16.015625 21.625 22.71875 14.15625 
Q 29.4375 6.6875 42.828125 6.6875 
Q 48.046875 6.6875 52.140625 7.59375 
Q 56.25 8.5 59.515625 10.40625 
z
" id="DejaVuSans-71"/>
      <path d="M 9.8125 72.90625 
L 51.703125 72.90625 
L 51.703125 64.59375 
L 19.671875 64.59375 
L 19.671875 43.109375 
L 48.578125 43.109375 
L 48.578125 34.8125 
L 19.671875 34.8125 
L 19.671875 0 
L 9.8125 0 
z
" id="DejaVuSans-70"/>
      <path d="M 9.8125 72.90625 
L 19.671875 72.90625 
L 19.671875 0 
L 9.8125 0 
z
" id="DejaVuSans-73"/>
     </defs>
     <g transform="translate(14.798438 115.945)rotate(-90)scale(0.1 -0.1)">
      <use xlink:href="#DejaVuSans-71"/>
      <use x="77.490234" xlink:href="#DejaVuSans-70"/>
      <use x="135.009766" xlink:href="#DejaVuSans-73"/>
     </g>
    </g>
   </g>
   <g id="patch_198">
    <path d="M 40.603125 204.74 
L 40.603125 10.7 
" style="fill:none;stroke:#000000;stroke-linecap:square;stroke-linejoin:miter;stroke-width:0.8;"/>
   </g>
   <g id="patch_199">
    <path d="M 431.203125 204.74 
L 431.203125 10.7 
" style="fill:none;stroke:#000000;stroke-linecap:square;stroke-linejoin:miter;stroke-width:0.8;"/>
   </g>
   <g id="patch_200">
    <path d="M 40.603125 204.74 
L 431.203125 204.74 
" style="fill:none;stroke:#000000;stroke-linecap:square;stroke-linejoin:miter;stroke-width:0.8;"/>
   </g>
   <g id="patch_201">
    <path d="M 40.603125 10.7 
L 431.203125 10.7 
" style="fill:none;stroke:#000000;stroke-linecap:square;stroke-linejoin:miter;stroke-width:0.8;"/>
   </g>
  </g>
 </g>
 <defs>
  <clipPath id="p5186469fe5">
   <rect height="194.04" width="390.6" x="40.603125" y="10.7"/>
  </clipPath>
 </defs>
</svg>
