<?xml version="1.0" encoding="utf-8" standalone="no"?>
<!DOCTYPE svg PUBLIC "-//W3C//DTD SVG 1.1//EN"
  "http://www.w3.org/Graphics/SVG/1.1/DTD/svg11.dtd">
<!-- Created with matplotlib (http://matplotlib.org/) -->
<svg height="252pt" version="1.1" viewBox="0 0 504 252" width="504pt" xmlns="http://www.w3.org/2000/svg" xmlns:xlink="http://www.w3.org/1999/xlink">
 <defs>
  <style type="text/css">
*{stroke-linecap:butt;stroke-linejoin:round;}
  </style>
 </defs>
 <g id="figure_1">
  <g id="patch_1">
   <path d="M 0 252 
L 504 252 
L 504 0 
L 0 0 
z
" style="fill:#ffffff;"/>
  </g>
  <g id="axes_1">
   <g id="patch_2">
    <path d="M 63 224.28 
L 453.6 224.28 
L 453.6 30.24 
L 63 30.24 
z
" style="fill:#ffffff;"/>
   </g>
   <g id="patch_3">
    <path clip-path="url(#pce05168d7a)" d="M 80.754545 224.28 
L 82.141619 224.28 
L 82.141619 50.976415 
L 80.754545 50.976415 
z
" style="fill:#1f77b4;"/>
   </g>
   <g id="patch_4">
    <path clip-path="url(#pce05168d7a)" d="M 82.488388 224.28 
L 83.875462 224.28 
L 83.875462 95.294818 
L 82.488388 95.294818 
z
" style="fill:#1f77b4;"/>
   </g>
   <g id="patch_5">
    <path clip-path="url(#pce05168d7a)" d="M 84.22223 224.28 
L 85.609304 224.28 
L 85.609304 70.43904 
L 84.22223 70.43904 
z
" style="fill:#1f77b4;"/>
   </g>
   <g id="patch_6">
    <path clip-path="url(#pce05168d7a)" d="M 85.956072 224.28 
L 87.343146 224.28 
L 87.343146 113.840016 
L 85.956072 113.840016 
z
" style="fill:#1f77b4;"/>
   </g>
   <g id="patch_7">
    <path clip-path="url(#pce05168d7a)" d="M 87.689915 224.28 
L 89.076989 224.28 
L 89.076989 94.588583 
L 87.689915 94.588583 
z
" style="fill:#1f77b4;"/>
   </g>
   <g id="patch_8">
    <path clip-path="url(#pce05168d7a)" d="M 89.423757 224.28 
L 90.810831 224.28 
L 90.810831 135.784635 
L 89.423757 135.784635 
z
" style="fill:#1f77b4;"/>
   </g>
   <g id="patch_9">
    <path clip-path="url(#pce05168d7a)" d="M 91.157599 224.28 
L 92.544673 224.28 
L 92.544673 100.83038 
L 91.157599 100.83038 
z
" style="fill:#1f77b4;"/>
   </g>
   <g id="patch_10">
    <path clip-path="url(#pce05168d7a)" d="M 92.891442 224.28 
L 94.278516 224.28 
L 94.278516 85.563505 
L 92.891442 85.563505 
z
" style="fill:#1f77b4;"/>
   </g>
   <g id="patch_11">
    <path clip-path="url(#pce05168d7a)" d="M 94.625284 224.28 
L 96.012358 224.28 
L 96.012358 39.48 
L 94.625284 39.48 
z
" style="fill:#1f77b4;"/>
   </g>
   <g id="patch_12">
    <path clip-path="url(#pce05168d7a)" d="M 96.359126 224.28 
L 97.7462 224.28 
L 97.7462 93.174176 
L 96.359126 93.174176 
z
" style="fill:#1f77b4;"/>
   </g>
   <g id="patch_13">
    <path clip-path="url(#pce05168d7a)" d="M 98.092969 224.28 
L 99.480043 224.28 
L 99.480043 71.138493 
L 98.092969 71.138493 
z
" style="fill:#1f77b4;"/>
   </g>
   <g id="patch_14">
    <path clip-path="url(#pce05168d7a)" d="M 99.826811 224.28 
L 101.213885 224.28 
L 101.213885 93.366962 
L 99.826811 93.366962 
z
" style="fill:#1f77b4;"/>
   </g>
   <g id="patch_15">
    <path clip-path="url(#pce05168d7a)" d="M 101.560653 224.28 
L 102.947727 224.28 
L 102.947727 119.728211 
L 101.560653 119.728211 
z
" style="fill:#1f77b4;"/>
   </g>
   <g id="patch_16">
    <path clip-path="url(#pce05168d7a)" d="M 103.294496 224.28 
L 104.68157 224.28 
L 104.68157 79.581339 
L 103.294496 79.581339 
z
" style="fill:#1f77b4;"/>
   </g>
   <g id="patch_17">
    <path clip-path="url(#pce05168d7a)" d="M 105.028338 224.28 
L 106.415412 224.28 
L 106.415412 87.029257 
L 105.028338 87.029257 
z
" style="fill:#1f77b4;"/>
   </g>
   <g id="patch_18">
    <path clip-path="url(#pce05168d7a)" d="M 106.76218 224.28 
L 108.149254 224.28 
L 108.149254 119.986873 
L 106.76218 119.986873 
z
" style="fill:#1f77b4;"/>
   </g>
   <g id="patch_19">
    <path clip-path="url(#pce05168d7a)" d="M 108.496023 224.28 
L 109.883097 224.28 
L 109.883097 114.277901 
L 108.496023 114.277901 
z
" style="fill:#1f77b4;"/>
   </g>
   <g id="patch_20">
    <path clip-path="url(#pce05168d7a)" d="M 110.229865 224.28 
L 111.616939 224.28 
L 111.616939 88.060999 
L 110.229865 88.060999 
z
" style="fill:#1f77b4;"/>
   </g>
   <g id="patch_21">
    <path clip-path="url(#pce05168d7a)" d="M 111.963707 224.28 
L 113.350781 224.28 
L 113.350781 129.231862 
L 111.963707 129.231862 
z
" style="fill:#1f77b4;"/>
   </g>
   <g id="patch_22">
    <path clip-path="url(#pce05168d7a)" d="M 113.69755 224.28 
L 115.084624 224.28 
L 115.084624 138.727763 
L 113.69755 138.727763 
z
" style="fill:#1f77b4;"/>
   </g>
   <g id="patch_23">
    <path clip-path="url(#pce05168d7a)" d="M 115.431392 224.28 
L 116.818466 224.28 
L 116.818466 134.650203 
L 115.431392 134.650203 
z
" style="fill:#1f77b4;"/>
   </g>
   <g id="patch_24">
    <path clip-path="url(#pce05168d7a)" d="M 117.165234 224.28 
L 118.552308 224.28 
L 118.552308 142.65032 
L 117.165234 142.65032 
z
" style="fill:#1f77b4;"/>
   </g>
   <g id="patch_25">
    <path clip-path="url(#pce05168d7a)" d="M 118.899077 224.28 
L 120.286151 224.28 
L 120.286151 158.03926 
L 118.899077 158.03926 
z
" style="fill:#1f77b4;"/>
   </g>
   <g id="patch_26">
    <path clip-path="url(#pce05168d7a)" d="M 120.632919 224.28 
L 122.019993 224.28 
L 122.019993 117.229749 
L 120.632919 117.229749 
z
" style="fill:#1f77b4;"/>
   </g>
   <g id="patch_27">
    <path clip-path="url(#pce05168d7a)" d="M 122.366761 224.28 
L 123.753835 224.28 
L 123.753835 120.300755 
L 122.366761 120.300755 
z
" style="fill:#1f77b4;"/>
   </g>
   <g id="patch_28">
    <path clip-path="url(#pce05168d7a)" d="M 124.100604 224.28 
L 125.487678 224.28 
L 125.487678 106.306847 
L 124.100604 106.306847 
z
" style="fill:#1f77b4;"/>
   </g>
   <g id="patch_29">
    <path clip-path="url(#pce05168d7a)" d="M 125.834446 224.28 
L 127.22152 224.28 
L 127.22152 128.510127 
L 125.834446 128.510127 
z
" style="fill:#1f77b4;"/>
   </g>
   <g id="patch_30">
    <path clip-path="url(#pce05168d7a)" d="M 127.568288 224.28 
L 128.955362 224.28 
L 128.955362 117.348908 
L 127.568288 117.348908 
z
" style="fill:#1f77b4;"/>
   </g>
   <g id="patch_31">
    <path clip-path="url(#pce05168d7a)" d="M 129.302131 224.28 
L 130.689205 224.28 
L 130.689205 138.451663 
L 129.302131 138.451663 
z
" style="fill:#1f77b4;"/>
   </g>
   <g id="patch_32">
    <path clip-path="url(#pce05168d7a)" d="M 131.035973 224.28 
L 132.423047 224.28 
L 132.423047 142.430409 
L 131.035973 142.430409 
z
" style="fill:#1f77b4;"/>
   </g>
   <g id="patch_33">
    <path clip-path="url(#pce05168d7a)" d="M 132.769815 224.28 
L 134.156889 224.28 
L 134.156889 151.040853 
L 132.769815 151.040853 
z
" style="fill:#1f77b4;"/>
   </g>
   <g id="patch_34">
    <path clip-path="url(#pce05168d7a)" d="M 134.503658 224.28 
L 135.890732 224.28 
L 135.890732 139.196649 
L 134.503658 139.196649 
z
" style="fill:#1f77b4;"/>
   </g>
   <g id="patch_35">
    <path clip-path="url(#pce05168d7a)" d="M 136.2375 224.28 
L 137.624574 224.28 
L 137.624574 126.157949 
L 136.2375 126.157949 
z
" style="fill:#1f77b4;"/>
   </g>
   <g id="patch_36">
    <path clip-path="url(#pce05168d7a)" d="M 137.971342 224.28 
L 139.358416 224.28 
L 139.358416 117.18131 
L 137.971342 117.18131 
z
" style="fill:#1f77b4;"/>
   </g>
   <g id="patch_37">
    <path clip-path="url(#pce05168d7a)" d="M 139.705185 224.28 
L 141.092259 224.28 
L 141.092259 105.536673 
L 139.705185 105.536673 
z
" style="fill:#1f77b4;"/>
   </g>
   <g id="patch_38">
    <path clip-path="url(#pce05168d7a)" d="M 141.439027 224.28 
L 142.826101 224.28 
L 142.826101 111.834659 
L 141.439027 111.834659 
z
" style="fill:#1f77b4;"/>
   </g>
   <g id="patch_39">
    <path clip-path="url(#pce05168d7a)" d="M 143.172869 224.28 
L 144.559943 224.28 
L 144.559943 116.654298 
L 143.172869 116.654298 
z
" style="fill:#1f77b4;"/>
   </g>
   <g id="patch_40">
    <path clip-path="url(#pce05168d7a)" d="M 144.906712 224.28 
L 146.293786 224.28 
L 146.293786 85.424002 
L 144.906712 85.424002 
z
" style="fill:#1f77b4;"/>
   </g>
   <g id="patch_41">
    <path clip-path="url(#pce05168d7a)" d="M 146.640554 224.28 
L 148.027628 224.28 
L 148.027628 98.777552 
L 146.640554 98.777552 
z
" style="fill:#1f77b4;"/>
   </g>
   <g id="patch_42">
    <path clip-path="url(#pce05168d7a)" d="M 148.374396 224.28 
L 149.76147 224.28 
L 149.76147 111.555652 
L 148.374396 111.555652 
z
" style="fill:#1f77b4;"/>
   </g>
   <g id="patch_43">
    <path clip-path="url(#pce05168d7a)" d="M 150.108239 224.28 
L 151.495312 224.28 
L 151.495312 106.736013 
L 150.108239 106.736013 
z
" style="fill:#1f77b4;"/>
   </g>
   <g id="patch_44">
    <path clip-path="url(#pce05168d7a)" d="M 151.842081 224.28 
L 153.229155 224.28 
L 153.229155 113.34013 
L 151.842081 113.34013 
z
" style="fill:#1f77b4;"/>
   </g>
   <g id="patch_45">
    <path clip-path="url(#pce05168d7a)" d="M 153.575923 224.28 
L 154.962997 224.28 
L 154.962997 114.675097 
L 153.575923 114.675097 
z
" style="fill:#1f77b4;"/>
   </g>
   <g id="patch_46">
    <path clip-path="url(#pce05168d7a)" d="M 155.309766 224.28 
L 156.696839 224.28 
L 156.696839 134.965054 
L 155.309766 134.965054 
z
" style="fill:#1f77b4;"/>
   </g>
   <g id="patch_47">
    <path clip-path="url(#pce05168d7a)" d="M 157.043608 224.28 
L 158.430682 224.28 
L 158.430682 137.900432 
L 157.043608 137.900432 
z
" style="fill:#1f77b4;"/>
   </g>
   <g id="patch_48">
    <path clip-path="url(#pce05168d7a)" d="M 158.77745 224.28 
L 160.164524 224.28 
L 160.164524 120.234879 
L 158.77745 120.234879 
z
" style="fill:#1f77b4;"/>
   </g>
   <g id="patch_49">
    <path clip-path="url(#pce05168d7a)" d="M 160.511293 224.28 
L 161.898366 224.28 
L 161.898366 124.215562 
L 160.511293 124.215562 
z
" style="fill:#1f77b4;"/>
   </g>
   <g id="patch_50">
    <path clip-path="url(#pce05168d7a)" d="M 162.245135 224.28 
L 163.632209 224.28 
L 163.632209 126.227701 
L 162.245135 126.227701 
z
" style="fill:#1f77b4;"/>
   </g>
   <g id="patch_51">
    <path clip-path="url(#pce05168d7a)" d="M 163.978977 224.28 
L 165.366051 224.28 
L 165.366051 142.064213 
L 163.978977 142.064213 
z
" style="fill:#1f77b4;"/>
   </g>
   <g id="patch_52">
    <path clip-path="url(#pce05168d7a)" d="M 165.71282 224.28 
L 167.099893 224.28 
L 167.099893 127.648889 
L 165.71282 127.648889 
z
" style="fill:#1f77b4;"/>
   </g>
   <g id="patch_53">
    <path clip-path="url(#pce05168d7a)" d="M 167.446662 224.28 
L 168.833736 224.28 
L 168.833736 84.958992 
L 167.446662 84.958992 
z
" style="fill:#1f77b4;"/>
   </g>
   <g id="patch_54">
    <path clip-path="url(#pce05168d7a)" d="M 169.180504 224.28 
L 170.567578 224.28 
L 170.567578 123.212883 
L 169.180504 123.212883 
z
" style="fill:#1f77b4;"/>
   </g>
   <g id="patch_55">
    <path clip-path="url(#pce05168d7a)" d="M 170.914347 224.28 
L 172.30142 224.28 
L 172.30142 119.865777 
L 170.914347 119.865777 
z
" style="fill:#1f77b4;"/>
   </g>
   <g id="patch_56">
    <path clip-path="url(#pce05168d7a)" d="M 172.648189 224.28 
L 174.035263 224.28 
L 174.035263 125.288961 
L 172.648189 125.288961 
z
" style="fill:#1f77b4;"/>
   </g>
   <g id="patch_57">
    <path clip-path="url(#pce05168d7a)" d="M 174.382031 224.28 
L 175.769105 224.28 
L 175.769105 99.901328 
L 174.382031 99.901328 
z
" style="fill:#1f77b4;"/>
   </g>
   <g id="patch_58">
    <path clip-path="url(#pce05168d7a)" d="M 176.115874 224.28 
L 177.502947 224.28 
L 177.502947 89.214806 
L 176.115874 89.214806 
z
" style="fill:#1f77b4;"/>
   </g>
   <g id="patch_59">
    <path clip-path="url(#pce05168d7a)" d="M 177.849716 224.28 
L 179.23679 224.28 
L 179.23679 83.475802 
L 177.849716 83.475802 
z
" style="fill:#1f77b4;"/>
   </g>
   <g id="patch_60">
    <path clip-path="url(#pce05168d7a)" d="M 179.583558 224.28 
L 180.970632 224.28 
L 180.970632 106.707918 
L 179.583558 106.707918 
z
" style="fill:#1f77b4;"/>
   </g>
   <g id="patch_61">
    <path clip-path="url(#pce05168d7a)" d="M 181.317401 224.28 
L 182.704474 224.28 
L 182.704474 95.572855 
L 181.317401 95.572855 
z
" style="fill:#1f77b4;"/>
   </g>
   <g id="patch_62">
    <path clip-path="url(#pce05168d7a)" d="M 183.051243 224.28 
L 184.438317 224.28 
L 184.438317 92.938765 
L 183.051243 92.938765 
z
" style="fill:#1f77b4;"/>
   </g>
   <g id="patch_63">
    <path clip-path="url(#pce05168d7a)" d="M 184.785085 224.28 
L 186.172159 224.28 
L 186.172159 119.928747 
L 184.785085 119.928747 
z
" style="fill:#1f77b4;"/>
   </g>
   <g id="patch_64">
    <path clip-path="url(#pce05168d7a)" d="M 186.518928 224.28 
L 187.906001 224.28 
L 187.906001 94.545957 
L 186.518928 94.545957 
z
" style="fill:#1f77b4;"/>
   </g>
   <g id="patch_65">
    <path clip-path="url(#pce05168d7a)" d="M 188.25277 224.28 
L 189.639844 224.28 
L 189.639844 117.216186 
L 188.25277 117.216186 
z
" style="fill:#1f77b4;"/>
   </g>
   <g id="patch_66">
    <path clip-path="url(#pce05168d7a)" d="M 189.986612 224.28 
L 191.373686 224.28 
L 191.373686 129.35974 
L 189.986612 129.35974 
z
" style="fill:#1f77b4;"/>
   </g>
   <g id="patch_67">
    <path clip-path="url(#pce05168d7a)" d="M 191.720455 224.28 
L 193.107528 224.28 
L 193.107528 125.875068 
L 191.720455 125.875068 
z
" style="fill:#1f77b4;"/>
   </g>
   <g id="patch_68">
    <path clip-path="url(#pce05168d7a)" d="M 193.454297 224.28 
L 194.841371 224.28 
L 194.841371 126.039759 
L 193.454297 126.039759 
z
" style="fill:#1f77b4;"/>
   </g>
   <g id="patch_69">
    <path clip-path="url(#pce05168d7a)" d="M 195.188139 224.28 
L 196.575213 224.28 
L 196.575213 114.591783 
L 195.188139 114.591783 
z
" style="fill:#1f77b4;"/>
   </g>
   <g id="patch_70">
    <path clip-path="url(#pce05168d7a)" d="M 196.921982 224.28 
L 198.309055 224.28 
L 198.309055 128.319279 
L 196.921982 128.319279 
z
" style="fill:#1f77b4;"/>
   </g>
   <g id="patch_71">
    <path clip-path="url(#pce05168d7a)" d="M 198.655824 224.28 
L 200.042898 224.28 
L 200.042898 73.600142 
L 198.655824 73.600142 
z
" style="fill:#1f77b4;"/>
   </g>
   <g id="patch_72">
    <path clip-path="url(#pce05168d7a)" d="M 200.389666 224.28 
L 201.77674 224.28 
L 201.77674 94.214637 
L 200.389666 94.214637 
z
" style="fill:#1f77b4;"/>
   </g>
   <g id="patch_73">
    <path clip-path="url(#pce05168d7a)" d="M 202.123509 224.28 
L 203.510582 224.28 
L 203.510582 134.965054 
L 202.123509 134.965054 
z
" style="fill:#1f77b4;"/>
   </g>
   <g id="patch_74">
    <path clip-path="url(#pce05168d7a)" d="M 203.857351 224.28 
L 205.244425 224.28 
L 205.244425 136.81347 
L 203.857351 136.81347 
z
" style="fill:#1f77b4;"/>
   </g>
   <g id="patch_75">
    <path clip-path="url(#pce05168d7a)" d="M 205.591193 224.28 
L 206.978267 224.28 
L 206.978267 135.332218 
L 205.591193 135.332218 
z
" style="fill:#1f77b4;"/>
   </g>
   <g id="patch_76">
    <path clip-path="url(#pce05168d7a)" d="M 207.325036 224.28 
L 208.712109 224.28 
L 208.712109 143.935881 
L 207.325036 143.935881 
z
" style="fill:#1f77b4;"/>
   </g>
   <g id="patch_77">
    <path clip-path="url(#pce05168d7a)" d="M 209.058878 224.28 
L 210.445952 224.28 
L 210.445952 128.976107 
L 209.058878 128.976107 
z
" style="fill:#1f77b4;"/>
   </g>
   <g id="patch_78">
    <path clip-path="url(#pce05168d7a)" d="M 210.79272 224.28 
L 212.179794 224.28 
L 212.179794 127.137378 
L 210.79272 127.137378 
z
" style="fill:#1f77b4;"/>
   </g>
   <g id="patch_79">
    <path clip-path="url(#pce05168d7a)" d="M 212.526562 224.28 
L 213.913636 224.28 
L 213.913636 131.86789 
L 212.526562 131.86789 
z
" style="fill:#1f77b4;"/>
   </g>
   <g id="patch_80">
    <path clip-path="url(#pce05168d7a)" d="M 214.260405 224.28 
L 215.647479 224.28 
L 215.647479 120.416039 
L 214.260405 120.416039 
z
" style="fill:#1f77b4;"/>
   </g>
   <g id="patch_81">
    <path clip-path="url(#pce05168d7a)" d="M 215.994247 224.28 
L 217.381321 224.28 
L 217.381321 120.185471 
L 215.994247 120.185471 
z
" style="fill:#1f77b4;"/>
   </g>
   <g id="patch_82">
    <path clip-path="url(#pce05168d7a)" d="M 217.728089 224.28 
L 219.115163 224.28 
L 219.115163 119.977185 
L 217.728089 119.977185 
z
" style="fill:#1f77b4;"/>
   </g>
   <g id="patch_83">
    <path clip-path="url(#pce05168d7a)" d="M 219.461932 224.28 
L 220.849006 224.28 
L 220.849006 111.792033 
L 219.461932 111.792033 
z
" style="fill:#1f77b4;"/>
   </g>
   <g id="patch_84">
    <path clip-path="url(#pce05168d7a)" d="M 221.195774 224.28 
L 222.582848 224.28 
L 222.582848 125.591218 
L 221.195774 125.591218 
z
" style="fill:#1f77b4;"/>
   </g>
   <g id="patch_85">
    <path clip-path="url(#pce05168d7a)" d="M 222.929616 224.28 
L 224.31669 224.28 
L 224.31669 105.200509 
L 222.929616 105.200509 
z
" style="fill:#1f77b4;"/>
   </g>
   <g id="patch_86">
    <path clip-path="url(#pce05168d7a)" d="M 224.663459 224.28 
L 226.050533 224.28 
L 226.050533 96.544533 
L 224.663459 96.544533 
z
" style="fill:#1f77b4;"/>
   </g>
   <g id="patch_87">
    <path clip-path="url(#pce05168d7a)" d="M 226.397301 224.28 
L 227.784375 224.28 
L 227.784375 95.475009 
L 226.397301 95.475009 
z
" style="fill:#1f77b4;"/>
   </g>
   <g id="patch_88">
    <path clip-path="url(#pce05168d7a)" d="M 228.131143 224.28 
L 229.518217 224.28 
L 229.518217 100.162896 
L 228.131143 100.162896 
z
" style="fill:#1f77b4;"/>
   </g>
   <g id="patch_89">
    <path clip-path="url(#pce05168d7a)" d="M 229.864986 224.28 
L 231.25206 224.28 
L 231.25206 114.440655 
L 229.864986 114.440655 
z
" style="fill:#1f77b4;"/>
   </g>
   <g id="patch_90">
    <path clip-path="url(#pce05168d7a)" d="M 231.598828 224.28 
L 232.985902 224.28 
L 232.985902 110.98989 
L 231.598828 110.98989 
z
" style="fill:#1f77b4;"/>
   </g>
   <g id="patch_91">
    <path clip-path="url(#pce05168d7a)" d="M 233.33267 224.28 
L 234.719744 224.28 
L 234.719744 113.34013 
L 233.33267 113.34013 
z
" style="fill:#1f77b4;"/>
   </g>
   <g id="patch_92">
    <path clip-path="url(#pce05168d7a)" d="M 235.066513 224.28 
L 236.453587 224.28 
L 236.453587 109.326508 
L 235.066513 109.326508 
z
" style="fill:#1f77b4;"/>
   </g>
   <g id="patch_93">
    <path clip-path="url(#pce05168d7a)" d="M 236.800355 224.28 
L 238.187429 224.28 
L 238.187429 111.871472 
L 236.800355 111.871472 
z
" style="fill:#1f77b4;"/>
   </g>
   <g id="patch_94">
    <path clip-path="url(#pce05168d7a)" d="M 238.534197 224.28 
L 239.921271 224.28 
L 239.921271 108.543741 
L 238.534197 108.543741 
z
" style="fill:#1f77b4;"/>
   </g>
   <g id="patch_95">
    <path clip-path="url(#pce05168d7a)" d="M 240.26804 224.28 
L 241.655114 224.28 
L 241.655114 87.459392 
L 240.26804 87.459392 
z
" style="fill:#1f77b4;"/>
   </g>
   <g id="patch_96">
    <path clip-path="url(#pce05168d7a)" d="M 242.001882 224.28 
L 243.388956 224.28 
L 243.388956 126.157949 
L 242.001882 126.157949 
z
" style="fill:#1f77b4;"/>
   </g>
   <g id="patch_97">
    <path clip-path="url(#pce05168d7a)" d="M 243.735724 224.28 
L 245.122798 224.28 
L 245.122798 117.18131 
L 243.735724 117.18131 
z
" style="fill:#1f77b4;"/>
   </g>
   <g id="patch_98">
    <path clip-path="url(#pce05168d7a)" d="M 245.469567 224.28 
L 246.856641 224.28 
L 246.856641 109.454386 
L 245.469567 109.454386 
z
" style="fill:#1f77b4;"/>
   </g>
   <g id="patch_99">
    <path clip-path="url(#pce05168d7a)" d="M 247.203409 224.28 
L 248.590483 224.28 
L 248.590483 91.928336 
L 247.203409 91.928336 
z
" style="fill:#1f77b4;"/>
   </g>
   <g id="patch_100">
    <path clip-path="url(#pce05168d7a)" d="M 248.937251 224.28 
L 250.324325 224.28 
L 250.324325 101.73715 
L 248.937251 101.73715 
z
" style="fill:#1f77b4;"/>
   </g>
   <g id="patch_101">
    <path clip-path="url(#pce05168d7a)" d="M 250.671094 224.28 
L 252.058168 224.28 
L 252.058168 133.637836 
L 250.671094 133.637836 
z
" style="fill:#1f77b4;"/>
   </g>
   <g id="patch_102">
    <path clip-path="url(#pce05168d7a)" d="M 252.404936 224.28 
L 253.79201 224.28 
L 253.79201 101.1772 
L 252.404936 101.1772 
z
" style="fill:#1f77b4;"/>
   </g>
   <g id="patch_103">
    <path clip-path="url(#pce05168d7a)" d="M 254.138778 224.28 
L 255.525852 224.28 
L 255.525852 105.437858 
L 254.138778 105.437858 
z
" style="fill:#1f77b4;"/>
   </g>
   <g id="patch_104">
    <path clip-path="url(#pce05168d7a)" d="M 255.872621 224.28 
L 257.259695 224.28 
L 257.259695 128.900542 
L 255.872621 128.900542 
z
" style="fill:#1f77b4;"/>
   </g>
   <g id="patch_105">
    <path clip-path="url(#pce05168d7a)" d="M 257.606463 224.28 
L 258.993537 224.28 
L 258.993537 138.349942 
L 257.606463 138.349942 
z
" style="fill:#1f77b4;"/>
   </g>
   <g id="patch_106">
    <path clip-path="url(#pce05168d7a)" d="M 259.340305 224.28 
L 260.727379 224.28 
L 260.727379 95.144658 
L 259.340305 95.144658 
z
" style="fill:#1f77b4;"/>
   </g>
   <g id="patch_107">
    <path clip-path="url(#pce05168d7a)" d="M 261.074148 224.28 
L 262.461222 224.28 
L 262.461222 115.857968 
L 261.074148 115.857968 
z
" style="fill:#1f77b4;"/>
   </g>
   <g id="patch_108">
    <path clip-path="url(#pce05168d7a)" d="M 262.80799 224.28 
L 264.195064 224.28 
L 264.195064 115.518898 
L 262.80799 115.518898 
z
" style="fill:#1f77b4;"/>
   </g>
   <g id="patch_109">
    <path clip-path="url(#pce05168d7a)" d="M 264.541832 224.28 
L 265.928906 224.28 
L 265.928906 99.308439 
L 264.541832 99.308439 
z
" style="fill:#1f77b4;"/>
   </g>
   <g id="patch_110">
    <path clip-path="url(#pce05168d7a)" d="M 266.275675 224.28 
L 267.662749 224.28 
L 267.662749 139.090084 
L 266.275675 139.090084 
z
" style="fill:#1f77b4;"/>
   </g>
   <g id="patch_111">
    <path clip-path="url(#pce05168d7a)" d="M 268.009517 224.28 
L 269.396591 224.28 
L 269.396591 129.093328 
L 268.009517 129.093328 
z
" style="fill:#1f77b4;"/>
   </g>
   <g id="patch_112">
    <path clip-path="url(#pce05168d7a)" d="M 269.743359 224.28 
L 271.130433 224.28 
L 271.130433 123.229352 
L 269.743359 123.229352 
z
" style="fill:#1f77b4;"/>
   </g>
   <g id="patch_113">
    <path clip-path="url(#pce05168d7a)" d="M 271.477202 224.28 
L 272.864276 224.28 
L 272.864276 111.834659 
L 271.477202 111.834659 
z
" style="fill:#1f77b4;"/>
   </g>
   <g id="patch_114">
    <path clip-path="url(#pce05168d7a)" d="M 273.211044 224.28 
L 274.598118 224.28 
L 274.598118 100.427371 
L 273.211044 100.427371 
z
" style="fill:#1f77b4;"/>
   </g>
   <g id="patch_115">
    <path clip-path="url(#pce05168d7a)" d="M 274.944886 224.28 
L 276.33196 224.28 
L 276.33196 115.718465 
L 274.944886 115.718465 
z
" style="fill:#1f77b4;"/>
   </g>
   <g id="patch_116">
    <path clip-path="url(#pce05168d7a)" d="M 276.678729 224.28 
L 278.065803 224.28 
L 278.065803 104.095141 
L 276.678729 104.095141 
z
" style="fill:#1f77b4;"/>
   </g>
   <g id="patch_117">
    <path clip-path="url(#pce05168d7a)" d="M 278.412571 224.28 
L 279.799645 224.28 
L 279.799645 129.297739 
L 278.412571 129.297739 
z
" style="fill:#1f77b4;"/>
   </g>
   <g id="patch_118">
    <path clip-path="url(#pce05168d7a)" d="M 280.146413 224.28 
L 281.533487 224.28 
L 281.533487 132.029675 
L 280.146413 132.029675 
z
" style="fill:#1f77b4;"/>
   </g>
   <g id="patch_119">
    <path clip-path="url(#pce05168d7a)" d="M 281.880256 224.28 
L 283.26733 224.28 
L 283.26733 116.793801 
L 281.880256 116.793801 
z
" style="fill:#1f77b4;"/>
   </g>
   <g id="patch_120">
    <path clip-path="url(#pce05168d7a)" d="M 283.614098 224.28 
L 285.001172 224.28 
L 285.001172 96.759601 
L 283.614098 96.759601 
z
" style="fill:#1f77b4;"/>
   </g>
   <g id="patch_121">
    <path clip-path="url(#pce05168d7a)" d="M 285.34794 224.28 
L 286.735014 224.28 
L 286.735014 96.798352 
L 285.34794 96.798352 
z
" style="fill:#1f77b4;"/>
   </g>
   <g id="patch_122">
    <path clip-path="url(#pce05168d7a)" d="M 287.081783 224.28 
L 288.468857 224.28 
L 288.468857 114.336027 
L 287.081783 114.336027 
z
" style="fill:#1f77b4;"/>
   </g>
   <g id="patch_123">
    <path clip-path="url(#pce05168d7a)" d="M 288.815625 224.28 
L 290.202699 224.28 
L 290.202699 125.623187 
L 288.815625 125.623187 
z
" style="fill:#1f77b4;"/>
   </g>
   <g id="patch_124">
    <path clip-path="url(#pce05168d7a)" d="M 290.549467 224.28 
L 291.936541 224.28 
L 291.936541 101.644148 
L 290.549467 101.644148 
z
" style="fill:#1f77b4;"/>
   </g>
   <g id="patch_125">
    <path clip-path="url(#pce05168d7a)" d="M 292.28331 224.28 
L 293.670384 224.28 
L 293.670384 114.642159 
L 292.28331 114.642159 
z
" style="fill:#1f77b4;"/>
   </g>
   <g id="patch_126">
    <path clip-path="url(#pce05168d7a)" d="M 294.017152 224.28 
L 295.404226 224.28 
L 295.404226 134.965054 
L 294.017152 134.965054 
z
" style="fill:#1f77b4;"/>
   </g>
   <g id="patch_127">
    <path clip-path="url(#pce05168d7a)" d="M 295.750994 224.28 
L 297.138068 224.28 
L 297.138068 96.914604 
L 295.750994 96.914604 
z
" style="fill:#1f77b4;"/>
   </g>
   <g id="patch_128">
    <path clip-path="url(#pce05168d7a)" d="M 297.484837 224.28 
L 298.871911 224.28 
L 298.871911 101.656742 
L 297.484837 101.656742 
z
" style="fill:#1f77b4;"/>
   </g>
   <g id="patch_129">
    <path clip-path="url(#pce05168d7a)" d="M 299.218679 224.28 
L 300.605753 224.28 
L 300.605753 123.209977 
L 299.218679 123.209977 
z
" style="fill:#1f77b4;"/>
   </g>
   <g id="patch_130">
    <path clip-path="url(#pce05168d7a)" d="M 300.952521 224.28 
L 302.339595 224.28 
L 302.339595 104.212362 
L 300.952521 104.212362 
z
" style="fill:#1f77b4;"/>
   </g>
   <g id="patch_131">
    <path clip-path="url(#pce05168d7a)" d="M 302.686364 224.28 
L 304.073437 224.28 
L 304.073437 142.50888 
L 302.686364 142.50888 
z
" style="fill:#1f77b4;"/>
   </g>
   <g id="patch_132">
    <path clip-path="url(#pce05168d7a)" d="M 304.420206 224.28 
L 305.80728 224.28 
L 305.80728 108.597023 
L 304.420206 108.597023 
z
" style="fill:#1f77b4;"/>
   </g>
   <g id="patch_133">
    <path clip-path="url(#pce05168d7a)" d="M 306.154048 224.28 
L 307.541122 224.28 
L 307.541122 114.001801 
L 306.154048 114.001801 
z
" style="fill:#1f77b4;"/>
   </g>
   <g id="patch_134">
    <path clip-path="url(#pce05168d7a)" d="M 307.887891 224.28 
L 309.274964 224.28 
L 309.274964 128.976107 
L 307.887891 128.976107 
z
" style="fill:#1f77b4;"/>
   </g>
   <g id="patch_135">
    <path clip-path="url(#pce05168d7a)" d="M 309.621733 224.28 
L 311.008807 224.28 
L 311.008807 101.835965 
L 309.621733 101.835965 
z
" style="fill:#1f77b4;"/>
   </g>
   <g id="patch_136">
    <path clip-path="url(#pce05168d7a)" d="M 311.355575 224.28 
L 312.742649 224.28 
L 312.742649 108.893467 
L 311.355575 108.893467 
z
" style="fill:#1f77b4;"/>
   </g>
   <g id="patch_137">
    <path clip-path="url(#pce05168d7a)" d="M 313.089418 224.28 
L 314.476491 224.28 
L 314.476491 105.810836 
L 313.089418 105.810836 
z
" style="fill:#1f77b4;"/>
   </g>
   <g id="patch_138">
    <path clip-path="url(#pce05168d7a)" d="M 314.82326 224.28 
L 316.210334 224.28 
L 316.210334 126.714993 
L 314.82326 126.714993 
z
" style="fill:#1f77b4;"/>
   </g>
   <g id="patch_139">
    <path clip-path="url(#pce05168d7a)" d="M 316.557102 224.28 
L 317.944176 224.28 
L 317.944176 125.811129 
L 316.557102 125.811129 
z
" style="fill:#1f77b4;"/>
   </g>
   <g id="patch_140">
    <path clip-path="url(#pce05168d7a)" d="M 318.290945 224.28 
L 319.678018 224.28 
L 319.678018 129.144673 
L 318.290945 129.144673 
z
" style="fill:#1f77b4;"/>
   </g>
   <g id="patch_141">
    <path clip-path="url(#pce05168d7a)" d="M 320.024787 224.28 
L 321.411861 224.28 
L 321.411861 96.335279 
L 320.024787 96.335279 
z
" style="fill:#1f77b4;"/>
   </g>
   <g id="patch_142">
    <path clip-path="url(#pce05168d7a)" d="M 321.758629 224.28 
L 323.145703 224.28 
L 323.145703 125.508872 
L 321.758629 125.508872 
z
" style="fill:#1f77b4;"/>
   </g>
   <g id="patch_143">
    <path clip-path="url(#pce05168d7a)" d="M 323.492472 224.28 
L 324.879545 224.28 
L 324.879545 135.910575 
L 323.492472 135.910575 
z
" style="fill:#1f77b4;"/>
   </g>
   <g id="patch_144">
    <path clip-path="url(#pce05168d7a)" d="M 325.226314 224.28 
L 326.613388 224.28 
L 326.613388 123.023004 
L 325.226314 123.023004 
z
" style="fill:#1f77b4;"/>
   </g>
   <g id="patch_145">
    <path clip-path="url(#pce05168d7a)" d="M 326.960156 224.28 
L 328.34723 224.28 
L 328.34723 105.437858 
L 326.960156 105.437858 
z
" style="fill:#1f77b4;"/>
   </g>
   <g id="patch_146">
    <path clip-path="url(#pce05168d7a)" d="M 328.693999 224.28 
L 330.081072 224.28 
L 330.081072 119.551895 
L 328.693999 119.551895 
z
" style="fill:#1f77b4;"/>
   </g>
   <g id="patch_147">
    <path clip-path="url(#pce05168d7a)" d="M 330.427841 224.28 
L 331.814915 224.28 
L 331.814915 142.819855 
L 330.427841 142.819855 
z
" style="fill:#1f77b4;"/>
   </g>
   <g id="patch_148">
    <path clip-path="url(#pce05168d7a)" d="M 332.161683 224.28 
L 333.548757 224.28 
L 333.548757 102.021 
L 332.161683 102.021 
z
" style="fill:#1f77b4;"/>
   </g>
   <g id="patch_149">
    <path clip-path="url(#pce05168d7a)" d="M 333.895526 224.28 
L 335.282599 224.28 
L 335.282599 111.957693 
L 333.895526 111.957693 
z
" style="fill:#1f77b4;"/>
   </g>
   <g id="patch_150">
    <path clip-path="url(#pce05168d7a)" d="M 335.629368 224.28 
L 337.016442 224.28 
L 337.016442 135.540504 
L 335.629368 135.540504 
z
" style="fill:#1f77b4;"/>
   </g>
   <g id="patch_151">
    <path clip-path="url(#pce05168d7a)" d="M 337.36321 224.28 
L 338.750284 224.28 
L 338.750284 99.293908 
L 337.36321 99.293908 
z
" style="fill:#1f77b4;"/>
   </g>
   <g id="patch_152">
    <path clip-path="url(#pce05168d7a)" d="M 339.097053 224.28 
L 340.484126 224.28 
L 340.484126 102.522824 
L 339.097053 102.522824 
z
" style="fill:#1f77b4;"/>
   </g>
   <g id="patch_153">
    <path clip-path="url(#pce05168d7a)" d="M 340.830895 224.28 
L 342.217969 224.28 
L 342.217969 80.677989 
L 340.830895 80.677989 
z
" style="fill:#1f77b4;"/>
   </g>
   <g id="patch_154">
    <path clip-path="url(#pce05168d7a)" d="M 342.564737 224.28 
L 343.951811 224.28 
L 343.951811 112.516674 
L 342.564737 112.516674 
z
" style="fill:#1f77b4;"/>
   </g>
   <g id="patch_155">
    <path clip-path="url(#pce05168d7a)" d="M 344.29858 224.28 
L 345.685653 224.28 
L 345.685653 99.096278 
L 344.29858 99.096278 
z
" style="fill:#1f77b4;"/>
   </g>
   <g id="patch_156">
    <path clip-path="url(#pce05168d7a)" d="M 346.032422 224.28 
L 347.419496 224.28 
L 347.419496 120.040156 
L 346.032422 120.040156 
z
" style="fill:#1f77b4;"/>
   </g>
   <g id="patch_157">
    <path clip-path="url(#pce05168d7a)" d="M 347.766264 224.28 
L 349.153338 224.28 
L 349.153338 103.269747 
L 347.766264 103.269747 
z
" style="fill:#1f77b4;"/>
   </g>
   <g id="patch_158">
    <path clip-path="url(#pce05168d7a)" d="M 349.500107 224.28 
L 350.88718 224.28 
L 350.88718 109.2151 
L 349.500107 109.2151 
z
" style="fill:#1f77b4;"/>
   </g>
   <g id="patch_159">
    <path clip-path="url(#pce05168d7a)" d="M 351.233949 224.28 
L 352.621023 224.28 
L 352.621023 134.650203 
L 351.233949 134.650203 
z
" style="fill:#1f77b4;"/>
   </g>
   <g id="patch_160">
    <path clip-path="url(#pce05168d7a)" d="M 352.967791 224.28 
L 354.354865 224.28 
L 354.354865 120.220347 
L 352.967791 120.220347 
z
" style="fill:#1f77b4;"/>
   </g>
   <g id="patch_161">
    <path clip-path="url(#pce05168d7a)" d="M 354.701634 224.28 
L 356.088707 224.28 
L 356.088707 144.2517 
L 354.701634 144.2517 
z
" style="fill:#1f77b4;"/>
   </g>
   <g id="patch_162">
    <path clip-path="url(#pce05168d7a)" d="M 356.435476 224.28 
L 357.82255 224.28 
L 357.82255 98.892836 
L 356.435476 98.892836 
z
" style="fill:#1f77b4;"/>
   </g>
   <g id="patch_163">
    <path clip-path="url(#pce05168d7a)" d="M 358.169318 224.28 
L 359.556392 224.28 
L 359.556392 124.215562 
L 358.169318 124.215562 
z
" style="fill:#1f77b4;"/>
   </g>
   <g id="patch_164">
    <path clip-path="url(#pce05168d7a)" d="M 359.903161 224.28 
L 361.290234 224.28 
L 361.290234 129.320989 
L 359.903161 129.320989 
z
" style="fill:#1f77b4;"/>
   </g>
   <g id="patch_165">
    <path clip-path="url(#pce05168d7a)" d="M 361.637003 224.28 
L 363.024077 224.28 
L 363.024077 126.240295 
L 361.637003 126.240295 
z
" style="fill:#1f77b4;"/>
   </g>
   <g id="patch_166">
    <path clip-path="url(#pce05168d7a)" d="M 363.370845 224.28 
L 364.757919 224.28 
L 364.757919 122.501805 
L 363.370845 122.501805 
z
" style="fill:#1f77b4;"/>
   </g>
   <g id="patch_167">
    <path clip-path="url(#pce05168d7a)" d="M 365.104687 224.28 
L 366.491761 224.28 
L 366.491761 123.812553 
L 365.104687 123.812553 
z
" style="fill:#1f77b4;"/>
   </g>
   <g id="patch_168">
    <path clip-path="url(#pce05168d7a)" d="M 366.83853 224.28 
L 368.225604 224.28 
L 368.225604 132.06552 
L 366.83853 132.06552 
z
" style="fill:#1f77b4;"/>
   </g>
   <g id="patch_169">
    <path clip-path="url(#pce05168d7a)" d="M 368.572372 224.28 
L 369.959446 224.28 
L 369.959446 104.126141 
L 368.572372 104.126141 
z
" style="fill:#1f77b4;"/>
   </g>
   <g id="patch_170">
    <path clip-path="url(#pce05168d7a)" d="M 370.306214 224.28 
L 371.693288 224.28 
L 371.693288 108.255047 
L 370.306214 108.255047 
z
" style="fill:#1f77b4;"/>
   </g>
   <g id="patch_171">
    <path clip-path="url(#pce05168d7a)" d="M 372.040057 224.28 
L 373.427131 224.28 
L 373.427131 112.120446 
L 372.040057 112.120446 
z
" style="fill:#1f77b4;"/>
   </g>
   <g id="patch_172">
    <path clip-path="url(#pce05168d7a)" d="M 373.773899 224.28 
L 375.160973 224.28 
L 375.160973 108.438145 
L 373.773899 108.438145 
z
" style="fill:#1f77b4;"/>
   </g>
   <g id="patch_173">
    <path clip-path="url(#pce05168d7a)" d="M 375.507741 224.28 
L 376.894815 224.28 
L 376.894815 109.454386 
L 375.507741 109.454386 
z
" style="fill:#1f77b4;"/>
   </g>
   <g id="patch_174">
    <path clip-path="url(#pce05168d7a)" d="M 377.241584 224.28 
L 378.628658 224.28 
L 378.628658 93.073424 
L 377.241584 93.073424 
z
" style="fill:#1f77b4;"/>
   </g>
   <g id="patch_175">
    <path clip-path="url(#pce05168d7a)" d="M 378.975426 224.28 
L 380.3625 224.28 
L 380.3625 132.295119 
L 378.975426 132.295119 
z
" style="fill:#1f77b4;"/>
   </g>
   <g id="patch_176">
    <path clip-path="url(#pce05168d7a)" d="M 380.709268 224.28 
L 382.096342 224.28 
L 382.096342 88.06778 
L 380.709268 88.06778 
z
" style="fill:#1f77b4;"/>
   </g>
   <g id="patch_177">
    <path clip-path="url(#pce05168d7a)" d="M 382.443111 224.28 
L 383.830185 224.28 
L 383.830185 103.075993 
L 382.443111 103.075993 
z
" style="fill:#1f77b4;"/>
   </g>
   <g id="patch_178">
    <path clip-path="url(#pce05168d7a)" d="M 384.176953 224.28 
L 385.564027 224.28 
L 385.564027 81.254408 
L 384.176953 81.254408 
z
" style="fill:#1f77b4;"/>
   </g>
   <g id="patch_179">
    <path clip-path="url(#pce05168d7a)" d="M 385.910795 224.28 
L 387.297869 224.28 
L 387.297869 80.71674 
L 385.910795 80.71674 
z
" style="fill:#1f77b4;"/>
   </g>
   <g id="patch_180">
    <path clip-path="url(#pce05168d7a)" d="M 387.644638 224.28 
L 389.031712 224.28 
L 389.031712 120.298818 
L 387.644638 120.298818 
z
" style="fill:#1f77b4;"/>
   </g>
   <g id="patch_181">
    <path clip-path="url(#pce05168d7a)" d="M 389.37848 224.28 
L 390.765554 224.28 
L 390.765554 141.377354 
L 389.37848 141.377354 
z
" style="fill:#1f77b4;"/>
   </g>
   <g id="patch_182">
    <path clip-path="url(#pce05168d7a)" d="M 391.112322 224.28 
L 392.499396 224.28 
L 392.499396 113.038842 
L 391.112322 113.038842 
z
" style="fill:#1f77b4;"/>
   </g>
   <g id="patch_183">
    <path clip-path="url(#pce05168d7a)" d="M 392.846165 224.28 
L 394.233239 224.28 
L 394.233239 104.205581 
L 392.846165 104.205581 
z
" style="fill:#1f77b4;"/>
   </g>
   <g id="patch_184">
    <path clip-path="url(#pce05168d7a)" d="M 394.580007 224.28 
L 395.967081 224.28 
L 395.967081 78.472096 
L 394.580007 78.472096 
z
" style="fill:#1f77b4;"/>
   </g>
   <g id="patch_185">
    <path clip-path="url(#pce05168d7a)" d="M 396.313849 224.28 
L 397.700923 224.28 
L 397.700923 144.2517 
L 396.313849 144.2517 
z
" style="fill:#1f77b4;"/>
   </g>
   <g id="patch_186">
    <path clip-path="url(#pce05168d7a)" d="M 398.047692 224.28 
L 399.434766 224.28 
L 399.434766 122.038732 
L 398.047692 122.038732 
z
" style="fill:#1f77b4;"/>
   </g>
   <g id="patch_187">
    <path clip-path="url(#pce05168d7a)" d="M 399.781534 224.28 
L 401.168608 224.28 
L 401.168608 132.40459 
L 399.781534 132.40459 
z
" style="fill:#1f77b4;"/>
   </g>
   <g id="patch_188">
    <path clip-path="url(#pce05168d7a)" d="M 401.515376 224.28 
L 402.90245 224.28 
L 402.90245 148.715801 
L 401.515376 148.715801 
z
" style="fill:#1f77b4;"/>
   </g>
   <g id="patch_189">
    <path clip-path="url(#pce05168d7a)" d="M 403.249219 224.28 
L 404.636293 224.28 
L 404.636293 125.36065 
L 403.249219 125.36065 
z
" style="fill:#1f77b4;"/>
   </g>
   <g id="patch_190">
    <path clip-path="url(#pce05168d7a)" d="M 404.983061 224.28 
L 406.370135 224.28 
L 406.370135 105.437858 
L 404.983061 105.437858 
z
" style="fill:#1f77b4;"/>
   </g>
   <g id="patch_191">
    <path clip-path="url(#pce05168d7a)" d="M 406.716903 224.28 
L 408.103977 224.28 
L 408.103977 83.348893 
L 406.716903 83.348893 
z
" style="fill:#1f77b4;"/>
   </g>
   <g id="patch_192">
    <path clip-path="url(#pce05168d7a)" d="M 408.450746 224.28 
L 409.83782 224.28 
L 409.83782 94.429705 
L 408.450746 94.429705 
z
" style="fill:#1f77b4;"/>
   </g>
   <g id="patch_193">
    <path clip-path="url(#pce05168d7a)" d="M 410.184588 224.28 
L 411.571662 224.28 
L 411.571662 94.46458 
L 410.184588 94.46458 
z
" style="fill:#1f77b4;"/>
   </g>
   <g id="patch_194">
    <path clip-path="url(#pce05168d7a)" d="M 411.91843 224.28 
L 413.305504 224.28 
L 413.305504 96.558096 
L 411.91843 96.558096 
z
" style="fill:#1f77b4;"/>
   </g>
   <g id="patch_195">
    <path clip-path="url(#pce05168d7a)" d="M 413.652273 224.28 
L 415.039347 224.28 
L 415.039347 92.286781 
L 413.652273 92.286781 
z
" style="fill:#1f77b4;"/>
   </g>
   <g id="patch_196">
    <path clip-path="url(#pce05168d7a)" d="M 415.386115 224.28 
L 416.773189 224.28 
L 416.773189 99.474099 
L 415.386115 99.474099 
z
" style="fill:#1f77b4;"/>
   </g>
   <g id="patch_197">
    <path clip-path="url(#pce05168d7a)" d="M 417.119957 224.28 
L 418.507031 224.28 
L 418.507031 111.902473 
L 417.119957 111.902473 
z
" style="fill:#1f77b4;"/>
   </g>
   <g id="patch_198">
    <path clip-path="url(#pce05168d7a)" d="M 418.8538 224.28 
L 420.240874 224.28 
L 420.240874 105.437858 
L 418.8538 105.437858 
z
" style="fill:#1f77b4;"/>
   </g>
   <g id="patch_199">
    <path clip-path="url(#pce05168d7a)" d="M 420.587642 224.28 
L 421.974716 224.28 
L 421.974716 109.688829 
L 420.587642 109.688829 
z
" style="fill:#1f77b4;"/>
   </g>
   <g id="patch_200">
    <path clip-path="url(#pce05168d7a)" d="M 422.321484 224.28 
L 423.708558 224.28 
L 423.708558 127.402821 
L 422.321484 127.402821 
z
" style="fill:#1f77b4;"/>
   </g>
   <g id="patch_201">
    <path clip-path="url(#pce05168d7a)" d="M 424.055327 224.28 
L 425.442401 224.28 
L 425.442401 110.085057 
L 424.055327 110.085057 
z
" style="fill:#1f77b4;"/>
   </g>
   <g id="patch_202">
    <path clip-path="url(#pce05168d7a)" d="M 425.789169 224.28 
L 427.176243 224.28 
L 427.176243 113.727639 
L 425.789169 113.727639 
z
" style="fill:#1f77b4;"/>
   </g>
   <g id="patch_203">
    <path clip-path="url(#pce05168d7a)" d="M 427.523011 224.28 
L 428.910085 224.28 
L 428.910085 94.195262 
L 427.523011 94.195262 
z
" style="fill:#1f77b4;"/>
   </g>
   <g id="patch_204">
    <path clip-path="url(#pce05168d7a)" d="M 429.256854 224.28 
L 430.643928 224.28 
L 430.643928 66.714113 
L 429.256854 66.714113 
z
" style="fill:#1f77b4;"/>
   </g>
   <g id="patch_205">
    <path clip-path="url(#pce05168d7a)" d="M 430.990696 224.28 
L 432.37777 224.28 
L 432.37777 69.111823 
L 430.990696 69.111823 
z
" style="fill:#1f77b4;"/>
   </g>
   <g id="patch_206">
    <path clip-path="url(#pce05168d7a)" d="M 432.724538 224.28 
L 434.111612 224.28 
L 434.111612 92.688822 
L 432.724538 92.688822 
z
" style="fill:#1f77b4;"/>
   </g>
   <g id="patch_207">
    <path clip-path="url(#pce05168d7a)" d="M 434.458381 224.28 
L 435.845455 224.28 
L 435.845455 84.130692 
L 434.458381 84.130692 
z
" style="fill:#1f77b4;"/>
   </g>
   <g id="matplotlib.axis_1">
    <g id="xtick_1">
     <g id="line2d_1">
      <defs>
       <path d="M 0 0 
L 0 3.5 
" id="m9641e85d74" style="stroke:#000000;stroke-width:0.8;"/>
      </defs>
      <g>
       <use style="stroke:#000000;stroke-width:0.8;" x="79.71424" xlink:href="#m9641e85d74" y="224.28"/>
      </g>
     </g>
     <g id="text_1">
      <!-- 0 -->
      <defs>
       <path d="M 31.78125 66.40625 
Q 24.171875 66.40625 20.328125 58.90625 
Q 16.5 51.421875 16.5 36.375 
Q 16.5 21.390625 20.328125 13.890625 
Q 24.171875 6.390625 31.78125 6.390625 
Q 39.453125 6.390625 43.28125 13.890625 
Q 47.125 21.390625 47.125 36.375 
Q 47.125 51.421875 43.28125 58.90625 
Q 39.453125 66.40625 31.78125 66.40625 
z
M 31.78125 74.21875 
Q 44.046875 74.21875 50.515625 64.515625 
Q 56.984375 54.828125 56.984375 36.375 
Q 56.984375 17.96875 50.515625 8.265625 
Q 44.046875 -1.421875 31.78125 -1.421875 
Q 19.53125 -1.421875 13.0625 8.265625 
Q 6.59375 17.96875 6.59375 36.375 
Q 6.59375 54.828125 13.0625 64.515625 
Q 19.53125 74.21875 31.78125 74.21875 
z
" id="DejaVuSans-30"/>
      </defs>
      <g transform="translate(76.53299 238.878438)scale(0.1 -0.1)">
       <use xlink:href="#DejaVuSans-30"/>
      </g>
     </g>
    </g>
    <g id="xtick_2">
     <g id="line2d_2">
      <g>
       <use style="stroke:#000000;stroke-width:0.8;" x="166.406357" xlink:href="#m9641e85d74" y="224.28"/>
      </g>
     </g>
     <g id="text_2">
      <!-- 50 -->
      <defs>
       <path d="M 10.796875 72.90625 
L 49.515625 72.90625 
L 49.515625 64.59375 
L 19.828125 64.59375 
L 19.828125 46.734375 
Q 21.96875 47.46875 24.109375 47.828125 
Q 26.265625 48.1875 28.421875 48.1875 
Q 40.625 48.1875 47.75 41.5 
Q 54.890625 34.8125 54.890625 23.390625 
Q 54.890625 11.625 47.5625 5.09375 
Q 40.234375 -1.421875 26.90625 -1.421875 
Q 22.3125 -1.421875 17.546875 -0.640625 
Q 12.796875 0.140625 7.71875 1.703125 
L 7.71875 11.625 
Q 12.109375 9.234375 16.796875 8.0625 
Q 21.484375 6.890625 26.703125 6.890625 
Q 35.15625 6.890625 40.078125 11.328125 
Q 45.015625 15.765625 45.015625 23.390625 
Q 45.015625 31 40.078125 35.4375 
Q 35.15625 39.890625 26.703125 39.890625 
Q 22.75 39.890625 18.8125 39.015625 
Q 14.890625 38.140625 10.796875 36.28125 
z
" id="DejaVuSans-35"/>
      </defs>
      <g transform="translate(160.043857 238.878438)scale(0.1 -0.1)">
       <use xlink:href="#DejaVuSans-35"/>
       <use x="63.623047" xlink:href="#DejaVuSans-30"/>
      </g>
     </g>
    </g>
    <g id="xtick_3">
     <g id="line2d_3">
      <g>
       <use style="stroke:#000000;stroke-width:0.8;" x="253.098473" xlink:href="#m9641e85d74" y="224.28"/>
      </g>
     </g>
     <g id="text_3">
      <!-- 100 -->
      <defs>
       <path d="M 12.40625 8.296875 
L 28.515625 8.296875 
L 28.515625 63.921875 
L 10.984375 60.40625 
L 10.984375 69.390625 
L 28.421875 72.90625 
L 38.28125 72.90625 
L 38.28125 8.296875 
L 54.390625 8.296875 
L 54.390625 0 
L 12.40625 0 
z
" id="DejaVuSans-31"/>
      </defs>
      <g transform="translate(243.554723 238.878438)scale(0.1 -0.1)">
       <use xlink:href="#DejaVuSans-31"/>
       <use x="63.623047" xlink:href="#DejaVuSans-30"/>
       <use x="127.246094" xlink:href="#DejaVuSans-30"/>
      </g>
     </g>
    </g>
    <g id="xtick_4">
     <g id="line2d_4">
      <g>
       <use style="stroke:#000000;stroke-width:0.8;" x="339.790589" xlink:href="#m9641e85d74" y="224.28"/>
      </g>
     </g>
     <g id="text_4">
      <!-- 150 -->
      <g transform="translate(330.246839 238.878438)scale(0.1 -0.1)">
       <use xlink:href="#DejaVuSans-31"/>
       <use x="63.623047" xlink:href="#DejaVuSans-35"/>
       <use x="127.246094" xlink:href="#DejaVuSans-30"/>
      </g>
     </g>
    </g>
    <g id="xtick_5">
     <g id="line2d_5">
      <g>
       <use style="stroke:#000000;stroke-width:0.8;" x="426.482706" xlink:href="#m9641e85d74" y="224.28"/>
      </g>
     </g>
     <g id="text_5">
      <!-- 200 -->
      <defs>
       <path d="M 19.1875 8.296875 
L 53.609375 8.296875 
L 53.609375 0 
L 7.328125 0 
L 7.328125 8.296875 
Q 12.9375 14.109375 22.625 23.890625 
Q 32.328125 33.6875 34.8125 36.53125 
Q 39.546875 41.84375 41.421875 45.53125 
Q 43.3125 49.21875 43.3125 52.78125 
Q 43.3125 58.59375 39.234375 62.25 
Q 35.15625 65.921875 28.609375 65.921875 
Q 23.96875 65.921875 18.8125 64.3125 
Q 13.671875 62.703125 7.8125 59.421875 
L 7.8125 69.390625 
Q 13.765625 71.78125 18.9375 73 
Q 24.125 74.21875 28.421875 74.21875 
Q 39.75 74.21875 46.484375 68.546875 
Q 53.21875 62.890625 53.21875 53.421875 
Q 53.21875 48.921875 51.53125 44.890625 
Q 49.859375 40.875 45.40625 35.40625 
Q 44.1875 33.984375 37.640625 27.21875 
Q 31.109375 20.453125 19.1875 8.296875 
z
" id="DejaVuSans-32"/>
      </defs>
      <g transform="translate(416.938956 238.878438)scale(0.1 -0.1)">
       <use xlink:href="#DejaVuSans-32"/>
       <use x="63.623047" xlink:href="#DejaVuSans-30"/>
       <use x="127.246094" xlink:href="#DejaVuSans-30"/>
      </g>
     </g>
    </g>
    <g id="text_6">
     <!-- number of chunk (from beginning to end) -->
     <defs>
      <path d="M 54.890625 33.015625 
L 54.890625 0 
L 45.90625 0 
L 45.90625 32.71875 
Q 45.90625 40.484375 42.875 44.328125 
Q 39.84375 48.1875 33.796875 48.1875 
Q 26.515625 48.1875 22.3125 43.546875 
Q 18.109375 38.921875 18.109375 30.90625 
L 18.109375 0 
L 9.078125 0 
L 9.078125 54.6875 
L 18.109375 54.6875 
L 18.109375 46.1875 
Q 21.34375 51.125 25.703125 53.5625 
Q 30.078125 56 35.796875 56 
Q 45.21875 56 50.046875 50.171875 
Q 54.890625 44.34375 54.890625 33.015625 
z
" id="DejaVuSans-6e"/>
      <path d="M 8.5 21.578125 
L 8.5 54.6875 
L 17.484375 54.6875 
L 17.484375 21.921875 
Q 17.484375 14.15625 20.5 10.265625 
Q 23.53125 6.390625 29.59375 6.390625 
Q 36.859375 6.390625 41.078125 11.03125 
Q 45.3125 15.671875 45.3125 23.6875 
L 45.3125 54.6875 
L 54.296875 54.6875 
L 54.296875 0 
L 45.3125 0 
L 45.3125 8.40625 
Q 42.046875 3.421875 37.71875 1 
Q 33.40625 -1.421875 27.6875 -1.421875 
Q 18.265625 -1.421875 13.375 4.4375 
Q 8.5 10.296875 8.5 21.578125 
z
M 31.109375 56 
z
" id="DejaVuSans-75"/>
      <path d="M 52 44.1875 
Q 55.375 50.25 60.0625 53.125 
Q 64.75 56 71.09375 56 
Q 79.640625 56 84.28125 50.015625 
Q 88.921875 44.046875 88.921875 33.015625 
L 88.921875 0 
L 79.890625 0 
L 79.890625 32.71875 
Q 79.890625 40.578125 77.09375 44.375 
Q 74.3125 48.1875 68.609375 48.1875 
Q 61.625 48.1875 57.5625 43.546875 
Q 53.515625 38.921875 53.515625 30.90625 
L 53.515625 0 
L 44.484375 0 
L 44.484375 32.71875 
Q 44.484375 40.625 41.703125 44.40625 
Q 38.921875 48.1875 33.109375 48.1875 
Q 26.21875 48.1875 22.15625 43.53125 
Q 18.109375 38.875 18.109375 30.90625 
L 18.109375 0 
L 9.078125 0 
L 9.078125 54.6875 
L 18.109375 54.6875 
L 18.109375 46.1875 
Q 21.1875 51.21875 25.484375 53.609375 
Q 29.78125 56 35.6875 56 
Q 41.65625 56 45.828125 52.96875 
Q 50 49.953125 52 44.1875 
z
" id="DejaVuSans-6d"/>
      <path d="M 48.6875 27.296875 
Q 48.6875 37.203125 44.609375 42.84375 
Q 40.53125 48.484375 33.40625 48.484375 
Q 26.265625 48.484375 22.1875 42.84375 
Q 18.109375 37.203125 18.109375 27.296875 
Q 18.109375 17.390625 22.1875 11.75 
Q 26.265625 6.109375 33.40625 6.109375 
Q 40.53125 6.109375 44.609375 11.75 
Q 48.6875 17.390625 48.6875 27.296875 
z
M 18.109375 46.390625 
Q 20.953125 51.265625 25.265625 53.625 
Q 29.59375 56 35.59375 56 
Q 45.5625 56 51.78125 48.09375 
Q 58.015625 40.1875 58.015625 27.296875 
Q 58.015625 14.40625 51.78125 6.484375 
Q 45.5625 -1.421875 35.59375 -1.421875 
Q 29.59375 -1.421875 25.265625 0.953125 
Q 20.953125 3.328125 18.109375 8.203125 
L 18.109375 0 
L 9.078125 0 
L 9.078125 75.984375 
L 18.109375 75.984375 
z
" id="DejaVuSans-62"/>
      <path d="M 56.203125 29.59375 
L 56.203125 25.203125 
L 14.890625 25.203125 
Q 15.484375 15.921875 20.484375 11.0625 
Q 25.484375 6.203125 34.421875 6.203125 
Q 39.59375 6.203125 44.453125 7.46875 
Q 49.3125 8.734375 54.109375 11.28125 
L 54.109375 2.78125 
Q 49.265625 0.734375 44.1875 -0.34375 
Q 39.109375 -1.421875 33.890625 -1.421875 
Q 20.796875 -1.421875 13.15625 6.1875 
Q 5.515625 13.8125 5.515625 26.8125 
Q 5.515625 40.234375 12.765625 48.109375 
Q 20.015625 56 32.328125 56 
Q 43.359375 56 49.78125 48.890625 
Q 56.203125 41.796875 56.203125 29.59375 
z
M 47.21875 32.234375 
Q 47.125 39.59375 43.09375 43.984375 
Q 39.0625 48.390625 32.421875 48.390625 
Q 24.90625 48.390625 20.390625 44.140625 
Q 15.875 39.890625 15.1875 32.171875 
z
" id="DejaVuSans-65"/>
      <path d="M 41.109375 46.296875 
Q 39.59375 47.171875 37.8125 47.578125 
Q 36.03125 48 33.890625 48 
Q 26.265625 48 22.1875 43.046875 
Q 18.109375 38.09375 18.109375 28.8125 
L 18.109375 0 
L 9.078125 0 
L 9.078125 54.6875 
L 18.109375 54.6875 
L 18.109375 46.1875 
Q 20.953125 51.171875 25.484375 53.578125 
Q 30.03125 56 36.53125 56 
Q 37.453125 56 38.578125 55.875 
Q 39.703125 55.765625 41.0625 55.515625 
z
" id="DejaVuSans-72"/>
      <path id="DejaVuSans-20"/>
      <path d="M 30.609375 48.390625 
Q 23.390625 48.390625 19.1875 42.75 
Q 14.984375 37.109375 14.984375 27.296875 
Q 14.984375 17.484375 19.15625 11.84375 
Q 23.34375 6.203125 30.609375 6.203125 
Q 37.796875 6.203125 41.984375 11.859375 
Q 46.1875 17.53125 46.1875 27.296875 
Q 46.1875 37.015625 41.984375 42.703125 
Q 37.796875 48.390625 30.609375 48.390625 
z
M 30.609375 56 
Q 42.328125 56 49.015625 48.375 
Q 55.71875 40.765625 55.71875 27.296875 
Q 55.71875 13.875 49.015625 6.21875 
Q 42.328125 -1.421875 30.609375 -1.421875 
Q 18.84375 -1.421875 12.171875 6.21875 
Q 5.515625 13.875 5.515625 27.296875 
Q 5.515625 40.765625 12.171875 48.375 
Q 18.84375 56 30.609375 56 
z
" id="DejaVuSans-6f"/>
      <path d="M 37.109375 75.984375 
L 37.109375 68.5 
L 28.515625 68.5 
Q 23.6875 68.5 21.796875 66.546875 
Q 19.921875 64.59375 19.921875 59.515625 
L 19.921875 54.6875 
L 34.71875 54.6875 
L 34.71875 47.703125 
L 19.921875 47.703125 
L 19.921875 0 
L 10.890625 0 
L 10.890625 47.703125 
L 2.296875 47.703125 
L 2.296875 54.6875 
L 10.890625 54.6875 
L 10.890625 58.5 
Q 10.890625 67.625 15.140625 71.796875 
Q 19.390625 75.984375 28.609375 75.984375 
z
" id="DejaVuSans-66"/>
      <path d="M 48.78125 52.59375 
L 48.78125 44.1875 
Q 44.96875 46.296875 41.140625 47.34375 
Q 37.3125 48.390625 33.40625 48.390625 
Q 24.65625 48.390625 19.8125 42.84375 
Q 14.984375 37.3125 14.984375 27.296875 
Q 14.984375 17.28125 19.8125 11.734375 
Q 24.65625 6.203125 33.40625 6.203125 
Q 37.3125 6.203125 41.140625 7.25 
Q 44.96875 8.296875 48.78125 10.40625 
L 48.78125 2.09375 
Q 45.015625 0.34375 40.984375 -0.53125 
Q 36.96875 -1.421875 32.421875 -1.421875 
Q 20.0625 -1.421875 12.78125 6.34375 
Q 5.515625 14.109375 5.515625 27.296875 
Q 5.515625 40.671875 12.859375 48.328125 
Q 20.21875 56 33.015625 56 
Q 37.15625 56 41.109375 55.140625 
Q 45.0625 54.296875 48.78125 52.59375 
z
" id="DejaVuSans-63"/>
      <path d="M 54.890625 33.015625 
L 54.890625 0 
L 45.90625 0 
L 45.90625 32.71875 
Q 45.90625 40.484375 42.875 44.328125 
Q 39.84375 48.1875 33.796875 48.1875 
Q 26.515625 48.1875 22.3125 43.546875 
Q 18.109375 38.921875 18.109375 30.90625 
L 18.109375 0 
L 9.078125 0 
L 9.078125 75.984375 
L 18.109375 75.984375 
L 18.109375 46.1875 
Q 21.34375 51.125 25.703125 53.5625 
Q 30.078125 56 35.796875 56 
Q 45.21875 56 50.046875 50.171875 
Q 54.890625 44.34375 54.890625 33.015625 
z
" id="DejaVuSans-68"/>
      <path d="M 9.078125 75.984375 
L 18.109375 75.984375 
L 18.109375 31.109375 
L 44.921875 54.6875 
L 56.390625 54.6875 
L 27.390625 29.109375 
L 57.625 0 
L 45.90625 0 
L 18.109375 26.703125 
L 18.109375 0 
L 9.078125 0 
z
" id="DejaVuSans-6b"/>
      <path d="M 31 75.875 
Q 24.46875 64.65625 21.28125 53.65625 
Q 18.109375 42.671875 18.109375 31.390625 
Q 18.109375 20.125 21.3125 9.0625 
Q 24.515625 -2 31 -13.1875 
L 23.1875 -13.1875 
Q 15.875 -1.703125 12.234375 9.375 
Q 8.59375 20.453125 8.59375 31.390625 
Q 8.59375 42.28125 12.203125 53.3125 
Q 15.828125 64.359375 23.1875 75.875 
z
" id="DejaVuSans-28"/>
      <path d="M 45.40625 27.984375 
Q 45.40625 37.75 41.375 43.109375 
Q 37.359375 48.484375 30.078125 48.484375 
Q 22.859375 48.484375 18.828125 43.109375 
Q 14.796875 37.75 14.796875 27.984375 
Q 14.796875 18.265625 18.828125 12.890625 
Q 22.859375 7.515625 30.078125 7.515625 
Q 37.359375 7.515625 41.375 12.890625 
Q 45.40625 18.265625 45.40625 27.984375 
z
M 54.390625 6.78125 
Q 54.390625 -7.171875 48.1875 -13.984375 
Q 42 -20.796875 29.203125 -20.796875 
Q 24.46875 -20.796875 20.265625 -20.09375 
Q 16.0625 -19.390625 12.109375 -17.921875 
L 12.109375 -9.1875 
Q 16.0625 -11.328125 19.921875 -12.34375 
Q 23.78125 -13.375 27.78125 -13.375 
Q 36.625 -13.375 41.015625 -8.765625 
Q 45.40625 -4.15625 45.40625 5.171875 
L 45.40625 9.625 
Q 42.625 4.78125 38.28125 2.390625 
Q 33.9375 0 27.875 0 
Q 17.828125 0 11.671875 7.65625 
Q 5.515625 15.328125 5.515625 27.984375 
Q 5.515625 40.671875 11.671875 48.328125 
Q 17.828125 56 27.875 56 
Q 33.9375 56 38.28125 53.609375 
Q 42.625 51.21875 45.40625 46.390625 
L 45.40625 54.6875 
L 54.390625 54.6875 
z
" id="DejaVuSans-67"/>
      <path d="M 9.421875 54.6875 
L 18.40625 54.6875 
L 18.40625 0 
L 9.421875 0 
z
M 9.421875 75.984375 
L 18.40625 75.984375 
L 18.40625 64.59375 
L 9.421875 64.59375 
z
" id="DejaVuSans-69"/>
      <path d="M 18.3125 70.21875 
L 18.3125 54.6875 
L 36.8125 54.6875 
L 36.8125 47.703125 
L 18.3125 47.703125 
L 18.3125 18.015625 
Q 18.3125 11.328125 20.140625 9.421875 
Q 21.96875 7.515625 27.59375 7.515625 
L 36.8125 7.515625 
L 36.8125 0 
L 27.59375 0 
Q 17.1875 0 13.234375 3.875 
Q 9.28125 7.765625 9.28125 18.015625 
L 9.28125 47.703125 
L 2.6875 47.703125 
L 2.6875 54.6875 
L 9.28125 54.6875 
L 9.28125 70.21875 
z
" id="DejaVuSans-74"/>
      <path d="M 45.40625 46.390625 
L 45.40625 75.984375 
L 54.390625 75.984375 
L 54.390625 0 
L 45.40625 0 
L 45.40625 8.203125 
Q 42.578125 3.328125 38.25 0.953125 
Q 33.9375 -1.421875 27.875 -1.421875 
Q 17.96875 -1.421875 11.734375 6.484375 
Q 5.515625 14.40625 5.515625 27.296875 
Q 5.515625 40.1875 11.734375 48.09375 
Q 17.96875 56 27.875 56 
Q 33.9375 56 38.25 53.625 
Q 42.578125 51.265625 45.40625 46.390625 
z
M 14.796875 27.296875 
Q 14.796875 17.390625 18.875 11.75 
Q 22.953125 6.109375 30.078125 6.109375 
Q 37.203125 6.109375 41.296875 11.75 
Q 45.40625 17.390625 45.40625 27.296875 
Q 45.40625 37.203125 41.296875 42.84375 
Q 37.203125 48.484375 30.078125 48.484375 
Q 22.953125 48.484375 18.875 42.84375 
Q 14.796875 37.203125 14.796875 27.296875 
z
" id="DejaVuSans-64"/>
      <path d="M 8.015625 75.875 
L 15.828125 75.875 
Q 23.140625 64.359375 26.78125 53.3125 
Q 30.421875 42.28125 30.421875 31.390625 
Q 30.421875 20.453125 26.78125 9.375 
Q 23.140625 -1.703125 15.828125 -13.1875 
L 8.015625 -13.1875 
Q 14.5 -2 17.703125 9.0625 
Q 20.90625 20.125 20.90625 31.390625 
Q 20.90625 42.671875 17.703125 53.65625 
Q 14.5 64.65625 8.015625 75.875 
z
" id="DejaVuSans-29"/>
     </defs>
     <g transform="translate(154.313281 252.556563)scale(0.1 -0.1)">
      <use xlink:href="#DejaVuSans-6e"/>
      <use x="63.378906" xlink:href="#DejaVuSans-75"/>
      <use x="126.757812" xlink:href="#DejaVuSans-6d"/>
      <use x="224.169922" xlink:href="#DejaVuSans-62"/>
      <use x="287.646484" xlink:href="#DejaVuSans-65"/>
      <use x="349.169922" xlink:href="#DejaVuSans-72"/>
      <use x="390.283203" xlink:href="#DejaVuSans-20"/>
      <use x="422.070312" xlink:href="#DejaVuSans-6f"/>
      <use x="483.251953" xlink:href="#DejaVuSans-66"/>
      <use x="518.457031" xlink:href="#DejaVuSans-20"/>
      <use x="550.244141" xlink:href="#DejaVuSans-63"/>
      <use x="605.224609" xlink:href="#DejaVuSans-68"/>
      <use x="668.603516" xlink:href="#DejaVuSans-75"/>
      <use x="731.982422" xlink:href="#DejaVuSans-6e"/>
      <use x="795.361328" xlink:href="#DejaVuSans-6b"/>
      <use x="853.271484" xlink:href="#DejaVuSans-20"/>
      <use x="885.058594" xlink:href="#DejaVuSans-28"/>
      <use x="924.072266" xlink:href="#DejaVuSans-66"/>
      <use x="959.277344" xlink:href="#DejaVuSans-72"/>
      <use x="1000.359375" xlink:href="#DejaVuSans-6f"/>
      <use x="1061.541016" xlink:href="#DejaVuSans-6d"/>
      <use x="1158.953125" xlink:href="#DejaVuSans-20"/>
      <use x="1190.740234" xlink:href="#DejaVuSans-62"/>
      <use x="1254.216797" xlink:href="#DejaVuSans-65"/>
      <use x="1315.740234" xlink:href="#DejaVuSans-67"/>
      <use x="1379.216797" xlink:href="#DejaVuSans-69"/>
      <use x="1407" xlink:href="#DejaVuSans-6e"/>
      <use x="1470.378906" xlink:href="#DejaVuSans-6e"/>
      <use x="1533.757812" xlink:href="#DejaVuSans-69"/>
      <use x="1561.541016" xlink:href="#DejaVuSans-6e"/>
      <use x="1624.919922" xlink:href="#DejaVuSans-67"/>
      <use x="1688.396484" xlink:href="#DejaVuSans-20"/>
      <use x="1720.183594" xlink:href="#DejaVuSans-74"/>
      <use x="1759.392578" xlink:href="#DejaVuSans-6f"/>
      <use x="1820.574219" xlink:href="#DejaVuSans-20"/>
      <use x="1852.361328" xlink:href="#DejaVuSans-65"/>
      <use x="1913.884766" xlink:href="#DejaVuSans-6e"/>
      <use x="1977.263672" xlink:href="#DejaVuSans-64"/>
      <use x="2040.740234" xlink:href="#DejaVuSans-29"/>
     </g>
    </g>
   </g>
   <g id="matplotlib.axis_2">
    <g id="ytick_1">
     <g id="line2d_6">
      <defs>
       <path d="M 0 0 
L -3.5 0 
" id="mf8b2b56659" style="stroke:#000000;stroke-width:0.8;"/>
      </defs>
      <g>
       <use style="stroke:#000000;stroke-width:0.8;" x="63" xlink:href="#mf8b2b56659" y="224.28"/>
      </g>
     </g>
     <g id="text_7">
      <!-- 0.0 -->
      <defs>
       <path d="M 10.6875 12.40625 
L 21 12.40625 
L 21 0 
L 10.6875 0 
z
" id="DejaVuSans-2e"/>
      </defs>
      <g transform="translate(40.096875 228.079219)scale(0.1 -0.1)">
       <use xlink:href="#DejaVuSans-30"/>
       <use x="63.623047" xlink:href="#DejaVuSans-2e"/>
       <use x="95.410156" xlink:href="#DejaVuSans-30"/>
      </g>
     </g>
    </g>
    <g id="ytick_2">
     <g id="line2d_7">
      <g>
       <use style="stroke:#000000;stroke-width:0.8;" x="63" xlink:href="#mf8b2b56659" y="200.060705"/>
      </g>
     </g>
     <g id="text_8">
      <!-- 2.5 -->
      <g transform="translate(40.096875 203.859924)scale(0.1 -0.1)">
       <use xlink:href="#DejaVuSans-32"/>
       <use x="63.623047" xlink:href="#DejaVuSans-2e"/>
       <use x="95.410156" xlink:href="#DejaVuSans-35"/>
      </g>
     </g>
    </g>
    <g id="ytick_3">
     <g id="line2d_8">
      <g>
       <use style="stroke:#000000;stroke-width:0.8;" x="63" xlink:href="#mf8b2b56659" y="175.841411"/>
      </g>
     </g>
     <g id="text_9">
      <!-- 5.0 -->
      <g transform="translate(40.096875 179.640629)scale(0.1 -0.1)">
       <use xlink:href="#DejaVuSans-35"/>
       <use x="63.623047" xlink:href="#DejaVuSans-2e"/>
       <use x="95.410156" xlink:href="#DejaVuSans-30"/>
      </g>
     </g>
    </g>
    <g id="ytick_4">
     <g id="line2d_9">
      <g>
       <use style="stroke:#000000;stroke-width:0.8;" x="63" xlink:href="#mf8b2b56659" y="151.622116"/>
      </g>
     </g>
     <g id="text_10">
      <!-- 7.5 -->
      <defs>
       <path d="M 8.203125 72.90625 
L 55.078125 72.90625 
L 55.078125 68.703125 
L 28.609375 0 
L 18.3125 0 
L 43.21875 64.59375 
L 8.203125 64.59375 
z
" id="DejaVuSans-37"/>
      </defs>
      <g transform="translate(40.096875 155.421335)scale(0.1 -0.1)">
       <use xlink:href="#DejaVuSans-37"/>
       <use x="63.623047" xlink:href="#DejaVuSans-2e"/>
       <use x="95.410156" xlink:href="#DejaVuSans-35"/>
      </g>
     </g>
    </g>
    <g id="ytick_5">
     <g id="line2d_10">
      <g>
       <use style="stroke:#000000;stroke-width:0.8;" x="63" xlink:href="#mf8b2b56659" y="127.402821"/>
      </g>
     </g>
     <g id="text_11">
      <!-- 10.0 -->
      <g transform="translate(33.734375 131.20204)scale(0.1 -0.1)">
       <use xlink:href="#DejaVuSans-31"/>
       <use x="63.623047" xlink:href="#DejaVuSans-30"/>
       <use x="127.246094" xlink:href="#DejaVuSans-2e"/>
       <use x="159.033203" xlink:href="#DejaVuSans-30"/>
      </g>
     </g>
    </g>
    <g id="ytick_6">
     <g id="line2d_11">
      <g>
       <use style="stroke:#000000;stroke-width:0.8;" x="63" xlink:href="#mf8b2b56659" y="103.183526"/>
      </g>
     </g>
     <g id="text_12">
      <!-- 12.5 -->
      <g transform="translate(33.734375 106.982745)scale(0.1 -0.1)">
       <use xlink:href="#DejaVuSans-31"/>
       <use x="63.623047" xlink:href="#DejaVuSans-32"/>
       <use x="127.246094" xlink:href="#DejaVuSans-2e"/>
       <use x="159.033203" xlink:href="#DejaVuSans-35"/>
      </g>
     </g>
    </g>
    <g id="ytick_7">
     <g id="line2d_12">
      <g>
       <use style="stroke:#000000;stroke-width:0.8;" x="63" xlink:href="#mf8b2b56659" y="78.964232"/>
      </g>
     </g>
     <g id="text_13">
      <!-- 15.0 -->
      <g transform="translate(33.734375 82.763451)scale(0.1 -0.1)">
       <use xlink:href="#DejaVuSans-31"/>
       <use x="63.623047" xlink:href="#DejaVuSans-35"/>
       <use x="127.246094" xlink:href="#DejaVuSans-2e"/>
       <use x="159.033203" xlink:href="#DejaVuSans-30"/>
      </g>
     </g>
    </g>
    <g id="ytick_8">
     <g id="line2d_13">
      <g>
       <use style="stroke:#000000;stroke-width:0.8;" x="63" xlink:href="#mf8b2b56659" y="54.744937"/>
      </g>
     </g>
     <g id="text_14">
      <!-- 17.5 -->
      <g transform="translate(33.734375 58.544156)scale(0.1 -0.1)">
       <use xlink:href="#DejaVuSans-31"/>
       <use x="63.623047" xlink:href="#DejaVuSans-37"/>
       <use x="127.246094" xlink:href="#DejaVuSans-2e"/>
       <use x="159.033203" xlink:href="#DejaVuSans-35"/>
      </g>
     </g>
    </g>
    <g id="ytick_9">
     <g id="line2d_14">
      <g>
       <use style="stroke:#000000;stroke-width:0.8;" x="63" xlink:href="#mf8b2b56659" y="30.525642"/>
      </g>
     </g>
     <g id="text_15">
      <!-- 20.0 -->
      <g transform="translate(33.734375 34.324861)scale(0.1 -0.1)">
       <use xlink:href="#DejaVuSans-32"/>
       <use x="63.623047" xlink:href="#DejaVuSans-30"/>
       <use x="127.246094" xlink:href="#DejaVuSans-2e"/>
       <use x="159.033203" xlink:href="#DejaVuSans-30"/>
      </g>
     </g>
    </g>
    <g id="text_16">
     <!-- GFI -->
     <defs>
      <path d="M 59.515625 10.40625 
L 59.515625 29.984375 
L 43.40625 29.984375 
L 43.40625 38.09375 
L 69.28125 38.09375 
L 69.28125 6.78125 
Q 63.578125 2.734375 56.6875 0.65625 
Q 49.8125 -1.421875 42 -1.421875 
Q 24.90625 -1.421875 15.25 8.5625 
Q 5.609375 18.5625 5.609375 36.375 
Q 5.609375 54.25 15.25 64.234375 
Q 24.90625 74.21875 42 74.21875 
Q 49.125 74.21875 55.546875 72.453125 
Q 61.96875 70.703125 67.390625 67.28125 
L 67.390625 56.78125 
Q 61.921875 61.421875 55.765625 63.765625 
Q 49.609375 66.109375 42.828125 66.109375 
Q 29.4375 66.109375 22.71875 58.640625 
Q 16.015625 51.171875 16.015625 36.375 
Q 16.015625 21.625 22.71875 14.15625 
Q 29.4375 6.6875 42.828125 6.6875 
Q 48.046875 6.6875 52.140625 7.59375 
Q 56.25 8.5 59.515625 10.40625 
z
" id="DejaVuSans-47"/>
      <path d="M 9.8125 72.90625 
L 51.703125 72.90625 
L 51.703125 64.59375 
L 19.671875 64.59375 
L 19.671875 43.109375 
L 48.578125 43.109375 
L 48.578125 34.8125 
L 19.671875 34.8125 
L 19.671875 0 
L 9.8125 0 
z
" id="DejaVuSans-46"/>
      <path d="M 9.8125 72.90625 
L 19.671875 72.90625 
L 19.671875 0 
L 9.8125 0 
z
" id="DejaVuSans-49"/>
     </defs>
     <g transform="translate(27.654688 135.485)rotate(-90)scale(0.1 -0.1)">
      <use xlink:href="#DejaVuSans-47"/>
      <use x="77.490234" xlink:href="#DejaVuSans-46"/>
      <use x="135.009766" xlink:href="#DejaVuSans-49"/>
     </g>
    </g>
   </g>
   <g id="patch_208">
    <path d="M 63 224.28 
L 63 30.24 
" style="fill:none;stroke:#000000;stroke-linecap:square;stroke-linejoin:miter;stroke-width:0.8;"/>
   </g>
   <g id="patch_209">
    <path d="M 453.6 224.28 
L 453.6 30.24 
" style="fill:none;stroke:#000000;stroke-linecap:square;stroke-linejoin:miter;stroke-width:0.8;"/>
   </g>
   <g id="patch_210">
    <path d="M 63 224.28 
L 453.6 224.28 
" style="fill:none;stroke:#000000;stroke-linecap:square;stroke-linejoin:miter;stroke-width:0.8;"/>
   </g>
   <g id="patch_211">
    <path d="M 63 30.24 
L 453.6 30.24 
" style="fill:none;stroke:#000000;stroke-linecap:square;stroke-linejoin:miter;stroke-width:0.8;"/>
   </g>
  </g>
  <g id="text_17">
   <!-- GFI for the chunks of size 10 of document de118628474.txt -->
   <defs>
    <path d="M 44.28125 53.078125 
L 44.28125 44.578125 
Q 40.484375 46.53125 36.375 47.5 
Q 32.28125 48.484375 27.875 48.484375 
Q 21.1875 48.484375 17.84375 46.4375 
Q 14.5 44.390625 14.5 40.28125 
Q 14.5 37.15625 16.890625 35.375 
Q 19.28125 33.59375 26.515625 31.984375 
L 29.59375 31.296875 
Q 39.15625 29.25 43.1875 25.515625 
Q 47.21875 21.78125 47.21875 15.09375 
Q 47.21875 7.46875 41.1875 3.015625 
Q 35.15625 -1.421875 24.609375 -1.421875 
Q 20.21875 -1.421875 15.453125 -0.5625 
Q 10.6875 0.296875 5.421875 2 
L 5.421875 11.28125 
Q 10.40625 8.6875 15.234375 7.390625 
Q 20.0625 6.109375 24.8125 6.109375 
Q 31.15625 6.109375 34.5625 8.28125 
Q 37.984375 10.453125 37.984375 14.40625 
Q 37.984375 18.0625 35.515625 20.015625 
Q 33.0625 21.96875 24.703125 23.78125 
L 21.578125 24.515625 
Q 13.234375 26.265625 9.515625 29.90625 
Q 5.8125 33.546875 5.8125 39.890625 
Q 5.8125 47.609375 11.28125 51.796875 
Q 16.75 56 26.8125 56 
Q 31.78125 56 36.171875 55.265625 
Q 40.578125 54.546875 44.28125 53.078125 
z
" id="DejaVuSans-73"/>
    <path d="M 5.515625 54.6875 
L 48.1875 54.6875 
L 48.1875 46.484375 
L 14.40625 7.171875 
L 48.1875 7.171875 
L 48.1875 0 
L 4.296875 0 
L 4.296875 8.203125 
L 38.09375 47.515625 
L 5.515625 47.515625 
z
" id="DejaVuSans-7a"/>
    <path d="M 31.78125 34.625 
Q 24.75 34.625 20.71875 30.859375 
Q 16.703125 27.09375 16.703125 20.515625 
Q 16.703125 13.921875 20.71875 10.15625 
Q 24.75 6.390625 31.78125 6.390625 
Q 38.8125 6.390625 42.859375 10.171875 
Q 46.921875 13.96875 46.921875 20.515625 
Q 46.921875 27.09375 42.890625 30.859375 
Q 38.875 34.625 31.78125 34.625 
z
M 21.921875 38.8125 
Q 15.578125 40.375 12.03125 44.71875 
Q 8.5 49.078125 8.5 55.328125 
Q 8.5 64.0625 14.71875 69.140625 
Q 20.953125 74.21875 31.78125 74.21875 
Q 42.671875 74.21875 48.875 69.140625 
Q 55.078125 64.0625 55.078125 55.328125 
Q 55.078125 49.078125 51.53125 44.71875 
Q 48 40.375 41.703125 38.8125 
Q 48.828125 37.15625 52.796875 32.3125 
Q 56.78125 27.484375 56.78125 20.515625 
Q 56.78125 9.90625 50.3125 4.234375 
Q 43.84375 -1.421875 31.78125 -1.421875 
Q 19.734375 -1.421875 13.25 4.234375 
Q 6.78125 9.90625 6.78125 20.515625 
Q 6.78125 27.484375 10.78125 32.3125 
Q 14.796875 37.15625 21.921875 38.8125 
z
M 18.3125 54.390625 
Q 18.3125 48.734375 21.84375 45.5625 
Q 25.390625 42.390625 31.78125 42.390625 
Q 38.140625 42.390625 41.71875 45.5625 
Q 45.3125 48.734375 45.3125 54.390625 
Q 45.3125 60.0625 41.71875 63.234375 
Q 38.140625 66.40625 31.78125 66.40625 
Q 25.390625 66.40625 21.84375 63.234375 
Q 18.3125 60.0625 18.3125 54.390625 
z
" id="DejaVuSans-38"/>
    <path d="M 33.015625 40.375 
Q 26.375 40.375 22.484375 35.828125 
Q 18.609375 31.296875 18.609375 23.390625 
Q 18.609375 15.53125 22.484375 10.953125 
Q 26.375 6.390625 33.015625 6.390625 
Q 39.65625 6.390625 43.53125 10.953125 
Q 47.40625 15.53125 47.40625 23.390625 
Q 47.40625 31.296875 43.53125 35.828125 
Q 39.65625 40.375 33.015625 40.375 
z
M 52.59375 71.296875 
L 52.59375 62.3125 
Q 48.875 64.0625 45.09375 64.984375 
Q 41.3125 65.921875 37.59375 65.921875 
Q 27.828125 65.921875 22.671875 59.328125 
Q 17.53125 52.734375 16.796875 39.40625 
Q 19.671875 43.65625 24.015625 45.921875 
Q 28.375 48.1875 33.59375 48.1875 
Q 44.578125 48.1875 50.953125 41.515625 
Q 57.328125 34.859375 57.328125 23.390625 
Q 57.328125 12.15625 50.6875 5.359375 
Q 44.046875 -1.421875 33.015625 -1.421875 
Q 20.359375 -1.421875 13.671875 8.265625 
Q 6.984375 17.96875 6.984375 36.375 
Q 6.984375 53.65625 15.1875 63.9375 
Q 23.390625 74.21875 37.203125 74.21875 
Q 40.921875 74.21875 44.703125 73.484375 
Q 48.484375 72.75 52.59375 71.296875 
z
" id="DejaVuSans-36"/>
    <path d="M 37.796875 64.3125 
L 12.890625 25.390625 
L 37.796875 25.390625 
z
M 35.203125 72.90625 
L 47.609375 72.90625 
L 47.609375 25.390625 
L 58.015625 25.390625 
L 58.015625 17.1875 
L 47.609375 17.1875 
L 47.609375 0 
L 37.796875 0 
L 37.796875 17.1875 
L 4.890625 17.1875 
L 4.890625 26.703125 
z
" id="DejaVuSans-34"/>
    <path d="M 54.890625 54.6875 
L 35.109375 28.078125 
L 55.90625 0 
L 45.3125 0 
L 29.390625 21.484375 
L 13.484375 0 
L 2.875 0 
L 24.125 28.609375 
L 4.6875 54.6875 
L 15.28125 54.6875 
L 29.78125 35.203125 
L 44.28125 54.6875 
z
" id="DejaVuSans-78"/>
   </defs>
   <g transform="translate(42.508594 15.677812)scale(0.14 -0.14)">
    <use xlink:href="#DejaVuSans-47"/>
    <use x="77.490234" xlink:href="#DejaVuSans-46"/>
    <use x="135.009766" xlink:href="#DejaVuSans-49"/>
    <use x="164.501953" xlink:href="#DejaVuSans-20"/>
    <use x="196.289062" xlink:href="#DejaVuSans-66"/>
    <use x="231.494141" xlink:href="#DejaVuSans-6f"/>
    <use x="292.675781" xlink:href="#DejaVuSans-72"/>
    <use x="333.789062" xlink:href="#DejaVuSans-20"/>
    <use x="365.576172" xlink:href="#DejaVuSans-74"/>
    <use x="404.785156" xlink:href="#DejaVuSans-68"/>
    <use x="468.164062" xlink:href="#DejaVuSans-65"/>
    <use x="529.6875" xlink:href="#DejaVuSans-20"/>
    <use x="561.474609" xlink:href="#DejaVuSans-63"/>
    <use x="616.455078" xlink:href="#DejaVuSans-68"/>
    <use x="679.833984" xlink:href="#DejaVuSans-75"/>
    <use x="743.212891" xlink:href="#DejaVuSans-6e"/>
    <use x="806.591797" xlink:href="#DejaVuSans-6b"/>
    <use x="864.501953" xlink:href="#DejaVuSans-73"/>
    <use x="916.601562" xlink:href="#DejaVuSans-20"/>
    <use x="948.388672" xlink:href="#DejaVuSans-6f"/>
    <use x="1009.570312" xlink:href="#DejaVuSans-66"/>
    <use x="1044.775391" xlink:href="#DejaVuSans-20"/>
    <use x="1076.5625" xlink:href="#DejaVuSans-73"/>
    <use x="1128.662109" xlink:href="#DejaVuSans-69"/>
    <use x="1156.445312" xlink:href="#DejaVuSans-7a"/>
    <use x="1208.935547" xlink:href="#DejaVuSans-65"/>
    <use x="1270.458984" xlink:href="#DejaVuSans-20"/>
    <use x="1302.246094" xlink:href="#DejaVuSans-31"/>
    <use x="1365.869141" xlink:href="#DejaVuSans-30"/>
    <use x="1429.492188" xlink:href="#DejaVuSans-20"/>
    <use x="1461.279297" xlink:href="#DejaVuSans-6f"/>
    <use x="1522.460938" xlink:href="#DejaVuSans-66"/>
    <use x="1557.666016" xlink:href="#DejaVuSans-20"/>
    <use x="1589.453125" xlink:href="#DejaVuSans-64"/>
    <use x="1652.929688" xlink:href="#DejaVuSans-6f"/>
    <use x="1714.111328" xlink:href="#DejaVuSans-63"/>
    <use x="1769.091797" xlink:href="#DejaVuSans-75"/>
    <use x="1832.470703" xlink:href="#DejaVuSans-6d"/>
    <use x="1929.882812" xlink:href="#DejaVuSans-65"/>
    <use x="1991.40625" xlink:href="#DejaVuSans-6e"/>
    <use x="2054.785156" xlink:href="#DejaVuSans-74"/>
    <use x="2093.994141" xlink:href="#DejaVuSans-20"/>
    <use x="2125.78125" xlink:href="#DejaVuSans-64"/>
    <use x="2189.257812" xlink:href="#DejaVuSans-65"/>
    <use x="2250.78125" xlink:href="#DejaVuSans-31"/>
    <use x="2314.404297" xlink:href="#DejaVuSans-31"/>
    <use x="2378.027344" xlink:href="#DejaVuSans-38"/>
    <use x="2441.650391" xlink:href="#DejaVuSans-36"/>
    <use x="2505.273438" xlink:href="#DejaVuSans-32"/>
    <use x="2568.896484" xlink:href="#DejaVuSans-38"/>
    <use x="2632.519531" xlink:href="#DejaVuSans-34"/>
    <use x="2696.142578" xlink:href="#DejaVuSans-37"/>
    <use x="2759.765625" xlink:href="#DejaVuSans-34"/>
    <use x="2823.388672" xlink:href="#DejaVuSans-2e"/>
    <use x="2855.175781" xlink:href="#DejaVuSans-74"/>
    <use x="2894.384766" xlink:href="#DejaVuSans-78"/>
    <use x="2953.564453" xlink:href="#DejaVuSans-74"/>
   </g>
  </g>
 </g>
 <defs>
  <clipPath id="pce05168d7a">
   <rect height="194.04" width="390.6" x="63" y="30.24"/>
  </clipPath>
 </defs>
</svg>
