<?xml version="1.0" encoding="utf-8" standalone="no"?>
<!DOCTYPE svg PUBLIC "-//W3C//DTD SVG 1.1//EN"
  "http://www.w3.org/Graphics/SVG/1.1/DTD/svg11.dtd">
<!-- Created with matplotlib (https://matplotlib.org/) -->
<svg height="242.29625pt" version="1.1" viewBox="0 0 451.44375 242.29625" width="451.44375pt" xmlns="http://www.w3.org/2000/svg" xmlns:xlink="http://www.w3.org/1999/xlink">
 <defs>
  <style type="text/css">
*{stroke-linecap:butt;stroke-linejoin:round;}
  </style>
 </defs>
 <g id="figure_1">
  <g id="patch_1">
   <path d="M 0 242.29625 
L 451.44375 242.29625 
L 451.44375 0 
L 0 0 
z
" style="fill:#ffffff;"/>
  </g>
  <g id="axes_1">
   <g id="patch_2">
    <path d="M 50.14375 204.74 
L 440.74375 204.74 
L 440.74375 10.7 
L 50.14375 10.7 
z
" style="fill:#ffffff;"/>
   </g>
   <g id="patch_3">
    <path clip-path="url(#p907293d9ff)" d="M 67.898295 204.74 
L 69.327233 204.74 
L 69.327233 59.945222 
L 67.898295 59.945222 
z
" style="fill:#1f77b4;"/>
   </g>
   <g id="patch_4">
    <path clip-path="url(#p907293d9ff)" d="M 69.684467 204.74 
L 71.113404 204.74 
L 71.113404 40.992719 
L 69.684467 40.992719 
z
" style="fill:#1f77b4;"/>
   </g>
   <g id="patch_5">
    <path clip-path="url(#p907293d9ff)" d="M 71.470639 204.74 
L 72.899576 204.74 
L 72.899576 51.668965 
L 71.470639 51.668965 
z
" style="fill:#1f77b4;"/>
   </g>
   <g id="patch_6">
    <path clip-path="url(#p907293d9ff)" d="M 73.25681 204.74 
L 74.685747 204.74 
L 74.685747 100.000105 
L 73.25681 100.000105 
z
" style="fill:#1f77b4;"/>
   </g>
   <g id="patch_7">
    <path clip-path="url(#p907293d9ff)" d="M 75.042982 204.74 
L 76.471919 204.74 
L 76.471919 83.452105 
L 75.042982 83.452105 
z
" style="fill:#1f77b4;"/>
   </g>
   <g id="patch_8">
    <path clip-path="url(#p907293d9ff)" d="M 76.829153 204.74 
L 78.258091 204.74 
L 78.258091 104.40821 
L 76.829153 104.40821 
z
" style="fill:#1f77b4;"/>
   </g>
   <g id="patch_9">
    <path clip-path="url(#p907293d9ff)" d="M 78.615325 204.74 
L 80.044262 204.74 
L 80.044262 87.559534 
L 78.615325 87.559534 
z
" style="fill:#1f77b4;"/>
   </g>
   <g id="patch_10">
    <path clip-path="url(#p907293d9ff)" d="M 80.401496 204.74 
L 81.830434 204.74 
L 81.830434 69.12441 
L 80.401496 69.12441 
z
" style="fill:#1f77b4;"/>
   </g>
   <g id="patch_11">
    <path clip-path="url(#p907293d9ff)" d="M 82.187668 204.74 
L 83.616605 204.74 
L 83.616605 110.557164 
L 82.187668 110.557164 
z
" style="fill:#1f77b4;"/>
   </g>
   <g id="patch_12">
    <path clip-path="url(#p907293d9ff)" d="M 83.97384 204.74 
L 85.402777 204.74 
L 85.402777 110.295315 
L 83.97384 110.295315 
z
" style="fill:#1f77b4;"/>
   </g>
   <g id="patch_13">
    <path clip-path="url(#p907293d9ff)" d="M 85.760011 204.74 
L 87.188948 204.74 
L 87.188948 102.584291 
L 85.760011 102.584291 
z
" style="fill:#1f77b4;"/>
   </g>
   <g id="patch_14">
    <path clip-path="url(#p907293d9ff)" d="M 87.546183 204.74 
L 88.97512 204.74 
L 88.97512 119.230711 
L 87.546183 119.230711 
z
" style="fill:#1f77b4;"/>
   </g>
   <g id="patch_15">
    <path clip-path="url(#p907293d9ff)" d="M 89.332354 204.74 
L 90.761292 204.74 
L 90.761292 109.717439 
L 89.332354 109.717439 
z
" style="fill:#1f77b4;"/>
   </g>
   <g id="patch_16">
    <path clip-path="url(#p907293d9ff)" d="M 91.118526 204.74 
L 92.547463 204.74 
L 92.547463 96.807345 
L 91.118526 96.807345 
z
" style="fill:#1f77b4;"/>
   </g>
   <g id="patch_17">
    <path clip-path="url(#p907293d9ff)" d="M 92.904698 204.74 
L 94.333635 204.74 
L 94.333635 83.569486 
L 92.904698 83.569486 
z
" style="fill:#1f77b4;"/>
   </g>
   <g id="patch_18">
    <path clip-path="url(#p907293d9ff)" d="M 94.690869 204.74 
L 96.119806 204.74 
L 96.119806 96.319762 
L 94.690869 96.319762 
z
" style="fill:#1f77b4;"/>
   </g>
   <g id="patch_19">
    <path clip-path="url(#p907293d9ff)" d="M 96.477041 204.74 
L 97.905978 204.74 
L 97.905978 97.252489 
L 96.477041 97.252489 
z
" style="fill:#1f77b4;"/>
   </g>
   <g id="patch_20">
    <path clip-path="url(#p907293d9ff)" d="M 98.263212 204.74 
L 99.692149 204.74 
L 99.692149 86.559088 
L 98.263212 86.559088 
z
" style="fill:#1f77b4;"/>
   </g>
   <g id="patch_21">
    <path clip-path="url(#p907293d9ff)" d="M 100.049384 204.74 
L 101.478321 204.74 
L 101.478321 85.84487 
L 100.049384 85.84487 
z
" style="fill:#1f77b4;"/>
   </g>
   <g id="patch_22">
    <path clip-path="url(#p907293d9ff)" d="M 101.835555 204.74 
L 103.264493 204.74 
L 103.264493 65.969572 
L 101.835555 65.969572 
z
" style="fill:#1f77b4;"/>
   </g>
   <g id="patch_23">
    <path clip-path="url(#p907293d9ff)" d="M 103.621727 204.74 
L 105.050664 204.74 
L 105.050664 107.584718 
L 103.621727 107.584718 
z
" style="fill:#1f77b4;"/>
   </g>
   <g id="patch_24">
    <path clip-path="url(#p907293d9ff)" d="M 105.407899 204.74 
L 106.836836 204.74 
L 106.836836 104.695342 
L 105.407899 104.695342 
z
" style="fill:#1f77b4;"/>
   </g>
   <g id="patch_25">
    <path clip-path="url(#p907293d9ff)" d="M 107.19407 204.74 
L 108.623007 204.74 
L 108.623007 88.39655 
L 107.19407 88.39655 
z
" style="fill:#1f77b4;"/>
   </g>
   <g id="patch_26">
    <path clip-path="url(#p907293d9ff)" d="M 108.980242 204.74 
L 110.409179 204.74 
L 110.409179 101.58836 
L 108.980242 101.58836 
z
" style="fill:#1f77b4;"/>
   </g>
   <g id="patch_27">
    <path clip-path="url(#p907293d9ff)" d="M 110.766413 204.74 
L 112.195351 204.74 
L 112.195351 80.395687 
L 110.766413 80.395687 
z
" style="fill:#1f77b4;"/>
   </g>
   <g id="patch_28">
    <path clip-path="url(#p907293d9ff)" d="M 112.552585 204.74 
L 113.981522 204.74 
L 113.981522 103.533271 
L 112.552585 103.533271 
z
" style="fill:#1f77b4;"/>
   </g>
   <g id="patch_29">
    <path clip-path="url(#p907293d9ff)" d="M 114.338756 204.74 
L 115.767694 204.74 
L 115.767694 105.006853 
L 114.338756 105.006853 
z
" style="fill:#1f77b4;"/>
   </g>
   <g id="patch_30">
    <path clip-path="url(#p907293d9ff)" d="M 116.124928 204.74 
L 117.553865 204.74 
L 117.553865 95.184779 
L 116.124928 95.184779 
z
" style="fill:#1f77b4;"/>
   </g>
   <g id="patch_31">
    <path clip-path="url(#p907293d9ff)" d="M 117.9111 204.74 
L 119.340037 204.74 
L 119.340037 89.35185 
L 117.9111 89.35185 
z
" style="fill:#1f77b4;"/>
   </g>
   <g id="patch_32">
    <path clip-path="url(#p907293d9ff)" d="M 119.697271 204.74 
L 121.126208 204.74 
L 121.126208 90.24846 
L 119.697271 90.24846 
z
" style="fill:#1f77b4;"/>
   </g>
   <g id="patch_33">
    <path clip-path="url(#p907293d9ff)" d="M 121.483443 204.74 
L 122.91238 204.74 
L 122.91238 110.088544 
L 121.483443 110.088544 
z
" style="fill:#1f77b4;"/>
   </g>
   <g id="patch_34">
    <path clip-path="url(#p907293d9ff)" d="M 123.269614 204.74 
L 124.698552 204.74 
L 124.698552 92.589758 
L 123.269614 92.589758 
z
" style="fill:#1f77b4;"/>
   </g>
   <g id="patch_35">
    <path clip-path="url(#p907293d9ff)" d="M 125.055786 204.74 
L 126.484723 204.74 
L 126.484723 107.720158 
L 125.055786 107.720158 
z
" style="fill:#1f77b4;"/>
   </g>
   <g id="patch_36">
    <path clip-path="url(#p907293d9ff)" d="M 126.841957 204.74 
L 128.270895 204.74 
L 128.270895 105.006853 
L 126.841957 105.006853 
z
" style="fill:#1f77b4;"/>
   </g>
   <g id="patch_37">
    <path clip-path="url(#p907293d9ff)" d="M 128.628129 204.74 
L 130.057066 204.74 
L 130.057066 84.362259 
L 128.628129 84.362259 
z
" style="fill:#1f77b4;"/>
   </g>
   <g id="patch_38">
    <path clip-path="url(#p907293d9ff)" d="M 130.414301 204.74 
L 131.843238 204.74 
L 131.843238 90.698119 
L 130.414301 90.698119 
z
" style="fill:#1f77b4;"/>
   </g>
   <g id="patch_39">
    <path clip-path="url(#p907293d9ff)" d="M 132.200472 204.74 
L 133.629409 204.74 
L 133.629409 73.397978 
L 132.200472 73.397978 
z
" style="fill:#1f77b4;"/>
   </g>
   <g id="patch_40">
    <path clip-path="url(#p907293d9ff)" d="M 133.986644 204.74 
L 135.415581 204.74 
L 135.415581 70.933882 
L 133.986644 70.933882 
z
" style="fill:#1f77b4;"/>
   </g>
   <g id="patch_41">
    <path clip-path="url(#p907293d9ff)" d="M 135.772815 204.74 
L 137.201753 204.74 
L 137.201753 54.939378 
L 135.772815 54.939378 
z
" style="fill:#1f77b4;"/>
   </g>
   <g id="patch_42">
    <path clip-path="url(#p907293d9ff)" d="M 137.558987 204.74 
L 138.987924 204.74 
L 138.987924 64.519466 
L 137.558987 64.519466 
z
" style="fill:#1f77b4;"/>
   </g>
   <g id="patch_43">
    <path clip-path="url(#p907293d9ff)" d="M 139.345158 204.74 
L 140.774096 204.74 
L 140.774096 60.15109 
L 139.345158 60.15109 
z
" style="fill:#1f77b4;"/>
   </g>
   <g id="patch_44">
    <path clip-path="url(#p907293d9ff)" d="M 141.13133 204.74 
L 142.560267 204.74 
L 142.560267 78.206081 
L 141.13133 78.206081 
z
" style="fill:#1f77b4;"/>
   </g>
   <g id="patch_45">
    <path clip-path="url(#p907293d9ff)" d="M 142.917502 204.74 
L 144.346439 204.74 
L 144.346439 88.142827 
L 142.917502 88.142827 
z
" style="fill:#1f77b4;"/>
   </g>
   <g id="patch_46">
    <path clip-path="url(#p907293d9ff)" d="M 144.703673 204.74 
L 146.13261 204.74 
L 146.13261 110.501183 
L 144.703673 110.501183 
z
" style="fill:#1f77b4;"/>
   </g>
   <g id="patch_47">
    <path clip-path="url(#p907293d9ff)" d="M 146.489845 204.74 
L 147.918782 204.74 
L 147.918782 90.52566 
L 146.489845 90.52566 
z
" style="fill:#1f77b4;"/>
   </g>
   <g id="patch_48">
    <path clip-path="url(#p907293d9ff)" d="M 148.276016 204.74 
L 149.704954 204.74 
L 149.704954 120.388268 
L 148.276016 120.388268 
z
" style="fill:#1f77b4;"/>
   </g>
   <g id="patch_49">
    <path clip-path="url(#p907293d9ff)" d="M 150.062188 204.74 
L 151.491125 204.74 
L 151.491125 97.045718 
L 150.062188 97.045718 
z
" style="fill:#1f77b4;"/>
   </g>
   <g id="patch_50">
    <path clip-path="url(#p907293d9ff)" d="M 151.848359 204.74 
L 153.277297 204.74 
L 153.277297 76.770422 
L 151.848359 76.770422 
z
" style="fill:#1f77b4;"/>
   </g>
   <g id="patch_51">
    <path clip-path="url(#p907293d9ff)" d="M 153.634531 204.74 
L 155.063468 204.74 
L 155.063468 113.860083 
L 153.634531 113.860083 
z
" style="fill:#1f77b4;"/>
   </g>
   <g id="patch_52">
    <path clip-path="url(#p907293d9ff)" d="M 155.420703 204.74 
L 156.84964 204.74 
L 156.84964 93.974853 
L 155.420703 93.974853 
z
" style="fill:#1f77b4;"/>
   </g>
   <g id="patch_53">
    <path clip-path="url(#p907293d9ff)" d="M 157.206874 204.74 
L 158.635811 204.74 
L 158.635811 72.839967 
L 157.206874 72.839967 
z
" style="fill:#1f77b4;"/>
   </g>
   <g id="patch_54">
    <path clip-path="url(#p907293d9ff)" d="M 158.993046 204.74 
L 160.421983 204.74 
L 160.421983 93.974853 
L 158.993046 93.974853 
z
" style="fill:#1f77b4;"/>
   </g>
   <g id="patch_55">
    <path clip-path="url(#p907293d9ff)" d="M 160.779217 204.74 
L 162.208155 204.74 
L 162.208155 102.365782 
L 160.779217 102.365782 
z
" style="fill:#1f77b4;"/>
   </g>
   <g id="patch_56">
    <path clip-path="url(#p907293d9ff)" d="M 162.565389 204.74 
L 163.994326 204.74 
L 163.994326 115.984677 
L 162.565389 115.984677 
z
" style="fill:#1f77b4;"/>
   </g>
   <g id="patch_57">
    <path clip-path="url(#p907293d9ff)" d="M 164.35156 204.74 
L 165.780498 204.74 
L 165.780498 87.837637 
L 164.35156 87.837637 
z
" style="fill:#1f77b4;"/>
   </g>
   <g id="patch_58">
    <path clip-path="url(#p907293d9ff)" d="M 166.137732 204.74 
L 167.566669 204.74 
L 167.566669 127.810353 
L 166.137732 127.810353 
z
" style="fill:#1f77b4;"/>
   </g>
   <g id="patch_59">
    <path clip-path="url(#p907293d9ff)" d="M 167.923904 204.74 
L 169.352841 204.74 
L 169.352841 87.519805 
L 167.923904 87.519805 
z
" style="fill:#1f77b4;"/>
   </g>
   <g id="patch_60">
    <path clip-path="url(#p907293d9ff)" d="M 169.710075 204.74 
L 171.139012 204.74 
L 171.139012 103.870064 
L 169.710075 103.870064 
z
" style="fill:#1f77b4;"/>
   </g>
   <g id="patch_61">
    <path clip-path="url(#p907293d9ff)" d="M 171.496247 204.74 
L 172.925184 204.74 
L 172.925184 81.719382 
L 171.496247 81.719382 
z
" style="fill:#1f77b4;"/>
   </g>
   <g id="patch_62">
    <path clip-path="url(#p907293d9ff)" d="M 173.282418 204.74 
L 174.711356 204.74 
L 174.711356 105.957638 
L 173.282418 105.957638 
z
" style="fill:#1f77b4;"/>
   </g>
   <g id="patch_63">
    <path clip-path="url(#p907293d9ff)" d="M 175.06859 204.74 
L 176.497527 204.74 
L 176.497527 95.415929 
L 175.06859 95.415929 
z
" style="fill:#1f77b4;"/>
   </g>
   <g id="patch_64">
    <path clip-path="url(#p907293d9ff)" d="M 176.854762 204.74 
L 178.283699 204.74 
L 178.283699 98.624943 
L 176.854762 98.624943 
z
" style="fill:#1f77b4;"/>
   </g>
   <g id="patch_65">
    <path clip-path="url(#p907293d9ff)" d="M 178.640933 204.74 
L 180.06987 204.74 
L 180.06987 99.259703 
L 178.640933 99.259703 
z
" style="fill:#1f77b4;"/>
   </g>
   <g id="patch_66">
    <path clip-path="url(#p907293d9ff)" d="M 180.427105 204.74 
L 181.856042 204.74 
L 181.856042 105.622651 
L 180.427105 105.622651 
z
" style="fill:#1f77b4;"/>
   </g>
   <g id="patch_67">
    <path clip-path="url(#p907293d9ff)" d="M 182.213276 204.74 
L 183.642214 204.74 
L 183.642214 68.841793 
L 182.213276 68.841793 
z
" style="fill:#1f77b4;"/>
   </g>
   <g id="patch_68">
    <path clip-path="url(#p907293d9ff)" d="M 183.999448 204.74 
L 185.428385 204.74 
L 185.428385 90.326112 
L 183.999448 90.326112 
z
" style="fill:#1f77b4;"/>
   </g>
   <g id="patch_69">
    <path clip-path="url(#p907293d9ff)" d="M 185.785619 204.74 
L 187.214557 204.74 
L 187.214557 86.771276 
L 185.785619 86.771276 
z
" style="fill:#1f77b4;"/>
   </g>
   <g id="patch_70">
    <path clip-path="url(#p907293d9ff)" d="M 187.571791 204.74 
L 189.000728 204.74 
L 189.000728 90.659293 
L 187.571791 90.659293 
z
" style="fill:#1f77b4;"/>
   </g>
   <g id="patch_71">
    <path clip-path="url(#p907293d9ff)" d="M 189.357963 204.74 
L 190.7869 204.74 
L 190.7869 69.245402 
L 189.357963 69.245402 
z
" style="fill:#1f77b4;"/>
   </g>
   <g id="patch_72">
    <path clip-path="url(#p907293d9ff)" d="M 191.144134 204.74 
L 192.573071 204.74 
L 192.573071 58.760578 
L 191.144134 58.760578 
z
" style="fill:#1f77b4;"/>
   </g>
   <g id="patch_73">
    <path clip-path="url(#p907293d9ff)" d="M 192.930306 204.74 
L 194.359243 204.74 
L 194.359243 85.84487 
L 192.930306 85.84487 
z
" style="fill:#1f77b4;"/>
   </g>
   <g id="patch_74">
    <path clip-path="url(#p907293d9ff)" d="M 194.716477 204.74 
L 196.145415 204.74 
L 196.145415 65.138876 
L 194.716477 65.138876 
z
" style="fill:#1f77b4;"/>
   </g>
   <g id="patch_75">
    <path clip-path="url(#p907293d9ff)" d="M 196.502649 204.74 
L 197.931586 204.74 
L 197.931586 78.669284 
L 196.502649 78.669284 
z
" style="fill:#1f77b4;"/>
   </g>
   <g id="patch_76">
    <path clip-path="url(#p907293d9ff)" d="M 198.28882 204.74 
L 199.717758 204.74 
L 199.717758 114.071369 
L 198.28882 114.071369 
z
" style="fill:#1f77b4;"/>
   </g>
   <g id="patch_77">
    <path clip-path="url(#p907293d9ff)" d="M 200.074992 204.74 
L 201.503929 204.74 
L 201.503929 125.460929 
L 200.074992 125.460929 
z
" style="fill:#1f77b4;"/>
   </g>
   <g id="patch_78">
    <path clip-path="url(#p907293d9ff)" d="M 201.861164 204.74 
L 203.290101 204.74 
L 203.290101 117.376093 
L 201.861164 117.376093 
z
" style="fill:#1f77b4;"/>
   </g>
   <g id="patch_79">
    <path clip-path="url(#p907293d9ff)" d="M 203.647335 204.74 
L 205.076272 204.74 
L 205.076272 83.867453 
L 203.647335 83.867453 
z
" style="fill:#1f77b4;"/>
   </g>
   <g id="patch_80">
    <path clip-path="url(#p907293d9ff)" d="M 205.433507 204.74 
L 206.862444 204.74 
L 206.862444 67.633672 
L 205.433507 67.633672 
z
" style="fill:#1f77b4;"/>
   </g>
   <g id="patch_81">
    <path clip-path="url(#p907293d9ff)" d="M 207.219678 204.74 
L 208.648616 204.74 
L 208.648616 96.600574 
L 207.219678 96.600574 
z
" style="fill:#1f77b4;"/>
   </g>
   <g id="patch_82">
    <path clip-path="url(#p907293d9ff)" d="M 209.00585 204.74 
L 210.434787 204.74 
L 210.434787 88.268334 
L 209.00585 88.268334 
z
" style="fill:#1f77b4;"/>
   </g>
   <g id="patch_83">
    <path clip-path="url(#p907293d9ff)" d="M 210.792021 204.74 
L 212.220959 204.74 
L 212.220959 83.711246 
L 210.792021 83.711246 
z
" style="fill:#1f77b4;"/>
   </g>
   <g id="patch_84">
    <path clip-path="url(#p907293d9ff)" d="M 212.578193 204.74 
L 214.00713 204.74 
L 214.00713 98.306209 
L 212.578193 98.306209 
z
" style="fill:#1f77b4;"/>
   </g>
   <g id="patch_85">
    <path clip-path="url(#p907293d9ff)" d="M 214.364365 204.74 
L 215.793302 204.74 
L 215.793302 70.022825 
L 214.364365 70.022825 
z
" style="fill:#1f77b4;"/>
   </g>
   <g id="patch_86">
    <path clip-path="url(#p907293d9ff)" d="M 216.150536 204.74 
L 217.579473 204.74 
L 217.579473 76.167265 
L 216.150536 76.167265 
z
" style="fill:#1f77b4;"/>
   </g>
   <g id="patch_87">
    <path clip-path="url(#p907293d9ff)" d="M 217.936708 204.74 
L 219.365645 204.74 
L 219.365645 101.066466 
L 217.936708 101.066466 
z
" style="fill:#1f77b4;"/>
   </g>
   <g id="patch_88">
    <path clip-path="url(#p907293d9ff)" d="M 219.722879 204.74 
L 221.151817 204.74 
L 221.151817 111.637972 
L 219.722879 111.637972 
z
" style="fill:#1f77b4;"/>
   </g>
   <g id="patch_89">
    <path clip-path="url(#p907293d9ff)" d="M 221.509051 204.74 
L 222.937988 204.74 
L 222.937988 77.117147 
L 221.509051 77.117147 
z
" style="fill:#1f77b4;"/>
   </g>
   <g id="patch_90">
    <path clip-path="url(#p907293d9ff)" d="M 223.295222 204.74 
L 224.72416 204.74 
L 224.72416 68.150148 
L 223.295222 68.150148 
z
" style="fill:#1f77b4;"/>
   </g>
   <g id="patch_91">
    <path clip-path="url(#p907293d9ff)" d="M 225.081394 204.74 
L 226.510331 204.74 
L 226.510331 111.595534 
L 225.081394 111.595534 
z
" style="fill:#1f77b4;"/>
   </g>
   <g id="patch_92">
    <path clip-path="url(#p907293d9ff)" d="M 226.867566 204.74 
L 228.296503 204.74 
L 228.296503 102.475037 
L 226.867566 102.475037 
z
" style="fill:#1f77b4;"/>
   </g>
   <g id="patch_93">
    <path clip-path="url(#p907293d9ff)" d="M 228.653737 204.74 
L 230.082674 204.74 
L 230.082674 85.117108 
L 228.653737 85.117108 
z
" style="fill:#1f77b4;"/>
   </g>
   <g id="patch_94">
    <path clip-path="url(#p907293d9ff)" d="M 230.439909 204.74 
L 231.868846 204.74 
L 231.868846 104.679089 
L 230.439909 104.679089 
z
" style="fill:#1f77b4;"/>
   </g>
   <g id="patch_95">
    <path clip-path="url(#p907293d9ff)" d="M 232.22608 204.74 
L 233.655018 204.74 
L 233.655018 104.242974 
L 232.22608 104.242974 
z
" style="fill:#1f77b4;"/>
   </g>
   <g id="patch_96">
    <path clip-path="url(#p907293d9ff)" d="M 234.012252 204.74 
L 235.441189 204.74 
L 235.441189 85.685954 
L 234.012252 85.685954 
z
" style="fill:#1f77b4;"/>
   </g>
   <g id="patch_97">
    <path clip-path="url(#p907293d9ff)" d="M 235.798423 204.74 
L 237.227361 204.74 
L 237.227361 114.199585 
L 235.798423 114.199585 
z
" style="fill:#1f77b4;"/>
   </g>
   <g id="patch_98">
    <path clip-path="url(#p907293d9ff)" d="M 237.584595 204.74 
L 239.013532 204.74 
L 239.013532 127.366112 
L 237.584595 127.366112 
z
" style="fill:#1f77b4;"/>
   </g>
   <g id="patch_99">
    <path clip-path="url(#p907293d9ff)" d="M 239.370767 204.74 
L 240.799704 204.74 
L 240.799704 60.226936 
L 239.370767 60.226936 
z
" style="fill:#1f77b4;"/>
   </g>
   <g id="patch_100">
    <path clip-path="url(#p907293d9ff)" d="M 241.156938 204.74 
L 242.585875 204.74 
L 242.585875 65.772733 
L 241.156938 65.772733 
z
" style="fill:#1f77b4;"/>
   </g>
   <g id="patch_101">
    <path clip-path="url(#p907293d9ff)" d="M 242.94311 204.74 
L 244.372047 204.74 
L 244.372047 93.137836 
L 242.94311 93.137836 
z
" style="fill:#1f77b4;"/>
   </g>
   <g id="patch_102">
    <path clip-path="url(#p907293d9ff)" d="M 244.729281 204.74 
L 246.158219 204.74 
L 246.158219 79.346482 
L 244.729281 79.346482 
z
" style="fill:#1f77b4;"/>
   </g>
   <g id="patch_103">
    <path clip-path="url(#p907293d9ff)" d="M 246.515453 204.74 
L 247.94439 204.74 
L 247.94439 51.491087 
L 246.515453 51.491087 
z
" style="fill:#1f77b4;"/>
   </g>
   <g id="patch_104">
    <path clip-path="url(#p907293d9ff)" d="M 248.301625 204.74 
L 249.730562 204.74 
L 249.730562 49.810734 
L 248.301625 49.810734 
z
" style="fill:#1f77b4;"/>
   </g>
   <g id="patch_105">
    <path clip-path="url(#p907293d9ff)" d="M 250.087796 204.74 
L 251.516733 204.74 
L 251.516733 72.847191 
L 250.087796 72.847191 
z
" style="fill:#1f77b4;"/>
   </g>
   <g id="patch_106">
    <path clip-path="url(#p907293d9ff)" d="M 251.873968 204.74 
L 253.302905 204.74 
L 253.302905 93.902618 
L 251.873968 93.902618 
z
" style="fill:#1f77b4;"/>
   </g>
   <g id="patch_107">
    <path clip-path="url(#p907293d9ff)" d="M 253.660139 204.74 
L 255.089077 204.74 
L 255.089077 69.594836 
L 253.660139 69.594836 
z
" style="fill:#1f77b4;"/>
   </g>
   <g id="patch_108">
    <path clip-path="url(#p907293d9ff)" d="M 255.446311 204.74 
L 256.875248 204.74 
L 256.875248 74.143798 
L 255.446311 74.143798 
z
" style="fill:#1f77b4;"/>
   </g>
   <g id="patch_109">
    <path clip-path="url(#p907293d9ff)" d="M 257.232482 204.74 
L 258.66142 204.74 
L 258.66142 99.31749 
L 257.232482 99.31749 
z
" style="fill:#1f77b4;"/>
   </g>
   <g id="patch_110">
    <path clip-path="url(#p907293d9ff)" d="M 259.018654 204.74 
L 260.447591 204.74 
L 260.447591 70.022825 
L 259.018654 70.022825 
z
" style="fill:#1f77b4;"/>
   </g>
   <g id="patch_111">
    <path clip-path="url(#p907293d9ff)" d="M 260.804826 204.74 
L 262.233763 204.74 
L 262.233763 84.61237 
L 260.804826 84.61237 
z
" style="fill:#1f77b4;"/>
   </g>
   <g id="patch_112">
    <path clip-path="url(#p907293d9ff)" d="M 262.590997 204.74 
L 264.019934 204.74 
L 264.019934 73.084661 
L 262.590997 73.084661 
z
" style="fill:#1f77b4;"/>
   </g>
   <g id="patch_113">
    <path clip-path="url(#p907293d9ff)" d="M 264.377169 204.74 
L 265.806106 204.74 
L 265.806106 92.779373 
L 264.377169 92.779373 
z
" style="fill:#1f77b4;"/>
   </g>
   <g id="patch_114">
    <path clip-path="url(#p907293d9ff)" d="M 266.16334 204.74 
L 267.592278 204.74 
L 267.592278 106.539125 
L 266.16334 106.539125 
z
" style="fill:#1f77b4;"/>
   </g>
   <g id="patch_115">
    <path clip-path="url(#p907293d9ff)" d="M 267.949512 204.74 
L 269.378449 204.74 
L 269.378449 95.068301 
L 267.949512 95.068301 
z
" style="fill:#1f77b4;"/>
   </g>
   <g id="patch_116">
    <path clip-path="url(#p907293d9ff)" d="M 269.735683 204.74 
L 271.164621 204.74 
L 271.164621 81.089137 
L 269.735683 81.089137 
z
" style="fill:#1f77b4;"/>
   </g>
   <g id="patch_117">
    <path clip-path="url(#p907293d9ff)" d="M 271.521855 204.74 
L 272.950792 204.74 
L 272.950792 87.075564 
L 271.521855 87.075564 
z
" style="fill:#1f77b4;"/>
   </g>
   <g id="patch_118">
    <path clip-path="url(#p907293d9ff)" d="M 273.308027 204.74 
L 274.736964 204.74 
L 274.736964 98.726071 
L 273.308027 98.726071 
z
" style="fill:#1f77b4;"/>
   </g>
   <g id="patch_119">
    <path clip-path="url(#p907293d9ff)" d="M 275.094198 204.74 
L 276.523135 204.74 
L 276.523135 88.721605 
L 275.094198 88.721605 
z
" style="fill:#1f77b4;"/>
   </g>
   <g id="patch_120">
    <path clip-path="url(#p907293d9ff)" d="M 276.88037 204.74 
L 278.309307 204.74 
L 278.309307 96.187934 
L 276.88037 96.187934 
z
" style="fill:#1f77b4;"/>
   </g>
   <g id="patch_121">
    <path clip-path="url(#p907293d9ff)" d="M 278.666541 204.74 
L 280.095479 204.74 
L 280.095479 63.92895 
L 278.666541 63.92895 
z
" style="fill:#1f77b4;"/>
   </g>
   <g id="patch_122">
    <path clip-path="url(#p907293d9ff)" d="M 280.452713 204.74 
L 281.88165 204.74 
L 281.88165 93.714809 
L 280.452713 93.714809 
z
" style="fill:#1f77b4;"/>
   </g>
   <g id="patch_123">
    <path clip-path="url(#p907293d9ff)" d="M 282.238884 204.74 
L 283.667822 204.74 
L 283.667822 81.683265 
L 282.238884 81.683265 
z
" style="fill:#1f77b4;"/>
   </g>
   <g id="patch_124">
    <path clip-path="url(#p907293d9ff)" d="M 284.025056 204.74 
L 285.453993 204.74 
L 285.453993 90.392026 
L 284.025056 90.392026 
z
" style="fill:#1f77b4;"/>
   </g>
   <g id="patch_125">
    <path clip-path="url(#p907293d9ff)" d="M 285.811228 204.74 
L 287.240165 204.74 
L 287.240165 73.655313 
L 285.811228 73.655313 
z
" style="fill:#1f77b4;"/>
   </g>
   <g id="patch_126">
    <path clip-path="url(#p907293d9ff)" d="M 287.597399 204.74 
L 289.026336 204.74 
L 289.026336 68.89958 
L 287.597399 68.89958 
z
" style="fill:#1f77b4;"/>
   </g>
   <g id="patch_127">
    <path clip-path="url(#p907293d9ff)" d="M 289.383571 204.74 
L 290.812508 204.74 
L 290.812508 87.519805 
L 289.383571 87.519805 
z
" style="fill:#1f77b4;"/>
   </g>
   <g id="patch_128">
    <path clip-path="url(#p907293d9ff)" d="M 291.169742 204.74 
L 292.59868 204.74 
L 292.59868 95.068301 
L 291.169742 95.068301 
z
" style="fill:#1f77b4;"/>
   </g>
   <g id="patch_129">
    <path clip-path="url(#p907293d9ff)" d="M 292.955914 204.74 
L 294.384851 204.74 
L 294.384851 69.300481 
L 292.955914 69.300481 
z
" style="fill:#1f77b4;"/>
   </g>
   <g id="patch_130">
    <path clip-path="url(#p907293d9ff)" d="M 294.742085 204.74 
L 296.171023 204.74 
L 296.171023 73.514456 
L 294.742085 73.514456 
z
" style="fill:#1f77b4;"/>
   </g>
   <g id="patch_131">
    <path clip-path="url(#p907293d9ff)" d="M 296.528257 204.74 
L 297.957194 204.74 
L 297.957194 75.450338 
L 296.528257 75.450338 
z
" style="fill:#1f77b4;"/>
   </g>
   <g id="patch_132">
    <path clip-path="url(#p907293d9ff)" d="M 298.314429 204.74 
L 299.743366 204.74 
L 299.743366 102.31883 
L 298.314429 102.31883 
z
" style="fill:#1f77b4;"/>
   </g>
   <g id="patch_133">
    <path clip-path="url(#p907293d9ff)" d="M 300.1006 204.74 
L 301.529537 204.74 
L 301.529537 77.488252 
L 300.1006 77.488252 
z
" style="fill:#1f77b4;"/>
   </g>
   <g id="patch_134">
    <path clip-path="url(#p907293d9ff)" d="M 301.886772 204.74 
L 303.315709 204.74 
L 303.315709 79.140614 
L 301.886772 79.140614 
z
" style="fill:#1f77b4;"/>
   </g>
   <g id="patch_135">
    <path clip-path="url(#p907293d9ff)" d="M 303.672943 204.74 
L 305.101881 204.74 
L 305.101881 99.31749 
L 303.672943 99.31749 
z
" style="fill:#1f77b4;"/>
   </g>
   <g id="patch_136">
    <path clip-path="url(#p907293d9ff)" d="M 305.459115 204.74 
L 306.888052 204.74 
L 306.888052 100.197847 
L 305.459115 100.197847 
z
" style="fill:#1f77b4;"/>
   </g>
   <g id="patch_137">
    <path clip-path="url(#p907293d9ff)" d="M 307.245286 204.74 
L 308.674224 204.74 
L 308.674224 84.969028 
L 307.245286 84.969028 
z
" style="fill:#1f77b4;"/>
   </g>
   <g id="patch_138">
    <path clip-path="url(#p907293d9ff)" d="M 309.031458 204.74 
L 310.460395 204.74 
L 310.460395 102.508445 
L 309.031458 102.508445 
z
" style="fill:#1f77b4;"/>
   </g>
   <g id="patch_139">
    <path clip-path="url(#p907293d9ff)" d="M 310.81763 204.74 
L 312.246567 204.74 
L 312.246567 107.584718 
L 310.81763 107.584718 
z
" style="fill:#1f77b4;"/>
   </g>
   <g id="patch_140">
    <path clip-path="url(#p907293d9ff)" d="M 312.603801 204.74 
L 314.032738 204.74 
L 314.032738 106.815422 
L 312.603801 106.815422 
z
" style="fill:#1f77b4;"/>
   </g>
   <g id="patch_141">
    <path clip-path="url(#p907293d9ff)" d="M 314.389973 204.74 
L 315.81891 204.74 
L 315.81891 127.098844 
L 314.389973 127.098844 
z
" style="fill:#1f77b4;"/>
   </g>
   <g id="patch_142">
    <path clip-path="url(#p907293d9ff)" d="M 316.176144 204.74 
L 317.605082 204.74 
L 317.605082 92.475989 
L 316.176144 92.475989 
z
" style="fill:#1f77b4;"/>
   </g>
   <g id="patch_143">
    <path clip-path="url(#p907293d9ff)" d="M 317.962316 204.74 
L 319.391253 204.74 
L 319.391253 90.450716 
L 317.962316 90.450716 
z
" style="fill:#1f77b4;"/>
   </g>
   <g id="patch_144">
    <path clip-path="url(#p907293d9ff)" d="M 319.748488 204.74 
L 321.177425 204.74 
L 321.177425 75.100904 
L 319.748488 75.100904 
z
" style="fill:#1f77b4;"/>
   </g>
   <g id="patch_145">
    <path clip-path="url(#p907293d9ff)" d="M 321.534659 204.74 
L 322.963596 204.74 
L 322.963596 86.040806 
L 321.534659 86.040806 
z
" style="fill:#1f77b4;"/>
   </g>
   <g id="patch_146">
    <path clip-path="url(#p907293d9ff)" d="M 323.320831 204.74 
L 324.749768 204.74 
L 324.749768 94.784781 
L 323.320831 94.784781 
z
" style="fill:#1f77b4;"/>
   </g>
   <g id="patch_147">
    <path clip-path="url(#p907293d9ff)" d="M 325.107002 204.74 
L 326.53594 204.74 
L 326.53594 120.874947 
L 325.107002 120.874947 
z
" style="fill:#1f77b4;"/>
   </g>
   <g id="patch_148">
    <path clip-path="url(#p907293d9ff)" d="M 326.893174 204.74 
L 328.322111 204.74 
L 328.322111 97.462872 
L 326.893174 97.462872 
z
" style="fill:#1f77b4;"/>
   </g>
   <g id="patch_149">
    <path clip-path="url(#p907293d9ff)" d="M 328.679345 204.74 
L 330.108283 204.74 
L 330.108283 107.827607 
L 328.679345 107.827607 
z
" style="fill:#1f77b4;"/>
   </g>
   <g id="patch_150">
    <path clip-path="url(#p907293d9ff)" d="M 330.465517 204.74 
L 331.894454 204.74 
L 331.894454 63.774549 
L 330.465517 63.774549 
z
" style="fill:#1f77b4;"/>
   </g>
   <g id="patch_151">
    <path clip-path="url(#p907293d9ff)" d="M 332.251689 204.74 
L 333.680626 204.74 
L 333.680626 83.776257 
L 332.251689 83.776257 
z
" style="fill:#1f77b4;"/>
   </g>
   <g id="patch_152">
    <path clip-path="url(#p907293d9ff)" d="M 334.03786 204.74 
L 335.466797 204.74 
L 335.466797 96.990639 
L 334.03786 96.990639 
z
" style="fill:#1f77b4;"/>
   </g>
   <g id="patch_153">
    <path clip-path="url(#p907293d9ff)" d="M 335.824032 204.74 
L 337.252969 204.74 
L 337.252969 108.699837 
L 335.824032 108.699837 
z
" style="fill:#1f77b4;"/>
   </g>
   <g id="patch_154">
    <path clip-path="url(#p907293d9ff)" d="M 337.610203 204.74 
L 339.039141 204.74 
L 339.039141 65.688761 
L 337.610203 65.688761 
z
" style="fill:#1f77b4;"/>
   </g>
   <g id="patch_155">
    <path clip-path="url(#p907293d9ff)" d="M 339.396375 204.74 
L 340.825312 204.74 
L 340.825312 95.043922 
L 339.396375 95.043922 
z
" style="fill:#1f77b4;"/>
   </g>
   <g id="patch_156">
    <path clip-path="url(#p907293d9ff)" d="M 341.182546 204.74 
L 342.611484 204.74 
L 342.611484 99.824937 
L 341.182546 99.824937 
z
" style="fill:#1f77b4;"/>
   </g>
   <g id="patch_157">
    <path clip-path="url(#p907293d9ff)" d="M 342.968718 204.74 
L 344.397655 204.74 
L 344.397655 97.252489 
L 342.968718 97.252489 
z
" style="fill:#1f77b4;"/>
   </g>
   <g id="patch_158">
    <path clip-path="url(#p907293d9ff)" d="M 344.75489 204.74 
L 346.183827 204.74 
L 346.183827 76.416473 
L 344.75489 76.416473 
z
" style="fill:#1f77b4;"/>
   </g>
   <g id="patch_159">
    <path clip-path="url(#p907293d9ff)" d="M 346.541061 204.74 
L 347.969998 204.74 
L 347.969998 71.507242 
L 346.541061 71.507242 
z
" style="fill:#1f77b4;"/>
   </g>
   <g id="patch_160">
    <path clip-path="url(#p907293d9ff)" d="M 348.327233 204.74 
L 349.75617 204.74 
L 349.75617 109.717439 
L 348.327233 109.717439 
z
" style="fill:#1f77b4;"/>
   </g>
   <g id="patch_161">
    <path clip-path="url(#p907293d9ff)" d="M 350.113404 204.74 
L 351.542342 204.74 
L 351.542342 112.588757 
L 350.113404 112.588757 
z
" style="fill:#1f77b4;"/>
   </g>
   <g id="patch_162">
    <path clip-path="url(#p907293d9ff)" d="M 351.899576 204.74 
L 353.328513 204.74 
L 353.328513 83.527951 
L 351.899576 83.527951 
z
" style="fill:#1f77b4;"/>
   </g>
   <g id="patch_163">
    <path clip-path="url(#p907293d9ff)" d="M 353.685747 204.74 
L 355.114685 204.74 
L 355.114685 107.704808 
L 353.685747 107.704808 
z
" style="fill:#1f77b4;"/>
   </g>
   <g id="patch_164">
    <path clip-path="url(#p907293d9ff)" d="M 355.471919 204.74 
L 356.900856 204.74 
L 356.900856 45.719558 
L 355.471919 45.719558 
z
" style="fill:#1f77b4;"/>
   </g>
   <g id="patch_165">
    <path clip-path="url(#p907293d9ff)" d="M 357.258091 204.74 
L 358.687028 204.74 
L 358.687028 79.260703 
L 357.258091 79.260703 
z
" style="fill:#1f77b4;"/>
   </g>
   <g id="patch_166">
    <path clip-path="url(#p907293d9ff)" d="M 359.044262 204.74 
L 360.473199 204.74 
L 360.473199 80.32887 
L 359.044262 80.32887 
z
" style="fill:#1f77b4;"/>
   </g>
   <g id="patch_167">
    <path clip-path="url(#p907293d9ff)" d="M 360.830434 204.74 
L 362.259371 204.74 
L 362.259371 97.425852 
L 360.830434 97.425852 
z
" style="fill:#1f77b4;"/>
   </g>
   <g id="patch_168">
    <path clip-path="url(#p907293d9ff)" d="M 362.616605 204.74 
L 364.045543 204.74 
L 364.045543 81.728411 
L 362.616605 81.728411 
z
" style="fill:#1f77b4;"/>
   </g>
   <g id="patch_169">
    <path clip-path="url(#p907293d9ff)" d="M 364.402777 204.74 
L 365.831714 204.74 
L 365.831714 82.25482 
L 364.402777 82.25482 
z
" style="fill:#1f77b4;"/>
   </g>
   <g id="patch_170">
    <path clip-path="url(#p907293d9ff)" d="M 366.188948 204.74 
L 367.617886 204.74 
L 367.617886 110.093058 
L 366.188948 110.093058 
z
" style="fill:#1f77b4;"/>
   </g>
   <g id="patch_171">
    <path clip-path="url(#p907293d9ff)" d="M 367.97512 204.74 
L 369.404057 204.74 
L 369.404057 85.886405 
L 367.97512 85.886405 
z
" style="fill:#1f77b4;"/>
   </g>
   <g id="patch_172">
    <path clip-path="url(#p907293d9ff)" d="M 369.761292 204.74 
L 371.190229 204.74 
L 371.190229 74.568176 
L 369.761292 74.568176 
z
" style="fill:#1f77b4;"/>
   </g>
   <g id="patch_173">
    <path clip-path="url(#p907293d9ff)" d="M 371.547463 204.74 
L 372.9764 204.74 
L 372.9764 77.509922 
L 371.547463 77.509922 
z
" style="fill:#1f77b4;"/>
   </g>
   <g id="patch_174">
    <path clip-path="url(#p907293d9ff)" d="M 373.333635 204.74 
L 374.762572 204.74 
L 374.762572 71.374512 
L 373.333635 71.374512 
z
" style="fill:#1f77b4;"/>
   </g>
   <g id="patch_175">
    <path clip-path="url(#p907293d9ff)" d="M 375.119806 204.74 
L 376.548744 204.74 
L 376.548744 76.894124 
L 375.119806 76.894124 
z
" style="fill:#1f77b4;"/>
   </g>
   <g id="patch_176">
    <path clip-path="url(#p907293d9ff)" d="M 376.905978 204.74 
L 378.334915 204.74 
L 378.334915 73.519874 
L 376.905978 73.519874 
z
" style="fill:#1f77b4;"/>
   </g>
   <g id="patch_177">
    <path clip-path="url(#p907293d9ff)" d="M 378.692149 204.74 
L 380.121087 204.74 
L 380.121087 74.805646 
L 378.692149 74.805646 
z
" style="fill:#1f77b4;"/>
   </g>
   <g id="patch_178">
    <path clip-path="url(#p907293d9ff)" d="M 380.478321 204.74 
L 381.907258 204.74 
L 381.907258 58.46532 
L 380.478321 58.46532 
z
" style="fill:#1f77b4;"/>
   </g>
   <g id="patch_179">
    <path clip-path="url(#p907293d9ff)" d="M 382.264493 204.74 
L 383.69343 204.74 
L 383.69343 75.782617 
L 382.264493 75.782617 
z
" style="fill:#1f77b4;"/>
   </g>
   <g id="patch_180">
    <path clip-path="url(#p907293d9ff)" d="M 384.050664 204.74 
L 385.479601 204.74 
L 385.479601 84.780315 
L 384.050664 84.780315 
z
" style="fill:#1f77b4;"/>
   </g>
   <g id="patch_181">
    <path clip-path="url(#p907293d9ff)" d="M 385.836836 204.74 
L 387.265773 204.74 
L 387.265773 71.542457 
L 385.836836 71.542457 
z
" style="fill:#1f77b4;"/>
   </g>
   <g id="patch_182">
    <path clip-path="url(#p907293d9ff)" d="M 387.623007 204.74 
L 389.051945 204.74 
L 389.051945 56.193547 
L 387.623007 56.193547 
z
" style="fill:#1f77b4;"/>
   </g>
   <g id="patch_183">
    <path clip-path="url(#p907293d9ff)" d="M 389.409179 204.74 
L 390.838116 204.74 
L 390.838116 61.354696 
L 389.409179 61.354696 
z
" style="fill:#1f77b4;"/>
   </g>
   <g id="patch_184">
    <path clip-path="url(#p907293d9ff)" d="M 391.195351 204.74 
L 392.624288 204.74 
L 392.624288 41.836056 
L 391.195351 41.836056 
z
" style="fill:#1f77b4;"/>
   </g>
   <g id="patch_185">
    <path clip-path="url(#p907293d9ff)" d="M 392.981522 204.74 
L 394.410459 204.74 
L 394.410459 75.889162 
L 392.981522 75.889162 
z
" style="fill:#1f77b4;"/>
   </g>
   <g id="patch_186">
    <path clip-path="url(#p907293d9ff)" d="M 394.767694 204.74 
L 396.196631 204.74 
L 396.196631 88.265626 
L 394.767694 88.265626 
z
" style="fill:#1f77b4;"/>
   </g>
   <g id="patch_187">
    <path clip-path="url(#p907293d9ff)" d="M 396.553865 204.74 
L 397.982802 204.74 
L 397.982802 113.352636 
L 396.553865 113.352636 
z
" style="fill:#1f77b4;"/>
   </g>
   <g id="patch_188">
    <path clip-path="url(#p907293d9ff)" d="M 398.340037 204.74 
L 399.768974 204.74 
L 399.768974 77.181255 
L 398.340037 77.181255 
z
" style="fill:#1f77b4;"/>
   </g>
   <g id="patch_189">
    <path clip-path="url(#p907293d9ff)" d="M 400.126208 204.74 
L 401.555146 204.74 
L 401.555146 77.503601 
L 400.126208 77.503601 
z
" style="fill:#1f77b4;"/>
   </g>
   <g id="patch_190">
    <path clip-path="url(#p907293d9ff)" d="M 401.91238 204.74 
L 403.341317 204.74 
L 403.341317 19.94 
L 401.91238 19.94 
z
" style="fill:#1f77b4;"/>
   </g>
   <g id="patch_191">
    <path clip-path="url(#p907293d9ff)" d="M 403.698552 204.74 
L 405.127489 204.74 
L 405.127489 112.443385 
L 403.698552 112.443385 
z
" style="fill:#1f77b4;"/>
   </g>
   <g id="patch_192">
    <path clip-path="url(#p907293d9ff)" d="M 405.484723 204.74 
L 406.91366 204.74 
L 406.91366 102.347724 
L 405.484723 102.347724 
z
" style="fill:#1f77b4;"/>
   </g>
   <g id="patch_193">
    <path clip-path="url(#p907293d9ff)" d="M 407.270895 204.74 
L 408.699832 204.74 
L 408.699832 124.278994 
L 407.270895 124.278994 
z
" style="fill:#1f77b4;"/>
   </g>
   <g id="patch_194">
    <path clip-path="url(#p907293d9ff)" d="M 409.057066 204.74 
L 410.486004 204.74 
L 410.486004 127.125932 
L 409.057066 127.125932 
z
" style="fill:#1f77b4;"/>
   </g>
   <g id="patch_195">
    <path clip-path="url(#p907293d9ff)" d="M 410.843238 204.74 
L 412.272175 204.74 
L 412.272175 113.285819 
L 410.843238 113.285819 
z
" style="fill:#1f77b4;"/>
   </g>
   <g id="patch_196">
    <path clip-path="url(#p907293d9ff)" d="M 412.629409 204.74 
L 414.058347 204.74 
L 414.058347 77.036786 
L 412.629409 77.036786 
z
" style="fill:#1f77b4;"/>
   </g>
   <g id="patch_197">
    <path clip-path="url(#p907293d9ff)" d="M 414.415581 204.74 
L 415.844518 204.74 
L 415.844518 105.737323 
L 414.415581 105.737323 
z
" style="fill:#1f77b4;"/>
   </g>
   <g id="patch_198">
    <path clip-path="url(#p907293d9ff)" d="M 416.201753 204.74 
L 417.63069 204.74 
L 417.63069 84.158196 
L 416.201753 84.158196 
z
" style="fill:#1f77b4;"/>
   </g>
   <g id="patch_199">
    <path clip-path="url(#p907293d9ff)" d="M 417.987924 204.74 
L 419.416861 204.74 
L 419.416861 89.164944 
L 417.987924 89.164944 
z
" style="fill:#1f77b4;"/>
   </g>
   <g id="patch_200">
    <path clip-path="url(#p907293d9ff)" d="M 419.774096 204.74 
L 421.203033 204.74 
L 421.203033 128.893869 
L 419.774096 128.893869 
z
" style="fill:#1f77b4;"/>
   </g>
   <g id="patch_201">
    <path clip-path="url(#p907293d9ff)" d="M 421.560267 204.74 
L 422.989205 204.74 
L 422.989205 139.126777 
L 421.560267 139.126777 
z
" style="fill:#1f77b4;"/>
   </g>
   <g id="matplotlib.axis_1">
    <g id="xtick_1">
     <g id="line2d_1">
      <defs>
       <path d="M 0 0 
L 0 3.5 
" id="m19100c985f" style="stroke:#000000;stroke-width:0.8;"/>
      </defs>
      <g>
       <use style="stroke:#000000;stroke-width:0.8;" x="66.826593" xlink:href="#m19100c985f" y="204.74"/>
      </g>
     </g>
     <g id="text_1">
      <!-- 0 -->
      <defs>
       <path d="M 31.78125 66.40625 
Q 24.171875 66.40625 20.328125 58.90625 
Q 16.5 51.421875 16.5 36.375 
Q 16.5 21.390625 20.328125 13.890625 
Q 24.171875 6.390625 31.78125 6.390625 
Q 39.453125 6.390625 43.28125 13.890625 
Q 47.125 21.390625 47.125 36.375 
Q 47.125 51.421875 43.28125 58.90625 
Q 39.453125 66.40625 31.78125 66.40625 
z
M 31.78125 74.21875 
Q 44.046875 74.21875 50.515625 64.515625 
Q 56.984375 54.828125 56.984375 36.375 
Q 56.984375 17.96875 50.515625 8.265625 
Q 44.046875 -1.421875 31.78125 -1.421875 
Q 19.53125 -1.421875 13.0625 8.265625 
Q 6.59375 17.96875 6.59375 36.375 
Q 6.59375 54.828125 13.0625 64.515625 
Q 19.53125 74.21875 31.78125 74.21875 
z
" id="DejaVuSans-48"/>
      </defs>
      <g transform="translate(63.645343 219.338437)scale(0.1 -0.1)">
       <use xlink:href="#DejaVuSans-48"/>
      </g>
     </g>
    </g>
    <g id="xtick_2">
     <g id="line2d_2">
      <g>
       <use style="stroke:#000000;stroke-width:0.8;" x="111.480882" xlink:href="#m19100c985f" y="204.74"/>
      </g>
     </g>
     <g id="text_2">
      <!-- 25 -->
      <defs>
       <path d="M 19.1875 8.296875 
L 53.609375 8.296875 
L 53.609375 0 
L 7.328125 0 
L 7.328125 8.296875 
Q 12.9375 14.109375 22.625 23.890625 
Q 32.328125 33.6875 34.8125 36.53125 
Q 39.546875 41.84375 41.421875 45.53125 
Q 43.3125 49.21875 43.3125 52.78125 
Q 43.3125 58.59375 39.234375 62.25 
Q 35.15625 65.921875 28.609375 65.921875 
Q 23.96875 65.921875 18.8125 64.3125 
Q 13.671875 62.703125 7.8125 59.421875 
L 7.8125 69.390625 
Q 13.765625 71.78125 18.9375 73 
Q 24.125 74.21875 28.421875 74.21875 
Q 39.75 74.21875 46.484375 68.546875 
Q 53.21875 62.890625 53.21875 53.421875 
Q 53.21875 48.921875 51.53125 44.890625 
Q 49.859375 40.875 45.40625 35.40625 
Q 44.1875 33.984375 37.640625 27.21875 
Q 31.109375 20.453125 19.1875 8.296875 
z
" id="DejaVuSans-50"/>
       <path d="M 10.796875 72.90625 
L 49.515625 72.90625 
L 49.515625 64.59375 
L 19.828125 64.59375 
L 19.828125 46.734375 
Q 21.96875 47.46875 24.109375 47.828125 
Q 26.265625 48.1875 28.421875 48.1875 
Q 40.625 48.1875 47.75 41.5 
Q 54.890625 34.8125 54.890625 23.390625 
Q 54.890625 11.625 47.5625 5.09375 
Q 40.234375 -1.421875 26.90625 -1.421875 
Q 22.3125 -1.421875 17.546875 -0.640625 
Q 12.796875 0.140625 7.71875 1.703125 
L 7.71875 11.625 
Q 12.109375 9.234375 16.796875 8.0625 
Q 21.484375 6.890625 26.703125 6.890625 
Q 35.15625 6.890625 40.078125 11.328125 
Q 45.015625 15.765625 45.015625 23.390625 
Q 45.015625 31 40.078125 35.4375 
Q 35.15625 39.890625 26.703125 39.890625 
Q 22.75 39.890625 18.8125 39.015625 
Q 14.890625 38.140625 10.796875 36.28125 
z
" id="DejaVuSans-53"/>
      </defs>
      <g transform="translate(105.118382 219.338437)scale(0.1 -0.1)">
       <use xlink:href="#DejaVuSans-50"/>
       <use x="63.623047" xlink:href="#DejaVuSans-53"/>
      </g>
     </g>
    </g>
    <g id="xtick_3">
     <g id="line2d_3">
      <g>
       <use style="stroke:#000000;stroke-width:0.8;" x="156.135171" xlink:href="#m19100c985f" y="204.74"/>
      </g>
     </g>
     <g id="text_3">
      <!-- 50 -->
      <g transform="translate(149.772671 219.338437)scale(0.1 -0.1)">
       <use xlink:href="#DejaVuSans-53"/>
       <use x="63.623047" xlink:href="#DejaVuSans-48"/>
      </g>
     </g>
    </g>
    <g id="xtick_4">
     <g id="line2d_4">
      <g>
       <use style="stroke:#000000;stroke-width:0.8;" x="200.789461" xlink:href="#m19100c985f" y="204.74"/>
      </g>
     </g>
     <g id="text_4">
      <!-- 75 -->
      <defs>
       <path d="M 8.203125 72.90625 
L 55.078125 72.90625 
L 55.078125 68.703125 
L 28.609375 0 
L 18.3125 0 
L 43.21875 64.59375 
L 8.203125 64.59375 
z
" id="DejaVuSans-55"/>
      </defs>
      <g transform="translate(194.426961 219.338437)scale(0.1 -0.1)">
       <use xlink:href="#DejaVuSans-55"/>
       <use x="63.623047" xlink:href="#DejaVuSans-53"/>
      </g>
     </g>
    </g>
    <g id="xtick_5">
     <g id="line2d_5">
      <g>
       <use style="stroke:#000000;stroke-width:0.8;" x="245.44375" xlink:href="#m19100c985f" y="204.74"/>
      </g>
     </g>
     <g id="text_5">
      <!-- 100 -->
      <defs>
       <path d="M 12.40625 8.296875 
L 28.515625 8.296875 
L 28.515625 63.921875 
L 10.984375 60.40625 
L 10.984375 69.390625 
L 28.421875 72.90625 
L 38.28125 72.90625 
L 38.28125 8.296875 
L 54.390625 8.296875 
L 54.390625 0 
L 12.40625 0 
z
" id="DejaVuSans-49"/>
      </defs>
      <g transform="translate(235.9 219.338437)scale(0.1 -0.1)">
       <use xlink:href="#DejaVuSans-49"/>
       <use x="63.623047" xlink:href="#DejaVuSans-48"/>
       <use x="127.246094" xlink:href="#DejaVuSans-48"/>
      </g>
     </g>
    </g>
    <g id="xtick_6">
     <g id="line2d_6">
      <g>
       <use style="stroke:#000000;stroke-width:0.8;" x="290.098039" xlink:href="#m19100c985f" y="204.74"/>
      </g>
     </g>
     <g id="text_6">
      <!-- 125 -->
      <g transform="translate(280.554289 219.338437)scale(0.1 -0.1)">
       <use xlink:href="#DejaVuSans-49"/>
       <use x="63.623047" xlink:href="#DejaVuSans-50"/>
       <use x="127.246094" xlink:href="#DejaVuSans-53"/>
      </g>
     </g>
    </g>
    <g id="xtick_7">
     <g id="line2d_7">
      <g>
       <use style="stroke:#000000;stroke-width:0.8;" x="334.752329" xlink:href="#m19100c985f" y="204.74"/>
      </g>
     </g>
     <g id="text_7">
      <!-- 150 -->
      <g transform="translate(325.208579 219.338437)scale(0.1 -0.1)">
       <use xlink:href="#DejaVuSans-49"/>
       <use x="63.623047" xlink:href="#DejaVuSans-53"/>
       <use x="127.246094" xlink:href="#DejaVuSans-48"/>
      </g>
     </g>
    </g>
    <g id="xtick_8">
     <g id="line2d_8">
      <g>
       <use style="stroke:#000000;stroke-width:0.8;" x="379.406618" xlink:href="#m19100c985f" y="204.74"/>
      </g>
     </g>
     <g id="text_8">
      <!-- 175 -->
      <g transform="translate(369.862868 219.338437)scale(0.1 -0.1)">
       <use xlink:href="#DejaVuSans-49"/>
       <use x="63.623047" xlink:href="#DejaVuSans-55"/>
       <use x="127.246094" xlink:href="#DejaVuSans-53"/>
      </g>
     </g>
    </g>
    <g id="xtick_9">
     <g id="line2d_9">
      <g>
       <use style="stroke:#000000;stroke-width:0.8;" x="424.060907" xlink:href="#m19100c985f" y="204.74"/>
      </g>
     </g>
     <g id="text_9">
      <!-- 200 -->
      <g transform="translate(414.517157 219.338437)scale(0.1 -0.1)">
       <use xlink:href="#DejaVuSans-50"/>
       <use x="63.623047" xlink:href="#DejaVuSans-48"/>
       <use x="127.246094" xlink:href="#DejaVuSans-48"/>
      </g>
     </g>
    </g>
    <g id="text_10">
     <!-- number of chunk (from beginning to end) -->
     <defs>
      <path d="M 54.890625 33.015625 
L 54.890625 0 
L 45.90625 0 
L 45.90625 32.71875 
Q 45.90625 40.484375 42.875 44.328125 
Q 39.84375 48.1875 33.796875 48.1875 
Q 26.515625 48.1875 22.3125 43.546875 
Q 18.109375 38.921875 18.109375 30.90625 
L 18.109375 0 
L 9.078125 0 
L 9.078125 54.6875 
L 18.109375 54.6875 
L 18.109375 46.1875 
Q 21.34375 51.125 25.703125 53.5625 
Q 30.078125 56 35.796875 56 
Q 45.21875 56 50.046875 50.171875 
Q 54.890625 44.34375 54.890625 33.015625 
z
" id="DejaVuSans-110"/>
      <path d="M 8.5 21.578125 
L 8.5 54.6875 
L 17.484375 54.6875 
L 17.484375 21.921875 
Q 17.484375 14.15625 20.5 10.265625 
Q 23.53125 6.390625 29.59375 6.390625 
Q 36.859375 6.390625 41.078125 11.03125 
Q 45.3125 15.671875 45.3125 23.6875 
L 45.3125 54.6875 
L 54.296875 54.6875 
L 54.296875 0 
L 45.3125 0 
L 45.3125 8.40625 
Q 42.046875 3.421875 37.71875 1 
Q 33.40625 -1.421875 27.6875 -1.421875 
Q 18.265625 -1.421875 13.375 4.4375 
Q 8.5 10.296875 8.5 21.578125 
z
M 31.109375 56 
z
" id="DejaVuSans-117"/>
      <path d="M 52 44.1875 
Q 55.375 50.25 60.0625 53.125 
Q 64.75 56 71.09375 56 
Q 79.640625 56 84.28125 50.015625 
Q 88.921875 44.046875 88.921875 33.015625 
L 88.921875 0 
L 79.890625 0 
L 79.890625 32.71875 
Q 79.890625 40.578125 77.09375 44.375 
Q 74.3125 48.1875 68.609375 48.1875 
Q 61.625 48.1875 57.5625 43.546875 
Q 53.515625 38.921875 53.515625 30.90625 
L 53.515625 0 
L 44.484375 0 
L 44.484375 32.71875 
Q 44.484375 40.625 41.703125 44.40625 
Q 38.921875 48.1875 33.109375 48.1875 
Q 26.21875 48.1875 22.15625 43.53125 
Q 18.109375 38.875 18.109375 30.90625 
L 18.109375 0 
L 9.078125 0 
L 9.078125 54.6875 
L 18.109375 54.6875 
L 18.109375 46.1875 
Q 21.1875 51.21875 25.484375 53.609375 
Q 29.78125 56 35.6875 56 
Q 41.65625 56 45.828125 52.96875 
Q 50 49.953125 52 44.1875 
z
" id="DejaVuSans-109"/>
      <path d="M 48.6875 27.296875 
Q 48.6875 37.203125 44.609375 42.84375 
Q 40.53125 48.484375 33.40625 48.484375 
Q 26.265625 48.484375 22.1875 42.84375 
Q 18.109375 37.203125 18.109375 27.296875 
Q 18.109375 17.390625 22.1875 11.75 
Q 26.265625 6.109375 33.40625 6.109375 
Q 40.53125 6.109375 44.609375 11.75 
Q 48.6875 17.390625 48.6875 27.296875 
z
M 18.109375 46.390625 
Q 20.953125 51.265625 25.265625 53.625 
Q 29.59375 56 35.59375 56 
Q 45.5625 56 51.78125 48.09375 
Q 58.015625 40.1875 58.015625 27.296875 
Q 58.015625 14.40625 51.78125 6.484375 
Q 45.5625 -1.421875 35.59375 -1.421875 
Q 29.59375 -1.421875 25.265625 0.953125 
Q 20.953125 3.328125 18.109375 8.203125 
L 18.109375 0 
L 9.078125 0 
L 9.078125 75.984375 
L 18.109375 75.984375 
z
" id="DejaVuSans-98"/>
      <path d="M 56.203125 29.59375 
L 56.203125 25.203125 
L 14.890625 25.203125 
Q 15.484375 15.921875 20.484375 11.0625 
Q 25.484375 6.203125 34.421875 6.203125 
Q 39.59375 6.203125 44.453125 7.46875 
Q 49.3125 8.734375 54.109375 11.28125 
L 54.109375 2.78125 
Q 49.265625 0.734375 44.1875 -0.34375 
Q 39.109375 -1.421875 33.890625 -1.421875 
Q 20.796875 -1.421875 13.15625 6.1875 
Q 5.515625 13.8125 5.515625 26.8125 
Q 5.515625 40.234375 12.765625 48.109375 
Q 20.015625 56 32.328125 56 
Q 43.359375 56 49.78125 48.890625 
Q 56.203125 41.796875 56.203125 29.59375 
z
M 47.21875 32.234375 
Q 47.125 39.59375 43.09375 43.984375 
Q 39.0625 48.390625 32.421875 48.390625 
Q 24.90625 48.390625 20.390625 44.140625 
Q 15.875 39.890625 15.1875 32.171875 
z
" id="DejaVuSans-101"/>
      <path d="M 41.109375 46.296875 
Q 39.59375 47.171875 37.8125 47.578125 
Q 36.03125 48 33.890625 48 
Q 26.265625 48 22.1875 43.046875 
Q 18.109375 38.09375 18.109375 28.8125 
L 18.109375 0 
L 9.078125 0 
L 9.078125 54.6875 
L 18.109375 54.6875 
L 18.109375 46.1875 
Q 20.953125 51.171875 25.484375 53.578125 
Q 30.03125 56 36.53125 56 
Q 37.453125 56 38.578125 55.875 
Q 39.703125 55.765625 41.0625 55.515625 
z
" id="DejaVuSans-114"/>
      <path id="DejaVuSans-32"/>
      <path d="M 30.609375 48.390625 
Q 23.390625 48.390625 19.1875 42.75 
Q 14.984375 37.109375 14.984375 27.296875 
Q 14.984375 17.484375 19.15625 11.84375 
Q 23.34375 6.203125 30.609375 6.203125 
Q 37.796875 6.203125 41.984375 11.859375 
Q 46.1875 17.53125 46.1875 27.296875 
Q 46.1875 37.015625 41.984375 42.703125 
Q 37.796875 48.390625 30.609375 48.390625 
z
M 30.609375 56 
Q 42.328125 56 49.015625 48.375 
Q 55.71875 40.765625 55.71875 27.296875 
Q 55.71875 13.875 49.015625 6.21875 
Q 42.328125 -1.421875 30.609375 -1.421875 
Q 18.84375 -1.421875 12.171875 6.21875 
Q 5.515625 13.875 5.515625 27.296875 
Q 5.515625 40.765625 12.171875 48.375 
Q 18.84375 56 30.609375 56 
z
" id="DejaVuSans-111"/>
      <path d="M 37.109375 75.984375 
L 37.109375 68.5 
L 28.515625 68.5 
Q 23.6875 68.5 21.796875 66.546875 
Q 19.921875 64.59375 19.921875 59.515625 
L 19.921875 54.6875 
L 34.71875 54.6875 
L 34.71875 47.703125 
L 19.921875 47.703125 
L 19.921875 0 
L 10.890625 0 
L 10.890625 47.703125 
L 2.296875 47.703125 
L 2.296875 54.6875 
L 10.890625 54.6875 
L 10.890625 58.5 
Q 10.890625 67.625 15.140625 71.796875 
Q 19.390625 75.984375 28.609375 75.984375 
z
" id="DejaVuSans-102"/>
      <path d="M 48.78125 52.59375 
L 48.78125 44.1875 
Q 44.96875 46.296875 41.140625 47.34375 
Q 37.3125 48.390625 33.40625 48.390625 
Q 24.65625 48.390625 19.8125 42.84375 
Q 14.984375 37.3125 14.984375 27.296875 
Q 14.984375 17.28125 19.8125 11.734375 
Q 24.65625 6.203125 33.40625 6.203125 
Q 37.3125 6.203125 41.140625 7.25 
Q 44.96875 8.296875 48.78125 10.40625 
L 48.78125 2.09375 
Q 45.015625 0.34375 40.984375 -0.53125 
Q 36.96875 -1.421875 32.421875 -1.421875 
Q 20.0625 -1.421875 12.78125 6.34375 
Q 5.515625 14.109375 5.515625 27.296875 
Q 5.515625 40.671875 12.859375 48.328125 
Q 20.21875 56 33.015625 56 
Q 37.15625 56 41.109375 55.140625 
Q 45.0625 54.296875 48.78125 52.59375 
z
" id="DejaVuSans-99"/>
      <path d="M 54.890625 33.015625 
L 54.890625 0 
L 45.90625 0 
L 45.90625 32.71875 
Q 45.90625 40.484375 42.875 44.328125 
Q 39.84375 48.1875 33.796875 48.1875 
Q 26.515625 48.1875 22.3125 43.546875 
Q 18.109375 38.921875 18.109375 30.90625 
L 18.109375 0 
L 9.078125 0 
L 9.078125 75.984375 
L 18.109375 75.984375 
L 18.109375 46.1875 
Q 21.34375 51.125 25.703125 53.5625 
Q 30.078125 56 35.796875 56 
Q 45.21875 56 50.046875 50.171875 
Q 54.890625 44.34375 54.890625 33.015625 
z
" id="DejaVuSans-104"/>
      <path d="M 9.078125 75.984375 
L 18.109375 75.984375 
L 18.109375 31.109375 
L 44.921875 54.6875 
L 56.390625 54.6875 
L 27.390625 29.109375 
L 57.625 0 
L 45.90625 0 
L 18.109375 26.703125 
L 18.109375 0 
L 9.078125 0 
z
" id="DejaVuSans-107"/>
      <path d="M 31 75.875 
Q 24.46875 64.65625 21.28125 53.65625 
Q 18.109375 42.671875 18.109375 31.390625 
Q 18.109375 20.125 21.3125 9.0625 
Q 24.515625 -2 31 -13.1875 
L 23.1875 -13.1875 
Q 15.875 -1.703125 12.234375 9.375 
Q 8.59375 20.453125 8.59375 31.390625 
Q 8.59375 42.28125 12.203125 53.3125 
Q 15.828125 64.359375 23.1875 75.875 
z
" id="DejaVuSans-40"/>
      <path d="M 45.40625 27.984375 
Q 45.40625 37.75 41.375 43.109375 
Q 37.359375 48.484375 30.078125 48.484375 
Q 22.859375 48.484375 18.828125 43.109375 
Q 14.796875 37.75 14.796875 27.984375 
Q 14.796875 18.265625 18.828125 12.890625 
Q 22.859375 7.515625 30.078125 7.515625 
Q 37.359375 7.515625 41.375 12.890625 
Q 45.40625 18.265625 45.40625 27.984375 
z
M 54.390625 6.78125 
Q 54.390625 -7.171875 48.1875 -13.984375 
Q 42 -20.796875 29.203125 -20.796875 
Q 24.46875 -20.796875 20.265625 -20.09375 
Q 16.0625 -19.390625 12.109375 -17.921875 
L 12.109375 -9.1875 
Q 16.0625 -11.328125 19.921875 -12.34375 
Q 23.78125 -13.375 27.78125 -13.375 
Q 36.625 -13.375 41.015625 -8.765625 
Q 45.40625 -4.15625 45.40625 5.171875 
L 45.40625 9.625 
Q 42.625 4.78125 38.28125 2.390625 
Q 33.9375 0 27.875 0 
Q 17.828125 0 11.671875 7.65625 
Q 5.515625 15.328125 5.515625 27.984375 
Q 5.515625 40.671875 11.671875 48.328125 
Q 17.828125 56 27.875 56 
Q 33.9375 56 38.28125 53.609375 
Q 42.625 51.21875 45.40625 46.390625 
L 45.40625 54.6875 
L 54.390625 54.6875 
z
" id="DejaVuSans-103"/>
      <path d="M 9.421875 54.6875 
L 18.40625 54.6875 
L 18.40625 0 
L 9.421875 0 
z
M 9.421875 75.984375 
L 18.40625 75.984375 
L 18.40625 64.59375 
L 9.421875 64.59375 
z
" id="DejaVuSans-105"/>
      <path d="M 18.3125 70.21875 
L 18.3125 54.6875 
L 36.8125 54.6875 
L 36.8125 47.703125 
L 18.3125 47.703125 
L 18.3125 18.015625 
Q 18.3125 11.328125 20.140625 9.421875 
Q 21.96875 7.515625 27.59375 7.515625 
L 36.8125 7.515625 
L 36.8125 0 
L 27.59375 0 
Q 17.1875 0 13.234375 3.875 
Q 9.28125 7.765625 9.28125 18.015625 
L 9.28125 47.703125 
L 2.6875 47.703125 
L 2.6875 54.6875 
L 9.28125 54.6875 
L 9.28125 70.21875 
z
" id="DejaVuSans-116"/>
      <path d="M 45.40625 46.390625 
L 45.40625 75.984375 
L 54.390625 75.984375 
L 54.390625 0 
L 45.40625 0 
L 45.40625 8.203125 
Q 42.578125 3.328125 38.25 0.953125 
Q 33.9375 -1.421875 27.875 -1.421875 
Q 17.96875 -1.421875 11.734375 6.484375 
Q 5.515625 14.40625 5.515625 27.296875 
Q 5.515625 40.1875 11.734375 48.09375 
Q 17.96875 56 27.875 56 
Q 33.9375 56 38.25 53.625 
Q 42.578125 51.265625 45.40625 46.390625 
z
M 14.796875 27.296875 
Q 14.796875 17.390625 18.875 11.75 
Q 22.953125 6.109375 30.078125 6.109375 
Q 37.203125 6.109375 41.296875 11.75 
Q 45.40625 17.390625 45.40625 27.296875 
Q 45.40625 37.203125 41.296875 42.84375 
Q 37.203125 48.484375 30.078125 48.484375 
Q 22.953125 48.484375 18.875 42.84375 
Q 14.796875 37.203125 14.796875 27.296875 
z
" id="DejaVuSans-100"/>
      <path d="M 8.015625 75.875 
L 15.828125 75.875 
Q 23.140625 64.359375 26.78125 53.3125 
Q 30.421875 42.28125 30.421875 31.390625 
Q 30.421875 20.453125 26.78125 9.375 
Q 23.140625 -1.703125 15.828125 -13.1875 
L 8.015625 -13.1875 
Q 14.5 -2 17.703125 9.0625 
Q 20.90625 20.125 20.90625 31.390625 
Q 20.90625 42.671875 17.703125 53.65625 
Q 14.5 64.65625 8.015625 75.875 
z
" id="DejaVuSans-41"/>
     </defs>
     <g transform="translate(141.457031 233.016562)scale(0.1 -0.1)">
      <use xlink:href="#DejaVuSans-110"/>
      <use x="63.378906" xlink:href="#DejaVuSans-117"/>
      <use x="126.757812" xlink:href="#DejaVuSans-109"/>
      <use x="224.169922" xlink:href="#DejaVuSans-98"/>
      <use x="287.646484" xlink:href="#DejaVuSans-101"/>
      <use x="349.169922" xlink:href="#DejaVuSans-114"/>
      <use x="390.283203" xlink:href="#DejaVuSans-32"/>
      <use x="422.070312" xlink:href="#DejaVuSans-111"/>
      <use x="483.251953" xlink:href="#DejaVuSans-102"/>
      <use x="518.457031" xlink:href="#DejaVuSans-32"/>
      <use x="550.244141" xlink:href="#DejaVuSans-99"/>
      <use x="605.224609" xlink:href="#DejaVuSans-104"/>
      <use x="668.603516" xlink:href="#DejaVuSans-117"/>
      <use x="731.982422" xlink:href="#DejaVuSans-110"/>
      <use x="795.361328" xlink:href="#DejaVuSans-107"/>
      <use x="853.271484" xlink:href="#DejaVuSans-32"/>
      <use x="885.058594" xlink:href="#DejaVuSans-40"/>
      <use x="924.072266" xlink:href="#DejaVuSans-102"/>
      <use x="959.277344" xlink:href="#DejaVuSans-114"/>
      <use x="1000.359375" xlink:href="#DejaVuSans-111"/>
      <use x="1061.541016" xlink:href="#DejaVuSans-109"/>
      <use x="1158.953125" xlink:href="#DejaVuSans-32"/>
      <use x="1190.740234" xlink:href="#DejaVuSans-98"/>
      <use x="1254.216797" xlink:href="#DejaVuSans-101"/>
      <use x="1315.740234" xlink:href="#DejaVuSans-103"/>
      <use x="1379.216797" xlink:href="#DejaVuSans-105"/>
      <use x="1407" xlink:href="#DejaVuSans-110"/>
      <use x="1470.378906" xlink:href="#DejaVuSans-110"/>
      <use x="1533.757812" xlink:href="#DejaVuSans-105"/>
      <use x="1561.541016" xlink:href="#DejaVuSans-110"/>
      <use x="1624.919922" xlink:href="#DejaVuSans-103"/>
      <use x="1688.396484" xlink:href="#DejaVuSans-32"/>
      <use x="1720.183594" xlink:href="#DejaVuSans-116"/>
      <use x="1759.392578" xlink:href="#DejaVuSans-111"/>
      <use x="1820.574219" xlink:href="#DejaVuSans-32"/>
      <use x="1852.361328" xlink:href="#DejaVuSans-101"/>
      <use x="1913.884766" xlink:href="#DejaVuSans-110"/>
      <use x="1977.263672" xlink:href="#DejaVuSans-100"/>
      <use x="2040.740234" xlink:href="#DejaVuSans-41"/>
     </g>
    </g>
   </g>
   <g id="matplotlib.axis_2">
    <g id="ytick_1">
     <g id="line2d_10">
      <defs>
       <path d="M 0 0 
L -3.5 0 
" id="mdcf26d2408" style="stroke:#000000;stroke-width:0.8;"/>
      </defs>
      <g>
       <use style="stroke:#000000;stroke-width:0.8;" x="50.14375" xlink:href="#mdcf26d2408" y="204.74"/>
      </g>
     </g>
     <g id="text_11">
      <!-- 0.0 -->
      <defs>
       <path d="M 10.6875 12.40625 
L 21 12.40625 
L 21 0 
L 10.6875 0 
z
" id="DejaVuSans-46"/>
      </defs>
      <g transform="translate(27.240625 208.539219)scale(0.1 -0.1)">
       <use xlink:href="#DejaVuSans-48"/>
       <use x="63.623047" xlink:href="#DejaVuSans-46"/>
       <use x="95.410156" xlink:href="#DejaVuSans-48"/>
      </g>
     </g>
    </g>
    <g id="ytick_2">
     <g id="line2d_11">
      <g>
       <use style="stroke:#000000;stroke-width:0.8;" x="50.14375" xlink:href="#mdcf26d2408" y="182.166747"/>
      </g>
     </g>
     <g id="text_12">
      <!-- 2.5 -->
      <g transform="translate(27.240625 185.965966)scale(0.1 -0.1)">
       <use xlink:href="#DejaVuSans-50"/>
       <use x="63.623047" xlink:href="#DejaVuSans-46"/>
       <use x="95.410156" xlink:href="#DejaVuSans-53"/>
      </g>
     </g>
    </g>
    <g id="ytick_3">
     <g id="line2d_12">
      <g>
       <use style="stroke:#000000;stroke-width:0.8;" x="50.14375" xlink:href="#mdcf26d2408" y="159.593494"/>
      </g>
     </g>
     <g id="text_13">
      <!-- 5.0 -->
      <g transform="translate(27.240625 163.392712)scale(0.1 -0.1)">
       <use xlink:href="#DejaVuSans-53"/>
       <use x="63.623047" xlink:href="#DejaVuSans-46"/>
       <use x="95.410156" xlink:href="#DejaVuSans-48"/>
      </g>
     </g>
    </g>
    <g id="ytick_4">
     <g id="line2d_13">
      <g>
       <use style="stroke:#000000;stroke-width:0.8;" x="50.14375" xlink:href="#mdcf26d2408" y="137.020241"/>
      </g>
     </g>
     <g id="text_14">
      <!-- 7.5 -->
      <g transform="translate(27.240625 140.819459)scale(0.1 -0.1)">
       <use xlink:href="#DejaVuSans-55"/>
       <use x="63.623047" xlink:href="#DejaVuSans-46"/>
       <use x="95.410156" xlink:href="#DejaVuSans-53"/>
      </g>
     </g>
    </g>
    <g id="ytick_5">
     <g id="line2d_14">
      <g>
       <use style="stroke:#000000;stroke-width:0.8;" x="50.14375" xlink:href="#mdcf26d2408" y="114.446987"/>
      </g>
     </g>
     <g id="text_15">
      <!-- 10.0 -->
      <g transform="translate(20.878125 118.246206)scale(0.1 -0.1)">
       <use xlink:href="#DejaVuSans-49"/>
       <use x="63.623047" xlink:href="#DejaVuSans-48"/>
       <use x="127.246094" xlink:href="#DejaVuSans-46"/>
       <use x="159.033203" xlink:href="#DejaVuSans-48"/>
      </g>
     </g>
    </g>
    <g id="ytick_6">
     <g id="line2d_15">
      <g>
       <use style="stroke:#000000;stroke-width:0.8;" x="50.14375" xlink:href="#mdcf26d2408" y="91.873734"/>
      </g>
     </g>
     <g id="text_16">
      <!-- 12.5 -->
      <g transform="translate(20.878125 95.672953)scale(0.1 -0.1)">
       <use xlink:href="#DejaVuSans-49"/>
       <use x="63.623047" xlink:href="#DejaVuSans-50"/>
       <use x="127.246094" xlink:href="#DejaVuSans-46"/>
       <use x="159.033203" xlink:href="#DejaVuSans-53"/>
      </g>
     </g>
    </g>
    <g id="ytick_7">
     <g id="line2d_16">
      <g>
       <use style="stroke:#000000;stroke-width:0.8;" x="50.14375" xlink:href="#mdcf26d2408" y="69.300481"/>
      </g>
     </g>
     <g id="text_17">
      <!-- 15.0 -->
      <g transform="translate(20.878125 73.0997)scale(0.1 -0.1)">
       <use xlink:href="#DejaVuSans-49"/>
       <use x="63.623047" xlink:href="#DejaVuSans-53"/>
       <use x="127.246094" xlink:href="#DejaVuSans-46"/>
       <use x="159.033203" xlink:href="#DejaVuSans-48"/>
      </g>
     </g>
    </g>
    <g id="ytick_8">
     <g id="line2d_17">
      <g>
       <use style="stroke:#000000;stroke-width:0.8;" x="50.14375" xlink:href="#mdcf26d2408" y="46.727228"/>
      </g>
     </g>
     <g id="text_18">
      <!-- 17.5 -->
      <g transform="translate(20.878125 50.526447)scale(0.1 -0.1)">
       <use xlink:href="#DejaVuSans-49"/>
       <use x="63.623047" xlink:href="#DejaVuSans-55"/>
       <use x="127.246094" xlink:href="#DejaVuSans-46"/>
       <use x="159.033203" xlink:href="#DejaVuSans-53"/>
      </g>
     </g>
    </g>
    <g id="ytick_9">
     <g id="line2d_18">
      <g>
       <use style="stroke:#000000;stroke-width:0.8;" x="50.14375" xlink:href="#mdcf26d2408" y="24.153975"/>
      </g>
     </g>
     <g id="text_19">
      <!-- 20.0 -->
      <g transform="translate(20.878125 27.953194)scale(0.1 -0.1)">
       <use xlink:href="#DejaVuSans-50"/>
       <use x="63.623047" xlink:href="#DejaVuSans-48"/>
       <use x="127.246094" xlink:href="#DejaVuSans-46"/>
       <use x="159.033203" xlink:href="#DejaVuSans-48"/>
      </g>
     </g>
    </g>
    <g id="text_20">
     <!-- GFI -->
     <defs>
      <path d="M 59.515625 10.40625 
L 59.515625 29.984375 
L 43.40625 29.984375 
L 43.40625 38.09375 
L 69.28125 38.09375 
L 69.28125 6.78125 
Q 63.578125 2.734375 56.6875 0.65625 
Q 49.8125 -1.421875 42 -1.421875 
Q 24.90625 -1.421875 15.25 8.5625 
Q 5.609375 18.5625 5.609375 36.375 
Q 5.609375 54.25 15.25 64.234375 
Q 24.90625 74.21875 42 74.21875 
Q 49.125 74.21875 55.546875 72.453125 
Q 61.96875 70.703125 67.390625 67.28125 
L 67.390625 56.78125 
Q 61.921875 61.421875 55.765625 63.765625 
Q 49.609375 66.109375 42.828125 66.109375 
Q 29.4375 66.109375 22.71875 58.640625 
Q 16.015625 51.171875 16.015625 36.375 
Q 16.015625 21.625 22.71875 14.15625 
Q 29.4375 6.6875 42.828125 6.6875 
Q 48.046875 6.6875 52.140625 7.59375 
Q 56.25 8.5 59.515625 10.40625 
z
" id="DejaVuSans-71"/>
      <path d="M 9.8125 72.90625 
L 51.703125 72.90625 
L 51.703125 64.59375 
L 19.671875 64.59375 
L 19.671875 43.109375 
L 48.578125 43.109375 
L 48.578125 34.8125 
L 19.671875 34.8125 
L 19.671875 0 
L 9.8125 0 
z
" id="DejaVuSans-70"/>
      <path d="M 9.8125 72.90625 
L 19.671875 72.90625 
L 19.671875 0 
L 9.8125 0 
z
" id="DejaVuSans-73"/>
     </defs>
     <g transform="translate(14.798438 115.945)rotate(-90)scale(0.1 -0.1)">
      <use xlink:href="#DejaVuSans-71"/>
      <use x="77.490234" xlink:href="#DejaVuSans-70"/>
      <use x="135.009766" xlink:href="#DejaVuSans-73"/>
     </g>
    </g>
   </g>
   <g id="patch_202">
    <path d="M 50.14375 204.74 
L 50.14375 10.7 
" style="fill:none;stroke:#000000;stroke-linecap:square;stroke-linejoin:miter;stroke-width:0.8;"/>
   </g>
   <g id="patch_203">
    <path d="M 440.74375 204.74 
L 440.74375 10.7 
" style="fill:none;stroke:#000000;stroke-linecap:square;stroke-linejoin:miter;stroke-width:0.8;"/>
   </g>
   <g id="patch_204">
    <path d="M 50.14375 204.74 
L 440.74375 204.74 
" style="fill:none;stroke:#000000;stroke-linecap:square;stroke-linejoin:miter;stroke-width:0.8;"/>
   </g>
   <g id="patch_205">
    <path d="M 50.14375 10.7 
L 440.74375 10.7 
" style="fill:none;stroke:#000000;stroke-linecap:square;stroke-linejoin:miter;stroke-width:0.8;"/>
   </g>
  </g>
 </g>
 <defs>
  <clipPath id="p907293d9ff">
   <rect height="194.04" width="390.6" x="50.14375" y="10.7"/>
  </clipPath>
 </defs>
</svg>
