<?xml version="1.0" encoding="utf-8" standalone="no"?>
<!DOCTYPE svg PUBLIC "-//W3C//DTD SVG 1.1//EN"
  "http://www.w3.org/Graphics/SVG/1.1/DTD/svg11.dtd">
<!-- Created with matplotlib (http://matplotlib.org/) -->
<svg height="252pt" version="1.1" viewBox="0 0 504 252" width="504pt" xmlns="http://www.w3.org/2000/svg" xmlns:xlink="http://www.w3.org/1999/xlink">
 <defs>
  <style type="text/css">
*{stroke-linecap:butt;stroke-linejoin:round;}
  </style>
 </defs>
 <g id="figure_1">
  <g id="patch_1">
   <path d="M 0 252 
L 504 252 
L 504 0 
L 0 0 
z
" style="fill:#ffffff;"/>
  </g>
  <g id="axes_1">
   <g id="patch_2">
    <path d="M 63 224.28 
L 453.6 224.28 
L 453.6 30.24 
L 63 30.24 
z
" style="fill:#ffffff;"/>
   </g>
   <g id="patch_3">
    <path clip-path="url(#p33818c92a7)" d="M 80.754545 224.28 
L 82.183483 224.28 
L 82.183483 79.485222 
L 80.754545 79.485222 
z
" style="fill:#1f77b4;"/>
   </g>
   <g id="patch_4">
    <path clip-path="url(#p33818c92a7)" d="M 82.540717 224.28 
L 83.969654 224.28 
L 83.969654 60.532719 
L 82.540717 60.532719 
z
" style="fill:#1f77b4;"/>
   </g>
   <g id="patch_5">
    <path clip-path="url(#p33818c92a7)" d="M 84.326889 224.28 
L 85.755826 224.28 
L 85.755826 71.208965 
L 84.326889 71.208965 
z
" style="fill:#1f77b4;"/>
   </g>
   <g id="patch_6">
    <path clip-path="url(#p33818c92a7)" d="M 86.11306 224.28 
L 87.541997 224.28 
L 87.541997 119.540105 
L 86.11306 119.540105 
z
" style="fill:#1f77b4;"/>
   </g>
   <g id="patch_7">
    <path clip-path="url(#p33818c92a7)" d="M 87.899232 224.28 
L 89.328169 224.28 
L 89.328169 102.992105 
L 87.899232 102.992105 
z
" style="fill:#1f77b4;"/>
   </g>
   <g id="patch_8">
    <path clip-path="url(#p33818c92a7)" d="M 89.685403 224.28 
L 91.114341 224.28 
L 91.114341 123.94821 
L 89.685403 123.94821 
z
" style="fill:#1f77b4;"/>
   </g>
   <g id="patch_9">
    <path clip-path="url(#p33818c92a7)" d="M 91.471575 224.28 
L 92.900512 224.28 
L 92.900512 107.099534 
L 91.471575 107.099534 
z
" style="fill:#1f77b4;"/>
   </g>
   <g id="patch_10">
    <path clip-path="url(#p33818c92a7)" d="M 93.257746 224.28 
L 94.686684 224.28 
L 94.686684 88.66441 
L 93.257746 88.66441 
z
" style="fill:#1f77b4;"/>
   </g>
   <g id="patch_11">
    <path clip-path="url(#p33818c92a7)" d="M 95.043918 224.28 
L 96.472855 224.28 
L 96.472855 130.097164 
L 95.043918 130.097164 
z
" style="fill:#1f77b4;"/>
   </g>
   <g id="patch_12">
    <path clip-path="url(#p33818c92a7)" d="M 96.83009 224.28 
L 98.259027 224.28 
L 98.259027 129.835315 
L 96.83009 129.835315 
z
" style="fill:#1f77b4;"/>
   </g>
   <g id="patch_13">
    <path clip-path="url(#p33818c92a7)" d="M 98.616261 224.28 
L 100.045198 224.28 
L 100.045198 122.124291 
L 98.616261 122.124291 
z
" style="fill:#1f77b4;"/>
   </g>
   <g id="patch_14">
    <path clip-path="url(#p33818c92a7)" d="M 100.402433 224.28 
L 101.83137 224.28 
L 101.83137 138.770711 
L 100.402433 138.770711 
z
" style="fill:#1f77b4;"/>
   </g>
   <g id="patch_15">
    <path clip-path="url(#p33818c92a7)" d="M 102.188604 224.28 
L 103.617542 224.28 
L 103.617542 129.257439 
L 102.188604 129.257439 
z
" style="fill:#1f77b4;"/>
   </g>
   <g id="patch_16">
    <path clip-path="url(#p33818c92a7)" d="M 103.974776 224.28 
L 105.403713 224.28 
L 105.403713 116.347345 
L 103.974776 116.347345 
z
" style="fill:#1f77b4;"/>
   </g>
   <g id="patch_17">
    <path clip-path="url(#p33818c92a7)" d="M 105.760948 224.28 
L 107.189885 224.28 
L 107.189885 103.109486 
L 105.760948 103.109486 
z
" style="fill:#1f77b4;"/>
   </g>
   <g id="patch_18">
    <path clip-path="url(#p33818c92a7)" d="M 107.547119 224.28 
L 108.976056 224.28 
L 108.976056 115.859762 
L 107.547119 115.859762 
z
" style="fill:#1f77b4;"/>
   </g>
   <g id="patch_19">
    <path clip-path="url(#p33818c92a7)" d="M 109.333291 224.28 
L 110.762228 224.28 
L 110.762228 116.792489 
L 109.333291 116.792489 
z
" style="fill:#1f77b4;"/>
   </g>
   <g id="patch_20">
    <path clip-path="url(#p33818c92a7)" d="M 111.119462 224.28 
L 112.548399 224.28 
L 112.548399 106.099088 
L 111.119462 106.099088 
z
" style="fill:#1f77b4;"/>
   </g>
   <g id="patch_21">
    <path clip-path="url(#p33818c92a7)" d="M 112.905634 224.28 
L 114.334571 224.28 
L 114.334571 105.38487 
L 112.905634 105.38487 
z
" style="fill:#1f77b4;"/>
   </g>
   <g id="patch_22">
    <path clip-path="url(#p33818c92a7)" d="M 114.691805 224.28 
L 116.120743 224.28 
L 116.120743 85.509572 
L 114.691805 85.509572 
z
" style="fill:#1f77b4;"/>
   </g>
   <g id="patch_23">
    <path clip-path="url(#p33818c92a7)" d="M 116.477977 224.28 
L 117.906914 224.28 
L 117.906914 127.124718 
L 116.477977 127.124718 
z
" style="fill:#1f77b4;"/>
   </g>
   <g id="patch_24">
    <path clip-path="url(#p33818c92a7)" d="M 118.264149 224.28 
L 119.693086 224.28 
L 119.693086 124.235342 
L 118.264149 124.235342 
z
" style="fill:#1f77b4;"/>
   </g>
   <g id="patch_25">
    <path clip-path="url(#p33818c92a7)" d="M 120.05032 224.28 
L 121.479257 224.28 
L 121.479257 107.93655 
L 120.05032 107.93655 
z
" style="fill:#1f77b4;"/>
   </g>
   <g id="patch_26">
    <path clip-path="url(#p33818c92a7)" d="M 121.836492 224.28 
L 123.265429 224.28 
L 123.265429 121.12836 
L 121.836492 121.12836 
z
" style="fill:#1f77b4;"/>
   </g>
   <g id="patch_27">
    <path clip-path="url(#p33818c92a7)" d="M 123.622663 224.28 
L 125.051601 224.28 
L 125.051601 99.935687 
L 123.622663 99.935687 
z
" style="fill:#1f77b4;"/>
   </g>
   <g id="patch_28">
    <path clip-path="url(#p33818c92a7)" d="M 125.408835 224.28 
L 126.837772 224.28 
L 126.837772 123.073271 
L 125.408835 123.073271 
z
" style="fill:#1f77b4;"/>
   </g>
   <g id="patch_29">
    <path clip-path="url(#p33818c92a7)" d="M 127.195006 224.28 
L 128.623944 224.28 
L 128.623944 124.546853 
L 127.195006 124.546853 
z
" style="fill:#1f77b4;"/>
   </g>
   <g id="patch_30">
    <path clip-path="url(#p33818c92a7)" d="M 128.981178 224.28 
L 130.410115 224.28 
L 130.410115 114.724779 
L 128.981178 114.724779 
z
" style="fill:#1f77b4;"/>
   </g>
   <g id="patch_31">
    <path clip-path="url(#p33818c92a7)" d="M 130.76735 224.28 
L 132.196287 224.28 
L 132.196287 108.89185 
L 130.76735 108.89185 
z
" style="fill:#1f77b4;"/>
   </g>
   <g id="patch_32">
    <path clip-path="url(#p33818c92a7)" d="M 132.553521 224.28 
L 133.982458 224.28 
L 133.982458 109.78846 
L 132.553521 109.78846 
z
" style="fill:#1f77b4;"/>
   </g>
   <g id="patch_33">
    <path clip-path="url(#p33818c92a7)" d="M 134.339693 224.28 
L 135.76863 224.28 
L 135.76863 129.628544 
L 134.339693 129.628544 
z
" style="fill:#1f77b4;"/>
   </g>
   <g id="patch_34">
    <path clip-path="url(#p33818c92a7)" d="M 136.125864 224.28 
L 137.554802 224.28 
L 137.554802 112.129758 
L 136.125864 112.129758 
z
" style="fill:#1f77b4;"/>
   </g>
   <g id="patch_35">
    <path clip-path="url(#p33818c92a7)" d="M 137.912036 224.28 
L 139.340973 224.28 
L 139.340973 127.260158 
L 137.912036 127.260158 
z
" style="fill:#1f77b4;"/>
   </g>
   <g id="patch_36">
    <path clip-path="url(#p33818c92a7)" d="M 139.698207 224.28 
L 141.127145 224.28 
L 141.127145 124.546853 
L 139.698207 124.546853 
z
" style="fill:#1f77b4;"/>
   </g>
   <g id="patch_37">
    <path clip-path="url(#p33818c92a7)" d="M 141.484379 224.28 
L 142.913316 224.28 
L 142.913316 103.902259 
L 141.484379 103.902259 
z
" style="fill:#1f77b4;"/>
   </g>
   <g id="patch_38">
    <path clip-path="url(#p33818c92a7)" d="M 143.270551 224.28 
L 144.699488 224.28 
L 144.699488 110.238119 
L 143.270551 110.238119 
z
" style="fill:#1f77b4;"/>
   </g>
   <g id="patch_39">
    <path clip-path="url(#p33818c92a7)" d="M 145.056722 224.28 
L 146.485659 224.28 
L 146.485659 92.937978 
L 145.056722 92.937978 
z
" style="fill:#1f77b4;"/>
   </g>
   <g id="patch_40">
    <path clip-path="url(#p33818c92a7)" d="M 146.842894 224.28 
L 148.271831 224.28 
L 148.271831 90.473882 
L 146.842894 90.473882 
z
" style="fill:#1f77b4;"/>
   </g>
   <g id="patch_41">
    <path clip-path="url(#p33818c92a7)" d="M 148.629065 224.28 
L 150.058003 224.28 
L 150.058003 74.479378 
L 148.629065 74.479378 
z
" style="fill:#1f77b4;"/>
   </g>
   <g id="patch_42">
    <path clip-path="url(#p33818c92a7)" d="M 150.415237 224.28 
L 151.844174 224.28 
L 151.844174 84.059466 
L 150.415237 84.059466 
z
" style="fill:#1f77b4;"/>
   </g>
   <g id="patch_43">
    <path clip-path="url(#p33818c92a7)" d="M 152.201408 224.28 
L 153.630346 224.28 
L 153.630346 79.69109 
L 152.201408 79.69109 
z
" style="fill:#1f77b4;"/>
   </g>
   <g id="patch_44">
    <path clip-path="url(#p33818c92a7)" d="M 153.98758 224.28 
L 155.416517 224.28 
L 155.416517 97.746081 
L 153.98758 97.746081 
z
" style="fill:#1f77b4;"/>
   </g>
   <g id="patch_45">
    <path clip-path="url(#p33818c92a7)" d="M 155.773752 224.28 
L 157.202689 224.28 
L 157.202689 107.682827 
L 155.773752 107.682827 
z
" style="fill:#1f77b4;"/>
   </g>
   <g id="patch_46">
    <path clip-path="url(#p33818c92a7)" d="M 157.559923 224.28 
L 158.98886 224.28 
L 158.98886 130.041183 
L 157.559923 130.041183 
z
" style="fill:#1f77b4;"/>
   </g>
   <g id="patch_47">
    <path clip-path="url(#p33818c92a7)" d="M 159.346095 224.28 
L 160.775032 224.28 
L 160.775032 110.06566 
L 159.346095 110.06566 
z
" style="fill:#1f77b4;"/>
   </g>
   <g id="patch_48">
    <path clip-path="url(#p33818c92a7)" d="M 161.132266 224.28 
L 162.561204 224.28 
L 162.561204 139.928268 
L 161.132266 139.928268 
z
" style="fill:#1f77b4;"/>
   </g>
   <g id="patch_49">
    <path clip-path="url(#p33818c92a7)" d="M 162.918438 224.28 
L 164.347375 224.28 
L 164.347375 116.585718 
L 162.918438 116.585718 
z
" style="fill:#1f77b4;"/>
   </g>
   <g id="patch_50">
    <path clip-path="url(#p33818c92a7)" d="M 164.704609 224.28 
L 166.133547 224.28 
L 166.133547 96.310422 
L 164.704609 96.310422 
z
" style="fill:#1f77b4;"/>
   </g>
   <g id="patch_51">
    <path clip-path="url(#p33818c92a7)" d="M 166.490781 224.28 
L 167.919718 224.28 
L 167.919718 133.400083 
L 166.490781 133.400083 
z
" style="fill:#1f77b4;"/>
   </g>
   <g id="patch_52">
    <path clip-path="url(#p33818c92a7)" d="M 168.276953 224.28 
L 169.70589 224.28 
L 169.70589 113.514853 
L 168.276953 113.514853 
z
" style="fill:#1f77b4;"/>
   </g>
   <g id="patch_53">
    <path clip-path="url(#p33818c92a7)" d="M 170.063124 224.28 
L 171.492061 224.28 
L 171.492061 92.379967 
L 170.063124 92.379967 
z
" style="fill:#1f77b4;"/>
   </g>
   <g id="patch_54">
    <path clip-path="url(#p33818c92a7)" d="M 171.849296 224.28 
L 173.278233 224.28 
L 173.278233 113.514853 
L 171.849296 113.514853 
z
" style="fill:#1f77b4;"/>
   </g>
   <g id="patch_55">
    <path clip-path="url(#p33818c92a7)" d="M 173.635467 224.28 
L 175.064405 224.28 
L 175.064405 121.905782 
L 173.635467 121.905782 
z
" style="fill:#1f77b4;"/>
   </g>
   <g id="patch_56">
    <path clip-path="url(#p33818c92a7)" d="M 175.421639 224.28 
L 176.850576 224.28 
L 176.850576 135.524677 
L 175.421639 135.524677 
z
" style="fill:#1f77b4;"/>
   </g>
   <g id="patch_57">
    <path clip-path="url(#p33818c92a7)" d="M 177.20781 224.28 
L 178.636748 224.28 
L 178.636748 107.377637 
L 177.20781 107.377637 
z
" style="fill:#1f77b4;"/>
   </g>
   <g id="patch_58">
    <path clip-path="url(#p33818c92a7)" d="M 178.993982 224.28 
L 180.422919 224.28 
L 180.422919 147.350353 
L 178.993982 147.350353 
z
" style="fill:#1f77b4;"/>
   </g>
   <g id="patch_59">
    <path clip-path="url(#p33818c92a7)" d="M 180.780154 224.28 
L 182.209091 224.28 
L 182.209091 107.059805 
L 180.780154 107.059805 
z
" style="fill:#1f77b4;"/>
   </g>
   <g id="patch_60">
    <path clip-path="url(#p33818c92a7)" d="M 182.566325 224.28 
L 183.995262 224.28 
L 183.995262 123.410064 
L 182.566325 123.410064 
z
" style="fill:#1f77b4;"/>
   </g>
   <g id="patch_61">
    <path clip-path="url(#p33818c92a7)" d="M 184.352497 224.28 
L 185.781434 224.28 
L 185.781434 101.259382 
L 184.352497 101.259382 
z
" style="fill:#1f77b4;"/>
   </g>
   <g id="patch_62">
    <path clip-path="url(#p33818c92a7)" d="M 186.138668 224.28 
L 187.567606 224.28 
L 187.567606 125.497638 
L 186.138668 125.497638 
z
" style="fill:#1f77b4;"/>
   </g>
   <g id="patch_63">
    <path clip-path="url(#p33818c92a7)" d="M 187.92484 224.28 
L 189.353777 224.28 
L 189.353777 114.955929 
L 187.92484 114.955929 
z
" style="fill:#1f77b4;"/>
   </g>
   <g id="patch_64">
    <path clip-path="url(#p33818c92a7)" d="M 189.711012 224.28 
L 191.139949 224.28 
L 191.139949 118.164943 
L 189.711012 118.164943 
z
" style="fill:#1f77b4;"/>
   </g>
   <g id="patch_65">
    <path clip-path="url(#p33818c92a7)" d="M 191.497183 224.28 
L 192.92612 224.28 
L 192.92612 118.799703 
L 191.497183 118.799703 
z
" style="fill:#1f77b4;"/>
   </g>
   <g id="patch_66">
    <path clip-path="url(#p33818c92a7)" d="M 193.283355 224.28 
L 194.712292 224.28 
L 194.712292 125.162651 
L 193.283355 125.162651 
z
" style="fill:#1f77b4;"/>
   </g>
   <g id="patch_67">
    <path clip-path="url(#p33818c92a7)" d="M 195.069526 224.28 
L 196.498464 224.28 
L 196.498464 88.381793 
L 195.069526 88.381793 
z
" style="fill:#1f77b4;"/>
   </g>
   <g id="patch_68">
    <path clip-path="url(#p33818c92a7)" d="M 196.855698 224.28 
L 198.284635 224.28 
L 198.284635 109.866112 
L 196.855698 109.866112 
z
" style="fill:#1f77b4;"/>
   </g>
   <g id="patch_69">
    <path clip-path="url(#p33818c92a7)" d="M 198.641869 224.28 
L 200.070807 224.28 
L 200.070807 106.311276 
L 198.641869 106.311276 
z
" style="fill:#1f77b4;"/>
   </g>
   <g id="patch_70">
    <path clip-path="url(#p33818c92a7)" d="M 200.428041 224.28 
L 201.856978 224.28 
L 201.856978 110.199293 
L 200.428041 110.199293 
z
" style="fill:#1f77b4;"/>
   </g>
   <g id="patch_71">
    <path clip-path="url(#p33818c92a7)" d="M 202.214213 224.28 
L 203.64315 224.28 
L 203.64315 88.785402 
L 202.214213 88.785402 
z
" style="fill:#1f77b4;"/>
   </g>
   <g id="patch_72">
    <path clip-path="url(#p33818c92a7)" d="M 204.000384 224.28 
L 205.429321 224.28 
L 205.429321 78.300578 
L 204.000384 78.300578 
z
" style="fill:#1f77b4;"/>
   </g>
   <g id="patch_73">
    <path clip-path="url(#p33818c92a7)" d="M 205.786556 224.28 
L 207.215493 224.28 
L 207.215493 105.38487 
L 205.786556 105.38487 
z
" style="fill:#1f77b4;"/>
   </g>
   <g id="patch_74">
    <path clip-path="url(#p33818c92a7)" d="M 207.572727 224.28 
L 209.001665 224.28 
L 209.001665 84.678876 
L 207.572727 84.678876 
z
" style="fill:#1f77b4;"/>
   </g>
   <g id="patch_75">
    <path clip-path="url(#p33818c92a7)" d="M 209.358899 224.28 
L 210.787836 224.28 
L 210.787836 98.209284 
L 209.358899 98.209284 
z
" style="fill:#1f77b4;"/>
   </g>
   <g id="patch_76">
    <path clip-path="url(#p33818c92a7)" d="M 211.14507 224.28 
L 212.574008 224.28 
L 212.574008 133.611369 
L 211.14507 133.611369 
z
" style="fill:#1f77b4;"/>
   </g>
   <g id="patch_77">
    <path clip-path="url(#p33818c92a7)" d="M 212.931242 224.28 
L 214.360179 224.28 
L 214.360179 145.000929 
L 212.931242 145.000929 
z
" style="fill:#1f77b4;"/>
   </g>
   <g id="patch_78">
    <path clip-path="url(#p33818c92a7)" d="M 214.717414 224.28 
L 216.146351 224.28 
L 216.146351 136.916093 
L 214.717414 136.916093 
z
" style="fill:#1f77b4;"/>
   </g>
   <g id="patch_79">
    <path clip-path="url(#p33818c92a7)" d="M 216.503585 224.28 
L 217.932522 224.28 
L 217.932522 103.407453 
L 216.503585 103.407453 
z
" style="fill:#1f77b4;"/>
   </g>
   <g id="patch_80">
    <path clip-path="url(#p33818c92a7)" d="M 218.289757 224.28 
L 219.718694 224.28 
L 219.718694 87.173672 
L 218.289757 87.173672 
z
" style="fill:#1f77b4;"/>
   </g>
   <g id="patch_81">
    <path clip-path="url(#p33818c92a7)" d="M 220.075928 224.28 
L 221.504866 224.28 
L 221.504866 116.140574 
L 220.075928 116.140574 
z
" style="fill:#1f77b4;"/>
   </g>
   <g id="patch_82">
    <path clip-path="url(#p33818c92a7)" d="M 221.8621 224.28 
L 223.291037 224.28 
L 223.291037 107.808334 
L 221.8621 107.808334 
z
" style="fill:#1f77b4;"/>
   </g>
   <g id="patch_83">
    <path clip-path="url(#p33818c92a7)" d="M 223.648271 224.28 
L 225.077209 224.28 
L 225.077209 103.251246 
L 223.648271 103.251246 
z
" style="fill:#1f77b4;"/>
   </g>
   <g id="patch_84">
    <path clip-path="url(#p33818c92a7)" d="M 225.434443 224.28 
L 226.86338 224.28 
L 226.86338 117.846209 
L 225.434443 117.846209 
z
" style="fill:#1f77b4;"/>
   </g>
   <g id="patch_85">
    <path clip-path="url(#p33818c92a7)" d="M 227.220615 224.28 
L 228.649552 224.28 
L 228.649552 89.562825 
L 227.220615 89.562825 
z
" style="fill:#1f77b4;"/>
   </g>
   <g id="patch_86">
    <path clip-path="url(#p33818c92a7)" d="M 229.006786 224.28 
L 230.435723 224.28 
L 230.435723 95.707265 
L 229.006786 95.707265 
z
" style="fill:#1f77b4;"/>
   </g>
   <g id="patch_87">
    <path clip-path="url(#p33818c92a7)" d="M 230.792958 224.28 
L 232.221895 224.28 
L 232.221895 120.606466 
L 230.792958 120.606466 
z
" style="fill:#1f77b4;"/>
   </g>
   <g id="patch_88">
    <path clip-path="url(#p33818c92a7)" d="M 232.579129 224.28 
L 234.008067 224.28 
L 234.008067 131.177972 
L 232.579129 131.177972 
z
" style="fill:#1f77b4;"/>
   </g>
   <g id="patch_89">
    <path clip-path="url(#p33818c92a7)" d="M 234.365301 224.28 
L 235.794238 224.28 
L 235.794238 96.657147 
L 234.365301 96.657147 
z
" style="fill:#1f77b4;"/>
   </g>
   <g id="patch_90">
    <path clip-path="url(#p33818c92a7)" d="M 236.151472 224.28 
L 237.58041 224.28 
L 237.58041 87.690148 
L 236.151472 87.690148 
z
" style="fill:#1f77b4;"/>
   </g>
   <g id="patch_91">
    <path clip-path="url(#p33818c92a7)" d="M 237.937644 224.28 
L 239.366581 224.28 
L 239.366581 131.135534 
L 237.937644 131.135534 
z
" style="fill:#1f77b4;"/>
   </g>
   <g id="patch_92">
    <path clip-path="url(#p33818c92a7)" d="M 239.723816 224.28 
L 241.152753 224.28 
L 241.152753 122.015037 
L 239.723816 122.015037 
z
" style="fill:#1f77b4;"/>
   </g>
   <g id="patch_93">
    <path clip-path="url(#p33818c92a7)" d="M 241.509987 224.28 
L 242.938924 224.28 
L 242.938924 104.657108 
L 241.509987 104.657108 
z
" style="fill:#1f77b4;"/>
   </g>
   <g id="patch_94">
    <path clip-path="url(#p33818c92a7)" d="M 243.296159 224.28 
L 244.725096 224.28 
L 244.725096 124.219089 
L 243.296159 124.219089 
z
" style="fill:#1f77b4;"/>
   </g>
   <g id="patch_95">
    <path clip-path="url(#p33818c92a7)" d="M 245.08233 224.28 
L 246.511268 224.28 
L 246.511268 123.782974 
L 245.08233 123.782974 
z
" style="fill:#1f77b4;"/>
   </g>
   <g id="patch_96">
    <path clip-path="url(#p33818c92a7)" d="M 246.868502 224.28 
L 248.297439 224.28 
L 248.297439 105.225954 
L 246.868502 105.225954 
z
" style="fill:#1f77b4;"/>
   </g>
   <g id="patch_97">
    <path clip-path="url(#p33818c92a7)" d="M 248.654673 224.28 
L 250.083611 224.28 
L 250.083611 133.739585 
L 248.654673 133.739585 
z
" style="fill:#1f77b4;"/>
   </g>
   <g id="patch_98">
    <path clip-path="url(#p33818c92a7)" d="M 250.440845 224.28 
L 251.869782 224.28 
L 251.869782 146.906112 
L 250.440845 146.906112 
z
" style="fill:#1f77b4;"/>
   </g>
   <g id="patch_99">
    <path clip-path="url(#p33818c92a7)" d="M 252.227017 224.28 
L 253.655954 224.28 
L 253.655954 79.766936 
L 252.227017 79.766936 
z
" style="fill:#1f77b4;"/>
   </g>
   <g id="patch_100">
    <path clip-path="url(#p33818c92a7)" d="M 254.013188 224.28 
L 255.442125 224.28 
L 255.442125 85.312733 
L 254.013188 85.312733 
z
" style="fill:#1f77b4;"/>
   </g>
   <g id="patch_101">
    <path clip-path="url(#p33818c92a7)" d="M 255.79936 224.28 
L 257.228297 224.28 
L 257.228297 112.677836 
L 255.79936 112.677836 
z
" style="fill:#1f77b4;"/>
   </g>
   <g id="patch_102">
    <path clip-path="url(#p33818c92a7)" d="M 257.585531 224.28 
L 259.014469 224.28 
L 259.014469 98.886482 
L 257.585531 98.886482 
z
" style="fill:#1f77b4;"/>
   </g>
   <g id="patch_103">
    <path clip-path="url(#p33818c92a7)" d="M 259.371703 224.28 
L 260.80064 224.28 
L 260.80064 71.031087 
L 259.371703 71.031087 
z
" style="fill:#1f77b4;"/>
   </g>
   <g id="patch_104">
    <path clip-path="url(#p33818c92a7)" d="M 261.157875 224.28 
L 262.586812 224.28 
L 262.586812 69.350734 
L 261.157875 69.350734 
z
" style="fill:#1f77b4;"/>
   </g>
   <g id="patch_105">
    <path clip-path="url(#p33818c92a7)" d="M 262.944046 224.28 
L 264.372983 224.28 
L 264.372983 92.387191 
L 262.944046 92.387191 
z
" style="fill:#1f77b4;"/>
   </g>
   <g id="patch_106">
    <path clip-path="url(#p33818c92a7)" d="M 264.730218 224.28 
L 266.159155 224.28 
L 266.159155 113.442618 
L 264.730218 113.442618 
z
" style="fill:#1f77b4;"/>
   </g>
   <g id="patch_107">
    <path clip-path="url(#p33818c92a7)" d="M 266.516389 224.28 
L 267.945327 224.28 
L 267.945327 89.134836 
L 266.516389 89.134836 
z
" style="fill:#1f77b4;"/>
   </g>
   <g id="patch_108">
    <path clip-path="url(#p33818c92a7)" d="M 268.302561 224.28 
L 269.731498 224.28 
L 269.731498 93.683798 
L 268.302561 93.683798 
z
" style="fill:#1f77b4;"/>
   </g>
   <g id="patch_109">
    <path clip-path="url(#p33818c92a7)" d="M 270.088732 224.28 
L 271.51767 224.28 
L 271.51767 118.85749 
L 270.088732 118.85749 
z
" style="fill:#1f77b4;"/>
   </g>
   <g id="patch_110">
    <path clip-path="url(#p33818c92a7)" d="M 271.874904 224.28 
L 273.303841 224.28 
L 273.303841 89.562825 
L 271.874904 89.562825 
z
" style="fill:#1f77b4;"/>
   </g>
   <g id="patch_111">
    <path clip-path="url(#p33818c92a7)" d="M 273.661076 224.28 
L 275.090013 224.28 
L 275.090013 104.15237 
L 273.661076 104.15237 
z
" style="fill:#1f77b4;"/>
   </g>
   <g id="patch_112">
    <path clip-path="url(#p33818c92a7)" d="M 275.447247 224.28 
L 276.876184 224.28 
L 276.876184 92.624661 
L 275.447247 92.624661 
z
" style="fill:#1f77b4;"/>
   </g>
   <g id="patch_113">
    <path clip-path="url(#p33818c92a7)" d="M 277.233419 224.28 
L 278.662356 224.28 
L 278.662356 112.319373 
L 277.233419 112.319373 
z
" style="fill:#1f77b4;"/>
   </g>
   <g id="patch_114">
    <path clip-path="url(#p33818c92a7)" d="M 279.01959 224.28 
L 280.448528 224.28 
L 280.448528 126.079125 
L 279.01959 126.079125 
z
" style="fill:#1f77b4;"/>
   </g>
   <g id="patch_115">
    <path clip-path="url(#p33818c92a7)" d="M 280.805762 224.28 
L 282.234699 224.28 
L 282.234699 114.608301 
L 280.805762 114.608301 
z
" style="fill:#1f77b4;"/>
   </g>
   <g id="patch_116">
    <path clip-path="url(#p33818c92a7)" d="M 282.591933 224.28 
L 284.020871 224.28 
L 284.020871 100.629137 
L 282.591933 100.629137 
z
" style="fill:#1f77b4;"/>
   </g>
   <g id="patch_117">
    <path clip-path="url(#p33818c92a7)" d="M 284.378105 224.28 
L 285.807042 224.28 
L 285.807042 106.615564 
L 284.378105 106.615564 
z
" style="fill:#1f77b4;"/>
   </g>
   <g id="patch_118">
    <path clip-path="url(#p33818c92a7)" d="M 286.164277 224.28 
L 287.593214 224.28 
L 287.593214 118.266071 
L 286.164277 118.266071 
z
" style="fill:#1f77b4;"/>
   </g>
   <g id="patch_119">
    <path clip-path="url(#p33818c92a7)" d="M 287.950448 224.28 
L 289.379385 224.28 
L 289.379385 108.261605 
L 287.950448 108.261605 
z
" style="fill:#1f77b4;"/>
   </g>
   <g id="patch_120">
    <path clip-path="url(#p33818c92a7)" d="M 289.73662 224.28 
L 291.165557 224.28 
L 291.165557 115.727934 
L 289.73662 115.727934 
z
" style="fill:#1f77b4;"/>
   </g>
   <g id="patch_121">
    <path clip-path="url(#p33818c92a7)" d="M 291.522791 224.28 
L 292.951729 224.28 
L 292.951729 83.46895 
L 291.522791 83.46895 
z
" style="fill:#1f77b4;"/>
   </g>
   <g id="patch_122">
    <path clip-path="url(#p33818c92a7)" d="M 293.308963 224.28 
L 294.7379 224.28 
L 294.7379 113.254809 
L 293.308963 113.254809 
z
" style="fill:#1f77b4;"/>
   </g>
   <g id="patch_123">
    <path clip-path="url(#p33818c92a7)" d="M 295.095134 224.28 
L 296.524072 224.28 
L 296.524072 101.223265 
L 295.095134 101.223265 
z
" style="fill:#1f77b4;"/>
   </g>
   <g id="patch_124">
    <path clip-path="url(#p33818c92a7)" d="M 296.881306 224.28 
L 298.310243 224.28 
L 298.310243 109.932026 
L 296.881306 109.932026 
z
" style="fill:#1f77b4;"/>
   </g>
   <g id="patch_125">
    <path clip-path="url(#p33818c92a7)" d="M 298.667478 224.28 
L 300.096415 224.28 
L 300.096415 93.195313 
L 298.667478 93.195313 
z
" style="fill:#1f77b4;"/>
   </g>
   <g id="patch_126">
    <path clip-path="url(#p33818c92a7)" d="M 300.453649 224.28 
L 301.882586 224.28 
L 301.882586 88.43958 
L 300.453649 88.43958 
z
" style="fill:#1f77b4;"/>
   </g>
   <g id="patch_127">
    <path clip-path="url(#p33818c92a7)" d="M 302.239821 224.28 
L 303.668758 224.28 
L 303.668758 107.059805 
L 302.239821 107.059805 
z
" style="fill:#1f77b4;"/>
   </g>
   <g id="patch_128">
    <path clip-path="url(#p33818c92a7)" d="M 304.025992 224.28 
L 305.45493 224.28 
L 305.45493 114.608301 
L 304.025992 114.608301 
z
" style="fill:#1f77b4;"/>
   </g>
   <g id="patch_129">
    <path clip-path="url(#p33818c92a7)" d="M 305.812164 224.28 
L 307.241101 224.28 
L 307.241101 88.840481 
L 305.812164 88.840481 
z
" style="fill:#1f77b4;"/>
   </g>
   <g id="patch_130">
    <path clip-path="url(#p33818c92a7)" d="M 307.598335 224.28 
L 309.027273 224.28 
L 309.027273 93.054456 
L 307.598335 93.054456 
z
" style="fill:#1f77b4;"/>
   </g>
   <g id="patch_131">
    <path clip-path="url(#p33818c92a7)" d="M 309.384507 224.28 
L 310.813444 224.28 
L 310.813444 94.990338 
L 309.384507 94.990338 
z
" style="fill:#1f77b4;"/>
   </g>
   <g id="patch_132">
    <path clip-path="url(#p33818c92a7)" d="M 311.170679 224.28 
L 312.599616 224.28 
L 312.599616 121.85883 
L 311.170679 121.85883 
z
" style="fill:#1f77b4;"/>
   </g>
   <g id="patch_133">
    <path clip-path="url(#p33818c92a7)" d="M 312.95685 224.28 
L 314.385787 224.28 
L 314.385787 97.028252 
L 312.95685 97.028252 
z
" style="fill:#1f77b4;"/>
   </g>
   <g id="patch_134">
    <path clip-path="url(#p33818c92a7)" d="M 314.743022 224.28 
L 316.171959 224.28 
L 316.171959 98.680614 
L 314.743022 98.680614 
z
" style="fill:#1f77b4;"/>
   </g>
   <g id="patch_135">
    <path clip-path="url(#p33818c92a7)" d="M 316.529193 224.28 
L 317.958131 224.28 
L 317.958131 118.85749 
L 316.529193 118.85749 
z
" style="fill:#1f77b4;"/>
   </g>
   <g id="patch_136">
    <path clip-path="url(#p33818c92a7)" d="M 318.315365 224.28 
L 319.744302 224.28 
L 319.744302 119.737847 
L 318.315365 119.737847 
z
" style="fill:#1f77b4;"/>
   </g>
   <g id="patch_137">
    <path clip-path="url(#p33818c92a7)" d="M 320.101536 224.28 
L 321.530474 224.28 
L 321.530474 104.509028 
L 320.101536 104.509028 
z
" style="fill:#1f77b4;"/>
   </g>
   <g id="patch_138">
    <path clip-path="url(#p33818c92a7)" d="M 321.887708 224.28 
L 323.316645 224.28 
L 323.316645 122.048445 
L 321.887708 122.048445 
z
" style="fill:#1f77b4;"/>
   </g>
   <g id="patch_139">
    <path clip-path="url(#p33818c92a7)" d="M 323.67388 224.28 
L 325.102817 224.28 
L 325.102817 127.124718 
L 323.67388 127.124718 
z
" style="fill:#1f77b4;"/>
   </g>
   <g id="patch_140">
    <path clip-path="url(#p33818c92a7)" d="M 325.460051 224.28 
L 326.888988 224.28 
L 326.888988 126.355422 
L 325.460051 126.355422 
z
" style="fill:#1f77b4;"/>
   </g>
   <g id="patch_141">
    <path clip-path="url(#p33818c92a7)" d="M 327.246223 224.28 
L 328.67516 224.28 
L 328.67516 146.638844 
L 327.246223 146.638844 
z
" style="fill:#1f77b4;"/>
   </g>
   <g id="patch_142">
    <path clip-path="url(#p33818c92a7)" d="M 329.032394 224.28 
L 330.461332 224.28 
L 330.461332 112.015989 
L 329.032394 112.015989 
z
" style="fill:#1f77b4;"/>
   </g>
   <g id="patch_143">
    <path clip-path="url(#p33818c92a7)" d="M 330.818566 224.28 
L 332.247503 224.28 
L 332.247503 109.990716 
L 330.818566 109.990716 
z
" style="fill:#1f77b4;"/>
   </g>
   <g id="patch_144">
    <path clip-path="url(#p33818c92a7)" d="M 332.604738 224.28 
L 334.033675 224.28 
L 334.033675 94.640904 
L 332.604738 94.640904 
z
" style="fill:#1f77b4;"/>
   </g>
   <g id="patch_145">
    <path clip-path="url(#p33818c92a7)" d="M 334.390909 224.28 
L 335.819846 224.28 
L 335.819846 105.580806 
L 334.390909 105.580806 
z
" style="fill:#1f77b4;"/>
   </g>
   <g id="patch_146">
    <path clip-path="url(#p33818c92a7)" d="M 336.177081 224.28 
L 337.606018 224.28 
L 337.606018 114.324781 
L 336.177081 114.324781 
z
" style="fill:#1f77b4;"/>
   </g>
   <g id="patch_147">
    <path clip-path="url(#p33818c92a7)" d="M 337.963252 224.28 
L 339.39219 224.28 
L 339.39219 140.414947 
L 337.963252 140.414947 
z
" style="fill:#1f77b4;"/>
   </g>
   <g id="patch_148">
    <path clip-path="url(#p33818c92a7)" d="M 339.749424 224.28 
L 341.178361 224.28 
L 341.178361 117.002872 
L 339.749424 117.002872 
z
" style="fill:#1f77b4;"/>
   </g>
   <g id="patch_149">
    <path clip-path="url(#p33818c92a7)" d="M 341.535595 224.28 
L 342.964533 224.28 
L 342.964533 127.367607 
L 341.535595 127.367607 
z
" style="fill:#1f77b4;"/>
   </g>
   <g id="patch_150">
    <path clip-path="url(#p33818c92a7)" d="M 343.321767 224.28 
L 344.750704 224.28 
L 344.750704 83.314549 
L 343.321767 83.314549 
z
" style="fill:#1f77b4;"/>
   </g>
   <g id="patch_151">
    <path clip-path="url(#p33818c92a7)" d="M 345.107939 224.28 
L 346.536876 224.28 
L 346.536876 103.316257 
L 345.107939 103.316257 
z
" style="fill:#1f77b4;"/>
   </g>
   <g id="patch_152">
    <path clip-path="url(#p33818c92a7)" d="M 346.89411 224.28 
L 348.323047 224.28 
L 348.323047 116.530639 
L 346.89411 116.530639 
z
" style="fill:#1f77b4;"/>
   </g>
   <g id="patch_153">
    <path clip-path="url(#p33818c92a7)" d="M 348.680282 224.28 
L 350.109219 224.28 
L 350.109219 128.239837 
L 348.680282 128.239837 
z
" style="fill:#1f77b4;"/>
   </g>
   <g id="patch_154">
    <path clip-path="url(#p33818c92a7)" d="M 350.466453 224.28 
L 351.895391 224.28 
L 351.895391 85.228761 
L 350.466453 85.228761 
z
" style="fill:#1f77b4;"/>
   </g>
   <g id="patch_155">
    <path clip-path="url(#p33818c92a7)" d="M 352.252625 224.28 
L 353.681562 224.28 
L 353.681562 114.583922 
L 352.252625 114.583922 
z
" style="fill:#1f77b4;"/>
   </g>
   <g id="patch_156">
    <path clip-path="url(#p33818c92a7)" d="M 354.038796 224.28 
L 355.467734 224.28 
L 355.467734 119.364937 
L 354.038796 119.364937 
z
" style="fill:#1f77b4;"/>
   </g>
   <g id="patch_157">
    <path clip-path="url(#p33818c92a7)" d="M 355.824968 224.28 
L 357.253905 224.28 
L 357.253905 116.792489 
L 355.824968 116.792489 
z
" style="fill:#1f77b4;"/>
   </g>
   <g id="patch_158">
    <path clip-path="url(#p33818c92a7)" d="M 357.61114 224.28 
L 359.040077 224.28 
L 359.040077 95.956473 
L 357.61114 95.956473 
z
" style="fill:#1f77b4;"/>
   </g>
   <g id="patch_159">
    <path clip-path="url(#p33818c92a7)" d="M 359.397311 224.28 
L 360.826248 224.28 
L 360.826248 91.047242 
L 359.397311 91.047242 
z
" style="fill:#1f77b4;"/>
   </g>
   <g id="patch_160">
    <path clip-path="url(#p33818c92a7)" d="M 361.183483 224.28 
L 362.61242 224.28 
L 362.61242 129.257439 
L 361.183483 129.257439 
z
" style="fill:#1f77b4;"/>
   </g>
   <g id="patch_161">
    <path clip-path="url(#p33818c92a7)" d="M 362.969654 224.28 
L 364.398592 224.28 
L 364.398592 132.128757 
L 362.969654 132.128757 
z
" style="fill:#1f77b4;"/>
   </g>
   <g id="patch_162">
    <path clip-path="url(#p33818c92a7)" d="M 364.755826 224.28 
L 366.184763 224.28 
L 366.184763 103.067951 
L 364.755826 103.067951 
z
" style="fill:#1f77b4;"/>
   </g>
   <g id="patch_163">
    <path clip-path="url(#p33818c92a7)" d="M 366.541997 224.28 
L 367.970935 224.28 
L 367.970935 127.244808 
L 366.541997 127.244808 
z
" style="fill:#1f77b4;"/>
   </g>
   <g id="patch_164">
    <path clip-path="url(#p33818c92a7)" d="M 368.328169 224.28 
L 369.757106 224.28 
L 369.757106 65.259558 
L 368.328169 65.259558 
z
" style="fill:#1f77b4;"/>
   </g>
   <g id="patch_165">
    <path clip-path="url(#p33818c92a7)" d="M 370.114341 224.28 
L 371.543278 224.28 
L 371.543278 98.800703 
L 370.114341 98.800703 
z
" style="fill:#1f77b4;"/>
   </g>
   <g id="patch_166">
    <path clip-path="url(#p33818c92a7)" d="M 371.900512 224.28 
L 373.329449 224.28 
L 373.329449 99.86887 
L 371.900512 99.86887 
z
" style="fill:#1f77b4;"/>
   </g>
   <g id="patch_167">
    <path clip-path="url(#p33818c92a7)" d="M 373.686684 224.28 
L 375.115621 224.28 
L 375.115621 116.965852 
L 373.686684 116.965852 
z
" style="fill:#1f77b4;"/>
   </g>
   <g id="patch_168">
    <path clip-path="url(#p33818c92a7)" d="M 375.472855 224.28 
L 376.901793 224.28 
L 376.901793 101.268411 
L 375.472855 101.268411 
z
" style="fill:#1f77b4;"/>
   </g>
   <g id="patch_169">
    <path clip-path="url(#p33818c92a7)" d="M 377.259027 224.28 
L 378.687964 224.28 
L 378.687964 101.79482 
L 377.259027 101.79482 
z
" style="fill:#1f77b4;"/>
   </g>
   <g id="patch_170">
    <path clip-path="url(#p33818c92a7)" d="M 379.045198 224.28 
L 380.474136 224.28 
L 380.474136 129.633058 
L 379.045198 129.633058 
z
" style="fill:#1f77b4;"/>
   </g>
   <g id="patch_171">
    <path clip-path="url(#p33818c92a7)" d="M 380.83137 224.28 
L 382.260307 224.28 
L 382.260307 105.426405 
L 380.83137 105.426405 
z
" style="fill:#1f77b4;"/>
   </g>
   <g id="patch_172">
    <path clip-path="url(#p33818c92a7)" d="M 382.617542 224.28 
L 384.046479 224.28 
L 384.046479 94.108176 
L 382.617542 94.108176 
z
" style="fill:#1f77b4;"/>
   </g>
   <g id="patch_173">
    <path clip-path="url(#p33818c92a7)" d="M 384.403713 224.28 
L 385.83265 224.28 
L 385.83265 97.049922 
L 384.403713 97.049922 
z
" style="fill:#1f77b4;"/>
   </g>
   <g id="patch_174">
    <path clip-path="url(#p33818c92a7)" d="M 386.189885 224.28 
L 387.618822 224.28 
L 387.618822 90.914512 
L 386.189885 90.914512 
z
" style="fill:#1f77b4;"/>
   </g>
   <g id="patch_175">
    <path clip-path="url(#p33818c92a7)" d="M 387.976056 224.28 
L 389.404994 224.28 
L 389.404994 96.434124 
L 387.976056 96.434124 
z
" style="fill:#1f77b4;"/>
   </g>
   <g id="patch_176">
    <path clip-path="url(#p33818c92a7)" d="M 389.762228 224.28 
L 391.191165 224.28 
L 391.191165 93.059874 
L 389.762228 93.059874 
z
" style="fill:#1f77b4;"/>
   </g>
   <g id="patch_177">
    <path clip-path="url(#p33818c92a7)" d="M 391.548399 224.28 
L 392.977337 224.28 
L 392.977337 94.345646 
L 391.548399 94.345646 
z
" style="fill:#1f77b4;"/>
   </g>
   <g id="patch_178">
    <path clip-path="url(#p33818c92a7)" d="M 393.334571 224.28 
L 394.763508 224.28 
L 394.763508 78.00532 
L 393.334571 78.00532 
z
" style="fill:#1f77b4;"/>
   </g>
   <g id="patch_179">
    <path clip-path="url(#p33818c92a7)" d="M 395.120743 224.28 
L 396.54968 224.28 
L 396.54968 95.322617 
L 395.120743 95.322617 
z
" style="fill:#1f77b4;"/>
   </g>
   <g id="patch_180">
    <path clip-path="url(#p33818c92a7)" d="M 396.906914 224.28 
L 398.335851 224.28 
L 398.335851 104.320315 
L 396.906914 104.320315 
z
" style="fill:#1f77b4;"/>
   </g>
   <g id="patch_181">
    <path clip-path="url(#p33818c92a7)" d="M 398.693086 224.28 
L 400.122023 224.28 
L 400.122023 91.082457 
L 398.693086 91.082457 
z
" style="fill:#1f77b4;"/>
   </g>
   <g id="patch_182">
    <path clip-path="url(#p33818c92a7)" d="M 400.479257 224.28 
L 401.908195 224.28 
L 401.908195 75.733547 
L 400.479257 75.733547 
z
" style="fill:#1f77b4;"/>
   </g>
   <g id="patch_183">
    <path clip-path="url(#p33818c92a7)" d="M 402.265429 224.28 
L 403.694366 224.28 
L 403.694366 80.894696 
L 402.265429 80.894696 
z
" style="fill:#1f77b4;"/>
   </g>
   <g id="patch_184">
    <path clip-path="url(#p33818c92a7)" d="M 404.051601 224.28 
L 405.480538 224.28 
L 405.480538 61.376056 
L 404.051601 61.376056 
z
" style="fill:#1f77b4;"/>
   </g>
   <g id="patch_185">
    <path clip-path="url(#p33818c92a7)" d="M 405.837772 224.28 
L 407.266709 224.28 
L 407.266709 95.429162 
L 405.837772 95.429162 
z
" style="fill:#1f77b4;"/>
   </g>
   <g id="patch_186">
    <path clip-path="url(#p33818c92a7)" d="M 407.623944 224.28 
L 409.052881 224.28 
L 409.052881 107.805626 
L 407.623944 107.805626 
z
" style="fill:#1f77b4;"/>
   </g>
   <g id="patch_187">
    <path clip-path="url(#p33818c92a7)" d="M 409.410115 224.28 
L 410.839052 224.28 
L 410.839052 132.892636 
L 409.410115 132.892636 
z
" style="fill:#1f77b4;"/>
   </g>
   <g id="patch_188">
    <path clip-path="url(#p33818c92a7)" d="M 411.196287 224.28 
L 412.625224 224.28 
L 412.625224 96.721255 
L 411.196287 96.721255 
z
" style="fill:#1f77b4;"/>
   </g>
   <g id="patch_189">
    <path clip-path="url(#p33818c92a7)" d="M 412.982458 224.28 
L 414.411396 224.28 
L 414.411396 97.043601 
L 412.982458 97.043601 
z
" style="fill:#1f77b4;"/>
   </g>
   <g id="patch_190">
    <path clip-path="url(#p33818c92a7)" d="M 414.76863 224.28 
L 416.197567 224.28 
L 416.197567 39.48 
L 414.76863 39.48 
z
" style="fill:#1f77b4;"/>
   </g>
   <g id="patch_191">
    <path clip-path="url(#p33818c92a7)" d="M 416.554802 224.28 
L 417.983739 224.28 
L 417.983739 131.983385 
L 416.554802 131.983385 
z
" style="fill:#1f77b4;"/>
   </g>
   <g id="patch_192">
    <path clip-path="url(#p33818c92a7)" d="M 418.340973 224.28 
L 419.76991 224.28 
L 419.76991 121.887724 
L 418.340973 121.887724 
z
" style="fill:#1f77b4;"/>
   </g>
   <g id="patch_193">
    <path clip-path="url(#p33818c92a7)" d="M 420.127145 224.28 
L 421.556082 224.28 
L 421.556082 143.818994 
L 420.127145 143.818994 
z
" style="fill:#1f77b4;"/>
   </g>
   <g id="patch_194">
    <path clip-path="url(#p33818c92a7)" d="M 421.913316 224.28 
L 423.342254 224.28 
L 423.342254 146.665932 
L 421.913316 146.665932 
z
" style="fill:#1f77b4;"/>
   </g>
   <g id="patch_195">
    <path clip-path="url(#p33818c92a7)" d="M 423.699488 224.28 
L 425.128425 224.28 
L 425.128425 132.825819 
L 423.699488 132.825819 
z
" style="fill:#1f77b4;"/>
   </g>
   <g id="patch_196">
    <path clip-path="url(#p33818c92a7)" d="M 425.485659 224.28 
L 426.914597 224.28 
L 426.914597 96.576786 
L 425.485659 96.576786 
z
" style="fill:#1f77b4;"/>
   </g>
   <g id="patch_197">
    <path clip-path="url(#p33818c92a7)" d="M 427.271831 224.28 
L 428.700768 224.28 
L 428.700768 125.277323 
L 427.271831 125.277323 
z
" style="fill:#1f77b4;"/>
   </g>
   <g id="patch_198">
    <path clip-path="url(#p33818c92a7)" d="M 429.058003 224.28 
L 430.48694 224.28 
L 430.48694 103.698196 
L 429.058003 103.698196 
z
" style="fill:#1f77b4;"/>
   </g>
   <g id="patch_199">
    <path clip-path="url(#p33818c92a7)" d="M 430.844174 224.28 
L 432.273111 224.28 
L 432.273111 108.704944 
L 430.844174 108.704944 
z
" style="fill:#1f77b4;"/>
   </g>
   <g id="patch_200">
    <path clip-path="url(#p33818c92a7)" d="M 432.630346 224.28 
L 434.059283 224.28 
L 434.059283 148.433869 
L 432.630346 148.433869 
z
" style="fill:#1f77b4;"/>
   </g>
   <g id="patch_201">
    <path clip-path="url(#p33818c92a7)" d="M 434.416517 224.28 
L 435.845455 224.28 
L 435.845455 158.666777 
L 434.416517 158.666777 
z
" style="fill:#1f77b4;"/>
   </g>
   <g id="matplotlib.axis_1">
    <g id="xtick_1">
     <g id="line2d_1">
      <defs>
       <path d="M 0 0 
L 0 3.5 
" id="m8178a4c24e" style="stroke:#000000;stroke-width:0.8;"/>
      </defs>
      <g>
       <use style="stroke:#000000;stroke-width:0.8;" x="79.682843" xlink:href="#m8178a4c24e" y="224.28"/>
      </g>
     </g>
     <g id="text_1">
      <!-- 0 -->
      <defs>
       <path d="M 31.78125 66.40625 
Q 24.171875 66.40625 20.328125 58.90625 
Q 16.5 51.421875 16.5 36.375 
Q 16.5 21.390625 20.328125 13.890625 
Q 24.171875 6.390625 31.78125 6.390625 
Q 39.453125 6.390625 43.28125 13.890625 
Q 47.125 21.390625 47.125 36.375 
Q 47.125 51.421875 43.28125 58.90625 
Q 39.453125 66.40625 31.78125 66.40625 
z
M 31.78125 74.21875 
Q 44.046875 74.21875 50.515625 64.515625 
Q 56.984375 54.828125 56.984375 36.375 
Q 56.984375 17.96875 50.515625 8.265625 
Q 44.046875 -1.421875 31.78125 -1.421875 
Q 19.53125 -1.421875 13.0625 8.265625 
Q 6.59375 17.96875 6.59375 36.375 
Q 6.59375 54.828125 13.0625 64.515625 
Q 19.53125 74.21875 31.78125 74.21875 
z
" id="DejaVuSans-30"/>
      </defs>
      <g transform="translate(76.501593 238.878438)scale(0.1 -0.1)">
       <use xlink:href="#DejaVuSans-30"/>
      </g>
     </g>
    </g>
    <g id="xtick_2">
     <g id="line2d_2">
      <g>
       <use style="stroke:#000000;stroke-width:0.8;" x="124.337132" xlink:href="#m8178a4c24e" y="224.28"/>
      </g>
     </g>
     <g id="text_2">
      <!-- 25 -->
      <defs>
       <path d="M 19.1875 8.296875 
L 53.609375 8.296875 
L 53.609375 0 
L 7.328125 0 
L 7.328125 8.296875 
Q 12.9375 14.109375 22.625 23.890625 
Q 32.328125 33.6875 34.8125 36.53125 
Q 39.546875 41.84375 41.421875 45.53125 
Q 43.3125 49.21875 43.3125 52.78125 
Q 43.3125 58.59375 39.234375 62.25 
Q 35.15625 65.921875 28.609375 65.921875 
Q 23.96875 65.921875 18.8125 64.3125 
Q 13.671875 62.703125 7.8125 59.421875 
L 7.8125 69.390625 
Q 13.765625 71.78125 18.9375 73 
Q 24.125 74.21875 28.421875 74.21875 
Q 39.75 74.21875 46.484375 68.546875 
Q 53.21875 62.890625 53.21875 53.421875 
Q 53.21875 48.921875 51.53125 44.890625 
Q 49.859375 40.875 45.40625 35.40625 
Q 44.1875 33.984375 37.640625 27.21875 
Q 31.109375 20.453125 19.1875 8.296875 
z
" id="DejaVuSans-32"/>
       <path d="M 10.796875 72.90625 
L 49.515625 72.90625 
L 49.515625 64.59375 
L 19.828125 64.59375 
L 19.828125 46.734375 
Q 21.96875 47.46875 24.109375 47.828125 
Q 26.265625 48.1875 28.421875 48.1875 
Q 40.625 48.1875 47.75 41.5 
Q 54.890625 34.8125 54.890625 23.390625 
Q 54.890625 11.625 47.5625 5.09375 
Q 40.234375 -1.421875 26.90625 -1.421875 
Q 22.3125 -1.421875 17.546875 -0.640625 
Q 12.796875 0.140625 7.71875 1.703125 
L 7.71875 11.625 
Q 12.109375 9.234375 16.796875 8.0625 
Q 21.484375 6.890625 26.703125 6.890625 
Q 35.15625 6.890625 40.078125 11.328125 
Q 45.015625 15.765625 45.015625 23.390625 
Q 45.015625 31 40.078125 35.4375 
Q 35.15625 39.890625 26.703125 39.890625 
Q 22.75 39.890625 18.8125 39.015625 
Q 14.890625 38.140625 10.796875 36.28125 
z
" id="DejaVuSans-35"/>
      </defs>
      <g transform="translate(117.974632 238.878438)scale(0.1 -0.1)">
       <use xlink:href="#DejaVuSans-32"/>
       <use x="63.623047" xlink:href="#DejaVuSans-35"/>
      </g>
     </g>
    </g>
    <g id="xtick_3">
     <g id="line2d_3">
      <g>
       <use style="stroke:#000000;stroke-width:0.8;" x="168.991421" xlink:href="#m8178a4c24e" y="224.28"/>
      </g>
     </g>
     <g id="text_3">
      <!-- 50 -->
      <g transform="translate(162.628921 238.878438)scale(0.1 -0.1)">
       <use xlink:href="#DejaVuSans-35"/>
       <use x="63.623047" xlink:href="#DejaVuSans-30"/>
      </g>
     </g>
    </g>
    <g id="xtick_4">
     <g id="line2d_4">
      <g>
       <use style="stroke:#000000;stroke-width:0.8;" x="213.645711" xlink:href="#m8178a4c24e" y="224.28"/>
      </g>
     </g>
     <g id="text_4">
      <!-- 75 -->
      <defs>
       <path d="M 8.203125 72.90625 
L 55.078125 72.90625 
L 55.078125 68.703125 
L 28.609375 0 
L 18.3125 0 
L 43.21875 64.59375 
L 8.203125 64.59375 
z
" id="DejaVuSans-37"/>
      </defs>
      <g transform="translate(207.283211 238.878438)scale(0.1 -0.1)">
       <use xlink:href="#DejaVuSans-37"/>
       <use x="63.623047" xlink:href="#DejaVuSans-35"/>
      </g>
     </g>
    </g>
    <g id="xtick_5">
     <g id="line2d_5">
      <g>
       <use style="stroke:#000000;stroke-width:0.8;" x="258.3" xlink:href="#m8178a4c24e" y="224.28"/>
      </g>
     </g>
     <g id="text_5">
      <!-- 100 -->
      <defs>
       <path d="M 12.40625 8.296875 
L 28.515625 8.296875 
L 28.515625 63.921875 
L 10.984375 60.40625 
L 10.984375 69.390625 
L 28.421875 72.90625 
L 38.28125 72.90625 
L 38.28125 8.296875 
L 54.390625 8.296875 
L 54.390625 0 
L 12.40625 0 
z
" id="DejaVuSans-31"/>
      </defs>
      <g transform="translate(248.75625 238.878438)scale(0.1 -0.1)">
       <use xlink:href="#DejaVuSans-31"/>
       <use x="63.623047" xlink:href="#DejaVuSans-30"/>
       <use x="127.246094" xlink:href="#DejaVuSans-30"/>
      </g>
     </g>
    </g>
    <g id="xtick_6">
     <g id="line2d_6">
      <g>
       <use style="stroke:#000000;stroke-width:0.8;" x="302.954289" xlink:href="#m8178a4c24e" y="224.28"/>
      </g>
     </g>
     <g id="text_6">
      <!-- 125 -->
      <g transform="translate(293.410539 238.878438)scale(0.1 -0.1)">
       <use xlink:href="#DejaVuSans-31"/>
       <use x="63.623047" xlink:href="#DejaVuSans-32"/>
       <use x="127.246094" xlink:href="#DejaVuSans-35"/>
      </g>
     </g>
    </g>
    <g id="xtick_7">
     <g id="line2d_7">
      <g>
       <use style="stroke:#000000;stroke-width:0.8;" x="347.608579" xlink:href="#m8178a4c24e" y="224.28"/>
      </g>
     </g>
     <g id="text_7">
      <!-- 150 -->
      <g transform="translate(338.064829 238.878438)scale(0.1 -0.1)">
       <use xlink:href="#DejaVuSans-31"/>
       <use x="63.623047" xlink:href="#DejaVuSans-35"/>
       <use x="127.246094" xlink:href="#DejaVuSans-30"/>
      </g>
     </g>
    </g>
    <g id="xtick_8">
     <g id="line2d_8">
      <g>
       <use style="stroke:#000000;stroke-width:0.8;" x="392.262868" xlink:href="#m8178a4c24e" y="224.28"/>
      </g>
     </g>
     <g id="text_8">
      <!-- 175 -->
      <g transform="translate(382.719118 238.878438)scale(0.1 -0.1)">
       <use xlink:href="#DejaVuSans-31"/>
       <use x="63.623047" xlink:href="#DejaVuSans-37"/>
       <use x="127.246094" xlink:href="#DejaVuSans-35"/>
      </g>
     </g>
    </g>
    <g id="xtick_9">
     <g id="line2d_9">
      <g>
       <use style="stroke:#000000;stroke-width:0.8;" x="436.917157" xlink:href="#m8178a4c24e" y="224.28"/>
      </g>
     </g>
     <g id="text_9">
      <!-- 200 -->
      <g transform="translate(427.373407 238.878438)scale(0.1 -0.1)">
       <use xlink:href="#DejaVuSans-32"/>
       <use x="63.623047" xlink:href="#DejaVuSans-30"/>
       <use x="127.246094" xlink:href="#DejaVuSans-30"/>
      </g>
     </g>
    </g>
    <g id="text_10">
     <!-- number of chunk (from beginning to end) -->
     <defs>
      <path d="M 54.890625 33.015625 
L 54.890625 0 
L 45.90625 0 
L 45.90625 32.71875 
Q 45.90625 40.484375 42.875 44.328125 
Q 39.84375 48.1875 33.796875 48.1875 
Q 26.515625 48.1875 22.3125 43.546875 
Q 18.109375 38.921875 18.109375 30.90625 
L 18.109375 0 
L 9.078125 0 
L 9.078125 54.6875 
L 18.109375 54.6875 
L 18.109375 46.1875 
Q 21.34375 51.125 25.703125 53.5625 
Q 30.078125 56 35.796875 56 
Q 45.21875 56 50.046875 50.171875 
Q 54.890625 44.34375 54.890625 33.015625 
z
" id="DejaVuSans-6e"/>
      <path d="M 8.5 21.578125 
L 8.5 54.6875 
L 17.484375 54.6875 
L 17.484375 21.921875 
Q 17.484375 14.15625 20.5 10.265625 
Q 23.53125 6.390625 29.59375 6.390625 
Q 36.859375 6.390625 41.078125 11.03125 
Q 45.3125 15.671875 45.3125 23.6875 
L 45.3125 54.6875 
L 54.296875 54.6875 
L 54.296875 0 
L 45.3125 0 
L 45.3125 8.40625 
Q 42.046875 3.421875 37.71875 1 
Q 33.40625 -1.421875 27.6875 -1.421875 
Q 18.265625 -1.421875 13.375 4.4375 
Q 8.5 10.296875 8.5 21.578125 
z
M 31.109375 56 
z
" id="DejaVuSans-75"/>
      <path d="M 52 44.1875 
Q 55.375 50.25 60.0625 53.125 
Q 64.75 56 71.09375 56 
Q 79.640625 56 84.28125 50.015625 
Q 88.921875 44.046875 88.921875 33.015625 
L 88.921875 0 
L 79.890625 0 
L 79.890625 32.71875 
Q 79.890625 40.578125 77.09375 44.375 
Q 74.3125 48.1875 68.609375 48.1875 
Q 61.625 48.1875 57.5625 43.546875 
Q 53.515625 38.921875 53.515625 30.90625 
L 53.515625 0 
L 44.484375 0 
L 44.484375 32.71875 
Q 44.484375 40.625 41.703125 44.40625 
Q 38.921875 48.1875 33.109375 48.1875 
Q 26.21875 48.1875 22.15625 43.53125 
Q 18.109375 38.875 18.109375 30.90625 
L 18.109375 0 
L 9.078125 0 
L 9.078125 54.6875 
L 18.109375 54.6875 
L 18.109375 46.1875 
Q 21.1875 51.21875 25.484375 53.609375 
Q 29.78125 56 35.6875 56 
Q 41.65625 56 45.828125 52.96875 
Q 50 49.953125 52 44.1875 
z
" id="DejaVuSans-6d"/>
      <path d="M 48.6875 27.296875 
Q 48.6875 37.203125 44.609375 42.84375 
Q 40.53125 48.484375 33.40625 48.484375 
Q 26.265625 48.484375 22.1875 42.84375 
Q 18.109375 37.203125 18.109375 27.296875 
Q 18.109375 17.390625 22.1875 11.75 
Q 26.265625 6.109375 33.40625 6.109375 
Q 40.53125 6.109375 44.609375 11.75 
Q 48.6875 17.390625 48.6875 27.296875 
z
M 18.109375 46.390625 
Q 20.953125 51.265625 25.265625 53.625 
Q 29.59375 56 35.59375 56 
Q 45.5625 56 51.78125 48.09375 
Q 58.015625 40.1875 58.015625 27.296875 
Q 58.015625 14.40625 51.78125 6.484375 
Q 45.5625 -1.421875 35.59375 -1.421875 
Q 29.59375 -1.421875 25.265625 0.953125 
Q 20.953125 3.328125 18.109375 8.203125 
L 18.109375 0 
L 9.078125 0 
L 9.078125 75.984375 
L 18.109375 75.984375 
z
" id="DejaVuSans-62"/>
      <path d="M 56.203125 29.59375 
L 56.203125 25.203125 
L 14.890625 25.203125 
Q 15.484375 15.921875 20.484375 11.0625 
Q 25.484375 6.203125 34.421875 6.203125 
Q 39.59375 6.203125 44.453125 7.46875 
Q 49.3125 8.734375 54.109375 11.28125 
L 54.109375 2.78125 
Q 49.265625 0.734375 44.1875 -0.34375 
Q 39.109375 -1.421875 33.890625 -1.421875 
Q 20.796875 -1.421875 13.15625 6.1875 
Q 5.515625 13.8125 5.515625 26.8125 
Q 5.515625 40.234375 12.765625 48.109375 
Q 20.015625 56 32.328125 56 
Q 43.359375 56 49.78125 48.890625 
Q 56.203125 41.796875 56.203125 29.59375 
z
M 47.21875 32.234375 
Q 47.125 39.59375 43.09375 43.984375 
Q 39.0625 48.390625 32.421875 48.390625 
Q 24.90625 48.390625 20.390625 44.140625 
Q 15.875 39.890625 15.1875 32.171875 
z
" id="DejaVuSans-65"/>
      <path d="M 41.109375 46.296875 
Q 39.59375 47.171875 37.8125 47.578125 
Q 36.03125 48 33.890625 48 
Q 26.265625 48 22.1875 43.046875 
Q 18.109375 38.09375 18.109375 28.8125 
L 18.109375 0 
L 9.078125 0 
L 9.078125 54.6875 
L 18.109375 54.6875 
L 18.109375 46.1875 
Q 20.953125 51.171875 25.484375 53.578125 
Q 30.03125 56 36.53125 56 
Q 37.453125 56 38.578125 55.875 
Q 39.703125 55.765625 41.0625 55.515625 
z
" id="DejaVuSans-72"/>
      <path id="DejaVuSans-20"/>
      <path d="M 30.609375 48.390625 
Q 23.390625 48.390625 19.1875 42.75 
Q 14.984375 37.109375 14.984375 27.296875 
Q 14.984375 17.484375 19.15625 11.84375 
Q 23.34375 6.203125 30.609375 6.203125 
Q 37.796875 6.203125 41.984375 11.859375 
Q 46.1875 17.53125 46.1875 27.296875 
Q 46.1875 37.015625 41.984375 42.703125 
Q 37.796875 48.390625 30.609375 48.390625 
z
M 30.609375 56 
Q 42.328125 56 49.015625 48.375 
Q 55.71875 40.765625 55.71875 27.296875 
Q 55.71875 13.875 49.015625 6.21875 
Q 42.328125 -1.421875 30.609375 -1.421875 
Q 18.84375 -1.421875 12.171875 6.21875 
Q 5.515625 13.875 5.515625 27.296875 
Q 5.515625 40.765625 12.171875 48.375 
Q 18.84375 56 30.609375 56 
z
" id="DejaVuSans-6f"/>
      <path d="M 37.109375 75.984375 
L 37.109375 68.5 
L 28.515625 68.5 
Q 23.6875 68.5 21.796875 66.546875 
Q 19.921875 64.59375 19.921875 59.515625 
L 19.921875 54.6875 
L 34.71875 54.6875 
L 34.71875 47.703125 
L 19.921875 47.703125 
L 19.921875 0 
L 10.890625 0 
L 10.890625 47.703125 
L 2.296875 47.703125 
L 2.296875 54.6875 
L 10.890625 54.6875 
L 10.890625 58.5 
Q 10.890625 67.625 15.140625 71.796875 
Q 19.390625 75.984375 28.609375 75.984375 
z
" id="DejaVuSans-66"/>
      <path d="M 48.78125 52.59375 
L 48.78125 44.1875 
Q 44.96875 46.296875 41.140625 47.34375 
Q 37.3125 48.390625 33.40625 48.390625 
Q 24.65625 48.390625 19.8125 42.84375 
Q 14.984375 37.3125 14.984375 27.296875 
Q 14.984375 17.28125 19.8125 11.734375 
Q 24.65625 6.203125 33.40625 6.203125 
Q 37.3125 6.203125 41.140625 7.25 
Q 44.96875 8.296875 48.78125 10.40625 
L 48.78125 2.09375 
Q 45.015625 0.34375 40.984375 -0.53125 
Q 36.96875 -1.421875 32.421875 -1.421875 
Q 20.0625 -1.421875 12.78125 6.34375 
Q 5.515625 14.109375 5.515625 27.296875 
Q 5.515625 40.671875 12.859375 48.328125 
Q 20.21875 56 33.015625 56 
Q 37.15625 56 41.109375 55.140625 
Q 45.0625 54.296875 48.78125 52.59375 
z
" id="DejaVuSans-63"/>
      <path d="M 54.890625 33.015625 
L 54.890625 0 
L 45.90625 0 
L 45.90625 32.71875 
Q 45.90625 40.484375 42.875 44.328125 
Q 39.84375 48.1875 33.796875 48.1875 
Q 26.515625 48.1875 22.3125 43.546875 
Q 18.109375 38.921875 18.109375 30.90625 
L 18.109375 0 
L 9.078125 0 
L 9.078125 75.984375 
L 18.109375 75.984375 
L 18.109375 46.1875 
Q 21.34375 51.125 25.703125 53.5625 
Q 30.078125 56 35.796875 56 
Q 45.21875 56 50.046875 50.171875 
Q 54.890625 44.34375 54.890625 33.015625 
z
" id="DejaVuSans-68"/>
      <path d="M 9.078125 75.984375 
L 18.109375 75.984375 
L 18.109375 31.109375 
L 44.921875 54.6875 
L 56.390625 54.6875 
L 27.390625 29.109375 
L 57.625 0 
L 45.90625 0 
L 18.109375 26.703125 
L 18.109375 0 
L 9.078125 0 
z
" id="DejaVuSans-6b"/>
      <path d="M 31 75.875 
Q 24.46875 64.65625 21.28125 53.65625 
Q 18.109375 42.671875 18.109375 31.390625 
Q 18.109375 20.125 21.3125 9.0625 
Q 24.515625 -2 31 -13.1875 
L 23.1875 -13.1875 
Q 15.875 -1.703125 12.234375 9.375 
Q 8.59375 20.453125 8.59375 31.390625 
Q 8.59375 42.28125 12.203125 53.3125 
Q 15.828125 64.359375 23.1875 75.875 
z
" id="DejaVuSans-28"/>
      <path d="M 45.40625 27.984375 
Q 45.40625 37.75 41.375 43.109375 
Q 37.359375 48.484375 30.078125 48.484375 
Q 22.859375 48.484375 18.828125 43.109375 
Q 14.796875 37.75 14.796875 27.984375 
Q 14.796875 18.265625 18.828125 12.890625 
Q 22.859375 7.515625 30.078125 7.515625 
Q 37.359375 7.515625 41.375 12.890625 
Q 45.40625 18.265625 45.40625 27.984375 
z
M 54.390625 6.78125 
Q 54.390625 -7.171875 48.1875 -13.984375 
Q 42 -20.796875 29.203125 -20.796875 
Q 24.46875 -20.796875 20.265625 -20.09375 
Q 16.0625 -19.390625 12.109375 -17.921875 
L 12.109375 -9.1875 
Q 16.0625 -11.328125 19.921875 -12.34375 
Q 23.78125 -13.375 27.78125 -13.375 
Q 36.625 -13.375 41.015625 -8.765625 
Q 45.40625 -4.15625 45.40625 5.171875 
L 45.40625 9.625 
Q 42.625 4.78125 38.28125 2.390625 
Q 33.9375 0 27.875 0 
Q 17.828125 0 11.671875 7.65625 
Q 5.515625 15.328125 5.515625 27.984375 
Q 5.515625 40.671875 11.671875 48.328125 
Q 17.828125 56 27.875 56 
Q 33.9375 56 38.28125 53.609375 
Q 42.625 51.21875 45.40625 46.390625 
L 45.40625 54.6875 
L 54.390625 54.6875 
z
" id="DejaVuSans-67"/>
      <path d="M 9.421875 54.6875 
L 18.40625 54.6875 
L 18.40625 0 
L 9.421875 0 
z
M 9.421875 75.984375 
L 18.40625 75.984375 
L 18.40625 64.59375 
L 9.421875 64.59375 
z
" id="DejaVuSans-69"/>
      <path d="M 18.3125 70.21875 
L 18.3125 54.6875 
L 36.8125 54.6875 
L 36.8125 47.703125 
L 18.3125 47.703125 
L 18.3125 18.015625 
Q 18.3125 11.328125 20.140625 9.421875 
Q 21.96875 7.515625 27.59375 7.515625 
L 36.8125 7.515625 
L 36.8125 0 
L 27.59375 0 
Q 17.1875 0 13.234375 3.875 
Q 9.28125 7.765625 9.28125 18.015625 
L 9.28125 47.703125 
L 2.6875 47.703125 
L 2.6875 54.6875 
L 9.28125 54.6875 
L 9.28125 70.21875 
z
" id="DejaVuSans-74"/>
      <path d="M 45.40625 46.390625 
L 45.40625 75.984375 
L 54.390625 75.984375 
L 54.390625 0 
L 45.40625 0 
L 45.40625 8.203125 
Q 42.578125 3.328125 38.25 0.953125 
Q 33.9375 -1.421875 27.875 -1.421875 
Q 17.96875 -1.421875 11.734375 6.484375 
Q 5.515625 14.40625 5.515625 27.296875 
Q 5.515625 40.1875 11.734375 48.09375 
Q 17.96875 56 27.875 56 
Q 33.9375 56 38.25 53.625 
Q 42.578125 51.265625 45.40625 46.390625 
z
M 14.796875 27.296875 
Q 14.796875 17.390625 18.875 11.75 
Q 22.953125 6.109375 30.078125 6.109375 
Q 37.203125 6.109375 41.296875 11.75 
Q 45.40625 17.390625 45.40625 27.296875 
Q 45.40625 37.203125 41.296875 42.84375 
Q 37.203125 48.484375 30.078125 48.484375 
Q 22.953125 48.484375 18.875 42.84375 
Q 14.796875 37.203125 14.796875 27.296875 
z
" id="DejaVuSans-64"/>
      <path d="M 8.015625 75.875 
L 15.828125 75.875 
Q 23.140625 64.359375 26.78125 53.3125 
Q 30.421875 42.28125 30.421875 31.390625 
Q 30.421875 20.453125 26.78125 9.375 
Q 23.140625 -1.703125 15.828125 -13.1875 
L 8.015625 -13.1875 
Q 14.5 -2 17.703125 9.0625 
Q 20.90625 20.125 20.90625 31.390625 
Q 20.90625 42.671875 17.703125 53.65625 
Q 14.5 64.65625 8.015625 75.875 
z
" id="DejaVuSans-29"/>
     </defs>
     <g transform="translate(154.313281 252.556563)scale(0.1 -0.1)">
      <use xlink:href="#DejaVuSans-6e"/>
      <use x="63.378906" xlink:href="#DejaVuSans-75"/>
      <use x="126.757812" xlink:href="#DejaVuSans-6d"/>
      <use x="224.169922" xlink:href="#DejaVuSans-62"/>
      <use x="287.646484" xlink:href="#DejaVuSans-65"/>
      <use x="349.169922" xlink:href="#DejaVuSans-72"/>
      <use x="390.283203" xlink:href="#DejaVuSans-20"/>
      <use x="422.070312" xlink:href="#DejaVuSans-6f"/>
      <use x="483.251953" xlink:href="#DejaVuSans-66"/>
      <use x="518.457031" xlink:href="#DejaVuSans-20"/>
      <use x="550.244141" xlink:href="#DejaVuSans-63"/>
      <use x="605.224609" xlink:href="#DejaVuSans-68"/>
      <use x="668.603516" xlink:href="#DejaVuSans-75"/>
      <use x="731.982422" xlink:href="#DejaVuSans-6e"/>
      <use x="795.361328" xlink:href="#DejaVuSans-6b"/>
      <use x="853.271484" xlink:href="#DejaVuSans-20"/>
      <use x="885.058594" xlink:href="#DejaVuSans-28"/>
      <use x="924.072266" xlink:href="#DejaVuSans-66"/>
      <use x="959.277344" xlink:href="#DejaVuSans-72"/>
      <use x="1000.359375" xlink:href="#DejaVuSans-6f"/>
      <use x="1061.541016" xlink:href="#DejaVuSans-6d"/>
      <use x="1158.953125" xlink:href="#DejaVuSans-20"/>
      <use x="1190.740234" xlink:href="#DejaVuSans-62"/>
      <use x="1254.216797" xlink:href="#DejaVuSans-65"/>
      <use x="1315.740234" xlink:href="#DejaVuSans-67"/>
      <use x="1379.216797" xlink:href="#DejaVuSans-69"/>
      <use x="1407" xlink:href="#DejaVuSans-6e"/>
      <use x="1470.378906" xlink:href="#DejaVuSans-6e"/>
      <use x="1533.757812" xlink:href="#DejaVuSans-69"/>
      <use x="1561.541016" xlink:href="#DejaVuSans-6e"/>
      <use x="1624.919922" xlink:href="#DejaVuSans-67"/>
      <use x="1688.396484" xlink:href="#DejaVuSans-20"/>
      <use x="1720.183594" xlink:href="#DejaVuSans-74"/>
      <use x="1759.392578" xlink:href="#DejaVuSans-6f"/>
      <use x="1820.574219" xlink:href="#DejaVuSans-20"/>
      <use x="1852.361328" xlink:href="#DejaVuSans-65"/>
      <use x="1913.884766" xlink:href="#DejaVuSans-6e"/>
      <use x="1977.263672" xlink:href="#DejaVuSans-64"/>
      <use x="2040.740234" xlink:href="#DejaVuSans-29"/>
     </g>
    </g>
   </g>
   <g id="matplotlib.axis_2">
    <g id="ytick_1">
     <g id="line2d_10">
      <defs>
       <path d="M 0 0 
L -3.5 0 
" id="mde96760352" style="stroke:#000000;stroke-width:0.8;"/>
      </defs>
      <g>
       <use style="stroke:#000000;stroke-width:0.8;" x="63" xlink:href="#mde96760352" y="224.28"/>
      </g>
     </g>
     <g id="text_11">
      <!-- 0.0 -->
      <defs>
       <path d="M 10.6875 12.40625 
L 21 12.40625 
L 21 0 
L 10.6875 0 
z
" id="DejaVuSans-2e"/>
      </defs>
      <g transform="translate(40.096875 228.079219)scale(0.1 -0.1)">
       <use xlink:href="#DejaVuSans-30"/>
       <use x="63.623047" xlink:href="#DejaVuSans-2e"/>
       <use x="95.410156" xlink:href="#DejaVuSans-30"/>
      </g>
     </g>
    </g>
    <g id="ytick_2">
     <g id="line2d_11">
      <g>
       <use style="stroke:#000000;stroke-width:0.8;" x="63" xlink:href="#mde96760352" y="201.706747"/>
      </g>
     </g>
     <g id="text_12">
      <!-- 2.5 -->
      <g transform="translate(40.096875 205.505966)scale(0.1 -0.1)">
       <use xlink:href="#DejaVuSans-32"/>
       <use x="63.623047" xlink:href="#DejaVuSans-2e"/>
       <use x="95.410156" xlink:href="#DejaVuSans-35"/>
      </g>
     </g>
    </g>
    <g id="ytick_3">
     <g id="line2d_12">
      <g>
       <use style="stroke:#000000;stroke-width:0.8;" x="63" xlink:href="#mde96760352" y="179.133494"/>
      </g>
     </g>
     <g id="text_13">
      <!-- 5.0 -->
      <g transform="translate(40.096875 182.932712)scale(0.1 -0.1)">
       <use xlink:href="#DejaVuSans-35"/>
       <use x="63.623047" xlink:href="#DejaVuSans-2e"/>
       <use x="95.410156" xlink:href="#DejaVuSans-30"/>
      </g>
     </g>
    </g>
    <g id="ytick_4">
     <g id="line2d_13">
      <g>
       <use style="stroke:#000000;stroke-width:0.8;" x="63" xlink:href="#mde96760352" y="156.560241"/>
      </g>
     </g>
     <g id="text_14">
      <!-- 7.5 -->
      <g transform="translate(40.096875 160.359459)scale(0.1 -0.1)">
       <use xlink:href="#DejaVuSans-37"/>
       <use x="63.623047" xlink:href="#DejaVuSans-2e"/>
       <use x="95.410156" xlink:href="#DejaVuSans-35"/>
      </g>
     </g>
    </g>
    <g id="ytick_5">
     <g id="line2d_14">
      <g>
       <use style="stroke:#000000;stroke-width:0.8;" x="63" xlink:href="#mde96760352" y="133.986987"/>
      </g>
     </g>
     <g id="text_15">
      <!-- 10.0 -->
      <g transform="translate(33.734375 137.786206)scale(0.1 -0.1)">
       <use xlink:href="#DejaVuSans-31"/>
       <use x="63.623047" xlink:href="#DejaVuSans-30"/>
       <use x="127.246094" xlink:href="#DejaVuSans-2e"/>
       <use x="159.033203" xlink:href="#DejaVuSans-30"/>
      </g>
     </g>
    </g>
    <g id="ytick_6">
     <g id="line2d_15">
      <g>
       <use style="stroke:#000000;stroke-width:0.8;" x="63" xlink:href="#mde96760352" y="111.413734"/>
      </g>
     </g>
     <g id="text_16">
      <!-- 12.5 -->
      <g transform="translate(33.734375 115.212953)scale(0.1 -0.1)">
       <use xlink:href="#DejaVuSans-31"/>
       <use x="63.623047" xlink:href="#DejaVuSans-32"/>
       <use x="127.246094" xlink:href="#DejaVuSans-2e"/>
       <use x="159.033203" xlink:href="#DejaVuSans-35"/>
      </g>
     </g>
    </g>
    <g id="ytick_7">
     <g id="line2d_16">
      <g>
       <use style="stroke:#000000;stroke-width:0.8;" x="63" xlink:href="#mde96760352" y="88.840481"/>
      </g>
     </g>
     <g id="text_17">
      <!-- 15.0 -->
      <g transform="translate(33.734375 92.6397)scale(0.1 -0.1)">
       <use xlink:href="#DejaVuSans-31"/>
       <use x="63.623047" xlink:href="#DejaVuSans-35"/>
       <use x="127.246094" xlink:href="#DejaVuSans-2e"/>
       <use x="159.033203" xlink:href="#DejaVuSans-30"/>
      </g>
     </g>
    </g>
    <g id="ytick_8">
     <g id="line2d_17">
      <g>
       <use style="stroke:#000000;stroke-width:0.8;" x="63" xlink:href="#mde96760352" y="66.267228"/>
      </g>
     </g>
     <g id="text_18">
      <!-- 17.5 -->
      <g transform="translate(33.734375 70.066447)scale(0.1 -0.1)">
       <use xlink:href="#DejaVuSans-31"/>
       <use x="63.623047" xlink:href="#DejaVuSans-37"/>
       <use x="127.246094" xlink:href="#DejaVuSans-2e"/>
       <use x="159.033203" xlink:href="#DejaVuSans-35"/>
      </g>
     </g>
    </g>
    <g id="ytick_9">
     <g id="line2d_18">
      <g>
       <use style="stroke:#000000;stroke-width:0.8;" x="63" xlink:href="#mde96760352" y="43.693975"/>
      </g>
     </g>
     <g id="text_19">
      <!-- 20.0 -->
      <g transform="translate(33.734375 47.493194)scale(0.1 -0.1)">
       <use xlink:href="#DejaVuSans-32"/>
       <use x="63.623047" xlink:href="#DejaVuSans-30"/>
       <use x="127.246094" xlink:href="#DejaVuSans-2e"/>
       <use x="159.033203" xlink:href="#DejaVuSans-30"/>
      </g>
     </g>
    </g>
    <g id="text_20">
     <!-- GFI -->
     <defs>
      <path d="M 59.515625 10.40625 
L 59.515625 29.984375 
L 43.40625 29.984375 
L 43.40625 38.09375 
L 69.28125 38.09375 
L 69.28125 6.78125 
Q 63.578125 2.734375 56.6875 0.65625 
Q 49.8125 -1.421875 42 -1.421875 
Q 24.90625 -1.421875 15.25 8.5625 
Q 5.609375 18.5625 5.609375 36.375 
Q 5.609375 54.25 15.25 64.234375 
Q 24.90625 74.21875 42 74.21875 
Q 49.125 74.21875 55.546875 72.453125 
Q 61.96875 70.703125 67.390625 67.28125 
L 67.390625 56.78125 
Q 61.921875 61.421875 55.765625 63.765625 
Q 49.609375 66.109375 42.828125 66.109375 
Q 29.4375 66.109375 22.71875 58.640625 
Q 16.015625 51.171875 16.015625 36.375 
Q 16.015625 21.625 22.71875 14.15625 
Q 29.4375 6.6875 42.828125 6.6875 
Q 48.046875 6.6875 52.140625 7.59375 
Q 56.25 8.5 59.515625 10.40625 
z
" id="DejaVuSans-47"/>
      <path d="M 9.8125 72.90625 
L 51.703125 72.90625 
L 51.703125 64.59375 
L 19.671875 64.59375 
L 19.671875 43.109375 
L 48.578125 43.109375 
L 48.578125 34.8125 
L 19.671875 34.8125 
L 19.671875 0 
L 9.8125 0 
z
" id="DejaVuSans-46"/>
      <path d="M 9.8125 72.90625 
L 19.671875 72.90625 
L 19.671875 0 
L 9.8125 0 
z
" id="DejaVuSans-49"/>
     </defs>
     <g transform="translate(27.654688 135.485)rotate(-90)scale(0.1 -0.1)">
      <use xlink:href="#DejaVuSans-47"/>
      <use x="77.490234" xlink:href="#DejaVuSans-46"/>
      <use x="135.009766" xlink:href="#DejaVuSans-49"/>
     </g>
    </g>
   </g>
   <g id="patch_202">
    <path d="M 63 224.28 
L 63 30.24 
" style="fill:none;stroke:#000000;stroke-linecap:square;stroke-linejoin:miter;stroke-width:0.8;"/>
   </g>
   <g id="patch_203">
    <path d="M 453.6 224.28 
L 453.6 30.24 
" style="fill:none;stroke:#000000;stroke-linecap:square;stroke-linejoin:miter;stroke-width:0.8;"/>
   </g>
   <g id="patch_204">
    <path d="M 63 224.28 
L 453.6 224.28 
" style="fill:none;stroke:#000000;stroke-linecap:square;stroke-linejoin:miter;stroke-width:0.8;"/>
   </g>
   <g id="patch_205">
    <path d="M 63 30.24 
L 453.6 30.24 
" style="fill:none;stroke:#000000;stroke-linecap:square;stroke-linejoin:miter;stroke-width:0.8;"/>
   </g>
  </g>
  <g id="text_21">
   <!-- GFI for the chunks of size 10 of document de117909802.txt -->
   <defs>
    <path d="M 44.28125 53.078125 
L 44.28125 44.578125 
Q 40.484375 46.53125 36.375 47.5 
Q 32.28125 48.484375 27.875 48.484375 
Q 21.1875 48.484375 17.84375 46.4375 
Q 14.5 44.390625 14.5 40.28125 
Q 14.5 37.15625 16.890625 35.375 
Q 19.28125 33.59375 26.515625 31.984375 
L 29.59375 31.296875 
Q 39.15625 29.25 43.1875 25.515625 
Q 47.21875 21.78125 47.21875 15.09375 
Q 47.21875 7.46875 41.1875 3.015625 
Q 35.15625 -1.421875 24.609375 -1.421875 
Q 20.21875 -1.421875 15.453125 -0.5625 
Q 10.6875 0.296875 5.421875 2 
L 5.421875 11.28125 
Q 10.40625 8.6875 15.234375 7.390625 
Q 20.0625 6.109375 24.8125 6.109375 
Q 31.15625 6.109375 34.5625 8.28125 
Q 37.984375 10.453125 37.984375 14.40625 
Q 37.984375 18.0625 35.515625 20.015625 
Q 33.0625 21.96875 24.703125 23.78125 
L 21.578125 24.515625 
Q 13.234375 26.265625 9.515625 29.90625 
Q 5.8125 33.546875 5.8125 39.890625 
Q 5.8125 47.609375 11.28125 51.796875 
Q 16.75 56 26.8125 56 
Q 31.78125 56 36.171875 55.265625 
Q 40.578125 54.546875 44.28125 53.078125 
z
" id="DejaVuSans-73"/>
    <path d="M 5.515625 54.6875 
L 48.1875 54.6875 
L 48.1875 46.484375 
L 14.40625 7.171875 
L 48.1875 7.171875 
L 48.1875 0 
L 4.296875 0 
L 4.296875 8.203125 
L 38.09375 47.515625 
L 5.515625 47.515625 
z
" id="DejaVuSans-7a"/>
    <path d="M 10.984375 1.515625 
L 10.984375 10.5 
Q 14.703125 8.734375 18.5 7.8125 
Q 22.3125 6.890625 25.984375 6.890625 
Q 35.75 6.890625 40.890625 13.453125 
Q 46.046875 20.015625 46.78125 33.40625 
Q 43.953125 29.203125 39.59375 26.953125 
Q 35.25 24.703125 29.984375 24.703125 
Q 19.046875 24.703125 12.671875 31.3125 
Q 6.296875 37.9375 6.296875 49.421875 
Q 6.296875 60.640625 12.9375 67.421875 
Q 19.578125 74.21875 30.609375 74.21875 
Q 43.265625 74.21875 49.921875 64.515625 
Q 56.59375 54.828125 56.59375 36.375 
Q 56.59375 19.140625 48.40625 8.859375 
Q 40.234375 -1.421875 26.421875 -1.421875 
Q 22.703125 -1.421875 18.890625 -0.6875 
Q 15.09375 0.046875 10.984375 1.515625 
z
M 30.609375 32.421875 
Q 37.25 32.421875 41.125 36.953125 
Q 45.015625 41.5 45.015625 49.421875 
Q 45.015625 57.28125 41.125 61.84375 
Q 37.25 66.40625 30.609375 66.40625 
Q 23.96875 66.40625 20.09375 61.84375 
Q 16.21875 57.28125 16.21875 49.421875 
Q 16.21875 41.5 20.09375 36.953125 
Q 23.96875 32.421875 30.609375 32.421875 
z
" id="DejaVuSans-39"/>
    <path d="M 31.78125 34.625 
Q 24.75 34.625 20.71875 30.859375 
Q 16.703125 27.09375 16.703125 20.515625 
Q 16.703125 13.921875 20.71875 10.15625 
Q 24.75 6.390625 31.78125 6.390625 
Q 38.8125 6.390625 42.859375 10.171875 
Q 46.921875 13.96875 46.921875 20.515625 
Q 46.921875 27.09375 42.890625 30.859375 
Q 38.875 34.625 31.78125 34.625 
z
M 21.921875 38.8125 
Q 15.578125 40.375 12.03125 44.71875 
Q 8.5 49.078125 8.5 55.328125 
Q 8.5 64.0625 14.71875 69.140625 
Q 20.953125 74.21875 31.78125 74.21875 
Q 42.671875 74.21875 48.875 69.140625 
Q 55.078125 64.0625 55.078125 55.328125 
Q 55.078125 49.078125 51.53125 44.71875 
Q 48 40.375 41.703125 38.8125 
Q 48.828125 37.15625 52.796875 32.3125 
Q 56.78125 27.484375 56.78125 20.515625 
Q 56.78125 9.90625 50.3125 4.234375 
Q 43.84375 -1.421875 31.78125 -1.421875 
Q 19.734375 -1.421875 13.25 4.234375 
Q 6.78125 9.90625 6.78125 20.515625 
Q 6.78125 27.484375 10.78125 32.3125 
Q 14.796875 37.15625 21.921875 38.8125 
z
M 18.3125 54.390625 
Q 18.3125 48.734375 21.84375 45.5625 
Q 25.390625 42.390625 31.78125 42.390625 
Q 38.140625 42.390625 41.71875 45.5625 
Q 45.3125 48.734375 45.3125 54.390625 
Q 45.3125 60.0625 41.71875 63.234375 
Q 38.140625 66.40625 31.78125 66.40625 
Q 25.390625 66.40625 21.84375 63.234375 
Q 18.3125 60.0625 18.3125 54.390625 
z
" id="DejaVuSans-38"/>
    <path d="M 54.890625 54.6875 
L 35.109375 28.078125 
L 55.90625 0 
L 45.3125 0 
L 29.390625 21.484375 
L 13.484375 0 
L 2.875 0 
L 24.125 28.609375 
L 4.6875 54.6875 
L 15.28125 54.6875 
L 29.78125 35.203125 
L 44.28125 54.6875 
z
" id="DejaVuSans-78"/>
   </defs>
   <g transform="translate(42.508594 15.677812)scale(0.14 -0.14)">
    <use xlink:href="#DejaVuSans-47"/>
    <use x="77.490234" xlink:href="#DejaVuSans-46"/>
    <use x="135.009766" xlink:href="#DejaVuSans-49"/>
    <use x="164.501953" xlink:href="#DejaVuSans-20"/>
    <use x="196.289062" xlink:href="#DejaVuSans-66"/>
    <use x="231.494141" xlink:href="#DejaVuSans-6f"/>
    <use x="292.675781" xlink:href="#DejaVuSans-72"/>
    <use x="333.789062" xlink:href="#DejaVuSans-20"/>
    <use x="365.576172" xlink:href="#DejaVuSans-74"/>
    <use x="404.785156" xlink:href="#DejaVuSans-68"/>
    <use x="468.164062" xlink:href="#DejaVuSans-65"/>
    <use x="529.6875" xlink:href="#DejaVuSans-20"/>
    <use x="561.474609" xlink:href="#DejaVuSans-63"/>
    <use x="616.455078" xlink:href="#DejaVuSans-68"/>
    <use x="679.833984" xlink:href="#DejaVuSans-75"/>
    <use x="743.212891" xlink:href="#DejaVuSans-6e"/>
    <use x="806.591797" xlink:href="#DejaVuSans-6b"/>
    <use x="864.501953" xlink:href="#DejaVuSans-73"/>
    <use x="916.601562" xlink:href="#DejaVuSans-20"/>
    <use x="948.388672" xlink:href="#DejaVuSans-6f"/>
    <use x="1009.570312" xlink:href="#DejaVuSans-66"/>
    <use x="1044.775391" xlink:href="#DejaVuSans-20"/>
    <use x="1076.5625" xlink:href="#DejaVuSans-73"/>
    <use x="1128.662109" xlink:href="#DejaVuSans-69"/>
    <use x="1156.445312" xlink:href="#DejaVuSans-7a"/>
    <use x="1208.935547" xlink:href="#DejaVuSans-65"/>
    <use x="1270.458984" xlink:href="#DejaVuSans-20"/>
    <use x="1302.246094" xlink:href="#DejaVuSans-31"/>
    <use x="1365.869141" xlink:href="#DejaVuSans-30"/>
    <use x="1429.492188" xlink:href="#DejaVuSans-20"/>
    <use x="1461.279297" xlink:href="#DejaVuSans-6f"/>
    <use x="1522.460938" xlink:href="#DejaVuSans-66"/>
    <use x="1557.666016" xlink:href="#DejaVuSans-20"/>
    <use x="1589.453125" xlink:href="#DejaVuSans-64"/>
    <use x="1652.929688" xlink:href="#DejaVuSans-6f"/>
    <use x="1714.111328" xlink:href="#DejaVuSans-63"/>
    <use x="1769.091797" xlink:href="#DejaVuSans-75"/>
    <use x="1832.470703" xlink:href="#DejaVuSans-6d"/>
    <use x="1929.882812" xlink:href="#DejaVuSans-65"/>
    <use x="1991.40625" xlink:href="#DejaVuSans-6e"/>
    <use x="2054.785156" xlink:href="#DejaVuSans-74"/>
    <use x="2093.994141" xlink:href="#DejaVuSans-20"/>
    <use x="2125.78125" xlink:href="#DejaVuSans-64"/>
    <use x="2189.257812" xlink:href="#DejaVuSans-65"/>
    <use x="2250.78125" xlink:href="#DejaVuSans-31"/>
    <use x="2314.404297" xlink:href="#DejaVuSans-31"/>
    <use x="2378.027344" xlink:href="#DejaVuSans-37"/>
    <use x="2441.650391" xlink:href="#DejaVuSans-39"/>
    <use x="2505.273438" xlink:href="#DejaVuSans-30"/>
    <use x="2568.896484" xlink:href="#DejaVuSans-39"/>
    <use x="2632.519531" xlink:href="#DejaVuSans-38"/>
    <use x="2696.142578" xlink:href="#DejaVuSans-30"/>
    <use x="2759.765625" xlink:href="#DejaVuSans-32"/>
    <use x="2823.388672" xlink:href="#DejaVuSans-2e"/>
    <use x="2855.175781" xlink:href="#DejaVuSans-74"/>
    <use x="2894.384766" xlink:href="#DejaVuSans-78"/>
    <use x="2953.564453" xlink:href="#DejaVuSans-74"/>
   </g>
  </g>
 </g>
 <defs>
  <clipPath id="p33818c92a7">
   <rect height="194.04" width="390.6" x="63" y="30.24"/>
  </clipPath>
 </defs>
</svg>
