<?xml version="1.0" encoding="utf-8" standalone="no"?>
<!DOCTYPE svg PUBLIC "-//W3C//DTD SVG 1.1//EN"
  "http://www.w3.org/Graphics/SVG/1.1/DTD/svg11.dtd">
<!-- Created with matplotlib (http://matplotlib.org/) -->
<svg height="252pt" version="1.1" viewBox="0 0 504 252" width="504pt" xmlns="http://www.w3.org/2000/svg" xmlns:xlink="http://www.w3.org/1999/xlink">
 <defs>
  <style type="text/css">
*{stroke-linecap:butt;stroke-linejoin:round;}
  </style>
 </defs>
 <g id="figure_1">
  <g id="patch_1">
   <path d="M 0 252 
L 504 252 
L 504 0 
L 0 0 
z
" style="fill:#ffffff;"/>
  </g>
  <g id="axes_1">
   <g id="patch_2">
    <path d="M 63 224.28 
L 453.6 224.28 
L 453.6 30.24 
L 63 30.24 
z
" style="fill:#ffffff;"/>
   </g>
   <g id="patch_3">
    <path clip-path="url(#pc589c039a0)" d="M 80.754545 224.28 
L 83.229047 224.28 
L 83.229047 71.683952 
L 80.754545 71.683952 
z
" style="fill:#1f77b4;"/>
   </g>
   <g id="patch_4">
    <path clip-path="url(#pc589c039a0)" d="M 83.847672 224.28 
L 86.322173 224.28 
L 86.322173 39.48 
L 83.847672 39.48 
z
" style="fill:#1f77b4;"/>
   </g>
   <g id="patch_5">
    <path clip-path="url(#pc589c039a0)" d="M 86.940798 224.28 
L 89.415299 224.28 
L 89.415299 74.251278 
L 86.940798 74.251278 
z
" style="fill:#1f77b4;"/>
   </g>
   <g id="patch_6">
    <path clip-path="url(#pc589c039a0)" d="M 90.033925 224.28 
L 92.508426 224.28 
L 92.508426 88.513853 
L 90.033925 88.513853 
z
" style="fill:#1f77b4;"/>
   </g>
   <g id="patch_7">
    <path clip-path="url(#pc589c039a0)" d="M 93.127051 224.28 
L 95.601552 224.28 
L 95.601552 88.247841 
L 93.127051 88.247841 
z
" style="fill:#1f77b4;"/>
   </g>
   <g id="patch_8">
    <path clip-path="url(#pc589c039a0)" d="M 96.220177 224.28 
L 98.694678 224.28 
L 98.694678 78.570365 
L 96.220177 78.570365 
z
" style="fill:#1f77b4;"/>
   </g>
   <g id="patch_9">
    <path clip-path="url(#pc589c039a0)" d="M 99.313304 224.28 
L 101.787805 224.28 
L 101.787805 90.695564 
L 99.313304 90.695564 
z
" style="fill:#1f77b4;"/>
   </g>
   <g id="patch_10">
    <path clip-path="url(#pc589c039a0)" d="M 102.40643 224.28 
L 104.880931 224.28 
L 104.880931 69.760005 
L 102.40643 69.760005 
z
" style="fill:#1f77b4;"/>
   </g>
   <g id="patch_11">
    <path clip-path="url(#pc589c039a0)" d="M 105.499557 224.28 
L 107.974058 224.28 
L 107.974058 88.72625 
L 105.499557 88.72625 
z
" style="fill:#1f77b4;"/>
   </g>
   <g id="patch_12">
    <path clip-path="url(#pc589c039a0)" d="M 108.592683 224.28 
L 111.067184 224.28 
L 111.067184 79.041556 
L 108.592683 79.041556 
z
" style="fill:#1f77b4;"/>
   </g>
   <g id="patch_13">
    <path clip-path="url(#pc589c039a0)" d="M 111.685809 224.28 
L 114.16031 224.28 
L 114.16031 88.180822 
L 111.685809 88.180822 
z
" style="fill:#1f77b4;"/>
   </g>
   <g id="patch_14">
    <path clip-path="url(#pc589c039a0)" d="M 114.778936 224.28 
L 117.253437 224.28 
L 117.253437 93.620665 
L 114.778936 93.620665 
z
" style="fill:#1f77b4;"/>
   </g>
   <g id="patch_15">
    <path clip-path="url(#pc589c039a0)" d="M 117.872062 224.28 
L 120.346563 224.28 
L 120.346563 85.619683 
L 117.872062 85.619683 
z
" style="fill:#1f77b4;"/>
   </g>
   <g id="patch_16">
    <path clip-path="url(#pc589c039a0)" d="M 120.965188 224.28 
L 123.43969 224.28 
L 123.43969 72.984112 
L 120.965188 72.984112 
z
" style="fill:#1f77b4;"/>
   </g>
   <g id="patch_17">
    <path clip-path="url(#pc589c039a0)" d="M 124.058315 224.28 
L 126.532816 224.28 
L 126.532816 101.73197 
L 124.058315 101.73197 
z
" style="fill:#1f77b4;"/>
   </g>
   <g id="patch_18">
    <path clip-path="url(#pc589c039a0)" d="M 127.151441 224.28 
L 129.625942 224.28 
L 129.625942 57.220322 
L 127.151441 57.220322 
z
" style="fill:#1f77b4;"/>
   </g>
   <g id="patch_19">
    <path clip-path="url(#pc589c039a0)" d="M 130.244568 224.28 
L 132.719069 224.28 
L 132.719069 82.801812 
L 130.244568 82.801812 
z
" style="fill:#1f77b4;"/>
   </g>
   <g id="patch_20">
    <path clip-path="url(#pc589c039a0)" d="M 133.337694 224.28 
L 135.812195 224.28 
L 135.812195 42.812368 
L 133.337694 42.812368 
z
" style="fill:#1f77b4;"/>
   </g>
   <g id="patch_21">
    <path clip-path="url(#pc589c039a0)" d="M 136.43082 224.28 
L 138.905322 224.28 
L 138.905322 51.652628 
L 136.43082 51.652628 
z
" style="fill:#1f77b4;"/>
   </g>
   <g id="patch_22">
    <path clip-path="url(#pc589c039a0)" d="M 139.523947 224.28 
L 141.998448 224.28 
L 141.998448 72.186076 
L 139.523947 72.186076 
z
" style="fill:#1f77b4;"/>
   </g>
   <g id="patch_23">
    <path clip-path="url(#pc589c039a0)" d="M 142.617073 224.28 
L 145.091574 224.28 
L 145.091574 72.699541 
L 142.617073 72.699541 
z
" style="fill:#1f77b4;"/>
   </g>
   <g id="patch_24">
    <path clip-path="url(#pc589c039a0)" d="M 145.7102 224.28 
L 148.184701 224.28 
L 148.184701 60.342354 
L 145.7102 60.342354 
z
" style="fill:#1f77b4;"/>
   </g>
   <g id="patch_25">
    <path clip-path="url(#pc589c039a0)" d="M 148.803326 224.28 
L 151.277827 224.28 
L 151.277827 83.814307 
L 148.803326 83.814307 
z
" style="fill:#1f77b4;"/>
   </g>
   <g id="patch_26">
    <path clip-path="url(#pc589c039a0)" d="M 151.896452 224.28 
L 154.370953 224.28 
L 154.370953 71.080786 
L 151.896452 71.080786 
z
" style="fill:#1f77b4;"/>
   </g>
   <g id="patch_27">
    <path clip-path="url(#pc589c039a0)" d="M 154.989579 224.28 
L 157.46408 224.28 
L 157.46408 86.943557 
L 154.989579 86.943557 
z
" style="fill:#1f77b4;"/>
   </g>
   <g id="patch_28">
    <path clip-path="url(#pc589c039a0)" d="M 158.082705 224.28 
L 160.557206 224.28 
L 160.557206 76.378343 
L 158.082705 76.378343 
z
" style="fill:#1f77b4;"/>
   </g>
   <g id="patch_29">
    <path clip-path="url(#pc589c039a0)" d="M 161.175831 224.28 
L 163.650333 224.28 
L 163.650333 71.800462 
L 161.175831 71.800462 
z
" style="fill:#1f77b4;"/>
   </g>
   <g id="patch_30">
    <path clip-path="url(#pc589c039a0)" d="M 164.268958 224.28 
L 166.743459 224.28 
L 166.743459 85.528951 
L 164.268958 85.528951 
z
" style="fill:#1f77b4;"/>
   </g>
   <g id="patch_31">
    <path clip-path="url(#pc589c039a0)" d="M 167.362084 224.28 
L 169.836585 224.28 
L 169.836585 86.039322 
L 167.362084 86.039322 
z
" style="fill:#1f77b4;"/>
   </g>
   <g id="patch_32">
    <path clip-path="url(#pc589c039a0)" d="M 170.455211 224.28 
L 172.929712 224.28 
L 172.929712 71.731381 
L 170.455211 71.731381 
z
" style="fill:#1f77b4;"/>
   </g>
   <g id="patch_33">
    <path clip-path="url(#pc589c039a0)" d="M 173.548337 224.28 
L 176.022838 224.28 
L 176.022838 101.882504 
L 173.548337 101.882504 
z
" style="fill:#1f77b4;"/>
   </g>
   <g id="patch_34">
    <path clip-path="url(#pc589c039a0)" d="M 176.641463 224.28 
L 179.115965 224.28 
L 179.115965 69.77444 
L 176.641463 69.77444 
z
" style="fill:#1f77b4;"/>
   </g>
   <g id="patch_35">
    <path clip-path="url(#pc589c039a0)" d="M 179.73459 224.28 
L 182.209091 224.28 
L 182.209091 104.722028 
L 179.73459 104.722028 
z
" style="fill:#1f77b4;"/>
   </g>
   <g id="patch_36">
    <path clip-path="url(#pc589c039a0)" d="M 182.827716 224.28 
L 185.302217 224.28 
L 185.302217 107.503812 
L 182.827716 107.503812 
z
" style="fill:#1f77b4;"/>
   </g>
   <g id="patch_37">
    <path clip-path="url(#pc589c039a0)" d="M 185.920843 224.28 
L 188.395344 224.28 
L 188.395344 109.34012 
L 185.920843 109.34012 
z
" style="fill:#1f77b4;"/>
   </g>
   <g id="patch_38">
    <path clip-path="url(#pc589c039a0)" d="M 189.013969 224.28 
L 191.48847 224.28 
L 191.48847 99.166707 
L 189.013969 99.166707 
z
" style="fill:#1f77b4;"/>
   </g>
   <g id="patch_39">
    <path clip-path="url(#pc589c039a0)" d="M 192.107095 224.28 
L 194.581596 224.28 
L 194.581596 88.561281 
L 192.107095 88.561281 
z
" style="fill:#1f77b4;"/>
   </g>
   <g id="patch_40">
    <path clip-path="url(#pc589c039a0)" d="M 195.200222 224.28 
L 197.674723 224.28 
L 197.674723 99.006893 
L 195.200222 99.006893 
z
" style="fill:#1f77b4;"/>
   </g>
   <g id="patch_41">
    <path clip-path="url(#pc589c039a0)" d="M 198.293348 224.28 
L 200.767849 224.28 
L 200.767849 114.542821 
L 198.293348 114.542821 
z
" style="fill:#1f77b4;"/>
   </g>
   <g id="patch_42">
    <path clip-path="url(#pc589c039a0)" d="M 201.386475 224.28 
L 203.860976 224.28 
L 203.860976 87.701382 
L 201.386475 87.701382 
z
" style="fill:#1f77b4;"/>
   </g>
   <g id="patch_43">
    <path clip-path="url(#pc589c039a0)" d="M 204.479601 224.28 
L 206.954102 224.28 
L 206.954102 83.419413 
L 204.479601 83.419413 
z
" style="fill:#1f77b4;"/>
   </g>
   <g id="patch_44">
    <path clip-path="url(#pc589c039a0)" d="M 207.572727 224.28 
L 210.047228 224.28 
L 210.047228 89.483044 
L 207.572727 89.483044 
z
" style="fill:#1f77b4;"/>
   </g>
   <g id="patch_45">
    <path clip-path="url(#pc589c039a0)" d="M 210.665854 224.28 
L 213.140355 224.28 
L 213.140355 110.53305 
L 210.665854 110.53305 
z
" style="fill:#1f77b4;"/>
   </g>
   <g id="patch_46">
    <path clip-path="url(#pc589c039a0)" d="M 213.75898 224.28 
L 216.233481 224.28 
L 216.233481 86.250689 
L 213.75898 86.250689 
z
" style="fill:#1f77b4;"/>
   </g>
   <g id="patch_47">
    <path clip-path="url(#pc589c039a0)" d="M 216.852106 224.28 
L 219.326608 224.28 
L 219.326608 100.591624 
L 216.852106 100.591624 
z
" style="fill:#1f77b4;"/>
   </g>
   <g id="patch_48">
    <path clip-path="url(#pc589c039a0)" d="M 219.945233 224.28 
L 222.419734 224.28 
L 222.419734 88.666449 
L 219.945233 88.666449 
z
" style="fill:#1f77b4;"/>
   </g>
   <g id="patch_49">
    <path clip-path="url(#pc589c039a0)" d="M 223.038359 224.28 
L 225.51286 224.28 
L 225.51286 78.99619 
L 223.038359 78.99619 
z
" style="fill:#1f77b4;"/>
   </g>
   <g id="patch_50">
    <path clip-path="url(#pc589c039a0)" d="M 226.131486 224.28 
L 228.605987 224.28 
L 228.605987 80.033431 
L 226.131486 80.033431 
z
" style="fill:#1f77b4;"/>
   </g>
   <g id="patch_51">
    <path clip-path="url(#pc589c039a0)" d="M 229.224612 224.28 
L 231.699113 224.28 
L 231.699113 79.642661 
L 229.224612 79.642661 
z
" style="fill:#1f77b4;"/>
   </g>
   <g id="patch_52">
    <path clip-path="url(#pc589c039a0)" d="M 232.317738 224.28 
L 234.792239 224.28 
L 234.792239 56.809962 
L 232.317738 56.809962 
z
" style="fill:#1f77b4;"/>
   </g>
   <g id="patch_53">
    <path clip-path="url(#pc589c039a0)" d="M 235.410865 224.28 
L 237.885366 224.28 
L 237.885366 71.278748 
L 235.410865 71.278748 
z
" style="fill:#1f77b4;"/>
   </g>
   <g id="patch_54">
    <path clip-path="url(#pc589c039a0)" d="M 238.503991 224.28 
L 240.978492 224.28 
L 240.978492 64.634634 
L 238.503991 64.634634 
z
" style="fill:#1f77b4;"/>
   </g>
   <g id="patch_55">
    <path clip-path="url(#pc589c039a0)" d="M 241.597118 224.28 
L 244.071619 224.28 
L 244.071619 61.29608 
L 241.597118 61.29608 
z
" style="fill:#1f77b4;"/>
   </g>
   <g id="patch_56">
    <path clip-path="url(#pc589c039a0)" d="M 244.690244 224.28 
L 247.164745 224.28 
L 247.164745 58.332829 
L 244.690244 58.332829 
z
" style="fill:#1f77b4;"/>
   </g>
   <g id="patch_57">
    <path clip-path="url(#pc589c039a0)" d="M 247.78337 224.28 
L 250.257871 224.28 
L 250.257871 58.933934 
L 247.78337 58.933934 
z
" style="fill:#1f77b4;"/>
   </g>
   <g id="patch_58">
    <path clip-path="url(#pc589c039a0)" d="M 250.876497 224.28 
L 253.350998 224.28 
L 253.350998 96.330276 
L 250.876497 96.330276 
z
" style="fill:#1f77b4;"/>
   </g>
   <g id="patch_59">
    <path clip-path="url(#pc589c039a0)" d="M 253.969623 224.28 
L 256.444124 224.28 
L 256.444124 78.962165 
L 253.969623 78.962165 
z
" style="fill:#1f77b4;"/>
   </g>
   <g id="patch_60">
    <path clip-path="url(#pc589c039a0)" d="M 257.062749 224.28 
L 259.537251 224.28 
L 259.537251 101.159735 
L 257.062749 101.159735 
z
" style="fill:#1f77b4;"/>
   </g>
   <g id="patch_61">
    <path clip-path="url(#pc589c039a0)" d="M 260.155876 224.28 
L 262.630377 224.28 
L 262.630377 53.175495 
L 260.155876 53.175495 
z
" style="fill:#1f77b4;"/>
   </g>
   <g id="patch_62">
    <path clip-path="url(#pc589c039a0)" d="M 263.249002 224.28 
L 265.723503 224.28 
L 265.723503 72.956273 
L 263.249002 72.956273 
z
" style="fill:#1f77b4;"/>
   </g>
   <g id="patch_63">
    <path clip-path="url(#pc589c039a0)" d="M 266.342129 224.28 
L 268.81663 224.28 
L 268.81663 79.01578 
L 266.342129 79.01578 
z
" style="fill:#1f77b4;"/>
   </g>
   <g id="patch_64">
    <path clip-path="url(#pc589c039a0)" d="M 269.435255 224.28 
L 271.909756 224.28 
L 271.909756 53.124974 
L 269.435255 53.124974 
z
" style="fill:#1f77b4;"/>
   </g>
   <g id="patch_65">
    <path clip-path="url(#pc589c039a0)" d="M 272.528381 224.28 
L 275.002882 224.28 
L 275.002882 58.668953 
L 272.528381 58.668953 
z
" style="fill:#1f77b4;"/>
   </g>
   <g id="patch_66">
    <path clip-path="url(#pc589c039a0)" d="M 275.621508 224.28 
L 278.096009 224.28 
L 278.096009 57.086285 
L 275.621508 57.086285 
z
" style="fill:#1f77b4;"/>
   </g>
   <g id="patch_67">
    <path clip-path="url(#pc589c039a0)" d="M 278.714634 224.28 
L 281.189135 224.28 
L 281.189135 65.068707 
L 278.714634 65.068707 
z
" style="fill:#1f77b4;"/>
   </g>
   <g id="patch_68">
    <path clip-path="url(#pc589c039a0)" d="M 281.807761 224.28 
L 284.282262 224.28 
L 284.282262 61.373409 
L 281.807761 61.373409 
z
" style="fill:#1f77b4;"/>
   </g>
   <g id="patch_69">
    <path clip-path="url(#pc589c039a0)" d="M 284.900887 224.28 
L 287.375388 224.28 
L 287.375388 57.431688 
L 284.900887 57.431688 
z
" style="fill:#1f77b4;"/>
   </g>
   <g id="patch_70">
    <path clip-path="url(#pc589c039a0)" d="M 287.994013 224.28 
L 290.468514 224.28 
L 290.468514 61.18885 
L 287.994013 61.18885 
z
" style="fill:#1f77b4;"/>
   </g>
   <g id="patch_71">
    <path clip-path="url(#pc589c039a0)" d="M 291.08714 224.28 
L 293.561641 224.28 
L 293.561641 68.970217 
L 291.08714 68.970217 
z
" style="fill:#1f77b4;"/>
   </g>
   <g id="patch_72">
    <path clip-path="url(#pc589c039a0)" d="M 294.180266 224.28 
L 296.654767 224.28 
L 296.654767 46.822138 
L 294.180266 46.822138 
z
" style="fill:#1f77b4;"/>
   </g>
   <g id="patch_73">
    <path clip-path="url(#pc589c039a0)" d="M 297.273392 224.28 
L 299.747894 224.28 
L 299.747894 81.394422 
L 297.273392 81.394422 
z
" style="fill:#1f77b4;"/>
   </g>
   <g id="patch_74">
    <path clip-path="url(#pc589c039a0)" d="M 300.366519 224.28 
L 302.84102 224.28 
L 302.84102 62.824102 
L 300.366519 62.824102 
z
" style="fill:#1f77b4;"/>
   </g>
   <g id="patch_75">
    <path clip-path="url(#pc589c039a0)" d="M 303.459645 224.28 
L 305.934146 224.28 
L 305.934146 70.497209 
L 303.459645 70.497209 
z
" style="fill:#1f77b4;"/>
   </g>
   <g id="patch_76">
    <path clip-path="url(#pc589c039a0)" d="M 306.552772 224.28 
L 309.027273 224.28 
L 309.027273 80.033431 
L 306.552772 80.033431 
z
" style="fill:#1f77b4;"/>
   </g>
   <g id="patch_77">
    <path clip-path="url(#pc589c039a0)" d="M 309.645898 224.28 
L 312.120399 224.28 
L 312.120399 69.420788 
L 309.645898 69.420788 
z
" style="fill:#1f77b4;"/>
   </g>
   <g id="patch_78">
    <path clip-path="url(#pc589c039a0)" d="M 312.739024 224.28 
L 315.213525 224.28 
L 315.213525 90.831663 
L 312.739024 90.831663 
z
" style="fill:#1f77b4;"/>
   </g>
   <g id="patch_79">
    <path clip-path="url(#pc589c039a0)" d="M 315.832151 224.28 
L 318.306652 224.28 
L 318.306652 67.666965 
L 315.832151 67.666965 
z
" style="fill:#1f77b4;"/>
   </g>
   <g id="patch_80">
    <path clip-path="url(#pc589c039a0)" d="M 318.925277 224.28 
L 321.399778 224.28 
L 321.399778 86.871383 
L 318.925277 86.871383 
z
" style="fill:#1f77b4;"/>
   </g>
   <g id="patch_81">
    <path clip-path="url(#pc589c039a0)" d="M 322.018404 224.28 
L 324.492905 224.28 
L 324.492905 73.982173 
L 322.018404 73.982173 
z
" style="fill:#1f77b4;"/>
   </g>
   <g id="patch_82">
    <path clip-path="url(#pc589c039a0)" d="M 325.11153 224.28 
L 327.586031 224.28 
L 327.586031 75.966952 
L 325.11153 75.966952 
z
" style="fill:#1f77b4;"/>
   </g>
   <g id="patch_83">
    <path clip-path="url(#pc589c039a0)" d="M 328.204656 224.28 
L 330.679157 224.28 
L 330.679157 91.450296 
L 328.204656 91.450296 
z
" style="fill:#1f77b4;"/>
   </g>
   <g id="patch_84">
    <path clip-path="url(#pc589c039a0)" d="M 331.297783 224.28 
L 333.772284 224.28 
L 333.772284 74.377066 
L 331.297783 74.377066 
z
" style="fill:#1f77b4;"/>
   </g>
   <g id="patch_85">
    <path clip-path="url(#pc589c039a0)" d="M 334.390909 224.28 
L 336.86541 224.28 
L 336.86541 107.593514 
L 334.390909 107.593514 
z
" style="fill:#1f77b4;"/>
   </g>
   <g id="patch_86">
    <path clip-path="url(#pc589c039a0)" d="M 337.484035 224.28 
L 339.958537 224.28 
L 339.958537 90.991477 
L 337.484035 90.991477 
z
" style="fill:#1f77b4;"/>
   </g>
   <g id="patch_87">
    <path clip-path="url(#pc589c039a0)" d="M 340.577162 224.28 
L 343.051663 224.28 
L 343.051663 91.196656 
L 340.577162 91.196656 
z
" style="fill:#1f77b4;"/>
   </g>
   <g id="patch_88">
    <path clip-path="url(#pc589c039a0)" d="M 343.670288 224.28 
L 346.144789 224.28 
L 346.144789 74.260557 
L 343.670288 74.260557 
z
" style="fill:#1f77b4;"/>
   </g>
   <g id="patch_89">
    <path clip-path="url(#pc589c039a0)" d="M 346.763415 224.28 
L 349.237916 224.28 
L 349.237916 92.020469 
L 346.763415 92.020469 
z
" style="fill:#1f77b4;"/>
   </g>
   <g id="patch_90">
    <path clip-path="url(#pc589c039a0)" d="M 349.856541 224.28 
L 352.331042 224.28 
L 352.331042 100.985487 
L 349.856541 100.985487 
z
" style="fill:#1f77b4;"/>
   </g>
   <g id="patch_91">
    <path clip-path="url(#pc589c039a0)" d="M 352.949667 224.28 
L 355.424169 224.28 
L 355.424169 73.908968 
L 352.949667 73.908968 
z
" style="fill:#1f77b4;"/>
   </g>
   <g id="patch_92">
    <path clip-path="url(#pc589c039a0)" d="M 356.042794 224.28 
L 358.517295 224.28 
L 358.517295 74.1657 
L 356.042794 74.1657 
z
" style="fill:#1f77b4;"/>
   </g>
   <g id="patch_93">
    <path clip-path="url(#pc589c039a0)" d="M 359.13592 224.28 
L 361.610421 224.28 
L 361.610421 78.469321 
L 359.13592 78.469321 
z
" style="fill:#1f77b4;"/>
   </g>
   <g id="patch_94">
    <path clip-path="url(#pc589c039a0)" d="M 362.229047 224.28 
L 364.703548 224.28 
L 364.703548 62.341569 
L 362.229047 62.341569 
z
" style="fill:#1f77b4;"/>
   </g>
   <g id="patch_95">
    <path clip-path="url(#pc589c039a0)" d="M 365.322173 224.28 
L 367.796674 224.28 
L 367.796674 69.955905 
L 365.322173 69.955905 
z
" style="fill:#1f77b4;"/>
   </g>
   <g id="patch_96">
    <path clip-path="url(#pc589c039a0)" d="M 368.415299 224.28 
L 370.8898 224.28 
L 370.8898 67.598915 
L 368.415299 67.598915 
z
" style="fill:#1f77b4;"/>
   </g>
   <g id="patch_97">
    <path clip-path="url(#pc589c039a0)" d="M 371.508426 224.28 
L 373.982927 224.28 
L 373.982927 78.293011 
L 371.508426 78.293011 
z
" style="fill:#1f77b4;"/>
   </g>
   <g id="patch_98">
    <path clip-path="url(#pc589c039a0)" d="M 374.601552 224.28 
L 377.076053 224.28 
L 377.076053 61.373409 
L 374.601552 61.373409 
z
" style="fill:#1f77b4;"/>
   </g>
   <g id="patch_99">
    <path clip-path="url(#pc589c039a0)" d="M 377.694678 224.28 
L 380.16918 224.28 
L 380.16918 81.378957 
L 377.694678 81.378957 
z
" style="fill:#1f77b4;"/>
   </g>
   <g id="patch_100">
    <path clip-path="url(#pc589c039a0)" d="M 380.787805 224.28 
L 383.262306 224.28 
L 383.262306 73.966707 
L 380.787805 73.966707 
z
" style="fill:#1f77b4;"/>
   </g>
   <g id="patch_101">
    <path clip-path="url(#pc589c039a0)" d="M 383.880931 224.28 
L 386.355432 224.28 
L 386.355432 92.378245 
L 383.880931 92.378245 
z
" style="fill:#1f77b4;"/>
   </g>
   <g id="patch_102">
    <path clip-path="url(#pc589c039a0)" d="M 386.974058 224.28 
L 389.448559 224.28 
L 389.448559 59.04735 
L 386.974058 59.04735 
z
" style="fill:#1f77b4;"/>
   </g>
   <g id="patch_103">
    <path clip-path="url(#pc589c039a0)" d="M 390.067184 224.28 
L 392.541685 224.28 
L 392.541685 80.963442 
L 390.067184 80.963442 
z
" style="fill:#1f77b4;"/>
   </g>
   <g id="patch_104">
    <path clip-path="url(#pc589c039a0)" d="M 393.16031 224.28 
L 395.634812 224.28 
L 395.634812 75.452456 
L 393.16031 75.452456 
z
" style="fill:#1f77b4;"/>
   </g>
   <g id="patch_105">
    <path clip-path="url(#pc589c039a0)" d="M 396.253437 224.28 
L 398.727938 224.28 
L 398.727938 72.119057 
L 396.253437 72.119057 
z
" style="fill:#1f77b4;"/>
   </g>
   <g id="patch_106">
    <path clip-path="url(#pc589c039a0)" d="M 399.346563 224.28 
L 401.821064 224.28 
L 401.821064 101.691759 
L 399.346563 101.691759 
z
" style="fill:#1f77b4;"/>
   </g>
   <g id="patch_107">
    <path clip-path="url(#pc589c039a0)" d="M 402.43969 224.28 
L 404.914191 224.28 
L 404.914191 65.140881 
L 402.43969 65.140881 
z
" style="fill:#1f77b4;"/>
   </g>
   <g id="patch_108">
    <path clip-path="url(#pc589c039a0)" d="M 405.532816 224.28 
L 408.007317 224.28 
L 408.007317 90.527502 
L 405.532816 90.527502 
z
" style="fill:#1f77b4;"/>
   </g>
   <g id="patch_109">
    <path clip-path="url(#pc589c039a0)" d="M 408.625942 224.28 
L 411.100443 224.28 
L 411.100443 77.335161 
L 408.625942 77.335161 
z
" style="fill:#1f77b4;"/>
   </g>
   <g id="patch_110">
    <path clip-path="url(#pc589c039a0)" d="M 411.719069 224.28 
L 414.19357 224.28 
L 414.19357 84.228791 
L 411.719069 84.228791 
z
" style="fill:#1f77b4;"/>
   </g>
   <g id="patch_111">
    <path clip-path="url(#pc589c039a0)" d="M 414.812195 224.28 
L 417.286696 224.28 
L 417.286696 44.607433 
L 414.812195 44.607433 
z
" style="fill:#1f77b4;"/>
   </g>
   <g id="patch_112">
    <path clip-path="url(#pc589c039a0)" d="M 417.905322 224.28 
L 420.379823 224.28 
L 420.379823 68.369113 
L 417.905322 68.369113 
z
" style="fill:#1f77b4;"/>
   </g>
   <g id="patch_113">
    <path clip-path="url(#pc589c039a0)" d="M 420.998448 224.28 
L 423.472949 224.28 
L 423.472949 57.383228 
L 420.998448 57.383228 
z
" style="fill:#1f77b4;"/>
   </g>
   <g id="patch_114">
    <path clip-path="url(#pc589c039a0)" d="M 424.091574 224.28 
L 426.566075 224.28 
L 426.566075 61.561061 
L 424.091574 61.561061 
z
" style="fill:#1f77b4;"/>
   </g>
   <g id="patch_115">
    <path clip-path="url(#pc589c039a0)" d="M 427.184701 224.28 
L 429.659202 224.28 
L 429.659202 75.546282 
L 427.184701 75.546282 
z
" style="fill:#1f77b4;"/>
   </g>
   <g id="patch_116">
    <path clip-path="url(#pc589c039a0)" d="M 430.277827 224.28 
L 432.752328 224.28 
L 432.752328 104.722028 
L 430.277827 104.722028 
z
" style="fill:#1f77b4;"/>
   </g>
   <g id="patch_117">
    <path clip-path="url(#pc589c039a0)" d="M 433.370953 224.28 
L 435.845455 224.28 
L 435.845455 96.143655 
L 433.370953 96.143655 
z
" style="fill:#1f77b4;"/>
   </g>
   <g id="matplotlib.axis_1">
    <g id="xtick_1">
     <g id="line2d_1">
      <defs>
       <path d="M 0 0 
L 0 3.5 
" id="md2ae2697df" style="stroke:#000000;stroke-width:0.8;"/>
      </defs>
      <g>
       <use style="stroke:#000000;stroke-width:0.8;" x="78.89867" xlink:href="#md2ae2697df" y="224.28"/>
      </g>
     </g>
     <g id="text_1">
      <!-- 0 -->
      <defs>
       <path d="M 31.78125 66.40625 
Q 24.171875 66.40625 20.328125 58.90625 
Q 16.5 51.421875 16.5 36.375 
Q 16.5 21.390625 20.328125 13.890625 
Q 24.171875 6.390625 31.78125 6.390625 
Q 39.453125 6.390625 43.28125 13.890625 
Q 47.125 21.390625 47.125 36.375 
Q 47.125 51.421875 43.28125 58.90625 
Q 39.453125 66.40625 31.78125 66.40625 
z
M 31.78125 74.21875 
Q 44.046875 74.21875 50.515625 64.515625 
Q 56.984375 54.828125 56.984375 36.375 
Q 56.984375 17.96875 50.515625 8.265625 
Q 44.046875 -1.421875 31.78125 -1.421875 
Q 19.53125 -1.421875 13.0625 8.265625 
Q 6.59375 17.96875 6.59375 36.375 
Q 6.59375 54.828125 13.0625 64.515625 
Q 19.53125 74.21875 31.78125 74.21875 
z
" id="DejaVuSans-30"/>
      </defs>
      <g transform="translate(75.71742 238.878438)scale(0.1 -0.1)">
       <use xlink:href="#DejaVuSans-30"/>
      </g>
     </g>
    </g>
    <g id="xtick_2">
     <g id="line2d_2">
      <g>
       <use style="stroke:#000000;stroke-width:0.8;" x="140.761197" xlink:href="#md2ae2697df" y="224.28"/>
      </g>
     </g>
     <g id="text_2">
      <!-- 20 -->
      <defs>
       <path d="M 19.1875 8.296875 
L 53.609375 8.296875 
L 53.609375 0 
L 7.328125 0 
L 7.328125 8.296875 
Q 12.9375 14.109375 22.625 23.890625 
Q 32.328125 33.6875 34.8125 36.53125 
Q 39.546875 41.84375 41.421875 45.53125 
Q 43.3125 49.21875 43.3125 52.78125 
Q 43.3125 58.59375 39.234375 62.25 
Q 35.15625 65.921875 28.609375 65.921875 
Q 23.96875 65.921875 18.8125 64.3125 
Q 13.671875 62.703125 7.8125 59.421875 
L 7.8125 69.390625 
Q 13.765625 71.78125 18.9375 73 
Q 24.125 74.21875 28.421875 74.21875 
Q 39.75 74.21875 46.484375 68.546875 
Q 53.21875 62.890625 53.21875 53.421875 
Q 53.21875 48.921875 51.53125 44.890625 
Q 49.859375 40.875 45.40625 35.40625 
Q 44.1875 33.984375 37.640625 27.21875 
Q 31.109375 20.453125 19.1875 8.296875 
z
" id="DejaVuSans-32"/>
      </defs>
      <g transform="translate(134.398697 238.878438)scale(0.1 -0.1)">
       <use xlink:href="#DejaVuSans-32"/>
       <use x="63.623047" xlink:href="#DejaVuSans-30"/>
      </g>
     </g>
    </g>
    <g id="xtick_3">
     <g id="line2d_3">
      <g>
       <use style="stroke:#000000;stroke-width:0.8;" x="202.623725" xlink:href="#md2ae2697df" y="224.28"/>
      </g>
     </g>
     <g id="text_3">
      <!-- 40 -->
      <defs>
       <path d="M 37.796875 64.3125 
L 12.890625 25.390625 
L 37.796875 25.390625 
z
M 35.203125 72.90625 
L 47.609375 72.90625 
L 47.609375 25.390625 
L 58.015625 25.390625 
L 58.015625 17.1875 
L 47.609375 17.1875 
L 47.609375 0 
L 37.796875 0 
L 37.796875 17.1875 
L 4.890625 17.1875 
L 4.890625 26.703125 
z
" id="DejaVuSans-34"/>
      </defs>
      <g transform="translate(196.261225 238.878438)scale(0.1 -0.1)">
       <use xlink:href="#DejaVuSans-34"/>
       <use x="63.623047" xlink:href="#DejaVuSans-30"/>
      </g>
     </g>
    </g>
    <g id="xtick_4">
     <g id="line2d_4">
      <g>
       <use style="stroke:#000000;stroke-width:0.8;" x="264.486253" xlink:href="#md2ae2697df" y="224.28"/>
      </g>
     </g>
     <g id="text_4">
      <!-- 60 -->
      <defs>
       <path d="M 33.015625 40.375 
Q 26.375 40.375 22.484375 35.828125 
Q 18.609375 31.296875 18.609375 23.390625 
Q 18.609375 15.53125 22.484375 10.953125 
Q 26.375 6.390625 33.015625 6.390625 
Q 39.65625 6.390625 43.53125 10.953125 
Q 47.40625 15.53125 47.40625 23.390625 
Q 47.40625 31.296875 43.53125 35.828125 
Q 39.65625 40.375 33.015625 40.375 
z
M 52.59375 71.296875 
L 52.59375 62.3125 
Q 48.875 64.0625 45.09375 64.984375 
Q 41.3125 65.921875 37.59375 65.921875 
Q 27.828125 65.921875 22.671875 59.328125 
Q 17.53125 52.734375 16.796875 39.40625 
Q 19.671875 43.65625 24.015625 45.921875 
Q 28.375 48.1875 33.59375 48.1875 
Q 44.578125 48.1875 50.953125 41.515625 
Q 57.328125 34.859375 57.328125 23.390625 
Q 57.328125 12.15625 50.6875 5.359375 
Q 44.046875 -1.421875 33.015625 -1.421875 
Q 20.359375 -1.421875 13.671875 8.265625 
Q 6.984375 17.96875 6.984375 36.375 
Q 6.984375 53.65625 15.1875 63.9375 
Q 23.390625 74.21875 37.203125 74.21875 
Q 40.921875 74.21875 44.703125 73.484375 
Q 48.484375 72.75 52.59375 71.296875 
z
" id="DejaVuSans-36"/>
      </defs>
      <g transform="translate(258.123753 238.878438)scale(0.1 -0.1)">
       <use xlink:href="#DejaVuSans-36"/>
       <use x="63.623047" xlink:href="#DejaVuSans-30"/>
      </g>
     </g>
    </g>
    <g id="xtick_5">
     <g id="line2d_5">
      <g>
       <use style="stroke:#000000;stroke-width:0.8;" x="326.34878" xlink:href="#md2ae2697df" y="224.28"/>
      </g>
     </g>
     <g id="text_5">
      <!-- 80 -->
      <defs>
       <path d="M 31.78125 34.625 
Q 24.75 34.625 20.71875 30.859375 
Q 16.703125 27.09375 16.703125 20.515625 
Q 16.703125 13.921875 20.71875 10.15625 
Q 24.75 6.390625 31.78125 6.390625 
Q 38.8125 6.390625 42.859375 10.171875 
Q 46.921875 13.96875 46.921875 20.515625 
Q 46.921875 27.09375 42.890625 30.859375 
Q 38.875 34.625 31.78125 34.625 
z
M 21.921875 38.8125 
Q 15.578125 40.375 12.03125 44.71875 
Q 8.5 49.078125 8.5 55.328125 
Q 8.5 64.0625 14.71875 69.140625 
Q 20.953125 74.21875 31.78125 74.21875 
Q 42.671875 74.21875 48.875 69.140625 
Q 55.078125 64.0625 55.078125 55.328125 
Q 55.078125 49.078125 51.53125 44.71875 
Q 48 40.375 41.703125 38.8125 
Q 48.828125 37.15625 52.796875 32.3125 
Q 56.78125 27.484375 56.78125 20.515625 
Q 56.78125 9.90625 50.3125 4.234375 
Q 43.84375 -1.421875 31.78125 -1.421875 
Q 19.734375 -1.421875 13.25 4.234375 
Q 6.78125 9.90625 6.78125 20.515625 
Q 6.78125 27.484375 10.78125 32.3125 
Q 14.796875 37.15625 21.921875 38.8125 
z
M 18.3125 54.390625 
Q 18.3125 48.734375 21.84375 45.5625 
Q 25.390625 42.390625 31.78125 42.390625 
Q 38.140625 42.390625 41.71875 45.5625 
Q 45.3125 48.734375 45.3125 54.390625 
Q 45.3125 60.0625 41.71875 63.234375 
Q 38.140625 66.40625 31.78125 66.40625 
Q 25.390625 66.40625 21.84375 63.234375 
Q 18.3125 60.0625 18.3125 54.390625 
z
" id="DejaVuSans-38"/>
      </defs>
      <g transform="translate(319.98628 238.878438)scale(0.1 -0.1)">
       <use xlink:href="#DejaVuSans-38"/>
       <use x="63.623047" xlink:href="#DejaVuSans-30"/>
      </g>
     </g>
    </g>
    <g id="xtick_6">
     <g id="line2d_6">
      <g>
       <use style="stroke:#000000;stroke-width:0.8;" x="388.211308" xlink:href="#md2ae2697df" y="224.28"/>
      </g>
     </g>
     <g id="text_6">
      <!-- 100 -->
      <defs>
       <path d="M 12.40625 8.296875 
L 28.515625 8.296875 
L 28.515625 63.921875 
L 10.984375 60.40625 
L 10.984375 69.390625 
L 28.421875 72.90625 
L 38.28125 72.90625 
L 38.28125 8.296875 
L 54.390625 8.296875 
L 54.390625 0 
L 12.40625 0 
z
" id="DejaVuSans-31"/>
      </defs>
      <g transform="translate(378.667558 238.878438)scale(0.1 -0.1)">
       <use xlink:href="#DejaVuSans-31"/>
       <use x="63.623047" xlink:href="#DejaVuSans-30"/>
       <use x="127.246094" xlink:href="#DejaVuSans-30"/>
      </g>
     </g>
    </g>
    <g id="xtick_7">
     <g id="line2d_7">
      <g>
       <use style="stroke:#000000;stroke-width:0.8;" x="450.073836" xlink:href="#md2ae2697df" y="224.28"/>
      </g>
     </g>
     <g id="text_7">
      <!-- 120 -->
      <g transform="translate(440.530086 238.878438)scale(0.1 -0.1)">
       <use xlink:href="#DejaVuSans-31"/>
       <use x="63.623047" xlink:href="#DejaVuSans-32"/>
       <use x="127.246094" xlink:href="#DejaVuSans-30"/>
      </g>
     </g>
    </g>
    <g id="text_8">
     <!-- number of chunk (from beginning to end) -->
     <defs>
      <path d="M 54.890625 33.015625 
L 54.890625 0 
L 45.90625 0 
L 45.90625 32.71875 
Q 45.90625 40.484375 42.875 44.328125 
Q 39.84375 48.1875 33.796875 48.1875 
Q 26.515625 48.1875 22.3125 43.546875 
Q 18.109375 38.921875 18.109375 30.90625 
L 18.109375 0 
L 9.078125 0 
L 9.078125 54.6875 
L 18.109375 54.6875 
L 18.109375 46.1875 
Q 21.34375 51.125 25.703125 53.5625 
Q 30.078125 56 35.796875 56 
Q 45.21875 56 50.046875 50.171875 
Q 54.890625 44.34375 54.890625 33.015625 
z
" id="DejaVuSans-6e"/>
      <path d="M 8.5 21.578125 
L 8.5 54.6875 
L 17.484375 54.6875 
L 17.484375 21.921875 
Q 17.484375 14.15625 20.5 10.265625 
Q 23.53125 6.390625 29.59375 6.390625 
Q 36.859375 6.390625 41.078125 11.03125 
Q 45.3125 15.671875 45.3125 23.6875 
L 45.3125 54.6875 
L 54.296875 54.6875 
L 54.296875 0 
L 45.3125 0 
L 45.3125 8.40625 
Q 42.046875 3.421875 37.71875 1 
Q 33.40625 -1.421875 27.6875 -1.421875 
Q 18.265625 -1.421875 13.375 4.4375 
Q 8.5 10.296875 8.5 21.578125 
z
M 31.109375 56 
z
" id="DejaVuSans-75"/>
      <path d="M 52 44.1875 
Q 55.375 50.25 60.0625 53.125 
Q 64.75 56 71.09375 56 
Q 79.640625 56 84.28125 50.015625 
Q 88.921875 44.046875 88.921875 33.015625 
L 88.921875 0 
L 79.890625 0 
L 79.890625 32.71875 
Q 79.890625 40.578125 77.09375 44.375 
Q 74.3125 48.1875 68.609375 48.1875 
Q 61.625 48.1875 57.5625 43.546875 
Q 53.515625 38.921875 53.515625 30.90625 
L 53.515625 0 
L 44.484375 0 
L 44.484375 32.71875 
Q 44.484375 40.625 41.703125 44.40625 
Q 38.921875 48.1875 33.109375 48.1875 
Q 26.21875 48.1875 22.15625 43.53125 
Q 18.109375 38.875 18.109375 30.90625 
L 18.109375 0 
L 9.078125 0 
L 9.078125 54.6875 
L 18.109375 54.6875 
L 18.109375 46.1875 
Q 21.1875 51.21875 25.484375 53.609375 
Q 29.78125 56 35.6875 56 
Q 41.65625 56 45.828125 52.96875 
Q 50 49.953125 52 44.1875 
z
" id="DejaVuSans-6d"/>
      <path d="M 48.6875 27.296875 
Q 48.6875 37.203125 44.609375 42.84375 
Q 40.53125 48.484375 33.40625 48.484375 
Q 26.265625 48.484375 22.1875 42.84375 
Q 18.109375 37.203125 18.109375 27.296875 
Q 18.109375 17.390625 22.1875 11.75 
Q 26.265625 6.109375 33.40625 6.109375 
Q 40.53125 6.109375 44.609375 11.75 
Q 48.6875 17.390625 48.6875 27.296875 
z
M 18.109375 46.390625 
Q 20.953125 51.265625 25.265625 53.625 
Q 29.59375 56 35.59375 56 
Q 45.5625 56 51.78125 48.09375 
Q 58.015625 40.1875 58.015625 27.296875 
Q 58.015625 14.40625 51.78125 6.484375 
Q 45.5625 -1.421875 35.59375 -1.421875 
Q 29.59375 -1.421875 25.265625 0.953125 
Q 20.953125 3.328125 18.109375 8.203125 
L 18.109375 0 
L 9.078125 0 
L 9.078125 75.984375 
L 18.109375 75.984375 
z
" id="DejaVuSans-62"/>
      <path d="M 56.203125 29.59375 
L 56.203125 25.203125 
L 14.890625 25.203125 
Q 15.484375 15.921875 20.484375 11.0625 
Q 25.484375 6.203125 34.421875 6.203125 
Q 39.59375 6.203125 44.453125 7.46875 
Q 49.3125 8.734375 54.109375 11.28125 
L 54.109375 2.78125 
Q 49.265625 0.734375 44.1875 -0.34375 
Q 39.109375 -1.421875 33.890625 -1.421875 
Q 20.796875 -1.421875 13.15625 6.1875 
Q 5.515625 13.8125 5.515625 26.8125 
Q 5.515625 40.234375 12.765625 48.109375 
Q 20.015625 56 32.328125 56 
Q 43.359375 56 49.78125 48.890625 
Q 56.203125 41.796875 56.203125 29.59375 
z
M 47.21875 32.234375 
Q 47.125 39.59375 43.09375 43.984375 
Q 39.0625 48.390625 32.421875 48.390625 
Q 24.90625 48.390625 20.390625 44.140625 
Q 15.875 39.890625 15.1875 32.171875 
z
" id="DejaVuSans-65"/>
      <path d="M 41.109375 46.296875 
Q 39.59375 47.171875 37.8125 47.578125 
Q 36.03125 48 33.890625 48 
Q 26.265625 48 22.1875 43.046875 
Q 18.109375 38.09375 18.109375 28.8125 
L 18.109375 0 
L 9.078125 0 
L 9.078125 54.6875 
L 18.109375 54.6875 
L 18.109375 46.1875 
Q 20.953125 51.171875 25.484375 53.578125 
Q 30.03125 56 36.53125 56 
Q 37.453125 56 38.578125 55.875 
Q 39.703125 55.765625 41.0625 55.515625 
z
" id="DejaVuSans-72"/>
      <path id="DejaVuSans-20"/>
      <path d="M 30.609375 48.390625 
Q 23.390625 48.390625 19.1875 42.75 
Q 14.984375 37.109375 14.984375 27.296875 
Q 14.984375 17.484375 19.15625 11.84375 
Q 23.34375 6.203125 30.609375 6.203125 
Q 37.796875 6.203125 41.984375 11.859375 
Q 46.1875 17.53125 46.1875 27.296875 
Q 46.1875 37.015625 41.984375 42.703125 
Q 37.796875 48.390625 30.609375 48.390625 
z
M 30.609375 56 
Q 42.328125 56 49.015625 48.375 
Q 55.71875 40.765625 55.71875 27.296875 
Q 55.71875 13.875 49.015625 6.21875 
Q 42.328125 -1.421875 30.609375 -1.421875 
Q 18.84375 -1.421875 12.171875 6.21875 
Q 5.515625 13.875 5.515625 27.296875 
Q 5.515625 40.765625 12.171875 48.375 
Q 18.84375 56 30.609375 56 
z
" id="DejaVuSans-6f"/>
      <path d="M 37.109375 75.984375 
L 37.109375 68.5 
L 28.515625 68.5 
Q 23.6875 68.5 21.796875 66.546875 
Q 19.921875 64.59375 19.921875 59.515625 
L 19.921875 54.6875 
L 34.71875 54.6875 
L 34.71875 47.703125 
L 19.921875 47.703125 
L 19.921875 0 
L 10.890625 0 
L 10.890625 47.703125 
L 2.296875 47.703125 
L 2.296875 54.6875 
L 10.890625 54.6875 
L 10.890625 58.5 
Q 10.890625 67.625 15.140625 71.796875 
Q 19.390625 75.984375 28.609375 75.984375 
z
" id="DejaVuSans-66"/>
      <path d="M 48.78125 52.59375 
L 48.78125 44.1875 
Q 44.96875 46.296875 41.140625 47.34375 
Q 37.3125 48.390625 33.40625 48.390625 
Q 24.65625 48.390625 19.8125 42.84375 
Q 14.984375 37.3125 14.984375 27.296875 
Q 14.984375 17.28125 19.8125 11.734375 
Q 24.65625 6.203125 33.40625 6.203125 
Q 37.3125 6.203125 41.140625 7.25 
Q 44.96875 8.296875 48.78125 10.40625 
L 48.78125 2.09375 
Q 45.015625 0.34375 40.984375 -0.53125 
Q 36.96875 -1.421875 32.421875 -1.421875 
Q 20.0625 -1.421875 12.78125 6.34375 
Q 5.515625 14.109375 5.515625 27.296875 
Q 5.515625 40.671875 12.859375 48.328125 
Q 20.21875 56 33.015625 56 
Q 37.15625 56 41.109375 55.140625 
Q 45.0625 54.296875 48.78125 52.59375 
z
" id="DejaVuSans-63"/>
      <path d="M 54.890625 33.015625 
L 54.890625 0 
L 45.90625 0 
L 45.90625 32.71875 
Q 45.90625 40.484375 42.875 44.328125 
Q 39.84375 48.1875 33.796875 48.1875 
Q 26.515625 48.1875 22.3125 43.546875 
Q 18.109375 38.921875 18.109375 30.90625 
L 18.109375 0 
L 9.078125 0 
L 9.078125 75.984375 
L 18.109375 75.984375 
L 18.109375 46.1875 
Q 21.34375 51.125 25.703125 53.5625 
Q 30.078125 56 35.796875 56 
Q 45.21875 56 50.046875 50.171875 
Q 54.890625 44.34375 54.890625 33.015625 
z
" id="DejaVuSans-68"/>
      <path d="M 9.078125 75.984375 
L 18.109375 75.984375 
L 18.109375 31.109375 
L 44.921875 54.6875 
L 56.390625 54.6875 
L 27.390625 29.109375 
L 57.625 0 
L 45.90625 0 
L 18.109375 26.703125 
L 18.109375 0 
L 9.078125 0 
z
" id="DejaVuSans-6b"/>
      <path d="M 31 75.875 
Q 24.46875 64.65625 21.28125 53.65625 
Q 18.109375 42.671875 18.109375 31.390625 
Q 18.109375 20.125 21.3125 9.0625 
Q 24.515625 -2 31 -13.1875 
L 23.1875 -13.1875 
Q 15.875 -1.703125 12.234375 9.375 
Q 8.59375 20.453125 8.59375 31.390625 
Q 8.59375 42.28125 12.203125 53.3125 
Q 15.828125 64.359375 23.1875 75.875 
z
" id="DejaVuSans-28"/>
      <path d="M 45.40625 27.984375 
Q 45.40625 37.75 41.375 43.109375 
Q 37.359375 48.484375 30.078125 48.484375 
Q 22.859375 48.484375 18.828125 43.109375 
Q 14.796875 37.75 14.796875 27.984375 
Q 14.796875 18.265625 18.828125 12.890625 
Q 22.859375 7.515625 30.078125 7.515625 
Q 37.359375 7.515625 41.375 12.890625 
Q 45.40625 18.265625 45.40625 27.984375 
z
M 54.390625 6.78125 
Q 54.390625 -7.171875 48.1875 -13.984375 
Q 42 -20.796875 29.203125 -20.796875 
Q 24.46875 -20.796875 20.265625 -20.09375 
Q 16.0625 -19.390625 12.109375 -17.921875 
L 12.109375 -9.1875 
Q 16.0625 -11.328125 19.921875 -12.34375 
Q 23.78125 -13.375 27.78125 -13.375 
Q 36.625 -13.375 41.015625 -8.765625 
Q 45.40625 -4.15625 45.40625 5.171875 
L 45.40625 9.625 
Q 42.625 4.78125 38.28125 2.390625 
Q 33.9375 0 27.875 0 
Q 17.828125 0 11.671875 7.65625 
Q 5.515625 15.328125 5.515625 27.984375 
Q 5.515625 40.671875 11.671875 48.328125 
Q 17.828125 56 27.875 56 
Q 33.9375 56 38.28125 53.609375 
Q 42.625 51.21875 45.40625 46.390625 
L 45.40625 54.6875 
L 54.390625 54.6875 
z
" id="DejaVuSans-67"/>
      <path d="M 9.421875 54.6875 
L 18.40625 54.6875 
L 18.40625 0 
L 9.421875 0 
z
M 9.421875 75.984375 
L 18.40625 75.984375 
L 18.40625 64.59375 
L 9.421875 64.59375 
z
" id="DejaVuSans-69"/>
      <path d="M 18.3125 70.21875 
L 18.3125 54.6875 
L 36.8125 54.6875 
L 36.8125 47.703125 
L 18.3125 47.703125 
L 18.3125 18.015625 
Q 18.3125 11.328125 20.140625 9.421875 
Q 21.96875 7.515625 27.59375 7.515625 
L 36.8125 7.515625 
L 36.8125 0 
L 27.59375 0 
Q 17.1875 0 13.234375 3.875 
Q 9.28125 7.765625 9.28125 18.015625 
L 9.28125 47.703125 
L 2.6875 47.703125 
L 2.6875 54.6875 
L 9.28125 54.6875 
L 9.28125 70.21875 
z
" id="DejaVuSans-74"/>
      <path d="M 45.40625 46.390625 
L 45.40625 75.984375 
L 54.390625 75.984375 
L 54.390625 0 
L 45.40625 0 
L 45.40625 8.203125 
Q 42.578125 3.328125 38.25 0.953125 
Q 33.9375 -1.421875 27.875 -1.421875 
Q 17.96875 -1.421875 11.734375 6.484375 
Q 5.515625 14.40625 5.515625 27.296875 
Q 5.515625 40.1875 11.734375 48.09375 
Q 17.96875 56 27.875 56 
Q 33.9375 56 38.25 53.625 
Q 42.578125 51.265625 45.40625 46.390625 
z
M 14.796875 27.296875 
Q 14.796875 17.390625 18.875 11.75 
Q 22.953125 6.109375 30.078125 6.109375 
Q 37.203125 6.109375 41.296875 11.75 
Q 45.40625 17.390625 45.40625 27.296875 
Q 45.40625 37.203125 41.296875 42.84375 
Q 37.203125 48.484375 30.078125 48.484375 
Q 22.953125 48.484375 18.875 42.84375 
Q 14.796875 37.203125 14.796875 27.296875 
z
" id="DejaVuSans-64"/>
      <path d="M 8.015625 75.875 
L 15.828125 75.875 
Q 23.140625 64.359375 26.78125 53.3125 
Q 30.421875 42.28125 30.421875 31.390625 
Q 30.421875 20.453125 26.78125 9.375 
Q 23.140625 -1.703125 15.828125 -13.1875 
L 8.015625 -13.1875 
Q 14.5 -2 17.703125 9.0625 
Q 20.90625 20.125 20.90625 31.390625 
Q 20.90625 42.671875 17.703125 53.65625 
Q 14.5 64.65625 8.015625 75.875 
z
" id="DejaVuSans-29"/>
     </defs>
     <g transform="translate(154.313281 252.556563)scale(0.1 -0.1)">
      <use xlink:href="#DejaVuSans-6e"/>
      <use x="63.378906" xlink:href="#DejaVuSans-75"/>
      <use x="126.757812" xlink:href="#DejaVuSans-6d"/>
      <use x="224.169922" xlink:href="#DejaVuSans-62"/>
      <use x="287.646484" xlink:href="#DejaVuSans-65"/>
      <use x="349.169922" xlink:href="#DejaVuSans-72"/>
      <use x="390.283203" xlink:href="#DejaVuSans-20"/>
      <use x="422.070312" xlink:href="#DejaVuSans-6f"/>
      <use x="483.251953" xlink:href="#DejaVuSans-66"/>
      <use x="518.457031" xlink:href="#DejaVuSans-20"/>
      <use x="550.244141" xlink:href="#DejaVuSans-63"/>
      <use x="605.224609" xlink:href="#DejaVuSans-68"/>
      <use x="668.603516" xlink:href="#DejaVuSans-75"/>
      <use x="731.982422" xlink:href="#DejaVuSans-6e"/>
      <use x="795.361328" xlink:href="#DejaVuSans-6b"/>
      <use x="853.271484" xlink:href="#DejaVuSans-20"/>
      <use x="885.058594" xlink:href="#DejaVuSans-28"/>
      <use x="924.072266" xlink:href="#DejaVuSans-66"/>
      <use x="959.277344" xlink:href="#DejaVuSans-72"/>
      <use x="1000.359375" xlink:href="#DejaVuSans-6f"/>
      <use x="1061.541016" xlink:href="#DejaVuSans-6d"/>
      <use x="1158.953125" xlink:href="#DejaVuSans-20"/>
      <use x="1190.740234" xlink:href="#DejaVuSans-62"/>
      <use x="1254.216797" xlink:href="#DejaVuSans-65"/>
      <use x="1315.740234" xlink:href="#DejaVuSans-67"/>
      <use x="1379.216797" xlink:href="#DejaVuSans-69"/>
      <use x="1407" xlink:href="#DejaVuSans-6e"/>
      <use x="1470.378906" xlink:href="#DejaVuSans-6e"/>
      <use x="1533.757812" xlink:href="#DejaVuSans-69"/>
      <use x="1561.541016" xlink:href="#DejaVuSans-6e"/>
      <use x="1624.919922" xlink:href="#DejaVuSans-67"/>
      <use x="1688.396484" xlink:href="#DejaVuSans-20"/>
      <use x="1720.183594" xlink:href="#DejaVuSans-74"/>
      <use x="1759.392578" xlink:href="#DejaVuSans-6f"/>
      <use x="1820.574219" xlink:href="#DejaVuSans-20"/>
      <use x="1852.361328" xlink:href="#DejaVuSans-65"/>
      <use x="1913.884766" xlink:href="#DejaVuSans-6e"/>
      <use x="1977.263672" xlink:href="#DejaVuSans-64"/>
      <use x="2040.740234" xlink:href="#DejaVuSans-29"/>
     </g>
    </g>
   </g>
   <g id="matplotlib.axis_2">
    <g id="ytick_1">
     <g id="line2d_8">
      <defs>
       <path d="M 0 0 
L -3.5 0 
" id="mf6c172a85a" style="stroke:#000000;stroke-width:0.8;"/>
      </defs>
      <g>
       <use style="stroke:#000000;stroke-width:0.8;" x="63" xlink:href="#mf6c172a85a" y="224.28"/>
      </g>
     </g>
     <g id="text_9">
      <!-- 0.0 -->
      <defs>
       <path d="M 10.6875 12.40625 
L 21 12.40625 
L 21 0 
L 10.6875 0 
z
" id="DejaVuSans-2e"/>
      </defs>
      <g transform="translate(40.096875 228.079219)scale(0.1 -0.1)">
       <use xlink:href="#DejaVuSans-30"/>
       <use x="63.623047" xlink:href="#DejaVuSans-2e"/>
       <use x="95.410156" xlink:href="#DejaVuSans-30"/>
      </g>
     </g>
    </g>
    <g id="ytick_2">
     <g id="line2d_9">
      <g>
       <use style="stroke:#000000;stroke-width:0.8;" x="63" xlink:href="#mf6c172a85a" y="198.503641"/>
      </g>
     </g>
     <g id="text_10">
      <!-- 2.5 -->
      <defs>
       <path d="M 10.796875 72.90625 
L 49.515625 72.90625 
L 49.515625 64.59375 
L 19.828125 64.59375 
L 19.828125 46.734375 
Q 21.96875 47.46875 24.109375 47.828125 
Q 26.265625 48.1875 28.421875 48.1875 
Q 40.625 48.1875 47.75 41.5 
Q 54.890625 34.8125 54.890625 23.390625 
Q 54.890625 11.625 47.5625 5.09375 
Q 40.234375 -1.421875 26.90625 -1.421875 
Q 22.3125 -1.421875 17.546875 -0.640625 
Q 12.796875 0.140625 7.71875 1.703125 
L 7.71875 11.625 
Q 12.109375 9.234375 16.796875 8.0625 
Q 21.484375 6.890625 26.703125 6.890625 
Q 35.15625 6.890625 40.078125 11.328125 
Q 45.015625 15.765625 45.015625 23.390625 
Q 45.015625 31 40.078125 35.4375 
Q 35.15625 39.890625 26.703125 39.890625 
Q 22.75 39.890625 18.8125 39.015625 
Q 14.890625 38.140625 10.796875 36.28125 
z
" id="DejaVuSans-35"/>
      </defs>
      <g transform="translate(40.096875 202.302859)scale(0.1 -0.1)">
       <use xlink:href="#DejaVuSans-32"/>
       <use x="63.623047" xlink:href="#DejaVuSans-2e"/>
       <use x="95.410156" xlink:href="#DejaVuSans-35"/>
      </g>
     </g>
    </g>
    <g id="ytick_3">
     <g id="line2d_10">
      <g>
       <use style="stroke:#000000;stroke-width:0.8;" x="63" xlink:href="#mf6c172a85a" y="172.727281"/>
      </g>
     </g>
     <g id="text_11">
      <!-- 5.0 -->
      <g transform="translate(40.096875 176.5265)scale(0.1 -0.1)">
       <use xlink:href="#DejaVuSans-35"/>
       <use x="63.623047" xlink:href="#DejaVuSans-2e"/>
       <use x="95.410156" xlink:href="#DejaVuSans-30"/>
      </g>
     </g>
    </g>
    <g id="ytick_4">
     <g id="line2d_11">
      <g>
       <use style="stroke:#000000;stroke-width:0.8;" x="63" xlink:href="#mf6c172a85a" y="146.950922"/>
      </g>
     </g>
     <g id="text_12">
      <!-- 7.5 -->
      <defs>
       <path d="M 8.203125 72.90625 
L 55.078125 72.90625 
L 55.078125 68.703125 
L 28.609375 0 
L 18.3125 0 
L 43.21875 64.59375 
L 8.203125 64.59375 
z
" id="DejaVuSans-37"/>
      </defs>
      <g transform="translate(40.096875 150.750141)scale(0.1 -0.1)">
       <use xlink:href="#DejaVuSans-37"/>
       <use x="63.623047" xlink:href="#DejaVuSans-2e"/>
       <use x="95.410156" xlink:href="#DejaVuSans-35"/>
      </g>
     </g>
    </g>
    <g id="ytick_5">
     <g id="line2d_12">
      <g>
       <use style="stroke:#000000;stroke-width:0.8;" x="63" xlink:href="#mf6c172a85a" y="121.174562"/>
      </g>
     </g>
     <g id="text_13">
      <!-- 10.0 -->
      <g transform="translate(33.734375 124.973781)scale(0.1 -0.1)">
       <use xlink:href="#DejaVuSans-31"/>
       <use x="63.623047" xlink:href="#DejaVuSans-30"/>
       <use x="127.246094" xlink:href="#DejaVuSans-2e"/>
       <use x="159.033203" xlink:href="#DejaVuSans-30"/>
      </g>
     </g>
    </g>
    <g id="ytick_6">
     <g id="line2d_13">
      <g>
       <use style="stroke:#000000;stroke-width:0.8;" x="63" xlink:href="#mf6c172a85a" y="95.398203"/>
      </g>
     </g>
     <g id="text_14">
      <!-- 12.5 -->
      <g transform="translate(33.734375 99.197422)scale(0.1 -0.1)">
       <use xlink:href="#DejaVuSans-31"/>
       <use x="63.623047" xlink:href="#DejaVuSans-32"/>
       <use x="127.246094" xlink:href="#DejaVuSans-2e"/>
       <use x="159.033203" xlink:href="#DejaVuSans-35"/>
      </g>
     </g>
    </g>
    <g id="ytick_7">
     <g id="line2d_14">
      <g>
       <use style="stroke:#000000;stroke-width:0.8;" x="63" xlink:href="#mf6c172a85a" y="69.621844"/>
      </g>
     </g>
     <g id="text_15">
      <!-- 15.0 -->
      <g transform="translate(33.734375 73.421062)scale(0.1 -0.1)">
       <use xlink:href="#DejaVuSans-31"/>
       <use x="63.623047" xlink:href="#DejaVuSans-35"/>
       <use x="127.246094" xlink:href="#DejaVuSans-2e"/>
       <use x="159.033203" xlink:href="#DejaVuSans-30"/>
      </g>
     </g>
    </g>
    <g id="ytick_8">
     <g id="line2d_15">
      <g>
       <use style="stroke:#000000;stroke-width:0.8;" x="63" xlink:href="#mf6c172a85a" y="43.845484"/>
      </g>
     </g>
     <g id="text_16">
      <!-- 17.5 -->
      <g transform="translate(33.734375 47.644703)scale(0.1 -0.1)">
       <use xlink:href="#DejaVuSans-31"/>
       <use x="63.623047" xlink:href="#DejaVuSans-37"/>
       <use x="127.246094" xlink:href="#DejaVuSans-2e"/>
       <use x="159.033203" xlink:href="#DejaVuSans-35"/>
      </g>
     </g>
    </g>
    <g id="text_17">
     <!-- GFI -->
     <defs>
      <path d="M 59.515625 10.40625 
L 59.515625 29.984375 
L 43.40625 29.984375 
L 43.40625 38.09375 
L 69.28125 38.09375 
L 69.28125 6.78125 
Q 63.578125 2.734375 56.6875 0.65625 
Q 49.8125 -1.421875 42 -1.421875 
Q 24.90625 -1.421875 15.25 8.5625 
Q 5.609375 18.5625 5.609375 36.375 
Q 5.609375 54.25 15.25 64.234375 
Q 24.90625 74.21875 42 74.21875 
Q 49.125 74.21875 55.546875 72.453125 
Q 61.96875 70.703125 67.390625 67.28125 
L 67.390625 56.78125 
Q 61.921875 61.421875 55.765625 63.765625 
Q 49.609375 66.109375 42.828125 66.109375 
Q 29.4375 66.109375 22.71875 58.640625 
Q 16.015625 51.171875 16.015625 36.375 
Q 16.015625 21.625 22.71875 14.15625 
Q 29.4375 6.6875 42.828125 6.6875 
Q 48.046875 6.6875 52.140625 7.59375 
Q 56.25 8.5 59.515625 10.40625 
z
" id="DejaVuSans-47"/>
      <path d="M 9.8125 72.90625 
L 51.703125 72.90625 
L 51.703125 64.59375 
L 19.671875 64.59375 
L 19.671875 43.109375 
L 48.578125 43.109375 
L 48.578125 34.8125 
L 19.671875 34.8125 
L 19.671875 0 
L 9.8125 0 
z
" id="DejaVuSans-46"/>
      <path d="M 9.8125 72.90625 
L 19.671875 72.90625 
L 19.671875 0 
L 9.8125 0 
z
" id="DejaVuSans-49"/>
     </defs>
     <g transform="translate(27.654688 135.485)rotate(-90)scale(0.1 -0.1)">
      <use xlink:href="#DejaVuSans-47"/>
      <use x="77.490234" xlink:href="#DejaVuSans-46"/>
      <use x="135.009766" xlink:href="#DejaVuSans-49"/>
     </g>
    </g>
   </g>
   <g id="patch_118">
    <path d="M 63 224.28 
L 63 30.24 
" style="fill:none;stroke:#000000;stroke-linecap:square;stroke-linejoin:miter;stroke-width:0.8;"/>
   </g>
   <g id="patch_119">
    <path d="M 453.6 224.28 
L 453.6 30.24 
" style="fill:none;stroke:#000000;stroke-linecap:square;stroke-linejoin:miter;stroke-width:0.8;"/>
   </g>
   <g id="patch_120">
    <path d="M 63 224.28 
L 453.6 224.28 
" style="fill:none;stroke:#000000;stroke-linecap:square;stroke-linejoin:miter;stroke-width:0.8;"/>
   </g>
   <g id="patch_121">
    <path d="M 63 30.24 
L 453.6 30.24 
" style="fill:none;stroke:#000000;stroke-linecap:square;stroke-linejoin:miter;stroke-width:0.8;"/>
   </g>
  </g>
  <g id="text_18">
   <!-- GFI for the chunks of size 10 of document de113804971.txt -->
   <defs>
    <path d="M 44.28125 53.078125 
L 44.28125 44.578125 
Q 40.484375 46.53125 36.375 47.5 
Q 32.28125 48.484375 27.875 48.484375 
Q 21.1875 48.484375 17.84375 46.4375 
Q 14.5 44.390625 14.5 40.28125 
Q 14.5 37.15625 16.890625 35.375 
Q 19.28125 33.59375 26.515625 31.984375 
L 29.59375 31.296875 
Q 39.15625 29.25 43.1875 25.515625 
Q 47.21875 21.78125 47.21875 15.09375 
Q 47.21875 7.46875 41.1875 3.015625 
Q 35.15625 -1.421875 24.609375 -1.421875 
Q 20.21875 -1.421875 15.453125 -0.5625 
Q 10.6875 0.296875 5.421875 2 
L 5.421875 11.28125 
Q 10.40625 8.6875 15.234375 7.390625 
Q 20.0625 6.109375 24.8125 6.109375 
Q 31.15625 6.109375 34.5625 8.28125 
Q 37.984375 10.453125 37.984375 14.40625 
Q 37.984375 18.0625 35.515625 20.015625 
Q 33.0625 21.96875 24.703125 23.78125 
L 21.578125 24.515625 
Q 13.234375 26.265625 9.515625 29.90625 
Q 5.8125 33.546875 5.8125 39.890625 
Q 5.8125 47.609375 11.28125 51.796875 
Q 16.75 56 26.8125 56 
Q 31.78125 56 36.171875 55.265625 
Q 40.578125 54.546875 44.28125 53.078125 
z
" id="DejaVuSans-73"/>
    <path d="M 5.515625 54.6875 
L 48.1875 54.6875 
L 48.1875 46.484375 
L 14.40625 7.171875 
L 48.1875 7.171875 
L 48.1875 0 
L 4.296875 0 
L 4.296875 8.203125 
L 38.09375 47.515625 
L 5.515625 47.515625 
z
" id="DejaVuSans-7a"/>
    <path d="M 40.578125 39.3125 
Q 47.65625 37.796875 51.625 33 
Q 55.609375 28.21875 55.609375 21.1875 
Q 55.609375 10.40625 48.1875 4.484375 
Q 40.765625 -1.421875 27.09375 -1.421875 
Q 22.515625 -1.421875 17.65625 -0.515625 
Q 12.796875 0.390625 7.625 2.203125 
L 7.625 11.71875 
Q 11.71875 9.328125 16.59375 8.109375 
Q 21.484375 6.890625 26.8125 6.890625 
Q 36.078125 6.890625 40.9375 10.546875 
Q 45.796875 14.203125 45.796875 21.1875 
Q 45.796875 27.640625 41.28125 31.265625 
Q 36.765625 34.90625 28.71875 34.90625 
L 20.21875 34.90625 
L 20.21875 43.015625 
L 29.109375 43.015625 
Q 36.375 43.015625 40.234375 45.921875 
Q 44.09375 48.828125 44.09375 54.296875 
Q 44.09375 59.90625 40.109375 62.90625 
Q 36.140625 65.921875 28.71875 65.921875 
Q 24.65625 65.921875 20.015625 65.03125 
Q 15.375 64.15625 9.8125 62.3125 
L 9.8125 71.09375 
Q 15.4375 72.65625 20.34375 73.4375 
Q 25.25 74.21875 29.59375 74.21875 
Q 40.828125 74.21875 47.359375 69.109375 
Q 53.90625 64.015625 53.90625 55.328125 
Q 53.90625 49.265625 50.4375 45.09375 
Q 46.96875 40.921875 40.578125 39.3125 
z
" id="DejaVuSans-33"/>
    <path d="M 10.984375 1.515625 
L 10.984375 10.5 
Q 14.703125 8.734375 18.5 7.8125 
Q 22.3125 6.890625 25.984375 6.890625 
Q 35.75 6.890625 40.890625 13.453125 
Q 46.046875 20.015625 46.78125 33.40625 
Q 43.953125 29.203125 39.59375 26.953125 
Q 35.25 24.703125 29.984375 24.703125 
Q 19.046875 24.703125 12.671875 31.3125 
Q 6.296875 37.9375 6.296875 49.421875 
Q 6.296875 60.640625 12.9375 67.421875 
Q 19.578125 74.21875 30.609375 74.21875 
Q 43.265625 74.21875 49.921875 64.515625 
Q 56.59375 54.828125 56.59375 36.375 
Q 56.59375 19.140625 48.40625 8.859375 
Q 40.234375 -1.421875 26.421875 -1.421875 
Q 22.703125 -1.421875 18.890625 -0.6875 
Q 15.09375 0.046875 10.984375 1.515625 
z
M 30.609375 32.421875 
Q 37.25 32.421875 41.125 36.953125 
Q 45.015625 41.5 45.015625 49.421875 
Q 45.015625 57.28125 41.125 61.84375 
Q 37.25 66.40625 30.609375 66.40625 
Q 23.96875 66.40625 20.09375 61.84375 
Q 16.21875 57.28125 16.21875 49.421875 
Q 16.21875 41.5 20.09375 36.953125 
Q 23.96875 32.421875 30.609375 32.421875 
z
" id="DejaVuSans-39"/>
    <path d="M 54.890625 54.6875 
L 35.109375 28.078125 
L 55.90625 0 
L 45.3125 0 
L 29.390625 21.484375 
L 13.484375 0 
L 2.875 0 
L 24.125 28.609375 
L 4.6875 54.6875 
L 15.28125 54.6875 
L 29.78125 35.203125 
L 44.28125 54.6875 
z
" id="DejaVuSans-78"/>
   </defs>
   <g transform="translate(42.508594 15.677812)scale(0.14 -0.14)">
    <use xlink:href="#DejaVuSans-47"/>
    <use x="77.490234" xlink:href="#DejaVuSans-46"/>
    <use x="135.009766" xlink:href="#DejaVuSans-49"/>
    <use x="164.501953" xlink:href="#DejaVuSans-20"/>
    <use x="196.289062" xlink:href="#DejaVuSans-66"/>
    <use x="231.494141" xlink:href="#DejaVuSans-6f"/>
    <use x="292.675781" xlink:href="#DejaVuSans-72"/>
    <use x="333.789062" xlink:href="#DejaVuSans-20"/>
    <use x="365.576172" xlink:href="#DejaVuSans-74"/>
    <use x="404.785156" xlink:href="#DejaVuSans-68"/>
    <use x="468.164062" xlink:href="#DejaVuSans-65"/>
    <use x="529.6875" xlink:href="#DejaVuSans-20"/>
    <use x="561.474609" xlink:href="#DejaVuSans-63"/>
    <use x="616.455078" xlink:href="#DejaVuSans-68"/>
    <use x="679.833984" xlink:href="#DejaVuSans-75"/>
    <use x="743.212891" xlink:href="#DejaVuSans-6e"/>
    <use x="806.591797" xlink:href="#DejaVuSans-6b"/>
    <use x="864.501953" xlink:href="#DejaVuSans-73"/>
    <use x="916.601562" xlink:href="#DejaVuSans-20"/>
    <use x="948.388672" xlink:href="#DejaVuSans-6f"/>
    <use x="1009.570312" xlink:href="#DejaVuSans-66"/>
    <use x="1044.775391" xlink:href="#DejaVuSans-20"/>
    <use x="1076.5625" xlink:href="#DejaVuSans-73"/>
    <use x="1128.662109" xlink:href="#DejaVuSans-69"/>
    <use x="1156.445312" xlink:href="#DejaVuSans-7a"/>
    <use x="1208.935547" xlink:href="#DejaVuSans-65"/>
    <use x="1270.458984" xlink:href="#DejaVuSans-20"/>
    <use x="1302.246094" xlink:href="#DejaVuSans-31"/>
    <use x="1365.869141" xlink:href="#DejaVuSans-30"/>
    <use x="1429.492188" xlink:href="#DejaVuSans-20"/>
    <use x="1461.279297" xlink:href="#DejaVuSans-6f"/>
    <use x="1522.460938" xlink:href="#DejaVuSans-66"/>
    <use x="1557.666016" xlink:href="#DejaVuSans-20"/>
    <use x="1589.453125" xlink:href="#DejaVuSans-64"/>
    <use x="1652.929688" xlink:href="#DejaVuSans-6f"/>
    <use x="1714.111328" xlink:href="#DejaVuSans-63"/>
    <use x="1769.091797" xlink:href="#DejaVuSans-75"/>
    <use x="1832.470703" xlink:href="#DejaVuSans-6d"/>
    <use x="1929.882812" xlink:href="#DejaVuSans-65"/>
    <use x="1991.40625" xlink:href="#DejaVuSans-6e"/>
    <use x="2054.785156" xlink:href="#DejaVuSans-74"/>
    <use x="2093.994141" xlink:href="#DejaVuSans-20"/>
    <use x="2125.78125" xlink:href="#DejaVuSans-64"/>
    <use x="2189.257812" xlink:href="#DejaVuSans-65"/>
    <use x="2250.78125" xlink:href="#DejaVuSans-31"/>
    <use x="2314.404297" xlink:href="#DejaVuSans-31"/>
    <use x="2378.027344" xlink:href="#DejaVuSans-33"/>
    <use x="2441.650391" xlink:href="#DejaVuSans-38"/>
    <use x="2505.273438" xlink:href="#DejaVuSans-30"/>
    <use x="2568.896484" xlink:href="#DejaVuSans-34"/>
    <use x="2632.519531" xlink:href="#DejaVuSans-39"/>
    <use x="2696.142578" xlink:href="#DejaVuSans-37"/>
    <use x="2759.765625" xlink:href="#DejaVuSans-31"/>
    <use x="2823.388672" xlink:href="#DejaVuSans-2e"/>
    <use x="2855.175781" xlink:href="#DejaVuSans-74"/>
    <use x="2894.384766" xlink:href="#DejaVuSans-78"/>
    <use x="2953.564453" xlink:href="#DejaVuSans-74"/>
   </g>
  </g>
 </g>
 <defs>
  <clipPath id="pc589c039a0">
   <rect height="194.04" width="390.6" x="63" y="30.24"/>
  </clipPath>
 </defs>
</svg>
