<?xml version="1.0" encoding="utf-8" standalone="no"?>
<!DOCTYPE svg PUBLIC "-//W3C//DTD SVG 1.1//EN"
  "http://www.w3.org/Graphics/SVG/1.1/DTD/svg11.dtd">
<!-- Created with matplotlib (https://matplotlib.org/) -->
<svg height="242.29625pt" version="1.1" viewBox="0 0 451.44375 242.29625" width="451.44375pt" xmlns="http://www.w3.org/2000/svg" xmlns:xlink="http://www.w3.org/1999/xlink">
 <defs>
  <style type="text/css">
*{stroke-linecap:butt;stroke-linejoin:round;}
  </style>
 </defs>
 <g id="figure_1">
  <g id="patch_1">
   <path d="M 0 242.29625 
L 451.44375 242.29625 
L 451.44375 0 
L 0 0 
z
" style="fill:#ffffff;"/>
  </g>
  <g id="axes_1">
   <g id="patch_2">
    <path d="M 50.14375 204.74 
L 440.74375 204.74 
L 440.74375 10.7 
L 50.14375 10.7 
z
" style="fill:#ffffff;"/>
   </g>
   <g id="patch_3">
    <path clip-path="url(#pbbc2a71f49)" d="M 67.898295 204.74 
L 69.632561 204.74 
L 69.632561 60.771236 
L 67.898295 60.771236 
z
" style="fill:#1f77b4;"/>
   </g>
   <g id="patch_4">
    <path clip-path="url(#pbbc2a71f49)" d="M 70.066128 204.74 
L 71.800393 204.74 
L 71.800393 55.712444 
L 70.066128 55.712444 
z
" style="fill:#1f77b4;"/>
   </g>
   <g id="patch_5">
    <path clip-path="url(#pbbc2a71f49)" d="M 72.23396 204.74 
L 73.968226 204.74 
L 73.968226 97.970608 
L 72.23396 97.970608 
z
" style="fill:#1f77b4;"/>
   </g>
   <g id="patch_6">
    <path clip-path="url(#pbbc2a71f49)" d="M 74.401792 204.74 
L 76.136058 204.74 
L 76.136058 102.464775 
L 74.401792 102.464775 
z
" style="fill:#1f77b4;"/>
   </g>
   <g id="patch_7">
    <path clip-path="url(#pbbc2a71f49)" d="M 76.569624 204.74 
L 78.30389 204.74 
L 78.30389 64.226598 
L 76.569624 64.226598 
z
" style="fill:#1f77b4;"/>
   </g>
   <g id="patch_8">
    <path clip-path="url(#pbbc2a71f49)" d="M 78.737456 204.74 
L 80.471722 204.74 
L 80.471722 50.82664 
L 78.737456 50.82664 
z
" style="fill:#1f77b4;"/>
   </g>
   <g id="patch_9">
    <path clip-path="url(#pbbc2a71f49)" d="M 80.905288 204.74 
L 82.639554 204.74 
L 82.639554 123.783529 
L 80.905288 123.783529 
z
" style="fill:#1f77b4;"/>
   </g>
   <g id="patch_10">
    <path clip-path="url(#pbbc2a71f49)" d="M 83.073121 204.74 
L 84.807386 204.74 
L 84.807386 138.003642 
L 83.073121 138.003642 
z
" style="fill:#1f77b4;"/>
   </g>
   <g id="patch_11">
    <path clip-path="url(#pbbc2a71f49)" d="M 85.240953 204.74 
L 86.975219 204.74 
L 86.975219 115.121852 
L 85.240953 115.121852 
z
" style="fill:#1f77b4;"/>
   </g>
   <g id="patch_12">
    <path clip-path="url(#pbbc2a71f49)" d="M 87.408785 204.74 
L 89.143051 204.74 
L 89.143051 100.494296 
L 87.408785 100.494296 
z
" style="fill:#1f77b4;"/>
   </g>
   <g id="patch_13">
    <path clip-path="url(#pbbc2a71f49)" d="M 89.576617 204.74 
L 91.310883 204.74 
L 91.310883 93.094464 
L 89.576617 93.094464 
z
" style="fill:#1f77b4;"/>
   </g>
   <g id="patch_14">
    <path clip-path="url(#pbbc2a71f49)" d="M 91.744449 204.74 
L 93.478715 204.74 
L 93.478715 106.007071 
L 91.744449 106.007071 
z
" style="fill:#1f77b4;"/>
   </g>
   <g id="patch_15">
    <path clip-path="url(#pbbc2a71f49)" d="M 93.912281 204.74 
L 95.646547 204.74 
L 95.646547 99.015559 
L 93.912281 99.015559 
z
" style="fill:#1f77b4;"/>
   </g>
   <g id="patch_16">
    <path clip-path="url(#pbbc2a71f49)" d="M 96.080114 204.74 
L 97.814379 204.74 
L 97.814379 98.198039 
L 96.080114 98.198039 
z
" style="fill:#1f77b4;"/>
   </g>
   <g id="patch_17">
    <path clip-path="url(#pbbc2a71f49)" d="M 98.247946 204.74 
L 99.982212 204.74 
L 99.982212 83.019908 
L 98.247946 83.019908 
z
" style="fill:#1f77b4;"/>
   </g>
   <g id="patch_18">
    <path clip-path="url(#pbbc2a71f49)" d="M 100.415778 204.74 
L 102.150044 204.74 
L 102.150044 118.089864 
L 100.415778 118.089864 
z
" style="fill:#1f77b4;"/>
   </g>
   <g id="patch_19">
    <path clip-path="url(#pbbc2a71f49)" d="M 102.58361 204.74 
L 104.317876 204.74 
L 104.317876 80.986205 
L 102.58361 80.986205 
z
" style="fill:#1f77b4;"/>
   </g>
   <g id="patch_20">
    <path clip-path="url(#pbbc2a71f49)" d="M 104.751442 204.74 
L 106.485708 204.74 
L 106.485708 102.751917 
L 104.751442 102.751917 
z
" style="fill:#1f77b4;"/>
   </g>
   <g id="patch_21">
    <path clip-path="url(#pbbc2a71f49)" d="M 106.919274 204.74 
L 108.65354 204.74 
L 108.65354 75.59022 
L 106.919274 75.59022 
z
" style="fill:#1f77b4;"/>
   </g>
   <g id="patch_22">
    <path clip-path="url(#pbbc2a71f49)" d="M 109.087107 204.74 
L 110.821372 204.74 
L 110.821372 94.192979 
L 109.087107 94.192979 
z
" style="fill:#1f77b4;"/>
   </g>
   <g id="patch_23">
    <path clip-path="url(#pbbc2a71f49)" d="M 111.254939 204.74 
L 112.989205 204.74 
L 112.989205 89.805064 
L 111.254939 89.805064 
z
" style="fill:#1f77b4;"/>
   </g>
   <g id="patch_24">
    <path clip-path="url(#pbbc2a71f49)" d="M 113.422771 204.74 
L 115.157037 204.74 
L 115.157037 77.039979 
L 113.422771 77.039979 
z
" style="fill:#1f77b4;"/>
   </g>
   <g id="patch_25">
    <path clip-path="url(#pbbc2a71f49)" d="M 115.590603 204.74 
L 117.324869 204.74 
L 117.324869 112.066908 
L 115.590603 112.066908 
z
" style="fill:#1f77b4;"/>
   </g>
   <g id="patch_26">
    <path clip-path="url(#pbbc2a71f49)" d="M 117.758435 204.74 
L 119.492701 204.74 
L 119.492701 43.964211 
L 117.758435 43.964211 
z
" style="fill:#1f77b4;"/>
   </g>
   <g id="patch_27">
    <path clip-path="url(#pbbc2a71f49)" d="M 119.926267 204.74 
L 121.660533 204.74 
L 121.660533 78.692582 
L 119.926267 78.692582 
z
" style="fill:#1f77b4;"/>
   </g>
   <g id="patch_28">
    <path clip-path="url(#pbbc2a71f49)" d="M 122.0941 204.74 
L 123.828365 204.74 
L 123.828365 91.566552 
L 122.0941 91.566552 
z
" style="fill:#1f77b4;"/>
   </g>
   <g id="patch_29">
    <path clip-path="url(#pbbc2a71f49)" d="M 124.261932 204.74 
L 125.996198 204.74 
L 125.996198 88.177048 
L 124.261932 88.177048 
z
" style="fill:#1f77b4;"/>
   </g>
   <g id="patch_30">
    <path clip-path="url(#pbbc2a71f49)" d="M 126.429764 204.74 
L 128.16403 204.74 
L 128.16403 94.819072 
L 126.429764 94.819072 
z
" style="fill:#1f77b4;"/>
   </g>
   <g id="patch_31">
    <path clip-path="url(#pbbc2a71f49)" d="M 128.597596 204.74 
L 130.331862 204.74 
L 130.331862 105.362538 
L 128.597596 105.362538 
z
" style="fill:#1f77b4;"/>
   </g>
   <g id="patch_32">
    <path clip-path="url(#pbbc2a71f49)" d="M 130.765428 204.74 
L 132.499694 204.74 
L 132.499694 102.339206 
L 130.765428 102.339206 
z
" style="fill:#1f77b4;"/>
   </g>
   <g id="patch_33">
    <path clip-path="url(#pbbc2a71f49)" d="M 132.93326 204.74 
L 134.667526 204.74 
L 134.667526 79.824466 
L 132.93326 79.824466 
z
" style="fill:#1f77b4;"/>
   </g>
   <g id="patch_34">
    <path clip-path="url(#pbbc2a71f49)" d="M 135.101093 204.74 
L 136.835358 204.74 
L 136.835358 98.049638 
L 135.101093 98.049638 
z
" style="fill:#1f77b4;"/>
   </g>
   <g id="patch_35">
    <path clip-path="url(#pbbc2a71f49)" d="M 137.268925 204.74 
L 139.003191 204.74 
L 139.003191 78.607405 
L 137.268925 78.607405 
z
" style="fill:#1f77b4;"/>
   </g>
   <g id="patch_36">
    <path clip-path="url(#pbbc2a71f49)" d="M 139.436757 204.74 
L 141.171023 204.74 
L 141.171023 78.607405 
L 139.436757 78.607405 
z
" style="fill:#1f77b4;"/>
   </g>
   <g id="patch_37">
    <path clip-path="url(#pbbc2a71f49)" d="M 141.604589 204.74 
L 143.338855 204.74 
L 143.338855 81.842363 
L 141.604589 81.842363 
z
" style="fill:#1f77b4;"/>
   </g>
   <g id="patch_38">
    <path clip-path="url(#pbbc2a71f49)" d="M 143.772421 204.74 
L 145.506687 204.74 
L 145.506687 82.548363 
L 143.772421 82.548363 
z
" style="fill:#1f77b4;"/>
   </g>
   <g id="patch_39">
    <path clip-path="url(#pbbc2a71f49)" d="M 145.940253 204.74 
L 147.674519 204.74 
L 147.674519 78.607405 
L 145.940253 78.607405 
z
" style="fill:#1f77b4;"/>
   </g>
   <g id="patch_40">
    <path clip-path="url(#pbbc2a71f49)" d="M 148.108086 204.74 
L 149.842351 204.74 
L 149.842351 105.247506 
L 148.108086 105.247506 
z
" style="fill:#1f77b4;"/>
   </g>
   <g id="patch_41">
    <path clip-path="url(#pbbc2a71f49)" d="M 150.275918 204.74 
L 152.010184 204.74 
L 152.010184 100.537324 
L 150.275918 100.537324 
z
" style="fill:#1f77b4;"/>
   </g>
   <g id="patch_42">
    <path clip-path="url(#pbbc2a71f49)" d="M 152.44375 204.74 
L 154.178016 204.74 
L 154.178016 100.937742 
L 152.44375 100.937742 
z
" style="fill:#1f77b4;"/>
   </g>
   <g id="patch_43">
    <path clip-path="url(#pbbc2a71f49)" d="M 154.611582 204.74 
L 156.345848 204.74 
L 156.345848 81.232076 
L 154.611582 81.232076 
z
" style="fill:#1f77b4;"/>
   </g>
   <g id="patch_44">
    <path clip-path="url(#pbbc2a71f49)" d="M 156.779414 204.74 
L 158.51368 204.74 
L 158.51368 95.619908 
L 156.779414 95.619908 
z
" style="fill:#1f77b4;"/>
   </g>
   <g id="patch_45">
    <path clip-path="url(#pbbc2a71f49)" d="M 158.947247 204.74 
L 160.681512 204.74 
L 160.681512 60.415601 
L 158.947247 60.415601 
z
" style="fill:#1f77b4;"/>
   </g>
   <g id="patch_46">
    <path clip-path="url(#pbbc2a71f49)" d="M 161.115079 204.74 
L 162.849344 204.74 
L 162.849344 117.759695 
L 161.115079 117.759695 
z
" style="fill:#1f77b4;"/>
   </g>
   <g id="patch_47">
    <path clip-path="url(#pbbc2a71f49)" d="M 163.282911 204.74 
L 165.017177 204.74 
L 165.017177 102.879243 
L 163.282911 102.879243 
z
" style="fill:#1f77b4;"/>
   </g>
   <g id="patch_48">
    <path clip-path="url(#pbbc2a71f49)" d="M 165.450743 204.74 
L 167.185009 204.74 
L 167.185009 91.460301 
L 165.450743 91.460301 
z
" style="fill:#1f77b4;"/>
   </g>
   <g id="patch_49">
    <path clip-path="url(#pbbc2a71f49)" d="M 167.618575 204.74 
L 169.352841 204.74 
L 169.352841 91.41903 
L 167.618575 91.41903 
z
" style="fill:#1f77b4;"/>
   </g>
   <g id="patch_50">
    <path clip-path="url(#pbbc2a71f49)" d="M 169.786407 204.74 
L 171.520673 204.74 
L 171.520673 108.585202 
L 169.786407 108.585202 
z
" style="fill:#1f77b4;"/>
   </g>
   <g id="patch_51">
    <path clip-path="url(#pbbc2a71f49)" d="M 171.95424 204.74 
L 173.688505 204.74 
L 173.688505 100.543471 
L 171.95424 100.543471 
z
" style="fill:#1f77b4;"/>
   </g>
   <g id="patch_52">
    <path clip-path="url(#pbbc2a71f49)" d="M 174.122072 204.74 
L 175.856337 204.74 
L 175.856337 90.742007 
L 174.122072 90.742007 
z
" style="fill:#1f77b4;"/>
   </g>
   <g id="patch_53">
    <path clip-path="url(#pbbc2a71f49)" d="M 176.289904 204.74 
L 178.02417 204.74 
L 178.02417 96.753548 
L 176.289904 96.753548 
z
" style="fill:#1f77b4;"/>
   </g>
   <g id="patch_54">
    <path clip-path="url(#pbbc2a71f49)" d="M 178.457736 204.74 
L 180.192002 204.74 
L 180.192002 104.898896 
L 178.457736 104.898896 
z
" style="fill:#1f77b4;"/>
   </g>
   <g id="patch_55">
    <path clip-path="url(#pbbc2a71f49)" d="M 180.625568 204.74 
L 182.359834 204.74 
L 182.359834 86.720263 
L 180.625568 86.720263 
z
" style="fill:#1f77b4;"/>
   </g>
   <g id="patch_56">
    <path clip-path="url(#pbbc2a71f49)" d="M 182.7934 204.74 
L 184.527666 204.74 
L 184.527666 67.658252 
L 182.7934 67.658252 
z
" style="fill:#1f77b4;"/>
   </g>
   <g id="patch_57">
    <path clip-path="url(#pbbc2a71f49)" d="M 184.961233 204.74 
L 186.695498 204.74 
L 186.695498 81.284763 
L 184.961233 81.284763 
z
" style="fill:#1f77b4;"/>
   </g>
   <g id="patch_58">
    <path clip-path="url(#pbbc2a71f49)" d="M 187.129065 204.74 
L 188.86333 204.74 
L 188.86333 39.807238 
L 187.129065 39.807238 
z
" style="fill:#1f77b4;"/>
   </g>
   <g id="patch_59">
    <path clip-path="url(#pbbc2a71f49)" d="M 189.296897 204.74 
L 191.031163 204.74 
L 191.031163 100.470587 
L 189.296897 100.470587 
z
" style="fill:#1f77b4;"/>
   </g>
   <g id="patch_60">
    <path clip-path="url(#pbbc2a71f49)" d="M 191.464729 204.74 
L 193.198995 204.74 
L 193.198995 102.779139 
L 191.464729 102.779139 
z
" style="fill:#1f77b4;"/>
   </g>
   <g id="patch_61">
    <path clip-path="url(#pbbc2a71f49)" d="M 193.632561 204.74 
L 195.366827 204.74 
L 195.366827 95.82802 
L 193.632561 95.82802 
z
" style="fill:#1f77b4;"/>
   </g>
   <g id="patch_62">
    <path clip-path="url(#pbbc2a71f49)" d="M 195.800393 204.74 
L 197.534659 204.74 
L 197.534659 69.196701 
L 195.800393 69.196701 
z
" style="fill:#1f77b4;"/>
   </g>
   <g id="patch_63">
    <path clip-path="url(#pbbc2a71f49)" d="M 197.968226 204.74 
L 199.702491 204.74 
L 199.702491 104.914702 
L 197.968226 104.914702 
z
" style="fill:#1f77b4;"/>
   </g>
   <g id="patch_64">
    <path clip-path="url(#pbbc2a71f49)" d="M 200.136058 204.74 
L 201.870323 204.74 
L 201.870323 100.079829 
L 200.136058 100.079829 
z
" style="fill:#1f77b4;"/>
   </g>
   <g id="patch_65">
    <path clip-path="url(#pbbc2a71f49)" d="M 202.30389 204.74 
L 204.038156 204.74 
L 204.038156 78.550328 
L 202.30389 78.550328 
z
" style="fill:#1f77b4;"/>
   </g>
   <g id="patch_66">
    <path clip-path="url(#pbbc2a71f49)" d="M 204.471722 204.74 
L 206.205988 204.74 
L 206.205988 87.101363 
L 204.471722 87.101363 
z
" style="fill:#1f77b4;"/>
   </g>
   <g id="patch_67">
    <path clip-path="url(#pbbc2a71f49)" d="M 206.639554 204.74 
L 208.37382 204.74 
L 208.37382 93.501029 
L 206.639554 93.501029 
z
" style="fill:#1f77b4;"/>
   </g>
   <g id="patch_68">
    <path clip-path="url(#pbbc2a71f49)" d="M 208.807386 204.74 
L 210.541652 204.74 
L 210.541652 104.635463 
L 208.807386 104.635463 
z
" style="fill:#1f77b4;"/>
   </g>
   <g id="patch_69">
    <path clip-path="url(#pbbc2a71f49)" d="M 210.975219 204.74 
L 212.709484 204.74 
L 212.709484 121.412632 
L 210.975219 121.412632 
z
" style="fill:#1f77b4;"/>
   </g>
   <g id="patch_70">
    <path clip-path="url(#pbbc2a71f49)" d="M 213.143051 204.74 
L 214.877316 204.74 
L 214.877316 90.709517 
L 213.143051 90.709517 
z
" style="fill:#1f77b4;"/>
   </g>
   <g id="patch_71">
    <path clip-path="url(#pbbc2a71f49)" d="M 215.310883 204.74 
L 217.045149 204.74 
L 217.045149 79.705043 
L 215.310883 79.705043 
z
" style="fill:#1f77b4;"/>
   </g>
   <g id="patch_72">
    <path clip-path="url(#pbbc2a71f49)" d="M 217.478715 204.74 
L 219.212981 204.74 
L 219.212981 62.618779 
L 217.478715 62.618779 
z
" style="fill:#1f77b4;"/>
   </g>
   <g id="patch_73">
    <path clip-path="url(#pbbc2a71f49)" d="M 219.646547 204.74 
L 221.380813 204.74 
L 221.380813 74.965883 
L 219.646547 74.965883 
z
" style="fill:#1f77b4;"/>
   </g>
   <g id="patch_74">
    <path clip-path="url(#pbbc2a71f49)" d="M 221.814379 204.74 
L 223.548645 204.74 
L 223.548645 89.080623 
L 221.814379 89.080623 
z
" style="fill:#1f77b4;"/>
   </g>
   <g id="patch_75">
    <path clip-path="url(#pbbc2a71f49)" d="M 223.982212 204.74 
L 225.716477 204.74 
L 225.716477 63.431909 
L 223.982212 63.431909 
z
" style="fill:#1f77b4;"/>
   </g>
   <g id="patch_76">
    <path clip-path="url(#pbbc2a71f49)" d="M 226.150044 204.74 
L 227.884309 204.74 
L 227.884309 92.404269 
L 226.150044 92.404269 
z
" style="fill:#1f77b4;"/>
   </g>
   <g id="patch_77">
    <path clip-path="url(#pbbc2a71f49)" d="M 228.317876 204.74 
L 230.052142 204.74 
L 230.052142 77.589676 
L 228.317876 77.589676 
z
" style="fill:#1f77b4;"/>
   </g>
   <g id="patch_78">
    <path clip-path="url(#pbbc2a71f49)" d="M 230.485708 204.74 
L 232.219974 204.74 
L 232.219974 50.454322 
L 230.485708 50.454322 
z
" style="fill:#1f77b4;"/>
   </g>
   <g id="patch_79">
    <path clip-path="url(#pbbc2a71f49)" d="M 232.65354 204.74 
L 234.387806 204.74 
L 234.387806 107.506005 
L 232.65354 107.506005 
z
" style="fill:#1f77b4;"/>
   </g>
   <g id="patch_80">
    <path clip-path="url(#pbbc2a71f49)" d="M 234.821372 204.74 
L 236.555638 204.74 
L 236.555638 75.240732 
L 234.821372 75.240732 
z
" style="fill:#1f77b4;"/>
   </g>
   <g id="patch_81">
    <path clip-path="url(#pbbc2a71f49)" d="M 236.989205 204.74 
L 238.72347 204.74 
L 238.72347 91.455911 
L 236.989205 91.455911 
z
" style="fill:#1f77b4;"/>
   </g>
   <g id="patch_82">
    <path clip-path="url(#pbbc2a71f49)" d="M 239.157037 204.74 
L 240.891302 204.74 
L 240.891302 80.471633 
L 239.157037 80.471633 
z
" style="fill:#1f77b4;"/>
   </g>
   <g id="patch_83">
    <path clip-path="url(#pbbc2a71f49)" d="M 241.324869 204.74 
L 243.059135 204.74 
L 243.059135 104.782107 
L 241.324869 104.782107 
z
" style="fill:#1f77b4;"/>
   </g>
   <g id="patch_84">
    <path clip-path="url(#pbbc2a71f49)" d="M 243.492701 204.74 
L 245.226967 204.74 
L 245.226967 120.124445 
L 243.492701 120.124445 
z
" style="fill:#1f77b4;"/>
   </g>
   <g id="patch_85">
    <path clip-path="url(#pbbc2a71f49)" d="M 245.660533 204.74 
L 247.394799 204.74 
L 247.394799 67.656496 
L 245.660533 67.656496 
z
" style="fill:#1f77b4;"/>
   </g>
   <g id="patch_86">
    <path clip-path="url(#pbbc2a71f49)" d="M 247.828365 204.74 
L 249.562631 204.74 
L 249.562631 64.395195 
L 247.828365 64.395195 
z
" style="fill:#1f77b4;"/>
   </g>
   <g id="patch_87">
    <path clip-path="url(#pbbc2a71f49)" d="M 249.996198 204.74 
L 251.730463 204.74 
L 251.730463 78.724194 
L 249.996198 78.724194 
z
" style="fill:#1f77b4;"/>
   </g>
   <g id="patch_88">
    <path clip-path="url(#pbbc2a71f49)" d="M 252.16403 204.74 
L 253.898295 204.74 
L 253.898295 57.509935 
L 252.16403 57.509935 
z
" style="fill:#1f77b4;"/>
   </g>
   <g id="patch_89">
    <path clip-path="url(#pbbc2a71f49)" d="M 254.331862 204.74 
L 256.066128 204.74 
L 256.066128 106.6999 
L 254.331862 106.6999 
z
" style="fill:#1f77b4;"/>
   </g>
   <g id="patch_90">
    <path clip-path="url(#pbbc2a71f49)" d="M 256.499694 204.74 
L 258.23396 204.74 
L 258.23396 98.911942 
L 256.499694 98.911942 
z
" style="fill:#1f77b4;"/>
   </g>
   <g id="patch_91">
    <path clip-path="url(#pbbc2a71f49)" d="M 258.667526 204.74 
L 260.401792 204.74 
L 260.401792 85.71834 
L 258.667526 85.71834 
z
" style="fill:#1f77b4;"/>
   </g>
   <g id="patch_92">
    <path clip-path="url(#pbbc2a71f49)" d="M 260.835358 204.74 
L 262.569624 204.74 
L 262.569624 22.366218 
L 260.835358 22.366218 
z
" style="fill:#1f77b4;"/>
   </g>
   <g id="patch_93">
    <path clip-path="url(#pbbc2a71f49)" d="M 263.003191 204.74 
L 264.737456 204.74 
L 264.737456 103.54046 
L 263.003191 103.54046 
z
" style="fill:#1f77b4;"/>
   </g>
   <g id="patch_94">
    <path clip-path="url(#pbbc2a71f49)" d="M 265.171023 204.74 
L 266.905288 204.74 
L 266.905288 43.247673 
L 265.171023 43.247673 
z
" style="fill:#1f77b4;"/>
   </g>
   <g id="patch_95">
    <path clip-path="url(#pbbc2a71f49)" d="M 267.338855 204.74 
L 269.073121 204.74 
L 269.073121 19.94 
L 267.338855 19.94 
z
" style="fill:#1f77b4;"/>
   </g>
   <g id="patch_96">
    <path clip-path="url(#pbbc2a71f49)" d="M 269.506687 204.74 
L 271.240953 204.74 
L 271.240953 56.515037 
L 269.506687 56.515037 
z
" style="fill:#1f77b4;"/>
   </g>
   <g id="patch_97">
    <path clip-path="url(#pbbc2a71f49)" d="M 271.674519 204.74 
L 273.408785 204.74 
L 273.408785 102.621957 
L 271.674519 102.621957 
z
" style="fill:#1f77b4;"/>
   </g>
   <g id="patch_98">
    <path clip-path="url(#pbbc2a71f49)" d="M 273.842351 204.74 
L 275.576617 204.74 
L 275.576617 69.623462 
L 273.842351 69.623462 
z
" style="fill:#1f77b4;"/>
   </g>
   <g id="patch_99">
    <path clip-path="url(#pbbc2a71f49)" d="M 276.010184 204.74 
L 277.744449 204.74 
L 277.744449 71.867911 
L 276.010184 71.867911 
z
" style="fill:#1f77b4;"/>
   </g>
   <g id="patch_100">
    <path clip-path="url(#pbbc2a71f49)" d="M 278.178016 204.74 
L 279.912281 204.74 
L 279.912281 99.655701 
L 278.178016 99.655701 
z
" style="fill:#1f77b4;"/>
   </g>
   <g id="patch_101">
    <path clip-path="url(#pbbc2a71f49)" d="M 280.345848 204.74 
L 282.080114 204.74 
L 282.080114 82.390303 
L 280.345848 82.390303 
z
" style="fill:#1f77b4;"/>
   </g>
   <g id="patch_102">
    <path clip-path="url(#pbbc2a71f49)" d="M 282.51368 204.74 
L 284.247946 204.74 
L 284.247946 72.577424 
L 282.51368 72.577424 
z
" style="fill:#1f77b4;"/>
   </g>
   <g id="patch_103">
    <path clip-path="url(#pbbc2a71f49)" d="M 284.681512 204.74 
L 286.415778 204.74 
L 286.415778 68.653151 
L 284.681512 68.653151 
z
" style="fill:#1f77b4;"/>
   </g>
   <g id="patch_104">
    <path clip-path="url(#pbbc2a71f49)" d="M 286.849344 204.74 
L 288.58361 204.74 
L 288.58361 60.757186 
L 286.849344 60.757186 
z
" style="fill:#1f77b4;"/>
   </g>
   <g id="patch_105">
    <path clip-path="url(#pbbc2a71f49)" d="M 289.017177 204.74 
L 290.751442 204.74 
L 290.751442 65.875689 
L 289.017177 65.875689 
z
" style="fill:#1f77b4;"/>
   </g>
   <g id="patch_106">
    <path clip-path="url(#pbbc2a71f49)" d="M 291.185009 204.74 
L 292.919274 204.74 
L 292.919274 77.090909 
L 291.185009 77.090909 
z
" style="fill:#1f77b4;"/>
   </g>
   <g id="patch_107">
    <path clip-path="url(#pbbc2a71f49)" d="M 293.352841 204.74 
L 295.087107 204.74 
L 295.087107 106.338118 
L 293.352841 106.338118 
z
" style="fill:#1f77b4;"/>
   </g>
   <g id="patch_108">
    <path clip-path="url(#pbbc2a71f49)" d="M 295.520673 204.74 
L 297.254939 204.74 
L 297.254939 73.314158 
L 295.520673 73.314158 
z
" style="fill:#1f77b4;"/>
   </g>
   <g id="patch_109">
    <path clip-path="url(#pbbc2a71f49)" d="M 297.688505 204.74 
L 299.422771 204.74 
L 299.422771 84.846377 
L 297.688505 84.846377 
z
" style="fill:#1f77b4;"/>
   </g>
   <g id="patch_110">
    <path clip-path="url(#pbbc2a71f49)" d="M 299.856337 204.74 
L 301.590603 204.74 
L 301.590603 73.289571 
L 299.856337 73.289571 
z
" style="fill:#1f77b4;"/>
   </g>
   <g id="patch_111">
    <path clip-path="url(#pbbc2a71f49)" d="M 302.02417 204.74 
L 303.758435 204.74 
L 303.758435 66.009162 
L 302.02417 66.009162 
z
" style="fill:#1f77b4;"/>
   </g>
   <g id="patch_112">
    <path clip-path="url(#pbbc2a71f49)" d="M 304.192002 204.74 
L 305.926267 204.74 
L 305.926267 93.566009 
L 304.192002 93.566009 
z
" style="fill:#1f77b4;"/>
   </g>
   <g id="patch_113">
    <path clip-path="url(#pbbc2a71f49)" d="M 306.359834 204.74 
L 308.0941 204.74 
L 308.0941 55.674685 
L 306.359834 55.674685 
z
" style="fill:#1f77b4;"/>
   </g>
   <g id="patch_114">
    <path clip-path="url(#pbbc2a71f49)" d="M 308.527666 204.74 
L 310.261932 204.74 
L 310.261932 73.252691 
L 308.527666 73.252691 
z
" style="fill:#1f77b4;"/>
   </g>
   <g id="patch_115">
    <path clip-path="url(#pbbc2a71f49)" d="M 310.695498 204.74 
L 312.429764 204.74 
L 312.429764 89.221121 
L 310.695498 89.221121 
z
" style="fill:#1f77b4;"/>
   </g>
   <g id="patch_116">
    <path clip-path="url(#pbbc2a71f49)" d="M 312.86333 204.74 
L 314.597596 204.74 
L 314.597596 118.586874 
L 312.86333 118.586874 
z
" style="fill:#1f77b4;"/>
   </g>
   <g id="patch_117">
    <path clip-path="url(#pbbc2a71f49)" d="M 315.031163 204.74 
L 316.765428 204.74 
L 316.765428 56.872427 
L 315.031163 56.872427 
z
" style="fill:#1f77b4;"/>
   </g>
   <g id="patch_118">
    <path clip-path="url(#pbbc2a71f49)" d="M 317.198995 204.74 
L 318.93326 204.74 
L 318.93326 84.504792 
L 317.198995 84.504792 
z
" style="fill:#1f77b4;"/>
   </g>
   <g id="patch_119">
    <path clip-path="url(#pbbc2a71f49)" d="M 319.366827 204.74 
L 321.101093 204.74 
L 321.101093 53.705085 
L 319.366827 53.705085 
z
" style="fill:#1f77b4;"/>
   </g>
   <g id="patch_120">
    <path clip-path="url(#pbbc2a71f49)" d="M 321.534659 204.74 
L 323.268925 204.74 
L 323.268925 51.501907 
L 321.534659 51.501907 
z
" style="fill:#1f77b4;"/>
   </g>
   <g id="patch_121">
    <path clip-path="url(#pbbc2a71f49)" d="M 323.702491 204.74 
L 325.436757 204.74 
L 325.436757 98.202429 
L 323.702491 98.202429 
z
" style="fill:#1f77b4;"/>
   </g>
   <g id="patch_122">
    <path clip-path="url(#pbbc2a71f49)" d="M 325.870323 204.74 
L 327.604589 204.74 
L 327.604589 46.58976 
L 325.870323 46.58976 
z
" style="fill:#1f77b4;"/>
   </g>
   <g id="patch_123">
    <path clip-path="url(#pbbc2a71f49)" d="M 328.038156 204.74 
L 329.772421 204.74 
L 329.772421 67.511608 
L 328.038156 67.511608 
z
" style="fill:#1f77b4;"/>
   </g>
   <g id="patch_124">
    <path clip-path="url(#pbbc2a71f49)" d="M 330.205988 204.74 
L 331.940253 204.74 
L 331.940253 70.893209 
L 330.205988 70.893209 
z
" style="fill:#1f77b4;"/>
   </g>
   <g id="patch_125">
    <path clip-path="url(#pbbc2a71f49)" d="M 332.37382 204.74 
L 334.108086 204.74 
L 334.108086 96.753548 
L 332.37382 96.753548 
z
" style="fill:#1f77b4;"/>
   </g>
   <g id="patch_126">
    <path clip-path="url(#pbbc2a71f49)" d="M 334.541652 204.74 
L 336.275918 204.74 
L 336.275918 80.048384 
L 334.541652 80.048384 
z
" style="fill:#1f77b4;"/>
   </g>
   <g id="patch_127">
    <path clip-path="url(#pbbc2a71f49)" d="M 336.709484 204.74 
L 338.44375 204.74 
L 338.44375 73.065653 
L 336.709484 73.065653 
z
" style="fill:#1f77b4;"/>
   </g>
   <g id="patch_128">
    <path clip-path="url(#pbbc2a71f49)" d="M 338.877316 204.74 
L 340.611582 204.74 
L 340.611582 88.876902 
L 338.877316 88.876902 
z
" style="fill:#1f77b4;"/>
   </g>
   <g id="patch_129">
    <path clip-path="url(#pbbc2a71f49)" d="M 341.045149 204.74 
L 342.779414 204.74 
L 342.779414 94.098143 
L 341.045149 94.098143 
z
" style="fill:#1f77b4;"/>
   </g>
   <g id="patch_130">
    <path clip-path="url(#pbbc2a71f49)" d="M 343.212981 204.74 
L 344.947247 204.74 
L 344.947247 98.201551 
L 343.212981 98.201551 
z
" style="fill:#1f77b4;"/>
   </g>
   <g id="patch_131">
    <path clip-path="url(#pbbc2a71f49)" d="M 345.380813 204.74 
L 347.115079 204.74 
L 347.115079 76.338369 
L 345.380813 76.338369 
z
" style="fill:#1f77b4;"/>
   </g>
   <g id="patch_132">
    <path clip-path="url(#pbbc2a71f49)" d="M 347.548645 204.74 
L 349.282911 204.74 
L 349.282911 67.649471 
L 347.548645 67.649471 
z
" style="fill:#1f77b4;"/>
   </g>
   <g id="patch_133">
    <path clip-path="url(#pbbc2a71f49)" d="M 349.716477 204.74 
L 351.450743 204.74 
L 351.450743 112.410249 
L 349.716477 112.410249 
z
" style="fill:#1f77b4;"/>
   </g>
   <g id="patch_134">
    <path clip-path="url(#pbbc2a71f49)" d="M 351.884309 204.74 
L 353.618575 204.74 
L 353.618575 75.040523 
L 351.884309 75.040523 
z
" style="fill:#1f77b4;"/>
   </g>
   <g id="patch_135">
    <path clip-path="url(#pbbc2a71f49)" d="M 354.052142 204.74 
L 355.786407 204.74 
L 355.786407 69.035129 
L 354.052142 69.035129 
z
" style="fill:#1f77b4;"/>
   </g>
   <g id="patch_136">
    <path clip-path="url(#pbbc2a71f49)" d="M 356.219974 204.74 
L 357.95424 204.74 
L 357.95424 73.300987 
L 356.219974 73.300987 
z
" style="fill:#1f77b4;"/>
   </g>
   <g id="patch_137">
    <path clip-path="url(#pbbc2a71f49)" d="M 358.387806 204.74 
L 360.122072 204.74 
L 360.122072 90.334564 
L 358.387806 90.334564 
z
" style="fill:#1f77b4;"/>
   </g>
   <g id="patch_138">
    <path clip-path="url(#pbbc2a71f49)" d="M 360.555638 204.74 
L 362.289904 204.74 
L 362.289904 67.213928 
L 360.555638 67.213928 
z
" style="fill:#1f77b4;"/>
   </g>
   <g id="patch_139">
    <path clip-path="url(#pbbc2a71f49)" d="M 362.72347 204.74 
L 364.457736 204.74 
L 364.457736 93.535275 
L 362.72347 93.535275 
z
" style="fill:#1f77b4;"/>
   </g>
   <g id="patch_140">
    <path clip-path="url(#pbbc2a71f49)" d="M 364.891302 204.74 
L 366.625568 204.74 
L 366.625568 80.125658 
L 364.891302 80.125658 
z
" style="fill:#1f77b4;"/>
   </g>
   <g id="patch_141">
    <path clip-path="url(#pbbc2a71f49)" d="M 367.059135 204.74 
L 368.7934 204.74 
L 368.7934 91.359318 
L 367.059135 91.359318 
z
" style="fill:#1f77b4;"/>
   </g>
   <g id="patch_142">
    <path clip-path="url(#pbbc2a71f49)" d="M 369.226967 204.74 
L 370.961233 204.74 
L 370.961233 80.24069 
L 369.226967 80.24069 
z
" style="fill:#1f77b4;"/>
   </g>
   <g id="patch_143">
    <path clip-path="url(#pbbc2a71f49)" d="M 371.394799 204.74 
L 373.129065 204.74 
L 373.129065 78.607405 
L 371.394799 78.607405 
z
" style="fill:#1f77b4;"/>
   </g>
   <g id="patch_144">
    <path clip-path="url(#pbbc2a71f49)" d="M 373.562631 204.74 
L 375.296897 204.74 
L 375.296897 54.813259 
L 373.562631 54.813259 
z
" style="fill:#1f77b4;"/>
   </g>
   <g id="patch_145">
    <path clip-path="url(#pbbc2a71f49)" d="M 375.730463 204.74 
L 377.464729 204.74 
L 377.464729 56.432494 
L 375.730463 56.432494 
z
" style="fill:#1f77b4;"/>
   </g>
   <g id="patch_146">
    <path clip-path="url(#pbbc2a71f49)" d="M 377.898295 204.74 
L 379.632561 204.74 
L 379.632561 63.921016 
L 377.898295 63.921016 
z
" style="fill:#1f77b4;"/>
   </g>
   <g id="patch_147">
    <path clip-path="url(#pbbc2a71f49)" d="M 380.066128 204.74 
L 381.800393 204.74 
L 381.800393 75.870337 
L 380.066128 75.870337 
z
" style="fill:#1f77b4;"/>
   </g>
   <g id="patch_148">
    <path clip-path="url(#pbbc2a71f49)" d="M 382.23396 204.74 
L 383.968226 204.74 
L 383.968226 94.986791 
L 382.23396 94.986791 
z
" style="fill:#1f77b4;"/>
   </g>
   <g id="patch_149">
    <path clip-path="url(#pbbc2a71f49)" d="M 384.401792 204.74 
L 386.136058 204.74 
L 386.136058 69.319636 
L 384.401792 69.319636 
z
" style="fill:#1f77b4;"/>
   </g>
   <g id="patch_150">
    <path clip-path="url(#pbbc2a71f49)" d="M 386.569624 204.74 
L 388.30389 204.74 
L 388.30389 78.724194 
L 386.569624 78.724194 
z
" style="fill:#1f77b4;"/>
   </g>
   <g id="patch_151">
    <path clip-path="url(#pbbc2a71f49)" d="M 388.737456 204.74 
L 390.471722 204.74 
L 390.471722 114.484345 
L 388.737456 114.484345 
z
" style="fill:#1f77b4;"/>
   </g>
   <g id="patch_152">
    <path clip-path="url(#pbbc2a71f49)" d="M 390.905288 204.74 
L 392.639554 204.74 
L 392.639554 86.719385 
L 390.905288 86.719385 
z
" style="fill:#1f77b4;"/>
   </g>
   <g id="patch_153">
    <path clip-path="url(#pbbc2a71f49)" d="M 393.073121 204.74 
L 394.807386 204.74 
L 394.807386 79.70153 
L 393.073121 79.70153 
z
" style="fill:#1f77b4;"/>
   </g>
   <g id="patch_154">
    <path clip-path="url(#pbbc2a71f49)" d="M 395.240953 204.74 
L 396.975219 204.74 
L 396.975219 69.196701 
L 395.240953 69.196701 
z
" style="fill:#1f77b4;"/>
   </g>
   <g id="patch_155">
    <path clip-path="url(#pbbc2a71f49)" d="M 397.408785 204.74 
L 399.143051 204.74 
L 399.143051 106.391683 
L 397.408785 106.391683 
z
" style="fill:#1f77b4;"/>
   </g>
   <g id="patch_156">
    <path clip-path="url(#pbbc2a71f49)" d="M 399.576617 204.74 
L 401.310883 204.74 
L 401.310883 79.431073 
L 399.576617 79.431073 
z
" style="fill:#1f77b4;"/>
   </g>
   <g id="patch_157">
    <path clip-path="url(#pbbc2a71f49)" d="M 401.744449 204.74 
L 403.478715 204.74 
L 403.478715 56.075103 
L 401.744449 56.075103 
z
" style="fill:#1f77b4;"/>
   </g>
   <g id="patch_158">
    <path clip-path="url(#pbbc2a71f49)" d="M 403.912281 204.74 
L 405.646547 204.74 
L 405.646547 115.134146 
L 403.912281 115.134146 
z
" style="fill:#1f77b4;"/>
   </g>
   <g id="patch_159">
    <path clip-path="url(#pbbc2a71f49)" d="M 406.080114 204.74 
L 407.814379 204.74 
L 407.814379 98.138327 
L 406.080114 98.138327 
z
" style="fill:#1f77b4;"/>
   </g>
   <g id="patch_160">
    <path clip-path="url(#pbbc2a71f49)" d="M 408.247946 204.74 
L 409.982212 204.74 
L 409.982212 93.832954 
L 408.247946 93.832954 
z
" style="fill:#1f77b4;"/>
   </g>
   <g id="patch_161">
    <path clip-path="url(#pbbc2a71f49)" d="M 410.415778 204.74 
L 412.150044 204.74 
L 412.150044 134.356851 
L 410.415778 134.356851 
z
" style="fill:#1f77b4;"/>
   </g>
   <g id="patch_162">
    <path clip-path="url(#pbbc2a71f49)" d="M 412.58361 204.74 
L 414.317876 204.74 
L 414.317876 88.958566 
L 412.58361 88.958566 
z
" style="fill:#1f77b4;"/>
   </g>
   <g id="patch_163">
    <path clip-path="url(#pbbc2a71f49)" d="M 414.751442 204.74 
L 416.485708 204.74 
L 416.485708 80.48217 
L 414.751442 80.48217 
z
" style="fill:#1f77b4;"/>
   </g>
   <g id="patch_164">
    <path clip-path="url(#pbbc2a71f49)" d="M 416.919274 204.74 
L 418.65354 204.74 
L 418.65354 83.931386 
L 416.919274 83.931386 
z
" style="fill:#1f77b4;"/>
   </g>
   <g id="patch_165">
    <path clip-path="url(#pbbc2a71f49)" d="M 419.087107 204.74 
L 420.821372 204.74 
L 420.821372 91.455911 
L 419.087107 91.455911 
z
" style="fill:#1f77b4;"/>
   </g>
   <g id="patch_166">
    <path clip-path="url(#pbbc2a71f49)" d="M 421.254939 204.74 
L 422.989205 204.74 
L 422.989205 67.77065 
L 421.254939 67.77065 
z
" style="fill:#1f77b4;"/>
   </g>
   <g id="matplotlib.axis_1">
    <g id="xtick_1">
     <g id="line2d_1">
      <defs>
       <path d="M 0 0 
L 0 3.5 
" id="m0d76284590" style="stroke:#000000;stroke-width:0.8;"/>
      </defs>
      <g>
       <use style="stroke:#000000;stroke-width:0.8;" x="66.597596" xlink:href="#m0d76284590" y="204.74"/>
      </g>
     </g>
     <g id="text_1">
      <!-- 0 -->
      <defs>
       <path d="M 31.78125 66.40625 
Q 24.171875 66.40625 20.328125 58.90625 
Q 16.5 51.421875 16.5 36.375 
Q 16.5 21.390625 20.328125 13.890625 
Q 24.171875 6.390625 31.78125 6.390625 
Q 39.453125 6.390625 43.28125 13.890625 
Q 47.125 21.390625 47.125 36.375 
Q 47.125 51.421875 43.28125 58.90625 
Q 39.453125 66.40625 31.78125 66.40625 
z
M 31.78125 74.21875 
Q 44.046875 74.21875 50.515625 64.515625 
Q 56.984375 54.828125 56.984375 36.375 
Q 56.984375 17.96875 50.515625 8.265625 
Q 44.046875 -1.421875 31.78125 -1.421875 
Q 19.53125 -1.421875 13.0625 8.265625 
Q 6.59375 17.96875 6.59375 36.375 
Q 6.59375 54.828125 13.0625 64.515625 
Q 19.53125 74.21875 31.78125 74.21875 
z
" id="DejaVuSans-48"/>
      </defs>
      <g transform="translate(63.416346 219.338437)scale(0.1 -0.1)">
       <use xlink:href="#DejaVuSans-48"/>
      </g>
     </g>
    </g>
    <g id="xtick_2">
     <g id="line2d_2">
      <g>
       <use style="stroke:#000000;stroke-width:0.8;" x="120.7934" xlink:href="#m0d76284590" y="204.74"/>
      </g>
     </g>
     <g id="text_2">
      <!-- 25 -->
      <defs>
       <path d="M 19.1875 8.296875 
L 53.609375 8.296875 
L 53.609375 0 
L 7.328125 0 
L 7.328125 8.296875 
Q 12.9375 14.109375 22.625 23.890625 
Q 32.328125 33.6875 34.8125 36.53125 
Q 39.546875 41.84375 41.421875 45.53125 
Q 43.3125 49.21875 43.3125 52.78125 
Q 43.3125 58.59375 39.234375 62.25 
Q 35.15625 65.921875 28.609375 65.921875 
Q 23.96875 65.921875 18.8125 64.3125 
Q 13.671875 62.703125 7.8125 59.421875 
L 7.8125 69.390625 
Q 13.765625 71.78125 18.9375 73 
Q 24.125 74.21875 28.421875 74.21875 
Q 39.75 74.21875 46.484375 68.546875 
Q 53.21875 62.890625 53.21875 53.421875 
Q 53.21875 48.921875 51.53125 44.890625 
Q 49.859375 40.875 45.40625 35.40625 
Q 44.1875 33.984375 37.640625 27.21875 
Q 31.109375 20.453125 19.1875 8.296875 
z
" id="DejaVuSans-50"/>
       <path d="M 10.796875 72.90625 
L 49.515625 72.90625 
L 49.515625 64.59375 
L 19.828125 64.59375 
L 19.828125 46.734375 
Q 21.96875 47.46875 24.109375 47.828125 
Q 26.265625 48.1875 28.421875 48.1875 
Q 40.625 48.1875 47.75 41.5 
Q 54.890625 34.8125 54.890625 23.390625 
Q 54.890625 11.625 47.5625 5.09375 
Q 40.234375 -1.421875 26.90625 -1.421875 
Q 22.3125 -1.421875 17.546875 -0.640625 
Q 12.796875 0.140625 7.71875 1.703125 
L 7.71875 11.625 
Q 12.109375 9.234375 16.796875 8.0625 
Q 21.484375 6.890625 26.703125 6.890625 
Q 35.15625 6.890625 40.078125 11.328125 
Q 45.015625 15.765625 45.015625 23.390625 
Q 45.015625 31 40.078125 35.4375 
Q 35.15625 39.890625 26.703125 39.890625 
Q 22.75 39.890625 18.8125 39.015625 
Q 14.890625 38.140625 10.796875 36.28125 
z
" id="DejaVuSans-53"/>
      </defs>
      <g transform="translate(114.4309 219.338437)scale(0.1 -0.1)">
       <use xlink:href="#DejaVuSans-50"/>
       <use x="63.623047" xlink:href="#DejaVuSans-53"/>
      </g>
     </g>
    </g>
    <g id="xtick_3">
     <g id="line2d_3">
      <g>
       <use style="stroke:#000000;stroke-width:0.8;" x="174.989205" xlink:href="#m0d76284590" y="204.74"/>
      </g>
     </g>
     <g id="text_3">
      <!-- 50 -->
      <g transform="translate(168.626705 219.338437)scale(0.1 -0.1)">
       <use xlink:href="#DejaVuSans-53"/>
       <use x="63.623047" xlink:href="#DejaVuSans-48"/>
      </g>
     </g>
    </g>
    <g id="xtick_4">
     <g id="line2d_4">
      <g>
       <use style="stroke:#000000;stroke-width:0.8;" x="229.185009" xlink:href="#m0d76284590" y="204.74"/>
      </g>
     </g>
     <g id="text_4">
      <!-- 75 -->
      <defs>
       <path d="M 8.203125 72.90625 
L 55.078125 72.90625 
L 55.078125 68.703125 
L 28.609375 0 
L 18.3125 0 
L 43.21875 64.59375 
L 8.203125 64.59375 
z
" id="DejaVuSans-55"/>
      </defs>
      <g transform="translate(222.822509 219.338437)scale(0.1 -0.1)">
       <use xlink:href="#DejaVuSans-55"/>
       <use x="63.623047" xlink:href="#DejaVuSans-53"/>
      </g>
     </g>
    </g>
    <g id="xtick_5">
     <g id="line2d_5">
      <g>
       <use style="stroke:#000000;stroke-width:0.8;" x="283.380813" xlink:href="#m0d76284590" y="204.74"/>
      </g>
     </g>
     <g id="text_5">
      <!-- 100 -->
      <defs>
       <path d="M 12.40625 8.296875 
L 28.515625 8.296875 
L 28.515625 63.921875 
L 10.984375 60.40625 
L 10.984375 69.390625 
L 28.421875 72.90625 
L 38.28125 72.90625 
L 38.28125 8.296875 
L 54.390625 8.296875 
L 54.390625 0 
L 12.40625 0 
z
" id="DejaVuSans-49"/>
      </defs>
      <g transform="translate(273.837063 219.338437)scale(0.1 -0.1)">
       <use xlink:href="#DejaVuSans-49"/>
       <use x="63.623047" xlink:href="#DejaVuSans-48"/>
       <use x="127.246094" xlink:href="#DejaVuSans-48"/>
      </g>
     </g>
    </g>
    <g id="xtick_6">
     <g id="line2d_6">
      <g>
       <use style="stroke:#000000;stroke-width:0.8;" x="337.576617" xlink:href="#m0d76284590" y="204.74"/>
      </g>
     </g>
     <g id="text_6">
      <!-- 125 -->
      <g transform="translate(328.032867 219.338437)scale(0.1 -0.1)">
       <use xlink:href="#DejaVuSans-49"/>
       <use x="63.623047" xlink:href="#DejaVuSans-50"/>
       <use x="127.246094" xlink:href="#DejaVuSans-53"/>
      </g>
     </g>
    </g>
    <g id="xtick_7">
     <g id="line2d_7">
      <g>
       <use style="stroke:#000000;stroke-width:0.8;" x="391.772421" xlink:href="#m0d76284590" y="204.74"/>
      </g>
     </g>
     <g id="text_7">
      <!-- 150 -->
      <g transform="translate(382.228671 219.338437)scale(0.1 -0.1)">
       <use xlink:href="#DejaVuSans-49"/>
       <use x="63.623047" xlink:href="#DejaVuSans-53"/>
       <use x="127.246094" xlink:href="#DejaVuSans-48"/>
      </g>
     </g>
    </g>
    <g id="text_8">
     <!-- number of chunk (from beginning to end) -->
     <defs>
      <path d="M 54.890625 33.015625 
L 54.890625 0 
L 45.90625 0 
L 45.90625 32.71875 
Q 45.90625 40.484375 42.875 44.328125 
Q 39.84375 48.1875 33.796875 48.1875 
Q 26.515625 48.1875 22.3125 43.546875 
Q 18.109375 38.921875 18.109375 30.90625 
L 18.109375 0 
L 9.078125 0 
L 9.078125 54.6875 
L 18.109375 54.6875 
L 18.109375 46.1875 
Q 21.34375 51.125 25.703125 53.5625 
Q 30.078125 56 35.796875 56 
Q 45.21875 56 50.046875 50.171875 
Q 54.890625 44.34375 54.890625 33.015625 
z
" id="DejaVuSans-110"/>
      <path d="M 8.5 21.578125 
L 8.5 54.6875 
L 17.484375 54.6875 
L 17.484375 21.921875 
Q 17.484375 14.15625 20.5 10.265625 
Q 23.53125 6.390625 29.59375 6.390625 
Q 36.859375 6.390625 41.078125 11.03125 
Q 45.3125 15.671875 45.3125 23.6875 
L 45.3125 54.6875 
L 54.296875 54.6875 
L 54.296875 0 
L 45.3125 0 
L 45.3125 8.40625 
Q 42.046875 3.421875 37.71875 1 
Q 33.40625 -1.421875 27.6875 -1.421875 
Q 18.265625 -1.421875 13.375 4.4375 
Q 8.5 10.296875 8.5 21.578125 
z
M 31.109375 56 
z
" id="DejaVuSans-117"/>
      <path d="M 52 44.1875 
Q 55.375 50.25 60.0625 53.125 
Q 64.75 56 71.09375 56 
Q 79.640625 56 84.28125 50.015625 
Q 88.921875 44.046875 88.921875 33.015625 
L 88.921875 0 
L 79.890625 0 
L 79.890625 32.71875 
Q 79.890625 40.578125 77.09375 44.375 
Q 74.3125 48.1875 68.609375 48.1875 
Q 61.625 48.1875 57.5625 43.546875 
Q 53.515625 38.921875 53.515625 30.90625 
L 53.515625 0 
L 44.484375 0 
L 44.484375 32.71875 
Q 44.484375 40.625 41.703125 44.40625 
Q 38.921875 48.1875 33.109375 48.1875 
Q 26.21875 48.1875 22.15625 43.53125 
Q 18.109375 38.875 18.109375 30.90625 
L 18.109375 0 
L 9.078125 0 
L 9.078125 54.6875 
L 18.109375 54.6875 
L 18.109375 46.1875 
Q 21.1875 51.21875 25.484375 53.609375 
Q 29.78125 56 35.6875 56 
Q 41.65625 56 45.828125 52.96875 
Q 50 49.953125 52 44.1875 
z
" id="DejaVuSans-109"/>
      <path d="M 48.6875 27.296875 
Q 48.6875 37.203125 44.609375 42.84375 
Q 40.53125 48.484375 33.40625 48.484375 
Q 26.265625 48.484375 22.1875 42.84375 
Q 18.109375 37.203125 18.109375 27.296875 
Q 18.109375 17.390625 22.1875 11.75 
Q 26.265625 6.109375 33.40625 6.109375 
Q 40.53125 6.109375 44.609375 11.75 
Q 48.6875 17.390625 48.6875 27.296875 
z
M 18.109375 46.390625 
Q 20.953125 51.265625 25.265625 53.625 
Q 29.59375 56 35.59375 56 
Q 45.5625 56 51.78125 48.09375 
Q 58.015625 40.1875 58.015625 27.296875 
Q 58.015625 14.40625 51.78125 6.484375 
Q 45.5625 -1.421875 35.59375 -1.421875 
Q 29.59375 -1.421875 25.265625 0.953125 
Q 20.953125 3.328125 18.109375 8.203125 
L 18.109375 0 
L 9.078125 0 
L 9.078125 75.984375 
L 18.109375 75.984375 
z
" id="DejaVuSans-98"/>
      <path d="M 56.203125 29.59375 
L 56.203125 25.203125 
L 14.890625 25.203125 
Q 15.484375 15.921875 20.484375 11.0625 
Q 25.484375 6.203125 34.421875 6.203125 
Q 39.59375 6.203125 44.453125 7.46875 
Q 49.3125 8.734375 54.109375 11.28125 
L 54.109375 2.78125 
Q 49.265625 0.734375 44.1875 -0.34375 
Q 39.109375 -1.421875 33.890625 -1.421875 
Q 20.796875 -1.421875 13.15625 6.1875 
Q 5.515625 13.8125 5.515625 26.8125 
Q 5.515625 40.234375 12.765625 48.109375 
Q 20.015625 56 32.328125 56 
Q 43.359375 56 49.78125 48.890625 
Q 56.203125 41.796875 56.203125 29.59375 
z
M 47.21875 32.234375 
Q 47.125 39.59375 43.09375 43.984375 
Q 39.0625 48.390625 32.421875 48.390625 
Q 24.90625 48.390625 20.390625 44.140625 
Q 15.875 39.890625 15.1875 32.171875 
z
" id="DejaVuSans-101"/>
      <path d="M 41.109375 46.296875 
Q 39.59375 47.171875 37.8125 47.578125 
Q 36.03125 48 33.890625 48 
Q 26.265625 48 22.1875 43.046875 
Q 18.109375 38.09375 18.109375 28.8125 
L 18.109375 0 
L 9.078125 0 
L 9.078125 54.6875 
L 18.109375 54.6875 
L 18.109375 46.1875 
Q 20.953125 51.171875 25.484375 53.578125 
Q 30.03125 56 36.53125 56 
Q 37.453125 56 38.578125 55.875 
Q 39.703125 55.765625 41.0625 55.515625 
z
" id="DejaVuSans-114"/>
      <path id="DejaVuSans-32"/>
      <path d="M 30.609375 48.390625 
Q 23.390625 48.390625 19.1875 42.75 
Q 14.984375 37.109375 14.984375 27.296875 
Q 14.984375 17.484375 19.15625 11.84375 
Q 23.34375 6.203125 30.609375 6.203125 
Q 37.796875 6.203125 41.984375 11.859375 
Q 46.1875 17.53125 46.1875 27.296875 
Q 46.1875 37.015625 41.984375 42.703125 
Q 37.796875 48.390625 30.609375 48.390625 
z
M 30.609375 56 
Q 42.328125 56 49.015625 48.375 
Q 55.71875 40.765625 55.71875 27.296875 
Q 55.71875 13.875 49.015625 6.21875 
Q 42.328125 -1.421875 30.609375 -1.421875 
Q 18.84375 -1.421875 12.171875 6.21875 
Q 5.515625 13.875 5.515625 27.296875 
Q 5.515625 40.765625 12.171875 48.375 
Q 18.84375 56 30.609375 56 
z
" id="DejaVuSans-111"/>
      <path d="M 37.109375 75.984375 
L 37.109375 68.5 
L 28.515625 68.5 
Q 23.6875 68.5 21.796875 66.546875 
Q 19.921875 64.59375 19.921875 59.515625 
L 19.921875 54.6875 
L 34.71875 54.6875 
L 34.71875 47.703125 
L 19.921875 47.703125 
L 19.921875 0 
L 10.890625 0 
L 10.890625 47.703125 
L 2.296875 47.703125 
L 2.296875 54.6875 
L 10.890625 54.6875 
L 10.890625 58.5 
Q 10.890625 67.625 15.140625 71.796875 
Q 19.390625 75.984375 28.609375 75.984375 
z
" id="DejaVuSans-102"/>
      <path d="M 48.78125 52.59375 
L 48.78125 44.1875 
Q 44.96875 46.296875 41.140625 47.34375 
Q 37.3125 48.390625 33.40625 48.390625 
Q 24.65625 48.390625 19.8125 42.84375 
Q 14.984375 37.3125 14.984375 27.296875 
Q 14.984375 17.28125 19.8125 11.734375 
Q 24.65625 6.203125 33.40625 6.203125 
Q 37.3125 6.203125 41.140625 7.25 
Q 44.96875 8.296875 48.78125 10.40625 
L 48.78125 2.09375 
Q 45.015625 0.34375 40.984375 -0.53125 
Q 36.96875 -1.421875 32.421875 -1.421875 
Q 20.0625 -1.421875 12.78125 6.34375 
Q 5.515625 14.109375 5.515625 27.296875 
Q 5.515625 40.671875 12.859375 48.328125 
Q 20.21875 56 33.015625 56 
Q 37.15625 56 41.109375 55.140625 
Q 45.0625 54.296875 48.78125 52.59375 
z
" id="DejaVuSans-99"/>
      <path d="M 54.890625 33.015625 
L 54.890625 0 
L 45.90625 0 
L 45.90625 32.71875 
Q 45.90625 40.484375 42.875 44.328125 
Q 39.84375 48.1875 33.796875 48.1875 
Q 26.515625 48.1875 22.3125 43.546875 
Q 18.109375 38.921875 18.109375 30.90625 
L 18.109375 0 
L 9.078125 0 
L 9.078125 75.984375 
L 18.109375 75.984375 
L 18.109375 46.1875 
Q 21.34375 51.125 25.703125 53.5625 
Q 30.078125 56 35.796875 56 
Q 45.21875 56 50.046875 50.171875 
Q 54.890625 44.34375 54.890625 33.015625 
z
" id="DejaVuSans-104"/>
      <path d="M 9.078125 75.984375 
L 18.109375 75.984375 
L 18.109375 31.109375 
L 44.921875 54.6875 
L 56.390625 54.6875 
L 27.390625 29.109375 
L 57.625 0 
L 45.90625 0 
L 18.109375 26.703125 
L 18.109375 0 
L 9.078125 0 
z
" id="DejaVuSans-107"/>
      <path d="M 31 75.875 
Q 24.46875 64.65625 21.28125 53.65625 
Q 18.109375 42.671875 18.109375 31.390625 
Q 18.109375 20.125 21.3125 9.0625 
Q 24.515625 -2 31 -13.1875 
L 23.1875 -13.1875 
Q 15.875 -1.703125 12.234375 9.375 
Q 8.59375 20.453125 8.59375 31.390625 
Q 8.59375 42.28125 12.203125 53.3125 
Q 15.828125 64.359375 23.1875 75.875 
z
" id="DejaVuSans-40"/>
      <path d="M 45.40625 27.984375 
Q 45.40625 37.75 41.375 43.109375 
Q 37.359375 48.484375 30.078125 48.484375 
Q 22.859375 48.484375 18.828125 43.109375 
Q 14.796875 37.75 14.796875 27.984375 
Q 14.796875 18.265625 18.828125 12.890625 
Q 22.859375 7.515625 30.078125 7.515625 
Q 37.359375 7.515625 41.375 12.890625 
Q 45.40625 18.265625 45.40625 27.984375 
z
M 54.390625 6.78125 
Q 54.390625 -7.171875 48.1875 -13.984375 
Q 42 -20.796875 29.203125 -20.796875 
Q 24.46875 -20.796875 20.265625 -20.09375 
Q 16.0625 -19.390625 12.109375 -17.921875 
L 12.109375 -9.1875 
Q 16.0625 -11.328125 19.921875 -12.34375 
Q 23.78125 -13.375 27.78125 -13.375 
Q 36.625 -13.375 41.015625 -8.765625 
Q 45.40625 -4.15625 45.40625 5.171875 
L 45.40625 9.625 
Q 42.625 4.78125 38.28125 2.390625 
Q 33.9375 0 27.875 0 
Q 17.828125 0 11.671875 7.65625 
Q 5.515625 15.328125 5.515625 27.984375 
Q 5.515625 40.671875 11.671875 48.328125 
Q 17.828125 56 27.875 56 
Q 33.9375 56 38.28125 53.609375 
Q 42.625 51.21875 45.40625 46.390625 
L 45.40625 54.6875 
L 54.390625 54.6875 
z
" id="DejaVuSans-103"/>
      <path d="M 9.421875 54.6875 
L 18.40625 54.6875 
L 18.40625 0 
L 9.421875 0 
z
M 9.421875 75.984375 
L 18.40625 75.984375 
L 18.40625 64.59375 
L 9.421875 64.59375 
z
" id="DejaVuSans-105"/>
      <path d="M 18.3125 70.21875 
L 18.3125 54.6875 
L 36.8125 54.6875 
L 36.8125 47.703125 
L 18.3125 47.703125 
L 18.3125 18.015625 
Q 18.3125 11.328125 20.140625 9.421875 
Q 21.96875 7.515625 27.59375 7.515625 
L 36.8125 7.515625 
L 36.8125 0 
L 27.59375 0 
Q 17.1875 0 13.234375 3.875 
Q 9.28125 7.765625 9.28125 18.015625 
L 9.28125 47.703125 
L 2.6875 47.703125 
L 2.6875 54.6875 
L 9.28125 54.6875 
L 9.28125 70.21875 
z
" id="DejaVuSans-116"/>
      <path d="M 45.40625 46.390625 
L 45.40625 75.984375 
L 54.390625 75.984375 
L 54.390625 0 
L 45.40625 0 
L 45.40625 8.203125 
Q 42.578125 3.328125 38.25 0.953125 
Q 33.9375 -1.421875 27.875 -1.421875 
Q 17.96875 -1.421875 11.734375 6.484375 
Q 5.515625 14.40625 5.515625 27.296875 
Q 5.515625 40.1875 11.734375 48.09375 
Q 17.96875 56 27.875 56 
Q 33.9375 56 38.25 53.625 
Q 42.578125 51.265625 45.40625 46.390625 
z
M 14.796875 27.296875 
Q 14.796875 17.390625 18.875 11.75 
Q 22.953125 6.109375 30.078125 6.109375 
Q 37.203125 6.109375 41.296875 11.75 
Q 45.40625 17.390625 45.40625 27.296875 
Q 45.40625 37.203125 41.296875 42.84375 
Q 37.203125 48.484375 30.078125 48.484375 
Q 22.953125 48.484375 18.875 42.84375 
Q 14.796875 37.203125 14.796875 27.296875 
z
" id="DejaVuSans-100"/>
      <path d="M 8.015625 75.875 
L 15.828125 75.875 
Q 23.140625 64.359375 26.78125 53.3125 
Q 30.421875 42.28125 30.421875 31.390625 
Q 30.421875 20.453125 26.78125 9.375 
Q 23.140625 -1.703125 15.828125 -13.1875 
L 8.015625 -13.1875 
Q 14.5 -2 17.703125 9.0625 
Q 20.90625 20.125 20.90625 31.390625 
Q 20.90625 42.671875 17.703125 53.65625 
Q 14.5 64.65625 8.015625 75.875 
z
" id="DejaVuSans-41"/>
     </defs>
     <g transform="translate(141.457031 233.016562)scale(0.1 -0.1)">
      <use xlink:href="#DejaVuSans-110"/>
      <use x="63.378906" xlink:href="#DejaVuSans-117"/>
      <use x="126.757812" xlink:href="#DejaVuSans-109"/>
      <use x="224.169922" xlink:href="#DejaVuSans-98"/>
      <use x="287.646484" xlink:href="#DejaVuSans-101"/>
      <use x="349.169922" xlink:href="#DejaVuSans-114"/>
      <use x="390.283203" xlink:href="#DejaVuSans-32"/>
      <use x="422.070312" xlink:href="#DejaVuSans-111"/>
      <use x="483.251953" xlink:href="#DejaVuSans-102"/>
      <use x="518.457031" xlink:href="#DejaVuSans-32"/>
      <use x="550.244141" xlink:href="#DejaVuSans-99"/>
      <use x="605.224609" xlink:href="#DejaVuSans-104"/>
      <use x="668.603516" xlink:href="#DejaVuSans-117"/>
      <use x="731.982422" xlink:href="#DejaVuSans-110"/>
      <use x="795.361328" xlink:href="#DejaVuSans-107"/>
      <use x="853.271484" xlink:href="#DejaVuSans-32"/>
      <use x="885.058594" xlink:href="#DejaVuSans-40"/>
      <use x="924.072266" xlink:href="#DejaVuSans-102"/>
      <use x="959.277344" xlink:href="#DejaVuSans-114"/>
      <use x="1000.359375" xlink:href="#DejaVuSans-111"/>
      <use x="1061.541016" xlink:href="#DejaVuSans-109"/>
      <use x="1158.953125" xlink:href="#DejaVuSans-32"/>
      <use x="1190.740234" xlink:href="#DejaVuSans-98"/>
      <use x="1254.216797" xlink:href="#DejaVuSans-101"/>
      <use x="1315.740234" xlink:href="#DejaVuSans-103"/>
      <use x="1379.216797" xlink:href="#DejaVuSans-105"/>
      <use x="1407" xlink:href="#DejaVuSans-110"/>
      <use x="1470.378906" xlink:href="#DejaVuSans-110"/>
      <use x="1533.757812" xlink:href="#DejaVuSans-105"/>
      <use x="1561.541016" xlink:href="#DejaVuSans-110"/>
      <use x="1624.919922" xlink:href="#DejaVuSans-103"/>
      <use x="1688.396484" xlink:href="#DejaVuSans-32"/>
      <use x="1720.183594" xlink:href="#DejaVuSans-116"/>
      <use x="1759.392578" xlink:href="#DejaVuSans-111"/>
      <use x="1820.574219" xlink:href="#DejaVuSans-32"/>
      <use x="1852.361328" xlink:href="#DejaVuSans-101"/>
      <use x="1913.884766" xlink:href="#DejaVuSans-110"/>
      <use x="1977.263672" xlink:href="#DejaVuSans-100"/>
      <use x="2040.740234" xlink:href="#DejaVuSans-41"/>
     </g>
    </g>
   </g>
   <g id="matplotlib.axis_2">
    <g id="ytick_1">
     <g id="line2d_8">
      <defs>
       <path d="M 0 0 
L -3.5 0 
" id="m356dd3e2f2" style="stroke:#000000;stroke-width:0.8;"/>
      </defs>
      <g>
       <use style="stroke:#000000;stroke-width:0.8;" x="50.14375" xlink:href="#m356dd3e2f2" y="204.74"/>
      </g>
     </g>
     <g id="text_9">
      <!-- 0.0 -->
      <defs>
       <path d="M 10.6875 12.40625 
L 21 12.40625 
L 21 0 
L 10.6875 0 
z
" id="DejaVuSans-46"/>
      </defs>
      <g transform="translate(27.240625 208.539219)scale(0.1 -0.1)">
       <use xlink:href="#DejaVuSans-48"/>
       <use x="63.623047" xlink:href="#DejaVuSans-46"/>
       <use x="95.410156" xlink:href="#DejaVuSans-48"/>
      </g>
     </g>
    </g>
    <g id="ytick_2">
     <g id="line2d_9">
      <g>
       <use style="stroke:#000000;stroke-width:0.8;" x="50.14375" xlink:href="#m356dd3e2f2" y="182.787251"/>
      </g>
     </g>
     <g id="text_10">
      <!-- 2.5 -->
      <g transform="translate(27.240625 186.586469)scale(0.1 -0.1)">
       <use xlink:href="#DejaVuSans-50"/>
       <use x="63.623047" xlink:href="#DejaVuSans-46"/>
       <use x="95.410156" xlink:href="#DejaVuSans-53"/>
      </g>
     </g>
    </g>
    <g id="ytick_3">
     <g id="line2d_10">
      <g>
       <use style="stroke:#000000;stroke-width:0.8;" x="50.14375" xlink:href="#m356dd3e2f2" y="160.834501"/>
      </g>
     </g>
     <g id="text_11">
      <!-- 5.0 -->
      <g transform="translate(27.240625 164.63372)scale(0.1 -0.1)">
       <use xlink:href="#DejaVuSans-53"/>
       <use x="63.623047" xlink:href="#DejaVuSans-46"/>
       <use x="95.410156" xlink:href="#DejaVuSans-48"/>
      </g>
     </g>
    </g>
    <g id="ytick_4">
     <g id="line2d_11">
      <g>
       <use style="stroke:#000000;stroke-width:0.8;" x="50.14375" xlink:href="#m356dd3e2f2" y="138.881752"/>
      </g>
     </g>
     <g id="text_12">
      <!-- 7.5 -->
      <g transform="translate(27.240625 142.680971)scale(0.1 -0.1)">
       <use xlink:href="#DejaVuSans-55"/>
       <use x="63.623047" xlink:href="#DejaVuSans-46"/>
       <use x="95.410156" xlink:href="#DejaVuSans-53"/>
      </g>
     </g>
    </g>
    <g id="ytick_5">
     <g id="line2d_12">
      <g>
       <use style="stroke:#000000;stroke-width:0.8;" x="50.14375" xlink:href="#m356dd3e2f2" y="116.929003"/>
      </g>
     </g>
     <g id="text_13">
      <!-- 10.0 -->
      <g transform="translate(20.878125 120.728221)scale(0.1 -0.1)">
       <use xlink:href="#DejaVuSans-49"/>
       <use x="63.623047" xlink:href="#DejaVuSans-48"/>
       <use x="127.246094" xlink:href="#DejaVuSans-46"/>
       <use x="159.033203" xlink:href="#DejaVuSans-48"/>
      </g>
     </g>
    </g>
    <g id="ytick_6">
     <g id="line2d_13">
      <g>
       <use style="stroke:#000000;stroke-width:0.8;" x="50.14375" xlink:href="#m356dd3e2f2" y="94.976253"/>
      </g>
     </g>
     <g id="text_14">
      <!-- 12.5 -->
      <g transform="translate(20.878125 98.775472)scale(0.1 -0.1)">
       <use xlink:href="#DejaVuSans-49"/>
       <use x="63.623047" xlink:href="#DejaVuSans-50"/>
       <use x="127.246094" xlink:href="#DejaVuSans-46"/>
       <use x="159.033203" xlink:href="#DejaVuSans-53"/>
      </g>
     </g>
    </g>
    <g id="ytick_7">
     <g id="line2d_14">
      <g>
       <use style="stroke:#000000;stroke-width:0.8;" x="50.14375" xlink:href="#m356dd3e2f2" y="73.023504"/>
      </g>
     </g>
     <g id="text_15">
      <!-- 15.0 -->
      <g transform="translate(20.878125 76.822723)scale(0.1 -0.1)">
       <use xlink:href="#DejaVuSans-49"/>
       <use x="63.623047" xlink:href="#DejaVuSans-53"/>
       <use x="127.246094" xlink:href="#DejaVuSans-46"/>
       <use x="159.033203" xlink:href="#DejaVuSans-48"/>
      </g>
     </g>
    </g>
    <g id="ytick_8">
     <g id="line2d_15">
      <g>
       <use style="stroke:#000000;stroke-width:0.8;" x="50.14375" xlink:href="#m356dd3e2f2" y="51.070755"/>
      </g>
     </g>
     <g id="text_16">
      <!-- 17.5 -->
      <g transform="translate(20.878125 54.869974)scale(0.1 -0.1)">
       <use xlink:href="#DejaVuSans-49"/>
       <use x="63.623047" xlink:href="#DejaVuSans-55"/>
       <use x="127.246094" xlink:href="#DejaVuSans-46"/>
       <use x="159.033203" xlink:href="#DejaVuSans-53"/>
      </g>
     </g>
    </g>
    <g id="ytick_9">
     <g id="line2d_16">
      <g>
       <use style="stroke:#000000;stroke-width:0.8;" x="50.14375" xlink:href="#m356dd3e2f2" y="29.118005"/>
      </g>
     </g>
     <g id="text_17">
      <!-- 20.0 -->
      <g transform="translate(20.878125 32.917224)scale(0.1 -0.1)">
       <use xlink:href="#DejaVuSans-50"/>
       <use x="63.623047" xlink:href="#DejaVuSans-48"/>
       <use x="127.246094" xlink:href="#DejaVuSans-46"/>
       <use x="159.033203" xlink:href="#DejaVuSans-48"/>
      </g>
     </g>
    </g>
    <g id="text_18">
     <!-- GFI -->
     <defs>
      <path d="M 59.515625 10.40625 
L 59.515625 29.984375 
L 43.40625 29.984375 
L 43.40625 38.09375 
L 69.28125 38.09375 
L 69.28125 6.78125 
Q 63.578125 2.734375 56.6875 0.65625 
Q 49.8125 -1.421875 42 -1.421875 
Q 24.90625 -1.421875 15.25 8.5625 
Q 5.609375 18.5625 5.609375 36.375 
Q 5.609375 54.25 15.25 64.234375 
Q 24.90625 74.21875 42 74.21875 
Q 49.125 74.21875 55.546875 72.453125 
Q 61.96875 70.703125 67.390625 67.28125 
L 67.390625 56.78125 
Q 61.921875 61.421875 55.765625 63.765625 
Q 49.609375 66.109375 42.828125 66.109375 
Q 29.4375 66.109375 22.71875 58.640625 
Q 16.015625 51.171875 16.015625 36.375 
Q 16.015625 21.625 22.71875 14.15625 
Q 29.4375 6.6875 42.828125 6.6875 
Q 48.046875 6.6875 52.140625 7.59375 
Q 56.25 8.5 59.515625 10.40625 
z
" id="DejaVuSans-71"/>
      <path d="M 9.8125 72.90625 
L 51.703125 72.90625 
L 51.703125 64.59375 
L 19.671875 64.59375 
L 19.671875 43.109375 
L 48.578125 43.109375 
L 48.578125 34.8125 
L 19.671875 34.8125 
L 19.671875 0 
L 9.8125 0 
z
" id="DejaVuSans-70"/>
      <path d="M 9.8125 72.90625 
L 19.671875 72.90625 
L 19.671875 0 
L 9.8125 0 
z
" id="DejaVuSans-73"/>
     </defs>
     <g transform="translate(14.798438 115.945)rotate(-90)scale(0.1 -0.1)">
      <use xlink:href="#DejaVuSans-71"/>
      <use x="77.490234" xlink:href="#DejaVuSans-70"/>
      <use x="135.009766" xlink:href="#DejaVuSans-73"/>
     </g>
    </g>
   </g>
   <g id="patch_167">
    <path d="M 50.14375 204.74 
L 50.14375 10.7 
" style="fill:none;stroke:#000000;stroke-linecap:square;stroke-linejoin:miter;stroke-width:0.8;"/>
   </g>
   <g id="patch_168">
    <path d="M 440.74375 204.74 
L 440.74375 10.7 
" style="fill:none;stroke:#000000;stroke-linecap:square;stroke-linejoin:miter;stroke-width:0.8;"/>
   </g>
   <g id="patch_169">
    <path d="M 50.14375 204.74 
L 440.74375 204.74 
" style="fill:none;stroke:#000000;stroke-linecap:square;stroke-linejoin:miter;stroke-width:0.8;"/>
   </g>
   <g id="patch_170">
    <path d="M 50.14375 10.7 
L 440.74375 10.7 
" style="fill:none;stroke:#000000;stroke-linecap:square;stroke-linejoin:miter;stroke-width:0.8;"/>
   </g>
  </g>
 </g>
 <defs>
  <clipPath id="pbbc2a71f49">
   <rect height="194.04" width="390.6" x="50.14375" y="10.7"/>
  </clipPath>
 </defs>
</svg>
