<?xml version="1.0" encoding="utf-8" standalone="no"?>
<!DOCTYPE svg PUBLIC "-//W3C//DTD SVG 1.1//EN"
  "http://www.w3.org/Graphics/SVG/1.1/DTD/svg11.dtd">
<!-- Created with matplotlib (https://matplotlib.org/) -->
<svg height="242.29625pt" version="1.1" viewBox="0 0 441.903125 242.29625" width="441.903125pt" xmlns="http://www.w3.org/2000/svg" xmlns:xlink="http://www.w3.org/1999/xlink">
 <defs>
  <style type="text/css">
*{stroke-linecap:butt;stroke-linejoin:round;}
  </style>
 </defs>
 <g id="figure_1">
  <g id="patch_1">
   <path d="M 0 242.29625 
L 441.903125 242.29625 
L 441.903125 0 
L 0 0 
z
" style="fill:#ffffff;"/>
  </g>
  <g id="axes_1">
   <g id="patch_2">
    <path d="M 40.603125 204.74 
L 431.203125 204.74 
L 431.203125 10.7 
L 40.603125 10.7 
z
" style="fill:#ffffff;"/>
   </g>
   <g id="patch_3">
    <path clip-path="url(#p2f6da258b8)" d="M 58.35767 204.74 
L 61.148169 204.74 
L 61.148169 25.473391 
L 58.35767 25.473391 
z
" style="fill:#1f77b4;"/>
   </g>
   <g id="patch_4">
    <path clip-path="url(#p2f6da258b8)" d="M 61.845793 204.74 
L 64.636292 204.74 
L 64.636292 49.472666 
L 61.845793 49.472666 
z
" style="fill:#1f77b4;"/>
   </g>
   <g id="patch_5">
    <path clip-path="url(#p2f6da258b8)" d="M 65.333916 204.74 
L 68.124415 204.74 
L 68.124415 74.28129 
L 65.333916 74.28129 
z
" style="fill:#1f77b4;"/>
   </g>
   <g id="patch_6">
    <path clip-path="url(#p2f6da258b8)" d="M 68.822039 204.74 
L 71.612537 204.74 
L 71.612537 50.562042 
L 68.822039 50.562042 
z
" style="fill:#1f77b4;"/>
   </g>
   <g id="patch_7">
    <path clip-path="url(#p2f6da258b8)" d="M 72.310162 204.74 
L 75.10066 204.74 
L 75.10066 19.94 
L 72.310162 19.94 
z
" style="fill:#1f77b4;"/>
   </g>
   <g id="patch_8">
    <path clip-path="url(#p2f6da258b8)" d="M 75.798285 204.74 
L 78.588783 204.74 
L 78.588783 42.527754 
L 75.798285 42.527754 
z
" style="fill:#1f77b4;"/>
   </g>
   <g id="patch_9">
    <path clip-path="url(#p2f6da258b8)" d="M 79.286408 204.74 
L 82.076906 204.74 
L 82.076906 56.773874 
L 79.286408 56.773874 
z
" style="fill:#1f77b4;"/>
   </g>
   <g id="patch_10">
    <path clip-path="url(#p2f6da258b8)" d="M 82.774531 204.74 
L 85.565029 204.74 
L 85.565029 62.128548 
L 82.774531 62.128548 
z
" style="fill:#1f77b4;"/>
   </g>
   <g id="patch_11">
    <path clip-path="url(#p2f6da258b8)" d="M 86.262653 204.74 
L 89.053152 204.74 
L 89.053152 66.15366 
L 86.262653 66.15366 
z
" style="fill:#1f77b4;"/>
   </g>
   <g id="patch_12">
    <path clip-path="url(#p2f6da258b8)" d="M 89.750776 204.74 
L 92.541275 204.74 
L 92.541275 98.548072 
L 89.750776 98.548072 
z
" style="fill:#1f77b4;"/>
   </g>
   <g id="patch_13">
    <path clip-path="url(#p2f6da258b8)" d="M 93.238899 204.74 
L 96.029398 204.74 
L 96.029398 104.112197 
L 93.238899 104.112197 
z
" style="fill:#1f77b4;"/>
   </g>
   <g id="patch_14">
    <path clip-path="url(#p2f6da258b8)" d="M 96.727022 204.74 
L 99.51752 204.74 
L 99.51752 100.7291 
L 96.727022 100.7291 
z
" style="fill:#1f77b4;"/>
   </g>
   <g id="patch_15">
    <path clip-path="url(#p2f6da258b8)" d="M 100.215145 204.74 
L 103.005643 204.74 
L 103.005643 75.094053 
L 100.215145 75.094053 
z
" style="fill:#1f77b4;"/>
   </g>
   <g id="patch_16">
    <path clip-path="url(#p2f6da258b8)" d="M 103.703268 204.74 
L 106.493766 204.74 
L 106.493766 85.572321 
L 103.703268 85.572321 
z
" style="fill:#1f77b4;"/>
   </g>
   <g id="patch_17">
    <path clip-path="url(#p2f6da258b8)" d="M 107.191391 204.74 
L 109.981889 204.74 
L 109.981889 106.216958 
L 107.191391 106.216958 
z
" style="fill:#1f77b4;"/>
   </g>
   <g id="patch_18">
    <path clip-path="url(#p2f6da258b8)" d="M 110.679514 204.74 
L 113.470012 204.74 
L 113.470012 112.014439 
L 110.679514 112.014439 
z
" style="fill:#1f77b4;"/>
   </g>
   <g id="patch_19">
    <path clip-path="url(#p2f6da258b8)" d="M 114.167637 204.74 
L 116.958135 204.74 
L 116.958135 84.077703 
L 114.167637 84.077703 
z
" style="fill:#1f77b4;"/>
   </g>
   <g id="patch_20">
    <path clip-path="url(#p2f6da258b8)" d="M 117.655759 204.74 
L 120.446258 204.74 
L 120.446258 69.473011 
L 117.655759 69.473011 
z
" style="fill:#1f77b4;"/>
   </g>
   <g id="patch_21">
    <path clip-path="url(#p2f6da258b8)" d="M 121.143882 204.74 
L 123.934381 204.74 
L 123.934381 58.776185 
L 121.143882 58.776185 
z
" style="fill:#1f77b4;"/>
   </g>
   <g id="patch_22">
    <path clip-path="url(#p2f6da258b8)" d="M 124.632005 204.74 
L 127.422503 204.74 
L 127.422503 64.563422 
L 124.632005 64.563422 
z
" style="fill:#1f77b4;"/>
   </g>
   <g id="patch_23">
    <path clip-path="url(#p2f6da258b8)" d="M 128.120128 204.74 
L 130.910626 204.74 
L 130.910626 70.520269 
L 128.120128 70.520269 
z
" style="fill:#1f77b4;"/>
   </g>
   <g id="patch_24">
    <path clip-path="url(#p2f6da258b8)" d="M 131.608251 204.74 
L 134.398749 204.74 
L 134.398749 89.098848 
L 131.608251 89.098848 
z
" style="fill:#1f77b4;"/>
   </g>
   <g id="patch_25">
    <path clip-path="url(#p2f6da258b8)" d="M 135.096374 204.74 
L 137.886872 204.74 
L 137.886872 92.637896 
L 135.096374 92.637896 
z
" style="fill:#1f77b4;"/>
   </g>
   <g id="patch_26">
    <path clip-path="url(#p2f6da258b8)" d="M 138.584497 204.74 
L 141.374995 204.74 
L 141.374995 88.997537 
L 138.584497 88.997537 
z
" style="fill:#1f77b4;"/>
   </g>
   <g id="patch_27">
    <path clip-path="url(#p2f6da258b8)" d="M 142.07262 204.74 
L 144.863118 204.74 
L 144.863118 99.826409 
L 142.07262 99.826409 
z
" style="fill:#1f77b4;"/>
   </g>
   <g id="patch_28">
    <path clip-path="url(#p2f6da258b8)" d="M 145.560742 204.74 
L 148.351241 204.74 
L 148.351241 61.782497 
L 145.560742 61.782497 
z
" style="fill:#1f77b4;"/>
   </g>
   <g id="patch_29">
    <path clip-path="url(#p2f6da258b8)" d="M 149.048865 204.74 
L 151.839364 204.74 
L 151.839364 85.992363 
L 149.048865 85.992363 
z
" style="fill:#1f77b4;"/>
   </g>
   <g id="patch_30">
    <path clip-path="url(#p2f6da258b8)" d="M 152.536988 204.74 
L 155.327486 204.74 
L 155.327486 52.217165 
L 152.536988 52.217165 
z
" style="fill:#1f77b4;"/>
   </g>
   <g id="patch_31">
    <path clip-path="url(#p2f6da258b8)" d="M 156.025111 204.74 
L 158.815609 204.74 
L 158.815609 52.316199 
L 156.025111 52.316199 
z
" style="fill:#1f77b4;"/>
   </g>
   <g id="patch_32">
    <path clip-path="url(#p2f6da258b8)" d="M 159.513234 204.74 
L 162.303732 204.74 
L 162.303732 52.204643 
L 159.513234 52.204643 
z
" style="fill:#1f77b4;"/>
   </g>
   <g id="patch_33">
    <path clip-path="url(#p2f6da258b8)" d="M 163.001357 204.74 
L 165.791855 204.74 
L 165.791855 66.476944 
L 163.001357 66.476944 
z
" style="fill:#1f77b4;"/>
   </g>
   <g id="patch_34">
    <path clip-path="url(#p2f6da258b8)" d="M 166.48948 204.74 
L 169.279978 204.74 
L 169.279978 85.918372 
L 166.48948 85.918372 
z
" style="fill:#1f77b4;"/>
   </g>
   <g id="patch_35">
    <path clip-path="url(#p2f6da258b8)" d="M 169.977603 204.74 
L 172.768101 204.74 
L 172.768101 89.216095 
L 169.977603 89.216095 
z
" style="fill:#1f77b4;"/>
   </g>
   <g id="patch_36">
    <path clip-path="url(#p2f6da258b8)" d="M 173.465725 204.74 
L 176.256224 204.74 
L 176.256224 84.123236 
L 173.465725 84.123236 
z
" style="fill:#1f77b4;"/>
   </g>
   <g id="patch_37">
    <path clip-path="url(#p2f6da258b8)" d="M 176.953848 204.74 
L 179.744347 204.74 
L 179.744347 39.924408 
L 176.953848 39.924408 
z
" style="fill:#1f77b4;"/>
   </g>
   <g id="patch_38">
    <path clip-path="url(#p2f6da258b8)" d="M 180.441971 204.74 
L 183.23247 204.74 
L 183.23247 100.964733 
L 180.441971 100.964733 
z
" style="fill:#1f77b4;"/>
   </g>
   <g id="patch_39">
    <path clip-path="url(#p2f6da258b8)" d="M 183.930094 204.74 
L 186.720592 204.74 
L 186.720592 105.217509 
L 183.930094 105.217509 
z
" style="fill:#1f77b4;"/>
   </g>
   <g id="patch_40">
    <path clip-path="url(#p2f6da258b8)" d="M 187.418217 204.74 
L 190.208715 204.74 
L 190.208715 91.866112 
L 187.418217 91.866112 
z
" style="fill:#1f77b4;"/>
   </g>
   <g id="patch_41">
    <path clip-path="url(#p2f6da258b8)" d="M 190.90634 204.74 
L 193.696838 204.74 
L 193.696838 89.459696 
L 190.90634 89.459696 
z
" style="fill:#1f77b4;"/>
   </g>
   <g id="patch_42">
    <path clip-path="url(#p2f6da258b8)" d="M 194.394463 204.74 
L 197.184961 204.74 
L 197.184961 82.321269 
L 194.394463 82.321269 
z
" style="fill:#1f77b4;"/>
   </g>
   <g id="patch_43">
    <path clip-path="url(#p2f6da258b8)" d="M 197.882586 204.74 
L 200.673084 204.74 
L 200.673084 80.836895 
L 197.882586 80.836895 
z
" style="fill:#1f77b4;"/>
   </g>
   <g id="patch_44">
    <path clip-path="url(#p2f6da258b8)" d="M 201.370708 204.74 
L 204.161207 204.74 
L 204.161207 59.747175 
L 201.370708 59.747175 
z
" style="fill:#1f77b4;"/>
   </g>
   <g id="patch_45">
    <path clip-path="url(#p2f6da258b8)" d="M 204.858831 204.74 
L 207.64933 204.74 
L 207.64933 56.757937 
L 204.858831 56.757937 
z
" style="fill:#1f77b4;"/>
   </g>
   <g id="patch_46">
    <path clip-path="url(#p2f6da258b8)" d="M 208.346954 204.74 
L 211.137453 204.74 
L 211.137453 74.296088 
L 208.346954 74.296088 
z
" style="fill:#1f77b4;"/>
   </g>
   <g id="patch_47">
    <path clip-path="url(#p2f6da258b8)" d="M 211.835077 204.74 
L 214.625575 204.74 
L 214.625575 72.405333 
L 211.835077 72.405333 
z
" style="fill:#1f77b4;"/>
   </g>
   <g id="patch_48">
    <path clip-path="url(#p2f6da258b8)" d="M 215.3232 204.74 
L 218.113698 204.74 
L 218.113698 70.794605 
L 215.3232 70.794605 
z
" style="fill:#1f77b4;"/>
   </g>
   <g id="patch_49">
    <path clip-path="url(#p2f6da258b8)" d="M 218.811323 204.74 
L 221.601821 204.74 
L 221.601821 66.88674 
L 218.811323 66.88674 
z
" style="fill:#1f77b4;"/>
   </g>
   <g id="patch_50">
    <path clip-path="url(#p2f6da258b8)" d="M 222.299446 204.74 
L 225.089944 204.74 
L 225.089944 74.595467 
L 222.299446 74.595467 
z
" style="fill:#1f77b4;"/>
   </g>
   <g id="patch_51">
    <path clip-path="url(#p2f6da258b8)" d="M 225.787569 204.74 
L 228.578067 204.74 
L 228.578067 55.006057 
L 225.787569 55.006057 
z
" style="fill:#1f77b4;"/>
   </g>
   <g id="patch_52">
    <path clip-path="url(#p2f6da258b8)" d="M 229.275692 204.74 
L 232.06619 204.74 
L 232.06619 77.987672 
L 229.275692 77.987672 
z
" style="fill:#1f77b4;"/>
   </g>
   <g id="patch_53">
    <path clip-path="url(#p2f6da258b8)" d="M 232.763814 204.74 
L 235.554313 204.74 
L 235.554313 79.112335 
L 232.763814 79.112335 
z
" style="fill:#1f77b4;"/>
   </g>
   <g id="patch_54">
    <path clip-path="url(#p2f6da258b8)" d="M 236.251937 204.74 
L 239.042436 204.74 
L 239.042436 77.444691 
L 236.251937 77.444691 
z
" style="fill:#1f77b4;"/>
   </g>
   <g id="patch_55">
    <path clip-path="url(#p2f6da258b8)" d="M 239.74006 204.74 
L 242.530558 204.74 
L 242.530558 77.148727 
L 239.74006 77.148727 
z
" style="fill:#1f77b4;"/>
   </g>
   <g id="patch_56">
    <path clip-path="url(#p2f6da258b8)" d="M 243.228183 204.74 
L 246.018681 204.74 
L 246.018681 79.205678 
L 243.228183 79.205678 
z
" style="fill:#1f77b4;"/>
   </g>
   <g id="patch_57">
    <path clip-path="url(#p2f6da258b8)" d="M 246.716306 204.74 
L 249.506804 204.74 
L 249.506804 89.479048 
L 246.716306 89.479048 
z
" style="fill:#1f77b4;"/>
   </g>
   <g id="patch_58">
    <path clip-path="url(#p2f6da258b8)" d="M 250.204429 204.74 
L 252.994927 204.74 
L 252.994927 66.409783 
L 250.204429 66.409783 
z
" style="fill:#1f77b4;"/>
   </g>
   <g id="patch_59">
    <path clip-path="url(#p2f6da258b8)" d="M 253.692552 204.74 
L 256.48305 204.74 
L 256.48305 70.418958 
L 253.692552 70.418958 
z
" style="fill:#1f77b4;"/>
   </g>
   <g id="patch_60">
    <path clip-path="url(#p2f6da258b8)" d="M 257.180675 204.74 
L 259.971173 204.74 
L 259.971173 94.791604 
L 257.180675 94.791604 
z
" style="fill:#1f77b4;"/>
   </g>
   <g id="patch_61">
    <path clip-path="url(#p2f6da258b8)" d="M 260.668797 204.74 
L 263.459296 204.74 
L 263.459296 66.598744 
L 260.668797 66.598744 
z
" style="fill:#1f77b4;"/>
   </g>
   <g id="patch_62">
    <path clip-path="url(#p2f6da258b8)" d="M 264.15692 204.74 
L 266.947419 204.74 
L 266.947419 64.901504 
L 264.15692 64.901504 
z
" style="fill:#1f77b4;"/>
   </g>
   <g id="patch_63">
    <path clip-path="url(#p2f6da258b8)" d="M 267.645043 204.74 
L 270.435542 204.74 
L 270.435542 73.961421 
L 267.645043 73.961421 
z
" style="fill:#1f77b4;"/>
   </g>
   <g id="patch_64">
    <path clip-path="url(#p2f6da258b8)" d="M 271.133166 204.74 
L 273.923664 204.74 
L 273.923664 87.432342 
L 271.133166 87.432342 
z
" style="fill:#1f77b4;"/>
   </g>
   <g id="patch_65">
    <path clip-path="url(#p2f6da258b8)" d="M 274.621289 204.74 
L 277.411787 204.74 
L 277.411787 57.850728 
L 274.621289 57.850728 
z
" style="fill:#1f77b4;"/>
   </g>
   <g id="patch_66">
    <path clip-path="url(#p2f6da258b8)" d="M 278.109412 204.74 
L 280.89991 204.74 
L 280.89991 74.353004 
L 278.109412 74.353004 
z
" style="fill:#1f77b4;"/>
   </g>
   <g id="patch_67">
    <path clip-path="url(#p2f6da258b8)" d="M 281.597535 204.74 
L 284.388033 204.74 
L 284.388033 87.216061 
L 281.597535 87.216061 
z
" style="fill:#1f77b4;"/>
   </g>
   <g id="patch_68">
    <path clip-path="url(#p2f6da258b8)" d="M 285.085658 204.74 
L 287.876156 204.74 
L 287.876156 83.684981 
L 285.085658 83.684981 
z
" style="fill:#1f77b4;"/>
   </g>
   <g id="patch_69">
    <path clip-path="url(#p2f6da258b8)" d="M 288.57378 204.74 
L 291.364279 204.74 
L 291.364279 65.224788 
L 288.57378 65.224788 
z
" style="fill:#1f77b4;"/>
   </g>
   <g id="patch_70">
    <path clip-path="url(#p2f6da258b8)" d="M 292.061903 204.74 
L 294.852402 204.74 
L 294.852402 77.380945 
L 292.061903 77.380945 
z
" style="fill:#1f77b4;"/>
   </g>
   <g id="patch_71">
    <path clip-path="url(#p2f6da258b8)" d="M 295.550026 204.74 
L 298.340525 204.74 
L 298.340525 90.99188 
L 295.550026 90.99188 
z
" style="fill:#1f77b4;"/>
   </g>
   <g id="patch_72">
    <path clip-path="url(#p2f6da258b8)" d="M 299.038149 204.74 
L 301.828647 204.74 
L 301.828647 70.547589 
L 299.038149 70.547589 
z
" style="fill:#1f77b4;"/>
   </g>
   <g id="patch_73">
    <path clip-path="url(#p2f6da258b8)" d="M 302.526272 204.74 
L 305.31677 204.74 
L 305.31677 93.162663 
L 302.526272 93.162663 
z
" style="fill:#1f77b4;"/>
   </g>
   <g id="patch_74">
    <path clip-path="url(#p2f6da258b8)" d="M 306.014395 204.74 
L 308.804893 204.74 
L 308.804893 74.296088 
L 306.014395 74.296088 
z
" style="fill:#1f77b4;"/>
   </g>
   <g id="patch_75">
    <path clip-path="url(#p2f6da258b8)" d="M 309.502518 204.74 
L 312.293016 204.74 
L 312.293016 83.698641 
L 309.502518 83.698641 
z
" style="fill:#1f77b4;"/>
   </g>
   <g id="patch_76">
    <path clip-path="url(#p2f6da258b8)" d="M 312.990641 204.74 
L 315.781139 204.74 
L 315.781139 85.89902 
L 312.990641 85.89902 
z
" style="fill:#1f77b4;"/>
   </g>
   <g id="patch_77">
    <path clip-path="url(#p2f6da258b8)" d="M 316.478764 204.74 
L 319.269262 204.74 
L 319.269262 60.403988 
L 316.478764 60.403988 
z
" style="fill:#1f77b4;"/>
   </g>
   <g id="patch_78">
    <path clip-path="url(#p2f6da258b8)" d="M 319.966886 204.74 
L 322.757385 204.74 
L 322.757385 53.555833 
L 319.966886 53.555833 
z
" style="fill:#1f77b4;"/>
   </g>
   <g id="patch_79">
    <path clip-path="url(#p2f6da258b8)" d="M 323.455009 204.74 
L 326.245508 204.74 
L 326.245508 69.667665 
L 323.455009 69.667665 
z
" style="fill:#1f77b4;"/>
   </g>
   <g id="patch_80">
    <path clip-path="url(#p2f6da258b8)" d="M 326.943132 204.74 
L 329.73363 204.74 
L 329.73363 67.579979 
L 326.943132 67.579979 
z
" style="fill:#1f77b4;"/>
   </g>
   <g id="patch_81">
    <path clip-path="url(#p2f6da258b8)" d="M 330.431255 204.74 
L 333.221753 204.74 
L 333.221753 91.169458 
L 330.431255 91.169458 
z
" style="fill:#1f77b4;"/>
   </g>
   <g id="patch_82">
    <path clip-path="url(#p2f6da258b8)" d="M 333.919378 204.74 
L 336.709876 204.74 
L 336.709876 81.609817 
L 333.919378 81.609817 
z
" style="fill:#1f77b4;"/>
   </g>
   <g id="patch_83">
    <path clip-path="url(#p2f6da258b8)" d="M 337.407501 204.74 
L 340.197999 204.74 
L 340.197999 90.845036 
L 337.407501 90.845036 
z
" style="fill:#1f77b4;"/>
   </g>
   <g id="patch_84">
    <path clip-path="url(#p2f6da258b8)" d="M 340.895624 204.74 
L 343.686122 204.74 
L 343.686122 87.492673 
L 340.895624 87.492673 
z
" style="fill:#1f77b4;"/>
   </g>
   <g id="patch_85">
    <path clip-path="url(#p2f6da258b8)" d="M 344.383747 204.74 
L 347.174245 204.74 
L 347.174245 91.477944 
L 344.383747 91.477944 
z
" style="fill:#1f77b4;"/>
   </g>
   <g id="patch_86">
    <path clip-path="url(#p2f6da258b8)" d="M 347.871869 204.74 
L 350.662368 204.74 
L 350.662368 66.104712 
L 347.871869 66.104712 
z
" style="fill:#1f77b4;"/>
   </g>
   <g id="patch_87">
    <path clip-path="url(#p2f6da258b8)" d="M 351.359992 204.74 
L 354.150491 204.74 
L 354.150491 70.906161 
L 351.359992 70.906161 
z
" style="fill:#1f77b4;"/>
   </g>
   <g id="patch_88">
    <path clip-path="url(#p2f6da258b8)" d="M 354.848115 204.74 
L 357.638613 204.74 
L 357.638613 59.938413 
L 354.848115 59.938413 
z
" style="fill:#1f77b4;"/>
   </g>
   <g id="patch_89">
    <path clip-path="url(#p2f6da258b8)" d="M 358.336238 204.74 
L 361.126736 204.74 
L 361.126736 71.328479 
L 358.336238 71.328479 
z
" style="fill:#1f77b4;"/>
   </g>
   <g id="patch_90">
    <path clip-path="url(#p2f6da258b8)" d="M 361.824361 204.74 
L 364.614859 204.74 
L 364.614859 49.064008 
L 361.824361 49.064008 
z
" style="fill:#1f77b4;"/>
   </g>
   <g id="patch_91">
    <path clip-path="url(#p2f6da258b8)" d="M 365.312484 204.74 
L 368.102982 204.74 
L 368.102982 58.316302 
L 365.312484 58.316302 
z
" style="fill:#1f77b4;"/>
   </g>
   <g id="patch_92">
    <path clip-path="url(#p2f6da258b8)" d="M 368.800607 204.74 
L 371.591105 204.74 
L 371.591105 91.360697 
L 368.800607 91.360697 
z
" style="fill:#1f77b4;"/>
   </g>
   <g id="patch_93">
    <path clip-path="url(#p2f6da258b8)" d="M 372.28873 204.74 
L 375.079228 204.74 
L 375.079228 48.136275 
L 372.28873 48.136275 
z
" style="fill:#1f77b4;"/>
   </g>
   <g id="patch_94">
    <path clip-path="url(#p2f6da258b8)" d="M 375.776852 204.74 
L 378.567351 204.74 
L 378.567351 97.015888 
L 375.776852 97.015888 
z
" style="fill:#1f77b4;"/>
   </g>
   <g id="patch_95">
    <path clip-path="url(#p2f6da258b8)" d="M 379.264975 204.74 
L 382.055474 204.74 
L 382.055474 106.07922 
L 379.264975 106.07922 
z
" style="fill:#1f77b4;"/>
   </g>
   <g id="patch_96">
    <path clip-path="url(#p2f6da258b8)" d="M 382.753098 204.74 
L 385.543597 204.74 
L 385.543597 77.146451 
L 382.753098 77.146451 
z
" style="fill:#1f77b4;"/>
   </g>
   <g id="patch_97">
    <path clip-path="url(#p2f6da258b8)" d="M 386.241221 204.74 
L 389.031719 204.74 
L 389.031719 45.526099 
L 386.241221 45.526099 
z
" style="fill:#1f77b4;"/>
   </g>
   <g id="patch_98">
    <path clip-path="url(#p2f6da258b8)" d="M 389.729344 204.74 
L 392.519842 204.74 
L 392.519842 54.794329 
L 389.729344 54.794329 
z
" style="fill:#1f77b4;"/>
   </g>
   <g id="patch_99">
    <path clip-path="url(#p2f6da258b8)" d="M 393.217467 204.74 
L 396.007965 204.74 
L 396.007965 55.123305 
L 393.217467 55.123305 
z
" style="fill:#1f77b4;"/>
   </g>
   <g id="patch_100">
    <path clip-path="url(#p2f6da258b8)" d="M 396.70559 204.74 
L 399.496088 204.74 
L 399.496088 69.065492 
L 396.70559 69.065492 
z
" style="fill:#1f77b4;"/>
   </g>
   <g id="patch_101">
    <path clip-path="url(#p2f6da258b8)" d="M 400.193713 204.74 
L 402.984211 204.74 
L 402.984211 80.371321 
L 400.193713 80.371321 
z
" style="fill:#1f77b4;"/>
   </g>
   <g id="patch_102">
    <path clip-path="url(#p2f6da258b8)" d="M 403.681835 204.74 
L 406.472334 204.74 
L 406.472334 74.249417 
L 403.681835 74.249417 
z
" style="fill:#1f77b4;"/>
   </g>
   <g id="patch_103">
    <path clip-path="url(#p2f6da258b8)" d="M 407.169958 204.74 
L 409.960457 204.74 
L 409.960457 37.449693 
L 407.169958 37.449693 
z
" style="fill:#1f77b4;"/>
   </g>
   <g id="patch_104">
    <path clip-path="url(#p2f6da258b8)" d="M 410.658081 204.74 
L 413.44858 204.74 
L 413.44858 35.894743 
L 410.658081 35.894743 
z
" style="fill:#1f77b4;"/>
   </g>
   <g id="matplotlib.axis_1">
    <g id="xtick_1">
     <g id="line2d_1">
      <defs>
       <path d="M 0 0 
L 0 3.5 
" id="m4216ad272a" style="stroke:#000000;stroke-width:0.8;"/>
      </defs>
      <g>
       <use style="stroke:#000000;stroke-width:0.8;" x="56.264797" xlink:href="#m4216ad272a" y="204.74"/>
      </g>
     </g>
     <g id="text_1">
      <!-- 0 -->
      <defs>
       <path d="M 31.78125 66.40625 
Q 24.171875 66.40625 20.328125 58.90625 
Q 16.5 51.421875 16.5 36.375 
Q 16.5 21.390625 20.328125 13.890625 
Q 24.171875 6.390625 31.78125 6.390625 
Q 39.453125 6.390625 43.28125 13.890625 
Q 47.125 21.390625 47.125 36.375 
Q 47.125 51.421875 43.28125 58.90625 
Q 39.453125 66.40625 31.78125 66.40625 
z
M 31.78125 74.21875 
Q 44.046875 74.21875 50.515625 64.515625 
Q 56.984375 54.828125 56.984375 36.375 
Q 56.984375 17.96875 50.515625 8.265625 
Q 44.046875 -1.421875 31.78125 -1.421875 
Q 19.53125 -1.421875 13.0625 8.265625 
Q 6.59375 17.96875 6.59375 36.375 
Q 6.59375 54.828125 13.0625 64.515625 
Q 19.53125 74.21875 31.78125 74.21875 
z
" id="DejaVuSans-48"/>
      </defs>
      <g transform="translate(53.083547 219.338437)scale(0.1 -0.1)">
       <use xlink:href="#DejaVuSans-48"/>
      </g>
     </g>
    </g>
    <g id="xtick_2">
     <g id="line2d_2">
      <g>
       <use style="stroke:#000000;stroke-width:0.8;" x="126.027254" xlink:href="#m4216ad272a" y="204.74"/>
      </g>
     </g>
     <g id="text_2">
      <!-- 20 -->
      <defs>
       <path d="M 19.1875 8.296875 
L 53.609375 8.296875 
L 53.609375 0 
L 7.328125 0 
L 7.328125 8.296875 
Q 12.9375 14.109375 22.625 23.890625 
Q 32.328125 33.6875 34.8125 36.53125 
Q 39.546875 41.84375 41.421875 45.53125 
Q 43.3125 49.21875 43.3125 52.78125 
Q 43.3125 58.59375 39.234375 62.25 
Q 35.15625 65.921875 28.609375 65.921875 
Q 23.96875 65.921875 18.8125 64.3125 
Q 13.671875 62.703125 7.8125 59.421875 
L 7.8125 69.390625 
Q 13.765625 71.78125 18.9375 73 
Q 24.125 74.21875 28.421875 74.21875 
Q 39.75 74.21875 46.484375 68.546875 
Q 53.21875 62.890625 53.21875 53.421875 
Q 53.21875 48.921875 51.53125 44.890625 
Q 49.859375 40.875 45.40625 35.40625 
Q 44.1875 33.984375 37.640625 27.21875 
Q 31.109375 20.453125 19.1875 8.296875 
z
" id="DejaVuSans-50"/>
      </defs>
      <g transform="translate(119.664754 219.338437)scale(0.1 -0.1)">
       <use xlink:href="#DejaVuSans-50"/>
       <use x="63.623047" xlink:href="#DejaVuSans-48"/>
      </g>
     </g>
    </g>
    <g id="xtick_3">
     <g id="line2d_3">
      <g>
       <use style="stroke:#000000;stroke-width:0.8;" x="195.789712" xlink:href="#m4216ad272a" y="204.74"/>
      </g>
     </g>
     <g id="text_3">
      <!-- 40 -->
      <defs>
       <path d="M 37.796875 64.3125 
L 12.890625 25.390625 
L 37.796875 25.390625 
z
M 35.203125 72.90625 
L 47.609375 72.90625 
L 47.609375 25.390625 
L 58.015625 25.390625 
L 58.015625 17.1875 
L 47.609375 17.1875 
L 47.609375 0 
L 37.796875 0 
L 37.796875 17.1875 
L 4.890625 17.1875 
L 4.890625 26.703125 
z
" id="DejaVuSans-52"/>
      </defs>
      <g transform="translate(189.427212 219.338437)scale(0.1 -0.1)">
       <use xlink:href="#DejaVuSans-52"/>
       <use x="63.623047" xlink:href="#DejaVuSans-48"/>
      </g>
     </g>
    </g>
    <g id="xtick_4">
     <g id="line2d_4">
      <g>
       <use style="stroke:#000000;stroke-width:0.8;" x="265.552169" xlink:href="#m4216ad272a" y="204.74"/>
      </g>
     </g>
     <g id="text_4">
      <!-- 60 -->
      <defs>
       <path d="M 33.015625 40.375 
Q 26.375 40.375 22.484375 35.828125 
Q 18.609375 31.296875 18.609375 23.390625 
Q 18.609375 15.53125 22.484375 10.953125 
Q 26.375 6.390625 33.015625 6.390625 
Q 39.65625 6.390625 43.53125 10.953125 
Q 47.40625 15.53125 47.40625 23.390625 
Q 47.40625 31.296875 43.53125 35.828125 
Q 39.65625 40.375 33.015625 40.375 
z
M 52.59375 71.296875 
L 52.59375 62.3125 
Q 48.875 64.0625 45.09375 64.984375 
Q 41.3125 65.921875 37.59375 65.921875 
Q 27.828125 65.921875 22.671875 59.328125 
Q 17.53125 52.734375 16.796875 39.40625 
Q 19.671875 43.65625 24.015625 45.921875 
Q 28.375 48.1875 33.59375 48.1875 
Q 44.578125 48.1875 50.953125 41.515625 
Q 57.328125 34.859375 57.328125 23.390625 
Q 57.328125 12.15625 50.6875 5.359375 
Q 44.046875 -1.421875 33.015625 -1.421875 
Q 20.359375 -1.421875 13.671875 8.265625 
Q 6.984375 17.96875 6.984375 36.375 
Q 6.984375 53.65625 15.1875 63.9375 
Q 23.390625 74.21875 37.203125 74.21875 
Q 40.921875 74.21875 44.703125 73.484375 
Q 48.484375 72.75 52.59375 71.296875 
z
" id="DejaVuSans-54"/>
      </defs>
      <g transform="translate(259.189669 219.338437)scale(0.1 -0.1)">
       <use xlink:href="#DejaVuSans-54"/>
       <use x="63.623047" xlink:href="#DejaVuSans-48"/>
      </g>
     </g>
    </g>
    <g id="xtick_5">
     <g id="line2d_5">
      <g>
       <use style="stroke:#000000;stroke-width:0.8;" x="335.314627" xlink:href="#m4216ad272a" y="204.74"/>
      </g>
     </g>
     <g id="text_5">
      <!-- 80 -->
      <defs>
       <path d="M 31.78125 34.625 
Q 24.75 34.625 20.71875 30.859375 
Q 16.703125 27.09375 16.703125 20.515625 
Q 16.703125 13.921875 20.71875 10.15625 
Q 24.75 6.390625 31.78125 6.390625 
Q 38.8125 6.390625 42.859375 10.171875 
Q 46.921875 13.96875 46.921875 20.515625 
Q 46.921875 27.09375 42.890625 30.859375 
Q 38.875 34.625 31.78125 34.625 
z
M 21.921875 38.8125 
Q 15.578125 40.375 12.03125 44.71875 
Q 8.5 49.078125 8.5 55.328125 
Q 8.5 64.0625 14.71875 69.140625 
Q 20.953125 74.21875 31.78125 74.21875 
Q 42.671875 74.21875 48.875 69.140625 
Q 55.078125 64.0625 55.078125 55.328125 
Q 55.078125 49.078125 51.53125 44.71875 
Q 48 40.375 41.703125 38.8125 
Q 48.828125 37.15625 52.796875 32.3125 
Q 56.78125 27.484375 56.78125 20.515625 
Q 56.78125 9.90625 50.3125 4.234375 
Q 43.84375 -1.421875 31.78125 -1.421875 
Q 19.734375 -1.421875 13.25 4.234375 
Q 6.78125 9.90625 6.78125 20.515625 
Q 6.78125 27.484375 10.78125 32.3125 
Q 14.796875 37.15625 21.921875 38.8125 
z
M 18.3125 54.390625 
Q 18.3125 48.734375 21.84375 45.5625 
Q 25.390625 42.390625 31.78125 42.390625 
Q 38.140625 42.390625 41.71875 45.5625 
Q 45.3125 48.734375 45.3125 54.390625 
Q 45.3125 60.0625 41.71875 63.234375 
Q 38.140625 66.40625 31.78125 66.40625 
Q 25.390625 66.40625 21.84375 63.234375 
Q 18.3125 60.0625 18.3125 54.390625 
z
" id="DejaVuSans-56"/>
      </defs>
      <g transform="translate(328.952127 219.338437)scale(0.1 -0.1)">
       <use xlink:href="#DejaVuSans-56"/>
       <use x="63.623047" xlink:href="#DejaVuSans-48"/>
      </g>
     </g>
    </g>
    <g id="xtick_6">
     <g id="line2d_6">
      <g>
       <use style="stroke:#000000;stroke-width:0.8;" x="405.077085" xlink:href="#m4216ad272a" y="204.74"/>
      </g>
     </g>
     <g id="text_6">
      <!-- 100 -->
      <defs>
       <path d="M 12.40625 8.296875 
L 28.515625 8.296875 
L 28.515625 63.921875 
L 10.984375 60.40625 
L 10.984375 69.390625 
L 28.421875 72.90625 
L 38.28125 72.90625 
L 38.28125 8.296875 
L 54.390625 8.296875 
L 54.390625 0 
L 12.40625 0 
z
" id="DejaVuSans-49"/>
      </defs>
      <g transform="translate(395.533335 219.338437)scale(0.1 -0.1)">
       <use xlink:href="#DejaVuSans-49"/>
       <use x="63.623047" xlink:href="#DejaVuSans-48"/>
       <use x="127.246094" xlink:href="#DejaVuSans-48"/>
      </g>
     </g>
    </g>
    <g id="text_7">
     <!-- number of chunk (from beginning to end) -->
     <defs>
      <path d="M 54.890625 33.015625 
L 54.890625 0 
L 45.90625 0 
L 45.90625 32.71875 
Q 45.90625 40.484375 42.875 44.328125 
Q 39.84375 48.1875 33.796875 48.1875 
Q 26.515625 48.1875 22.3125 43.546875 
Q 18.109375 38.921875 18.109375 30.90625 
L 18.109375 0 
L 9.078125 0 
L 9.078125 54.6875 
L 18.109375 54.6875 
L 18.109375 46.1875 
Q 21.34375 51.125 25.703125 53.5625 
Q 30.078125 56 35.796875 56 
Q 45.21875 56 50.046875 50.171875 
Q 54.890625 44.34375 54.890625 33.015625 
z
" id="DejaVuSans-110"/>
      <path d="M 8.5 21.578125 
L 8.5 54.6875 
L 17.484375 54.6875 
L 17.484375 21.921875 
Q 17.484375 14.15625 20.5 10.265625 
Q 23.53125 6.390625 29.59375 6.390625 
Q 36.859375 6.390625 41.078125 11.03125 
Q 45.3125 15.671875 45.3125 23.6875 
L 45.3125 54.6875 
L 54.296875 54.6875 
L 54.296875 0 
L 45.3125 0 
L 45.3125 8.40625 
Q 42.046875 3.421875 37.71875 1 
Q 33.40625 -1.421875 27.6875 -1.421875 
Q 18.265625 -1.421875 13.375 4.4375 
Q 8.5 10.296875 8.5 21.578125 
z
M 31.109375 56 
z
" id="DejaVuSans-117"/>
      <path d="M 52 44.1875 
Q 55.375 50.25 60.0625 53.125 
Q 64.75 56 71.09375 56 
Q 79.640625 56 84.28125 50.015625 
Q 88.921875 44.046875 88.921875 33.015625 
L 88.921875 0 
L 79.890625 0 
L 79.890625 32.71875 
Q 79.890625 40.578125 77.09375 44.375 
Q 74.3125 48.1875 68.609375 48.1875 
Q 61.625 48.1875 57.5625 43.546875 
Q 53.515625 38.921875 53.515625 30.90625 
L 53.515625 0 
L 44.484375 0 
L 44.484375 32.71875 
Q 44.484375 40.625 41.703125 44.40625 
Q 38.921875 48.1875 33.109375 48.1875 
Q 26.21875 48.1875 22.15625 43.53125 
Q 18.109375 38.875 18.109375 30.90625 
L 18.109375 0 
L 9.078125 0 
L 9.078125 54.6875 
L 18.109375 54.6875 
L 18.109375 46.1875 
Q 21.1875 51.21875 25.484375 53.609375 
Q 29.78125 56 35.6875 56 
Q 41.65625 56 45.828125 52.96875 
Q 50 49.953125 52 44.1875 
z
" id="DejaVuSans-109"/>
      <path d="M 48.6875 27.296875 
Q 48.6875 37.203125 44.609375 42.84375 
Q 40.53125 48.484375 33.40625 48.484375 
Q 26.265625 48.484375 22.1875 42.84375 
Q 18.109375 37.203125 18.109375 27.296875 
Q 18.109375 17.390625 22.1875 11.75 
Q 26.265625 6.109375 33.40625 6.109375 
Q 40.53125 6.109375 44.609375 11.75 
Q 48.6875 17.390625 48.6875 27.296875 
z
M 18.109375 46.390625 
Q 20.953125 51.265625 25.265625 53.625 
Q 29.59375 56 35.59375 56 
Q 45.5625 56 51.78125 48.09375 
Q 58.015625 40.1875 58.015625 27.296875 
Q 58.015625 14.40625 51.78125 6.484375 
Q 45.5625 -1.421875 35.59375 -1.421875 
Q 29.59375 -1.421875 25.265625 0.953125 
Q 20.953125 3.328125 18.109375 8.203125 
L 18.109375 0 
L 9.078125 0 
L 9.078125 75.984375 
L 18.109375 75.984375 
z
" id="DejaVuSans-98"/>
      <path d="M 56.203125 29.59375 
L 56.203125 25.203125 
L 14.890625 25.203125 
Q 15.484375 15.921875 20.484375 11.0625 
Q 25.484375 6.203125 34.421875 6.203125 
Q 39.59375 6.203125 44.453125 7.46875 
Q 49.3125 8.734375 54.109375 11.28125 
L 54.109375 2.78125 
Q 49.265625 0.734375 44.1875 -0.34375 
Q 39.109375 -1.421875 33.890625 -1.421875 
Q 20.796875 -1.421875 13.15625 6.1875 
Q 5.515625 13.8125 5.515625 26.8125 
Q 5.515625 40.234375 12.765625 48.109375 
Q 20.015625 56 32.328125 56 
Q 43.359375 56 49.78125 48.890625 
Q 56.203125 41.796875 56.203125 29.59375 
z
M 47.21875 32.234375 
Q 47.125 39.59375 43.09375 43.984375 
Q 39.0625 48.390625 32.421875 48.390625 
Q 24.90625 48.390625 20.390625 44.140625 
Q 15.875 39.890625 15.1875 32.171875 
z
" id="DejaVuSans-101"/>
      <path d="M 41.109375 46.296875 
Q 39.59375 47.171875 37.8125 47.578125 
Q 36.03125 48 33.890625 48 
Q 26.265625 48 22.1875 43.046875 
Q 18.109375 38.09375 18.109375 28.8125 
L 18.109375 0 
L 9.078125 0 
L 9.078125 54.6875 
L 18.109375 54.6875 
L 18.109375 46.1875 
Q 20.953125 51.171875 25.484375 53.578125 
Q 30.03125 56 36.53125 56 
Q 37.453125 56 38.578125 55.875 
Q 39.703125 55.765625 41.0625 55.515625 
z
" id="DejaVuSans-114"/>
      <path id="DejaVuSans-32"/>
      <path d="M 30.609375 48.390625 
Q 23.390625 48.390625 19.1875 42.75 
Q 14.984375 37.109375 14.984375 27.296875 
Q 14.984375 17.484375 19.15625 11.84375 
Q 23.34375 6.203125 30.609375 6.203125 
Q 37.796875 6.203125 41.984375 11.859375 
Q 46.1875 17.53125 46.1875 27.296875 
Q 46.1875 37.015625 41.984375 42.703125 
Q 37.796875 48.390625 30.609375 48.390625 
z
M 30.609375 56 
Q 42.328125 56 49.015625 48.375 
Q 55.71875 40.765625 55.71875 27.296875 
Q 55.71875 13.875 49.015625 6.21875 
Q 42.328125 -1.421875 30.609375 -1.421875 
Q 18.84375 -1.421875 12.171875 6.21875 
Q 5.515625 13.875 5.515625 27.296875 
Q 5.515625 40.765625 12.171875 48.375 
Q 18.84375 56 30.609375 56 
z
" id="DejaVuSans-111"/>
      <path d="M 37.109375 75.984375 
L 37.109375 68.5 
L 28.515625 68.5 
Q 23.6875 68.5 21.796875 66.546875 
Q 19.921875 64.59375 19.921875 59.515625 
L 19.921875 54.6875 
L 34.71875 54.6875 
L 34.71875 47.703125 
L 19.921875 47.703125 
L 19.921875 0 
L 10.890625 0 
L 10.890625 47.703125 
L 2.296875 47.703125 
L 2.296875 54.6875 
L 10.890625 54.6875 
L 10.890625 58.5 
Q 10.890625 67.625 15.140625 71.796875 
Q 19.390625 75.984375 28.609375 75.984375 
z
" id="DejaVuSans-102"/>
      <path d="M 48.78125 52.59375 
L 48.78125 44.1875 
Q 44.96875 46.296875 41.140625 47.34375 
Q 37.3125 48.390625 33.40625 48.390625 
Q 24.65625 48.390625 19.8125 42.84375 
Q 14.984375 37.3125 14.984375 27.296875 
Q 14.984375 17.28125 19.8125 11.734375 
Q 24.65625 6.203125 33.40625 6.203125 
Q 37.3125 6.203125 41.140625 7.25 
Q 44.96875 8.296875 48.78125 10.40625 
L 48.78125 2.09375 
Q 45.015625 0.34375 40.984375 -0.53125 
Q 36.96875 -1.421875 32.421875 -1.421875 
Q 20.0625 -1.421875 12.78125 6.34375 
Q 5.515625 14.109375 5.515625 27.296875 
Q 5.515625 40.671875 12.859375 48.328125 
Q 20.21875 56 33.015625 56 
Q 37.15625 56 41.109375 55.140625 
Q 45.0625 54.296875 48.78125 52.59375 
z
" id="DejaVuSans-99"/>
      <path d="M 54.890625 33.015625 
L 54.890625 0 
L 45.90625 0 
L 45.90625 32.71875 
Q 45.90625 40.484375 42.875 44.328125 
Q 39.84375 48.1875 33.796875 48.1875 
Q 26.515625 48.1875 22.3125 43.546875 
Q 18.109375 38.921875 18.109375 30.90625 
L 18.109375 0 
L 9.078125 0 
L 9.078125 75.984375 
L 18.109375 75.984375 
L 18.109375 46.1875 
Q 21.34375 51.125 25.703125 53.5625 
Q 30.078125 56 35.796875 56 
Q 45.21875 56 50.046875 50.171875 
Q 54.890625 44.34375 54.890625 33.015625 
z
" id="DejaVuSans-104"/>
      <path d="M 9.078125 75.984375 
L 18.109375 75.984375 
L 18.109375 31.109375 
L 44.921875 54.6875 
L 56.390625 54.6875 
L 27.390625 29.109375 
L 57.625 0 
L 45.90625 0 
L 18.109375 26.703125 
L 18.109375 0 
L 9.078125 0 
z
" id="DejaVuSans-107"/>
      <path d="M 31 75.875 
Q 24.46875 64.65625 21.28125 53.65625 
Q 18.109375 42.671875 18.109375 31.390625 
Q 18.109375 20.125 21.3125 9.0625 
Q 24.515625 -2 31 -13.1875 
L 23.1875 -13.1875 
Q 15.875 -1.703125 12.234375 9.375 
Q 8.59375 20.453125 8.59375 31.390625 
Q 8.59375 42.28125 12.203125 53.3125 
Q 15.828125 64.359375 23.1875 75.875 
z
" id="DejaVuSans-40"/>
      <path d="M 45.40625 27.984375 
Q 45.40625 37.75 41.375 43.109375 
Q 37.359375 48.484375 30.078125 48.484375 
Q 22.859375 48.484375 18.828125 43.109375 
Q 14.796875 37.75 14.796875 27.984375 
Q 14.796875 18.265625 18.828125 12.890625 
Q 22.859375 7.515625 30.078125 7.515625 
Q 37.359375 7.515625 41.375 12.890625 
Q 45.40625 18.265625 45.40625 27.984375 
z
M 54.390625 6.78125 
Q 54.390625 -7.171875 48.1875 -13.984375 
Q 42 -20.796875 29.203125 -20.796875 
Q 24.46875 -20.796875 20.265625 -20.09375 
Q 16.0625 -19.390625 12.109375 -17.921875 
L 12.109375 -9.1875 
Q 16.0625 -11.328125 19.921875 -12.34375 
Q 23.78125 -13.375 27.78125 -13.375 
Q 36.625 -13.375 41.015625 -8.765625 
Q 45.40625 -4.15625 45.40625 5.171875 
L 45.40625 9.625 
Q 42.625 4.78125 38.28125 2.390625 
Q 33.9375 0 27.875 0 
Q 17.828125 0 11.671875 7.65625 
Q 5.515625 15.328125 5.515625 27.984375 
Q 5.515625 40.671875 11.671875 48.328125 
Q 17.828125 56 27.875 56 
Q 33.9375 56 38.28125 53.609375 
Q 42.625 51.21875 45.40625 46.390625 
L 45.40625 54.6875 
L 54.390625 54.6875 
z
" id="DejaVuSans-103"/>
      <path d="M 9.421875 54.6875 
L 18.40625 54.6875 
L 18.40625 0 
L 9.421875 0 
z
M 9.421875 75.984375 
L 18.40625 75.984375 
L 18.40625 64.59375 
L 9.421875 64.59375 
z
" id="DejaVuSans-105"/>
      <path d="M 18.3125 70.21875 
L 18.3125 54.6875 
L 36.8125 54.6875 
L 36.8125 47.703125 
L 18.3125 47.703125 
L 18.3125 18.015625 
Q 18.3125 11.328125 20.140625 9.421875 
Q 21.96875 7.515625 27.59375 7.515625 
L 36.8125 7.515625 
L 36.8125 0 
L 27.59375 0 
Q 17.1875 0 13.234375 3.875 
Q 9.28125 7.765625 9.28125 18.015625 
L 9.28125 47.703125 
L 2.6875 47.703125 
L 2.6875 54.6875 
L 9.28125 54.6875 
L 9.28125 70.21875 
z
" id="DejaVuSans-116"/>
      <path d="M 45.40625 46.390625 
L 45.40625 75.984375 
L 54.390625 75.984375 
L 54.390625 0 
L 45.40625 0 
L 45.40625 8.203125 
Q 42.578125 3.328125 38.25 0.953125 
Q 33.9375 -1.421875 27.875 -1.421875 
Q 17.96875 -1.421875 11.734375 6.484375 
Q 5.515625 14.40625 5.515625 27.296875 
Q 5.515625 40.1875 11.734375 48.09375 
Q 17.96875 56 27.875 56 
Q 33.9375 56 38.25 53.625 
Q 42.578125 51.265625 45.40625 46.390625 
z
M 14.796875 27.296875 
Q 14.796875 17.390625 18.875 11.75 
Q 22.953125 6.109375 30.078125 6.109375 
Q 37.203125 6.109375 41.296875 11.75 
Q 45.40625 17.390625 45.40625 27.296875 
Q 45.40625 37.203125 41.296875 42.84375 
Q 37.203125 48.484375 30.078125 48.484375 
Q 22.953125 48.484375 18.875 42.84375 
Q 14.796875 37.203125 14.796875 27.296875 
z
" id="DejaVuSans-100"/>
      <path d="M 8.015625 75.875 
L 15.828125 75.875 
Q 23.140625 64.359375 26.78125 53.3125 
Q 30.421875 42.28125 30.421875 31.390625 
Q 30.421875 20.453125 26.78125 9.375 
Q 23.140625 -1.703125 15.828125 -13.1875 
L 8.015625 -13.1875 
Q 14.5 -2 17.703125 9.0625 
Q 20.90625 20.125 20.90625 31.390625 
Q 20.90625 42.671875 17.703125 53.65625 
Q 14.5 64.65625 8.015625 75.875 
z
" id="DejaVuSans-41"/>
     </defs>
     <g transform="translate(131.916406 233.016562)scale(0.1 -0.1)">
      <use xlink:href="#DejaVuSans-110"/>
      <use x="63.378906" xlink:href="#DejaVuSans-117"/>
      <use x="126.757812" xlink:href="#DejaVuSans-109"/>
      <use x="224.169922" xlink:href="#DejaVuSans-98"/>
      <use x="287.646484" xlink:href="#DejaVuSans-101"/>
      <use x="349.169922" xlink:href="#DejaVuSans-114"/>
      <use x="390.283203" xlink:href="#DejaVuSans-32"/>
      <use x="422.070312" xlink:href="#DejaVuSans-111"/>
      <use x="483.251953" xlink:href="#DejaVuSans-102"/>
      <use x="518.457031" xlink:href="#DejaVuSans-32"/>
      <use x="550.244141" xlink:href="#DejaVuSans-99"/>
      <use x="605.224609" xlink:href="#DejaVuSans-104"/>
      <use x="668.603516" xlink:href="#DejaVuSans-117"/>
      <use x="731.982422" xlink:href="#DejaVuSans-110"/>
      <use x="795.361328" xlink:href="#DejaVuSans-107"/>
      <use x="853.271484" xlink:href="#DejaVuSans-32"/>
      <use x="885.058594" xlink:href="#DejaVuSans-40"/>
      <use x="924.072266" xlink:href="#DejaVuSans-102"/>
      <use x="959.277344" xlink:href="#DejaVuSans-114"/>
      <use x="1000.359375" xlink:href="#DejaVuSans-111"/>
      <use x="1061.541016" xlink:href="#DejaVuSans-109"/>
      <use x="1158.953125" xlink:href="#DejaVuSans-32"/>
      <use x="1190.740234" xlink:href="#DejaVuSans-98"/>
      <use x="1254.216797" xlink:href="#DejaVuSans-101"/>
      <use x="1315.740234" xlink:href="#DejaVuSans-103"/>
      <use x="1379.216797" xlink:href="#DejaVuSans-105"/>
      <use x="1407" xlink:href="#DejaVuSans-110"/>
      <use x="1470.378906" xlink:href="#DejaVuSans-110"/>
      <use x="1533.757812" xlink:href="#DejaVuSans-105"/>
      <use x="1561.541016" xlink:href="#DejaVuSans-110"/>
      <use x="1624.919922" xlink:href="#DejaVuSans-103"/>
      <use x="1688.396484" xlink:href="#DejaVuSans-32"/>
      <use x="1720.183594" xlink:href="#DejaVuSans-116"/>
      <use x="1759.392578" xlink:href="#DejaVuSans-111"/>
      <use x="1820.574219" xlink:href="#DejaVuSans-32"/>
      <use x="1852.361328" xlink:href="#DejaVuSans-101"/>
      <use x="1913.884766" xlink:href="#DejaVuSans-110"/>
      <use x="1977.263672" xlink:href="#DejaVuSans-100"/>
      <use x="2040.740234" xlink:href="#DejaVuSans-41"/>
     </g>
    </g>
   </g>
   <g id="matplotlib.axis_2">
    <g id="ytick_1">
     <g id="line2d_7">
      <defs>
       <path d="M 0 0 
L -3.5 0 
" id="m92c1b2b7ad" style="stroke:#000000;stroke-width:0.8;"/>
      </defs>
      <g>
       <use style="stroke:#000000;stroke-width:0.8;" x="40.603125" xlink:href="#m92c1b2b7ad" y="204.74"/>
      </g>
     </g>
     <g id="text_8">
      <!-- 0 -->
      <g transform="translate(27.240625 208.539219)scale(0.1 -0.1)">
       <use xlink:href="#DejaVuSans-48"/>
      </g>
     </g>
    </g>
    <g id="ytick_2">
     <g id="line2d_8">
      <g>
       <use style="stroke:#000000;stroke-width:0.8;" x="40.603125" xlink:href="#m92c1b2b7ad" y="181.973529"/>
      </g>
     </g>
     <g id="text_9">
      <!-- 2 -->
      <g transform="translate(27.240625 185.772748)scale(0.1 -0.1)">
       <use xlink:href="#DejaVuSans-50"/>
      </g>
     </g>
    </g>
    <g id="ytick_3">
     <g id="line2d_9">
      <g>
       <use style="stroke:#000000;stroke-width:0.8;" x="40.603125" xlink:href="#m92c1b2b7ad" y="159.207058"/>
      </g>
     </g>
     <g id="text_10">
      <!-- 4 -->
      <g transform="translate(27.240625 163.006276)scale(0.1 -0.1)">
       <use xlink:href="#DejaVuSans-52"/>
      </g>
     </g>
    </g>
    <g id="ytick_4">
     <g id="line2d_10">
      <g>
       <use style="stroke:#000000;stroke-width:0.8;" x="40.603125" xlink:href="#m92c1b2b7ad" y="136.440586"/>
      </g>
     </g>
     <g id="text_11">
      <!-- 6 -->
      <g transform="translate(27.240625 140.239805)scale(0.1 -0.1)">
       <use xlink:href="#DejaVuSans-54"/>
      </g>
     </g>
    </g>
    <g id="ytick_5">
     <g id="line2d_11">
      <g>
       <use style="stroke:#000000;stroke-width:0.8;" x="40.603125" xlink:href="#m92c1b2b7ad" y="113.674115"/>
      </g>
     </g>
     <g id="text_12">
      <!-- 8 -->
      <g transform="translate(27.240625 117.473334)scale(0.1 -0.1)">
       <use xlink:href="#DejaVuSans-56"/>
      </g>
     </g>
    </g>
    <g id="ytick_6">
     <g id="line2d_12">
      <g>
       <use style="stroke:#000000;stroke-width:0.8;" x="40.603125" xlink:href="#m92c1b2b7ad" y="90.907644"/>
      </g>
     </g>
     <g id="text_13">
      <!-- 10 -->
      <g transform="translate(20.878125 94.706863)scale(0.1 -0.1)">
       <use xlink:href="#DejaVuSans-49"/>
       <use x="63.623047" xlink:href="#DejaVuSans-48"/>
      </g>
     </g>
    </g>
    <g id="ytick_7">
     <g id="line2d_13">
      <g>
       <use style="stroke:#000000;stroke-width:0.8;" x="40.603125" xlink:href="#m92c1b2b7ad" y="68.141173"/>
      </g>
     </g>
     <g id="text_14">
      <!-- 12 -->
      <g transform="translate(20.878125 71.940392)scale(0.1 -0.1)">
       <use xlink:href="#DejaVuSans-49"/>
       <use x="63.623047" xlink:href="#DejaVuSans-50"/>
      </g>
     </g>
    </g>
    <g id="ytick_8">
     <g id="line2d_14">
      <g>
       <use style="stroke:#000000;stroke-width:0.8;" x="40.603125" xlink:href="#m92c1b2b7ad" y="45.374702"/>
      </g>
     </g>
     <g id="text_15">
      <!-- 14 -->
      <g transform="translate(20.878125 49.17392)scale(0.1 -0.1)">
       <use xlink:href="#DejaVuSans-49"/>
       <use x="63.623047" xlink:href="#DejaVuSans-52"/>
      </g>
     </g>
    </g>
    <g id="ytick_9">
     <g id="line2d_15">
      <g>
       <use style="stroke:#000000;stroke-width:0.8;" x="40.603125" xlink:href="#m92c1b2b7ad" y="22.60823"/>
      </g>
     </g>
     <g id="text_16">
      <!-- 16 -->
      <g transform="translate(20.878125 26.407449)scale(0.1 -0.1)">
       <use xlink:href="#DejaVuSans-49"/>
       <use x="63.623047" xlink:href="#DejaVuSans-54"/>
      </g>
     </g>
    </g>
    <g id="text_17">
     <!-- GFI -->
     <defs>
      <path d="M 59.515625 10.40625 
L 59.515625 29.984375 
L 43.40625 29.984375 
L 43.40625 38.09375 
L 69.28125 38.09375 
L 69.28125 6.78125 
Q 63.578125 2.734375 56.6875 0.65625 
Q 49.8125 -1.421875 42 -1.421875 
Q 24.90625 -1.421875 15.25 8.5625 
Q 5.609375 18.5625 5.609375 36.375 
Q 5.609375 54.25 15.25 64.234375 
Q 24.90625 74.21875 42 74.21875 
Q 49.125 74.21875 55.546875 72.453125 
Q 61.96875 70.703125 67.390625 67.28125 
L 67.390625 56.78125 
Q 61.921875 61.421875 55.765625 63.765625 
Q 49.609375 66.109375 42.828125 66.109375 
Q 29.4375 66.109375 22.71875 58.640625 
Q 16.015625 51.171875 16.015625 36.375 
Q 16.015625 21.625 22.71875 14.15625 
Q 29.4375 6.6875 42.828125 6.6875 
Q 48.046875 6.6875 52.140625 7.59375 
Q 56.25 8.5 59.515625 10.40625 
z
" id="DejaVuSans-71"/>
      <path d="M 9.8125 72.90625 
L 51.703125 72.90625 
L 51.703125 64.59375 
L 19.671875 64.59375 
L 19.671875 43.109375 
L 48.578125 43.109375 
L 48.578125 34.8125 
L 19.671875 34.8125 
L 19.671875 0 
L 9.8125 0 
z
" id="DejaVuSans-70"/>
      <path d="M 9.8125 72.90625 
L 19.671875 72.90625 
L 19.671875 0 
L 9.8125 0 
z
" id="DejaVuSans-73"/>
     </defs>
     <g transform="translate(14.798438 115.945)rotate(-90)scale(0.1 -0.1)">
      <use xlink:href="#DejaVuSans-71"/>
      <use x="77.490234" xlink:href="#DejaVuSans-70"/>
      <use x="135.009766" xlink:href="#DejaVuSans-73"/>
     </g>
    </g>
   </g>
   <g id="patch_105">
    <path d="M 40.603125 204.74 
L 40.603125 10.7 
" style="fill:none;stroke:#000000;stroke-linecap:square;stroke-linejoin:miter;stroke-width:0.8;"/>
   </g>
   <g id="patch_106">
    <path d="M 431.203125 204.74 
L 431.203125 10.7 
" style="fill:none;stroke:#000000;stroke-linecap:square;stroke-linejoin:miter;stroke-width:0.8;"/>
   </g>
   <g id="patch_107">
    <path d="M 40.603125 204.74 
L 431.203125 204.74 
" style="fill:none;stroke:#000000;stroke-linecap:square;stroke-linejoin:miter;stroke-width:0.8;"/>
   </g>
   <g id="patch_108">
    <path d="M 40.603125 10.7 
L 431.203125 10.7 
" style="fill:none;stroke:#000000;stroke-linecap:square;stroke-linejoin:miter;stroke-width:0.8;"/>
   </g>
  </g>
 </g>
 <defs>
  <clipPath id="p2f6da258b8">
   <rect height="194.04" width="390.6" x="40.603125" y="10.7"/>
  </clipPath>
 </defs>
</svg>
