<?xml version="1.0" encoding="utf-8" standalone="no"?>
<!DOCTYPE svg PUBLIC "-//W3C//DTD SVG 1.1//EN"
  "http://www.w3.org/Graphics/SVG/1.1/DTD/svg11.dtd">
<!-- Created with matplotlib (http://matplotlib.org/) -->
<svg height="504pt" version="1.1" viewBox="0 0 1008 504" width="1008pt" xmlns="http://www.w3.org/2000/svg" xmlns:xlink="http://www.w3.org/1999/xlink">
 <defs>
  <style type="text/css">
*{stroke-linecap:butt;stroke-linejoin:round;}
  </style>
 </defs>
 <g id="figure_1">
  <g id="patch_1">
   <path d="M 0 504 
L 1008 504 
L 1008 0 
L 0 0 
z
" style="fill:#ffffff;"/>
  </g>
  <g id="axes_1">
   <g id="patch_2">
    <path d="M 126 448.56 
L 907.2 448.56 
L 907.2 60.48 
L 126 60.48 
z
" style="fill:#ffffff;"/>
   </g>
   <g id="PathCollection_1">
    <defs>
     <path d="M 0 3 
C 0.795609 3 1.55874 2.683901 2.12132 2.12132 
C 2.683901 1.55874 3 0.795609 3 0 
C 3 -0.795609 2.683901 -1.55874 2.12132 -2.12132 
C 1.55874 -2.683901 0.795609 -3 0 -3 
C -0.795609 -3 -1.55874 -2.683901 -2.12132 -2.12132 
C -2.683901 -1.55874 -3 -0.795609 -3 0 
C -3 0.795609 -2.683901 1.55874 -2.12132 2.12132 
C -1.55874 2.683901 -0.795609 3 0 3 
z
" id="m9cb925fd05" style="stroke:#1f77b4;"/>
    </defs>
    <g clip-path="url(#p732b1fc8f4)">
     <use style="fill:#1f77b4;stroke:#1f77b4;" x="871.68706" xlink:href="#m9cb925fd05" y="249.977533"/>
     <use style="fill:#1f77b4;stroke:#1f77b4;" x="791.506111" xlink:href="#m9cb925fd05" y="254.011527"/>
     <use style="fill:#1f77b4;stroke:#1f77b4;" x="632.416926" xlink:href="#m9cb925fd05" y="258.673933"/>
     <use style="fill:#1f77b4;stroke:#1f77b4;" x="473.327742" xlink:href="#m9cb925fd05" y="257.268455"/>
     <use style="fill:#1f77b4;stroke:#1f77b4;" x="473.327742" xlink:href="#m9cb925fd05" y="249.791712"/>
     <use style="fill:#1f77b4;stroke:#1f77b4;" x="441.509905" xlink:href="#m9cb925fd05" y="260.353075"/>
     <use style="fill:#1f77b4;stroke:#1f77b4;" x="441.509905" xlink:href="#m9cb925fd05" y="252.318871"/>
     <use style="fill:#1f77b4;stroke:#1f77b4;" x="409.692068" xlink:href="#m9cb925fd05" y="258.464463"/>
     <use style="fill:#1f77b4;stroke:#1f77b4;" x="409.692068" xlink:href="#m9cb925fd05" y="256.99817"/>
     <use style="fill:#1f77b4;stroke:#1f77b4;" x="377.874231" xlink:href="#m9cb925fd05" y="256.795457"/>
     <use style="fill:#1f77b4;stroke:#1f77b4;" x="377.874231" xlink:href="#m9cb925fd05" y="264.461398"/>
     <use style="fill:#1f77b4;stroke:#1f77b4;" x="377.874231" xlink:href="#m9cb925fd05" y="238.730323"/>
     <use style="fill:#1f77b4;stroke:#1f77b4;" x="346.056394" xlink:href="#m9cb925fd05" y="249.686977"/>
     <use style="fill:#1f77b4;stroke:#1f77b4;" x="346.056394" xlink:href="#m9cb925fd05" y="259.346266"/>
     <use style="fill:#1f77b4;stroke:#1f77b4;" x="346.056394" xlink:href="#m9cb925fd05" y="258.511763"/>
     <use style="fill:#1f77b4;stroke:#1f77b4;" x="314.238557" xlink:href="#m9cb925fd05" y="256.444087"/>
     <use style="fill:#1f77b4;stroke:#1f77b4;" x="314.238557" xlink:href="#m9cb925fd05" y="257.947544"/>
     <use style="fill:#1f77b4;stroke:#1f77b4;" x="314.238557" xlink:href="#m9cb925fd05" y="260.265233"/>
     <use style="fill:#1f77b4;stroke:#1f77b4;" x="314.238557" xlink:href="#m9cb925fd05" y="239.504012"/>
     <use style="fill:#1f77b4;stroke:#1f77b4;" x="282.42072" xlink:href="#m9cb925fd05" y="258.572577"/>
     <use style="fill:#1f77b4;stroke:#1f77b4;" x="282.42072" xlink:href="#m9cb925fd05" y="258.106336"/>
     <use style="fill:#1f77b4;stroke:#1f77b4;" x="282.42072" xlink:href="#m9cb925fd05" y="246.700334"/>
     <use style="fill:#1f77b4;stroke:#1f77b4;" x="282.42072" xlink:href="#m9cb925fd05" y="265.545915"/>
     <use style="fill:#1f77b4;stroke:#1f77b4;" x="282.42072" xlink:href="#m9cb925fd05" y="237.892441"/>
     <use style="fill:#1f77b4;stroke:#1f77b4;" x="250.602883" xlink:href="#m9cb925fd05" y="266.569617"/>
     <use style="fill:#1f77b4;stroke:#1f77b4;" x="250.602883" xlink:href="#m9cb925fd05" y="233.348284"/>
     <use style="fill:#1f77b4;stroke:#1f77b4;" x="250.602883" xlink:href="#m9cb925fd05" y="282.083942"/>
     <use style="fill:#1f77b4;stroke:#1f77b4;" x="250.602883" xlink:href="#m9cb925fd05" y="237.31133"/>
     <use style="fill:#1f77b4;stroke:#1f77b4;" x="250.602883" xlink:href="#m9cb925fd05" y="272.343567"/>
     <use style="fill:#1f77b4;stroke:#1f77b4;" x="250.602883" xlink:href="#m9cb925fd05" y="244.997542"/>
     <use style="fill:#1f77b4;stroke:#1f77b4;" x="250.602883" xlink:href="#m9cb925fd05" y="235.493667"/>
     <use style="fill:#1f77b4;stroke:#1f77b4;" x="218.785046" xlink:href="#m9cb925fd05" y="242.281184"/>
     <use style="fill:#1f77b4;stroke:#1f77b4;" x="218.785046" xlink:href="#m9cb925fd05" y="275.249125"/>
     <use style="fill:#1f77b4;stroke:#1f77b4;" x="218.785046" xlink:href="#m9cb925fd05" y="232.084705"/>
     <use style="fill:#1f77b4;stroke:#1f77b4;" x="218.785046" xlink:href="#m9cb925fd05" y="285.509797"/>
     <use style="fill:#1f77b4;stroke:#1f77b4;" x="218.785046" xlink:href="#m9cb925fd05" y="252.481042"/>
     <use style="fill:#1f77b4;stroke:#1f77b4;" x="218.785046" xlink:href="#m9cb925fd05" y="240.889219"/>
     <use style="fill:#1f77b4;stroke:#1f77b4;" x="218.785046" xlink:href="#m9cb925fd05" y="296.564429"/>
     <use style="fill:#1f77b4;stroke:#1f77b4;" x="218.785046" xlink:href="#m9cb925fd05" y="236.040993"/>
     <use style="fill:#1f77b4;stroke:#1f77b4;" x="218.785046" xlink:href="#m9cb925fd05" y="244.663065"/>
     <use style="fill:#1f77b4;stroke:#1f77b4;" x="218.785046" xlink:href="#m9cb925fd05" y="230.821125"/>
     <use style="fill:#1f77b4;stroke:#1f77b4;" x="218.785046" xlink:href="#m9cb925fd05" y="246.821962"/>
     <use style="fill:#1f77b4;stroke:#1f77b4;" x="202.876128" xlink:href="#m9cb925fd05" y="243.625849"/>
     <use style="fill:#1f77b4;stroke:#1f77b4;" x="202.876128" xlink:href="#m9cb925fd05" y="290.628308"/>
     <use style="fill:#1f77b4;stroke:#1f77b4;" x="202.876128" xlink:href="#m9cb925fd05" y="248.622732"/>
     <use style="fill:#1f77b4;stroke:#1f77b4;" x="202.876128" xlink:href="#m9cb925fd05" y="217.651517"/>
     <use style="fill:#1f77b4;stroke:#1f77b4;" x="202.876128" xlink:href="#m9cb925fd05" y="315.105939"/>
     <use style="fill:#1f77b4;stroke:#1f77b4;" x="202.876128" xlink:href="#m9cb925fd05" y="251.119484"/>
     <use style="fill:#1f77b4;stroke:#1f77b4;" x="202.876128" xlink:href="#m9cb925fd05" y="244.487381"/>
     <use style="fill:#1f77b4;stroke:#1f77b4;" x="202.876128" xlink:href="#m9cb925fd05" y="228.932513"/>
     <use style="fill:#1f77b4;stroke:#1f77b4;" x="202.876128" xlink:href="#m9cb925fd05" y="292.645305"/>
     <use style="fill:#1f77b4;stroke:#1f77b4;" x="202.876128" xlink:href="#m9cb925fd05" y="252.484421"/>
     <use style="fill:#1f77b4;stroke:#1f77b4;" x="202.876128" xlink:href="#m9cb925fd05" y="244.784693"/>
     <use style="fill:#1f77b4;stroke:#1f77b4;" x="202.876128" xlink:href="#m9cb925fd05" y="244.784693"/>
     <use style="fill:#1f77b4;stroke:#1f77b4;" x="202.876128" xlink:href="#m9cb925fd05" y="214.729067"/>
     <use style="fill:#1f77b4;stroke:#1f77b4;" x="202.876128" xlink:href="#m9cb925fd05" y="256.839378"/>
     <use style="fill:#1f77b4;stroke:#1f77b4;" x="202.876128" xlink:href="#m9cb925fd05" y="201.785823"/>
     <use style="fill:#1f77b4;stroke:#1f77b4;" x="186.967209" xlink:href="#m9cb925fd05" y="265.610107"/>
     <use style="fill:#1f77b4;stroke:#1f77b4;" x="186.967209" xlink:href="#m9cb925fd05" y="218.658327"/>
     <use style="fill:#1f77b4;stroke:#1f77b4;" x="186.967209" xlink:href="#m9cb925fd05" y="317.470928"/>
     <use style="fill:#1f77b4;stroke:#1f77b4;" x="186.967209" xlink:href="#m9cb925fd05" y="234.922691"/>
     <use style="fill:#1f77b4;stroke:#1f77b4;" x="186.967209" xlink:href="#m9cb925fd05" y="247.980807"/>
     <use style="fill:#1f77b4;stroke:#1f77b4;" x="186.967209" xlink:href="#m9cb925fd05" y="216.239281"/>
     <use style="fill:#1f77b4;stroke:#1f77b4;" x="186.967209" xlink:href="#m9cb925fd05" y="301.095071"/>
     <use style="fill:#1f77b4;stroke:#1f77b4;" x="186.967209" xlink:href="#m9cb925fd05" y="270.269135"/>
     <use style="fill:#1f77b4;stroke:#1f77b4;" x="186.967209" xlink:href="#m9cb925fd05" y="275.238989"/>
     <use style="fill:#1f77b4;stroke:#1f77b4;" x="186.967209" xlink:href="#m9cb925fd05" y="228.942649"/>
     <use style="fill:#1f77b4;stroke:#1f77b4;" x="186.967209" xlink:href="#m9cb925fd05" y="245.092142"/>
     <use style="fill:#1f77b4;stroke:#1f77b4;" x="186.967209" xlink:href="#m9cb925fd05" y="236.321413"/>
     <use style="fill:#1f77b4;stroke:#1f77b4;" x="186.967209" xlink:href="#m9cb925fd05" y="290.395187"/>
     <use style="fill:#1f77b4;stroke:#1f77b4;" x="186.967209" xlink:href="#m9cb925fd05" y="302.31473"/>
     <use style="fill:#1f77b4;stroke:#1f77b4;" x="186.967209" xlink:href="#m9cb925fd05" y="226.459411"/>
     <use style="fill:#1f77b4;stroke:#1f77b4;" x="186.967209" xlink:href="#m9cb925fd05" y="245.636089"/>
     <use style="fill:#1f77b4;stroke:#1f77b4;" x="186.967209" xlink:href="#m9cb925fd05" y="266.204733"/>
     <use style="fill:#1f77b4;stroke:#1f77b4;" x="186.967209" xlink:href="#m9cb925fd05" y="223.32749"/>
     <use style="fill:#1f77b4;stroke:#1f77b4;" x="186.967209" xlink:href="#m9cb925fd05" y="251.322198"/>
     <use style="fill:#1f77b4;stroke:#1f77b4;" x="186.967209" xlink:href="#m9cb925fd05" y="210.867379"/>
     <use style="fill:#1f77b4;stroke:#1f77b4;" x="186.967209" xlink:href="#m9cb925fd05" y="244.656308"/>
     <use style="fill:#1f77b4;stroke:#1f77b4;" x="186.967209" xlink:href="#m9cb925fd05" y="247.514566"/>
     <use style="fill:#1f77b4;stroke:#1f77b4;" x="180.603642" xlink:href="#m9cb925fd05" y="281.985964"/>
     <use style="fill:#1f77b4;stroke:#1f77b4;" x="180.603642" xlink:href="#m9cb925fd05" y="206.583371"/>
     <use style="fill:#1f77b4;stroke:#1f77b4;" x="180.603642" xlink:href="#m9cb925fd05" y="256.991413"/>
     <use style="fill:#1f77b4;stroke:#1f77b4;" x="180.603642" xlink:href="#m9cb925fd05" y="313.051778"/>
     <use style="fill:#1f77b4;stroke:#1f77b4;" x="180.603642" xlink:href="#m9cb925fd05" y="234.483479"/>
     <use style="fill:#1f77b4;stroke:#1f77b4;" x="180.603642" xlink:href="#m9cb925fd05" y="241.794672"/>
     <use style="fill:#1f77b4;stroke:#1f77b4;" x="180.603642" xlink:href="#m9cb925fd05" y="223.932251"/>
     <use style="fill:#1f77b4;stroke:#1f77b4;" x="180.603642" xlink:href="#m9cb925fd05" y="236.466691"/>
     <use style="fill:#1f77b4;stroke:#1f77b4;" x="180.603642" xlink:href="#m9cb925fd05" y="337.657795"/>
     <use style="fill:#1f77b4;stroke:#1f77b4;" x="180.603642" xlink:href="#m9cb925fd05" y="255.859597"/>
     <use style="fill:#1f77b4;stroke:#1f77b4;" x="180.603642" xlink:href="#m9cb925fd05" y="274.654499"/>
     <use style="fill:#1f77b4;stroke:#1f77b4;" x="180.603642" xlink:href="#m9cb925fd05" y="232.858394"/>
     <use style="fill:#1f77b4;stroke:#1f77b4;" x="180.603642" xlink:href="#m9cb925fd05" y="277.867505"/>
     <use style="fill:#1f77b4;stroke:#1f77b4;" x="180.603642" xlink:href="#m9cb925fd05" y="190.119672"/>
     <use style="fill:#1f77b4;stroke:#1f77b4;" x="180.603642" xlink:href="#m9cb925fd05" y="261.305828"/>
     <use style="fill:#1f77b4;stroke:#1f77b4;" x="180.603642" xlink:href="#m9cb925fd05" y="296.858363"/>
     <use style="fill:#1f77b4;stroke:#1f77b4;" x="180.603642" xlink:href="#m9cb925fd05" y="279.827067"/>
     <use style="fill:#1f77b4;stroke:#1f77b4;" x="180.603642" xlink:href="#m9cb925fd05" y="282.553561"/>
     <use style="fill:#1f77b4;stroke:#1f77b4;" x="180.603642" xlink:href="#m9cb925fd05" y="245.443512"/>
     <use style="fill:#1f77b4;stroke:#1f77b4;" x="180.603642" xlink:href="#m9cb925fd05" y="225.709371"/>
     <use style="fill:#1f77b4;stroke:#1f77b4;" x="180.603642" xlink:href="#m9cb925fd05" y="246.859126"/>
     <use style="fill:#1f77b4;stroke:#1f77b4;" x="180.603642" xlink:href="#m9cb925fd05" y="278.134411"/>
     <use style="fill:#1f77b4;stroke:#1f77b4;" x="180.603642" xlink:href="#m9cb925fd05" y="185.092382"/>
     <use style="fill:#1f77b4;stroke:#1f77b4;" x="180.603642" xlink:href="#m9cb925fd05" y="250.308631"/>
     <use style="fill:#1f77b4;stroke:#1f77b4;" x="180.603642" xlink:href="#m9cb925fd05" y="231.750228"/>
     <use style="fill:#1f77b4;stroke:#1f77b4;" x="180.603642" xlink:href="#m9cb925fd05" y="232.246876"/>
     <use style="fill:#1f77b4;stroke:#1f77b4;" x="180.603642" xlink:href="#m9cb925fd05" y="265.052646"/>
     <use style="fill:#1f77b4;stroke:#1f77b4;" x="180.603642" xlink:href="#m9cb925fd05" y="186.437047"/>
     <use style="fill:#1f77b4;stroke:#1f77b4;" x="174.240075" xlink:href="#m9cb925fd05" y="267.789275"/>
     <use style="fill:#1f77b4;stroke:#1f77b4;" x="174.240075" xlink:href="#m9cb925fd05" y="252.271572"/>
     <use style="fill:#1f77b4;stroke:#1f77b4;" x="174.240075" xlink:href="#m9cb925fd05" y="215.512892"/>
     <use style="fill:#1f77b4;stroke:#1f77b4;" x="174.240075" xlink:href="#m9cb925fd05" y="254.927116"/>
     <use style="fill:#1f77b4;stroke:#1f77b4;" x="174.240075" xlink:href="#m9cb925fd05" y="339.897777"/>
     <use style="fill:#1f77b4;stroke:#1f77b4;" x="174.240075" xlink:href="#m9cb925fd05" y="287.148396"/>
     <use style="fill:#1f77b4;stroke:#1f77b4;" x="174.240075" xlink:href="#m9cb925fd05" y="183.541625"/>
     <use style="fill:#1f77b4;stroke:#1f77b4;" x="174.240075" xlink:href="#m9cb925fd05" y="248.39299"/>
     <use style="fill:#1f77b4;stroke:#1f77b4;" x="174.240075" xlink:href="#m9cb925fd05" y="192.761702"/>
     <use style="fill:#1f77b4;stroke:#1f77b4;" x="174.240075" xlink:href="#m9cb925fd05" y="258.505006"/>
     <use style="fill:#1f77b4;stroke:#1f77b4;" x="174.240075" xlink:href="#m9cb925fd05" y="300.247054"/>
     <use style="fill:#1f77b4;stroke:#1f77b4;" x="174.240075" xlink:href="#m9cb925fd05" y="312.048347"/>
     <use style="fill:#1f77b4;stroke:#1f77b4;" x="174.240075" xlink:href="#m9cb925fd05" y="303.010712"/>
     <use style="fill:#1f77b4;stroke:#1f77b4;" x="174.240075" xlink:href="#m9cb925fd05" y="224.199157"/>
     <use style="fill:#1f77b4;stroke:#1f77b4;" x="174.240075" xlink:href="#m9cb925fd05" y="270.907682"/>
     <use style="fill:#1f77b4;stroke:#1f77b4;" x="174.240075" xlink:href="#m9cb925fd05" y="216.712279"/>
     <use style="fill:#1f77b4;stroke:#1f77b4;" x="174.240075" xlink:href="#m9cb925fd05" y="258.254993"/>
     <use style="fill:#1f77b4;stroke:#1f77b4;" x="174.240075" xlink:href="#m9cb925fd05" y="237.598507"/>
     <use style="fill:#1f77b4;stroke:#1f77b4;" x="174.240075" xlink:href="#m9cb925fd05" y="205.0664"/>
     <use style="fill:#1f77b4;stroke:#1f77b4;" x="174.240075" xlink:href="#m9cb925fd05" y="266.191219"/>
     <use style="fill:#1f77b4;stroke:#1f77b4;" x="174.240075" xlink:href="#m9cb925fd05" y="321.808993"/>
     <use style="fill:#1f77b4;stroke:#1f77b4;" x="174.240075" xlink:href="#m9cb925fd05" y="256.045418"/>
     <use style="fill:#1f77b4;stroke:#1f77b4;" x="174.240075" xlink:href="#m9cb925fd05" y="297.750302"/>
     <use style="fill:#1f77b4;stroke:#1f77b4;" x="174.240075" xlink:href="#m9cb925fd05" y="266.356768"/>
     <use style="fill:#1f77b4;stroke:#1f77b4;" x="174.240075" xlink:href="#m9cb925fd05" y="219.182003"/>
     <use style="fill:#1f77b4;stroke:#1f77b4;" x="174.240075" xlink:href="#m9cb925fd05" y="314.298465"/>
     <use style="fill:#1f77b4;stroke:#1f77b4;" x="174.240075" xlink:href="#m9cb925fd05" y="170.534188"/>
     <use style="fill:#1f77b4;stroke:#1f77b4;" x="174.240075" xlink:href="#m9cb925fd05" y="258.322564"/>
     <use style="fill:#1f77b4;stroke:#1f77b4;" x="174.240075" xlink:href="#m9cb925fd05" y="281.955557"/>
     <use style="fill:#1f77b4;stroke:#1f77b4;" x="174.240075" xlink:href="#m9cb925fd05" y="206.728649"/>
     <use style="fill:#1f77b4;stroke:#1f77b4;" x="174.240075" xlink:href="#m9cb925fd05" y="229.45281"/>
     <use style="fill:#1f77b4;stroke:#1f77b4;" x="174.240075" xlink:href="#m9cb925fd05" y="230.689362"/>
     <use style="fill:#1f77b4;stroke:#1f77b4;" x="174.240075" xlink:href="#m9cb925fd05" y="212.492464"/>
     <use style="fill:#1f77b4;stroke:#1f77b4;" x="174.240075" xlink:href="#m9cb925fd05" y="248.034863"/>
     <use style="fill:#1f77b4;stroke:#1f77b4;" x="174.240075" xlink:href="#m9cb925fd05" y="255.920411"/>
     <use style="fill:#1f77b4;stroke:#1f77b4;" x="174.240075" xlink:href="#m9cb925fd05" y="252.724298"/>
     <use style="fill:#1f77b4;stroke:#1f77b4;" x="174.240075" xlink:href="#m9cb925fd05" y="227.057415"/>
     <use style="fill:#1f77b4;stroke:#1f77b4;" x="167.876507" xlink:href="#m9cb925fd05" y="247.338881"/>
     <use style="fill:#1f77b4;stroke:#1f77b4;" x="167.876507" xlink:href="#m9cb925fd05" y="316.994552"/>
     <use style="fill:#1f77b4;stroke:#1f77b4;" x="167.876507" xlink:href="#m9cb925fd05" y="218.310336"/>
     <use style="fill:#1f77b4;stroke:#1f77b4;" x="167.876507" xlink:href="#m9cb925fd05" y="193.440792"/>
     <use style="fill:#1f77b4;stroke:#1f77b4;" x="167.876507" xlink:href="#m9cb925fd05" y="230.523812"/>
     <use style="fill:#1f77b4;stroke:#1f77b4;" x="167.876507" xlink:href="#m9cb925fd05" y="281.837307"/>
     <use style="fill:#1f77b4;stroke:#1f77b4;" x="167.876507" xlink:href="#m9cb925fd05" y="381.508061"/>
     <use style="fill:#1f77b4;stroke:#1f77b4;" x="167.876507" xlink:href="#m9cb925fd05" y="250.578915"/>
     <use style="fill:#1f77b4;stroke:#1f77b4;" x="167.876507" xlink:href="#m9cb925fd05" y="314.700513"/>
     <use style="fill:#1f77b4;stroke:#1f77b4;" x="167.876507" xlink:href="#m9cb925fd05" y="165.077822"/>
     <use style="fill:#1f77b4;stroke:#1f77b4;" x="167.876507" xlink:href="#m9cb925fd05" y="262.326152"/>
     <use style="fill:#1f77b4;stroke:#1f77b4;" x="167.876507" xlink:href="#m9cb925fd05" y="221.249679"/>
     <use style="fill:#1f77b4;stroke:#1f77b4;" x="167.876507" xlink:href="#m9cb925fd05" y="201.424317"/>
     <use style="fill:#1f77b4;stroke:#1f77b4;" x="167.876507" xlink:href="#m9cb925fd05" y="243.331915"/>
     <use style="fill:#1f77b4;stroke:#1f77b4;" x="167.876507" xlink:href="#m9cb925fd05" y="225.719507"/>
     <use style="fill:#1f77b4;stroke:#1f77b4;" x="167.876507" xlink:href="#m9cb925fd05" y="247.423345"/>
     <use style="fill:#1f77b4;stroke:#1f77b4;" x="167.876507" xlink:href="#m9cb925fd05" y="381.143177"/>
     <use style="fill:#1f77b4;stroke:#1f77b4;" x="167.876507" xlink:href="#m9cb925fd05" y="296.868499"/>
     <use style="fill:#1f77b4;stroke:#1f77b4;" x="167.876507" xlink:href="#m9cb925fd05" y="344.708839"/>
     <use style="fill:#1f77b4;stroke:#1f77b4;" x="167.876507" xlink:href="#m9cb925fd05" y="180.081985"/>
     <use style="fill:#1f77b4;stroke:#1f77b4;" x="167.876507" xlink:href="#m9cb925fd05" y="277.813448"/>
     <use style="fill:#1f77b4;stroke:#1f77b4;" x="167.876507" xlink:href="#m9cb925fd05" y="268.073074"/>
     <use style="fill:#1f77b4;stroke:#1f77b4;" x="167.876507" xlink:href="#m9cb925fd05" y="234.885527"/>
     <use style="fill:#1f77b4;stroke:#1f77b4;" x="167.876507" xlink:href="#m9cb925fd05" y="226.679017"/>
     <use style="fill:#1f77b4;stroke:#1f77b4;" x="167.876507" xlink:href="#m9cb925fd05" y="247.419966"/>
     <use style="fill:#1f77b4;stroke:#1f77b4;" x="167.876507" xlink:href="#m9cb925fd05" y="310.477319"/>
     <use style="fill:#1f77b4;stroke:#1f77b4;" x="167.876507" xlink:href="#m9cb925fd05" y="193.25835"/>
     <use style="fill:#1f77b4;stroke:#1f77b4;" x="167.876507" xlink:href="#m9cb925fd05" y="186.99113"/>
     <use style="fill:#1f77b4;stroke:#1f77b4;" x="167.876507" xlink:href="#m9cb925fd05" y="272.330053"/>
     <use style="fill:#1f77b4;stroke:#1f77b4;" x="167.876507" xlink:href="#m9cb925fd05" y="247.332124"/>
     <use style="fill:#1f77b4;stroke:#1f77b4;" x="167.876507" xlink:href="#m9cb925fd05" y="295.807633"/>
     <use style="fill:#1f77b4;stroke:#1f77b4;" x="167.876507" xlink:href="#m9cb925fd05" y="294.118355"/>
     <use style="fill:#1f77b4;stroke:#1f77b4;" x="167.876507" xlink:href="#m9cb925fd05" y="271.377301"/>
     <use style="fill:#1f77b4;stroke:#1f77b4;" x="167.876507" xlink:href="#m9cb925fd05" y="286.644991"/>
     <use style="fill:#1f77b4;stroke:#1f77b4;" x="167.876507" xlink:href="#m9cb925fd05" y="327.292388"/>
     <use style="fill:#1f77b4;stroke:#1f77b4;" x="167.876507" xlink:href="#m9cb925fd05" y="237.14578"/>
     <use style="fill:#1f77b4;stroke:#1f77b4;" x="167.876507" xlink:href="#m9cb925fd05" y="203.812956"/>
     <use style="fill:#1f77b4;stroke:#1f77b4;" x="167.876507" xlink:href="#m9cb925fd05" y="288.043713"/>
     <use style="fill:#1f77b4;stroke:#1f77b4;" x="167.876507" xlink:href="#m9cb925fd05" y="306.176418"/>
     <use style="fill:#1f77b4;stroke:#1f77b4;" x="167.876507" xlink:href="#m9cb925fd05" y="152.523111"/>
     <use style="fill:#1f77b4;stroke:#1f77b4;" x="167.876507" xlink:href="#m9cb925fd05" y="246.487485"/>
     <use style="fill:#1f77b4;stroke:#1f77b4;" x="167.876507" xlink:href="#m9cb925fd05" y="243.03798"/>
     <use style="fill:#1f77b4;stroke:#1f77b4;" x="167.876507" xlink:href="#m9cb925fd05" y="321.018411"/>
     <use style="fill:#1f77b4;stroke:#1f77b4;" x="167.876507" xlink:href="#m9cb925fd05" y="237.530936"/>
     <use style="fill:#1f77b4;stroke:#1f77b4;" x="167.876507" xlink:href="#m9cb925fd05" y="178.99409"/>
     <use style="fill:#1f77b4;stroke:#1f77b4;" x="167.876507" xlink:href="#m9cb925fd05" y="191.126481"/>
     <use style="fill:#1f77b4;stroke:#1f77b4;" x="167.876507" xlink:href="#m9cb925fd05" y="280.996047"/>
     <use style="fill:#1f77b4;stroke:#1f77b4;" x="167.876507" xlink:href="#m9cb925fd05" y="221.327385"/>
     <use style="fill:#1f77b4;stroke:#1f77b4;" x="167.876507" xlink:href="#m9cb925fd05" y="185.436995"/>
     <use style="fill:#1f77b4;stroke:#1f77b4;" x="167.876507" xlink:href="#m9cb925fd05" y="282.20557"/>
     <use style="fill:#1f77b4;stroke:#1f77b4;" x="167.876507" xlink:href="#m9cb925fd05" y="227.858132"/>
     <use style="fill:#1f77b4;stroke:#1f77b4;" x="167.876507" xlink:href="#m9cb925fd05" y="236.334927"/>
     <use style="fill:#1f77b4;stroke:#1f77b4;" x="167.876507" xlink:href="#m9cb925fd05" y="283.817141"/>
     <use style="fill:#1f77b4;stroke:#1f77b4;" x="167.876507" xlink:href="#m9cb925fd05" y="246.348964"/>
     <use style="fill:#1f77b4;stroke:#1f77b4;" x="167.876507" xlink:href="#m9cb925fd05" y="235.797737"/>
     <use style="fill:#1f77b4;stroke:#1f77b4;" x="167.876507" xlink:href="#m9cb925fd05" y="140.231927"/>
     <use style="fill:#1f77b4;stroke:#1f77b4;" x="161.51294" xlink:href="#m9cb925fd05" y="250.886364"/>
     <use style="fill:#1f77b4;stroke:#1f77b4;" x="161.51294" xlink:href="#m9cb925fd05" y="242.656204"/>
     <use style="fill:#1f77b4;stroke:#1f77b4;" x="161.51294" xlink:href="#m9cb925fd05" y="308.352208"/>
     <use style="fill:#1f77b4;stroke:#1f77b4;" x="161.51294" xlink:href="#m9cb925fd05" y="325.792309"/>
     <use style="fill:#1f77b4;stroke:#1f77b4;" x="161.51294" xlink:href="#m9cb925fd05" y="199.917482"/>
     <use style="fill:#1f77b4;stroke:#1f77b4;" x="161.51294" xlink:href="#m9cb925fd05" y="230.547462"/>
     <use style="fill:#1f77b4;stroke:#1f77b4;" x="161.51294" xlink:href="#m9cb925fd05" y="164.202776"/>
     <use style="fill:#1f77b4;stroke:#1f77b4;" x="161.51294" xlink:href="#m9cb925fd05" y="222.185538"/>
     <use style="fill:#1f77b4;stroke:#1f77b4;" x="161.51294" xlink:href="#m9cb925fd05" y="262.755228"/>
     <use style="fill:#1f77b4;stroke:#1f77b4;" x="161.51294" xlink:href="#m9cb925fd05" y="199.718147"/>
     <use style="fill:#1f77b4;stroke:#1f77b4;" x="161.51294" xlink:href="#m9cb925fd05" y="258.555684"/>
     <use style="fill:#1f77b4;stroke:#1f77b4;" x="161.51294" xlink:href="#m9cb925fd05" y="306.068304"/>
     <use style="fill:#1f77b4;stroke:#1f77b4;" x="161.51294" xlink:href="#m9cb925fd05" y="430.645767"/>
     <use style="fill:#1f77b4;stroke:#1f77b4;" x="161.51294" xlink:href="#m9cb925fd05" y="331.812894"/>
     <use style="fill:#1f77b4;stroke:#1f77b4;" x="161.51294" xlink:href="#m9cb925fd05" y="264.235035"/>
     <use style="fill:#1f77b4;stroke:#1f77b4;" x="161.51294" xlink:href="#m9cb925fd05" y="236.466691"/>
     <use style="fill:#1f77b4;stroke:#1f77b4;" x="161.51294" xlink:href="#m9cb925fd05" y="314.646456"/>
     <use style="fill:#1f77b4;stroke:#1f77b4;" x="161.51294" xlink:href="#m9cb925fd05" y="314.741055"/>
     <use style="fill:#1f77b4;stroke:#1f77b4;" x="161.51294" xlink:href="#m9cb925fd05" y="108.220118"/>
     <use style="fill:#1f77b4;stroke:#1f77b4;" x="161.51294" xlink:href="#m9cb925fd05" y="226.827673"/>
     <use style="fill:#1f77b4;stroke:#1f77b4;" x="161.51294" xlink:href="#m9cb925fd05" y="222.212567"/>
     <use style="fill:#1f77b4;stroke:#1f77b4;" x="161.51294" xlink:href="#m9cb925fd05" y="306.152768"/>
     <use style="fill:#1f77b4;stroke:#1f77b4;" x="161.51294" xlink:href="#m9cb925fd05" y="267.316277"/>
     <use style="fill:#1f77b4;stroke:#1f77b4;" x="161.51294" xlink:href="#m9cb925fd05" y="174.953338"/>
     <use style="fill:#1f77b4;stroke:#1f77b4;" x="161.51294" xlink:href="#m9cb925fd05" y="273.407812"/>
     <use style="fill:#1f77b4;stroke:#1f77b4;" x="161.51294" xlink:href="#m9cb925fd05" y="137.684497"/>
     <use style="fill:#1f77b4;stroke:#1f77b4;" x="161.51294" xlink:href="#m9cb925fd05" y="162.875004"/>
     <use style="fill:#1f77b4;stroke:#1f77b4;" x="161.51294" xlink:href="#m9cb925fd05" y="329.265464"/>
     <use style="fill:#1f77b4;stroke:#1f77b4;" x="161.51294" xlink:href="#m9cb925fd05" y="222.090939"/>
     <use style="fill:#1f77b4;stroke:#1f77b4;" x="161.51294" xlink:href="#m9cb925fd05" y="229.300775"/>
     <use style="fill:#1f77b4;stroke:#1f77b4;" x="161.51294" xlink:href="#m9cb925fd05" y="251.12962"/>
     <use style="fill:#1f77b4;stroke:#1f77b4;" x="161.51294" xlink:href="#m9cb925fd05" y="243.730584"/>
     <use style="fill:#1f77b4;stroke:#1f77b4;" x="161.51294" xlink:href="#m9cb925fd05" y="423.956228"/>
     <use style="fill:#1f77b4;stroke:#1f77b4;" x="161.51294" xlink:href="#m9cb925fd05" y="342.137759"/>
     <use style="fill:#1f77b4;stroke:#1f77b4;" x="161.51294" xlink:href="#m9cb925fd05" y="262.670764"/>
     <use style="fill:#1f77b4;stroke:#1f77b4;" x="161.51294" xlink:href="#m9cb925fd05" y="332.1744"/>
     <use style="fill:#1f77b4;stroke:#1f77b4;" x="161.51294" xlink:href="#m9cb925fd05" y="369.402698"/>
     <use style="fill:#1f77b4;stroke:#1f77b4;" x="161.51294" xlink:href="#m9cb925fd05" y="320.579199"/>
     <use style="fill:#1f77b4;stroke:#1f77b4;" x="161.51294" xlink:href="#m9cb925fd05" y="225.189074"/>
     <use style="fill:#1f77b4;stroke:#1f77b4;" x="161.51294" xlink:href="#m9cb925fd05" y="131.136857"/>
     <use style="fill:#1f77b4;stroke:#1f77b4;" x="161.51294" xlink:href="#m9cb925fd05" y="297.831387"/>
     <use style="fill:#1f77b4;stroke:#1f77b4;" x="161.51294" xlink:href="#m9cb925fd05" y="257.67726"/>
     <use style="fill:#1f77b4;stroke:#1f77b4;" x="161.51294" xlink:href="#m9cb925fd05" y="270.762404"/>
     <use style="fill:#1f77b4;stroke:#1f77b4;" x="161.51294" xlink:href="#m9cb925fd05" y="264.001915"/>
     <use style="fill:#1f77b4;stroke:#1f77b4;" x="161.51294" xlink:href="#m9cb925fd05" y="276.610683"/>
     <use style="fill:#1f77b4;stroke:#1f77b4;" x="161.51294" xlink:href="#m9cb925fd05" y="194.711128"/>
     <use style="fill:#1f77b4;stroke:#1f77b4;" x="161.51294" xlink:href="#m9cb925fd05" y="244.872536"/>
     <use style="fill:#1f77b4;stroke:#1f77b4;" x="161.51294" xlink:href="#m9cb925fd05" y="201.532431"/>
     <use style="fill:#1f77b4;stroke:#1f77b4;" x="161.51294" xlink:href="#m9cb925fd05" y="265.981748"/>
     <use style="fill:#1f77b4;stroke:#1f77b4;" x="161.51294" xlink:href="#m9cb925fd05" y="228.854806"/>
     <use style="fill:#1f77b4;stroke:#1f77b4;" x="161.51294" xlink:href="#m9cb925fd05" y="278.874314"/>
     <use style="fill:#1f77b4;stroke:#1f77b4;" x="161.51294" xlink:href="#m9cb925fd05" y="339.44505"/>
     <use style="fill:#1f77b4;stroke:#1f77b4;" x="161.51294" xlink:href="#m9cb925fd05" y="168.155685"/>
     <use style="fill:#1f77b4;stroke:#1f77b4;" x="161.51294" xlink:href="#m9cb925fd05" y="193.873247"/>
     <use style="fill:#1f77b4;stroke:#1f77b4;" x="161.51294" xlink:href="#m9cb925fd05" y="229.277126"/>
     <use style="fill:#1f77b4;stroke:#1f77b4;" x="161.51294" xlink:href="#m9cb925fd05" y="144.799734"/>
     <use style="fill:#1f77b4;stroke:#1f77b4;" x="161.51294" xlink:href="#m9cb925fd05" y="240.314865"/>
     <use style="fill:#1f77b4;stroke:#1f77b4;" x="161.51294" xlink:href="#m9cb925fd05" y="304.412812"/>
     <use style="fill:#1f77b4;stroke:#1f77b4;" x="161.51294" xlink:href="#m9cb925fd05" y="288.040334"/>
     <use style="fill:#1f77b4;stroke:#1f77b4;" x="161.51294" xlink:href="#m9cb925fd05" y="197.518708"/>
     <use style="fill:#1f77b4;stroke:#1f77b4;" x="161.51294" xlink:href="#m9cb925fd05" y="284.550287"/>
     <use style="fill:#1f77b4;stroke:#1f77b4;" x="161.51294" xlink:href="#m9cb925fd05" y="305.939919"/>
     <use style="fill:#1f77b4;stroke:#1f77b4;" x="161.51294" xlink:href="#m9cb925fd05" y="370.798042"/>
     <use style="fill:#1f77b4;stroke:#1f77b4;" x="161.51294" xlink:href="#m9cb925fd05" y="226.334404"/>
     <use style="fill:#1f77b4;stroke:#1f77b4;" x="161.51294" xlink:href="#m9cb925fd05" y="265.268873"/>
     <use style="fill:#1f77b4;stroke:#1f77b4;" x="161.51294" xlink:href="#m9cb925fd05" y="276.516083"/>
     <use style="fill:#1f77b4;stroke:#1f77b4;" x="161.51294" xlink:href="#m9cb925fd05" y="322.224555"/>
     <use style="fill:#1f77b4;stroke:#1f77b4;" x="161.51294" xlink:href="#m9cb925fd05" y="252.399957"/>
     <use style="fill:#1f77b4;stroke:#1f77b4;" x="161.51294" xlink:href="#m9cb925fd05" y="308.362343"/>
     <use style="fill:#1f77b4;stroke:#1f77b4;" x="161.51294" xlink:href="#m9cb925fd05" y="329.400606"/>
     <use style="fill:#1f77b4;stroke:#1f77b4;" x="161.51294" xlink:href="#m9cb925fd05" y="378.058557"/>
     <use style="fill:#1f77b4;stroke:#1f77b4;" x="161.51294" xlink:href="#m9cb925fd05" y="122.403292"/>
     <use style="fill:#1f77b4;stroke:#1f77b4;" x="161.51294" xlink:href="#m9cb925fd05" y="219.631351"/>
     <use style="fill:#1f77b4;stroke:#1f77b4;" x="161.51294" xlink:href="#m9cb925fd05" y="187.680355"/>
     <use style="fill:#1f77b4;stroke:#1f77b4;" x="161.51294" xlink:href="#m9cb925fd05" y="248.859231"/>
     <use style="fill:#1f77b4;stroke:#1f77b4;" x="161.51294" xlink:href="#m9cb925fd05" y="330.545936"/>
     <use style="fill:#1f77b4;stroke:#1f77b4;" x="161.51294" xlink:href="#m9cb925fd05" y="295.429234"/>
     <use style="fill:#1f77b4;stroke:#1f77b4;" x="161.51294" xlink:href="#m9cb925fd05" y="316.795217"/>
     <use style="fill:#1f77b4;stroke:#1f77b4;" x="161.51294" xlink:href="#m9cb925fd05" y="182.849021"/>
     <use style="fill:#1f77b4;stroke:#1f77b4;" x="161.51294" xlink:href="#m9cb925fd05" y="123.372937"/>
     <use style="fill:#1f77b4;stroke:#1f77b4;" x="161.51294" xlink:href="#m9cb925fd05" y="207.921279"/>
     <use style="fill:#1f77b4;stroke:#1f77b4;" x="161.51294" xlink:href="#m9cb925fd05" y="286.607827"/>
     <use style="fill:#1f77b4;stroke:#1f77b4;" x="161.51294" xlink:href="#m9cb925fd05" y="277.62087"/>
     <use style="fill:#1f77b4;stroke:#1f77b4;" x="161.51294" xlink:href="#m9cb925fd05" y="208.276027"/>
     <use style="fill:#1f77b4;stroke:#1f77b4;" x="161.51294" xlink:href="#m9cb925fd05" y="345.651456"/>
     <use style="fill:#1f77b4;stroke:#1f77b4;" x="161.51294" xlink:href="#m9cb925fd05" y="289.141743"/>
     <use style="fill:#1f77b4;stroke:#1f77b4;" x="161.51294" xlink:href="#m9cb925fd05" y="210.789672"/>
     <use style="fill:#1f77b4;stroke:#1f77b4;" x="161.51294" xlink:href="#m9cb925fd05" y="265.049267"/>
     <use style="fill:#1f77b4;stroke:#1f77b4;" x="161.51294" xlink:href="#m9cb925fd05" y="79.43145"/>
     <use style="fill:#1f77b4;stroke:#1f77b4;" x="161.51294" xlink:href="#m9cb925fd05" y="289.280264"/>
     <use style="fill:#1f77b4;stroke:#1f77b4;" x="161.51294" xlink:href="#m9cb925fd05" y="142.434745"/>
     <use style="fill:#1f77b4;stroke:#1f77b4;" x="161.51294" xlink:href="#m9cb925fd05" y="242.94676"/>
     <use style="fill:#1f77b4;stroke:#1f77b4;" x="161.51294" xlink:href="#m9cb925fd05" y="314.132915"/>
     <use style="fill:#1f77b4;stroke:#1f77b4;" x="161.51294" xlink:href="#m9cb925fd05" y="249.899826"/>
     <use style="fill:#1f77b4;stroke:#1f77b4;" x="161.51294" xlink:href="#m9cb925fd05" y="323.369885"/>
     <use style="fill:#1f77b4;stroke:#1f77b4;" x="161.51294" xlink:href="#m9cb925fd05" y="133.714695"/>
     <use style="fill:#1f77b4;stroke:#1f77b4;" x="161.51294" xlink:href="#m9cb925fd05" y="184.440321"/>
     <use style="fill:#1f77b4;stroke:#1f77b4;" x="161.51294" xlink:href="#m9cb925fd05" y="181.653013"/>
     <use style="fill:#1f77b4;stroke:#1f77b4;" x="161.51294" xlink:href="#m9cb925fd05" y="268.779192"/>
     <use style="fill:#1f77b4;stroke:#1f77b4;" x="161.51294" xlink:href="#m9cb925fd05" y="289.854619"/>
     <use style="fill:#1f77b4;stroke:#1f77b4;" x="161.51294" xlink:href="#m9cb925fd05" y="189.443961"/>
     <use style="fill:#1f77b4;stroke:#1f77b4;" x="161.51294" xlink:href="#m9cb925fd05" y="266.241897"/>
     <use style="fill:#1f77b4;stroke:#1f77b4;" x="161.51294" xlink:href="#m9cb925fd05" y="236.301142"/>
     <use style="fill:#1f77b4;stroke:#1f77b4;" x="161.51294" xlink:href="#m9cb925fd05" y="236.365334"/>
     <use style="fill:#1f77b4;stroke:#1f77b4;" x="161.51294" xlink:href="#m9cb925fd05" y="297.540831"/>
     <use style="fill:#1f77b4;stroke:#1f77b4;" x="161.51294" xlink:href="#m9cb925fd05" y="265.576322"/>
     <use style="fill:#1f77b4;stroke:#1f77b4;" x="161.51294" xlink:href="#m9cb925fd05" y="280.566971"/>
     <use style="fill:#1f77b4;stroke:#1f77b4;" x="161.51294" xlink:href="#m9cb925fd05" y="211.093742"/>
     <use style="fill:#1f77b4;stroke:#1f77b4;" x="161.51294" xlink:href="#m9cb925fd05" y="258.254993"/>
     <use style="fill:#1f77b4;stroke:#1f77b4;" x="161.51294" xlink:href="#m9cb925fd05" y="210.789672"/>
     <use style="fill:#1f77b4;stroke:#1f77b4;" x="161.51294" xlink:href="#m9cb925fd05" y="207.63748"/>
     <use style="fill:#1f77b4;stroke:#1f77b4;" x="161.51294" xlink:href="#m9cb925fd05" y="78.394233"/>
    </g>
   </g>
   <g id="matplotlib.axis_1">
    <g id="xtick_1">
     <g id="line2d_1">
      <defs>
       <path d="M 0 0 
L 0 3.5 
" id="m61fc09121d" style="stroke:#000000;stroke-width:0.8;"/>
      </defs>
      <g>
       <use style="stroke:#000000;stroke-width:0.8;" x="155.149372" xlink:href="#m61fc09121d" y="448.56"/>
      </g>
     </g>
     <g id="text_1">
      <!-- 0 -->
      <defs>
       <path d="M 31.78125 66.40625 
Q 24.171875 66.40625 20.328125 58.90625 
Q 16.5 51.421875 16.5 36.375 
Q 16.5 21.390625 20.328125 13.890625 
Q 24.171875 6.390625 31.78125 6.390625 
Q 39.453125 6.390625 43.28125 13.890625 
Q 47.125 21.390625 47.125 36.375 
Q 47.125 51.421875 43.28125 58.90625 
Q 39.453125 66.40625 31.78125 66.40625 
z
M 31.78125 74.21875 
Q 44.046875 74.21875 50.515625 64.515625 
Q 56.984375 54.828125 56.984375 36.375 
Q 56.984375 17.96875 50.515625 8.265625 
Q 44.046875 -1.421875 31.78125 -1.421875 
Q 19.53125 -1.421875 13.0625 8.265625 
Q 6.59375 17.96875 6.59375 36.375 
Q 6.59375 54.828125 13.0625 64.515625 
Q 19.53125 74.21875 31.78125 74.21875 
z
" id="DejaVuSans-30"/>
      </defs>
      <g transform="translate(151.968122 463.158437)scale(0.1 -0.1)">
       <use xlink:href="#DejaVuSans-30"/>
      </g>
     </g>
    </g>
    <g id="xtick_2">
     <g id="line2d_2">
      <g>
       <use style="stroke:#000000;stroke-width:0.8;" x="282.42072" xlink:href="#m61fc09121d" y="448.56"/>
      </g>
     </g>
     <g id="text_2">
      <!-- 200 -->
      <defs>
       <path d="M 19.1875 8.296875 
L 53.609375 8.296875 
L 53.609375 0 
L 7.328125 0 
L 7.328125 8.296875 
Q 12.9375 14.109375 22.625 23.890625 
Q 32.328125 33.6875 34.8125 36.53125 
Q 39.546875 41.84375 41.421875 45.53125 
Q 43.3125 49.21875 43.3125 52.78125 
Q 43.3125 58.59375 39.234375 62.25 
Q 35.15625 65.921875 28.609375 65.921875 
Q 23.96875 65.921875 18.8125 64.3125 
Q 13.671875 62.703125 7.8125 59.421875 
L 7.8125 69.390625 
Q 13.765625 71.78125 18.9375 73 
Q 24.125 74.21875 28.421875 74.21875 
Q 39.75 74.21875 46.484375 68.546875 
Q 53.21875 62.890625 53.21875 53.421875 
Q 53.21875 48.921875 51.53125 44.890625 
Q 49.859375 40.875 45.40625 35.40625 
Q 44.1875 33.984375 37.640625 27.21875 
Q 31.109375 20.453125 19.1875 8.296875 
z
" id="DejaVuSans-32"/>
      </defs>
      <g transform="translate(272.87697 463.158437)scale(0.1 -0.1)">
       <use xlink:href="#DejaVuSans-32"/>
       <use x="63.623047" xlink:href="#DejaVuSans-30"/>
       <use x="127.246094" xlink:href="#DejaVuSans-30"/>
      </g>
     </g>
    </g>
    <g id="xtick_3">
     <g id="line2d_3">
      <g>
       <use style="stroke:#000000;stroke-width:0.8;" x="409.692068" xlink:href="#m61fc09121d" y="448.56"/>
      </g>
     </g>
     <g id="text_3">
      <!-- 400 -->
      <defs>
       <path d="M 37.796875 64.3125 
L 12.890625 25.390625 
L 37.796875 25.390625 
z
M 35.203125 72.90625 
L 47.609375 72.90625 
L 47.609375 25.390625 
L 58.015625 25.390625 
L 58.015625 17.1875 
L 47.609375 17.1875 
L 47.609375 0 
L 37.796875 0 
L 37.796875 17.1875 
L 4.890625 17.1875 
L 4.890625 26.703125 
z
" id="DejaVuSans-34"/>
      </defs>
      <g transform="translate(400.148318 463.158437)scale(0.1 -0.1)">
       <use xlink:href="#DejaVuSans-34"/>
       <use x="63.623047" xlink:href="#DejaVuSans-30"/>
       <use x="127.246094" xlink:href="#DejaVuSans-30"/>
      </g>
     </g>
    </g>
    <g id="xtick_4">
     <g id="line2d_4">
      <g>
       <use style="stroke:#000000;stroke-width:0.8;" x="536.963416" xlink:href="#m61fc09121d" y="448.56"/>
      </g>
     </g>
     <g id="text_4">
      <!-- 600 -->
      <defs>
       <path d="M 33.015625 40.375 
Q 26.375 40.375 22.484375 35.828125 
Q 18.609375 31.296875 18.609375 23.390625 
Q 18.609375 15.53125 22.484375 10.953125 
Q 26.375 6.390625 33.015625 6.390625 
Q 39.65625 6.390625 43.53125 10.953125 
Q 47.40625 15.53125 47.40625 23.390625 
Q 47.40625 31.296875 43.53125 35.828125 
Q 39.65625 40.375 33.015625 40.375 
z
M 52.59375 71.296875 
L 52.59375 62.3125 
Q 48.875 64.0625 45.09375 64.984375 
Q 41.3125 65.921875 37.59375 65.921875 
Q 27.828125 65.921875 22.671875 59.328125 
Q 17.53125 52.734375 16.796875 39.40625 
Q 19.671875 43.65625 24.015625 45.921875 
Q 28.375 48.1875 33.59375 48.1875 
Q 44.578125 48.1875 50.953125 41.515625 
Q 57.328125 34.859375 57.328125 23.390625 
Q 57.328125 12.15625 50.6875 5.359375 
Q 44.046875 -1.421875 33.015625 -1.421875 
Q 20.359375 -1.421875 13.671875 8.265625 
Q 6.984375 17.96875 6.984375 36.375 
Q 6.984375 53.65625 15.1875 63.9375 
Q 23.390625 74.21875 37.203125 74.21875 
Q 40.921875 74.21875 44.703125 73.484375 
Q 48.484375 72.75 52.59375 71.296875 
z
" id="DejaVuSans-36"/>
      </defs>
      <g transform="translate(527.419666 463.158437)scale(0.1 -0.1)">
       <use xlink:href="#DejaVuSans-36"/>
       <use x="63.623047" xlink:href="#DejaVuSans-30"/>
       <use x="127.246094" xlink:href="#DejaVuSans-30"/>
      </g>
     </g>
    </g>
    <g id="xtick_5">
     <g id="line2d_5">
      <g>
       <use style="stroke:#000000;stroke-width:0.8;" x="664.234763" xlink:href="#m61fc09121d" y="448.56"/>
      </g>
     </g>
     <g id="text_5">
      <!-- 800 -->
      <defs>
       <path d="M 31.78125 34.625 
Q 24.75 34.625 20.71875 30.859375 
Q 16.703125 27.09375 16.703125 20.515625 
Q 16.703125 13.921875 20.71875 10.15625 
Q 24.75 6.390625 31.78125 6.390625 
Q 38.8125 6.390625 42.859375 10.171875 
Q 46.921875 13.96875 46.921875 20.515625 
Q 46.921875 27.09375 42.890625 30.859375 
Q 38.875 34.625 31.78125 34.625 
z
M 21.921875 38.8125 
Q 15.578125 40.375 12.03125 44.71875 
Q 8.5 49.078125 8.5 55.328125 
Q 8.5 64.0625 14.71875 69.140625 
Q 20.953125 74.21875 31.78125 74.21875 
Q 42.671875 74.21875 48.875 69.140625 
Q 55.078125 64.0625 55.078125 55.328125 
Q 55.078125 49.078125 51.53125 44.71875 
Q 48 40.375 41.703125 38.8125 
Q 48.828125 37.15625 52.796875 32.3125 
Q 56.78125 27.484375 56.78125 20.515625 
Q 56.78125 9.90625 50.3125 4.234375 
Q 43.84375 -1.421875 31.78125 -1.421875 
Q 19.734375 -1.421875 13.25 4.234375 
Q 6.78125 9.90625 6.78125 20.515625 
Q 6.78125 27.484375 10.78125 32.3125 
Q 14.796875 37.15625 21.921875 38.8125 
z
M 18.3125 54.390625 
Q 18.3125 48.734375 21.84375 45.5625 
Q 25.390625 42.390625 31.78125 42.390625 
Q 38.140625 42.390625 41.71875 45.5625 
Q 45.3125 48.734375 45.3125 54.390625 
Q 45.3125 60.0625 41.71875 63.234375 
Q 38.140625 66.40625 31.78125 66.40625 
Q 25.390625 66.40625 21.84375 63.234375 
Q 18.3125 60.0625 18.3125 54.390625 
z
" id="DejaVuSans-38"/>
      </defs>
      <g transform="translate(654.691013 463.158437)scale(0.1 -0.1)">
       <use xlink:href="#DejaVuSans-38"/>
       <use x="63.623047" xlink:href="#DejaVuSans-30"/>
       <use x="127.246094" xlink:href="#DejaVuSans-30"/>
      </g>
     </g>
    </g>
    <g id="xtick_6">
     <g id="line2d_6">
      <g>
       <use style="stroke:#000000;stroke-width:0.8;" x="791.506111" xlink:href="#m61fc09121d" y="448.56"/>
      </g>
     </g>
     <g id="text_6">
      <!-- 1000 -->
      <defs>
       <path d="M 12.40625 8.296875 
L 28.515625 8.296875 
L 28.515625 63.921875 
L 10.984375 60.40625 
L 10.984375 69.390625 
L 28.421875 72.90625 
L 38.28125 72.90625 
L 38.28125 8.296875 
L 54.390625 8.296875 
L 54.390625 0 
L 12.40625 0 
z
" id="DejaVuSans-31"/>
      </defs>
      <g transform="translate(778.781111 463.158437)scale(0.1 -0.1)">
       <use xlink:href="#DejaVuSans-31"/>
       <use x="63.623047" xlink:href="#DejaVuSans-30"/>
       <use x="127.246094" xlink:href="#DejaVuSans-30"/>
       <use x="190.869141" xlink:href="#DejaVuSans-30"/>
      </g>
     </g>
    </g>
    <g id="text_7">
     <!-- length of chunk in sentences -->
     <defs>
      <path d="M 9.421875 75.984375 
L 18.40625 75.984375 
L 18.40625 0 
L 9.421875 0 
z
" id="DejaVuSans-6c"/>
      <path d="M 56.203125 29.59375 
L 56.203125 25.203125 
L 14.890625 25.203125 
Q 15.484375 15.921875 20.484375 11.0625 
Q 25.484375 6.203125 34.421875 6.203125 
Q 39.59375 6.203125 44.453125 7.46875 
Q 49.3125 8.734375 54.109375 11.28125 
L 54.109375 2.78125 
Q 49.265625 0.734375 44.1875 -0.34375 
Q 39.109375 -1.421875 33.890625 -1.421875 
Q 20.796875 -1.421875 13.15625 6.1875 
Q 5.515625 13.8125 5.515625 26.8125 
Q 5.515625 40.234375 12.765625 48.109375 
Q 20.015625 56 32.328125 56 
Q 43.359375 56 49.78125 48.890625 
Q 56.203125 41.796875 56.203125 29.59375 
z
M 47.21875 32.234375 
Q 47.125 39.59375 43.09375 43.984375 
Q 39.0625 48.390625 32.421875 48.390625 
Q 24.90625 48.390625 20.390625 44.140625 
Q 15.875 39.890625 15.1875 32.171875 
z
" id="DejaVuSans-65"/>
      <path d="M 54.890625 33.015625 
L 54.890625 0 
L 45.90625 0 
L 45.90625 32.71875 
Q 45.90625 40.484375 42.875 44.328125 
Q 39.84375 48.1875 33.796875 48.1875 
Q 26.515625 48.1875 22.3125 43.546875 
Q 18.109375 38.921875 18.109375 30.90625 
L 18.109375 0 
L 9.078125 0 
L 9.078125 54.6875 
L 18.109375 54.6875 
L 18.109375 46.1875 
Q 21.34375 51.125 25.703125 53.5625 
Q 30.078125 56 35.796875 56 
Q 45.21875 56 50.046875 50.171875 
Q 54.890625 44.34375 54.890625 33.015625 
z
" id="DejaVuSans-6e"/>
      <path d="M 45.40625 27.984375 
Q 45.40625 37.75 41.375 43.109375 
Q 37.359375 48.484375 30.078125 48.484375 
Q 22.859375 48.484375 18.828125 43.109375 
Q 14.796875 37.75 14.796875 27.984375 
Q 14.796875 18.265625 18.828125 12.890625 
Q 22.859375 7.515625 30.078125 7.515625 
Q 37.359375 7.515625 41.375 12.890625 
Q 45.40625 18.265625 45.40625 27.984375 
z
M 54.390625 6.78125 
Q 54.390625 -7.171875 48.1875 -13.984375 
Q 42 -20.796875 29.203125 -20.796875 
Q 24.46875 -20.796875 20.265625 -20.09375 
Q 16.0625 -19.390625 12.109375 -17.921875 
L 12.109375 -9.1875 
Q 16.0625 -11.328125 19.921875 -12.34375 
Q 23.78125 -13.375 27.78125 -13.375 
Q 36.625 -13.375 41.015625 -8.765625 
Q 45.40625 -4.15625 45.40625 5.171875 
L 45.40625 9.625 
Q 42.625 4.78125 38.28125 2.390625 
Q 33.9375 0 27.875 0 
Q 17.828125 0 11.671875 7.65625 
Q 5.515625 15.328125 5.515625 27.984375 
Q 5.515625 40.671875 11.671875 48.328125 
Q 17.828125 56 27.875 56 
Q 33.9375 56 38.28125 53.609375 
Q 42.625 51.21875 45.40625 46.390625 
L 45.40625 54.6875 
L 54.390625 54.6875 
z
" id="DejaVuSans-67"/>
      <path d="M 18.3125 70.21875 
L 18.3125 54.6875 
L 36.8125 54.6875 
L 36.8125 47.703125 
L 18.3125 47.703125 
L 18.3125 18.015625 
Q 18.3125 11.328125 20.140625 9.421875 
Q 21.96875 7.515625 27.59375 7.515625 
L 36.8125 7.515625 
L 36.8125 0 
L 27.59375 0 
Q 17.1875 0 13.234375 3.875 
Q 9.28125 7.765625 9.28125 18.015625 
L 9.28125 47.703125 
L 2.6875 47.703125 
L 2.6875 54.6875 
L 9.28125 54.6875 
L 9.28125 70.21875 
z
" id="DejaVuSans-74"/>
      <path d="M 54.890625 33.015625 
L 54.890625 0 
L 45.90625 0 
L 45.90625 32.71875 
Q 45.90625 40.484375 42.875 44.328125 
Q 39.84375 48.1875 33.796875 48.1875 
Q 26.515625 48.1875 22.3125 43.546875 
Q 18.109375 38.921875 18.109375 30.90625 
L 18.109375 0 
L 9.078125 0 
L 9.078125 75.984375 
L 18.109375 75.984375 
L 18.109375 46.1875 
Q 21.34375 51.125 25.703125 53.5625 
Q 30.078125 56 35.796875 56 
Q 45.21875 56 50.046875 50.171875 
Q 54.890625 44.34375 54.890625 33.015625 
z
" id="DejaVuSans-68"/>
      <path id="DejaVuSans-20"/>
      <path d="M 30.609375 48.390625 
Q 23.390625 48.390625 19.1875 42.75 
Q 14.984375 37.109375 14.984375 27.296875 
Q 14.984375 17.484375 19.15625 11.84375 
Q 23.34375 6.203125 30.609375 6.203125 
Q 37.796875 6.203125 41.984375 11.859375 
Q 46.1875 17.53125 46.1875 27.296875 
Q 46.1875 37.015625 41.984375 42.703125 
Q 37.796875 48.390625 30.609375 48.390625 
z
M 30.609375 56 
Q 42.328125 56 49.015625 48.375 
Q 55.71875 40.765625 55.71875 27.296875 
Q 55.71875 13.875 49.015625 6.21875 
Q 42.328125 -1.421875 30.609375 -1.421875 
Q 18.84375 -1.421875 12.171875 6.21875 
Q 5.515625 13.875 5.515625 27.296875 
Q 5.515625 40.765625 12.171875 48.375 
Q 18.84375 56 30.609375 56 
z
" id="DejaVuSans-6f"/>
      <path d="M 37.109375 75.984375 
L 37.109375 68.5 
L 28.515625 68.5 
Q 23.6875 68.5 21.796875 66.546875 
Q 19.921875 64.59375 19.921875 59.515625 
L 19.921875 54.6875 
L 34.71875 54.6875 
L 34.71875 47.703125 
L 19.921875 47.703125 
L 19.921875 0 
L 10.890625 0 
L 10.890625 47.703125 
L 2.296875 47.703125 
L 2.296875 54.6875 
L 10.890625 54.6875 
L 10.890625 58.5 
Q 10.890625 67.625 15.140625 71.796875 
Q 19.390625 75.984375 28.609375 75.984375 
z
" id="DejaVuSans-66"/>
      <path d="M 48.78125 52.59375 
L 48.78125 44.1875 
Q 44.96875 46.296875 41.140625 47.34375 
Q 37.3125 48.390625 33.40625 48.390625 
Q 24.65625 48.390625 19.8125 42.84375 
Q 14.984375 37.3125 14.984375 27.296875 
Q 14.984375 17.28125 19.8125 11.734375 
Q 24.65625 6.203125 33.40625 6.203125 
Q 37.3125 6.203125 41.140625 7.25 
Q 44.96875 8.296875 48.78125 10.40625 
L 48.78125 2.09375 
Q 45.015625 0.34375 40.984375 -0.53125 
Q 36.96875 -1.421875 32.421875 -1.421875 
Q 20.0625 -1.421875 12.78125 6.34375 
Q 5.515625 14.109375 5.515625 27.296875 
Q 5.515625 40.671875 12.859375 48.328125 
Q 20.21875 56 33.015625 56 
Q 37.15625 56 41.109375 55.140625 
Q 45.0625 54.296875 48.78125 52.59375 
z
" id="DejaVuSans-63"/>
      <path d="M 8.5 21.578125 
L 8.5 54.6875 
L 17.484375 54.6875 
L 17.484375 21.921875 
Q 17.484375 14.15625 20.5 10.265625 
Q 23.53125 6.390625 29.59375 6.390625 
Q 36.859375 6.390625 41.078125 11.03125 
Q 45.3125 15.671875 45.3125 23.6875 
L 45.3125 54.6875 
L 54.296875 54.6875 
L 54.296875 0 
L 45.3125 0 
L 45.3125 8.40625 
Q 42.046875 3.421875 37.71875 1 
Q 33.40625 -1.421875 27.6875 -1.421875 
Q 18.265625 -1.421875 13.375 4.4375 
Q 8.5 10.296875 8.5 21.578125 
z
M 31.109375 56 
z
" id="DejaVuSans-75"/>
      <path d="M 9.078125 75.984375 
L 18.109375 75.984375 
L 18.109375 31.109375 
L 44.921875 54.6875 
L 56.390625 54.6875 
L 27.390625 29.109375 
L 57.625 0 
L 45.90625 0 
L 18.109375 26.703125 
L 18.109375 0 
L 9.078125 0 
z
" id="DejaVuSans-6b"/>
      <path d="M 9.421875 54.6875 
L 18.40625 54.6875 
L 18.40625 0 
L 9.421875 0 
z
M 9.421875 75.984375 
L 18.40625 75.984375 
L 18.40625 64.59375 
L 9.421875 64.59375 
z
" id="DejaVuSans-69"/>
      <path d="M 44.28125 53.078125 
L 44.28125 44.578125 
Q 40.484375 46.53125 36.375 47.5 
Q 32.28125 48.484375 27.875 48.484375 
Q 21.1875 48.484375 17.84375 46.4375 
Q 14.5 44.390625 14.5 40.28125 
Q 14.5 37.15625 16.890625 35.375 
Q 19.28125 33.59375 26.515625 31.984375 
L 29.59375 31.296875 
Q 39.15625 29.25 43.1875 25.515625 
Q 47.21875 21.78125 47.21875 15.09375 
Q 47.21875 7.46875 41.1875 3.015625 
Q 35.15625 -1.421875 24.609375 -1.421875 
Q 20.21875 -1.421875 15.453125 -0.5625 
Q 10.6875 0.296875 5.421875 2 
L 5.421875 11.28125 
Q 10.40625 8.6875 15.234375 7.390625 
Q 20.0625 6.109375 24.8125 6.109375 
Q 31.15625 6.109375 34.5625 8.28125 
Q 37.984375 10.453125 37.984375 14.40625 
Q 37.984375 18.0625 35.515625 20.015625 
Q 33.0625 21.96875 24.703125 23.78125 
L 21.578125 24.515625 
Q 13.234375 26.265625 9.515625 29.90625 
Q 5.8125 33.546875 5.8125 39.890625 
Q 5.8125 47.609375 11.28125 51.796875 
Q 16.75 56 26.8125 56 
Q 31.78125 56 36.171875 55.265625 
Q 40.578125 54.546875 44.28125 53.078125 
z
" id="DejaVuSans-73"/>
     </defs>
     <g transform="translate(444.292188 476.836563)scale(0.1 -0.1)">
      <use xlink:href="#DejaVuSans-6c"/>
      <use x="27.783203" xlink:href="#DejaVuSans-65"/>
      <use x="89.306641" xlink:href="#DejaVuSans-6e"/>
      <use x="152.685547" xlink:href="#DejaVuSans-67"/>
      <use x="216.162109" xlink:href="#DejaVuSans-74"/>
      <use x="255.371094" xlink:href="#DejaVuSans-68"/>
      <use x="318.75" xlink:href="#DejaVuSans-20"/>
      <use x="350.537109" xlink:href="#DejaVuSans-6f"/>
      <use x="411.71875" xlink:href="#DejaVuSans-66"/>
      <use x="446.923828" xlink:href="#DejaVuSans-20"/>
      <use x="478.710938" xlink:href="#DejaVuSans-63"/>
      <use x="533.691406" xlink:href="#DejaVuSans-68"/>
      <use x="597.070312" xlink:href="#DejaVuSans-75"/>
      <use x="660.449219" xlink:href="#DejaVuSans-6e"/>
      <use x="723.828125" xlink:href="#DejaVuSans-6b"/>
      <use x="781.738281" xlink:href="#DejaVuSans-20"/>
      <use x="813.525391" xlink:href="#DejaVuSans-69"/>
      <use x="841.308594" xlink:href="#DejaVuSans-6e"/>
      <use x="904.6875" xlink:href="#DejaVuSans-20"/>
      <use x="936.474609" xlink:href="#DejaVuSans-73"/>
      <use x="988.574219" xlink:href="#DejaVuSans-65"/>
      <use x="1050.097656" xlink:href="#DejaVuSans-6e"/>
      <use x="1113.476562" xlink:href="#DejaVuSans-74"/>
      <use x="1152.685547" xlink:href="#DejaVuSans-65"/>
      <use x="1214.208984" xlink:href="#DejaVuSans-6e"/>
      <use x="1277.587891" xlink:href="#DejaVuSans-63"/>
      <use x="1332.568359" xlink:href="#DejaVuSans-65"/>
      <use x="1394.091797" xlink:href="#DejaVuSans-73"/>
     </g>
    </g>
   </g>
   <g id="matplotlib.axis_2">
    <g id="ytick_1">
     <g id="line2d_7">
      <defs>
       <path d="M 0 0 
L -3.5 0 
" id="mdc1fc53e66" style="stroke:#000000;stroke-width:0.8;"/>
      </defs>
      <g>
       <use style="stroke:#000000;stroke-width:0.8;" x="126" xlink:href="#mdc1fc53e66" y="404.272766"/>
      </g>
     </g>
     <g id="text_8">
      <!-- 10 -->
      <g transform="translate(106.275 408.071984)scale(0.1 -0.1)">
       <use xlink:href="#DejaVuSans-31"/>
       <use x="63.623047" xlink:href="#DejaVuSans-30"/>
      </g>
     </g>
    </g>
    <g id="ytick_2">
     <g id="line2d_8">
      <g>
       <use style="stroke:#000000;stroke-width:0.8;" x="126" xlink:href="#mdc1fc53e66" y="336.701664"/>
      </g>
     </g>
     <g id="text_9">
      <!-- 12 -->
      <g transform="translate(106.275 340.500882)scale(0.1 -0.1)">
       <use xlink:href="#DejaVuSans-31"/>
       <use x="63.623047" xlink:href="#DejaVuSans-32"/>
      </g>
     </g>
    </g>
    <g id="ytick_3">
     <g id="line2d_9">
      <g>
       <use style="stroke:#000000;stroke-width:0.8;" x="126" xlink:href="#mdc1fc53e66" y="269.130562"/>
      </g>
     </g>
     <g id="text_10">
      <!-- 14 -->
      <g transform="translate(106.275 272.92978)scale(0.1 -0.1)">
       <use xlink:href="#DejaVuSans-31"/>
       <use x="63.623047" xlink:href="#DejaVuSans-34"/>
      </g>
     </g>
    </g>
    <g id="ytick_4">
     <g id="line2d_10">
      <g>
       <use style="stroke:#000000;stroke-width:0.8;" x="126" xlink:href="#mdc1fc53e66" y="201.55946"/>
      </g>
     </g>
     <g id="text_11">
      <!-- 16 -->
      <g transform="translate(106.275 205.358678)scale(0.1 -0.1)">
       <use xlink:href="#DejaVuSans-31"/>
       <use x="63.623047" xlink:href="#DejaVuSans-36"/>
      </g>
     </g>
    </g>
    <g id="ytick_5">
     <g id="line2d_11">
      <g>
       <use style="stroke:#000000;stroke-width:0.8;" x="126" xlink:href="#mdc1fc53e66" y="133.988358"/>
      </g>
     </g>
     <g id="text_12">
      <!-- 18 -->
      <g transform="translate(106.275 137.787576)scale(0.1 -0.1)">
       <use xlink:href="#DejaVuSans-31"/>
       <use x="63.623047" xlink:href="#DejaVuSans-38"/>
      </g>
     </g>
    </g>
    <g id="ytick_6">
     <g id="line2d_12">
      <g>
       <use style="stroke:#000000;stroke-width:0.8;" x="126" xlink:href="#mdc1fc53e66" y="66.417256"/>
      </g>
     </g>
     <g id="text_13">
      <!-- 20 -->
      <g transform="translate(106.275 70.216474)scale(0.1 -0.1)">
       <use xlink:href="#DejaVuSans-32"/>
       <use x="63.623047" xlink:href="#DejaVuSans-30"/>
      </g>
     </g>
    </g>
    <g id="text_14">
     <!-- GFI -->
     <defs>
      <path d="M 59.515625 10.40625 
L 59.515625 29.984375 
L 43.40625 29.984375 
L 43.40625 38.09375 
L 69.28125 38.09375 
L 69.28125 6.78125 
Q 63.578125 2.734375 56.6875 0.65625 
Q 49.8125 -1.421875 42 -1.421875 
Q 24.90625 -1.421875 15.25 8.5625 
Q 5.609375 18.5625 5.609375 36.375 
Q 5.609375 54.25 15.25 64.234375 
Q 24.90625 74.21875 42 74.21875 
Q 49.125 74.21875 55.546875 72.453125 
Q 61.96875 70.703125 67.390625 67.28125 
L 67.390625 56.78125 
Q 61.921875 61.421875 55.765625 63.765625 
Q 49.609375 66.109375 42.828125 66.109375 
Q 29.4375 66.109375 22.71875 58.640625 
Q 16.015625 51.171875 16.015625 36.375 
Q 16.015625 21.625 22.71875 14.15625 
Q 29.4375 6.6875 42.828125 6.6875 
Q 48.046875 6.6875 52.140625 7.59375 
Q 56.25 8.5 59.515625 10.40625 
z
" id="DejaVuSans-47"/>
      <path d="M 9.8125 72.90625 
L 51.703125 72.90625 
L 51.703125 64.59375 
L 19.671875 64.59375 
L 19.671875 43.109375 
L 48.578125 43.109375 
L 48.578125 34.8125 
L 19.671875 34.8125 
L 19.671875 0 
L 9.8125 0 
z
" id="DejaVuSans-46"/>
      <path d="M 9.8125 72.90625 
L 19.671875 72.90625 
L 19.671875 0 
L 9.8125 0 
z
" id="DejaVuSans-49"/>
     </defs>
     <g transform="translate(100.195312 262.745)rotate(-90)scale(0.1 -0.1)">
      <use xlink:href="#DejaVuSans-47"/>
      <use x="77.490234" xlink:href="#DejaVuSans-46"/>
      <use x="135.009766" xlink:href="#DejaVuSans-49"/>
     </g>
    </g>
   </g>
   <g id="line2d_13">
    <path clip-path="url(#p732b1fc8f4)" d="M 161.51294 251.703311 
L 167.876507 251.631094 
L 174.240075 252.549709 
L 180.603642 251.13879 
L 186.967209 253.024529 
L 202.876128 249.881807 
L 218.785046 253.036968 
L 250.602883 253.163993 
L 282.42072 253.363521 
L 314.238557 253.540219 
L 346.056394 255.848335 
L 377.874231 253.329059 
L 409.692068 257.731317 
L 441.509905 256.335973 
L 473.327742 253.530083 
L 632.416926 258.673933 
L 791.506111 254.011527 
L 871.68706 249.977533 
" style="fill:none;stroke:#ff0000;stroke-linecap:square;stroke-width:1.5;"/>
   </g>
   <g id="patch_3">
    <path d="M 126 448.56 
L 126 60.48 
" style="fill:none;stroke:#000000;stroke-linecap:square;stroke-linejoin:miter;stroke-width:0.8;"/>
   </g>
   <g id="patch_4">
    <path d="M 907.2 448.56 
L 907.2 60.48 
" style="fill:none;stroke:#000000;stroke-linecap:square;stroke-linejoin:miter;stroke-width:0.8;"/>
   </g>
   <g id="patch_5">
    <path d="M 126 448.56 
L 907.2 448.56 
" style="fill:none;stroke:#000000;stroke-linecap:square;stroke-linejoin:miter;stroke-width:0.8;"/>
   </g>
   <g id="patch_6">
    <path d="M 126 60.48 
L 907.2 60.48 
" style="fill:none;stroke:#000000;stroke-linecap:square;stroke-linejoin:miter;stroke-width:0.8;"/>
   </g>
  </g>
  <g id="text_15">
   <!-- GFI values of the different chunk sizes of document de122603393.txt -->
   <defs>
    <path d="M 2.984375 54.6875 
L 12.5 54.6875 
L 29.59375 8.796875 
L 46.6875 54.6875 
L 56.203125 54.6875 
L 35.6875 0 
L 23.484375 0 
z
" id="DejaVuSans-76"/>
    <path d="M 34.28125 27.484375 
Q 23.390625 27.484375 19.1875 25 
Q 14.984375 22.515625 14.984375 16.5 
Q 14.984375 11.71875 18.140625 8.90625 
Q 21.296875 6.109375 26.703125 6.109375 
Q 34.1875 6.109375 38.703125 11.40625 
Q 43.21875 16.703125 43.21875 25.484375 
L 43.21875 27.484375 
z
M 52.203125 31.203125 
L 52.203125 0 
L 43.21875 0 
L 43.21875 8.296875 
Q 40.140625 3.328125 35.546875 0.953125 
Q 30.953125 -1.421875 24.3125 -1.421875 
Q 15.921875 -1.421875 10.953125 3.296875 
Q 6 8.015625 6 15.921875 
Q 6 25.140625 12.171875 29.828125 
Q 18.359375 34.515625 30.609375 34.515625 
L 43.21875 34.515625 
L 43.21875 35.40625 
Q 43.21875 41.609375 39.140625 45 
Q 35.0625 48.390625 27.6875 48.390625 
Q 23 48.390625 18.546875 47.265625 
Q 14.109375 46.140625 10.015625 43.890625 
L 10.015625 52.203125 
Q 14.9375 54.109375 19.578125 55.046875 
Q 24.21875 56 28.609375 56 
Q 40.484375 56 46.34375 49.84375 
Q 52.203125 43.703125 52.203125 31.203125 
z
" id="DejaVuSans-61"/>
    <path d="M 45.40625 46.390625 
L 45.40625 75.984375 
L 54.390625 75.984375 
L 54.390625 0 
L 45.40625 0 
L 45.40625 8.203125 
Q 42.578125 3.328125 38.25 0.953125 
Q 33.9375 -1.421875 27.875 -1.421875 
Q 17.96875 -1.421875 11.734375 6.484375 
Q 5.515625 14.40625 5.515625 27.296875 
Q 5.515625 40.1875 11.734375 48.09375 
Q 17.96875 56 27.875 56 
Q 33.9375 56 38.25 53.625 
Q 42.578125 51.265625 45.40625 46.390625 
z
M 14.796875 27.296875 
Q 14.796875 17.390625 18.875 11.75 
Q 22.953125 6.109375 30.078125 6.109375 
Q 37.203125 6.109375 41.296875 11.75 
Q 45.40625 17.390625 45.40625 27.296875 
Q 45.40625 37.203125 41.296875 42.84375 
Q 37.203125 48.484375 30.078125 48.484375 
Q 22.953125 48.484375 18.875 42.84375 
Q 14.796875 37.203125 14.796875 27.296875 
z
" id="DejaVuSans-64"/>
    <path d="M 41.109375 46.296875 
Q 39.59375 47.171875 37.8125 47.578125 
Q 36.03125 48 33.890625 48 
Q 26.265625 48 22.1875 43.046875 
Q 18.109375 38.09375 18.109375 28.8125 
L 18.109375 0 
L 9.078125 0 
L 9.078125 54.6875 
L 18.109375 54.6875 
L 18.109375 46.1875 
Q 20.953125 51.171875 25.484375 53.578125 
Q 30.03125 56 36.53125 56 
Q 37.453125 56 38.578125 55.875 
Q 39.703125 55.765625 41.0625 55.515625 
z
" id="DejaVuSans-72"/>
    <path d="M 5.515625 54.6875 
L 48.1875 54.6875 
L 48.1875 46.484375 
L 14.40625 7.171875 
L 48.1875 7.171875 
L 48.1875 0 
L 4.296875 0 
L 4.296875 8.203125 
L 38.09375 47.515625 
L 5.515625 47.515625 
z
" id="DejaVuSans-7a"/>
    <path d="M 52 44.1875 
Q 55.375 50.25 60.0625 53.125 
Q 64.75 56 71.09375 56 
Q 79.640625 56 84.28125 50.015625 
Q 88.921875 44.046875 88.921875 33.015625 
L 88.921875 0 
L 79.890625 0 
L 79.890625 32.71875 
Q 79.890625 40.578125 77.09375 44.375 
Q 74.3125 48.1875 68.609375 48.1875 
Q 61.625 48.1875 57.5625 43.546875 
Q 53.515625 38.921875 53.515625 30.90625 
L 53.515625 0 
L 44.484375 0 
L 44.484375 32.71875 
Q 44.484375 40.625 41.703125 44.40625 
Q 38.921875 48.1875 33.109375 48.1875 
Q 26.21875 48.1875 22.15625 43.53125 
Q 18.109375 38.875 18.109375 30.90625 
L 18.109375 0 
L 9.078125 0 
L 9.078125 54.6875 
L 18.109375 54.6875 
L 18.109375 46.1875 
Q 21.1875 51.21875 25.484375 53.609375 
Q 29.78125 56 35.6875 56 
Q 41.65625 56 45.828125 52.96875 
Q 50 49.953125 52 44.1875 
z
" id="DejaVuSans-6d"/>
    <path d="M 40.578125 39.3125 
Q 47.65625 37.796875 51.625 33 
Q 55.609375 28.21875 55.609375 21.1875 
Q 55.609375 10.40625 48.1875 4.484375 
Q 40.765625 -1.421875 27.09375 -1.421875 
Q 22.515625 -1.421875 17.65625 -0.515625 
Q 12.796875 0.390625 7.625 2.203125 
L 7.625 11.71875 
Q 11.71875 9.328125 16.59375 8.109375 
Q 21.484375 6.890625 26.8125 6.890625 
Q 36.078125 6.890625 40.9375 10.546875 
Q 45.796875 14.203125 45.796875 21.1875 
Q 45.796875 27.640625 41.28125 31.265625 
Q 36.765625 34.90625 28.71875 34.90625 
L 20.21875 34.90625 
L 20.21875 43.015625 
L 29.109375 43.015625 
Q 36.375 43.015625 40.234375 45.921875 
Q 44.09375 48.828125 44.09375 54.296875 
Q 44.09375 59.90625 40.109375 62.90625 
Q 36.140625 65.921875 28.71875 65.921875 
Q 24.65625 65.921875 20.015625 65.03125 
Q 15.375 64.15625 9.8125 62.3125 
L 9.8125 71.09375 
Q 15.4375 72.65625 20.34375 73.4375 
Q 25.25 74.21875 29.59375 74.21875 
Q 40.828125 74.21875 47.359375 69.109375 
Q 53.90625 64.015625 53.90625 55.328125 
Q 53.90625 49.265625 50.4375 45.09375 
Q 46.96875 40.921875 40.578125 39.3125 
z
" id="DejaVuSans-33"/>
    <path d="M 10.984375 1.515625 
L 10.984375 10.5 
Q 14.703125 8.734375 18.5 7.8125 
Q 22.3125 6.890625 25.984375 6.890625 
Q 35.75 6.890625 40.890625 13.453125 
Q 46.046875 20.015625 46.78125 33.40625 
Q 43.953125 29.203125 39.59375 26.953125 
Q 35.25 24.703125 29.984375 24.703125 
Q 19.046875 24.703125 12.671875 31.3125 
Q 6.296875 37.9375 6.296875 49.421875 
Q 6.296875 60.640625 12.9375 67.421875 
Q 19.578125 74.21875 30.609375 74.21875 
Q 43.265625 74.21875 49.921875 64.515625 
Q 56.59375 54.828125 56.59375 36.375 
Q 56.59375 19.140625 48.40625 8.859375 
Q 40.234375 -1.421875 26.421875 -1.421875 
Q 22.703125 -1.421875 18.890625 -0.6875 
Q 15.09375 0.046875 10.984375 1.515625 
z
M 30.609375 32.421875 
Q 37.25 32.421875 41.125 36.953125 
Q 45.015625 41.5 45.015625 49.421875 
Q 45.015625 57.28125 41.125 61.84375 
Q 37.25 66.40625 30.609375 66.40625 
Q 23.96875 66.40625 20.09375 61.84375 
Q 16.21875 57.28125 16.21875 49.421875 
Q 16.21875 41.5 20.09375 36.953125 
Q 23.96875 32.421875 30.609375 32.421875 
z
" id="DejaVuSans-39"/>
    <path d="M 10.6875 12.40625 
L 21 12.40625 
L 21 0 
L 10.6875 0 
z
" id="DejaVuSans-2e"/>
    <path d="M 54.890625 54.6875 
L 35.109375 28.078125 
L 55.90625 0 
L 45.3125 0 
L 29.390625 21.484375 
L 13.484375 0 
L 2.875 0 
L 24.125 28.609375 
L 4.6875 54.6875 
L 15.28125 54.6875 
L 29.78125 35.203125 
L 44.28125 54.6875 
z
" id="DejaVuSans-78"/>
   </defs>
   <g transform="translate(260.28625 20.717812)scale(0.14 -0.14)">
    <use xlink:href="#DejaVuSans-47"/>
    <use x="77.490234" xlink:href="#DejaVuSans-46"/>
    <use x="135.009766" xlink:href="#DejaVuSans-49"/>
    <use x="164.501953" xlink:href="#DejaVuSans-20"/>
    <use x="196.289062" xlink:href="#DejaVuSans-76"/>
    <use x="255.46875" xlink:href="#DejaVuSans-61"/>
    <use x="316.748047" xlink:href="#DejaVuSans-6c"/>
    <use x="344.53125" xlink:href="#DejaVuSans-75"/>
    <use x="407.910156" xlink:href="#DejaVuSans-65"/>
    <use x="469.433594" xlink:href="#DejaVuSans-73"/>
    <use x="521.533203" xlink:href="#DejaVuSans-20"/>
    <use x="553.320312" xlink:href="#DejaVuSans-6f"/>
    <use x="614.501953" xlink:href="#DejaVuSans-66"/>
    <use x="649.707031" xlink:href="#DejaVuSans-20"/>
    <use x="681.494141" xlink:href="#DejaVuSans-74"/>
    <use x="720.703125" xlink:href="#DejaVuSans-68"/>
    <use x="784.082031" xlink:href="#DejaVuSans-65"/>
    <use x="845.605469" xlink:href="#DejaVuSans-20"/>
    <use x="877.392578" xlink:href="#DejaVuSans-64"/>
    <use x="940.869141" xlink:href="#DejaVuSans-69"/>
    <use x="968.652344" xlink:href="#DejaVuSans-66"/>
    <use x="1003.857422" xlink:href="#DejaVuSans-66"/>
    <use x="1039.0625" xlink:href="#DejaVuSans-65"/>
    <use x="1100.585938" xlink:href="#DejaVuSans-72"/>
    <use x="1141.667969" xlink:href="#DejaVuSans-65"/>
    <use x="1203.191406" xlink:href="#DejaVuSans-6e"/>
    <use x="1266.570312" xlink:href="#DejaVuSans-74"/>
    <use x="1305.779297" xlink:href="#DejaVuSans-20"/>
    <use x="1337.566406" xlink:href="#DejaVuSans-63"/>
    <use x="1392.546875" xlink:href="#DejaVuSans-68"/>
    <use x="1455.925781" xlink:href="#DejaVuSans-75"/>
    <use x="1519.304688" xlink:href="#DejaVuSans-6e"/>
    <use x="1582.683594" xlink:href="#DejaVuSans-6b"/>
    <use x="1640.59375" xlink:href="#DejaVuSans-20"/>
    <use x="1672.380859" xlink:href="#DejaVuSans-73"/>
    <use x="1724.480469" xlink:href="#DejaVuSans-69"/>
    <use x="1752.263672" xlink:href="#DejaVuSans-7a"/>
    <use x="1804.753906" xlink:href="#DejaVuSans-65"/>
    <use x="1866.277344" xlink:href="#DejaVuSans-73"/>
    <use x="1918.376953" xlink:href="#DejaVuSans-20"/>
    <use x="1950.164062" xlink:href="#DejaVuSans-6f"/>
    <use x="2011.345703" xlink:href="#DejaVuSans-66"/>
    <use x="2046.550781" xlink:href="#DejaVuSans-20"/>
    <use x="2078.337891" xlink:href="#DejaVuSans-64"/>
    <use x="2141.814453" xlink:href="#DejaVuSans-6f"/>
    <use x="2202.996094" xlink:href="#DejaVuSans-63"/>
    <use x="2257.976562" xlink:href="#DejaVuSans-75"/>
    <use x="2321.355469" xlink:href="#DejaVuSans-6d"/>
    <use x="2418.767578" xlink:href="#DejaVuSans-65"/>
    <use x="2480.291016" xlink:href="#DejaVuSans-6e"/>
    <use x="2543.669922" xlink:href="#DejaVuSans-74"/>
    <use x="2582.878906" xlink:href="#DejaVuSans-20"/>
    <use x="2614.666016" xlink:href="#DejaVuSans-64"/>
    <use x="2678.142578" xlink:href="#DejaVuSans-65"/>
    <use x="2739.666016" xlink:href="#DejaVuSans-31"/>
    <use x="2803.289062" xlink:href="#DejaVuSans-32"/>
    <use x="2866.912109" xlink:href="#DejaVuSans-32"/>
    <use x="2930.535156" xlink:href="#DejaVuSans-36"/>
    <use x="2994.158203" xlink:href="#DejaVuSans-30"/>
    <use x="3057.78125" xlink:href="#DejaVuSans-33"/>
    <use x="3121.404297" xlink:href="#DejaVuSans-33"/>
    <use x="3185.027344" xlink:href="#DejaVuSans-39"/>
    <use x="3248.650391" xlink:href="#DejaVuSans-33"/>
    <use x="3312.273438" xlink:href="#DejaVuSans-2e"/>
    <use x="3344.060547" xlink:href="#DejaVuSans-74"/>
    <use x="3383.269531" xlink:href="#DejaVuSans-78"/>
    <use x="3442.449219" xlink:href="#DejaVuSans-74"/>
   </g>
  </g>
 </g>
 <defs>
  <clipPath id="p732b1fc8f4">
   <rect height="388.08" width="781.2" x="126" y="60.48"/>
  </clipPath>
 </defs>
</svg>
