<?xml version="1.0" encoding="utf-8" standalone="no"?>
<!DOCTYPE svg PUBLIC "-//W3C//DTD SVG 1.1//EN"
  "http://www.w3.org/Graphics/SVG/1.1/DTD/svg11.dtd">
<!-- Created with matplotlib (http://matplotlib.org/) -->
<svg height="504pt" version="1.1" viewBox="0 0 1008 504" width="1008pt" xmlns="http://www.w3.org/2000/svg" xmlns:xlink="http://www.w3.org/1999/xlink">
 <defs>
  <style type="text/css">
*{stroke-linecap:butt;stroke-linejoin:round;}
  </style>
 </defs>
 <g id="figure_1">
  <g id="patch_1">
   <path d="M 0 504 
L 1008 504 
L 1008 0 
L 0 0 
z
" style="fill:#ffffff;"/>
  </g>
  <g id="axes_1">
   <g id="patch_2">
    <path d="M 126 448.56 
L 907.2 448.56 
L 907.2 60.48 
L 126 60.48 
z
" style="fill:#ffffff;"/>
   </g>
   <g id="PathCollection_1">
    <defs>
     <path d="M 0 3 
C 0.795609 3 1.55874 2.683901 2.12132 2.12132 
C 2.683901 1.55874 3 0.795609 3 0 
C 3 -0.795609 2.683901 -1.55874 2.12132 -2.12132 
C 1.55874 -2.683901 0.795609 -3 0 -3 
C -0.795609 -3 -1.55874 -2.683901 -2.12132 -2.12132 
C -2.683901 -1.55874 -3 -0.795609 -3 0 
C -3 0.795609 -2.683901 1.55874 -2.12132 2.12132 
C -1.55874 2.683901 -0.795609 3 0 3 
z
" id="mee846747c2" style="stroke:#1f77b4;"/>
    </defs>
    <g clip-path="url(#p7212b7e2d6)">
     <use style="fill:#1f77b4;stroke:#1f77b4;" x="871.686535" xlink:href="#mee846747c2" y="282.075762"/>
     <use style="fill:#1f77b4;stroke:#1f77b4;" x="696.674434" xlink:href="#mee846747c2" y="284.029779"/>
     <use style="fill:#1f77b4;stroke:#1f77b4;" x="515.87681" xlink:href="#mee846747c2" y="277.262276"/>
     <use style="fill:#1f77b4;stroke:#1f77b4;" x="479.717285" xlink:href="#mee846747c2" y="269.011372"/>
     <use style="fill:#1f77b4;stroke:#1f77b4;" x="479.717285" xlink:href="#mee846747c2" y="306.412901"/>
     <use style="fill:#1f77b4;stroke:#1f77b4;" x="443.55776" xlink:href="#mee846747c2" y="270.134244"/>
     <use style="fill:#1f77b4;stroke:#1f77b4;" x="443.55776" xlink:href="#mee846747c2" y="300.773774"/>
     <use style="fill:#1f77b4;stroke:#1f77b4;" x="407.398235" xlink:href="#mee846747c2" y="266.396843"/>
     <use style="fill:#1f77b4;stroke:#1f77b4;" x="407.398235" xlink:href="#mee846747c2" y="300.29215"/>
     <use style="fill:#1f77b4;stroke:#1f77b4;" x="371.23871" xlink:href="#mee846747c2" y="261.217323"/>
     <use style="fill:#1f77b4;stroke:#1f77b4;" x="371.23871" xlink:href="#mee846747c2" y="303.671774"/>
     <use style="fill:#1f77b4;stroke:#1f77b4;" x="371.23871" xlink:href="#mee846747c2" y="297.801467"/>
     <use style="fill:#1f77b4;stroke:#1f77b4;" x="335.079185" xlink:href="#mee846747c2" y="275.977029"/>
     <use style="fill:#1f77b4;stroke:#1f77b4;" x="335.079185" xlink:href="#mee846747c2" y="278.522754"/>
     <use style="fill:#1f77b4;stroke:#1f77b4;" x="335.079185" xlink:href="#mee846747c2" y="297.427177"/>
     <use style="fill:#1f77b4;stroke:#1f77b4;" x="298.91966" xlink:href="#mee846747c2" y="264.409801"/>
     <use style="fill:#1f77b4;stroke:#1f77b4;" x="298.91966" xlink:href="#mee846747c2" y="275.908225"/>
     <use style="fill:#1f77b4;stroke:#1f77b4;" x="298.91966" xlink:href="#mee846747c2" y="306.701875"/>
     <use style="fill:#1f77b4;stroke:#1f77b4;" x="298.91966" xlink:href="#mee846747c2" y="294.914477"/>
     <use style="fill:#1f77b4;stroke:#1f77b4;" x="262.760135" xlink:href="#mee846747c2" y="245.772336"/>
     <use style="fill:#1f77b4;stroke:#1f77b4;" x="262.760135" xlink:href="#mee846747c2" y="276.623781"/>
     <use style="fill:#1f77b4;stroke:#1f77b4;" x="262.760135" xlink:href="#mee846747c2" y="284.175642"/>
     <use style="fill:#1f77b4;stroke:#1f77b4;" x="262.760135" xlink:href="#mee846747c2" y="324.139409"/>
     <use style="fill:#1f77b4;stroke:#1f77b4;" x="262.760135" xlink:href="#mee846747c2" y="291.355965"/>
     <use style="fill:#1f77b4;stroke:#1f77b4;" x="262.760135" xlink:href="#mee846747c2" y="304.351551"/>
     <use style="fill:#1f77b4;stroke:#1f77b4;" x="226.60061" xlink:href="#mee846747c2" y="240.259807"/>
     <use style="fill:#1f77b4;stroke:#1f77b4;" x="226.60061" xlink:href="#mee846747c2" y="289.963384"/>
     <use style="fill:#1f77b4;stroke:#1f77b4;" x="226.60061" xlink:href="#mee846747c2" y="254.879154"/>
     <use style="fill:#1f77b4;stroke:#1f77b4;" x="226.60061" xlink:href="#mee846747c2" y="297.630835"/>
     <use style="fill:#1f77b4;stroke:#1f77b4;" x="226.60061" xlink:href="#mee846747c2" y="306.663345"/>
     <use style="fill:#1f77b4;stroke:#1f77b4;" x="226.60061" xlink:href="#mee846747c2" y="306.70738"/>
     <use style="fill:#1f77b4;stroke:#1f77b4;" x="226.60061" xlink:href="#mee846747c2" y="289.704683"/>
     <use style="fill:#1f77b4;stroke:#1f77b4;" x="226.60061" xlink:href="#mee846747c2" y="299.890339"/>
     <use style="fill:#1f77b4;stroke:#1f77b4;" x="226.60061" xlink:href="#mee846747c2" y="303.622235"/>
     <use style="fill:#1f77b4;stroke:#1f77b4;" x="208.520847" xlink:href="#mee846747c2" y="230.514493"/>
     <use style="fill:#1f77b4;stroke:#1f77b4;" x="208.520847" xlink:href="#mee846747c2" y="261.558588"/>
     <use style="fill:#1f77b4;stroke:#1f77b4;" x="208.520847" xlink:href="#mee846747c2" y="314.539959"/>
     <use style="fill:#1f77b4;stroke:#1f77b4;" x="208.520847" xlink:href="#mee846747c2" y="242.18355"/>
     <use style="fill:#1f77b4;stroke:#1f77b4;" x="208.520847" xlink:href="#mee846747c2" y="305.650559"/>
     <use style="fill:#1f77b4;stroke:#1f77b4;" x="208.520847" xlink:href="#mee846747c2" y="262.340195"/>
     <use style="fill:#1f77b4;stroke:#1f77b4;" x="208.520847" xlink:href="#mee846747c2" y="328.848314"/>
     <use style="fill:#1f77b4;stroke:#1f77b4;" x="208.520847" xlink:href="#mee846747c2" y="316.82148"/>
     <use style="fill:#1f77b4;stroke:#1f77b4;" x="208.520847" xlink:href="#mee846747c2" y="289.743213"/>
     <use style="fill:#1f77b4;stroke:#1f77b4;" x="208.520847" xlink:href="#mee846747c2" y="291.862358"/>
     <use style="fill:#1f77b4;stroke:#1f77b4;" x="208.520847" xlink:href="#mee846747c2" y="307.923824"/>
     <use style="fill:#1f77b4;stroke:#1f77b4;" x="208.520847" xlink:href="#mee846747c2" y="300.760014"/>
     <use style="fill:#1f77b4;stroke:#1f77b4;" x="208.520847" xlink:href="#mee846747c2" y="238.275517"/>
     <use style="fill:#1f77b4;stroke:#1f77b4;" x="190.441085" xlink:href="#mee846747c2" y="201.297817"/>
     <use style="fill:#1f77b4;stroke:#1f77b4;" x="190.441085" xlink:href="#mee846747c2" y="282.293181"/>
     <use style="fill:#1f77b4;stroke:#1f77b4;" x="190.441085" xlink:href="#mee846747c2" y="256.74235"/>
     <use style="fill:#1f77b4;stroke:#1f77b4;" x="190.441085" xlink:href="#mee846747c2" y="323.311016"/>
     <use style="fill:#1f77b4;stroke:#1f77b4;" x="190.441085" xlink:href="#mee846747c2" y="325.40264"/>
     <use style="fill:#1f77b4;stroke:#1f77b4;" x="190.441085" xlink:href="#mee846747c2" y="193.4157"/>
     <use style="fill:#1f77b4;stroke:#1f77b4;" x="190.441085" xlink:href="#mee846747c2" y="298.78398"/>
     <use style="fill:#1f77b4;stroke:#1f77b4;" x="190.441085" xlink:href="#mee846747c2" y="296.27128"/>
     <use style="fill:#1f77b4;stroke:#1f77b4;" x="190.441085" xlink:href="#mee846747c2" y="257.834948"/>
     <use style="fill:#1f77b4;stroke:#1f77b4;" x="190.441085" xlink:href="#mee846747c2" y="361.007024"/>
     <use style="fill:#1f77b4;stroke:#1f77b4;" x="190.441085" xlink:href="#mee846747c2" y="292.22564"/>
     <use style="fill:#1f77b4;stroke:#1f77b4;" x="190.441085" xlink:href="#mee846747c2" y="320.737769"/>
     <use style="fill:#1f77b4;stroke:#1f77b4;" x="190.441085" xlink:href="#mee846747c2" y="294.812648"/>
     <use style="fill:#1f77b4;stroke:#1f77b4;" x="190.441085" xlink:href="#mee846747c2" y="284.415078"/>
     <use style="fill:#1f77b4;stroke:#1f77b4;" x="190.441085" xlink:href="#mee846747c2" y="294.13287"/>
     <use style="fill:#1f77b4;stroke:#1f77b4;" x="190.441085" xlink:href="#mee846747c2" y="305.694594"/>
     <use style="fill:#1f77b4;stroke:#1f77b4;" x="190.441085" xlink:href="#mee846747c2" y="333.708586"/>
     <use style="fill:#1f77b4;stroke:#1f77b4;" x="190.441085" xlink:href="#mee846747c2" y="273.879901"/>
     <use style="fill:#1f77b4;stroke:#1f77b4;" x="190.441085" xlink:href="#mee846747c2" y="228.015554"/>
     <use style="fill:#1f77b4;stroke:#1f77b4;" x="183.20918" xlink:href="#mee846747c2" y="201.380381"/>
     <use style="fill:#1f77b4;stroke:#1f77b4;" x="183.20918" xlink:href="#mee846747c2" y="269.069167"/>
     <use style="fill:#1f77b4;stroke:#1f77b4;" x="183.20918" xlink:href="#mee846747c2" y="276.98431"/>
     <use style="fill:#1f77b4;stroke:#1f77b4;" x="183.20918" xlink:href="#mee846747c2" y="266.127134"/>
     <use style="fill:#1f77b4;stroke:#1f77b4;" x="183.20918" xlink:href="#mee846747c2" y="311.691498"/>
     <use style="fill:#1f77b4;stroke:#1f77b4;" x="183.20918" xlink:href="#mee846747c2" y="322.573444"/>
     <use style="fill:#1f77b4;stroke:#1f77b4;" x="183.20918" xlink:href="#mee846747c2" y="266.941766"/>
     <use style="fill:#1f77b4;stroke:#1f77b4;" x="183.20918" xlink:href="#mee846747c2" y="189.075581"/>
     <use style="fill:#1f77b4;stroke:#1f77b4;" x="183.20918" xlink:href="#mee846747c2" y="330.26016"/>
     <use style="fill:#1f77b4;stroke:#1f77b4;" x="183.20918" xlink:href="#mee846747c2" y="281.874856"/>
     <use style="fill:#1f77b4;stroke:#1f77b4;" x="183.20918" xlink:href="#mee846747c2" y="252.616898"/>
     <use style="fill:#1f77b4;stroke:#1f77b4;" x="183.20918" xlink:href="#mee846747c2" y="337.734961"/>
     <use style="fill:#1f77b4;stroke:#1f77b4;" x="183.20918" xlink:href="#mee846747c2" y="299.331655"/>
     <use style="fill:#1f77b4;stroke:#1f77b4;" x="183.20918" xlink:href="#mee846747c2" y="318.398453"/>
     <use style="fill:#1f77b4;stroke:#1f77b4;" x="183.20918" xlink:href="#mee846747c2" y="328.218075"/>
     <use style="fill:#1f77b4;stroke:#1f77b4;" x="183.20918" xlink:href="#mee846747c2" y="325.672349"/>
     <use style="fill:#1f77b4;stroke:#1f77b4;" x="183.20918" xlink:href="#mee846747c2" y="270.800261"/>
     <use style="fill:#1f77b4;stroke:#1f77b4;" x="183.20918" xlink:href="#mee846747c2" y="289.979897"/>
     <use style="fill:#1f77b4;stroke:#1f77b4;" x="183.20918" xlink:href="#mee846747c2" y="276.045832"/>
     <use style="fill:#1f77b4;stroke:#1f77b4;" x="183.20918" xlink:href="#mee846747c2" y="310.72825"/>
     <use style="fill:#1f77b4;stroke:#1f77b4;" x="183.20918" xlink:href="#mee846747c2" y="326.800725"/>
     <use style="fill:#1f77b4;stroke:#1f77b4;" x="183.20918" xlink:href="#mee846747c2" y="288.821247"/>
     <use style="fill:#1f77b4;stroke:#1f77b4;" x="183.20918" xlink:href="#mee846747c2" y="231.320869"/>
     <use style="fill:#1f77b4;stroke:#1f77b4;" x="183.20918" xlink:href="#mee846747c2" y="273.844123"/>
     <use style="fill:#1f77b4;stroke:#1f77b4;" x="175.977275" xlink:href="#mee846747c2" y="213.33566"/>
     <use style="fill:#1f77b4;stroke:#1f77b4;" x="175.977275" xlink:href="#mee846747c2" y="210.97708"/>
     <use style="fill:#1f77b4;stroke:#1f77b4;" x="175.977275" xlink:href="#mee846747c2" y="288.931333"/>
     <use style="fill:#1f77b4;stroke:#1f77b4;" x="175.977275" xlink:href="#mee846747c2" y="284.745334"/>
     <use style="fill:#1f77b4;stroke:#1f77b4;" x="175.977275" xlink:href="#mee846747c2" y="233.764766"/>
     <use style="fill:#1f77b4;stroke:#1f77b4;" x="175.977275" xlink:href="#mee846747c2" y="341.164123"/>
     <use style="fill:#1f77b4;stroke:#1f77b4;" x="175.977275" xlink:href="#mee846747c2" y="291.204597"/>
     <use style="fill:#1f77b4;stroke:#1f77b4;" x="175.977275" xlink:href="#mee846747c2" y="341.992516"/>
     <use style="fill:#1f77b4;stroke:#1f77b4;" x="175.977275" xlink:href="#mee846747c2" y="295.195195"/>
     <use style="fill:#1f77b4;stroke:#1f77b4;" x="175.977275" xlink:href="#mee846747c2" y="146.731216"/>
     <use style="fill:#1f77b4;stroke:#1f77b4;" x="175.977275" xlink:href="#mee846747c2" y="315.756403"/>
     <use style="fill:#1f77b4;stroke:#1f77b4;" x="175.977275" xlink:href="#mee846747c2" y="299.700441"/>
     <use style="fill:#1f77b4;stroke:#1f77b4;" x="175.977275" xlink:href="#mee846747c2" y="267.272022"/>
     <use style="fill:#1f77b4;stroke:#1f77b4;" x="175.977275" xlink:href="#mee846747c2" y="276.436635"/>
     <use style="fill:#1f77b4;stroke:#1f77b4;" x="175.977275" xlink:href="#mee846747c2" y="256.268982"/>
     <use style="fill:#1f77b4;stroke:#1f77b4;" x="175.977275" xlink:href="#mee846747c2" y="357.079725"/>
     <use style="fill:#1f77b4;stroke:#1f77b4;" x="175.977275" xlink:href="#mee846747c2" y="316.006847"/>
     <use style="fill:#1f77b4;stroke:#1f77b4;" x="175.977275" xlink:href="#mee846747c2" y="308.818268"/>
     <use style="fill:#1f77b4;stroke:#1f77b4;" x="175.977275" xlink:href="#mee846747c2" y="307.103687"/>
     <use style="fill:#1f77b4;stroke:#1f77b4;" x="175.977275" xlink:href="#mee846747c2" y="320.655205"/>
     <use style="fill:#1f77b4;stroke:#1f77b4;" x="175.977275" xlink:href="#mee846747c2" y="332.960005"/>
     <use style="fill:#1f77b4;stroke:#1f77b4;" x="175.977275" xlink:href="#mee846747c2" y="258.239512"/>
     <use style="fill:#1f77b4;stroke:#1f77b4;" x="175.977275" xlink:href="#mee846747c2" y="274.383542"/>
     <use style="fill:#1f77b4;stroke:#1f77b4;" x="175.977275" xlink:href="#mee846747c2" y="318.062693"/>
     <use style="fill:#1f77b4;stroke:#1f77b4;" x="175.977275" xlink:href="#mee846747c2" y="272.699235"/>
     <use style="fill:#1f77b4;stroke:#1f77b4;" x="175.977275" xlink:href="#mee846747c2" y="300.820561"/>
     <use style="fill:#1f77b4;stroke:#1f77b4;" x="175.977275" xlink:href="#mee846747c2" y="320.627684"/>
     <use style="fill:#1f77b4;stroke:#1f77b4;" x="175.977275" xlink:href="#mee846747c2" y="324.739375"/>
     <use style="fill:#1f77b4;stroke:#1f77b4;" x="175.977275" xlink:href="#mee846747c2" y="293.612716"/>
     <use style="fill:#1f77b4;stroke:#1f77b4;" x="175.977275" xlink:href="#mee846747c2" y="282.348224"/>
     <use style="fill:#1f77b4;stroke:#1f77b4;" x="175.977275" xlink:href="#mee846747c2" y="184.980403"/>
     <use style="fill:#1f77b4;stroke:#1f77b4;" x="175.977275" xlink:href="#mee846747c2" y="300.820561"/>
     <use style="fill:#1f77b4;stroke:#1f77b4;" x="175.977275" xlink:href="#mee846747c2" y="209.372584"/>
     <use style="fill:#1f77b4;stroke:#1f77b4;" x="168.74537" xlink:href="#mee846747c2" y="209.592755"/>
     <use style="fill:#1f77b4;stroke:#1f77b4;" x="168.74537" xlink:href="#mee846747c2" y="189.62876"/>
     <use style="fill:#1f77b4;stroke:#1f77b4;" x="168.74537" xlink:href="#mee846747c2" y="230.764938"/>
     <use style="fill:#1f77b4;stroke:#1f77b4;" x="168.74537" xlink:href="#mee846747c2" y="306.696371"/>
     <use style="fill:#1f77b4;stroke:#1f77b4;" x="168.74537" xlink:href="#mee846747c2" y="259.541272"/>
     <use style="fill:#1f77b4;stroke:#1f77b4;" x="168.74537" xlink:href="#mee846747c2" y="293.607212"/>
     <use style="fill:#1f77b4;stroke:#1f77b4;" x="168.74537" xlink:href="#mee846747c2" y="245.365019"/>
     <use style="fill:#1f77b4;stroke:#1f77b4;" x="168.74537" xlink:href="#mee846747c2" y="287.976342"/>
     <use style="fill:#1f77b4;stroke:#1f77b4;" x="168.74537" xlink:href="#mee846747c2" y="324.970554"/>
     <use style="fill:#1f77b4;stroke:#1f77b4;" x="168.74537" xlink:href="#mee846747c2" y="297.793211"/>
     <use style="fill:#1f77b4;stroke:#1f77b4;" x="168.74537" xlink:href="#mee846747c2" y="284.024274"/>
     <use style="fill:#1f77b4;stroke:#1f77b4;" x="168.74537" xlink:href="#mee846747c2" y="365.66639"/>
     <use style="fill:#1f77b4;stroke:#1f77b4;" x="168.74537" xlink:href="#mee846747c2" y="297.718903"/>
     <use style="fill:#1f77b4;stroke:#1f77b4;" x="168.74537" xlink:href="#mee846747c2" y="235.883911"/>
     <use style="fill:#1f77b4;stroke:#1f77b4;" x="168.74537" xlink:href="#mee846747c2" y="124.174709"/>
     <use style="fill:#1f77b4;stroke:#1f77b4;" x="168.74537" xlink:href="#mee846747c2" y="263.072263"/>
     <use style="fill:#1f77b4;stroke:#1f77b4;" x="168.74537" xlink:href="#mee846747c2" y="385.484522"/>
     <use style="fill:#1f77b4;stroke:#1f77b4;" x="168.74537" xlink:href="#mee846747c2" y="281.316173"/>
     <use style="fill:#1f77b4;stroke:#1f77b4;" x="168.74537" xlink:href="#mee846747c2" y="275.253217"/>
     <use style="fill:#1f77b4;stroke:#1f77b4;" x="168.74537" xlink:href="#mee846747c2" y="285.813163"/>
     <use style="fill:#1f77b4;stroke:#1f77b4;" x="168.74537" xlink:href="#mee846747c2" y="254.257171"/>
     <use style="fill:#1f77b4;stroke:#1f77b4;" x="168.74537" xlink:href="#mee846747c2" y="244.833857"/>
     <use style="fill:#1f77b4;stroke:#1f77b4;" x="168.74537" xlink:href="#mee846747c2" y="338.695457"/>
     <use style="fill:#1f77b4;stroke:#1f77b4;" x="168.74537" xlink:href="#mee846747c2" y="335.618569"/>
     <use style="fill:#1f77b4;stroke:#1f77b4;" x="168.74537" xlink:href="#mee846747c2" y="364.048134"/>
     <use style="fill:#1f77b4;stroke:#1f77b4;" x="168.74537" xlink:href="#mee846747c2" y="242.41473"/>
     <use style="fill:#1f77b4;stroke:#1f77b4;" x="168.74537" xlink:href="#mee846747c2" y="346.863797"/>
     <use style="fill:#1f77b4;stroke:#1f77b4;" x="168.74537" xlink:href="#mee846747c2" y="281.379472"/>
     <use style="fill:#1f77b4;stroke:#1f77b4;" x="168.74537" xlink:href="#mee846747c2" y="318.040676"/>
     <use style="fill:#1f77b4;stroke:#1f77b4;" x="168.74537" xlink:href="#mee846747c2" y="335.797458"/>
     <use style="fill:#1f77b4;stroke:#1f77b4;" x="168.74537" xlink:href="#mee846747c2" y="372.876986"/>
     <use style="fill:#1f77b4;stroke:#1f77b4;" x="168.74537" xlink:href="#mee846747c2" y="283.809608"/>
     <use style="fill:#1f77b4;stroke:#1f77b4;" x="168.74537" xlink:href="#mee846747c2" y="239.024098"/>
     <use style="fill:#1f77b4;stroke:#1f77b4;" x="168.74537" xlink:href="#mee846747c2" y="303.025022"/>
     <use style="fill:#1f77b4;stroke:#1f77b4;" x="168.74537" xlink:href="#mee846747c2" y="255.512145"/>
     <use style="fill:#1f77b4;stroke:#1f77b4;" x="168.74537" xlink:href="#mee846747c2" y="327.287853"/>
     <use style="fill:#1f77b4;stroke:#1f77b4;" x="168.74537" xlink:href="#mee846747c2" y="283.732548"/>
     <use style="fill:#1f77b4;stroke:#1f77b4;" x="168.74537" xlink:href="#mee846747c2" y="268.001338"/>
     <use style="fill:#1f77b4;stroke:#1f77b4;" x="168.74537" xlink:href="#mee846747c2" y="307.535773"/>
     <use style="fill:#1f77b4;stroke:#1f77b4;" x="168.74537" xlink:href="#mee846747c2" y="312.357515"/>
     <use style="fill:#1f77b4;stroke:#1f77b4;" x="168.74537" xlink:href="#mee846747c2" y="328.16028"/>
     <use style="fill:#1f77b4;stroke:#1f77b4;" x="168.74537" xlink:href="#mee846747c2" y="323.544948"/>
     <use style="fill:#1f77b4;stroke:#1f77b4;" x="168.74537" xlink:href="#mee846747c2" y="313.719822"/>
     <use style="fill:#1f77b4;stroke:#1f77b4;" x="168.74537" xlink:href="#mee846747c2" y="265.375801"/>
     <use style="fill:#1f77b4;stroke:#1f77b4;" x="168.74537" xlink:href="#mee846747c2" y="282.948189"/>
     <use style="fill:#1f77b4;stroke:#1f77b4;" x="168.74537" xlink:href="#mee846747c2" y="178.270695"/>
     <use style="fill:#1f77b4;stroke:#1f77b4;" x="168.74537" xlink:href="#mee846747c2" y="265.986775"/>
     <use style="fill:#1f77b4;stroke:#1f77b4;" x="168.74537" xlink:href="#mee846747c2" y="279.348395"/>
     <use style="fill:#1f77b4;stroke:#1f77b4;" x="168.74537" xlink:href="#mee846747c2" y="237.127876"/>
     <use style="fill:#1f77b4;stroke:#1f77b4;" x="161.513465" xlink:href="#mee846747c2" y="117.908095"/>
     <use style="fill:#1f77b4;stroke:#1f77b4;" x="161.513465" xlink:href="#mee846747c2" y="322.334008"/>
     <use style="fill:#1f77b4;stroke:#1f77b4;" x="161.513465" xlink:href="#mee846747c2" y="208.923986"/>
     <use style="fill:#1f77b4;stroke:#1f77b4;" x="161.513465" xlink:href="#mee846747c2" y="166.986937"/>
     <use style="fill:#1f77b4;stroke:#1f77b4;" x="161.513465" xlink:href="#mee846747c2" y="188.428829"/>
     <use style="fill:#1f77b4;stroke:#1f77b4;" x="161.513465" xlink:href="#mee846747c2" y="277.204481"/>
     <use style="fill:#1f77b4;stroke:#1f77b4;" x="161.513465" xlink:href="#mee846747c2" y="322.334008"/>
     <use style="fill:#1f77b4;stroke:#1f77b4;" x="161.513465" xlink:href="#mee846747c2" y="291.058734"/>
     <use style="fill:#1f77b4;stroke:#1f77b4;" x="161.513465" xlink:href="#mee846747c2" y="253.786556"/>
     <use style="fill:#1f77b4;stroke:#1f77b4;" x="161.513465" xlink:href="#mee846747c2" y="265.359288"/>
     <use style="fill:#1f77b4;stroke:#1f77b4;" x="161.513465" xlink:href="#mee846747c2" y="266.105117"/>
     <use style="fill:#1f77b4;stroke:#1f77b4;" x="161.513465" xlink:href="#mee846747c2" y="319.727735"/>
     <use style="fill:#1f77b4;stroke:#1f77b4;" x="161.513465" xlink:href="#mee846747c2" y="186.205103"/>
     <use style="fill:#1f77b4;stroke:#1f77b4;" x="161.513465" xlink:href="#mee846747c2" y="310.695225"/>
     <use style="fill:#1f77b4;stroke:#1f77b4;" x="161.513465" xlink:href="#mee846747c2" y="208.736841"/>
     <use style="fill:#1f77b4;stroke:#1f77b4;" x="161.513465" xlink:href="#mee846747c2" y="374.024627"/>
     <use style="fill:#1f77b4;stroke:#1f77b4;" x="161.513465" xlink:href="#mee846747c2" y="297.589553"/>
     <use style="fill:#1f77b4;stroke:#1f77b4;" x="161.513465" xlink:href="#mee846747c2" y="354.784444"/>
     <use style="fill:#1f77b4;stroke:#1f77b4;" x="161.513465" xlink:href="#mee846747c2" y="274.320243"/>
     <use style="fill:#1f77b4;stroke:#1f77b4;" x="161.513465" xlink:href="#mee846747c2" y="317.89206"/>
     <use style="fill:#1f77b4;stroke:#1f77b4;" x="161.513465" xlink:href="#mee846747c2" y="266.652792"/>
     <use style="fill:#1f77b4;stroke:#1f77b4;" x="161.513465" xlink:href="#mee846747c2" y="297.176733"/>
     <use style="fill:#1f77b4;stroke:#1f77b4;" x="161.513465" xlink:href="#mee846747c2" y="338.981679"/>
     <use style="fill:#1f77b4;stroke:#1f77b4;" x="161.513465" xlink:href="#mee846747c2" y="394.624365"/>
     <use style="fill:#1f77b4;stroke:#1f77b4;" x="161.513465" xlink:href="#mee846747c2" y="336.323115"/>
     <use style="fill:#1f77b4;stroke:#1f77b4;" x="161.513465" xlink:href="#mee846747c2" y="258.883512"/>
     <use style="fill:#1f77b4;stroke:#1f77b4;" x="161.513465" xlink:href="#mee846747c2" y="284.560941"/>
     <use style="fill:#1f77b4;stroke:#1f77b4;" x="161.513465" xlink:href="#mee846747c2" y="192.279067"/>
     <use style="fill:#1f77b4;stroke:#1f77b4;" x="161.513465" xlink:href="#mee846747c2" y="78.343388"/>
     <use style="fill:#1f77b4;stroke:#1f77b4;" x="161.513465" xlink:href="#mee846747c2" y="167.385997"/>
     <use style="fill:#1f77b4;stroke:#1f77b4;" x="161.513465" xlink:href="#mee846747c2" y="218.83718"/>
     <use style="fill:#1f77b4;stroke:#1f77b4;" x="161.513465" xlink:href="#mee846747c2" y="304.346047"/>
     <use style="fill:#1f77b4;stroke:#1f77b4;" x="161.513465" xlink:href="#mee846747c2" y="430.696612"/>
     <use style="fill:#1f77b4;stroke:#1f77b4;" x="161.513465" xlink:href="#mee846747c2" y="339.402756"/>
     <use style="fill:#1f77b4;stroke:#1f77b4;" x="161.513465" xlink:href="#mee846747c2" y="215.716258"/>
     <use style="fill:#1f77b4;stroke:#1f77b4;" x="161.513465" xlink:href="#mee846747c2" y="353.917521"/>
     <use style="fill:#1f77b4;stroke:#1f77b4;" x="161.513465" xlink:href="#mee846747c2" y="337.110226"/>
     <use style="fill:#1f77b4;stroke:#1f77b4;" x="161.513465" xlink:href="#mee846747c2" y="215.43554"/>
     <use style="fill:#1f77b4;stroke:#1f77b4;" x="161.513465" xlink:href="#mee846747c2" y="237.967278"/>
     <use style="fill:#1f77b4;stroke:#1f77b4;" x="161.513465" xlink:href="#mee846747c2" y="325.113665"/>
     <use style="fill:#1f77b4;stroke:#1f77b4;" x="161.513465" xlink:href="#mee846747c2" y="231.395177"/>
     <use style="fill:#1f77b4;stroke:#1f77b4;" x="161.513465" xlink:href="#mee846747c2" y="278.382396"/>
     <use style="fill:#1f77b4;stroke:#1f77b4;" x="161.513465" xlink:href="#mee846747c2" y="243.942165"/>
     <use style="fill:#1f77b4;stroke:#1f77b4;" x="161.513465" xlink:href="#mee846747c2" y="245.58519"/>
     <use style="fill:#1f77b4;stroke:#1f77b4;" x="161.513465" xlink:href="#mee846747c2" y="279.106207"/>
     <use style="fill:#1f77b4;stroke:#1f77b4;" x="161.513465" xlink:href="#mee846747c2" y="405.509063"/>
     <use style="fill:#1f77b4;stroke:#1f77b4;" x="161.513465" xlink:href="#mee846747c2" y="361.262972"/>
     <use style="fill:#1f77b4;stroke:#1f77b4;" x="161.513465" xlink:href="#mee846747c2" y="311.179601"/>
     <use style="fill:#1f77b4;stroke:#1f77b4;" x="161.513465" xlink:href="#mee846747c2" y="401.994586"/>
     <use style="fill:#1f77b4;stroke:#1f77b4;" x="161.513465" xlink:href="#mee846747c2" y="329.885869"/>
     <use style="fill:#1f77b4;stroke:#1f77b4;" x="161.513465" xlink:href="#mee846747c2" y="234.320698"/>
     <use style="fill:#1f77b4;stroke:#1f77b4;" x="161.513465" xlink:href="#mee846747c2" y="238.74338"/>
     <use style="fill:#1f77b4;stroke:#1f77b4;" x="161.513465" xlink:href="#mee846747c2" y="344.981335"/>
     <use style="fill:#1f77b4;stroke:#1f77b4;" x="161.513465" xlink:href="#mee846747c2" y="347.017916"/>
     <use style="fill:#1f77b4;stroke:#1f77b4;" x="161.513465" xlink:href="#mee846747c2" y="275.787131"/>
     <use style="fill:#1f77b4;stroke:#1f77b4;" x="161.513465" xlink:href="#mee846747c2" y="286.916769"/>
     <use style="fill:#1f77b4;stroke:#1f77b4;" x="161.513465" xlink:href="#mee846747c2" y="332.841663"/>
     <use style="fill:#1f77b4;stroke:#1f77b4;" x="161.513465" xlink:href="#mee846747c2" y="291.909144"/>
     <use style="fill:#1f77b4;stroke:#1f77b4;" x="161.513465" xlink:href="#mee846747c2" y="350.202138"/>
     <use style="fill:#1f77b4;stroke:#1f77b4;" x="161.513465" xlink:href="#mee846747c2" y="321.249666"/>
     <use style="fill:#1f77b4;stroke:#1f77b4;" x="161.513465" xlink:href="#mee846747c2" y="354.828478"/>
     <use style="fill:#1f77b4;stroke:#1f77b4;" x="161.513465" xlink:href="#mee846747c2" y="388.187119"/>
     <use style="fill:#1f77b4;stroke:#1f77b4;" x="161.513465" xlink:href="#mee846747c2" y="260.699921"/>
     <use style="fill:#1f77b4;stroke:#1f77b4;" x="161.513465" xlink:href="#mee846747c2" y="293.998015"/>
     <use style="fill:#1f77b4;stroke:#1f77b4;" x="161.513465" xlink:href="#mee846747c2" y="188.560932"/>
     <use style="fill:#1f77b4;stroke:#1f77b4;" x="161.513465" xlink:href="#mee846747c2" y="290.88535"/>
     <use style="fill:#1f77b4;stroke:#1f77b4;" x="161.513465" xlink:href="#mee846747c2" y="280.12725"/>
     <use style="fill:#1f77b4;stroke:#1f77b4;" x="161.513465" xlink:href="#mee846747c2" y="325.086144"/>
     <use style="fill:#1f77b4;stroke:#1f77b4;" x="161.513465" xlink:href="#mee846747c2" y="214.552104"/>
     <use style="fill:#1f77b4;stroke:#1f77b4;" x="161.513465" xlink:href="#mee846747c2" y="300.049963"/>
     <use style="fill:#1f77b4;stroke:#1f77b4;" x="161.513465" xlink:href="#mee846747c2" y="341.645747"/>
     <use style="fill:#1f77b4;stroke:#1f77b4;" x="161.513465" xlink:href="#mee846747c2" y="312.850147"/>
     <use style="fill:#1f77b4;stroke:#1f77b4;" x="161.513465" xlink:href="#mee846747c2" y="331.025254"/>
     <use style="fill:#1f77b4;stroke:#1f77b4;" x="161.513465" xlink:href="#mee846747c2" y="234.172082"/>
     <use style="fill:#1f77b4;stroke:#1f77b4;" x="161.513465" xlink:href="#mee846747c2" y="251.07295"/>
     <use style="fill:#1f77b4;stroke:#1f77b4;" x="161.513465" xlink:href="#mee846747c2" y="285.460889"/>
     <use style="fill:#1f77b4;stroke:#1f77b4;" x="161.513465" xlink:href="#mee846747c2" y="311.163088"/>
     <use style="fill:#1f77b4;stroke:#1f77b4;" x="161.513465" xlink:href="#mee846747c2" y="303.704799"/>
     <use style="fill:#1f77b4;stroke:#1f77b4;" x="161.513465" xlink:href="#mee846747c2" y="277.399883"/>
     <use style="fill:#1f77b4;stroke:#1f77b4;" x="161.513465" xlink:href="#mee846747c2" y="350.202138"/>
     <use style="fill:#1f77b4;stroke:#1f77b4;" x="161.513465" xlink:href="#mee846747c2" y="331.84539"/>
     <use style="fill:#1f77b4;stroke:#1f77b4;" x="161.513465" xlink:href="#mee846747c2" y="324.5137"/>
     <use style="fill:#1f77b4;stroke:#1f77b4;" x="161.513465" xlink:href="#mee846747c2" y="257.730367"/>
     <use style="fill:#1f77b4;stroke:#1f77b4;" x="161.513465" xlink:href="#mee846747c2" y="403.422944"/>
     <use style="fill:#1f77b4;stroke:#1f77b4;" x="161.513465" xlink:href="#mee846747c2" y="362.688579"/>
     <use style="fill:#1f77b4;stroke:#1f77b4;" x="161.513465" xlink:href="#mee846747c2" y="268.141697"/>
     <use style="fill:#1f77b4;stroke:#1f77b4;" x="161.513465" xlink:href="#mee846747c2" y="254.829615"/>
     <use style="fill:#1f77b4;stroke:#1f77b4;" x="161.513465" xlink:href="#mee846747c2" y="271.945149"/>
     <use style="fill:#1f77b4;stroke:#1f77b4;" x="161.513465" xlink:href="#mee846747c2" y="299.727963"/>
     <use style="fill:#1f77b4;stroke:#1f77b4;" x="161.513465" xlink:href="#mee846747c2" y="264.387784"/>
     <use style="fill:#1f77b4;stroke:#1f77b4;" x="161.513465" xlink:href="#mee846747c2" y="237.001278"/>
     <use style="fill:#1f77b4;stroke:#1f77b4;" x="161.513465" xlink:href="#mee846747c2" y="125.143461"/>
     <use style="fill:#1f77b4;stroke:#1f77b4;" x="161.513465" xlink:href="#mee846747c2" y="198.694297"/>
     <use style="fill:#1f77b4;stroke:#1f77b4;" x="161.513465" xlink:href="#mee846747c2" y="347.571095"/>
     <use style="fill:#1f77b4;stroke:#1f77b4;" x="161.513465" xlink:href="#mee846747c2" y="261.192554"/>
     <use style="fill:#1f77b4;stroke:#1f77b4;" x="161.513465" xlink:href="#mee846747c2" y="290.340427"/>
     <use style="fill:#1f77b4;stroke:#1f77b4;" x="161.513465" xlink:href="#mee846747c2" y="234.777552"/>
     <use style="fill:#1f77b4;stroke:#1f77b4;" x="161.513465" xlink:href="#mee846747c2" y="231.384168"/>
     <use style="fill:#1f77b4;stroke:#1f77b4;" x="161.513465" xlink:href="#mee846747c2" y="152.359334"/>
    </g>
   </g>
   <g id="matplotlib.axis_1">
    <g id="xtick_1">
     <g id="line2d_1">
      <defs>
       <path d="M 0 0 
L 0 3.5 
" id="m73cf2ee171" style="stroke:#000000;stroke-width:0.8;"/>
      </defs>
      <g>
       <use style="stroke:#000000;stroke-width:0.8;" x="154.28156" xlink:href="#m73cf2ee171" y="448.56"/>
      </g>
     </g>
     <g id="text_1">
      <!-- 0 -->
      <defs>
       <path d="M 31.78125 66.40625 
Q 24.171875 66.40625 20.328125 58.90625 
Q 16.5 51.421875 16.5 36.375 
Q 16.5 21.390625 20.328125 13.890625 
Q 24.171875 6.390625 31.78125 6.390625 
Q 39.453125 6.390625 43.28125 13.890625 
Q 47.125 21.390625 47.125 36.375 
Q 47.125 51.421875 43.28125 58.90625 
Q 39.453125 66.40625 31.78125 66.40625 
z
M 31.78125 74.21875 
Q 44.046875 74.21875 50.515625 64.515625 
Q 56.984375 54.828125 56.984375 36.375 
Q 56.984375 17.96875 50.515625 8.265625 
Q 44.046875 -1.421875 31.78125 -1.421875 
Q 19.53125 -1.421875 13.0625 8.265625 
Q 6.59375 17.96875 6.59375 36.375 
Q 6.59375 54.828125 13.0625 64.515625 
Q 19.53125 74.21875 31.78125 74.21875 
z
" id="DejaVuSans-30"/>
      </defs>
      <g transform="translate(151.10031 463.158437)scale(0.1 -0.1)">
       <use xlink:href="#DejaVuSans-30"/>
      </g>
     </g>
    </g>
    <g id="xtick_2">
     <g id="line2d_2">
      <g>
       <use style="stroke:#000000;stroke-width:0.8;" x="298.91966" xlink:href="#m73cf2ee171" y="448.56"/>
      </g>
     </g>
     <g id="text_2">
      <!-- 200 -->
      <defs>
       <path d="M 19.1875 8.296875 
L 53.609375 8.296875 
L 53.609375 0 
L 7.328125 0 
L 7.328125 8.296875 
Q 12.9375 14.109375 22.625 23.890625 
Q 32.328125 33.6875 34.8125 36.53125 
Q 39.546875 41.84375 41.421875 45.53125 
Q 43.3125 49.21875 43.3125 52.78125 
Q 43.3125 58.59375 39.234375 62.25 
Q 35.15625 65.921875 28.609375 65.921875 
Q 23.96875 65.921875 18.8125 64.3125 
Q 13.671875 62.703125 7.8125 59.421875 
L 7.8125 69.390625 
Q 13.765625 71.78125 18.9375 73 
Q 24.125 74.21875 28.421875 74.21875 
Q 39.75 74.21875 46.484375 68.546875 
Q 53.21875 62.890625 53.21875 53.421875 
Q 53.21875 48.921875 51.53125 44.890625 
Q 49.859375 40.875 45.40625 35.40625 
Q 44.1875 33.984375 37.640625 27.21875 
Q 31.109375 20.453125 19.1875 8.296875 
z
" id="DejaVuSans-32"/>
      </defs>
      <g transform="translate(289.37591 463.158437)scale(0.1 -0.1)">
       <use xlink:href="#DejaVuSans-32"/>
       <use x="63.623047" xlink:href="#DejaVuSans-30"/>
       <use x="127.246094" xlink:href="#DejaVuSans-30"/>
      </g>
     </g>
    </g>
    <g id="xtick_3">
     <g id="line2d_3">
      <g>
       <use style="stroke:#000000;stroke-width:0.8;" x="443.55776" xlink:href="#m73cf2ee171" y="448.56"/>
      </g>
     </g>
     <g id="text_3">
      <!-- 400 -->
      <defs>
       <path d="M 37.796875 64.3125 
L 12.890625 25.390625 
L 37.796875 25.390625 
z
M 35.203125 72.90625 
L 47.609375 72.90625 
L 47.609375 25.390625 
L 58.015625 25.390625 
L 58.015625 17.1875 
L 47.609375 17.1875 
L 47.609375 0 
L 37.796875 0 
L 37.796875 17.1875 
L 4.890625 17.1875 
L 4.890625 26.703125 
z
" id="DejaVuSans-34"/>
      </defs>
      <g transform="translate(434.01401 463.158437)scale(0.1 -0.1)">
       <use xlink:href="#DejaVuSans-34"/>
       <use x="63.623047" xlink:href="#DejaVuSans-30"/>
       <use x="127.246094" xlink:href="#DejaVuSans-30"/>
      </g>
     </g>
    </g>
    <g id="xtick_4">
     <g id="line2d_4">
      <g>
       <use style="stroke:#000000;stroke-width:0.8;" x="588.195859" xlink:href="#m73cf2ee171" y="448.56"/>
      </g>
     </g>
     <g id="text_4">
      <!-- 600 -->
      <defs>
       <path d="M 33.015625 40.375 
Q 26.375 40.375 22.484375 35.828125 
Q 18.609375 31.296875 18.609375 23.390625 
Q 18.609375 15.53125 22.484375 10.953125 
Q 26.375 6.390625 33.015625 6.390625 
Q 39.65625 6.390625 43.53125 10.953125 
Q 47.40625 15.53125 47.40625 23.390625 
Q 47.40625 31.296875 43.53125 35.828125 
Q 39.65625 40.375 33.015625 40.375 
z
M 52.59375 71.296875 
L 52.59375 62.3125 
Q 48.875 64.0625 45.09375 64.984375 
Q 41.3125 65.921875 37.59375 65.921875 
Q 27.828125 65.921875 22.671875 59.328125 
Q 17.53125 52.734375 16.796875 39.40625 
Q 19.671875 43.65625 24.015625 45.921875 
Q 28.375 48.1875 33.59375 48.1875 
Q 44.578125 48.1875 50.953125 41.515625 
Q 57.328125 34.859375 57.328125 23.390625 
Q 57.328125 12.15625 50.6875 5.359375 
Q 44.046875 -1.421875 33.015625 -1.421875 
Q 20.359375 -1.421875 13.671875 8.265625 
Q 6.984375 17.96875 6.984375 36.375 
Q 6.984375 53.65625 15.1875 63.9375 
Q 23.390625 74.21875 37.203125 74.21875 
Q 40.921875 74.21875 44.703125 73.484375 
Q 48.484375 72.75 52.59375 71.296875 
z
" id="DejaVuSans-36"/>
      </defs>
      <g transform="translate(578.652109 463.158437)scale(0.1 -0.1)">
       <use xlink:href="#DejaVuSans-36"/>
       <use x="63.623047" xlink:href="#DejaVuSans-30"/>
       <use x="127.246094" xlink:href="#DejaVuSans-30"/>
      </g>
     </g>
    </g>
    <g id="xtick_5">
     <g id="line2d_5">
      <g>
       <use style="stroke:#000000;stroke-width:0.8;" x="732.833959" xlink:href="#m73cf2ee171" y="448.56"/>
      </g>
     </g>
     <g id="text_5">
      <!-- 800 -->
      <defs>
       <path d="M 31.78125 34.625 
Q 24.75 34.625 20.71875 30.859375 
Q 16.703125 27.09375 16.703125 20.515625 
Q 16.703125 13.921875 20.71875 10.15625 
Q 24.75 6.390625 31.78125 6.390625 
Q 38.8125 6.390625 42.859375 10.171875 
Q 46.921875 13.96875 46.921875 20.515625 
Q 46.921875 27.09375 42.890625 30.859375 
Q 38.875 34.625 31.78125 34.625 
z
M 21.921875 38.8125 
Q 15.578125 40.375 12.03125 44.71875 
Q 8.5 49.078125 8.5 55.328125 
Q 8.5 64.0625 14.71875 69.140625 
Q 20.953125 74.21875 31.78125 74.21875 
Q 42.671875 74.21875 48.875 69.140625 
Q 55.078125 64.0625 55.078125 55.328125 
Q 55.078125 49.078125 51.53125 44.71875 
Q 48 40.375 41.703125 38.8125 
Q 48.828125 37.15625 52.796875 32.3125 
Q 56.78125 27.484375 56.78125 20.515625 
Q 56.78125 9.90625 50.3125 4.234375 
Q 43.84375 -1.421875 31.78125 -1.421875 
Q 19.734375 -1.421875 13.25 4.234375 
Q 6.78125 9.90625 6.78125 20.515625 
Q 6.78125 27.484375 10.78125 32.3125 
Q 14.796875 37.15625 21.921875 38.8125 
z
M 18.3125 54.390625 
Q 18.3125 48.734375 21.84375 45.5625 
Q 25.390625 42.390625 31.78125 42.390625 
Q 38.140625 42.390625 41.71875 45.5625 
Q 45.3125 48.734375 45.3125 54.390625 
Q 45.3125 60.0625 41.71875 63.234375 
Q 38.140625 66.40625 31.78125 66.40625 
Q 25.390625 66.40625 21.84375 63.234375 
Q 18.3125 60.0625 18.3125 54.390625 
z
" id="DejaVuSans-38"/>
      </defs>
      <g transform="translate(723.290209 463.158437)scale(0.1 -0.1)">
       <use xlink:href="#DejaVuSans-38"/>
       <use x="63.623047" xlink:href="#DejaVuSans-30"/>
       <use x="127.246094" xlink:href="#DejaVuSans-30"/>
      </g>
     </g>
    </g>
    <g id="xtick_6">
     <g id="line2d_6">
      <g>
       <use style="stroke:#000000;stroke-width:0.8;" x="877.472059" xlink:href="#m73cf2ee171" y="448.56"/>
      </g>
     </g>
     <g id="text_6">
      <!-- 1000 -->
      <defs>
       <path d="M 12.40625 8.296875 
L 28.515625 8.296875 
L 28.515625 63.921875 
L 10.984375 60.40625 
L 10.984375 69.390625 
L 28.421875 72.90625 
L 38.28125 72.90625 
L 38.28125 8.296875 
L 54.390625 8.296875 
L 54.390625 0 
L 12.40625 0 
z
" id="DejaVuSans-31"/>
      </defs>
      <g transform="translate(864.747059 463.158437)scale(0.1 -0.1)">
       <use xlink:href="#DejaVuSans-31"/>
       <use x="63.623047" xlink:href="#DejaVuSans-30"/>
       <use x="127.246094" xlink:href="#DejaVuSans-30"/>
       <use x="190.869141" xlink:href="#DejaVuSans-30"/>
      </g>
     </g>
    </g>
    <g id="text_7">
     <!-- length of chunk in sentences -->
     <defs>
      <path d="M 9.421875 75.984375 
L 18.40625 75.984375 
L 18.40625 0 
L 9.421875 0 
z
" id="DejaVuSans-6c"/>
      <path d="M 56.203125 29.59375 
L 56.203125 25.203125 
L 14.890625 25.203125 
Q 15.484375 15.921875 20.484375 11.0625 
Q 25.484375 6.203125 34.421875 6.203125 
Q 39.59375 6.203125 44.453125 7.46875 
Q 49.3125 8.734375 54.109375 11.28125 
L 54.109375 2.78125 
Q 49.265625 0.734375 44.1875 -0.34375 
Q 39.109375 -1.421875 33.890625 -1.421875 
Q 20.796875 -1.421875 13.15625 6.1875 
Q 5.515625 13.8125 5.515625 26.8125 
Q 5.515625 40.234375 12.765625 48.109375 
Q 20.015625 56 32.328125 56 
Q 43.359375 56 49.78125 48.890625 
Q 56.203125 41.796875 56.203125 29.59375 
z
M 47.21875 32.234375 
Q 47.125 39.59375 43.09375 43.984375 
Q 39.0625 48.390625 32.421875 48.390625 
Q 24.90625 48.390625 20.390625 44.140625 
Q 15.875 39.890625 15.1875 32.171875 
z
" id="DejaVuSans-65"/>
      <path d="M 54.890625 33.015625 
L 54.890625 0 
L 45.90625 0 
L 45.90625 32.71875 
Q 45.90625 40.484375 42.875 44.328125 
Q 39.84375 48.1875 33.796875 48.1875 
Q 26.515625 48.1875 22.3125 43.546875 
Q 18.109375 38.921875 18.109375 30.90625 
L 18.109375 0 
L 9.078125 0 
L 9.078125 54.6875 
L 18.109375 54.6875 
L 18.109375 46.1875 
Q 21.34375 51.125 25.703125 53.5625 
Q 30.078125 56 35.796875 56 
Q 45.21875 56 50.046875 50.171875 
Q 54.890625 44.34375 54.890625 33.015625 
z
" id="DejaVuSans-6e"/>
      <path d="M 45.40625 27.984375 
Q 45.40625 37.75 41.375 43.109375 
Q 37.359375 48.484375 30.078125 48.484375 
Q 22.859375 48.484375 18.828125 43.109375 
Q 14.796875 37.75 14.796875 27.984375 
Q 14.796875 18.265625 18.828125 12.890625 
Q 22.859375 7.515625 30.078125 7.515625 
Q 37.359375 7.515625 41.375 12.890625 
Q 45.40625 18.265625 45.40625 27.984375 
z
M 54.390625 6.78125 
Q 54.390625 -7.171875 48.1875 -13.984375 
Q 42 -20.796875 29.203125 -20.796875 
Q 24.46875 -20.796875 20.265625 -20.09375 
Q 16.0625 -19.390625 12.109375 -17.921875 
L 12.109375 -9.1875 
Q 16.0625 -11.328125 19.921875 -12.34375 
Q 23.78125 -13.375 27.78125 -13.375 
Q 36.625 -13.375 41.015625 -8.765625 
Q 45.40625 -4.15625 45.40625 5.171875 
L 45.40625 9.625 
Q 42.625 4.78125 38.28125 2.390625 
Q 33.9375 0 27.875 0 
Q 17.828125 0 11.671875 7.65625 
Q 5.515625 15.328125 5.515625 27.984375 
Q 5.515625 40.671875 11.671875 48.328125 
Q 17.828125 56 27.875 56 
Q 33.9375 56 38.28125 53.609375 
Q 42.625 51.21875 45.40625 46.390625 
L 45.40625 54.6875 
L 54.390625 54.6875 
z
" id="DejaVuSans-67"/>
      <path d="M 18.3125 70.21875 
L 18.3125 54.6875 
L 36.8125 54.6875 
L 36.8125 47.703125 
L 18.3125 47.703125 
L 18.3125 18.015625 
Q 18.3125 11.328125 20.140625 9.421875 
Q 21.96875 7.515625 27.59375 7.515625 
L 36.8125 7.515625 
L 36.8125 0 
L 27.59375 0 
Q 17.1875 0 13.234375 3.875 
Q 9.28125 7.765625 9.28125 18.015625 
L 9.28125 47.703125 
L 2.6875 47.703125 
L 2.6875 54.6875 
L 9.28125 54.6875 
L 9.28125 70.21875 
z
" id="DejaVuSans-74"/>
      <path d="M 54.890625 33.015625 
L 54.890625 0 
L 45.90625 0 
L 45.90625 32.71875 
Q 45.90625 40.484375 42.875 44.328125 
Q 39.84375 48.1875 33.796875 48.1875 
Q 26.515625 48.1875 22.3125 43.546875 
Q 18.109375 38.921875 18.109375 30.90625 
L 18.109375 0 
L 9.078125 0 
L 9.078125 75.984375 
L 18.109375 75.984375 
L 18.109375 46.1875 
Q 21.34375 51.125 25.703125 53.5625 
Q 30.078125 56 35.796875 56 
Q 45.21875 56 50.046875 50.171875 
Q 54.890625 44.34375 54.890625 33.015625 
z
" id="DejaVuSans-68"/>
      <path id="DejaVuSans-20"/>
      <path d="M 30.609375 48.390625 
Q 23.390625 48.390625 19.1875 42.75 
Q 14.984375 37.109375 14.984375 27.296875 
Q 14.984375 17.484375 19.15625 11.84375 
Q 23.34375 6.203125 30.609375 6.203125 
Q 37.796875 6.203125 41.984375 11.859375 
Q 46.1875 17.53125 46.1875 27.296875 
Q 46.1875 37.015625 41.984375 42.703125 
Q 37.796875 48.390625 30.609375 48.390625 
z
M 30.609375 56 
Q 42.328125 56 49.015625 48.375 
Q 55.71875 40.765625 55.71875 27.296875 
Q 55.71875 13.875 49.015625 6.21875 
Q 42.328125 -1.421875 30.609375 -1.421875 
Q 18.84375 -1.421875 12.171875 6.21875 
Q 5.515625 13.875 5.515625 27.296875 
Q 5.515625 40.765625 12.171875 48.375 
Q 18.84375 56 30.609375 56 
z
" id="DejaVuSans-6f"/>
      <path d="M 37.109375 75.984375 
L 37.109375 68.5 
L 28.515625 68.5 
Q 23.6875 68.5 21.796875 66.546875 
Q 19.921875 64.59375 19.921875 59.515625 
L 19.921875 54.6875 
L 34.71875 54.6875 
L 34.71875 47.703125 
L 19.921875 47.703125 
L 19.921875 0 
L 10.890625 0 
L 10.890625 47.703125 
L 2.296875 47.703125 
L 2.296875 54.6875 
L 10.890625 54.6875 
L 10.890625 58.5 
Q 10.890625 67.625 15.140625 71.796875 
Q 19.390625 75.984375 28.609375 75.984375 
z
" id="DejaVuSans-66"/>
      <path d="M 48.78125 52.59375 
L 48.78125 44.1875 
Q 44.96875 46.296875 41.140625 47.34375 
Q 37.3125 48.390625 33.40625 48.390625 
Q 24.65625 48.390625 19.8125 42.84375 
Q 14.984375 37.3125 14.984375 27.296875 
Q 14.984375 17.28125 19.8125 11.734375 
Q 24.65625 6.203125 33.40625 6.203125 
Q 37.3125 6.203125 41.140625 7.25 
Q 44.96875 8.296875 48.78125 10.40625 
L 48.78125 2.09375 
Q 45.015625 0.34375 40.984375 -0.53125 
Q 36.96875 -1.421875 32.421875 -1.421875 
Q 20.0625 -1.421875 12.78125 6.34375 
Q 5.515625 14.109375 5.515625 27.296875 
Q 5.515625 40.671875 12.859375 48.328125 
Q 20.21875 56 33.015625 56 
Q 37.15625 56 41.109375 55.140625 
Q 45.0625 54.296875 48.78125 52.59375 
z
" id="DejaVuSans-63"/>
      <path d="M 8.5 21.578125 
L 8.5 54.6875 
L 17.484375 54.6875 
L 17.484375 21.921875 
Q 17.484375 14.15625 20.5 10.265625 
Q 23.53125 6.390625 29.59375 6.390625 
Q 36.859375 6.390625 41.078125 11.03125 
Q 45.3125 15.671875 45.3125 23.6875 
L 45.3125 54.6875 
L 54.296875 54.6875 
L 54.296875 0 
L 45.3125 0 
L 45.3125 8.40625 
Q 42.046875 3.421875 37.71875 1 
Q 33.40625 -1.421875 27.6875 -1.421875 
Q 18.265625 -1.421875 13.375 4.4375 
Q 8.5 10.296875 8.5 21.578125 
z
M 31.109375 56 
z
" id="DejaVuSans-75"/>
      <path d="M 9.078125 75.984375 
L 18.109375 75.984375 
L 18.109375 31.109375 
L 44.921875 54.6875 
L 56.390625 54.6875 
L 27.390625 29.109375 
L 57.625 0 
L 45.90625 0 
L 18.109375 26.703125 
L 18.109375 0 
L 9.078125 0 
z
" id="DejaVuSans-6b"/>
      <path d="M 9.421875 54.6875 
L 18.40625 54.6875 
L 18.40625 0 
L 9.421875 0 
z
M 9.421875 75.984375 
L 18.40625 75.984375 
L 18.40625 64.59375 
L 9.421875 64.59375 
z
" id="DejaVuSans-69"/>
      <path d="M 44.28125 53.078125 
L 44.28125 44.578125 
Q 40.484375 46.53125 36.375 47.5 
Q 32.28125 48.484375 27.875 48.484375 
Q 21.1875 48.484375 17.84375 46.4375 
Q 14.5 44.390625 14.5 40.28125 
Q 14.5 37.15625 16.890625 35.375 
Q 19.28125 33.59375 26.515625 31.984375 
L 29.59375 31.296875 
Q 39.15625 29.25 43.1875 25.515625 
Q 47.21875 21.78125 47.21875 15.09375 
Q 47.21875 7.46875 41.1875 3.015625 
Q 35.15625 -1.421875 24.609375 -1.421875 
Q 20.21875 -1.421875 15.453125 -0.5625 
Q 10.6875 0.296875 5.421875 2 
L 5.421875 11.28125 
Q 10.40625 8.6875 15.234375 7.390625 
Q 20.0625 6.109375 24.8125 6.109375 
Q 31.15625 6.109375 34.5625 8.28125 
Q 37.984375 10.453125 37.984375 14.40625 
Q 37.984375 18.0625 35.515625 20.015625 
Q 33.0625 21.96875 24.703125 23.78125 
L 21.578125 24.515625 
Q 13.234375 26.265625 9.515625 29.90625 
Q 5.8125 33.546875 5.8125 39.890625 
Q 5.8125 47.609375 11.28125 51.796875 
Q 16.75 56 26.8125 56 
Q 31.78125 56 36.171875 55.265625 
Q 40.578125 54.546875 44.28125 53.078125 
z
" id="DejaVuSans-73"/>
     </defs>
     <g transform="translate(444.292188 476.836563)scale(0.1 -0.1)">
      <use xlink:href="#DejaVuSans-6c"/>
      <use x="27.783203" xlink:href="#DejaVuSans-65"/>
      <use x="89.306641" xlink:href="#DejaVuSans-6e"/>
      <use x="152.685547" xlink:href="#DejaVuSans-67"/>
      <use x="216.162109" xlink:href="#DejaVuSans-74"/>
      <use x="255.371094" xlink:href="#DejaVuSans-68"/>
      <use x="318.75" xlink:href="#DejaVuSans-20"/>
      <use x="350.537109" xlink:href="#DejaVuSans-6f"/>
      <use x="411.71875" xlink:href="#DejaVuSans-66"/>
      <use x="446.923828" xlink:href="#DejaVuSans-20"/>
      <use x="478.710938" xlink:href="#DejaVuSans-63"/>
      <use x="533.691406" xlink:href="#DejaVuSans-68"/>
      <use x="597.070312" xlink:href="#DejaVuSans-75"/>
      <use x="660.449219" xlink:href="#DejaVuSans-6e"/>
      <use x="723.828125" xlink:href="#DejaVuSans-6b"/>
      <use x="781.738281" xlink:href="#DejaVuSans-20"/>
      <use x="813.525391" xlink:href="#DejaVuSans-69"/>
      <use x="841.308594" xlink:href="#DejaVuSans-6e"/>
      <use x="904.6875" xlink:href="#DejaVuSans-20"/>
      <use x="936.474609" xlink:href="#DejaVuSans-73"/>
      <use x="988.574219" xlink:href="#DejaVuSans-65"/>
      <use x="1050.097656" xlink:href="#DejaVuSans-6e"/>
      <use x="1113.476562" xlink:href="#DejaVuSans-74"/>
      <use x="1152.685547" xlink:href="#DejaVuSans-65"/>
      <use x="1214.208984" xlink:href="#DejaVuSans-6e"/>
      <use x="1277.587891" xlink:href="#DejaVuSans-63"/>
      <use x="1332.568359" xlink:href="#DejaVuSans-65"/>
      <use x="1394.091797" xlink:href="#DejaVuSans-73"/>
     </g>
    </g>
   </g>
   <g id="matplotlib.axis_2">
    <g id="ytick_1">
     <g id="line2d_7">
      <defs>
       <path d="M 0 0 
L -3.5 0 
" id="mc6d4e34d6a" style="stroke:#000000;stroke-width:0.8;"/>
      </defs>
      <g>
       <use style="stroke:#000000;stroke-width:0.8;" x="126" xlink:href="#mc6d4e34d6a" y="446.028762"/>
      </g>
     </g>
     <g id="text_8">
      <!-- 8 -->
      <g transform="translate(112.6375 449.827981)scale(0.1 -0.1)">
       <use xlink:href="#DejaVuSans-38"/>
      </g>
     </g>
    </g>
    <g id="ytick_2">
     <g id="line2d_8">
      <g>
       <use style="stroke:#000000;stroke-width:0.8;" x="126" xlink:href="#mc6d4e34d6a" y="390.986041"/>
      </g>
     </g>
     <g id="text_9">
      <!-- 10 -->
      <g transform="translate(106.275 394.78526)scale(0.1 -0.1)">
       <use xlink:href="#DejaVuSans-31"/>
       <use x="63.623047" xlink:href="#DejaVuSans-30"/>
      </g>
     </g>
    </g>
    <g id="ytick_3">
     <g id="line2d_9">
      <g>
       <use style="stroke:#000000;stroke-width:0.8;" x="126" xlink:href="#mc6d4e34d6a" y="335.943321"/>
      </g>
     </g>
     <g id="text_10">
      <!-- 12 -->
      <g transform="translate(106.275 339.742539)scale(0.1 -0.1)">
       <use xlink:href="#DejaVuSans-31"/>
       <use x="63.623047" xlink:href="#DejaVuSans-32"/>
      </g>
     </g>
    </g>
    <g id="ytick_4">
     <g id="line2d_10">
      <g>
       <use style="stroke:#000000;stroke-width:0.8;" x="126" xlink:href="#mc6d4e34d6a" y="280.9006"/>
      </g>
     </g>
     <g id="text_11">
      <!-- 14 -->
      <g transform="translate(106.275 284.699819)scale(0.1 -0.1)">
       <use xlink:href="#DejaVuSans-31"/>
       <use x="63.623047" xlink:href="#DejaVuSans-34"/>
      </g>
     </g>
    </g>
    <g id="ytick_5">
     <g id="line2d_11">
      <g>
       <use style="stroke:#000000;stroke-width:0.8;" x="126" xlink:href="#mc6d4e34d6a" y="225.857879"/>
      </g>
     </g>
     <g id="text_12">
      <!-- 16 -->
      <g transform="translate(106.275 229.657098)scale(0.1 -0.1)">
       <use xlink:href="#DejaVuSans-31"/>
       <use x="63.623047" xlink:href="#DejaVuSans-36"/>
      </g>
     </g>
    </g>
    <g id="ytick_6">
     <g id="line2d_12">
      <g>
       <use style="stroke:#000000;stroke-width:0.8;" x="126" xlink:href="#mc6d4e34d6a" y="170.815159"/>
      </g>
     </g>
     <g id="text_13">
      <!-- 18 -->
      <g transform="translate(106.275 174.614377)scale(0.1 -0.1)">
       <use xlink:href="#DejaVuSans-31"/>
       <use x="63.623047" xlink:href="#DejaVuSans-38"/>
      </g>
     </g>
    </g>
    <g id="ytick_7">
     <g id="line2d_13">
      <g>
       <use style="stroke:#000000;stroke-width:0.8;" x="126" xlink:href="#mc6d4e34d6a" y="115.772438"/>
      </g>
     </g>
     <g id="text_14">
      <!-- 20 -->
      <g transform="translate(106.275 119.571657)scale(0.1 -0.1)">
       <use xlink:href="#DejaVuSans-32"/>
       <use x="63.623047" xlink:href="#DejaVuSans-30"/>
      </g>
     </g>
    </g>
    <g id="ytick_8">
     <g id="line2d_14">
      <g>
       <use style="stroke:#000000;stroke-width:0.8;" x="126" xlink:href="#mc6d4e34d6a" y="60.729717"/>
      </g>
     </g>
     <g id="text_15">
      <!-- 22 -->
      <g transform="translate(106.275 64.528936)scale(0.1 -0.1)">
       <use xlink:href="#DejaVuSans-32"/>
       <use x="63.623047" xlink:href="#DejaVuSans-32"/>
      </g>
     </g>
    </g>
    <g id="text_16">
     <!-- GFI -->
     <defs>
      <path d="M 59.515625 10.40625 
L 59.515625 29.984375 
L 43.40625 29.984375 
L 43.40625 38.09375 
L 69.28125 38.09375 
L 69.28125 6.78125 
Q 63.578125 2.734375 56.6875 0.65625 
Q 49.8125 -1.421875 42 -1.421875 
Q 24.90625 -1.421875 15.25 8.5625 
Q 5.609375 18.5625 5.609375 36.375 
Q 5.609375 54.25 15.25 64.234375 
Q 24.90625 74.21875 42 74.21875 
Q 49.125 74.21875 55.546875 72.453125 
Q 61.96875 70.703125 67.390625 67.28125 
L 67.390625 56.78125 
Q 61.921875 61.421875 55.765625 63.765625 
Q 49.609375 66.109375 42.828125 66.109375 
Q 29.4375 66.109375 22.71875 58.640625 
Q 16.015625 51.171875 16.015625 36.375 
Q 16.015625 21.625 22.71875 14.15625 
Q 29.4375 6.6875 42.828125 6.6875 
Q 48.046875 6.6875 52.140625 7.59375 
Q 56.25 8.5 59.515625 10.40625 
z
" id="DejaVuSans-47"/>
      <path d="M 9.8125 72.90625 
L 51.703125 72.90625 
L 51.703125 64.59375 
L 19.671875 64.59375 
L 19.671875 43.109375 
L 48.578125 43.109375 
L 48.578125 34.8125 
L 19.671875 34.8125 
L 19.671875 0 
L 9.8125 0 
z
" id="DejaVuSans-46"/>
      <path d="M 9.8125 72.90625 
L 19.671875 72.90625 
L 19.671875 0 
L 9.8125 0 
z
" id="DejaVuSans-49"/>
     </defs>
     <g transform="translate(100.195312 262.745)rotate(-90)scale(0.1 -0.1)">
      <use xlink:href="#DejaVuSans-47"/>
      <use x="77.490234" xlink:href="#DejaVuSans-46"/>
      <use x="135.009766" xlink:href="#DejaVuSans-49"/>
     </g>
    </g>
   </g>
   <g id="line2d_15">
    <path clip-path="url(#p7212b7e2d6)" d="M 161.513465 283.270134 
L 168.74537 284.366101 
L 175.977275 283.23658 
L 183.20918 285.262162 
L 190.441085 285.472767 
L 208.520847 283.924774 
L 226.60061 287.702351 
L 262.760135 287.736447 
L 298.91966 285.483595 
L 335.079185 283.975653 
L 371.23871 287.563521 
L 407.398235 283.344497 
L 443.55776 285.454009 
L 479.717285 287.712137 
L 515.87681 277.262276 
L 696.674434 284.029779 
L 871.686535 282.075762 
" style="fill:none;stroke:#ff0000;stroke-linecap:square;stroke-width:1.5;"/>
   </g>
   <g id="patch_3">
    <path d="M 126 448.56 
L 126 60.48 
" style="fill:none;stroke:#000000;stroke-linecap:square;stroke-linejoin:miter;stroke-width:0.8;"/>
   </g>
   <g id="patch_4">
    <path d="M 907.2 448.56 
L 907.2 60.48 
" style="fill:none;stroke:#000000;stroke-linecap:square;stroke-linejoin:miter;stroke-width:0.8;"/>
   </g>
   <g id="patch_5">
    <path d="M 126 448.56 
L 907.2 448.56 
" style="fill:none;stroke:#000000;stroke-linecap:square;stroke-linejoin:miter;stroke-width:0.8;"/>
   </g>
   <g id="patch_6">
    <path d="M 126 60.48 
L 907.2 60.48 
" style="fill:none;stroke:#000000;stroke-linecap:square;stroke-linejoin:miter;stroke-width:0.8;"/>
   </g>
  </g>
  <g id="text_17">
   <!-- GFI values of the different chunk sizes of document de124051169.txt -->
   <defs>
    <path d="M 2.984375 54.6875 
L 12.5 54.6875 
L 29.59375 8.796875 
L 46.6875 54.6875 
L 56.203125 54.6875 
L 35.6875 0 
L 23.484375 0 
z
" id="DejaVuSans-76"/>
    <path d="M 34.28125 27.484375 
Q 23.390625 27.484375 19.1875 25 
Q 14.984375 22.515625 14.984375 16.5 
Q 14.984375 11.71875 18.140625 8.90625 
Q 21.296875 6.109375 26.703125 6.109375 
Q 34.1875 6.109375 38.703125 11.40625 
Q 43.21875 16.703125 43.21875 25.484375 
L 43.21875 27.484375 
z
M 52.203125 31.203125 
L 52.203125 0 
L 43.21875 0 
L 43.21875 8.296875 
Q 40.140625 3.328125 35.546875 0.953125 
Q 30.953125 -1.421875 24.3125 -1.421875 
Q 15.921875 -1.421875 10.953125 3.296875 
Q 6 8.015625 6 15.921875 
Q 6 25.140625 12.171875 29.828125 
Q 18.359375 34.515625 30.609375 34.515625 
L 43.21875 34.515625 
L 43.21875 35.40625 
Q 43.21875 41.609375 39.140625 45 
Q 35.0625 48.390625 27.6875 48.390625 
Q 23 48.390625 18.546875 47.265625 
Q 14.109375 46.140625 10.015625 43.890625 
L 10.015625 52.203125 
Q 14.9375 54.109375 19.578125 55.046875 
Q 24.21875 56 28.609375 56 
Q 40.484375 56 46.34375 49.84375 
Q 52.203125 43.703125 52.203125 31.203125 
z
" id="DejaVuSans-61"/>
    <path d="M 45.40625 46.390625 
L 45.40625 75.984375 
L 54.390625 75.984375 
L 54.390625 0 
L 45.40625 0 
L 45.40625 8.203125 
Q 42.578125 3.328125 38.25 0.953125 
Q 33.9375 -1.421875 27.875 -1.421875 
Q 17.96875 -1.421875 11.734375 6.484375 
Q 5.515625 14.40625 5.515625 27.296875 
Q 5.515625 40.1875 11.734375 48.09375 
Q 17.96875 56 27.875 56 
Q 33.9375 56 38.25 53.625 
Q 42.578125 51.265625 45.40625 46.390625 
z
M 14.796875 27.296875 
Q 14.796875 17.390625 18.875 11.75 
Q 22.953125 6.109375 30.078125 6.109375 
Q 37.203125 6.109375 41.296875 11.75 
Q 45.40625 17.390625 45.40625 27.296875 
Q 45.40625 37.203125 41.296875 42.84375 
Q 37.203125 48.484375 30.078125 48.484375 
Q 22.953125 48.484375 18.875 42.84375 
Q 14.796875 37.203125 14.796875 27.296875 
z
" id="DejaVuSans-64"/>
    <path d="M 41.109375 46.296875 
Q 39.59375 47.171875 37.8125 47.578125 
Q 36.03125 48 33.890625 48 
Q 26.265625 48 22.1875 43.046875 
Q 18.109375 38.09375 18.109375 28.8125 
L 18.109375 0 
L 9.078125 0 
L 9.078125 54.6875 
L 18.109375 54.6875 
L 18.109375 46.1875 
Q 20.953125 51.171875 25.484375 53.578125 
Q 30.03125 56 36.53125 56 
Q 37.453125 56 38.578125 55.875 
Q 39.703125 55.765625 41.0625 55.515625 
z
" id="DejaVuSans-72"/>
    <path d="M 5.515625 54.6875 
L 48.1875 54.6875 
L 48.1875 46.484375 
L 14.40625 7.171875 
L 48.1875 7.171875 
L 48.1875 0 
L 4.296875 0 
L 4.296875 8.203125 
L 38.09375 47.515625 
L 5.515625 47.515625 
z
" id="DejaVuSans-7a"/>
    <path d="M 52 44.1875 
Q 55.375 50.25 60.0625 53.125 
Q 64.75 56 71.09375 56 
Q 79.640625 56 84.28125 50.015625 
Q 88.921875 44.046875 88.921875 33.015625 
L 88.921875 0 
L 79.890625 0 
L 79.890625 32.71875 
Q 79.890625 40.578125 77.09375 44.375 
Q 74.3125 48.1875 68.609375 48.1875 
Q 61.625 48.1875 57.5625 43.546875 
Q 53.515625 38.921875 53.515625 30.90625 
L 53.515625 0 
L 44.484375 0 
L 44.484375 32.71875 
Q 44.484375 40.625 41.703125 44.40625 
Q 38.921875 48.1875 33.109375 48.1875 
Q 26.21875 48.1875 22.15625 43.53125 
Q 18.109375 38.875 18.109375 30.90625 
L 18.109375 0 
L 9.078125 0 
L 9.078125 54.6875 
L 18.109375 54.6875 
L 18.109375 46.1875 
Q 21.1875 51.21875 25.484375 53.609375 
Q 29.78125 56 35.6875 56 
Q 41.65625 56 45.828125 52.96875 
Q 50 49.953125 52 44.1875 
z
" id="DejaVuSans-6d"/>
    <path d="M 10.796875 72.90625 
L 49.515625 72.90625 
L 49.515625 64.59375 
L 19.828125 64.59375 
L 19.828125 46.734375 
Q 21.96875 47.46875 24.109375 47.828125 
Q 26.265625 48.1875 28.421875 48.1875 
Q 40.625 48.1875 47.75 41.5 
Q 54.890625 34.8125 54.890625 23.390625 
Q 54.890625 11.625 47.5625 5.09375 
Q 40.234375 -1.421875 26.90625 -1.421875 
Q 22.3125 -1.421875 17.546875 -0.640625 
Q 12.796875 0.140625 7.71875 1.703125 
L 7.71875 11.625 
Q 12.109375 9.234375 16.796875 8.0625 
Q 21.484375 6.890625 26.703125 6.890625 
Q 35.15625 6.890625 40.078125 11.328125 
Q 45.015625 15.765625 45.015625 23.390625 
Q 45.015625 31 40.078125 35.4375 
Q 35.15625 39.890625 26.703125 39.890625 
Q 22.75 39.890625 18.8125 39.015625 
Q 14.890625 38.140625 10.796875 36.28125 
z
" id="DejaVuSans-35"/>
    <path d="M 10.984375 1.515625 
L 10.984375 10.5 
Q 14.703125 8.734375 18.5 7.8125 
Q 22.3125 6.890625 25.984375 6.890625 
Q 35.75 6.890625 40.890625 13.453125 
Q 46.046875 20.015625 46.78125 33.40625 
Q 43.953125 29.203125 39.59375 26.953125 
Q 35.25 24.703125 29.984375 24.703125 
Q 19.046875 24.703125 12.671875 31.3125 
Q 6.296875 37.9375 6.296875 49.421875 
Q 6.296875 60.640625 12.9375 67.421875 
Q 19.578125 74.21875 30.609375 74.21875 
Q 43.265625 74.21875 49.921875 64.515625 
Q 56.59375 54.828125 56.59375 36.375 
Q 56.59375 19.140625 48.40625 8.859375 
Q 40.234375 -1.421875 26.421875 -1.421875 
Q 22.703125 -1.421875 18.890625 -0.6875 
Q 15.09375 0.046875 10.984375 1.515625 
z
M 30.609375 32.421875 
Q 37.25 32.421875 41.125 36.953125 
Q 45.015625 41.5 45.015625 49.421875 
Q 45.015625 57.28125 41.125 61.84375 
Q 37.25 66.40625 30.609375 66.40625 
Q 23.96875 66.40625 20.09375 61.84375 
Q 16.21875 57.28125 16.21875 49.421875 
Q 16.21875 41.5 20.09375 36.953125 
Q 23.96875 32.421875 30.609375 32.421875 
z
" id="DejaVuSans-39"/>
    <path d="M 10.6875 12.40625 
L 21 12.40625 
L 21 0 
L 10.6875 0 
z
" id="DejaVuSans-2e"/>
    <path d="M 54.890625 54.6875 
L 35.109375 28.078125 
L 55.90625 0 
L 45.3125 0 
L 29.390625 21.484375 
L 13.484375 0 
L 2.875 0 
L 24.125 28.609375 
L 4.6875 54.6875 
L 15.28125 54.6875 
L 29.78125 35.203125 
L 44.28125 54.6875 
z
" id="DejaVuSans-78"/>
   </defs>
   <g transform="translate(260.28625 20.717812)scale(0.14 -0.14)">
    <use xlink:href="#DejaVuSans-47"/>
    <use x="77.490234" xlink:href="#DejaVuSans-46"/>
    <use x="135.009766" xlink:href="#DejaVuSans-49"/>
    <use x="164.501953" xlink:href="#DejaVuSans-20"/>
    <use x="196.289062" xlink:href="#DejaVuSans-76"/>
    <use x="255.46875" xlink:href="#DejaVuSans-61"/>
    <use x="316.748047" xlink:href="#DejaVuSans-6c"/>
    <use x="344.53125" xlink:href="#DejaVuSans-75"/>
    <use x="407.910156" xlink:href="#DejaVuSans-65"/>
    <use x="469.433594" xlink:href="#DejaVuSans-73"/>
    <use x="521.533203" xlink:href="#DejaVuSans-20"/>
    <use x="553.320312" xlink:href="#DejaVuSans-6f"/>
    <use x="614.501953" xlink:href="#DejaVuSans-66"/>
    <use x="649.707031" xlink:href="#DejaVuSans-20"/>
    <use x="681.494141" xlink:href="#DejaVuSans-74"/>
    <use x="720.703125" xlink:href="#DejaVuSans-68"/>
    <use x="784.082031" xlink:href="#DejaVuSans-65"/>
    <use x="845.605469" xlink:href="#DejaVuSans-20"/>
    <use x="877.392578" xlink:href="#DejaVuSans-64"/>
    <use x="940.869141" xlink:href="#DejaVuSans-69"/>
    <use x="968.652344" xlink:href="#DejaVuSans-66"/>
    <use x="1003.857422" xlink:href="#DejaVuSans-66"/>
    <use x="1039.0625" xlink:href="#DejaVuSans-65"/>
    <use x="1100.585938" xlink:href="#DejaVuSans-72"/>
    <use x="1141.667969" xlink:href="#DejaVuSans-65"/>
    <use x="1203.191406" xlink:href="#DejaVuSans-6e"/>
    <use x="1266.570312" xlink:href="#DejaVuSans-74"/>
    <use x="1305.779297" xlink:href="#DejaVuSans-20"/>
    <use x="1337.566406" xlink:href="#DejaVuSans-63"/>
    <use x="1392.546875" xlink:href="#DejaVuSans-68"/>
    <use x="1455.925781" xlink:href="#DejaVuSans-75"/>
    <use x="1519.304688" xlink:href="#DejaVuSans-6e"/>
    <use x="1582.683594" xlink:href="#DejaVuSans-6b"/>
    <use x="1640.59375" xlink:href="#DejaVuSans-20"/>
    <use x="1672.380859" xlink:href="#DejaVuSans-73"/>
    <use x="1724.480469" xlink:href="#DejaVuSans-69"/>
    <use x="1752.263672" xlink:href="#DejaVuSans-7a"/>
    <use x="1804.753906" xlink:href="#DejaVuSans-65"/>
    <use x="1866.277344" xlink:href="#DejaVuSans-73"/>
    <use x="1918.376953" xlink:href="#DejaVuSans-20"/>
    <use x="1950.164062" xlink:href="#DejaVuSans-6f"/>
    <use x="2011.345703" xlink:href="#DejaVuSans-66"/>
    <use x="2046.550781" xlink:href="#DejaVuSans-20"/>
    <use x="2078.337891" xlink:href="#DejaVuSans-64"/>
    <use x="2141.814453" xlink:href="#DejaVuSans-6f"/>
    <use x="2202.996094" xlink:href="#DejaVuSans-63"/>
    <use x="2257.976562" xlink:href="#DejaVuSans-75"/>
    <use x="2321.355469" xlink:href="#DejaVuSans-6d"/>
    <use x="2418.767578" xlink:href="#DejaVuSans-65"/>
    <use x="2480.291016" xlink:href="#DejaVuSans-6e"/>
    <use x="2543.669922" xlink:href="#DejaVuSans-74"/>
    <use x="2582.878906" xlink:href="#DejaVuSans-20"/>
    <use x="2614.666016" xlink:href="#DejaVuSans-64"/>
    <use x="2678.142578" xlink:href="#DejaVuSans-65"/>
    <use x="2739.666016" xlink:href="#DejaVuSans-31"/>
    <use x="2803.289062" xlink:href="#DejaVuSans-32"/>
    <use x="2866.912109" xlink:href="#DejaVuSans-34"/>
    <use x="2930.535156" xlink:href="#DejaVuSans-30"/>
    <use x="2994.158203" xlink:href="#DejaVuSans-35"/>
    <use x="3057.78125" xlink:href="#DejaVuSans-31"/>
    <use x="3121.404297" xlink:href="#DejaVuSans-31"/>
    <use x="3185.027344" xlink:href="#DejaVuSans-36"/>
    <use x="3248.650391" xlink:href="#DejaVuSans-39"/>
    <use x="3312.273438" xlink:href="#DejaVuSans-2e"/>
    <use x="3344.060547" xlink:href="#DejaVuSans-74"/>
    <use x="3383.269531" xlink:href="#DejaVuSans-78"/>
    <use x="3442.449219" xlink:href="#DejaVuSans-74"/>
   </g>
  </g>
 </g>
 <defs>
  <clipPath id="p7212b7e2d6">
   <rect height="388.08" width="781.2" x="126" y="60.48"/>
  </clipPath>
 </defs>
</svg>
