<?xml version="1.0" encoding="utf-8" standalone="no"?>
<!DOCTYPE svg PUBLIC "-//W3C//DTD SVG 1.1//EN"
  "http://www.w3.org/Graphics/SVG/1.1/DTD/svg11.dtd">
<!-- Created with matplotlib (https://matplotlib.org/) -->
<svg height="436.33625pt" version="1.1" viewBox="0 0 832.503125 436.33625" width="832.503125pt" xmlns="http://www.w3.org/2000/svg" xmlns:xlink="http://www.w3.org/1999/xlink">
 <defs>
  <style type="text/css">
*{stroke-linecap:butt;stroke-linejoin:round;}
  </style>
 </defs>
 <g id="figure_1">
  <g id="patch_1">
   <path d="M 0 436.33625 
L 832.503125 436.33625 
L 832.503125 0 
L 0 0 
z
" style="fill:#ffffff;"/>
  </g>
  <g id="axes_1">
   <g id="patch_2">
    <path d="M 40.603125 398.78 
L 821.803125 398.78 
L 821.803125 10.7 
L 40.603125 10.7 
z
" style="fill:#ffffff;"/>
   </g>
   <g id="PathCollection_1">
    <defs>
     <path d="M 0 3 
C 0.795609 3 1.55874 2.683901 2.12132 2.12132 
C 2.683901 1.55874 3 0.795609 3 0 
C 3 -0.795609 2.683901 -1.55874 2.12132 -2.12132 
C 1.55874 -2.683901 0.795609 -3 0 -3 
C -0.795609 -3 -1.55874 -2.683901 -2.12132 -2.12132 
C -2.683901 -1.55874 -3 -0.795609 -3 0 
C -3 0.795609 -2.683901 1.55874 -2.12132 2.12132 
C -1.55874 2.683901 -0.795609 3 0 3 
z
" id="ma559000ee1" style="stroke:#1f77b4;"/>
    </defs>
    <g clip-path="url(#pc24a76c365)">
     <use style="fill:#1f77b4;stroke:#1f77b4;" x="786.287661" xlink:href="#ma559000ee1" y="206.131771"/>
     <use style="fill:#1f77b4;stroke:#1f77b4;" x="592.413612" xlink:href="#ma559000ee1" y="196.117749"/>
     <use style="fill:#1f77b4;stroke:#1f77b4;" x="539.730446" xlink:href="#ma559000ee1" y="193.766882"/>
     <use style="fill:#1f77b4;stroke:#1f77b4;" x="487.047281" xlink:href="#ma559000ee1" y="189.444939"/>
     <use style="fill:#1f77b4;stroke:#1f77b4;" x="434.364115" xlink:href="#ma559000ee1" y="182.464449"/>
     <use style="fill:#1f77b4;stroke:#1f77b4;" x="381.680949" xlink:href="#ma559000ee1" y="186.401792"/>
     <use style="fill:#1f77b4;stroke:#1f77b4;" x="381.680949" xlink:href="#ma559000ee1" y="217.862071"/>
     <use style="fill:#1f77b4;stroke:#1f77b4;" x="328.997784" xlink:href="#ma559000ee1" y="176.190662"/>
     <use style="fill:#1f77b4;stroke:#1f77b4;" x="328.997784" xlink:href="#ma559000ee1" y="216.496741"/>
     <use style="fill:#1f77b4;stroke:#1f77b4;" x="276.314618" xlink:href="#ma559000ee1" y="160.92685"/>
     <use style="fill:#1f77b4;stroke:#1f77b4;" x="276.314618" xlink:href="#ma559000ee1" y="218.789918"/>
     <use style="fill:#1f77b4;stroke:#1f77b4;" x="276.314618" xlink:href="#ma559000ee1" y="227.606873"/>
     <use style="fill:#1f77b4;stroke:#1f77b4;" x="223.631453" xlink:href="#ma559000ee1" y="171.835067"/>
     <use style="fill:#1f77b4;stroke:#1f77b4;" x="223.631453" xlink:href="#ma559000ee1" y="201.237736"/>
     <use style="fill:#1f77b4;stroke:#1f77b4;" x="223.631453" xlink:href="#ma559000ee1" y="208.655709"/>
     <use style="fill:#1f77b4;stroke:#1f77b4;" x="223.631453" xlink:href="#ma559000ee1" y="227.068433"/>
     <use style="fill:#1f77b4;stroke:#1f77b4;" x="170.948287" xlink:href="#ma559000ee1" y="201.415614"/>
     <use style="fill:#1f77b4;stroke:#1f77b4;" x="170.948287" xlink:href="#ma559000ee1" y="121.904374"/>
     <use style="fill:#1f77b4;stroke:#1f77b4;" x="170.948287" xlink:href="#ma559000ee1" y="239.683313"/>
     <use style="fill:#1f77b4;stroke:#1f77b4;" x="170.948287" xlink:href="#ma559000ee1" y="198.478231"/>
     <use style="fill:#1f77b4;stroke:#1f77b4;" x="170.948287" xlink:href="#ma559000ee1" y="223.333006"/>
     <use style="fill:#1f77b4;stroke:#1f77b4;" x="170.948287" xlink:href="#ma559000ee1" y="231.231728"/>
     <use style="fill:#1f77b4;stroke:#1f77b4;" x="144.606704" xlink:href="#ma559000ee1" y="228.063586"/>
     <use style="fill:#1f77b4;stroke:#1f77b4;" x="144.606704" xlink:href="#ma559000ee1" y="119.188136"/>
     <use style="fill:#1f77b4;stroke:#1f77b4;" x="144.606704" xlink:href="#ma559000ee1" y="155.032855"/>
     <use style="fill:#1f77b4;stroke:#1f77b4;" x="144.606704" xlink:href="#ma559000ee1" y="248.408925"/>
     <use style="fill:#1f77b4;stroke:#1f77b4;" x="144.606704" xlink:href="#ma559000ee1" y="201.290619"/>
     <use style="fill:#1f77b4;stroke:#1f77b4;" x="144.606704" xlink:href="#ma559000ee1" y="215.703503"/>
     <use style="fill:#1f77b4;stroke:#1f77b4;" x="144.606704" xlink:href="#ma559000ee1" y="218.631271"/>
     <use style="fill:#1f77b4;stroke:#1f77b4;" x="144.606704" xlink:href="#ma559000ee1" y="234.885428"/>
     <use style="fill:#1f77b4;stroke:#1f77b4;" x="144.606704" xlink:href="#ma559000ee1" y="255.466335"/>
     <use style="fill:#1f77b4;stroke:#1f77b4;" x="118.265121" xlink:href="#ma559000ee1" y="176.262775"/>
     <use style="fill:#1f77b4;stroke:#1f77b4;" x="118.265121" xlink:href="#ma559000ee1" y="227.390536"/>
     <use style="fill:#1f77b4;stroke:#1f77b4;" x="118.265121" xlink:href="#ma559000ee1" y="115.568089"/>
     <use style="fill:#1f77b4;stroke:#1f77b4;" x="118.265121" xlink:href="#ma559000ee1" y="127.937786"/>
     <use style="fill:#1f77b4;stroke:#1f77b4;" x="118.265121" xlink:href="#ma559000ee1" y="239.466975"/>
     <use style="fill:#1f77b4;stroke:#1f77b4;" x="118.265121" xlink:href="#ma559000ee1" y="239.6112"/>
     <use style="fill:#1f77b4;stroke:#1f77b4;" x="118.265121" xlink:href="#ma559000ee1" y="159.23461"/>
     <use style="fill:#1f77b4;stroke:#1f77b4;" x="118.265121" xlink:href="#ma559000ee1" y="239.279483"/>
     <use style="fill:#1f77b4;stroke:#1f77b4;" x="118.265121" xlink:href="#ma559000ee1" y="229.222193"/>
     <use style="fill:#1f77b4;stroke:#1f77b4;" x="118.265121" xlink:href="#ma559000ee1" y="216.967876"/>
     <use style="fill:#1f77b4;stroke:#1f77b4;" x="118.265121" xlink:href="#ma559000ee1" y="228.395303"/>
     <use style="fill:#1f77b4;stroke:#1f77b4;" x="118.265121" xlink:href="#ma559000ee1" y="234.058538"/>
     <use style="fill:#1f77b4;stroke:#1f77b4;" x="118.265121" xlink:href="#ma559000ee1" y="254.057737"/>
     <use style="fill:#1f77b4;stroke:#1f77b4;" x="107.728488" xlink:href="#ma559000ee1" y="195.459122"/>
     <use style="fill:#1f77b4;stroke:#1f77b4;" x="107.728488" xlink:href="#ma559000ee1" y="230.443298"/>
     <use style="fill:#1f77b4;stroke:#1f77b4;" x="107.728488" xlink:href="#ma559000ee1" y="132.452028"/>
     <use style="fill:#1f77b4;stroke:#1f77b4;" x="107.728488" xlink:href="#ma559000ee1" y="138.749853"/>
     <use style="fill:#1f77b4;stroke:#1f77b4;" x="107.728488" xlink:href="#ma559000ee1" y="110.375989"/>
     <use style="fill:#1f77b4;stroke:#1f77b4;" x="107.728488" xlink:href="#ma559000ee1" y="225.308888"/>
     <use style="fill:#1f77b4;stroke:#1f77b4;" x="107.728488" xlink:href="#ma559000ee1" y="202.877094"/>
     <use style="fill:#1f77b4;stroke:#1f77b4;" x="107.728488" xlink:href="#ma559000ee1" y="232.164383"/>
     <use style="fill:#1f77b4;stroke:#1f77b4;" x="107.728488" xlink:href="#ma559000ee1" y="204.228001"/>
     <use style="fill:#1f77b4;stroke:#1f77b4;" x="107.728488" xlink:href="#ma559000ee1" y="227.895323"/>
     <use style="fill:#1f77b4;stroke:#1f77b4;" x="107.728488" xlink:href="#ma559000ee1" y="232.645133"/>
     <use style="fill:#1f77b4;stroke:#1f77b4;" x="107.728488" xlink:href="#ma559000ee1" y="235.520018"/>
     <use style="fill:#1f77b4;stroke:#1f77b4;" x="107.728488" xlink:href="#ma559000ee1" y="215.261213"/>
     <use style="fill:#1f77b4;stroke:#1f77b4;" x="107.728488" xlink:href="#ma559000ee1" y="210.516211"/>
     <use style="fill:#1f77b4;stroke:#1f77b4;" x="107.728488" xlink:href="#ma559000ee1" y="242.43801"/>
     <use style="fill:#1f77b4;stroke:#1f77b4;" x="107.728488" xlink:href="#ma559000ee1" y="250.163662"/>
     <use style="fill:#1f77b4;stroke:#1f77b4;" x="107.728488" xlink:href="#ma559000ee1" y="230.385608"/>
     <use style="fill:#1f77b4;stroke:#1f77b4;" x="97.191855" xlink:href="#ma559000ee1" y="185.877774"/>
     <use style="fill:#1f77b4;stroke:#1f77b4;" x="97.191855" xlink:href="#ma559000ee1" y="210.593131"/>
     <use style="fill:#1f77b4;stroke:#1f77b4;" x="97.191855" xlink:href="#ma559000ee1" y="252.384727"/>
     <use style="fill:#1f77b4;stroke:#1f77b4;" x="97.191855" xlink:href="#ma559000ee1" y="97.924565"/>
     <use style="fill:#1f77b4;stroke:#1f77b4;" x="97.191855" xlink:href="#ma559000ee1" y="119.837149"/>
     <use style="fill:#1f77b4;stroke:#1f77b4;" x="97.191855" xlink:href="#ma559000ee1" y="191.675619"/>
     <use style="fill:#1f77b4;stroke:#1f77b4;" x="97.191855" xlink:href="#ma559000ee1" y="93.189177"/>
     <use style="fill:#1f77b4;stroke:#1f77b4;" x="97.191855" xlink:href="#ma559000ee1" y="228.034741"/>
     <use style="fill:#1f77b4;stroke:#1f77b4;" x="97.191855" xlink:href="#ma559000ee1" y="182.690402"/>
     <use style="fill:#1f77b4;stroke:#1f77b4;" x="97.191855" xlink:href="#ma559000ee1" y="323.079013"/>
     <use style="fill:#1f77b4;stroke:#1f77b4;" x="97.191855" xlink:href="#ma559000ee1" y="123.173554"/>
     <use style="fill:#1f77b4;stroke:#1f77b4;" x="97.191855" xlink:href="#ma559000ee1" y="237.068033"/>
     <use style="fill:#1f77b4;stroke:#1f77b4;" x="97.191855" xlink:href="#ma559000ee1" y="228.563566"/>
     <use style="fill:#1f77b4;stroke:#1f77b4;" x="97.191855" xlink:href="#ma559000ee1" y="245.43789"/>
     <use style="fill:#1f77b4;stroke:#1f77b4;" x="97.191855" xlink:href="#ma559000ee1" y="211.775776"/>
     <use style="fill:#1f77b4;stroke:#1f77b4;" x="97.191855" xlink:href="#ma559000ee1" y="242.394743"/>
     <use style="fill:#1f77b4;stroke:#1f77b4;" x="97.191855" xlink:href="#ma559000ee1" y="205.290459"/>
     <use style="fill:#1f77b4;stroke:#1f77b4;" x="97.191855" xlink:href="#ma559000ee1" y="228.722213"/>
     <use style="fill:#1f77b4;stroke:#1f77b4;" x="97.191855" xlink:href="#ma559000ee1" y="230.077928"/>
     <use style="fill:#1f77b4;stroke:#1f77b4;" x="97.191855" xlink:href="#ma559000ee1" y="225.308888"/>
     <use style="fill:#1f77b4;stroke:#1f77b4;" x="97.191855" xlink:href="#ma559000ee1" y="227.876093"/>
     <use style="fill:#1f77b4;stroke:#1f77b4;" x="97.191855" xlink:href="#ma559000ee1" y="281.417219"/>
     <use style="fill:#1f77b4;stroke:#1f77b4;" x="86.655222" xlink:href="#ma559000ee1" y="162.08065"/>
     <use style="fill:#1f77b4;stroke:#1f77b4;" x="86.655222" xlink:href="#ma559000ee1" y="230.351955"/>
     <use style="fill:#1f77b4;stroke:#1f77b4;" x="86.655222" xlink:href="#ma559000ee1" y="203.785711"/>
     <use style="fill:#1f77b4;stroke:#1f77b4;" x="86.655222" xlink:href="#ma559000ee1" y="254.451952"/>
     <use style="fill:#1f77b4;stroke:#1f77b4;" x="86.655222" xlink:href="#ma559000ee1" y="157.5616"/>
     <use style="fill:#1f77b4;stroke:#1f77b4;" x="86.655222" xlink:href="#ma559000ee1" y="108.049159"/>
     <use style="fill:#1f77b4;stroke:#1f77b4;" x="86.655222" xlink:href="#ma559000ee1" y="116.385364"/>
     <use style="fill:#1f77b4;stroke:#1f77b4;" x="86.655222" xlink:href="#ma559000ee1" y="161.729703"/>
     <use style="fill:#1f77b4;stroke:#1f77b4;" x="86.655222" xlink:href="#ma559000ee1" y="188.060379"/>
     <use style="fill:#1f77b4;stroke:#1f77b4;" x="86.655222" xlink:href="#ma559000ee1" y="38.114459"/>
     <use style="fill:#1f77b4;stroke:#1f77b4;" x="86.655222" xlink:href="#ma559000ee1" y="219.770648"/>
     <use style="fill:#1f77b4;stroke:#1f77b4;" x="86.655222" xlink:href="#ma559000ee1" y="228.900091"/>
     <use style="fill:#1f77b4;stroke:#1f77b4;" x="86.655222" xlink:href="#ma559000ee1" y="210.083536"/>
     <use style="fill:#1f77b4;stroke:#1f77b4;" x="86.655222" xlink:href="#ma559000ee1" y="194.915874"/>
     <use style="fill:#1f77b4;stroke:#1f77b4;" x="86.655222" xlink:href="#ma559000ee1" y="352.669174"/>
     <use style="fill:#1f77b4;stroke:#1f77b4;" x="86.655222" xlink:href="#ma559000ee1" y="127.803176"/>
     <use style="fill:#1f77b4;stroke:#1f77b4;" x="86.655222" xlink:href="#ma559000ee1" y="164.90746"/>
     <use style="fill:#1f77b4;stroke:#1f77b4;" x="86.655222" xlink:href="#ma559000ee1" y="229.755825"/>
     <use style="fill:#1f77b4;stroke:#1f77b4;" x="86.655222" xlink:href="#ma559000ee1" y="265.739962"/>
     <use style="fill:#1f77b4;stroke:#1f77b4;" x="86.655222" xlink:href="#ma559000ee1" y="189.646854"/>
     <use style="fill:#1f77b4;stroke:#1f77b4;" x="86.655222" xlink:href="#ma559000ee1" y="256.18746"/>
     <use style="fill:#1f77b4;stroke:#1f77b4;" x="86.655222" xlink:href="#ma559000ee1" y="209.795086"/>
     <use style="fill:#1f77b4;stroke:#1f77b4;" x="86.655222" xlink:href="#ma559000ee1" y="230.193308"/>
     <use style="fill:#1f77b4;stroke:#1f77b4;" x="86.655222" xlink:href="#ma559000ee1" y="240.716925"/>
     <use style="fill:#1f77b4;stroke:#1f77b4;" x="86.655222" xlink:href="#ma559000ee1" y="180.036662"/>
     <use style="fill:#1f77b4;stroke:#1f77b4;" x="86.655222" xlink:href="#ma559000ee1" y="250.663642"/>
     <use style="fill:#1f77b4;stroke:#1f77b4;" x="86.655222" xlink:href="#ma559000ee1" y="219.362011"/>
     <use style="fill:#1f77b4;stroke:#1f77b4;" x="86.655222" xlink:href="#ma559000ee1" y="201.232929"/>
     <use style="fill:#1f77b4;stroke:#1f77b4;" x="86.655222" xlink:href="#ma559000ee1" y="252.303"/>
     <use style="fill:#1f77b4;stroke:#1f77b4;" x="86.655222" xlink:href="#ma559000ee1" y="230.409645"/>
     <use style="fill:#1f77b4;stroke:#1f77b4;" x="86.655222" xlink:href="#ma559000ee1" y="190.396824"/>
     <use style="fill:#1f77b4;stroke:#1f77b4;" x="86.655222" xlink:href="#ma559000ee1" y="314.69954"/>
     <use style="fill:#1f77b4;stroke:#1f77b4;" x="86.655222" xlink:href="#ma559000ee1" y="260.158455"/>
     <use style="fill:#1f77b4;stroke:#1f77b4;" x="86.655222" xlink:href="#ma559000ee1" y="199.944519"/>
     <use style="fill:#1f77b4;stroke:#1f77b4;" x="76.118589" xlink:href="#ma559000ee1" y="288.907304"/>
     <use style="fill:#1f77b4;stroke:#1f77b4;" x="76.118589" xlink:href="#ma559000ee1" y="52.258123"/>
     <use style="fill:#1f77b4;stroke:#1f77b4;" x="76.118589" xlink:href="#ma559000ee1" y="235.390215"/>
     <use style="fill:#1f77b4;stroke:#1f77b4;" x="76.118589" xlink:href="#ma559000ee1" y="224.347388"/>
     <use style="fill:#1f77b4;stroke:#1f77b4;" x="76.118589" xlink:href="#ma559000ee1" y="103.717602"/>
     <use style="fill:#1f77b4;stroke:#1f77b4;" x="76.118589" xlink:href="#ma559000ee1" y="314.925493"/>
     <use style="fill:#1f77b4;stroke:#1f77b4;" x="76.118589" xlink:href="#ma559000ee1" y="346.337697"/>
     <use style="fill:#1f77b4;stroke:#1f77b4;" x="76.118589" xlink:href="#ma559000ee1" y="173.5225"/>
     <use style="fill:#1f77b4;stroke:#1f77b4;" x="76.118589" xlink:href="#ma559000ee1" y="245.601345"/>
     <use style="fill:#1f77b4;stroke:#1f77b4;" x="76.118589" xlink:href="#ma559000ee1" y="78.03113"/>
     <use style="fill:#1f77b4;stroke:#1f77b4;" x="76.118589" xlink:href="#ma559000ee1" y="117.053606"/>
     <use style="fill:#1f77b4;stroke:#1f77b4;" x="76.118589" xlink:href="#ma559000ee1" y="92.943995"/>
     <use style="fill:#1f77b4;stroke:#1f77b4;" x="76.118589" xlink:href="#ma559000ee1" y="156.88855"/>
     <use style="fill:#1f77b4;stroke:#1f77b4;" x="76.118589" xlink:href="#ma559000ee1" y="73.680343"/>
     <use style="fill:#1f77b4;stroke:#1f77b4;" x="76.118589" xlink:href="#ma559000ee1" y="125.375389"/>
     <use style="fill:#1f77b4;stroke:#1f77b4;" x="76.118589" xlink:href="#ma559000ee1" y="194.641847"/>
     <use style="fill:#1f77b4;stroke:#1f77b4;" x="76.118589" xlink:href="#ma559000ee1" y="245.913832"/>
     <use style="fill:#1f77b4;stroke:#1f77b4;" x="76.118589" xlink:href="#ma559000ee1" y="129.764636"/>
     <use style="fill:#1f77b4;stroke:#1f77b4;" x="76.118589" xlink:href="#ma559000ee1" y="33.571371"/>
     <use style="fill:#1f77b4;stroke:#1f77b4;" x="76.118589" xlink:href="#ma559000ee1" y="28.730219"/>
     <use style="fill:#1f77b4;stroke:#1f77b4;" x="76.118589" xlink:href="#ma559000ee1" y="213.030533"/>
     <use style="fill:#1f77b4;stroke:#1f77b4;" x="76.118589" xlink:href="#ma559000ee1" y="225.356963"/>
     <use style="fill:#1f77b4;stroke:#1f77b4;" x="76.118589" xlink:href="#ma559000ee1" y="165.469937"/>
     <use style="fill:#1f77b4;stroke:#1f77b4;" x="76.118589" xlink:href="#ma559000ee1" y="298.863636"/>
     <use style="fill:#1f77b4;stroke:#1f77b4;" x="76.118589" xlink:href="#ma559000ee1" y="297.974248"/>
     <use style="fill:#1f77b4;stroke:#1f77b4;" x="76.118589" xlink:href="#ma559000ee1" y="124.990789"/>
     <use style="fill:#1f77b4;stroke:#1f77b4;" x="76.118589" xlink:href="#ma559000ee1" y="129.370421"/>
     <use style="fill:#1f77b4;stroke:#1f77b4;" x="76.118589" xlink:href="#ma559000ee1" y="266.831264"/>
     <use style="fill:#1f77b4;stroke:#1f77b4;" x="76.118589" xlink:href="#ma559000ee1" y="314.925493"/>
     <use style="fill:#1f77b4;stroke:#1f77b4;" x="76.118589" xlink:href="#ma559000ee1" y="380.749781"/>
     <use style="fill:#1f77b4;stroke:#1f77b4;" x="76.118589" xlink:href="#ma559000ee1" y="69.661273"/>
     <use style="fill:#1f77b4;stroke:#1f77b4;" x="76.118589" xlink:href="#ma559000ee1" y="184.603787"/>
     <use style="fill:#1f77b4;stroke:#1f77b4;" x="76.118589" xlink:href="#ma559000ee1" y="112.472059"/>
     <use style="fill:#1f77b4;stroke:#1f77b4;" x="76.118589" xlink:href="#ma559000ee1" y="216.857303"/>
     <use style="fill:#1f77b4;stroke:#1f77b4;" x="76.118589" xlink:href="#ma559000ee1" y="184.440332"/>
     <use style="fill:#1f77b4;stroke:#1f77b4;" x="76.118589" xlink:href="#ma559000ee1" y="277.551989"/>
     <use style="fill:#1f77b4;stroke:#1f77b4;" x="76.118589" xlink:href="#ma559000ee1" y="287.710236"/>
     <use style="fill:#1f77b4;stroke:#1f77b4;" x="76.118589" xlink:href="#ma559000ee1" y="244.47639"/>
     <use style="fill:#1f77b4;stroke:#1f77b4;" x="76.118589" xlink:href="#ma559000ee1" y="156.566448"/>
     <use style="fill:#1f77b4;stroke:#1f77b4;" x="76.118589" xlink:href="#ma559000ee1" y="224.145473"/>
     <use style="fill:#1f77b4;stroke:#1f77b4;" x="76.118589" xlink:href="#ma559000ee1" y="265.465934"/>
     <use style="fill:#1f77b4;stroke:#1f77b4;" x="76.118589" xlink:href="#ma559000ee1" y="241.563045"/>
     <use style="fill:#1f77b4;stroke:#1f77b4;" x="76.118589" xlink:href="#ma559000ee1" y="146.360126"/>
     <use style="fill:#1f77b4;stroke:#1f77b4;" x="76.118589" xlink:href="#ma559000ee1" y="277.922167"/>
     <use style="fill:#1f77b4;stroke:#1f77b4;" x="76.118589" xlink:href="#ma559000ee1" y="215.275636"/>
     <use style="fill:#1f77b4;stroke:#1f77b4;" x="76.118589" xlink:href="#ma559000ee1" y="245.14944"/>
     <use style="fill:#1f77b4;stroke:#1f77b4;" x="76.118589" xlink:href="#ma559000ee1" y="145.235171"/>
     <use style="fill:#1f77b4;stroke:#1f77b4;" x="76.118589" xlink:href="#ma559000ee1" y="344.323354"/>
     <use style="fill:#1f77b4;stroke:#1f77b4;" x="76.118589" xlink:href="#ma559000ee1" y="185.531634"/>
     <use style="fill:#1f77b4;stroke:#1f77b4;" x="76.118589" xlink:href="#ma559000ee1" y="174.185935"/>
     <use style="fill:#1f77b4;stroke:#1f77b4;" x="76.118589" xlink:href="#ma559000ee1" y="248.581995"/>
     <use style="fill:#1f77b4;stroke:#1f77b4;" x="76.118589" xlink:href="#ma559000ee1" y="243.22644"/>
     <use style="fill:#1f77b4;stroke:#1f77b4;" x="76.118589" xlink:href="#ma559000ee1" y="185.142227"/>
     <use style="fill:#1f77b4;stroke:#1f77b4;" x="76.118589" xlink:href="#ma559000ee1" y="255.144232"/>
     <use style="fill:#1f77b4;stroke:#1f77b4;" x="76.118589" xlink:href="#ma559000ee1" y="202.415574"/>
     <use style="fill:#1f77b4;stroke:#1f77b4;" x="76.118589" xlink:href="#ma559000ee1" y="199.872406"/>
     <use style="fill:#1f77b4;stroke:#1f77b4;" x="76.118589" xlink:href="#ma559000ee1" y="290.565891"/>
     <use style="fill:#1f77b4;stroke:#1f77b4;" x="76.118589" xlink:href="#ma559000ee1" y="214.222793"/>
     <use style="fill:#1f77b4;stroke:#1f77b4;" x="76.118589" xlink:href="#ma559000ee1" y="225.342541"/>
     <use style="fill:#1f77b4;stroke:#1f77b4;" x="76.118589" xlink:href="#ma559000ee1" y="235.294065"/>
     <use style="fill:#1f77b4;stroke:#1f77b4;" x="76.118589" xlink:href="#ma559000ee1" y="263.889074"/>
     <use style="fill:#1f77b4;stroke:#1f77b4;" x="76.118589" xlink:href="#ma559000ee1" y="121.087099"/>
     <use style="fill:#1f77b4;stroke:#1f77b4;" x="76.118589" xlink:href="#ma559000ee1" y="307.925773"/>
     <use style="fill:#1f77b4;stroke:#1f77b4;" x="76.118589" xlink:href="#ma559000ee1" y="321.377158"/>
     <use style="fill:#1f77b4;stroke:#1f77b4;" x="76.118589" xlink:href="#ma559000ee1" y="264.494819"/>
     <use style="fill:#1f77b4;stroke:#1f77b4;" x="76.118589" xlink:href="#ma559000ee1" y="255.59133"/>
     <use style="fill:#1f77b4;stroke:#1f77b4;" x="76.118589" xlink:href="#ma559000ee1" y="242.293785"/>
     <use style="fill:#1f77b4;stroke:#1f77b4;" x="76.118589" xlink:href="#ma559000ee1" y="157.383723"/>
    </g>
   </g>
   <g id="matplotlib.axis_1">
    <g id="xtick_1">
     <g id="line2d_1">
      <defs>
       <path d="M 0 0 
L 0 3.5 
" id="m7064157b1a" style="stroke:#000000;stroke-width:0.8;"/>
      </defs>
      <g>
       <use style="stroke:#000000;stroke-width:0.8;" x="65.581956" xlink:href="#m7064157b1a" y="398.78"/>
      </g>
     </g>
     <g id="text_1">
      <!-- 0 -->
      <defs>
       <path d="M 31.78125 66.40625 
Q 24.171875 66.40625 20.328125 58.90625 
Q 16.5 51.421875 16.5 36.375 
Q 16.5 21.390625 20.328125 13.890625 
Q 24.171875 6.390625 31.78125 6.390625 
Q 39.453125 6.390625 43.28125 13.890625 
Q 47.125 21.390625 47.125 36.375 
Q 47.125 51.421875 43.28125 58.90625 
Q 39.453125 66.40625 31.78125 66.40625 
z
M 31.78125 74.21875 
Q 44.046875 74.21875 50.515625 64.515625 
Q 56.984375 54.828125 56.984375 36.375 
Q 56.984375 17.96875 50.515625 8.265625 
Q 44.046875 -1.421875 31.78125 -1.421875 
Q 19.53125 -1.421875 13.0625 8.265625 
Q 6.59375 17.96875 6.59375 36.375 
Q 6.59375 54.828125 13.0625 64.515625 
Q 19.53125 74.21875 31.78125 74.21875 
z
" id="DejaVuSans-48"/>
      </defs>
      <g transform="translate(62.400706 413.378437)scale(0.1 -0.1)">
       <use xlink:href="#DejaVuSans-48"/>
      </g>
     </g>
    </g>
    <g id="xtick_2">
     <g id="line2d_2">
      <g>
       <use style="stroke:#000000;stroke-width:0.8;" x="170.948287" xlink:href="#m7064157b1a" y="398.78"/>
      </g>
     </g>
     <g id="text_2">
      <!-- 100 -->
      <defs>
       <path d="M 12.40625 8.296875 
L 28.515625 8.296875 
L 28.515625 63.921875 
L 10.984375 60.40625 
L 10.984375 69.390625 
L 28.421875 72.90625 
L 38.28125 72.90625 
L 38.28125 8.296875 
L 54.390625 8.296875 
L 54.390625 0 
L 12.40625 0 
z
" id="DejaVuSans-49"/>
      </defs>
      <g transform="translate(161.404537 413.378437)scale(0.1 -0.1)">
       <use xlink:href="#DejaVuSans-49"/>
       <use x="63.623047" xlink:href="#DejaVuSans-48"/>
       <use x="127.246094" xlink:href="#DejaVuSans-48"/>
      </g>
     </g>
    </g>
    <g id="xtick_3">
     <g id="line2d_3">
      <g>
       <use style="stroke:#000000;stroke-width:0.8;" x="276.314618" xlink:href="#m7064157b1a" y="398.78"/>
      </g>
     </g>
     <g id="text_3">
      <!-- 200 -->
      <defs>
       <path d="M 19.1875 8.296875 
L 53.609375 8.296875 
L 53.609375 0 
L 7.328125 0 
L 7.328125 8.296875 
Q 12.9375 14.109375 22.625 23.890625 
Q 32.328125 33.6875 34.8125 36.53125 
Q 39.546875 41.84375 41.421875 45.53125 
Q 43.3125 49.21875 43.3125 52.78125 
Q 43.3125 58.59375 39.234375 62.25 
Q 35.15625 65.921875 28.609375 65.921875 
Q 23.96875 65.921875 18.8125 64.3125 
Q 13.671875 62.703125 7.8125 59.421875 
L 7.8125 69.390625 
Q 13.765625 71.78125 18.9375 73 
Q 24.125 74.21875 28.421875 74.21875 
Q 39.75 74.21875 46.484375 68.546875 
Q 53.21875 62.890625 53.21875 53.421875 
Q 53.21875 48.921875 51.53125 44.890625 
Q 49.859375 40.875 45.40625 35.40625 
Q 44.1875 33.984375 37.640625 27.21875 
Q 31.109375 20.453125 19.1875 8.296875 
z
" id="DejaVuSans-50"/>
      </defs>
      <g transform="translate(266.770868 413.378437)scale(0.1 -0.1)">
       <use xlink:href="#DejaVuSans-50"/>
       <use x="63.623047" xlink:href="#DejaVuSans-48"/>
       <use x="127.246094" xlink:href="#DejaVuSans-48"/>
      </g>
     </g>
    </g>
    <g id="xtick_4">
     <g id="line2d_4">
      <g>
       <use style="stroke:#000000;stroke-width:0.8;" x="381.680949" xlink:href="#m7064157b1a" y="398.78"/>
      </g>
     </g>
     <g id="text_4">
      <!-- 300 -->
      <defs>
       <path d="M 40.578125 39.3125 
Q 47.65625 37.796875 51.625 33 
Q 55.609375 28.21875 55.609375 21.1875 
Q 55.609375 10.40625 48.1875 4.484375 
Q 40.765625 -1.421875 27.09375 -1.421875 
Q 22.515625 -1.421875 17.65625 -0.515625 
Q 12.796875 0.390625 7.625 2.203125 
L 7.625 11.71875 
Q 11.71875 9.328125 16.59375 8.109375 
Q 21.484375 6.890625 26.8125 6.890625 
Q 36.078125 6.890625 40.9375 10.546875 
Q 45.796875 14.203125 45.796875 21.1875 
Q 45.796875 27.640625 41.28125 31.265625 
Q 36.765625 34.90625 28.71875 34.90625 
L 20.21875 34.90625 
L 20.21875 43.015625 
L 29.109375 43.015625 
Q 36.375 43.015625 40.234375 45.921875 
Q 44.09375 48.828125 44.09375 54.296875 
Q 44.09375 59.90625 40.109375 62.90625 
Q 36.140625 65.921875 28.71875 65.921875 
Q 24.65625 65.921875 20.015625 65.03125 
Q 15.375 64.15625 9.8125 62.3125 
L 9.8125 71.09375 
Q 15.4375 72.65625 20.34375 73.4375 
Q 25.25 74.21875 29.59375 74.21875 
Q 40.828125 74.21875 47.359375 69.109375 
Q 53.90625 64.015625 53.90625 55.328125 
Q 53.90625 49.265625 50.4375 45.09375 
Q 46.96875 40.921875 40.578125 39.3125 
z
" id="DejaVuSans-51"/>
      </defs>
      <g transform="translate(372.137199 413.378437)scale(0.1 -0.1)">
       <use xlink:href="#DejaVuSans-51"/>
       <use x="63.623047" xlink:href="#DejaVuSans-48"/>
       <use x="127.246094" xlink:href="#DejaVuSans-48"/>
      </g>
     </g>
    </g>
    <g id="xtick_5">
     <g id="line2d_5">
      <g>
       <use style="stroke:#000000;stroke-width:0.8;" x="487.047281" xlink:href="#m7064157b1a" y="398.78"/>
      </g>
     </g>
     <g id="text_5">
      <!-- 400 -->
      <defs>
       <path d="M 37.796875 64.3125 
L 12.890625 25.390625 
L 37.796875 25.390625 
z
M 35.203125 72.90625 
L 47.609375 72.90625 
L 47.609375 25.390625 
L 58.015625 25.390625 
L 58.015625 17.1875 
L 47.609375 17.1875 
L 47.609375 0 
L 37.796875 0 
L 37.796875 17.1875 
L 4.890625 17.1875 
L 4.890625 26.703125 
z
" id="DejaVuSans-52"/>
      </defs>
      <g transform="translate(477.503531 413.378437)scale(0.1 -0.1)">
       <use xlink:href="#DejaVuSans-52"/>
       <use x="63.623047" xlink:href="#DejaVuSans-48"/>
       <use x="127.246094" xlink:href="#DejaVuSans-48"/>
      </g>
     </g>
    </g>
    <g id="xtick_6">
     <g id="line2d_6">
      <g>
       <use style="stroke:#000000;stroke-width:0.8;" x="592.413612" xlink:href="#m7064157b1a" y="398.78"/>
      </g>
     </g>
     <g id="text_6">
      <!-- 500 -->
      <defs>
       <path d="M 10.796875 72.90625 
L 49.515625 72.90625 
L 49.515625 64.59375 
L 19.828125 64.59375 
L 19.828125 46.734375 
Q 21.96875 47.46875 24.109375 47.828125 
Q 26.265625 48.1875 28.421875 48.1875 
Q 40.625 48.1875 47.75 41.5 
Q 54.890625 34.8125 54.890625 23.390625 
Q 54.890625 11.625 47.5625 5.09375 
Q 40.234375 -1.421875 26.90625 -1.421875 
Q 22.3125 -1.421875 17.546875 -0.640625 
Q 12.796875 0.140625 7.71875 1.703125 
L 7.71875 11.625 
Q 12.109375 9.234375 16.796875 8.0625 
Q 21.484375 6.890625 26.703125 6.890625 
Q 35.15625 6.890625 40.078125 11.328125 
Q 45.015625 15.765625 45.015625 23.390625 
Q 45.015625 31 40.078125 35.4375 
Q 35.15625 39.890625 26.703125 39.890625 
Q 22.75 39.890625 18.8125 39.015625 
Q 14.890625 38.140625 10.796875 36.28125 
z
" id="DejaVuSans-53"/>
      </defs>
      <g transform="translate(582.869862 413.378437)scale(0.1 -0.1)">
       <use xlink:href="#DejaVuSans-53"/>
       <use x="63.623047" xlink:href="#DejaVuSans-48"/>
       <use x="127.246094" xlink:href="#DejaVuSans-48"/>
      </g>
     </g>
    </g>
    <g id="xtick_7">
     <g id="line2d_7">
      <g>
       <use style="stroke:#000000;stroke-width:0.8;" x="697.779943" xlink:href="#m7064157b1a" y="398.78"/>
      </g>
     </g>
     <g id="text_7">
      <!-- 600 -->
      <defs>
       <path d="M 33.015625 40.375 
Q 26.375 40.375 22.484375 35.828125 
Q 18.609375 31.296875 18.609375 23.390625 
Q 18.609375 15.53125 22.484375 10.953125 
Q 26.375 6.390625 33.015625 6.390625 
Q 39.65625 6.390625 43.53125 10.953125 
Q 47.40625 15.53125 47.40625 23.390625 
Q 47.40625 31.296875 43.53125 35.828125 
Q 39.65625 40.375 33.015625 40.375 
z
M 52.59375 71.296875 
L 52.59375 62.3125 
Q 48.875 64.0625 45.09375 64.984375 
Q 41.3125 65.921875 37.59375 65.921875 
Q 27.828125 65.921875 22.671875 59.328125 
Q 17.53125 52.734375 16.796875 39.40625 
Q 19.671875 43.65625 24.015625 45.921875 
Q 28.375 48.1875 33.59375 48.1875 
Q 44.578125 48.1875 50.953125 41.515625 
Q 57.328125 34.859375 57.328125 23.390625 
Q 57.328125 12.15625 50.6875 5.359375 
Q 44.046875 -1.421875 33.015625 -1.421875 
Q 20.359375 -1.421875 13.671875 8.265625 
Q 6.984375 17.96875 6.984375 36.375 
Q 6.984375 53.65625 15.1875 63.9375 
Q 23.390625 74.21875 37.203125 74.21875 
Q 40.921875 74.21875 44.703125 73.484375 
Q 48.484375 72.75 52.59375 71.296875 
z
" id="DejaVuSans-54"/>
      </defs>
      <g transform="translate(688.236193 413.378437)scale(0.1 -0.1)">
       <use xlink:href="#DejaVuSans-54"/>
       <use x="63.623047" xlink:href="#DejaVuSans-48"/>
       <use x="127.246094" xlink:href="#DejaVuSans-48"/>
      </g>
     </g>
    </g>
    <g id="xtick_8">
     <g id="line2d_8">
      <g>
       <use style="stroke:#000000;stroke-width:0.8;" x="803.146274" xlink:href="#m7064157b1a" y="398.78"/>
      </g>
     </g>
     <g id="text_8">
      <!-- 700 -->
      <defs>
       <path d="M 8.203125 72.90625 
L 55.078125 72.90625 
L 55.078125 68.703125 
L 28.609375 0 
L 18.3125 0 
L 43.21875 64.59375 
L 8.203125 64.59375 
z
" id="DejaVuSans-55"/>
      </defs>
      <g transform="translate(793.602524 413.378437)scale(0.1 -0.1)">
       <use xlink:href="#DejaVuSans-55"/>
       <use x="63.623047" xlink:href="#DejaVuSans-48"/>
       <use x="127.246094" xlink:href="#DejaVuSans-48"/>
      </g>
     </g>
    </g>
    <g id="text_9">
     <!-- length of chunk in sentences -->
     <defs>
      <path d="M 9.421875 75.984375 
L 18.40625 75.984375 
L 18.40625 0 
L 9.421875 0 
z
" id="DejaVuSans-108"/>
      <path d="M 56.203125 29.59375 
L 56.203125 25.203125 
L 14.890625 25.203125 
Q 15.484375 15.921875 20.484375 11.0625 
Q 25.484375 6.203125 34.421875 6.203125 
Q 39.59375 6.203125 44.453125 7.46875 
Q 49.3125 8.734375 54.109375 11.28125 
L 54.109375 2.78125 
Q 49.265625 0.734375 44.1875 -0.34375 
Q 39.109375 -1.421875 33.890625 -1.421875 
Q 20.796875 -1.421875 13.15625 6.1875 
Q 5.515625 13.8125 5.515625 26.8125 
Q 5.515625 40.234375 12.765625 48.109375 
Q 20.015625 56 32.328125 56 
Q 43.359375 56 49.78125 48.890625 
Q 56.203125 41.796875 56.203125 29.59375 
z
M 47.21875 32.234375 
Q 47.125 39.59375 43.09375 43.984375 
Q 39.0625 48.390625 32.421875 48.390625 
Q 24.90625 48.390625 20.390625 44.140625 
Q 15.875 39.890625 15.1875 32.171875 
z
" id="DejaVuSans-101"/>
      <path d="M 54.890625 33.015625 
L 54.890625 0 
L 45.90625 0 
L 45.90625 32.71875 
Q 45.90625 40.484375 42.875 44.328125 
Q 39.84375 48.1875 33.796875 48.1875 
Q 26.515625 48.1875 22.3125 43.546875 
Q 18.109375 38.921875 18.109375 30.90625 
L 18.109375 0 
L 9.078125 0 
L 9.078125 54.6875 
L 18.109375 54.6875 
L 18.109375 46.1875 
Q 21.34375 51.125 25.703125 53.5625 
Q 30.078125 56 35.796875 56 
Q 45.21875 56 50.046875 50.171875 
Q 54.890625 44.34375 54.890625 33.015625 
z
" id="DejaVuSans-110"/>
      <path d="M 45.40625 27.984375 
Q 45.40625 37.75 41.375 43.109375 
Q 37.359375 48.484375 30.078125 48.484375 
Q 22.859375 48.484375 18.828125 43.109375 
Q 14.796875 37.75 14.796875 27.984375 
Q 14.796875 18.265625 18.828125 12.890625 
Q 22.859375 7.515625 30.078125 7.515625 
Q 37.359375 7.515625 41.375 12.890625 
Q 45.40625 18.265625 45.40625 27.984375 
z
M 54.390625 6.78125 
Q 54.390625 -7.171875 48.1875 -13.984375 
Q 42 -20.796875 29.203125 -20.796875 
Q 24.46875 -20.796875 20.265625 -20.09375 
Q 16.0625 -19.390625 12.109375 -17.921875 
L 12.109375 -9.1875 
Q 16.0625 -11.328125 19.921875 -12.34375 
Q 23.78125 -13.375 27.78125 -13.375 
Q 36.625 -13.375 41.015625 -8.765625 
Q 45.40625 -4.15625 45.40625 5.171875 
L 45.40625 9.625 
Q 42.625 4.78125 38.28125 2.390625 
Q 33.9375 0 27.875 0 
Q 17.828125 0 11.671875 7.65625 
Q 5.515625 15.328125 5.515625 27.984375 
Q 5.515625 40.671875 11.671875 48.328125 
Q 17.828125 56 27.875 56 
Q 33.9375 56 38.28125 53.609375 
Q 42.625 51.21875 45.40625 46.390625 
L 45.40625 54.6875 
L 54.390625 54.6875 
z
" id="DejaVuSans-103"/>
      <path d="M 18.3125 70.21875 
L 18.3125 54.6875 
L 36.8125 54.6875 
L 36.8125 47.703125 
L 18.3125 47.703125 
L 18.3125 18.015625 
Q 18.3125 11.328125 20.140625 9.421875 
Q 21.96875 7.515625 27.59375 7.515625 
L 36.8125 7.515625 
L 36.8125 0 
L 27.59375 0 
Q 17.1875 0 13.234375 3.875 
Q 9.28125 7.765625 9.28125 18.015625 
L 9.28125 47.703125 
L 2.6875 47.703125 
L 2.6875 54.6875 
L 9.28125 54.6875 
L 9.28125 70.21875 
z
" id="DejaVuSans-116"/>
      <path d="M 54.890625 33.015625 
L 54.890625 0 
L 45.90625 0 
L 45.90625 32.71875 
Q 45.90625 40.484375 42.875 44.328125 
Q 39.84375 48.1875 33.796875 48.1875 
Q 26.515625 48.1875 22.3125 43.546875 
Q 18.109375 38.921875 18.109375 30.90625 
L 18.109375 0 
L 9.078125 0 
L 9.078125 75.984375 
L 18.109375 75.984375 
L 18.109375 46.1875 
Q 21.34375 51.125 25.703125 53.5625 
Q 30.078125 56 35.796875 56 
Q 45.21875 56 50.046875 50.171875 
Q 54.890625 44.34375 54.890625 33.015625 
z
" id="DejaVuSans-104"/>
      <path id="DejaVuSans-32"/>
      <path d="M 30.609375 48.390625 
Q 23.390625 48.390625 19.1875 42.75 
Q 14.984375 37.109375 14.984375 27.296875 
Q 14.984375 17.484375 19.15625 11.84375 
Q 23.34375 6.203125 30.609375 6.203125 
Q 37.796875 6.203125 41.984375 11.859375 
Q 46.1875 17.53125 46.1875 27.296875 
Q 46.1875 37.015625 41.984375 42.703125 
Q 37.796875 48.390625 30.609375 48.390625 
z
M 30.609375 56 
Q 42.328125 56 49.015625 48.375 
Q 55.71875 40.765625 55.71875 27.296875 
Q 55.71875 13.875 49.015625 6.21875 
Q 42.328125 -1.421875 30.609375 -1.421875 
Q 18.84375 -1.421875 12.171875 6.21875 
Q 5.515625 13.875 5.515625 27.296875 
Q 5.515625 40.765625 12.171875 48.375 
Q 18.84375 56 30.609375 56 
z
" id="DejaVuSans-111"/>
      <path d="M 37.109375 75.984375 
L 37.109375 68.5 
L 28.515625 68.5 
Q 23.6875 68.5 21.796875 66.546875 
Q 19.921875 64.59375 19.921875 59.515625 
L 19.921875 54.6875 
L 34.71875 54.6875 
L 34.71875 47.703125 
L 19.921875 47.703125 
L 19.921875 0 
L 10.890625 0 
L 10.890625 47.703125 
L 2.296875 47.703125 
L 2.296875 54.6875 
L 10.890625 54.6875 
L 10.890625 58.5 
Q 10.890625 67.625 15.140625 71.796875 
Q 19.390625 75.984375 28.609375 75.984375 
z
" id="DejaVuSans-102"/>
      <path d="M 48.78125 52.59375 
L 48.78125 44.1875 
Q 44.96875 46.296875 41.140625 47.34375 
Q 37.3125 48.390625 33.40625 48.390625 
Q 24.65625 48.390625 19.8125 42.84375 
Q 14.984375 37.3125 14.984375 27.296875 
Q 14.984375 17.28125 19.8125 11.734375 
Q 24.65625 6.203125 33.40625 6.203125 
Q 37.3125 6.203125 41.140625 7.25 
Q 44.96875 8.296875 48.78125 10.40625 
L 48.78125 2.09375 
Q 45.015625 0.34375 40.984375 -0.53125 
Q 36.96875 -1.421875 32.421875 -1.421875 
Q 20.0625 -1.421875 12.78125 6.34375 
Q 5.515625 14.109375 5.515625 27.296875 
Q 5.515625 40.671875 12.859375 48.328125 
Q 20.21875 56 33.015625 56 
Q 37.15625 56 41.109375 55.140625 
Q 45.0625 54.296875 48.78125 52.59375 
z
" id="DejaVuSans-99"/>
      <path d="M 8.5 21.578125 
L 8.5 54.6875 
L 17.484375 54.6875 
L 17.484375 21.921875 
Q 17.484375 14.15625 20.5 10.265625 
Q 23.53125 6.390625 29.59375 6.390625 
Q 36.859375 6.390625 41.078125 11.03125 
Q 45.3125 15.671875 45.3125 23.6875 
L 45.3125 54.6875 
L 54.296875 54.6875 
L 54.296875 0 
L 45.3125 0 
L 45.3125 8.40625 
Q 42.046875 3.421875 37.71875 1 
Q 33.40625 -1.421875 27.6875 -1.421875 
Q 18.265625 -1.421875 13.375 4.4375 
Q 8.5 10.296875 8.5 21.578125 
z
M 31.109375 56 
z
" id="DejaVuSans-117"/>
      <path d="M 9.078125 75.984375 
L 18.109375 75.984375 
L 18.109375 31.109375 
L 44.921875 54.6875 
L 56.390625 54.6875 
L 27.390625 29.109375 
L 57.625 0 
L 45.90625 0 
L 18.109375 26.703125 
L 18.109375 0 
L 9.078125 0 
z
" id="DejaVuSans-107"/>
      <path d="M 9.421875 54.6875 
L 18.40625 54.6875 
L 18.40625 0 
L 9.421875 0 
z
M 9.421875 75.984375 
L 18.40625 75.984375 
L 18.40625 64.59375 
L 9.421875 64.59375 
z
" id="DejaVuSans-105"/>
      <path d="M 44.28125 53.078125 
L 44.28125 44.578125 
Q 40.484375 46.53125 36.375 47.5 
Q 32.28125 48.484375 27.875 48.484375 
Q 21.1875 48.484375 17.84375 46.4375 
Q 14.5 44.390625 14.5 40.28125 
Q 14.5 37.15625 16.890625 35.375 
Q 19.28125 33.59375 26.515625 31.984375 
L 29.59375 31.296875 
Q 39.15625 29.25 43.1875 25.515625 
Q 47.21875 21.78125 47.21875 15.09375 
Q 47.21875 7.46875 41.1875 3.015625 
Q 35.15625 -1.421875 24.609375 -1.421875 
Q 20.21875 -1.421875 15.453125 -0.5625 
Q 10.6875 0.296875 5.421875 2 
L 5.421875 11.28125 
Q 10.40625 8.6875 15.234375 7.390625 
Q 20.0625 6.109375 24.8125 6.109375 
Q 31.15625 6.109375 34.5625 8.28125 
Q 37.984375 10.453125 37.984375 14.40625 
Q 37.984375 18.0625 35.515625 20.015625 
Q 33.0625 21.96875 24.703125 23.78125 
L 21.578125 24.515625 
Q 13.234375 26.265625 9.515625 29.90625 
Q 5.8125 33.546875 5.8125 39.890625 
Q 5.8125 47.609375 11.28125 51.796875 
Q 16.75 56 26.8125 56 
Q 31.78125 56 36.171875 55.265625 
Q 40.578125 54.546875 44.28125 53.078125 
z
" id="DejaVuSans-115"/>
     </defs>
     <g transform="translate(358.895312 427.056562)scale(0.1 -0.1)">
      <use xlink:href="#DejaVuSans-108"/>
      <use x="27.783203" xlink:href="#DejaVuSans-101"/>
      <use x="89.306641" xlink:href="#DejaVuSans-110"/>
      <use x="152.685547" xlink:href="#DejaVuSans-103"/>
      <use x="216.162109" xlink:href="#DejaVuSans-116"/>
      <use x="255.371094" xlink:href="#DejaVuSans-104"/>
      <use x="318.75" xlink:href="#DejaVuSans-32"/>
      <use x="350.537109" xlink:href="#DejaVuSans-111"/>
      <use x="411.71875" xlink:href="#DejaVuSans-102"/>
      <use x="446.923828" xlink:href="#DejaVuSans-32"/>
      <use x="478.710938" xlink:href="#DejaVuSans-99"/>
      <use x="533.691406" xlink:href="#DejaVuSans-104"/>
      <use x="597.070312" xlink:href="#DejaVuSans-117"/>
      <use x="660.449219" xlink:href="#DejaVuSans-110"/>
      <use x="723.828125" xlink:href="#DejaVuSans-107"/>
      <use x="781.738281" xlink:href="#DejaVuSans-32"/>
      <use x="813.525391" xlink:href="#DejaVuSans-105"/>
      <use x="841.308594" xlink:href="#DejaVuSans-110"/>
      <use x="904.6875" xlink:href="#DejaVuSans-32"/>
      <use x="936.474609" xlink:href="#DejaVuSans-115"/>
      <use x="988.574219" xlink:href="#DejaVuSans-101"/>
      <use x="1050.097656" xlink:href="#DejaVuSans-110"/>
      <use x="1113.476562" xlink:href="#DejaVuSans-116"/>
      <use x="1152.685547" xlink:href="#DejaVuSans-101"/>
      <use x="1214.208984" xlink:href="#DejaVuSans-110"/>
      <use x="1277.587891" xlink:href="#DejaVuSans-99"/>
      <use x="1332.568359" xlink:href="#DejaVuSans-101"/>
      <use x="1394.091797" xlink:href="#DejaVuSans-115"/>
     </g>
    </g>
   </g>
   <g id="matplotlib.axis_2">
    <g id="ytick_1">
     <g id="line2d_9">
      <defs>
       <path d="M 0 0 
L -3.5 0 
" id="m440717490d" style="stroke:#000000;stroke-width:0.8;"/>
      </defs>
      <g>
       <use style="stroke:#000000;stroke-width:0.8;" x="40.603125" xlink:href="#m440717490d" y="378.187383"/>
      </g>
     </g>
     <g id="text_10">
      <!-- 12 -->
      <g transform="translate(20.878125 381.986602)scale(0.1 -0.1)">
       <use xlink:href="#DejaVuSans-49"/>
       <use x="63.623047" xlink:href="#DejaVuSans-50"/>
      </g>
     </g>
    </g>
    <g id="ytick_2">
     <g id="line2d_10">
      <g>
       <use style="stroke:#000000;stroke-width:0.8;" x="40.603125" xlink:href="#m440717490d" y="330.112385"/>
      </g>
     </g>
     <g id="text_11">
      <!-- 13 -->
      <g transform="translate(20.878125 333.911604)scale(0.1 -0.1)">
       <use xlink:href="#DejaVuSans-49"/>
       <use x="63.623047" xlink:href="#DejaVuSans-51"/>
      </g>
     </g>
    </g>
    <g id="ytick_3">
     <g id="line2d_11">
      <g>
       <use style="stroke:#000000;stroke-width:0.8;" x="40.603125" xlink:href="#m440717490d" y="282.037386"/>
      </g>
     </g>
     <g id="text_12">
      <!-- 14 -->
      <g transform="translate(20.878125 285.836605)scale(0.1 -0.1)">
       <use xlink:href="#DejaVuSans-49"/>
       <use x="63.623047" xlink:href="#DejaVuSans-52"/>
      </g>
     </g>
    </g>
    <g id="ytick_4">
     <g id="line2d_12">
      <g>
       <use style="stroke:#000000;stroke-width:0.8;" x="40.603125" xlink:href="#m440717490d" y="233.962388"/>
      </g>
     </g>
     <g id="text_13">
      <!-- 15 -->
      <g transform="translate(20.878125 237.761607)scale(0.1 -0.1)">
       <use xlink:href="#DejaVuSans-49"/>
       <use x="63.623047" xlink:href="#DejaVuSans-53"/>
      </g>
     </g>
    </g>
    <g id="ytick_5">
     <g id="line2d_13">
      <g>
       <use style="stroke:#000000;stroke-width:0.8;" x="40.603125" xlink:href="#m440717490d" y="185.887389"/>
      </g>
     </g>
     <g id="text_14">
      <!-- 16 -->
      <g transform="translate(20.878125 189.686608)scale(0.1 -0.1)">
       <use xlink:href="#DejaVuSans-49"/>
       <use x="63.623047" xlink:href="#DejaVuSans-54"/>
      </g>
     </g>
    </g>
    <g id="ytick_6">
     <g id="line2d_14">
      <g>
       <use style="stroke:#000000;stroke-width:0.8;" x="40.603125" xlink:href="#m440717490d" y="137.812391"/>
      </g>
     </g>
     <g id="text_15">
      <!-- 17 -->
      <g transform="translate(20.878125 141.61161)scale(0.1 -0.1)">
       <use xlink:href="#DejaVuSans-49"/>
       <use x="63.623047" xlink:href="#DejaVuSans-55"/>
      </g>
     </g>
    </g>
    <g id="ytick_7">
     <g id="line2d_15">
      <g>
       <use style="stroke:#000000;stroke-width:0.8;" x="40.603125" xlink:href="#m440717490d" y="89.737392"/>
      </g>
     </g>
     <g id="text_16">
      <!-- 18 -->
      <defs>
       <path d="M 31.78125 34.625 
Q 24.75 34.625 20.71875 30.859375 
Q 16.703125 27.09375 16.703125 20.515625 
Q 16.703125 13.921875 20.71875 10.15625 
Q 24.75 6.390625 31.78125 6.390625 
Q 38.8125 6.390625 42.859375 10.171875 
Q 46.921875 13.96875 46.921875 20.515625 
Q 46.921875 27.09375 42.890625 30.859375 
Q 38.875 34.625 31.78125 34.625 
z
M 21.921875 38.8125 
Q 15.578125 40.375 12.03125 44.71875 
Q 8.5 49.078125 8.5 55.328125 
Q 8.5 64.0625 14.71875 69.140625 
Q 20.953125 74.21875 31.78125 74.21875 
Q 42.671875 74.21875 48.875 69.140625 
Q 55.078125 64.0625 55.078125 55.328125 
Q 55.078125 49.078125 51.53125 44.71875 
Q 48 40.375 41.703125 38.8125 
Q 48.828125 37.15625 52.796875 32.3125 
Q 56.78125 27.484375 56.78125 20.515625 
Q 56.78125 9.90625 50.3125 4.234375 
Q 43.84375 -1.421875 31.78125 -1.421875 
Q 19.734375 -1.421875 13.25 4.234375 
Q 6.78125 9.90625 6.78125 20.515625 
Q 6.78125 27.484375 10.78125 32.3125 
Q 14.796875 37.15625 21.921875 38.8125 
z
M 18.3125 54.390625 
Q 18.3125 48.734375 21.84375 45.5625 
Q 25.390625 42.390625 31.78125 42.390625 
Q 38.140625 42.390625 41.71875 45.5625 
Q 45.3125 48.734375 45.3125 54.390625 
Q 45.3125 60.0625 41.71875 63.234375 
Q 38.140625 66.40625 31.78125 66.40625 
Q 25.390625 66.40625 21.84375 63.234375 
Q 18.3125 60.0625 18.3125 54.390625 
z
" id="DejaVuSans-56"/>
      </defs>
      <g transform="translate(20.878125 93.536611)scale(0.1 -0.1)">
       <use xlink:href="#DejaVuSans-49"/>
       <use x="63.623047" xlink:href="#DejaVuSans-56"/>
      </g>
     </g>
    </g>
    <g id="ytick_8">
     <g id="line2d_16">
      <g>
       <use style="stroke:#000000;stroke-width:0.8;" x="40.603125" xlink:href="#m440717490d" y="41.662394"/>
      </g>
     </g>
     <g id="text_17">
      <!-- 19 -->
      <defs>
       <path d="M 10.984375 1.515625 
L 10.984375 10.5 
Q 14.703125 8.734375 18.5 7.8125 
Q 22.3125 6.890625 25.984375 6.890625 
Q 35.75 6.890625 40.890625 13.453125 
Q 46.046875 20.015625 46.78125 33.40625 
Q 43.953125 29.203125 39.59375 26.953125 
Q 35.25 24.703125 29.984375 24.703125 
Q 19.046875 24.703125 12.671875 31.3125 
Q 6.296875 37.9375 6.296875 49.421875 
Q 6.296875 60.640625 12.9375 67.421875 
Q 19.578125 74.21875 30.609375 74.21875 
Q 43.265625 74.21875 49.921875 64.515625 
Q 56.59375 54.828125 56.59375 36.375 
Q 56.59375 19.140625 48.40625 8.859375 
Q 40.234375 -1.421875 26.421875 -1.421875 
Q 22.703125 -1.421875 18.890625 -0.6875 
Q 15.09375 0.046875 10.984375 1.515625 
z
M 30.609375 32.421875 
Q 37.25 32.421875 41.125 36.953125 
Q 45.015625 41.5 45.015625 49.421875 
Q 45.015625 57.28125 41.125 61.84375 
Q 37.25 66.40625 30.609375 66.40625 
Q 23.96875 66.40625 20.09375 61.84375 
Q 16.21875 57.28125 16.21875 49.421875 
Q 16.21875 41.5 20.09375 36.953125 
Q 23.96875 32.421875 30.609375 32.421875 
z
" id="DejaVuSans-57"/>
      </defs>
      <g transform="translate(20.878125 45.461612)scale(0.1 -0.1)">
       <use xlink:href="#DejaVuSans-49"/>
       <use x="63.623047" xlink:href="#DejaVuSans-57"/>
      </g>
     </g>
    </g>
    <g id="text_18">
     <!-- GFI -->
     <defs>
      <path d="M 59.515625 10.40625 
L 59.515625 29.984375 
L 43.40625 29.984375 
L 43.40625 38.09375 
L 69.28125 38.09375 
L 69.28125 6.78125 
Q 63.578125 2.734375 56.6875 0.65625 
Q 49.8125 -1.421875 42 -1.421875 
Q 24.90625 -1.421875 15.25 8.5625 
Q 5.609375 18.5625 5.609375 36.375 
Q 5.609375 54.25 15.25 64.234375 
Q 24.90625 74.21875 42 74.21875 
Q 49.125 74.21875 55.546875 72.453125 
Q 61.96875 70.703125 67.390625 67.28125 
L 67.390625 56.78125 
Q 61.921875 61.421875 55.765625 63.765625 
Q 49.609375 66.109375 42.828125 66.109375 
Q 29.4375 66.109375 22.71875 58.640625 
Q 16.015625 51.171875 16.015625 36.375 
Q 16.015625 21.625 22.71875 14.15625 
Q 29.4375 6.6875 42.828125 6.6875 
Q 48.046875 6.6875 52.140625 7.59375 
Q 56.25 8.5 59.515625 10.40625 
z
" id="DejaVuSans-71"/>
      <path d="M 9.8125 72.90625 
L 51.703125 72.90625 
L 51.703125 64.59375 
L 19.671875 64.59375 
L 19.671875 43.109375 
L 48.578125 43.109375 
L 48.578125 34.8125 
L 19.671875 34.8125 
L 19.671875 0 
L 9.8125 0 
z
" id="DejaVuSans-70"/>
      <path d="M 9.8125 72.90625 
L 19.671875 72.90625 
L 19.671875 0 
L 9.8125 0 
z
" id="DejaVuSans-73"/>
     </defs>
     <g transform="translate(14.798438 212.965)rotate(-90)scale(0.1 -0.1)">
      <use xlink:href="#DejaVuSans-71"/>
      <use x="77.490234" xlink:href="#DejaVuSans-70"/>
      <use x="135.009766" xlink:href="#DejaVuSans-73"/>
     </g>
    </g>
   </g>
   <g id="line2d_17">
    <path clip-path="url(#pc24a76c365)" d="M 76.118589 207.536975 
L 86.655222 207.084222 
L 97.191855 207.83603 
L 107.728488 206.87552 
L 118.265121 206.727162 
L 144.606704 208.518962 
L 170.948287 202.674378 
L 223.631453 202.199236 
L 276.314618 202.441214 
L 328.997784 196.343702 
L 381.680949 202.131931 
L 434.364115 182.464449 
L 487.047281 189.444939 
L 539.730446 193.766882 
L 592.413612 196.117749 
L 786.287661 206.131771 
" style="fill:none;stroke:#ff0000;stroke-linecap:square;stroke-width:1.5;"/>
   </g>
   <g id="patch_3">
    <path d="M 40.603125 398.78 
L 40.603125 10.7 
" style="fill:none;stroke:#000000;stroke-linecap:square;stroke-linejoin:miter;stroke-width:0.8;"/>
   </g>
   <g id="patch_4">
    <path d="M 821.803125 398.78 
L 821.803125 10.7 
" style="fill:none;stroke:#000000;stroke-linecap:square;stroke-linejoin:miter;stroke-width:0.8;"/>
   </g>
   <g id="patch_5">
    <path d="M 40.603125 398.78 
L 821.803125 398.78 
" style="fill:none;stroke:#000000;stroke-linecap:square;stroke-linejoin:miter;stroke-width:0.8;"/>
   </g>
   <g id="patch_6">
    <path d="M 40.603125 10.7 
L 821.803125 10.7 
" style="fill:none;stroke:#000000;stroke-linecap:square;stroke-linejoin:miter;stroke-width:0.8;"/>
   </g>
  </g>
 </g>
 <defs>
  <clipPath id="pc24a76c365">
   <rect height="388.08" width="781.2" x="40.603125" y="10.7"/>
  </clipPath>
 </defs>
</svg>
