<?xml version="1.0" encoding="utf-8" standalone="no"?>
<!DOCTYPE svg PUBLIC "-//W3C//DTD SVG 1.1//EN"
  "http://www.w3.org/Graphics/SVG/1.1/DTD/svg11.dtd">
<!-- Created with matplotlib (https://matplotlib.org/) -->
<svg height="436.33625pt" version="1.1" viewBox="0 0 847.952729 436.33625" width="847.952729pt" xmlns="http://www.w3.org/2000/svg" xmlns:xlink="http://www.w3.org/1999/xlink">
 <defs>
  <style type="text/css">
*{stroke-linecap:butt;stroke-linejoin:round;}
  </style>
 </defs>
 <g id="figure_1">
  <g id="patch_1">
   <path d="M 0 436.33625 
L 847.952729 436.33625 
L 847.952729 0 
L 0 0 
z
" style="fill:#ffffff;"/>
  </g>
  <g id="axes_1">
   <g id="patch_2">
    <path d="M 50.14375 398.78 
L 831.34375 398.78 
L 831.34375 10.7 
L 50.14375 10.7 
z
" style="fill:#ffffff;"/>
   </g>
   <g id="PathCollection_1">
    <defs>
     <path d="M 0 3 
C 0.795609 3 1.55874 2.683901 2.12132 2.12132 
C 2.683901 1.55874 3 0.795609 3 0 
C 3 -0.795609 2.683901 -1.55874 2.12132 -2.12132 
C 1.55874 -2.683901 0.795609 -3 0 -3 
C -0.795609 -3 -1.55874 -2.683901 -2.12132 -2.12132 
C -2.683901 -1.55874 -3 -0.795609 -3 0 
C -3 0.795609 -2.683901 1.55874 -2.12132 2.12132 
C -1.55874 2.683901 -0.795609 3 0 3 
z
" id="m618d3b5ba3" style="stroke:#1f77b4;"/>
    </defs>
    <g clip-path="url(#p7b5844f52c)">
     <use style="fill:#1f77b4;stroke:#1f77b4;" x="795.827016" xlink:href="#m618d3b5ba3" y="254.837487"/>
     <use style="fill:#1f77b4;stroke:#1f77b4;" x="704.844827" xlink:href="#m618d3b5ba3" y="248.649833"/>
     <use style="fill:#1f77b4;stroke:#1f77b4;" x="641.662751" xlink:href="#m618d3b5ba3" y="242.125666"/>
     <use style="fill:#1f77b4;stroke:#1f77b4;" x="578.480675" xlink:href="#m618d3b5ba3" y="233.334235"/>
     <use style="fill:#1f77b4;stroke:#1f77b4;" x="515.298599" xlink:href="#m618d3b5ba3" y="227.830126"/>
     <use style="fill:#1f77b4;stroke:#1f77b4;" x="452.116524" xlink:href="#m618d3b5ba3" y="221.743427"/>
     <use style="fill:#1f77b4;stroke:#1f77b4;" x="388.934448" xlink:href="#m618d3b5ba3" y="222.586816"/>
     <use style="fill:#1f77b4;stroke:#1f77b4;" x="388.934448" xlink:href="#m618d3b5ba3" y="275.106152"/>
     <use style="fill:#1f77b4;stroke:#1f77b4;" x="325.752372" xlink:href="#m618d3b5ba3" y="223.648938"/>
     <use style="fill:#1f77b4;stroke:#1f77b4;" x="325.752372" xlink:href="#m618d3b5ba3" y="243.166757"/>
     <use style="fill:#1f77b4;stroke:#1f77b4;" x="262.570296" xlink:href="#m618d3b5ba3" y="209.978052"/>
     <use style="fill:#1f77b4;stroke:#1f77b4;" x="262.570296" xlink:href="#m618d3b5ba3" y="233.778013"/>
     <use style="fill:#1f77b4;stroke:#1f77b4;" x="262.570296" xlink:href="#m618d3b5ba3" y="283.308683"/>
     <use style="fill:#1f77b4;stroke:#1f77b4;" x="199.38822" xlink:href="#m618d3b5ba3" y="215.086757"/>
     <use style="fill:#1f77b4;stroke:#1f77b4;" x="199.38822" xlink:href="#m618d3b5ba3" y="232.354138"/>
     <use style="fill:#1f77b4;stroke:#1f77b4;" x="199.38822" xlink:href="#m618d3b5ba3" y="217.806212"/>
     <use style="fill:#1f77b4;stroke:#1f77b4;" x="199.38822" xlink:href="#m618d3b5ba3" y="268.659804"/>
     <use style="fill:#1f77b4;stroke:#1f77b4;" x="199.38822" xlink:href="#m618d3b5ba3" y="310.970143"/>
     <use style="fill:#1f77b4;stroke:#1f77b4;" x="167.797182" xlink:href="#m618d3b5ba3" y="207.454197"/>
     <use style="fill:#1f77b4;stroke:#1f77b4;" x="167.797182" xlink:href="#m618d3b5ba3" y="212.095988"/>
     <use style="fill:#1f77b4;stroke:#1f77b4;" x="167.797182" xlink:href="#m618d3b5ba3" y="255.279161"/>
     <use style="fill:#1f77b4;stroke:#1f77b4;" x="167.797182" xlink:href="#m618d3b5ba3" y="212.998267"/>
     <use style="fill:#1f77b4;stroke:#1f77b4;" x="167.797182" xlink:href="#m618d3b5ba3" y="268.14031"/>
     <use style="fill:#1f77b4;stroke:#1f77b4;" x="167.797182" xlink:href="#m618d3b5ba3" y="298.470747"/>
     <use style="fill:#1f77b4;stroke:#1f77b4;" x="167.797182" xlink:href="#m618d3b5ba3" y="308.475732"/>
     <use style="fill:#1f77b4;stroke:#1f77b4;" x="136.206145" xlink:href="#m618d3b5ba3" y="202.854469"/>
     <use style="fill:#1f77b4;stroke:#1f77b4;" x="136.206145" xlink:href="#m618d3b5ba3" y="227.539883"/>
     <use style="fill:#1f77b4;stroke:#1f77b4;" x="136.206145" xlink:href="#m618d3b5ba3" y="199.806913"/>
     <use style="fill:#1f77b4;stroke:#1f77b4;" x="136.206145" xlink:href="#m618d3b5ba3" y="266.720641"/>
     <use style="fill:#1f77b4;stroke:#1f77b4;" x="136.206145" xlink:href="#m618d3b5ba3" y="218.062804"/>
     <use style="fill:#1f77b4;stroke:#1f77b4;" x="136.206145" xlink:href="#m618d3b5ba3" y="217.507556"/>
     <use style="fill:#1f77b4;stroke:#1f77b4;" x="136.206145" xlink:href="#m618d3b5ba3" y="265.111683"/>
     <use style="fill:#1f77b4;stroke:#1f77b4;" x="136.206145" xlink:href="#m618d3b5ba3" y="272.121693"/>
     <use style="fill:#1f77b4;stroke:#1f77b4;" x="136.206145" xlink:href="#m618d3b5ba3" y="311.559043"/>
     <use style="fill:#1f77b4;stroke:#1f77b4;" x="136.206145" xlink:href="#m618d3b5ba3" y="309.760796"/>
     <use style="fill:#1f77b4;stroke:#1f77b4;" x="136.206145" xlink:href="#m618d3b5ba3" y="315.275421"/>
     <use style="fill:#1f77b4;stroke:#1f77b4;" x="123.569729" xlink:href="#m618d3b5ba3" y="239.441966"/>
     <use style="fill:#1f77b4;stroke:#1f77b4;" x="123.569729" xlink:href="#m618d3b5ba3" y="161.122513"/>
     <use style="fill:#1f77b4;stroke:#1f77b4;" x="123.569729" xlink:href="#m618d3b5ba3" y="265.166367"/>
     <use style="fill:#1f77b4;stroke:#1f77b4;" x="123.569729" xlink:href="#m618d3b5ba3" y="178.162747"/>
     <use style="fill:#1f77b4;stroke:#1f77b4;" x="123.569729" xlink:href="#m618d3b5ba3" y="282.780777"/>
     <use style="fill:#1f77b4;stroke:#1f77b4;" x="123.569729" xlink:href="#m618d3b5ba3" y="228.368549"/>
     <use style="fill:#1f77b4;stroke:#1f77b4;" x="123.569729" xlink:href="#m618d3b5ba3" y="176.69891"/>
     <use style="fill:#1f77b4;stroke:#1f77b4;" x="123.569729" xlink:href="#m618d3b5ba3" y="305.234681"/>
     <use style="fill:#1f77b4;stroke:#1f77b4;" x="123.569729" xlink:href="#m618d3b5ba3" y="237.328237"/>
     <use style="fill:#1f77b4;stroke:#1f77b4;" x="123.569729" xlink:href="#m618d3b5ba3" y="270.36551"/>
     <use style="fill:#1f77b4;stroke:#1f77b4;" x="123.569729" xlink:href="#m618d3b5ba3" y="328.557212"/>
     <use style="fill:#1f77b4;stroke:#1f77b4;" x="123.569729" xlink:href="#m618d3b5ba3" y="291.662646"/>
     <use style="fill:#1f77b4;stroke:#1f77b4;" x="123.569729" xlink:href="#m618d3b5ba3" y="308.74915"/>
     <use style="fill:#1f77b4;stroke:#1f77b4;" x="123.569729" xlink:href="#m618d3b5ba3" y="322.712383"/>
     <use style="fill:#1f77b4;stroke:#1f77b4;" x="110.933314" xlink:href="#m618d3b5ba3" y="255.8933"/>
     <use style="fill:#1f77b4;stroke:#1f77b4;" x="110.933314" xlink:href="#m618d3b5ba3" y="168.965395"/>
     <use style="fill:#1f77b4;stroke:#1f77b4;" x="110.933314" xlink:href="#m618d3b5ba3" y="196.704674"/>
     <use style="fill:#1f77b4;stroke:#1f77b4;" x="110.933314" xlink:href="#m618d3b5ba3" y="263.887613"/>
     <use style="fill:#1f77b4;stroke:#1f77b4;" x="110.933314" xlink:href="#m618d3b5ba3" y="169.35449"/>
     <use style="fill:#1f77b4;stroke:#1f77b4;" x="110.933314" xlink:href="#m618d3b5ba3" y="256.471683"/>
     <use style="fill:#1f77b4;stroke:#1f77b4;" x="110.933314" xlink:href="#m618d3b5ba3" y="260.480408"/>
     <use style="fill:#1f77b4;stroke:#1f77b4;" x="110.933314" xlink:href="#m618d3b5ba3" y="230.168899"/>
     <use style="fill:#1f77b4;stroke:#1f77b4;" x="110.933314" xlink:href="#m618d3b5ba3" y="211.288354"/>
     <use style="fill:#1f77b4;stroke:#1f77b4;" x="110.933314" xlink:href="#m618d3b5ba3" y="208.869659"/>
     <use style="fill:#1f77b4;stroke:#1f77b4;" x="110.933314" xlink:href="#m618d3b5ba3" y="277.855052"/>
     <use style="fill:#1f77b4;stroke:#1f77b4;" x="110.933314" xlink:href="#m618d3b5ba3" y="256.965938"/>
     <use style="fill:#1f77b4;stroke:#1f77b4;" x="110.933314" xlink:href="#m618d3b5ba3" y="266.775325"/>
     <use style="fill:#1f77b4;stroke:#1f77b4;" x="110.933314" xlink:href="#m618d3b5ba3" y="318.533298"/>
     <use style="fill:#1f77b4;stroke:#1f77b4;" x="110.933314" xlink:href="#m618d3b5ba3" y="296.108839"/>
     <use style="fill:#1f77b4;stroke:#1f77b4;" x="110.933314" xlink:href="#m618d3b5ba3" y="308.444184"/>
     <use style="fill:#1f77b4;stroke:#1f77b4;" x="110.933314" xlink:href="#m618d3b5ba3" y="318.005391"/>
     <use style="fill:#1f77b4;stroke:#1f77b4;" x="110.933314" xlink:href="#m618d3b5ba3" y="294.478849"/>
     <use style="fill:#1f77b4;stroke:#1f77b4;" x="110.933314" xlink:href="#m618d3b5ba3" y="301.322704"/>
     <use style="fill:#1f77b4;stroke:#1f77b4;" x="98.296899" xlink:href="#m618d3b5ba3" y="284.844029"/>
     <use style="fill:#1f77b4;stroke:#1f77b4;" x="98.296899" xlink:href="#m618d3b5ba3" y="191.778949"/>
     <use style="fill:#1f77b4;stroke:#1f77b4;" x="98.296899" xlink:href="#m618d3b5ba3" y="156.749933"/>
     <use style="fill:#1f77b4;stroke:#1f77b4;" x="98.296899" xlink:href="#m618d3b5ba3" y="164.538132"/>
     <use style="fill:#1f77b4;stroke:#1f77b4;" x="98.296899" xlink:href="#m618d3b5ba3" y="282.111955"/>
     <use style="fill:#1f77b4;stroke:#1f77b4;" x="98.296899" xlink:href="#m618d3b5ba3" y="248.794955"/>
     <use style="fill:#1f77b4;stroke:#1f77b4;" x="98.296899" xlink:href="#m618d3b5ba3" y="112.285903"/>
     <use style="fill:#1f77b4;stroke:#1f77b4;" x="98.296899" xlink:href="#m618d3b5ba3" y="247.987321"/>
     <use style="fill:#1f77b4;stroke:#1f77b4;" x="98.296899" xlink:href="#m618d3b5ba3" y="281.525159"/>
     <use style="fill:#1f77b4;stroke:#1f77b4;" x="98.296899" xlink:href="#m618d3b5ba3" y="281.685003"/>
     <use style="fill:#1f77b4;stroke:#1f77b4;" x="98.296899" xlink:href="#m618d3b5ba3" y="230.015364"/>
     <use style="fill:#1f77b4;stroke:#1f77b4;" x="98.296899" xlink:href="#m618d3b5ba3" y="226.702804"/>
     <use style="fill:#1f77b4;stroke:#1f77b4;" x="98.296899" xlink:href="#m618d3b5ba3" y="206.535092"/>
     <use style="fill:#1f77b4;stroke:#1f77b4;" x="98.296899" xlink:href="#m618d3b5ba3" y="148.212991"/>
     <use style="fill:#1f77b4;stroke:#1f77b4;" x="98.296899" xlink:href="#m618d3b5ba3" y="277.23881"/>
     <use style="fill:#1f77b4;stroke:#1f77b4;" x="98.296899" xlink:href="#m618d3b5ba3" y="334.919432"/>
     <use style="fill:#1f77b4;stroke:#1f77b4;" x="98.296899" xlink:href="#m618d3b5ba3" y="241.044614"/>
     <use style="fill:#1f77b4;stroke:#1f77b4;" x="98.296899" xlink:href="#m618d3b5ba3" y="233.605549"/>
     <use style="fill:#1f77b4;stroke:#1f77b4;" x="98.296899" xlink:href="#m618d3b5ba3" y="274.944205"/>
     <use style="fill:#1f77b4;stroke:#1f77b4;" x="98.296899" xlink:href="#m618d3b5ba3" y="265.22105"/>
     <use style="fill:#1f77b4;stroke:#1f77b4;" x="98.296899" xlink:href="#m618d3b5ba3" y="336.124573"/>
     <use style="fill:#1f77b4;stroke:#1f77b4;" x="98.296899" xlink:href="#m618d3b5ba3" y="320.329442"/>
     <use style="fill:#1f77b4;stroke:#1f77b4;" x="98.296899" xlink:href="#m618d3b5ba3" y="276.172481"/>
     <use style="fill:#1f77b4;stroke:#1f77b4;" x="98.296899" xlink:href="#m618d3b5ba3" y="307.699647"/>
     <use style="fill:#1f77b4;stroke:#1f77b4;" x="98.296899" xlink:href="#m618d3b5ba3" y="311.37396"/>
     <use style="fill:#1f77b4;stroke:#1f77b4;" x="98.296899" xlink:href="#m618d3b5ba3" y="306.132753"/>
     <use style="fill:#1f77b4;stroke:#1f77b4;" x="98.296899" xlink:href="#m618d3b5ba3" y="301.968391"/>
     <use style="fill:#1f77b4;stroke:#1f77b4;" x="98.296899" xlink:href="#m618d3b5ba3" y="344.480639"/>
     <use style="fill:#1f77b4;stroke:#1f77b4;" x="85.660484" xlink:href="#m618d3b5ba3" y="311.493843"/>
     <use style="fill:#1f77b4;stroke:#1f77b4;" x="85.660484" xlink:href="#m618d3b5ba3" y="257.434955"/>
     <use style="fill:#1f77b4;stroke:#1f77b4;" x="85.660484" xlink:href="#m618d3b5ba3" y="182.930731"/>
     <use style="fill:#1f77b4;stroke:#1f77b4;" x="85.660484" xlink:href="#m618d3b5ba3" y="192.847381"/>
     <use style="fill:#1f77b4;stroke:#1f77b4;" x="85.660484" xlink:href="#m618d3b5ba3" y="67.737745"/>
     <use style="fill:#1f77b4;stroke:#1f77b4;" x="85.660484" xlink:href="#m618d3b5ba3" y="245.982959"/>
     <use style="fill:#1f77b4;stroke:#1f77b4;" x="85.660484" xlink:href="#m618d3b5ba3" y="110.550752"/>
     <use style="fill:#1f77b4;stroke:#1f77b4;" x="85.660484" xlink:href="#m618d3b5ba3" y="219.249016"/>
     <use style="fill:#1f77b4;stroke:#1f77b4;" x="85.660484" xlink:href="#m618d3b5ba3" y="266.848937"/>
     <use style="fill:#1f77b4;stroke:#1f77b4;" x="85.660484" xlink:href="#m618d3b5ba3" y="294.17178"/>
     <use style="fill:#1f77b4;stroke:#1f77b4;" x="85.660484" xlink:href="#m618d3b5ba3" y="246.740116"/>
     <use style="fill:#1f77b4;stroke:#1f77b4;" x="85.660484" xlink:href="#m618d3b5ba3" y="247.533027"/>
     <use style="fill:#1f77b4;stroke:#1f77b4;" x="85.660484" xlink:href="#m618d3b5ba3" y="199.45147"/>
     <use style="fill:#1f77b4;stroke:#1f77b4;" x="85.660484" xlink:href="#m618d3b5ba3" y="28.510715"/>
     <use style="fill:#1f77b4;stroke:#1f77b4;" x="85.660484" xlink:href="#m618d3b5ba3" y="288.339569"/>
     <use style="fill:#1f77b4;stroke:#1f77b4;" x="85.660484" xlink:href="#m618d3b5ba3" y="205.382532"/>
     <use style="fill:#1f77b4;stroke:#1f77b4;" x="85.660484" xlink:href="#m618d3b5ba3" y="380.969285"/>
     <use style="fill:#1f77b4;stroke:#1f77b4;" x="85.660484" xlink:href="#m618d3b5ba3" y="191.713749"/>
     <use style="fill:#1f77b4;stroke:#1f77b4;" x="85.660484" xlink:href="#m618d3b5ba3" y="331.724651"/>
     <use style="fill:#1f77b4;stroke:#1f77b4;" x="85.660484" xlink:href="#m618d3b5ba3" y="225.474527"/>
     <use style="fill:#1f77b4;stroke:#1f77b4;" x="85.660484" xlink:href="#m618d3b5ba3" y="218.542337"/>
     <use style="fill:#1f77b4;stroke:#1f77b4;" x="85.660484" xlink:href="#m618d3b5ba3" y="235.147205"/>
     <use style="fill:#1f77b4;stroke:#1f77b4;" x="85.660484" xlink:href="#m618d3b5ba3" y="227.98997"/>
     <use style="fill:#1f77b4;stroke:#1f77b4;" x="85.660484" xlink:href="#m618d3b5ba3" y="225.379883"/>
     <use style="fill:#1f77b4;stroke:#1f77b4;" x="85.660484" xlink:href="#m618d3b5ba3" y="175.548453"/>
     <use style="fill:#1f77b4;stroke:#1f77b4;" x="85.660484" xlink:href="#m618d3b5ba3" y="238.754215"/>
     <use style="fill:#1f77b4;stroke:#1f77b4;" x="85.660484" xlink:href="#m618d3b5ba3" y="220.582453"/>
     <use style="fill:#1f77b4;stroke:#1f77b4;" x="85.660484" xlink:href="#m618d3b5ba3" y="81.602126"/>
     <use style="fill:#1f77b4;stroke:#1f77b4;" x="85.660484" xlink:href="#m618d3b5ba3" y="221.026231"/>
     <use style="fill:#1f77b4;stroke:#1f77b4;" x="85.660484" xlink:href="#m618d3b5ba3" y="338.486481"/>
     <use style="fill:#1f77b4;stroke:#1f77b4;" x="85.660484" xlink:href="#m618d3b5ba3" y="372.848779"/>
     <use style="fill:#1f77b4;stroke:#1f77b4;" x="85.660484" xlink:href="#m618d3b5ba3" y="299.59176"/>
     <use style="fill:#1f77b4;stroke:#1f77b4;" x="85.660484" xlink:href="#m618d3b5ba3" y="181.021013"/>
     <use style="fill:#1f77b4;stroke:#1f77b4;" x="85.660484" xlink:href="#m618d3b5ba3" y="307.581867"/>
     <use style="fill:#1f77b4;stroke:#1f77b4;" x="85.660484" xlink:href="#m618d3b5ba3" y="189.987011"/>
     <use style="fill:#1f77b4;stroke:#1f77b4;" x="85.660484" xlink:href="#m618d3b5ba3" y="273.711722"/>
     <use style="fill:#1f77b4;stroke:#1f77b4;" x="85.660484" xlink:href="#m618d3b5ba3" y="297.654701"/>
     <use style="fill:#1f77b4;stroke:#1f77b4;" x="85.660484" xlink:href="#m618d3b5ba3" y="241.988957"/>
     <use style="fill:#1f77b4;stroke:#1f77b4;" x="85.660484" xlink:href="#m618d3b5ba3" y="248.340661"/>
     <use style="fill:#1f77b4;stroke:#1f77b4;" x="85.660484" xlink:href="#m618d3b5ba3" y="281.20547"/>
     <use style="fill:#1f77b4;stroke:#1f77b4;" x="85.660484" xlink:href="#m618d3b5ba3" y="369.651894"/>
     <use style="fill:#1f77b4;stroke:#1f77b4;" x="85.660484" xlink:href="#m618d3b5ba3" y="301.938946"/>
     <use style="fill:#1f77b4;stroke:#1f77b4;" x="85.660484" xlink:href="#m618d3b5ba3" y="314.880017"/>
     <use style="fill:#1f77b4;stroke:#1f77b4;" x="85.660484" xlink:href="#m618d3b5ba3" y="325.09322"/>
     <use style="fill:#1f77b4;stroke:#1f77b4;" x="85.660484" xlink:href="#m618d3b5ba3" y="243.086834"/>
     <use style="fill:#1f77b4;stroke:#1f77b4;" x="85.660484" xlink:href="#m618d3b5ba3" y="307.06658"/>
     <use style="fill:#1f77b4;stroke:#1f77b4;" x="85.660484" xlink:href="#m618d3b5ba3" y="308.839588"/>
     <use style="fill:#1f77b4;stroke:#1f77b4;" x="85.660484" xlink:href="#m618d3b5ba3" y="305.508099"/>
     <use style="fill:#1f77b4;stroke:#1f77b4;" x="85.660484" xlink:href="#m618d3b5ba3" y="323.181399"/>
     <use style="fill:#1f77b4;stroke:#1f77b4;" x="85.660484" xlink:href="#m618d3b5ba3" y="299.18584"/>
     <use style="fill:#1f77b4;stroke:#1f77b4;" x="85.660484" xlink:href="#m618d3b5ba3" y="329.329091"/>
     <use style="fill:#1f77b4;stroke:#1f77b4;" x="85.660484" xlink:href="#m618d3b5ba3" y="278.033825"/>
     <use style="fill:#1f77b4;stroke:#1f77b4;" x="85.660484" xlink:href="#m618d3b5ba3" y="281.914253"/>
     <use style="fill:#1f77b4;stroke:#1f77b4;" x="85.660484" xlink:href="#m618d3b5ba3" y="321.686015"/>
     <use style="fill:#1f77b4;stroke:#1f77b4;" x="85.660484" xlink:href="#m618d3b5ba3" y="363.788136"/>
     <use style="fill:#1f77b4;stroke:#1f77b4;" x="85.660484" xlink:href="#m618d3b5ba3" y="326.13431"/>
     <use style="fill:#1f77b4;stroke:#1f77b4;" x="85.660484" xlink:href="#m618d3b5ba3" y="207.517293"/>
    </g>
   </g>
   <g id="matplotlib.axis_1">
    <g id="xtick_1">
     <g id="line2d_1">
      <defs>
       <path d="M 0 0 
L 0 3.5 
" id="m585057c7d6" style="stroke:#000000;stroke-width:0.8;"/>
      </defs>
      <g>
       <use style="stroke:#000000;stroke-width:0.8;" x="73.024069" xlink:href="#m585057c7d6" y="398.78"/>
      </g>
     </g>
     <g id="text_1">
      <!-- 0 -->
      <defs>
       <path d="M 31.78125 66.40625 
Q 24.171875 66.40625 20.328125 58.90625 
Q 16.5 51.421875 16.5 36.375 
Q 16.5 21.390625 20.328125 13.890625 
Q 24.171875 6.390625 31.78125 6.390625 
Q 39.453125 6.390625 43.28125 13.890625 
Q 47.125 21.390625 47.125 36.375 
Q 47.125 51.421875 43.28125 58.90625 
Q 39.453125 66.40625 31.78125 66.40625 
z
M 31.78125 74.21875 
Q 44.046875 74.21875 50.515625 64.515625 
Q 56.984375 54.828125 56.984375 36.375 
Q 56.984375 17.96875 50.515625 8.265625 
Q 44.046875 -1.421875 31.78125 -1.421875 
Q 19.53125 -1.421875 13.0625 8.265625 
Q 6.59375 17.96875 6.59375 36.375 
Q 6.59375 54.828125 13.0625 64.515625 
Q 19.53125 74.21875 31.78125 74.21875 
z
" id="DejaVuSans-48"/>
      </defs>
      <g transform="translate(69.842819 413.378437)scale(0.1 -0.1)">
       <use xlink:href="#DejaVuSans-48"/>
      </g>
     </g>
    </g>
    <g id="xtick_2">
     <g id="line2d_2">
      <g>
       <use style="stroke:#000000;stroke-width:0.8;" x="199.38822" xlink:href="#m585057c7d6" y="398.78"/>
      </g>
     </g>
     <g id="text_2">
      <!-- 100 -->
      <defs>
       <path d="M 12.40625 8.296875 
L 28.515625 8.296875 
L 28.515625 63.921875 
L 10.984375 60.40625 
L 10.984375 69.390625 
L 28.421875 72.90625 
L 38.28125 72.90625 
L 38.28125 8.296875 
L 54.390625 8.296875 
L 54.390625 0 
L 12.40625 0 
z
" id="DejaVuSans-49"/>
      </defs>
      <g transform="translate(189.84447 413.378437)scale(0.1 -0.1)">
       <use xlink:href="#DejaVuSans-49"/>
       <use x="63.623047" xlink:href="#DejaVuSans-48"/>
       <use x="127.246094" xlink:href="#DejaVuSans-48"/>
      </g>
     </g>
    </g>
    <g id="xtick_3">
     <g id="line2d_3">
      <g>
       <use style="stroke:#000000;stroke-width:0.8;" x="325.752372" xlink:href="#m585057c7d6" y="398.78"/>
      </g>
     </g>
     <g id="text_3">
      <!-- 200 -->
      <defs>
       <path d="M 19.1875 8.296875 
L 53.609375 8.296875 
L 53.609375 0 
L 7.328125 0 
L 7.328125 8.296875 
Q 12.9375 14.109375 22.625 23.890625 
Q 32.328125 33.6875 34.8125 36.53125 
Q 39.546875 41.84375 41.421875 45.53125 
Q 43.3125 49.21875 43.3125 52.78125 
Q 43.3125 58.59375 39.234375 62.25 
Q 35.15625 65.921875 28.609375 65.921875 
Q 23.96875 65.921875 18.8125 64.3125 
Q 13.671875 62.703125 7.8125 59.421875 
L 7.8125 69.390625 
Q 13.765625 71.78125 18.9375 73 
Q 24.125 74.21875 28.421875 74.21875 
Q 39.75 74.21875 46.484375 68.546875 
Q 53.21875 62.890625 53.21875 53.421875 
Q 53.21875 48.921875 51.53125 44.890625 
Q 49.859375 40.875 45.40625 35.40625 
Q 44.1875 33.984375 37.640625 27.21875 
Q 31.109375 20.453125 19.1875 8.296875 
z
" id="DejaVuSans-50"/>
      </defs>
      <g transform="translate(316.208622 413.378437)scale(0.1 -0.1)">
       <use xlink:href="#DejaVuSans-50"/>
       <use x="63.623047" xlink:href="#DejaVuSans-48"/>
       <use x="127.246094" xlink:href="#DejaVuSans-48"/>
      </g>
     </g>
    </g>
    <g id="xtick_4">
     <g id="line2d_4">
      <g>
       <use style="stroke:#000000;stroke-width:0.8;" x="452.116524" xlink:href="#m585057c7d6" y="398.78"/>
      </g>
     </g>
     <g id="text_4">
      <!-- 300 -->
      <defs>
       <path d="M 40.578125 39.3125 
Q 47.65625 37.796875 51.625 33 
Q 55.609375 28.21875 55.609375 21.1875 
Q 55.609375 10.40625 48.1875 4.484375 
Q 40.765625 -1.421875 27.09375 -1.421875 
Q 22.515625 -1.421875 17.65625 -0.515625 
Q 12.796875 0.390625 7.625 2.203125 
L 7.625 11.71875 
Q 11.71875 9.328125 16.59375 8.109375 
Q 21.484375 6.890625 26.8125 6.890625 
Q 36.078125 6.890625 40.9375 10.546875 
Q 45.796875 14.203125 45.796875 21.1875 
Q 45.796875 27.640625 41.28125 31.265625 
Q 36.765625 34.90625 28.71875 34.90625 
L 20.21875 34.90625 
L 20.21875 43.015625 
L 29.109375 43.015625 
Q 36.375 43.015625 40.234375 45.921875 
Q 44.09375 48.828125 44.09375 54.296875 
Q 44.09375 59.90625 40.109375 62.90625 
Q 36.140625 65.921875 28.71875 65.921875 
Q 24.65625 65.921875 20.015625 65.03125 
Q 15.375 64.15625 9.8125 62.3125 
L 9.8125 71.09375 
Q 15.4375 72.65625 20.34375 73.4375 
Q 25.25 74.21875 29.59375 74.21875 
Q 40.828125 74.21875 47.359375 69.109375 
Q 53.90625 64.015625 53.90625 55.328125 
Q 53.90625 49.265625 50.4375 45.09375 
Q 46.96875 40.921875 40.578125 39.3125 
z
" id="DejaVuSans-51"/>
      </defs>
      <g transform="translate(442.572774 413.378437)scale(0.1 -0.1)">
       <use xlink:href="#DejaVuSans-51"/>
       <use x="63.623047" xlink:href="#DejaVuSans-48"/>
       <use x="127.246094" xlink:href="#DejaVuSans-48"/>
      </g>
     </g>
    </g>
    <g id="xtick_5">
     <g id="line2d_5">
      <g>
       <use style="stroke:#000000;stroke-width:0.8;" x="578.480675" xlink:href="#m585057c7d6" y="398.78"/>
      </g>
     </g>
     <g id="text_5">
      <!-- 400 -->
      <defs>
       <path d="M 37.796875 64.3125 
L 12.890625 25.390625 
L 37.796875 25.390625 
z
M 35.203125 72.90625 
L 47.609375 72.90625 
L 47.609375 25.390625 
L 58.015625 25.390625 
L 58.015625 17.1875 
L 47.609375 17.1875 
L 47.609375 0 
L 37.796875 0 
L 37.796875 17.1875 
L 4.890625 17.1875 
L 4.890625 26.703125 
z
" id="DejaVuSans-52"/>
      </defs>
      <g transform="translate(568.936925 413.378437)scale(0.1 -0.1)">
       <use xlink:href="#DejaVuSans-52"/>
       <use x="63.623047" xlink:href="#DejaVuSans-48"/>
       <use x="127.246094" xlink:href="#DejaVuSans-48"/>
      </g>
     </g>
    </g>
    <g id="xtick_6">
     <g id="line2d_6">
      <g>
       <use style="stroke:#000000;stroke-width:0.8;" x="704.844827" xlink:href="#m585057c7d6" y="398.78"/>
      </g>
     </g>
     <g id="text_6">
      <!-- 500 -->
      <defs>
       <path d="M 10.796875 72.90625 
L 49.515625 72.90625 
L 49.515625 64.59375 
L 19.828125 64.59375 
L 19.828125 46.734375 
Q 21.96875 47.46875 24.109375 47.828125 
Q 26.265625 48.1875 28.421875 48.1875 
Q 40.625 48.1875 47.75 41.5 
Q 54.890625 34.8125 54.890625 23.390625 
Q 54.890625 11.625 47.5625 5.09375 
Q 40.234375 -1.421875 26.90625 -1.421875 
Q 22.3125 -1.421875 17.546875 -0.640625 
Q 12.796875 0.140625 7.71875 1.703125 
L 7.71875 11.625 
Q 12.109375 9.234375 16.796875 8.0625 
Q 21.484375 6.890625 26.703125 6.890625 
Q 35.15625 6.890625 40.078125 11.328125 
Q 45.015625 15.765625 45.015625 23.390625 
Q 45.015625 31 40.078125 35.4375 
Q 35.15625 39.890625 26.703125 39.890625 
Q 22.75 39.890625 18.8125 39.015625 
Q 14.890625 38.140625 10.796875 36.28125 
z
" id="DejaVuSans-53"/>
      </defs>
      <g transform="translate(695.301077 413.378437)scale(0.1 -0.1)">
       <use xlink:href="#DejaVuSans-53"/>
       <use x="63.623047" xlink:href="#DejaVuSans-48"/>
       <use x="127.246094" xlink:href="#DejaVuSans-48"/>
      </g>
     </g>
    </g>
    <g id="xtick_7">
     <g id="line2d_7">
      <g>
       <use style="stroke:#000000;stroke-width:0.8;" x="831.208979" xlink:href="#m585057c7d6" y="398.78"/>
      </g>
     </g>
     <g id="text_7">
      <!-- 600 -->
      <defs>
       <path d="M 33.015625 40.375 
Q 26.375 40.375 22.484375 35.828125 
Q 18.609375 31.296875 18.609375 23.390625 
Q 18.609375 15.53125 22.484375 10.953125 
Q 26.375 6.390625 33.015625 6.390625 
Q 39.65625 6.390625 43.53125 10.953125 
Q 47.40625 15.53125 47.40625 23.390625 
Q 47.40625 31.296875 43.53125 35.828125 
Q 39.65625 40.375 33.015625 40.375 
z
M 52.59375 71.296875 
L 52.59375 62.3125 
Q 48.875 64.0625 45.09375 64.984375 
Q 41.3125 65.921875 37.59375 65.921875 
Q 27.828125 65.921875 22.671875 59.328125 
Q 17.53125 52.734375 16.796875 39.40625 
Q 19.671875 43.65625 24.015625 45.921875 
Q 28.375 48.1875 33.59375 48.1875 
Q 44.578125 48.1875 50.953125 41.515625 
Q 57.328125 34.859375 57.328125 23.390625 
Q 57.328125 12.15625 50.6875 5.359375 
Q 44.046875 -1.421875 33.015625 -1.421875 
Q 20.359375 -1.421875 13.671875 8.265625 
Q 6.984375 17.96875 6.984375 36.375 
Q 6.984375 53.65625 15.1875 63.9375 
Q 23.390625 74.21875 37.203125 74.21875 
Q 40.921875 74.21875 44.703125 73.484375 
Q 48.484375 72.75 52.59375 71.296875 
z
" id="DejaVuSans-54"/>
      </defs>
      <g transform="translate(821.665229 413.378437)scale(0.1 -0.1)">
       <use xlink:href="#DejaVuSans-54"/>
       <use x="63.623047" xlink:href="#DejaVuSans-48"/>
       <use x="127.246094" xlink:href="#DejaVuSans-48"/>
      </g>
     </g>
    </g>
    <g id="text_8">
     <!-- length of chunk in sentences -->
     <defs>
      <path d="M 9.421875 75.984375 
L 18.40625 75.984375 
L 18.40625 0 
L 9.421875 0 
z
" id="DejaVuSans-108"/>
      <path d="M 56.203125 29.59375 
L 56.203125 25.203125 
L 14.890625 25.203125 
Q 15.484375 15.921875 20.484375 11.0625 
Q 25.484375 6.203125 34.421875 6.203125 
Q 39.59375 6.203125 44.453125 7.46875 
Q 49.3125 8.734375 54.109375 11.28125 
L 54.109375 2.78125 
Q 49.265625 0.734375 44.1875 -0.34375 
Q 39.109375 -1.421875 33.890625 -1.421875 
Q 20.796875 -1.421875 13.15625 6.1875 
Q 5.515625 13.8125 5.515625 26.8125 
Q 5.515625 40.234375 12.765625 48.109375 
Q 20.015625 56 32.328125 56 
Q 43.359375 56 49.78125 48.890625 
Q 56.203125 41.796875 56.203125 29.59375 
z
M 47.21875 32.234375 
Q 47.125 39.59375 43.09375 43.984375 
Q 39.0625 48.390625 32.421875 48.390625 
Q 24.90625 48.390625 20.390625 44.140625 
Q 15.875 39.890625 15.1875 32.171875 
z
" id="DejaVuSans-101"/>
      <path d="M 54.890625 33.015625 
L 54.890625 0 
L 45.90625 0 
L 45.90625 32.71875 
Q 45.90625 40.484375 42.875 44.328125 
Q 39.84375 48.1875 33.796875 48.1875 
Q 26.515625 48.1875 22.3125 43.546875 
Q 18.109375 38.921875 18.109375 30.90625 
L 18.109375 0 
L 9.078125 0 
L 9.078125 54.6875 
L 18.109375 54.6875 
L 18.109375 46.1875 
Q 21.34375 51.125 25.703125 53.5625 
Q 30.078125 56 35.796875 56 
Q 45.21875 56 50.046875 50.171875 
Q 54.890625 44.34375 54.890625 33.015625 
z
" id="DejaVuSans-110"/>
      <path d="M 45.40625 27.984375 
Q 45.40625 37.75 41.375 43.109375 
Q 37.359375 48.484375 30.078125 48.484375 
Q 22.859375 48.484375 18.828125 43.109375 
Q 14.796875 37.75 14.796875 27.984375 
Q 14.796875 18.265625 18.828125 12.890625 
Q 22.859375 7.515625 30.078125 7.515625 
Q 37.359375 7.515625 41.375 12.890625 
Q 45.40625 18.265625 45.40625 27.984375 
z
M 54.390625 6.78125 
Q 54.390625 -7.171875 48.1875 -13.984375 
Q 42 -20.796875 29.203125 -20.796875 
Q 24.46875 -20.796875 20.265625 -20.09375 
Q 16.0625 -19.390625 12.109375 -17.921875 
L 12.109375 -9.1875 
Q 16.0625 -11.328125 19.921875 -12.34375 
Q 23.78125 -13.375 27.78125 -13.375 
Q 36.625 -13.375 41.015625 -8.765625 
Q 45.40625 -4.15625 45.40625 5.171875 
L 45.40625 9.625 
Q 42.625 4.78125 38.28125 2.390625 
Q 33.9375 0 27.875 0 
Q 17.828125 0 11.671875 7.65625 
Q 5.515625 15.328125 5.515625 27.984375 
Q 5.515625 40.671875 11.671875 48.328125 
Q 17.828125 56 27.875 56 
Q 33.9375 56 38.28125 53.609375 
Q 42.625 51.21875 45.40625 46.390625 
L 45.40625 54.6875 
L 54.390625 54.6875 
z
" id="DejaVuSans-103"/>
      <path d="M 18.3125 70.21875 
L 18.3125 54.6875 
L 36.8125 54.6875 
L 36.8125 47.703125 
L 18.3125 47.703125 
L 18.3125 18.015625 
Q 18.3125 11.328125 20.140625 9.421875 
Q 21.96875 7.515625 27.59375 7.515625 
L 36.8125 7.515625 
L 36.8125 0 
L 27.59375 0 
Q 17.1875 0 13.234375 3.875 
Q 9.28125 7.765625 9.28125 18.015625 
L 9.28125 47.703125 
L 2.6875 47.703125 
L 2.6875 54.6875 
L 9.28125 54.6875 
L 9.28125 70.21875 
z
" id="DejaVuSans-116"/>
      <path d="M 54.890625 33.015625 
L 54.890625 0 
L 45.90625 0 
L 45.90625 32.71875 
Q 45.90625 40.484375 42.875 44.328125 
Q 39.84375 48.1875 33.796875 48.1875 
Q 26.515625 48.1875 22.3125 43.546875 
Q 18.109375 38.921875 18.109375 30.90625 
L 18.109375 0 
L 9.078125 0 
L 9.078125 75.984375 
L 18.109375 75.984375 
L 18.109375 46.1875 
Q 21.34375 51.125 25.703125 53.5625 
Q 30.078125 56 35.796875 56 
Q 45.21875 56 50.046875 50.171875 
Q 54.890625 44.34375 54.890625 33.015625 
z
" id="DejaVuSans-104"/>
      <path id="DejaVuSans-32"/>
      <path d="M 30.609375 48.390625 
Q 23.390625 48.390625 19.1875 42.75 
Q 14.984375 37.109375 14.984375 27.296875 
Q 14.984375 17.484375 19.15625 11.84375 
Q 23.34375 6.203125 30.609375 6.203125 
Q 37.796875 6.203125 41.984375 11.859375 
Q 46.1875 17.53125 46.1875 27.296875 
Q 46.1875 37.015625 41.984375 42.703125 
Q 37.796875 48.390625 30.609375 48.390625 
z
M 30.609375 56 
Q 42.328125 56 49.015625 48.375 
Q 55.71875 40.765625 55.71875 27.296875 
Q 55.71875 13.875 49.015625 6.21875 
Q 42.328125 -1.421875 30.609375 -1.421875 
Q 18.84375 -1.421875 12.171875 6.21875 
Q 5.515625 13.875 5.515625 27.296875 
Q 5.515625 40.765625 12.171875 48.375 
Q 18.84375 56 30.609375 56 
z
" id="DejaVuSans-111"/>
      <path d="M 37.109375 75.984375 
L 37.109375 68.5 
L 28.515625 68.5 
Q 23.6875 68.5 21.796875 66.546875 
Q 19.921875 64.59375 19.921875 59.515625 
L 19.921875 54.6875 
L 34.71875 54.6875 
L 34.71875 47.703125 
L 19.921875 47.703125 
L 19.921875 0 
L 10.890625 0 
L 10.890625 47.703125 
L 2.296875 47.703125 
L 2.296875 54.6875 
L 10.890625 54.6875 
L 10.890625 58.5 
Q 10.890625 67.625 15.140625 71.796875 
Q 19.390625 75.984375 28.609375 75.984375 
z
" id="DejaVuSans-102"/>
      <path d="M 48.78125 52.59375 
L 48.78125 44.1875 
Q 44.96875 46.296875 41.140625 47.34375 
Q 37.3125 48.390625 33.40625 48.390625 
Q 24.65625 48.390625 19.8125 42.84375 
Q 14.984375 37.3125 14.984375 27.296875 
Q 14.984375 17.28125 19.8125 11.734375 
Q 24.65625 6.203125 33.40625 6.203125 
Q 37.3125 6.203125 41.140625 7.25 
Q 44.96875 8.296875 48.78125 10.40625 
L 48.78125 2.09375 
Q 45.015625 0.34375 40.984375 -0.53125 
Q 36.96875 -1.421875 32.421875 -1.421875 
Q 20.0625 -1.421875 12.78125 6.34375 
Q 5.515625 14.109375 5.515625 27.296875 
Q 5.515625 40.671875 12.859375 48.328125 
Q 20.21875 56 33.015625 56 
Q 37.15625 56 41.109375 55.140625 
Q 45.0625 54.296875 48.78125 52.59375 
z
" id="DejaVuSans-99"/>
      <path d="M 8.5 21.578125 
L 8.5 54.6875 
L 17.484375 54.6875 
L 17.484375 21.921875 
Q 17.484375 14.15625 20.5 10.265625 
Q 23.53125 6.390625 29.59375 6.390625 
Q 36.859375 6.390625 41.078125 11.03125 
Q 45.3125 15.671875 45.3125 23.6875 
L 45.3125 54.6875 
L 54.296875 54.6875 
L 54.296875 0 
L 45.3125 0 
L 45.3125 8.40625 
Q 42.046875 3.421875 37.71875 1 
Q 33.40625 -1.421875 27.6875 -1.421875 
Q 18.265625 -1.421875 13.375 4.4375 
Q 8.5 10.296875 8.5 21.578125 
z
M 31.109375 56 
z
" id="DejaVuSans-117"/>
      <path d="M 9.078125 75.984375 
L 18.109375 75.984375 
L 18.109375 31.109375 
L 44.921875 54.6875 
L 56.390625 54.6875 
L 27.390625 29.109375 
L 57.625 0 
L 45.90625 0 
L 18.109375 26.703125 
L 18.109375 0 
L 9.078125 0 
z
" id="DejaVuSans-107"/>
      <path d="M 9.421875 54.6875 
L 18.40625 54.6875 
L 18.40625 0 
L 9.421875 0 
z
M 9.421875 75.984375 
L 18.40625 75.984375 
L 18.40625 64.59375 
L 9.421875 64.59375 
z
" id="DejaVuSans-105"/>
      <path d="M 44.28125 53.078125 
L 44.28125 44.578125 
Q 40.484375 46.53125 36.375 47.5 
Q 32.28125 48.484375 27.875 48.484375 
Q 21.1875 48.484375 17.84375 46.4375 
Q 14.5 44.390625 14.5 40.28125 
Q 14.5 37.15625 16.890625 35.375 
Q 19.28125 33.59375 26.515625 31.984375 
L 29.59375 31.296875 
Q 39.15625 29.25 43.1875 25.515625 
Q 47.21875 21.78125 47.21875 15.09375 
Q 47.21875 7.46875 41.1875 3.015625 
Q 35.15625 -1.421875 24.609375 -1.421875 
Q 20.21875 -1.421875 15.453125 -0.5625 
Q 10.6875 0.296875 5.421875 2 
L 5.421875 11.28125 
Q 10.40625 8.6875 15.234375 7.390625 
Q 20.0625 6.109375 24.8125 6.109375 
Q 31.15625 6.109375 34.5625 8.28125 
Q 37.984375 10.453125 37.984375 14.40625 
Q 37.984375 18.0625 35.515625 20.015625 
Q 33.0625 21.96875 24.703125 23.78125 
L 21.578125 24.515625 
Q 13.234375 26.265625 9.515625 29.90625 
Q 5.8125 33.546875 5.8125 39.890625 
Q 5.8125 47.609375 11.28125 51.796875 
Q 16.75 56 26.8125 56 
Q 31.78125 56 36.171875 55.265625 
Q 40.578125 54.546875 44.28125 53.078125 
z
" id="DejaVuSans-115"/>
     </defs>
     <g transform="translate(368.435938 427.056562)scale(0.1 -0.1)">
      <use xlink:href="#DejaVuSans-108"/>
      <use x="27.783203" xlink:href="#DejaVuSans-101"/>
      <use x="89.306641" xlink:href="#DejaVuSans-110"/>
      <use x="152.685547" xlink:href="#DejaVuSans-103"/>
      <use x="216.162109" xlink:href="#DejaVuSans-116"/>
      <use x="255.371094" xlink:href="#DejaVuSans-104"/>
      <use x="318.75" xlink:href="#DejaVuSans-32"/>
      <use x="350.537109" xlink:href="#DejaVuSans-111"/>
      <use x="411.71875" xlink:href="#DejaVuSans-102"/>
      <use x="446.923828" xlink:href="#DejaVuSans-32"/>
      <use x="478.710938" xlink:href="#DejaVuSans-99"/>
      <use x="533.691406" xlink:href="#DejaVuSans-104"/>
      <use x="597.070312" xlink:href="#DejaVuSans-117"/>
      <use x="660.449219" xlink:href="#DejaVuSans-110"/>
      <use x="723.828125" xlink:href="#DejaVuSans-107"/>
      <use x="781.738281" xlink:href="#DejaVuSans-32"/>
      <use x="813.525391" xlink:href="#DejaVuSans-105"/>
      <use x="841.308594" xlink:href="#DejaVuSans-110"/>
      <use x="904.6875" xlink:href="#DejaVuSans-32"/>
      <use x="936.474609" xlink:href="#DejaVuSans-115"/>
      <use x="988.574219" xlink:href="#DejaVuSans-101"/>
      <use x="1050.097656" xlink:href="#DejaVuSans-110"/>
      <use x="1113.476562" xlink:href="#DejaVuSans-116"/>
      <use x="1152.685547" xlink:href="#DejaVuSans-101"/>
      <use x="1214.208984" xlink:href="#DejaVuSans-110"/>
      <use x="1277.587891" xlink:href="#DejaVuSans-99"/>
      <use x="1332.568359" xlink:href="#DejaVuSans-101"/>
      <use x="1394.091797" xlink:href="#DejaVuSans-115"/>
     </g>
    </g>
   </g>
   <g id="matplotlib.axis_2">
    <g id="ytick_1">
     <g id="line2d_8">
      <defs>
       <path d="M 0 0 
L -3.5 0 
" id="m3c5bf65a37" style="stroke:#000000;stroke-width:0.8;"/>
      </defs>
      <g>
       <use style="stroke:#000000;stroke-width:0.8;" x="50.14375" xlink:href="#m3c5bf65a37" y="367.870473"/>
      </g>
     </g>
     <g id="text_9">
      <!-- 12.5 -->
      <defs>
       <path d="M 10.6875 12.40625 
L 21 12.40625 
L 21 0 
L 10.6875 0 
z
" id="DejaVuSans-46"/>
      </defs>
      <g transform="translate(20.878125 371.669692)scale(0.1 -0.1)">
       <use xlink:href="#DejaVuSans-49"/>
       <use x="63.623047" xlink:href="#DejaVuSans-50"/>
       <use x="127.246094" xlink:href="#DejaVuSans-46"/>
       <use x="159.033203" xlink:href="#DejaVuSans-53"/>
      </g>
     </g>
    </g>
    <g id="ytick_2">
     <g id="line2d_9">
      <g>
       <use style="stroke:#000000;stroke-width:0.8;" x="50.14375" xlink:href="#m3c5bf65a37" y="315.290143"/>
      </g>
     </g>
     <g id="text_10">
      <!-- 15.0 -->
      <g transform="translate(20.878125 319.089362)scale(0.1 -0.1)">
       <use xlink:href="#DejaVuSans-49"/>
       <use x="63.623047" xlink:href="#DejaVuSans-53"/>
       <use x="127.246094" xlink:href="#DejaVuSans-46"/>
       <use x="159.033203" xlink:href="#DejaVuSans-48"/>
      </g>
     </g>
    </g>
    <g id="ytick_3">
     <g id="line2d_10">
      <g>
       <use style="stroke:#000000;stroke-width:0.8;" x="50.14375" xlink:href="#m3c5bf65a37" y="262.709813"/>
      </g>
     </g>
     <g id="text_11">
      <!-- 17.5 -->
      <defs>
       <path d="M 8.203125 72.90625 
L 55.078125 72.90625 
L 55.078125 68.703125 
L 28.609375 0 
L 18.3125 0 
L 43.21875 64.59375 
L 8.203125 64.59375 
z
" id="DejaVuSans-55"/>
      </defs>
      <g transform="translate(20.878125 266.509032)scale(0.1 -0.1)">
       <use xlink:href="#DejaVuSans-49"/>
       <use x="63.623047" xlink:href="#DejaVuSans-55"/>
       <use x="127.246094" xlink:href="#DejaVuSans-46"/>
       <use x="159.033203" xlink:href="#DejaVuSans-53"/>
      </g>
     </g>
    </g>
    <g id="ytick_4">
     <g id="line2d_11">
      <g>
       <use style="stroke:#000000;stroke-width:0.8;" x="50.14375" xlink:href="#m3c5bf65a37" y="210.129484"/>
      </g>
     </g>
     <g id="text_12">
      <!-- 20.0 -->
      <g transform="translate(20.878125 213.928703)scale(0.1 -0.1)">
       <use xlink:href="#DejaVuSans-50"/>
       <use x="63.623047" xlink:href="#DejaVuSans-48"/>
       <use x="127.246094" xlink:href="#DejaVuSans-46"/>
       <use x="159.033203" xlink:href="#DejaVuSans-48"/>
      </g>
     </g>
    </g>
    <g id="ytick_5">
     <g id="line2d_12">
      <g>
       <use style="stroke:#000000;stroke-width:0.8;" x="50.14375" xlink:href="#m3c5bf65a37" y="157.549154"/>
      </g>
     </g>
     <g id="text_13">
      <!-- 22.5 -->
      <g transform="translate(20.878125 161.348373)scale(0.1 -0.1)">
       <use xlink:href="#DejaVuSans-50"/>
       <use x="63.623047" xlink:href="#DejaVuSans-50"/>
       <use x="127.246094" xlink:href="#DejaVuSans-46"/>
       <use x="159.033203" xlink:href="#DejaVuSans-53"/>
      </g>
     </g>
    </g>
    <g id="ytick_6">
     <g id="line2d_13">
      <g>
       <use style="stroke:#000000;stroke-width:0.8;" x="50.14375" xlink:href="#m3c5bf65a37" y="104.968824"/>
      </g>
     </g>
     <g id="text_14">
      <!-- 25.0 -->
      <g transform="translate(20.878125 108.768043)scale(0.1 -0.1)">
       <use xlink:href="#DejaVuSans-50"/>
       <use x="63.623047" xlink:href="#DejaVuSans-53"/>
       <use x="127.246094" xlink:href="#DejaVuSans-46"/>
       <use x="159.033203" xlink:href="#DejaVuSans-48"/>
      </g>
     </g>
    </g>
    <g id="ytick_7">
     <g id="line2d_14">
      <g>
       <use style="stroke:#000000;stroke-width:0.8;" x="50.14375" xlink:href="#m3c5bf65a37" y="52.388495"/>
      </g>
     </g>
     <g id="text_15">
      <!-- 27.5 -->
      <g transform="translate(20.878125 56.187713)scale(0.1 -0.1)">
       <use xlink:href="#DejaVuSans-50"/>
       <use x="63.623047" xlink:href="#DejaVuSans-55"/>
       <use x="127.246094" xlink:href="#DejaVuSans-46"/>
       <use x="159.033203" xlink:href="#DejaVuSans-53"/>
      </g>
     </g>
    </g>
    <g id="text_16">
     <!-- GFI -->
     <defs>
      <path d="M 59.515625 10.40625 
L 59.515625 29.984375 
L 43.40625 29.984375 
L 43.40625 38.09375 
L 69.28125 38.09375 
L 69.28125 6.78125 
Q 63.578125 2.734375 56.6875 0.65625 
Q 49.8125 -1.421875 42 -1.421875 
Q 24.90625 -1.421875 15.25 8.5625 
Q 5.609375 18.5625 5.609375 36.375 
Q 5.609375 54.25 15.25 64.234375 
Q 24.90625 74.21875 42 74.21875 
Q 49.125 74.21875 55.546875 72.453125 
Q 61.96875 70.703125 67.390625 67.28125 
L 67.390625 56.78125 
Q 61.921875 61.421875 55.765625 63.765625 
Q 49.609375 66.109375 42.828125 66.109375 
Q 29.4375 66.109375 22.71875 58.640625 
Q 16.015625 51.171875 16.015625 36.375 
Q 16.015625 21.625 22.71875 14.15625 
Q 29.4375 6.6875 42.828125 6.6875 
Q 48.046875 6.6875 52.140625 7.59375 
Q 56.25 8.5 59.515625 10.40625 
z
" id="DejaVuSans-71"/>
      <path d="M 9.8125 72.90625 
L 51.703125 72.90625 
L 51.703125 64.59375 
L 19.671875 64.59375 
L 19.671875 43.109375 
L 48.578125 43.109375 
L 48.578125 34.8125 
L 19.671875 34.8125 
L 19.671875 0 
L 9.8125 0 
z
" id="DejaVuSans-70"/>
      <path d="M 9.8125 72.90625 
L 19.671875 72.90625 
L 19.671875 0 
L 9.8125 0 
z
" id="DejaVuSans-73"/>
     </defs>
     <g transform="translate(14.798437 212.965)rotate(-90)scale(0.1 -0.1)">
      <use xlink:href="#DejaVuSans-71"/>
      <use x="77.490234" xlink:href="#DejaVuSans-70"/>
      <use x="135.009766" xlink:href="#DejaVuSans-73"/>
     </g>
    </g>
   </g>
   <g id="line2d_15">
    <path clip-path="url(#p7b5844f52c)" d="M 85.660484 255.770428 
L 98.296899 256.965112 
L 110.933314 255.819687 
L 123.569729 256.88226 
L 136.206145 255.120082 
L 167.797182 251.844915 
L 199.38822 248.975411 
L 262.570296 242.354916 
L 325.752372 233.407847 
L 388.934448 248.846484 
L 452.116524 221.743427 
L 515.298599 227.830126 
L 578.480675 233.334235 
L 641.662751 242.125666 
L 704.844827 248.649833 
L 795.827016 254.837487 
" style="fill:none;stroke:#ff0000;stroke-linecap:square;stroke-width:1.5;"/>
   </g>
   <g id="patch_3">
    <path d="M 50.14375 398.78 
L 50.14375 10.7 
" style="fill:none;stroke:#000000;stroke-linecap:square;stroke-linejoin:miter;stroke-width:0.8;"/>
   </g>
   <g id="patch_4">
    <path d="M 831.34375 398.78 
L 831.34375 10.7 
" style="fill:none;stroke:#000000;stroke-linecap:square;stroke-linejoin:miter;stroke-width:0.8;"/>
   </g>
   <g id="patch_5">
    <path d="M 50.14375 398.78 
L 831.34375 398.78 
" style="fill:none;stroke:#000000;stroke-linecap:square;stroke-linejoin:miter;stroke-width:0.8;"/>
   </g>
   <g id="patch_6">
    <path d="M 50.14375 10.7 
L 831.34375 10.7 
" style="fill:none;stroke:#000000;stroke-linecap:square;stroke-linejoin:miter;stroke-width:0.8;"/>
   </g>
  </g>
 </g>
 <defs>
  <clipPath id="p7b5844f52c">
   <rect height="388.08" width="781.2" x="50.14375" y="10.7"/>
  </clipPath>
 </defs>
</svg>
