<?xml version="1.0" encoding="utf-8" standalone="no"?>
<!DOCTYPE svg PUBLIC "-//W3C//DTD SVG 1.1//EN"
  "http://www.w3.org/Graphics/SVG/1.1/DTD/svg11.dtd">
<!-- Created with matplotlib (http://matplotlib.org/) -->
<svg height="504pt" version="1.1" viewBox="0 0 1008 504" width="1008pt" xmlns="http://www.w3.org/2000/svg" xmlns:xlink="http://www.w3.org/1999/xlink">
 <defs>
  <style type="text/css">
*{stroke-linecap:butt;stroke-linejoin:round;}
  </style>
 </defs>
 <g id="figure_1">
  <g id="patch_1">
   <path d="M 0 504 
L 1008 504 
L 1008 0 
L 0 0 
z
" style="fill:#ffffff;"/>
  </g>
  <g id="axes_1">
   <g id="patch_2">
    <path d="M 126 448.56 
L 907.2 448.56 
L 907.2 60.48 
L 126 60.48 
z
" style="fill:#ffffff;"/>
   </g>
   <g id="PathCollection_1">
    <defs>
     <path d="M 0 3 
C 0.795609 3 1.55874 2.683901 2.12132 2.12132 
C 2.683901 1.55874 3 0.795609 3 0 
C 3 -0.795609 2.683901 -1.55874 2.12132 -2.12132 
C 1.55874 -2.683901 0.795609 -3 0 -3 
C -0.795609 -3 -1.55874 -2.683901 -2.12132 -2.12132 
C -2.683901 -1.55874 -3 -0.795609 -3 0 
C -3 0.795609 -2.683901 1.55874 -2.12132 2.12132 
C -1.55874 2.683901 -0.795609 3 0 3 
z
" id="mb9010a1dc9" style="stroke:#ffa500;"/>
    </defs>
    <g clip-path="url(#p3be7410801)">
     <use style="fill:#ffa500;stroke:#ffa500;" x="866.966733" xlink:href="#mb9010a1dc9" y="271.462903"/>
     <use style="fill:#ffa500;stroke:#ffa500;" x="800.307633" xlink:href="#mb9010a1dc9" y="271.594744"/>
     <use style="fill:#ffa500;stroke:#ffa500;" x="719.016048" xlink:href="#mb9010a1dc9" y="270.673661"/>
     <use style="fill:#ffa500;stroke:#ffa500;" x="637.724462" xlink:href="#mb9010a1dc9" y="268.092822"/>
     <use style="fill:#ffa500;stroke:#ffa500;" x="556.432877" xlink:href="#mb9010a1dc9" y="265.840683"/>
     <use style="fill:#ffa500;stroke:#ffa500;" x="475.141291" xlink:href="#mb9010a1dc9" y="276.629999"/>
     <use style="fill:#ffa500;stroke:#ffa500;" x="475.141291" xlink:href="#mb9010a1dc9" y="266.631731"/>
     <use style="fill:#ffa500;stroke:#ffa500;" x="393.849706" xlink:href="#mb9010a1dc9" y="272.120303"/>
     <use style="fill:#ffa500;stroke:#ffa500;" x="393.849706" xlink:href="#mb9010a1dc9" y="264.114103"/>
     <use style="fill:#ffa500;stroke:#ffa500;" x="312.558121" xlink:href="#mb9010a1dc9" y="255.16876"/>
     <use style="fill:#ffa500;stroke:#ffa500;" x="312.558121" xlink:href="#mb9010a1dc9" y="298.333249"/>
     <use style="fill:#ffa500;stroke:#ffa500;" x="312.558121" xlink:href="#mb9010a1dc9" y="251.753527"/>
     <use style="fill:#ffa500;stroke:#ffa500;" x="312.558121" xlink:href="#mb9010a1dc9" y="282.403927"/>
     <use style="fill:#ffa500;stroke:#ffa500;" x="271.912328" xlink:href="#mb9010a1dc9" y="230.472892"/>
     <use style="fill:#ffa500;stroke:#ffa500;" x="271.912328" xlink:href="#mb9010a1dc9" y="320.311018"/>
     <use style="fill:#ffa500;stroke:#ffa500;" x="271.912328" xlink:href="#mb9010a1dc9" y="254.784072"/>
     <use style="fill:#ffa500;stroke:#ffa500;" x="271.912328" xlink:href="#mb9010a1dc9" y="273.776447"/>
     <use style="fill:#ffa500;stroke:#ffa500;" x="271.912328" xlink:href="#mb9010a1dc9" y="286.100902"/>
     <use style="fill:#ffa500;stroke:#ffa500;" x="231.266535" xlink:href="#mb9010a1dc9" y="242.721493"/>
     <use style="fill:#ffa500;stroke:#ffa500;" x="231.266535" xlink:href="#mb9010a1dc9" y="266.395139"/>
     <use style="fill:#ffa500;stroke:#ffa500;" x="231.266535" xlink:href="#mb9010a1dc9" y="306.507411"/>
     <use style="fill:#ffa500;stroke:#ffa500;" x="231.266535" xlink:href="#mb9010a1dc9" y="290.222298"/>
     <use style="fill:#ffa500;stroke:#ffa500;" x="231.266535" xlink:href="#mb9010a1dc9" y="225.780786"/>
     <use style="fill:#ffa500;stroke:#ffa500;" x="231.266535" xlink:href="#mb9010a1dc9" y="279.432982"/>
     <use style="fill:#ffa500;stroke:#ffa500;" x="231.266535" xlink:href="#mb9010a1dc9" y="286.31221"/>
     <use style="fill:#ffa500;stroke:#ffa500;" x="231.266535" xlink:href="#mb9010a1dc9" y="277.710014"/>
     <use style="fill:#ffa500;stroke:#ffa500;" x="215.008218" xlink:href="#mb9010a1dc9" y="260.922821"/>
     <use style="fill:#ffa500;stroke:#ffa500;" x="215.008218" xlink:href="#mb9010a1dc9" y="209.141688"/>
     <use style="fill:#ffa500;stroke:#ffa500;" x="215.008218" xlink:href="#mb9010a1dc9" y="319.310468"/>
     <use style="fill:#ffa500;stroke:#ffa500;" x="215.008218" xlink:href="#mb9010a1dc9" y="306.966147"/>
     <use style="fill:#ffa500;stroke:#ffa500;" x="215.008218" xlink:href="#mb9010a1dc9" y="289.523359"/>
     <use style="fill:#ffa500;stroke:#ffa500;" x="215.008218" xlink:href="#mb9010a1dc9" y="214.892137"/>
     <use style="fill:#ffa500;stroke:#ffa500;" x="215.008218" xlink:href="#mb9010a1dc9" y="282.45269"/>
     <use style="fill:#ffa500;stroke:#ffa500;" x="215.008218" xlink:href="#mb9010a1dc9" y="274.125014"/>
     <use style="fill:#ffa500;stroke:#ffa500;" x="215.008218" xlink:href="#mb9010a1dc9" y="289.046563"/>
     <use style="fill:#ffa500;stroke:#ffa500;" x="215.008218" xlink:href="#mb9010a1dc9" y="277.71182"/>
     <use style="fill:#ffa500;stroke:#ffa500;" x="215.008218" xlink:href="#mb9010a1dc9" y="272.672953"/>
     <use style="fill:#ffa500;stroke:#ffa500;" x="198.749901" xlink:href="#mb9010a1dc9" y="259.640528"/>
     <use style="fill:#ffa500;stroke:#ffa500;" x="198.749901" xlink:href="#mb9010a1dc9" y="168.931889"/>
     <use style="fill:#ffa500;stroke:#ffa500;" x="198.749901" xlink:href="#mb9010a1dc9" y="327.316668"/>
     <use style="fill:#ffa500;stroke:#ffa500;" x="198.749901" xlink:href="#mb9010a1dc9" y="307.587427"/>
     <use style="fill:#ffa500;stroke:#ffa500;" x="198.749901" xlink:href="#mb9010a1dc9" y="312.431241"/>
     <use style="fill:#ffa500;stroke:#ffa500;" x="198.749901" xlink:href="#mb9010a1dc9" y="285.369454"/>
     <use style="fill:#ffa500;stroke:#ffa500;" x="198.749901" xlink:href="#mb9010a1dc9" y="242.477677"/>
     <use style="fill:#ffa500;stroke:#ffa500;" x="198.749901" xlink:href="#mb9010a1dc9" y="238.966725"/>
     <use style="fill:#ffa500;stroke:#ffa500;" x="198.749901" xlink:href="#mb9010a1dc9" y="285.602434"/>
     <use style="fill:#ffa500;stroke:#ffa500;" x="198.749901" xlink:href="#mb9010a1dc9" y="271.060155"/>
     <use style="fill:#ffa500;stroke:#ffa500;" x="198.749901" xlink:href="#mb9010a1dc9" y="284.408637"/>
     <use style="fill:#ffa500;stroke:#ffa500;" x="198.749901" xlink:href="#mb9010a1dc9" y="285.689124"/>
     <use style="fill:#ffa500;stroke:#ffa500;" x="198.749901" xlink:href="#mb9010a1dc9" y="276.453007"/>
     <use style="fill:#ffa500;stroke:#ffa500;" x="198.749901" xlink:href="#mb9010a1dc9" y="259.913241"/>
     <use style="fill:#ffa500;stroke:#ffa500;" x="182.491584" xlink:href="#mb9010a1dc9" y="275.051515"/>
     <use style="fill:#ffa500;stroke:#ffa500;" x="182.491584" xlink:href="#mb9010a1dc9" y="247.19868"/>
     <use style="fill:#ffa500;stroke:#ffa500;" x="182.491584" xlink:href="#mb9010a1dc9" y="123.152245"/>
     <use style="fill:#ffa500;stroke:#ffa500;" x="182.491584" xlink:href="#mb9010a1dc9" y="314.432339"/>
     <use style="fill:#ffa500;stroke:#ffa500;" x="182.491584" xlink:href="#mb9010a1dc9" y="342.45133"/>
     <use style="fill:#ffa500;stroke:#ffa500;" x="182.491584" xlink:href="#mb9010a1dc9" y="297.298385"/>
     <use style="fill:#ffa500;stroke:#ffa500;" x="182.491584" xlink:href="#mb9010a1dc9" y="313.260216"/>
     <use style="fill:#ffa500;stroke:#ffa500;" x="182.491584" xlink:href="#mb9010a1dc9" y="299.837685"/>
     <use style="fill:#ffa500;stroke:#ffa500;" x="182.491584" xlink:href="#mb9010a1dc9" y="280.95006"/>
     <use style="fill:#ffa500;stroke:#ffa500;" x="182.491584" xlink:href="#mb9010a1dc9" y="297.238785"/>
     <use style="fill:#ffa500;stroke:#ffa500;" x="182.491584" xlink:href="#mb9010a1dc9" y="188.493169"/>
     <use style="fill:#ffa500;stroke:#ffa500;" x="182.491584" xlink:href="#mb9010a1dc9" y="243.474614"/>
     <use style="fill:#ffa500;stroke:#ffa500;" x="182.491584" xlink:href="#mb9010a1dc9" y="264.146612"/>
     <use style="fill:#ffa500;stroke:#ffa500;" x="182.491584" xlink:href="#mb9010a1dc9" y="302.384209"/>
     <use style="fill:#ffa500;stroke:#ffa500;" x="182.491584" xlink:href="#mb9010a1dc9" y="269.636991"/>
     <use style="fill:#ffa500;stroke:#ffa500;" x="182.491584" xlink:href="#mb9010a1dc9" y="278.692503"/>
     <use style="fill:#ffa500;stroke:#ffa500;" x="182.491584" xlink:href="#mb9010a1dc9" y="292.326341"/>
     <use style="fill:#ffa500;stroke:#ffa500;" x="182.491584" xlink:href="#mb9010a1dc9" y="284.9053"/>
     <use style="fill:#ffa500;stroke:#ffa500;" x="182.491584" xlink:href="#mb9010a1dc9" y="284.99199"/>
     <use style="fill:#ffa500;stroke:#ffa500;" x="182.491584" xlink:href="#mb9010a1dc9" y="270.388306"/>
     <use style="fill:#ffa500;stroke:#ffa500;" x="182.491584" xlink:href="#mb9010a1dc9" y="249.378577"/>
     <use style="fill:#ffa500;stroke:#ffa500;" x="182.491584" xlink:href="#mb9010a1dc9" y="294.159478"/>
     <use style="fill:#ffa500;stroke:#ffa500;" x="166.233267" xlink:href="#mb9010a1dc9" y="297.289355"/>
     <use style="fill:#ffa500;stroke:#ffa500;" x="166.233267" xlink:href="#mb9010a1dc9" y="254.513165"/>
     <use style="fill:#ffa500;stroke:#ffa500;" x="166.233267" xlink:href="#mb9010a1dc9" y="231.3416"/>
     <use style="fill:#ffa500;stroke:#ffa500;" x="166.233267" xlink:href="#mb9010a1dc9" y="263.850421"/>
     <use style="fill:#ffa500;stroke:#ffa500;" x="166.233267" xlink:href="#mb9010a1dc9" y="168.225725"/>
     <use style="fill:#ffa500;stroke:#ffa500;" x="166.233267" xlink:href="#mb9010a1dc9" y="78.266595"/>
     <use style="fill:#ffa500;stroke:#ffa500;" x="166.233267" xlink:href="#mb9010a1dc9" y="289.288573"/>
     <use style="fill:#ffa500;stroke:#ffa500;" x="166.233267" xlink:href="#mb9010a1dc9" y="340.388826"/>
     <use style="fill:#ffa500;stroke:#ffa500;" x="166.233267" xlink:href="#mb9010a1dc9" y="355.593924"/>
     <use style="fill:#ffa500;stroke:#ffa500;" x="166.233267" xlink:href="#mb9010a1dc9" y="329.207598"/>
     <use style="fill:#ffa500;stroke:#ffa500;" x="166.233267" xlink:href="#mb9010a1dc9" y="306.205802"/>
     <use style="fill:#ffa500;stroke:#ffa500;" x="166.233267" xlink:href="#mb9010a1dc9" y="285.519356"/>
     <use style="fill:#ffa500;stroke:#ffa500;" x="166.233267" xlink:href="#mb9010a1dc9" y="292.555709"/>
     <use style="fill:#ffa500;stroke:#ffa500;" x="166.233267" xlink:href="#mb9010a1dc9" y="335.891773"/>
     <use style="fill:#ffa500;stroke:#ffa500;" x="166.233267" xlink:href="#mb9010a1dc9" y="307.628966"/>
     <use style="fill:#ffa500;stroke:#ffa500;" x="166.233267" xlink:href="#mb9010a1dc9" y="291.502785"/>
     <use style="fill:#ffa500;stroke:#ffa500;" x="166.233267" xlink:href="#mb9010a1dc9" y="279.909778"/>
     <use style="fill:#ffa500;stroke:#ffa500;" x="166.233267" xlink:href="#mb9010a1dc9" y="281.750138"/>
     <use style="fill:#ffa500;stroke:#ffa500;" x="166.233267" xlink:href="#mb9010a1dc9" y="281.228191"/>
     <use style="fill:#ffa500;stroke:#ffa500;" x="166.233267" xlink:href="#mb9010a1dc9" y="312.880946"/>
     <use style="fill:#ffa500;stroke:#ffa500;" x="166.233267" xlink:href="#mb9010a1dc9" y="149.24238"/>
     <use style="fill:#ffa500;stroke:#ffa500;" x="166.233267" xlink:href="#mb9010a1dc9" y="227.47305"/>
     <use style="fill:#ffa500;stroke:#ffa500;" x="166.233267" xlink:href="#mb9010a1dc9" y="212.298655"/>
     <use style="fill:#ffa500;stroke:#ffa500;" x="166.233267" xlink:href="#mb9010a1dc9" y="275.828115"/>
     <use style="fill:#ffa500;stroke:#ffa500;" x="166.233267" xlink:href="#mb9010a1dc9" y="272.39121"/>
     <use style="fill:#ffa500;stroke:#ffa500;" x="166.233267" xlink:href="#mb9010a1dc9" y="255.522744"/>
     <use style="fill:#ffa500;stroke:#ffa500;" x="166.233267" xlink:href="#mb9010a1dc9" y="336.090438"/>
     <use style="fill:#ffa500;stroke:#ffa500;" x="166.233267" xlink:href="#mb9010a1dc9" y="273.198513"/>
     <use style="fill:#ffa500;stroke:#ffa500;" x="166.233267" xlink:href="#mb9010a1dc9" y="255.591374"/>
     <use style="fill:#ffa500;stroke:#ffa500;" x="166.233267" xlink:href="#mb9010a1dc9" y="282.600786"/>
     <use style="fill:#ffa500;stroke:#ffa500;" x="166.233267" xlink:href="#mb9010a1dc9" y="298.582483"/>
     <use style="fill:#ffa500;stroke:#ffa500;" x="166.233267" xlink:href="#mb9010a1dc9" y="259.575511"/>
     <use style="fill:#ffa500;stroke:#ffa500;" x="166.233267" xlink:href="#mb9010a1dc9" y="295.058888"/>
     <use style="fill:#ffa500;stroke:#ffa500;" x="166.233267" xlink:href="#mb9010a1dc9" y="287.244129"/>
     <use style="fill:#ffa500;stroke:#ffa500;" x="166.233267" xlink:href="#mb9010a1dc9" y="288.022535"/>
     <use style="fill:#ffa500;stroke:#ffa500;" x="166.233267" xlink:href="#mb9010a1dc9" y="260.189566"/>
     <use style="fill:#ffa500;stroke:#ffa500;" x="166.233267" xlink:href="#mb9010a1dc9" y="290.668391"/>
     <use style="fill:#ffa500;stroke:#ffa500;" x="166.233267" xlink:href="#mb9010a1dc9" y="279.306559"/>
     <use style="fill:#ffa500;stroke:#ffa500;" x="166.233267" xlink:href="#mb9010a1dc9" y="259.640528"/>
     <use style="fill:#ffa500;stroke:#ffa500;" x="166.233267" xlink:href="#mb9010a1dc9" y="281.51174"/>
     <use style="fill:#ffa500;stroke:#ffa500;" x="166.233267" xlink:href="#mb9010a1dc9" y="235.025933"/>
     <use style="fill:#ffa500;stroke:#ffa500;" x="166.233267" xlink:href="#mb9010a1dc9" y="264.457252"/>
     <use style="fill:#ffa500;stroke:#ffa500;" x="166.233267" xlink:href="#mb9010a1dc9" y="301.947146"/>
     <use style="fill:#ffa500;stroke:#ffa500;" x="166.233267" xlink:href="#mb9010a1dc9" y="286.669807"/>
    </g>
   </g>
   <g id="PathCollection_2">
    <defs>
     <path d="M 0 3 
C 0.795609 3 1.55874 2.683901 2.12132 2.12132 
C 2.683901 1.55874 3 0.795609 3 0 
C 3 -0.795609 2.683901 -1.55874 2.12132 -2.12132 
C 1.55874 -2.683901 0.795609 -3 0 -3 
C -0.795609 -3 -1.55874 -2.683901 -2.12132 -2.12132 
C -2.683901 -1.55874 -3 -0.795609 -3 0 
C -3 0.795609 -2.683901 1.55874 -2.12132 2.12132 
C -1.55874 2.683901 -0.795609 3 0 3 
z
" id="m1f5e13f4ee" style="stroke:#ff0000;"/>
    </defs>
    <g clip-path="url(#p3be7410801)">
     <use style="fill:#ff0000;stroke:#ff0000;" x="866.966733" xlink:href="#m1f5e13f4ee" y="340.078187"/>
     <use style="fill:#ff0000;stroke:#ff0000;" x="800.307633" xlink:href="#m1f5e13f4ee" y="339.370217"/>
     <use style="fill:#ff0000;stroke:#ff0000;" x="719.016048" xlink:href="#m1f5e13f4ee" y="337.385373"/>
     <use style="fill:#ff0000;stroke:#ff0000;" x="637.724462" xlink:href="#m1f5e13f4ee" y="337.990398"/>
     <use style="fill:#ff0000;stroke:#ff0000;" x="556.432877" xlink:href="#m1f5e13f4ee" y="336.061541"/>
     <use style="fill:#ff0000;stroke:#ff0000;" x="475.141291" xlink:href="#m1f5e13f4ee" y="344.062323"/>
     <use style="fill:#ff0000;stroke:#ff0000;" x="475.141291" xlink:href="#m1f5e13f4ee" y="334.730486"/>
     <use style="fill:#ff0000;stroke:#ff0000;" x="393.849706" xlink:href="#m1f5e13f4ee" y="338.999977"/>
     <use style="fill:#ff0000;stroke:#ff0000;" x="393.849706" xlink:href="#m1f5e13f4ee" y="336.980818"/>
     <use style="fill:#ff0000;stroke:#ff0000;" x="312.558121" xlink:href="#m1f5e13f4ee" y="318.943841"/>
     <use style="fill:#ff0000;stroke:#ff0000;" x="312.558121" xlink:href="#m1f5e13f4ee" y="370.938087"/>
     <use style="fill:#ff0000;stroke:#ff0000;" x="312.558121" xlink:href="#m1f5e13f4ee" y="326.003673"/>
     <use style="fill:#ff0000;stroke:#ff0000;" x="312.558121" xlink:href="#m1f5e13f4ee" y="343.471746"/>
     <use style="fill:#ff0000;stroke:#ff0000;" x="271.912328" xlink:href="#m1f5e13f4ee" y="299.631796"/>
     <use style="fill:#ff0000;stroke:#ff0000;" x="271.912328" xlink:href="#m1f5e13f4ee" y="383.356457"/>
     <use style="fill:#ff0000;stroke:#ff0000;" x="271.912328" xlink:href="#m1f5e13f4ee" y="333.583647"/>
     <use style="fill:#ff0000;stroke:#ff0000;" x="271.912328" xlink:href="#m1f5e13f4ee" y="340.365348"/>
     <use style="fill:#ff0000;stroke:#ff0000;" x="271.912328" xlink:href="#m1f5e13f4ee" y="340.325615"/>
     <use style="fill:#ff0000;stroke:#ff0000;" x="231.266535" xlink:href="#m1f5e13f4ee" y="314.963317"/>
     <use style="fill:#ff0000;stroke:#ff0000;" x="231.266535" xlink:href="#m1f5e13f4ee" y="322.29225"/>
     <use style="fill:#ff0000;stroke:#ff0000;" x="231.266535" xlink:href="#m1f5e13f4ee" y="382.906752"/>
     <use style="fill:#ff0000;stroke:#ff0000;" x="231.266535" xlink:href="#m1f5e13f4ee" y="359.574449"/>
     <use style="fill:#ff0000;stroke:#ff0000;" x="231.266535" xlink:href="#m1f5e13f4ee" y="304.517149"/>
     <use style="fill:#ff0000;stroke:#ff0000;" x="231.266535" xlink:href="#m1f5e13f4ee" y="347.551603"/>
     <use style="fill:#ff0000;stroke:#ff0000;" x="231.266535" xlink:href="#m1f5e13f4ee" y="333.697428"/>
     <use style="fill:#ff0000;stroke:#ff0000;" x="231.266535" xlink:href="#m1f5e13f4ee" y="353.657843"/>
     <use style="fill:#ff0000;stroke:#ff0000;" x="215.008218" xlink:href="#m1f5e13f4ee" y="338.246856"/>
     <use style="fill:#ff0000;stroke:#ff0000;" x="215.008218" xlink:href="#m1f5e13f4ee" y="271.298553"/>
     <use style="fill:#ff0000;stroke:#ff0000;" x="215.008218" xlink:href="#m1f5e13f4ee" y="378.864822"/>
     <use style="fill:#ff0000;stroke:#ff0000;" x="215.008218" xlink:href="#m1f5e13f4ee" y="383.788102"/>
     <use style="fill:#ff0000;stroke:#ff0000;" x="215.008218" xlink:href="#m1f5e13f4ee" y="355.091843"/>
     <use style="fill:#ff0000;stroke:#ff0000;" x="215.008218" xlink:href="#m1f5e13f4ee" y="298.098463"/>
     <use style="fill:#ff0000;stroke:#ff0000;" x="215.008218" xlink:href="#m1f5e13f4ee" y="348.54854"/>
     <use style="fill:#ff0000;stroke:#ff0000;" x="215.008218" xlink:href="#m1f5e13f4ee" y="332.001551"/>
     <use style="fill:#ff0000;stroke:#ff0000;" x="215.008218" xlink:href="#m1f5e13f4ee" y="346.793064"/>
     <use style="fill:#ff0000;stroke:#ff0000;" x="215.008218" xlink:href="#m1f5e13f4ee" y="347.215679"/>
     <use style="fill:#ff0000;stroke:#ff0000;" x="215.008218" xlink:href="#m1f5e13f4ee" y="347.369193"/>
     <use style="fill:#ff0000;stroke:#ff0000;" x="198.749901" xlink:href="#m1f5e13f4ee" y="339.408144"/>
     <use style="fill:#ff0000;stroke:#ff0000;" x="198.749901" xlink:href="#m1f5e13f4ee" y="237.191382"/>
     <use style="fill:#ff0000;stroke:#ff0000;" x="198.749901" xlink:href="#m1f5e13f4ee" y="373.724816"/>
     <use style="fill:#ff0000;stroke:#ff0000;" x="198.749901" xlink:href="#m1f5e13f4ee" y="374.351514"/>
     <use style="fill:#ff0000;stroke:#ff0000;" x="198.749901" xlink:href="#m1f5e13f4ee" y="385.483979"/>
     <use style="fill:#ff0000;stroke:#ff0000;" x="198.749901" xlink:href="#m1f5e13f4ee" y="356.850932"/>
     <use style="fill:#ff0000;stroke:#ff0000;" x="198.749901" xlink:href="#m1f5e13f4ee" y="318.719891"/>
     <use style="fill:#ff0000;stroke:#ff0000;" x="198.749901" xlink:href="#m1f5e13f4ee" y="320.901595"/>
     <use style="fill:#ff0000;stroke:#ff0000;" x="198.749901" xlink:href="#m1f5e13f4ee" y="347.878497"/>
     <use style="fill:#ff0000;stroke:#ff0000;" x="198.749901" xlink:href="#m1f5e13f4ee" y="339.928285"/>
     <use style="fill:#ff0000;stroke:#ff0000;" x="198.749901" xlink:href="#m1f5e13f4ee" y="329.818042"/>
     <use style="fill:#ff0000;stroke:#ff0000;" x="198.749901" xlink:href="#m1f5e13f4ee" y="352.082972"/>
     <use style="fill:#ff0000;stroke:#ff0000;" x="198.749901" xlink:href="#m1f5e13f4ee" y="346.048973"/>
     <use style="fill:#ff0000;stroke:#ff0000;" x="198.749901" xlink:href="#m1f5e13f4ee" y="333.527659"/>
     <use style="fill:#ff0000;stroke:#ff0000;" x="182.491584" xlink:href="#m1f5e13f4ee" y="358.597378"/>
     <use style="fill:#ff0000;stroke:#ff0000;" x="182.491584" xlink:href="#m1f5e13f4ee" y="319.440504"/>
     <use style="fill:#ff0000;stroke:#ff0000;" x="182.491584" xlink:href="#m1f5e13f4ee" y="190.846446"/>
     <use style="fill:#ff0000;stroke:#ff0000;" x="182.491584" xlink:href="#m1f5e13f4ee" y="364.62957"/>
     <use style="fill:#ff0000;stroke:#ff0000;" x="182.491584" xlink:href="#m1f5e13f4ee" y="379.771456"/>
     <use style="fill:#ff0000;stroke:#ff0000;" x="182.491584" xlink:href="#m1f5e13f4ee" y="377.846212"/>
     <use style="fill:#ff0000;stroke:#ff0000;" x="182.491584" xlink:href="#m1f5e13f4ee" y="390.183309"/>
     <use style="fill:#ff0000;stroke:#ff0000;" x="182.491584" xlink:href="#m1f5e13f4ee" y="376.578368"/>
     <use style="fill:#ff0000;stroke:#ff0000;" x="182.491584" xlink:href="#m1f5e13f4ee" y="346.431855"/>
     <use style="fill:#ff0000;stroke:#ff0000;" x="182.491584" xlink:href="#m1f5e13f4ee" y="362.913827"/>
     <use style="fill:#ff0000;stroke:#ff0000;" x="182.491584" xlink:href="#m1f5e13f4ee" y="281.708599"/>
     <use style="fill:#ff0000;stroke:#ff0000;" x="182.491584" xlink:href="#m1f5e13f4ee" y="315.216163"/>
     <use style="fill:#ff0000;stroke:#ff0000;" x="182.491584" xlink:href="#m1f5e13f4ee" y="326.12829"/>
     <use style="fill:#ff0000;stroke:#ff0000;" x="182.491584" xlink:href="#m1f5e13f4ee" y="373.358189"/>
     <use style="fill:#ff0000;stroke:#ff0000;" x="182.491584" xlink:href="#m1f5e13f4ee" y="334.757576"/>
     <use style="fill:#ff0000;stroke:#ff0000;" x="182.491584" xlink:href="#m1f5e13f4ee" y="329.093817"/>
     <use style="fill:#ff0000;stroke:#ff0000;" x="182.491584" xlink:href="#m1f5e13f4ee" y="339.91203"/>
     <use style="fill:#ff0000;stroke:#ff0000;" x="182.491584" xlink:href="#m1f5e13f4ee" y="353.820387"/>
     <use style="fill:#ff0000;stroke:#ff0000;" x="182.491584" xlink:href="#m1f5e13f4ee" y="339.594166"/>
     <use style="fill:#ff0000;stroke:#ff0000;" x="182.491584" xlink:href="#m1f5e13f4ee" y="354.882342"/>
     <use style="fill:#ff0000;stroke:#ff0000;" x="182.491584" xlink:href="#m1f5e13f4ee" y="324.777368"/>
     <use style="fill:#ff0000;stroke:#ff0000;" x="182.491584" xlink:href="#m1f5e13f4ee" y="367.764865"/>
     <use style="fill:#ff0000;stroke:#ff0000;" x="166.233267" xlink:href="#m1f5e13f4ee" y="380.445111"/>
     <use style="fill:#ff0000;stroke:#ff0000;" x="166.233267" xlink:href="#m1f5e13f4ee" y="338.407594"/>
     <use style="fill:#ff0000;stroke:#ff0000;" x="166.233267" xlink:href="#m1f5e13f4ee" y="305.136623"/>
     <use style="fill:#ff0000;stroke:#ff0000;" x="166.233267" xlink:href="#m1f5e13f4ee" y="334.430682"/>
     <use style="fill:#ff0000;stroke:#ff0000;" x="166.233267" xlink:href="#m1f5e13f4ee" y="229.241169"/>
     <use style="fill:#ff0000;stroke:#ff0000;" x="166.233267" xlink:href="#m1f5e13f4ee" y="150.681798"/>
     <use style="fill:#ff0000;stroke:#ff0000;" x="166.233267" xlink:href="#m1f5e13f4ee" y="336.720748"/>
     <use style="fill:#ff0000;stroke:#ff0000;" x="166.233267" xlink:href="#m1f5e13f4ee" y="394.705647"/>
     <use style="fill:#ff0000;stroke:#ff0000;" x="166.233267" xlink:href="#m1f5e13f4ee" y="392.778597"/>
     <use style="fill:#ff0000;stroke:#ff0000;" x="166.233267" xlink:href="#m1f5e13f4ee" y="366.664984"/>
     <use style="fill:#ff0000;stroke:#ff0000;" x="166.233267" xlink:href="#m1f5e13f4ee" y="404.160296"/>
     <use style="fill:#ff0000;stroke:#ff0000;" x="166.233267" xlink:href="#m1f5e13f4ee" y="353.914302"/>
     <use style="fill:#ff0000;stroke:#ff0000;" x="166.233267" xlink:href="#m1f5e13f4ee" y="374.936672"/>
     <use style="fill:#ff0000;stroke:#ff0000;" x="166.233267" xlink:href="#m1f5e13f4ee" y="406.71585"/>
     <use style="fill:#ff0000;stroke:#ff0000;" x="166.233267" xlink:href="#m1f5e13f4ee" y="374.710917"/>
     <use style="fill:#ff0000;stroke:#ff0000;" x="166.233267" xlink:href="#m1f5e13f4ee" y="378.409698"/>
     <use style="fill:#ff0000;stroke:#ff0000;" x="166.233267" xlink:href="#m1f5e13f4ee" y="349.294437"/>
     <use style="fill:#ff0000;stroke:#ff0000;" x="166.233267" xlink:href="#m1f5e13f4ee" y="343.047326"/>
     <use style="fill:#ff0000;stroke:#ff0000;" x="166.233267" xlink:href="#m1f5e13f4ee" y="339.659184"/>
     <use style="fill:#ff0000;stroke:#ff0000;" x="166.233267" xlink:href="#m1f5e13f4ee" y="385.642911"/>
     <use style="fill:#ff0000;stroke:#ff0000;" x="166.233267" xlink:href="#m1f5e13f4ee" y="235.07289"/>
     <use style="fill:#ff0000;stroke:#ff0000;" x="166.233267" xlink:href="#m1f5e13f4ee" y="332.279682"/>
     <use style="fill:#ff0000;stroke:#ff0000;" x="166.233267" xlink:href="#m1f5e13f4ee" y="285.669257"/>
     <use style="fill:#ff0000;stroke:#ff0000;" x="166.233267" xlink:href="#m1f5e13f4ee" y="345.212774"/>
     <use style="fill:#ff0000;stroke:#ff0000;" x="166.233267" xlink:href="#m1f5e13f4ee" y="326.993386"/>
     <use style="fill:#ff0000;stroke:#ff0000;" x="166.233267" xlink:href="#m1f5e13f4ee" y="325.154832"/>
     <use style="fill:#ff0000;stroke:#ff0000;" x="166.233267" xlink:href="#m1f5e13f4ee" y="399.159356"/>
     <use style="fill:#ff0000;stroke:#ff0000;" x="166.233267" xlink:href="#m1f5e13f4ee" y="350.437664"/>
     <use style="fill:#ff0000;stroke:#ff0000;" x="166.233267" xlink:href="#m1f5e13f4ee" y="331.194248"/>
     <use style="fill:#ff0000;stroke:#ff0000;" x="166.233267" xlink:href="#m1f5e13f4ee" y="337.867587"/>
     <use style="fill:#ff0000;stroke:#ff0000;" x="166.233267" xlink:href="#m1f5e13f4ee" y="350.183012"/>
     <use style="fill:#ff0000;stroke:#ff0000;" x="166.233267" xlink:href="#m1f5e13f4ee" y="308.829986"/>
     <use style="fill:#ff0000;stroke:#ff0000;" x="166.233267" xlink:href="#m1f5e13f4ee" y="330.981135"/>
     <use style="fill:#ff0000;stroke:#ff0000;" x="166.233267" xlink:href="#m1f5e13f4ee" y="348.6262"/>
     <use style="fill:#ff0000;stroke:#ff0000;" x="166.233267" xlink:href="#m1f5e13f4ee" y="329.628407"/>
     <use style="fill:#ff0000;stroke:#ff0000;" x="166.233267" xlink:href="#m1f5e13f4ee" y="375.265373"/>
     <use style="fill:#ff0000;stroke:#ff0000;" x="166.233267" xlink:href="#m1f5e13f4ee" y="347.934485"/>
     <use style="fill:#ff0000;stroke:#ff0000;" x="166.233267" xlink:href="#m1f5e13f4ee" y="331.48141"/>
     <use style="fill:#ff0000;stroke:#ff0000;" x="166.233267" xlink:href="#m1f5e13f4ee" y="358.714771"/>
     <use style="fill:#ff0000;stroke:#ff0000;" x="166.233267" xlink:href="#m1f5e13f4ee" y="350.726631"/>
     <use style="fill:#ff0000;stroke:#ff0000;" x="166.233267" xlink:href="#m1f5e13f4ee" y="321.582474"/>
     <use style="fill:#ff0000;stroke:#ff0000;" x="166.233267" xlink:href="#m1f5e13f4ee" y="327.435867"/>
     <use style="fill:#ff0000;stroke:#ff0000;" x="166.233267" xlink:href="#m1f5e13f4ee" y="364.029963"/>
     <use style="fill:#ff0000;stroke:#ff0000;" x="166.233267" xlink:href="#m1f5e13f4ee" y="371.041032"/>
    </g>
   </g>
   <g id="PathCollection_3">
    <defs>
     <path d="M 0 3 
C 0.795609 3 1.55874 2.683901 2.12132 2.12132 
C 2.683901 1.55874 3 0.795609 3 0 
C 3 -0.795609 2.683901 -1.55874 2.12132 -2.12132 
C 1.55874 -2.683901 0.795609 -3 0 -3 
C -0.795609 -3 -1.55874 -2.683901 -2.12132 -2.12132 
C -2.683901 -1.55874 -3 -0.795609 -3 0 
C -3 0.795609 -2.683901 1.55874 -2.12132 2.12132 
C -1.55874 2.683901 -0.795609 3 0 3 
z
" id="m6bca5d85b1" style="stroke:#008000;"/>
    </defs>
    <g clip-path="url(#p3be7410801)">
     <use style="fill:#008000;stroke:#008000;" x="866.966733" xlink:href="#m6bca5d85b1" y="367.903931"/>
     <use style="fill:#008000;stroke:#008000;" x="800.307633" xlink:href="#m6bca5d85b1" y="367.791956"/>
     <use style="fill:#008000;stroke:#008000;" x="719.016048" xlink:href="#m6bca5d85b1" y="366.798631"/>
     <use style="fill:#008000;stroke:#008000;" x="637.724462" xlink:href="#m6bca5d85b1" y="366.636087"/>
     <use style="fill:#008000;stroke:#008000;" x="556.432877" xlink:href="#m6bca5d85b1" y="363.889092"/>
     <use style="fill:#008000;stroke:#008000;" x="475.141291" xlink:href="#m6bca5d85b1" y="373.052967"/>
     <use style="fill:#008000;stroke:#008000;" x="475.141291" xlink:href="#m6bca5d85b1" y="362.615829"/>
     <use style="fill:#008000;stroke:#008000;" x="393.849706" xlink:href="#m6bca5d85b1" y="368.295843"/>
     <use style="fill:#008000;stroke:#008000;" x="393.849706" xlink:href="#m6bca5d85b1" y="364.985361"/>
     <use style="fill:#008000;stroke:#008000;" x="312.558121" xlink:href="#m6bca5d85b1" y="350.098127"/>
     <use style="fill:#008000;stroke:#008000;" x="312.558121" xlink:href="#m6bca5d85b1" y="396.86929"/>
     <use style="fill:#008000;stroke:#008000;" x="312.558121" xlink:href="#m6bca5d85b1" y="354.035307"/>
     <use style="fill:#008000;stroke:#008000;" x="312.558121" xlink:href="#m6bca5d85b1" y="371.189128"/>
     <use style="fill:#008000;stroke:#008000;" x="271.912328" xlink:href="#m6bca5d85b1" y="333.551138"/>
     <use style="fill:#008000;stroke:#008000;" x="271.912328" xlink:href="#m6bca5d85b1" y="404.86646"/>
     <use style="fill:#008000;stroke:#008000;" x="271.912328" xlink:href="#m6bca5d85b1" y="359.496789"/>
     <use style="fill:#008000;stroke:#008000;" x="271.912328" xlink:href="#m6bca5d85b1" y="370.584103"/>
     <use style="fill:#008000;stroke:#008000;" x="271.912328" xlink:href="#m6bca5d85b1" y="372.978919"/>
     <use style="fill:#008000;stroke:#008000;" x="231.266535" xlink:href="#m6bca5d85b1" y="351.463498"/>
     <use style="fill:#008000;stroke:#008000;" x="231.266535" xlink:href="#m6bca5d85b1" y="348.472686"/>
     <use style="fill:#008000;stroke:#008000;" x="231.266535" xlink:href="#m6bca5d85b1" y="406.500931"/>
     <use style="fill:#008000;stroke:#008000;" x="231.266535" xlink:href="#m6bca5d85b1" y="387.508556"/>
     <use style="fill:#008000;stroke:#008000;" x="231.266535" xlink:href="#m6bca5d85b1" y="328.79582"/>
     <use style="fill:#008000;stroke:#008000;" x="231.266535" xlink:href="#m6bca5d85b1" y="380.716018"/>
     <use style="fill:#008000;stroke:#008000;" x="231.266535" xlink:href="#m6bca5d85b1" y="367.78112"/>
     <use style="fill:#008000;stroke:#008000;" x="231.266535" xlink:href="#m6bca5d85b1" y="374.454458"/>
     <use style="fill:#008000;stroke:#008000;" x="215.008218" xlink:href="#m6bca5d85b1" y="372.489481"/>
     <use style="fill:#008000;stroke:#008000;" x="215.008218" xlink:href="#m6bca5d85b1" y="303.0687"/>
     <use style="fill:#008000;stroke:#008000;" x="215.008218" xlink:href="#m6bca5d85b1" y="399.578358"/>
     <use style="fill:#008000;stroke:#008000;" x="215.008218" xlink:href="#m6bca5d85b1" y="408.902972"/>
     <use style="fill:#008000;stroke:#008000;" x="215.008218" xlink:href="#m6bca5d85b1" y="384.36423"/>
     <use style="fill:#008000;stroke:#008000;" x="215.008218" xlink:href="#m6bca5d85b1" y="322.203753"/>
     <use style="fill:#008000;stroke:#008000;" x="215.008218" xlink:href="#m6bca5d85b1" y="377.537378"/>
     <use style="fill:#008000;stroke:#008000;" x="215.008218" xlink:href="#m6bca5d85b1" y="371.274012"/>
     <use style="fill:#008000;stroke:#008000;" x="215.008218" xlink:href="#m6bca5d85b1" y="378.498194"/>
     <use style="fill:#008000;stroke:#008000;" x="215.008218" xlink:href="#m6bca5d85b1" y="364.066084"/>
     <use style="fill:#008000;stroke:#008000;" x="215.008218" xlink:href="#m6bca5d85b1" y="368.711233"/>
     <use style="fill:#008000;stroke:#008000;" x="198.749901" xlink:href="#m6bca5d85b1" y="374.022813"/>
     <use style="fill:#008000;stroke:#008000;" x="198.749901" xlink:href="#m6bca5d85b1" y="275.385634"/>
     <use style="fill:#008000;stroke:#008000;" x="198.749901" xlink:href="#m6bca5d85b1" y="387.647621"/>
     <use style="fill:#008000;stroke:#008000;" x="198.749901" xlink:href="#m6bca5d85b1" y="398.317738"/>
     <use style="fill:#008000;stroke:#008000;" x="198.749901" xlink:href="#m6bca5d85b1" y="411.864886"/>
     <use style="fill:#008000;stroke:#008000;" x="198.749901" xlink:href="#m6bca5d85b1" y="382.704474"/>
     <use style="fill:#008000;stroke:#008000;" x="198.749901" xlink:href="#m6bca5d85b1" y="346.216935"/>
     <use style="fill:#008000;stroke:#008000;" x="198.749901" xlink:href="#m6bca5d85b1" y="345.135114"/>
     <use style="fill:#008000;stroke:#008000;" x="198.749901" xlink:href="#m6bca5d85b1" y="377.461524"/>
     <use style="fill:#008000;stroke:#008000;" x="198.749901" xlink:href="#m6bca5d85b1" y="373.659798"/>
     <use style="fill:#008000;stroke:#008000;" x="198.749901" xlink:href="#m6bca5d85b1" y="369.722619"/>
     <use style="fill:#008000;stroke:#008000;" x="198.749901" xlink:href="#m6bca5d85b1" y="382.11751"/>
     <use style="fill:#008000;stroke:#008000;" x="198.749901" xlink:href="#m6bca5d85b1" y="362.753089"/>
     <use style="fill:#008000;stroke:#008000;" x="198.749901" xlink:href="#m6bca5d85b1" y="350.993926"/>
     <use style="fill:#008000;stroke:#008000;" x="182.491584" xlink:href="#m6bca5d85b1" y="385.626656"/>
     <use style="fill:#008000;stroke:#008000;" x="182.491584" xlink:href="#m6bca5d85b1" y="359.574449"/>
     <use style="fill:#008000;stroke:#008000;" x="182.491584" xlink:href="#m6bca5d85b1" y="230.250749"/>
     <use style="fill:#008000;stroke:#008000;" x="182.491584" xlink:href="#m6bca5d85b1" y="379.908716"/>
     <use style="fill:#008000;stroke:#008000;" x="182.491584" xlink:href="#m6bca5d85b1" y="401.097243"/>
     <use style="fill:#008000;stroke:#008000;" x="182.491584" xlink:href="#m6bca5d85b1" y="397.98362"/>
     <use style="fill:#008000;stroke:#008000;" x="182.491584" xlink:href="#m6bca5d85b1" y="416.939874"/>
     <use style="fill:#008000;stroke:#008000;" x="182.491584" xlink:href="#m6bca5d85b1" y="400.394691"/>
     <use style="fill:#008000;stroke:#008000;" x="182.491584" xlink:href="#m6bca5d85b1" y="373.892778"/>
     <use style="fill:#008000;stroke:#008000;" x="182.491584" xlink:href="#m6bca5d85b1" y="394.436547"/>
     <use style="fill:#008000;stroke:#008000;" x="182.491584" xlink:href="#m6bca5d85b1" y="302.10066"/>
     <use style="fill:#008000;stroke:#008000;" x="182.491584" xlink:href="#m6bca5d85b1" y="343.578303"/>
     <use style="fill:#008000;stroke:#008000;" x="182.491584" xlink:href="#m6bca5d85b1" y="362.464122"/>
     <use style="fill:#008000;stroke:#008000;" x="182.491584" xlink:href="#m6bca5d85b1" y="393.636468"/>
     <use style="fill:#008000;stroke:#008000;" x="182.491584" xlink:href="#m6bca5d85b1" y="371.385987"/>
     <use style="fill:#008000;stroke:#008000;" x="182.491584" xlink:href="#m6bca5d85b1" y="371.095213"/>
     <use style="fill:#008000;stroke:#008000;" x="182.491584" xlink:href="#m6bca5d85b1" y="370.192191"/>
     <use style="fill:#008000;stroke:#008000;" x="182.491584" xlink:href="#m6bca5d85b1" y="387.089553"/>
     <use style="fill:#008000;stroke:#008000;" x="182.491584" xlink:href="#m6bca5d85b1" y="360.594864"/>
     <use style="fill:#008000;stroke:#008000;" x="182.491584" xlink:href="#m6bca5d85b1" y="367.555364"/>
     <use style="fill:#008000;stroke:#008000;" x="182.491584" xlink:href="#m6bca5d85b1" y="342.312265"/>
     <use style="fill:#008000;stroke:#008000;" x="182.491584" xlink:href="#m6bca5d85b1" y="395.025317"/>
     <use style="fill:#008000;stroke:#008000;" x="166.233267" xlink:href="#m6bca5d85b1" y="401.234502"/>
     <use style="fill:#008000;stroke:#008000;" x="166.233267" xlink:href="#m6bca5d85b1" y="371.032002"/>
     <use style="fill:#008000;stroke:#008000;" x="166.233267" xlink:href="#m6bca5d85b1" y="351.745241"/>
     <use style="fill:#008000;stroke:#008000;" x="166.233267" xlink:href="#m6bca5d85b1" y="367.645666"/>
     <use style="fill:#008000;stroke:#008000;" x="166.233267" xlink:href="#m6bca5d85b1" y="270.731454"/>
     <use style="fill:#008000;stroke:#008000;" x="166.233267" xlink:href="#m6bca5d85b1" y="188.612368"/>
     <use style="fill:#008000;stroke:#008000;" x="166.233267" xlink:href="#m6bca5d85b1" y="358.611826"/>
     <use style="fill:#008000;stroke:#008000;" x="166.233267" xlink:href="#m6bca5d85b1" y="400.136426"/>
     <use style="fill:#008000;stroke:#008000;" x="166.233267" xlink:href="#m6bca5d85b1" y="403.401757"/>
     <use style="fill:#008000;stroke:#008000;" x="166.233267" xlink:href="#m6bca5d85b1" y="398.772862"/>
     <use style="fill:#008000;stroke:#008000;" x="166.233267" xlink:href="#m6bca5d85b1" y="416.405285"/>
     <use style="fill:#008000;stroke:#008000;" x="166.233267" xlink:href="#m6bca5d85b1" y="379.561955"/>
     <use style="fill:#008000;stroke:#008000;" x="166.233267" xlink:href="#m6bca5d85b1" y="406.62013"/>
     <use style="fill:#008000;stroke:#008000;" x="166.233267" xlink:href="#m6bca5d85b1" y="427.963977"/>
     <use style="fill:#008000;stroke:#008000;" x="166.233267" xlink:href="#m6bca5d85b1" y="400.512084"/>
     <use style="fill:#008000;stroke:#008000;" x="166.233267" xlink:href="#m6bca5d85b1" y="400.136426"/>
     <use style="fill:#008000;stroke:#008000;" x="166.233267" xlink:href="#m6bca5d85b1" y="369.700946"/>
     <use style="fill:#008000;stroke:#008000;" x="166.233267" xlink:href="#m6bca5d85b1" y="378.073774"/>
     <use style="fill:#008000;stroke:#008000;" x="166.233267" xlink:href="#m6bca5d85b1" y="387.465211"/>
     <use style="fill:#008000;stroke:#008000;" x="166.233267" xlink:href="#m6bca5d85b1" y="401.234502"/>
     <use style="fill:#008000;stroke:#008000;" x="166.233267" xlink:href="#m6bca5d85b1" y="258.916304"/>
     <use style="fill:#008000;stroke:#008000;" x="166.233267" xlink:href="#m6bca5d85b1" y="347.2518"/>
     <use style="fill:#008000;stroke:#008000;" x="166.233267" xlink:href="#m6bca5d85b1" y="313.88872"/>
     <use style="fill:#008000;stroke:#008000;" x="166.233267" xlink:href="#m6bca5d85b1" y="373.782609"/>
     <use style="fill:#008000;stroke:#008000;" x="166.233267" xlink:href="#m6bca5d85b1" y="352.194946"/>
     <use style="fill:#008000;stroke:#008000;" x="166.233267" xlink:href="#m6bca5d85b1" y="373.025876"/>
     <use style="fill:#008000;stroke:#008000;" x="166.233267" xlink:href="#m6bca5d85b1" y="410.625939"/>
     <use style="fill:#008000;stroke:#008000;" x="166.233267" xlink:href="#m6bca5d85b1" y="377.699922"/>
     <use style="fill:#008000;stroke:#008000;" x="166.233267" xlink:href="#m6bca5d85b1" y="377.3947"/>
     <use style="fill:#008000;stroke:#008000;" x="166.233267" xlink:href="#m6bca5d85b1" y="365.500084"/>
     <use style="fill:#008000;stroke:#008000;" x="166.233267" xlink:href="#m6bca5d85b1" y="375.984179"/>
     <use style="fill:#008000;stroke:#008000;" x="166.233267" xlink:href="#m6bca5d85b1" y="366.29655"/>
     <use style="fill:#008000;stroke:#008000;" x="166.233267" xlink:href="#m6bca5d85b1" y="366.901576"/>
     <use style="fill:#008000;stroke:#008000;" x="166.233267" xlink:href="#m6bca5d85b1" y="372.233022"/>
     <use style="fill:#008000;stroke:#008000;" x="166.233267" xlink:href="#m6bca5d85b1" y="356.105035"/>
     <use style="fill:#008000;stroke:#008000;" x="166.233267" xlink:href="#m6bca5d85b1" y="420.017376"/>
     <use style="fill:#008000;stroke:#008000;" x="166.233267" xlink:href="#m6bca5d85b1" y="374.364156"/>
     <use style="fill:#008000;stroke:#008000;" x="166.233267" xlink:href="#m6bca5d85b1" y="347.535349"/>
     <use style="fill:#008000;stroke:#008000;" x="166.233267" xlink:href="#m6bca5d85b1" y="366.972011"/>
     <use style="fill:#008000;stroke:#008000;" x="166.233267" xlink:href="#m6bca5d85b1" y="368.028548"/>
     <use style="fill:#008000;stroke:#008000;" x="166.233267" xlink:href="#m6bca5d85b1" y="341.557338"/>
     <use style="fill:#008000;stroke:#008000;" x="166.233267" xlink:href="#m6bca5d85b1" y="342.256278"/>
     <use style="fill:#008000;stroke:#008000;" x="166.233267" xlink:href="#m6bca5d85b1" y="403.53721"/>
     <use style="fill:#008000;stroke:#008000;" x="166.233267" xlink:href="#m6bca5d85b1" y="386.860185"/>
    </g>
   </g>
   <g id="matplotlib.axis_1">
    <g id="xtick_1">
     <g id="line2d_1">
      <defs>
       <path d="M 0 0 
L 0 3.5 
" id="m8e7e94d838" style="stroke:#000000;stroke-width:0.8;"/>
      </defs>
      <g>
       <use style="stroke:#000000;stroke-width:0.8;" x="149.97495" xlink:href="#m8e7e94d838" y="448.56"/>
      </g>
     </g>
     <g id="text_1">
      <!-- 0 -->
      <defs>
       <path d="M 31.78125 66.40625 
Q 24.171875 66.40625 20.328125 58.90625 
Q 16.5 51.421875 16.5 36.375 
Q 16.5 21.390625 20.328125 13.890625 
Q 24.171875 6.390625 31.78125 6.390625 
Q 39.453125 6.390625 43.28125 13.890625 
Q 47.125 21.390625 47.125 36.375 
Q 47.125 51.421875 43.28125 58.90625 
Q 39.453125 66.40625 31.78125 66.40625 
z
M 31.78125 74.21875 
Q 44.046875 74.21875 50.515625 64.515625 
Q 56.984375 54.828125 56.984375 36.375 
Q 56.984375 17.96875 50.515625 8.265625 
Q 44.046875 -1.421875 31.78125 -1.421875 
Q 19.53125 -1.421875 13.0625 8.265625 
Q 6.59375 17.96875 6.59375 36.375 
Q 6.59375 54.828125 13.0625 64.515625 
Q 19.53125 74.21875 31.78125 74.21875 
z
" id="DejaVuSans-30"/>
      </defs>
      <g transform="translate(146.7937 463.158437)scale(0.1 -0.1)">
       <use xlink:href="#DejaVuSans-30"/>
      </g>
     </g>
    </g>
    <g id="xtick_2">
     <g id="line2d_2">
      <g>
       <use style="stroke:#000000;stroke-width:0.8;" x="312.558121" xlink:href="#m8e7e94d838" y="448.56"/>
      </g>
     </g>
     <g id="text_2">
      <!-- 100 -->
      <defs>
       <path d="M 12.40625 8.296875 
L 28.515625 8.296875 
L 28.515625 63.921875 
L 10.984375 60.40625 
L 10.984375 69.390625 
L 28.421875 72.90625 
L 38.28125 72.90625 
L 38.28125 8.296875 
L 54.390625 8.296875 
L 54.390625 0 
L 12.40625 0 
z
" id="DejaVuSans-31"/>
      </defs>
      <g transform="translate(303.014371 463.158437)scale(0.1 -0.1)">
       <use xlink:href="#DejaVuSans-31"/>
       <use x="63.623047" xlink:href="#DejaVuSans-30"/>
       <use x="127.246094" xlink:href="#DejaVuSans-30"/>
      </g>
     </g>
    </g>
    <g id="xtick_3">
     <g id="line2d_3">
      <g>
       <use style="stroke:#000000;stroke-width:0.8;" x="475.141291" xlink:href="#m8e7e94d838" y="448.56"/>
      </g>
     </g>
     <g id="text_3">
      <!-- 200 -->
      <defs>
       <path d="M 19.1875 8.296875 
L 53.609375 8.296875 
L 53.609375 0 
L 7.328125 0 
L 7.328125 8.296875 
Q 12.9375 14.109375 22.625 23.890625 
Q 32.328125 33.6875 34.8125 36.53125 
Q 39.546875 41.84375 41.421875 45.53125 
Q 43.3125 49.21875 43.3125 52.78125 
Q 43.3125 58.59375 39.234375 62.25 
Q 35.15625 65.921875 28.609375 65.921875 
Q 23.96875 65.921875 18.8125 64.3125 
Q 13.671875 62.703125 7.8125 59.421875 
L 7.8125 69.390625 
Q 13.765625 71.78125 18.9375 73 
Q 24.125 74.21875 28.421875 74.21875 
Q 39.75 74.21875 46.484375 68.546875 
Q 53.21875 62.890625 53.21875 53.421875 
Q 53.21875 48.921875 51.53125 44.890625 
Q 49.859375 40.875 45.40625 35.40625 
Q 44.1875 33.984375 37.640625 27.21875 
Q 31.109375 20.453125 19.1875 8.296875 
z
" id="DejaVuSans-32"/>
      </defs>
      <g transform="translate(465.597541 463.158437)scale(0.1 -0.1)">
       <use xlink:href="#DejaVuSans-32"/>
       <use x="63.623047" xlink:href="#DejaVuSans-30"/>
       <use x="127.246094" xlink:href="#DejaVuSans-30"/>
      </g>
     </g>
    </g>
    <g id="xtick_4">
     <g id="line2d_4">
      <g>
       <use style="stroke:#000000;stroke-width:0.8;" x="637.724462" xlink:href="#m8e7e94d838" y="448.56"/>
      </g>
     </g>
     <g id="text_4">
      <!-- 300 -->
      <defs>
       <path d="M 40.578125 39.3125 
Q 47.65625 37.796875 51.625 33 
Q 55.609375 28.21875 55.609375 21.1875 
Q 55.609375 10.40625 48.1875 4.484375 
Q 40.765625 -1.421875 27.09375 -1.421875 
Q 22.515625 -1.421875 17.65625 -0.515625 
Q 12.796875 0.390625 7.625 2.203125 
L 7.625 11.71875 
Q 11.71875 9.328125 16.59375 8.109375 
Q 21.484375 6.890625 26.8125 6.890625 
Q 36.078125 6.890625 40.9375 10.546875 
Q 45.796875 14.203125 45.796875 21.1875 
Q 45.796875 27.640625 41.28125 31.265625 
Q 36.765625 34.90625 28.71875 34.90625 
L 20.21875 34.90625 
L 20.21875 43.015625 
L 29.109375 43.015625 
Q 36.375 43.015625 40.234375 45.921875 
Q 44.09375 48.828125 44.09375 54.296875 
Q 44.09375 59.90625 40.109375 62.90625 
Q 36.140625 65.921875 28.71875 65.921875 
Q 24.65625 65.921875 20.015625 65.03125 
Q 15.375 64.15625 9.8125 62.3125 
L 9.8125 71.09375 
Q 15.4375 72.65625 20.34375 73.4375 
Q 25.25 74.21875 29.59375 74.21875 
Q 40.828125 74.21875 47.359375 69.109375 
Q 53.90625 64.015625 53.90625 55.328125 
Q 53.90625 49.265625 50.4375 45.09375 
Q 46.96875 40.921875 40.578125 39.3125 
z
" id="DejaVuSans-33"/>
      </defs>
      <g transform="translate(628.180712 463.158437)scale(0.1 -0.1)">
       <use xlink:href="#DejaVuSans-33"/>
       <use x="63.623047" xlink:href="#DejaVuSans-30"/>
       <use x="127.246094" xlink:href="#DejaVuSans-30"/>
      </g>
     </g>
    </g>
    <g id="xtick_5">
     <g id="line2d_5">
      <g>
       <use style="stroke:#000000;stroke-width:0.8;" x="800.307633" xlink:href="#m8e7e94d838" y="448.56"/>
      </g>
     </g>
     <g id="text_5">
      <!-- 400 -->
      <defs>
       <path d="M 37.796875 64.3125 
L 12.890625 25.390625 
L 37.796875 25.390625 
z
M 35.203125 72.90625 
L 47.609375 72.90625 
L 47.609375 25.390625 
L 58.015625 25.390625 
L 58.015625 17.1875 
L 47.609375 17.1875 
L 47.609375 0 
L 37.796875 0 
L 37.796875 17.1875 
L 4.890625 17.1875 
L 4.890625 26.703125 
z
" id="DejaVuSans-34"/>
      </defs>
      <g transform="translate(790.763883 463.158437)scale(0.1 -0.1)">
       <use xlink:href="#DejaVuSans-34"/>
       <use x="63.623047" xlink:href="#DejaVuSans-30"/>
       <use x="127.246094" xlink:href="#DejaVuSans-30"/>
      </g>
     </g>
    </g>
    <g id="text_6">
     <!-- length of chunk in sentences -->
     <defs>
      <path d="M 9.421875 75.984375 
L 18.40625 75.984375 
L 18.40625 0 
L 9.421875 0 
z
" id="DejaVuSans-6c"/>
      <path d="M 56.203125 29.59375 
L 56.203125 25.203125 
L 14.890625 25.203125 
Q 15.484375 15.921875 20.484375 11.0625 
Q 25.484375 6.203125 34.421875 6.203125 
Q 39.59375 6.203125 44.453125 7.46875 
Q 49.3125 8.734375 54.109375 11.28125 
L 54.109375 2.78125 
Q 49.265625 0.734375 44.1875 -0.34375 
Q 39.109375 -1.421875 33.890625 -1.421875 
Q 20.796875 -1.421875 13.15625 6.1875 
Q 5.515625 13.8125 5.515625 26.8125 
Q 5.515625 40.234375 12.765625 48.109375 
Q 20.015625 56 32.328125 56 
Q 43.359375 56 49.78125 48.890625 
Q 56.203125 41.796875 56.203125 29.59375 
z
M 47.21875 32.234375 
Q 47.125 39.59375 43.09375 43.984375 
Q 39.0625 48.390625 32.421875 48.390625 
Q 24.90625 48.390625 20.390625 44.140625 
Q 15.875 39.890625 15.1875 32.171875 
z
" id="DejaVuSans-65"/>
      <path d="M 54.890625 33.015625 
L 54.890625 0 
L 45.90625 0 
L 45.90625 32.71875 
Q 45.90625 40.484375 42.875 44.328125 
Q 39.84375 48.1875 33.796875 48.1875 
Q 26.515625 48.1875 22.3125 43.546875 
Q 18.109375 38.921875 18.109375 30.90625 
L 18.109375 0 
L 9.078125 0 
L 9.078125 54.6875 
L 18.109375 54.6875 
L 18.109375 46.1875 
Q 21.34375 51.125 25.703125 53.5625 
Q 30.078125 56 35.796875 56 
Q 45.21875 56 50.046875 50.171875 
Q 54.890625 44.34375 54.890625 33.015625 
z
" id="DejaVuSans-6e"/>
      <path d="M 45.40625 27.984375 
Q 45.40625 37.75 41.375 43.109375 
Q 37.359375 48.484375 30.078125 48.484375 
Q 22.859375 48.484375 18.828125 43.109375 
Q 14.796875 37.75 14.796875 27.984375 
Q 14.796875 18.265625 18.828125 12.890625 
Q 22.859375 7.515625 30.078125 7.515625 
Q 37.359375 7.515625 41.375 12.890625 
Q 45.40625 18.265625 45.40625 27.984375 
z
M 54.390625 6.78125 
Q 54.390625 -7.171875 48.1875 -13.984375 
Q 42 -20.796875 29.203125 -20.796875 
Q 24.46875 -20.796875 20.265625 -20.09375 
Q 16.0625 -19.390625 12.109375 -17.921875 
L 12.109375 -9.1875 
Q 16.0625 -11.328125 19.921875 -12.34375 
Q 23.78125 -13.375 27.78125 -13.375 
Q 36.625 -13.375 41.015625 -8.765625 
Q 45.40625 -4.15625 45.40625 5.171875 
L 45.40625 9.625 
Q 42.625 4.78125 38.28125 2.390625 
Q 33.9375 0 27.875 0 
Q 17.828125 0 11.671875 7.65625 
Q 5.515625 15.328125 5.515625 27.984375 
Q 5.515625 40.671875 11.671875 48.328125 
Q 17.828125 56 27.875 56 
Q 33.9375 56 38.28125 53.609375 
Q 42.625 51.21875 45.40625 46.390625 
L 45.40625 54.6875 
L 54.390625 54.6875 
z
" id="DejaVuSans-67"/>
      <path d="M 18.3125 70.21875 
L 18.3125 54.6875 
L 36.8125 54.6875 
L 36.8125 47.703125 
L 18.3125 47.703125 
L 18.3125 18.015625 
Q 18.3125 11.328125 20.140625 9.421875 
Q 21.96875 7.515625 27.59375 7.515625 
L 36.8125 7.515625 
L 36.8125 0 
L 27.59375 0 
Q 17.1875 0 13.234375 3.875 
Q 9.28125 7.765625 9.28125 18.015625 
L 9.28125 47.703125 
L 2.6875 47.703125 
L 2.6875 54.6875 
L 9.28125 54.6875 
L 9.28125 70.21875 
z
" id="DejaVuSans-74"/>
      <path d="M 54.890625 33.015625 
L 54.890625 0 
L 45.90625 0 
L 45.90625 32.71875 
Q 45.90625 40.484375 42.875 44.328125 
Q 39.84375 48.1875 33.796875 48.1875 
Q 26.515625 48.1875 22.3125 43.546875 
Q 18.109375 38.921875 18.109375 30.90625 
L 18.109375 0 
L 9.078125 0 
L 9.078125 75.984375 
L 18.109375 75.984375 
L 18.109375 46.1875 
Q 21.34375 51.125 25.703125 53.5625 
Q 30.078125 56 35.796875 56 
Q 45.21875 56 50.046875 50.171875 
Q 54.890625 44.34375 54.890625 33.015625 
z
" id="DejaVuSans-68"/>
      <path id="DejaVuSans-20"/>
      <path d="M 30.609375 48.390625 
Q 23.390625 48.390625 19.1875 42.75 
Q 14.984375 37.109375 14.984375 27.296875 
Q 14.984375 17.484375 19.15625 11.84375 
Q 23.34375 6.203125 30.609375 6.203125 
Q 37.796875 6.203125 41.984375 11.859375 
Q 46.1875 17.53125 46.1875 27.296875 
Q 46.1875 37.015625 41.984375 42.703125 
Q 37.796875 48.390625 30.609375 48.390625 
z
M 30.609375 56 
Q 42.328125 56 49.015625 48.375 
Q 55.71875 40.765625 55.71875 27.296875 
Q 55.71875 13.875 49.015625 6.21875 
Q 42.328125 -1.421875 30.609375 -1.421875 
Q 18.84375 -1.421875 12.171875 6.21875 
Q 5.515625 13.875 5.515625 27.296875 
Q 5.515625 40.765625 12.171875 48.375 
Q 18.84375 56 30.609375 56 
z
" id="DejaVuSans-6f"/>
      <path d="M 37.109375 75.984375 
L 37.109375 68.5 
L 28.515625 68.5 
Q 23.6875 68.5 21.796875 66.546875 
Q 19.921875 64.59375 19.921875 59.515625 
L 19.921875 54.6875 
L 34.71875 54.6875 
L 34.71875 47.703125 
L 19.921875 47.703125 
L 19.921875 0 
L 10.890625 0 
L 10.890625 47.703125 
L 2.296875 47.703125 
L 2.296875 54.6875 
L 10.890625 54.6875 
L 10.890625 58.5 
Q 10.890625 67.625 15.140625 71.796875 
Q 19.390625 75.984375 28.609375 75.984375 
z
" id="DejaVuSans-66"/>
      <path d="M 48.78125 52.59375 
L 48.78125 44.1875 
Q 44.96875 46.296875 41.140625 47.34375 
Q 37.3125 48.390625 33.40625 48.390625 
Q 24.65625 48.390625 19.8125 42.84375 
Q 14.984375 37.3125 14.984375 27.296875 
Q 14.984375 17.28125 19.8125 11.734375 
Q 24.65625 6.203125 33.40625 6.203125 
Q 37.3125 6.203125 41.140625 7.25 
Q 44.96875 8.296875 48.78125 10.40625 
L 48.78125 2.09375 
Q 45.015625 0.34375 40.984375 -0.53125 
Q 36.96875 -1.421875 32.421875 -1.421875 
Q 20.0625 -1.421875 12.78125 6.34375 
Q 5.515625 14.109375 5.515625 27.296875 
Q 5.515625 40.671875 12.859375 48.328125 
Q 20.21875 56 33.015625 56 
Q 37.15625 56 41.109375 55.140625 
Q 45.0625 54.296875 48.78125 52.59375 
z
" id="DejaVuSans-63"/>
      <path d="M 8.5 21.578125 
L 8.5 54.6875 
L 17.484375 54.6875 
L 17.484375 21.921875 
Q 17.484375 14.15625 20.5 10.265625 
Q 23.53125 6.390625 29.59375 6.390625 
Q 36.859375 6.390625 41.078125 11.03125 
Q 45.3125 15.671875 45.3125 23.6875 
L 45.3125 54.6875 
L 54.296875 54.6875 
L 54.296875 0 
L 45.3125 0 
L 45.3125 8.40625 
Q 42.046875 3.421875 37.71875 1 
Q 33.40625 -1.421875 27.6875 -1.421875 
Q 18.265625 -1.421875 13.375 4.4375 
Q 8.5 10.296875 8.5 21.578125 
z
M 31.109375 56 
z
" id="DejaVuSans-75"/>
      <path d="M 9.078125 75.984375 
L 18.109375 75.984375 
L 18.109375 31.109375 
L 44.921875 54.6875 
L 56.390625 54.6875 
L 27.390625 29.109375 
L 57.625 0 
L 45.90625 0 
L 18.109375 26.703125 
L 18.109375 0 
L 9.078125 0 
z
" id="DejaVuSans-6b"/>
      <path d="M 9.421875 54.6875 
L 18.40625 54.6875 
L 18.40625 0 
L 9.421875 0 
z
M 9.421875 75.984375 
L 18.40625 75.984375 
L 18.40625 64.59375 
L 9.421875 64.59375 
z
" id="DejaVuSans-69"/>
      <path d="M 44.28125 53.078125 
L 44.28125 44.578125 
Q 40.484375 46.53125 36.375 47.5 
Q 32.28125 48.484375 27.875 48.484375 
Q 21.1875 48.484375 17.84375 46.4375 
Q 14.5 44.390625 14.5 40.28125 
Q 14.5 37.15625 16.890625 35.375 
Q 19.28125 33.59375 26.515625 31.984375 
L 29.59375 31.296875 
Q 39.15625 29.25 43.1875 25.515625 
Q 47.21875 21.78125 47.21875 15.09375 
Q 47.21875 7.46875 41.1875 3.015625 
Q 35.15625 -1.421875 24.609375 -1.421875 
Q 20.21875 -1.421875 15.453125 -0.5625 
Q 10.6875 0.296875 5.421875 2 
L 5.421875 11.28125 
Q 10.40625 8.6875 15.234375 7.390625 
Q 20.0625 6.109375 24.8125 6.109375 
Q 31.15625 6.109375 34.5625 8.28125 
Q 37.984375 10.453125 37.984375 14.40625 
Q 37.984375 18.0625 35.515625 20.015625 
Q 33.0625 21.96875 24.703125 23.78125 
L 21.578125 24.515625 
Q 13.234375 26.265625 9.515625 29.90625 
Q 5.8125 33.546875 5.8125 39.890625 
Q 5.8125 47.609375 11.28125 51.796875 
Q 16.75 56 26.8125 56 
Q 31.78125 56 36.171875 55.265625 
Q 40.578125 54.546875 44.28125 53.078125 
z
" id="DejaVuSans-73"/>
     </defs>
     <g transform="translate(444.292188 476.836563)scale(0.1 -0.1)">
      <use xlink:href="#DejaVuSans-6c"/>
      <use x="27.783203" xlink:href="#DejaVuSans-65"/>
      <use x="89.306641" xlink:href="#DejaVuSans-6e"/>
      <use x="152.685547" xlink:href="#DejaVuSans-67"/>
      <use x="216.162109" xlink:href="#DejaVuSans-74"/>
      <use x="255.371094" xlink:href="#DejaVuSans-68"/>
      <use x="318.75" xlink:href="#DejaVuSans-20"/>
      <use x="350.537109" xlink:href="#DejaVuSans-6f"/>
      <use x="411.71875" xlink:href="#DejaVuSans-66"/>
      <use x="446.923828" xlink:href="#DejaVuSans-20"/>
      <use x="478.710938" xlink:href="#DejaVuSans-63"/>
      <use x="533.691406" xlink:href="#DejaVuSans-68"/>
      <use x="597.070312" xlink:href="#DejaVuSans-75"/>
      <use x="660.449219" xlink:href="#DejaVuSans-6e"/>
      <use x="723.828125" xlink:href="#DejaVuSans-6b"/>
      <use x="781.738281" xlink:href="#DejaVuSans-20"/>
      <use x="813.525391" xlink:href="#DejaVuSans-69"/>
      <use x="841.308594" xlink:href="#DejaVuSans-6e"/>
      <use x="904.6875" xlink:href="#DejaVuSans-20"/>
      <use x="936.474609" xlink:href="#DejaVuSans-73"/>
      <use x="988.574219" xlink:href="#DejaVuSans-65"/>
      <use x="1050.097656" xlink:href="#DejaVuSans-6e"/>
      <use x="1113.476562" xlink:href="#DejaVuSans-74"/>
      <use x="1152.685547" xlink:href="#DejaVuSans-65"/>
      <use x="1214.208984" xlink:href="#DejaVuSans-6e"/>
      <use x="1277.587891" xlink:href="#DejaVuSans-63"/>
      <use x="1332.568359" xlink:href="#DejaVuSans-65"/>
      <use x="1394.091797" xlink:href="#DejaVuSans-73"/>
     </g>
    </g>
   </g>
   <g id="matplotlib.axis_2">
    <g id="ytick_1">
     <g id="line2d_6">
      <defs>
       <path d="M 0 0 
L -3.5 0 
" id="m99bbd68ef0" style="stroke:#000000;stroke-width:0.8;"/>
      </defs>
      <g>
       <use style="stroke:#000000;stroke-width:0.8;" x="126" xlink:href="#m99bbd68ef0" y="411.348357"/>
      </g>
     </g>
     <g id="text_7">
      <!-- 5.0 -->
      <defs>
       <path d="M 10.796875 72.90625 
L 49.515625 72.90625 
L 49.515625 64.59375 
L 19.828125 64.59375 
L 19.828125 46.734375 
Q 21.96875 47.46875 24.109375 47.828125 
Q 26.265625 48.1875 28.421875 48.1875 
Q 40.625 48.1875 47.75 41.5 
Q 54.890625 34.8125 54.890625 23.390625 
Q 54.890625 11.625 47.5625 5.09375 
Q 40.234375 -1.421875 26.90625 -1.421875 
Q 22.3125 -1.421875 17.546875 -0.640625 
Q 12.796875 0.140625 7.71875 1.703125 
L 7.71875 11.625 
Q 12.109375 9.234375 16.796875 8.0625 
Q 21.484375 6.890625 26.703125 6.890625 
Q 35.15625 6.890625 40.078125 11.328125 
Q 45.015625 15.765625 45.015625 23.390625 
Q 45.015625 31 40.078125 35.4375 
Q 35.15625 39.890625 26.703125 39.890625 
Q 22.75 39.890625 18.8125 39.015625 
Q 14.890625 38.140625 10.796875 36.28125 
z
" id="DejaVuSans-35"/>
       <path d="M 10.6875 12.40625 
L 21 12.40625 
L 21 0 
L 10.6875 0 
z
" id="DejaVuSans-2e"/>
      </defs>
      <g transform="translate(103.096875 415.147576)scale(0.1 -0.1)">
       <use xlink:href="#DejaVuSans-35"/>
       <use x="63.623047" xlink:href="#DejaVuSans-2e"/>
       <use x="95.410156" xlink:href="#DejaVuSans-30"/>
      </g>
     </g>
    </g>
    <g id="ytick_2">
     <g id="line2d_7">
      <g>
       <use style="stroke:#000000;stroke-width:0.8;" x="126" xlink:href="#m99bbd68ef0" y="366.197218"/>
      </g>
     </g>
     <g id="text_8">
      <!-- 7.5 -->
      <defs>
       <path d="M 8.203125 72.90625 
L 55.078125 72.90625 
L 55.078125 68.703125 
L 28.609375 0 
L 18.3125 0 
L 43.21875 64.59375 
L 8.203125 64.59375 
z
" id="DejaVuSans-37"/>
      </defs>
      <g transform="translate(103.096875 369.996437)scale(0.1 -0.1)">
       <use xlink:href="#DejaVuSans-37"/>
       <use x="63.623047" xlink:href="#DejaVuSans-2e"/>
       <use x="95.410156" xlink:href="#DejaVuSans-35"/>
      </g>
     </g>
    </g>
    <g id="ytick_3">
     <g id="line2d_8">
      <g>
       <use style="stroke:#000000;stroke-width:0.8;" x="126" xlink:href="#m99bbd68ef0" y="321.046078"/>
      </g>
     </g>
     <g id="text_9">
      <!-- 10.0 -->
      <g transform="translate(96.734375 324.845297)scale(0.1 -0.1)">
       <use xlink:href="#DejaVuSans-31"/>
       <use x="63.623047" xlink:href="#DejaVuSans-30"/>
       <use x="127.246094" xlink:href="#DejaVuSans-2e"/>
       <use x="159.033203" xlink:href="#DejaVuSans-30"/>
      </g>
     </g>
    </g>
    <g id="ytick_4">
     <g id="line2d_9">
      <g>
       <use style="stroke:#000000;stroke-width:0.8;" x="126" xlink:href="#m99bbd68ef0" y="275.894939"/>
      </g>
     </g>
     <g id="text_10">
      <!-- 12.5 -->
      <g transform="translate(96.734375 279.694157)scale(0.1 -0.1)">
       <use xlink:href="#DejaVuSans-31"/>
       <use x="63.623047" xlink:href="#DejaVuSans-32"/>
       <use x="127.246094" xlink:href="#DejaVuSans-2e"/>
       <use x="159.033203" xlink:href="#DejaVuSans-35"/>
      </g>
     </g>
    </g>
    <g id="ytick_5">
     <g id="line2d_10">
      <g>
       <use style="stroke:#000000;stroke-width:0.8;" x="126" xlink:href="#m99bbd68ef0" y="230.743799"/>
      </g>
     </g>
     <g id="text_11">
      <!-- 15.0 -->
      <g transform="translate(96.734375 234.543018)scale(0.1 -0.1)">
       <use xlink:href="#DejaVuSans-31"/>
       <use x="63.623047" xlink:href="#DejaVuSans-35"/>
       <use x="127.246094" xlink:href="#DejaVuSans-2e"/>
       <use x="159.033203" xlink:href="#DejaVuSans-30"/>
      </g>
     </g>
    </g>
    <g id="ytick_6">
     <g id="line2d_11">
      <g>
       <use style="stroke:#000000;stroke-width:0.8;" x="126" xlink:href="#m99bbd68ef0" y="185.592659"/>
      </g>
     </g>
     <g id="text_12">
      <!-- 17.5 -->
      <g transform="translate(96.734375 189.391878)scale(0.1 -0.1)">
       <use xlink:href="#DejaVuSans-31"/>
       <use x="63.623047" xlink:href="#DejaVuSans-37"/>
       <use x="127.246094" xlink:href="#DejaVuSans-2e"/>
       <use x="159.033203" xlink:href="#DejaVuSans-35"/>
      </g>
     </g>
    </g>
    <g id="ytick_7">
     <g id="line2d_12">
      <g>
       <use style="stroke:#000000;stroke-width:0.8;" x="126" xlink:href="#m99bbd68ef0" y="140.44152"/>
      </g>
     </g>
     <g id="text_13">
      <!-- 20.0 -->
      <g transform="translate(96.734375 144.240739)scale(0.1 -0.1)">
       <use xlink:href="#DejaVuSans-32"/>
       <use x="63.623047" xlink:href="#DejaVuSans-30"/>
       <use x="127.246094" xlink:href="#DejaVuSans-2e"/>
       <use x="159.033203" xlink:href="#DejaVuSans-30"/>
      </g>
     </g>
    </g>
    <g id="ytick_8">
     <g id="line2d_13">
      <g>
       <use style="stroke:#000000;stroke-width:0.8;" x="126" xlink:href="#m99bbd68ef0" y="95.29038"/>
      </g>
     </g>
     <g id="text_14">
      <!-- 22.5 -->
      <g transform="translate(96.734375 99.089599)scale(0.1 -0.1)">
       <use xlink:href="#DejaVuSans-32"/>
       <use x="63.623047" xlink:href="#DejaVuSans-32"/>
       <use x="127.246094" xlink:href="#DejaVuSans-2e"/>
       <use x="159.033203" xlink:href="#DejaVuSans-35"/>
      </g>
     </g>
    </g>
    <g id="text_15">
     <!-- GFI -->
     <defs>
      <path d="M 59.515625 10.40625 
L 59.515625 29.984375 
L 43.40625 29.984375 
L 43.40625 38.09375 
L 69.28125 38.09375 
L 69.28125 6.78125 
Q 63.578125 2.734375 56.6875 0.65625 
Q 49.8125 -1.421875 42 -1.421875 
Q 24.90625 -1.421875 15.25 8.5625 
Q 5.609375 18.5625 5.609375 36.375 
Q 5.609375 54.25 15.25 64.234375 
Q 24.90625 74.21875 42 74.21875 
Q 49.125 74.21875 55.546875 72.453125 
Q 61.96875 70.703125 67.390625 67.28125 
L 67.390625 56.78125 
Q 61.921875 61.421875 55.765625 63.765625 
Q 49.609375 66.109375 42.828125 66.109375 
Q 29.4375 66.109375 22.71875 58.640625 
Q 16.015625 51.171875 16.015625 36.375 
Q 16.015625 21.625 22.71875 14.15625 
Q 29.4375 6.6875 42.828125 6.6875 
Q 48.046875 6.6875 52.140625 7.59375 
Q 56.25 8.5 59.515625 10.40625 
z
" id="DejaVuSans-47"/>
      <path d="M 9.8125 72.90625 
L 51.703125 72.90625 
L 51.703125 64.59375 
L 19.671875 64.59375 
L 19.671875 43.109375 
L 48.578125 43.109375 
L 48.578125 34.8125 
L 19.671875 34.8125 
L 19.671875 0 
L 9.8125 0 
z
" id="DejaVuSans-46"/>
      <path d="M 9.8125 72.90625 
L 19.671875 72.90625 
L 19.671875 0 
L 9.8125 0 
z
" id="DejaVuSans-49"/>
     </defs>
     <g transform="translate(90.654687 262.745)rotate(-90)scale(0.1 -0.1)">
      <use xlink:href="#DejaVuSans-47"/>
      <use x="77.490234" xlink:href="#DejaVuSans-46"/>
      <use x="135.009766" xlink:href="#DejaVuSans-49"/>
     </g>
    </g>
   </g>
   <g id="line2d_14">
    <path clip-path="url(#p3be7410801)" d="M 166.233267 272.981295 
L 182.491584 273.356788 
L 198.749901 271.8463 
L 215.008218 272.433242 
L 231.266535 271.885292 
L 271.912328 273.089066 
L 312.558121 271.914866 
L 393.849706 268.117203 
L 475.141291 271.630865 
L 556.432877 265.840683 
L 637.724462 268.092822 
L 719.016048 270.673661 
L 800.307633 271.594744 
L 866.966733 271.462903 
" style="fill:none;stroke:#ffa500;stroke-linecap:square;stroke-width:1.5;"/>
   </g>
   <g id="line2d_15">
    <path clip-path="url(#p3be7410801)" d="M 166.233267 341.481977 
L 182.491584 341.284215 
L 198.749901 339.708334 
L 215.008218 340.665151 
L 231.266535 339.895099 
L 271.912328 339.452572 
L 312.558121 339.839337 
L 393.849706 337.990398 
L 475.141291 339.396404 
L 556.432877 336.061541 
L 637.724462 337.990398 
L 719.016048 337.385373 
L 800.307633 339.370217 
L 866.966733 340.078187 
" style="fill:none;stroke:#ff0000;stroke-linecap:square;stroke-width:1.5;"/>
   </g>
   <g id="line2d_16">
    <path clip-path="url(#p3be7410801)" d="M 166.233267 368.602912 
L 182.491584 368.506165 
L 198.749901 367.000263 
L 215.008218 368.244945 
L 231.266535 368.211636 
L 271.912328 368.295482 
L 312.558121 368.047963 
L 393.849706 366.640602 
L 475.141291 367.834398 
L 556.432877 363.889092 
L 637.724462 366.636087 
L 719.016048 366.798631 
L 800.307633 367.791956 
L 866.966733 367.903931 
" style="fill:none;stroke:#008000;stroke-linecap:square;stroke-width:1.5;"/>
   </g>
   <g id="patch_3">
    <path d="M 126 448.56 
L 126 60.48 
" style="fill:none;stroke:#000000;stroke-linecap:square;stroke-linejoin:miter;stroke-width:0.8;"/>
   </g>
   <g id="patch_4">
    <path d="M 907.2 448.56 
L 907.2 60.48 
" style="fill:none;stroke:#000000;stroke-linecap:square;stroke-linejoin:miter;stroke-width:0.8;"/>
   </g>
   <g id="patch_5">
    <path d="M 126 448.56 
L 907.2 448.56 
" style="fill:none;stroke:#000000;stroke-linecap:square;stroke-linejoin:miter;stroke-width:0.8;"/>
   </g>
   <g id="patch_6">
    <path d="M 126 60.48 
L 907.2 60.48 
" style="fill:none;stroke:#000000;stroke-linecap:square;stroke-linejoin:miter;stroke-width:0.8;"/>
   </g>
   <g id="legend_1">
    <g id="patch_7">
     <path d="M 684.14375 112.514375 
L 900.2 112.514375 
Q 902.2 112.514375 902.2 110.514375 
L 902.2 67.48 
Q 902.2 65.48 900.2 65.48 
L 684.14375 65.48 
Q 682.14375 65.48 682.14375 67.48 
L 682.14375 110.514375 
Q 682.14375 112.514375 684.14375 112.514375 
z
" style="fill:#ffffff;opacity:0.8;stroke:#cccccc;stroke-linejoin:miter;"/>
    </g>
    <g id="PathCollection_4">
     <g>
      <use style="fill:#ffa500;stroke:#ffa500;" x="696.14375" xlink:href="#mb9010a1dc9" y="74.453438"/>
     </g>
    </g>
    <g id="text_16">
     <!-- words with &gt;3 syllables are complex -->
     <defs>
      <path d="M 4.203125 54.6875 
L 13.1875 54.6875 
L 24.421875 12.015625 
L 35.59375 54.6875 
L 46.1875 54.6875 
L 57.421875 12.015625 
L 68.609375 54.6875 
L 77.59375 54.6875 
L 63.28125 0 
L 52.6875 0 
L 40.921875 44.828125 
L 29.109375 0 
L 18.5 0 
z
" id="DejaVuSans-77"/>
      <path d="M 41.109375 46.296875 
Q 39.59375 47.171875 37.8125 47.578125 
Q 36.03125 48 33.890625 48 
Q 26.265625 48 22.1875 43.046875 
Q 18.109375 38.09375 18.109375 28.8125 
L 18.109375 0 
L 9.078125 0 
L 9.078125 54.6875 
L 18.109375 54.6875 
L 18.109375 46.1875 
Q 20.953125 51.171875 25.484375 53.578125 
Q 30.03125 56 36.53125 56 
Q 37.453125 56 38.578125 55.875 
Q 39.703125 55.765625 41.0625 55.515625 
z
" id="DejaVuSans-72"/>
      <path d="M 45.40625 46.390625 
L 45.40625 75.984375 
L 54.390625 75.984375 
L 54.390625 0 
L 45.40625 0 
L 45.40625 8.203125 
Q 42.578125 3.328125 38.25 0.953125 
Q 33.9375 -1.421875 27.875 -1.421875 
Q 17.96875 -1.421875 11.734375 6.484375 
Q 5.515625 14.40625 5.515625 27.296875 
Q 5.515625 40.1875 11.734375 48.09375 
Q 17.96875 56 27.875 56 
Q 33.9375 56 38.25 53.625 
Q 42.578125 51.265625 45.40625 46.390625 
z
M 14.796875 27.296875 
Q 14.796875 17.390625 18.875 11.75 
Q 22.953125 6.109375 30.078125 6.109375 
Q 37.203125 6.109375 41.296875 11.75 
Q 45.40625 17.390625 45.40625 27.296875 
Q 45.40625 37.203125 41.296875 42.84375 
Q 37.203125 48.484375 30.078125 48.484375 
Q 22.953125 48.484375 18.875 42.84375 
Q 14.796875 37.203125 14.796875 27.296875 
z
" id="DejaVuSans-64"/>
      <path d="M 10.59375 49.21875 
L 10.59375 58.109375 
L 73.1875 35.40625 
L 73.1875 27.296875 
L 10.59375 4.59375 
L 10.59375 13.484375 
L 60.890625 31.296875 
z
" id="DejaVuSans-3e"/>
      <path d="M 32.171875 -5.078125 
Q 28.375 -14.84375 24.75 -17.8125 
Q 21.140625 -20.796875 15.09375 -20.796875 
L 7.90625 -20.796875 
L 7.90625 -13.28125 
L 13.1875 -13.28125 
Q 16.890625 -13.28125 18.9375 -11.515625 
Q 21 -9.765625 23.484375 -3.21875 
L 25.09375 0.875 
L 2.984375 54.6875 
L 12.5 54.6875 
L 29.59375 11.921875 
L 46.6875 54.6875 
L 56.203125 54.6875 
z
" id="DejaVuSans-79"/>
      <path d="M 34.28125 27.484375 
Q 23.390625 27.484375 19.1875 25 
Q 14.984375 22.515625 14.984375 16.5 
Q 14.984375 11.71875 18.140625 8.90625 
Q 21.296875 6.109375 26.703125 6.109375 
Q 34.1875 6.109375 38.703125 11.40625 
Q 43.21875 16.703125 43.21875 25.484375 
L 43.21875 27.484375 
z
M 52.203125 31.203125 
L 52.203125 0 
L 43.21875 0 
L 43.21875 8.296875 
Q 40.140625 3.328125 35.546875 0.953125 
Q 30.953125 -1.421875 24.3125 -1.421875 
Q 15.921875 -1.421875 10.953125 3.296875 
Q 6 8.015625 6 15.921875 
Q 6 25.140625 12.171875 29.828125 
Q 18.359375 34.515625 30.609375 34.515625 
L 43.21875 34.515625 
L 43.21875 35.40625 
Q 43.21875 41.609375 39.140625 45 
Q 35.0625 48.390625 27.6875 48.390625 
Q 23 48.390625 18.546875 47.265625 
Q 14.109375 46.140625 10.015625 43.890625 
L 10.015625 52.203125 
Q 14.9375 54.109375 19.578125 55.046875 
Q 24.21875 56 28.609375 56 
Q 40.484375 56 46.34375 49.84375 
Q 52.203125 43.703125 52.203125 31.203125 
z
" id="DejaVuSans-61"/>
      <path d="M 48.6875 27.296875 
Q 48.6875 37.203125 44.609375 42.84375 
Q 40.53125 48.484375 33.40625 48.484375 
Q 26.265625 48.484375 22.1875 42.84375 
Q 18.109375 37.203125 18.109375 27.296875 
Q 18.109375 17.390625 22.1875 11.75 
Q 26.265625 6.109375 33.40625 6.109375 
Q 40.53125 6.109375 44.609375 11.75 
Q 48.6875 17.390625 48.6875 27.296875 
z
M 18.109375 46.390625 
Q 20.953125 51.265625 25.265625 53.625 
Q 29.59375 56 35.59375 56 
Q 45.5625 56 51.78125 48.09375 
Q 58.015625 40.1875 58.015625 27.296875 
Q 58.015625 14.40625 51.78125 6.484375 
Q 45.5625 -1.421875 35.59375 -1.421875 
Q 29.59375 -1.421875 25.265625 0.953125 
Q 20.953125 3.328125 18.109375 8.203125 
L 18.109375 0 
L 9.078125 0 
L 9.078125 75.984375 
L 18.109375 75.984375 
z
" id="DejaVuSans-62"/>
      <path d="M 52 44.1875 
Q 55.375 50.25 60.0625 53.125 
Q 64.75 56 71.09375 56 
Q 79.640625 56 84.28125 50.015625 
Q 88.921875 44.046875 88.921875 33.015625 
L 88.921875 0 
L 79.890625 0 
L 79.890625 32.71875 
Q 79.890625 40.578125 77.09375 44.375 
Q 74.3125 48.1875 68.609375 48.1875 
Q 61.625 48.1875 57.5625 43.546875 
Q 53.515625 38.921875 53.515625 30.90625 
L 53.515625 0 
L 44.484375 0 
L 44.484375 32.71875 
Q 44.484375 40.625 41.703125 44.40625 
Q 38.921875 48.1875 33.109375 48.1875 
Q 26.21875 48.1875 22.15625 43.53125 
Q 18.109375 38.875 18.109375 30.90625 
L 18.109375 0 
L 9.078125 0 
L 9.078125 54.6875 
L 18.109375 54.6875 
L 18.109375 46.1875 
Q 21.1875 51.21875 25.484375 53.609375 
Q 29.78125 56 35.6875 56 
Q 41.65625 56 45.828125 52.96875 
Q 50 49.953125 52 44.1875 
z
" id="DejaVuSans-6d"/>
      <path d="M 18.109375 8.203125 
L 18.109375 -20.796875 
L 9.078125 -20.796875 
L 9.078125 54.6875 
L 18.109375 54.6875 
L 18.109375 46.390625 
Q 20.953125 51.265625 25.265625 53.625 
Q 29.59375 56 35.59375 56 
Q 45.5625 56 51.78125 48.09375 
Q 58.015625 40.1875 58.015625 27.296875 
Q 58.015625 14.40625 51.78125 6.484375 
Q 45.5625 -1.421875 35.59375 -1.421875 
Q 29.59375 -1.421875 25.265625 0.953125 
Q 20.953125 3.328125 18.109375 8.203125 
z
M 48.6875 27.296875 
Q 48.6875 37.203125 44.609375 42.84375 
Q 40.53125 48.484375 33.40625 48.484375 
Q 26.265625 48.484375 22.1875 42.84375 
Q 18.109375 37.203125 18.109375 27.296875 
Q 18.109375 17.390625 22.1875 11.75 
Q 26.265625 6.109375 33.40625 6.109375 
Q 40.53125 6.109375 44.609375 11.75 
Q 48.6875 17.390625 48.6875 27.296875 
z
" id="DejaVuSans-70"/>
      <path d="M 54.890625 54.6875 
L 35.109375 28.078125 
L 55.90625 0 
L 45.3125 0 
L 29.390625 21.484375 
L 13.484375 0 
L 2.875 0 
L 24.125 28.609375 
L 4.6875 54.6875 
L 15.28125 54.6875 
L 29.78125 35.203125 
L 44.28125 54.6875 
z
" id="DejaVuSans-78"/>
     </defs>
     <g transform="translate(714.14375 77.078438)scale(0.1 -0.1)">
      <use xlink:href="#DejaVuSans-77"/>
      <use x="81.787109" xlink:href="#DejaVuSans-6f"/>
      <use x="142.96875" xlink:href="#DejaVuSans-72"/>
      <use x="184.066406" xlink:href="#DejaVuSans-64"/>
      <use x="247.542969" xlink:href="#DejaVuSans-73"/>
      <use x="299.642578" xlink:href="#DejaVuSans-20"/>
      <use x="331.429688" xlink:href="#DejaVuSans-77"/>
      <use x="413.216797" xlink:href="#DejaVuSans-69"/>
      <use x="441" xlink:href="#DejaVuSans-74"/>
      <use x="480.208984" xlink:href="#DejaVuSans-68"/>
      <use x="543.587891" xlink:href="#DejaVuSans-20"/>
      <use x="575.375" xlink:href="#DejaVuSans-3e"/>
      <use x="659.164062" xlink:href="#DejaVuSans-33"/>
      <use x="722.787109" xlink:href="#DejaVuSans-20"/>
      <use x="754.574219" xlink:href="#DejaVuSans-73"/>
      <use x="806.673828" xlink:href="#DejaVuSans-79"/>
      <use x="865.853516" xlink:href="#DejaVuSans-6c"/>
      <use x="893.636719" xlink:href="#DejaVuSans-6c"/>
      <use x="921.419922" xlink:href="#DejaVuSans-61"/>
      <use x="982.699219" xlink:href="#DejaVuSans-62"/>
      <use x="1046.175781" xlink:href="#DejaVuSans-6c"/>
      <use x="1073.958984" xlink:href="#DejaVuSans-65"/>
      <use x="1135.482422" xlink:href="#DejaVuSans-73"/>
      <use x="1187.582031" xlink:href="#DejaVuSans-20"/>
      <use x="1219.369141" xlink:href="#DejaVuSans-61"/>
      <use x="1280.648438" xlink:href="#DejaVuSans-72"/>
      <use x="1321.730469" xlink:href="#DejaVuSans-65"/>
      <use x="1383.253906" xlink:href="#DejaVuSans-20"/>
      <use x="1415.041016" xlink:href="#DejaVuSans-63"/>
      <use x="1470.021484" xlink:href="#DejaVuSans-6f"/>
      <use x="1531.203125" xlink:href="#DejaVuSans-6d"/>
      <use x="1628.615234" xlink:href="#DejaVuSans-70"/>
      <use x="1692.091797" xlink:href="#DejaVuSans-6c"/>
      <use x="1719.875" xlink:href="#DejaVuSans-65"/>
      <use x="1781.382812" xlink:href="#DejaVuSans-78"/>
     </g>
    </g>
    <g id="PathCollection_5">
     <g>
      <use style="fill:#ff0000;stroke:#ff0000;" x="696.14375" xlink:href="#m1f5e13f4ee" y="89.131563"/>
     </g>
    </g>
    <g id="text_17">
     <!-- words with &gt;4 syllables are complex -->
     <g transform="translate(714.14375 91.756563)scale(0.1 -0.1)">
      <use xlink:href="#DejaVuSans-77"/>
      <use x="81.787109" xlink:href="#DejaVuSans-6f"/>
      <use x="142.96875" xlink:href="#DejaVuSans-72"/>
      <use x="184.066406" xlink:href="#DejaVuSans-64"/>
      <use x="247.542969" xlink:href="#DejaVuSans-73"/>
      <use x="299.642578" xlink:href="#DejaVuSans-20"/>
      <use x="331.429688" xlink:href="#DejaVuSans-77"/>
      <use x="413.216797" xlink:href="#DejaVuSans-69"/>
      <use x="441" xlink:href="#DejaVuSans-74"/>
      <use x="480.208984" xlink:href="#DejaVuSans-68"/>
      <use x="543.587891" xlink:href="#DejaVuSans-20"/>
      <use x="575.375" xlink:href="#DejaVuSans-3e"/>
      <use x="659.164062" xlink:href="#DejaVuSans-34"/>
      <use x="722.787109" xlink:href="#DejaVuSans-20"/>
      <use x="754.574219" xlink:href="#DejaVuSans-73"/>
      <use x="806.673828" xlink:href="#DejaVuSans-79"/>
      <use x="865.853516" xlink:href="#DejaVuSans-6c"/>
      <use x="893.636719" xlink:href="#DejaVuSans-6c"/>
      <use x="921.419922" xlink:href="#DejaVuSans-61"/>
      <use x="982.699219" xlink:href="#DejaVuSans-62"/>
      <use x="1046.175781" xlink:href="#DejaVuSans-6c"/>
      <use x="1073.958984" xlink:href="#DejaVuSans-65"/>
      <use x="1135.482422" xlink:href="#DejaVuSans-73"/>
      <use x="1187.582031" xlink:href="#DejaVuSans-20"/>
      <use x="1219.369141" xlink:href="#DejaVuSans-61"/>
      <use x="1280.648438" xlink:href="#DejaVuSans-72"/>
      <use x="1321.730469" xlink:href="#DejaVuSans-65"/>
      <use x="1383.253906" xlink:href="#DejaVuSans-20"/>
      <use x="1415.041016" xlink:href="#DejaVuSans-63"/>
      <use x="1470.021484" xlink:href="#DejaVuSans-6f"/>
      <use x="1531.203125" xlink:href="#DejaVuSans-6d"/>
      <use x="1628.615234" xlink:href="#DejaVuSans-70"/>
      <use x="1692.091797" xlink:href="#DejaVuSans-6c"/>
      <use x="1719.875" xlink:href="#DejaVuSans-65"/>
      <use x="1781.382812" xlink:href="#DejaVuSans-78"/>
     </g>
    </g>
    <g id="PathCollection_6">
     <g>
      <use style="fill:#008000;stroke:#008000;" x="696.14375" xlink:href="#m6bca5d85b1" y="103.809687"/>
     </g>
    </g>
    <g id="text_18">
     <!-- words with &gt;5 syllables are complex -->
     <g transform="translate(714.14375 106.434687)scale(0.1 -0.1)">
      <use xlink:href="#DejaVuSans-77"/>
      <use x="81.787109" xlink:href="#DejaVuSans-6f"/>
      <use x="142.96875" xlink:href="#DejaVuSans-72"/>
      <use x="184.066406" xlink:href="#DejaVuSans-64"/>
      <use x="247.542969" xlink:href="#DejaVuSans-73"/>
      <use x="299.642578" xlink:href="#DejaVuSans-20"/>
      <use x="331.429688" xlink:href="#DejaVuSans-77"/>
      <use x="413.216797" xlink:href="#DejaVuSans-69"/>
      <use x="441" xlink:href="#DejaVuSans-74"/>
      <use x="480.208984" xlink:href="#DejaVuSans-68"/>
      <use x="543.587891" xlink:href="#DejaVuSans-20"/>
      <use x="575.375" xlink:href="#DejaVuSans-3e"/>
      <use x="659.164062" xlink:href="#DejaVuSans-35"/>
      <use x="722.787109" xlink:href="#DejaVuSans-20"/>
      <use x="754.574219" xlink:href="#DejaVuSans-73"/>
      <use x="806.673828" xlink:href="#DejaVuSans-79"/>
      <use x="865.853516" xlink:href="#DejaVuSans-6c"/>
      <use x="893.636719" xlink:href="#DejaVuSans-6c"/>
      <use x="921.419922" xlink:href="#DejaVuSans-61"/>
      <use x="982.699219" xlink:href="#DejaVuSans-62"/>
      <use x="1046.175781" xlink:href="#DejaVuSans-6c"/>
      <use x="1073.958984" xlink:href="#DejaVuSans-65"/>
      <use x="1135.482422" xlink:href="#DejaVuSans-73"/>
      <use x="1187.582031" xlink:href="#DejaVuSans-20"/>
      <use x="1219.369141" xlink:href="#DejaVuSans-61"/>
      <use x="1280.648438" xlink:href="#DejaVuSans-72"/>
      <use x="1321.730469" xlink:href="#DejaVuSans-65"/>
      <use x="1383.253906" xlink:href="#DejaVuSans-20"/>
      <use x="1415.041016" xlink:href="#DejaVuSans-63"/>
      <use x="1470.021484" xlink:href="#DejaVuSans-6f"/>
      <use x="1531.203125" xlink:href="#DejaVuSans-6d"/>
      <use x="1628.615234" xlink:href="#DejaVuSans-70"/>
      <use x="1692.091797" xlink:href="#DejaVuSans-6c"/>
      <use x="1719.875" xlink:href="#DejaVuSans-65"/>
      <use x="1781.382812" xlink:href="#DejaVuSans-78"/>
     </g>
    </g>
   </g>
  </g>
  <g id="text_19">
   <!-- Comparison of GFI values of the different chunk sizes of document de118627493.txt -->
   <defs>
    <path d="M 64.40625 67.28125 
L 64.40625 56.890625 
Q 59.421875 61.53125 53.78125 63.8125 
Q 48.140625 66.109375 41.796875 66.109375 
Q 29.296875 66.109375 22.65625 58.46875 
Q 16.015625 50.828125 16.015625 36.375 
Q 16.015625 21.96875 22.65625 14.328125 
Q 29.296875 6.6875 41.796875 6.6875 
Q 48.140625 6.6875 53.78125 8.984375 
Q 59.421875 11.28125 64.40625 15.921875 
L 64.40625 5.609375 
Q 59.234375 2.09375 53.4375 0.328125 
Q 47.65625 -1.421875 41.21875 -1.421875 
Q 24.65625 -1.421875 15.125 8.703125 
Q 5.609375 18.84375 5.609375 36.375 
Q 5.609375 53.953125 15.125 64.078125 
Q 24.65625 74.21875 41.21875 74.21875 
Q 47.75 74.21875 53.53125 72.484375 
Q 59.328125 70.75 64.40625 67.28125 
z
" id="DejaVuSans-43"/>
    <path d="M 2.984375 54.6875 
L 12.5 54.6875 
L 29.59375 8.796875 
L 46.6875 54.6875 
L 56.203125 54.6875 
L 35.6875 0 
L 23.484375 0 
z
" id="DejaVuSans-76"/>
    <path d="M 5.515625 54.6875 
L 48.1875 54.6875 
L 48.1875 46.484375 
L 14.40625 7.171875 
L 48.1875 7.171875 
L 48.1875 0 
L 4.296875 0 
L 4.296875 8.203125 
L 38.09375 47.515625 
L 5.515625 47.515625 
z
" id="DejaVuSans-7a"/>
    <path d="M 31.78125 34.625 
Q 24.75 34.625 20.71875 30.859375 
Q 16.703125 27.09375 16.703125 20.515625 
Q 16.703125 13.921875 20.71875 10.15625 
Q 24.75 6.390625 31.78125 6.390625 
Q 38.8125 6.390625 42.859375 10.171875 
Q 46.921875 13.96875 46.921875 20.515625 
Q 46.921875 27.09375 42.890625 30.859375 
Q 38.875 34.625 31.78125 34.625 
z
M 21.921875 38.8125 
Q 15.578125 40.375 12.03125 44.71875 
Q 8.5 49.078125 8.5 55.328125 
Q 8.5 64.0625 14.71875 69.140625 
Q 20.953125 74.21875 31.78125 74.21875 
Q 42.671875 74.21875 48.875 69.140625 
Q 55.078125 64.0625 55.078125 55.328125 
Q 55.078125 49.078125 51.53125 44.71875 
Q 48 40.375 41.703125 38.8125 
Q 48.828125 37.15625 52.796875 32.3125 
Q 56.78125 27.484375 56.78125 20.515625 
Q 56.78125 9.90625 50.3125 4.234375 
Q 43.84375 -1.421875 31.78125 -1.421875 
Q 19.734375 -1.421875 13.25 4.234375 
Q 6.78125 9.90625 6.78125 20.515625 
Q 6.78125 27.484375 10.78125 32.3125 
Q 14.796875 37.15625 21.921875 38.8125 
z
M 18.3125 54.390625 
Q 18.3125 48.734375 21.84375 45.5625 
Q 25.390625 42.390625 31.78125 42.390625 
Q 38.140625 42.390625 41.71875 45.5625 
Q 45.3125 48.734375 45.3125 54.390625 
Q 45.3125 60.0625 41.71875 63.234375 
Q 38.140625 66.40625 31.78125 66.40625 
Q 25.390625 66.40625 21.84375 63.234375 
Q 18.3125 60.0625 18.3125 54.390625 
z
" id="DejaVuSans-38"/>
    <path d="M 33.015625 40.375 
Q 26.375 40.375 22.484375 35.828125 
Q 18.609375 31.296875 18.609375 23.390625 
Q 18.609375 15.53125 22.484375 10.953125 
Q 26.375 6.390625 33.015625 6.390625 
Q 39.65625 6.390625 43.53125 10.953125 
Q 47.40625 15.53125 47.40625 23.390625 
Q 47.40625 31.296875 43.53125 35.828125 
Q 39.65625 40.375 33.015625 40.375 
z
M 52.59375 71.296875 
L 52.59375 62.3125 
Q 48.875 64.0625 45.09375 64.984375 
Q 41.3125 65.921875 37.59375 65.921875 
Q 27.828125 65.921875 22.671875 59.328125 
Q 17.53125 52.734375 16.796875 39.40625 
Q 19.671875 43.65625 24.015625 45.921875 
Q 28.375 48.1875 33.59375 48.1875 
Q 44.578125 48.1875 50.953125 41.515625 
Q 57.328125 34.859375 57.328125 23.390625 
Q 57.328125 12.15625 50.6875 5.359375 
Q 44.046875 -1.421875 33.015625 -1.421875 
Q 20.359375 -1.421875 13.671875 8.265625 
Q 6.984375 17.96875 6.984375 36.375 
Q 6.984375 53.65625 15.1875 63.9375 
Q 23.390625 74.21875 37.203125 74.21875 
Q 40.921875 74.21875 44.703125 73.484375 
Q 48.484375 72.75 52.59375 71.296875 
z
" id="DejaVuSans-36"/>
    <path d="M 10.984375 1.515625 
L 10.984375 10.5 
Q 14.703125 8.734375 18.5 7.8125 
Q 22.3125 6.890625 25.984375 6.890625 
Q 35.75 6.890625 40.890625 13.453125 
Q 46.046875 20.015625 46.78125 33.40625 
Q 43.953125 29.203125 39.59375 26.953125 
Q 35.25 24.703125 29.984375 24.703125 
Q 19.046875 24.703125 12.671875 31.3125 
Q 6.296875 37.9375 6.296875 49.421875 
Q 6.296875 60.640625 12.9375 67.421875 
Q 19.578125 74.21875 30.609375 74.21875 
Q 43.265625 74.21875 49.921875 64.515625 
Q 56.59375 54.828125 56.59375 36.375 
Q 56.59375 19.140625 48.40625 8.859375 
Q 40.234375 -1.421875 26.421875 -1.421875 
Q 22.703125 -1.421875 18.890625 -0.6875 
Q 15.09375 0.046875 10.984375 1.515625 
z
M 30.609375 32.421875 
Q 37.25 32.421875 41.125 36.953125 
Q 45.015625 41.5 45.015625 49.421875 
Q 45.015625 57.28125 41.125 61.84375 
Q 37.25 66.40625 30.609375 66.40625 
Q 23.96875 66.40625 20.09375 61.84375 
Q 16.21875 57.28125 16.21875 49.421875 
Q 16.21875 41.5 20.09375 36.953125 
Q 23.96875 32.421875 30.609375 32.421875 
z
" id="DejaVuSans-39"/>
   </defs>
   <g transform="translate(207.178125 20.717812)scale(0.14 -0.14)">
    <use xlink:href="#DejaVuSans-43"/>
    <use x="69.824219" xlink:href="#DejaVuSans-6f"/>
    <use x="131.005859" xlink:href="#DejaVuSans-6d"/>
    <use x="228.417969" xlink:href="#DejaVuSans-70"/>
    <use x="291.894531" xlink:href="#DejaVuSans-61"/>
    <use x="353.173828" xlink:href="#DejaVuSans-72"/>
    <use x="394.287109" xlink:href="#DejaVuSans-69"/>
    <use x="422.070312" xlink:href="#DejaVuSans-73"/>
    <use x="474.169922" xlink:href="#DejaVuSans-6f"/>
    <use x="535.351562" xlink:href="#DejaVuSans-6e"/>
    <use x="598.730469" xlink:href="#DejaVuSans-20"/>
    <use x="630.517578" xlink:href="#DejaVuSans-6f"/>
    <use x="691.699219" xlink:href="#DejaVuSans-66"/>
    <use x="726.904297" xlink:href="#DejaVuSans-20"/>
    <use x="758.691406" xlink:href="#DejaVuSans-47"/>
    <use x="836.181641" xlink:href="#DejaVuSans-46"/>
    <use x="893.701172" xlink:href="#DejaVuSans-49"/>
    <use x="923.193359" xlink:href="#DejaVuSans-20"/>
    <use x="954.980469" xlink:href="#DejaVuSans-76"/>
    <use x="1014.160156" xlink:href="#DejaVuSans-61"/>
    <use x="1075.439453" xlink:href="#DejaVuSans-6c"/>
    <use x="1103.222656" xlink:href="#DejaVuSans-75"/>
    <use x="1166.601562" xlink:href="#DejaVuSans-65"/>
    <use x="1228.125" xlink:href="#DejaVuSans-73"/>
    <use x="1280.224609" xlink:href="#DejaVuSans-20"/>
    <use x="1312.011719" xlink:href="#DejaVuSans-6f"/>
    <use x="1373.193359" xlink:href="#DejaVuSans-66"/>
    <use x="1408.398438" xlink:href="#DejaVuSans-20"/>
    <use x="1440.185547" xlink:href="#DejaVuSans-74"/>
    <use x="1479.394531" xlink:href="#DejaVuSans-68"/>
    <use x="1542.773438" xlink:href="#DejaVuSans-65"/>
    <use x="1604.296875" xlink:href="#DejaVuSans-20"/>
    <use x="1636.083984" xlink:href="#DejaVuSans-64"/>
    <use x="1699.560547" xlink:href="#DejaVuSans-69"/>
    <use x="1727.34375" xlink:href="#DejaVuSans-66"/>
    <use x="1762.548828" xlink:href="#DejaVuSans-66"/>
    <use x="1797.753906" xlink:href="#DejaVuSans-65"/>
    <use x="1859.277344" xlink:href="#DejaVuSans-72"/>
    <use x="1900.359375" xlink:href="#DejaVuSans-65"/>
    <use x="1961.882812" xlink:href="#DejaVuSans-6e"/>
    <use x="2025.261719" xlink:href="#DejaVuSans-74"/>
    <use x="2064.470703" xlink:href="#DejaVuSans-20"/>
    <use x="2096.257812" xlink:href="#DejaVuSans-63"/>
    <use x="2151.238281" xlink:href="#DejaVuSans-68"/>
    <use x="2214.617188" xlink:href="#DejaVuSans-75"/>
    <use x="2277.996094" xlink:href="#DejaVuSans-6e"/>
    <use x="2341.375" xlink:href="#DejaVuSans-6b"/>
    <use x="2399.285156" xlink:href="#DejaVuSans-20"/>
    <use x="2431.072266" xlink:href="#DejaVuSans-73"/>
    <use x="2483.171875" xlink:href="#DejaVuSans-69"/>
    <use x="2510.955078" xlink:href="#DejaVuSans-7a"/>
    <use x="2563.445312" xlink:href="#DejaVuSans-65"/>
    <use x="2624.96875" xlink:href="#DejaVuSans-73"/>
    <use x="2677.068359" xlink:href="#DejaVuSans-20"/>
    <use x="2708.855469" xlink:href="#DejaVuSans-6f"/>
    <use x="2770.037109" xlink:href="#DejaVuSans-66"/>
    <use x="2805.242188" xlink:href="#DejaVuSans-20"/>
    <use x="2837.029297" xlink:href="#DejaVuSans-64"/>
    <use x="2900.505859" xlink:href="#DejaVuSans-6f"/>
    <use x="2961.6875" xlink:href="#DejaVuSans-63"/>
    <use x="3016.667969" xlink:href="#DejaVuSans-75"/>
    <use x="3080.046875" xlink:href="#DejaVuSans-6d"/>
    <use x="3177.458984" xlink:href="#DejaVuSans-65"/>
    <use x="3238.982422" xlink:href="#DejaVuSans-6e"/>
    <use x="3302.361328" xlink:href="#DejaVuSans-74"/>
    <use x="3341.570312" xlink:href="#DejaVuSans-20"/>
    <use x="3373.357422" xlink:href="#DejaVuSans-64"/>
    <use x="3436.833984" xlink:href="#DejaVuSans-65"/>
    <use x="3498.357422" xlink:href="#DejaVuSans-31"/>
    <use x="3561.980469" xlink:href="#DejaVuSans-31"/>
    <use x="3625.603516" xlink:href="#DejaVuSans-38"/>
    <use x="3689.226562" xlink:href="#DejaVuSans-36"/>
    <use x="3752.849609" xlink:href="#DejaVuSans-32"/>
    <use x="3816.472656" xlink:href="#DejaVuSans-37"/>
    <use x="3880.095703" xlink:href="#DejaVuSans-34"/>
    <use x="3943.71875" xlink:href="#DejaVuSans-39"/>
    <use x="4007.341797" xlink:href="#DejaVuSans-33"/>
    <use x="4070.964844" xlink:href="#DejaVuSans-2e"/>
    <use x="4102.751953" xlink:href="#DejaVuSans-74"/>
    <use x="4141.960938" xlink:href="#DejaVuSans-78"/>
    <use x="4201.140625" xlink:href="#DejaVuSans-74"/>
   </g>
  </g>
 </g>
 <defs>
  <clipPath id="p3be7410801">
   <rect height="388.08" width="781.2" x="126" y="60.48"/>
  </clipPath>
 </defs>
</svg>
