<?xml version="1.0" encoding="utf-8" standalone="no"?>
<!DOCTYPE svg PUBLIC "-//W3C//DTD SVG 1.1//EN"
  "http://www.w3.org/Graphics/SVG/1.1/DTD/svg11.dtd">
<!-- Created with matplotlib (https://matplotlib.org/) -->
<svg height="563.248125pt" version="1.1" viewBox="0 0 857.703125 563.248125" width="857.703125pt" xmlns="http://www.w3.org/2000/svg" xmlns:xlink="http://www.w3.org/1999/xlink">
 <defs>
  <style type="text/css">
*{stroke-linecap:butt;stroke-linejoin:round;}
  </style>
 </defs>
 <g id="figure_1">
  <g id="patch_1">
   <path d="M 0 563.248125 
L 857.703125 563.248125 
L 857.703125 0 
L 0 0 
z
" style="fill:#ffffff;"/>
  </g>
  <g id="axes_1">
   <g id="patch_2">
    <path d="M 40.603125 425.52 
L 847.003125 425.52 
L 847.003125 47.52 
L 40.603125 47.52 
z
" style="fill:#ffffff;"/>
   </g>
   <g id="matplotlib.axis_1">
    <g id="xtick_1">
     <g id="line2d_1">
      <path clip-path="url(#p0c48a4b6f3)" d="M 67.483125 425.52 
L 67.483125 47.52 
" style="fill:none;stroke:#b0b0b0;stroke-linecap:square;stroke-width:0.8;"/>
     </g>
     <g id="line2d_2">
      <defs>
       <path d="M 0 0 
L 0 3.5 
" id="m40c9215b0b" style="stroke:#000000;stroke-width:0.8;"/>
      </defs>
      <g>
       <use style="stroke:#000000;stroke-width:0.8;" x="67.483125" xlink:href="#m40c9215b0b" y="425.52"/>
      </g>
     </g>
     <g id="text_1">
      <!-- aff-case/9514020.txt -->
      <defs>
       <path d="M 34.28125 27.484375 
Q 23.390625 27.484375 19.1875 25 
Q 14.984375 22.515625 14.984375 16.5 
Q 14.984375 11.71875 18.140625 8.90625 
Q 21.296875 6.109375 26.703125 6.109375 
Q 34.1875 6.109375 38.703125 11.40625 
Q 43.21875 16.703125 43.21875 25.484375 
L 43.21875 27.484375 
z
M 52.203125 31.203125 
L 52.203125 0 
L 43.21875 0 
L 43.21875 8.296875 
Q 40.140625 3.328125 35.546875 0.953125 
Q 30.953125 -1.421875 24.3125 -1.421875 
Q 15.921875 -1.421875 10.953125 3.296875 
Q 6 8.015625 6 15.921875 
Q 6 25.140625 12.171875 29.828125 
Q 18.359375 34.515625 30.609375 34.515625 
L 43.21875 34.515625 
L 43.21875 35.40625 
Q 43.21875 41.609375 39.140625 45 
Q 35.0625 48.390625 27.6875 48.390625 
Q 23 48.390625 18.546875 47.265625 
Q 14.109375 46.140625 10.015625 43.890625 
L 10.015625 52.203125 
Q 14.9375 54.109375 19.578125 55.046875 
Q 24.21875 56 28.609375 56 
Q 40.484375 56 46.34375 49.84375 
Q 52.203125 43.703125 52.203125 31.203125 
z
" id="DejaVuSans-97"/>
       <path d="M 37.109375 75.984375 
L 37.109375 68.5 
L 28.515625 68.5 
Q 23.6875 68.5 21.796875 66.546875 
Q 19.921875 64.59375 19.921875 59.515625 
L 19.921875 54.6875 
L 34.71875 54.6875 
L 34.71875 47.703125 
L 19.921875 47.703125 
L 19.921875 0 
L 10.890625 0 
L 10.890625 47.703125 
L 2.296875 47.703125 
L 2.296875 54.6875 
L 10.890625 54.6875 
L 10.890625 58.5 
Q 10.890625 67.625 15.140625 71.796875 
Q 19.390625 75.984375 28.609375 75.984375 
z
" id="DejaVuSans-102"/>
       <path d="M 4.890625 31.390625 
L 31.203125 31.390625 
L 31.203125 23.390625 
L 4.890625 23.390625 
z
" id="DejaVuSans-45"/>
       <path d="M 48.78125 52.59375 
L 48.78125 44.1875 
Q 44.96875 46.296875 41.140625 47.34375 
Q 37.3125 48.390625 33.40625 48.390625 
Q 24.65625 48.390625 19.8125 42.84375 
Q 14.984375 37.3125 14.984375 27.296875 
Q 14.984375 17.28125 19.8125 11.734375 
Q 24.65625 6.203125 33.40625 6.203125 
Q 37.3125 6.203125 41.140625 7.25 
Q 44.96875 8.296875 48.78125 10.40625 
L 48.78125 2.09375 
Q 45.015625 0.34375 40.984375 -0.53125 
Q 36.96875 -1.421875 32.421875 -1.421875 
Q 20.0625 -1.421875 12.78125 6.34375 
Q 5.515625 14.109375 5.515625 27.296875 
Q 5.515625 40.671875 12.859375 48.328125 
Q 20.21875 56 33.015625 56 
Q 37.15625 56 41.109375 55.140625 
Q 45.0625 54.296875 48.78125 52.59375 
z
" id="DejaVuSans-99"/>
       <path d="M 44.28125 53.078125 
L 44.28125 44.578125 
Q 40.484375 46.53125 36.375 47.5 
Q 32.28125 48.484375 27.875 48.484375 
Q 21.1875 48.484375 17.84375 46.4375 
Q 14.5 44.390625 14.5 40.28125 
Q 14.5 37.15625 16.890625 35.375 
Q 19.28125 33.59375 26.515625 31.984375 
L 29.59375 31.296875 
Q 39.15625 29.25 43.1875 25.515625 
Q 47.21875 21.78125 47.21875 15.09375 
Q 47.21875 7.46875 41.1875 3.015625 
Q 35.15625 -1.421875 24.609375 -1.421875 
Q 20.21875 -1.421875 15.453125 -0.5625 
Q 10.6875 0.296875 5.421875 2 
L 5.421875 11.28125 
Q 10.40625 8.6875 15.234375 7.390625 
Q 20.0625 6.109375 24.8125 6.109375 
Q 31.15625 6.109375 34.5625 8.28125 
Q 37.984375 10.453125 37.984375 14.40625 
Q 37.984375 18.0625 35.515625 20.015625 
Q 33.0625 21.96875 24.703125 23.78125 
L 21.578125 24.515625 
Q 13.234375 26.265625 9.515625 29.90625 
Q 5.8125 33.546875 5.8125 39.890625 
Q 5.8125 47.609375 11.28125 51.796875 
Q 16.75 56 26.8125 56 
Q 31.78125 56 36.171875 55.265625 
Q 40.578125 54.546875 44.28125 53.078125 
z
" id="DejaVuSans-115"/>
       <path d="M 56.203125 29.59375 
L 56.203125 25.203125 
L 14.890625 25.203125 
Q 15.484375 15.921875 20.484375 11.0625 
Q 25.484375 6.203125 34.421875 6.203125 
Q 39.59375 6.203125 44.453125 7.46875 
Q 49.3125 8.734375 54.109375 11.28125 
L 54.109375 2.78125 
Q 49.265625 0.734375 44.1875 -0.34375 
Q 39.109375 -1.421875 33.890625 -1.421875 
Q 20.796875 -1.421875 13.15625 6.1875 
Q 5.515625 13.8125 5.515625 26.8125 
Q 5.515625 40.234375 12.765625 48.109375 
Q 20.015625 56 32.328125 56 
Q 43.359375 56 49.78125 48.890625 
Q 56.203125 41.796875 56.203125 29.59375 
z
M 47.21875 32.234375 
Q 47.125 39.59375 43.09375 43.984375 
Q 39.0625 48.390625 32.421875 48.390625 
Q 24.90625 48.390625 20.390625 44.140625 
Q 15.875 39.890625 15.1875 32.171875 
z
" id="DejaVuSans-101"/>
       <path d="M 25.390625 72.90625 
L 33.6875 72.90625 
L 8.296875 -9.28125 
L 0 -9.28125 
z
" id="DejaVuSans-47"/>
       <path d="M 10.984375 1.515625 
L 10.984375 10.5 
Q 14.703125 8.734375 18.5 7.8125 
Q 22.3125 6.890625 25.984375 6.890625 
Q 35.75 6.890625 40.890625 13.453125 
Q 46.046875 20.015625 46.78125 33.40625 
Q 43.953125 29.203125 39.59375 26.953125 
Q 35.25 24.703125 29.984375 24.703125 
Q 19.046875 24.703125 12.671875 31.3125 
Q 6.296875 37.9375 6.296875 49.421875 
Q 6.296875 60.640625 12.9375 67.421875 
Q 19.578125 74.21875 30.609375 74.21875 
Q 43.265625 74.21875 49.921875 64.515625 
Q 56.59375 54.828125 56.59375 36.375 
Q 56.59375 19.140625 48.40625 8.859375 
Q 40.234375 -1.421875 26.421875 -1.421875 
Q 22.703125 -1.421875 18.890625 -0.6875 
Q 15.09375 0.046875 10.984375 1.515625 
z
M 30.609375 32.421875 
Q 37.25 32.421875 41.125 36.953125 
Q 45.015625 41.5 45.015625 49.421875 
Q 45.015625 57.28125 41.125 61.84375 
Q 37.25 66.40625 30.609375 66.40625 
Q 23.96875 66.40625 20.09375 61.84375 
Q 16.21875 57.28125 16.21875 49.421875 
Q 16.21875 41.5 20.09375 36.953125 
Q 23.96875 32.421875 30.609375 32.421875 
z
" id="DejaVuSans-57"/>
       <path d="M 10.796875 72.90625 
L 49.515625 72.90625 
L 49.515625 64.59375 
L 19.828125 64.59375 
L 19.828125 46.734375 
Q 21.96875 47.46875 24.109375 47.828125 
Q 26.265625 48.1875 28.421875 48.1875 
Q 40.625 48.1875 47.75 41.5 
Q 54.890625 34.8125 54.890625 23.390625 
Q 54.890625 11.625 47.5625 5.09375 
Q 40.234375 -1.421875 26.90625 -1.421875 
Q 22.3125 -1.421875 17.546875 -0.640625 
Q 12.796875 0.140625 7.71875 1.703125 
L 7.71875 11.625 
Q 12.109375 9.234375 16.796875 8.0625 
Q 21.484375 6.890625 26.703125 6.890625 
Q 35.15625 6.890625 40.078125 11.328125 
Q 45.015625 15.765625 45.015625 23.390625 
Q 45.015625 31 40.078125 35.4375 
Q 35.15625 39.890625 26.703125 39.890625 
Q 22.75 39.890625 18.8125 39.015625 
Q 14.890625 38.140625 10.796875 36.28125 
z
" id="DejaVuSans-53"/>
       <path d="M 12.40625 8.296875 
L 28.515625 8.296875 
L 28.515625 63.921875 
L 10.984375 60.40625 
L 10.984375 69.390625 
L 28.421875 72.90625 
L 38.28125 72.90625 
L 38.28125 8.296875 
L 54.390625 8.296875 
L 54.390625 0 
L 12.40625 0 
z
" id="DejaVuSans-49"/>
       <path d="M 37.796875 64.3125 
L 12.890625 25.390625 
L 37.796875 25.390625 
z
M 35.203125 72.90625 
L 47.609375 72.90625 
L 47.609375 25.390625 
L 58.015625 25.390625 
L 58.015625 17.1875 
L 47.609375 17.1875 
L 47.609375 0 
L 37.796875 0 
L 37.796875 17.1875 
L 4.890625 17.1875 
L 4.890625 26.703125 
z
" id="DejaVuSans-52"/>
       <path d="M 31.78125 66.40625 
Q 24.171875 66.40625 20.328125 58.90625 
Q 16.5 51.421875 16.5 36.375 
Q 16.5 21.390625 20.328125 13.890625 
Q 24.171875 6.390625 31.78125 6.390625 
Q 39.453125 6.390625 43.28125 13.890625 
Q 47.125 21.390625 47.125 36.375 
Q 47.125 51.421875 43.28125 58.90625 
Q 39.453125 66.40625 31.78125 66.40625 
z
M 31.78125 74.21875 
Q 44.046875 74.21875 50.515625 64.515625 
Q 56.984375 54.828125 56.984375 36.375 
Q 56.984375 17.96875 50.515625 8.265625 
Q 44.046875 -1.421875 31.78125 -1.421875 
Q 19.53125 -1.421875 13.0625 8.265625 
Q 6.59375 17.96875 6.59375 36.375 
Q 6.59375 54.828125 13.0625 64.515625 
Q 19.53125 74.21875 31.78125 74.21875 
z
" id="DejaVuSans-48"/>
       <path d="M 19.1875 8.296875 
L 53.609375 8.296875 
L 53.609375 0 
L 7.328125 0 
L 7.328125 8.296875 
Q 12.9375 14.109375 22.625 23.890625 
Q 32.328125 33.6875 34.8125 36.53125 
Q 39.546875 41.84375 41.421875 45.53125 
Q 43.3125 49.21875 43.3125 52.78125 
Q 43.3125 58.59375 39.234375 62.25 
Q 35.15625 65.921875 28.609375 65.921875 
Q 23.96875 65.921875 18.8125 64.3125 
Q 13.671875 62.703125 7.8125 59.421875 
L 7.8125 69.390625 
Q 13.765625 71.78125 18.9375 73 
Q 24.125 74.21875 28.421875 74.21875 
Q 39.75 74.21875 46.484375 68.546875 
Q 53.21875 62.890625 53.21875 53.421875 
Q 53.21875 48.921875 51.53125 44.890625 
Q 49.859375 40.875 45.40625 35.40625 
Q 44.1875 33.984375 37.640625 27.21875 
Q 31.109375 20.453125 19.1875 8.296875 
z
" id="DejaVuSans-50"/>
       <path d="M 10.6875 12.40625 
L 21 12.40625 
L 21 0 
L 10.6875 0 
z
" id="DejaVuSans-46"/>
       <path d="M 18.3125 70.21875 
L 18.3125 54.6875 
L 36.8125 54.6875 
L 36.8125 47.703125 
L 18.3125 47.703125 
L 18.3125 18.015625 
Q 18.3125 11.328125 20.140625 9.421875 
Q 21.96875 7.515625 27.59375 7.515625 
L 36.8125 7.515625 
L 36.8125 0 
L 27.59375 0 
Q 17.1875 0 13.234375 3.875 
Q 9.28125 7.765625 9.28125 18.015625 
L 9.28125 47.703125 
L 2.6875 47.703125 
L 2.6875 54.6875 
L 9.28125 54.6875 
L 9.28125 70.21875 
z
" id="DejaVuSans-116"/>
       <path d="M 54.890625 54.6875 
L 35.109375 28.078125 
L 55.90625 0 
L 45.3125 0 
L 29.390625 21.484375 
L 13.484375 0 
L 2.875 0 
L 24.125 28.609375 
L 4.6875 54.6875 
L 15.28125 54.6875 
L 29.78125 35.203125 
L 44.28125 54.6875 
z
" id="DejaVuSans-120"/>
      </defs>
      <g transform="translate(70.2425 537.121562)rotate(-90)scale(0.1 -0.1)">
       <use xlink:href="#DejaVuSans-97"/>
       <use x="61.279297" xlink:href="#DejaVuSans-102"/>
       <use x="96.484375" xlink:href="#DejaVuSans-102"/>
       <use x="131.611328" xlink:href="#DejaVuSans-45"/>
       <use x="167.695312" xlink:href="#DejaVuSans-99"/>
       <use x="222.675781" xlink:href="#DejaVuSans-97"/>
       <use x="283.955078" xlink:href="#DejaVuSans-115"/>
       <use x="336.054688" xlink:href="#DejaVuSans-101"/>
       <use x="397.578125" xlink:href="#DejaVuSans-47"/>
       <use x="431.269531" xlink:href="#DejaVuSans-57"/>
       <use x="494.892578" xlink:href="#DejaVuSans-53"/>
       <use x="558.515625" xlink:href="#DejaVuSans-49"/>
       <use x="622.138672" xlink:href="#DejaVuSans-52"/>
       <use x="685.761719" xlink:href="#DejaVuSans-48"/>
       <use x="749.384766" xlink:href="#DejaVuSans-50"/>
       <use x="813.007812" xlink:href="#DejaVuSans-48"/>
       <use x="876.630859" xlink:href="#DejaVuSans-46"/>
       <use x="908.417969" xlink:href="#DejaVuSans-116"/>
       <use x="947.626953" xlink:href="#DejaVuSans-120"/>
       <use x="1006.806641" xlink:href="#DejaVuSans-116"/>
      </g>
     </g>
    </g>
    <g id="xtick_2">
     <g id="line2d_3">
      <path clip-path="url(#p0c48a4b6f3)" d="M 121.243125 425.52 
L 121.243125 47.52 
" style="fill:none;stroke:#b0b0b0;stroke-linecap:square;stroke-width:0.8;"/>
     </g>
     <g id="line2d_4">
      <g>
       <use style="stroke:#000000;stroke-width:0.8;" x="121.243125" xlink:href="#m40c9215b0b" y="425.52"/>
      </g>
     </g>
     <g id="text_2">
      <!-- aff-case/9526685.txt -->
      <defs>
       <path d="M 33.015625 40.375 
Q 26.375 40.375 22.484375 35.828125 
Q 18.609375 31.296875 18.609375 23.390625 
Q 18.609375 15.53125 22.484375 10.953125 
Q 26.375 6.390625 33.015625 6.390625 
Q 39.65625 6.390625 43.53125 10.953125 
Q 47.40625 15.53125 47.40625 23.390625 
Q 47.40625 31.296875 43.53125 35.828125 
Q 39.65625 40.375 33.015625 40.375 
z
M 52.59375 71.296875 
L 52.59375 62.3125 
Q 48.875 64.0625 45.09375 64.984375 
Q 41.3125 65.921875 37.59375 65.921875 
Q 27.828125 65.921875 22.671875 59.328125 
Q 17.53125 52.734375 16.796875 39.40625 
Q 19.671875 43.65625 24.015625 45.921875 
Q 28.375 48.1875 33.59375 48.1875 
Q 44.578125 48.1875 50.953125 41.515625 
Q 57.328125 34.859375 57.328125 23.390625 
Q 57.328125 12.15625 50.6875 5.359375 
Q 44.046875 -1.421875 33.015625 -1.421875 
Q 20.359375 -1.421875 13.671875 8.265625 
Q 6.984375 17.96875 6.984375 36.375 
Q 6.984375 53.65625 15.1875 63.9375 
Q 23.390625 74.21875 37.203125 74.21875 
Q 40.921875 74.21875 44.703125 73.484375 
Q 48.484375 72.75 52.59375 71.296875 
z
" id="DejaVuSans-54"/>
       <path d="M 31.78125 34.625 
Q 24.75 34.625 20.71875 30.859375 
Q 16.703125 27.09375 16.703125 20.515625 
Q 16.703125 13.921875 20.71875 10.15625 
Q 24.75 6.390625 31.78125 6.390625 
Q 38.8125 6.390625 42.859375 10.171875 
Q 46.921875 13.96875 46.921875 20.515625 
Q 46.921875 27.09375 42.890625 30.859375 
Q 38.875 34.625 31.78125 34.625 
z
M 21.921875 38.8125 
Q 15.578125 40.375 12.03125 44.71875 
Q 8.5 49.078125 8.5 55.328125 
Q 8.5 64.0625 14.71875 69.140625 
Q 20.953125 74.21875 31.78125 74.21875 
Q 42.671875 74.21875 48.875 69.140625 
Q 55.078125 64.0625 55.078125 55.328125 
Q 55.078125 49.078125 51.53125 44.71875 
Q 48 40.375 41.703125 38.8125 
Q 48.828125 37.15625 52.796875 32.3125 
Q 56.78125 27.484375 56.78125 20.515625 
Q 56.78125 9.90625 50.3125 4.234375 
Q 43.84375 -1.421875 31.78125 -1.421875 
Q 19.734375 -1.421875 13.25 4.234375 
Q 6.78125 9.90625 6.78125 20.515625 
Q 6.78125 27.484375 10.78125 32.3125 
Q 14.796875 37.15625 21.921875 38.8125 
z
M 18.3125 54.390625 
Q 18.3125 48.734375 21.84375 45.5625 
Q 25.390625 42.390625 31.78125 42.390625 
Q 38.140625 42.390625 41.71875 45.5625 
Q 45.3125 48.734375 45.3125 54.390625 
Q 45.3125 60.0625 41.71875 63.234375 
Q 38.140625 66.40625 31.78125 66.40625 
Q 25.390625 66.40625 21.84375 63.234375 
Q 18.3125 60.0625 18.3125 54.390625 
z
" id="DejaVuSans-56"/>
      </defs>
      <g transform="translate(124.0025 537.121562)rotate(-90)scale(0.1 -0.1)">
       <use xlink:href="#DejaVuSans-97"/>
       <use x="61.279297" xlink:href="#DejaVuSans-102"/>
       <use x="96.484375" xlink:href="#DejaVuSans-102"/>
       <use x="131.611328" xlink:href="#DejaVuSans-45"/>
       <use x="167.695312" xlink:href="#DejaVuSans-99"/>
       <use x="222.675781" xlink:href="#DejaVuSans-97"/>
       <use x="283.955078" xlink:href="#DejaVuSans-115"/>
       <use x="336.054688" xlink:href="#DejaVuSans-101"/>
       <use x="397.578125" xlink:href="#DejaVuSans-47"/>
       <use x="431.269531" xlink:href="#DejaVuSans-57"/>
       <use x="494.892578" xlink:href="#DejaVuSans-53"/>
       <use x="558.515625" xlink:href="#DejaVuSans-50"/>
       <use x="622.138672" xlink:href="#DejaVuSans-54"/>
       <use x="685.761719" xlink:href="#DejaVuSans-54"/>
       <use x="749.384766" xlink:href="#DejaVuSans-56"/>
       <use x="813.007812" xlink:href="#DejaVuSans-53"/>
       <use x="876.630859" xlink:href="#DejaVuSans-46"/>
       <use x="908.417969" xlink:href="#DejaVuSans-116"/>
       <use x="947.626953" xlink:href="#DejaVuSans-120"/>
       <use x="1006.806641" xlink:href="#DejaVuSans-116"/>
      </g>
     </g>
    </g>
    <g id="xtick_3">
     <g id="line2d_5">
      <path clip-path="url(#p0c48a4b6f3)" d="M 175.003125 425.52 
L 175.003125 47.52 
" style="fill:none;stroke:#b0b0b0;stroke-linecap:square;stroke-width:0.8;"/>
     </g>
     <g id="line2d_6">
      <g>
       <use style="stroke:#000000;stroke-width:0.8;" x="175.003125" xlink:href="#m40c9215b0b" y="425.52"/>
      </g>
     </g>
     <g id="text_3">
      <!-- aff-case/9531446.txt -->
      <defs>
       <path d="M 40.578125 39.3125 
Q 47.65625 37.796875 51.625 33 
Q 55.609375 28.21875 55.609375 21.1875 
Q 55.609375 10.40625 48.1875 4.484375 
Q 40.765625 -1.421875 27.09375 -1.421875 
Q 22.515625 -1.421875 17.65625 -0.515625 
Q 12.796875 0.390625 7.625 2.203125 
L 7.625 11.71875 
Q 11.71875 9.328125 16.59375 8.109375 
Q 21.484375 6.890625 26.8125 6.890625 
Q 36.078125 6.890625 40.9375 10.546875 
Q 45.796875 14.203125 45.796875 21.1875 
Q 45.796875 27.640625 41.28125 31.265625 
Q 36.765625 34.90625 28.71875 34.90625 
L 20.21875 34.90625 
L 20.21875 43.015625 
L 29.109375 43.015625 
Q 36.375 43.015625 40.234375 45.921875 
Q 44.09375 48.828125 44.09375 54.296875 
Q 44.09375 59.90625 40.109375 62.90625 
Q 36.140625 65.921875 28.71875 65.921875 
Q 24.65625 65.921875 20.015625 65.03125 
Q 15.375 64.15625 9.8125 62.3125 
L 9.8125 71.09375 
Q 15.4375 72.65625 20.34375 73.4375 
Q 25.25 74.21875 29.59375 74.21875 
Q 40.828125 74.21875 47.359375 69.109375 
Q 53.90625 64.015625 53.90625 55.328125 
Q 53.90625 49.265625 50.4375 45.09375 
Q 46.96875 40.921875 40.578125 39.3125 
z
" id="DejaVuSans-51"/>
      </defs>
      <g transform="translate(177.7625 537.121562)rotate(-90)scale(0.1 -0.1)">
       <use xlink:href="#DejaVuSans-97"/>
       <use x="61.279297" xlink:href="#DejaVuSans-102"/>
       <use x="96.484375" xlink:href="#DejaVuSans-102"/>
       <use x="131.611328" xlink:href="#DejaVuSans-45"/>
       <use x="167.695312" xlink:href="#DejaVuSans-99"/>
       <use x="222.675781" xlink:href="#DejaVuSans-97"/>
       <use x="283.955078" xlink:href="#DejaVuSans-115"/>
       <use x="336.054688" xlink:href="#DejaVuSans-101"/>
       <use x="397.578125" xlink:href="#DejaVuSans-47"/>
       <use x="431.269531" xlink:href="#DejaVuSans-57"/>
       <use x="494.892578" xlink:href="#DejaVuSans-53"/>
       <use x="558.515625" xlink:href="#DejaVuSans-51"/>
       <use x="622.138672" xlink:href="#DejaVuSans-49"/>
       <use x="685.761719" xlink:href="#DejaVuSans-52"/>
       <use x="749.384766" xlink:href="#DejaVuSans-52"/>
       <use x="813.007812" xlink:href="#DejaVuSans-54"/>
       <use x="876.630859" xlink:href="#DejaVuSans-46"/>
       <use x="908.417969" xlink:href="#DejaVuSans-116"/>
       <use x="947.626953" xlink:href="#DejaVuSans-120"/>
       <use x="1006.806641" xlink:href="#DejaVuSans-116"/>
      </g>
     </g>
    </g>
    <g id="xtick_4">
     <g id="line2d_7">
      <path clip-path="url(#p0c48a4b6f3)" d="M 228.763125 425.52 
L 228.763125 47.52 
" style="fill:none;stroke:#b0b0b0;stroke-linecap:square;stroke-width:0.8;"/>
     </g>
     <g id="line2d_8">
      <g>
       <use style="stroke:#000000;stroke-width:0.8;" x="228.763125" xlink:href="#m40c9215b0b" y="425.52"/>
      </g>
     </g>
     <g id="text_4">
      <!-- aff-case/9534163.txt -->
      <g transform="translate(231.5225 537.121562)rotate(-90)scale(0.1 -0.1)">
       <use xlink:href="#DejaVuSans-97"/>
       <use x="61.279297" xlink:href="#DejaVuSans-102"/>
       <use x="96.484375" xlink:href="#DejaVuSans-102"/>
       <use x="131.611328" xlink:href="#DejaVuSans-45"/>
       <use x="167.695312" xlink:href="#DejaVuSans-99"/>
       <use x="222.675781" xlink:href="#DejaVuSans-97"/>
       <use x="283.955078" xlink:href="#DejaVuSans-115"/>
       <use x="336.054688" xlink:href="#DejaVuSans-101"/>
       <use x="397.578125" xlink:href="#DejaVuSans-47"/>
       <use x="431.269531" xlink:href="#DejaVuSans-57"/>
       <use x="494.892578" xlink:href="#DejaVuSans-53"/>
       <use x="558.515625" xlink:href="#DejaVuSans-51"/>
       <use x="622.138672" xlink:href="#DejaVuSans-52"/>
       <use x="685.761719" xlink:href="#DejaVuSans-49"/>
       <use x="749.384766" xlink:href="#DejaVuSans-54"/>
       <use x="813.007812" xlink:href="#DejaVuSans-51"/>
       <use x="876.630859" xlink:href="#DejaVuSans-46"/>
       <use x="908.417969" xlink:href="#DejaVuSans-116"/>
       <use x="947.626953" xlink:href="#DejaVuSans-120"/>
       <use x="1006.806641" xlink:href="#DejaVuSans-116"/>
      </g>
     </g>
    </g>
    <g id="xtick_5">
     <g id="line2d_9">
      <path clip-path="url(#p0c48a4b6f3)" d="M 282.523125 425.52 
L 282.523125 47.52 
" style="fill:none;stroke:#b0b0b0;stroke-linecap:square;stroke-width:0.8;"/>
     </g>
     <g id="line2d_10">
      <g>
       <use style="stroke:#000000;stroke-width:0.8;" x="282.523125" xlink:href="#m40c9215b0b" y="425.52"/>
      </g>
     </g>
     <g id="text_5">
      <!-- aff-case/9534582.txt -->
      <g transform="translate(285.2825 537.121562)rotate(-90)scale(0.1 -0.1)">
       <use xlink:href="#DejaVuSans-97"/>
       <use x="61.279297" xlink:href="#DejaVuSans-102"/>
       <use x="96.484375" xlink:href="#DejaVuSans-102"/>
       <use x="131.611328" xlink:href="#DejaVuSans-45"/>
       <use x="167.695312" xlink:href="#DejaVuSans-99"/>
       <use x="222.675781" xlink:href="#DejaVuSans-97"/>
       <use x="283.955078" xlink:href="#DejaVuSans-115"/>
       <use x="336.054688" xlink:href="#DejaVuSans-101"/>
       <use x="397.578125" xlink:href="#DejaVuSans-47"/>
       <use x="431.269531" xlink:href="#DejaVuSans-57"/>
       <use x="494.892578" xlink:href="#DejaVuSans-53"/>
       <use x="558.515625" xlink:href="#DejaVuSans-51"/>
       <use x="622.138672" xlink:href="#DejaVuSans-52"/>
       <use x="685.761719" xlink:href="#DejaVuSans-53"/>
       <use x="749.384766" xlink:href="#DejaVuSans-56"/>
       <use x="813.007812" xlink:href="#DejaVuSans-50"/>
       <use x="876.630859" xlink:href="#DejaVuSans-46"/>
       <use x="908.417969" xlink:href="#DejaVuSans-116"/>
       <use x="947.626953" xlink:href="#DejaVuSans-120"/>
       <use x="1006.806641" xlink:href="#DejaVuSans-116"/>
      </g>
     </g>
    </g>
    <g id="xtick_6">
     <g id="line2d_11">
      <path clip-path="url(#p0c48a4b6f3)" d="M 336.283125 425.52 
L 336.283125 47.52 
" style="fill:none;stroke:#b0b0b0;stroke-linecap:square;stroke-width:0.8;"/>
     </g>
     <g id="line2d_12">
      <g>
       <use style="stroke:#000000;stroke-width:0.8;" x="336.283125" xlink:href="#m40c9215b0b" y="425.52"/>
      </g>
     </g>
     <g id="text_6">
      <!-- aff-case/9534864.txt -->
      <g transform="translate(339.0425 537.121562)rotate(-90)scale(0.1 -0.1)">
       <use xlink:href="#DejaVuSans-97"/>
       <use x="61.279297" xlink:href="#DejaVuSans-102"/>
       <use x="96.484375" xlink:href="#DejaVuSans-102"/>
       <use x="131.611328" xlink:href="#DejaVuSans-45"/>
       <use x="167.695312" xlink:href="#DejaVuSans-99"/>
       <use x="222.675781" xlink:href="#DejaVuSans-97"/>
       <use x="283.955078" xlink:href="#DejaVuSans-115"/>
       <use x="336.054688" xlink:href="#DejaVuSans-101"/>
       <use x="397.578125" xlink:href="#DejaVuSans-47"/>
       <use x="431.269531" xlink:href="#DejaVuSans-57"/>
       <use x="494.892578" xlink:href="#DejaVuSans-53"/>
       <use x="558.515625" xlink:href="#DejaVuSans-51"/>
       <use x="622.138672" xlink:href="#DejaVuSans-52"/>
       <use x="685.761719" xlink:href="#DejaVuSans-56"/>
       <use x="749.384766" xlink:href="#DejaVuSans-54"/>
       <use x="813.007812" xlink:href="#DejaVuSans-52"/>
       <use x="876.630859" xlink:href="#DejaVuSans-46"/>
       <use x="908.417969" xlink:href="#DejaVuSans-116"/>
       <use x="947.626953" xlink:href="#DejaVuSans-120"/>
       <use x="1006.806641" xlink:href="#DejaVuSans-116"/>
      </g>
     </g>
    </g>
    <g id="xtick_7">
     <g id="line2d_13">
      <path clip-path="url(#p0c48a4b6f3)" d="M 390.043125 425.52 
L 390.043125 47.52 
" style="fill:none;stroke:#b0b0b0;stroke-linecap:square;stroke-width:0.8;"/>
     </g>
     <g id="line2d_14">
      <g>
       <use style="stroke:#000000;stroke-width:0.8;" x="390.043125" xlink:href="#m40c9215b0b" y="425.52"/>
      </g>
     </g>
     <g id="text_7">
      <!-- aff-case/9535056.txt -->
      <g transform="translate(392.8025 537.121562)rotate(-90)scale(0.1 -0.1)">
       <use xlink:href="#DejaVuSans-97"/>
       <use x="61.279297" xlink:href="#DejaVuSans-102"/>
       <use x="96.484375" xlink:href="#DejaVuSans-102"/>
       <use x="131.611328" xlink:href="#DejaVuSans-45"/>
       <use x="167.695312" xlink:href="#DejaVuSans-99"/>
       <use x="222.675781" xlink:href="#DejaVuSans-97"/>
       <use x="283.955078" xlink:href="#DejaVuSans-115"/>
       <use x="336.054688" xlink:href="#DejaVuSans-101"/>
       <use x="397.578125" xlink:href="#DejaVuSans-47"/>
       <use x="431.269531" xlink:href="#DejaVuSans-57"/>
       <use x="494.892578" xlink:href="#DejaVuSans-53"/>
       <use x="558.515625" xlink:href="#DejaVuSans-51"/>
       <use x="622.138672" xlink:href="#DejaVuSans-53"/>
       <use x="685.761719" xlink:href="#DejaVuSans-48"/>
       <use x="749.384766" xlink:href="#DejaVuSans-53"/>
       <use x="813.007812" xlink:href="#DejaVuSans-54"/>
       <use x="876.630859" xlink:href="#DejaVuSans-46"/>
       <use x="908.417969" xlink:href="#DejaVuSans-116"/>
       <use x="947.626953" xlink:href="#DejaVuSans-120"/>
       <use x="1006.806641" xlink:href="#DejaVuSans-116"/>
      </g>
     </g>
    </g>
    <g id="xtick_8">
     <g id="line2d_15">
      <path clip-path="url(#p0c48a4b6f3)" d="M 443.803125 425.52 
L 443.803125 47.52 
" style="fill:none;stroke:#b0b0b0;stroke-linecap:square;stroke-width:0.8;"/>
     </g>
     <g id="line2d_16">
      <g>
       <use style="stroke:#000000;stroke-width:0.8;" x="443.803125" xlink:href="#m40c9215b0b" y="425.52"/>
      </g>
     </g>
     <g id="text_8">
      <!-- aff-case/9535252.txt -->
      <g transform="translate(446.5625 537.121562)rotate(-90)scale(0.1 -0.1)">
       <use xlink:href="#DejaVuSans-97"/>
       <use x="61.279297" xlink:href="#DejaVuSans-102"/>
       <use x="96.484375" xlink:href="#DejaVuSans-102"/>
       <use x="131.611328" xlink:href="#DejaVuSans-45"/>
       <use x="167.695312" xlink:href="#DejaVuSans-99"/>
       <use x="222.675781" xlink:href="#DejaVuSans-97"/>
       <use x="283.955078" xlink:href="#DejaVuSans-115"/>
       <use x="336.054688" xlink:href="#DejaVuSans-101"/>
       <use x="397.578125" xlink:href="#DejaVuSans-47"/>
       <use x="431.269531" xlink:href="#DejaVuSans-57"/>
       <use x="494.892578" xlink:href="#DejaVuSans-53"/>
       <use x="558.515625" xlink:href="#DejaVuSans-51"/>
       <use x="622.138672" xlink:href="#DejaVuSans-53"/>
       <use x="685.761719" xlink:href="#DejaVuSans-50"/>
       <use x="749.384766" xlink:href="#DejaVuSans-53"/>
       <use x="813.007812" xlink:href="#DejaVuSans-50"/>
       <use x="876.630859" xlink:href="#DejaVuSans-46"/>
       <use x="908.417969" xlink:href="#DejaVuSans-116"/>
       <use x="947.626953" xlink:href="#DejaVuSans-120"/>
       <use x="1006.806641" xlink:href="#DejaVuSans-116"/>
      </g>
     </g>
    </g>
    <g id="xtick_9">
     <g id="line2d_17">
      <path clip-path="url(#p0c48a4b6f3)" d="M 497.563125 425.52 
L 497.563125 47.52 
" style="fill:none;stroke:#b0b0b0;stroke-linecap:square;stroke-width:0.8;"/>
     </g>
     <g id="line2d_18">
      <g>
       <use style="stroke:#000000;stroke-width:0.8;" x="497.563125" xlink:href="#m40c9215b0b" y="425.52"/>
      </g>
     </g>
     <g id="text_9">
      <!-- aff-case/9535669.txt -->
      <g transform="translate(500.3225 537.121562)rotate(-90)scale(0.1 -0.1)">
       <use xlink:href="#DejaVuSans-97"/>
       <use x="61.279297" xlink:href="#DejaVuSans-102"/>
       <use x="96.484375" xlink:href="#DejaVuSans-102"/>
       <use x="131.611328" xlink:href="#DejaVuSans-45"/>
       <use x="167.695312" xlink:href="#DejaVuSans-99"/>
       <use x="222.675781" xlink:href="#DejaVuSans-97"/>
       <use x="283.955078" xlink:href="#DejaVuSans-115"/>
       <use x="336.054688" xlink:href="#DejaVuSans-101"/>
       <use x="397.578125" xlink:href="#DejaVuSans-47"/>
       <use x="431.269531" xlink:href="#DejaVuSans-57"/>
       <use x="494.892578" xlink:href="#DejaVuSans-53"/>
       <use x="558.515625" xlink:href="#DejaVuSans-51"/>
       <use x="622.138672" xlink:href="#DejaVuSans-53"/>
       <use x="685.761719" xlink:href="#DejaVuSans-54"/>
       <use x="749.384766" xlink:href="#DejaVuSans-54"/>
       <use x="813.007812" xlink:href="#DejaVuSans-57"/>
       <use x="876.630859" xlink:href="#DejaVuSans-46"/>
       <use x="908.417969" xlink:href="#DejaVuSans-116"/>
       <use x="947.626953" xlink:href="#DejaVuSans-120"/>
       <use x="1006.806641" xlink:href="#DejaVuSans-116"/>
      </g>
     </g>
    </g>
    <g id="xtick_10">
     <g id="line2d_19">
      <path clip-path="url(#p0c48a4b6f3)" d="M 551.323125 425.52 
L 551.323125 47.52 
" style="fill:none;stroke:#b0b0b0;stroke-linecap:square;stroke-width:0.8;"/>
     </g>
     <g id="line2d_20">
      <g>
       <use style="stroke:#000000;stroke-width:0.8;" x="551.323125" xlink:href="#m40c9215b0b" y="425.52"/>
      </g>
     </g>
     <g id="text_10">
      <!-- aff-case/9536298.txt -->
      <g transform="translate(554.0825 537.121562)rotate(-90)scale(0.1 -0.1)">
       <use xlink:href="#DejaVuSans-97"/>
       <use x="61.279297" xlink:href="#DejaVuSans-102"/>
       <use x="96.484375" xlink:href="#DejaVuSans-102"/>
       <use x="131.611328" xlink:href="#DejaVuSans-45"/>
       <use x="167.695312" xlink:href="#DejaVuSans-99"/>
       <use x="222.675781" xlink:href="#DejaVuSans-97"/>
       <use x="283.955078" xlink:href="#DejaVuSans-115"/>
       <use x="336.054688" xlink:href="#DejaVuSans-101"/>
       <use x="397.578125" xlink:href="#DejaVuSans-47"/>
       <use x="431.269531" xlink:href="#DejaVuSans-57"/>
       <use x="494.892578" xlink:href="#DejaVuSans-53"/>
       <use x="558.515625" xlink:href="#DejaVuSans-51"/>
       <use x="622.138672" xlink:href="#DejaVuSans-54"/>
       <use x="685.761719" xlink:href="#DejaVuSans-50"/>
       <use x="749.384766" xlink:href="#DejaVuSans-57"/>
       <use x="813.007812" xlink:href="#DejaVuSans-56"/>
       <use x="876.630859" xlink:href="#DejaVuSans-46"/>
       <use x="908.417969" xlink:href="#DejaVuSans-116"/>
       <use x="947.626953" xlink:href="#DejaVuSans-120"/>
       <use x="1006.806641" xlink:href="#DejaVuSans-116"/>
      </g>
     </g>
    </g>
    <g id="xtick_11">
     <g id="line2d_21">
      <path clip-path="url(#p0c48a4b6f3)" d="M 605.083125 425.52 
L 605.083125 47.52 
" style="fill:none;stroke:#b0b0b0;stroke-linecap:square;stroke-width:0.8;"/>
     </g>
     <g id="line2d_22">
      <g>
       <use style="stroke:#000000;stroke-width:0.8;" x="605.083125" xlink:href="#m40c9215b0b" y="425.52"/>
      </g>
     </g>
     <g id="text_11">
      <!-- aff-case/9536669z.txt -->
      <defs>
       <path d="M 5.515625 54.6875 
L 48.1875 54.6875 
L 48.1875 46.484375 
L 14.40625 7.171875 
L 48.1875 7.171875 
L 48.1875 0 
L 4.296875 0 
L 4.296875 8.203125 
L 38.09375 47.515625 
L 5.515625 47.515625 
z
" id="DejaVuSans-122"/>
      </defs>
      <g transform="translate(607.8425 542.37)rotate(-90)scale(0.1 -0.1)">
       <use xlink:href="#DejaVuSans-97"/>
       <use x="61.279297" xlink:href="#DejaVuSans-102"/>
       <use x="96.484375" xlink:href="#DejaVuSans-102"/>
       <use x="131.611328" xlink:href="#DejaVuSans-45"/>
       <use x="167.695312" xlink:href="#DejaVuSans-99"/>
       <use x="222.675781" xlink:href="#DejaVuSans-97"/>
       <use x="283.955078" xlink:href="#DejaVuSans-115"/>
       <use x="336.054688" xlink:href="#DejaVuSans-101"/>
       <use x="397.578125" xlink:href="#DejaVuSans-47"/>
       <use x="431.269531" xlink:href="#DejaVuSans-57"/>
       <use x="494.892578" xlink:href="#DejaVuSans-53"/>
       <use x="558.515625" xlink:href="#DejaVuSans-51"/>
       <use x="622.138672" xlink:href="#DejaVuSans-54"/>
       <use x="685.761719" xlink:href="#DejaVuSans-54"/>
       <use x="749.384766" xlink:href="#DejaVuSans-54"/>
       <use x="813.007812" xlink:href="#DejaVuSans-57"/>
       <use x="876.630859" xlink:href="#DejaVuSans-122"/>
       <use x="929.121094" xlink:href="#DejaVuSans-46"/>
       <use x="960.908203" xlink:href="#DejaVuSans-116"/>
       <use x="1000.117188" xlink:href="#DejaVuSans-120"/>
       <use x="1059.296875" xlink:href="#DejaVuSans-116"/>
      </g>
     </g>
    </g>
    <g id="xtick_12">
     <g id="line2d_23">
      <path clip-path="url(#p0c48a4b6f3)" d="M 658.843125 425.52 
L 658.843125 47.52 
" style="fill:none;stroke:#b0b0b0;stroke-linecap:square;stroke-width:0.8;"/>
     </g>
     <g id="line2d_24">
      <g>
       <use style="stroke:#000000;stroke-width:0.8;" x="658.843125" xlink:href="#m40c9215b0b" y="425.52"/>
      </g>
     </g>
     <g id="text_12">
      <!-- aff-case/9536689.txt -->
      <g transform="translate(661.6025 537.121562)rotate(-90)scale(0.1 -0.1)">
       <use xlink:href="#DejaVuSans-97"/>
       <use x="61.279297" xlink:href="#DejaVuSans-102"/>
       <use x="96.484375" xlink:href="#DejaVuSans-102"/>
       <use x="131.611328" xlink:href="#DejaVuSans-45"/>
       <use x="167.695312" xlink:href="#DejaVuSans-99"/>
       <use x="222.675781" xlink:href="#DejaVuSans-97"/>
       <use x="283.955078" xlink:href="#DejaVuSans-115"/>
       <use x="336.054688" xlink:href="#DejaVuSans-101"/>
       <use x="397.578125" xlink:href="#DejaVuSans-47"/>
       <use x="431.269531" xlink:href="#DejaVuSans-57"/>
       <use x="494.892578" xlink:href="#DejaVuSans-53"/>
       <use x="558.515625" xlink:href="#DejaVuSans-51"/>
       <use x="622.138672" xlink:href="#DejaVuSans-54"/>
       <use x="685.761719" xlink:href="#DejaVuSans-54"/>
       <use x="749.384766" xlink:href="#DejaVuSans-56"/>
       <use x="813.007812" xlink:href="#DejaVuSans-57"/>
       <use x="876.630859" xlink:href="#DejaVuSans-46"/>
       <use x="908.417969" xlink:href="#DejaVuSans-116"/>
       <use x="947.626953" xlink:href="#DejaVuSans-120"/>
       <use x="1006.806641" xlink:href="#DejaVuSans-116"/>
      </g>
     </g>
    </g>
    <g id="xtick_13">
     <g id="line2d_25">
      <path clip-path="url(#p0c48a4b6f3)" d="M 712.603125 425.52 
L 712.603125 47.52 
" style="fill:none;stroke:#b0b0b0;stroke-linecap:square;stroke-width:0.8;"/>
     </g>
     <g id="line2d_26">
      <g>
       <use style="stroke:#000000;stroke-width:0.8;" x="712.603125" xlink:href="#m40c9215b0b" y="425.52"/>
      </g>
     </g>
     <g id="text_13">
      <!-- aff-case/9537480.txt -->
      <defs>
       <path d="M 8.203125 72.90625 
L 55.078125 72.90625 
L 55.078125 68.703125 
L 28.609375 0 
L 18.3125 0 
L 43.21875 64.59375 
L 8.203125 64.59375 
z
" id="DejaVuSans-55"/>
      </defs>
      <g transform="translate(715.3625 537.121562)rotate(-90)scale(0.1 -0.1)">
       <use xlink:href="#DejaVuSans-97"/>
       <use x="61.279297" xlink:href="#DejaVuSans-102"/>
       <use x="96.484375" xlink:href="#DejaVuSans-102"/>
       <use x="131.611328" xlink:href="#DejaVuSans-45"/>
       <use x="167.695312" xlink:href="#DejaVuSans-99"/>
       <use x="222.675781" xlink:href="#DejaVuSans-97"/>
       <use x="283.955078" xlink:href="#DejaVuSans-115"/>
       <use x="336.054688" xlink:href="#DejaVuSans-101"/>
       <use x="397.578125" xlink:href="#DejaVuSans-47"/>
       <use x="431.269531" xlink:href="#DejaVuSans-57"/>
       <use x="494.892578" xlink:href="#DejaVuSans-53"/>
       <use x="558.515625" xlink:href="#DejaVuSans-51"/>
       <use x="622.138672" xlink:href="#DejaVuSans-55"/>
       <use x="685.761719" xlink:href="#DejaVuSans-52"/>
       <use x="749.384766" xlink:href="#DejaVuSans-56"/>
       <use x="813.007812" xlink:href="#DejaVuSans-48"/>
       <use x="876.630859" xlink:href="#DejaVuSans-46"/>
       <use x="908.417969" xlink:href="#DejaVuSans-116"/>
       <use x="947.626953" xlink:href="#DejaVuSans-120"/>
       <use x="1006.806641" xlink:href="#DejaVuSans-116"/>
      </g>
     </g>
    </g>
    <g id="xtick_14">
     <g id="line2d_27">
      <path clip-path="url(#p0c48a4b6f3)" d="M 766.363125 425.52 
L 766.363125 47.52 
" style="fill:none;stroke:#b0b0b0;stroke-linecap:square;stroke-width:0.8;"/>
     </g>
     <g id="line2d_28">
      <g>
       <use style="stroke:#000000;stroke-width:0.8;" x="766.363125" xlink:href="#m40c9215b0b" y="425.52"/>
      </g>
     </g>
     <g id="text_14">
      <!-- aff-case/9540664.txt -->
      <g transform="translate(769.1225 537.121562)rotate(-90)scale(0.1 -0.1)">
       <use xlink:href="#DejaVuSans-97"/>
       <use x="61.279297" xlink:href="#DejaVuSans-102"/>
       <use x="96.484375" xlink:href="#DejaVuSans-102"/>
       <use x="131.611328" xlink:href="#DejaVuSans-45"/>
       <use x="167.695312" xlink:href="#DejaVuSans-99"/>
       <use x="222.675781" xlink:href="#DejaVuSans-97"/>
       <use x="283.955078" xlink:href="#DejaVuSans-115"/>
       <use x="336.054688" xlink:href="#DejaVuSans-101"/>
       <use x="397.578125" xlink:href="#DejaVuSans-47"/>
       <use x="431.269531" xlink:href="#DejaVuSans-57"/>
       <use x="494.892578" xlink:href="#DejaVuSans-53"/>
       <use x="558.515625" xlink:href="#DejaVuSans-52"/>
       <use x="622.138672" xlink:href="#DejaVuSans-48"/>
       <use x="685.761719" xlink:href="#DejaVuSans-54"/>
       <use x="749.384766" xlink:href="#DejaVuSans-54"/>
       <use x="813.007812" xlink:href="#DejaVuSans-52"/>
       <use x="876.630859" xlink:href="#DejaVuSans-46"/>
       <use x="908.417969" xlink:href="#DejaVuSans-116"/>
       <use x="947.626953" xlink:href="#DejaVuSans-120"/>
       <use x="1006.806641" xlink:href="#DejaVuSans-116"/>
      </g>
     </g>
    </g>
    <g id="xtick_15">
     <g id="line2d_29">
      <path clip-path="url(#p0c48a4b6f3)" d="M 820.123125 425.52 
L 820.123125 47.52 
" style="fill:none;stroke:#b0b0b0;stroke-linecap:square;stroke-width:0.8;"/>
     </g>
     <g id="line2d_30">
      <g>
       <use style="stroke:#000000;stroke-width:0.8;" x="820.123125" xlink:href="#m40c9215b0b" y="425.52"/>
      </g>
     </g>
     <g id="text_15">
      <!-- aff-case/9565310.txt -->
      <g transform="translate(822.8825 537.121562)rotate(-90)scale(0.1 -0.1)">
       <use xlink:href="#DejaVuSans-97"/>
       <use x="61.279297" xlink:href="#DejaVuSans-102"/>
       <use x="96.484375" xlink:href="#DejaVuSans-102"/>
       <use x="131.611328" xlink:href="#DejaVuSans-45"/>
       <use x="167.695312" xlink:href="#DejaVuSans-99"/>
       <use x="222.675781" xlink:href="#DejaVuSans-97"/>
       <use x="283.955078" xlink:href="#DejaVuSans-115"/>
       <use x="336.054688" xlink:href="#DejaVuSans-101"/>
       <use x="397.578125" xlink:href="#DejaVuSans-47"/>
       <use x="431.269531" xlink:href="#DejaVuSans-57"/>
       <use x="494.892578" xlink:href="#DejaVuSans-53"/>
       <use x="558.515625" xlink:href="#DejaVuSans-54"/>
       <use x="622.138672" xlink:href="#DejaVuSans-53"/>
       <use x="685.761719" xlink:href="#DejaVuSans-51"/>
       <use x="749.384766" xlink:href="#DejaVuSans-49"/>
       <use x="813.007812" xlink:href="#DejaVuSans-48"/>
       <use x="876.630859" xlink:href="#DejaVuSans-46"/>
       <use x="908.417969" xlink:href="#DejaVuSans-116"/>
       <use x="947.626953" xlink:href="#DejaVuSans-120"/>
       <use x="1006.806641" xlink:href="#DejaVuSans-116"/>
      </g>
     </g>
    </g>
    <g id="text_16">
     <!-- document -->
     <defs>
      <path d="M 45.40625 46.390625 
L 45.40625 75.984375 
L 54.390625 75.984375 
L 54.390625 0 
L 45.40625 0 
L 45.40625 8.203125 
Q 42.578125 3.328125 38.25 0.953125 
Q 33.9375 -1.421875 27.875 -1.421875 
Q 17.96875 -1.421875 11.734375 6.484375 
Q 5.515625 14.40625 5.515625 27.296875 
Q 5.515625 40.1875 11.734375 48.09375 
Q 17.96875 56 27.875 56 
Q 33.9375 56 38.25 53.625 
Q 42.578125 51.265625 45.40625 46.390625 
z
M 14.796875 27.296875 
Q 14.796875 17.390625 18.875 11.75 
Q 22.953125 6.109375 30.078125 6.109375 
Q 37.203125 6.109375 41.296875 11.75 
Q 45.40625 17.390625 45.40625 27.296875 
Q 45.40625 37.203125 41.296875 42.84375 
Q 37.203125 48.484375 30.078125 48.484375 
Q 22.953125 48.484375 18.875 42.84375 
Q 14.796875 37.203125 14.796875 27.296875 
z
" id="DejaVuSans-100"/>
      <path d="M 30.609375 48.390625 
Q 23.390625 48.390625 19.1875 42.75 
Q 14.984375 37.109375 14.984375 27.296875 
Q 14.984375 17.484375 19.15625 11.84375 
Q 23.34375 6.203125 30.609375 6.203125 
Q 37.796875 6.203125 41.984375 11.859375 
Q 46.1875 17.53125 46.1875 27.296875 
Q 46.1875 37.015625 41.984375 42.703125 
Q 37.796875 48.390625 30.609375 48.390625 
z
M 30.609375 56 
Q 42.328125 56 49.015625 48.375 
Q 55.71875 40.765625 55.71875 27.296875 
Q 55.71875 13.875 49.015625 6.21875 
Q 42.328125 -1.421875 30.609375 -1.421875 
Q 18.84375 -1.421875 12.171875 6.21875 
Q 5.515625 13.875 5.515625 27.296875 
Q 5.515625 40.765625 12.171875 48.375 
Q 18.84375 56 30.609375 56 
z
" id="DejaVuSans-111"/>
      <path d="M 8.5 21.578125 
L 8.5 54.6875 
L 17.484375 54.6875 
L 17.484375 21.921875 
Q 17.484375 14.15625 20.5 10.265625 
Q 23.53125 6.390625 29.59375 6.390625 
Q 36.859375 6.390625 41.078125 11.03125 
Q 45.3125 15.671875 45.3125 23.6875 
L 45.3125 54.6875 
L 54.296875 54.6875 
L 54.296875 0 
L 45.3125 0 
L 45.3125 8.40625 
Q 42.046875 3.421875 37.71875 1 
Q 33.40625 -1.421875 27.6875 -1.421875 
Q 18.265625 -1.421875 13.375 4.4375 
Q 8.5 10.296875 8.5 21.578125 
z
M 31.109375 56 
z
" id="DejaVuSans-117"/>
      <path d="M 52 44.1875 
Q 55.375 50.25 60.0625 53.125 
Q 64.75 56 71.09375 56 
Q 79.640625 56 84.28125 50.015625 
Q 88.921875 44.046875 88.921875 33.015625 
L 88.921875 0 
L 79.890625 0 
L 79.890625 32.71875 
Q 79.890625 40.578125 77.09375 44.375 
Q 74.3125 48.1875 68.609375 48.1875 
Q 61.625 48.1875 57.5625 43.546875 
Q 53.515625 38.921875 53.515625 30.90625 
L 53.515625 0 
L 44.484375 0 
L 44.484375 32.71875 
Q 44.484375 40.625 41.703125 44.40625 
Q 38.921875 48.1875 33.109375 48.1875 
Q 26.21875 48.1875 22.15625 43.53125 
Q 18.109375 38.875 18.109375 30.90625 
L 18.109375 0 
L 9.078125 0 
L 9.078125 54.6875 
L 18.109375 54.6875 
L 18.109375 46.1875 
Q 21.1875 51.21875 25.484375 53.609375 
Q 29.78125 56 35.6875 56 
Q 41.65625 56 45.828125 52.96875 
Q 50 49.953125 52 44.1875 
z
" id="DejaVuSans-109"/>
      <path d="M 54.890625 33.015625 
L 54.890625 0 
L 45.90625 0 
L 45.90625 32.71875 
Q 45.90625 40.484375 42.875 44.328125 
Q 39.84375 48.1875 33.796875 48.1875 
Q 26.515625 48.1875 22.3125 43.546875 
Q 18.109375 38.921875 18.109375 30.90625 
L 18.109375 0 
L 9.078125 0 
L 9.078125 54.6875 
L 18.109375 54.6875 
L 18.109375 46.1875 
Q 21.34375 51.125 25.703125 53.5625 
Q 30.078125 56 35.796875 56 
Q 45.21875 56 50.046875 50.171875 
Q 54.890625 44.34375 54.890625 33.015625 
z
" id="DejaVuSans-110"/>
     </defs>
     <g transform="translate(418.575781 553.968437)scale(0.1 -0.1)">
      <use xlink:href="#DejaVuSans-100"/>
      <use x="63.476562" xlink:href="#DejaVuSans-111"/>
      <use x="124.658203" xlink:href="#DejaVuSans-99"/>
      <use x="179.638672" xlink:href="#DejaVuSans-117"/>
      <use x="243.017578" xlink:href="#DejaVuSans-109"/>
      <use x="340.429688" xlink:href="#DejaVuSans-101"/>
      <use x="401.953125" xlink:href="#DejaVuSans-110"/>
      <use x="465.332031" xlink:href="#DejaVuSans-116"/>
     </g>
    </g>
   </g>
   <g id="matplotlib.axis_2">
    <g id="ytick_1">
     <g id="line2d_31">
      <path clip-path="url(#p0c48a4b6f3)" d="M 40.603125 410.123273 
L 847.003125 410.123273 
" style="fill:none;stroke:#b0b0b0;stroke-linecap:square;stroke-width:0.8;"/>
     </g>
     <g id="line2d_32">
      <defs>
       <path d="M 0 0 
L -3.5 0 
" id="m7d871cf462" style="stroke:#000000;stroke-width:0.8;"/>
      </defs>
      <g>
       <use style="stroke:#000000;stroke-width:0.8;" x="40.603125" xlink:href="#m7d871cf462" y="410.123273"/>
      </g>
     </g>
     <g id="text_17">
      <!-- 8 -->
      <g transform="translate(27.240625 413.922492)scale(0.1 -0.1)">
       <use xlink:href="#DejaVuSans-56"/>
      </g>
     </g>
    </g>
    <g id="ytick_2">
     <g id="line2d_33">
      <path clip-path="url(#p0c48a4b6f3)" d="M 40.603125 346.822171 
L 847.003125 346.822171 
" style="fill:none;stroke:#b0b0b0;stroke-linecap:square;stroke-width:0.8;"/>
     </g>
     <g id="line2d_34">
      <g>
       <use style="stroke:#000000;stroke-width:0.8;" x="40.603125" xlink:href="#m7d871cf462" y="346.822171"/>
      </g>
     </g>
     <g id="text_18">
      <!-- 10 -->
      <g transform="translate(20.878125 350.621389)scale(0.1 -0.1)">
       <use xlink:href="#DejaVuSans-49"/>
       <use x="63.623047" xlink:href="#DejaVuSans-48"/>
      </g>
     </g>
    </g>
    <g id="ytick_3">
     <g id="line2d_35">
      <path clip-path="url(#p0c48a4b6f3)" d="M 40.603125 283.521068 
L 847.003125 283.521068 
" style="fill:none;stroke:#b0b0b0;stroke-linecap:square;stroke-width:0.8;"/>
     </g>
     <g id="line2d_36">
      <g>
       <use style="stroke:#000000;stroke-width:0.8;" x="40.603125" xlink:href="#m7d871cf462" y="283.521068"/>
      </g>
     </g>
     <g id="text_19">
      <!-- 12 -->
      <g transform="translate(20.878125 287.320287)scale(0.1 -0.1)">
       <use xlink:href="#DejaVuSans-49"/>
       <use x="63.623047" xlink:href="#DejaVuSans-50"/>
      </g>
     </g>
    </g>
    <g id="ytick_4">
     <g id="line2d_37">
      <path clip-path="url(#p0c48a4b6f3)" d="M 40.603125 220.219966 
L 847.003125 220.219966 
" style="fill:none;stroke:#b0b0b0;stroke-linecap:square;stroke-width:0.8;"/>
     </g>
     <g id="line2d_38">
      <g>
       <use style="stroke:#000000;stroke-width:0.8;" x="40.603125" xlink:href="#m7d871cf462" y="220.219966"/>
      </g>
     </g>
     <g id="text_20">
      <!-- 14 -->
      <g transform="translate(20.878125 224.019185)scale(0.1 -0.1)">
       <use xlink:href="#DejaVuSans-49"/>
       <use x="63.623047" xlink:href="#DejaVuSans-52"/>
      </g>
     </g>
    </g>
    <g id="ytick_5">
     <g id="line2d_39">
      <path clip-path="url(#p0c48a4b6f3)" d="M 40.603125 156.918864 
L 847.003125 156.918864 
" style="fill:none;stroke:#b0b0b0;stroke-linecap:square;stroke-width:0.8;"/>
     </g>
     <g id="line2d_40">
      <g>
       <use style="stroke:#000000;stroke-width:0.8;" x="40.603125" xlink:href="#m7d871cf462" y="156.918864"/>
      </g>
     </g>
     <g id="text_21">
      <!-- 16 -->
      <g transform="translate(20.878125 160.718083)scale(0.1 -0.1)">
       <use xlink:href="#DejaVuSans-49"/>
       <use x="63.623047" xlink:href="#DejaVuSans-54"/>
      </g>
     </g>
    </g>
    <g id="ytick_6">
     <g id="line2d_41">
      <path clip-path="url(#p0c48a4b6f3)" d="M 40.603125 93.617762 
L 847.003125 93.617762 
" style="fill:none;stroke:#b0b0b0;stroke-linecap:square;stroke-width:0.8;"/>
     </g>
     <g id="line2d_42">
      <g>
       <use style="stroke:#000000;stroke-width:0.8;" x="40.603125" xlink:href="#m7d871cf462" y="93.617762"/>
      </g>
     </g>
     <g id="text_22">
      <!-- 18 -->
      <g transform="translate(20.878125 97.41698)scale(0.1 -0.1)">
       <use xlink:href="#DejaVuSans-49"/>
       <use x="63.623047" xlink:href="#DejaVuSans-56"/>
      </g>
     </g>
    </g>
    <g id="text_23">
     <!-- GFI -->
     <defs>
      <path d="M 59.515625 10.40625 
L 59.515625 29.984375 
L 43.40625 29.984375 
L 43.40625 38.09375 
L 69.28125 38.09375 
L 69.28125 6.78125 
Q 63.578125 2.734375 56.6875 0.65625 
Q 49.8125 -1.421875 42 -1.421875 
Q 24.90625 -1.421875 15.25 8.5625 
Q 5.609375 18.5625 5.609375 36.375 
Q 5.609375 54.25 15.25 64.234375 
Q 24.90625 74.21875 42 74.21875 
Q 49.125 74.21875 55.546875 72.453125 
Q 61.96875 70.703125 67.390625 67.28125 
L 67.390625 56.78125 
Q 61.921875 61.421875 55.765625 63.765625 
Q 49.609375 66.109375 42.828125 66.109375 
Q 29.4375 66.109375 22.71875 58.640625 
Q 16.015625 51.171875 16.015625 36.375 
Q 16.015625 21.625 22.71875 14.15625 
Q 29.4375 6.6875 42.828125 6.6875 
Q 48.046875 6.6875 52.140625 7.59375 
Q 56.25 8.5 59.515625 10.40625 
z
" id="DejaVuSans-71"/>
      <path d="M 9.8125 72.90625 
L 51.703125 72.90625 
L 51.703125 64.59375 
L 19.671875 64.59375 
L 19.671875 43.109375 
L 48.578125 43.109375 
L 48.578125 34.8125 
L 19.671875 34.8125 
L 19.671875 0 
L 9.8125 0 
z
" id="DejaVuSans-70"/>
      <path d="M 9.8125 72.90625 
L 19.671875 72.90625 
L 19.671875 0 
L 9.8125 0 
z
" id="DejaVuSans-73"/>
     </defs>
     <g transform="translate(14.798437 244.745)rotate(-90)scale(0.1 -0.1)">
      <use xlink:href="#DejaVuSans-71"/>
      <use x="77.490234" xlink:href="#DejaVuSans-70"/>
      <use x="135.009766" xlink:href="#DejaVuSans-73"/>
     </g>
    </g>
   </g>
   <g id="line2d_43">
    <path clip-path="url(#p0c48a4b6f3)" d="M 54.043125 339.110514 
L 80.923125 339.110514 
L 80.923125 288.871594 
L 54.043125 288.871594 
L 54.043125 339.110514 
" style="fill:none;stroke:#1f77b4;stroke-linecap:square;"/>
   </g>
   <g id="line2d_44">
    <path clip-path="url(#p0c48a4b6f3)" d="M 67.483125 339.110514 
L 67.483125 354.180924 
" style="fill:none;stroke:#1f77b4;stroke-linecap:square;"/>
   </g>
   <g id="line2d_45">
    <path clip-path="url(#p0c48a4b6f3)" d="M 67.483125 288.871594 
L 67.483125 253.703084 
" style="fill:none;stroke:#1f77b4;stroke-linecap:square;"/>
   </g>
   <g id="line2d_46">
    <path clip-path="url(#p0c48a4b6f3)" d="M 60.763125 354.180924 
L 74.203125 354.180924 
" style="fill:none;stroke:#000000;stroke-linecap:square;"/>
   </g>
   <g id="line2d_47">
    <path clip-path="url(#p0c48a4b6f3)" d="M 60.763125 253.703084 
L 74.203125 253.703084 
" style="fill:none;stroke:#000000;stroke-linecap:square;"/>
   </g>
   <g id="line2d_48"/>
   <g id="line2d_49">
    <path clip-path="url(#p0c48a4b6f3)" d="M 107.803125 328.080297 
L 134.683125 328.080297 
L 134.683125 284.638333 
L 107.803125 284.638333 
L 107.803125 328.080297 
" style="fill:none;stroke:#1f77b4;stroke-linecap:square;"/>
   </g>
   <g id="line2d_50">
    <path clip-path="url(#p0c48a4b6f3)" d="M 121.243125 328.080297 
L 121.243125 334.285387 
" style="fill:none;stroke:#1f77b4;stroke-linecap:square;"/>
   </g>
   <g id="line2d_51">
    <path clip-path="url(#p0c48a4b6f3)" d="M 121.243125 284.638333 
L 121.243125 247.401459 
" style="fill:none;stroke:#1f77b4;stroke-linecap:square;"/>
   </g>
   <g id="line2d_52">
    <path clip-path="url(#p0c48a4b6f3)" d="M 114.523125 334.285387 
L 127.963125 334.285387 
" style="fill:none;stroke:#000000;stroke-linecap:square;"/>
   </g>
   <g id="line2d_53">
    <path clip-path="url(#p0c48a4b6f3)" d="M 114.523125 247.401459 
L 127.963125 247.401459 
" style="fill:none;stroke:#000000;stroke-linecap:square;"/>
   </g>
   <g id="line2d_54"/>
   <g id="line2d_55">
    <path clip-path="url(#p0c48a4b6f3)" d="M 161.563125 319.33525 
L 188.443125 319.33525 
L 188.443125 264.36299 
L 161.563125 264.36299 
L 161.563125 319.33525 
" style="fill:none;stroke:#1f77b4;stroke-linecap:square;"/>
   </g>
   <g id="line2d_56">
    <path clip-path="url(#p0c48a4b6f3)" d="M 175.003125 319.33525 
L 175.003125 342.656958 
" style="fill:none;stroke:#1f77b4;stroke-linecap:square;"/>
   </g>
   <g id="line2d_57">
    <path clip-path="url(#p0c48a4b6f3)" d="M 175.003125 264.36299 
L 175.003125 232.712439 
" style="fill:none;stroke:#1f77b4;stroke-linecap:square;"/>
   </g>
   <g id="line2d_58">
    <path clip-path="url(#p0c48a4b6f3)" d="M 168.283125 342.656958 
L 181.723125 342.656958 
" style="fill:none;stroke:#000000;stroke-linecap:square;"/>
   </g>
   <g id="line2d_59">
    <path clip-path="url(#p0c48a4b6f3)" d="M 168.283125 232.712439 
L 181.723125 232.712439 
" style="fill:none;stroke:#000000;stroke-linecap:square;"/>
   </g>
   <g id="line2d_60"/>
   <g id="line2d_61">
    <path clip-path="url(#p0c48a4b6f3)" d="M 215.323125 345.668508 
L 242.203125 345.668508 
L 242.203125 266.989986 
L 215.323125 266.989986 
L 215.323125 345.668508 
" style="fill:none;stroke:#1f77b4;stroke-linecap:square;"/>
   </g>
   <g id="line2d_62">
    <path clip-path="url(#p0c48a4b6f3)" d="M 228.763125 345.668508 
L 228.763125 368.914255 
" style="fill:none;stroke:#1f77b4;stroke-linecap:square;"/>
   </g>
   <g id="line2d_63">
    <path clip-path="url(#p0c48a4b6f3)" d="M 228.763125 266.989986 
L 228.763125 211.55721 
" style="fill:none;stroke:#1f77b4;stroke-linecap:square;"/>
   </g>
   <g id="line2d_64">
    <path clip-path="url(#p0c48a4b6f3)" d="M 222.043125 368.914255 
L 235.483125 368.914255 
" style="fill:none;stroke:#000000;stroke-linecap:square;"/>
   </g>
   <g id="line2d_65">
    <path clip-path="url(#p0c48a4b6f3)" d="M 222.043125 211.55721 
L 235.483125 211.55721 
" style="fill:none;stroke:#000000;stroke-linecap:square;"/>
   </g>
   <g id="line2d_66"/>
   <g id="line2d_67">
    <path clip-path="url(#p0c48a4b6f3)" d="M 269.083125 345.033915 
L 295.963125 345.033915 
L 295.963125 289.537838 
L 269.083125 289.537838 
L 269.083125 345.033915 
" style="fill:none;stroke:#1f77b4;stroke-linecap:square;"/>
   </g>
   <g id="line2d_68">
    <path clip-path="url(#p0c48a4b6f3)" d="M 282.523125 345.033915 
L 282.523125 367.578602 
" style="fill:none;stroke:#1f77b4;stroke-linecap:square;"/>
   </g>
   <g id="line2d_69">
    <path clip-path="url(#p0c48a4b6f3)" d="M 282.523125 289.537838 
L 282.523125 256.586449 
" style="fill:none;stroke:#1f77b4;stroke-linecap:square;"/>
   </g>
   <g id="line2d_70">
    <path clip-path="url(#p0c48a4b6f3)" d="M 275.803125 367.578602 
L 289.243125 367.578602 
" style="fill:none;stroke:#000000;stroke-linecap:square;"/>
   </g>
   <g id="line2d_71">
    <path clip-path="url(#p0c48a4b6f3)" d="M 275.803125 256.586449 
L 289.243125 256.586449 
" style="fill:none;stroke:#000000;stroke-linecap:square;"/>
   </g>
   <g id="line2d_72"/>
   <g id="line2d_73">
    <path clip-path="url(#p0c48a4b6f3)" d="M 322.843125 267.759094 
L 349.723125 267.759094 
L 349.723125 206.945725 
L 322.843125 206.945725 
L 322.843125 267.759094 
" style="fill:none;stroke:#1f77b4;stroke-linecap:square;"/>
   </g>
   <g id="line2d_74">
    <path clip-path="url(#p0c48a4b6f3)" d="M 336.283125 267.759094 
L 336.283125 289.873334 
" style="fill:none;stroke:#1f77b4;stroke-linecap:square;"/>
   </g>
   <g id="line2d_75">
    <path clip-path="url(#p0c48a4b6f3)" d="M 336.283125 206.945725 
L 336.283125 168.246596 
" style="fill:none;stroke:#1f77b4;stroke-linecap:square;"/>
   </g>
   <g id="line2d_76">
    <path clip-path="url(#p0c48a4b6f3)" d="M 329.563125 289.873334 
L 343.003125 289.873334 
" style="fill:none;stroke:#000000;stroke-linecap:square;"/>
   </g>
   <g id="line2d_77">
    <path clip-path="url(#p0c48a4b6f3)" d="M 329.563125 168.246596 
L 343.003125 168.246596 
" style="fill:none;stroke:#000000;stroke-linecap:square;"/>
   </g>
   <g id="line2d_78"/>
   <g id="line2d_79">
    <path clip-path="url(#p0c48a4b6f3)" d="M 376.603125 353.133291 
L 403.483125 353.133291 
L 403.483125 312.802576 
L 376.603125 312.802576 
L 376.603125 353.133291 
" style="fill:none;stroke:#1f77b4;stroke-linecap:square;"/>
   </g>
   <g id="line2d_80">
    <path clip-path="url(#p0c48a4b6f3)" d="M 390.043125 353.133291 
L 390.043125 377.681458 
" style="fill:none;stroke:#1f77b4;stroke-linecap:square;"/>
   </g>
   <g id="line2d_81">
    <path clip-path="url(#p0c48a4b6f3)" d="M 390.043125 312.802576 
L 390.043125 297.020028 
" style="fill:none;stroke:#1f77b4;stroke-linecap:square;"/>
   </g>
   <g id="line2d_82">
    <path clip-path="url(#p0c48a4b6f3)" d="M 383.323125 377.681458 
L 396.763125 377.681458 
" style="fill:none;stroke:#000000;stroke-linecap:square;"/>
   </g>
   <g id="line2d_83">
    <path clip-path="url(#p0c48a4b6f3)" d="M 383.323125 297.020028 
L 396.763125 297.020028 
" style="fill:none;stroke:#000000;stroke-linecap:square;"/>
   </g>
   <g id="line2d_84"/>
   <g id="line2d_85">
    <path clip-path="url(#p0c48a4b6f3)" d="M 430.363125 310.715222 
L 457.243125 310.715222 
L 457.243125 269.048854 
L 430.363125 269.048854 
L 430.363125 310.715222 
" style="fill:none;stroke:#1f77b4;stroke-linecap:square;"/>
   </g>
   <g id="line2d_86">
    <path clip-path="url(#p0c48a4b6f3)" d="M 443.803125 310.715222 
L 443.803125 341.163052 
" style="fill:none;stroke:#1f77b4;stroke-linecap:square;"/>
   </g>
   <g id="line2d_87">
    <path clip-path="url(#p0c48a4b6f3)" d="M 443.803125 269.048854 
L 443.803125 257.830316 
" style="fill:none;stroke:#1f77b4;stroke-linecap:square;"/>
   </g>
   <g id="line2d_88">
    <path clip-path="url(#p0c48a4b6f3)" d="M 437.083125 341.163052 
L 450.523125 341.163052 
" style="fill:none;stroke:#000000;stroke-linecap:square;"/>
   </g>
   <g id="line2d_89">
    <path clip-path="url(#p0c48a4b6f3)" d="M 437.083125 257.830316 
L 450.523125 257.830316 
" style="fill:none;stroke:#000000;stroke-linecap:square;"/>
   </g>
   <g id="line2d_90"/>
   <g id="line2d_91">
    <path clip-path="url(#p0c48a4b6f3)" d="M 484.123125 375.548211 
L 511.003125 375.548211 
L 511.003125 327.151353 
L 484.123125 327.151353 
L 484.123125 375.548211 
" style="fill:none;stroke:#1f77b4;stroke-linecap:square;"/>
   </g>
   <g id="line2d_92">
    <path clip-path="url(#p0c48a4b6f3)" d="M 497.563125 375.548211 
L 497.563125 396.842702 
" style="fill:none;stroke:#1f77b4;stroke-linecap:square;"/>
   </g>
   <g id="line2d_93">
    <path clip-path="url(#p0c48a4b6f3)" d="M 497.563125 327.151353 
L 497.563125 300.048986 
" style="fill:none;stroke:#1f77b4;stroke-linecap:square;"/>
   </g>
   <g id="line2d_94">
    <path clip-path="url(#p0c48a4b6f3)" d="M 490.843125 396.842702 
L 504.283125 396.842702 
" style="fill:none;stroke:#000000;stroke-linecap:square;"/>
   </g>
   <g id="line2d_95">
    <path clip-path="url(#p0c48a4b6f3)" d="M 490.843125 300.048986 
L 504.283125 300.048986 
" style="fill:none;stroke:#000000;stroke-linecap:square;"/>
   </g>
   <g id="line2d_96"/>
   <g id="line2d_97">
    <path clip-path="url(#p0c48a4b6f3)" d="M 537.883125 374.206227 
L 564.763125 374.206227 
L 564.763125 344.590807 
L 537.883125 344.590807 
L 537.883125 374.206227 
" style="fill:none;stroke:#1f77b4;stroke-linecap:square;"/>
   </g>
   <g id="line2d_98">
    <path clip-path="url(#p0c48a4b6f3)" d="M 551.323125 374.206227 
L 551.323125 385.312406 
" style="fill:none;stroke:#1f77b4;stroke-linecap:square;"/>
   </g>
   <g id="line2d_99">
    <path clip-path="url(#p0c48a4b6f3)" d="M 551.323125 344.590807 
L 551.323125 326.081565 
" style="fill:none;stroke:#1f77b4;stroke-linecap:square;"/>
   </g>
   <g id="line2d_100">
    <path clip-path="url(#p0c48a4b6f3)" d="M 544.603125 385.312406 
L 558.043125 385.312406 
" style="fill:none;stroke:#000000;stroke-linecap:square;"/>
   </g>
   <g id="line2d_101">
    <path clip-path="url(#p0c48a4b6f3)" d="M 544.603125 326.081565 
L 558.043125 326.081565 
" style="fill:none;stroke:#000000;stroke-linecap:square;"/>
   </g>
   <g id="line2d_102"/>
   <g id="line2d_103">
    <path clip-path="url(#p0c48a4b6f3)" d="M 591.643125 377.904594 
L 618.523125 377.904594 
L 618.523125 280.517431 
L 591.643125 280.517431 
L 591.643125 377.904594 
" style="fill:none;stroke:#1f77b4;stroke-linecap:square;"/>
   </g>
   <g id="line2d_104">
    <path clip-path="url(#p0c48a4b6f3)" d="M 605.083125 377.904594 
L 605.083125 408.338182 
" style="fill:none;stroke:#1f77b4;stroke-linecap:square;"/>
   </g>
   <g id="line2d_105">
    <path clip-path="url(#p0c48a4b6f3)" d="M 605.083125 280.517431 
L 605.083125 213.563855 
" style="fill:none;stroke:#1f77b4;stroke-linecap:square;"/>
   </g>
   <g id="line2d_106">
    <path clip-path="url(#p0c48a4b6f3)" d="M 598.363125 408.338182 
L 611.803125 408.338182 
" style="fill:none;stroke:#000000;stroke-linecap:square;"/>
   </g>
   <g id="line2d_107">
    <path clip-path="url(#p0c48a4b6f3)" d="M 598.363125 213.563855 
L 611.803125 213.563855 
" style="fill:none;stroke:#000000;stroke-linecap:square;"/>
   </g>
   <g id="line2d_108"/>
   <g id="line2d_109">
    <path clip-path="url(#p0c48a4b6f3)" d="M 645.403125 325.277641 
L 672.283125 325.277641 
L 672.283125 269.471389 
L 645.403125 269.471389 
L 645.403125 325.277641 
" style="fill:none;stroke:#1f77b4;stroke-linecap:square;"/>
   </g>
   <g id="line2d_110">
    <path clip-path="url(#p0c48a4b6f3)" d="M 658.843125 325.277641 
L 658.843125 346.005586 
" style="fill:none;stroke:#1f77b4;stroke-linecap:square;"/>
   </g>
   <g id="line2d_111">
    <path clip-path="url(#p0c48a4b6f3)" d="M 658.843125 269.471389 
L 658.843125 234.393083 
" style="fill:none;stroke:#1f77b4;stroke-linecap:square;"/>
   </g>
   <g id="line2d_112">
    <path clip-path="url(#p0c48a4b6f3)" d="M 652.123125 346.005586 
L 665.563125 346.005586 
" style="fill:none;stroke:#000000;stroke-linecap:square;"/>
   </g>
   <g id="line2d_113">
    <path clip-path="url(#p0c48a4b6f3)" d="M 652.123125 234.393083 
L 665.563125 234.393083 
" style="fill:none;stroke:#000000;stroke-linecap:square;"/>
   </g>
   <g id="line2d_114"/>
   <g id="line2d_115">
    <path clip-path="url(#p0c48a4b6f3)" d="M 699.163125 310.395551 
L 726.043125 310.395551 
L 726.043125 248.787754 
L 699.163125 248.787754 
L 699.163125 310.395551 
" style="fill:none;stroke:#1f77b4;stroke-linecap:square;"/>
   </g>
   <g id="line2d_116">
    <path clip-path="url(#p0c48a4b6f3)" d="M 712.603125 310.395551 
L 712.603125 335.03867 
" style="fill:none;stroke:#1f77b4;stroke-linecap:square;"/>
   </g>
   <g id="line2d_117">
    <path clip-path="url(#p0c48a4b6f3)" d="M 712.603125 248.787754 
L 712.603125 211.823075 
" style="fill:none;stroke:#1f77b4;stroke-linecap:square;"/>
   </g>
   <g id="line2d_118">
    <path clip-path="url(#p0c48a4b6f3)" d="M 705.883125 335.03867 
L 719.323125 335.03867 
" style="fill:none;stroke:#000000;stroke-linecap:square;"/>
   </g>
   <g id="line2d_119">
    <path clip-path="url(#p0c48a4b6f3)" d="M 705.883125 211.823075 
L 719.323125 211.823075 
" style="fill:none;stroke:#000000;stroke-linecap:square;"/>
   </g>
   <g id="line2d_120"/>
   <g id="line2d_121">
    <path clip-path="url(#p0c48a4b6f3)" d="M 752.923125 170.587154 
L 779.803125 170.587154 
L 779.803125 99.229404 
L 752.923125 99.229404 
L 752.923125 170.587154 
" style="fill:none;stroke:#1f77b4;stroke-linecap:square;"/>
   </g>
   <g id="line2d_122">
    <path clip-path="url(#p0c48a4b6f3)" d="M 766.363125 170.587154 
L 766.363125 207.417318 
" style="fill:none;stroke:#1f77b4;stroke-linecap:square;"/>
   </g>
   <g id="line2d_123">
    <path clip-path="url(#p0c48a4b6f3)" d="M 766.363125 99.229404 
L 766.363125 64.701818 
" style="fill:none;stroke:#1f77b4;stroke-linecap:square;"/>
   </g>
   <g id="line2d_124">
    <path clip-path="url(#p0c48a4b6f3)" d="M 759.643125 207.417318 
L 773.083125 207.417318 
" style="fill:none;stroke:#000000;stroke-linecap:square;"/>
   </g>
   <g id="line2d_125">
    <path clip-path="url(#p0c48a4b6f3)" d="M 759.643125 64.701818 
L 773.083125 64.701818 
" style="fill:none;stroke:#000000;stroke-linecap:square;"/>
   </g>
   <g id="line2d_126"/>
   <g id="line2d_127">
    <path clip-path="url(#p0c48a4b6f3)" d="M 806.683125 316.809536 
L 833.563125 316.809536 
L 833.563125 247.054886 
L 806.683125 247.054886 
L 806.683125 316.809536 
" style="fill:none;stroke:#1f77b4;stroke-linecap:square;"/>
   </g>
   <g id="line2d_128">
    <path clip-path="url(#p0c48a4b6f3)" d="M 820.123125 316.809536 
L 820.123125 351.68686 
" style="fill:none;stroke:#1f77b4;stroke-linecap:square;"/>
   </g>
   <g id="line2d_129">
    <path clip-path="url(#p0c48a4b6f3)" d="M 820.123125 247.054886 
L 820.123125 212.177561 
" style="fill:none;stroke:#1f77b4;stroke-linecap:square;"/>
   </g>
   <g id="line2d_130">
    <path clip-path="url(#p0c48a4b6f3)" d="M 813.403125 351.68686 
L 826.843125 351.68686 
" style="fill:none;stroke:#000000;stroke-linecap:square;"/>
   </g>
   <g id="line2d_131">
    <path clip-path="url(#p0c48a4b6f3)" d="M 813.403125 212.177561 
L 826.843125 212.177561 
" style="fill:none;stroke:#000000;stroke-linecap:square;"/>
   </g>
   <g id="line2d_132"/>
   <g id="line2d_133">
    <path clip-path="url(#p0c48a4b6f3)" d="M 54.043125 324.040104 
L 80.923125 324.040104 
" style="fill:none;stroke:#2ca02c;stroke-linecap:square;"/>
   </g>
   <g id="line2d_134">
    <path clip-path="url(#p0c48a4b6f3)" d="M 107.803125 321.875206 
L 134.683125 321.875206 
" style="fill:none;stroke:#2ca02c;stroke-linecap:square;"/>
   </g>
   <g id="line2d_135">
    <path clip-path="url(#p0c48a4b6f3)" d="M 161.563125 296.013541 
L 188.443125 296.013541 
" style="fill:none;stroke:#2ca02c;stroke-linecap:square;"/>
   </g>
   <g id="line2d_136">
    <path clip-path="url(#p0c48a4b6f3)" d="M 215.323125 322.422761 
L 242.203125 322.422761 
" style="fill:none;stroke:#2ca02c;stroke-linecap:square;"/>
   </g>
   <g id="line2d_137">
    <path clip-path="url(#p0c48a4b6f3)" d="M 269.083125 322.489227 
L 295.963125 322.489227 
" style="fill:none;stroke:#2ca02c;stroke-linecap:square;"/>
   </g>
   <g id="line2d_138">
    <path clip-path="url(#p0c48a4b6f3)" d="M 322.843125 245.644854 
L 349.723125 245.644854 
" style="fill:none;stroke:#2ca02c;stroke-linecap:square;"/>
   </g>
   <g id="line2d_139">
    <path clip-path="url(#p0c48a4b6f3)" d="M 376.603125 328.585123 
L 403.483125 328.585123 
" style="fill:none;stroke:#2ca02c;stroke-linecap:square;"/>
   </g>
   <g id="line2d_140">
    <path clip-path="url(#p0c48a4b6f3)" d="M 430.363125 280.267392 
L 457.243125 280.267392 
" style="fill:none;stroke:#2ca02c;stroke-linecap:square;"/>
   </g>
   <g id="line2d_141">
    <path clip-path="url(#p0c48a4b6f3)" d="M 484.123125 354.25372 
L 511.003125 354.25372 
" style="fill:none;stroke:#2ca02c;stroke-linecap:square;"/>
   </g>
   <g id="line2d_142">
    <path clip-path="url(#p0c48a4b6f3)" d="M 537.883125 363.100049 
L 564.763125 363.100049 
" style="fill:none;stroke:#2ca02c;stroke-linecap:square;"/>
   </g>
   <g id="line2d_143">
    <path clip-path="url(#p0c48a4b6f3)" d="M 591.643125 347.471007 
L 618.523125 347.471007 
" style="fill:none;stroke:#2ca02c;stroke-linecap:square;"/>
   </g>
   <g id="line2d_144">
    <path clip-path="url(#p0c48a4b6f3)" d="M 645.403125 304.549695 
L 672.283125 304.549695 
" style="fill:none;stroke:#2ca02c;stroke-linecap:square;"/>
   </g>
   <g id="line2d_145">
    <path clip-path="url(#p0c48a4b6f3)" d="M 699.163125 285.752432 
L 726.043125 285.752432 
" style="fill:none;stroke:#2ca02c;stroke-linecap:square;"/>
   </g>
   <g id="line2d_146">
    <path clip-path="url(#p0c48a4b6f3)" d="M 752.923125 133.756991 
L 779.803125 133.756991 
" style="fill:none;stroke:#2ca02c;stroke-linecap:square;"/>
   </g>
   <g id="line2d_147">
    <path clip-path="url(#p0c48a4b6f3)" d="M 806.683125 281.932211 
L 833.563125 281.932211 
" style="fill:none;stroke:#2ca02c;stroke-linecap:square;"/>
   </g>
   <g id="patch_3">
    <path d="M 40.603125 425.52 
L 40.603125 47.52 
" style="fill:none;stroke:#000000;stroke-linecap:square;stroke-linejoin:miter;stroke-width:0.8;"/>
   </g>
   <g id="patch_4">
    <path d="M 847.003125 425.52 
L 847.003125 47.52 
" style="fill:none;stroke:#000000;stroke-linecap:square;stroke-linejoin:miter;stroke-width:0.8;"/>
   </g>
   <g id="patch_5">
    <path d="M 40.603125 425.52 
L 847.003125 425.52 
" style="fill:none;stroke:#000000;stroke-linecap:square;stroke-linejoin:miter;stroke-width:0.8;"/>
   </g>
   <g id="patch_6">
    <path d="M 40.603125 47.52 
L 847.003125 47.52 
" style="fill:none;stroke:#000000;stroke-linecap:square;stroke-linejoin:miter;stroke-width:0.8;"/>
   </g>
   <g id="text_24">
    <!-- GFI -->
    <g transform="translate(433.933125 41.52)scale(0.12 -0.12)">
     <use xlink:href="#DejaVuSans-71"/>
     <use x="77.490234" xlink:href="#DejaVuSans-70"/>
     <use x="135.009766" xlink:href="#DejaVuSans-73"/>
    </g>
   </g>
  </g>
  <g id="text_25">
   <!-- GFI for chunks of size 16 grouped by document -->
   <defs>
    <path id="DejaVuSans-32"/>
    <path d="M 41.109375 46.296875 
Q 39.59375 47.171875 37.8125 47.578125 
Q 36.03125 48 33.890625 48 
Q 26.265625 48 22.1875 43.046875 
Q 18.109375 38.09375 18.109375 28.8125 
L 18.109375 0 
L 9.078125 0 
L 9.078125 54.6875 
L 18.109375 54.6875 
L 18.109375 46.1875 
Q 20.953125 51.171875 25.484375 53.578125 
Q 30.03125 56 36.53125 56 
Q 37.453125 56 38.578125 55.875 
Q 39.703125 55.765625 41.0625 55.515625 
z
" id="DejaVuSans-114"/>
    <path d="M 54.890625 33.015625 
L 54.890625 0 
L 45.90625 0 
L 45.90625 32.71875 
Q 45.90625 40.484375 42.875 44.328125 
Q 39.84375 48.1875 33.796875 48.1875 
Q 26.515625 48.1875 22.3125 43.546875 
Q 18.109375 38.921875 18.109375 30.90625 
L 18.109375 0 
L 9.078125 0 
L 9.078125 75.984375 
L 18.109375 75.984375 
L 18.109375 46.1875 
Q 21.34375 51.125 25.703125 53.5625 
Q 30.078125 56 35.796875 56 
Q 45.21875 56 50.046875 50.171875 
Q 54.890625 44.34375 54.890625 33.015625 
z
" id="DejaVuSans-104"/>
    <path d="M 9.078125 75.984375 
L 18.109375 75.984375 
L 18.109375 31.109375 
L 44.921875 54.6875 
L 56.390625 54.6875 
L 27.390625 29.109375 
L 57.625 0 
L 45.90625 0 
L 18.109375 26.703125 
L 18.109375 0 
L 9.078125 0 
z
" id="DejaVuSans-107"/>
    <path d="M 9.421875 54.6875 
L 18.40625 54.6875 
L 18.40625 0 
L 9.421875 0 
z
M 9.421875 75.984375 
L 18.40625 75.984375 
L 18.40625 64.59375 
L 9.421875 64.59375 
z
" id="DejaVuSans-105"/>
    <path d="M 45.40625 27.984375 
Q 45.40625 37.75 41.375 43.109375 
Q 37.359375 48.484375 30.078125 48.484375 
Q 22.859375 48.484375 18.828125 43.109375 
Q 14.796875 37.75 14.796875 27.984375 
Q 14.796875 18.265625 18.828125 12.890625 
Q 22.859375 7.515625 30.078125 7.515625 
Q 37.359375 7.515625 41.375 12.890625 
Q 45.40625 18.265625 45.40625 27.984375 
z
M 54.390625 6.78125 
Q 54.390625 -7.171875 48.1875 -13.984375 
Q 42 -20.796875 29.203125 -20.796875 
Q 24.46875 -20.796875 20.265625 -20.09375 
Q 16.0625 -19.390625 12.109375 -17.921875 
L 12.109375 -9.1875 
Q 16.0625 -11.328125 19.921875 -12.34375 
Q 23.78125 -13.375 27.78125 -13.375 
Q 36.625 -13.375 41.015625 -8.765625 
Q 45.40625 -4.15625 45.40625 5.171875 
L 45.40625 9.625 
Q 42.625 4.78125 38.28125 2.390625 
Q 33.9375 0 27.875 0 
Q 17.828125 0 11.671875 7.65625 
Q 5.515625 15.328125 5.515625 27.984375 
Q 5.515625 40.671875 11.671875 48.328125 
Q 17.828125 56 27.875 56 
Q 33.9375 56 38.28125 53.609375 
Q 42.625 51.21875 45.40625 46.390625 
L 45.40625 54.6875 
L 54.390625 54.6875 
z
" id="DejaVuSans-103"/>
    <path d="M 18.109375 8.203125 
L 18.109375 -20.796875 
L 9.078125 -20.796875 
L 9.078125 54.6875 
L 18.109375 54.6875 
L 18.109375 46.390625 
Q 20.953125 51.265625 25.265625 53.625 
Q 29.59375 56 35.59375 56 
Q 45.5625 56 51.78125 48.09375 
Q 58.015625 40.1875 58.015625 27.296875 
Q 58.015625 14.40625 51.78125 6.484375 
Q 45.5625 -1.421875 35.59375 -1.421875 
Q 29.59375 -1.421875 25.265625 0.953125 
Q 20.953125 3.328125 18.109375 8.203125 
z
M 48.6875 27.296875 
Q 48.6875 37.203125 44.609375 42.84375 
Q 40.53125 48.484375 33.40625 48.484375 
Q 26.265625 48.484375 22.1875 42.84375 
Q 18.109375 37.203125 18.109375 27.296875 
Q 18.109375 17.390625 22.1875 11.75 
Q 26.265625 6.109375 33.40625 6.109375 
Q 40.53125 6.109375 44.609375 11.75 
Q 48.6875 17.390625 48.6875 27.296875 
z
" id="DejaVuSans-112"/>
    <path d="M 48.6875 27.296875 
Q 48.6875 37.203125 44.609375 42.84375 
Q 40.53125 48.484375 33.40625 48.484375 
Q 26.265625 48.484375 22.1875 42.84375 
Q 18.109375 37.203125 18.109375 27.296875 
Q 18.109375 17.390625 22.1875 11.75 
Q 26.265625 6.109375 33.40625 6.109375 
Q 40.53125 6.109375 44.609375 11.75 
Q 48.6875 17.390625 48.6875 27.296875 
z
M 18.109375 46.390625 
Q 20.953125 51.265625 25.265625 53.625 
Q 29.59375 56 35.59375 56 
Q 45.5625 56 51.78125 48.09375 
Q 58.015625 40.1875 58.015625 27.296875 
Q 58.015625 14.40625 51.78125 6.484375 
Q 45.5625 -1.421875 35.59375 -1.421875 
Q 29.59375 -1.421875 25.265625 0.953125 
Q 20.953125 3.328125 18.109375 8.203125 
L 18.109375 0 
L 9.078125 0 
L 9.078125 75.984375 
L 18.109375 75.984375 
z
" id="DejaVuSans-98"/>
    <path d="M 32.171875 -5.078125 
Q 28.375 -14.84375 24.75 -17.8125 
Q 21.140625 -20.796875 15.09375 -20.796875 
L 7.90625 -20.796875 
L 7.90625 -13.28125 
L 13.1875 -13.28125 
Q 16.890625 -13.28125 18.9375 -11.515625 
Q 21 -9.765625 23.484375 -3.21875 
L 25.09375 0.875 
L 2.984375 54.6875 
L 12.5 54.6875 
L 29.59375 11.921875 
L 46.6875 54.6875 
L 56.203125 54.6875 
z
" id="DejaVuSans-121"/>
   </defs>
   <g transform="translate(277.641719 17.837813)scale(0.14 -0.14)">
    <use xlink:href="#DejaVuSans-71"/>
    <use x="77.490234" xlink:href="#DejaVuSans-70"/>
    <use x="135.009766" xlink:href="#DejaVuSans-73"/>
    <use x="164.501953" xlink:href="#DejaVuSans-32"/>
    <use x="196.289062" xlink:href="#DejaVuSans-102"/>
    <use x="231.494141" xlink:href="#DejaVuSans-111"/>
    <use x="292.675781" xlink:href="#DejaVuSans-114"/>
    <use x="333.789062" xlink:href="#DejaVuSans-32"/>
    <use x="365.576172" xlink:href="#DejaVuSans-99"/>
    <use x="420.556641" xlink:href="#DejaVuSans-104"/>
    <use x="483.935547" xlink:href="#DejaVuSans-117"/>
    <use x="547.314453" xlink:href="#DejaVuSans-110"/>
    <use x="610.693359" xlink:href="#DejaVuSans-107"/>
    <use x="668.603516" xlink:href="#DejaVuSans-115"/>
    <use x="720.703125" xlink:href="#DejaVuSans-32"/>
    <use x="752.490234" xlink:href="#DejaVuSans-111"/>
    <use x="813.671875" xlink:href="#DejaVuSans-102"/>
    <use x="848.876953" xlink:href="#DejaVuSans-32"/>
    <use x="880.664062" xlink:href="#DejaVuSans-115"/>
    <use x="932.763672" xlink:href="#DejaVuSans-105"/>
    <use x="960.546875" xlink:href="#DejaVuSans-122"/>
    <use x="1013.037109" xlink:href="#DejaVuSans-101"/>
    <use x="1074.560547" xlink:href="#DejaVuSans-32"/>
    <use x="1106.347656" xlink:href="#DejaVuSans-49"/>
    <use x="1169.970703" xlink:href="#DejaVuSans-54"/>
    <use x="1233.59375" xlink:href="#DejaVuSans-32"/>
    <use x="1265.380859" xlink:href="#DejaVuSans-103"/>
    <use x="1328.857422" xlink:href="#DejaVuSans-114"/>
    <use x="1369.939453" xlink:href="#DejaVuSans-111"/>
    <use x="1431.121094" xlink:href="#DejaVuSans-117"/>
    <use x="1494.5" xlink:href="#DejaVuSans-112"/>
    <use x="1557.976562" xlink:href="#DejaVuSans-101"/>
    <use x="1619.5" xlink:href="#DejaVuSans-100"/>
    <use x="1682.976562" xlink:href="#DejaVuSans-32"/>
    <use x="1714.763672" xlink:href="#DejaVuSans-98"/>
    <use x="1778.240234" xlink:href="#DejaVuSans-121"/>
    <use x="1837.419922" xlink:href="#DejaVuSans-32"/>
    <use x="1869.207031" xlink:href="#DejaVuSans-100"/>
    <use x="1932.683594" xlink:href="#DejaVuSans-111"/>
    <use x="1993.865234" xlink:href="#DejaVuSans-99"/>
    <use x="2048.845703" xlink:href="#DejaVuSans-117"/>
    <use x="2112.224609" xlink:href="#DejaVuSans-109"/>
    <use x="2209.636719" xlink:href="#DejaVuSans-101"/>
    <use x="2271.160156" xlink:href="#DejaVuSans-110"/>
    <use x="2334.539062" xlink:href="#DejaVuSans-116"/>
   </g>
  </g>
 </g>
 <defs>
  <clipPath id="p0c48a4b6f3">
   <rect height="378" width="806.4" x="40.603125" y="47.52"/>
  </clipPath>
 </defs>
</svg>
