<?xml version="1.0" encoding="utf-8" standalone="no"?>
<!DOCTYPE svg PUBLIC "-//W3C//DTD SVG 1.1//EN"
  "http://www.w3.org/Graphics/SVG/1.1/DTD/svg11.dtd">
<!-- Created with matplotlib (http://matplotlib.org/) -->
<svg height="504pt" version="1.1" viewBox="0 0 1008 504" width="1008pt" xmlns="http://www.w3.org/2000/svg" xmlns:xlink="http://www.w3.org/1999/xlink">
 <defs>
  <style type="text/css">
*{stroke-linecap:butt;stroke-linejoin:round;}
  </style>
 </defs>
 <g id="figure_1">
  <g id="patch_1">
   <path d="M 0 504 
L 1008 504 
L 1008 0 
L 0 0 
z
" style="fill:#ffffff;"/>
  </g>
  <g id="axes_1">
   <g id="patch_2">
    <path d="M 126 448.56 
L 907.2 448.56 
L 907.2 60.48 
L 126 60.48 
z
" style="fill:#ffffff;"/>
   </g>
   <g id="PathCollection_1">
    <defs>
     <path d="M 0 3 
C 0.795609 3 1.55874 2.683901 2.12132 2.12132 
C 2.683901 1.55874 3 0.795609 3 0 
C 3 -0.795609 2.683901 -1.55874 2.12132 -2.12132 
C 1.55874 -2.683901 0.795609 -3 0 -3 
C -0.795609 -3 -1.55874 -2.683901 -2.12132 -2.12132 
C -2.683901 -1.55874 -3 -0.795609 -3 0 
C -3 0.795609 -2.683901 1.55874 -2.12132 2.12132 
C -1.55874 2.683901 -0.795609 3 0 3 
z
" id="m25ab90b13d" style="stroke:#1f77b4;"/>
    </defs>
    <g clip-path="url(#p57ec215d63)">
     <use style="fill:#1f77b4;stroke:#1f77b4;" x="871.686126" xlink:href="#m25ab90b13d" y="331.224755"/>
     <use style="fill:#1f77b4;stroke:#1f77b4;" x="746.73377" xlink:href="#m25ab90b13d" y="330.571866"/>
     <use style="fill:#1f77b4;stroke:#1f77b4;" x="549.024346" xlink:href="#m25ab90b13d" y="335.917213"/>
     <use style="fill:#1f77b4;stroke:#1f77b4;" x="509.482461" xlink:href="#m25ab90b13d" y="334.392188"/>
     <use style="fill:#1f77b4;stroke:#1f77b4;" x="509.482461" xlink:href="#m25ab90b13d" y="328.025308"/>
     <use style="fill:#1f77b4;stroke:#1f77b4;" x="469.940576" xlink:href="#m25ab90b13d" y="333.641317"/>
     <use style="fill:#1f77b4;stroke:#1f77b4;" x="469.940576" xlink:href="#m25ab90b13d" y="327.228841"/>
     <use style="fill:#1f77b4;stroke:#1f77b4;" x="430.398691" xlink:href="#m25ab90b13d" y="331.474075"/>
     <use style="fill:#1f77b4;stroke:#1f77b4;" x="430.398691" xlink:href="#m25ab90b13d" y="342.568337"/>
     <use style="fill:#1f77b4;stroke:#1f77b4;" x="390.856806" xlink:href="#m25ab90b13d" y="335.781396"/>
     <use style="fill:#1f77b4;stroke:#1f77b4;" x="390.856806" xlink:href="#m25ab90b13d" y="339.776339"/>
     <use style="fill:#1f77b4;stroke:#1f77b4;" x="390.856806" xlink:href="#m25ab90b13d" y="315.795038"/>
     <use style="fill:#1f77b4;stroke:#1f77b4;" x="351.314921" xlink:href="#m25ab90b13d" y="338.616079"/>
     <use style="fill:#1f77b4;stroke:#1f77b4;" x="351.314921" xlink:href="#m25ab90b13d" y="333.211555"/>
     <use style="fill:#1f77b4;stroke:#1f77b4;" x="351.314921" xlink:href="#m25ab90b13d" y="318.875161"/>
     <use style="fill:#1f77b4;stroke:#1f77b4;" x="311.773037" xlink:href="#m25ab90b13d" y="345.608685"/>
     <use style="fill:#1f77b4;stroke:#1f77b4;" x="311.773037" xlink:href="#m25ab90b13d" y="322.050355"/>
     <use style="fill:#1f77b4;stroke:#1f77b4;" x="311.773037" xlink:href="#m25ab90b13d" y="345.850244"/>
     <use style="fill:#1f77b4;stroke:#1f77b4;" x="311.773037" xlink:href="#m25ab90b13d" y="303.761702"/>
     <use style="fill:#1f77b4;stroke:#1f77b4;" x="272.231152" xlink:href="#m25ab90b13d" y="358.309462"/>
     <use style="fill:#1f77b4;stroke:#1f77b4;" x="272.231152" xlink:href="#m25ab90b13d" y="314.715298"/>
     <use style="fill:#1f77b4;stroke:#1f77b4;" x="272.231152" xlink:href="#m25ab90b13d" y="331.523551"/>
     <use style="fill:#1f77b4;stroke:#1f77b4;" x="272.231152" xlink:href="#m25ab90b13d" y="347.040578"/>
     <use style="fill:#1f77b4;stroke:#1f77b4;" x="272.231152" xlink:href="#m25ab90b13d" y="294.931694"/>
     <use style="fill:#1f77b4;stroke:#1f77b4;" x="272.231152" xlink:href="#m25ab90b13d" y="334.585241"/>
     <use style="fill:#1f77b4;stroke:#1f77b4;" x="232.689267" xlink:href="#m25ab90b13d" y="358.812953"/>
     <use style="fill:#1f77b4;stroke:#1f77b4;" x="232.689267" xlink:href="#m25ab90b13d" y="333.17178"/>
     <use style="fill:#1f77b4;stroke:#1f77b4;" x="232.689267" xlink:href="#m25ab90b13d" y="316.278157"/>
     <use style="fill:#1f77b4;stroke:#1f77b4;" x="232.689267" xlink:href="#m25ab90b13d" y="327.223021"/>
     <use style="fill:#1f77b4;stroke:#1f77b4;" x="232.689267" xlink:href="#m25ab90b13d" y="343.791655"/>
     <use style="fill:#1f77b4;stroke:#1f77b4;" x="232.689267" xlink:href="#m25ab90b13d" y="347.895252"/>
     <use style="fill:#1f77b4;stroke:#1f77b4;" x="232.689267" xlink:href="#m25ab90b13d" y="328.730583"/>
     <use style="fill:#1f77b4;stroke:#1f77b4;" x="232.689267" xlink:href="#m25ab90b13d" y="278.633722"/>
     <use style="fill:#1f77b4;stroke:#1f77b4;" x="232.689267" xlink:href="#m25ab90b13d" y="336.917404"/>
     <use style="fill:#1f77b4;stroke:#1f77b4;" x="212.918324" xlink:href="#m25ab90b13d" y="367.089994"/>
     <use style="fill:#1f77b4;stroke:#1f77b4;" x="212.918324" xlink:href="#m25ab90b13d" y="349.755937"/>
     <use style="fill:#1f77b4;stroke:#1f77b4;" x="212.918324" xlink:href="#m25ab90b13d" y="314.48732"/>
     <use style="fill:#1f77b4;stroke:#1f77b4;" x="212.918324" xlink:href="#m25ab90b13d" y="314.57366"/>
     <use style="fill:#1f77b4;stroke:#1f77b4;" x="212.918324" xlink:href="#m25ab90b13d" y="312.983638"/>
     <use style="fill:#1f77b4;stroke:#1f77b4;" x="212.918324" xlink:href="#m25ab90b13d" y="350.735755"/>
     <use style="fill:#1f77b4;stroke:#1f77b4;" x="212.918324" xlink:href="#m25ab90b13d" y="343.951725"/>
     <use style="fill:#1f77b4;stroke:#1f77b4;" x="212.918324" xlink:href="#m25ab90b13d" y="347.745854"/>
     <use style="fill:#1f77b4;stroke:#1f77b4;" x="212.918324" xlink:href="#m25ab90b13d" y="334.624046"/>
     <use style="fill:#1f77b4;stroke:#1f77b4;" x="212.918324" xlink:href="#m25ab90b13d" y="254.606826"/>
     <use style="fill:#1f77b4;stroke:#1f77b4;" x="212.918324" xlink:href="#m25ab90b13d" y="320.305114"/>
     <use style="fill:#1f77b4;stroke:#1f77b4;" x="212.918324" xlink:href="#m25ab90b13d" y="349.300952"/>
     <use style="fill:#1f77b4;stroke:#1f77b4;" x="193.147382" xlink:href="#m25ab90b13d" y="350.435019"/>
     <use style="fill:#1f77b4;stroke:#1f77b4;" x="193.147382" xlink:href="#m25ab90b13d" y="367.22581"/>
     <use style="fill:#1f77b4;stroke:#1f77b4;" x="193.147382" xlink:href="#m25ab90b13d" y="357.252034"/>
     <use style="fill:#1f77b4;stroke:#1f77b4;" x="193.147382" xlink:href="#m25ab90b13d" y="311.192801"/>
     <use style="fill:#1f77b4;stroke:#1f77b4;" x="193.147382" xlink:href="#m25ab90b13d" y="311.686591"/>
     <use style="fill:#1f77b4;stroke:#1f77b4;" x="193.147382" xlink:href="#m25ab90b13d" y="320.895915"/>
     <use style="fill:#1f77b4;stroke:#1f77b4;" x="193.147382" xlink:href="#m25ab90b13d" y="307.055251"/>
     <use style="fill:#1f77b4;stroke:#1f77b4;" x="193.147382" xlink:href="#m25ab90b13d" y="348.37643"/>
     <use style="fill:#1f77b4;stroke:#1f77b4;" x="193.147382" xlink:href="#m25ab90b13d" y="340.376842"/>
     <use style="fill:#1f77b4;stroke:#1f77b4;" x="193.147382" xlink:href="#m25ab90b13d" y="344.759832"/>
     <use style="fill:#1f77b4;stroke:#1f77b4;" x="193.147382" xlink:href="#m25ab90b13d" y="342.18126"/>
     <use style="fill:#1f77b4;stroke:#1f77b4;" x="193.147382" xlink:href="#m25ab90b13d" y="353.547156"/>
     <use style="fill:#1f77b4;stroke:#1f77b4;" x="193.147382" xlink:href="#m25ab90b13d" y="326.438196"/>
     <use style="fill:#1f77b4;stroke:#1f77b4;" x="193.147382" xlink:href="#m25ab90b13d" y="330.829917"/>
     <use style="fill:#1f77b4;stroke:#1f77b4;" x="193.147382" xlink:href="#m25ab90b13d" y="225.745834"/>
     <use style="fill:#1f77b4;stroke:#1f77b4;" x="193.147382" xlink:href="#m25ab90b13d" y="329.101168"/>
     <use style="fill:#1f77b4;stroke:#1f77b4;" x="193.147382" xlink:href="#m25ab90b13d" y="326.674904"/>
     <use style="fill:#1f77b4;stroke:#1f77b4;" x="193.147382" xlink:href="#m25ab90b13d" y="347.646902"/>
     <use style="fill:#1f77b4;stroke:#1f77b4;" x="185.239005" xlink:href="#m25ab90b13d" y="330.616491"/>
     <use style="fill:#1f77b4;stroke:#1f77b4;" x="185.239005" xlink:href="#m25ab90b13d" y="394.807217"/>
     <use style="fill:#1f77b4;stroke:#1f77b4;" x="185.239005" xlink:href="#m25ab90b13d" y="349.968393"/>
     <use style="fill:#1f77b4;stroke:#1f77b4;" x="185.239005" xlink:href="#m25ab90b13d" y="349.596838"/>
     <use style="fill:#1f77b4;stroke:#1f77b4;" x="185.239005" xlink:href="#m25ab90b13d" y="307.282258"/>
     <use style="fill:#1f77b4;stroke:#1f77b4;" x="185.239005" xlink:href="#m25ab90b13d" y="311.84084"/>
     <use style="fill:#1f77b4;stroke:#1f77b4;" x="185.239005" xlink:href="#m25ab90b13d" y="322.633395"/>
     <use style="fill:#1f77b4;stroke:#1f77b4;" x="185.239005" xlink:href="#m25ab90b13d" y="296.905883"/>
     <use style="fill:#1f77b4;stroke:#1f77b4;" x="185.239005" xlink:href="#m25ab90b13d" y="323.781044"/>
     <use style="fill:#1f77b4;stroke:#1f77b4;" x="185.239005" xlink:href="#m25ab90b13d" y="353.511261"/>
     <use style="fill:#1f77b4;stroke:#1f77b4;" x="185.239005" xlink:href="#m25ab90b13d" y="335.430214"/>
     <use style="fill:#1f77b4;stroke:#1f77b4;" x="185.239005" xlink:href="#m25ab90b13d" y="340.27886"/>
     <use style="fill:#1f77b4;stroke:#1f77b4;" x="185.239005" xlink:href="#m25ab90b13d" y="348.204719"/>
     <use style="fill:#1f77b4;stroke:#1f77b4;" x="185.239005" xlink:href="#m25ab90b13d" y="334.732699"/>
     <use style="fill:#1f77b4;stroke:#1f77b4;" x="185.239005" xlink:href="#m25ab90b13d" y="364.473587"/>
     <use style="fill:#1f77b4;stroke:#1f77b4;" x="185.239005" xlink:href="#m25ab90b13d" y="319.378652"/>
     <use style="fill:#1f77b4;stroke:#1f77b4;" x="185.239005" xlink:href="#m25ab90b13d" y="358.6296"/>
     <use style="fill:#1f77b4;stroke:#1f77b4;" x="185.239005" xlink:href="#m25ab90b13d" y="285.910573"/>
     <use style="fill:#1f77b4;stroke:#1f77b4;" x="185.239005" xlink:href="#m25ab90b13d" y="210.50141"/>
     <use style="fill:#1f77b4;stroke:#1f77b4;" x="185.239005" xlink:href="#m25ab90b13d" y="341.110251"/>
     <use style="fill:#1f77b4;stroke:#1f77b4;" x="185.239005" xlink:href="#m25ab90b13d" y="314.770594"/>
     <use style="fill:#1f77b4;stroke:#1f77b4;" x="185.239005" xlink:href="#m25ab90b13d" y="352.214214"/>
     <use style="fill:#1f77b4;stroke:#1f77b4;" x="177.330628" xlink:href="#m25ab90b13d" y="319.699761"/>
     <use style="fill:#1f77b4;stroke:#1f77b4;" x="177.330628" xlink:href="#m25ab90b13d" y="403.433501"/>
     <use style="fill:#1f77b4;stroke:#1f77b4;" x="177.330628" xlink:href="#m25ab90b13d" y="353.602452"/>
     <use style="fill:#1f77b4;stroke:#1f77b4;" x="177.330628" xlink:href="#m25ab90b13d" y="360.350589"/>
     <use style="fill:#1f77b4;stroke:#1f77b4;" x="177.330628" xlink:href="#m25ab90b13d" y="357.544039"/>
     <use style="fill:#1f77b4;stroke:#1f77b4;" x="177.330628" xlink:href="#m25ab90b13d" y="312.565517"/>
     <use style="fill:#1f77b4;stroke:#1f77b4;" x="177.330628" xlink:href="#m25ab90b13d" y="311.687561"/>
     <use style="fill:#1f77b4;stroke:#1f77b4;" x="177.330628" xlink:href="#m25ab90b13d" y="310.003438"/>
     <use style="fill:#1f77b4;stroke:#1f77b4;" x="177.330628" xlink:href="#m25ab90b13d" y="329.626972"/>
     <use style="fill:#1f77b4;stroke:#1f77b4;" x="177.330628" xlink:href="#m25ab90b13d" y="306.331543"/>
     <use style="fill:#1f77b4;stroke:#1f77b4;" x="177.330628" xlink:href="#m25ab90b13d" y="294.387458"/>
     <use style="fill:#1f77b4;stroke:#1f77b4;" x="177.330628" xlink:href="#m25ab90b13d" y="325.48457"/>
     <use style="fill:#1f77b4;stroke:#1f77b4;" x="177.330628" xlink:href="#m25ab90b13d" y="347.21811"/>
     <use style="fill:#1f77b4;stroke:#1f77b4;" x="177.330628" xlink:href="#m25ab90b13d" y="353.413279"/>
     <use style="fill:#1f77b4;stroke:#1f77b4;" x="177.330628" xlink:href="#m25ab90b13d" y="335.921093"/>
     <use style="fill:#1f77b4;stroke:#1f77b4;" x="177.330628" xlink:href="#m25ab90b13d" y="334.346593"/>
     <use style="fill:#1f77b4;stroke:#1f77b4;" x="177.330628" xlink:href="#m25ab90b13d" y="350.311814"/>
     <use style="fill:#1f77b4;stroke:#1f77b4;" x="177.330628" xlink:href="#m25ab90b13d" y="345.669802"/>
     <use style="fill:#1f77b4;stroke:#1f77b4;" x="177.330628" xlink:href="#m25ab90b13d" y="337.395671"/>
     <use style="fill:#1f77b4;stroke:#1f77b4;" x="177.330628" xlink:href="#m25ab90b13d" y="366.359496"/>
     <use style="fill:#1f77b4;stroke:#1f77b4;" x="177.330628" xlink:href="#m25ab90b13d" y="304.107064"/>
     <use style="fill:#1f77b4;stroke:#1f77b4;" x="177.330628" xlink:href="#m25ab90b13d" y="346.646711"/>
     <use style="fill:#1f77b4;stroke:#1f77b4;" x="177.330628" xlink:href="#m25ab90b13d" y="384.468676"/>
     <use style="fill:#1f77b4;stroke:#1f77b4;" x="177.330628" xlink:href="#m25ab90b13d" y="252.260112"/>
     <use style="fill:#1f77b4;stroke:#1f77b4;" x="177.330628" xlink:href="#m25ab90b13d" y="188.540863"/>
     <use style="fill:#1f77b4;stroke:#1f77b4;" x="177.330628" xlink:href="#m25ab90b13d" y="308.101037"/>
     <use style="fill:#1f77b4;stroke:#1f77b4;" x="177.330628" xlink:href="#m25ab90b13d" y="324.197225"/>
     <use style="fill:#1f77b4;stroke:#1f77b4;" x="177.330628" xlink:href="#m25ab90b13d" y="332.432551"/>
     <use style="fill:#1f77b4;stroke:#1f77b4;" x="177.330628" xlink:href="#m25ab90b13d" y="359.430917"/>
     <use style="fill:#1f77b4;stroke:#1f77b4;" x="177.330628" xlink:href="#m25ab90b13d" y="345.437944"/>
     <use style="fill:#1f77b4;stroke:#1f77b4;" x="169.422251" xlink:href="#m25ab90b13d" y="307.550981"/>
     <use style="fill:#1f77b4;stroke:#1f77b4;" x="169.422251" xlink:href="#m25ab90b13d" y="353.878936"/>
     <use style="fill:#1f77b4;stroke:#1f77b4;" x="169.422251" xlink:href="#m25ab90b13d" y="417.782507"/>
     <use style="fill:#1f77b4;stroke:#1f77b4;" x="169.422251" xlink:href="#m25ab90b13d" y="371.77081"/>
     <use style="fill:#1f77b4;stroke:#1f77b4;" x="169.422251" xlink:href="#m25ab90b13d" y="342.349091"/>
     <use style="fill:#1f77b4;stroke:#1f77b4;" x="169.422251" xlink:href="#m25ab90b13d" y="355.586342"/>
     <use style="fill:#1f77b4;stroke:#1f77b4;" x="169.422251" xlink:href="#m25ab90b13d" y="357.737092"/>
     <use style="fill:#1f77b4;stroke:#1f77b4;" x="169.422251" xlink:href="#m25ab90b13d" y="341.670009"/>
     <use style="fill:#1f77b4;stroke:#1f77b4;" x="169.422251" xlink:href="#m25ab90b13d" y="305.795068"/>
     <use style="fill:#1f77b4;stroke:#1f77b4;" x="169.422251" xlink:href="#m25ab90b13d" y="307.985593"/>
     <use style="fill:#1f77b4;stroke:#1f77b4;" x="169.422251" xlink:href="#m25ab90b13d" y="329.253476"/>
     <use style="fill:#1f77b4;stroke:#1f77b4;" x="169.422251" xlink:href="#m25ab90b13d" y="294.847294"/>
     <use style="fill:#1f77b4;stroke:#1f77b4;" x="169.422251" xlink:href="#m25ab90b13d" y="317.638261"/>
     <use style="fill:#1f77b4;stroke:#1f77b4;" x="169.422251" xlink:href="#m25ab90b13d" y="326.959149"/>
     <use style="fill:#1f77b4;stroke:#1f77b4;" x="169.422251" xlink:href="#m25ab90b13d" y="312.215305"/>
     <use style="fill:#1f77b4;stroke:#1f77b4;" x="169.422251" xlink:href="#m25ab90b13d" y="282.313377"/>
     <use style="fill:#1f77b4;stroke:#1f77b4;" x="169.422251" xlink:href="#m25ab90b13d" y="319.060453"/>
     <use style="fill:#1f77b4;stroke:#1f77b4;" x="169.422251" xlink:href="#m25ab90b13d" y="327.95934"/>
     <use style="fill:#1f77b4;stroke:#1f77b4;" x="169.422251" xlink:href="#m25ab90b13d" y="328.913935"/>
     <use style="fill:#1f77b4;stroke:#1f77b4;" x="169.422251" xlink:href="#m25ab90b13d" y="380.683278"/>
     <use style="fill:#1f77b4;stroke:#1f77b4;" x="169.422251" xlink:href="#m25ab90b13d" y="344.592972"/>
     <use style="fill:#1f77b4;stroke:#1f77b4;" x="169.422251" xlink:href="#m25ab90b13d" y="322.418029"/>
     <use style="fill:#1f77b4;stroke:#1f77b4;" x="169.422251" xlink:href="#m25ab90b13d" y="364.809248"/>
     <use style="fill:#1f77b4;stroke:#1f77b4;" x="169.422251" xlink:href="#m25ab90b13d" y="318.688898"/>
     <use style="fill:#1f77b4;stroke:#1f77b4;" x="169.422251" xlink:href="#m25ab90b13d" y="361.657337"/>
     <use style="fill:#1f77b4;stroke:#1f77b4;" x="169.422251" xlink:href="#m25ab90b13d" y="334.111824"/>
     <use style="fill:#1f77b4;stroke:#1f77b4;" x="169.422251" xlink:href="#m25ab90b13d" y="342.649827"/>
     <use style="fill:#1f77b4;stroke:#1f77b4;" x="169.422251" xlink:href="#m25ab90b13d" y="327.079443"/>
     <use style="fill:#1f77b4;stroke:#1f77b4;" x="169.422251" xlink:href="#m25ab90b13d" y="362.943712"/>
     <use style="fill:#1f77b4;stroke:#1f77b4;" x="169.422251" xlink:href="#m25ab90b13d" y="365.459227"/>
     <use style="fill:#1f77b4;stroke:#1f77b4;" x="169.422251" xlink:href="#m25ab90b13d" y="279.130422"/>
     <use style="fill:#1f77b4;stroke:#1f77b4;" x="169.422251" xlink:href="#m25ab90b13d" y="358.408414"/>
     <use style="fill:#1f77b4;stroke:#1f77b4;" x="169.422251" xlink:href="#m25ab90b13d" y="334.98299"/>
     <use style="fill:#1f77b4;stroke:#1f77b4;" x="169.422251" xlink:href="#m25ab90b13d" y="379.37459"/>
     <use style="fill:#1f77b4;stroke:#1f77b4;" x="169.422251" xlink:href="#m25ab90b13d" y="290.318786"/>
     <use style="fill:#1f77b4;stroke:#1f77b4;" x="169.422251" xlink:href="#m25ab90b13d" y="281.396617"/>
     <use style="fill:#1f77b4;stroke:#1f77b4;" x="169.422251" xlink:href="#m25ab90b13d" y="162.960808"/>
     <use style="fill:#1f77b4;stroke:#1f77b4;" x="169.422251" xlink:href="#m25ab90b13d" y="257.298901"/>
     <use style="fill:#1f77b4;stroke:#1f77b4;" x="169.422251" xlink:href="#m25ab90b13d" y="323.462846"/>
     <use style="fill:#1f77b4;stroke:#1f77b4;" x="169.422251" xlink:href="#m25ab90b13d" y="356.182964"/>
     <use style="fill:#1f77b4;stroke:#1f77b4;" x="169.422251" xlink:href="#m25ab90b13d" y="281.382065"/>
     <use style="fill:#1f77b4;stroke:#1f77b4;" x="169.422251" xlink:href="#m25ab90b13d" y="352.702183"/>
     <use style="fill:#1f77b4;stroke:#1f77b4;" x="169.422251" xlink:href="#m25ab90b13d" y="377.156902"/>
     <use style="fill:#1f77b4;stroke:#1f77b4;" x="169.422251" xlink:href="#m25ab90b13d" y="324.908321"/>
     <use style="fill:#1f77b4;stroke:#1f77b4;" x="169.422251" xlink:href="#m25ab90b13d" y="353.876995"/>
     <use style="fill:#1f77b4;stroke:#1f77b4;" x="161.513874" xlink:href="#m25ab90b13d" y="340.918168"/>
     <use style="fill:#1f77b4;stroke:#1f77b4;" x="161.513874" xlink:href="#m25ab90b13d" y="276.705129"/>
     <use style="fill:#1f77b4;stroke:#1f77b4;" x="161.513874" xlink:href="#m25ab90b13d" y="341.915448"/>
     <use style="fill:#1f77b4;stroke:#1f77b4;" x="161.513874" xlink:href="#m25ab90b13d" y="366.083012"/>
     <use style="fill:#1f77b4;stroke:#1f77b4;" x="161.513874" xlink:href="#m25ab90b13d" y="430.841257"/>
     <use style="fill:#1f77b4;stroke:#1f77b4;" x="161.513874" xlink:href="#m25ab90b13d" y="405.718127"/>
     <use style="fill:#1f77b4;stroke:#1f77b4;" x="161.513874" xlink:href="#m25ab90b13d" y="406.988011"/>
     <use style="fill:#1f77b4;stroke:#1f77b4;" x="161.513874" xlink:href="#m25ab90b13d" y="342.311256"/>
     <use style="fill:#1f77b4;stroke:#1f77b4;" x="161.513874" xlink:href="#m25ab90b13d" y="317.938998"/>
     <use style="fill:#1f77b4;stroke:#1f77b4;" x="161.513874" xlink:href="#m25ab90b13d" y="368.606287"/>
     <use style="fill:#1f77b4;stroke:#1f77b4;" x="161.513874" xlink:href="#m25ab90b13d" y="363.460785"/>
     <use style="fill:#1f77b4;stroke:#1f77b4;" x="161.513874" xlink:href="#m25ab90b13d" y="347.813762"/>
     <use style="fill:#1f77b4;stroke:#1f77b4;" x="161.513874" xlink:href="#m25ab90b13d" y="344.525064"/>
     <use style="fill:#1f77b4;stroke:#1f77b4;" x="161.513874" xlink:href="#m25ab90b13d" y="371.787302"/>
     <use style="fill:#1f77b4;stroke:#1f77b4;" x="161.513874" xlink:href="#m25ab90b13d" y="355.640669"/>
     <use style="fill:#1f77b4;stroke:#1f77b4;" x="161.513874" xlink:href="#m25ab90b13d" y="326.509014"/>
     <use style="fill:#1f77b4;stroke:#1f77b4;" x="161.513874" xlink:href="#m25ab90b13d" y="254.023785"/>
     <use style="fill:#1f77b4;stroke:#1f77b4;" x="161.513874" xlink:href="#m25ab90b13d" y="349.624001"/>
     <use style="fill:#1f77b4;stroke:#1f77b4;" x="161.513874" xlink:href="#m25ab90b13d" y="329.189449"/>
     <use style="fill:#1f77b4;stroke:#1f77b4;" x="161.513874" xlink:href="#m25ab90b13d" y="279.452501"/>
     <use style="fill:#1f77b4;stroke:#1f77b4;" x="161.513874" xlink:href="#m25ab90b13d" y="317.425805"/>
     <use style="fill:#1f77b4;stroke:#1f77b4;" x="161.513874" xlink:href="#m25ab90b13d" y="340.900706"/>
     <use style="fill:#1f77b4;stroke:#1f77b4;" x="161.513874" xlink:href="#m25ab90b13d" y="296.96409"/>
     <use style="fill:#1f77b4;stroke:#1f77b4;" x="161.513874" xlink:href="#m25ab90b13d" y="292.744079"/>
     <use style="fill:#1f77b4;stroke:#1f77b4;" x="161.513874" xlink:href="#m25ab90b13d" y="310.894005"/>
     <use style="fill:#1f77b4;stroke:#1f77b4;" x="161.513874" xlink:href="#m25ab90b13d" y="324.353414"/>
     <use style="fill:#1f77b4;stroke:#1f77b4;" x="161.513874" xlink:href="#m25ab90b13d" y="354.549287"/>
     <use style="fill:#1f77b4;stroke:#1f77b4;" x="161.513874" xlink:href="#m25ab90b13d" y="293.016682"/>
     <use style="fill:#1f77b4;stroke:#1f77b4;" x="161.513874" xlink:href="#m25ab90b13d" y="292.245439"/>
     <use style="fill:#1f77b4;stroke:#1f77b4;" x="161.513874" xlink:href="#m25ab90b13d" y="333.659749"/>
     <use style="fill:#1f77b4;stroke:#1f77b4;" x="161.513874" xlink:href="#m25ab90b13d" y="249.018949"/>
     <use style="fill:#1f77b4;stroke:#1f77b4;" x="161.513874" xlink:href="#m25ab90b13d" y="308.953771"/>
     <use style="fill:#1f77b4;stroke:#1f77b4;" x="161.513874" xlink:href="#m25ab90b13d" y="317.971011"/>
     <use style="fill:#1f77b4;stroke:#1f77b4;" x="161.513874" xlink:href="#m25ab90b13d" y="320.069375"/>
     <use style="fill:#1f77b4;stroke:#1f77b4;" x="161.513874" xlink:href="#m25ab90b13d" y="333.956605"/>
     <use style="fill:#1f77b4;stroke:#1f77b4;" x="161.513874" xlink:href="#m25ab90b13d" y="321.199562"/>
     <use style="fill:#1f77b4;stroke:#1f77b4;" x="161.513874" xlink:href="#m25ab90b13d" y="337.158963"/>
     <use style="fill:#1f77b4;stroke:#1f77b4;" x="161.513874" xlink:href="#m25ab90b13d" y="319.871471"/>
     <use style="fill:#1f77b4;stroke:#1f77b4;" x="161.513874" xlink:href="#m25ab90b13d" y="389.735444"/>
     <use style="fill:#1f77b4;stroke:#1f77b4;" x="161.513874" xlink:href="#m25ab90b13d" y="371.072326"/>
     <use style="fill:#1f77b4;stroke:#1f77b4;" x="161.513874" xlink:href="#m25ab90b13d" y="385.842363"/>
     <use style="fill:#1f77b4;stroke:#1f77b4;" x="161.513874" xlink:href="#m25ab90b13d" y="307.13092"/>
     <use style="fill:#1f77b4;stroke:#1f77b4;" x="161.513874" xlink:href="#m25ab90b13d" y="289.995737"/>
     <use style="fill:#1f77b4;stroke:#1f77b4;" x="161.513874" xlink:href="#m25ab90b13d" y="355.542687"/>
     <use style="fill:#1f77b4;stroke:#1f77b4;" x="161.513874" xlink:href="#m25ab90b13d" y="358.95556"/>
     <use style="fill:#1f77b4;stroke:#1f77b4;" x="161.513874" xlink:href="#m25ab90b13d" y="370.44466"/>
     <use style="fill:#1f77b4;stroke:#1f77b4;" x="161.513874" xlink:href="#m25ab90b13d" y="331.167518"/>
     <use style="fill:#1f77b4;stroke:#1f77b4;" x="161.513874" xlink:href="#m25ab90b13d" y="306.905853"/>
     <use style="fill:#1f77b4;stroke:#1f77b4;" x="161.513874" xlink:href="#m25ab90b13d" y="353.579169"/>
     <use style="fill:#1f77b4;stroke:#1f77b4;" x="161.513874" xlink:href="#m25ab90b13d" y="367.664303"/>
     <use style="fill:#1f77b4;stroke:#1f77b4;" x="161.513874" xlink:href="#m25ab90b13d" y="329.11378"/>
     <use style="fill:#1f77b4;stroke:#1f77b4;" x="161.513874" xlink:href="#m25ab90b13d" y="337.568352"/>
     <use style="fill:#1f77b4;stroke:#1f77b4;" x="161.513874" xlink:href="#m25ab90b13d" y="358.04656"/>
     <use style="fill:#1f77b4;stroke:#1f77b4;" x="161.513874" xlink:href="#m25ab90b13d" y="325.470989"/>
     <use style="fill:#1f77b4;stroke:#1f77b4;" x="161.513874" xlink:href="#m25ab90b13d" y="340.313785"/>
     <use style="fill:#1f77b4;stroke:#1f77b4;" x="161.513874" xlink:href="#m25ab90b13d" y="314.57269"/>
     <use style="fill:#1f77b4;stroke:#1f77b4;" x="161.513874" xlink:href="#m25ab90b13d" y="358.818773"/>
     <use style="fill:#1f77b4;stroke:#1f77b4;" x="161.513874" xlink:href="#m25ab90b13d" y="367.053129"/>
     <use style="fill:#1f77b4;stroke:#1f77b4;" x="161.513874" xlink:href="#m25ab90b13d" y="373.302626"/>
     <use style="fill:#1f77b4;stroke:#1f77b4;" x="161.513874" xlink:href="#m25ab90b13d" y="351.313945"/>
     <use style="fill:#1f77b4;stroke:#1f77b4;" x="161.513874" xlink:href="#m25ab90b13d" y="314.399039"/>
     <use style="fill:#1f77b4;stroke:#1f77b4;" x="161.513874" xlink:href="#m25ab90b13d" y="233.599904"/>
     <use style="fill:#1f77b4;stroke:#1f77b4;" x="161.513874" xlink:href="#m25ab90b13d" y="349.403784"/>
     <use style="fill:#1f77b4;stroke:#1f77b4;" x="161.513874" xlink:href="#m25ab90b13d" y="367.483862"/>
     <use style="fill:#1f77b4;stroke:#1f77b4;" x="161.513874" xlink:href="#m25ab90b13d" y="355.510673"/>
     <use style="fill:#1f77b4;stroke:#1f77b4;" x="161.513874" xlink:href="#m25ab90b13d" y="309.597928"/>
     <use style="fill:#1f77b4;stroke:#1f77b4;" x="161.513874" xlink:href="#m25ab90b13d" y="370.651295"/>
     <use style="fill:#1f77b4;stroke:#1f77b4;" x="161.513874" xlink:href="#m25ab90b13d" y="383.080439"/>
     <use style="fill:#1f77b4;stroke:#1f77b4;" x="161.513874" xlink:href="#m25ab90b13d" y="394.727668"/>
     <use style="fill:#1f77b4;stroke:#1f77b4;" x="161.513874" xlink:href="#m25ab90b13d" y="195.870099"/>
     <use style="fill:#1f77b4;stroke:#1f77b4;" x="161.513874" xlink:href="#m25ab90b13d" y="240.084169"/>
     <use style="fill:#1f77b4;stroke:#1f77b4;" x="161.513874" xlink:href="#m25ab90b13d" y="323.2533"/>
     <use style="fill:#1f77b4;stroke:#1f77b4;" x="161.513874" xlink:href="#m25ab90b13d" y="245.817562"/>
     <use style="fill:#1f77b4;stroke:#1f77b4;" x="161.513874" xlink:href="#m25ab90b13d" y="78.198743"/>
     <use style="fill:#1f77b4;stroke:#1f77b4;" x="161.513874" xlink:href="#m25ab90b13d" y="238.686229"/>
     <use style="fill:#1f77b4;stroke:#1f77b4;" x="161.513874" xlink:href="#m25ab90b13d" y="276.159923"/>
     <use style="fill:#1f77b4;stroke:#1f77b4;" x="161.513874" xlink:href="#m25ab90b13d" y="342.980637"/>
     <use style="fill:#1f77b4;stroke:#1f77b4;" x="161.513874" xlink:href="#m25ab90b13d" y="304.376757"/>
     <use style="fill:#1f77b4;stroke:#1f77b4;" x="161.513874" xlink:href="#m25ab90b13d" y="364.358143"/>
     <use style="fill:#1f77b4;stroke:#1f77b4;" x="161.513874" xlink:href="#m25ab90b13d" y="348.355087"/>
     <use style="fill:#1f77b4;stroke:#1f77b4;" x="161.513874" xlink:href="#m25ab90b13d" y="265.331473"/>
     <use style="fill:#1f77b4;stroke:#1f77b4;" x="161.513874" xlink:href="#m25ab90b13d" y="296.571192"/>
     <use style="fill:#1f77b4;stroke:#1f77b4;" x="161.513874" xlink:href="#m25ab90b13d" y="346.596265"/>
     <use style="fill:#1f77b4;stroke:#1f77b4;" x="161.513874" xlink:href="#m25ab90b13d" y="358.395802"/>
     <use style="fill:#1f77b4;stroke:#1f77b4;" x="161.513874" xlink:href="#m25ab90b13d" y="379.286309"/>
     <use style="fill:#1f77b4;stroke:#1f77b4;" x="161.513874" xlink:href="#m25ab90b13d" y="373.50538"/>
     <use style="fill:#1f77b4;stroke:#1f77b4;" x="161.513874" xlink:href="#m25ab90b13d" y="322.885626"/>
     <use style="fill:#1f77b4;stroke:#1f77b4;" x="161.513874" xlink:href="#m25ab90b13d" y="326.669084"/>
     <use style="fill:#1f77b4;stroke:#1f77b4;" x="161.513874" xlink:href="#m25ab90b13d" y="363.986588"/>
     <use style="fill:#1f77b4;stroke:#1f77b4;" x="161.513874" xlink:href="#m25ab90b13d" y="342.074548"/>
    </g>
   </g>
   <g id="matplotlib.axis_1">
    <g id="xtick_1">
     <g id="line2d_1">
      <defs>
       <path d="M 0 0 
L 0 3.5 
" id="m5d03412a1e" style="stroke:#000000;stroke-width:0.8;"/>
      </defs>
      <g>
       <use style="stroke:#000000;stroke-width:0.8;" x="153.605497" xlink:href="#m5d03412a1e" y="448.56"/>
      </g>
     </g>
     <g id="text_1">
      <!-- 0 -->
      <defs>
       <path d="M 31.78125 66.40625 
Q 24.171875 66.40625 20.328125 58.90625 
Q 16.5 51.421875 16.5 36.375 
Q 16.5 21.390625 20.328125 13.890625 
Q 24.171875 6.390625 31.78125 6.390625 
Q 39.453125 6.390625 43.28125 13.890625 
Q 47.125 21.390625 47.125 36.375 
Q 47.125 51.421875 43.28125 58.90625 
Q 39.453125 66.40625 31.78125 66.40625 
z
M 31.78125 74.21875 
Q 44.046875 74.21875 50.515625 64.515625 
Q 56.984375 54.828125 56.984375 36.375 
Q 56.984375 17.96875 50.515625 8.265625 
Q 44.046875 -1.421875 31.78125 -1.421875 
Q 19.53125 -1.421875 13.0625 8.265625 
Q 6.59375 17.96875 6.59375 36.375 
Q 6.59375 54.828125 13.0625 64.515625 
Q 19.53125 74.21875 31.78125 74.21875 
z
" id="DejaVuSans-30"/>
      </defs>
      <g transform="translate(150.424247 463.158437)scale(0.1 -0.1)">
       <use xlink:href="#DejaVuSans-30"/>
      </g>
     </g>
    </g>
    <g id="xtick_2">
     <g id="line2d_2">
      <g>
       <use style="stroke:#000000;stroke-width:0.8;" x="311.773037" xlink:href="#m5d03412a1e" y="448.56"/>
      </g>
     </g>
     <g id="text_2">
      <!-- 200 -->
      <defs>
       <path d="M 19.1875 8.296875 
L 53.609375 8.296875 
L 53.609375 0 
L 7.328125 0 
L 7.328125 8.296875 
Q 12.9375 14.109375 22.625 23.890625 
Q 32.328125 33.6875 34.8125 36.53125 
Q 39.546875 41.84375 41.421875 45.53125 
Q 43.3125 49.21875 43.3125 52.78125 
Q 43.3125 58.59375 39.234375 62.25 
Q 35.15625 65.921875 28.609375 65.921875 
Q 23.96875 65.921875 18.8125 64.3125 
Q 13.671875 62.703125 7.8125 59.421875 
L 7.8125 69.390625 
Q 13.765625 71.78125 18.9375 73 
Q 24.125 74.21875 28.421875 74.21875 
Q 39.75 74.21875 46.484375 68.546875 
Q 53.21875 62.890625 53.21875 53.421875 
Q 53.21875 48.921875 51.53125 44.890625 
Q 49.859375 40.875 45.40625 35.40625 
Q 44.1875 33.984375 37.640625 27.21875 
Q 31.109375 20.453125 19.1875 8.296875 
z
" id="DejaVuSans-32"/>
      </defs>
      <g transform="translate(302.229287 463.158437)scale(0.1 -0.1)">
       <use xlink:href="#DejaVuSans-32"/>
       <use x="63.623047" xlink:href="#DejaVuSans-30"/>
       <use x="127.246094" xlink:href="#DejaVuSans-30"/>
      </g>
     </g>
    </g>
    <g id="xtick_3">
     <g id="line2d_3">
      <g>
       <use style="stroke:#000000;stroke-width:0.8;" x="469.940576" xlink:href="#m5d03412a1e" y="448.56"/>
      </g>
     </g>
     <g id="text_3">
      <!-- 400 -->
      <defs>
       <path d="M 37.796875 64.3125 
L 12.890625 25.390625 
L 37.796875 25.390625 
z
M 35.203125 72.90625 
L 47.609375 72.90625 
L 47.609375 25.390625 
L 58.015625 25.390625 
L 58.015625 17.1875 
L 47.609375 17.1875 
L 47.609375 0 
L 37.796875 0 
L 37.796875 17.1875 
L 4.890625 17.1875 
L 4.890625 26.703125 
z
" id="DejaVuSans-34"/>
      </defs>
      <g transform="translate(460.396826 463.158437)scale(0.1 -0.1)">
       <use xlink:href="#DejaVuSans-34"/>
       <use x="63.623047" xlink:href="#DejaVuSans-30"/>
       <use x="127.246094" xlink:href="#DejaVuSans-30"/>
      </g>
     </g>
    </g>
    <g id="xtick_4">
     <g id="line2d_4">
      <g>
       <use style="stroke:#000000;stroke-width:0.8;" x="628.108115" xlink:href="#m5d03412a1e" y="448.56"/>
      </g>
     </g>
     <g id="text_4">
      <!-- 600 -->
      <defs>
       <path d="M 33.015625 40.375 
Q 26.375 40.375 22.484375 35.828125 
Q 18.609375 31.296875 18.609375 23.390625 
Q 18.609375 15.53125 22.484375 10.953125 
Q 26.375 6.390625 33.015625 6.390625 
Q 39.65625 6.390625 43.53125 10.953125 
Q 47.40625 15.53125 47.40625 23.390625 
Q 47.40625 31.296875 43.53125 35.828125 
Q 39.65625 40.375 33.015625 40.375 
z
M 52.59375 71.296875 
L 52.59375 62.3125 
Q 48.875 64.0625 45.09375 64.984375 
Q 41.3125 65.921875 37.59375 65.921875 
Q 27.828125 65.921875 22.671875 59.328125 
Q 17.53125 52.734375 16.796875 39.40625 
Q 19.671875 43.65625 24.015625 45.921875 
Q 28.375 48.1875 33.59375 48.1875 
Q 44.578125 48.1875 50.953125 41.515625 
Q 57.328125 34.859375 57.328125 23.390625 
Q 57.328125 12.15625 50.6875 5.359375 
Q 44.046875 -1.421875 33.015625 -1.421875 
Q 20.359375 -1.421875 13.671875 8.265625 
Q 6.984375 17.96875 6.984375 36.375 
Q 6.984375 53.65625 15.1875 63.9375 
Q 23.390625 74.21875 37.203125 74.21875 
Q 40.921875 74.21875 44.703125 73.484375 
Q 48.484375 72.75 52.59375 71.296875 
z
" id="DejaVuSans-36"/>
      </defs>
      <g transform="translate(618.564365 463.158437)scale(0.1 -0.1)">
       <use xlink:href="#DejaVuSans-36"/>
       <use x="63.623047" xlink:href="#DejaVuSans-30"/>
       <use x="127.246094" xlink:href="#DejaVuSans-30"/>
      </g>
     </g>
    </g>
    <g id="xtick_5">
     <g id="line2d_5">
      <g>
       <use style="stroke:#000000;stroke-width:0.8;" x="786.275655" xlink:href="#m5d03412a1e" y="448.56"/>
      </g>
     </g>
     <g id="text_5">
      <!-- 800 -->
      <defs>
       <path d="M 31.78125 34.625 
Q 24.75 34.625 20.71875 30.859375 
Q 16.703125 27.09375 16.703125 20.515625 
Q 16.703125 13.921875 20.71875 10.15625 
Q 24.75 6.390625 31.78125 6.390625 
Q 38.8125 6.390625 42.859375 10.171875 
Q 46.921875 13.96875 46.921875 20.515625 
Q 46.921875 27.09375 42.890625 30.859375 
Q 38.875 34.625 31.78125 34.625 
z
M 21.921875 38.8125 
Q 15.578125 40.375 12.03125 44.71875 
Q 8.5 49.078125 8.5 55.328125 
Q 8.5 64.0625 14.71875 69.140625 
Q 20.953125 74.21875 31.78125 74.21875 
Q 42.671875 74.21875 48.875 69.140625 
Q 55.078125 64.0625 55.078125 55.328125 
Q 55.078125 49.078125 51.53125 44.71875 
Q 48 40.375 41.703125 38.8125 
Q 48.828125 37.15625 52.796875 32.3125 
Q 56.78125 27.484375 56.78125 20.515625 
Q 56.78125 9.90625 50.3125 4.234375 
Q 43.84375 -1.421875 31.78125 -1.421875 
Q 19.734375 -1.421875 13.25 4.234375 
Q 6.78125 9.90625 6.78125 20.515625 
Q 6.78125 27.484375 10.78125 32.3125 
Q 14.796875 37.15625 21.921875 38.8125 
z
M 18.3125 54.390625 
Q 18.3125 48.734375 21.84375 45.5625 
Q 25.390625 42.390625 31.78125 42.390625 
Q 38.140625 42.390625 41.71875 45.5625 
Q 45.3125 48.734375 45.3125 54.390625 
Q 45.3125 60.0625 41.71875 63.234375 
Q 38.140625 66.40625 31.78125 66.40625 
Q 25.390625 66.40625 21.84375 63.234375 
Q 18.3125 60.0625 18.3125 54.390625 
z
" id="DejaVuSans-38"/>
      </defs>
      <g transform="translate(776.731905 463.158437)scale(0.1 -0.1)">
       <use xlink:href="#DejaVuSans-38"/>
       <use x="63.623047" xlink:href="#DejaVuSans-30"/>
       <use x="127.246094" xlink:href="#DejaVuSans-30"/>
      </g>
     </g>
    </g>
    <g id="text_6">
     <!-- length of chunk in sentences -->
     <defs>
      <path d="M 9.421875 75.984375 
L 18.40625 75.984375 
L 18.40625 0 
L 9.421875 0 
z
" id="DejaVuSans-6c"/>
      <path d="M 56.203125 29.59375 
L 56.203125 25.203125 
L 14.890625 25.203125 
Q 15.484375 15.921875 20.484375 11.0625 
Q 25.484375 6.203125 34.421875 6.203125 
Q 39.59375 6.203125 44.453125 7.46875 
Q 49.3125 8.734375 54.109375 11.28125 
L 54.109375 2.78125 
Q 49.265625 0.734375 44.1875 -0.34375 
Q 39.109375 -1.421875 33.890625 -1.421875 
Q 20.796875 -1.421875 13.15625 6.1875 
Q 5.515625 13.8125 5.515625 26.8125 
Q 5.515625 40.234375 12.765625 48.109375 
Q 20.015625 56 32.328125 56 
Q 43.359375 56 49.78125 48.890625 
Q 56.203125 41.796875 56.203125 29.59375 
z
M 47.21875 32.234375 
Q 47.125 39.59375 43.09375 43.984375 
Q 39.0625 48.390625 32.421875 48.390625 
Q 24.90625 48.390625 20.390625 44.140625 
Q 15.875 39.890625 15.1875 32.171875 
z
" id="DejaVuSans-65"/>
      <path d="M 54.890625 33.015625 
L 54.890625 0 
L 45.90625 0 
L 45.90625 32.71875 
Q 45.90625 40.484375 42.875 44.328125 
Q 39.84375 48.1875 33.796875 48.1875 
Q 26.515625 48.1875 22.3125 43.546875 
Q 18.109375 38.921875 18.109375 30.90625 
L 18.109375 0 
L 9.078125 0 
L 9.078125 54.6875 
L 18.109375 54.6875 
L 18.109375 46.1875 
Q 21.34375 51.125 25.703125 53.5625 
Q 30.078125 56 35.796875 56 
Q 45.21875 56 50.046875 50.171875 
Q 54.890625 44.34375 54.890625 33.015625 
z
" id="DejaVuSans-6e"/>
      <path d="M 45.40625 27.984375 
Q 45.40625 37.75 41.375 43.109375 
Q 37.359375 48.484375 30.078125 48.484375 
Q 22.859375 48.484375 18.828125 43.109375 
Q 14.796875 37.75 14.796875 27.984375 
Q 14.796875 18.265625 18.828125 12.890625 
Q 22.859375 7.515625 30.078125 7.515625 
Q 37.359375 7.515625 41.375 12.890625 
Q 45.40625 18.265625 45.40625 27.984375 
z
M 54.390625 6.78125 
Q 54.390625 -7.171875 48.1875 -13.984375 
Q 42 -20.796875 29.203125 -20.796875 
Q 24.46875 -20.796875 20.265625 -20.09375 
Q 16.0625 -19.390625 12.109375 -17.921875 
L 12.109375 -9.1875 
Q 16.0625 -11.328125 19.921875 -12.34375 
Q 23.78125 -13.375 27.78125 -13.375 
Q 36.625 -13.375 41.015625 -8.765625 
Q 45.40625 -4.15625 45.40625 5.171875 
L 45.40625 9.625 
Q 42.625 4.78125 38.28125 2.390625 
Q 33.9375 0 27.875 0 
Q 17.828125 0 11.671875 7.65625 
Q 5.515625 15.328125 5.515625 27.984375 
Q 5.515625 40.671875 11.671875 48.328125 
Q 17.828125 56 27.875 56 
Q 33.9375 56 38.28125 53.609375 
Q 42.625 51.21875 45.40625 46.390625 
L 45.40625 54.6875 
L 54.390625 54.6875 
z
" id="DejaVuSans-67"/>
      <path d="M 18.3125 70.21875 
L 18.3125 54.6875 
L 36.8125 54.6875 
L 36.8125 47.703125 
L 18.3125 47.703125 
L 18.3125 18.015625 
Q 18.3125 11.328125 20.140625 9.421875 
Q 21.96875 7.515625 27.59375 7.515625 
L 36.8125 7.515625 
L 36.8125 0 
L 27.59375 0 
Q 17.1875 0 13.234375 3.875 
Q 9.28125 7.765625 9.28125 18.015625 
L 9.28125 47.703125 
L 2.6875 47.703125 
L 2.6875 54.6875 
L 9.28125 54.6875 
L 9.28125 70.21875 
z
" id="DejaVuSans-74"/>
      <path d="M 54.890625 33.015625 
L 54.890625 0 
L 45.90625 0 
L 45.90625 32.71875 
Q 45.90625 40.484375 42.875 44.328125 
Q 39.84375 48.1875 33.796875 48.1875 
Q 26.515625 48.1875 22.3125 43.546875 
Q 18.109375 38.921875 18.109375 30.90625 
L 18.109375 0 
L 9.078125 0 
L 9.078125 75.984375 
L 18.109375 75.984375 
L 18.109375 46.1875 
Q 21.34375 51.125 25.703125 53.5625 
Q 30.078125 56 35.796875 56 
Q 45.21875 56 50.046875 50.171875 
Q 54.890625 44.34375 54.890625 33.015625 
z
" id="DejaVuSans-68"/>
      <path id="DejaVuSans-20"/>
      <path d="M 30.609375 48.390625 
Q 23.390625 48.390625 19.1875 42.75 
Q 14.984375 37.109375 14.984375 27.296875 
Q 14.984375 17.484375 19.15625 11.84375 
Q 23.34375 6.203125 30.609375 6.203125 
Q 37.796875 6.203125 41.984375 11.859375 
Q 46.1875 17.53125 46.1875 27.296875 
Q 46.1875 37.015625 41.984375 42.703125 
Q 37.796875 48.390625 30.609375 48.390625 
z
M 30.609375 56 
Q 42.328125 56 49.015625 48.375 
Q 55.71875 40.765625 55.71875 27.296875 
Q 55.71875 13.875 49.015625 6.21875 
Q 42.328125 -1.421875 30.609375 -1.421875 
Q 18.84375 -1.421875 12.171875 6.21875 
Q 5.515625 13.875 5.515625 27.296875 
Q 5.515625 40.765625 12.171875 48.375 
Q 18.84375 56 30.609375 56 
z
" id="DejaVuSans-6f"/>
      <path d="M 37.109375 75.984375 
L 37.109375 68.5 
L 28.515625 68.5 
Q 23.6875 68.5 21.796875 66.546875 
Q 19.921875 64.59375 19.921875 59.515625 
L 19.921875 54.6875 
L 34.71875 54.6875 
L 34.71875 47.703125 
L 19.921875 47.703125 
L 19.921875 0 
L 10.890625 0 
L 10.890625 47.703125 
L 2.296875 47.703125 
L 2.296875 54.6875 
L 10.890625 54.6875 
L 10.890625 58.5 
Q 10.890625 67.625 15.140625 71.796875 
Q 19.390625 75.984375 28.609375 75.984375 
z
" id="DejaVuSans-66"/>
      <path d="M 48.78125 52.59375 
L 48.78125 44.1875 
Q 44.96875 46.296875 41.140625 47.34375 
Q 37.3125 48.390625 33.40625 48.390625 
Q 24.65625 48.390625 19.8125 42.84375 
Q 14.984375 37.3125 14.984375 27.296875 
Q 14.984375 17.28125 19.8125 11.734375 
Q 24.65625 6.203125 33.40625 6.203125 
Q 37.3125 6.203125 41.140625 7.25 
Q 44.96875 8.296875 48.78125 10.40625 
L 48.78125 2.09375 
Q 45.015625 0.34375 40.984375 -0.53125 
Q 36.96875 -1.421875 32.421875 -1.421875 
Q 20.0625 -1.421875 12.78125 6.34375 
Q 5.515625 14.109375 5.515625 27.296875 
Q 5.515625 40.671875 12.859375 48.328125 
Q 20.21875 56 33.015625 56 
Q 37.15625 56 41.109375 55.140625 
Q 45.0625 54.296875 48.78125 52.59375 
z
" id="DejaVuSans-63"/>
      <path d="M 8.5 21.578125 
L 8.5 54.6875 
L 17.484375 54.6875 
L 17.484375 21.921875 
Q 17.484375 14.15625 20.5 10.265625 
Q 23.53125 6.390625 29.59375 6.390625 
Q 36.859375 6.390625 41.078125 11.03125 
Q 45.3125 15.671875 45.3125 23.6875 
L 45.3125 54.6875 
L 54.296875 54.6875 
L 54.296875 0 
L 45.3125 0 
L 45.3125 8.40625 
Q 42.046875 3.421875 37.71875 1 
Q 33.40625 -1.421875 27.6875 -1.421875 
Q 18.265625 -1.421875 13.375 4.4375 
Q 8.5 10.296875 8.5 21.578125 
z
M 31.109375 56 
z
" id="DejaVuSans-75"/>
      <path d="M 9.078125 75.984375 
L 18.109375 75.984375 
L 18.109375 31.109375 
L 44.921875 54.6875 
L 56.390625 54.6875 
L 27.390625 29.109375 
L 57.625 0 
L 45.90625 0 
L 18.109375 26.703125 
L 18.109375 0 
L 9.078125 0 
z
" id="DejaVuSans-6b"/>
      <path d="M 9.421875 54.6875 
L 18.40625 54.6875 
L 18.40625 0 
L 9.421875 0 
z
M 9.421875 75.984375 
L 18.40625 75.984375 
L 18.40625 64.59375 
L 9.421875 64.59375 
z
" id="DejaVuSans-69"/>
      <path d="M 44.28125 53.078125 
L 44.28125 44.578125 
Q 40.484375 46.53125 36.375 47.5 
Q 32.28125 48.484375 27.875 48.484375 
Q 21.1875 48.484375 17.84375 46.4375 
Q 14.5 44.390625 14.5 40.28125 
Q 14.5 37.15625 16.890625 35.375 
Q 19.28125 33.59375 26.515625 31.984375 
L 29.59375 31.296875 
Q 39.15625 29.25 43.1875 25.515625 
Q 47.21875 21.78125 47.21875 15.09375 
Q 47.21875 7.46875 41.1875 3.015625 
Q 35.15625 -1.421875 24.609375 -1.421875 
Q 20.21875 -1.421875 15.453125 -0.5625 
Q 10.6875 0.296875 5.421875 2 
L 5.421875 11.28125 
Q 10.40625 8.6875 15.234375 7.390625 
Q 20.0625 6.109375 24.8125 6.109375 
Q 31.15625 6.109375 34.5625 8.28125 
Q 37.984375 10.453125 37.984375 14.40625 
Q 37.984375 18.0625 35.515625 20.015625 
Q 33.0625 21.96875 24.703125 23.78125 
L 21.578125 24.515625 
Q 13.234375 26.265625 9.515625 29.90625 
Q 5.8125 33.546875 5.8125 39.890625 
Q 5.8125 47.609375 11.28125 51.796875 
Q 16.75 56 26.8125 56 
Q 31.78125 56 36.171875 55.265625 
Q 40.578125 54.546875 44.28125 53.078125 
z
" id="DejaVuSans-73"/>
     </defs>
     <g transform="translate(444.292188 476.836563)scale(0.1 -0.1)">
      <use xlink:href="#DejaVuSans-6c"/>
      <use x="27.783203" xlink:href="#DejaVuSans-65"/>
      <use x="89.306641" xlink:href="#DejaVuSans-6e"/>
      <use x="152.685547" xlink:href="#DejaVuSans-67"/>
      <use x="216.162109" xlink:href="#DejaVuSans-74"/>
      <use x="255.371094" xlink:href="#DejaVuSans-68"/>
      <use x="318.75" xlink:href="#DejaVuSans-20"/>
      <use x="350.537109" xlink:href="#DejaVuSans-6f"/>
      <use x="411.71875" xlink:href="#DejaVuSans-66"/>
      <use x="446.923828" xlink:href="#DejaVuSans-20"/>
      <use x="478.710938" xlink:href="#DejaVuSans-63"/>
      <use x="533.691406" xlink:href="#DejaVuSans-68"/>
      <use x="597.070312" xlink:href="#DejaVuSans-75"/>
      <use x="660.449219" xlink:href="#DejaVuSans-6e"/>
      <use x="723.828125" xlink:href="#DejaVuSans-6b"/>
      <use x="781.738281" xlink:href="#DejaVuSans-20"/>
      <use x="813.525391" xlink:href="#DejaVuSans-69"/>
      <use x="841.308594" xlink:href="#DejaVuSans-6e"/>
      <use x="904.6875" xlink:href="#DejaVuSans-20"/>
      <use x="936.474609" xlink:href="#DejaVuSans-73"/>
      <use x="988.574219" xlink:href="#DejaVuSans-65"/>
      <use x="1050.097656" xlink:href="#DejaVuSans-6e"/>
      <use x="1113.476562" xlink:href="#DejaVuSans-74"/>
      <use x="1152.685547" xlink:href="#DejaVuSans-65"/>
      <use x="1214.208984" xlink:href="#DejaVuSans-6e"/>
      <use x="1277.587891" xlink:href="#DejaVuSans-63"/>
      <use x="1332.568359" xlink:href="#DejaVuSans-65"/>
      <use x="1394.091797" xlink:href="#DejaVuSans-73"/>
     </g>
    </g>
   </g>
   <g id="matplotlib.axis_2">
    <g id="ytick_1">
     <g id="line2d_6">
      <defs>
       <path d="M 0 0 
L -3.5 0 
" id="m4068a28a4e" style="stroke:#000000;stroke-width:0.8;"/>
      </defs>
      <g>
       <use style="stroke:#000000;stroke-width:0.8;" x="126" xlink:href="#m4068a28a4e" y="404.025272"/>
      </g>
     </g>
     <g id="text_7">
      <!-- 10 -->
      <defs>
       <path d="M 12.40625 8.296875 
L 28.515625 8.296875 
L 28.515625 63.921875 
L 10.984375 60.40625 
L 10.984375 69.390625 
L 28.421875 72.90625 
L 38.28125 72.90625 
L 38.28125 8.296875 
L 54.390625 8.296875 
L 54.390625 0 
L 12.40625 0 
z
" id="DejaVuSans-31"/>
      </defs>
      <g transform="translate(106.275 407.824491)scale(0.1 -0.1)">
       <use xlink:href="#DejaVuSans-31"/>
       <use x="63.623047" xlink:href="#DejaVuSans-30"/>
      </g>
     </g>
    </g>
    <g id="ytick_2">
     <g id="line2d_7">
      <g>
       <use style="stroke:#000000;stroke-width:0.8;" x="126" xlink:href="#m4068a28a4e" y="355.519404"/>
      </g>
     </g>
     <g id="text_8">
      <!-- 15 -->
      <defs>
       <path d="M 10.796875 72.90625 
L 49.515625 72.90625 
L 49.515625 64.59375 
L 19.828125 64.59375 
L 19.828125 46.734375 
Q 21.96875 47.46875 24.109375 47.828125 
Q 26.265625 48.1875 28.421875 48.1875 
Q 40.625 48.1875 47.75 41.5 
Q 54.890625 34.8125 54.890625 23.390625 
Q 54.890625 11.625 47.5625 5.09375 
Q 40.234375 -1.421875 26.90625 -1.421875 
Q 22.3125 -1.421875 17.546875 -0.640625 
Q 12.796875 0.140625 7.71875 1.703125 
L 7.71875 11.625 
Q 12.109375 9.234375 16.796875 8.0625 
Q 21.484375 6.890625 26.703125 6.890625 
Q 35.15625 6.890625 40.078125 11.328125 
Q 45.015625 15.765625 45.015625 23.390625 
Q 45.015625 31 40.078125 35.4375 
Q 35.15625 39.890625 26.703125 39.890625 
Q 22.75 39.890625 18.8125 39.015625 
Q 14.890625 38.140625 10.796875 36.28125 
z
" id="DejaVuSans-35"/>
      </defs>
      <g transform="translate(106.275 359.318623)scale(0.1 -0.1)">
       <use xlink:href="#DejaVuSans-31"/>
       <use x="63.623047" xlink:href="#DejaVuSans-35"/>
      </g>
     </g>
    </g>
    <g id="ytick_3">
     <g id="line2d_8">
      <g>
       <use style="stroke:#000000;stroke-width:0.8;" x="126" xlink:href="#m4068a28a4e" y="307.013536"/>
      </g>
     </g>
     <g id="text_9">
      <!-- 20 -->
      <g transform="translate(106.275 310.812755)scale(0.1 -0.1)">
       <use xlink:href="#DejaVuSans-32"/>
       <use x="63.623047" xlink:href="#DejaVuSans-30"/>
      </g>
     </g>
    </g>
    <g id="ytick_4">
     <g id="line2d_9">
      <g>
       <use style="stroke:#000000;stroke-width:0.8;" x="126" xlink:href="#m4068a28a4e" y="258.507667"/>
      </g>
     </g>
     <g id="text_10">
      <!-- 25 -->
      <g transform="translate(106.275 262.306886)scale(0.1 -0.1)">
       <use xlink:href="#DejaVuSans-32"/>
       <use x="63.623047" xlink:href="#DejaVuSans-35"/>
      </g>
     </g>
    </g>
    <g id="ytick_5">
     <g id="line2d_10">
      <g>
       <use style="stroke:#000000;stroke-width:0.8;" x="126" xlink:href="#m4068a28a4e" y="210.001799"/>
      </g>
     </g>
     <g id="text_11">
      <!-- 30 -->
      <defs>
       <path d="M 40.578125 39.3125 
Q 47.65625 37.796875 51.625 33 
Q 55.609375 28.21875 55.609375 21.1875 
Q 55.609375 10.40625 48.1875 4.484375 
Q 40.765625 -1.421875 27.09375 -1.421875 
Q 22.515625 -1.421875 17.65625 -0.515625 
Q 12.796875 0.390625 7.625 2.203125 
L 7.625 11.71875 
Q 11.71875 9.328125 16.59375 8.109375 
Q 21.484375 6.890625 26.8125 6.890625 
Q 36.078125 6.890625 40.9375 10.546875 
Q 45.796875 14.203125 45.796875 21.1875 
Q 45.796875 27.640625 41.28125 31.265625 
Q 36.765625 34.90625 28.71875 34.90625 
L 20.21875 34.90625 
L 20.21875 43.015625 
L 29.109375 43.015625 
Q 36.375 43.015625 40.234375 45.921875 
Q 44.09375 48.828125 44.09375 54.296875 
Q 44.09375 59.90625 40.109375 62.90625 
Q 36.140625 65.921875 28.71875 65.921875 
Q 24.65625 65.921875 20.015625 65.03125 
Q 15.375 64.15625 9.8125 62.3125 
L 9.8125 71.09375 
Q 15.4375 72.65625 20.34375 73.4375 
Q 25.25 74.21875 29.59375 74.21875 
Q 40.828125 74.21875 47.359375 69.109375 
Q 53.90625 64.015625 53.90625 55.328125 
Q 53.90625 49.265625 50.4375 45.09375 
Q 46.96875 40.921875 40.578125 39.3125 
z
" id="DejaVuSans-33"/>
      </defs>
      <g transform="translate(106.275 213.801018)scale(0.1 -0.1)">
       <use xlink:href="#DejaVuSans-33"/>
       <use x="63.623047" xlink:href="#DejaVuSans-30"/>
      </g>
     </g>
    </g>
    <g id="ytick_6">
     <g id="line2d_11">
      <g>
       <use style="stroke:#000000;stroke-width:0.8;" x="126" xlink:href="#m4068a28a4e" y="161.495931"/>
      </g>
     </g>
     <g id="text_12">
      <!-- 35 -->
      <g transform="translate(106.275 165.29515)scale(0.1 -0.1)">
       <use xlink:href="#DejaVuSans-33"/>
       <use x="63.623047" xlink:href="#DejaVuSans-35"/>
      </g>
     </g>
    </g>
    <g id="ytick_7">
     <g id="line2d_12">
      <g>
       <use style="stroke:#000000;stroke-width:0.8;" x="126" xlink:href="#m4068a28a4e" y="112.990062"/>
      </g>
     </g>
     <g id="text_13">
      <!-- 40 -->
      <g transform="translate(106.275 116.789281)scale(0.1 -0.1)">
       <use xlink:href="#DejaVuSans-34"/>
       <use x="63.623047" xlink:href="#DejaVuSans-30"/>
      </g>
     </g>
    </g>
    <g id="ytick_8">
     <g id="line2d_13">
      <g>
       <use style="stroke:#000000;stroke-width:0.8;" x="126" xlink:href="#m4068a28a4e" y="64.484194"/>
      </g>
     </g>
     <g id="text_14">
      <!-- 45 -->
      <g transform="translate(106.275 68.283413)scale(0.1 -0.1)">
       <use xlink:href="#DejaVuSans-34"/>
       <use x="63.623047" xlink:href="#DejaVuSans-35"/>
      </g>
     </g>
    </g>
    <g id="text_15">
     <!-- GFI -->
     <defs>
      <path d="M 59.515625 10.40625 
L 59.515625 29.984375 
L 43.40625 29.984375 
L 43.40625 38.09375 
L 69.28125 38.09375 
L 69.28125 6.78125 
Q 63.578125 2.734375 56.6875 0.65625 
Q 49.8125 -1.421875 42 -1.421875 
Q 24.90625 -1.421875 15.25 8.5625 
Q 5.609375 18.5625 5.609375 36.375 
Q 5.609375 54.25 15.25 64.234375 
Q 24.90625 74.21875 42 74.21875 
Q 49.125 74.21875 55.546875 72.453125 
Q 61.96875 70.703125 67.390625 67.28125 
L 67.390625 56.78125 
Q 61.921875 61.421875 55.765625 63.765625 
Q 49.609375 66.109375 42.828125 66.109375 
Q 29.4375 66.109375 22.71875 58.640625 
Q 16.015625 51.171875 16.015625 36.375 
Q 16.015625 21.625 22.71875 14.15625 
Q 29.4375 6.6875 42.828125 6.6875 
Q 48.046875 6.6875 52.140625 7.59375 
Q 56.25 8.5 59.515625 10.40625 
z
" id="DejaVuSans-47"/>
      <path d="M 9.8125 72.90625 
L 51.703125 72.90625 
L 51.703125 64.59375 
L 19.671875 64.59375 
L 19.671875 43.109375 
L 48.578125 43.109375 
L 48.578125 34.8125 
L 19.671875 34.8125 
L 19.671875 0 
L 9.8125 0 
z
" id="DejaVuSans-46"/>
      <path d="M 9.8125 72.90625 
L 19.671875 72.90625 
L 19.671875 0 
L 9.8125 0 
z
" id="DejaVuSans-49"/>
     </defs>
     <g transform="translate(100.195312 262.745)rotate(-90)scale(0.1 -0.1)">
      <use xlink:href="#DejaVuSans-47"/>
      <use x="77.490234" xlink:href="#DejaVuSans-46"/>
      <use x="135.009766" xlink:href="#DejaVuSans-49"/>
     </g>
    </g>
   </g>
   <g id="line2d_14">
    <path clip-path="url(#p57ec215d63)" d="M 161.513874 329.339041 
L 169.422251 329.775658 
L 177.330628 330.032545 
L 185.239005 329.389954 
L 193.147382 330.078992 
L 212.918324 330.013402 
L 232.689267 330.161614 
L 272.231152 330.184304 
L 311.773037 329.317747 
L 351.314921 330.234265 
L 390.856806 330.450925 
L 430.398691 337.021206 
L 469.940576 330.435079 
L 509.482461 331.208748 
L 549.024346 335.917213 
L 746.73377 330.571866 
L 871.686126 331.224755 
" style="fill:none;stroke:#ff0000;stroke-linecap:square;stroke-width:1.5;"/>
   </g>
   <g id="patch_3">
    <path d="M 126 448.56 
L 126 60.48 
" style="fill:none;stroke:#000000;stroke-linecap:square;stroke-linejoin:miter;stroke-width:0.8;"/>
   </g>
   <g id="patch_4">
    <path d="M 907.2 448.56 
L 907.2 60.48 
" style="fill:none;stroke:#000000;stroke-linecap:square;stroke-linejoin:miter;stroke-width:0.8;"/>
   </g>
   <g id="patch_5">
    <path d="M 126 448.56 
L 907.2 448.56 
" style="fill:none;stroke:#000000;stroke-linecap:square;stroke-linejoin:miter;stroke-width:0.8;"/>
   </g>
   <g id="patch_6">
    <path d="M 126 60.48 
L 907.2 60.48 
" style="fill:none;stroke:#000000;stroke-linecap:square;stroke-linejoin:miter;stroke-width:0.8;"/>
   </g>
  </g>
  <g id="text_16">
   <!-- GFI values of the different chunk sizes of document en115002482.txt -->
   <defs>
    <path d="M 2.984375 54.6875 
L 12.5 54.6875 
L 29.59375 8.796875 
L 46.6875 54.6875 
L 56.203125 54.6875 
L 35.6875 0 
L 23.484375 0 
z
" id="DejaVuSans-76"/>
    <path d="M 34.28125 27.484375 
Q 23.390625 27.484375 19.1875 25 
Q 14.984375 22.515625 14.984375 16.5 
Q 14.984375 11.71875 18.140625 8.90625 
Q 21.296875 6.109375 26.703125 6.109375 
Q 34.1875 6.109375 38.703125 11.40625 
Q 43.21875 16.703125 43.21875 25.484375 
L 43.21875 27.484375 
z
M 52.203125 31.203125 
L 52.203125 0 
L 43.21875 0 
L 43.21875 8.296875 
Q 40.140625 3.328125 35.546875 0.953125 
Q 30.953125 -1.421875 24.3125 -1.421875 
Q 15.921875 -1.421875 10.953125 3.296875 
Q 6 8.015625 6 15.921875 
Q 6 25.140625 12.171875 29.828125 
Q 18.359375 34.515625 30.609375 34.515625 
L 43.21875 34.515625 
L 43.21875 35.40625 
Q 43.21875 41.609375 39.140625 45 
Q 35.0625 48.390625 27.6875 48.390625 
Q 23 48.390625 18.546875 47.265625 
Q 14.109375 46.140625 10.015625 43.890625 
L 10.015625 52.203125 
Q 14.9375 54.109375 19.578125 55.046875 
Q 24.21875 56 28.609375 56 
Q 40.484375 56 46.34375 49.84375 
Q 52.203125 43.703125 52.203125 31.203125 
z
" id="DejaVuSans-61"/>
    <path d="M 45.40625 46.390625 
L 45.40625 75.984375 
L 54.390625 75.984375 
L 54.390625 0 
L 45.40625 0 
L 45.40625 8.203125 
Q 42.578125 3.328125 38.25 0.953125 
Q 33.9375 -1.421875 27.875 -1.421875 
Q 17.96875 -1.421875 11.734375 6.484375 
Q 5.515625 14.40625 5.515625 27.296875 
Q 5.515625 40.1875 11.734375 48.09375 
Q 17.96875 56 27.875 56 
Q 33.9375 56 38.25 53.625 
Q 42.578125 51.265625 45.40625 46.390625 
z
M 14.796875 27.296875 
Q 14.796875 17.390625 18.875 11.75 
Q 22.953125 6.109375 30.078125 6.109375 
Q 37.203125 6.109375 41.296875 11.75 
Q 45.40625 17.390625 45.40625 27.296875 
Q 45.40625 37.203125 41.296875 42.84375 
Q 37.203125 48.484375 30.078125 48.484375 
Q 22.953125 48.484375 18.875 42.84375 
Q 14.796875 37.203125 14.796875 27.296875 
z
" id="DejaVuSans-64"/>
    <path d="M 41.109375 46.296875 
Q 39.59375 47.171875 37.8125 47.578125 
Q 36.03125 48 33.890625 48 
Q 26.265625 48 22.1875 43.046875 
Q 18.109375 38.09375 18.109375 28.8125 
L 18.109375 0 
L 9.078125 0 
L 9.078125 54.6875 
L 18.109375 54.6875 
L 18.109375 46.1875 
Q 20.953125 51.171875 25.484375 53.578125 
Q 30.03125 56 36.53125 56 
Q 37.453125 56 38.578125 55.875 
Q 39.703125 55.765625 41.0625 55.515625 
z
" id="DejaVuSans-72"/>
    <path d="M 5.515625 54.6875 
L 48.1875 54.6875 
L 48.1875 46.484375 
L 14.40625 7.171875 
L 48.1875 7.171875 
L 48.1875 0 
L 4.296875 0 
L 4.296875 8.203125 
L 38.09375 47.515625 
L 5.515625 47.515625 
z
" id="DejaVuSans-7a"/>
    <path d="M 52 44.1875 
Q 55.375 50.25 60.0625 53.125 
Q 64.75 56 71.09375 56 
Q 79.640625 56 84.28125 50.015625 
Q 88.921875 44.046875 88.921875 33.015625 
L 88.921875 0 
L 79.890625 0 
L 79.890625 32.71875 
Q 79.890625 40.578125 77.09375 44.375 
Q 74.3125 48.1875 68.609375 48.1875 
Q 61.625 48.1875 57.5625 43.546875 
Q 53.515625 38.921875 53.515625 30.90625 
L 53.515625 0 
L 44.484375 0 
L 44.484375 32.71875 
Q 44.484375 40.625 41.703125 44.40625 
Q 38.921875 48.1875 33.109375 48.1875 
Q 26.21875 48.1875 22.15625 43.53125 
Q 18.109375 38.875 18.109375 30.90625 
L 18.109375 0 
L 9.078125 0 
L 9.078125 54.6875 
L 18.109375 54.6875 
L 18.109375 46.1875 
Q 21.1875 51.21875 25.484375 53.609375 
Q 29.78125 56 35.6875 56 
Q 41.65625 56 45.828125 52.96875 
Q 50 49.953125 52 44.1875 
z
" id="DejaVuSans-6d"/>
    <path d="M 10.6875 12.40625 
L 21 12.40625 
L 21 0 
L 10.6875 0 
z
" id="DejaVuSans-2e"/>
    <path d="M 54.890625 54.6875 
L 35.109375 28.078125 
L 55.90625 0 
L 45.3125 0 
L 29.390625 21.484375 
L 13.484375 0 
L 2.875 0 
L 24.125 28.609375 
L 4.6875 54.6875 
L 15.28125 54.6875 
L 29.78125 35.203125 
L 44.28125 54.6875 
z
" id="DejaVuSans-78"/>
   </defs>
   <g transform="translate(260.293906 20.717812)scale(0.14 -0.14)">
    <use xlink:href="#DejaVuSans-47"/>
    <use x="77.490234" xlink:href="#DejaVuSans-46"/>
    <use x="135.009766" xlink:href="#DejaVuSans-49"/>
    <use x="164.501953" xlink:href="#DejaVuSans-20"/>
    <use x="196.289062" xlink:href="#DejaVuSans-76"/>
    <use x="255.46875" xlink:href="#DejaVuSans-61"/>
    <use x="316.748047" xlink:href="#DejaVuSans-6c"/>
    <use x="344.53125" xlink:href="#DejaVuSans-75"/>
    <use x="407.910156" xlink:href="#DejaVuSans-65"/>
    <use x="469.433594" xlink:href="#DejaVuSans-73"/>
    <use x="521.533203" xlink:href="#DejaVuSans-20"/>
    <use x="553.320312" xlink:href="#DejaVuSans-6f"/>
    <use x="614.501953" xlink:href="#DejaVuSans-66"/>
    <use x="649.707031" xlink:href="#DejaVuSans-20"/>
    <use x="681.494141" xlink:href="#DejaVuSans-74"/>
    <use x="720.703125" xlink:href="#DejaVuSans-68"/>
    <use x="784.082031" xlink:href="#DejaVuSans-65"/>
    <use x="845.605469" xlink:href="#DejaVuSans-20"/>
    <use x="877.392578" xlink:href="#DejaVuSans-64"/>
    <use x="940.869141" xlink:href="#DejaVuSans-69"/>
    <use x="968.652344" xlink:href="#DejaVuSans-66"/>
    <use x="1003.857422" xlink:href="#DejaVuSans-66"/>
    <use x="1039.0625" xlink:href="#DejaVuSans-65"/>
    <use x="1100.585938" xlink:href="#DejaVuSans-72"/>
    <use x="1141.667969" xlink:href="#DejaVuSans-65"/>
    <use x="1203.191406" xlink:href="#DejaVuSans-6e"/>
    <use x="1266.570312" xlink:href="#DejaVuSans-74"/>
    <use x="1305.779297" xlink:href="#DejaVuSans-20"/>
    <use x="1337.566406" xlink:href="#DejaVuSans-63"/>
    <use x="1392.546875" xlink:href="#DejaVuSans-68"/>
    <use x="1455.925781" xlink:href="#DejaVuSans-75"/>
    <use x="1519.304688" xlink:href="#DejaVuSans-6e"/>
    <use x="1582.683594" xlink:href="#DejaVuSans-6b"/>
    <use x="1640.59375" xlink:href="#DejaVuSans-20"/>
    <use x="1672.380859" xlink:href="#DejaVuSans-73"/>
    <use x="1724.480469" xlink:href="#DejaVuSans-69"/>
    <use x="1752.263672" xlink:href="#DejaVuSans-7a"/>
    <use x="1804.753906" xlink:href="#DejaVuSans-65"/>
    <use x="1866.277344" xlink:href="#DejaVuSans-73"/>
    <use x="1918.376953" xlink:href="#DejaVuSans-20"/>
    <use x="1950.164062" xlink:href="#DejaVuSans-6f"/>
    <use x="2011.345703" xlink:href="#DejaVuSans-66"/>
    <use x="2046.550781" xlink:href="#DejaVuSans-20"/>
    <use x="2078.337891" xlink:href="#DejaVuSans-64"/>
    <use x="2141.814453" xlink:href="#DejaVuSans-6f"/>
    <use x="2202.996094" xlink:href="#DejaVuSans-63"/>
    <use x="2257.976562" xlink:href="#DejaVuSans-75"/>
    <use x="2321.355469" xlink:href="#DejaVuSans-6d"/>
    <use x="2418.767578" xlink:href="#DejaVuSans-65"/>
    <use x="2480.291016" xlink:href="#DejaVuSans-6e"/>
    <use x="2543.669922" xlink:href="#DejaVuSans-74"/>
    <use x="2582.878906" xlink:href="#DejaVuSans-20"/>
    <use x="2614.666016" xlink:href="#DejaVuSans-65"/>
    <use x="2676.189453" xlink:href="#DejaVuSans-6e"/>
    <use x="2739.568359" xlink:href="#DejaVuSans-31"/>
    <use x="2803.191406" xlink:href="#DejaVuSans-31"/>
    <use x="2866.814453" xlink:href="#DejaVuSans-35"/>
    <use x="2930.4375" xlink:href="#DejaVuSans-30"/>
    <use x="2994.060547" xlink:href="#DejaVuSans-30"/>
    <use x="3057.683594" xlink:href="#DejaVuSans-32"/>
    <use x="3121.306641" xlink:href="#DejaVuSans-34"/>
    <use x="3184.929688" xlink:href="#DejaVuSans-38"/>
    <use x="3248.552734" xlink:href="#DejaVuSans-32"/>
    <use x="3312.175781" xlink:href="#DejaVuSans-2e"/>
    <use x="3343.962891" xlink:href="#DejaVuSans-74"/>
    <use x="3383.171875" xlink:href="#DejaVuSans-78"/>
    <use x="3442.351562" xlink:href="#DejaVuSans-74"/>
   </g>
  </g>
 </g>
 <defs>
  <clipPath id="p57ec215d63">
   <rect height="388.08" width="781.2" x="126" y="60.48"/>
  </clipPath>
 </defs>
</svg>
