<?xml version="1.0" encoding="utf-8" standalone="no"?>
<!DOCTYPE svg PUBLIC "-//W3C//DTD SVG 1.1//EN"
  "http://www.w3.org/Graphics/SVG/1.1/DTD/svg11.dtd">
<!-- Created with matplotlib (http://matplotlib.org/) -->
<svg height="504pt" version="1.1" viewBox="0 0 1008 504" width="1008pt" xmlns="http://www.w3.org/2000/svg" xmlns:xlink="http://www.w3.org/1999/xlink">
 <defs>
  <style type="text/css">
*{stroke-linecap:butt;stroke-linejoin:round;}
  </style>
 </defs>
 <g id="figure_1">
  <g id="patch_1">
   <path d="M 0 504 
L 1008 504 
L 1008 0 
L 0 0 
z
" style="fill:#ffffff;"/>
  </g>
  <g id="axes_1">
   <g id="patch_2">
    <path d="M 126 448.56 
L 907.2 448.56 
L 907.2 60.48 
L 126 60.48 
z
" style="fill:#ffffff;"/>
   </g>
   <g id="PathCollection_1">
    <defs>
     <path d="M 0 3 
C 0.795609 3 1.55874 2.683901 2.12132 2.12132 
C 2.683901 1.55874 3 0.795609 3 0 
C 3 -0.795609 2.683901 -1.55874 2.12132 -2.12132 
C 1.55874 -2.683901 0.795609 -3 0 -3 
C -0.795609 -3 -1.55874 -2.683901 -2.12132 -2.12132 
C -2.683901 -1.55874 -3 -0.795609 -3 0 
C -3 0.795609 -2.683901 1.55874 -2.12132 2.12132 
C -1.55874 2.683901 -0.795609 3 0 3 
z
" id="m9bef437dc0" style="stroke:#1f77b4;"/>
    </defs>
    <g clip-path="url(#pf1d2eeb948)">
     <use style="fill:#1f77b4;stroke:#1f77b4;" x="871.681213" xlink:href="#m9bef437dc0" y="348.36254"/>
     <use style="fill:#1f77b4;stroke:#1f77b4;" x="866.871987" xlink:href="#m9bef437dc0" y="349.056196"/>
     <use style="fill:#1f77b4;stroke:#1f77b4;" x="786.718214" xlink:href="#m9bef437dc0" y="349.396939"/>
     <use style="fill:#1f77b4;stroke:#1f77b4;" x="706.564441" xlink:href="#m9bef437dc0" y="341.175644"/>
     <use style="fill:#1f77b4;stroke:#1f77b4;" x="626.410669" xlink:href="#m9bef437dc0" y="337.340547"/>
     <use style="fill:#1f77b4;stroke:#1f77b4;" x="546.256896" xlink:href="#m9bef437dc0" y="338.340175"/>
     <use style="fill:#1f77b4;stroke:#1f77b4;" x="466.103123" xlink:href="#m9bef437dc0" y="335.028362"/>
     <use style="fill:#1f77b4;stroke:#1f77b4;" x="466.103123" xlink:href="#m9bef437dc0" y="363.977611"/>
     <use style="fill:#1f77b4;stroke:#1f77b4;" x="385.94935" xlink:href="#m9bef437dc0" y="323.477869"/>
     <use style="fill:#1f77b4;stroke:#1f77b4;" x="385.94935" xlink:href="#m9bef437dc0" y="351.766494"/>
     <use style="fill:#1f77b4;stroke:#1f77b4;" x="385.94935" xlink:href="#m9bef437dc0" y="372.863007"/>
     <use style="fill:#1f77b4;stroke:#1f77b4;" x="305.795578" xlink:href="#m9bef437dc0" y="318.938685"/>
     <use style="fill:#1f77b4;stroke:#1f77b4;" x="305.795578" xlink:href="#m9bef437dc0" y="351.385765"/>
     <use style="fill:#1f77b4;stroke:#1f77b4;" x="305.795578" xlink:href="#m9bef437dc0" y="341.987517"/>
     <use style="fill:#1f77b4;stroke:#1f77b4;" x="305.795578" xlink:href="#m9bef437dc0" y="386.522282"/>
     <use style="fill:#1f77b4;stroke:#1f77b4;" x="265.718691" xlink:href="#m9bef437dc0" y="301.371296"/>
     <use style="fill:#1f77b4;stroke:#1f77b4;" x="265.718691" xlink:href="#m9bef437dc0" y="345.396685"/>
     <use style="fill:#1f77b4;stroke:#1f77b4;" x="265.718691" xlink:href="#m9bef437dc0" y="369.069633"/>
     <use style="fill:#1f77b4;stroke:#1f77b4;" x="265.718691" xlink:href="#m9bef437dc0" y="335.402136"/>
     <use style="fill:#1f77b4;stroke:#1f77b4;" x="265.718691" xlink:href="#m9bef437dc0" y="374.241625"/>
     <use style="fill:#1f77b4;stroke:#1f77b4;" x="265.718691" xlink:href="#m9bef437dc0" y="371.489604"/>
     <use style="fill:#1f77b4;stroke:#1f77b4;" x="225.641805" xlink:href="#m9bef437dc0" y="276.417085"/>
     <use style="fill:#1f77b4;stroke:#1f77b4;" x="225.641805" xlink:href="#m9bef437dc0" y="364.73559"/>
     <use style="fill:#1f77b4;stroke:#1f77b4;" x="225.641805" xlink:href="#m9bef437dc0" y="331.857366"/>
     <use style="fill:#1f77b4;stroke:#1f77b4;" x="225.641805" xlink:href="#m9bef437dc0" y="372.419693"/>
     <use style="fill:#1f77b4;stroke:#1f77b4;" x="225.641805" xlink:href="#m9bef437dc0" y="351.943819"/>
     <use style="fill:#1f77b4;stroke:#1f77b4;" x="225.641805" xlink:href="#m9bef437dc0" y="332.36848"/>
     <use style="fill:#1f77b4;stroke:#1f77b4;" x="225.641805" xlink:href="#m9bef437dc0" y="361.528086"/>
     <use style="fill:#1f77b4;stroke:#1f77b4;" x="225.641805" xlink:href="#m9bef437dc0" y="414.619673"/>
     <use style="fill:#1f77b4;stroke:#1f77b4;" x="225.641805" xlink:href="#m9bef437dc0" y="346.342421"/>
     <use style="fill:#1f77b4;stroke:#1f77b4;" x="209.611051" xlink:href="#m9bef437dc0" y="259.399058"/>
     <use style="fill:#1f77b4;stroke:#1f77b4;" x="209.611051" xlink:href="#m9bef437dc0" y="342.418661"/>
     <use style="fill:#1f77b4;stroke:#1f77b4;" x="209.611051" xlink:href="#m9bef437dc0" y="369.606825"/>
     <use style="fill:#1f77b4;stroke:#1f77b4;" x="209.611051" xlink:href="#m9bef437dc0" y="332.704008"/>
     <use style="fill:#1f77b4;stroke:#1f77b4;" x="209.611051" xlink:href="#m9bef437dc0" y="374.996127"/>
     <use style="fill:#1f77b4;stroke:#1f77b4;" x="209.611051" xlink:href="#m9bef437dc0" y="353.178143"/>
     <use style="fill:#1f77b4;stroke:#1f77b4;" x="209.611051" xlink:href="#m9bef437dc0" y="344.35881"/>
     <use style="fill:#1f77b4;stroke:#1f77b4;" x="209.611051" xlink:href="#m9bef437dc0" y="344.247547"/>
     <use style="fill:#1f77b4;stroke:#1f77b4;" x="209.611051" xlink:href="#m9bef437dc0" y="363.177908"/>
     <use style="fill:#1f77b4;stroke:#1f77b4;" x="209.611051" xlink:href="#m9bef437dc0" y="418.18009"/>
     <use style="fill:#1f77b4;stroke:#1f77b4;" x="209.611051" xlink:href="#m9bef437dc0" y="336.236609"/>
     <use style="fill:#1f77b4;stroke:#1f77b4;" x="193.580296" xlink:href="#m9bef437dc0" y="229.245039"/>
     <use style="fill:#1f77b4;stroke:#1f77b4;" x="193.580296" xlink:href="#m9bef437dc0" y="357.953761"/>
     <use style="fill:#1f77b4;stroke:#1f77b4;" x="193.580296" xlink:href="#m9bef437dc0" y="353.706643"/>
     <use style="fill:#1f77b4;stroke:#1f77b4;" x="193.580296" xlink:href="#m9bef437dc0" y="355.850194"/>
     <use style="fill:#1f77b4;stroke:#1f77b4;" x="193.580296" xlink:href="#m9bef437dc0" y="323.420499"/>
     <use style="fill:#1f77b4;stroke:#1f77b4;" x="193.580296" xlink:href="#m9bef437dc0" y="376.628565"/>
     <use style="fill:#1f77b4;stroke:#1f77b4;" x="193.580296" xlink:href="#m9bef437dc0" y="370.037969"/>
     <use style="fill:#1f77b4;stroke:#1f77b4;" x="193.580296" xlink:href="#m9bef437dc0" y="345.39147"/>
     <use style="fill:#1f77b4;stroke:#1f77b4;" x="193.580296" xlink:href="#m9bef437dc0" y="339.793549"/>
     <use style="fill:#1f77b4;stroke:#1f77b4;" x="193.580296" xlink:href="#m9bef437dc0" y="329.108821"/>
     <use style="fill:#1f77b4;stroke:#1f77b4;" x="193.580296" xlink:href="#m9bef437dc0" y="377.094479"/>
     <use style="fill:#1f77b4;stroke:#1f77b4;" x="193.580296" xlink:href="#m9bef437dc0" y="358.235395"/>
     <use style="fill:#1f77b4;stroke:#1f77b4;" x="193.580296" xlink:href="#m9bef437dc0" y="417.912363"/>
     <use style="fill:#1f77b4;stroke:#1f77b4;" x="193.580296" xlink:href="#m9bef437dc0" y="393.476221"/>
     <use style="fill:#1f77b4;stroke:#1f77b4;" x="193.580296" xlink:href="#m9bef437dc0" y="319.30029"/>
     <use style="fill:#1f77b4;stroke:#1f77b4;" x="177.549541" xlink:href="#m9bef437dc0" y="319.675803"/>
     <use style="fill:#1f77b4;stroke:#1f77b4;" x="177.549541" xlink:href="#m9bef437dc0" y="206.031051"/>
     <use style="fill:#1f77b4;stroke:#1f77b4;" x="177.549541" xlink:href="#m9bef437dc0" y="356.545588"/>
     <use style="fill:#1f77b4;stroke:#1f77b4;" x="177.549541" xlink:href="#m9bef437dc0" y="327.578954"/>
     <use style="fill:#1f77b4;stroke:#1f77b4;" x="177.549541" xlink:href="#m9bef437dc0" y="398.997649"/>
     <use style="fill:#1f77b4;stroke:#1f77b4;" x="177.549541" xlink:href="#m9bef437dc0" y="342.926298"/>
     <use style="fill:#1f77b4;stroke:#1f77b4;" x="177.549541" xlink:href="#m9bef437dc0" y="310.932963"/>
     <use style="fill:#1f77b4;stroke:#1f77b4;" x="177.549541" xlink:href="#m9bef437dc0" y="356.039689"/>
     <use style="fill:#1f77b4;stroke:#1f77b4;" x="177.549541" xlink:href="#m9bef437dc0" y="384.079711"/>
     <use style="fill:#1f77b4;stroke:#1f77b4;" x="177.549541" xlink:href="#m9bef437dc0" y="366.232426"/>
     <use style="fill:#1f77b4;stroke:#1f77b4;" x="177.549541" xlink:href="#m9bef437dc0" y="357.941592"/>
     <use style="fill:#1f77b4;stroke:#1f77b4;" x="177.549541" xlink:href="#m9bef437dc0" y="344.7604"/>
     <use style="fill:#1f77b4;stroke:#1f77b4;" x="177.549541" xlink:href="#m9bef437dc0" y="337.862092"/>
     <use style="fill:#1f77b4;stroke:#1f77b4;" x="177.549541" xlink:href="#m9bef437dc0" y="349.588172"/>
     <use style="fill:#1f77b4;stroke:#1f77b4;" x="177.549541" xlink:href="#m9bef437dc0" y="315.489531"/>
     <use style="fill:#1f77b4;stroke:#1f77b4;" x="177.549541" xlink:href="#m9bef437dc0" y="375.914047"/>
     <use style="fill:#1f77b4;stroke:#1f77b4;" x="177.549541" xlink:href="#m9bef437dc0" y="360.257253"/>
     <use style="fill:#1f77b4;stroke:#1f77b4;" x="177.549541" xlink:href="#m9bef437dc0" y="364.307923"/>
     <use style="fill:#1f77b4;stroke:#1f77b4;" x="177.549541" xlink:href="#m9bef437dc0" y="414.763967"/>
     <use style="fill:#1f77b4;stroke:#1f77b4;" x="177.549541" xlink:href="#m9bef437dc0" y="414.259807"/>
     <use style="fill:#1f77b4;stroke:#1f77b4;" x="177.549541" xlink:href="#m9bef437dc0" y="382.831478"/>
     <use style="fill:#1f77b4;stroke:#1f77b4;" x="177.549541" xlink:href="#m9bef437dc0" y="291.317639"/>
     <use style="fill:#1f77b4;stroke:#1f77b4;" x="161.518787" xlink:href="#m9bef437dc0" y="278.757086"/>
     <use style="fill:#1f77b4;stroke:#1f77b4;" x="161.518787" xlink:href="#m9bef437dc0" y="357.85119"/>
     <use style="fill:#1f77b4;stroke:#1f77b4;" x="161.518787" xlink:href="#m9bef437dc0" y="78.261111"/>
     <use style="fill:#1f77b4;stroke:#1f77b4;" x="161.518787" xlink:href="#m9bef437dc0" y="360.292023"/>
     <use style="fill:#1f77b4;stroke:#1f77b4;" x="161.518787" xlink:href="#m9bef437dc0" y="333.804469"/>
     <use style="fill:#1f77b4;stroke:#1f77b4;" x="161.518787" xlink:href="#m9bef437dc0" y="370.288311"/>
     <use style="fill:#1f77b4;stroke:#1f77b4;" x="161.518787" xlink:href="#m9bef437dc0" y="319.543678"/>
     <use style="fill:#1f77b4;stroke:#1f77b4;" x="161.518787" xlink:href="#m9bef437dc0" y="335.857619"/>
     <use style="fill:#1f77b4;stroke:#1f77b4;" x="161.518787" xlink:href="#m9bef437dc0" y="416.862318"/>
     <use style="fill:#1f77b4;stroke:#1f77b4;" x="161.518787" xlink:href="#m9bef437dc0" y="381.837065"/>
     <use style="fill:#1f77b4;stroke:#1f77b4;" x="161.518787" xlink:href="#m9bef437dc0" y="310.823438"/>
     <use style="fill:#1f77b4;stroke:#1f77b4;" x="161.518787" xlink:href="#m9bef437dc0" y="372.351892"/>
     <use style="fill:#1f77b4;stroke:#1f77b4;" x="161.518787" xlink:href="#m9bef437dc0" y="358.621339"/>
     <use style="fill:#1f77b4;stroke:#1f77b4;" x="161.518787" xlink:href="#m9bef437dc0" y="268.593904"/>
     <use style="fill:#1f77b4;stroke:#1f77b4;" x="161.518787" xlink:href="#m9bef437dc0" y="349.290891"/>
     <use style="fill:#1f77b4;stroke:#1f77b4;" x="161.518787" xlink:href="#m9bef437dc0" y="362.348651"/>
     <use style="fill:#1f77b4;stroke:#1f77b4;" x="161.518787" xlink:href="#m9bef437dc0" y="358.664801"/>
     <use style="fill:#1f77b4;stroke:#1f77b4;" x="161.518787" xlink:href="#m9bef437dc0" y="412.526537"/>
     <use style="fill:#1f77b4;stroke:#1f77b4;" x="161.518787" xlink:href="#m9bef437dc0" y="385.659993"/>
     <use style="fill:#1f77b4;stroke:#1f77b4;" x="161.518787" xlink:href="#m9bef437dc0" y="347.70887"/>
     <use style="fill:#1f77b4;stroke:#1f77b4;" x="161.518787" xlink:href="#m9bef437dc0" y="376.355623"/>
     <use style="fill:#1f77b4;stroke:#1f77b4;" x="161.518787" xlink:href="#m9bef437dc0" y="340.655837"/>
     <use style="fill:#1f77b4;stroke:#1f77b4;" x="161.518787" xlink:href="#m9bef437dc0" y="372.981224"/>
     <use style="fill:#1f77b4;stroke:#1f77b4;" x="161.518787" xlink:href="#m9bef437dc0" y="309.131892"/>
     <use style="fill:#1f77b4;stroke:#1f77b4;" x="161.518787" xlink:href="#m9bef437dc0" y="341.9145"/>
     <use style="fill:#1f77b4;stroke:#1f77b4;" x="161.518787" xlink:href="#m9bef437dc0" y="332.973473"/>
     <use style="fill:#1f77b4;stroke:#1f77b4;" x="161.518787" xlink:href="#m9bef437dc0" y="340.388111"/>
     <use style="fill:#1f77b4;stroke:#1f77b4;" x="161.518787" xlink:href="#m9bef437dc0" y="358.372736"/>
     <use style="fill:#1f77b4;stroke:#1f77b4;" x="161.518787" xlink:href="#m9bef437dc0" y="317.281909"/>
     <use style="fill:#1f77b4;stroke:#1f77b4;" x="161.518787" xlink:href="#m9bef437dc0" y="304.780465"/>
     <use style="fill:#1f77b4;stroke:#1f77b4;" x="161.518787" xlink:href="#m9bef437dc0" y="370.088385"/>
     <use style="fill:#1f77b4;stroke:#1f77b4;" x="161.518787" xlink:href="#m9bef437dc0" y="381.842281"/>
     <use style="fill:#1f77b4;stroke:#1f77b4;" x="161.518787" xlink:href="#m9bef437dc0" y="376.442547"/>
     <use style="fill:#1f77b4;stroke:#1f77b4;" x="161.518787" xlink:href="#m9bef437dc0" y="345.029865"/>
     <use style="fill:#1f77b4;stroke:#1f77b4;" x="161.518787" xlink:href="#m9bef437dc0" y="330.715181"/>
     <use style="fill:#1f77b4;stroke:#1f77b4;" x="161.518787" xlink:href="#m9bef437dc0" y="384.517809"/>
     <use style="fill:#1f77b4;stroke:#1f77b4;" x="161.518787" xlink:href="#m9bef437dc0" y="398.945494"/>
     <use style="fill:#1f77b4;stroke:#1f77b4;" x="161.518787" xlink:href="#m9bef437dc0" y="430.778889"/>
     <use style="fill:#1f77b4;stroke:#1f77b4;" x="161.518787" xlink:href="#m9bef437dc0" y="410.386463"/>
     <use style="fill:#1f77b4;stroke:#1f77b4;" x="161.518787" xlink:href="#m9bef437dc0" y="416.6085"/>
     <use style="fill:#1f77b4;stroke:#1f77b4;" x="161.518787" xlink:href="#m9bef437dc0" y="398.755999"/>
     <use style="fill:#1f77b4;stroke:#1f77b4;" x="161.518787" xlink:href="#m9bef437dc0" y="364.940731"/>
     <use style="fill:#1f77b4;stroke:#1f77b4;" x="161.518787" xlink:href="#m9bef437dc0" y="394.595805"/>
     <use style="fill:#1f77b4;stroke:#1f77b4;" x="161.518787" xlink:href="#m9bef437dc0" y="208.630086"/>
     <use style="fill:#1f77b4;stroke:#1f77b4;" x="161.518787" xlink:href="#m9bef437dc0" y="382.645461"/>
    </g>
   </g>
   <g id="matplotlib.axis_1">
    <g id="xtick_1">
     <g id="line2d_1">
      <defs>
       <path d="M 0 0 
L 0 3.5 
" id="m612e39726d" style="stroke:#000000;stroke-width:0.8;"/>
      </defs>
      <g>
       <use style="stroke:#000000;stroke-width:0.8;" x="145.488032" xlink:href="#m612e39726d" y="448.56"/>
      </g>
     </g>
     <g id="text_1">
      <!-- 0 -->
      <defs>
       <path d="M 31.78125 66.40625 
Q 24.171875 66.40625 20.328125 58.90625 
Q 16.5 51.421875 16.5 36.375 
Q 16.5 21.390625 20.328125 13.890625 
Q 24.171875 6.390625 31.78125 6.390625 
Q 39.453125 6.390625 43.28125 13.890625 
Q 47.125 21.390625 47.125 36.375 
Q 47.125 51.421875 43.28125 58.90625 
Q 39.453125 66.40625 31.78125 66.40625 
z
M 31.78125 74.21875 
Q 44.046875 74.21875 50.515625 64.515625 
Q 56.984375 54.828125 56.984375 36.375 
Q 56.984375 17.96875 50.515625 8.265625 
Q 44.046875 -1.421875 31.78125 -1.421875 
Q 19.53125 -1.421875 13.0625 8.265625 
Q 6.59375 17.96875 6.59375 36.375 
Q 6.59375 54.828125 13.0625 64.515625 
Q 19.53125 74.21875 31.78125 74.21875 
z
" id="DejaVuSans-30"/>
      </defs>
      <g transform="translate(142.306782 463.158437)scale(0.1 -0.1)">
       <use xlink:href="#DejaVuSans-30"/>
      </g>
     </g>
    </g>
    <g id="xtick_2">
     <g id="line2d_2">
      <g>
       <use style="stroke:#000000;stroke-width:0.8;" x="305.795578" xlink:href="#m612e39726d" y="448.56"/>
      </g>
     </g>
     <g id="text_2">
      <!-- 100 -->
      <defs>
       <path d="M 12.40625 8.296875 
L 28.515625 8.296875 
L 28.515625 63.921875 
L 10.984375 60.40625 
L 10.984375 69.390625 
L 28.421875 72.90625 
L 38.28125 72.90625 
L 38.28125 8.296875 
L 54.390625 8.296875 
L 54.390625 0 
L 12.40625 0 
z
" id="DejaVuSans-31"/>
      </defs>
      <g transform="translate(296.251828 463.158437)scale(0.1 -0.1)">
       <use xlink:href="#DejaVuSans-31"/>
       <use x="63.623047" xlink:href="#DejaVuSans-30"/>
       <use x="127.246094" xlink:href="#DejaVuSans-30"/>
      </g>
     </g>
    </g>
    <g id="xtick_3">
     <g id="line2d_3">
      <g>
       <use style="stroke:#000000;stroke-width:0.8;" x="466.103123" xlink:href="#m612e39726d" y="448.56"/>
      </g>
     </g>
     <g id="text_3">
      <!-- 200 -->
      <defs>
       <path d="M 19.1875 8.296875 
L 53.609375 8.296875 
L 53.609375 0 
L 7.328125 0 
L 7.328125 8.296875 
Q 12.9375 14.109375 22.625 23.890625 
Q 32.328125 33.6875 34.8125 36.53125 
Q 39.546875 41.84375 41.421875 45.53125 
Q 43.3125 49.21875 43.3125 52.78125 
Q 43.3125 58.59375 39.234375 62.25 
Q 35.15625 65.921875 28.609375 65.921875 
Q 23.96875 65.921875 18.8125 64.3125 
Q 13.671875 62.703125 7.8125 59.421875 
L 7.8125 69.390625 
Q 13.765625 71.78125 18.9375 73 
Q 24.125 74.21875 28.421875 74.21875 
Q 39.75 74.21875 46.484375 68.546875 
Q 53.21875 62.890625 53.21875 53.421875 
Q 53.21875 48.921875 51.53125 44.890625 
Q 49.859375 40.875 45.40625 35.40625 
Q 44.1875 33.984375 37.640625 27.21875 
Q 31.109375 20.453125 19.1875 8.296875 
z
" id="DejaVuSans-32"/>
      </defs>
      <g transform="translate(456.559373 463.158437)scale(0.1 -0.1)">
       <use xlink:href="#DejaVuSans-32"/>
       <use x="63.623047" xlink:href="#DejaVuSans-30"/>
       <use x="127.246094" xlink:href="#DejaVuSans-30"/>
      </g>
     </g>
    </g>
    <g id="xtick_4">
     <g id="line2d_4">
      <g>
       <use style="stroke:#000000;stroke-width:0.8;" x="626.410669" xlink:href="#m612e39726d" y="448.56"/>
      </g>
     </g>
     <g id="text_4">
      <!-- 300 -->
      <defs>
       <path d="M 40.578125 39.3125 
Q 47.65625 37.796875 51.625 33 
Q 55.609375 28.21875 55.609375 21.1875 
Q 55.609375 10.40625 48.1875 4.484375 
Q 40.765625 -1.421875 27.09375 -1.421875 
Q 22.515625 -1.421875 17.65625 -0.515625 
Q 12.796875 0.390625 7.625 2.203125 
L 7.625 11.71875 
Q 11.71875 9.328125 16.59375 8.109375 
Q 21.484375 6.890625 26.8125 6.890625 
Q 36.078125 6.890625 40.9375 10.546875 
Q 45.796875 14.203125 45.796875 21.1875 
Q 45.796875 27.640625 41.28125 31.265625 
Q 36.765625 34.90625 28.71875 34.90625 
L 20.21875 34.90625 
L 20.21875 43.015625 
L 29.109375 43.015625 
Q 36.375 43.015625 40.234375 45.921875 
Q 44.09375 48.828125 44.09375 54.296875 
Q 44.09375 59.90625 40.109375 62.90625 
Q 36.140625 65.921875 28.71875 65.921875 
Q 24.65625 65.921875 20.015625 65.03125 
Q 15.375 64.15625 9.8125 62.3125 
L 9.8125 71.09375 
Q 15.4375 72.65625 20.34375 73.4375 
Q 25.25 74.21875 29.59375 74.21875 
Q 40.828125 74.21875 47.359375 69.109375 
Q 53.90625 64.015625 53.90625 55.328125 
Q 53.90625 49.265625 50.4375 45.09375 
Q 46.96875 40.921875 40.578125 39.3125 
z
" id="DejaVuSans-33"/>
      </defs>
      <g transform="translate(616.866919 463.158437)scale(0.1 -0.1)">
       <use xlink:href="#DejaVuSans-33"/>
       <use x="63.623047" xlink:href="#DejaVuSans-30"/>
       <use x="127.246094" xlink:href="#DejaVuSans-30"/>
      </g>
     </g>
    </g>
    <g id="xtick_5">
     <g id="line2d_5">
      <g>
       <use style="stroke:#000000;stroke-width:0.8;" x="786.718214" xlink:href="#m612e39726d" y="448.56"/>
      </g>
     </g>
     <g id="text_5">
      <!-- 400 -->
      <defs>
       <path d="M 37.796875 64.3125 
L 12.890625 25.390625 
L 37.796875 25.390625 
z
M 35.203125 72.90625 
L 47.609375 72.90625 
L 47.609375 25.390625 
L 58.015625 25.390625 
L 58.015625 17.1875 
L 47.609375 17.1875 
L 47.609375 0 
L 37.796875 0 
L 37.796875 17.1875 
L 4.890625 17.1875 
L 4.890625 26.703125 
z
" id="DejaVuSans-34"/>
      </defs>
      <g transform="translate(777.174464 463.158437)scale(0.1 -0.1)">
       <use xlink:href="#DejaVuSans-34"/>
       <use x="63.623047" xlink:href="#DejaVuSans-30"/>
       <use x="127.246094" xlink:href="#DejaVuSans-30"/>
      </g>
     </g>
    </g>
    <g id="text_6">
     <!-- length of chunk in sentences -->
     <defs>
      <path d="M 9.421875 75.984375 
L 18.40625 75.984375 
L 18.40625 0 
L 9.421875 0 
z
" id="DejaVuSans-6c"/>
      <path d="M 56.203125 29.59375 
L 56.203125 25.203125 
L 14.890625 25.203125 
Q 15.484375 15.921875 20.484375 11.0625 
Q 25.484375 6.203125 34.421875 6.203125 
Q 39.59375 6.203125 44.453125 7.46875 
Q 49.3125 8.734375 54.109375 11.28125 
L 54.109375 2.78125 
Q 49.265625 0.734375 44.1875 -0.34375 
Q 39.109375 -1.421875 33.890625 -1.421875 
Q 20.796875 -1.421875 13.15625 6.1875 
Q 5.515625 13.8125 5.515625 26.8125 
Q 5.515625 40.234375 12.765625 48.109375 
Q 20.015625 56 32.328125 56 
Q 43.359375 56 49.78125 48.890625 
Q 56.203125 41.796875 56.203125 29.59375 
z
M 47.21875 32.234375 
Q 47.125 39.59375 43.09375 43.984375 
Q 39.0625 48.390625 32.421875 48.390625 
Q 24.90625 48.390625 20.390625 44.140625 
Q 15.875 39.890625 15.1875 32.171875 
z
" id="DejaVuSans-65"/>
      <path d="M 54.890625 33.015625 
L 54.890625 0 
L 45.90625 0 
L 45.90625 32.71875 
Q 45.90625 40.484375 42.875 44.328125 
Q 39.84375 48.1875 33.796875 48.1875 
Q 26.515625 48.1875 22.3125 43.546875 
Q 18.109375 38.921875 18.109375 30.90625 
L 18.109375 0 
L 9.078125 0 
L 9.078125 54.6875 
L 18.109375 54.6875 
L 18.109375 46.1875 
Q 21.34375 51.125 25.703125 53.5625 
Q 30.078125 56 35.796875 56 
Q 45.21875 56 50.046875 50.171875 
Q 54.890625 44.34375 54.890625 33.015625 
z
" id="DejaVuSans-6e"/>
      <path d="M 45.40625 27.984375 
Q 45.40625 37.75 41.375 43.109375 
Q 37.359375 48.484375 30.078125 48.484375 
Q 22.859375 48.484375 18.828125 43.109375 
Q 14.796875 37.75 14.796875 27.984375 
Q 14.796875 18.265625 18.828125 12.890625 
Q 22.859375 7.515625 30.078125 7.515625 
Q 37.359375 7.515625 41.375 12.890625 
Q 45.40625 18.265625 45.40625 27.984375 
z
M 54.390625 6.78125 
Q 54.390625 -7.171875 48.1875 -13.984375 
Q 42 -20.796875 29.203125 -20.796875 
Q 24.46875 -20.796875 20.265625 -20.09375 
Q 16.0625 -19.390625 12.109375 -17.921875 
L 12.109375 -9.1875 
Q 16.0625 -11.328125 19.921875 -12.34375 
Q 23.78125 -13.375 27.78125 -13.375 
Q 36.625 -13.375 41.015625 -8.765625 
Q 45.40625 -4.15625 45.40625 5.171875 
L 45.40625 9.625 
Q 42.625 4.78125 38.28125 2.390625 
Q 33.9375 0 27.875 0 
Q 17.828125 0 11.671875 7.65625 
Q 5.515625 15.328125 5.515625 27.984375 
Q 5.515625 40.671875 11.671875 48.328125 
Q 17.828125 56 27.875 56 
Q 33.9375 56 38.28125 53.609375 
Q 42.625 51.21875 45.40625 46.390625 
L 45.40625 54.6875 
L 54.390625 54.6875 
z
" id="DejaVuSans-67"/>
      <path d="M 18.3125 70.21875 
L 18.3125 54.6875 
L 36.8125 54.6875 
L 36.8125 47.703125 
L 18.3125 47.703125 
L 18.3125 18.015625 
Q 18.3125 11.328125 20.140625 9.421875 
Q 21.96875 7.515625 27.59375 7.515625 
L 36.8125 7.515625 
L 36.8125 0 
L 27.59375 0 
Q 17.1875 0 13.234375 3.875 
Q 9.28125 7.765625 9.28125 18.015625 
L 9.28125 47.703125 
L 2.6875 47.703125 
L 2.6875 54.6875 
L 9.28125 54.6875 
L 9.28125 70.21875 
z
" id="DejaVuSans-74"/>
      <path d="M 54.890625 33.015625 
L 54.890625 0 
L 45.90625 0 
L 45.90625 32.71875 
Q 45.90625 40.484375 42.875 44.328125 
Q 39.84375 48.1875 33.796875 48.1875 
Q 26.515625 48.1875 22.3125 43.546875 
Q 18.109375 38.921875 18.109375 30.90625 
L 18.109375 0 
L 9.078125 0 
L 9.078125 75.984375 
L 18.109375 75.984375 
L 18.109375 46.1875 
Q 21.34375 51.125 25.703125 53.5625 
Q 30.078125 56 35.796875 56 
Q 45.21875 56 50.046875 50.171875 
Q 54.890625 44.34375 54.890625 33.015625 
z
" id="DejaVuSans-68"/>
      <path id="DejaVuSans-20"/>
      <path d="M 30.609375 48.390625 
Q 23.390625 48.390625 19.1875 42.75 
Q 14.984375 37.109375 14.984375 27.296875 
Q 14.984375 17.484375 19.15625 11.84375 
Q 23.34375 6.203125 30.609375 6.203125 
Q 37.796875 6.203125 41.984375 11.859375 
Q 46.1875 17.53125 46.1875 27.296875 
Q 46.1875 37.015625 41.984375 42.703125 
Q 37.796875 48.390625 30.609375 48.390625 
z
M 30.609375 56 
Q 42.328125 56 49.015625 48.375 
Q 55.71875 40.765625 55.71875 27.296875 
Q 55.71875 13.875 49.015625 6.21875 
Q 42.328125 -1.421875 30.609375 -1.421875 
Q 18.84375 -1.421875 12.171875 6.21875 
Q 5.515625 13.875 5.515625 27.296875 
Q 5.515625 40.765625 12.171875 48.375 
Q 18.84375 56 30.609375 56 
z
" id="DejaVuSans-6f"/>
      <path d="M 37.109375 75.984375 
L 37.109375 68.5 
L 28.515625 68.5 
Q 23.6875 68.5 21.796875 66.546875 
Q 19.921875 64.59375 19.921875 59.515625 
L 19.921875 54.6875 
L 34.71875 54.6875 
L 34.71875 47.703125 
L 19.921875 47.703125 
L 19.921875 0 
L 10.890625 0 
L 10.890625 47.703125 
L 2.296875 47.703125 
L 2.296875 54.6875 
L 10.890625 54.6875 
L 10.890625 58.5 
Q 10.890625 67.625 15.140625 71.796875 
Q 19.390625 75.984375 28.609375 75.984375 
z
" id="DejaVuSans-66"/>
      <path d="M 48.78125 52.59375 
L 48.78125 44.1875 
Q 44.96875 46.296875 41.140625 47.34375 
Q 37.3125 48.390625 33.40625 48.390625 
Q 24.65625 48.390625 19.8125 42.84375 
Q 14.984375 37.3125 14.984375 27.296875 
Q 14.984375 17.28125 19.8125 11.734375 
Q 24.65625 6.203125 33.40625 6.203125 
Q 37.3125 6.203125 41.140625 7.25 
Q 44.96875 8.296875 48.78125 10.40625 
L 48.78125 2.09375 
Q 45.015625 0.34375 40.984375 -0.53125 
Q 36.96875 -1.421875 32.421875 -1.421875 
Q 20.0625 -1.421875 12.78125 6.34375 
Q 5.515625 14.109375 5.515625 27.296875 
Q 5.515625 40.671875 12.859375 48.328125 
Q 20.21875 56 33.015625 56 
Q 37.15625 56 41.109375 55.140625 
Q 45.0625 54.296875 48.78125 52.59375 
z
" id="DejaVuSans-63"/>
      <path d="M 8.5 21.578125 
L 8.5 54.6875 
L 17.484375 54.6875 
L 17.484375 21.921875 
Q 17.484375 14.15625 20.5 10.265625 
Q 23.53125 6.390625 29.59375 6.390625 
Q 36.859375 6.390625 41.078125 11.03125 
Q 45.3125 15.671875 45.3125 23.6875 
L 45.3125 54.6875 
L 54.296875 54.6875 
L 54.296875 0 
L 45.3125 0 
L 45.3125 8.40625 
Q 42.046875 3.421875 37.71875 1 
Q 33.40625 -1.421875 27.6875 -1.421875 
Q 18.265625 -1.421875 13.375 4.4375 
Q 8.5 10.296875 8.5 21.578125 
z
M 31.109375 56 
z
" id="DejaVuSans-75"/>
      <path d="M 9.078125 75.984375 
L 18.109375 75.984375 
L 18.109375 31.109375 
L 44.921875 54.6875 
L 56.390625 54.6875 
L 27.390625 29.109375 
L 57.625 0 
L 45.90625 0 
L 18.109375 26.703125 
L 18.109375 0 
L 9.078125 0 
z
" id="DejaVuSans-6b"/>
      <path d="M 9.421875 54.6875 
L 18.40625 54.6875 
L 18.40625 0 
L 9.421875 0 
z
M 9.421875 75.984375 
L 18.40625 75.984375 
L 18.40625 64.59375 
L 9.421875 64.59375 
z
" id="DejaVuSans-69"/>
      <path d="M 44.28125 53.078125 
L 44.28125 44.578125 
Q 40.484375 46.53125 36.375 47.5 
Q 32.28125 48.484375 27.875 48.484375 
Q 21.1875 48.484375 17.84375 46.4375 
Q 14.5 44.390625 14.5 40.28125 
Q 14.5 37.15625 16.890625 35.375 
Q 19.28125 33.59375 26.515625 31.984375 
L 29.59375 31.296875 
Q 39.15625 29.25 43.1875 25.515625 
Q 47.21875 21.78125 47.21875 15.09375 
Q 47.21875 7.46875 41.1875 3.015625 
Q 35.15625 -1.421875 24.609375 -1.421875 
Q 20.21875 -1.421875 15.453125 -0.5625 
Q 10.6875 0.296875 5.421875 2 
L 5.421875 11.28125 
Q 10.40625 8.6875 15.234375 7.390625 
Q 20.0625 6.109375 24.8125 6.109375 
Q 31.15625 6.109375 34.5625 8.28125 
Q 37.984375 10.453125 37.984375 14.40625 
Q 37.984375 18.0625 35.515625 20.015625 
Q 33.0625 21.96875 24.703125 23.78125 
L 21.578125 24.515625 
Q 13.234375 26.265625 9.515625 29.90625 
Q 5.8125 33.546875 5.8125 39.890625 
Q 5.8125 47.609375 11.28125 51.796875 
Q 16.75 56 26.8125 56 
Q 31.78125 56 36.171875 55.265625 
Q 40.578125 54.546875 44.28125 53.078125 
z
" id="DejaVuSans-73"/>
     </defs>
     <g transform="translate(444.292188 476.836563)scale(0.1 -0.1)">
      <use xlink:href="#DejaVuSans-6c"/>
      <use x="27.783203" xlink:href="#DejaVuSans-65"/>
      <use x="89.306641" xlink:href="#DejaVuSans-6e"/>
      <use x="152.685547" xlink:href="#DejaVuSans-67"/>
      <use x="216.162109" xlink:href="#DejaVuSans-74"/>
      <use x="255.371094" xlink:href="#DejaVuSans-68"/>
      <use x="318.75" xlink:href="#DejaVuSans-20"/>
      <use x="350.537109" xlink:href="#DejaVuSans-6f"/>
      <use x="411.71875" xlink:href="#DejaVuSans-66"/>
      <use x="446.923828" xlink:href="#DejaVuSans-20"/>
      <use x="478.710938" xlink:href="#DejaVuSans-63"/>
      <use x="533.691406" xlink:href="#DejaVuSans-68"/>
      <use x="597.070312" xlink:href="#DejaVuSans-75"/>
      <use x="660.449219" xlink:href="#DejaVuSans-6e"/>
      <use x="723.828125" xlink:href="#DejaVuSans-6b"/>
      <use x="781.738281" xlink:href="#DejaVuSans-20"/>
      <use x="813.525391" xlink:href="#DejaVuSans-69"/>
      <use x="841.308594" xlink:href="#DejaVuSans-6e"/>
      <use x="904.6875" xlink:href="#DejaVuSans-20"/>
      <use x="936.474609" xlink:href="#DejaVuSans-73"/>
      <use x="988.574219" xlink:href="#DejaVuSans-65"/>
      <use x="1050.097656" xlink:href="#DejaVuSans-6e"/>
      <use x="1113.476562" xlink:href="#DejaVuSans-74"/>
      <use x="1152.685547" xlink:href="#DejaVuSans-65"/>
      <use x="1214.208984" xlink:href="#DejaVuSans-6e"/>
      <use x="1277.587891" xlink:href="#DejaVuSans-63"/>
      <use x="1332.568359" xlink:href="#DejaVuSans-65"/>
      <use x="1394.091797" xlink:href="#DejaVuSans-73"/>
     </g>
    </g>
   </g>
   <g id="matplotlib.axis_2">
    <g id="ytick_1">
     <g id="line2d_6">
      <defs>
       <path d="M 0 0 
L -3.5 0 
" id="m11721ca5ee" style="stroke:#000000;stroke-width:0.8;"/>
      </defs>
      <g>
       <use style="stroke:#000000;stroke-width:0.8;" x="126" xlink:href="#m11721ca5ee" y="445.064019"/>
      </g>
     </g>
     <g id="text_7">
      <!-- 10.0 -->
      <defs>
       <path d="M 10.6875 12.40625 
L 21 12.40625 
L 21 0 
L 10.6875 0 
z
" id="DejaVuSans-2e"/>
      </defs>
      <g transform="translate(96.734375 448.863238)scale(0.1 -0.1)">
       <use xlink:href="#DejaVuSans-31"/>
       <use x="63.623047" xlink:href="#DejaVuSans-30"/>
       <use x="127.246094" xlink:href="#DejaVuSans-2e"/>
       <use x="159.033203" xlink:href="#DejaVuSans-30"/>
      </g>
     </g>
    </g>
    <g id="ytick_2">
     <g id="line2d_7">
      <g>
       <use style="stroke:#000000;stroke-width:0.8;" x="126" xlink:href="#m11721ca5ee" y="401.601899"/>
      </g>
     </g>
     <g id="text_8">
      <!-- 12.5 -->
      <defs>
       <path d="M 10.796875 72.90625 
L 49.515625 72.90625 
L 49.515625 64.59375 
L 19.828125 64.59375 
L 19.828125 46.734375 
Q 21.96875 47.46875 24.109375 47.828125 
Q 26.265625 48.1875 28.421875 48.1875 
Q 40.625 48.1875 47.75 41.5 
Q 54.890625 34.8125 54.890625 23.390625 
Q 54.890625 11.625 47.5625 5.09375 
Q 40.234375 -1.421875 26.90625 -1.421875 
Q 22.3125 -1.421875 17.546875 -0.640625 
Q 12.796875 0.140625 7.71875 1.703125 
L 7.71875 11.625 
Q 12.109375 9.234375 16.796875 8.0625 
Q 21.484375 6.890625 26.703125 6.890625 
Q 35.15625 6.890625 40.078125 11.328125 
Q 45.015625 15.765625 45.015625 23.390625 
Q 45.015625 31 40.078125 35.4375 
Q 35.15625 39.890625 26.703125 39.890625 
Q 22.75 39.890625 18.8125 39.015625 
Q 14.890625 38.140625 10.796875 36.28125 
z
" id="DejaVuSans-35"/>
      </defs>
      <g transform="translate(96.734375 405.401118)scale(0.1 -0.1)">
       <use xlink:href="#DejaVuSans-31"/>
       <use x="63.623047" xlink:href="#DejaVuSans-32"/>
       <use x="127.246094" xlink:href="#DejaVuSans-2e"/>
       <use x="159.033203" xlink:href="#DejaVuSans-35"/>
      </g>
     </g>
    </g>
    <g id="ytick_3">
     <g id="line2d_8">
      <g>
       <use style="stroke:#000000;stroke-width:0.8;" x="126" xlink:href="#m11721ca5ee" y="358.139779"/>
      </g>
     </g>
     <g id="text_9">
      <!-- 15.0 -->
      <g transform="translate(96.734375 361.938998)scale(0.1 -0.1)">
       <use xlink:href="#DejaVuSans-31"/>
       <use x="63.623047" xlink:href="#DejaVuSans-35"/>
       <use x="127.246094" xlink:href="#DejaVuSans-2e"/>
       <use x="159.033203" xlink:href="#DejaVuSans-30"/>
      </g>
     </g>
    </g>
    <g id="ytick_4">
     <g id="line2d_9">
      <g>
       <use style="stroke:#000000;stroke-width:0.8;" x="126" xlink:href="#m11721ca5ee" y="314.677659"/>
      </g>
     </g>
     <g id="text_10">
      <!-- 17.5 -->
      <defs>
       <path d="M 8.203125 72.90625 
L 55.078125 72.90625 
L 55.078125 68.703125 
L 28.609375 0 
L 18.3125 0 
L 43.21875 64.59375 
L 8.203125 64.59375 
z
" id="DejaVuSans-37"/>
      </defs>
      <g transform="translate(96.734375 318.476878)scale(0.1 -0.1)">
       <use xlink:href="#DejaVuSans-31"/>
       <use x="63.623047" xlink:href="#DejaVuSans-37"/>
       <use x="127.246094" xlink:href="#DejaVuSans-2e"/>
       <use x="159.033203" xlink:href="#DejaVuSans-35"/>
      </g>
     </g>
    </g>
    <g id="ytick_5">
     <g id="line2d_10">
      <g>
       <use style="stroke:#000000;stroke-width:0.8;" x="126" xlink:href="#m11721ca5ee" y="271.215539"/>
      </g>
     </g>
     <g id="text_11">
      <!-- 20.0 -->
      <g transform="translate(96.734375 275.014758)scale(0.1 -0.1)">
       <use xlink:href="#DejaVuSans-32"/>
       <use x="63.623047" xlink:href="#DejaVuSans-30"/>
       <use x="127.246094" xlink:href="#DejaVuSans-2e"/>
       <use x="159.033203" xlink:href="#DejaVuSans-30"/>
      </g>
     </g>
    </g>
    <g id="ytick_6">
     <g id="line2d_11">
      <g>
       <use style="stroke:#000000;stroke-width:0.8;" x="126" xlink:href="#m11721ca5ee" y="227.753419"/>
      </g>
     </g>
     <g id="text_12">
      <!-- 22.5 -->
      <g transform="translate(96.734375 231.552638)scale(0.1 -0.1)">
       <use xlink:href="#DejaVuSans-32"/>
       <use x="63.623047" xlink:href="#DejaVuSans-32"/>
       <use x="127.246094" xlink:href="#DejaVuSans-2e"/>
       <use x="159.033203" xlink:href="#DejaVuSans-35"/>
      </g>
     </g>
    </g>
    <g id="ytick_7">
     <g id="line2d_12">
      <g>
       <use style="stroke:#000000;stroke-width:0.8;" x="126" xlink:href="#m11721ca5ee" y="184.291299"/>
      </g>
     </g>
     <g id="text_13">
      <!-- 25.0 -->
      <g transform="translate(96.734375 188.090518)scale(0.1 -0.1)">
       <use xlink:href="#DejaVuSans-32"/>
       <use x="63.623047" xlink:href="#DejaVuSans-35"/>
       <use x="127.246094" xlink:href="#DejaVuSans-2e"/>
       <use x="159.033203" xlink:href="#DejaVuSans-30"/>
      </g>
     </g>
    </g>
    <g id="ytick_8">
     <g id="line2d_13">
      <g>
       <use style="stroke:#000000;stroke-width:0.8;" x="126" xlink:href="#m11721ca5ee" y="140.829179"/>
      </g>
     </g>
     <g id="text_14">
      <!-- 27.5 -->
      <g transform="translate(96.734375 144.628397)scale(0.1 -0.1)">
       <use xlink:href="#DejaVuSans-32"/>
       <use x="63.623047" xlink:href="#DejaVuSans-37"/>
       <use x="127.246094" xlink:href="#DejaVuSans-2e"/>
       <use x="159.033203" xlink:href="#DejaVuSans-35"/>
      </g>
     </g>
    </g>
    <g id="ytick_9">
     <g id="line2d_14">
      <g>
       <use style="stroke:#000000;stroke-width:0.8;" x="126" xlink:href="#m11721ca5ee" y="97.367059"/>
      </g>
     </g>
     <g id="text_15">
      <!-- 30.0 -->
      <g transform="translate(96.734375 101.166277)scale(0.1 -0.1)">
       <use xlink:href="#DejaVuSans-33"/>
       <use x="63.623047" xlink:href="#DejaVuSans-30"/>
       <use x="127.246094" xlink:href="#DejaVuSans-2e"/>
       <use x="159.033203" xlink:href="#DejaVuSans-30"/>
      </g>
     </g>
    </g>
    <g id="text_16">
     <!-- GFI -->
     <defs>
      <path d="M 59.515625 10.40625 
L 59.515625 29.984375 
L 43.40625 29.984375 
L 43.40625 38.09375 
L 69.28125 38.09375 
L 69.28125 6.78125 
Q 63.578125 2.734375 56.6875 0.65625 
Q 49.8125 -1.421875 42 -1.421875 
Q 24.90625 -1.421875 15.25 8.5625 
Q 5.609375 18.5625 5.609375 36.375 
Q 5.609375 54.25 15.25 64.234375 
Q 24.90625 74.21875 42 74.21875 
Q 49.125 74.21875 55.546875 72.453125 
Q 61.96875 70.703125 67.390625 67.28125 
L 67.390625 56.78125 
Q 61.921875 61.421875 55.765625 63.765625 
Q 49.609375 66.109375 42.828125 66.109375 
Q 29.4375 66.109375 22.71875 58.640625 
Q 16.015625 51.171875 16.015625 36.375 
Q 16.015625 21.625 22.71875 14.15625 
Q 29.4375 6.6875 42.828125 6.6875 
Q 48.046875 6.6875 52.140625 7.59375 
Q 56.25 8.5 59.515625 10.40625 
z
" id="DejaVuSans-47"/>
      <path d="M 9.8125 72.90625 
L 51.703125 72.90625 
L 51.703125 64.59375 
L 19.671875 64.59375 
L 19.671875 43.109375 
L 48.578125 43.109375 
L 48.578125 34.8125 
L 19.671875 34.8125 
L 19.671875 0 
L 9.8125 0 
z
" id="DejaVuSans-46"/>
      <path d="M 9.8125 72.90625 
L 19.671875 72.90625 
L 19.671875 0 
L 9.8125 0 
z
" id="DejaVuSans-49"/>
     </defs>
     <g transform="translate(90.654687 262.745)rotate(-90)scale(0.1 -0.1)">
      <use xlink:href="#DejaVuSans-47"/>
      <use x="77.490234" xlink:href="#DejaVuSans-46"/>
      <use x="135.009766" xlink:href="#DejaVuSans-49"/>
     </g>
    </g>
   </g>
   <g id="line2d_15">
    <path clip-path="url(#pf1d2eeb948)" d="M 161.518787 349.993432 
L 177.549541 349.015183 
L 193.580296 349.81035 
L 209.611051 348.954889 
L 225.641805 350.248024 
L 265.718691 349.495163 
L 305.795578 349.708562 
L 385.94935 349.369123 
L 466.103123 349.502986 
L 546.256896 338.340175 
L 626.410669 337.340547 
L 706.564441 341.175644 
L 786.718214 349.396939 
L 866.871987 349.056196 
L 871.681213 348.36254 
" style="fill:none;stroke:#ff0000;stroke-linecap:square;stroke-width:1.5;"/>
   </g>
   <g id="patch_3">
    <path d="M 126 448.56 
L 126 60.48 
" style="fill:none;stroke:#000000;stroke-linecap:square;stroke-linejoin:miter;stroke-width:0.8;"/>
   </g>
   <g id="patch_4">
    <path d="M 907.2 448.56 
L 907.2 60.48 
" style="fill:none;stroke:#000000;stroke-linecap:square;stroke-linejoin:miter;stroke-width:0.8;"/>
   </g>
   <g id="patch_5">
    <path d="M 126 448.56 
L 907.2 448.56 
" style="fill:none;stroke:#000000;stroke-linecap:square;stroke-linejoin:miter;stroke-width:0.8;"/>
   </g>
   <g id="patch_6">
    <path d="M 126 60.48 
L 907.2 60.48 
" style="fill:none;stroke:#000000;stroke-linecap:square;stroke-linejoin:miter;stroke-width:0.8;"/>
   </g>
  </g>
 </g>
 <defs>
  <clipPath id="pf1d2eeb948">
   <rect height="388.08" width="781.2" x="126" y="60.48"/>
  </clipPath>
 </defs>
</svg>
