<?xml version="1.0" encoding="utf-8" standalone="no"?>
<!DOCTYPE svg PUBLIC "-//W3C//DTD SVG 1.1//EN"
  "http://www.w3.org/Graphics/SVG/1.1/DTD/svg11.dtd">
<!-- Created with matplotlib (https://matplotlib.org/) -->
<svg height="572.959062pt" version="1.1" viewBox="0 0 857.703125 572.959062" width="857.703125pt" xmlns="http://www.w3.org/2000/svg" xmlns:xlink="http://www.w3.org/1999/xlink">
 <defs>
  <style type="text/css">
*{stroke-linecap:butt;stroke-linejoin:round;}
  </style>
 </defs>
 <g id="figure_1">
  <g id="patch_1">
   <path d="M 0 572.959062 
L 857.703125 572.959062 
L 857.703125 0 
L 0 0 
z
" style="fill:#ffffff;"/>
  </g>
  <g id="axes_1">
   <g id="patch_2">
    <path d="M 40.603125 425.52 
L 847.003125 425.52 
L 847.003125 47.52 
L 40.603125 47.52 
z
" style="fill:#ffffff;"/>
   </g>
   <g id="matplotlib.axis_1">
    <g id="xtick_1">
     <g id="line2d_1">
      <path clip-path="url(#p1e8d43f386)" d="M 71.61851 425.52 
L 71.61851 47.52 
" style="fill:none;stroke:#b0b0b0;stroke-linecap:square;stroke-width:0.8;"/>
     </g>
     <g id="line2d_2">
      <defs>
       <path d="M 0 0 
L 0 3.5 
" id="mc17a8c3a95" style="stroke:#000000;stroke-width:0.8;"/>
      </defs>
      <g>
       <use style="stroke:#000000;stroke-width:0.8;" x="71.61851" xlink:href="#mc17a8c3a95" y="425.52"/>
      </g>
     </g>
     <g id="text_1">
      <!-- essays/122543380.txt -->
      <defs>
       <path d="M 56.203125 29.59375 
L 56.203125 25.203125 
L 14.890625 25.203125 
Q 15.484375 15.921875 20.484375 11.0625 
Q 25.484375 6.203125 34.421875 6.203125 
Q 39.59375 6.203125 44.453125 7.46875 
Q 49.3125 8.734375 54.109375 11.28125 
L 54.109375 2.78125 
Q 49.265625 0.734375 44.1875 -0.34375 
Q 39.109375 -1.421875 33.890625 -1.421875 
Q 20.796875 -1.421875 13.15625 6.1875 
Q 5.515625 13.8125 5.515625 26.8125 
Q 5.515625 40.234375 12.765625 48.109375 
Q 20.015625 56 32.328125 56 
Q 43.359375 56 49.78125 48.890625 
Q 56.203125 41.796875 56.203125 29.59375 
z
M 47.21875 32.234375 
Q 47.125 39.59375 43.09375 43.984375 
Q 39.0625 48.390625 32.421875 48.390625 
Q 24.90625 48.390625 20.390625 44.140625 
Q 15.875 39.890625 15.1875 32.171875 
z
" id="DejaVuSans-101"/>
       <path d="M 44.28125 53.078125 
L 44.28125 44.578125 
Q 40.484375 46.53125 36.375 47.5 
Q 32.28125 48.484375 27.875 48.484375 
Q 21.1875 48.484375 17.84375 46.4375 
Q 14.5 44.390625 14.5 40.28125 
Q 14.5 37.15625 16.890625 35.375 
Q 19.28125 33.59375 26.515625 31.984375 
L 29.59375 31.296875 
Q 39.15625 29.25 43.1875 25.515625 
Q 47.21875 21.78125 47.21875 15.09375 
Q 47.21875 7.46875 41.1875 3.015625 
Q 35.15625 -1.421875 24.609375 -1.421875 
Q 20.21875 -1.421875 15.453125 -0.5625 
Q 10.6875 0.296875 5.421875 2 
L 5.421875 11.28125 
Q 10.40625 8.6875 15.234375 7.390625 
Q 20.0625 6.109375 24.8125 6.109375 
Q 31.15625 6.109375 34.5625 8.28125 
Q 37.984375 10.453125 37.984375 14.40625 
Q 37.984375 18.0625 35.515625 20.015625 
Q 33.0625 21.96875 24.703125 23.78125 
L 21.578125 24.515625 
Q 13.234375 26.265625 9.515625 29.90625 
Q 5.8125 33.546875 5.8125 39.890625 
Q 5.8125 47.609375 11.28125 51.796875 
Q 16.75 56 26.8125 56 
Q 31.78125 56 36.171875 55.265625 
Q 40.578125 54.546875 44.28125 53.078125 
z
" id="DejaVuSans-115"/>
       <path d="M 34.28125 27.484375 
Q 23.390625 27.484375 19.1875 25 
Q 14.984375 22.515625 14.984375 16.5 
Q 14.984375 11.71875 18.140625 8.90625 
Q 21.296875 6.109375 26.703125 6.109375 
Q 34.1875 6.109375 38.703125 11.40625 
Q 43.21875 16.703125 43.21875 25.484375 
L 43.21875 27.484375 
z
M 52.203125 31.203125 
L 52.203125 0 
L 43.21875 0 
L 43.21875 8.296875 
Q 40.140625 3.328125 35.546875 0.953125 
Q 30.953125 -1.421875 24.3125 -1.421875 
Q 15.921875 -1.421875 10.953125 3.296875 
Q 6 8.015625 6 15.921875 
Q 6 25.140625 12.171875 29.828125 
Q 18.359375 34.515625 30.609375 34.515625 
L 43.21875 34.515625 
L 43.21875 35.40625 
Q 43.21875 41.609375 39.140625 45 
Q 35.0625 48.390625 27.6875 48.390625 
Q 23 48.390625 18.546875 47.265625 
Q 14.109375 46.140625 10.015625 43.890625 
L 10.015625 52.203125 
Q 14.9375 54.109375 19.578125 55.046875 
Q 24.21875 56 28.609375 56 
Q 40.484375 56 46.34375 49.84375 
Q 52.203125 43.703125 52.203125 31.203125 
z
" id="DejaVuSans-97"/>
       <path d="M 32.171875 -5.078125 
Q 28.375 -14.84375 24.75 -17.8125 
Q 21.140625 -20.796875 15.09375 -20.796875 
L 7.90625 -20.796875 
L 7.90625 -13.28125 
L 13.1875 -13.28125 
Q 16.890625 -13.28125 18.9375 -11.515625 
Q 21 -9.765625 23.484375 -3.21875 
L 25.09375 0.875 
L 2.984375 54.6875 
L 12.5 54.6875 
L 29.59375 11.921875 
L 46.6875 54.6875 
L 56.203125 54.6875 
z
" id="DejaVuSans-121"/>
       <path d="M 25.390625 72.90625 
L 33.6875 72.90625 
L 8.296875 -9.28125 
L 0 -9.28125 
z
" id="DejaVuSans-47"/>
       <path d="M 12.40625 8.296875 
L 28.515625 8.296875 
L 28.515625 63.921875 
L 10.984375 60.40625 
L 10.984375 69.390625 
L 28.421875 72.90625 
L 38.28125 72.90625 
L 38.28125 8.296875 
L 54.390625 8.296875 
L 54.390625 0 
L 12.40625 0 
z
" id="DejaVuSans-49"/>
       <path d="M 19.1875 8.296875 
L 53.609375 8.296875 
L 53.609375 0 
L 7.328125 0 
L 7.328125 8.296875 
Q 12.9375 14.109375 22.625 23.890625 
Q 32.328125 33.6875 34.8125 36.53125 
Q 39.546875 41.84375 41.421875 45.53125 
Q 43.3125 49.21875 43.3125 52.78125 
Q 43.3125 58.59375 39.234375 62.25 
Q 35.15625 65.921875 28.609375 65.921875 
Q 23.96875 65.921875 18.8125 64.3125 
Q 13.671875 62.703125 7.8125 59.421875 
L 7.8125 69.390625 
Q 13.765625 71.78125 18.9375 73 
Q 24.125 74.21875 28.421875 74.21875 
Q 39.75 74.21875 46.484375 68.546875 
Q 53.21875 62.890625 53.21875 53.421875 
Q 53.21875 48.921875 51.53125 44.890625 
Q 49.859375 40.875 45.40625 35.40625 
Q 44.1875 33.984375 37.640625 27.21875 
Q 31.109375 20.453125 19.1875 8.296875 
z
" id="DejaVuSans-50"/>
       <path d="M 10.796875 72.90625 
L 49.515625 72.90625 
L 49.515625 64.59375 
L 19.828125 64.59375 
L 19.828125 46.734375 
Q 21.96875 47.46875 24.109375 47.828125 
Q 26.265625 48.1875 28.421875 48.1875 
Q 40.625 48.1875 47.75 41.5 
Q 54.890625 34.8125 54.890625 23.390625 
Q 54.890625 11.625 47.5625 5.09375 
Q 40.234375 -1.421875 26.90625 -1.421875 
Q 22.3125 -1.421875 17.546875 -0.640625 
Q 12.796875 0.140625 7.71875 1.703125 
L 7.71875 11.625 
Q 12.109375 9.234375 16.796875 8.0625 
Q 21.484375 6.890625 26.703125 6.890625 
Q 35.15625 6.890625 40.078125 11.328125 
Q 45.015625 15.765625 45.015625 23.390625 
Q 45.015625 31 40.078125 35.4375 
Q 35.15625 39.890625 26.703125 39.890625 
Q 22.75 39.890625 18.8125 39.015625 
Q 14.890625 38.140625 10.796875 36.28125 
z
" id="DejaVuSans-53"/>
       <path d="M 37.796875 64.3125 
L 12.890625 25.390625 
L 37.796875 25.390625 
z
M 35.203125 72.90625 
L 47.609375 72.90625 
L 47.609375 25.390625 
L 58.015625 25.390625 
L 58.015625 17.1875 
L 47.609375 17.1875 
L 47.609375 0 
L 37.796875 0 
L 37.796875 17.1875 
L 4.890625 17.1875 
L 4.890625 26.703125 
z
" id="DejaVuSans-52"/>
       <path d="M 40.578125 39.3125 
Q 47.65625 37.796875 51.625 33 
Q 55.609375 28.21875 55.609375 21.1875 
Q 55.609375 10.40625 48.1875 4.484375 
Q 40.765625 -1.421875 27.09375 -1.421875 
Q 22.515625 -1.421875 17.65625 -0.515625 
Q 12.796875 0.390625 7.625 2.203125 
L 7.625 11.71875 
Q 11.71875 9.328125 16.59375 8.109375 
Q 21.484375 6.890625 26.8125 6.890625 
Q 36.078125 6.890625 40.9375 10.546875 
Q 45.796875 14.203125 45.796875 21.1875 
Q 45.796875 27.640625 41.28125 31.265625 
Q 36.765625 34.90625 28.71875 34.90625 
L 20.21875 34.90625 
L 20.21875 43.015625 
L 29.109375 43.015625 
Q 36.375 43.015625 40.234375 45.921875 
Q 44.09375 48.828125 44.09375 54.296875 
Q 44.09375 59.90625 40.109375 62.90625 
Q 36.140625 65.921875 28.71875 65.921875 
Q 24.65625 65.921875 20.015625 65.03125 
Q 15.375 64.15625 9.8125 62.3125 
L 9.8125 71.09375 
Q 15.4375 72.65625 20.34375 73.4375 
Q 25.25 74.21875 29.59375 74.21875 
Q 40.828125 74.21875 47.359375 69.109375 
Q 53.90625 64.015625 53.90625 55.328125 
Q 53.90625 49.265625 50.4375 45.09375 
Q 46.96875 40.921875 40.578125 39.3125 
z
" id="DejaVuSans-51"/>
       <path d="M 31.78125 34.625 
Q 24.75 34.625 20.71875 30.859375 
Q 16.703125 27.09375 16.703125 20.515625 
Q 16.703125 13.921875 20.71875 10.15625 
Q 24.75 6.390625 31.78125 6.390625 
Q 38.8125 6.390625 42.859375 10.171875 
Q 46.921875 13.96875 46.921875 20.515625 
Q 46.921875 27.09375 42.890625 30.859375 
Q 38.875 34.625 31.78125 34.625 
z
M 21.921875 38.8125 
Q 15.578125 40.375 12.03125 44.71875 
Q 8.5 49.078125 8.5 55.328125 
Q 8.5 64.0625 14.71875 69.140625 
Q 20.953125 74.21875 31.78125 74.21875 
Q 42.671875 74.21875 48.875 69.140625 
Q 55.078125 64.0625 55.078125 55.328125 
Q 55.078125 49.078125 51.53125 44.71875 
Q 48 40.375 41.703125 38.8125 
Q 48.828125 37.15625 52.796875 32.3125 
Q 56.78125 27.484375 56.78125 20.515625 
Q 56.78125 9.90625 50.3125 4.234375 
Q 43.84375 -1.421875 31.78125 -1.421875 
Q 19.734375 -1.421875 13.25 4.234375 
Q 6.78125 9.90625 6.78125 20.515625 
Q 6.78125 27.484375 10.78125 32.3125 
Q 14.796875 37.15625 21.921875 38.8125 
z
M 18.3125 54.390625 
Q 18.3125 48.734375 21.84375 45.5625 
Q 25.390625 42.390625 31.78125 42.390625 
Q 38.140625 42.390625 41.71875 45.5625 
Q 45.3125 48.734375 45.3125 54.390625 
Q 45.3125 60.0625 41.71875 63.234375 
Q 38.140625 66.40625 31.78125 66.40625 
Q 25.390625 66.40625 21.84375 63.234375 
Q 18.3125 60.0625 18.3125 54.390625 
z
" id="DejaVuSans-56"/>
       <path d="M 31.78125 66.40625 
Q 24.171875 66.40625 20.328125 58.90625 
Q 16.5 51.421875 16.5 36.375 
Q 16.5 21.390625 20.328125 13.890625 
Q 24.171875 6.390625 31.78125 6.390625 
Q 39.453125 6.390625 43.28125 13.890625 
Q 47.125 21.390625 47.125 36.375 
Q 47.125 51.421875 43.28125 58.90625 
Q 39.453125 66.40625 31.78125 66.40625 
z
M 31.78125 74.21875 
Q 44.046875 74.21875 50.515625 64.515625 
Q 56.984375 54.828125 56.984375 36.375 
Q 56.984375 17.96875 50.515625 8.265625 
Q 44.046875 -1.421875 31.78125 -1.421875 
Q 19.53125 -1.421875 13.0625 8.265625 
Q 6.59375 17.96875 6.59375 36.375 
Q 6.59375 54.828125 13.0625 64.515625 
Q 19.53125 74.21875 31.78125 74.21875 
z
" id="DejaVuSans-48"/>
       <path d="M 10.6875 12.40625 
L 21 12.40625 
L 21 0 
L 10.6875 0 
z
" id="DejaVuSans-46"/>
       <path d="M 18.3125 70.21875 
L 18.3125 54.6875 
L 36.8125 54.6875 
L 36.8125 47.703125 
L 18.3125 47.703125 
L 18.3125 18.015625 
Q 18.3125 11.328125 20.140625 9.421875 
Q 21.96875 7.515625 27.59375 7.515625 
L 36.8125 7.515625 
L 36.8125 0 
L 27.59375 0 
Q 17.1875 0 13.234375 3.875 
Q 9.28125 7.765625 9.28125 18.015625 
L 9.28125 47.703125 
L 2.6875 47.703125 
L 2.6875 54.6875 
L 9.28125 54.6875 
L 9.28125 70.21875 
z
" id="DejaVuSans-116"/>
       <path d="M 54.890625 54.6875 
L 35.109375 28.078125 
L 55.90625 0 
L 45.3125 0 
L 29.390625 21.484375 
L 13.484375 0 
L 2.875 0 
L 24.125 28.609375 
L 4.6875 54.6875 
L 15.28125 54.6875 
L 29.78125 35.203125 
L 44.28125 54.6875 
z
" id="DejaVuSans-120"/>
      </defs>
      <g transform="translate(74.377885 543.916875)rotate(-90)scale(0.1 -0.1)">
       <use xlink:href="#DejaVuSans-101"/>
       <use x="61.523438" xlink:href="#DejaVuSans-115"/>
       <use x="113.623047" xlink:href="#DejaVuSans-115"/>
       <use x="165.722656" xlink:href="#DejaVuSans-97"/>
       <use x="227.001953" xlink:href="#DejaVuSans-121"/>
       <use x="286.181641" xlink:href="#DejaVuSans-115"/>
       <use x="338.28125" xlink:href="#DejaVuSans-47"/>
       <use x="371.972656" xlink:href="#DejaVuSans-49"/>
       <use x="435.595703" xlink:href="#DejaVuSans-50"/>
       <use x="499.21875" xlink:href="#DejaVuSans-50"/>
       <use x="562.841797" xlink:href="#DejaVuSans-53"/>
       <use x="626.464844" xlink:href="#DejaVuSans-52"/>
       <use x="690.087891" xlink:href="#DejaVuSans-51"/>
       <use x="753.710938" xlink:href="#DejaVuSans-51"/>
       <use x="817.333984" xlink:href="#DejaVuSans-56"/>
       <use x="880.957031" xlink:href="#DejaVuSans-48"/>
       <use x="944.580078" xlink:href="#DejaVuSans-46"/>
       <use x="976.367188" xlink:href="#DejaVuSans-116"/>
       <use x="1015.576172" xlink:href="#DejaVuSans-120"/>
       <use x="1074.755859" xlink:href="#DejaVuSans-116"/>
      </g>
     </g>
    </g>
    <g id="xtick_2">
     <g id="line2d_3">
      <path clip-path="url(#p1e8d43f386)" d="M 133.649279 425.52 
L 133.649279 47.52 
" style="fill:none;stroke:#b0b0b0;stroke-linecap:square;stroke-width:0.8;"/>
     </g>
     <g id="line2d_4">
      <g>
       <use style="stroke:#000000;stroke-width:0.8;" x="133.649279" xlink:href="#mc17a8c3a95" y="425.52"/>
      </g>
     </g>
     <g id="text_2">
      <!-- essays/122543389z.txt -->
      <defs>
       <path d="M 10.984375 1.515625 
L 10.984375 10.5 
Q 14.703125 8.734375 18.5 7.8125 
Q 22.3125 6.890625 25.984375 6.890625 
Q 35.75 6.890625 40.890625 13.453125 
Q 46.046875 20.015625 46.78125 33.40625 
Q 43.953125 29.203125 39.59375 26.953125 
Q 35.25 24.703125 29.984375 24.703125 
Q 19.046875 24.703125 12.671875 31.3125 
Q 6.296875 37.9375 6.296875 49.421875 
Q 6.296875 60.640625 12.9375 67.421875 
Q 19.578125 74.21875 30.609375 74.21875 
Q 43.265625 74.21875 49.921875 64.515625 
Q 56.59375 54.828125 56.59375 36.375 
Q 56.59375 19.140625 48.40625 8.859375 
Q 40.234375 -1.421875 26.421875 -1.421875 
Q 22.703125 -1.421875 18.890625 -0.6875 
Q 15.09375 0.046875 10.984375 1.515625 
z
M 30.609375 32.421875 
Q 37.25 32.421875 41.125 36.953125 
Q 45.015625 41.5 45.015625 49.421875 
Q 45.015625 57.28125 41.125 61.84375 
Q 37.25 66.40625 30.609375 66.40625 
Q 23.96875 66.40625 20.09375 61.84375 
Q 16.21875 57.28125 16.21875 49.421875 
Q 16.21875 41.5 20.09375 36.953125 
Q 23.96875 32.421875 30.609375 32.421875 
z
" id="DejaVuSans-57"/>
       <path d="M 5.515625 54.6875 
L 48.1875 54.6875 
L 48.1875 46.484375 
L 14.40625 7.171875 
L 48.1875 7.171875 
L 48.1875 0 
L 4.296875 0 
L 4.296875 8.203125 
L 38.09375 47.515625 
L 5.515625 47.515625 
z
" id="DejaVuSans-122"/>
      </defs>
      <g transform="translate(136.408654 549.165312)rotate(-90)scale(0.1 -0.1)">
       <use xlink:href="#DejaVuSans-101"/>
       <use x="61.523438" xlink:href="#DejaVuSans-115"/>
       <use x="113.623047" xlink:href="#DejaVuSans-115"/>
       <use x="165.722656" xlink:href="#DejaVuSans-97"/>
       <use x="227.001953" xlink:href="#DejaVuSans-121"/>
       <use x="286.181641" xlink:href="#DejaVuSans-115"/>
       <use x="338.28125" xlink:href="#DejaVuSans-47"/>
       <use x="371.972656" xlink:href="#DejaVuSans-49"/>
       <use x="435.595703" xlink:href="#DejaVuSans-50"/>
       <use x="499.21875" xlink:href="#DejaVuSans-50"/>
       <use x="562.841797" xlink:href="#DejaVuSans-53"/>
       <use x="626.464844" xlink:href="#DejaVuSans-52"/>
       <use x="690.087891" xlink:href="#DejaVuSans-51"/>
       <use x="753.710938" xlink:href="#DejaVuSans-51"/>
       <use x="817.333984" xlink:href="#DejaVuSans-56"/>
       <use x="880.957031" xlink:href="#DejaVuSans-57"/>
       <use x="944.580078" xlink:href="#DejaVuSans-122"/>
       <use x="997.070312" xlink:href="#DejaVuSans-46"/>
       <use x="1028.857422" xlink:href="#DejaVuSans-116"/>
       <use x="1068.066406" xlink:href="#DejaVuSans-120"/>
       <use x="1127.246094" xlink:href="#DejaVuSans-116"/>
      </g>
     </g>
    </g>
    <g id="xtick_3">
     <g id="line2d_5">
      <path clip-path="url(#p1e8d43f386)" d="M 195.680048 425.52 
L 195.680048 47.52 
" style="fill:none;stroke:#b0b0b0;stroke-linecap:square;stroke-width:0.8;"/>
     </g>
     <g id="line2d_6">
      <g>
       <use style="stroke:#000000;stroke-width:0.8;" x="195.680048" xlink:href="#mc17a8c3a95" y="425.52"/>
      </g>
     </g>
     <g id="text_3">
      <!-- essays/122546705y.txt -->
      <defs>
       <path d="M 33.015625 40.375 
Q 26.375 40.375 22.484375 35.828125 
Q 18.609375 31.296875 18.609375 23.390625 
Q 18.609375 15.53125 22.484375 10.953125 
Q 26.375 6.390625 33.015625 6.390625 
Q 39.65625 6.390625 43.53125 10.953125 
Q 47.40625 15.53125 47.40625 23.390625 
Q 47.40625 31.296875 43.53125 35.828125 
Q 39.65625 40.375 33.015625 40.375 
z
M 52.59375 71.296875 
L 52.59375 62.3125 
Q 48.875 64.0625 45.09375 64.984375 
Q 41.3125 65.921875 37.59375 65.921875 
Q 27.828125 65.921875 22.671875 59.328125 
Q 17.53125 52.734375 16.796875 39.40625 
Q 19.671875 43.65625 24.015625 45.921875 
Q 28.375 48.1875 33.59375 48.1875 
Q 44.578125 48.1875 50.953125 41.515625 
Q 57.328125 34.859375 57.328125 23.390625 
Q 57.328125 12.15625 50.6875 5.359375 
Q 44.046875 -1.421875 33.015625 -1.421875 
Q 20.359375 -1.421875 13.671875 8.265625 
Q 6.984375 17.96875 6.984375 36.375 
Q 6.984375 53.65625 15.1875 63.9375 
Q 23.390625 74.21875 37.203125 74.21875 
Q 40.921875 74.21875 44.703125 73.484375 
Q 48.484375 72.75 52.59375 71.296875 
z
" id="DejaVuSans-54"/>
       <path d="M 8.203125 72.90625 
L 55.078125 72.90625 
L 55.078125 68.703125 
L 28.609375 0 
L 18.3125 0 
L 43.21875 64.59375 
L 8.203125 64.59375 
z
" id="DejaVuSans-55"/>
      </defs>
      <g transform="translate(198.439423 549.81375)rotate(-90)scale(0.1 -0.1)">
       <use xlink:href="#DejaVuSans-101"/>
       <use x="61.523438" xlink:href="#DejaVuSans-115"/>
       <use x="113.623047" xlink:href="#DejaVuSans-115"/>
       <use x="165.722656" xlink:href="#DejaVuSans-97"/>
       <use x="227.001953" xlink:href="#DejaVuSans-121"/>
       <use x="286.181641" xlink:href="#DejaVuSans-115"/>
       <use x="338.28125" xlink:href="#DejaVuSans-47"/>
       <use x="371.972656" xlink:href="#DejaVuSans-49"/>
       <use x="435.595703" xlink:href="#DejaVuSans-50"/>
       <use x="499.21875" xlink:href="#DejaVuSans-50"/>
       <use x="562.841797" xlink:href="#DejaVuSans-53"/>
       <use x="626.464844" xlink:href="#DejaVuSans-52"/>
       <use x="690.087891" xlink:href="#DejaVuSans-54"/>
       <use x="753.710938" xlink:href="#DejaVuSans-55"/>
       <use x="817.333984" xlink:href="#DejaVuSans-48"/>
       <use x="880.957031" xlink:href="#DejaVuSans-53"/>
       <use x="944.580078" xlink:href="#DejaVuSans-121"/>
       <use x="1003.541016" xlink:href="#DejaVuSans-46"/>
       <use x="1035.328125" xlink:href="#DejaVuSans-116"/>
       <use x="1074.537109" xlink:href="#DejaVuSans-120"/>
       <use x="1133.716797" xlink:href="#DejaVuSans-116"/>
      </g>
     </g>
    </g>
    <g id="xtick_4">
     <g id="line2d_7">
      <path clip-path="url(#p1e8d43f386)" d="M 257.710817 425.52 
L 257.710817 47.52 
" style="fill:none;stroke:#b0b0b0;stroke-linecap:square;stroke-width:0.8;"/>
     </g>
     <g id="line2d_8">
      <g>
       <use style="stroke:#000000;stroke-width:0.8;" x="257.710817" xlink:href="#mc17a8c3a95" y="425.52"/>
      </g>
     </g>
     <g id="text_4">
      <!-- essays/122557093x.txt -->
      <g transform="translate(260.470192 549.835625)rotate(-90)scale(0.1 -0.1)">
       <use xlink:href="#DejaVuSans-101"/>
       <use x="61.523438" xlink:href="#DejaVuSans-115"/>
       <use x="113.623047" xlink:href="#DejaVuSans-115"/>
       <use x="165.722656" xlink:href="#DejaVuSans-97"/>
       <use x="227.001953" xlink:href="#DejaVuSans-121"/>
       <use x="286.181641" xlink:href="#DejaVuSans-115"/>
       <use x="338.28125" xlink:href="#DejaVuSans-47"/>
       <use x="371.972656" xlink:href="#DejaVuSans-49"/>
       <use x="435.595703" xlink:href="#DejaVuSans-50"/>
       <use x="499.21875" xlink:href="#DejaVuSans-50"/>
       <use x="562.841797" xlink:href="#DejaVuSans-53"/>
       <use x="626.464844" xlink:href="#DejaVuSans-53"/>
       <use x="690.087891" xlink:href="#DejaVuSans-55"/>
       <use x="753.710938" xlink:href="#DejaVuSans-48"/>
       <use x="817.333984" xlink:href="#DejaVuSans-57"/>
       <use x="880.957031" xlink:href="#DejaVuSans-51"/>
       <use x="944.580078" xlink:href="#DejaVuSans-120"/>
       <use x="1003.759766" xlink:href="#DejaVuSans-46"/>
       <use x="1035.546875" xlink:href="#DejaVuSans-116"/>
       <use x="1074.755859" xlink:href="#DejaVuSans-120"/>
       <use x="1133.935547" xlink:href="#DejaVuSans-116"/>
      </g>
     </g>
    </g>
    <g id="xtick_5">
     <g id="line2d_9">
      <path clip-path="url(#p1e8d43f386)" d="M 319.741587 425.52 
L 319.741587 47.52 
" style="fill:none;stroke:#b0b0b0;stroke-linecap:square;stroke-width:0.8;"/>
     </g>
     <g id="line2d_10">
      <g>
       <use style="stroke:#000000;stroke-width:0.8;" x="319.741587" xlink:href="#mc17a8c3a95" y="425.52"/>
      </g>
     </g>
     <g id="text_5">
      <!-- essays/122557146.txt -->
      <g transform="translate(322.500962 543.916875)rotate(-90)scale(0.1 -0.1)">
       <use xlink:href="#DejaVuSans-101"/>
       <use x="61.523438" xlink:href="#DejaVuSans-115"/>
       <use x="113.623047" xlink:href="#DejaVuSans-115"/>
       <use x="165.722656" xlink:href="#DejaVuSans-97"/>
       <use x="227.001953" xlink:href="#DejaVuSans-121"/>
       <use x="286.181641" xlink:href="#DejaVuSans-115"/>
       <use x="338.28125" xlink:href="#DejaVuSans-47"/>
       <use x="371.972656" xlink:href="#DejaVuSans-49"/>
       <use x="435.595703" xlink:href="#DejaVuSans-50"/>
       <use x="499.21875" xlink:href="#DejaVuSans-50"/>
       <use x="562.841797" xlink:href="#DejaVuSans-53"/>
       <use x="626.464844" xlink:href="#DejaVuSans-53"/>
       <use x="690.087891" xlink:href="#DejaVuSans-55"/>
       <use x="753.710938" xlink:href="#DejaVuSans-49"/>
       <use x="817.333984" xlink:href="#DejaVuSans-52"/>
       <use x="880.957031" xlink:href="#DejaVuSans-54"/>
       <use x="944.580078" xlink:href="#DejaVuSans-46"/>
       <use x="976.367188" xlink:href="#DejaVuSans-116"/>
       <use x="1015.576172" xlink:href="#DejaVuSans-120"/>
       <use x="1074.755859" xlink:href="#DejaVuSans-116"/>
      </g>
     </g>
    </g>
    <g id="xtick_6">
     <g id="line2d_11">
      <path clip-path="url(#p1e8d43f386)" d="M 381.772356 425.52 
L 381.772356 47.52 
" style="fill:none;stroke:#b0b0b0;stroke-linecap:square;stroke-width:0.8;"/>
     </g>
     <g id="line2d_12">
      <g>
       <use style="stroke:#000000;stroke-width:0.8;" x="381.772356" xlink:href="#mc17a8c3a95" y="425.52"/>
      </g>
     </g>
     <g id="text_6">
      <!-- essays/122557523s.txt -->
      <g transform="translate(384.531731 549.12625)rotate(-90)scale(0.1 -0.1)">
       <use xlink:href="#DejaVuSans-101"/>
       <use x="61.523438" xlink:href="#DejaVuSans-115"/>
       <use x="113.623047" xlink:href="#DejaVuSans-115"/>
       <use x="165.722656" xlink:href="#DejaVuSans-97"/>
       <use x="227.001953" xlink:href="#DejaVuSans-121"/>
       <use x="286.181641" xlink:href="#DejaVuSans-115"/>
       <use x="338.28125" xlink:href="#DejaVuSans-47"/>
       <use x="371.972656" xlink:href="#DejaVuSans-49"/>
       <use x="435.595703" xlink:href="#DejaVuSans-50"/>
       <use x="499.21875" xlink:href="#DejaVuSans-50"/>
       <use x="562.841797" xlink:href="#DejaVuSans-53"/>
       <use x="626.464844" xlink:href="#DejaVuSans-53"/>
       <use x="690.087891" xlink:href="#DejaVuSans-55"/>
       <use x="753.710938" xlink:href="#DejaVuSans-53"/>
       <use x="817.333984" xlink:href="#DejaVuSans-50"/>
       <use x="880.957031" xlink:href="#DejaVuSans-51"/>
       <use x="944.580078" xlink:href="#DejaVuSans-115"/>
       <use x="996.679688" xlink:href="#DejaVuSans-46"/>
       <use x="1028.466797" xlink:href="#DejaVuSans-116"/>
       <use x="1067.675781" xlink:href="#DejaVuSans-120"/>
       <use x="1126.855469" xlink:href="#DejaVuSans-116"/>
      </g>
     </g>
    </g>
    <g id="xtick_7">
     <g id="line2d_13">
      <path clip-path="url(#p1e8d43f386)" d="M 443.803125 425.52 
L 443.803125 47.52 
" style="fill:none;stroke:#b0b0b0;stroke-linecap:square;stroke-width:0.8;"/>
     </g>
     <g id="line2d_14">
      <g>
       <use style="stroke:#000000;stroke-width:0.8;" x="443.803125" xlink:href="#mc17a8c3a95" y="425.52"/>
      </g>
     </g>
     <g id="text_7">
      <!-- essays/122565974w.txt -->
      <defs>
       <path d="M 4.203125 54.6875 
L 13.1875 54.6875 
L 24.421875 12.015625 
L 35.59375 54.6875 
L 46.1875 54.6875 
L 57.421875 12.015625 
L 68.609375 54.6875 
L 77.59375 54.6875 
L 63.28125 0 
L 52.6875 0 
L 40.921875 44.828125 
L 29.109375 0 
L 18.5 0 
z
" id="DejaVuSans-119"/>
      </defs>
      <g transform="translate(446.5625 552.080938)rotate(-90)scale(0.1 -0.1)">
       <use xlink:href="#DejaVuSans-101"/>
       <use x="61.523438" xlink:href="#DejaVuSans-115"/>
       <use x="113.623047" xlink:href="#DejaVuSans-115"/>
       <use x="165.722656" xlink:href="#DejaVuSans-97"/>
       <use x="227.001953" xlink:href="#DejaVuSans-121"/>
       <use x="286.181641" xlink:href="#DejaVuSans-115"/>
       <use x="338.28125" xlink:href="#DejaVuSans-47"/>
       <use x="371.972656" xlink:href="#DejaVuSans-49"/>
       <use x="435.595703" xlink:href="#DejaVuSans-50"/>
       <use x="499.21875" xlink:href="#DejaVuSans-50"/>
       <use x="562.841797" xlink:href="#DejaVuSans-53"/>
       <use x="626.464844" xlink:href="#DejaVuSans-54"/>
       <use x="690.087891" xlink:href="#DejaVuSans-53"/>
       <use x="753.710938" xlink:href="#DejaVuSans-57"/>
       <use x="817.333984" xlink:href="#DejaVuSans-55"/>
       <use x="880.957031" xlink:href="#DejaVuSans-52"/>
       <use x="944.580078" xlink:href="#DejaVuSans-119"/>
       <use x="1026.226562" xlink:href="#DejaVuSans-46"/>
       <use x="1058.013672" xlink:href="#DejaVuSans-116"/>
       <use x="1097.222656" xlink:href="#DejaVuSans-120"/>
       <use x="1156.402344" xlink:href="#DejaVuSans-116"/>
      </g>
     </g>
    </g>
    <g id="xtick_8">
     <g id="line2d_15">
      <path clip-path="url(#p1e8d43f386)" d="M 505.833894 425.52 
L 505.833894 47.52 
" style="fill:none;stroke:#b0b0b0;stroke-linecap:square;stroke-width:0.8;"/>
     </g>
     <g id="line2d_16">
      <g>
       <use style="stroke:#000000;stroke-width:0.8;" x="505.833894" xlink:href="#mc17a8c3a95" y="425.52"/>
      </g>
     </g>
     <g id="text_8">
      <!-- essays/122566028t.txt -->
      <g transform="translate(508.593269 547.837187)rotate(-90)scale(0.1 -0.1)">
       <use xlink:href="#DejaVuSans-101"/>
       <use x="61.523438" xlink:href="#DejaVuSans-115"/>
       <use x="113.623047" xlink:href="#DejaVuSans-115"/>
       <use x="165.722656" xlink:href="#DejaVuSans-97"/>
       <use x="227.001953" xlink:href="#DejaVuSans-121"/>
       <use x="286.181641" xlink:href="#DejaVuSans-115"/>
       <use x="338.28125" xlink:href="#DejaVuSans-47"/>
       <use x="371.972656" xlink:href="#DejaVuSans-49"/>
       <use x="435.595703" xlink:href="#DejaVuSans-50"/>
       <use x="499.21875" xlink:href="#DejaVuSans-50"/>
       <use x="562.841797" xlink:href="#DejaVuSans-53"/>
       <use x="626.464844" xlink:href="#DejaVuSans-54"/>
       <use x="690.087891" xlink:href="#DejaVuSans-54"/>
       <use x="753.710938" xlink:href="#DejaVuSans-48"/>
       <use x="817.333984" xlink:href="#DejaVuSans-50"/>
       <use x="880.957031" xlink:href="#DejaVuSans-56"/>
       <use x="944.580078" xlink:href="#DejaVuSans-116"/>
       <use x="983.789062" xlink:href="#DejaVuSans-46"/>
       <use x="1015.576172" xlink:href="#DejaVuSans-116"/>
       <use x="1054.785156" xlink:href="#DejaVuSans-120"/>
       <use x="1113.964844" xlink:href="#DejaVuSans-116"/>
      </g>
     </g>
    </g>
    <g id="xtick_9">
     <g id="line2d_17">
      <path clip-path="url(#p1e8d43f386)" d="M 567.864663 425.52 
L 567.864663 47.52 
" style="fill:none;stroke:#b0b0b0;stroke-linecap:square;stroke-width:0.8;"/>
     </g>
     <g id="line2d_18">
      <g>
       <use style="stroke:#000000;stroke-width:0.8;" x="567.864663" xlink:href="#mc17a8c3a95" y="425.52"/>
      </g>
     </g>
     <g id="text_9">
      <!-- essays/122568959v.txt -->
      <defs>
       <path d="M 2.984375 54.6875 
L 12.5 54.6875 
L 29.59375 8.796875 
L 46.6875 54.6875 
L 56.203125 54.6875 
L 35.6875 0 
L 23.484375 0 
z
" id="DejaVuSans-118"/>
      </defs>
      <g transform="translate(570.624038 549.824687)rotate(-90)scale(0.1 -0.1)">
       <use xlink:href="#DejaVuSans-101"/>
       <use x="61.523438" xlink:href="#DejaVuSans-115"/>
       <use x="113.623047" xlink:href="#DejaVuSans-115"/>
       <use x="165.722656" xlink:href="#DejaVuSans-97"/>
       <use x="227.001953" xlink:href="#DejaVuSans-121"/>
       <use x="286.181641" xlink:href="#DejaVuSans-115"/>
       <use x="338.28125" xlink:href="#DejaVuSans-47"/>
       <use x="371.972656" xlink:href="#DejaVuSans-49"/>
       <use x="435.595703" xlink:href="#DejaVuSans-50"/>
       <use x="499.21875" xlink:href="#DejaVuSans-50"/>
       <use x="562.841797" xlink:href="#DejaVuSans-53"/>
       <use x="626.464844" xlink:href="#DejaVuSans-54"/>
       <use x="690.087891" xlink:href="#DejaVuSans-56"/>
       <use x="753.710938" xlink:href="#DejaVuSans-57"/>
       <use x="817.333984" xlink:href="#DejaVuSans-53"/>
       <use x="880.957031" xlink:href="#DejaVuSans-57"/>
       <use x="944.580078" xlink:href="#DejaVuSans-118"/>
       <use x="1003.650391" xlink:href="#DejaVuSans-46"/>
       <use x="1035.4375" xlink:href="#DejaVuSans-116"/>
       <use x="1074.646484" xlink:href="#DejaVuSans-120"/>
       <use x="1133.826172" xlink:href="#DejaVuSans-116"/>
      </g>
     </g>
    </g>
    <g id="xtick_10">
     <g id="line2d_19">
      <path clip-path="url(#p1e8d43f386)" d="M 629.895433 425.52 
L 629.895433 47.52 
" style="fill:none;stroke:#b0b0b0;stroke-linecap:square;stroke-width:0.8;"/>
     </g>
     <g id="line2d_20">
      <g>
       <use style="stroke:#000000;stroke-width:0.8;" x="629.895433" xlink:href="#mc17a8c3a95" y="425.52"/>
      </g>
     </g>
     <g id="text_10">
      <!-- essays/122752875.txt -->
      <g transform="translate(632.654808 543.916875)rotate(-90)scale(0.1 -0.1)">
       <use xlink:href="#DejaVuSans-101"/>
       <use x="61.523438" xlink:href="#DejaVuSans-115"/>
       <use x="113.623047" xlink:href="#DejaVuSans-115"/>
       <use x="165.722656" xlink:href="#DejaVuSans-97"/>
       <use x="227.001953" xlink:href="#DejaVuSans-121"/>
       <use x="286.181641" xlink:href="#DejaVuSans-115"/>
       <use x="338.28125" xlink:href="#DejaVuSans-47"/>
       <use x="371.972656" xlink:href="#DejaVuSans-49"/>
       <use x="435.595703" xlink:href="#DejaVuSans-50"/>
       <use x="499.21875" xlink:href="#DejaVuSans-50"/>
       <use x="562.841797" xlink:href="#DejaVuSans-55"/>
       <use x="626.464844" xlink:href="#DejaVuSans-53"/>
       <use x="690.087891" xlink:href="#DejaVuSans-50"/>
       <use x="753.710938" xlink:href="#DejaVuSans-56"/>
       <use x="817.333984" xlink:href="#DejaVuSans-55"/>
       <use x="880.957031" xlink:href="#DejaVuSans-53"/>
       <use x="944.580078" xlink:href="#DejaVuSans-46"/>
       <use x="976.367188" xlink:href="#DejaVuSans-116"/>
       <use x="1015.576172" xlink:href="#DejaVuSans-120"/>
       <use x="1074.755859" xlink:href="#DejaVuSans-116"/>
      </g>
     </g>
    </g>
    <g id="xtick_11">
     <g id="line2d_21">
      <path clip-path="url(#p1e8d43f386)" d="M 691.926202 425.52 
L 691.926202 47.52 
" style="fill:none;stroke:#b0b0b0;stroke-linecap:square;stroke-width:0.8;"/>
     </g>
     <g id="line2d_22">
      <g>
       <use style="stroke:#000000;stroke-width:0.8;" x="691.926202" xlink:href="#mc17a8c3a95" y="425.52"/>
      </g>
     </g>
     <g id="text_11">
      <!-- essays/122753349.txt -->
      <g transform="translate(694.685577 543.916875)rotate(-90)scale(0.1 -0.1)">
       <use xlink:href="#DejaVuSans-101"/>
       <use x="61.523438" xlink:href="#DejaVuSans-115"/>
       <use x="113.623047" xlink:href="#DejaVuSans-115"/>
       <use x="165.722656" xlink:href="#DejaVuSans-97"/>
       <use x="227.001953" xlink:href="#DejaVuSans-121"/>
       <use x="286.181641" xlink:href="#DejaVuSans-115"/>
       <use x="338.28125" xlink:href="#DejaVuSans-47"/>
       <use x="371.972656" xlink:href="#DejaVuSans-49"/>
       <use x="435.595703" xlink:href="#DejaVuSans-50"/>
       <use x="499.21875" xlink:href="#DejaVuSans-50"/>
       <use x="562.841797" xlink:href="#DejaVuSans-55"/>
       <use x="626.464844" xlink:href="#DejaVuSans-53"/>
       <use x="690.087891" xlink:href="#DejaVuSans-51"/>
       <use x="753.710938" xlink:href="#DejaVuSans-51"/>
       <use x="817.333984" xlink:href="#DejaVuSans-52"/>
       <use x="880.957031" xlink:href="#DejaVuSans-57"/>
       <use x="944.580078" xlink:href="#DejaVuSans-46"/>
       <use x="976.367188" xlink:href="#DejaVuSans-116"/>
       <use x="1015.576172" xlink:href="#DejaVuSans-120"/>
       <use x="1074.755859" xlink:href="#DejaVuSans-116"/>
      </g>
     </g>
    </g>
    <g id="xtick_12">
     <g id="line2d_23">
      <path clip-path="url(#p1e8d43f386)" d="M 753.956971 425.52 
L 753.956971 47.52 
" style="fill:none;stroke:#b0b0b0;stroke-linecap:square;stroke-width:0.8;"/>
     </g>
     <g id="line2d_24">
      <g>
       <use style="stroke:#000000;stroke-width:0.8;" x="753.956971" xlink:href="#mc17a8c3a95" y="425.52"/>
      </g>
     </g>
     <g id="text_12">
      <!-- essays/122753520.txt -->
      <g transform="translate(756.716346 543.916875)rotate(-90)scale(0.1 -0.1)">
       <use xlink:href="#DejaVuSans-101"/>
       <use x="61.523438" xlink:href="#DejaVuSans-115"/>
       <use x="113.623047" xlink:href="#DejaVuSans-115"/>
       <use x="165.722656" xlink:href="#DejaVuSans-97"/>
       <use x="227.001953" xlink:href="#DejaVuSans-121"/>
       <use x="286.181641" xlink:href="#DejaVuSans-115"/>
       <use x="338.28125" xlink:href="#DejaVuSans-47"/>
       <use x="371.972656" xlink:href="#DejaVuSans-49"/>
       <use x="435.595703" xlink:href="#DejaVuSans-50"/>
       <use x="499.21875" xlink:href="#DejaVuSans-50"/>
       <use x="562.841797" xlink:href="#DejaVuSans-55"/>
       <use x="626.464844" xlink:href="#DejaVuSans-53"/>
       <use x="690.087891" xlink:href="#DejaVuSans-51"/>
       <use x="753.710938" xlink:href="#DejaVuSans-53"/>
       <use x="817.333984" xlink:href="#DejaVuSans-50"/>
       <use x="880.957031" xlink:href="#DejaVuSans-48"/>
       <use x="944.580078" xlink:href="#DejaVuSans-46"/>
       <use x="976.367188" xlink:href="#DejaVuSans-116"/>
       <use x="1015.576172" xlink:href="#DejaVuSans-120"/>
       <use x="1074.755859" xlink:href="#DejaVuSans-116"/>
      </g>
     </g>
    </g>
    <g id="xtick_13">
     <g id="line2d_25">
      <path clip-path="url(#p1e8d43f386)" d="M 815.98774 425.52 
L 815.98774 47.52 
" style="fill:none;stroke:#b0b0b0;stroke-linecap:square;stroke-width:0.8;"/>
     </g>
     <g id="line2d_26">
      <g>
       <use style="stroke:#000000;stroke-width:0.8;" x="815.98774" xlink:href="#mc17a8c3a95" y="425.52"/>
      </g>
     </g>
     <g id="text_13">
      <!-- essays/122753914u.txt -->
      <defs>
       <path d="M 8.5 21.578125 
L 8.5 54.6875 
L 17.484375 54.6875 
L 17.484375 21.921875 
Q 17.484375 14.15625 20.5 10.265625 
Q 23.53125 6.390625 29.59375 6.390625 
Q 36.859375 6.390625 41.078125 11.03125 
Q 45.3125 15.671875 45.3125 23.6875 
L 45.3125 54.6875 
L 54.296875 54.6875 
L 54.296875 0 
L 45.3125 0 
L 45.3125 8.40625 
Q 42.046875 3.421875 37.71875 1 
Q 33.40625 -1.421875 27.6875 -1.421875 
Q 18.265625 -1.421875 13.375 4.4375 
Q 8.5 10.296875 8.5 21.578125 
z
M 31.109375 56 
z
" id="DejaVuSans-117"/>
      </defs>
      <g transform="translate(818.747115 550.254375)rotate(-90)scale(0.1 -0.1)">
       <use xlink:href="#DejaVuSans-101"/>
       <use x="61.523438" xlink:href="#DejaVuSans-115"/>
       <use x="113.623047" xlink:href="#DejaVuSans-115"/>
       <use x="165.722656" xlink:href="#DejaVuSans-97"/>
       <use x="227.001953" xlink:href="#DejaVuSans-121"/>
       <use x="286.181641" xlink:href="#DejaVuSans-115"/>
       <use x="338.28125" xlink:href="#DejaVuSans-47"/>
       <use x="371.972656" xlink:href="#DejaVuSans-49"/>
       <use x="435.595703" xlink:href="#DejaVuSans-50"/>
       <use x="499.21875" xlink:href="#DejaVuSans-50"/>
       <use x="562.841797" xlink:href="#DejaVuSans-55"/>
       <use x="626.464844" xlink:href="#DejaVuSans-53"/>
       <use x="690.087891" xlink:href="#DejaVuSans-51"/>
       <use x="753.710938" xlink:href="#DejaVuSans-57"/>
       <use x="817.333984" xlink:href="#DejaVuSans-49"/>
       <use x="880.957031" xlink:href="#DejaVuSans-52"/>
       <use x="944.580078" xlink:href="#DejaVuSans-117"/>
       <use x="1007.958984" xlink:href="#DejaVuSans-46"/>
       <use x="1039.746094" xlink:href="#DejaVuSans-116"/>
       <use x="1078.955078" xlink:href="#DejaVuSans-120"/>
       <use x="1138.134766" xlink:href="#DejaVuSans-116"/>
      </g>
     </g>
    </g>
    <g id="text_14">
     <!-- document -->
     <defs>
      <path d="M 45.40625 46.390625 
L 45.40625 75.984375 
L 54.390625 75.984375 
L 54.390625 0 
L 45.40625 0 
L 45.40625 8.203125 
Q 42.578125 3.328125 38.25 0.953125 
Q 33.9375 -1.421875 27.875 -1.421875 
Q 17.96875 -1.421875 11.734375 6.484375 
Q 5.515625 14.40625 5.515625 27.296875 
Q 5.515625 40.1875 11.734375 48.09375 
Q 17.96875 56 27.875 56 
Q 33.9375 56 38.25 53.625 
Q 42.578125 51.265625 45.40625 46.390625 
z
M 14.796875 27.296875 
Q 14.796875 17.390625 18.875 11.75 
Q 22.953125 6.109375 30.078125 6.109375 
Q 37.203125 6.109375 41.296875 11.75 
Q 45.40625 17.390625 45.40625 27.296875 
Q 45.40625 37.203125 41.296875 42.84375 
Q 37.203125 48.484375 30.078125 48.484375 
Q 22.953125 48.484375 18.875 42.84375 
Q 14.796875 37.203125 14.796875 27.296875 
z
" id="DejaVuSans-100"/>
      <path d="M 30.609375 48.390625 
Q 23.390625 48.390625 19.1875 42.75 
Q 14.984375 37.109375 14.984375 27.296875 
Q 14.984375 17.484375 19.15625 11.84375 
Q 23.34375 6.203125 30.609375 6.203125 
Q 37.796875 6.203125 41.984375 11.859375 
Q 46.1875 17.53125 46.1875 27.296875 
Q 46.1875 37.015625 41.984375 42.703125 
Q 37.796875 48.390625 30.609375 48.390625 
z
M 30.609375 56 
Q 42.328125 56 49.015625 48.375 
Q 55.71875 40.765625 55.71875 27.296875 
Q 55.71875 13.875 49.015625 6.21875 
Q 42.328125 -1.421875 30.609375 -1.421875 
Q 18.84375 -1.421875 12.171875 6.21875 
Q 5.515625 13.875 5.515625 27.296875 
Q 5.515625 40.765625 12.171875 48.375 
Q 18.84375 56 30.609375 56 
z
" id="DejaVuSans-111"/>
      <path d="M 48.78125 52.59375 
L 48.78125 44.1875 
Q 44.96875 46.296875 41.140625 47.34375 
Q 37.3125 48.390625 33.40625 48.390625 
Q 24.65625 48.390625 19.8125 42.84375 
Q 14.984375 37.3125 14.984375 27.296875 
Q 14.984375 17.28125 19.8125 11.734375 
Q 24.65625 6.203125 33.40625 6.203125 
Q 37.3125 6.203125 41.140625 7.25 
Q 44.96875 8.296875 48.78125 10.40625 
L 48.78125 2.09375 
Q 45.015625 0.34375 40.984375 -0.53125 
Q 36.96875 -1.421875 32.421875 -1.421875 
Q 20.0625 -1.421875 12.78125 6.34375 
Q 5.515625 14.109375 5.515625 27.296875 
Q 5.515625 40.671875 12.859375 48.328125 
Q 20.21875 56 33.015625 56 
Q 37.15625 56 41.109375 55.140625 
Q 45.0625 54.296875 48.78125 52.59375 
z
" id="DejaVuSans-99"/>
      <path d="M 52 44.1875 
Q 55.375 50.25 60.0625 53.125 
Q 64.75 56 71.09375 56 
Q 79.640625 56 84.28125 50.015625 
Q 88.921875 44.046875 88.921875 33.015625 
L 88.921875 0 
L 79.890625 0 
L 79.890625 32.71875 
Q 79.890625 40.578125 77.09375 44.375 
Q 74.3125 48.1875 68.609375 48.1875 
Q 61.625 48.1875 57.5625 43.546875 
Q 53.515625 38.921875 53.515625 30.90625 
L 53.515625 0 
L 44.484375 0 
L 44.484375 32.71875 
Q 44.484375 40.625 41.703125 44.40625 
Q 38.921875 48.1875 33.109375 48.1875 
Q 26.21875 48.1875 22.15625 43.53125 
Q 18.109375 38.875 18.109375 30.90625 
L 18.109375 0 
L 9.078125 0 
L 9.078125 54.6875 
L 18.109375 54.6875 
L 18.109375 46.1875 
Q 21.1875 51.21875 25.484375 53.609375 
Q 29.78125 56 35.6875 56 
Q 41.65625 56 45.828125 52.96875 
Q 50 49.953125 52 44.1875 
z
" id="DejaVuSans-109"/>
      <path d="M 54.890625 33.015625 
L 54.890625 0 
L 45.90625 0 
L 45.90625 32.71875 
Q 45.90625 40.484375 42.875 44.328125 
Q 39.84375 48.1875 33.796875 48.1875 
Q 26.515625 48.1875 22.3125 43.546875 
Q 18.109375 38.921875 18.109375 30.90625 
L 18.109375 0 
L 9.078125 0 
L 9.078125 54.6875 
L 18.109375 54.6875 
L 18.109375 46.1875 
Q 21.34375 51.125 25.703125 53.5625 
Q 30.078125 56 35.796875 56 
Q 45.21875 56 50.046875 50.171875 
Q 54.890625 44.34375 54.890625 33.015625 
z
" id="DejaVuSans-110"/>
     </defs>
     <g transform="translate(418.575781 563.679375)scale(0.1 -0.1)">
      <use xlink:href="#DejaVuSans-100"/>
      <use x="63.476562" xlink:href="#DejaVuSans-111"/>
      <use x="124.658203" xlink:href="#DejaVuSans-99"/>
      <use x="179.638672" xlink:href="#DejaVuSans-117"/>
      <use x="243.017578" xlink:href="#DejaVuSans-109"/>
      <use x="340.429688" xlink:href="#DejaVuSans-101"/>
      <use x="401.953125" xlink:href="#DejaVuSans-110"/>
      <use x="465.332031" xlink:href="#DejaVuSans-116"/>
     </g>
    </g>
   </g>
   <g id="matplotlib.axis_2">
    <g id="ytick_1">
     <g id="line2d_27">
      <path clip-path="url(#p1e8d43f386)" d="M 40.603125 421.009839 
L 847.003125 421.009839 
" style="fill:none;stroke:#b0b0b0;stroke-linecap:square;stroke-width:0.8;"/>
     </g>
     <g id="line2d_28">
      <defs>
       <path d="M 0 0 
L -3.5 0 
" id="m7afca1af26" style="stroke:#000000;stroke-width:0.8;"/>
      </defs>
      <g>
       <use style="stroke:#000000;stroke-width:0.8;" x="40.603125" xlink:href="#m7afca1af26" y="421.009839"/>
      </g>
     </g>
     <g id="text_15">
      <!-- 6 -->
      <g transform="translate(27.240625 424.809058)scale(0.1 -0.1)">
       <use xlink:href="#DejaVuSans-54"/>
      </g>
     </g>
    </g>
    <g id="ytick_2">
     <g id="line2d_29">
      <path clip-path="url(#p1e8d43f386)" d="M 40.603125 371.856786 
L 847.003125 371.856786 
" style="fill:none;stroke:#b0b0b0;stroke-linecap:square;stroke-width:0.8;"/>
     </g>
     <g id="line2d_30">
      <g>
       <use style="stroke:#000000;stroke-width:0.8;" x="40.603125" xlink:href="#m7afca1af26" y="371.856786"/>
      </g>
     </g>
     <g id="text_16">
      <!-- 8 -->
      <g transform="translate(27.240625 375.656005)scale(0.1 -0.1)">
       <use xlink:href="#DejaVuSans-56"/>
      </g>
     </g>
    </g>
    <g id="ytick_3">
     <g id="line2d_31">
      <path clip-path="url(#p1e8d43f386)" d="M 40.603125 322.703734 
L 847.003125 322.703734 
" style="fill:none;stroke:#b0b0b0;stroke-linecap:square;stroke-width:0.8;"/>
     </g>
     <g id="line2d_32">
      <g>
       <use style="stroke:#000000;stroke-width:0.8;" x="40.603125" xlink:href="#m7afca1af26" y="322.703734"/>
      </g>
     </g>
     <g id="text_17">
      <!-- 10 -->
      <g transform="translate(20.878125 326.502952)scale(0.1 -0.1)">
       <use xlink:href="#DejaVuSans-49"/>
       <use x="63.623047" xlink:href="#DejaVuSans-48"/>
      </g>
     </g>
    </g>
    <g id="ytick_4">
     <g id="line2d_33">
      <path clip-path="url(#p1e8d43f386)" d="M 40.603125 273.550681 
L 847.003125 273.550681 
" style="fill:none;stroke:#b0b0b0;stroke-linecap:square;stroke-width:0.8;"/>
     </g>
     <g id="line2d_34">
      <g>
       <use style="stroke:#000000;stroke-width:0.8;" x="40.603125" xlink:href="#m7afca1af26" y="273.550681"/>
      </g>
     </g>
     <g id="text_18">
      <!-- 12 -->
      <g transform="translate(20.878125 277.3499)scale(0.1 -0.1)">
       <use xlink:href="#DejaVuSans-49"/>
       <use x="63.623047" xlink:href="#DejaVuSans-50"/>
      </g>
     </g>
    </g>
    <g id="ytick_5">
     <g id="line2d_35">
      <path clip-path="url(#p1e8d43f386)" d="M 40.603125 224.397628 
L 847.003125 224.397628 
" style="fill:none;stroke:#b0b0b0;stroke-linecap:square;stroke-width:0.8;"/>
     </g>
     <g id="line2d_36">
      <g>
       <use style="stroke:#000000;stroke-width:0.8;" x="40.603125" xlink:href="#m7afca1af26" y="224.397628"/>
      </g>
     </g>
     <g id="text_19">
      <!-- 14 -->
      <g transform="translate(20.878125 228.196847)scale(0.1 -0.1)">
       <use xlink:href="#DejaVuSans-49"/>
       <use x="63.623047" xlink:href="#DejaVuSans-52"/>
      </g>
     </g>
    </g>
    <g id="ytick_6">
     <g id="line2d_37">
      <path clip-path="url(#p1e8d43f386)" d="M 40.603125 175.244576 
L 847.003125 175.244576 
" style="fill:none;stroke:#b0b0b0;stroke-linecap:square;stroke-width:0.8;"/>
     </g>
     <g id="line2d_38">
      <g>
       <use style="stroke:#000000;stroke-width:0.8;" x="40.603125" xlink:href="#m7afca1af26" y="175.244576"/>
      </g>
     </g>
     <g id="text_20">
      <!-- 16 -->
      <g transform="translate(20.878125 179.043795)scale(0.1 -0.1)">
       <use xlink:href="#DejaVuSans-49"/>
       <use x="63.623047" xlink:href="#DejaVuSans-54"/>
      </g>
     </g>
    </g>
    <g id="ytick_7">
     <g id="line2d_39">
      <path clip-path="url(#p1e8d43f386)" d="M 40.603125 126.091523 
L 847.003125 126.091523 
" style="fill:none;stroke:#b0b0b0;stroke-linecap:square;stroke-width:0.8;"/>
     </g>
     <g id="line2d_40">
      <g>
       <use style="stroke:#000000;stroke-width:0.8;" x="40.603125" xlink:href="#m7afca1af26" y="126.091523"/>
      </g>
     </g>
     <g id="text_21">
      <!-- 18 -->
      <g transform="translate(20.878125 129.890742)scale(0.1 -0.1)">
       <use xlink:href="#DejaVuSans-49"/>
       <use x="63.623047" xlink:href="#DejaVuSans-56"/>
      </g>
     </g>
    </g>
    <g id="ytick_8">
     <g id="line2d_41">
      <path clip-path="url(#p1e8d43f386)" d="M 40.603125 76.938471 
L 847.003125 76.938471 
" style="fill:none;stroke:#b0b0b0;stroke-linecap:square;stroke-width:0.8;"/>
     </g>
     <g id="line2d_42">
      <g>
       <use style="stroke:#000000;stroke-width:0.8;" x="40.603125" xlink:href="#m7afca1af26" y="76.938471"/>
      </g>
     </g>
     <g id="text_22">
      <!-- 20 -->
      <g transform="translate(20.878125 80.737689)scale(0.1 -0.1)">
       <use xlink:href="#DejaVuSans-50"/>
       <use x="63.623047" xlink:href="#DejaVuSans-48"/>
      </g>
     </g>
    </g>
    <g id="text_23">
     <!-- GFI -->
     <defs>
      <path d="M 59.515625 10.40625 
L 59.515625 29.984375 
L 43.40625 29.984375 
L 43.40625 38.09375 
L 69.28125 38.09375 
L 69.28125 6.78125 
Q 63.578125 2.734375 56.6875 0.65625 
Q 49.8125 -1.421875 42 -1.421875 
Q 24.90625 -1.421875 15.25 8.5625 
Q 5.609375 18.5625 5.609375 36.375 
Q 5.609375 54.25 15.25 64.234375 
Q 24.90625 74.21875 42 74.21875 
Q 49.125 74.21875 55.546875 72.453125 
Q 61.96875 70.703125 67.390625 67.28125 
L 67.390625 56.78125 
Q 61.921875 61.421875 55.765625 63.765625 
Q 49.609375 66.109375 42.828125 66.109375 
Q 29.4375 66.109375 22.71875 58.640625 
Q 16.015625 51.171875 16.015625 36.375 
Q 16.015625 21.625 22.71875 14.15625 
Q 29.4375 6.6875 42.828125 6.6875 
Q 48.046875 6.6875 52.140625 7.59375 
Q 56.25 8.5 59.515625 10.40625 
z
" id="DejaVuSans-71"/>
      <path d="M 9.8125 72.90625 
L 51.703125 72.90625 
L 51.703125 64.59375 
L 19.671875 64.59375 
L 19.671875 43.109375 
L 48.578125 43.109375 
L 48.578125 34.8125 
L 19.671875 34.8125 
L 19.671875 0 
L 9.8125 0 
z
" id="DejaVuSans-70"/>
      <path d="M 9.8125 72.90625 
L 19.671875 72.90625 
L 19.671875 0 
L 9.8125 0 
z
" id="DejaVuSans-73"/>
     </defs>
     <g transform="translate(14.798437 244.745)rotate(-90)scale(0.1 -0.1)">
      <use xlink:href="#DejaVuSans-71"/>
      <use x="77.490234" xlink:href="#DejaVuSans-70"/>
      <use x="135.009766" xlink:href="#DejaVuSans-73"/>
     </g>
    </g>
   </g>
   <g id="line2d_43">
    <path clip-path="url(#p1e8d43f386)" d="M 56.110817 255.518269 
L 87.126202 255.518269 
L 87.126202 138.544449 
L 56.110817 138.544449 
L 56.110817 255.518269 
" style="fill:none;stroke:#1f77b4;stroke-linecap:square;"/>
   </g>
   <g id="line2d_44">
    <path clip-path="url(#p1e8d43f386)" d="M 71.61851 255.518269 
L 71.61851 306.443904 
" style="fill:none;stroke:#1f77b4;stroke-linecap:square;"/>
   </g>
   <g id="line2d_45">
    <path clip-path="url(#p1e8d43f386)" d="M 71.61851 138.544449 
L 71.61851 64.701818 
" style="fill:none;stroke:#1f77b4;stroke-linecap:square;"/>
   </g>
   <g id="line2d_46">
    <path clip-path="url(#p1e8d43f386)" d="M 63.864663 306.443904 
L 79.372356 306.443904 
" style="fill:none;stroke:#000000;stroke-linecap:square;"/>
   </g>
   <g id="line2d_47">
    <path clip-path="url(#p1e8d43f386)" d="M 63.864663 64.701818 
L 79.372356 64.701818 
" style="fill:none;stroke:#000000;stroke-linecap:square;"/>
   </g>
   <g id="line2d_48"/>
   <g id="line2d_49">
    <path clip-path="url(#p1e8d43f386)" d="M 118.141587 360.311349 
L 149.156971 360.311349 
L 149.156971 286.993426 
L 118.141587 286.993426 
L 118.141587 360.311349 
" style="fill:none;stroke:#1f77b4;stroke-linecap:square;"/>
   </g>
   <g id="line2d_50">
    <path clip-path="url(#p1e8d43f386)" d="M 133.649279 360.311349 
L 133.649279 384.000048 
" style="fill:none;stroke:#1f77b4;stroke-linecap:square;"/>
   </g>
   <g id="line2d_51">
    <path clip-path="url(#p1e8d43f386)" d="M 133.649279 286.993426 
L 133.649279 205.920996 
" style="fill:none;stroke:#1f77b4;stroke-linecap:square;"/>
   </g>
   <g id="line2d_52">
    <path clip-path="url(#p1e8d43f386)" d="M 125.895433 384.000048 
L 141.403125 384.000048 
" style="fill:none;stroke:#000000;stroke-linecap:square;"/>
   </g>
   <g id="line2d_53">
    <path clip-path="url(#p1e8d43f386)" d="M 125.895433 205.920996 
L 141.403125 205.920996 
" style="fill:none;stroke:#000000;stroke-linecap:square;"/>
   </g>
   <g id="line2d_54"/>
   <g id="line2d_55">
    <path clip-path="url(#p1e8d43f386)" d="M 180.172356 336.27612 
L 211.18774 336.27612 
L 211.18774 249.630348 
L 180.172356 249.630348 
L 180.172356 336.27612 
" style="fill:none;stroke:#1f77b4;stroke-linecap:square;"/>
   </g>
   <g id="line2d_56">
    <path clip-path="url(#p1e8d43f386)" d="M 195.680048 336.27612 
L 195.680048 366.64902 
" style="fill:none;stroke:#1f77b4;stroke-linecap:square;"/>
   </g>
   <g id="line2d_57">
    <path clip-path="url(#p1e8d43f386)" d="M 195.680048 249.630348 
L 195.680048 190.408293 
" style="fill:none;stroke:#1f77b4;stroke-linecap:square;"/>
   </g>
   <g id="line2d_58">
    <path clip-path="url(#p1e8d43f386)" d="M 187.926202 366.64902 
L 203.433894 366.64902 
" style="fill:none;stroke:#000000;stroke-linecap:square;"/>
   </g>
   <g id="line2d_59">
    <path clip-path="url(#p1e8d43f386)" d="M 187.926202 190.408293 
L 203.433894 190.408293 
" style="fill:none;stroke:#000000;stroke-linecap:square;"/>
   </g>
   <g id="line2d_60"/>
   <g id="line2d_61">
    <path clip-path="url(#p1e8d43f386)" d="M 242.203125 299.392898 
L 273.21851 299.392898 
L 273.21851 230.900577 
L 242.203125 230.900577 
L 242.203125 299.392898 
" style="fill:none;stroke:#1f77b4;stroke-linecap:square;"/>
   </g>
   <g id="line2d_62">
    <path clip-path="url(#p1e8d43f386)" d="M 257.710817 299.392898 
L 257.710817 318.530639 
" style="fill:none;stroke:#1f77b4;stroke-linecap:square;"/>
   </g>
   <g id="line2d_63">
    <path clip-path="url(#p1e8d43f386)" d="M 257.710817 230.900577 
L 257.710817 181.545997 
" style="fill:none;stroke:#1f77b4;stroke-linecap:square;"/>
   </g>
   <g id="line2d_64">
    <path clip-path="url(#p1e8d43f386)" d="M 249.956971 318.530639 
L 265.464663 318.530639 
" style="fill:none;stroke:#000000;stroke-linecap:square;"/>
   </g>
   <g id="line2d_65">
    <path clip-path="url(#p1e8d43f386)" d="M 249.956971 181.545997 
L 265.464663 181.545997 
" style="fill:none;stroke:#000000;stroke-linecap:square;"/>
   </g>
   <g id="line2d_66"/>
   <g id="line2d_67">
    <path clip-path="url(#p1e8d43f386)" d="M 304.233894 332.015779 
L 335.249279 332.015779 
L 335.249279 200.285598 
L 304.233894 200.285598 
L 304.233894 332.015779 
" style="fill:none;stroke:#1f77b4;stroke-linecap:square;"/>
   </g>
   <g id="line2d_68">
    <path clip-path="url(#p1e8d43f386)" d="M 319.741587 332.015779 
L 319.741587 354.540166 
" style="fill:none;stroke:#1f77b4;stroke-linecap:square;"/>
   </g>
   <g id="line2d_69">
    <path clip-path="url(#p1e8d43f386)" d="M 319.741587 200.285598 
L 319.741587 172.578023 
" style="fill:none;stroke:#1f77b4;stroke-linecap:square;"/>
   </g>
   <g id="line2d_70">
    <path clip-path="url(#p1e8d43f386)" d="M 311.98774 354.540166 
L 327.495433 354.540166 
" style="fill:none;stroke:#000000;stroke-linecap:square;"/>
   </g>
   <g id="line2d_71">
    <path clip-path="url(#p1e8d43f386)" d="M 311.98774 172.578023 
L 327.495433 172.578023 
" style="fill:none;stroke:#000000;stroke-linecap:square;"/>
   </g>
   <g id="line2d_72"/>
   <g id="line2d_73">
    <path clip-path="url(#p1e8d43f386)" d="M 366.264663 336.730786 
L 397.280048 336.730786 
L 397.280048 245.560475 
L 366.264663 245.560475 
L 366.264663 336.730786 
" style="fill:none;stroke:#1f77b4;stroke-linecap:square;"/>
   </g>
   <g id="line2d_74">
    <path clip-path="url(#p1e8d43f386)" d="M 381.772356 336.730786 
L 381.772356 367.12089 
" style="fill:none;stroke:#1f77b4;stroke-linecap:square;"/>
   </g>
   <g id="line2d_75">
    <path clip-path="url(#p1e8d43f386)" d="M 381.772356 245.560475 
L 381.772356 184.780268 
" style="fill:none;stroke:#1f77b4;stroke-linecap:square;"/>
   </g>
   <g id="line2d_76">
    <path clip-path="url(#p1e8d43f386)" d="M 374.01851 367.12089 
L 389.526202 367.12089 
" style="fill:none;stroke:#000000;stroke-linecap:square;"/>
   </g>
   <g id="line2d_77">
    <path clip-path="url(#p1e8d43f386)" d="M 374.01851 184.780268 
L 389.526202 184.780268 
" style="fill:none;stroke:#000000;stroke-linecap:square;"/>
   </g>
   <g id="line2d_78"/>
   <g id="line2d_79">
    <path clip-path="url(#p1e8d43f386)" d="M 428.295433 364.366475 
L 459.310817 364.366475 
L 459.310817 273.778628 
L 428.295433 273.778628 
L 428.295433 364.366475 
" style="fill:none;stroke:#1f77b4;stroke-linecap:square;"/>
   </g>
   <g id="line2d_80">
    <path clip-path="url(#p1e8d43f386)" d="M 443.803125 364.366475 
L 443.803125 408.338182 
" style="fill:none;stroke:#1f77b4;stroke-linecap:square;"/>
   </g>
   <g id="line2d_81">
    <path clip-path="url(#p1e8d43f386)" d="M 443.803125 273.778628 
L 443.803125 185.244764 
" style="fill:none;stroke:#1f77b4;stroke-linecap:square;"/>
   </g>
   <g id="line2d_82">
    <path clip-path="url(#p1e8d43f386)" d="M 436.049279 408.338182 
L 451.556971 408.338182 
" style="fill:none;stroke:#000000;stroke-linecap:square;"/>
   </g>
   <g id="line2d_83">
    <path clip-path="url(#p1e8d43f386)" d="M 436.049279 185.244764 
L 451.556971 185.244764 
" style="fill:none;stroke:#000000;stroke-linecap:square;"/>
   </g>
   <g id="line2d_84"/>
   <g id="line2d_85">
    <path clip-path="url(#p1e8d43f386)" d="M 490.326202 364.571075 
L 521.341587 364.571075 
L 521.341587 242.783942 
L 490.326202 242.783942 
L 490.326202 364.571075 
" style="fill:none;stroke:#1f77b4;stroke-linecap:square;"/>
   </g>
   <g id="line2d_86">
    <path clip-path="url(#p1e8d43f386)" d="M 505.833894 364.571075 
L 505.833894 380.910778 
" style="fill:none;stroke:#1f77b4;stroke-linecap:square;"/>
   </g>
   <g id="line2d_87">
    <path clip-path="url(#p1e8d43f386)" d="M 505.833894 242.783942 
L 505.833894 193.930109 
" style="fill:none;stroke:#1f77b4;stroke-linecap:square;"/>
   </g>
   <g id="line2d_88">
    <path clip-path="url(#p1e8d43f386)" d="M 498.080048 380.910778 
L 513.58774 380.910778 
" style="fill:none;stroke:#000000;stroke-linecap:square;"/>
   </g>
   <g id="line2d_89">
    <path clip-path="url(#p1e8d43f386)" d="M 498.080048 193.930109 
L 513.58774 193.930109 
" style="fill:none;stroke:#000000;stroke-linecap:square;"/>
   </g>
   <g id="line2d_90"/>
   <g id="line2d_91">
    <path clip-path="url(#p1e8d43f386)" d="M 552.356971 308.70986 
L 583.372356 308.70986 
L 583.372356 227.166174 
L 552.356971 227.166174 
L 552.356971 308.70986 
" style="fill:none;stroke:#1f77b4;stroke-linecap:square;"/>
   </g>
   <g id="line2d_92">
    <path clip-path="url(#p1e8d43f386)" d="M 567.864663 308.70986 
L 567.864663 339.287974 
" style="fill:none;stroke:#1f77b4;stroke-linecap:square;"/>
   </g>
   <g id="line2d_93">
    <path clip-path="url(#p1e8d43f386)" d="M 567.864663 227.166174 
L 567.864663 176.200603 
" style="fill:none;stroke:#1f77b4;stroke-linecap:square;"/>
   </g>
   <g id="line2d_94">
    <path clip-path="url(#p1e8d43f386)" d="M 560.110817 339.287974 
L 575.61851 339.287974 
" style="fill:none;stroke:#000000;stroke-linecap:square;"/>
   </g>
   <g id="line2d_95">
    <path clip-path="url(#p1e8d43f386)" d="M 560.110817 176.200603 
L 575.61851 176.200603 
" style="fill:none;stroke:#000000;stroke-linecap:square;"/>
   </g>
   <g id="line2d_96"/>
   <g id="line2d_97">
    <path clip-path="url(#p1e8d43f386)" d="M 614.38774 261.262418 
L 645.403125 261.262418 
L 645.403125 202.278755 
L 614.38774 202.278755 
L 614.38774 261.262418 
" style="fill:none;stroke:#1f77b4;stroke-linecap:square;"/>
   </g>
   <g id="line2d_98">
    <path clip-path="url(#p1e8d43f386)" d="M 629.895433 261.262418 
L 629.895433 299.427306 
" style="fill:none;stroke:#1f77b4;stroke-linecap:square;"/>
   </g>
   <g id="line2d_99">
    <path clip-path="url(#p1e8d43f386)" d="M 629.895433 202.278755 
L 629.895433 181.459979 
" style="fill:none;stroke:#1f77b4;stroke-linecap:square;"/>
   </g>
   <g id="line2d_100">
    <path clip-path="url(#p1e8d43f386)" d="M 622.141587 299.427306 
L 637.649279 299.427306 
" style="fill:none;stroke:#000000;stroke-linecap:square;"/>
   </g>
   <g id="line2d_101">
    <path clip-path="url(#p1e8d43f386)" d="M 622.141587 181.459979 
L 637.649279 181.459979 
" style="fill:none;stroke:#000000;stroke-linecap:square;"/>
   </g>
   <g id="line2d_102"/>
   <g id="line2d_103">
    <path clip-path="url(#p1e8d43f386)" d="M 676.41851 273.67725 
L 707.433894 273.67725 
L 707.433894 137.110409 
L 676.41851 137.110409 
L 676.41851 273.67725 
" style="fill:none;stroke:#1f77b4;stroke-linecap:square;"/>
   </g>
   <g id="line2d_104">
    <path clip-path="url(#p1e8d43f386)" d="M 691.926202 273.67725 
L 691.926202 309.464359 
" style="fill:none;stroke:#1f77b4;stroke-linecap:square;"/>
   </g>
   <g id="line2d_105">
    <path clip-path="url(#p1e8d43f386)" d="M 691.926202 137.110409 
L 691.926202 111.26942 
" style="fill:none;stroke:#1f77b4;stroke-linecap:square;"/>
   </g>
   <g id="line2d_106">
    <path clip-path="url(#p1e8d43f386)" d="M 684.172356 309.464359 
L 699.680048 309.464359 
" style="fill:none;stroke:#000000;stroke-linecap:square;"/>
   </g>
   <g id="line2d_107">
    <path clip-path="url(#p1e8d43f386)" d="M 684.172356 111.26942 
L 699.680048 111.26942 
" style="fill:none;stroke:#000000;stroke-linecap:square;"/>
   </g>
   <g id="line2d_108"/>
   <g id="line2d_109">
    <path clip-path="url(#p1e8d43f386)" d="M 738.449279 307.957818 
L 769.464663 307.957818 
L 769.464663 265.972509 
L 738.449279 265.972509 
L 738.449279 307.957818 
" style="fill:none;stroke:#1f77b4;stroke-linecap:square;"/>
   </g>
   <g id="line2d_110">
    <path clip-path="url(#p1e8d43f386)" d="M 753.956971 307.957818 
L 753.956971 326.390213 
" style="fill:none;stroke:#1f77b4;stroke-linecap:square;"/>
   </g>
   <g id="line2d_111">
    <path clip-path="url(#p1e8d43f386)" d="M 753.956971 265.972509 
L 753.956971 242.419595 
" style="fill:none;stroke:#1f77b4;stroke-linecap:square;"/>
   </g>
   <g id="line2d_112">
    <path clip-path="url(#p1e8d43f386)" d="M 746.203125 326.390213 
L 761.710817 326.390213 
" style="fill:none;stroke:#000000;stroke-linecap:square;"/>
   </g>
   <g id="line2d_113">
    <path clip-path="url(#p1e8d43f386)" d="M 746.203125 242.419595 
L 761.710817 242.419595 
" style="fill:none;stroke:#000000;stroke-linecap:square;"/>
   </g>
   <g id="line2d_114"/>
   <g id="line2d_115">
    <path clip-path="url(#p1e8d43f386)" d="M 800.480048 325.719888 
L 831.495433 325.719888 
L 831.495433 214.806025 
L 800.480048 214.806025 
L 800.480048 325.719888 
" style="fill:none;stroke:#1f77b4;stroke-linecap:square;"/>
   </g>
   <g id="line2d_116">
    <path clip-path="url(#p1e8d43f386)" d="M 815.98774 325.719888 
L 815.98774 357.11087 
" style="fill:none;stroke:#1f77b4;stroke-linecap:square;"/>
   </g>
   <g id="line2d_117">
    <path clip-path="url(#p1e8d43f386)" d="M 815.98774 214.806025 
L 815.98774 187.83513 
" style="fill:none;stroke:#1f77b4;stroke-linecap:square;"/>
   </g>
   <g id="line2d_118">
    <path clip-path="url(#p1e8d43f386)" d="M 808.233894 357.11087 
L 823.741587 357.11087 
" style="fill:none;stroke:#000000;stroke-linecap:square;"/>
   </g>
   <g id="line2d_119">
    <path clip-path="url(#p1e8d43f386)" d="M 808.233894 187.83513 
L 823.741587 187.83513 
" style="fill:none;stroke:#000000;stroke-linecap:square;"/>
   </g>
   <g id="line2d_120"/>
   <g id="line2d_121">
    <path clip-path="url(#p1e8d43f386)" d="M 56.110817 198.280154 
L 87.126202 198.280154 
" style="fill:none;stroke:#2ca02c;stroke-linecap:square;"/>
   </g>
   <g id="line2d_122">
    <path clip-path="url(#p1e8d43f386)" d="M 118.141587 324.433921 
L 149.156971 324.433921 
" style="fill:none;stroke:#2ca02c;stroke-linecap:square;"/>
   </g>
   <g id="line2d_123">
    <path clip-path="url(#p1e8d43f386)" d="M 180.172356 316.098792 
L 211.18774 316.098792 
" style="fill:none;stroke:#2ca02c;stroke-linecap:square;"/>
   </g>
   <g id="line2d_124">
    <path clip-path="url(#p1e8d43f386)" d="M 242.203125 280.255157 
L 273.21851 280.255157 
" style="fill:none;stroke:#2ca02c;stroke-linecap:square;"/>
   </g>
   <g id="line2d_125">
    <path clip-path="url(#p1e8d43f386)" d="M 304.233894 260.093804 
L 335.249279 260.093804 
" style="fill:none;stroke:#2ca02c;stroke-linecap:square;"/>
   </g>
   <g id="line2d_126">
    <path clip-path="url(#p1e8d43f386)" d="M 366.264663 306.340682 
L 397.280048 306.340682 
" style="fill:none;stroke:#2ca02c;stroke-linecap:square;"/>
   </g>
   <g id="line2d_127">
    <path clip-path="url(#p1e8d43f386)" d="M 428.295433 312.208328 
L 459.310817 312.208328 
" style="fill:none;stroke:#2ca02c;stroke-linecap:square;"/>
   </g>
   <g id="line2d_128">
    <path clip-path="url(#p1e8d43f386)" d="M 490.326202 325.577958 
L 521.341587 325.577958 
" style="fill:none;stroke:#2ca02c;stroke-linecap:square;"/>
   </g>
   <g id="line2d_129">
    <path clip-path="url(#p1e8d43f386)" d="M 552.356971 278.131745 
L 583.372356 278.131745 
" style="fill:none;stroke:#2ca02c;stroke-linecap:square;"/>
   </g>
   <g id="line2d_130">
    <path clip-path="url(#p1e8d43f386)" d="M 614.38774 223.09753 
L 645.403125 223.09753 
" style="fill:none;stroke:#2ca02c;stroke-linecap:square;"/>
   </g>
   <g id="line2d_131">
    <path clip-path="url(#p1e8d43f386)" d="M 676.41851 217.105773 
L 707.433894 217.105773 
" style="fill:none;stroke:#2ca02c;stroke-linecap:square;"/>
   </g>
   <g id="line2d_132">
    <path clip-path="url(#p1e8d43f386)" d="M 738.449279 289.525423 
L 769.464663 289.525423 
" style="fill:none;stroke:#2ca02c;stroke-linecap:square;"/>
   </g>
   <g id="line2d_133">
    <path clip-path="url(#p1e8d43f386)" d="M 800.480048 277.715173 
L 831.495433 277.715173 
" style="fill:none;stroke:#2ca02c;stroke-linecap:square;"/>
   </g>
   <g id="patch_3">
    <path d="M 40.603125 425.52 
L 40.603125 47.52 
" style="fill:none;stroke:#000000;stroke-linecap:square;stroke-linejoin:miter;stroke-width:0.8;"/>
   </g>
   <g id="patch_4">
    <path d="M 847.003125 425.52 
L 847.003125 47.52 
" style="fill:none;stroke:#000000;stroke-linecap:square;stroke-linejoin:miter;stroke-width:0.8;"/>
   </g>
   <g id="patch_5">
    <path d="M 40.603125 425.52 
L 847.003125 425.52 
" style="fill:none;stroke:#000000;stroke-linecap:square;stroke-linejoin:miter;stroke-width:0.8;"/>
   </g>
   <g id="patch_6">
    <path d="M 40.603125 47.52 
L 847.003125 47.52 
" style="fill:none;stroke:#000000;stroke-linecap:square;stroke-linejoin:miter;stroke-width:0.8;"/>
   </g>
   <g id="text_24">
    <!-- GFI -->
    <g transform="translate(433.933125 41.52)scale(0.12 -0.12)">
     <use xlink:href="#DejaVuSans-71"/>
     <use x="77.490234" xlink:href="#DejaVuSans-70"/>
     <use x="135.009766" xlink:href="#DejaVuSans-73"/>
    </g>
   </g>
  </g>
  <g id="text_25">
   <!-- GFI for chunks of size 20 grouped by document -->
   <defs>
    <path id="DejaVuSans-32"/>
    <path d="M 37.109375 75.984375 
L 37.109375 68.5 
L 28.515625 68.5 
Q 23.6875 68.5 21.796875 66.546875 
Q 19.921875 64.59375 19.921875 59.515625 
L 19.921875 54.6875 
L 34.71875 54.6875 
L 34.71875 47.703125 
L 19.921875 47.703125 
L 19.921875 0 
L 10.890625 0 
L 10.890625 47.703125 
L 2.296875 47.703125 
L 2.296875 54.6875 
L 10.890625 54.6875 
L 10.890625 58.5 
Q 10.890625 67.625 15.140625 71.796875 
Q 19.390625 75.984375 28.609375 75.984375 
z
" id="DejaVuSans-102"/>
    <path d="M 41.109375 46.296875 
Q 39.59375 47.171875 37.8125 47.578125 
Q 36.03125 48 33.890625 48 
Q 26.265625 48 22.1875 43.046875 
Q 18.109375 38.09375 18.109375 28.8125 
L 18.109375 0 
L 9.078125 0 
L 9.078125 54.6875 
L 18.109375 54.6875 
L 18.109375 46.1875 
Q 20.953125 51.171875 25.484375 53.578125 
Q 30.03125 56 36.53125 56 
Q 37.453125 56 38.578125 55.875 
Q 39.703125 55.765625 41.0625 55.515625 
z
" id="DejaVuSans-114"/>
    <path d="M 54.890625 33.015625 
L 54.890625 0 
L 45.90625 0 
L 45.90625 32.71875 
Q 45.90625 40.484375 42.875 44.328125 
Q 39.84375 48.1875 33.796875 48.1875 
Q 26.515625 48.1875 22.3125 43.546875 
Q 18.109375 38.921875 18.109375 30.90625 
L 18.109375 0 
L 9.078125 0 
L 9.078125 75.984375 
L 18.109375 75.984375 
L 18.109375 46.1875 
Q 21.34375 51.125 25.703125 53.5625 
Q 30.078125 56 35.796875 56 
Q 45.21875 56 50.046875 50.171875 
Q 54.890625 44.34375 54.890625 33.015625 
z
" id="DejaVuSans-104"/>
    <path d="M 9.078125 75.984375 
L 18.109375 75.984375 
L 18.109375 31.109375 
L 44.921875 54.6875 
L 56.390625 54.6875 
L 27.390625 29.109375 
L 57.625 0 
L 45.90625 0 
L 18.109375 26.703125 
L 18.109375 0 
L 9.078125 0 
z
" id="DejaVuSans-107"/>
    <path d="M 9.421875 54.6875 
L 18.40625 54.6875 
L 18.40625 0 
L 9.421875 0 
z
M 9.421875 75.984375 
L 18.40625 75.984375 
L 18.40625 64.59375 
L 9.421875 64.59375 
z
" id="DejaVuSans-105"/>
    <path d="M 45.40625 27.984375 
Q 45.40625 37.75 41.375 43.109375 
Q 37.359375 48.484375 30.078125 48.484375 
Q 22.859375 48.484375 18.828125 43.109375 
Q 14.796875 37.75 14.796875 27.984375 
Q 14.796875 18.265625 18.828125 12.890625 
Q 22.859375 7.515625 30.078125 7.515625 
Q 37.359375 7.515625 41.375 12.890625 
Q 45.40625 18.265625 45.40625 27.984375 
z
M 54.390625 6.78125 
Q 54.390625 -7.171875 48.1875 -13.984375 
Q 42 -20.796875 29.203125 -20.796875 
Q 24.46875 -20.796875 20.265625 -20.09375 
Q 16.0625 -19.390625 12.109375 -17.921875 
L 12.109375 -9.1875 
Q 16.0625 -11.328125 19.921875 -12.34375 
Q 23.78125 -13.375 27.78125 -13.375 
Q 36.625 -13.375 41.015625 -8.765625 
Q 45.40625 -4.15625 45.40625 5.171875 
L 45.40625 9.625 
Q 42.625 4.78125 38.28125 2.390625 
Q 33.9375 0 27.875 0 
Q 17.828125 0 11.671875 7.65625 
Q 5.515625 15.328125 5.515625 27.984375 
Q 5.515625 40.671875 11.671875 48.328125 
Q 17.828125 56 27.875 56 
Q 33.9375 56 38.28125 53.609375 
Q 42.625 51.21875 45.40625 46.390625 
L 45.40625 54.6875 
L 54.390625 54.6875 
z
" id="DejaVuSans-103"/>
    <path d="M 18.109375 8.203125 
L 18.109375 -20.796875 
L 9.078125 -20.796875 
L 9.078125 54.6875 
L 18.109375 54.6875 
L 18.109375 46.390625 
Q 20.953125 51.265625 25.265625 53.625 
Q 29.59375 56 35.59375 56 
Q 45.5625 56 51.78125 48.09375 
Q 58.015625 40.1875 58.015625 27.296875 
Q 58.015625 14.40625 51.78125 6.484375 
Q 45.5625 -1.421875 35.59375 -1.421875 
Q 29.59375 -1.421875 25.265625 0.953125 
Q 20.953125 3.328125 18.109375 8.203125 
z
M 48.6875 27.296875 
Q 48.6875 37.203125 44.609375 42.84375 
Q 40.53125 48.484375 33.40625 48.484375 
Q 26.265625 48.484375 22.1875 42.84375 
Q 18.109375 37.203125 18.109375 27.296875 
Q 18.109375 17.390625 22.1875 11.75 
Q 26.265625 6.109375 33.40625 6.109375 
Q 40.53125 6.109375 44.609375 11.75 
Q 48.6875 17.390625 48.6875 27.296875 
z
" id="DejaVuSans-112"/>
    <path d="M 48.6875 27.296875 
Q 48.6875 37.203125 44.609375 42.84375 
Q 40.53125 48.484375 33.40625 48.484375 
Q 26.265625 48.484375 22.1875 42.84375 
Q 18.109375 37.203125 18.109375 27.296875 
Q 18.109375 17.390625 22.1875 11.75 
Q 26.265625 6.109375 33.40625 6.109375 
Q 40.53125 6.109375 44.609375 11.75 
Q 48.6875 17.390625 48.6875 27.296875 
z
M 18.109375 46.390625 
Q 20.953125 51.265625 25.265625 53.625 
Q 29.59375 56 35.59375 56 
Q 45.5625 56 51.78125 48.09375 
Q 58.015625 40.1875 58.015625 27.296875 
Q 58.015625 14.40625 51.78125 6.484375 
Q 45.5625 -1.421875 35.59375 -1.421875 
Q 29.59375 -1.421875 25.265625 0.953125 
Q 20.953125 3.328125 18.109375 8.203125 
L 18.109375 0 
L 9.078125 0 
L 9.078125 75.984375 
L 18.109375 75.984375 
z
" id="DejaVuSans-98"/>
   </defs>
   <g transform="translate(277.641719 17.837813)scale(0.14 -0.14)">
    <use xlink:href="#DejaVuSans-71"/>
    <use x="77.490234" xlink:href="#DejaVuSans-70"/>
    <use x="135.009766" xlink:href="#DejaVuSans-73"/>
    <use x="164.501953" xlink:href="#DejaVuSans-32"/>
    <use x="196.289062" xlink:href="#DejaVuSans-102"/>
    <use x="231.494141" xlink:href="#DejaVuSans-111"/>
    <use x="292.675781" xlink:href="#DejaVuSans-114"/>
    <use x="333.789062" xlink:href="#DejaVuSans-32"/>
    <use x="365.576172" xlink:href="#DejaVuSans-99"/>
    <use x="420.556641" xlink:href="#DejaVuSans-104"/>
    <use x="483.935547" xlink:href="#DejaVuSans-117"/>
    <use x="547.314453" xlink:href="#DejaVuSans-110"/>
    <use x="610.693359" xlink:href="#DejaVuSans-107"/>
    <use x="668.603516" xlink:href="#DejaVuSans-115"/>
    <use x="720.703125" xlink:href="#DejaVuSans-32"/>
    <use x="752.490234" xlink:href="#DejaVuSans-111"/>
    <use x="813.671875" xlink:href="#DejaVuSans-102"/>
    <use x="848.876953" xlink:href="#DejaVuSans-32"/>
    <use x="880.664062" xlink:href="#DejaVuSans-115"/>
    <use x="932.763672" xlink:href="#DejaVuSans-105"/>
    <use x="960.546875" xlink:href="#DejaVuSans-122"/>
    <use x="1013.037109" xlink:href="#DejaVuSans-101"/>
    <use x="1074.560547" xlink:href="#DejaVuSans-32"/>
    <use x="1106.347656" xlink:href="#DejaVuSans-50"/>
    <use x="1169.970703" xlink:href="#DejaVuSans-48"/>
    <use x="1233.59375" xlink:href="#DejaVuSans-32"/>
    <use x="1265.380859" xlink:href="#DejaVuSans-103"/>
    <use x="1328.857422" xlink:href="#DejaVuSans-114"/>
    <use x="1369.939453" xlink:href="#DejaVuSans-111"/>
    <use x="1431.121094" xlink:href="#DejaVuSans-117"/>
    <use x="1494.5" xlink:href="#DejaVuSans-112"/>
    <use x="1557.976562" xlink:href="#DejaVuSans-101"/>
    <use x="1619.5" xlink:href="#DejaVuSans-100"/>
    <use x="1682.976562" xlink:href="#DejaVuSans-32"/>
    <use x="1714.763672" xlink:href="#DejaVuSans-98"/>
    <use x="1778.240234" xlink:href="#DejaVuSans-121"/>
    <use x="1837.419922" xlink:href="#DejaVuSans-32"/>
    <use x="1869.207031" xlink:href="#DejaVuSans-100"/>
    <use x="1932.683594" xlink:href="#DejaVuSans-111"/>
    <use x="1993.865234" xlink:href="#DejaVuSans-99"/>
    <use x="2048.845703" xlink:href="#DejaVuSans-117"/>
    <use x="2112.224609" xlink:href="#DejaVuSans-109"/>
    <use x="2209.636719" xlink:href="#DejaVuSans-101"/>
    <use x="2271.160156" xlink:href="#DejaVuSans-110"/>
    <use x="2334.539062" xlink:href="#DejaVuSans-116"/>
   </g>
  </g>
 </g>
 <defs>
  <clipPath id="p1e8d43f386">
   <rect height="378" width="806.4" x="40.603125" y="47.52"/>
  </clipPath>
 </defs>
</svg>
