<?xml version="1.0" encoding="utf-8" standalone="no"?>
<!DOCTYPE svg PUBLIC "-//W3C//DTD SVG 1.1//EN"
  "http://www.w3.org/Graphics/SVG/1.1/DTD/svg11.dtd">
<!-- Created with matplotlib (http://matplotlib.org/) -->
<svg height="504pt" version="1.1" viewBox="0 0 1008 504" width="1008pt" xmlns="http://www.w3.org/2000/svg" xmlns:xlink="http://www.w3.org/1999/xlink">
 <defs>
  <style type="text/css">
*{stroke-linecap:butt;stroke-linejoin:round;}
  </style>
 </defs>
 <g id="figure_1">
  <g id="patch_1">
   <path d="M 0 504 
L 1008 504 
L 1008 0 
L 0 0 
z
" style="fill:#ffffff;"/>
  </g>
  <g id="axes_1">
   <g id="patch_2">
    <path d="M 126 448.56 
L 907.2 448.56 
L 907.2 60.48 
L 126 60.48 
z
" style="fill:#ffffff;"/>
   </g>
   <g id="matplotlib.axis_1">
    <g id="xtick_1">
     <g id="line2d_1">
      <defs>
       <path d="M 0 0 
L 0 3.5 
" id="m532efffb58" style="stroke:#000000;stroke-width:0.8;"/>
      </defs>
      <g>
       <use style="stroke:#000000;stroke-width:0.8;" x="154.111364" xlink:href="#m532efffb58" y="448.56"/>
      </g>
     </g>
     <g id="text_1">
      <!-- 0 -->
      <defs>
       <path d="M 31.78125 66.40625 
Q 24.171875 66.40625 20.328125 58.90625 
Q 16.5 51.421875 16.5 36.375 
Q 16.5 21.390625 20.328125 13.890625 
Q 24.171875 6.390625 31.78125 6.390625 
Q 39.453125 6.390625 43.28125 13.890625 
Q 47.125 21.390625 47.125 36.375 
Q 47.125 51.421875 43.28125 58.90625 
Q 39.453125 66.40625 31.78125 66.40625 
z
M 31.78125 74.21875 
Q 44.046875 74.21875 50.515625 64.515625 
Q 56.984375 54.828125 56.984375 36.375 
Q 56.984375 17.96875 50.515625 8.265625 
Q 44.046875 -1.421875 31.78125 -1.421875 
Q 19.53125 -1.421875 13.0625 8.265625 
Q 6.59375 17.96875 6.59375 36.375 
Q 6.59375 54.828125 13.0625 64.515625 
Q 19.53125 74.21875 31.78125 74.21875 
z
" id="DejaVuSans-30"/>
      </defs>
      <g transform="translate(150.930114 463.158437)scale(0.1 -0.1)">
       <use xlink:href="#DejaVuSans-30"/>
      </g>
     </g>
    </g>
    <g id="xtick_2">
     <g id="line2d_2">
      <g>
       <use style="stroke:#000000;stroke-width:0.8;" x="297.627273" xlink:href="#m532efffb58" y="448.56"/>
      </g>
     </g>
     <g id="text_2">
      <!-- 20 -->
      <defs>
       <path d="M 19.1875 8.296875 
L 53.609375 8.296875 
L 53.609375 0 
L 7.328125 0 
L 7.328125 8.296875 
Q 12.9375 14.109375 22.625 23.890625 
Q 32.328125 33.6875 34.8125 36.53125 
Q 39.546875 41.84375 41.421875 45.53125 
Q 43.3125 49.21875 43.3125 52.78125 
Q 43.3125 58.59375 39.234375 62.25 
Q 35.15625 65.921875 28.609375 65.921875 
Q 23.96875 65.921875 18.8125 64.3125 
Q 13.671875 62.703125 7.8125 59.421875 
L 7.8125 69.390625 
Q 13.765625 71.78125 18.9375 73 
Q 24.125 74.21875 28.421875 74.21875 
Q 39.75 74.21875 46.484375 68.546875 
Q 53.21875 62.890625 53.21875 53.421875 
Q 53.21875 48.921875 51.53125 44.890625 
Q 49.859375 40.875 45.40625 35.40625 
Q 44.1875 33.984375 37.640625 27.21875 
Q 31.109375 20.453125 19.1875 8.296875 
z
" id="DejaVuSans-32"/>
      </defs>
      <g transform="translate(291.264773 463.158437)scale(0.1 -0.1)">
       <use xlink:href="#DejaVuSans-32"/>
       <use x="63.623047" xlink:href="#DejaVuSans-30"/>
      </g>
     </g>
    </g>
    <g id="xtick_3">
     <g id="line2d_3">
      <g>
       <use style="stroke:#000000;stroke-width:0.8;" x="441.143182" xlink:href="#m532efffb58" y="448.56"/>
      </g>
     </g>
     <g id="text_3">
      <!-- 40 -->
      <defs>
       <path d="M 37.796875 64.3125 
L 12.890625 25.390625 
L 37.796875 25.390625 
z
M 35.203125 72.90625 
L 47.609375 72.90625 
L 47.609375 25.390625 
L 58.015625 25.390625 
L 58.015625 17.1875 
L 47.609375 17.1875 
L 47.609375 0 
L 37.796875 0 
L 37.796875 17.1875 
L 4.890625 17.1875 
L 4.890625 26.703125 
z
" id="DejaVuSans-34"/>
      </defs>
      <g transform="translate(434.780682 463.158437)scale(0.1 -0.1)">
       <use xlink:href="#DejaVuSans-34"/>
       <use x="63.623047" xlink:href="#DejaVuSans-30"/>
      </g>
     </g>
    </g>
    <g id="xtick_4">
     <g id="line2d_4">
      <g>
       <use style="stroke:#000000;stroke-width:0.8;" x="584.659091" xlink:href="#m532efffb58" y="448.56"/>
      </g>
     </g>
     <g id="text_4">
      <!-- 60 -->
      <defs>
       <path d="M 33.015625 40.375 
Q 26.375 40.375 22.484375 35.828125 
Q 18.609375 31.296875 18.609375 23.390625 
Q 18.609375 15.53125 22.484375 10.953125 
Q 26.375 6.390625 33.015625 6.390625 
Q 39.65625 6.390625 43.53125 10.953125 
Q 47.40625 15.53125 47.40625 23.390625 
Q 47.40625 31.296875 43.53125 35.828125 
Q 39.65625 40.375 33.015625 40.375 
z
M 52.59375 71.296875 
L 52.59375 62.3125 
Q 48.875 64.0625 45.09375 64.984375 
Q 41.3125 65.921875 37.59375 65.921875 
Q 27.828125 65.921875 22.671875 59.328125 
Q 17.53125 52.734375 16.796875 39.40625 
Q 19.671875 43.65625 24.015625 45.921875 
Q 28.375 48.1875 33.59375 48.1875 
Q 44.578125 48.1875 50.953125 41.515625 
Q 57.328125 34.859375 57.328125 23.390625 
Q 57.328125 12.15625 50.6875 5.359375 
Q 44.046875 -1.421875 33.015625 -1.421875 
Q 20.359375 -1.421875 13.671875 8.265625 
Q 6.984375 17.96875 6.984375 36.375 
Q 6.984375 53.65625 15.1875 63.9375 
Q 23.390625 74.21875 37.203125 74.21875 
Q 40.921875 74.21875 44.703125 73.484375 
Q 48.484375 72.75 52.59375 71.296875 
z
" id="DejaVuSans-36"/>
      </defs>
      <g transform="translate(578.296591 463.158437)scale(0.1 -0.1)">
       <use xlink:href="#DejaVuSans-36"/>
       <use x="63.623047" xlink:href="#DejaVuSans-30"/>
      </g>
     </g>
    </g>
    <g id="xtick_5">
     <g id="line2d_5">
      <g>
       <use style="stroke:#000000;stroke-width:0.8;" x="728.175" xlink:href="#m532efffb58" y="448.56"/>
      </g>
     </g>
     <g id="text_5">
      <!-- 80 -->
      <defs>
       <path d="M 31.78125 34.625 
Q 24.75 34.625 20.71875 30.859375 
Q 16.703125 27.09375 16.703125 20.515625 
Q 16.703125 13.921875 20.71875 10.15625 
Q 24.75 6.390625 31.78125 6.390625 
Q 38.8125 6.390625 42.859375 10.171875 
Q 46.921875 13.96875 46.921875 20.515625 
Q 46.921875 27.09375 42.890625 30.859375 
Q 38.875 34.625 31.78125 34.625 
z
M 21.921875 38.8125 
Q 15.578125 40.375 12.03125 44.71875 
Q 8.5 49.078125 8.5 55.328125 
Q 8.5 64.0625 14.71875 69.140625 
Q 20.953125 74.21875 31.78125 74.21875 
Q 42.671875 74.21875 48.875 69.140625 
Q 55.078125 64.0625 55.078125 55.328125 
Q 55.078125 49.078125 51.53125 44.71875 
Q 48 40.375 41.703125 38.8125 
Q 48.828125 37.15625 52.796875 32.3125 
Q 56.78125 27.484375 56.78125 20.515625 
Q 56.78125 9.90625 50.3125 4.234375 
Q 43.84375 -1.421875 31.78125 -1.421875 
Q 19.734375 -1.421875 13.25 4.234375 
Q 6.78125 9.90625 6.78125 20.515625 
Q 6.78125 27.484375 10.78125 32.3125 
Q 14.796875 37.15625 21.921875 38.8125 
z
M 18.3125 54.390625 
Q 18.3125 48.734375 21.84375 45.5625 
Q 25.390625 42.390625 31.78125 42.390625 
Q 38.140625 42.390625 41.71875 45.5625 
Q 45.3125 48.734375 45.3125 54.390625 
Q 45.3125 60.0625 41.71875 63.234375 
Q 38.140625 66.40625 31.78125 66.40625 
Q 25.390625 66.40625 21.84375 63.234375 
Q 18.3125 60.0625 18.3125 54.390625 
z
" id="DejaVuSans-38"/>
      </defs>
      <g transform="translate(721.8125 463.158437)scale(0.1 -0.1)">
       <use xlink:href="#DejaVuSans-38"/>
       <use x="63.623047" xlink:href="#DejaVuSans-30"/>
      </g>
     </g>
    </g>
    <g id="xtick_6">
     <g id="line2d_6">
      <g>
       <use style="stroke:#000000;stroke-width:0.8;" x="871.690909" xlink:href="#m532efffb58" y="448.56"/>
      </g>
     </g>
     <g id="text_6">
      <!-- 100 -->
      <defs>
       <path d="M 12.40625 8.296875 
L 28.515625 8.296875 
L 28.515625 63.921875 
L 10.984375 60.40625 
L 10.984375 69.390625 
L 28.421875 72.90625 
L 38.28125 72.90625 
L 38.28125 8.296875 
L 54.390625 8.296875 
L 54.390625 0 
L 12.40625 0 
z
" id="DejaVuSans-31"/>
      </defs>
      <g transform="translate(862.147159 463.158437)scale(0.1 -0.1)">
       <use xlink:href="#DejaVuSans-31"/>
       <use x="63.623047" xlink:href="#DejaVuSans-30"/>
       <use x="127.246094" xlink:href="#DejaVuSans-30"/>
      </g>
     </g>
    </g>
    <g id="text_7">
     <!-- document's percentage of the chunk's end -->
     <defs>
      <path d="M 45.40625 46.390625 
L 45.40625 75.984375 
L 54.390625 75.984375 
L 54.390625 0 
L 45.40625 0 
L 45.40625 8.203125 
Q 42.578125 3.328125 38.25 0.953125 
Q 33.9375 -1.421875 27.875 -1.421875 
Q 17.96875 -1.421875 11.734375 6.484375 
Q 5.515625 14.40625 5.515625 27.296875 
Q 5.515625 40.1875 11.734375 48.09375 
Q 17.96875 56 27.875 56 
Q 33.9375 56 38.25 53.625 
Q 42.578125 51.265625 45.40625 46.390625 
z
M 14.796875 27.296875 
Q 14.796875 17.390625 18.875 11.75 
Q 22.953125 6.109375 30.078125 6.109375 
Q 37.203125 6.109375 41.296875 11.75 
Q 45.40625 17.390625 45.40625 27.296875 
Q 45.40625 37.203125 41.296875 42.84375 
Q 37.203125 48.484375 30.078125 48.484375 
Q 22.953125 48.484375 18.875 42.84375 
Q 14.796875 37.203125 14.796875 27.296875 
z
" id="DejaVuSans-64"/>
      <path d="M 30.609375 48.390625 
Q 23.390625 48.390625 19.1875 42.75 
Q 14.984375 37.109375 14.984375 27.296875 
Q 14.984375 17.484375 19.15625 11.84375 
Q 23.34375 6.203125 30.609375 6.203125 
Q 37.796875 6.203125 41.984375 11.859375 
Q 46.1875 17.53125 46.1875 27.296875 
Q 46.1875 37.015625 41.984375 42.703125 
Q 37.796875 48.390625 30.609375 48.390625 
z
M 30.609375 56 
Q 42.328125 56 49.015625 48.375 
Q 55.71875 40.765625 55.71875 27.296875 
Q 55.71875 13.875 49.015625 6.21875 
Q 42.328125 -1.421875 30.609375 -1.421875 
Q 18.84375 -1.421875 12.171875 6.21875 
Q 5.515625 13.875 5.515625 27.296875 
Q 5.515625 40.765625 12.171875 48.375 
Q 18.84375 56 30.609375 56 
z
" id="DejaVuSans-6f"/>
      <path d="M 48.78125 52.59375 
L 48.78125 44.1875 
Q 44.96875 46.296875 41.140625 47.34375 
Q 37.3125 48.390625 33.40625 48.390625 
Q 24.65625 48.390625 19.8125 42.84375 
Q 14.984375 37.3125 14.984375 27.296875 
Q 14.984375 17.28125 19.8125 11.734375 
Q 24.65625 6.203125 33.40625 6.203125 
Q 37.3125 6.203125 41.140625 7.25 
Q 44.96875 8.296875 48.78125 10.40625 
L 48.78125 2.09375 
Q 45.015625 0.34375 40.984375 -0.53125 
Q 36.96875 -1.421875 32.421875 -1.421875 
Q 20.0625 -1.421875 12.78125 6.34375 
Q 5.515625 14.109375 5.515625 27.296875 
Q 5.515625 40.671875 12.859375 48.328125 
Q 20.21875 56 33.015625 56 
Q 37.15625 56 41.109375 55.140625 
Q 45.0625 54.296875 48.78125 52.59375 
z
" id="DejaVuSans-63"/>
      <path d="M 8.5 21.578125 
L 8.5 54.6875 
L 17.484375 54.6875 
L 17.484375 21.921875 
Q 17.484375 14.15625 20.5 10.265625 
Q 23.53125 6.390625 29.59375 6.390625 
Q 36.859375 6.390625 41.078125 11.03125 
Q 45.3125 15.671875 45.3125 23.6875 
L 45.3125 54.6875 
L 54.296875 54.6875 
L 54.296875 0 
L 45.3125 0 
L 45.3125 8.40625 
Q 42.046875 3.421875 37.71875 1 
Q 33.40625 -1.421875 27.6875 -1.421875 
Q 18.265625 -1.421875 13.375 4.4375 
Q 8.5 10.296875 8.5 21.578125 
z
M 31.109375 56 
z
" id="DejaVuSans-75"/>
      <path d="M 52 44.1875 
Q 55.375 50.25 60.0625 53.125 
Q 64.75 56 71.09375 56 
Q 79.640625 56 84.28125 50.015625 
Q 88.921875 44.046875 88.921875 33.015625 
L 88.921875 0 
L 79.890625 0 
L 79.890625 32.71875 
Q 79.890625 40.578125 77.09375 44.375 
Q 74.3125 48.1875 68.609375 48.1875 
Q 61.625 48.1875 57.5625 43.546875 
Q 53.515625 38.921875 53.515625 30.90625 
L 53.515625 0 
L 44.484375 0 
L 44.484375 32.71875 
Q 44.484375 40.625 41.703125 44.40625 
Q 38.921875 48.1875 33.109375 48.1875 
Q 26.21875 48.1875 22.15625 43.53125 
Q 18.109375 38.875 18.109375 30.90625 
L 18.109375 0 
L 9.078125 0 
L 9.078125 54.6875 
L 18.109375 54.6875 
L 18.109375 46.1875 
Q 21.1875 51.21875 25.484375 53.609375 
Q 29.78125 56 35.6875 56 
Q 41.65625 56 45.828125 52.96875 
Q 50 49.953125 52 44.1875 
z
" id="DejaVuSans-6d"/>
      <path d="M 56.203125 29.59375 
L 56.203125 25.203125 
L 14.890625 25.203125 
Q 15.484375 15.921875 20.484375 11.0625 
Q 25.484375 6.203125 34.421875 6.203125 
Q 39.59375 6.203125 44.453125 7.46875 
Q 49.3125 8.734375 54.109375 11.28125 
L 54.109375 2.78125 
Q 49.265625 0.734375 44.1875 -0.34375 
Q 39.109375 -1.421875 33.890625 -1.421875 
Q 20.796875 -1.421875 13.15625 6.1875 
Q 5.515625 13.8125 5.515625 26.8125 
Q 5.515625 40.234375 12.765625 48.109375 
Q 20.015625 56 32.328125 56 
Q 43.359375 56 49.78125 48.890625 
Q 56.203125 41.796875 56.203125 29.59375 
z
M 47.21875 32.234375 
Q 47.125 39.59375 43.09375 43.984375 
Q 39.0625 48.390625 32.421875 48.390625 
Q 24.90625 48.390625 20.390625 44.140625 
Q 15.875 39.890625 15.1875 32.171875 
z
" id="DejaVuSans-65"/>
      <path d="M 54.890625 33.015625 
L 54.890625 0 
L 45.90625 0 
L 45.90625 32.71875 
Q 45.90625 40.484375 42.875 44.328125 
Q 39.84375 48.1875 33.796875 48.1875 
Q 26.515625 48.1875 22.3125 43.546875 
Q 18.109375 38.921875 18.109375 30.90625 
L 18.109375 0 
L 9.078125 0 
L 9.078125 54.6875 
L 18.109375 54.6875 
L 18.109375 46.1875 
Q 21.34375 51.125 25.703125 53.5625 
Q 30.078125 56 35.796875 56 
Q 45.21875 56 50.046875 50.171875 
Q 54.890625 44.34375 54.890625 33.015625 
z
" id="DejaVuSans-6e"/>
      <path d="M 18.3125 70.21875 
L 18.3125 54.6875 
L 36.8125 54.6875 
L 36.8125 47.703125 
L 18.3125 47.703125 
L 18.3125 18.015625 
Q 18.3125 11.328125 20.140625 9.421875 
Q 21.96875 7.515625 27.59375 7.515625 
L 36.8125 7.515625 
L 36.8125 0 
L 27.59375 0 
Q 17.1875 0 13.234375 3.875 
Q 9.28125 7.765625 9.28125 18.015625 
L 9.28125 47.703125 
L 2.6875 47.703125 
L 2.6875 54.6875 
L 9.28125 54.6875 
L 9.28125 70.21875 
z
" id="DejaVuSans-74"/>
      <path d="M 17.921875 72.90625 
L 17.921875 45.796875 
L 9.625 45.796875 
L 9.625 72.90625 
z
" id="DejaVuSans-27"/>
      <path d="M 44.28125 53.078125 
L 44.28125 44.578125 
Q 40.484375 46.53125 36.375 47.5 
Q 32.28125 48.484375 27.875 48.484375 
Q 21.1875 48.484375 17.84375 46.4375 
Q 14.5 44.390625 14.5 40.28125 
Q 14.5 37.15625 16.890625 35.375 
Q 19.28125 33.59375 26.515625 31.984375 
L 29.59375 31.296875 
Q 39.15625 29.25 43.1875 25.515625 
Q 47.21875 21.78125 47.21875 15.09375 
Q 47.21875 7.46875 41.1875 3.015625 
Q 35.15625 -1.421875 24.609375 -1.421875 
Q 20.21875 -1.421875 15.453125 -0.5625 
Q 10.6875 0.296875 5.421875 2 
L 5.421875 11.28125 
Q 10.40625 8.6875 15.234375 7.390625 
Q 20.0625 6.109375 24.8125 6.109375 
Q 31.15625 6.109375 34.5625 8.28125 
Q 37.984375 10.453125 37.984375 14.40625 
Q 37.984375 18.0625 35.515625 20.015625 
Q 33.0625 21.96875 24.703125 23.78125 
L 21.578125 24.515625 
Q 13.234375 26.265625 9.515625 29.90625 
Q 5.8125 33.546875 5.8125 39.890625 
Q 5.8125 47.609375 11.28125 51.796875 
Q 16.75 56 26.8125 56 
Q 31.78125 56 36.171875 55.265625 
Q 40.578125 54.546875 44.28125 53.078125 
z
" id="DejaVuSans-73"/>
      <path id="DejaVuSans-20"/>
      <path d="M 18.109375 8.203125 
L 18.109375 -20.796875 
L 9.078125 -20.796875 
L 9.078125 54.6875 
L 18.109375 54.6875 
L 18.109375 46.390625 
Q 20.953125 51.265625 25.265625 53.625 
Q 29.59375 56 35.59375 56 
Q 45.5625 56 51.78125 48.09375 
Q 58.015625 40.1875 58.015625 27.296875 
Q 58.015625 14.40625 51.78125 6.484375 
Q 45.5625 -1.421875 35.59375 -1.421875 
Q 29.59375 -1.421875 25.265625 0.953125 
Q 20.953125 3.328125 18.109375 8.203125 
z
M 48.6875 27.296875 
Q 48.6875 37.203125 44.609375 42.84375 
Q 40.53125 48.484375 33.40625 48.484375 
Q 26.265625 48.484375 22.1875 42.84375 
Q 18.109375 37.203125 18.109375 27.296875 
Q 18.109375 17.390625 22.1875 11.75 
Q 26.265625 6.109375 33.40625 6.109375 
Q 40.53125 6.109375 44.609375 11.75 
Q 48.6875 17.390625 48.6875 27.296875 
z
" id="DejaVuSans-70"/>
      <path d="M 41.109375 46.296875 
Q 39.59375 47.171875 37.8125 47.578125 
Q 36.03125 48 33.890625 48 
Q 26.265625 48 22.1875 43.046875 
Q 18.109375 38.09375 18.109375 28.8125 
L 18.109375 0 
L 9.078125 0 
L 9.078125 54.6875 
L 18.109375 54.6875 
L 18.109375 46.1875 
Q 20.953125 51.171875 25.484375 53.578125 
Q 30.03125 56 36.53125 56 
Q 37.453125 56 38.578125 55.875 
Q 39.703125 55.765625 41.0625 55.515625 
z
" id="DejaVuSans-72"/>
      <path d="M 34.28125 27.484375 
Q 23.390625 27.484375 19.1875 25 
Q 14.984375 22.515625 14.984375 16.5 
Q 14.984375 11.71875 18.140625 8.90625 
Q 21.296875 6.109375 26.703125 6.109375 
Q 34.1875 6.109375 38.703125 11.40625 
Q 43.21875 16.703125 43.21875 25.484375 
L 43.21875 27.484375 
z
M 52.203125 31.203125 
L 52.203125 0 
L 43.21875 0 
L 43.21875 8.296875 
Q 40.140625 3.328125 35.546875 0.953125 
Q 30.953125 -1.421875 24.3125 -1.421875 
Q 15.921875 -1.421875 10.953125 3.296875 
Q 6 8.015625 6 15.921875 
Q 6 25.140625 12.171875 29.828125 
Q 18.359375 34.515625 30.609375 34.515625 
L 43.21875 34.515625 
L 43.21875 35.40625 
Q 43.21875 41.609375 39.140625 45 
Q 35.0625 48.390625 27.6875 48.390625 
Q 23 48.390625 18.546875 47.265625 
Q 14.109375 46.140625 10.015625 43.890625 
L 10.015625 52.203125 
Q 14.9375 54.109375 19.578125 55.046875 
Q 24.21875 56 28.609375 56 
Q 40.484375 56 46.34375 49.84375 
Q 52.203125 43.703125 52.203125 31.203125 
z
" id="DejaVuSans-61"/>
      <path d="M 45.40625 27.984375 
Q 45.40625 37.75 41.375 43.109375 
Q 37.359375 48.484375 30.078125 48.484375 
Q 22.859375 48.484375 18.828125 43.109375 
Q 14.796875 37.75 14.796875 27.984375 
Q 14.796875 18.265625 18.828125 12.890625 
Q 22.859375 7.515625 30.078125 7.515625 
Q 37.359375 7.515625 41.375 12.890625 
Q 45.40625 18.265625 45.40625 27.984375 
z
M 54.390625 6.78125 
Q 54.390625 -7.171875 48.1875 -13.984375 
Q 42 -20.796875 29.203125 -20.796875 
Q 24.46875 -20.796875 20.265625 -20.09375 
Q 16.0625 -19.390625 12.109375 -17.921875 
L 12.109375 -9.1875 
Q 16.0625 -11.328125 19.921875 -12.34375 
Q 23.78125 -13.375 27.78125 -13.375 
Q 36.625 -13.375 41.015625 -8.765625 
Q 45.40625 -4.15625 45.40625 5.171875 
L 45.40625 9.625 
Q 42.625 4.78125 38.28125 2.390625 
Q 33.9375 0 27.875 0 
Q 17.828125 0 11.671875 7.65625 
Q 5.515625 15.328125 5.515625 27.984375 
Q 5.515625 40.671875 11.671875 48.328125 
Q 17.828125 56 27.875 56 
Q 33.9375 56 38.28125 53.609375 
Q 42.625 51.21875 45.40625 46.390625 
L 45.40625 54.6875 
L 54.390625 54.6875 
z
" id="DejaVuSans-67"/>
      <path d="M 37.109375 75.984375 
L 37.109375 68.5 
L 28.515625 68.5 
Q 23.6875 68.5 21.796875 66.546875 
Q 19.921875 64.59375 19.921875 59.515625 
L 19.921875 54.6875 
L 34.71875 54.6875 
L 34.71875 47.703125 
L 19.921875 47.703125 
L 19.921875 0 
L 10.890625 0 
L 10.890625 47.703125 
L 2.296875 47.703125 
L 2.296875 54.6875 
L 10.890625 54.6875 
L 10.890625 58.5 
Q 10.890625 67.625 15.140625 71.796875 
Q 19.390625 75.984375 28.609375 75.984375 
z
" id="DejaVuSans-66"/>
      <path d="M 54.890625 33.015625 
L 54.890625 0 
L 45.90625 0 
L 45.90625 32.71875 
Q 45.90625 40.484375 42.875 44.328125 
Q 39.84375 48.1875 33.796875 48.1875 
Q 26.515625 48.1875 22.3125 43.546875 
Q 18.109375 38.921875 18.109375 30.90625 
L 18.109375 0 
L 9.078125 0 
L 9.078125 75.984375 
L 18.109375 75.984375 
L 18.109375 46.1875 
Q 21.34375 51.125 25.703125 53.5625 
Q 30.078125 56 35.796875 56 
Q 45.21875 56 50.046875 50.171875 
Q 54.890625 44.34375 54.890625 33.015625 
z
" id="DejaVuSans-68"/>
      <path d="M 9.078125 75.984375 
L 18.109375 75.984375 
L 18.109375 31.109375 
L 44.921875 54.6875 
L 56.390625 54.6875 
L 27.390625 29.109375 
L 57.625 0 
L 45.90625 0 
L 18.109375 26.703125 
L 18.109375 0 
L 9.078125 0 
z
" id="DejaVuSans-6b"/>
     </defs>
     <g transform="translate(409.3 476.836563)scale(0.1 -0.1)">
      <use xlink:href="#DejaVuSans-64"/>
      <use x="63.476562" xlink:href="#DejaVuSans-6f"/>
      <use x="124.658203" xlink:href="#DejaVuSans-63"/>
      <use x="179.638672" xlink:href="#DejaVuSans-75"/>
      <use x="243.017578" xlink:href="#DejaVuSans-6d"/>
      <use x="340.429688" xlink:href="#DejaVuSans-65"/>
      <use x="401.953125" xlink:href="#DejaVuSans-6e"/>
      <use x="465.332031" xlink:href="#DejaVuSans-74"/>
      <use x="504.541016" xlink:href="#DejaVuSans-27"/>
      <use x="532.03125" xlink:href="#DejaVuSans-73"/>
      <use x="584.130859" xlink:href="#DejaVuSans-20"/>
      <use x="615.917969" xlink:href="#DejaVuSans-70"/>
      <use x="679.394531" xlink:href="#DejaVuSans-65"/>
      <use x="740.917969" xlink:href="#DejaVuSans-72"/>
      <use x="782" xlink:href="#DejaVuSans-63"/>
      <use x="836.980469" xlink:href="#DejaVuSans-65"/>
      <use x="898.503906" xlink:href="#DejaVuSans-6e"/>
      <use x="961.882812" xlink:href="#DejaVuSans-74"/>
      <use x="1001.091797" xlink:href="#DejaVuSans-61"/>
      <use x="1062.371094" xlink:href="#DejaVuSans-67"/>
      <use x="1125.847656" xlink:href="#DejaVuSans-65"/>
      <use x="1187.371094" xlink:href="#DejaVuSans-20"/>
      <use x="1219.158203" xlink:href="#DejaVuSans-6f"/>
      <use x="1280.339844" xlink:href="#DejaVuSans-66"/>
      <use x="1315.544922" xlink:href="#DejaVuSans-20"/>
      <use x="1347.332031" xlink:href="#DejaVuSans-74"/>
      <use x="1386.541016" xlink:href="#DejaVuSans-68"/>
      <use x="1449.919922" xlink:href="#DejaVuSans-65"/>
      <use x="1511.443359" xlink:href="#DejaVuSans-20"/>
      <use x="1543.230469" xlink:href="#DejaVuSans-63"/>
      <use x="1598.210938" xlink:href="#DejaVuSans-68"/>
      <use x="1661.589844" xlink:href="#DejaVuSans-75"/>
      <use x="1724.96875" xlink:href="#DejaVuSans-6e"/>
      <use x="1788.347656" xlink:href="#DejaVuSans-6b"/>
      <use x="1846.257812" xlink:href="#DejaVuSans-27"/>
      <use x="1873.748047" xlink:href="#DejaVuSans-73"/>
      <use x="1925.847656" xlink:href="#DejaVuSans-20"/>
      <use x="1957.634766" xlink:href="#DejaVuSans-65"/>
      <use x="2019.158203" xlink:href="#DejaVuSans-6e"/>
      <use x="2082.537109" xlink:href="#DejaVuSans-64"/>
     </g>
    </g>
   </g>
   <g id="matplotlib.axis_2">
    <g id="ytick_1">
     <g id="line2d_7">
      <defs>
       <path d="M 0 0 
L -3.5 0 
" id="mc211ea15c2" style="stroke:#000000;stroke-width:0.8;"/>
      </defs>
      <g>
       <use style="stroke:#000000;stroke-width:0.8;" x="126" xlink:href="#mc211ea15c2" y="405.329477"/>
      </g>
     </g>
     <g id="text_8">
      <!-- 10 -->
      <g transform="translate(106.275 409.128696)scale(0.1 -0.1)">
       <use xlink:href="#DejaVuSans-31"/>
       <use x="63.623047" xlink:href="#DejaVuSans-30"/>
      </g>
     </g>
    </g>
    <g id="ytick_2">
     <g id="line2d_8">
      <g>
       <use style="stroke:#000000;stroke-width:0.8;" x="126" xlink:href="#mc211ea15c2" y="339.489911"/>
      </g>
     </g>
     <g id="text_9">
      <!-- 15 -->
      <defs>
       <path d="M 10.796875 72.90625 
L 49.515625 72.90625 
L 49.515625 64.59375 
L 19.828125 64.59375 
L 19.828125 46.734375 
Q 21.96875 47.46875 24.109375 47.828125 
Q 26.265625 48.1875 28.421875 48.1875 
Q 40.625 48.1875 47.75 41.5 
Q 54.890625 34.8125 54.890625 23.390625 
Q 54.890625 11.625 47.5625 5.09375 
Q 40.234375 -1.421875 26.90625 -1.421875 
Q 22.3125 -1.421875 17.546875 -0.640625 
Q 12.796875 0.140625 7.71875 1.703125 
L 7.71875 11.625 
Q 12.109375 9.234375 16.796875 8.0625 
Q 21.484375 6.890625 26.703125 6.890625 
Q 35.15625 6.890625 40.078125 11.328125 
Q 45.015625 15.765625 45.015625 23.390625 
Q 45.015625 31 40.078125 35.4375 
Q 35.15625 39.890625 26.703125 39.890625 
Q 22.75 39.890625 18.8125 39.015625 
Q 14.890625 38.140625 10.796875 36.28125 
z
" id="DejaVuSans-35"/>
      </defs>
      <g transform="translate(106.275 343.28913)scale(0.1 -0.1)">
       <use xlink:href="#DejaVuSans-31"/>
       <use x="63.623047" xlink:href="#DejaVuSans-35"/>
      </g>
     </g>
    </g>
    <g id="ytick_3">
     <g id="line2d_9">
      <g>
       <use style="stroke:#000000;stroke-width:0.8;" x="126" xlink:href="#mc211ea15c2" y="273.650344"/>
      </g>
     </g>
     <g id="text_10">
      <!-- 20 -->
      <g transform="translate(106.275 277.449563)scale(0.1 -0.1)">
       <use xlink:href="#DejaVuSans-32"/>
       <use x="63.623047" xlink:href="#DejaVuSans-30"/>
      </g>
     </g>
    </g>
    <g id="ytick_4">
     <g id="line2d_10">
      <g>
       <use style="stroke:#000000;stroke-width:0.8;" x="126" xlink:href="#mc211ea15c2" y="207.810778"/>
      </g>
     </g>
     <g id="text_11">
      <!-- 25 -->
      <g transform="translate(106.275 211.609997)scale(0.1 -0.1)">
       <use xlink:href="#DejaVuSans-32"/>
       <use x="63.623047" xlink:href="#DejaVuSans-35"/>
      </g>
     </g>
    </g>
    <g id="ytick_5">
     <g id="line2d_11">
      <g>
       <use style="stroke:#000000;stroke-width:0.8;" x="126" xlink:href="#mc211ea15c2" y="141.971212"/>
      </g>
     </g>
     <g id="text_12">
      <!-- 30 -->
      <defs>
       <path d="M 40.578125 39.3125 
Q 47.65625 37.796875 51.625 33 
Q 55.609375 28.21875 55.609375 21.1875 
Q 55.609375 10.40625 48.1875 4.484375 
Q 40.765625 -1.421875 27.09375 -1.421875 
Q 22.515625 -1.421875 17.65625 -0.515625 
Q 12.796875 0.390625 7.625 2.203125 
L 7.625 11.71875 
Q 11.71875 9.328125 16.59375 8.109375 
Q 21.484375 6.890625 26.8125 6.890625 
Q 36.078125 6.890625 40.9375 10.546875 
Q 45.796875 14.203125 45.796875 21.1875 
Q 45.796875 27.640625 41.28125 31.265625 
Q 36.765625 34.90625 28.71875 34.90625 
L 20.21875 34.90625 
L 20.21875 43.015625 
L 29.109375 43.015625 
Q 36.375 43.015625 40.234375 45.921875 
Q 44.09375 48.828125 44.09375 54.296875 
Q 44.09375 59.90625 40.109375 62.90625 
Q 36.140625 65.921875 28.71875 65.921875 
Q 24.65625 65.921875 20.015625 65.03125 
Q 15.375 64.15625 9.8125 62.3125 
L 9.8125 71.09375 
Q 15.4375 72.65625 20.34375 73.4375 
Q 25.25 74.21875 29.59375 74.21875 
Q 40.828125 74.21875 47.359375 69.109375 
Q 53.90625 64.015625 53.90625 55.328125 
Q 53.90625 49.265625 50.4375 45.09375 
Q 46.96875 40.921875 40.578125 39.3125 
z
" id="DejaVuSans-33"/>
      </defs>
      <g transform="translate(106.275 145.77043)scale(0.1 -0.1)">
       <use xlink:href="#DejaVuSans-33"/>
       <use x="63.623047" xlink:href="#DejaVuSans-30"/>
      </g>
     </g>
    </g>
    <g id="ytick_6">
     <g id="line2d_12">
      <g>
       <use style="stroke:#000000;stroke-width:0.8;" x="126" xlink:href="#mc211ea15c2" y="76.131645"/>
      </g>
     </g>
     <g id="text_13">
      <!-- 35 -->
      <g transform="translate(106.275 79.930864)scale(0.1 -0.1)">
       <use xlink:href="#DejaVuSans-33"/>
       <use x="63.623047" xlink:href="#DejaVuSans-35"/>
      </g>
     </g>
    </g>
    <g id="text_14">
     <!-- GFI -->
     <defs>
      <path d="M 59.515625 10.40625 
L 59.515625 29.984375 
L 43.40625 29.984375 
L 43.40625 38.09375 
L 69.28125 38.09375 
L 69.28125 6.78125 
Q 63.578125 2.734375 56.6875 0.65625 
Q 49.8125 -1.421875 42 -1.421875 
Q 24.90625 -1.421875 15.25 8.5625 
Q 5.609375 18.5625 5.609375 36.375 
Q 5.609375 54.25 15.25 64.234375 
Q 24.90625 74.21875 42 74.21875 
Q 49.125 74.21875 55.546875 72.453125 
Q 61.96875 70.703125 67.390625 67.28125 
L 67.390625 56.78125 
Q 61.921875 61.421875 55.765625 63.765625 
Q 49.609375 66.109375 42.828125 66.109375 
Q 29.4375 66.109375 22.71875 58.640625 
Q 16.015625 51.171875 16.015625 36.375 
Q 16.015625 21.625 22.71875 14.15625 
Q 29.4375 6.6875 42.828125 6.6875 
Q 48.046875 6.6875 52.140625 7.59375 
Q 56.25 8.5 59.515625 10.40625 
z
" id="DejaVuSans-47"/>
      <path d="M 9.8125 72.90625 
L 51.703125 72.90625 
L 51.703125 64.59375 
L 19.671875 64.59375 
L 19.671875 43.109375 
L 48.578125 43.109375 
L 48.578125 34.8125 
L 19.671875 34.8125 
L 19.671875 0 
L 9.8125 0 
z
" id="DejaVuSans-46"/>
      <path d="M 9.8125 72.90625 
L 19.671875 72.90625 
L 19.671875 0 
L 9.8125 0 
z
" id="DejaVuSans-49"/>
     </defs>
     <g transform="translate(100.195312 262.745)rotate(-90)scale(0.1 -0.1)">
      <use xlink:href="#DejaVuSans-47"/>
      <use x="77.490234" xlink:href="#DejaVuSans-46"/>
      <use x="135.009766" xlink:href="#DejaVuSans-49"/>
     </g>
    </g>
   </g>
   <g id="line2d_13">
    <path clip-path="url(#pd51ff57260)" d="M 196.321925 284.220228 
L 238.532487 274.605018 
L 280.743048 282.237141 
L 322.95361 272.973514 
L 365.164171 289.783672 
L 407.374733 311.041951 
L 449.585294 381.41128 
L 491.795856 355.291407 
L 534.006417 304.082709 
L 576.216979 294.890189 
L 618.42754 308.334628 
L 660.638102 302.33401 
L 702.848663 313.568874 
L 745.059225 296.508525 
L 787.269786 319.817048 
L 829.480348 318.767566 
L 871.690909 318.53581 
" style="fill:none;stroke:#acc2d9;stroke-linecap:square;stroke-width:1.5;"/>
    <defs>
     <path d="M 0 3 
C 0.795609 3 1.55874 2.683901 2.12132 2.12132 
C 2.683901 1.55874 3 0.795609 3 0 
C 3 -0.795609 2.683901 -1.55874 2.12132 -2.12132 
C 1.55874 -2.683901 0.795609 -3 0 -3 
C -0.795609 -3 -1.55874 -2.683901 -2.12132 -2.12132 
C -2.683901 -1.55874 -3 -0.795609 -3 0 
C -3 0.795609 -2.683901 1.55874 -2.12132 2.12132 
C -1.55874 2.683901 -0.795609 3 0 3 
z
" id="mba5c14882a" style="stroke:#acc2d9;"/>
    </defs>
    <g clip-path="url(#pd51ff57260)">
     <use style="fill:#acc2d9;stroke:#acc2d9;" x="196.321925" xlink:href="#mba5c14882a" y="284.220228"/>
     <use style="fill:#acc2d9;stroke:#acc2d9;" x="238.532487" xlink:href="#mba5c14882a" y="274.605018"/>
     <use style="fill:#acc2d9;stroke:#acc2d9;" x="280.743048" xlink:href="#mba5c14882a" y="282.237141"/>
     <use style="fill:#acc2d9;stroke:#acc2d9;" x="322.95361" xlink:href="#mba5c14882a" y="272.973514"/>
     <use style="fill:#acc2d9;stroke:#acc2d9;" x="365.164171" xlink:href="#mba5c14882a" y="289.783672"/>
     <use style="fill:#acc2d9;stroke:#acc2d9;" x="407.374733" xlink:href="#mba5c14882a" y="311.041951"/>
     <use style="fill:#acc2d9;stroke:#acc2d9;" x="449.585294" xlink:href="#mba5c14882a" y="381.41128"/>
     <use style="fill:#acc2d9;stroke:#acc2d9;" x="491.795856" xlink:href="#mba5c14882a" y="355.291407"/>
     <use style="fill:#acc2d9;stroke:#acc2d9;" x="534.006417" xlink:href="#mba5c14882a" y="304.082709"/>
     <use style="fill:#acc2d9;stroke:#acc2d9;" x="576.216979" xlink:href="#mba5c14882a" y="294.890189"/>
     <use style="fill:#acc2d9;stroke:#acc2d9;" x="618.42754" xlink:href="#mba5c14882a" y="308.334628"/>
     <use style="fill:#acc2d9;stroke:#acc2d9;" x="660.638102" xlink:href="#mba5c14882a" y="302.33401"/>
     <use style="fill:#acc2d9;stroke:#acc2d9;" x="702.848663" xlink:href="#mba5c14882a" y="313.568874"/>
     <use style="fill:#acc2d9;stroke:#acc2d9;" x="745.059225" xlink:href="#mba5c14882a" y="296.508525"/>
     <use style="fill:#acc2d9;stroke:#acc2d9;" x="787.269786" xlink:href="#mba5c14882a" y="319.817048"/>
     <use style="fill:#acc2d9;stroke:#acc2d9;" x="829.480348" xlink:href="#mba5c14882a" y="318.767566"/>
     <use style="fill:#acc2d9;stroke:#acc2d9;" x="871.690909" xlink:href="#mba5c14882a" y="318.53581"/>
    </g>
   </g>
   <g id="line2d_14">
    <path clip-path="url(#pd51ff57260)" d="M 161.509091 287.746596 
L 168.906818 306.899325 
L 176.304545 332.085593 
L 183.702273 365.065949 
L 191.1 321.91338 
L 198.497727 313.302882 
L 205.895455 302.044316 
L 213.293182 336.27694 
L 220.690909 355.772036 
L 228.088636 304.097194 
L 235.486364 327.491308 
L 242.884091 325.747877 
L 250.281818 315.811369 
L 257.679545 293.840706 
L 265.077273 313.167252 
L 272.475 341.266262 
L 279.872727 353.895608 
L 287.270455 289.754702 
L 294.668182 313.333168 
L 302.065909 331.375843 
L 309.463636 386.767987 
L 316.861364 357.429876 
L 324.259091 358.455656 
L 331.656818 355.145243 
L 339.054545 368.835922 
L 346.452273 335.072076 
L 353.85 343.758948 
L 361.247727 337.687224 
L 368.645455 312.886776 
L 376.043182 315.570396 
L 383.440909 346.583466 
L 390.838636 393.588966 
L 398.236364 323.648911 
L 405.634091 393.07015 
L 413.031818 361.688379 
L 420.429545 352.89748 
L 427.827273 330.5726 
L 435.225 340.681607 
L 442.622727 317.117626 
L 450.020455 336.288791 
L 457.418182 359.48407 
L 464.815909 367.733768 
L 472.213636 338.552355 
L 479.611364 351.193552 
L 487.009091 355.04385 
L 494.406818 348.482279 
L 501.804545 358.429321 
L 509.202273 350.024242 
L 516.6 353.661219 
L 523.997727 397.252279 
L 531.395455 333.784254 
L 538.793182 356.834686 
L 546.190909 381.716775 
L 553.588636 346.229249 
L 560.986364 394.576559 
L 568.384091 371.599867 
L 575.781818 386.179381 
L 583.179545 376.594457 
L 590.577273 377.692661 
L 597.975 386.325545 
L 605.372727 368.842506 
L 612.770455 406.423731 
L 620.168182 385.967378 
L 627.565909 368.667373 
L 634.963636 399.322275 
L 642.361364 430.92 
L 649.759091 392.460476 
L 657.156818 386.924685 
L 664.554545 407.269111 
L 671.952273 385.115414 
L 679.35 405.021348 
L 686.747727 427.659625 
L 694.145455 404.310281 
L 701.543182 429.125213 
L 708.940909 398.130579 
L 716.338636 385.085127 
L 723.736364 391.758626 
L 731.134091 395.009784 
L 738.531818 370.660995 
L 745.929545 405.113524 
L 753.327273 400.60878 
L 760.725 375.231578 
L 768.122727 370.197485 
L 775.520455 381.678588 
L 782.918182 361.605421 
L 790.315909 399.436836 
L 797.713636 406.423731 
L 805.111364 405.297874 
L 812.509091 370.867731 
L 819.906818 382.115763 
L 827.304545 400.161071 
L 834.702273 368.917563 
L 842.1 359.826436 
L 849.497727 355.280872 
L 856.895455 365.842856 
L 864.293182 374.082019 
L 871.690909 323.053722 
" style="fill:none;stroke:#56ae57;stroke-linecap:square;stroke-width:1.5;"/>
    <defs>
     <path d="M 0 3 
C 0.795609 3 1.55874 2.683901 2.12132 2.12132 
C 2.683901 1.55874 3 0.795609 3 0 
C 3 -0.795609 2.683901 -1.55874 2.12132 -2.12132 
C 1.55874 -2.683901 0.795609 -3 0 -3 
C -0.795609 -3 -1.55874 -2.683901 -2.12132 -2.12132 
C -2.683901 -1.55874 -3 -0.795609 -3 0 
C -3 0.795609 -2.683901 1.55874 -2.12132 2.12132 
C -1.55874 2.683901 -0.795609 3 0 3 
z
" id="m1fedf1bf25" style="stroke:#56ae57;"/>
    </defs>
    <g clip-path="url(#pd51ff57260)">
     <use style="fill:#56ae57;stroke:#56ae57;" x="161.509091" xlink:href="#m1fedf1bf25" y="287.746596"/>
     <use style="fill:#56ae57;stroke:#56ae57;" x="168.906818" xlink:href="#m1fedf1bf25" y="306.899325"/>
     <use style="fill:#56ae57;stroke:#56ae57;" x="176.304545" xlink:href="#m1fedf1bf25" y="332.085593"/>
     <use style="fill:#56ae57;stroke:#56ae57;" x="183.702273" xlink:href="#m1fedf1bf25" y="365.065949"/>
     <use style="fill:#56ae57;stroke:#56ae57;" x="191.1" xlink:href="#m1fedf1bf25" y="321.91338"/>
     <use style="fill:#56ae57;stroke:#56ae57;" x="198.497727" xlink:href="#m1fedf1bf25" y="313.302882"/>
     <use style="fill:#56ae57;stroke:#56ae57;" x="205.895455" xlink:href="#m1fedf1bf25" y="302.044316"/>
     <use style="fill:#56ae57;stroke:#56ae57;" x="213.293182" xlink:href="#m1fedf1bf25" y="336.27694"/>
     <use style="fill:#56ae57;stroke:#56ae57;" x="220.690909" xlink:href="#m1fedf1bf25" y="355.772036"/>
     <use style="fill:#56ae57;stroke:#56ae57;" x="228.088636" xlink:href="#m1fedf1bf25" y="304.097194"/>
     <use style="fill:#56ae57;stroke:#56ae57;" x="235.486364" xlink:href="#m1fedf1bf25" y="327.491308"/>
     <use style="fill:#56ae57;stroke:#56ae57;" x="242.884091" xlink:href="#m1fedf1bf25" y="325.747877"/>
     <use style="fill:#56ae57;stroke:#56ae57;" x="250.281818" xlink:href="#m1fedf1bf25" y="315.811369"/>
     <use style="fill:#56ae57;stroke:#56ae57;" x="257.679545" xlink:href="#m1fedf1bf25" y="293.840706"/>
     <use style="fill:#56ae57;stroke:#56ae57;" x="265.077273" xlink:href="#m1fedf1bf25" y="313.167252"/>
     <use style="fill:#56ae57;stroke:#56ae57;" x="272.475" xlink:href="#m1fedf1bf25" y="341.266262"/>
     <use style="fill:#56ae57;stroke:#56ae57;" x="279.872727" xlink:href="#m1fedf1bf25" y="353.895608"/>
     <use style="fill:#56ae57;stroke:#56ae57;" x="287.270455" xlink:href="#m1fedf1bf25" y="289.754702"/>
     <use style="fill:#56ae57;stroke:#56ae57;" x="294.668182" xlink:href="#m1fedf1bf25" y="313.333168"/>
     <use style="fill:#56ae57;stroke:#56ae57;" x="302.065909" xlink:href="#m1fedf1bf25" y="331.375843"/>
     <use style="fill:#56ae57;stroke:#56ae57;" x="309.463636" xlink:href="#m1fedf1bf25" y="386.767987"/>
     <use style="fill:#56ae57;stroke:#56ae57;" x="316.861364" xlink:href="#m1fedf1bf25" y="357.429876"/>
     <use style="fill:#56ae57;stroke:#56ae57;" x="324.259091" xlink:href="#m1fedf1bf25" y="358.455656"/>
     <use style="fill:#56ae57;stroke:#56ae57;" x="331.656818" xlink:href="#m1fedf1bf25" y="355.145243"/>
     <use style="fill:#56ae57;stroke:#56ae57;" x="339.054545" xlink:href="#m1fedf1bf25" y="368.835922"/>
     <use style="fill:#56ae57;stroke:#56ae57;" x="346.452273" xlink:href="#m1fedf1bf25" y="335.072076"/>
     <use style="fill:#56ae57;stroke:#56ae57;" x="353.85" xlink:href="#m1fedf1bf25" y="343.758948"/>
     <use style="fill:#56ae57;stroke:#56ae57;" x="361.247727" xlink:href="#m1fedf1bf25" y="337.687224"/>
     <use style="fill:#56ae57;stroke:#56ae57;" x="368.645455" xlink:href="#m1fedf1bf25" y="312.886776"/>
     <use style="fill:#56ae57;stroke:#56ae57;" x="376.043182" xlink:href="#m1fedf1bf25" y="315.570396"/>
     <use style="fill:#56ae57;stroke:#56ae57;" x="383.440909" xlink:href="#m1fedf1bf25" y="346.583466"/>
     <use style="fill:#56ae57;stroke:#56ae57;" x="390.838636" xlink:href="#m1fedf1bf25" y="393.588966"/>
     <use style="fill:#56ae57;stroke:#56ae57;" x="398.236364" xlink:href="#m1fedf1bf25" y="323.648911"/>
     <use style="fill:#56ae57;stroke:#56ae57;" x="405.634091" xlink:href="#m1fedf1bf25" y="393.07015"/>
     <use style="fill:#56ae57;stroke:#56ae57;" x="413.031818" xlink:href="#m1fedf1bf25" y="361.688379"/>
     <use style="fill:#56ae57;stroke:#56ae57;" x="420.429545" xlink:href="#m1fedf1bf25" y="352.89748"/>
     <use style="fill:#56ae57;stroke:#56ae57;" x="427.827273" xlink:href="#m1fedf1bf25" y="330.5726"/>
     <use style="fill:#56ae57;stroke:#56ae57;" x="435.225" xlink:href="#m1fedf1bf25" y="340.681607"/>
     <use style="fill:#56ae57;stroke:#56ae57;" x="442.622727" xlink:href="#m1fedf1bf25" y="317.117626"/>
     <use style="fill:#56ae57;stroke:#56ae57;" x="450.020455" xlink:href="#m1fedf1bf25" y="336.288791"/>
     <use style="fill:#56ae57;stroke:#56ae57;" x="457.418182" xlink:href="#m1fedf1bf25" y="359.48407"/>
     <use style="fill:#56ae57;stroke:#56ae57;" x="464.815909" xlink:href="#m1fedf1bf25" y="367.733768"/>
     <use style="fill:#56ae57;stroke:#56ae57;" x="472.213636" xlink:href="#m1fedf1bf25" y="338.552355"/>
     <use style="fill:#56ae57;stroke:#56ae57;" x="479.611364" xlink:href="#m1fedf1bf25" y="351.193552"/>
     <use style="fill:#56ae57;stroke:#56ae57;" x="487.009091" xlink:href="#m1fedf1bf25" y="355.04385"/>
     <use style="fill:#56ae57;stroke:#56ae57;" x="494.406818" xlink:href="#m1fedf1bf25" y="348.482279"/>
     <use style="fill:#56ae57;stroke:#56ae57;" x="501.804545" xlink:href="#m1fedf1bf25" y="358.429321"/>
     <use style="fill:#56ae57;stroke:#56ae57;" x="509.202273" xlink:href="#m1fedf1bf25" y="350.024242"/>
     <use style="fill:#56ae57;stroke:#56ae57;" x="516.6" xlink:href="#m1fedf1bf25" y="353.661219"/>
     <use style="fill:#56ae57;stroke:#56ae57;" x="523.997727" xlink:href="#m1fedf1bf25" y="397.252279"/>
     <use style="fill:#56ae57;stroke:#56ae57;" x="531.395455" xlink:href="#m1fedf1bf25" y="333.784254"/>
     <use style="fill:#56ae57;stroke:#56ae57;" x="538.793182" xlink:href="#m1fedf1bf25" y="356.834686"/>
     <use style="fill:#56ae57;stroke:#56ae57;" x="546.190909" xlink:href="#m1fedf1bf25" y="381.716775"/>
     <use style="fill:#56ae57;stroke:#56ae57;" x="553.588636" xlink:href="#m1fedf1bf25" y="346.229249"/>
     <use style="fill:#56ae57;stroke:#56ae57;" x="560.986364" xlink:href="#m1fedf1bf25" y="394.576559"/>
     <use style="fill:#56ae57;stroke:#56ae57;" x="568.384091" xlink:href="#m1fedf1bf25" y="371.599867"/>
     <use style="fill:#56ae57;stroke:#56ae57;" x="575.781818" xlink:href="#m1fedf1bf25" y="386.179381"/>
     <use style="fill:#56ae57;stroke:#56ae57;" x="583.179545" xlink:href="#m1fedf1bf25" y="376.594457"/>
     <use style="fill:#56ae57;stroke:#56ae57;" x="590.577273" xlink:href="#m1fedf1bf25" y="377.692661"/>
     <use style="fill:#56ae57;stroke:#56ae57;" x="597.975" xlink:href="#m1fedf1bf25" y="386.325545"/>
     <use style="fill:#56ae57;stroke:#56ae57;" x="605.372727" xlink:href="#m1fedf1bf25" y="368.842506"/>
     <use style="fill:#56ae57;stroke:#56ae57;" x="612.770455" xlink:href="#m1fedf1bf25" y="406.423731"/>
     <use style="fill:#56ae57;stroke:#56ae57;" x="620.168182" xlink:href="#m1fedf1bf25" y="385.967378"/>
     <use style="fill:#56ae57;stroke:#56ae57;" x="627.565909" xlink:href="#m1fedf1bf25" y="368.667373"/>
     <use style="fill:#56ae57;stroke:#56ae57;" x="634.963636" xlink:href="#m1fedf1bf25" y="399.322275"/>
     <use style="fill:#56ae57;stroke:#56ae57;" x="642.361364" xlink:href="#m1fedf1bf25" y="430.92"/>
     <use style="fill:#56ae57;stroke:#56ae57;" x="649.759091" xlink:href="#m1fedf1bf25" y="392.460476"/>
     <use style="fill:#56ae57;stroke:#56ae57;" x="657.156818" xlink:href="#m1fedf1bf25" y="386.924685"/>
     <use style="fill:#56ae57;stroke:#56ae57;" x="664.554545" xlink:href="#m1fedf1bf25" y="407.269111"/>
     <use style="fill:#56ae57;stroke:#56ae57;" x="671.952273" xlink:href="#m1fedf1bf25" y="385.115414"/>
     <use style="fill:#56ae57;stroke:#56ae57;" x="679.35" xlink:href="#m1fedf1bf25" y="405.021348"/>
     <use style="fill:#56ae57;stroke:#56ae57;" x="686.747727" xlink:href="#m1fedf1bf25" y="427.659625"/>
     <use style="fill:#56ae57;stroke:#56ae57;" x="694.145455" xlink:href="#m1fedf1bf25" y="404.310281"/>
     <use style="fill:#56ae57;stroke:#56ae57;" x="701.543182" xlink:href="#m1fedf1bf25" y="429.125213"/>
     <use style="fill:#56ae57;stroke:#56ae57;" x="708.940909" xlink:href="#m1fedf1bf25" y="398.130579"/>
     <use style="fill:#56ae57;stroke:#56ae57;" x="716.338636" xlink:href="#m1fedf1bf25" y="385.085127"/>
     <use style="fill:#56ae57;stroke:#56ae57;" x="723.736364" xlink:href="#m1fedf1bf25" y="391.758626"/>
     <use style="fill:#56ae57;stroke:#56ae57;" x="731.134091" xlink:href="#m1fedf1bf25" y="395.009784"/>
     <use style="fill:#56ae57;stroke:#56ae57;" x="738.531818" xlink:href="#m1fedf1bf25" y="370.660995"/>
     <use style="fill:#56ae57;stroke:#56ae57;" x="745.929545" xlink:href="#m1fedf1bf25" y="405.113524"/>
     <use style="fill:#56ae57;stroke:#56ae57;" x="753.327273" xlink:href="#m1fedf1bf25" y="400.60878"/>
     <use style="fill:#56ae57;stroke:#56ae57;" x="760.725" xlink:href="#m1fedf1bf25" y="375.231578"/>
     <use style="fill:#56ae57;stroke:#56ae57;" x="768.122727" xlink:href="#m1fedf1bf25" y="370.197485"/>
     <use style="fill:#56ae57;stroke:#56ae57;" x="775.520455" xlink:href="#m1fedf1bf25" y="381.678588"/>
     <use style="fill:#56ae57;stroke:#56ae57;" x="782.918182" xlink:href="#m1fedf1bf25" y="361.605421"/>
     <use style="fill:#56ae57;stroke:#56ae57;" x="790.315909" xlink:href="#m1fedf1bf25" y="399.436836"/>
     <use style="fill:#56ae57;stroke:#56ae57;" x="797.713636" xlink:href="#m1fedf1bf25" y="406.423731"/>
     <use style="fill:#56ae57;stroke:#56ae57;" x="805.111364" xlink:href="#m1fedf1bf25" y="405.297874"/>
     <use style="fill:#56ae57;stroke:#56ae57;" x="812.509091" xlink:href="#m1fedf1bf25" y="370.867731"/>
     <use style="fill:#56ae57;stroke:#56ae57;" x="819.906818" xlink:href="#m1fedf1bf25" y="382.115763"/>
     <use style="fill:#56ae57;stroke:#56ae57;" x="827.304545" xlink:href="#m1fedf1bf25" y="400.161071"/>
     <use style="fill:#56ae57;stroke:#56ae57;" x="834.702273" xlink:href="#m1fedf1bf25" y="368.917563"/>
     <use style="fill:#56ae57;stroke:#56ae57;" x="842.1" xlink:href="#m1fedf1bf25" y="359.826436"/>
     <use style="fill:#56ae57;stroke:#56ae57;" x="849.497727" xlink:href="#m1fedf1bf25" y="355.280872"/>
     <use style="fill:#56ae57;stroke:#56ae57;" x="856.895455" xlink:href="#m1fedf1bf25" y="365.842856"/>
     <use style="fill:#56ae57;stroke:#56ae57;" x="864.293182" xlink:href="#m1fedf1bf25" y="374.082019"/>
     <use style="fill:#56ae57;stroke:#56ae57;" x="871.690909" xlink:href="#m1fedf1bf25" y="323.053722"/>
    </g>
   </g>
   <g id="line2d_15">
    <path clip-path="url(#pd51ff57260)" d="M 164.664004 296.334709 
L 175.216644 334.627 
L 185.769285 334.804767 
L 196.321925 336.671977 
L 206.874566 326.635394 
L 217.427206 313.333168 
L 227.979846 342.415821 
L 238.532487 349.882028 
L 249.085127 335.373621 
L 259.637767 323.688415 
L 270.190408 317.265107 
L 280.743048 326.561654 
L 291.295689 316.020739 
L 301.848329 314.111392 
L 312.400969 321.106187 
L 322.95361 310.146533 
L 333.50625 303.973415 
L 344.05889 307.713103 
L 354.611531 263.525536 
L 365.164171 316.490834 
L 375.716811 352.541947 
L 386.269452 356.871556 
L 396.822092 373.967458 
L 407.374733 399.000978 
L 417.927373 423.652629 
L 428.480013 402.910532 
L 439.032654 330.031399 
L 449.585294 347.690887 
L 460.137934 330.397467 
L 470.690575 291.960328 
L 481.243215 338.899988 
L 491.795856 362.999903 
L 502.348496 329.728537 
L 512.901136 298.495563 
L 523.453777 395.586538 
L 534.006417 354.65803 
L 544.559057 326.710451 
L 555.111698 318.641154 
L 565.664338 364.751236 
L 576.216979 349.619987 
L 586.769619 374.839174 
L 597.322259 288.449762 
L 607.8749 327.754667 
L 618.42754 340.293154 
L 628.98018 346.410966 
L 639.532821 320.047487 
L 650.085461 353.24248 
L 660.638102 344.101314 
L 671.190742 373.247173 
L 681.743382 340.545978 
L 692.296023 375.419879 
L 702.848663 295.488012 
L 713.401303 372.154237 
L 723.953944 406.161689 
L 734.506584 309.453901 
L 745.059225 272.648266 
L 755.611865 328.17999 
L 766.164505 320.92052 
L 776.717146 375.022208 
L 787.269786 398.575655 
L 797.822426 374.910281 
L 808.375067 281.270616 
L 818.927707 282.680899 
L 829.480348 229.296862 
L 840.032988 331.174374 
L 850.585628 303.413779 
L 861.138269 363.110514 
L 871.690909 239.752185 
" style="fill:none;stroke:#b2996e;stroke-linecap:square;stroke-width:1.5;"/>
    <defs>
     <path d="M 0 3 
C 0.795609 3 1.55874 2.683901 2.12132 2.12132 
C 2.683901 1.55874 3 0.795609 3 0 
C 3 -0.795609 2.683901 -1.55874 2.12132 -2.12132 
C 1.55874 -2.683901 0.795609 -3 0 -3 
C -0.795609 -3 -1.55874 -2.683901 -2.12132 -2.12132 
C -2.683901 -1.55874 -3 -0.795609 -3 0 
C -3 0.795609 -2.683901 1.55874 -2.12132 2.12132 
C -1.55874 2.683901 -0.795609 3 0 3 
z
" id="mc031761f8f" style="stroke:#b2996e;"/>
    </defs>
    <g clip-path="url(#pd51ff57260)">
     <use style="fill:#b2996e;stroke:#b2996e;" x="164.664004" xlink:href="#mc031761f8f" y="296.334709"/>
     <use style="fill:#b2996e;stroke:#b2996e;" x="175.216644" xlink:href="#mc031761f8f" y="334.627"/>
     <use style="fill:#b2996e;stroke:#b2996e;" x="185.769285" xlink:href="#mc031761f8f" y="334.804767"/>
     <use style="fill:#b2996e;stroke:#b2996e;" x="196.321925" xlink:href="#mc031761f8f" y="336.671977"/>
     <use style="fill:#b2996e;stroke:#b2996e;" x="206.874566" xlink:href="#mc031761f8f" y="326.635394"/>
     <use style="fill:#b2996e;stroke:#b2996e;" x="217.427206" xlink:href="#mc031761f8f" y="313.333168"/>
     <use style="fill:#b2996e;stroke:#b2996e;" x="227.979846" xlink:href="#mc031761f8f" y="342.415821"/>
     <use style="fill:#b2996e;stroke:#b2996e;" x="238.532487" xlink:href="#mc031761f8f" y="349.882028"/>
     <use style="fill:#b2996e;stroke:#b2996e;" x="249.085127" xlink:href="#mc031761f8f" y="335.373621"/>
     <use style="fill:#b2996e;stroke:#b2996e;" x="259.637767" xlink:href="#mc031761f8f" y="323.688415"/>
     <use style="fill:#b2996e;stroke:#b2996e;" x="270.190408" xlink:href="#mc031761f8f" y="317.265107"/>
     <use style="fill:#b2996e;stroke:#b2996e;" x="280.743048" xlink:href="#mc031761f8f" y="326.561654"/>
     <use style="fill:#b2996e;stroke:#b2996e;" x="291.295689" xlink:href="#mc031761f8f" y="316.020739"/>
     <use style="fill:#b2996e;stroke:#b2996e;" x="301.848329" xlink:href="#mc031761f8f" y="314.111392"/>
     <use style="fill:#b2996e;stroke:#b2996e;" x="312.400969" xlink:href="#mc031761f8f" y="321.106187"/>
     <use style="fill:#b2996e;stroke:#b2996e;" x="322.95361" xlink:href="#mc031761f8f" y="310.146533"/>
     <use style="fill:#b2996e;stroke:#b2996e;" x="333.50625" xlink:href="#mc031761f8f" y="303.973415"/>
     <use style="fill:#b2996e;stroke:#b2996e;" x="344.05889" xlink:href="#mc031761f8f" y="307.713103"/>
     <use style="fill:#b2996e;stroke:#b2996e;" x="354.611531" xlink:href="#mc031761f8f" y="263.525536"/>
     <use style="fill:#b2996e;stroke:#b2996e;" x="365.164171" xlink:href="#mc031761f8f" y="316.490834"/>
     <use style="fill:#b2996e;stroke:#b2996e;" x="375.716811" xlink:href="#mc031761f8f" y="352.541947"/>
     <use style="fill:#b2996e;stroke:#b2996e;" x="386.269452" xlink:href="#mc031761f8f" y="356.871556"/>
     <use style="fill:#b2996e;stroke:#b2996e;" x="396.822092" xlink:href="#mc031761f8f" y="373.967458"/>
     <use style="fill:#b2996e;stroke:#b2996e;" x="407.374733" xlink:href="#mc031761f8f" y="399.000978"/>
     <use style="fill:#b2996e;stroke:#b2996e;" x="417.927373" xlink:href="#mc031761f8f" y="423.652629"/>
     <use style="fill:#b2996e;stroke:#b2996e;" x="428.480013" xlink:href="#mc031761f8f" y="402.910532"/>
     <use style="fill:#b2996e;stroke:#b2996e;" x="439.032654" xlink:href="#mc031761f8f" y="330.031399"/>
     <use style="fill:#b2996e;stroke:#b2996e;" x="449.585294" xlink:href="#mc031761f8f" y="347.690887"/>
     <use style="fill:#b2996e;stroke:#b2996e;" x="460.137934" xlink:href="#mc031761f8f" y="330.397467"/>
     <use style="fill:#b2996e;stroke:#b2996e;" x="470.690575" xlink:href="#mc031761f8f" y="291.960328"/>
     <use style="fill:#b2996e;stroke:#b2996e;" x="481.243215" xlink:href="#mc031761f8f" y="338.899988"/>
     <use style="fill:#b2996e;stroke:#b2996e;" x="491.795856" xlink:href="#mc031761f8f" y="362.999903"/>
     <use style="fill:#b2996e;stroke:#b2996e;" x="502.348496" xlink:href="#mc031761f8f" y="329.728537"/>
     <use style="fill:#b2996e;stroke:#b2996e;" x="512.901136" xlink:href="#mc031761f8f" y="298.495563"/>
     <use style="fill:#b2996e;stroke:#b2996e;" x="523.453777" xlink:href="#mc031761f8f" y="395.586538"/>
     <use style="fill:#b2996e;stroke:#b2996e;" x="534.006417" xlink:href="#mc031761f8f" y="354.65803"/>
     <use style="fill:#b2996e;stroke:#b2996e;" x="544.559057" xlink:href="#mc031761f8f" y="326.710451"/>
     <use style="fill:#b2996e;stroke:#b2996e;" x="555.111698" xlink:href="#mc031761f8f" y="318.641154"/>
     <use style="fill:#b2996e;stroke:#b2996e;" x="565.664338" xlink:href="#mc031761f8f" y="364.751236"/>
     <use style="fill:#b2996e;stroke:#b2996e;" x="576.216979" xlink:href="#mc031761f8f" y="349.619987"/>
     <use style="fill:#b2996e;stroke:#b2996e;" x="586.769619" xlink:href="#mc031761f8f" y="374.839174"/>
     <use style="fill:#b2996e;stroke:#b2996e;" x="597.322259" xlink:href="#mc031761f8f" y="288.449762"/>
     <use style="fill:#b2996e;stroke:#b2996e;" x="607.8749" xlink:href="#mc031761f8f" y="327.754667"/>
     <use style="fill:#b2996e;stroke:#b2996e;" x="618.42754" xlink:href="#mc031761f8f" y="340.293154"/>
     <use style="fill:#b2996e;stroke:#b2996e;" x="628.98018" xlink:href="#mc031761f8f" y="346.410966"/>
     <use style="fill:#b2996e;stroke:#b2996e;" x="639.532821" xlink:href="#mc031761f8f" y="320.047487"/>
     <use style="fill:#b2996e;stroke:#b2996e;" x="650.085461" xlink:href="#mc031761f8f" y="353.24248"/>
     <use style="fill:#b2996e;stroke:#b2996e;" x="660.638102" xlink:href="#mc031761f8f" y="344.101314"/>
     <use style="fill:#b2996e;stroke:#b2996e;" x="671.190742" xlink:href="#mc031761f8f" y="373.247173"/>
     <use style="fill:#b2996e;stroke:#b2996e;" x="681.743382" xlink:href="#mc031761f8f" y="340.545978"/>
     <use style="fill:#b2996e;stroke:#b2996e;" x="692.296023" xlink:href="#mc031761f8f" y="375.419879"/>
     <use style="fill:#b2996e;stroke:#b2996e;" x="702.848663" xlink:href="#mc031761f8f" y="295.488012"/>
     <use style="fill:#b2996e;stroke:#b2996e;" x="713.401303" xlink:href="#mc031761f8f" y="372.154237"/>
     <use style="fill:#b2996e;stroke:#b2996e;" x="723.953944" xlink:href="#mc031761f8f" y="406.161689"/>
     <use style="fill:#b2996e;stroke:#b2996e;" x="734.506584" xlink:href="#mc031761f8f" y="309.453901"/>
     <use style="fill:#b2996e;stroke:#b2996e;" x="745.059225" xlink:href="#mc031761f8f" y="272.648266"/>
     <use style="fill:#b2996e;stroke:#b2996e;" x="755.611865" xlink:href="#mc031761f8f" y="328.17999"/>
     <use style="fill:#b2996e;stroke:#b2996e;" x="766.164505" xlink:href="#mc031761f8f" y="320.92052"/>
     <use style="fill:#b2996e;stroke:#b2996e;" x="776.717146" xlink:href="#mc031761f8f" y="375.022208"/>
     <use style="fill:#b2996e;stroke:#b2996e;" x="787.269786" xlink:href="#mc031761f8f" y="398.575655"/>
     <use style="fill:#b2996e;stroke:#b2996e;" x="797.822426" xlink:href="#mc031761f8f" y="374.910281"/>
     <use style="fill:#b2996e;stroke:#b2996e;" x="808.375067" xlink:href="#mc031761f8f" y="281.270616"/>
     <use style="fill:#b2996e;stroke:#b2996e;" x="818.927707" xlink:href="#mc031761f8f" y="282.680899"/>
     <use style="fill:#b2996e;stroke:#b2996e;" x="829.480348" xlink:href="#mc031761f8f" y="229.296862"/>
     <use style="fill:#b2996e;stroke:#b2996e;" x="840.032988" xlink:href="#mc031761f8f" y="331.174374"/>
     <use style="fill:#b2996e;stroke:#b2996e;" x="850.585628" xlink:href="#mc031761f8f" y="303.413779"/>
     <use style="fill:#b2996e;stroke:#b2996e;" x="861.138269" xlink:href="#mc031761f8f" y="363.110514"/>
     <use style="fill:#b2996e;stroke:#b2996e;" x="871.690909" xlink:href="#mc031761f8f" y="239.752185"/>
    </g>
   </g>
   <g id="line2d_16">
    <path clip-path="url(#pd51ff57260)" d="M 170.41999 347.543407 
L 186.728616 358.526763 
L 203.037242 325.975681 
L 219.345868 344.865053 
L 235.654494 341.164869 
L 251.96312 382.525285 
L 268.271746 379.716569 
L 284.580372 403.059329 
L 300.888998 406.771364 
L 317.197624 315.156924 
L 333.50625 333.85141 
L 349.814876 295.53805 
L 366.123502 322.873321 
L 382.432128 361.785822 
L 398.740754 390.437884 
L 415.04938 315.659938 
L 431.358006 349.584433 
L 447.666632 332.455612 
L 463.975258 294.082995 
L 480.283884 243.066549 
L 496.59251 240.598882 
L 512.901136 219.073294 
L 529.209762 336.608771 
L 545.518388 332.958626 
L 561.827014 302.175995 
L 578.13564 373.798909 
L 594.444267 312.674772 
L 610.752893 371.940916 
L 627.061519 375.509421 
L 643.370145 345.618258 
L 659.678771 355.882646 
L 675.987397 365.493906 
L 692.296023 340.910729 
L 708.604649 331.286301 
L 724.913275 357.443044 
L 741.221901 323.792441 
L 757.530527 349.502792 
L 773.839153 329.868117 
L 790.147779 343.223014 
L 806.456405 374.928716 
L 822.765031 408.325178 
L 839.073657 383.555016 
L 855.382283 323.766106 
L 871.690909 358.938919 
" style="fill:none;stroke:#a8ff04;stroke-linecap:square;stroke-width:1.5;"/>
    <defs>
     <path d="M 0 3 
C 0.795609 3 1.55874 2.683901 2.12132 2.12132 
C 2.683901 1.55874 3 0.795609 3 0 
C 3 -0.795609 2.683901 -1.55874 2.12132 -2.12132 
C 1.55874 -2.683901 0.795609 -3 0 -3 
C -0.795609 -3 -1.55874 -2.683901 -2.12132 -2.12132 
C -2.683901 -1.55874 -3 -0.795609 -3 0 
C -3 0.795609 -2.683901 1.55874 -2.12132 2.12132 
C -1.55874 2.683901 -0.795609 3 0 3 
z
" id="mf48fabe120" style="stroke:#a8ff04;"/>
    </defs>
    <g clip-path="url(#pd51ff57260)">
     <use style="fill:#a8ff04;stroke:#a8ff04;" x="170.41999" xlink:href="#mf48fabe120" y="347.543407"/>
     <use style="fill:#a8ff04;stroke:#a8ff04;" x="186.728616" xlink:href="#mf48fabe120" y="358.526763"/>
     <use style="fill:#a8ff04;stroke:#a8ff04;" x="203.037242" xlink:href="#mf48fabe120" y="325.975681"/>
     <use style="fill:#a8ff04;stroke:#a8ff04;" x="219.345868" xlink:href="#mf48fabe120" y="344.865053"/>
     <use style="fill:#a8ff04;stroke:#a8ff04;" x="235.654494" xlink:href="#mf48fabe120" y="341.164869"/>
     <use style="fill:#a8ff04;stroke:#a8ff04;" x="251.96312" xlink:href="#mf48fabe120" y="382.525285"/>
     <use style="fill:#a8ff04;stroke:#a8ff04;" x="268.271746" xlink:href="#mf48fabe120" y="379.716569"/>
     <use style="fill:#a8ff04;stroke:#a8ff04;" x="284.580372" xlink:href="#mf48fabe120" y="403.059329"/>
     <use style="fill:#a8ff04;stroke:#a8ff04;" x="300.888998" xlink:href="#mf48fabe120" y="406.771364"/>
     <use style="fill:#a8ff04;stroke:#a8ff04;" x="317.197624" xlink:href="#mf48fabe120" y="315.156924"/>
     <use style="fill:#a8ff04;stroke:#a8ff04;" x="333.50625" xlink:href="#mf48fabe120" y="333.85141"/>
     <use style="fill:#a8ff04;stroke:#a8ff04;" x="349.814876" xlink:href="#mf48fabe120" y="295.53805"/>
     <use style="fill:#a8ff04;stroke:#a8ff04;" x="366.123502" xlink:href="#mf48fabe120" y="322.873321"/>
     <use style="fill:#a8ff04;stroke:#a8ff04;" x="382.432128" xlink:href="#mf48fabe120" y="361.785822"/>
     <use style="fill:#a8ff04;stroke:#a8ff04;" x="398.740754" xlink:href="#mf48fabe120" y="390.437884"/>
     <use style="fill:#a8ff04;stroke:#a8ff04;" x="415.04938" xlink:href="#mf48fabe120" y="315.659938"/>
     <use style="fill:#a8ff04;stroke:#a8ff04;" x="431.358006" xlink:href="#mf48fabe120" y="349.584433"/>
     <use style="fill:#a8ff04;stroke:#a8ff04;" x="447.666632" xlink:href="#mf48fabe120" y="332.455612"/>
     <use style="fill:#a8ff04;stroke:#a8ff04;" x="463.975258" xlink:href="#mf48fabe120" y="294.082995"/>
     <use style="fill:#a8ff04;stroke:#a8ff04;" x="480.283884" xlink:href="#mf48fabe120" y="243.066549"/>
     <use style="fill:#a8ff04;stroke:#a8ff04;" x="496.59251" xlink:href="#mf48fabe120" y="240.598882"/>
     <use style="fill:#a8ff04;stroke:#a8ff04;" x="512.901136" xlink:href="#mf48fabe120" y="219.073294"/>
     <use style="fill:#a8ff04;stroke:#a8ff04;" x="529.209762" xlink:href="#mf48fabe120" y="336.608771"/>
     <use style="fill:#a8ff04;stroke:#a8ff04;" x="545.518388" xlink:href="#mf48fabe120" y="332.958626"/>
     <use style="fill:#a8ff04;stroke:#a8ff04;" x="561.827014" xlink:href="#mf48fabe120" y="302.175995"/>
     <use style="fill:#a8ff04;stroke:#a8ff04;" x="578.13564" xlink:href="#mf48fabe120" y="373.798909"/>
     <use style="fill:#a8ff04;stroke:#a8ff04;" x="594.444267" xlink:href="#mf48fabe120" y="312.674772"/>
     <use style="fill:#a8ff04;stroke:#a8ff04;" x="610.752893" xlink:href="#mf48fabe120" y="371.940916"/>
     <use style="fill:#a8ff04;stroke:#a8ff04;" x="627.061519" xlink:href="#mf48fabe120" y="375.509421"/>
     <use style="fill:#a8ff04;stroke:#a8ff04;" x="643.370145" xlink:href="#mf48fabe120" y="345.618258"/>
     <use style="fill:#a8ff04;stroke:#a8ff04;" x="659.678771" xlink:href="#mf48fabe120" y="355.882646"/>
     <use style="fill:#a8ff04;stroke:#a8ff04;" x="675.987397" xlink:href="#mf48fabe120" y="365.493906"/>
     <use style="fill:#a8ff04;stroke:#a8ff04;" x="692.296023" xlink:href="#mf48fabe120" y="340.910729"/>
     <use style="fill:#a8ff04;stroke:#a8ff04;" x="708.604649" xlink:href="#mf48fabe120" y="331.286301"/>
     <use style="fill:#a8ff04;stroke:#a8ff04;" x="724.913275" xlink:href="#mf48fabe120" y="357.443044"/>
     <use style="fill:#a8ff04;stroke:#a8ff04;" x="741.221901" xlink:href="#mf48fabe120" y="323.792441"/>
     <use style="fill:#a8ff04;stroke:#a8ff04;" x="757.530527" xlink:href="#mf48fabe120" y="349.502792"/>
     <use style="fill:#a8ff04;stroke:#a8ff04;" x="773.839153" xlink:href="#mf48fabe120" y="329.868117"/>
     <use style="fill:#a8ff04;stroke:#a8ff04;" x="790.147779" xlink:href="#mf48fabe120" y="343.223014"/>
     <use style="fill:#a8ff04;stroke:#a8ff04;" x="806.456405" xlink:href="#mf48fabe120" y="374.928716"/>
     <use style="fill:#a8ff04;stroke:#a8ff04;" x="822.765031" xlink:href="#mf48fabe120" y="408.325178"/>
     <use style="fill:#a8ff04;stroke:#a8ff04;" x="839.073657" xlink:href="#mf48fabe120" y="383.555016"/>
     <use style="fill:#a8ff04;stroke:#a8ff04;" x="855.382283" xlink:href="#mf48fabe120" y="323.766106"/>
     <use style="fill:#a8ff04;stroke:#a8ff04;" x="871.690909" xlink:href="#mf48fabe120" y="358.938919"/>
    </g>
   </g>
   <g id="line2d_17">
    <path clip-path="url(#pd51ff57260)" d="M 170.057576 274.379847 
L 186.003788 337.263217 
L 201.95 424.002895 
L 217.896212 361.548799 
L 233.842424 321.613152 
L 249.788636 339.580769 
L 265.734848 342.500096 
L 281.681061 320.691398 
L 297.627273 271.996455 
L 313.573485 274.969769 
L 329.519697 303.837786 
L 345.465909 257.136464 
L 361.412121 288.071843 
L 377.358333 300.723574 
L 393.304545 280.71098 
L 409.250758 240.12352 
L 425.19697 290.002259 
L 441.143182 302.081186 
L 457.089394 303.376909 
L 473.035606 373.646161 
L 488.981818 324.65889 
L 504.92803 294.559674 
L 520.874242 352.099505 
L 536.820455 289.497928 
L 552.766667 347.82125 
L 568.712879 310.432277 
L 584.659091 322.021357 
L 600.605303 300.886856 
L 616.551515 349.567315 
L 632.497727 352.981755 
L 648.443939 235.803128 
L 664.390152 343.411315 
L 680.336364 311.614755 
L 696.282576 371.86981 
L 712.228788 250.989682 
L 728.175 238.879153 
L 744.121212 78.12 
L 760.067424 206.170056 
L 776.013636 295.977858 
L 791.959848 340.390596 
L 807.906061 238.859401 
L 823.852273 335.665949 
L 839.798485 368.859625 
L 855.744697 297.939877 
L 871.690909 337.260583 
" style="fill:none;stroke:#69d84f;stroke-linecap:square;stroke-width:1.5;"/>
    <defs>
     <path d="M 0 3 
C 0.795609 3 1.55874 2.683901 2.12132 2.12132 
C 2.683901 1.55874 3 0.795609 3 0 
C 3 -0.795609 2.683901 -1.55874 2.12132 -2.12132 
C 1.55874 -2.683901 0.795609 -3 0 -3 
C -0.795609 -3 -1.55874 -2.683901 -2.12132 -2.12132 
C -2.683901 -1.55874 -3 -0.795609 -3 0 
C -3 0.795609 -2.683901 1.55874 -2.12132 2.12132 
C -1.55874 2.683901 -0.795609 3 0 3 
z
" id="md600103e3d" style="stroke:#69d84f;"/>
    </defs>
    <g clip-path="url(#pd51ff57260)">
     <use style="fill:#69d84f;stroke:#69d84f;" x="170.057576" xlink:href="#md600103e3d" y="274.379847"/>
     <use style="fill:#69d84f;stroke:#69d84f;" x="186.003788" xlink:href="#md600103e3d" y="337.263217"/>
     <use style="fill:#69d84f;stroke:#69d84f;" x="201.95" xlink:href="#md600103e3d" y="424.002895"/>
     <use style="fill:#69d84f;stroke:#69d84f;" x="217.896212" xlink:href="#md600103e3d" y="361.548799"/>
     <use style="fill:#69d84f;stroke:#69d84f;" x="233.842424" xlink:href="#md600103e3d" y="321.613152"/>
     <use style="fill:#69d84f;stroke:#69d84f;" x="249.788636" xlink:href="#md600103e3d" y="339.580769"/>
     <use style="fill:#69d84f;stroke:#69d84f;" x="265.734848" xlink:href="#md600103e3d" y="342.500096"/>
     <use style="fill:#69d84f;stroke:#69d84f;" x="281.681061" xlink:href="#md600103e3d" y="320.691398"/>
     <use style="fill:#69d84f;stroke:#69d84f;" x="297.627273" xlink:href="#md600103e3d" y="271.996455"/>
     <use style="fill:#69d84f;stroke:#69d84f;" x="313.573485" xlink:href="#md600103e3d" y="274.969769"/>
     <use style="fill:#69d84f;stroke:#69d84f;" x="329.519697" xlink:href="#md600103e3d" y="303.837786"/>
     <use style="fill:#69d84f;stroke:#69d84f;" x="345.465909" xlink:href="#md600103e3d" y="257.136464"/>
     <use style="fill:#69d84f;stroke:#69d84f;" x="361.412121" xlink:href="#md600103e3d" y="288.071843"/>
     <use style="fill:#69d84f;stroke:#69d84f;" x="377.358333" xlink:href="#md600103e3d" y="300.723574"/>
     <use style="fill:#69d84f;stroke:#69d84f;" x="393.304545" xlink:href="#md600103e3d" y="280.71098"/>
     <use style="fill:#69d84f;stroke:#69d84f;" x="409.250758" xlink:href="#md600103e3d" y="240.12352"/>
     <use style="fill:#69d84f;stroke:#69d84f;" x="425.19697" xlink:href="#md600103e3d" y="290.002259"/>
     <use style="fill:#69d84f;stroke:#69d84f;" x="441.143182" xlink:href="#md600103e3d" y="302.081186"/>
     <use style="fill:#69d84f;stroke:#69d84f;" x="457.089394" xlink:href="#md600103e3d" y="303.376909"/>
     <use style="fill:#69d84f;stroke:#69d84f;" x="473.035606" xlink:href="#md600103e3d" y="373.646161"/>
     <use style="fill:#69d84f;stroke:#69d84f;" x="488.981818" xlink:href="#md600103e3d" y="324.65889"/>
     <use style="fill:#69d84f;stroke:#69d84f;" x="504.92803" xlink:href="#md600103e3d" y="294.559674"/>
     <use style="fill:#69d84f;stroke:#69d84f;" x="520.874242" xlink:href="#md600103e3d" y="352.099505"/>
     <use style="fill:#69d84f;stroke:#69d84f;" x="536.820455" xlink:href="#md600103e3d" y="289.497928"/>
     <use style="fill:#69d84f;stroke:#69d84f;" x="552.766667" xlink:href="#md600103e3d" y="347.82125"/>
     <use style="fill:#69d84f;stroke:#69d84f;" x="568.712879" xlink:href="#md600103e3d" y="310.432277"/>
     <use style="fill:#69d84f;stroke:#69d84f;" x="584.659091" xlink:href="#md600103e3d" y="322.021357"/>
     <use style="fill:#69d84f;stroke:#69d84f;" x="600.605303" xlink:href="#md600103e3d" y="300.886856"/>
     <use style="fill:#69d84f;stroke:#69d84f;" x="616.551515" xlink:href="#md600103e3d" y="349.567315"/>
     <use style="fill:#69d84f;stroke:#69d84f;" x="632.497727" xlink:href="#md600103e3d" y="352.981755"/>
     <use style="fill:#69d84f;stroke:#69d84f;" x="648.443939" xlink:href="#md600103e3d" y="235.803128"/>
     <use style="fill:#69d84f;stroke:#69d84f;" x="664.390152" xlink:href="#md600103e3d" y="343.411315"/>
     <use style="fill:#69d84f;stroke:#69d84f;" x="680.336364" xlink:href="#md600103e3d" y="311.614755"/>
     <use style="fill:#69d84f;stroke:#69d84f;" x="696.282576" xlink:href="#md600103e3d" y="371.86981"/>
     <use style="fill:#69d84f;stroke:#69d84f;" x="712.228788" xlink:href="#md600103e3d" y="250.989682"/>
     <use style="fill:#69d84f;stroke:#69d84f;" x="728.175" xlink:href="#md600103e3d" y="238.879153"/>
     <use style="fill:#69d84f;stroke:#69d84f;" x="744.121212" xlink:href="#md600103e3d" y="78.12"/>
     <use style="fill:#69d84f;stroke:#69d84f;" x="760.067424" xlink:href="#md600103e3d" y="206.170056"/>
     <use style="fill:#69d84f;stroke:#69d84f;" x="776.013636" xlink:href="#md600103e3d" y="295.977858"/>
     <use style="fill:#69d84f;stroke:#69d84f;" x="791.959848" xlink:href="#md600103e3d" y="340.390596"/>
     <use style="fill:#69d84f;stroke:#69d84f;" x="807.906061" xlink:href="#md600103e3d" y="238.859401"/>
     <use style="fill:#69d84f;stroke:#69d84f;" x="823.852273" xlink:href="#md600103e3d" y="335.665949"/>
     <use style="fill:#69d84f;stroke:#69d84f;" x="839.798485" xlink:href="#md600103e3d" y="368.859625"/>
     <use style="fill:#69d84f;stroke:#69d84f;" x="855.744697" xlink:href="#md600103e3d" y="297.939877"/>
     <use style="fill:#69d84f;stroke:#69d84f;" x="871.690909" xlink:href="#md600103e3d" y="337.260583"/>
    </g>
   </g>
   <g id="patch_3">
    <path d="M 126 448.56 
L 126 60.48 
" style="fill:none;stroke:#000000;stroke-linecap:square;stroke-linejoin:miter;stroke-width:0.8;"/>
   </g>
   <g id="patch_4">
    <path d="M 907.2 448.56 
L 907.2 60.48 
" style="fill:none;stroke:#000000;stroke-linecap:square;stroke-linejoin:miter;stroke-width:0.8;"/>
   </g>
   <g id="patch_5">
    <path d="M 126 448.56 
L 907.2 448.56 
" style="fill:none;stroke:#000000;stroke-linecap:square;stroke-linejoin:miter;stroke-width:0.8;"/>
   </g>
   <g id="patch_6">
    <path d="M 126 60.48 
L 907.2 60.48 
" style="fill:none;stroke:#000000;stroke-linecap:square;stroke-linejoin:miter;stroke-width:0.8;"/>
   </g>
  </g>
  <g id="text_15">
   <!-- GFI for the chunks of size 20 of document -->
   <defs>
    <path d="M 9.421875 54.6875 
L 18.40625 54.6875 
L 18.40625 0 
L 9.421875 0 
z
M 9.421875 75.984375 
L 18.40625 75.984375 
L 18.40625 64.59375 
L 9.421875 64.59375 
z
" id="DejaVuSans-69"/>
    <path d="M 5.515625 54.6875 
L 48.1875 54.6875 
L 48.1875 46.484375 
L 14.40625 7.171875 
L 48.1875 7.171875 
L 48.1875 0 
L 4.296875 0 
L 4.296875 8.203125 
L 38.09375 47.515625 
L 5.515625 47.515625 
z
" id="DejaVuSans-7a"/>
   </defs>
   <g transform="translate(357.424375 20.717812)scale(0.14 -0.14)">
    <use xlink:href="#DejaVuSans-47"/>
    <use x="77.490234" xlink:href="#DejaVuSans-46"/>
    <use x="135.009766" xlink:href="#DejaVuSans-49"/>
    <use x="164.501953" xlink:href="#DejaVuSans-20"/>
    <use x="196.289062" xlink:href="#DejaVuSans-66"/>
    <use x="231.494141" xlink:href="#DejaVuSans-6f"/>
    <use x="292.675781" xlink:href="#DejaVuSans-72"/>
    <use x="333.789062" xlink:href="#DejaVuSans-20"/>
    <use x="365.576172" xlink:href="#DejaVuSans-74"/>
    <use x="404.785156" xlink:href="#DejaVuSans-68"/>
    <use x="468.164062" xlink:href="#DejaVuSans-65"/>
    <use x="529.6875" xlink:href="#DejaVuSans-20"/>
    <use x="561.474609" xlink:href="#DejaVuSans-63"/>
    <use x="616.455078" xlink:href="#DejaVuSans-68"/>
    <use x="679.833984" xlink:href="#DejaVuSans-75"/>
    <use x="743.212891" xlink:href="#DejaVuSans-6e"/>
    <use x="806.591797" xlink:href="#DejaVuSans-6b"/>
    <use x="864.501953" xlink:href="#DejaVuSans-73"/>
    <use x="916.601562" xlink:href="#DejaVuSans-20"/>
    <use x="948.388672" xlink:href="#DejaVuSans-6f"/>
    <use x="1009.570312" xlink:href="#DejaVuSans-66"/>
    <use x="1044.775391" xlink:href="#DejaVuSans-20"/>
    <use x="1076.5625" xlink:href="#DejaVuSans-73"/>
    <use x="1128.662109" xlink:href="#DejaVuSans-69"/>
    <use x="1156.445312" xlink:href="#DejaVuSans-7a"/>
    <use x="1208.935547" xlink:href="#DejaVuSans-65"/>
    <use x="1270.458984" xlink:href="#DejaVuSans-20"/>
    <use x="1302.246094" xlink:href="#DejaVuSans-32"/>
    <use x="1365.869141" xlink:href="#DejaVuSans-30"/>
    <use x="1429.492188" xlink:href="#DejaVuSans-20"/>
    <use x="1461.279297" xlink:href="#DejaVuSans-6f"/>
    <use x="1522.460938" xlink:href="#DejaVuSans-66"/>
    <use x="1557.666016" xlink:href="#DejaVuSans-20"/>
    <use x="1589.453125" xlink:href="#DejaVuSans-64"/>
    <use x="1652.929688" xlink:href="#DejaVuSans-6f"/>
    <use x="1714.111328" xlink:href="#DejaVuSans-63"/>
    <use x="1769.091797" xlink:href="#DejaVuSans-75"/>
    <use x="1832.470703" xlink:href="#DejaVuSans-6d"/>
    <use x="1929.882812" xlink:href="#DejaVuSans-65"/>
    <use x="1991.40625" xlink:href="#DejaVuSans-6e"/>
    <use x="2054.785156" xlink:href="#DejaVuSans-74"/>
   </g>
  </g>
 </g>
 <defs>
  <clipPath id="pd51ff57260">
   <rect height="388.08" width="781.2" x="126" y="60.48"/>
  </clipPath>
 </defs>
</svg>
