<?xml version="1.0" encoding="utf-8" standalone="no"?>
<!DOCTYPE svg PUBLIC "-//W3C//DTD SVG 1.1//EN"
  "http://www.w3.org/Graphics/SVG/1.1/DTD/svg11.dtd">
<!-- Created with matplotlib (http://matplotlib.org/) -->
<svg height="504pt" version="1.1" viewBox="0 0 1008 504" width="1008pt" xmlns="http://www.w3.org/2000/svg" xmlns:xlink="http://www.w3.org/1999/xlink">
 <defs>
  <style type="text/css">
*{stroke-linecap:butt;stroke-linejoin:round;}
  </style>
 </defs>
 <g id="figure_1">
  <g id="patch_1">
   <path d="M 0 504 
L 1008 504 
L 1008 0 
L 0 0 
z
" style="fill:#ffffff;"/>
  </g>
  <g id="axes_1">
   <g id="patch_2">
    <path d="M 126 448.56 
L 907.2 448.56 
L 907.2 60.48 
L 126 60.48 
z
" style="fill:#ffffff;"/>
   </g>
   <g id="matplotlib.axis_1">
    <g id="xtick_1">
     <g id="line2d_1">
      <defs>
       <path d="M 0 0 
L 0 3.5 
" id="m4ca82967ae" style="stroke:#000000;stroke-width:0.8;"/>
      </defs>
      <g>
       <use style="stroke:#000000;stroke-width:0.8;" x="150.236364" xlink:href="#m4ca82967ae" y="448.56"/>
      </g>
     </g>
     <g id="text_1">
      <!-- 0 -->
      <defs>
       <path d="M 31.78125 66.40625 
Q 24.171875 66.40625 20.328125 58.90625 
Q 16.5 51.421875 16.5 36.375 
Q 16.5 21.390625 20.328125 13.890625 
Q 24.171875 6.390625 31.78125 6.390625 
Q 39.453125 6.390625 43.28125 13.890625 
Q 47.125 21.390625 47.125 36.375 
Q 47.125 51.421875 43.28125 58.90625 
Q 39.453125 66.40625 31.78125 66.40625 
z
M 31.78125 74.21875 
Q 44.046875 74.21875 50.515625 64.515625 
Q 56.984375 54.828125 56.984375 36.375 
Q 56.984375 17.96875 50.515625 8.265625 
Q 44.046875 -1.421875 31.78125 -1.421875 
Q 19.53125 -1.421875 13.0625 8.265625 
Q 6.59375 17.96875 6.59375 36.375 
Q 6.59375 54.828125 13.0625 64.515625 
Q 19.53125 74.21875 31.78125 74.21875 
z
" id="DejaVuSans-30"/>
      </defs>
      <g transform="translate(147.055114 463.158437)scale(0.1 -0.1)">
       <use xlink:href="#DejaVuSans-30"/>
      </g>
     </g>
    </g>
    <g id="xtick_2">
     <g id="line2d_2">
      <g>
       <use style="stroke:#000000;stroke-width:0.8;" x="294.527273" xlink:href="#m4ca82967ae" y="448.56"/>
      </g>
     </g>
     <g id="text_2">
      <!-- 20 -->
      <defs>
       <path d="M 19.1875 8.296875 
L 53.609375 8.296875 
L 53.609375 0 
L 7.328125 0 
L 7.328125 8.296875 
Q 12.9375 14.109375 22.625 23.890625 
Q 32.328125 33.6875 34.8125 36.53125 
Q 39.546875 41.84375 41.421875 45.53125 
Q 43.3125 49.21875 43.3125 52.78125 
Q 43.3125 58.59375 39.234375 62.25 
Q 35.15625 65.921875 28.609375 65.921875 
Q 23.96875 65.921875 18.8125 64.3125 
Q 13.671875 62.703125 7.8125 59.421875 
L 7.8125 69.390625 
Q 13.765625 71.78125 18.9375 73 
Q 24.125 74.21875 28.421875 74.21875 
Q 39.75 74.21875 46.484375 68.546875 
Q 53.21875 62.890625 53.21875 53.421875 
Q 53.21875 48.921875 51.53125 44.890625 
Q 49.859375 40.875 45.40625 35.40625 
Q 44.1875 33.984375 37.640625 27.21875 
Q 31.109375 20.453125 19.1875 8.296875 
z
" id="DejaVuSans-32"/>
      </defs>
      <g transform="translate(288.164773 463.158437)scale(0.1 -0.1)">
       <use xlink:href="#DejaVuSans-32"/>
       <use x="63.623047" xlink:href="#DejaVuSans-30"/>
      </g>
     </g>
    </g>
    <g id="xtick_3">
     <g id="line2d_3">
      <g>
       <use style="stroke:#000000;stroke-width:0.8;" x="438.818182" xlink:href="#m4ca82967ae" y="448.56"/>
      </g>
     </g>
     <g id="text_3">
      <!-- 40 -->
      <defs>
       <path d="M 37.796875 64.3125 
L 12.890625 25.390625 
L 37.796875 25.390625 
z
M 35.203125 72.90625 
L 47.609375 72.90625 
L 47.609375 25.390625 
L 58.015625 25.390625 
L 58.015625 17.1875 
L 47.609375 17.1875 
L 47.609375 0 
L 37.796875 0 
L 37.796875 17.1875 
L 4.890625 17.1875 
L 4.890625 26.703125 
z
" id="DejaVuSans-34"/>
      </defs>
      <g transform="translate(432.455682 463.158437)scale(0.1 -0.1)">
       <use xlink:href="#DejaVuSans-34"/>
       <use x="63.623047" xlink:href="#DejaVuSans-30"/>
      </g>
     </g>
    </g>
    <g id="xtick_4">
     <g id="line2d_4">
      <g>
       <use style="stroke:#000000;stroke-width:0.8;" x="583.109091" xlink:href="#m4ca82967ae" y="448.56"/>
      </g>
     </g>
     <g id="text_4">
      <!-- 60 -->
      <defs>
       <path d="M 33.015625 40.375 
Q 26.375 40.375 22.484375 35.828125 
Q 18.609375 31.296875 18.609375 23.390625 
Q 18.609375 15.53125 22.484375 10.953125 
Q 26.375 6.390625 33.015625 6.390625 
Q 39.65625 6.390625 43.53125 10.953125 
Q 47.40625 15.53125 47.40625 23.390625 
Q 47.40625 31.296875 43.53125 35.828125 
Q 39.65625 40.375 33.015625 40.375 
z
M 52.59375 71.296875 
L 52.59375 62.3125 
Q 48.875 64.0625 45.09375 64.984375 
Q 41.3125 65.921875 37.59375 65.921875 
Q 27.828125 65.921875 22.671875 59.328125 
Q 17.53125 52.734375 16.796875 39.40625 
Q 19.671875 43.65625 24.015625 45.921875 
Q 28.375 48.1875 33.59375 48.1875 
Q 44.578125 48.1875 50.953125 41.515625 
Q 57.328125 34.859375 57.328125 23.390625 
Q 57.328125 12.15625 50.6875 5.359375 
Q 44.046875 -1.421875 33.015625 -1.421875 
Q 20.359375 -1.421875 13.671875 8.265625 
Q 6.984375 17.96875 6.984375 36.375 
Q 6.984375 53.65625 15.1875 63.9375 
Q 23.390625 74.21875 37.203125 74.21875 
Q 40.921875 74.21875 44.703125 73.484375 
Q 48.484375 72.75 52.59375 71.296875 
z
" id="DejaVuSans-36"/>
      </defs>
      <g transform="translate(576.746591 463.158437)scale(0.1 -0.1)">
       <use xlink:href="#DejaVuSans-36"/>
       <use x="63.623047" xlink:href="#DejaVuSans-30"/>
      </g>
     </g>
    </g>
    <g id="xtick_5">
     <g id="line2d_5">
      <g>
       <use style="stroke:#000000;stroke-width:0.8;" x="727.4" xlink:href="#m4ca82967ae" y="448.56"/>
      </g>
     </g>
     <g id="text_5">
      <!-- 80 -->
      <defs>
       <path d="M 31.78125 34.625 
Q 24.75 34.625 20.71875 30.859375 
Q 16.703125 27.09375 16.703125 20.515625 
Q 16.703125 13.921875 20.71875 10.15625 
Q 24.75 6.390625 31.78125 6.390625 
Q 38.8125 6.390625 42.859375 10.171875 
Q 46.921875 13.96875 46.921875 20.515625 
Q 46.921875 27.09375 42.890625 30.859375 
Q 38.875 34.625 31.78125 34.625 
z
M 21.921875 38.8125 
Q 15.578125 40.375 12.03125 44.71875 
Q 8.5 49.078125 8.5 55.328125 
Q 8.5 64.0625 14.71875 69.140625 
Q 20.953125 74.21875 31.78125 74.21875 
Q 42.671875 74.21875 48.875 69.140625 
Q 55.078125 64.0625 55.078125 55.328125 
Q 55.078125 49.078125 51.53125 44.71875 
Q 48 40.375 41.703125 38.8125 
Q 48.828125 37.15625 52.796875 32.3125 
Q 56.78125 27.484375 56.78125 20.515625 
Q 56.78125 9.90625 50.3125 4.234375 
Q 43.84375 -1.421875 31.78125 -1.421875 
Q 19.734375 -1.421875 13.25 4.234375 
Q 6.78125 9.90625 6.78125 20.515625 
Q 6.78125 27.484375 10.78125 32.3125 
Q 14.796875 37.15625 21.921875 38.8125 
z
M 18.3125 54.390625 
Q 18.3125 48.734375 21.84375 45.5625 
Q 25.390625 42.390625 31.78125 42.390625 
Q 38.140625 42.390625 41.71875 45.5625 
Q 45.3125 48.734375 45.3125 54.390625 
Q 45.3125 60.0625 41.71875 63.234375 
Q 38.140625 66.40625 31.78125 66.40625 
Q 25.390625 66.40625 21.84375 63.234375 
Q 18.3125 60.0625 18.3125 54.390625 
z
" id="DejaVuSans-38"/>
      </defs>
      <g transform="translate(721.0375 463.158437)scale(0.1 -0.1)">
       <use xlink:href="#DejaVuSans-38"/>
       <use x="63.623047" xlink:href="#DejaVuSans-30"/>
      </g>
     </g>
    </g>
    <g id="xtick_6">
     <g id="line2d_6">
      <g>
       <use style="stroke:#000000;stroke-width:0.8;" x="871.690909" xlink:href="#m4ca82967ae" y="448.56"/>
      </g>
     </g>
     <g id="text_6">
      <!-- 100 -->
      <defs>
       <path d="M 12.40625 8.296875 
L 28.515625 8.296875 
L 28.515625 63.921875 
L 10.984375 60.40625 
L 10.984375 69.390625 
L 28.421875 72.90625 
L 38.28125 72.90625 
L 38.28125 8.296875 
L 54.390625 8.296875 
L 54.390625 0 
L 12.40625 0 
z
" id="DejaVuSans-31"/>
      </defs>
      <g transform="translate(862.147159 463.158437)scale(0.1 -0.1)">
       <use xlink:href="#DejaVuSans-31"/>
       <use x="63.623047" xlink:href="#DejaVuSans-30"/>
       <use x="127.246094" xlink:href="#DejaVuSans-30"/>
      </g>
     </g>
    </g>
    <g id="text_7">
     <!-- document's percentage of the chunk's end -->
     <defs>
      <path d="M 45.40625 46.390625 
L 45.40625 75.984375 
L 54.390625 75.984375 
L 54.390625 0 
L 45.40625 0 
L 45.40625 8.203125 
Q 42.578125 3.328125 38.25 0.953125 
Q 33.9375 -1.421875 27.875 -1.421875 
Q 17.96875 -1.421875 11.734375 6.484375 
Q 5.515625 14.40625 5.515625 27.296875 
Q 5.515625 40.1875 11.734375 48.09375 
Q 17.96875 56 27.875 56 
Q 33.9375 56 38.25 53.625 
Q 42.578125 51.265625 45.40625 46.390625 
z
M 14.796875 27.296875 
Q 14.796875 17.390625 18.875 11.75 
Q 22.953125 6.109375 30.078125 6.109375 
Q 37.203125 6.109375 41.296875 11.75 
Q 45.40625 17.390625 45.40625 27.296875 
Q 45.40625 37.203125 41.296875 42.84375 
Q 37.203125 48.484375 30.078125 48.484375 
Q 22.953125 48.484375 18.875 42.84375 
Q 14.796875 37.203125 14.796875 27.296875 
z
" id="DejaVuSans-64"/>
      <path d="M 30.609375 48.390625 
Q 23.390625 48.390625 19.1875 42.75 
Q 14.984375 37.109375 14.984375 27.296875 
Q 14.984375 17.484375 19.15625 11.84375 
Q 23.34375 6.203125 30.609375 6.203125 
Q 37.796875 6.203125 41.984375 11.859375 
Q 46.1875 17.53125 46.1875 27.296875 
Q 46.1875 37.015625 41.984375 42.703125 
Q 37.796875 48.390625 30.609375 48.390625 
z
M 30.609375 56 
Q 42.328125 56 49.015625 48.375 
Q 55.71875 40.765625 55.71875 27.296875 
Q 55.71875 13.875 49.015625 6.21875 
Q 42.328125 -1.421875 30.609375 -1.421875 
Q 18.84375 -1.421875 12.171875 6.21875 
Q 5.515625 13.875 5.515625 27.296875 
Q 5.515625 40.765625 12.171875 48.375 
Q 18.84375 56 30.609375 56 
z
" id="DejaVuSans-6f"/>
      <path d="M 48.78125 52.59375 
L 48.78125 44.1875 
Q 44.96875 46.296875 41.140625 47.34375 
Q 37.3125 48.390625 33.40625 48.390625 
Q 24.65625 48.390625 19.8125 42.84375 
Q 14.984375 37.3125 14.984375 27.296875 
Q 14.984375 17.28125 19.8125 11.734375 
Q 24.65625 6.203125 33.40625 6.203125 
Q 37.3125 6.203125 41.140625 7.25 
Q 44.96875 8.296875 48.78125 10.40625 
L 48.78125 2.09375 
Q 45.015625 0.34375 40.984375 -0.53125 
Q 36.96875 -1.421875 32.421875 -1.421875 
Q 20.0625 -1.421875 12.78125 6.34375 
Q 5.515625 14.109375 5.515625 27.296875 
Q 5.515625 40.671875 12.859375 48.328125 
Q 20.21875 56 33.015625 56 
Q 37.15625 56 41.109375 55.140625 
Q 45.0625 54.296875 48.78125 52.59375 
z
" id="DejaVuSans-63"/>
      <path d="M 8.5 21.578125 
L 8.5 54.6875 
L 17.484375 54.6875 
L 17.484375 21.921875 
Q 17.484375 14.15625 20.5 10.265625 
Q 23.53125 6.390625 29.59375 6.390625 
Q 36.859375 6.390625 41.078125 11.03125 
Q 45.3125 15.671875 45.3125 23.6875 
L 45.3125 54.6875 
L 54.296875 54.6875 
L 54.296875 0 
L 45.3125 0 
L 45.3125 8.40625 
Q 42.046875 3.421875 37.71875 1 
Q 33.40625 -1.421875 27.6875 -1.421875 
Q 18.265625 -1.421875 13.375 4.4375 
Q 8.5 10.296875 8.5 21.578125 
z
M 31.109375 56 
z
" id="DejaVuSans-75"/>
      <path d="M 52 44.1875 
Q 55.375 50.25 60.0625 53.125 
Q 64.75 56 71.09375 56 
Q 79.640625 56 84.28125 50.015625 
Q 88.921875 44.046875 88.921875 33.015625 
L 88.921875 0 
L 79.890625 0 
L 79.890625 32.71875 
Q 79.890625 40.578125 77.09375 44.375 
Q 74.3125 48.1875 68.609375 48.1875 
Q 61.625 48.1875 57.5625 43.546875 
Q 53.515625 38.921875 53.515625 30.90625 
L 53.515625 0 
L 44.484375 0 
L 44.484375 32.71875 
Q 44.484375 40.625 41.703125 44.40625 
Q 38.921875 48.1875 33.109375 48.1875 
Q 26.21875 48.1875 22.15625 43.53125 
Q 18.109375 38.875 18.109375 30.90625 
L 18.109375 0 
L 9.078125 0 
L 9.078125 54.6875 
L 18.109375 54.6875 
L 18.109375 46.1875 
Q 21.1875 51.21875 25.484375 53.609375 
Q 29.78125 56 35.6875 56 
Q 41.65625 56 45.828125 52.96875 
Q 50 49.953125 52 44.1875 
z
" id="DejaVuSans-6d"/>
      <path d="M 56.203125 29.59375 
L 56.203125 25.203125 
L 14.890625 25.203125 
Q 15.484375 15.921875 20.484375 11.0625 
Q 25.484375 6.203125 34.421875 6.203125 
Q 39.59375 6.203125 44.453125 7.46875 
Q 49.3125 8.734375 54.109375 11.28125 
L 54.109375 2.78125 
Q 49.265625 0.734375 44.1875 -0.34375 
Q 39.109375 -1.421875 33.890625 -1.421875 
Q 20.796875 -1.421875 13.15625 6.1875 
Q 5.515625 13.8125 5.515625 26.8125 
Q 5.515625 40.234375 12.765625 48.109375 
Q 20.015625 56 32.328125 56 
Q 43.359375 56 49.78125 48.890625 
Q 56.203125 41.796875 56.203125 29.59375 
z
M 47.21875 32.234375 
Q 47.125 39.59375 43.09375 43.984375 
Q 39.0625 48.390625 32.421875 48.390625 
Q 24.90625 48.390625 20.390625 44.140625 
Q 15.875 39.890625 15.1875 32.171875 
z
" id="DejaVuSans-65"/>
      <path d="M 54.890625 33.015625 
L 54.890625 0 
L 45.90625 0 
L 45.90625 32.71875 
Q 45.90625 40.484375 42.875 44.328125 
Q 39.84375 48.1875 33.796875 48.1875 
Q 26.515625 48.1875 22.3125 43.546875 
Q 18.109375 38.921875 18.109375 30.90625 
L 18.109375 0 
L 9.078125 0 
L 9.078125 54.6875 
L 18.109375 54.6875 
L 18.109375 46.1875 
Q 21.34375 51.125 25.703125 53.5625 
Q 30.078125 56 35.796875 56 
Q 45.21875 56 50.046875 50.171875 
Q 54.890625 44.34375 54.890625 33.015625 
z
" id="DejaVuSans-6e"/>
      <path d="M 18.3125 70.21875 
L 18.3125 54.6875 
L 36.8125 54.6875 
L 36.8125 47.703125 
L 18.3125 47.703125 
L 18.3125 18.015625 
Q 18.3125 11.328125 20.140625 9.421875 
Q 21.96875 7.515625 27.59375 7.515625 
L 36.8125 7.515625 
L 36.8125 0 
L 27.59375 0 
Q 17.1875 0 13.234375 3.875 
Q 9.28125 7.765625 9.28125 18.015625 
L 9.28125 47.703125 
L 2.6875 47.703125 
L 2.6875 54.6875 
L 9.28125 54.6875 
L 9.28125 70.21875 
z
" id="DejaVuSans-74"/>
      <path d="M 17.921875 72.90625 
L 17.921875 45.796875 
L 9.625 45.796875 
L 9.625 72.90625 
z
" id="DejaVuSans-27"/>
      <path d="M 44.28125 53.078125 
L 44.28125 44.578125 
Q 40.484375 46.53125 36.375 47.5 
Q 32.28125 48.484375 27.875 48.484375 
Q 21.1875 48.484375 17.84375 46.4375 
Q 14.5 44.390625 14.5 40.28125 
Q 14.5 37.15625 16.890625 35.375 
Q 19.28125 33.59375 26.515625 31.984375 
L 29.59375 31.296875 
Q 39.15625 29.25 43.1875 25.515625 
Q 47.21875 21.78125 47.21875 15.09375 
Q 47.21875 7.46875 41.1875 3.015625 
Q 35.15625 -1.421875 24.609375 -1.421875 
Q 20.21875 -1.421875 15.453125 -0.5625 
Q 10.6875 0.296875 5.421875 2 
L 5.421875 11.28125 
Q 10.40625 8.6875 15.234375 7.390625 
Q 20.0625 6.109375 24.8125 6.109375 
Q 31.15625 6.109375 34.5625 8.28125 
Q 37.984375 10.453125 37.984375 14.40625 
Q 37.984375 18.0625 35.515625 20.015625 
Q 33.0625 21.96875 24.703125 23.78125 
L 21.578125 24.515625 
Q 13.234375 26.265625 9.515625 29.90625 
Q 5.8125 33.546875 5.8125 39.890625 
Q 5.8125 47.609375 11.28125 51.796875 
Q 16.75 56 26.8125 56 
Q 31.78125 56 36.171875 55.265625 
Q 40.578125 54.546875 44.28125 53.078125 
z
" id="DejaVuSans-73"/>
      <path id="DejaVuSans-20"/>
      <path d="M 18.109375 8.203125 
L 18.109375 -20.796875 
L 9.078125 -20.796875 
L 9.078125 54.6875 
L 18.109375 54.6875 
L 18.109375 46.390625 
Q 20.953125 51.265625 25.265625 53.625 
Q 29.59375 56 35.59375 56 
Q 45.5625 56 51.78125 48.09375 
Q 58.015625 40.1875 58.015625 27.296875 
Q 58.015625 14.40625 51.78125 6.484375 
Q 45.5625 -1.421875 35.59375 -1.421875 
Q 29.59375 -1.421875 25.265625 0.953125 
Q 20.953125 3.328125 18.109375 8.203125 
z
M 48.6875 27.296875 
Q 48.6875 37.203125 44.609375 42.84375 
Q 40.53125 48.484375 33.40625 48.484375 
Q 26.265625 48.484375 22.1875 42.84375 
Q 18.109375 37.203125 18.109375 27.296875 
Q 18.109375 17.390625 22.1875 11.75 
Q 26.265625 6.109375 33.40625 6.109375 
Q 40.53125 6.109375 44.609375 11.75 
Q 48.6875 17.390625 48.6875 27.296875 
z
" id="DejaVuSans-70"/>
      <path d="M 41.109375 46.296875 
Q 39.59375 47.171875 37.8125 47.578125 
Q 36.03125 48 33.890625 48 
Q 26.265625 48 22.1875 43.046875 
Q 18.109375 38.09375 18.109375 28.8125 
L 18.109375 0 
L 9.078125 0 
L 9.078125 54.6875 
L 18.109375 54.6875 
L 18.109375 46.1875 
Q 20.953125 51.171875 25.484375 53.578125 
Q 30.03125 56 36.53125 56 
Q 37.453125 56 38.578125 55.875 
Q 39.703125 55.765625 41.0625 55.515625 
z
" id="DejaVuSans-72"/>
      <path d="M 34.28125 27.484375 
Q 23.390625 27.484375 19.1875 25 
Q 14.984375 22.515625 14.984375 16.5 
Q 14.984375 11.71875 18.140625 8.90625 
Q 21.296875 6.109375 26.703125 6.109375 
Q 34.1875 6.109375 38.703125 11.40625 
Q 43.21875 16.703125 43.21875 25.484375 
L 43.21875 27.484375 
z
M 52.203125 31.203125 
L 52.203125 0 
L 43.21875 0 
L 43.21875 8.296875 
Q 40.140625 3.328125 35.546875 0.953125 
Q 30.953125 -1.421875 24.3125 -1.421875 
Q 15.921875 -1.421875 10.953125 3.296875 
Q 6 8.015625 6 15.921875 
Q 6 25.140625 12.171875 29.828125 
Q 18.359375 34.515625 30.609375 34.515625 
L 43.21875 34.515625 
L 43.21875 35.40625 
Q 43.21875 41.609375 39.140625 45 
Q 35.0625 48.390625 27.6875 48.390625 
Q 23 48.390625 18.546875 47.265625 
Q 14.109375 46.140625 10.015625 43.890625 
L 10.015625 52.203125 
Q 14.9375 54.109375 19.578125 55.046875 
Q 24.21875 56 28.609375 56 
Q 40.484375 56 46.34375 49.84375 
Q 52.203125 43.703125 52.203125 31.203125 
z
" id="DejaVuSans-61"/>
      <path d="M 45.40625 27.984375 
Q 45.40625 37.75 41.375 43.109375 
Q 37.359375 48.484375 30.078125 48.484375 
Q 22.859375 48.484375 18.828125 43.109375 
Q 14.796875 37.75 14.796875 27.984375 
Q 14.796875 18.265625 18.828125 12.890625 
Q 22.859375 7.515625 30.078125 7.515625 
Q 37.359375 7.515625 41.375 12.890625 
Q 45.40625 18.265625 45.40625 27.984375 
z
M 54.390625 6.78125 
Q 54.390625 -7.171875 48.1875 -13.984375 
Q 42 -20.796875 29.203125 -20.796875 
Q 24.46875 -20.796875 20.265625 -20.09375 
Q 16.0625 -19.390625 12.109375 -17.921875 
L 12.109375 -9.1875 
Q 16.0625 -11.328125 19.921875 -12.34375 
Q 23.78125 -13.375 27.78125 -13.375 
Q 36.625 -13.375 41.015625 -8.765625 
Q 45.40625 -4.15625 45.40625 5.171875 
L 45.40625 9.625 
Q 42.625 4.78125 38.28125 2.390625 
Q 33.9375 0 27.875 0 
Q 17.828125 0 11.671875 7.65625 
Q 5.515625 15.328125 5.515625 27.984375 
Q 5.515625 40.671875 11.671875 48.328125 
Q 17.828125 56 27.875 56 
Q 33.9375 56 38.28125 53.609375 
Q 42.625 51.21875 45.40625 46.390625 
L 45.40625 54.6875 
L 54.390625 54.6875 
z
" id="DejaVuSans-67"/>
      <path d="M 37.109375 75.984375 
L 37.109375 68.5 
L 28.515625 68.5 
Q 23.6875 68.5 21.796875 66.546875 
Q 19.921875 64.59375 19.921875 59.515625 
L 19.921875 54.6875 
L 34.71875 54.6875 
L 34.71875 47.703125 
L 19.921875 47.703125 
L 19.921875 0 
L 10.890625 0 
L 10.890625 47.703125 
L 2.296875 47.703125 
L 2.296875 54.6875 
L 10.890625 54.6875 
L 10.890625 58.5 
Q 10.890625 67.625 15.140625 71.796875 
Q 19.390625 75.984375 28.609375 75.984375 
z
" id="DejaVuSans-66"/>
      <path d="M 54.890625 33.015625 
L 54.890625 0 
L 45.90625 0 
L 45.90625 32.71875 
Q 45.90625 40.484375 42.875 44.328125 
Q 39.84375 48.1875 33.796875 48.1875 
Q 26.515625 48.1875 22.3125 43.546875 
Q 18.109375 38.921875 18.109375 30.90625 
L 18.109375 0 
L 9.078125 0 
L 9.078125 75.984375 
L 18.109375 75.984375 
L 18.109375 46.1875 
Q 21.34375 51.125 25.703125 53.5625 
Q 30.078125 56 35.796875 56 
Q 45.21875 56 50.046875 50.171875 
Q 54.890625 44.34375 54.890625 33.015625 
z
" id="DejaVuSans-68"/>
      <path d="M 9.078125 75.984375 
L 18.109375 75.984375 
L 18.109375 31.109375 
L 44.921875 54.6875 
L 56.390625 54.6875 
L 27.390625 29.109375 
L 57.625 0 
L 45.90625 0 
L 18.109375 26.703125 
L 18.109375 0 
L 9.078125 0 
z
" id="DejaVuSans-6b"/>
     </defs>
     <g transform="translate(409.3 476.836563)scale(0.1 -0.1)">
      <use xlink:href="#DejaVuSans-64"/>
      <use x="63.476562" xlink:href="#DejaVuSans-6f"/>
      <use x="124.658203" xlink:href="#DejaVuSans-63"/>
      <use x="179.638672" xlink:href="#DejaVuSans-75"/>
      <use x="243.017578" xlink:href="#DejaVuSans-6d"/>
      <use x="340.429688" xlink:href="#DejaVuSans-65"/>
      <use x="401.953125" xlink:href="#DejaVuSans-6e"/>
      <use x="465.332031" xlink:href="#DejaVuSans-74"/>
      <use x="504.541016" xlink:href="#DejaVuSans-27"/>
      <use x="532.03125" xlink:href="#DejaVuSans-73"/>
      <use x="584.130859" xlink:href="#DejaVuSans-20"/>
      <use x="615.917969" xlink:href="#DejaVuSans-70"/>
      <use x="679.394531" xlink:href="#DejaVuSans-65"/>
      <use x="740.917969" xlink:href="#DejaVuSans-72"/>
      <use x="782" xlink:href="#DejaVuSans-63"/>
      <use x="836.980469" xlink:href="#DejaVuSans-65"/>
      <use x="898.503906" xlink:href="#DejaVuSans-6e"/>
      <use x="961.882812" xlink:href="#DejaVuSans-74"/>
      <use x="1001.091797" xlink:href="#DejaVuSans-61"/>
      <use x="1062.371094" xlink:href="#DejaVuSans-67"/>
      <use x="1125.847656" xlink:href="#DejaVuSans-65"/>
      <use x="1187.371094" xlink:href="#DejaVuSans-20"/>
      <use x="1219.158203" xlink:href="#DejaVuSans-6f"/>
      <use x="1280.339844" xlink:href="#DejaVuSans-66"/>
      <use x="1315.544922" xlink:href="#DejaVuSans-20"/>
      <use x="1347.332031" xlink:href="#DejaVuSans-74"/>
      <use x="1386.541016" xlink:href="#DejaVuSans-68"/>
      <use x="1449.919922" xlink:href="#DejaVuSans-65"/>
      <use x="1511.443359" xlink:href="#DejaVuSans-20"/>
      <use x="1543.230469" xlink:href="#DejaVuSans-63"/>
      <use x="1598.210938" xlink:href="#DejaVuSans-68"/>
      <use x="1661.589844" xlink:href="#DejaVuSans-75"/>
      <use x="1724.96875" xlink:href="#DejaVuSans-6e"/>
      <use x="1788.347656" xlink:href="#DejaVuSans-6b"/>
      <use x="1846.257812" xlink:href="#DejaVuSans-27"/>
      <use x="1873.748047" xlink:href="#DejaVuSans-73"/>
      <use x="1925.847656" xlink:href="#DejaVuSans-20"/>
      <use x="1957.634766" xlink:href="#DejaVuSans-65"/>
      <use x="2019.158203" xlink:href="#DejaVuSans-6e"/>
      <use x="2082.537109" xlink:href="#DejaVuSans-64"/>
     </g>
    </g>
   </g>
   <g id="matplotlib.axis_2">
    <g id="ytick_1">
     <g id="line2d_7">
      <defs>
       <path d="M 0 0 
L -3.5 0 
" id="m9f8dfa5bd3" style="stroke:#000000;stroke-width:0.8;"/>
      </defs>
      <g>
       <use style="stroke:#000000;stroke-width:0.8;" x="126" xlink:href="#m9f8dfa5bd3" y="395.860437"/>
      </g>
     </g>
     <g id="text_8">
      <!-- 10 -->
      <g transform="translate(106.275 399.659655)scale(0.1 -0.1)">
       <use xlink:href="#DejaVuSans-31"/>
       <use x="63.623047" xlink:href="#DejaVuSans-30"/>
      </g>
     </g>
    </g>
    <g id="ytick_2">
     <g id="line2d_8">
      <g>
       <use style="stroke:#000000;stroke-width:0.8;" x="126" xlink:href="#m9f8dfa5bd3" y="324.336581"/>
      </g>
     </g>
     <g id="text_9">
      <!-- 15 -->
      <defs>
       <path d="M 10.796875 72.90625 
L 49.515625 72.90625 
L 49.515625 64.59375 
L 19.828125 64.59375 
L 19.828125 46.734375 
Q 21.96875 47.46875 24.109375 47.828125 
Q 26.265625 48.1875 28.421875 48.1875 
Q 40.625 48.1875 47.75 41.5 
Q 54.890625 34.8125 54.890625 23.390625 
Q 54.890625 11.625 47.5625 5.09375 
Q 40.234375 -1.421875 26.90625 -1.421875 
Q 22.3125 -1.421875 17.546875 -0.640625 
Q 12.796875 0.140625 7.71875 1.703125 
L 7.71875 11.625 
Q 12.109375 9.234375 16.796875 8.0625 
Q 21.484375 6.890625 26.703125 6.890625 
Q 35.15625 6.890625 40.078125 11.328125 
Q 45.015625 15.765625 45.015625 23.390625 
Q 45.015625 31 40.078125 35.4375 
Q 35.15625 39.890625 26.703125 39.890625 
Q 22.75 39.890625 18.8125 39.015625 
Q 14.890625 38.140625 10.796875 36.28125 
z
" id="DejaVuSans-35"/>
      </defs>
      <g transform="translate(106.275 328.1358)scale(0.1 -0.1)">
       <use xlink:href="#DejaVuSans-31"/>
       <use x="63.623047" xlink:href="#DejaVuSans-35"/>
      </g>
     </g>
    </g>
    <g id="ytick_3">
     <g id="line2d_9">
      <g>
       <use style="stroke:#000000;stroke-width:0.8;" x="126" xlink:href="#m9f8dfa5bd3" y="252.812726"/>
      </g>
     </g>
     <g id="text_10">
      <!-- 20 -->
      <g transform="translate(106.275 256.611944)scale(0.1 -0.1)">
       <use xlink:href="#DejaVuSans-32"/>
       <use x="63.623047" xlink:href="#DejaVuSans-30"/>
      </g>
     </g>
    </g>
    <g id="ytick_4">
     <g id="line2d_10">
      <g>
       <use style="stroke:#000000;stroke-width:0.8;" x="126" xlink:href="#m9f8dfa5bd3" y="181.28887"/>
      </g>
     </g>
     <g id="text_11">
      <!-- 25 -->
      <g transform="translate(106.275 185.088089)scale(0.1 -0.1)">
       <use xlink:href="#DejaVuSans-32"/>
       <use x="63.623047" xlink:href="#DejaVuSans-35"/>
      </g>
     </g>
    </g>
    <g id="ytick_5">
     <g id="line2d_11">
      <g>
       <use style="stroke:#000000;stroke-width:0.8;" x="126" xlink:href="#m9f8dfa5bd3" y="109.765015"/>
      </g>
     </g>
     <g id="text_12">
      <!-- 30 -->
      <defs>
       <path d="M 40.578125 39.3125 
Q 47.65625 37.796875 51.625 33 
Q 55.609375 28.21875 55.609375 21.1875 
Q 55.609375 10.40625 48.1875 4.484375 
Q 40.765625 -1.421875 27.09375 -1.421875 
Q 22.515625 -1.421875 17.65625 -0.515625 
Q 12.796875 0.390625 7.625 2.203125 
L 7.625 11.71875 
Q 11.71875 9.328125 16.59375 8.109375 
Q 21.484375 6.890625 26.8125 6.890625 
Q 36.078125 6.890625 40.9375 10.546875 
Q 45.796875 14.203125 45.796875 21.1875 
Q 45.796875 27.640625 41.28125 31.265625 
Q 36.765625 34.90625 28.71875 34.90625 
L 20.21875 34.90625 
L 20.21875 43.015625 
L 29.109375 43.015625 
Q 36.375 43.015625 40.234375 45.921875 
Q 44.09375 48.828125 44.09375 54.296875 
Q 44.09375 59.90625 40.109375 62.90625 
Q 36.140625 65.921875 28.71875 65.921875 
Q 24.65625 65.921875 20.015625 65.03125 
Q 15.375 64.15625 9.8125 62.3125 
L 9.8125 71.09375 
Q 15.4375 72.65625 20.34375 73.4375 
Q 25.25 74.21875 29.59375 74.21875 
Q 40.828125 74.21875 47.359375 69.109375 
Q 53.90625 64.015625 53.90625 55.328125 
Q 53.90625 49.265625 50.4375 45.09375 
Q 46.96875 40.921875 40.578125 39.3125 
z
" id="DejaVuSans-33"/>
      </defs>
      <g transform="translate(106.275 113.564233)scale(0.1 -0.1)">
       <use xlink:href="#DejaVuSans-33"/>
       <use x="63.623047" xlink:href="#DejaVuSans-30"/>
      </g>
     </g>
    </g>
    <g id="text_13">
     <!-- GFI -->
     <defs>
      <path d="M 59.515625 10.40625 
L 59.515625 29.984375 
L 43.40625 29.984375 
L 43.40625 38.09375 
L 69.28125 38.09375 
L 69.28125 6.78125 
Q 63.578125 2.734375 56.6875 0.65625 
Q 49.8125 -1.421875 42 -1.421875 
Q 24.90625 -1.421875 15.25 8.5625 
Q 5.609375 18.5625 5.609375 36.375 
Q 5.609375 54.25 15.25 64.234375 
Q 24.90625 74.21875 42 74.21875 
Q 49.125 74.21875 55.546875 72.453125 
Q 61.96875 70.703125 67.390625 67.28125 
L 67.390625 56.78125 
Q 61.921875 61.421875 55.765625 63.765625 
Q 49.609375 66.109375 42.828125 66.109375 
Q 29.4375 66.109375 22.71875 58.640625 
Q 16.015625 51.171875 16.015625 36.375 
Q 16.015625 21.625 22.71875 14.15625 
Q 29.4375 6.6875 42.828125 6.6875 
Q 48.046875 6.6875 52.140625 7.59375 
Q 56.25 8.5 59.515625 10.40625 
z
" id="DejaVuSans-47"/>
      <path d="M 9.8125 72.90625 
L 51.703125 72.90625 
L 51.703125 64.59375 
L 19.671875 64.59375 
L 19.671875 43.109375 
L 48.578125 43.109375 
L 48.578125 34.8125 
L 19.671875 34.8125 
L 19.671875 0 
L 9.8125 0 
z
" id="DejaVuSans-46"/>
      <path d="M 9.8125 72.90625 
L 19.671875 72.90625 
L 19.671875 0 
L 9.8125 0 
z
" id="DejaVuSans-49"/>
     </defs>
     <g transform="translate(100.195312 262.745)rotate(-90)scale(0.1 -0.1)">
      <use xlink:href="#DejaVuSans-47"/>
      <use x="77.490234" xlink:href="#DejaVuSans-46"/>
      <use x="135.009766" xlink:href="#DejaVuSans-49"/>
     </g>
    </g>
   </g>
   <g id="line2d_12">
    <path clip-path="url(#p3d5c88fe8c)" d="M 215.82314 261.002207 
L 281.409917 260.271233 
L 346.996694 270.271699 
L 412.583471 272.743563 
L 478.170248 357.814037 
L 543.757025 305.920619 
L 609.343802 297.343478 
L 674.930579 270.51488 
L 740.517355 296.725512 
L 806.104132 289.234103 
L 871.690909 293.087809 
" style="fill:none;stroke:#acc2d9;stroke-linecap:square;stroke-width:1.5;"/>
    <defs>
     <path d="M 0 3 
C 0.795609 3 1.55874 2.683901 2.12132 2.12132 
C 2.683901 1.55874 3 0.795609 3 0 
C 3 -0.795609 2.683901 -1.55874 2.12132 -2.12132 
C 1.55874 -2.683901 0.795609 -3 0 -3 
C -0.795609 -3 -1.55874 -2.683901 -2.12132 -2.12132 
C -2.683901 -1.55874 -3 -0.795609 -3 0 
C -3 0.795609 -2.683901 1.55874 -2.12132 2.12132 
C -1.55874 2.683901 -0.795609 3 0 3 
z
" id="m3dbfaa0fde" style="stroke:#acc2d9;"/>
    </defs>
    <g clip-path="url(#p3d5c88fe8c)">
     <use style="fill:#acc2d9;stroke:#acc2d9;" x="215.82314" xlink:href="#m3dbfaa0fde" y="261.002207"/>
     <use style="fill:#acc2d9;stroke:#acc2d9;" x="281.409917" xlink:href="#m3dbfaa0fde" y="260.271233"/>
     <use style="fill:#acc2d9;stroke:#acc2d9;" x="346.996694" xlink:href="#m3dbfaa0fde" y="270.271699"/>
     <use style="fill:#acc2d9;stroke:#acc2d9;" x="412.583471" xlink:href="#m3dbfaa0fde" y="272.743563"/>
     <use style="fill:#acc2d9;stroke:#acc2d9;" x="478.170248" xlink:href="#m3dbfaa0fde" y="357.814037"/>
     <use style="fill:#acc2d9;stroke:#acc2d9;" x="543.757025" xlink:href="#m3dbfaa0fde" y="305.920619"/>
     <use style="fill:#acc2d9;stroke:#acc2d9;" x="609.343802" xlink:href="#m3dbfaa0fde" y="297.343478"/>
     <use style="fill:#acc2d9;stroke:#acc2d9;" x="674.930579" xlink:href="#m3dbfaa0fde" y="270.51488"/>
     <use style="fill:#acc2d9;stroke:#acc2d9;" x="740.517355" xlink:href="#m3dbfaa0fde" y="296.725512"/>
     <use style="fill:#acc2d9;stroke:#acc2d9;" x="806.104132" xlink:href="#m3dbfaa0fde" y="289.234103"/>
     <use style="fill:#acc2d9;stroke:#acc2d9;" x="871.690909" xlink:href="#m3dbfaa0fde" y="293.087809"/>
    </g>
   </g>
   <g id="line2d_13">
    <path clip-path="url(#p3d5c88fe8c)" d="M 161.509091 273.188442 
L 172.781818 309.034767 
L 184.054545 331.179984 
L 195.327273 302.842232 
L 206.6 296.440847 
L 217.872727 335.321215 
L 229.145455 298.403462 
L 240.418182 305.920619 
L 251.690909 292.501313 
L 262.963636 291.208162 
L 274.236364 332.072601 
L 285.509091 289.690425 
L 296.781818 293.372474 
L 308.054545 366.023545 
L 319.327273 331.012618 
L 330.6 357.851229 
L 341.872727 339.003263 
L 353.145455 330.227286 
L 364.418182 326.174744 
L 375.690909 286.702159 
L 386.963636 342.259029 
L 398.236364 335.132392 
L 409.509091 387.351959 
L 420.781818 329.170163 
L 432.054545 306.116594 
L 443.327273 321.27393 
L 454.6 331.554769 
L 465.872727 349.242618 
L 477.145455 318.940821 
L 488.418182 349.630277 
L 499.690909 333.531688 
L 510.963636 344.140106 
L 522.236364 354.243566 
L 533.509091 339.302233 
L 544.781818 352.78591 
L 556.054545 343.22174 
L 567.327273 376.873714 
L 578.6 367.821655 
L 589.872727 367.803058 
L 601.145455 369.511048 
L 612.418182 374.301716 
L 623.690909 377.440183 
L 634.963636 369.287894 
L 646.236364 410.298242 
L 657.509091 384.38801 
L 668.781818 385.635386 
L 680.054545 365.633025 
L 691.327273 430.92 
L 702.6 399.638327 
L 713.872727 403.254573 
L 725.145455 379.458586 
L 736.418182 380.405562 
L 747.690909 369.413776 
L 758.963636 392.312853 
L 770.236364 369.249271 
L 781.509091 358.555024 
L 792.781818 351.236703 
L 804.054545 408.985064 
L 815.327273 382.734379 
L 826.6 366.78885 
L 837.872727 385.191938 
L 849.145455 344.709436 
L 860.418182 344.700853 
L 871.690909 359.26311 
" style="fill:none;stroke:#56ae57;stroke-linecap:square;stroke-width:1.5;"/>
    <defs>
     <path d="M 0 3 
C 0.795609 3 1.55874 2.683901 2.12132 2.12132 
C 2.683901 1.55874 3 0.795609 3 0 
C 3 -0.795609 2.683901 -1.55874 2.12132 -2.12132 
C 1.55874 -2.683901 0.795609 -3 0 -3 
C -0.795609 -3 -1.55874 -2.683901 -2.12132 -2.12132 
C -2.683901 -1.55874 -3 -0.795609 -3 0 
C -3 0.795609 -2.683901 1.55874 -2.12132 2.12132 
C -1.55874 2.683901 -0.795609 3 0 3 
z
" id="m47daedd9ac" style="stroke:#56ae57;"/>
    </defs>
    <g clip-path="url(#p3d5c88fe8c)">
     <use style="fill:#56ae57;stroke:#56ae57;" x="161.509091" xlink:href="#m47daedd9ac" y="273.188442"/>
     <use style="fill:#56ae57;stroke:#56ae57;" x="172.781818" xlink:href="#m47daedd9ac" y="309.034767"/>
     <use style="fill:#56ae57;stroke:#56ae57;" x="184.054545" xlink:href="#m47daedd9ac" y="331.179984"/>
     <use style="fill:#56ae57;stroke:#56ae57;" x="195.327273" xlink:href="#m47daedd9ac" y="302.842232"/>
     <use style="fill:#56ae57;stroke:#56ae57;" x="206.6" xlink:href="#m47daedd9ac" y="296.440847"/>
     <use style="fill:#56ae57;stroke:#56ae57;" x="217.872727" xlink:href="#m47daedd9ac" y="335.321215"/>
     <use style="fill:#56ae57;stroke:#56ae57;" x="229.145455" xlink:href="#m47daedd9ac" y="298.403462"/>
     <use style="fill:#56ae57;stroke:#56ae57;" x="240.418182" xlink:href="#m47daedd9ac" y="305.920619"/>
     <use style="fill:#56ae57;stroke:#56ae57;" x="251.690909" xlink:href="#m47daedd9ac" y="292.501313"/>
     <use style="fill:#56ae57;stroke:#56ae57;" x="262.963636" xlink:href="#m47daedd9ac" y="291.208162"/>
     <use style="fill:#56ae57;stroke:#56ae57;" x="274.236364" xlink:href="#m47daedd9ac" y="332.072601"/>
     <use style="fill:#56ae57;stroke:#56ae57;" x="285.509091" xlink:href="#m47daedd9ac" y="289.690425"/>
     <use style="fill:#56ae57;stroke:#56ae57;" x="296.781818" xlink:href="#m47daedd9ac" y="293.372474"/>
     <use style="fill:#56ae57;stroke:#56ae57;" x="308.054545" xlink:href="#m47daedd9ac" y="366.023545"/>
     <use style="fill:#56ae57;stroke:#56ae57;" x="319.327273" xlink:href="#m47daedd9ac" y="331.012618"/>
     <use style="fill:#56ae57;stroke:#56ae57;" x="330.6" xlink:href="#m47daedd9ac" y="357.851229"/>
     <use style="fill:#56ae57;stroke:#56ae57;" x="341.872727" xlink:href="#m47daedd9ac" y="339.003263"/>
     <use style="fill:#56ae57;stroke:#56ae57;" x="353.145455" xlink:href="#m47daedd9ac" y="330.227286"/>
     <use style="fill:#56ae57;stroke:#56ae57;" x="364.418182" xlink:href="#m47daedd9ac" y="326.174744"/>
     <use style="fill:#56ae57;stroke:#56ae57;" x="375.690909" xlink:href="#m47daedd9ac" y="286.702159"/>
     <use style="fill:#56ae57;stroke:#56ae57;" x="386.963636" xlink:href="#m47daedd9ac" y="342.259029"/>
     <use style="fill:#56ae57;stroke:#56ae57;" x="398.236364" xlink:href="#m47daedd9ac" y="335.132392"/>
     <use style="fill:#56ae57;stroke:#56ae57;" x="409.509091" xlink:href="#m47daedd9ac" y="387.351959"/>
     <use style="fill:#56ae57;stroke:#56ae57;" x="420.781818" xlink:href="#m47daedd9ac" y="329.170163"/>
     <use style="fill:#56ae57;stroke:#56ae57;" x="432.054545" xlink:href="#m47daedd9ac" y="306.116594"/>
     <use style="fill:#56ae57;stroke:#56ae57;" x="443.327273" xlink:href="#m47daedd9ac" y="321.27393"/>
     <use style="fill:#56ae57;stroke:#56ae57;" x="454.6" xlink:href="#m47daedd9ac" y="331.554769"/>
     <use style="fill:#56ae57;stroke:#56ae57;" x="465.872727" xlink:href="#m47daedd9ac" y="349.242618"/>
     <use style="fill:#56ae57;stroke:#56ae57;" x="477.145455" xlink:href="#m47daedd9ac" y="318.940821"/>
     <use style="fill:#56ae57;stroke:#56ae57;" x="488.418182" xlink:href="#m47daedd9ac" y="349.630277"/>
     <use style="fill:#56ae57;stroke:#56ae57;" x="499.690909" xlink:href="#m47daedd9ac" y="333.531688"/>
     <use style="fill:#56ae57;stroke:#56ae57;" x="510.963636" xlink:href="#m47daedd9ac" y="344.140106"/>
     <use style="fill:#56ae57;stroke:#56ae57;" x="522.236364" xlink:href="#m47daedd9ac" y="354.243566"/>
     <use style="fill:#56ae57;stroke:#56ae57;" x="533.509091" xlink:href="#m47daedd9ac" y="339.302233"/>
     <use style="fill:#56ae57;stroke:#56ae57;" x="544.781818" xlink:href="#m47daedd9ac" y="352.78591"/>
     <use style="fill:#56ae57;stroke:#56ae57;" x="556.054545" xlink:href="#m47daedd9ac" y="343.22174"/>
     <use style="fill:#56ae57;stroke:#56ae57;" x="567.327273" xlink:href="#m47daedd9ac" y="376.873714"/>
     <use style="fill:#56ae57;stroke:#56ae57;" x="578.6" xlink:href="#m47daedd9ac" y="367.821655"/>
     <use style="fill:#56ae57;stroke:#56ae57;" x="589.872727" xlink:href="#m47daedd9ac" y="367.803058"/>
     <use style="fill:#56ae57;stroke:#56ae57;" x="601.145455" xlink:href="#m47daedd9ac" y="369.511048"/>
     <use style="fill:#56ae57;stroke:#56ae57;" x="612.418182" xlink:href="#m47daedd9ac" y="374.301716"/>
     <use style="fill:#56ae57;stroke:#56ae57;" x="623.690909" xlink:href="#m47daedd9ac" y="377.440183"/>
     <use style="fill:#56ae57;stroke:#56ae57;" x="634.963636" xlink:href="#m47daedd9ac" y="369.287894"/>
     <use style="fill:#56ae57;stroke:#56ae57;" x="646.236364" xlink:href="#m47daedd9ac" y="410.298242"/>
     <use style="fill:#56ae57;stroke:#56ae57;" x="657.509091" xlink:href="#m47daedd9ac" y="384.38801"/>
     <use style="fill:#56ae57;stroke:#56ae57;" x="668.781818" xlink:href="#m47daedd9ac" y="385.635386"/>
     <use style="fill:#56ae57;stroke:#56ae57;" x="680.054545" xlink:href="#m47daedd9ac" y="365.633025"/>
     <use style="fill:#56ae57;stroke:#56ae57;" x="691.327273" xlink:href="#m47daedd9ac" y="430.92"/>
     <use style="fill:#56ae57;stroke:#56ae57;" x="702.6" xlink:href="#m47daedd9ac" y="399.638327"/>
     <use style="fill:#56ae57;stroke:#56ae57;" x="713.872727" xlink:href="#m47daedd9ac" y="403.254573"/>
     <use style="fill:#56ae57;stroke:#56ae57;" x="725.145455" xlink:href="#m47daedd9ac" y="379.458586"/>
     <use style="fill:#56ae57;stroke:#56ae57;" x="736.418182" xlink:href="#m47daedd9ac" y="380.405562"/>
     <use style="fill:#56ae57;stroke:#56ae57;" x="747.690909" xlink:href="#m47daedd9ac" y="369.413776"/>
     <use style="fill:#56ae57;stroke:#56ae57;" x="758.963636" xlink:href="#m47daedd9ac" y="392.312853"/>
     <use style="fill:#56ae57;stroke:#56ae57;" x="770.236364" xlink:href="#m47daedd9ac" y="369.249271"/>
     <use style="fill:#56ae57;stroke:#56ae57;" x="781.509091" xlink:href="#m47daedd9ac" y="358.555024"/>
     <use style="fill:#56ae57;stroke:#56ae57;" x="792.781818" xlink:href="#m47daedd9ac" y="351.236703"/>
     <use style="fill:#56ae57;stroke:#56ae57;" x="804.054545" xlink:href="#m47daedd9ac" y="408.985064"/>
     <use style="fill:#56ae57;stroke:#56ae57;" x="815.327273" xlink:href="#m47daedd9ac" y="382.734379"/>
     <use style="fill:#56ae57;stroke:#56ae57;" x="826.6" xlink:href="#m47daedd9ac" y="366.78885"/>
     <use style="fill:#56ae57;stroke:#56ae57;" x="837.872727" xlink:href="#m47daedd9ac" y="385.191938"/>
     <use style="fill:#56ae57;stroke:#56ae57;" x="849.145455" xlink:href="#m47daedd9ac" y="344.709436"/>
     <use style="fill:#56ae57;stroke:#56ae57;" x="860.418182" xlink:href="#m47daedd9ac" y="344.700853"/>
     <use style="fill:#56ae57;stroke:#56ae57;" x="871.690909" xlink:href="#m47daedd9ac" y="359.26311"/>
    </g>
   </g>
   <g id="line2d_14">
    <path clip-path="url(#p3d5c88fe8c)" d="M 166.268687 297.722554 
L 182.30101 312.233314 
L 198.333333 332.99812 
L 214.365657 287.842249 
L 230.39798 329.603598 
L 246.430303 328.525018 
L 262.462626 296.618226 
L 278.494949 316.198597 
L 294.527273 297.465069 
L 310.559596 302.494626 
L 326.591919 299.708057 
L 342.624242 277.548536 
L 358.656566 252.61675 
L 374.688889 335.614463 
L 390.721212 345.856679 
L 406.753535 381.283875 
L 422.785859 422.556 
L 438.818182 332.750647 
L 454.850505 319.923559 
L 470.882828 295.875808 
L 486.915152 320.31694 
L 502.947475 340.482376 
L 518.979798 312.702511 
L 535.012121 356.189015 
L 551.044444 301.772235 
L 567.076768 340.428018 
L 583.109091 357.872686 
L 599.141414 288.099735 
L 615.173737 318.234166 
L 631.206061 327.66101 
L 647.238384 298.193181 
L 663.270707 350.600141 
L 679.30303 356.005914 
L 695.335354 345.008406 
L 711.367677 285.712269 
L 727.4 402.600845 
L 743.432323 290.81478 
L 759.464646 281.355035 
L 775.49697 321.684476 
L 791.529293 380.861884 
L 807.561616 327.708216 
L 823.593939 260.936405 
L 839.626263 231.248283 
L 855.658586 308.152163 
L 871.690909 299.976986 
" style="fill:none;stroke:#b2996e;stroke-linecap:square;stroke-width:1.5;"/>
    <defs>
     <path d="M 0 3 
C 0.795609 3 1.55874 2.683901 2.12132 2.12132 
C 2.683901 1.55874 3 0.795609 3 0 
C 3 -0.795609 2.683901 -1.55874 2.12132 -2.12132 
C 1.55874 -2.683901 0.795609 -3 0 -3 
C -0.795609 -3 -1.55874 -2.683901 -2.12132 -2.12132 
C -2.683901 -1.55874 -3 -0.795609 -3 0 
C -3 0.795609 -2.683901 1.55874 -2.12132 2.12132 
C -1.55874 2.683901 -0.795609 3 0 3 
z
" id="m30f0ccfe9e" style="stroke:#b2996e;"/>
    </defs>
    <g clip-path="url(#p3d5c88fe8c)">
     <use style="fill:#b2996e;stroke:#b2996e;" x="166.268687" xlink:href="#m30f0ccfe9e" y="297.722554"/>
     <use style="fill:#b2996e;stroke:#b2996e;" x="182.30101" xlink:href="#m30f0ccfe9e" y="312.233314"/>
     <use style="fill:#b2996e;stroke:#b2996e;" x="198.333333" xlink:href="#m30f0ccfe9e" y="332.99812"/>
     <use style="fill:#b2996e;stroke:#b2996e;" x="214.365657" xlink:href="#m30f0ccfe9e" y="287.842249"/>
     <use style="fill:#b2996e;stroke:#b2996e;" x="230.39798" xlink:href="#m30f0ccfe9e" y="329.603598"/>
     <use style="fill:#b2996e;stroke:#b2996e;" x="246.430303" xlink:href="#m30f0ccfe9e" y="328.525018"/>
     <use style="fill:#b2996e;stroke:#b2996e;" x="262.462626" xlink:href="#m30f0ccfe9e" y="296.618226"/>
     <use style="fill:#b2996e;stroke:#b2996e;" x="278.494949" xlink:href="#m30f0ccfe9e" y="316.198597"/>
     <use style="fill:#b2996e;stroke:#b2996e;" x="294.527273" xlink:href="#m30f0ccfe9e" y="297.465069"/>
     <use style="fill:#b2996e;stroke:#b2996e;" x="310.559596" xlink:href="#m30f0ccfe9e" y="302.494626"/>
     <use style="fill:#b2996e;stroke:#b2996e;" x="326.591919" xlink:href="#m30f0ccfe9e" y="299.708057"/>
     <use style="fill:#b2996e;stroke:#b2996e;" x="342.624242" xlink:href="#m30f0ccfe9e" y="277.548536"/>
     <use style="fill:#b2996e;stroke:#b2996e;" x="358.656566" xlink:href="#m30f0ccfe9e" y="252.61675"/>
     <use style="fill:#b2996e;stroke:#b2996e;" x="374.688889" xlink:href="#m30f0ccfe9e" y="335.614463"/>
     <use style="fill:#b2996e;stroke:#b2996e;" x="390.721212" xlink:href="#m30f0ccfe9e" y="345.856679"/>
     <use style="fill:#b2996e;stroke:#b2996e;" x="406.753535" xlink:href="#m30f0ccfe9e" y="381.283875"/>
     <use style="fill:#b2996e;stroke:#b2996e;" x="422.785859" xlink:href="#m30f0ccfe9e" y="422.556"/>
     <use style="fill:#b2996e;stroke:#b2996e;" x="438.818182" xlink:href="#m30f0ccfe9e" y="332.750647"/>
     <use style="fill:#b2996e;stroke:#b2996e;" x="454.850505" xlink:href="#m30f0ccfe9e" y="319.923559"/>
     <use style="fill:#b2996e;stroke:#b2996e;" x="470.882828" xlink:href="#m30f0ccfe9e" y="295.875808"/>
     <use style="fill:#b2996e;stroke:#b2996e;" x="486.915152" xlink:href="#m30f0ccfe9e" y="320.31694"/>
     <use style="fill:#b2996e;stroke:#b2996e;" x="502.947475" xlink:href="#m30f0ccfe9e" y="340.482376"/>
     <use style="fill:#b2996e;stroke:#b2996e;" x="518.979798" xlink:href="#m30f0ccfe9e" y="312.702511"/>
     <use style="fill:#b2996e;stroke:#b2996e;" x="535.012121" xlink:href="#m30f0ccfe9e" y="356.189015"/>
     <use style="fill:#b2996e;stroke:#b2996e;" x="551.044444" xlink:href="#m30f0ccfe9e" y="301.772235"/>
     <use style="fill:#b2996e;stroke:#b2996e;" x="567.076768" xlink:href="#m30f0ccfe9e" y="340.428018"/>
     <use style="fill:#b2996e;stroke:#b2996e;" x="583.109091" xlink:href="#m30f0ccfe9e" y="357.872686"/>
     <use style="fill:#b2996e;stroke:#b2996e;" x="599.141414" xlink:href="#m30f0ccfe9e" y="288.099735"/>
     <use style="fill:#b2996e;stroke:#b2996e;" x="615.173737" xlink:href="#m30f0ccfe9e" y="318.234166"/>
     <use style="fill:#b2996e;stroke:#b2996e;" x="631.206061" xlink:href="#m30f0ccfe9e" y="327.66101"/>
     <use style="fill:#b2996e;stroke:#b2996e;" x="647.238384" xlink:href="#m30f0ccfe9e" y="298.193181"/>
     <use style="fill:#b2996e;stroke:#b2996e;" x="663.270707" xlink:href="#m30f0ccfe9e" y="350.600141"/>
     <use style="fill:#b2996e;stroke:#b2996e;" x="679.30303" xlink:href="#m30f0ccfe9e" y="356.005914"/>
     <use style="fill:#b2996e;stroke:#b2996e;" x="695.335354" xlink:href="#m30f0ccfe9e" y="345.008406"/>
     <use style="fill:#b2996e;stroke:#b2996e;" x="711.367677" xlink:href="#m30f0ccfe9e" y="285.712269"/>
     <use style="fill:#b2996e;stroke:#b2996e;" x="727.4" xlink:href="#m30f0ccfe9e" y="402.600845"/>
     <use style="fill:#b2996e;stroke:#b2996e;" x="743.432323" xlink:href="#m30f0ccfe9e" y="290.81478"/>
     <use style="fill:#b2996e;stroke:#b2996e;" x="759.464646" xlink:href="#m30f0ccfe9e" y="281.355035"/>
     <use style="fill:#b2996e;stroke:#b2996e;" x="775.49697" xlink:href="#m30f0ccfe9e" y="321.684476"/>
     <use style="fill:#b2996e;stroke:#b2996e;" x="791.529293" xlink:href="#m30f0ccfe9e" y="380.861884"/>
     <use style="fill:#b2996e;stroke:#b2996e;" x="807.561616" xlink:href="#m30f0ccfe9e" y="327.708216"/>
     <use style="fill:#b2996e;stroke:#b2996e;" x="823.593939" xlink:href="#m30f0ccfe9e" y="260.936405"/>
     <use style="fill:#b2996e;stroke:#b2996e;" x="839.626263" xlink:href="#m30f0ccfe9e" y="231.248283"/>
     <use style="fill:#b2996e;stroke:#b2996e;" x="855.658586" xlink:href="#m30f0ccfe9e" y="308.152163"/>
     <use style="fill:#b2996e;stroke:#b2996e;" x="871.690909" xlink:href="#m30f0ccfe9e" y="299.976986"/>
    </g>
   </g>
   <g id="line2d_15">
    <path clip-path="url(#p3d5c88fe8c)" d="M 175.114107 334.442902 
L 199.99185 322.98335 
L 224.869592 332.683415 
L 249.747335 350.810421 
L 274.625078 375.833757 
L 299.502821 396.223778 
L 324.380564 307.306751 
L 349.258307 291.003603 
L 374.13605 317.993846 
L 399.013793 372.051576 
L 423.891536 303.553179 
L 448.769279 330.556296 
L 473.647022 272.803643 
L 498.524765 203.289608 
L 523.402508 231.171037 
L 548.280251 320.143853 
L 573.157994 308.655691 
L 598.035737 315.845269 
L 622.91348 365.321181 
L 647.791223 338.518331 
L 672.668966 344.45052 
L 697.546708 342.559429 
L 722.424451 324.528265 
L 747.302194 319.613146 
L 772.179937 313.486412 
L 797.05768 340.397978 
L 821.935423 371.898514 
L 846.813166 384.17773 
L 871.690909 317.829341 
" style="fill:none;stroke:#a8ff04;stroke-linecap:square;stroke-width:1.5;"/>
    <defs>
     <path d="M 0 3 
C 0.795609 3 1.55874 2.683901 2.12132 2.12132 
C 2.683901 1.55874 3 0.795609 3 0 
C 3 -0.795609 2.683901 -1.55874 2.12132 -2.12132 
C 1.55874 -2.683901 0.795609 -3 0 -3 
C -0.795609 -3 -1.55874 -2.683901 -2.12132 -2.12132 
C -2.683901 -1.55874 -3 -0.795609 -3 0 
C -3 0.795609 -2.683901 1.55874 -2.12132 2.12132 
C -1.55874 2.683901 -0.795609 3 0 3 
z
" id="m4f42fd0030" style="stroke:#a8ff04;"/>
    </defs>
    <g clip-path="url(#p3d5c88fe8c)">
     <use style="fill:#a8ff04;stroke:#a8ff04;" x="175.114107" xlink:href="#m4f42fd0030" y="334.442902"/>
     <use style="fill:#a8ff04;stroke:#a8ff04;" x="199.99185" xlink:href="#m4f42fd0030" y="322.98335"/>
     <use style="fill:#a8ff04;stroke:#a8ff04;" x="224.869592" xlink:href="#m4f42fd0030" y="332.683415"/>
     <use style="fill:#a8ff04;stroke:#a8ff04;" x="249.747335" xlink:href="#m4f42fd0030" y="350.810421"/>
     <use style="fill:#a8ff04;stroke:#a8ff04;" x="274.625078" xlink:href="#m4f42fd0030" y="375.833757"/>
     <use style="fill:#a8ff04;stroke:#a8ff04;" x="299.502821" xlink:href="#m4f42fd0030" y="396.223778"/>
     <use style="fill:#a8ff04;stroke:#a8ff04;" x="324.380564" xlink:href="#m4f42fd0030" y="307.306751"/>
     <use style="fill:#a8ff04;stroke:#a8ff04;" x="349.258307" xlink:href="#m4f42fd0030" y="291.003603"/>
     <use style="fill:#a8ff04;stroke:#a8ff04;" x="374.13605" xlink:href="#m4f42fd0030" y="317.993846"/>
     <use style="fill:#a8ff04;stroke:#a8ff04;" x="399.013793" xlink:href="#m4f42fd0030" y="372.051576"/>
     <use style="fill:#a8ff04;stroke:#a8ff04;" x="423.891536" xlink:href="#m4f42fd0030" y="303.553179"/>
     <use style="fill:#a8ff04;stroke:#a8ff04;" x="448.769279" xlink:href="#m4f42fd0030" y="330.556296"/>
     <use style="fill:#a8ff04;stroke:#a8ff04;" x="473.647022" xlink:href="#m4f42fd0030" y="272.803643"/>
     <use style="fill:#a8ff04;stroke:#a8ff04;" x="498.524765" xlink:href="#m4f42fd0030" y="203.289608"/>
     <use style="fill:#a8ff04;stroke:#a8ff04;" x="523.402508" xlink:href="#m4f42fd0030" y="231.171037"/>
     <use style="fill:#a8ff04;stroke:#a8ff04;" x="548.280251" xlink:href="#m4f42fd0030" y="320.143853"/>
     <use style="fill:#a8ff04;stroke:#a8ff04;" x="573.157994" xlink:href="#m4f42fd0030" y="308.655691"/>
     <use style="fill:#a8ff04;stroke:#a8ff04;" x="598.035737" xlink:href="#m4f42fd0030" y="315.845269"/>
     <use style="fill:#a8ff04;stroke:#a8ff04;" x="622.91348" xlink:href="#m4f42fd0030" y="365.321181"/>
     <use style="fill:#a8ff04;stroke:#a8ff04;" x="647.791223" xlink:href="#m4f42fd0030" y="338.518331"/>
     <use style="fill:#a8ff04;stroke:#a8ff04;" x="672.668966" xlink:href="#m4f42fd0030" y="344.45052"/>
     <use style="fill:#a8ff04;stroke:#a8ff04;" x="697.546708" xlink:href="#m4f42fd0030" y="342.559429"/>
     <use style="fill:#a8ff04;stroke:#a8ff04;" x="722.424451" xlink:href="#m4f42fd0030" y="324.528265"/>
     <use style="fill:#a8ff04;stroke:#a8ff04;" x="747.302194" xlink:href="#m4f42fd0030" y="319.613146"/>
     <use style="fill:#a8ff04;stroke:#a8ff04;" x="772.179937" xlink:href="#m4f42fd0030" y="313.486412"/>
     <use style="fill:#a8ff04;stroke:#a8ff04;" x="797.05768" xlink:href="#m4f42fd0030" y="340.397978"/>
     <use style="fill:#a8ff04;stroke:#a8ff04;" x="821.935423" xlink:href="#m4f42fd0030" y="371.898514"/>
     <use style="fill:#a8ff04;stroke:#a8ff04;" x="846.813166" xlink:href="#m4f42fd0030" y="384.17773"/>
     <use style="fill:#a8ff04;stroke:#a8ff04;" x="871.690909" xlink:href="#m4f42fd0030" y="317.829341"/>
    </g>
   </g>
   <g id="line2d_16">
    <path clip-path="url(#p3d5c88fe8c)" d="M 174.284848 271.519075 
L 198.333333 394.987845 
L 222.381818 321.509958 
L 246.430303 331.460357 
L 270.478788 327.321987 
L 294.527273 260.999346 
L 318.575758 259.704764 
L 342.624242 257.221456 
L 366.672727 286.157147 
L 390.721212 251.8071 
L 414.769697 234.195066 
L 438.818182 280.04901 
L 462.866667 312.095988 
L 486.915152 321.231015 
L 510.963636 295.438082 
L 535.012121 293.116418 
L 559.060606 316.65778 
L 583.109091 309.812947 
L 607.157576 297.612408 
L 631.206061 340.320732 
L 655.254545 248.527016 
L 679.30303 311.253437 
L 703.351515 367.023448 
L 727.4 172.076598 
L 751.448485 78.12 
L 775.49697 254.41629 
L 799.545455 278.150767 
L 823.593939 290.294087 
L 847.642424 330.104265 
L 871.690909 309.471063 
" style="fill:none;stroke:#69d84f;stroke-linecap:square;stroke-width:1.5;"/>
    <defs>
     <path d="M 0 3 
C 0.795609 3 1.55874 2.683901 2.12132 2.12132 
C 2.683901 1.55874 3 0.795609 3 0 
C 3 -0.795609 2.683901 -1.55874 2.12132 -2.12132 
C 1.55874 -2.683901 0.795609 -3 0 -3 
C -0.795609 -3 -1.55874 -2.683901 -2.12132 -2.12132 
C -2.683901 -1.55874 -3 -0.795609 -3 0 
C -3 0.795609 -2.683901 1.55874 -2.12132 2.12132 
C -1.55874 2.683901 -0.795609 3 0 3 
z
" id="m0a50c759d1" style="stroke:#69d84f;"/>
    </defs>
    <g clip-path="url(#p3d5c88fe8c)">
     <use style="fill:#69d84f;stroke:#69d84f;" x="174.284848" xlink:href="#m0a50c759d1" y="271.519075"/>
     <use style="fill:#69d84f;stroke:#69d84f;" x="198.333333" xlink:href="#m0a50c759d1" y="394.987845"/>
     <use style="fill:#69d84f;stroke:#69d84f;" x="222.381818" xlink:href="#m0a50c759d1" y="321.509958"/>
     <use style="fill:#69d84f;stroke:#69d84f;" x="246.430303" xlink:href="#m0a50c759d1" y="331.460357"/>
     <use style="fill:#69d84f;stroke:#69d84f;" x="270.478788" xlink:href="#m0a50c759d1" y="327.321987"/>
     <use style="fill:#69d84f;stroke:#69d84f;" x="294.527273" xlink:href="#m0a50c759d1" y="260.999346"/>
     <use style="fill:#69d84f;stroke:#69d84f;" x="318.575758" xlink:href="#m0a50c759d1" y="259.704764"/>
     <use style="fill:#69d84f;stroke:#69d84f;" x="342.624242" xlink:href="#m0a50c759d1" y="257.221456"/>
     <use style="fill:#69d84f;stroke:#69d84f;" x="366.672727" xlink:href="#m0a50c759d1" y="286.157147"/>
     <use style="fill:#69d84f;stroke:#69d84f;" x="390.721212" xlink:href="#m0a50c759d1" y="251.8071"/>
     <use style="fill:#69d84f;stroke:#69d84f;" x="414.769697" xlink:href="#m0a50c759d1" y="234.195066"/>
     <use style="fill:#69d84f;stroke:#69d84f;" x="438.818182" xlink:href="#m0a50c759d1" y="280.04901"/>
     <use style="fill:#69d84f;stroke:#69d84f;" x="462.866667" xlink:href="#m0a50c759d1" y="312.095988"/>
     <use style="fill:#69d84f;stroke:#69d84f;" x="486.915152" xlink:href="#m0a50c759d1" y="321.231015"/>
     <use style="fill:#69d84f;stroke:#69d84f;" x="510.963636" xlink:href="#m0a50c759d1" y="295.438082"/>
     <use style="fill:#69d84f;stroke:#69d84f;" x="535.012121" xlink:href="#m0a50c759d1" y="293.116418"/>
     <use style="fill:#69d84f;stroke:#69d84f;" x="559.060606" xlink:href="#m0a50c759d1" y="316.65778"/>
     <use style="fill:#69d84f;stroke:#69d84f;" x="583.109091" xlink:href="#m0a50c759d1" y="309.812947"/>
     <use style="fill:#69d84f;stroke:#69d84f;" x="607.157576" xlink:href="#m0a50c759d1" y="297.612408"/>
     <use style="fill:#69d84f;stroke:#69d84f;" x="631.206061" xlink:href="#m0a50c759d1" y="340.320732"/>
     <use style="fill:#69d84f;stroke:#69d84f;" x="655.254545" xlink:href="#m0a50c759d1" y="248.527016"/>
     <use style="fill:#69d84f;stroke:#69d84f;" x="679.30303" xlink:href="#m0a50c759d1" y="311.253437"/>
     <use style="fill:#69d84f;stroke:#69d84f;" x="703.351515" xlink:href="#m0a50c759d1" y="367.023448"/>
     <use style="fill:#69d84f;stroke:#69d84f;" x="727.4" xlink:href="#m0a50c759d1" y="172.076598"/>
     <use style="fill:#69d84f;stroke:#69d84f;" x="751.448485" xlink:href="#m0a50c759d1" y="78.12"/>
     <use style="fill:#69d84f;stroke:#69d84f;" x="775.49697" xlink:href="#m0a50c759d1" y="254.41629"/>
     <use style="fill:#69d84f;stroke:#69d84f;" x="799.545455" xlink:href="#m0a50c759d1" y="278.150767"/>
     <use style="fill:#69d84f;stroke:#69d84f;" x="823.593939" xlink:href="#m0a50c759d1" y="290.294087"/>
     <use style="fill:#69d84f;stroke:#69d84f;" x="847.642424" xlink:href="#m0a50c759d1" y="330.104265"/>
     <use style="fill:#69d84f;stroke:#69d84f;" x="871.690909" xlink:href="#m0a50c759d1" y="309.471063"/>
    </g>
   </g>
   <g id="patch_3">
    <path d="M 126 448.56 
L 126 60.48 
" style="fill:none;stroke:#000000;stroke-linecap:square;stroke-linejoin:miter;stroke-width:0.8;"/>
   </g>
   <g id="patch_4">
    <path d="M 907.2 448.56 
L 907.2 60.48 
" style="fill:none;stroke:#000000;stroke-linecap:square;stroke-linejoin:miter;stroke-width:0.8;"/>
   </g>
   <g id="patch_5">
    <path d="M 126 448.56 
L 907.2 448.56 
" style="fill:none;stroke:#000000;stroke-linecap:square;stroke-linejoin:miter;stroke-width:0.8;"/>
   </g>
   <g id="patch_6">
    <path d="M 126 60.48 
L 907.2 60.48 
" style="fill:none;stroke:#000000;stroke-linecap:square;stroke-linejoin:miter;stroke-width:0.8;"/>
   </g>
  </g>
  <g id="text_14">
   <!-- GFI for the chunks of size 30 of document -->
   <defs>
    <path d="M 9.421875 54.6875 
L 18.40625 54.6875 
L 18.40625 0 
L 9.421875 0 
z
M 9.421875 75.984375 
L 18.40625 75.984375 
L 18.40625 64.59375 
L 9.421875 64.59375 
z
" id="DejaVuSans-69"/>
    <path d="M 5.515625 54.6875 
L 48.1875 54.6875 
L 48.1875 46.484375 
L 14.40625 7.171875 
L 48.1875 7.171875 
L 48.1875 0 
L 4.296875 0 
L 4.296875 8.203125 
L 38.09375 47.515625 
L 5.515625 47.515625 
z
" id="DejaVuSans-7a"/>
   </defs>
   <g transform="translate(357.424375 20.717812)scale(0.14 -0.14)">
    <use xlink:href="#DejaVuSans-47"/>
    <use x="77.490234" xlink:href="#DejaVuSans-46"/>
    <use x="135.009766" xlink:href="#DejaVuSans-49"/>
    <use x="164.501953" xlink:href="#DejaVuSans-20"/>
    <use x="196.289062" xlink:href="#DejaVuSans-66"/>
    <use x="231.494141" xlink:href="#DejaVuSans-6f"/>
    <use x="292.675781" xlink:href="#DejaVuSans-72"/>
    <use x="333.789062" xlink:href="#DejaVuSans-20"/>
    <use x="365.576172" xlink:href="#DejaVuSans-74"/>
    <use x="404.785156" xlink:href="#DejaVuSans-68"/>
    <use x="468.164062" xlink:href="#DejaVuSans-65"/>
    <use x="529.6875" xlink:href="#DejaVuSans-20"/>
    <use x="561.474609" xlink:href="#DejaVuSans-63"/>
    <use x="616.455078" xlink:href="#DejaVuSans-68"/>
    <use x="679.833984" xlink:href="#DejaVuSans-75"/>
    <use x="743.212891" xlink:href="#DejaVuSans-6e"/>
    <use x="806.591797" xlink:href="#DejaVuSans-6b"/>
    <use x="864.501953" xlink:href="#DejaVuSans-73"/>
    <use x="916.601562" xlink:href="#DejaVuSans-20"/>
    <use x="948.388672" xlink:href="#DejaVuSans-6f"/>
    <use x="1009.570312" xlink:href="#DejaVuSans-66"/>
    <use x="1044.775391" xlink:href="#DejaVuSans-20"/>
    <use x="1076.5625" xlink:href="#DejaVuSans-73"/>
    <use x="1128.662109" xlink:href="#DejaVuSans-69"/>
    <use x="1156.445312" xlink:href="#DejaVuSans-7a"/>
    <use x="1208.935547" xlink:href="#DejaVuSans-65"/>
    <use x="1270.458984" xlink:href="#DejaVuSans-20"/>
    <use x="1302.246094" xlink:href="#DejaVuSans-33"/>
    <use x="1365.869141" xlink:href="#DejaVuSans-30"/>
    <use x="1429.492188" xlink:href="#DejaVuSans-20"/>
    <use x="1461.279297" xlink:href="#DejaVuSans-6f"/>
    <use x="1522.460938" xlink:href="#DejaVuSans-66"/>
    <use x="1557.666016" xlink:href="#DejaVuSans-20"/>
    <use x="1589.453125" xlink:href="#DejaVuSans-64"/>
    <use x="1652.929688" xlink:href="#DejaVuSans-6f"/>
    <use x="1714.111328" xlink:href="#DejaVuSans-63"/>
    <use x="1769.091797" xlink:href="#DejaVuSans-75"/>
    <use x="1832.470703" xlink:href="#DejaVuSans-6d"/>
    <use x="1929.882812" xlink:href="#DejaVuSans-65"/>
    <use x="1991.40625" xlink:href="#DejaVuSans-6e"/>
    <use x="2054.785156" xlink:href="#DejaVuSans-74"/>
   </g>
  </g>
 </g>
 <defs>
  <clipPath id="p3d5c88fe8c">
   <rect height="388.08" width="781.2" x="126" y="60.48"/>
  </clipPath>
 </defs>
</svg>
