<?xml version="1.0" encoding="utf-8" standalone="no"?>
<!DOCTYPE svg PUBLIC "-//W3C//DTD SVG 1.1//EN"
  "http://www.w3.org/Graphics/SVG/1.1/DTD/svg11.dtd">
<!-- Created with matplotlib (https://matplotlib.org/) -->
<svg height="436.33625pt" version="1.1" viewBox="0 0 832.503125 436.33625" width="832.503125pt" xmlns="http://www.w3.org/2000/svg" xmlns:xlink="http://www.w3.org/1999/xlink">
 <defs>
  <style type="text/css">
*{stroke-linecap:butt;stroke-linejoin:round;}
  </style>
 </defs>
 <g id="figure_1">
  <g id="patch_1">
   <path d="M 0 436.33625 
L 832.503125 436.33625 
L 832.503125 0 
L 0 0 
z
" style="fill:#ffffff;"/>
  </g>
  <g id="axes_1">
   <g id="patch_2">
    <path d="M 40.603125 398.78 
L 821.803125 398.78 
L 821.803125 10.7 
L 40.603125 10.7 
z
" style="fill:#ffffff;"/>
   </g>
   <g id="matplotlib.axis_1">
    <g id="xtick_1">
     <g id="line2d_1">
      <defs>
       <path d="M 0 0 
L 0 3.5 
" id="m161c9299af" style="stroke:#000000;stroke-width:0.8;"/>
      </defs>
      <g>
       <use style="stroke:#000000;stroke-width:0.8;" x="61.001964" xlink:href="#m161c9299af" y="398.78"/>
      </g>
     </g>
     <g id="text_1">
      <!-- 0 -->
      <defs>
       <path d="M 31.78125 66.40625 
Q 24.171875 66.40625 20.328125 58.90625 
Q 16.5 51.421875 16.5 36.375 
Q 16.5 21.390625 20.328125 13.890625 
Q 24.171875 6.390625 31.78125 6.390625 
Q 39.453125 6.390625 43.28125 13.890625 
Q 47.125 21.390625 47.125 36.375 
Q 47.125 51.421875 43.28125 58.90625 
Q 39.453125 66.40625 31.78125 66.40625 
z
M 31.78125 74.21875 
Q 44.046875 74.21875 50.515625 64.515625 
Q 56.984375 54.828125 56.984375 36.375 
Q 56.984375 17.96875 50.515625 8.265625 
Q 44.046875 -1.421875 31.78125 -1.421875 
Q 19.53125 -1.421875 13.0625 8.265625 
Q 6.59375 17.96875 6.59375 36.375 
Q 6.59375 54.828125 13.0625 64.515625 
Q 19.53125 74.21875 31.78125 74.21875 
z
" id="DejaVuSans-48"/>
      </defs>
      <g transform="translate(57.820714 413.378437)scale(0.1 -0.1)">
       <use xlink:href="#DejaVuSans-48"/>
      </g>
     </g>
    </g>
    <g id="xtick_2">
     <g id="line2d_2">
      <g>
       <use style="stroke:#000000;stroke-width:0.8;" x="206.060378" xlink:href="#m161c9299af" y="398.78"/>
      </g>
     </g>
     <g id="text_2">
      <!-- 20 -->
      <defs>
       <path d="M 19.1875 8.296875 
L 53.609375 8.296875 
L 53.609375 0 
L 7.328125 0 
L 7.328125 8.296875 
Q 12.9375 14.109375 22.625 23.890625 
Q 32.328125 33.6875 34.8125 36.53125 
Q 39.546875 41.84375 41.421875 45.53125 
Q 43.3125 49.21875 43.3125 52.78125 
Q 43.3125 58.59375 39.234375 62.25 
Q 35.15625 65.921875 28.609375 65.921875 
Q 23.96875 65.921875 18.8125 64.3125 
Q 13.671875 62.703125 7.8125 59.421875 
L 7.8125 69.390625 
Q 13.765625 71.78125 18.9375 73 
Q 24.125 74.21875 28.421875 74.21875 
Q 39.75 74.21875 46.484375 68.546875 
Q 53.21875 62.890625 53.21875 53.421875 
Q 53.21875 48.921875 51.53125 44.890625 
Q 49.859375 40.875 45.40625 35.40625 
Q 44.1875 33.984375 37.640625 27.21875 
Q 31.109375 20.453125 19.1875 8.296875 
z
" id="DejaVuSans-50"/>
      </defs>
      <g transform="translate(199.697878 413.378437)scale(0.1 -0.1)">
       <use xlink:href="#DejaVuSans-50"/>
       <use x="63.623047" xlink:href="#DejaVuSans-48"/>
      </g>
     </g>
    </g>
    <g id="xtick_3">
     <g id="line2d_3">
      <g>
       <use style="stroke:#000000;stroke-width:0.8;" x="351.118792" xlink:href="#m161c9299af" y="398.78"/>
      </g>
     </g>
     <g id="text_3">
      <!-- 40 -->
      <defs>
       <path d="M 37.796875 64.3125 
L 12.890625 25.390625 
L 37.796875 25.390625 
z
M 35.203125 72.90625 
L 47.609375 72.90625 
L 47.609375 25.390625 
L 58.015625 25.390625 
L 58.015625 17.1875 
L 47.609375 17.1875 
L 47.609375 0 
L 37.796875 0 
L 37.796875 17.1875 
L 4.890625 17.1875 
L 4.890625 26.703125 
z
" id="DejaVuSans-52"/>
      </defs>
      <g transform="translate(344.756292 413.378437)scale(0.1 -0.1)">
       <use xlink:href="#DejaVuSans-52"/>
       <use x="63.623047" xlink:href="#DejaVuSans-48"/>
      </g>
     </g>
    </g>
    <g id="xtick_4">
     <g id="line2d_4">
      <g>
       <use style="stroke:#000000;stroke-width:0.8;" x="496.177206" xlink:href="#m161c9299af" y="398.78"/>
      </g>
     </g>
     <g id="text_4">
      <!-- 60 -->
      <defs>
       <path d="M 33.015625 40.375 
Q 26.375 40.375 22.484375 35.828125 
Q 18.609375 31.296875 18.609375 23.390625 
Q 18.609375 15.53125 22.484375 10.953125 
Q 26.375 6.390625 33.015625 6.390625 
Q 39.65625 6.390625 43.53125 10.953125 
Q 47.40625 15.53125 47.40625 23.390625 
Q 47.40625 31.296875 43.53125 35.828125 
Q 39.65625 40.375 33.015625 40.375 
z
M 52.59375 71.296875 
L 52.59375 62.3125 
Q 48.875 64.0625 45.09375 64.984375 
Q 41.3125 65.921875 37.59375 65.921875 
Q 27.828125 65.921875 22.671875 59.328125 
Q 17.53125 52.734375 16.796875 39.40625 
Q 19.671875 43.65625 24.015625 45.921875 
Q 28.375 48.1875 33.59375 48.1875 
Q 44.578125 48.1875 50.953125 41.515625 
Q 57.328125 34.859375 57.328125 23.390625 
Q 57.328125 12.15625 50.6875 5.359375 
Q 44.046875 -1.421875 33.015625 -1.421875 
Q 20.359375 -1.421875 13.671875 8.265625 
Q 6.984375 17.96875 6.984375 36.375 
Q 6.984375 53.65625 15.1875 63.9375 
Q 23.390625 74.21875 37.203125 74.21875 
Q 40.921875 74.21875 44.703125 73.484375 
Q 48.484375 72.75 52.59375 71.296875 
z
" id="DejaVuSans-54"/>
      </defs>
      <g transform="translate(489.814706 413.378437)scale(0.1 -0.1)">
       <use xlink:href="#DejaVuSans-54"/>
       <use x="63.623047" xlink:href="#DejaVuSans-48"/>
      </g>
     </g>
    </g>
    <g id="xtick_5">
     <g id="line2d_5">
      <g>
       <use style="stroke:#000000;stroke-width:0.8;" x="641.23562" xlink:href="#m161c9299af" y="398.78"/>
      </g>
     </g>
     <g id="text_5">
      <!-- 80 -->
      <defs>
       <path d="M 31.78125 34.625 
Q 24.75 34.625 20.71875 30.859375 
Q 16.703125 27.09375 16.703125 20.515625 
Q 16.703125 13.921875 20.71875 10.15625 
Q 24.75 6.390625 31.78125 6.390625 
Q 38.8125 6.390625 42.859375 10.171875 
Q 46.921875 13.96875 46.921875 20.515625 
Q 46.921875 27.09375 42.890625 30.859375 
Q 38.875 34.625 31.78125 34.625 
z
M 21.921875 38.8125 
Q 15.578125 40.375 12.03125 44.71875 
Q 8.5 49.078125 8.5 55.328125 
Q 8.5 64.0625 14.71875 69.140625 
Q 20.953125 74.21875 31.78125 74.21875 
Q 42.671875 74.21875 48.875 69.140625 
Q 55.078125 64.0625 55.078125 55.328125 
Q 55.078125 49.078125 51.53125 44.71875 
Q 48 40.375 41.703125 38.8125 
Q 48.828125 37.15625 52.796875 32.3125 
Q 56.78125 27.484375 56.78125 20.515625 
Q 56.78125 9.90625 50.3125 4.234375 
Q 43.84375 -1.421875 31.78125 -1.421875 
Q 19.734375 -1.421875 13.25 4.234375 
Q 6.78125 9.90625 6.78125 20.515625 
Q 6.78125 27.484375 10.78125 32.3125 
Q 14.796875 37.15625 21.921875 38.8125 
z
M 18.3125 54.390625 
Q 18.3125 48.734375 21.84375 45.5625 
Q 25.390625 42.390625 31.78125 42.390625 
Q 38.140625 42.390625 41.71875 45.5625 
Q 45.3125 48.734375 45.3125 54.390625 
Q 45.3125 60.0625 41.71875 63.234375 
Q 38.140625 66.40625 31.78125 66.40625 
Q 25.390625 66.40625 21.84375 63.234375 
Q 18.3125 60.0625 18.3125 54.390625 
z
" id="DejaVuSans-56"/>
      </defs>
      <g transform="translate(634.87312 413.378437)scale(0.1 -0.1)">
       <use xlink:href="#DejaVuSans-56"/>
       <use x="63.623047" xlink:href="#DejaVuSans-48"/>
      </g>
     </g>
    </g>
    <g id="xtick_6">
     <g id="line2d_6">
      <g>
       <use style="stroke:#000000;stroke-width:0.8;" x="786.294034" xlink:href="#m161c9299af" y="398.78"/>
      </g>
     </g>
     <g id="text_6">
      <!-- 100 -->
      <defs>
       <path d="M 12.40625 8.296875 
L 28.515625 8.296875 
L 28.515625 63.921875 
L 10.984375 60.40625 
L 10.984375 69.390625 
L 28.421875 72.90625 
L 38.28125 72.90625 
L 38.28125 8.296875 
L 54.390625 8.296875 
L 54.390625 0 
L 12.40625 0 
z
" id="DejaVuSans-49"/>
      </defs>
      <g transform="translate(776.750284 413.378437)scale(0.1 -0.1)">
       <use xlink:href="#DejaVuSans-49"/>
       <use x="63.623047" xlink:href="#DejaVuSans-48"/>
       <use x="127.246094" xlink:href="#DejaVuSans-48"/>
      </g>
     </g>
    </g>
    <g id="text_7">
     <!-- document's percentage of the chunk's end -->
     <defs>
      <path d="M 45.40625 46.390625 
L 45.40625 75.984375 
L 54.390625 75.984375 
L 54.390625 0 
L 45.40625 0 
L 45.40625 8.203125 
Q 42.578125 3.328125 38.25 0.953125 
Q 33.9375 -1.421875 27.875 -1.421875 
Q 17.96875 -1.421875 11.734375 6.484375 
Q 5.515625 14.40625 5.515625 27.296875 
Q 5.515625 40.1875 11.734375 48.09375 
Q 17.96875 56 27.875 56 
Q 33.9375 56 38.25 53.625 
Q 42.578125 51.265625 45.40625 46.390625 
z
M 14.796875 27.296875 
Q 14.796875 17.390625 18.875 11.75 
Q 22.953125 6.109375 30.078125 6.109375 
Q 37.203125 6.109375 41.296875 11.75 
Q 45.40625 17.390625 45.40625 27.296875 
Q 45.40625 37.203125 41.296875 42.84375 
Q 37.203125 48.484375 30.078125 48.484375 
Q 22.953125 48.484375 18.875 42.84375 
Q 14.796875 37.203125 14.796875 27.296875 
z
" id="DejaVuSans-100"/>
      <path d="M 30.609375 48.390625 
Q 23.390625 48.390625 19.1875 42.75 
Q 14.984375 37.109375 14.984375 27.296875 
Q 14.984375 17.484375 19.15625 11.84375 
Q 23.34375 6.203125 30.609375 6.203125 
Q 37.796875 6.203125 41.984375 11.859375 
Q 46.1875 17.53125 46.1875 27.296875 
Q 46.1875 37.015625 41.984375 42.703125 
Q 37.796875 48.390625 30.609375 48.390625 
z
M 30.609375 56 
Q 42.328125 56 49.015625 48.375 
Q 55.71875 40.765625 55.71875 27.296875 
Q 55.71875 13.875 49.015625 6.21875 
Q 42.328125 -1.421875 30.609375 -1.421875 
Q 18.84375 -1.421875 12.171875 6.21875 
Q 5.515625 13.875 5.515625 27.296875 
Q 5.515625 40.765625 12.171875 48.375 
Q 18.84375 56 30.609375 56 
z
" id="DejaVuSans-111"/>
      <path d="M 48.78125 52.59375 
L 48.78125 44.1875 
Q 44.96875 46.296875 41.140625 47.34375 
Q 37.3125 48.390625 33.40625 48.390625 
Q 24.65625 48.390625 19.8125 42.84375 
Q 14.984375 37.3125 14.984375 27.296875 
Q 14.984375 17.28125 19.8125 11.734375 
Q 24.65625 6.203125 33.40625 6.203125 
Q 37.3125 6.203125 41.140625 7.25 
Q 44.96875 8.296875 48.78125 10.40625 
L 48.78125 2.09375 
Q 45.015625 0.34375 40.984375 -0.53125 
Q 36.96875 -1.421875 32.421875 -1.421875 
Q 20.0625 -1.421875 12.78125 6.34375 
Q 5.515625 14.109375 5.515625 27.296875 
Q 5.515625 40.671875 12.859375 48.328125 
Q 20.21875 56 33.015625 56 
Q 37.15625 56 41.109375 55.140625 
Q 45.0625 54.296875 48.78125 52.59375 
z
" id="DejaVuSans-99"/>
      <path d="M 8.5 21.578125 
L 8.5 54.6875 
L 17.484375 54.6875 
L 17.484375 21.921875 
Q 17.484375 14.15625 20.5 10.265625 
Q 23.53125 6.390625 29.59375 6.390625 
Q 36.859375 6.390625 41.078125 11.03125 
Q 45.3125 15.671875 45.3125 23.6875 
L 45.3125 54.6875 
L 54.296875 54.6875 
L 54.296875 0 
L 45.3125 0 
L 45.3125 8.40625 
Q 42.046875 3.421875 37.71875 1 
Q 33.40625 -1.421875 27.6875 -1.421875 
Q 18.265625 -1.421875 13.375 4.4375 
Q 8.5 10.296875 8.5 21.578125 
z
M 31.109375 56 
z
" id="DejaVuSans-117"/>
      <path d="M 52 44.1875 
Q 55.375 50.25 60.0625 53.125 
Q 64.75 56 71.09375 56 
Q 79.640625 56 84.28125 50.015625 
Q 88.921875 44.046875 88.921875 33.015625 
L 88.921875 0 
L 79.890625 0 
L 79.890625 32.71875 
Q 79.890625 40.578125 77.09375 44.375 
Q 74.3125 48.1875 68.609375 48.1875 
Q 61.625 48.1875 57.5625 43.546875 
Q 53.515625 38.921875 53.515625 30.90625 
L 53.515625 0 
L 44.484375 0 
L 44.484375 32.71875 
Q 44.484375 40.625 41.703125 44.40625 
Q 38.921875 48.1875 33.109375 48.1875 
Q 26.21875 48.1875 22.15625 43.53125 
Q 18.109375 38.875 18.109375 30.90625 
L 18.109375 0 
L 9.078125 0 
L 9.078125 54.6875 
L 18.109375 54.6875 
L 18.109375 46.1875 
Q 21.1875 51.21875 25.484375 53.609375 
Q 29.78125 56 35.6875 56 
Q 41.65625 56 45.828125 52.96875 
Q 50 49.953125 52 44.1875 
z
" id="DejaVuSans-109"/>
      <path d="M 56.203125 29.59375 
L 56.203125 25.203125 
L 14.890625 25.203125 
Q 15.484375 15.921875 20.484375 11.0625 
Q 25.484375 6.203125 34.421875 6.203125 
Q 39.59375 6.203125 44.453125 7.46875 
Q 49.3125 8.734375 54.109375 11.28125 
L 54.109375 2.78125 
Q 49.265625 0.734375 44.1875 -0.34375 
Q 39.109375 -1.421875 33.890625 -1.421875 
Q 20.796875 -1.421875 13.15625 6.1875 
Q 5.515625 13.8125 5.515625 26.8125 
Q 5.515625 40.234375 12.765625 48.109375 
Q 20.015625 56 32.328125 56 
Q 43.359375 56 49.78125 48.890625 
Q 56.203125 41.796875 56.203125 29.59375 
z
M 47.21875 32.234375 
Q 47.125 39.59375 43.09375 43.984375 
Q 39.0625 48.390625 32.421875 48.390625 
Q 24.90625 48.390625 20.390625 44.140625 
Q 15.875 39.890625 15.1875 32.171875 
z
" id="DejaVuSans-101"/>
      <path d="M 54.890625 33.015625 
L 54.890625 0 
L 45.90625 0 
L 45.90625 32.71875 
Q 45.90625 40.484375 42.875 44.328125 
Q 39.84375 48.1875 33.796875 48.1875 
Q 26.515625 48.1875 22.3125 43.546875 
Q 18.109375 38.921875 18.109375 30.90625 
L 18.109375 0 
L 9.078125 0 
L 9.078125 54.6875 
L 18.109375 54.6875 
L 18.109375 46.1875 
Q 21.34375 51.125 25.703125 53.5625 
Q 30.078125 56 35.796875 56 
Q 45.21875 56 50.046875 50.171875 
Q 54.890625 44.34375 54.890625 33.015625 
z
" id="DejaVuSans-110"/>
      <path d="M 18.3125 70.21875 
L 18.3125 54.6875 
L 36.8125 54.6875 
L 36.8125 47.703125 
L 18.3125 47.703125 
L 18.3125 18.015625 
Q 18.3125 11.328125 20.140625 9.421875 
Q 21.96875 7.515625 27.59375 7.515625 
L 36.8125 7.515625 
L 36.8125 0 
L 27.59375 0 
Q 17.1875 0 13.234375 3.875 
Q 9.28125 7.765625 9.28125 18.015625 
L 9.28125 47.703125 
L 2.6875 47.703125 
L 2.6875 54.6875 
L 9.28125 54.6875 
L 9.28125 70.21875 
z
" id="DejaVuSans-116"/>
      <path d="M 17.921875 72.90625 
L 17.921875 45.796875 
L 9.625 45.796875 
L 9.625 72.90625 
z
" id="DejaVuSans-39"/>
      <path d="M 44.28125 53.078125 
L 44.28125 44.578125 
Q 40.484375 46.53125 36.375 47.5 
Q 32.28125 48.484375 27.875 48.484375 
Q 21.1875 48.484375 17.84375 46.4375 
Q 14.5 44.390625 14.5 40.28125 
Q 14.5 37.15625 16.890625 35.375 
Q 19.28125 33.59375 26.515625 31.984375 
L 29.59375 31.296875 
Q 39.15625 29.25 43.1875 25.515625 
Q 47.21875 21.78125 47.21875 15.09375 
Q 47.21875 7.46875 41.1875 3.015625 
Q 35.15625 -1.421875 24.609375 -1.421875 
Q 20.21875 -1.421875 15.453125 -0.5625 
Q 10.6875 0.296875 5.421875 2 
L 5.421875 11.28125 
Q 10.40625 8.6875 15.234375 7.390625 
Q 20.0625 6.109375 24.8125 6.109375 
Q 31.15625 6.109375 34.5625 8.28125 
Q 37.984375 10.453125 37.984375 14.40625 
Q 37.984375 18.0625 35.515625 20.015625 
Q 33.0625 21.96875 24.703125 23.78125 
L 21.578125 24.515625 
Q 13.234375 26.265625 9.515625 29.90625 
Q 5.8125 33.546875 5.8125 39.890625 
Q 5.8125 47.609375 11.28125 51.796875 
Q 16.75 56 26.8125 56 
Q 31.78125 56 36.171875 55.265625 
Q 40.578125 54.546875 44.28125 53.078125 
z
" id="DejaVuSans-115"/>
      <path id="DejaVuSans-32"/>
      <path d="M 18.109375 8.203125 
L 18.109375 -20.796875 
L 9.078125 -20.796875 
L 9.078125 54.6875 
L 18.109375 54.6875 
L 18.109375 46.390625 
Q 20.953125 51.265625 25.265625 53.625 
Q 29.59375 56 35.59375 56 
Q 45.5625 56 51.78125 48.09375 
Q 58.015625 40.1875 58.015625 27.296875 
Q 58.015625 14.40625 51.78125 6.484375 
Q 45.5625 -1.421875 35.59375 -1.421875 
Q 29.59375 -1.421875 25.265625 0.953125 
Q 20.953125 3.328125 18.109375 8.203125 
z
M 48.6875 27.296875 
Q 48.6875 37.203125 44.609375 42.84375 
Q 40.53125 48.484375 33.40625 48.484375 
Q 26.265625 48.484375 22.1875 42.84375 
Q 18.109375 37.203125 18.109375 27.296875 
Q 18.109375 17.390625 22.1875 11.75 
Q 26.265625 6.109375 33.40625 6.109375 
Q 40.53125 6.109375 44.609375 11.75 
Q 48.6875 17.390625 48.6875 27.296875 
z
" id="DejaVuSans-112"/>
      <path d="M 41.109375 46.296875 
Q 39.59375 47.171875 37.8125 47.578125 
Q 36.03125 48 33.890625 48 
Q 26.265625 48 22.1875 43.046875 
Q 18.109375 38.09375 18.109375 28.8125 
L 18.109375 0 
L 9.078125 0 
L 9.078125 54.6875 
L 18.109375 54.6875 
L 18.109375 46.1875 
Q 20.953125 51.171875 25.484375 53.578125 
Q 30.03125 56 36.53125 56 
Q 37.453125 56 38.578125 55.875 
Q 39.703125 55.765625 41.0625 55.515625 
z
" id="DejaVuSans-114"/>
      <path d="M 34.28125 27.484375 
Q 23.390625 27.484375 19.1875 25 
Q 14.984375 22.515625 14.984375 16.5 
Q 14.984375 11.71875 18.140625 8.90625 
Q 21.296875 6.109375 26.703125 6.109375 
Q 34.1875 6.109375 38.703125 11.40625 
Q 43.21875 16.703125 43.21875 25.484375 
L 43.21875 27.484375 
z
M 52.203125 31.203125 
L 52.203125 0 
L 43.21875 0 
L 43.21875 8.296875 
Q 40.140625 3.328125 35.546875 0.953125 
Q 30.953125 -1.421875 24.3125 -1.421875 
Q 15.921875 -1.421875 10.953125 3.296875 
Q 6 8.015625 6 15.921875 
Q 6 25.140625 12.171875 29.828125 
Q 18.359375 34.515625 30.609375 34.515625 
L 43.21875 34.515625 
L 43.21875 35.40625 
Q 43.21875 41.609375 39.140625 45 
Q 35.0625 48.390625 27.6875 48.390625 
Q 23 48.390625 18.546875 47.265625 
Q 14.109375 46.140625 10.015625 43.890625 
L 10.015625 52.203125 
Q 14.9375 54.109375 19.578125 55.046875 
Q 24.21875 56 28.609375 56 
Q 40.484375 56 46.34375 49.84375 
Q 52.203125 43.703125 52.203125 31.203125 
z
" id="DejaVuSans-97"/>
      <path d="M 45.40625 27.984375 
Q 45.40625 37.75 41.375 43.109375 
Q 37.359375 48.484375 30.078125 48.484375 
Q 22.859375 48.484375 18.828125 43.109375 
Q 14.796875 37.75 14.796875 27.984375 
Q 14.796875 18.265625 18.828125 12.890625 
Q 22.859375 7.515625 30.078125 7.515625 
Q 37.359375 7.515625 41.375 12.890625 
Q 45.40625 18.265625 45.40625 27.984375 
z
M 54.390625 6.78125 
Q 54.390625 -7.171875 48.1875 -13.984375 
Q 42 -20.796875 29.203125 -20.796875 
Q 24.46875 -20.796875 20.265625 -20.09375 
Q 16.0625 -19.390625 12.109375 -17.921875 
L 12.109375 -9.1875 
Q 16.0625 -11.328125 19.921875 -12.34375 
Q 23.78125 -13.375 27.78125 -13.375 
Q 36.625 -13.375 41.015625 -8.765625 
Q 45.40625 -4.15625 45.40625 5.171875 
L 45.40625 9.625 
Q 42.625 4.78125 38.28125 2.390625 
Q 33.9375 0 27.875 0 
Q 17.828125 0 11.671875 7.65625 
Q 5.515625 15.328125 5.515625 27.984375 
Q 5.515625 40.671875 11.671875 48.328125 
Q 17.828125 56 27.875 56 
Q 33.9375 56 38.28125 53.609375 
Q 42.625 51.21875 45.40625 46.390625 
L 45.40625 54.6875 
L 54.390625 54.6875 
z
" id="DejaVuSans-103"/>
      <path d="M 37.109375 75.984375 
L 37.109375 68.5 
L 28.515625 68.5 
Q 23.6875 68.5 21.796875 66.546875 
Q 19.921875 64.59375 19.921875 59.515625 
L 19.921875 54.6875 
L 34.71875 54.6875 
L 34.71875 47.703125 
L 19.921875 47.703125 
L 19.921875 0 
L 10.890625 0 
L 10.890625 47.703125 
L 2.296875 47.703125 
L 2.296875 54.6875 
L 10.890625 54.6875 
L 10.890625 58.5 
Q 10.890625 67.625 15.140625 71.796875 
Q 19.390625 75.984375 28.609375 75.984375 
z
" id="DejaVuSans-102"/>
      <path d="M 54.890625 33.015625 
L 54.890625 0 
L 45.90625 0 
L 45.90625 32.71875 
Q 45.90625 40.484375 42.875 44.328125 
Q 39.84375 48.1875 33.796875 48.1875 
Q 26.515625 48.1875 22.3125 43.546875 
Q 18.109375 38.921875 18.109375 30.90625 
L 18.109375 0 
L 9.078125 0 
L 9.078125 75.984375 
L 18.109375 75.984375 
L 18.109375 46.1875 
Q 21.34375 51.125 25.703125 53.5625 
Q 30.078125 56 35.796875 56 
Q 45.21875 56 50.046875 50.171875 
Q 54.890625 44.34375 54.890625 33.015625 
z
" id="DejaVuSans-104"/>
      <path d="M 9.078125 75.984375 
L 18.109375 75.984375 
L 18.109375 31.109375 
L 44.921875 54.6875 
L 56.390625 54.6875 
L 27.390625 29.109375 
L 57.625 0 
L 45.90625 0 
L 18.109375 26.703125 
L 18.109375 0 
L 9.078125 0 
z
" id="DejaVuSans-107"/>
     </defs>
     <g transform="translate(323.903125 427.056562)scale(0.1 -0.1)">
      <use xlink:href="#DejaVuSans-100"/>
      <use x="63.476562" xlink:href="#DejaVuSans-111"/>
      <use x="124.658203" xlink:href="#DejaVuSans-99"/>
      <use x="179.638672" xlink:href="#DejaVuSans-117"/>
      <use x="243.017578" xlink:href="#DejaVuSans-109"/>
      <use x="340.429688" xlink:href="#DejaVuSans-101"/>
      <use x="401.953125" xlink:href="#DejaVuSans-110"/>
      <use x="465.332031" xlink:href="#DejaVuSans-116"/>
      <use x="504.541016" xlink:href="#DejaVuSans-39"/>
      <use x="532.03125" xlink:href="#DejaVuSans-115"/>
      <use x="584.130859" xlink:href="#DejaVuSans-32"/>
      <use x="615.917969" xlink:href="#DejaVuSans-112"/>
      <use x="679.394531" xlink:href="#DejaVuSans-101"/>
      <use x="740.917969" xlink:href="#DejaVuSans-114"/>
      <use x="782" xlink:href="#DejaVuSans-99"/>
      <use x="836.980469" xlink:href="#DejaVuSans-101"/>
      <use x="898.503906" xlink:href="#DejaVuSans-110"/>
      <use x="961.882812" xlink:href="#DejaVuSans-116"/>
      <use x="1001.091797" xlink:href="#DejaVuSans-97"/>
      <use x="1062.371094" xlink:href="#DejaVuSans-103"/>
      <use x="1125.847656" xlink:href="#DejaVuSans-101"/>
      <use x="1187.371094" xlink:href="#DejaVuSans-32"/>
      <use x="1219.158203" xlink:href="#DejaVuSans-111"/>
      <use x="1280.339844" xlink:href="#DejaVuSans-102"/>
      <use x="1315.544922" xlink:href="#DejaVuSans-32"/>
      <use x="1347.332031" xlink:href="#DejaVuSans-116"/>
      <use x="1386.541016" xlink:href="#DejaVuSans-104"/>
      <use x="1449.919922" xlink:href="#DejaVuSans-101"/>
      <use x="1511.443359" xlink:href="#DejaVuSans-32"/>
      <use x="1543.230469" xlink:href="#DejaVuSans-99"/>
      <use x="1598.210938" xlink:href="#DejaVuSans-104"/>
      <use x="1661.589844" xlink:href="#DejaVuSans-117"/>
      <use x="1724.96875" xlink:href="#DejaVuSans-110"/>
      <use x="1788.347656" xlink:href="#DejaVuSans-107"/>
      <use x="1846.257812" xlink:href="#DejaVuSans-39"/>
      <use x="1873.748047" xlink:href="#DejaVuSans-115"/>
      <use x="1925.847656" xlink:href="#DejaVuSans-32"/>
      <use x="1957.634766" xlink:href="#DejaVuSans-101"/>
      <use x="2019.158203" xlink:href="#DejaVuSans-110"/>
      <use x="2082.537109" xlink:href="#DejaVuSans-100"/>
     </g>
    </g>
   </g>
   <g id="matplotlib.axis_2">
    <g id="ytick_1">
     <g id="line2d_7">
      <defs>
       <path d="M 0 0 
L -3.5 0 
" id="m2255d48dd7" style="stroke:#000000;stroke-width:0.8;"/>
      </defs>
      <g>
       <use style="stroke:#000000;stroke-width:0.8;" x="40.603125" xlink:href="#m2255d48dd7" y="365.704619"/>
      </g>
     </g>
     <g id="text_8">
      <!-- 10 -->
      <g transform="translate(20.878125 369.503838)scale(0.1 -0.1)">
       <use xlink:href="#DejaVuSans-49"/>
       <use x="63.623047" xlink:href="#DejaVuSans-48"/>
      </g>
     </g>
    </g>
    <g id="ytick_2">
     <g id="line2d_8">
      <g>
       <use style="stroke:#000000;stroke-width:0.8;" x="40.603125" xlink:href="#m2255d48dd7" y="281.145725"/>
      </g>
     </g>
     <g id="text_9">
      <!-- 15 -->
      <defs>
       <path d="M 10.796875 72.90625 
L 49.515625 72.90625 
L 49.515625 64.59375 
L 19.828125 64.59375 
L 19.828125 46.734375 
Q 21.96875 47.46875 24.109375 47.828125 
Q 26.265625 48.1875 28.421875 48.1875 
Q 40.625 48.1875 47.75 41.5 
Q 54.890625 34.8125 54.890625 23.390625 
Q 54.890625 11.625 47.5625 5.09375 
Q 40.234375 -1.421875 26.90625 -1.421875 
Q 22.3125 -1.421875 17.546875 -0.640625 
Q 12.796875 0.140625 7.71875 1.703125 
L 7.71875 11.625 
Q 12.109375 9.234375 16.796875 8.0625 
Q 21.484375 6.890625 26.703125 6.890625 
Q 35.15625 6.890625 40.078125 11.328125 
Q 45.015625 15.765625 45.015625 23.390625 
Q 45.015625 31 40.078125 35.4375 
Q 35.15625 39.890625 26.703125 39.890625 
Q 22.75 39.890625 18.8125 39.015625 
Q 14.890625 38.140625 10.796875 36.28125 
z
" id="DejaVuSans-53"/>
      </defs>
      <g transform="translate(20.878125 284.944944)scale(0.1 -0.1)">
       <use xlink:href="#DejaVuSans-49"/>
       <use x="63.623047" xlink:href="#DejaVuSans-53"/>
      </g>
     </g>
    </g>
    <g id="ytick_3">
     <g id="line2d_9">
      <g>
       <use style="stroke:#000000;stroke-width:0.8;" x="40.603125" xlink:href="#m2255d48dd7" y="196.586831"/>
      </g>
     </g>
     <g id="text_10">
      <!-- 20 -->
      <g transform="translate(20.878125 200.38605)scale(0.1 -0.1)">
       <use xlink:href="#DejaVuSans-50"/>
       <use x="63.623047" xlink:href="#DejaVuSans-48"/>
      </g>
     </g>
    </g>
    <g id="ytick_4">
     <g id="line2d_10">
      <g>
       <use style="stroke:#000000;stroke-width:0.8;" x="40.603125" xlink:href="#m2255d48dd7" y="112.027937"/>
      </g>
     </g>
     <g id="text_11">
      <!-- 25 -->
      <g transform="translate(20.878125 115.827156)scale(0.1 -0.1)">
       <use xlink:href="#DejaVuSans-50"/>
       <use x="63.623047" xlink:href="#DejaVuSans-53"/>
      </g>
     </g>
    </g>
    <g id="ytick_5">
     <g id="line2d_11">
      <g>
       <use style="stroke:#000000;stroke-width:0.8;" x="40.603125" xlink:href="#m2255d48dd7" y="27.469043"/>
      </g>
     </g>
     <g id="text_12">
      <!-- 30 -->
      <defs>
       <path d="M 40.578125 39.3125 
Q 47.65625 37.796875 51.625 33 
Q 55.609375 28.21875 55.609375 21.1875 
Q 55.609375 10.40625 48.1875 4.484375 
Q 40.765625 -1.421875 27.09375 -1.421875 
Q 22.515625 -1.421875 17.65625 -0.515625 
Q 12.796875 0.390625 7.625 2.203125 
L 7.625 11.71875 
Q 11.71875 9.328125 16.59375 8.109375 
Q 21.484375 6.890625 26.8125 6.890625 
Q 36.078125 6.890625 40.9375 10.546875 
Q 45.796875 14.203125 45.796875 21.1875 
Q 45.796875 27.640625 41.28125 31.265625 
Q 36.765625 34.90625 28.71875 34.90625 
L 20.21875 34.90625 
L 20.21875 43.015625 
L 29.109375 43.015625 
Q 36.375 43.015625 40.234375 45.921875 
Q 44.09375 48.828125 44.09375 54.296875 
Q 44.09375 59.90625 40.109375 62.90625 
Q 36.140625 65.921875 28.71875 65.921875 
Q 24.65625 65.921875 20.015625 65.03125 
Q 15.375 64.15625 9.8125 62.3125 
L 9.8125 71.09375 
Q 15.4375 72.65625 20.34375 73.4375 
Q 25.25 74.21875 29.59375 74.21875 
Q 40.828125 74.21875 47.359375 69.109375 
Q 53.90625 64.015625 53.90625 55.328125 
Q 53.90625 49.265625 50.4375 45.09375 
Q 46.96875 40.921875 40.578125 39.3125 
z
" id="DejaVuSans-51"/>
      </defs>
      <g transform="translate(20.878125 31.268262)scale(0.1 -0.1)">
       <use xlink:href="#DejaVuSans-51"/>
       <use x="63.623047" xlink:href="#DejaVuSans-48"/>
      </g>
     </g>
    </g>
    <g id="text_13">
     <!-- GFI -->
     <defs>
      <path d="M 59.515625 10.40625 
L 59.515625 29.984375 
L 43.40625 29.984375 
L 43.40625 38.09375 
L 69.28125 38.09375 
L 69.28125 6.78125 
Q 63.578125 2.734375 56.6875 0.65625 
Q 49.8125 -1.421875 42 -1.421875 
Q 24.90625 -1.421875 15.25 8.5625 
Q 5.609375 18.5625 5.609375 36.375 
Q 5.609375 54.25 15.25 64.234375 
Q 24.90625 74.21875 42 74.21875 
Q 49.125 74.21875 55.546875 72.453125 
Q 61.96875 70.703125 67.390625 67.28125 
L 67.390625 56.78125 
Q 61.921875 61.421875 55.765625 63.765625 
Q 49.609375 66.109375 42.828125 66.109375 
Q 29.4375 66.109375 22.71875 58.640625 
Q 16.015625 51.171875 16.015625 36.375 
Q 16.015625 21.625 22.71875 14.15625 
Q 29.4375 6.6875 42.828125 6.6875 
Q 48.046875 6.6875 52.140625 7.59375 
Q 56.25 8.5 59.515625 10.40625 
z
" id="DejaVuSans-71"/>
      <path d="M 9.8125 72.90625 
L 51.703125 72.90625 
L 51.703125 64.59375 
L 19.671875 64.59375 
L 19.671875 43.109375 
L 48.578125 43.109375 
L 48.578125 34.8125 
L 19.671875 34.8125 
L 19.671875 0 
L 9.8125 0 
z
" id="DejaVuSans-70"/>
      <path d="M 9.8125 72.90625 
L 19.671875 72.90625 
L 19.671875 0 
L 9.8125 0 
z
" id="DejaVuSans-73"/>
     </defs>
     <g transform="translate(14.798438 212.965)rotate(-90)scale(0.1 -0.1)">
      <use xlink:href="#DejaVuSans-71"/>
      <use x="77.490234" xlink:href="#DejaVuSans-70"/>
      <use x="135.009766" xlink:href="#DejaVuSans-73"/>
     </g>
    </g>
   </g>
   <g id="line2d_12">
    <path clip-path="url(#pa917ff541b)" d="M 151.663473 205.38603 
L 242.324982 201.743233 
L 332.986491 231.274581 
L 423.647999 318.448036 
L 514.309508 229.769433 
L 604.971017 238.232087 
L 695.632525 236.737085 
L 786.294034 255.778057 
" style="fill:none;stroke:#acc2d9;stroke-linecap:square;stroke-width:1.5;"/>
    <defs>
     <path d="M 0 3 
C 0.795609 3 1.55874 2.683901 2.12132 2.12132 
C 2.683901 1.55874 3 0.795609 3 0 
C 3 -0.795609 2.683901 -1.55874 2.12132 -2.12132 
C 1.55874 -2.683901 0.795609 -3 0 -3 
C -0.795609 -3 -1.55874 -2.683901 -2.12132 -2.12132 
C -2.683901 -1.55874 -3 -0.795609 -3 0 
C -3 0.795609 -2.683901 1.55874 -2.12132 2.12132 
C -1.55874 2.683901 -0.795609 3 0 3 
z
" id="m44e6f24044" style="stroke:#acc2d9;"/>
    </defs>
    <g clip-path="url(#pa917ff541b)">
     <use style="fill:#acc2d9;stroke:#acc2d9;" x="151.663473" xlink:href="#m44e6f24044" y="205.38603"/>
     <use style="fill:#acc2d9;stroke:#acc2d9;" x="242.324982" xlink:href="#m44e6f24044" y="201.743233"/>
     <use style="fill:#acc2d9;stroke:#acc2d9;" x="332.986491" xlink:href="#m44e6f24044" y="231.274581"/>
     <use style="fill:#acc2d9;stroke:#acc2d9;" x="423.647999" xlink:href="#m44e6f24044" y="318.448036"/>
     <use style="fill:#acc2d9;stroke:#acc2d9;" x="514.309508" xlink:href="#m44e6f24044" y="229.769433"/>
     <use style="fill:#acc2d9;stroke:#acc2d9;" x="604.971017" xlink:href="#m44e6f24044" y="238.232087"/>
     <use style="fill:#acc2d9;stroke:#acc2d9;" x="695.632525" xlink:href="#m44e6f24044" y="236.737085"/>
     <use style="fill:#acc2d9;stroke:#acc2d9;" x="786.294034" xlink:href="#m44e6f24044" y="255.778057"/>
    </g>
   </g>
   <g id="line2d_13">
    <path clip-path="url(#pa917ff541b)" d="M 76.112216 226.79296 
L 91.222467 292.200955 
L 106.332719 253.050187 
L 121.44297 255.615704 
L 136.553222 267.898729 
L 151.663473 264.846153 
L 166.773725 239.952015 
L 181.883976 265.147183 
L 196.994228 255.725631 
L 212.104479 259.206075 
L 227.21473 322.70304 
L 242.324982 303.371185 
L 257.435233 296.521915 
L 272.545485 284.090066 
L 287.655736 250.173494 
L 302.765988 318.835316 
L 317.876239 301.879566 
L 332.986491 304.77148 
L 348.096742 276.215942 
L 363.206993 265.757698 
L 378.317245 313.511488 
L 393.427496 288.292643 
L 408.537748 296.929489 
L 423.647999 300.031109 
L 438.758251 325.933189 
L 453.868502 288.267276 
L 468.978754 311.926854 
L 484.089005 336.699228 
L 499.199257 335.075697 
L 514.309508 336.139448 
L 529.419759 342.259821 
L 544.530011 329.543854 
L 559.640262 378.789263 
L 574.750514 345.645559 
L 589.860765 353.545051 
L 604.971017 379.399778 
L 620.081268 381.14 
L 635.19152 348.082546 
L 650.301771 350.490783 
L 665.412022 342.276732 
L 680.522274 342.875409 
L 695.632525 327.883117 
L 710.742777 333.315181 
L 725.853028 366.391238 
L 740.96328 328.652603 
L 756.073531 339.208936 
L 771.183783 304.367289 
L 786.294034 320.227155 
" style="fill:none;stroke:#56ae57;stroke-linecap:square;stroke-width:1.5;"/>
    <defs>
     <path d="M 0 3 
C 0.795609 3 1.55874 2.683901 2.12132 2.12132 
C 2.683901 1.55874 3 0.795609 3 0 
C 3 -0.795609 2.683901 -1.55874 2.12132 -2.12132 
C 1.55874 -2.683901 0.795609 -3 0 -3 
C -0.795609 -3 -1.55874 -2.683901 -2.12132 -2.12132 
C -2.683901 -1.55874 -3 -0.795609 -3 0 
C -3 0.795609 -2.683901 1.55874 -2.12132 2.12132 
C -1.55874 2.683901 -0.795609 3 0 3 
z
" id="md8ad676615" style="stroke:#56ae57;"/>
    </defs>
    <g clip-path="url(#pa917ff541b)">
     <use style="fill:#56ae57;stroke:#56ae57;" x="76.112216" xlink:href="#md8ad676615" y="226.79296"/>
     <use style="fill:#56ae57;stroke:#56ae57;" x="91.222467" xlink:href="#md8ad676615" y="292.200955"/>
     <use style="fill:#56ae57;stroke:#56ae57;" x="106.332719" xlink:href="#md8ad676615" y="253.050187"/>
     <use style="fill:#56ae57;stroke:#56ae57;" x="121.44297" xlink:href="#md8ad676615" y="255.615704"/>
     <use style="fill:#56ae57;stroke:#56ae57;" x="136.553222" xlink:href="#md8ad676615" y="267.898729"/>
     <use style="fill:#56ae57;stroke:#56ae57;" x="151.663473" xlink:href="#md8ad676615" y="264.846153"/>
     <use style="fill:#56ae57;stroke:#56ae57;" x="166.773725" xlink:href="#md8ad676615" y="239.952015"/>
     <use style="fill:#56ae57;stroke:#56ae57;" x="181.883976" xlink:href="#md8ad676615" y="265.147183"/>
     <use style="fill:#56ae57;stroke:#56ae57;" x="196.994228" xlink:href="#md8ad676615" y="255.725631"/>
     <use style="fill:#56ae57;stroke:#56ae57;" x="212.104479" xlink:href="#md8ad676615" y="259.206075"/>
     <use style="fill:#56ae57;stroke:#56ae57;" x="227.21473" xlink:href="#md8ad676615" y="322.70304"/>
     <use style="fill:#56ae57;stroke:#56ae57;" x="242.324982" xlink:href="#md8ad676615" y="303.371185"/>
     <use style="fill:#56ae57;stroke:#56ae57;" x="257.435233" xlink:href="#md8ad676615" y="296.521915"/>
     <use style="fill:#56ae57;stroke:#56ae57;" x="272.545485" xlink:href="#md8ad676615" y="284.090066"/>
     <use style="fill:#56ae57;stroke:#56ae57;" x="287.655736" xlink:href="#md8ad676615" y="250.173494"/>
     <use style="fill:#56ae57;stroke:#56ae57;" x="302.765988" xlink:href="#md8ad676615" y="318.835316"/>
     <use style="fill:#56ae57;stroke:#56ae57;" x="317.876239" xlink:href="#md8ad676615" y="301.879566"/>
     <use style="fill:#56ae57;stroke:#56ae57;" x="332.986491" xlink:href="#md8ad676615" y="304.77148"/>
     <use style="fill:#56ae57;stroke:#56ae57;" x="348.096742" xlink:href="#md8ad676615" y="276.215942"/>
     <use style="fill:#56ae57;stroke:#56ae57;" x="363.206993" xlink:href="#md8ad676615" y="265.757698"/>
     <use style="fill:#56ae57;stroke:#56ae57;" x="378.317245" xlink:href="#md8ad676615" y="313.511488"/>
     <use style="fill:#56ae57;stroke:#56ae57;" x="393.427496" xlink:href="#md8ad676615" y="288.292643"/>
     <use style="fill:#56ae57;stroke:#56ae57;" x="408.537748" xlink:href="#md8ad676615" y="296.929489"/>
     <use style="fill:#56ae57;stroke:#56ae57;" x="423.647999" xlink:href="#md8ad676615" y="300.031109"/>
     <use style="fill:#56ae57;stroke:#56ae57;" x="438.758251" xlink:href="#md8ad676615" y="325.933189"/>
     <use style="fill:#56ae57;stroke:#56ae57;" x="453.868502" xlink:href="#md8ad676615" y="288.267276"/>
     <use style="fill:#56ae57;stroke:#56ae57;" x="468.978754" xlink:href="#md8ad676615" y="311.926854"/>
     <use style="fill:#56ae57;stroke:#56ae57;" x="484.089005" xlink:href="#md8ad676615" y="336.699228"/>
     <use style="fill:#56ae57;stroke:#56ae57;" x="499.199257" xlink:href="#md8ad676615" y="335.075697"/>
     <use style="fill:#56ae57;stroke:#56ae57;" x="514.309508" xlink:href="#md8ad676615" y="336.139448"/>
     <use style="fill:#56ae57;stroke:#56ae57;" x="529.419759" xlink:href="#md8ad676615" y="342.259821"/>
     <use style="fill:#56ae57;stroke:#56ae57;" x="544.530011" xlink:href="#md8ad676615" y="329.543854"/>
     <use style="fill:#56ae57;stroke:#56ae57;" x="559.640262" xlink:href="#md8ad676615" y="378.789263"/>
     <use style="fill:#56ae57;stroke:#56ae57;" x="574.750514" xlink:href="#md8ad676615" y="345.645559"/>
     <use style="fill:#56ae57;stroke:#56ae57;" x="589.860765" xlink:href="#md8ad676615" y="353.545051"/>
     <use style="fill:#56ae57;stroke:#56ae57;" x="604.971017" xlink:href="#md8ad676615" y="379.399778"/>
     <use style="fill:#56ae57;stroke:#56ae57;" x="620.081268" xlink:href="#md8ad676615" y="381.14"/>
     <use style="fill:#56ae57;stroke:#56ae57;" x="635.19152" xlink:href="#md8ad676615" y="348.082546"/>
     <use style="fill:#56ae57;stroke:#56ae57;" x="650.301771" xlink:href="#md8ad676615" y="350.490783"/>
     <use style="fill:#56ae57;stroke:#56ae57;" x="665.412022" xlink:href="#md8ad676615" y="342.276732"/>
     <use style="fill:#56ae57;stroke:#56ae57;" x="680.522274" xlink:href="#md8ad676615" y="342.875409"/>
     <use style="fill:#56ae57;stroke:#56ae57;" x="695.632525" xlink:href="#md8ad676615" y="327.883117"/>
     <use style="fill:#56ae57;stroke:#56ae57;" x="710.742777" xlink:href="#md8ad676615" y="333.315181"/>
     <use style="fill:#56ae57;stroke:#56ae57;" x="725.853028" xlink:href="#md8ad676615" y="366.391238"/>
     <use style="fill:#56ae57;stroke:#56ae57;" x="740.96328" xlink:href="#md8ad676615" y="328.652603"/>
     <use style="fill:#56ae57;stroke:#56ae57;" x="756.073531" xlink:href="#md8ad676615" y="339.208936"/>
     <use style="fill:#56ae57;stroke:#56ae57;" x="771.183783" xlink:href="#md8ad676615" y="304.367289"/>
     <use style="fill:#56ae57;stroke:#56ae57;" x="786.294034" xlink:href="#md8ad676615" y="320.227155"/>
    </g>
   </g>
   <g id="line2d_14">
    <path clip-path="url(#pa917ff541b)" d="M 82.334084 249.557905 
L 103.666204 276.42903 
L 124.998324 256.972029 
L 146.330443 290.550366 
L 167.662563 269.720128 
L 188.994683 258.960854 
L 210.326802 249.777758 
L 231.658922 250.435626 
L 252.991042 237.981792 
L 274.323161 218.837659 
L 295.655281 303.589347 
L 316.987401 340.725922 
L 338.31952 376.139187 
L 359.65164 280.34749 
L 380.98376 244.65518 
L 402.31588 296.058532 
L 423.647999 248.343639 
L 444.980119 325.916277 
L 466.312239 259.710046 
L 487.644358 303.744935 
L 508.976478 269.383583 
L 530.308598 274.230499 
L 551.640717 274.472338 
L 572.972837 292.899412 
L 594.304957 303.322141 
L 615.637077 280.685725 
L 636.969196 344.769529 
L 658.301316 219.059203 
L 679.633436 262.18593 
L 700.965555 341.51232 
L 722.297675 262.421004 
L 743.629795 178.482772 
L 764.961914 254.291512 
L 786.294034 229.12002 
" style="fill:none;stroke:#b2996e;stroke-linecap:square;stroke-width:1.5;"/>
    <defs>
     <path d="M 0 3 
C 0.795609 3 1.55874 2.683901 2.12132 2.12132 
C 2.683901 1.55874 3 0.795609 3 0 
C 3 -0.795609 2.683901 -1.55874 2.12132 -2.12132 
C 1.55874 -2.683901 0.795609 -3 0 -3 
C -0.795609 -3 -1.55874 -2.683901 -2.12132 -2.12132 
C -2.683901 -1.55874 -3 -0.795609 -3 0 
C -3 0.795609 -2.683901 1.55874 -2.12132 2.12132 
C -1.55874 2.683901 -0.795609 3 0 3 
z
" id="me6ae138f14" style="stroke:#b2996e;"/>
    </defs>
    <g clip-path="url(#pa917ff541b)">
     <use style="fill:#b2996e;stroke:#b2996e;" x="82.334084" xlink:href="#me6ae138f14" y="249.557905"/>
     <use style="fill:#b2996e;stroke:#b2996e;" x="103.666204" xlink:href="#me6ae138f14" y="276.42903"/>
     <use style="fill:#b2996e;stroke:#b2996e;" x="124.998324" xlink:href="#me6ae138f14" y="256.972029"/>
     <use style="fill:#b2996e;stroke:#b2996e;" x="146.330443" xlink:href="#me6ae138f14" y="290.550366"/>
     <use style="fill:#b2996e;stroke:#b2996e;" x="167.662563" xlink:href="#me6ae138f14" y="269.720128"/>
     <use style="fill:#b2996e;stroke:#b2996e;" x="188.994683" xlink:href="#me6ae138f14" y="258.960854"/>
     <use style="fill:#b2996e;stroke:#b2996e;" x="210.326802" xlink:href="#me6ae138f14" y="249.777758"/>
     <use style="fill:#b2996e;stroke:#b2996e;" x="231.658922" xlink:href="#me6ae138f14" y="250.435626"/>
     <use style="fill:#b2996e;stroke:#b2996e;" x="252.991042" xlink:href="#me6ae138f14" y="237.981792"/>
     <use style="fill:#b2996e;stroke:#b2996e;" x="274.323161" xlink:href="#me6ae138f14" y="218.837659"/>
     <use style="fill:#b2996e;stroke:#b2996e;" x="295.655281" xlink:href="#me6ae138f14" y="303.589347"/>
     <use style="fill:#b2996e;stroke:#b2996e;" x="316.987401" xlink:href="#me6ae138f14" y="340.725922"/>
     <use style="fill:#b2996e;stroke:#b2996e;" x="338.31952" xlink:href="#me6ae138f14" y="376.139187"/>
     <use style="fill:#b2996e;stroke:#b2996e;" x="359.65164" xlink:href="#me6ae138f14" y="280.34749"/>
     <use style="fill:#b2996e;stroke:#b2996e;" x="380.98376" xlink:href="#me6ae138f14" y="244.65518"/>
     <use style="fill:#b2996e;stroke:#b2996e;" x="402.31588" xlink:href="#me6ae138f14" y="296.058532"/>
     <use style="fill:#b2996e;stroke:#b2996e;" x="423.647999" xlink:href="#me6ae138f14" y="248.343639"/>
     <use style="fill:#b2996e;stroke:#b2996e;" x="444.980119" xlink:href="#me6ae138f14" y="325.916277"/>
     <use style="fill:#b2996e;stroke:#b2996e;" x="466.312239" xlink:href="#me6ae138f14" y="259.710046"/>
     <use style="fill:#b2996e;stroke:#b2996e;" x="487.644358" xlink:href="#me6ae138f14" y="303.744935"/>
     <use style="fill:#b2996e;stroke:#b2996e;" x="508.976478" xlink:href="#me6ae138f14" y="269.383583"/>
     <use style="fill:#b2996e;stroke:#b2996e;" x="530.308598" xlink:href="#me6ae138f14" y="274.230499"/>
     <use style="fill:#b2996e;stroke:#b2996e;" x="551.640717" xlink:href="#me6ae138f14" y="274.472338"/>
     <use style="fill:#b2996e;stroke:#b2996e;" x="572.972837" xlink:href="#me6ae138f14" y="292.899412"/>
     <use style="fill:#b2996e;stroke:#b2996e;" x="594.304957" xlink:href="#me6ae138f14" y="303.322141"/>
     <use style="fill:#b2996e;stroke:#b2996e;" x="615.637077" xlink:href="#me6ae138f14" y="280.685725"/>
     <use style="fill:#b2996e;stroke:#b2996e;" x="636.969196" xlink:href="#me6ae138f14" y="344.769529"/>
     <use style="fill:#b2996e;stroke:#b2996e;" x="658.301316" xlink:href="#me6ae138f14" y="219.059203"/>
     <use style="fill:#b2996e;stroke:#b2996e;" x="679.633436" xlink:href="#me6ae138f14" y="262.18593"/>
     <use style="fill:#b2996e;stroke:#b2996e;" x="700.965555" xlink:href="#me6ae138f14" y="341.51232"/>
     <use style="fill:#b2996e;stroke:#b2996e;" x="722.297675" xlink:href="#me6ae138f14" y="262.421004"/>
     <use style="fill:#b2996e;stroke:#b2996e;" x="743.629795" xlink:href="#me6ae138f14" y="178.482772"/>
     <use style="fill:#b2996e;stroke:#b2996e;" x="764.961914" xlink:href="#me6ae138f14" y="254.291512"/>
     <use style="fill:#b2996e;stroke:#b2996e;" x="786.294034" xlink:href="#me6ae138f14" y="229.12002"/>
    </g>
   </g>
   <g id="line2d_15">
    <path clip-path="url(#pa917ff541b)" d="M 93.969786 298.502284 
L 126.937607 278.866018 
L 159.905428 308.370307 
L 192.87325 347.475413 
L 225.841071 303.518318 
L 258.808893 250.435626 
L 291.776714 284.528081 
L 324.744535 294.690369 
L 357.712357 282.997565 
L 390.680178 188.93256 
L 423.647999 140.165755 
L 456.615821 275.157265 
L 489.583642 275.032117 
L 522.551463 284.634625 
L 555.519285 309.435749 
L 588.487106 312.200825 
L 621.454927 276.719913 
L 654.422749 282.439477 
L 687.39057 283.645286 
L 720.358391 309.978617 
L 753.326213 353.382697 
L 786.294034 282.285579 
" style="fill:none;stroke:#a8ff04;stroke-linecap:square;stroke-width:1.5;"/>
    <defs>
     <path d="M 0 3 
C 0.795609 3 1.55874 2.683901 2.12132 2.12132 
C 2.683901 1.55874 3 0.795609 3 0 
C 3 -0.795609 2.683901 -1.55874 2.12132 -2.12132 
C 1.55874 -2.683901 0.795609 -3 0 -3 
C -0.795609 -3 -1.55874 -2.683901 -2.12132 -2.12132 
C -2.683901 -1.55874 -3 -0.795609 -3 0 
C -3 0.795609 -2.683901 1.55874 -2.12132 2.12132 
C -1.55874 2.683901 -0.795609 3 0 3 
z
" id="m2930653c53" style="stroke:#a8ff04;"/>
    </defs>
    <g clip-path="url(#pa917ff541b)">
     <use style="fill:#a8ff04;stroke:#a8ff04;" x="93.969786" xlink:href="#m2930653c53" y="298.502284"/>
     <use style="fill:#a8ff04;stroke:#a8ff04;" x="126.937607" xlink:href="#m2930653c53" y="278.866018"/>
     <use style="fill:#a8ff04;stroke:#a8ff04;" x="159.905428" xlink:href="#m2930653c53" y="308.370307"/>
     <use style="fill:#a8ff04;stroke:#a8ff04;" x="192.87325" xlink:href="#m2930653c53" y="347.475413"/>
     <use style="fill:#a8ff04;stroke:#a8ff04;" x="225.841071" xlink:href="#m2930653c53" y="303.518318"/>
     <use style="fill:#a8ff04;stroke:#a8ff04;" x="258.808893" xlink:href="#m2930653c53" y="250.435626"/>
     <use style="fill:#a8ff04;stroke:#a8ff04;" x="291.776714" xlink:href="#m2930653c53" y="284.528081"/>
     <use style="fill:#a8ff04;stroke:#a8ff04;" x="324.744535" xlink:href="#m2930653c53" y="294.690369"/>
     <use style="fill:#a8ff04;stroke:#a8ff04;" x="357.712357" xlink:href="#m2930653c53" y="282.997565"/>
     <use style="fill:#a8ff04;stroke:#a8ff04;" x="390.680178" xlink:href="#m2930653c53" y="188.93256"/>
     <use style="fill:#a8ff04;stroke:#a8ff04;" x="423.647999" xlink:href="#m2930653c53" y="140.165755"/>
     <use style="fill:#a8ff04;stroke:#a8ff04;" x="456.615821" xlink:href="#m2930653c53" y="275.157265"/>
     <use style="fill:#a8ff04;stroke:#a8ff04;" x="489.583642" xlink:href="#m2930653c53" y="275.032117"/>
     <use style="fill:#a8ff04;stroke:#a8ff04;" x="522.551463" xlink:href="#m2930653c53" y="284.634625"/>
     <use style="fill:#a8ff04;stroke:#a8ff04;" x="555.519285" xlink:href="#m2930653c53" y="309.435749"/>
     <use style="fill:#a8ff04;stroke:#a8ff04;" x="588.487106" xlink:href="#m2930653c53" y="312.200825"/>
     <use style="fill:#a8ff04;stroke:#a8ff04;" x="621.454927" xlink:href="#m2930653c53" y="276.719913"/>
     <use style="fill:#a8ff04;stroke:#a8ff04;" x="654.422749" xlink:href="#m2930653c53" y="282.439477"/>
     <use style="fill:#a8ff04;stroke:#a8ff04;" x="687.39057" xlink:href="#m2930653c53" y="283.645286"/>
     <use style="fill:#a8ff04;stroke:#a8ff04;" x="720.358391" xlink:href="#m2930653c53" y="309.978617"/>
     <use style="fill:#a8ff04;stroke:#a8ff04;" x="753.326213" xlink:href="#m2930653c53" y="353.382697"/>
     <use style="fill:#a8ff04;stroke:#a8ff04;" x="786.294034" xlink:href="#m2930653c53" y="282.285579"/>
    </g>
   </g>
   <g id="line2d_16">
    <path clip-path="url(#pa917ff541b)" d="M 93.969786 237.733189 
L 126.937607 349.635047 
L 159.905428 271.468806 
L 192.87325 270.821085 
L 225.841071 197.055288 
L 258.808893 205.002133 
L 291.776714 223.816486 
L 324.744535 178.966449 
L 357.712357 225.81715 
L 390.680178 277.644987 
L 423.647999 246.124814 
L 456.615821 254.577321 
L 489.583642 268.394244 
L 522.551463 244.908857 
L 555.519285 296.755297 
L 588.487106 218.142585 
L 621.454927 286.567642 
L 654.422749 159.798639 
L 687.39057 28.34 
L 720.358391 256.02666 
L 753.326213 210.10949 
L 786.294034 275.383882 
" style="fill:none;stroke:#69d84f;stroke-linecap:square;stroke-width:1.5;"/>
    <defs>
     <path d="M 0 3 
C 0.795609 3 1.55874 2.683901 2.12132 2.12132 
C 2.683901 1.55874 3 0.795609 3 0 
C 3 -0.795609 2.683901 -1.55874 2.12132 -2.12132 
C 1.55874 -2.683901 0.795609 -3 0 -3 
C -0.795609 -3 -1.55874 -2.683901 -2.12132 -2.12132 
C -2.683901 -1.55874 -3 -0.795609 -3 0 
C -3 0.795609 -2.683901 1.55874 -2.12132 2.12132 
C -1.55874 2.683901 -0.795609 3 0 3 
z
" id="mcb5ac371ec" style="stroke:#69d84f;"/>
    </defs>
    <g clip-path="url(#pa917ff541b)">
     <use style="fill:#69d84f;stroke:#69d84f;" x="93.969786" xlink:href="#mcb5ac371ec" y="237.733189"/>
     <use style="fill:#69d84f;stroke:#69d84f;" x="126.937607" xlink:href="#mcb5ac371ec" y="349.635047"/>
     <use style="fill:#69d84f;stroke:#69d84f;" x="159.905428" xlink:href="#mcb5ac371ec" y="271.468806"/>
     <use style="fill:#69d84f;stroke:#69d84f;" x="192.87325" xlink:href="#mcb5ac371ec" y="270.821085"/>
     <use style="fill:#69d84f;stroke:#69d84f;" x="225.841071" xlink:href="#mcb5ac371ec" y="197.055288"/>
     <use style="fill:#69d84f;stroke:#69d84f;" x="258.808893" xlink:href="#mcb5ac371ec" y="205.002133"/>
     <use style="fill:#69d84f;stroke:#69d84f;" x="291.776714" xlink:href="#mcb5ac371ec" y="223.816486"/>
     <use style="fill:#69d84f;stroke:#69d84f;" x="324.744535" xlink:href="#mcb5ac371ec" y="178.966449"/>
     <use style="fill:#69d84f;stroke:#69d84f;" x="357.712357" xlink:href="#mcb5ac371ec" y="225.81715"/>
     <use style="fill:#69d84f;stroke:#69d84f;" x="390.680178" xlink:href="#mcb5ac371ec" y="277.644987"/>
     <use style="fill:#69d84f;stroke:#69d84f;" x="423.647999" xlink:href="#mcb5ac371ec" y="246.124814"/>
     <use style="fill:#69d84f;stroke:#69d84f;" x="456.615821" xlink:href="#mcb5ac371ec" y="254.577321"/>
     <use style="fill:#69d84f;stroke:#69d84f;" x="489.583642" xlink:href="#mcb5ac371ec" y="268.394244"/>
     <use style="fill:#69d84f;stroke:#69d84f;" x="522.551463" xlink:href="#mcb5ac371ec" y="244.908857"/>
     <use style="fill:#69d84f;stroke:#69d84f;" x="555.519285" xlink:href="#mcb5ac371ec" y="296.755297"/>
     <use style="fill:#69d84f;stroke:#69d84f;" x="588.487106" xlink:href="#mcb5ac371ec" y="218.142585"/>
     <use style="fill:#69d84f;stroke:#69d84f;" x="621.454927" xlink:href="#mcb5ac371ec" y="286.567642"/>
     <use style="fill:#69d84f;stroke:#69d84f;" x="654.422749" xlink:href="#mcb5ac371ec" y="159.798639"/>
     <use style="fill:#69d84f;stroke:#69d84f;" x="687.39057" xlink:href="#mcb5ac371ec" y="28.34"/>
     <use style="fill:#69d84f;stroke:#69d84f;" x="720.358391" xlink:href="#mcb5ac371ec" y="256.02666"/>
     <use style="fill:#69d84f;stroke:#69d84f;" x="753.326213" xlink:href="#mcb5ac371ec" y="210.10949"/>
     <use style="fill:#69d84f;stroke:#69d84f;" x="786.294034" xlink:href="#mcb5ac371ec" y="275.383882"/>
    </g>
   </g>
   <g id="patch_3">
    <path d="M 40.603125 398.78 
L 40.603125 10.7 
" style="fill:none;stroke:#000000;stroke-linecap:square;stroke-linejoin:miter;stroke-width:0.8;"/>
   </g>
   <g id="patch_4">
    <path d="M 821.803125 398.78 
L 821.803125 10.7 
" style="fill:none;stroke:#000000;stroke-linecap:square;stroke-linejoin:miter;stroke-width:0.8;"/>
   </g>
   <g id="patch_5">
    <path d="M 40.603125 398.78 
L 821.803125 398.78 
" style="fill:none;stroke:#000000;stroke-linecap:square;stroke-linejoin:miter;stroke-width:0.8;"/>
   </g>
   <g id="patch_6">
    <path d="M 40.603125 10.7 
L 821.803125 10.7 
" style="fill:none;stroke:#000000;stroke-linecap:square;stroke-linejoin:miter;stroke-width:0.8;"/>
   </g>
  </g>
 </g>
 <defs>
  <clipPath id="pa917ff541b">
   <rect height="388.08" width="781.2" x="40.603125" y="10.7"/>
  </clipPath>
 </defs>
</svg>
