<?xml version="1.0" encoding="utf-8" standalone="no"?>
<!DOCTYPE svg PUBLIC "-//W3C//DTD SVG 1.1//EN"
  "http://www.w3.org/Graphics/SVG/1.1/DTD/svg11.dtd">
<!-- Created with matplotlib (https://matplotlib.org/) -->
<svg height="436.33625pt" version="1.1" viewBox="0 0 832.503125 436.33625" width="832.503125pt" xmlns="http://www.w3.org/2000/svg" xmlns:xlink="http://www.w3.org/1999/xlink">
 <defs>
  <style type="text/css">
*{stroke-linecap:butt;stroke-linejoin:round;}
  </style>
 </defs>
 <g id="figure_1">
  <g id="patch_1">
   <path d="M 0 436.33625 
L 832.503125 436.33625 
L 832.503125 0 
L 0 0 
z
" style="fill:#ffffff;"/>
  </g>
  <g id="axes_1">
   <g id="patch_2">
    <path d="M 40.603125 398.78 
L 821.803125 398.78 
L 821.803125 10.7 
L 40.603125 10.7 
z
" style="fill:#ffffff;"/>
   </g>
   <g id="PathCollection_1">
    <defs>
     <path d="M 0 3 
C 0.795609 3 1.55874 2.683901 2.12132 2.12132 
C 2.683901 1.55874 3 0.795609 3 0 
C 3 -0.795609 2.683901 -1.55874 2.12132 -2.12132 
C 1.55874 -2.683901 0.795609 -3 0 -3 
C -0.795609 -3 -1.55874 -2.683901 -2.12132 -2.12132 
C -2.683901 -1.55874 -3 -0.795609 -3 0 
C -3 0.795609 -2.683901 1.55874 -2.12132 2.12132 
C -1.55874 2.683901 -0.795609 3 0 3 
z
" id="m31fce94ce3" style="stroke:#1f77b4;"/>
    </defs>
    <g clip-path="url(#pae3a9b9796)">
     <use style="fill:#1f77b4;stroke:#1f77b4;" x="786.256025" xlink:href="#m31fce94ce3" y="243.845678"/>
     <use style="fill:#1f77b4;stroke:#1f77b4;" x="641.721216" xlink:href="#m31fce94ce3" y="259.665107"/>
     <use style="fill:#1f77b4;stroke:#1f77b4;" x="578.879995" xlink:href="#m31fce94ce3" y="267.709704"/>
     <use style="fill:#1f77b4;stroke:#1f77b4;" x="516.038774" xlink:href="#m31fce94ce3" y="268.925654"/>
     <use style="fill:#1f77b4;stroke:#1f77b4;" x="453.197552" xlink:href="#m31fce94ce3" y="279.116281"/>
     <use style="fill:#1f77b4;stroke:#1f77b4;" x="390.356331" xlink:href="#m31fce94ce3" y="263.856511"/>
     <use style="fill:#1f77b4;stroke:#1f77b4;" x="390.356331" xlink:href="#m31fce94ce3" y="223.77445"/>
     <use style="fill:#1f77b4;stroke:#1f77b4;" x="327.51511" xlink:href="#m31fce94ce3" y="258.755158"/>
     <use style="fill:#1f77b4;stroke:#1f77b4;" x="327.51511" xlink:href="#m31fce94ce3" y="256.399758"/>
     <use style="fill:#1f77b4;stroke:#1f77b4;" x="296.094499" xlink:href="#m31fce94ce3" y="239.448931"/>
     <use style="fill:#1f77b4;stroke:#1f77b4;" x="296.094499" xlink:href="#m31fce94ce3" y="292.141441"/>
     <use style="fill:#1f77b4;stroke:#1f77b4;" x="264.673889" xlink:href="#m31fce94ce3" y="226.943167"/>
     <use style="fill:#1f77b4;stroke:#1f77b4;" x="264.673889" xlink:href="#m31fce94ce3" y="301.184566"/>
     <use style="fill:#1f77b4;stroke:#1f77b4;" x="264.673889" xlink:href="#m31fce94ce3" y="203.163694"/>
     <use style="fill:#1f77b4;stroke:#1f77b4;" x="233.253278" xlink:href="#m31fce94ce3" y="204.802408"/>
     <use style="fill:#1f77b4;stroke:#1f77b4;" x="233.253278" xlink:href="#m31fce94ce3" y="340.735153"/>
     <use style="fill:#1f77b4;stroke:#1f77b4;" x="233.253278" xlink:href="#m31fce94ce3" y="212.573215"/>
     <use style="fill:#1f77b4;stroke:#1f77b4;" x="201.832667" xlink:href="#m31fce94ce3" y="168.613803"/>
     <use style="fill:#1f77b4;stroke:#1f77b4;" x="201.832667" xlink:href="#m31fce94ce3" y="340.731127"/>
     <use style="fill:#1f77b4;stroke:#1f77b4;" x="201.832667" xlink:href="#m31fce94ce3" y="266.658833"/>
     <use style="fill:#1f77b4;stroke:#1f77b4;" x="201.832667" xlink:href="#m31fce94ce3" y="183.350151"/>
     <use style="fill:#1f77b4;stroke:#1f77b4;" x="189.264423" xlink:href="#m31fce94ce3" y="178.393745"/>
     <use style="fill:#1f77b4;stroke:#1f77b4;" x="189.264423" xlink:href="#m31fce94ce3" y="310.851772"/>
     <use style="fill:#1f77b4;stroke:#1f77b4;" x="189.264423" xlink:href="#m31fce94ce3" y="275.017483"/>
     <use style="fill:#1f77b4;stroke:#1f77b4;" x="189.264423" xlink:href="#m31fce94ce3" y="204.737987"/>
     <use style="fill:#1f77b4;stroke:#1f77b4;" x="176.696179" xlink:href="#m31fce94ce3" y="200.651267"/>
     <use style="fill:#1f77b4;stroke:#1f77b4;" x="176.696179" xlink:href="#m31fce94ce3" y="288.807644"/>
     <use style="fill:#1f77b4;stroke:#1f77b4;" x="176.696179" xlink:href="#m31fce94ce3" y="283.581475"/>
     <use style="fill:#1f77b4;stroke:#1f77b4;" x="176.696179" xlink:href="#m31fce94ce3" y="206.819597"/>
     <use style="fill:#1f77b4;stroke:#1f77b4;" x="164.127935" xlink:href="#m31fce94ce3" y="223.174527"/>
     <use style="fill:#1f77b4;stroke:#1f77b4;" x="164.127935" xlink:href="#m31fce94ce3" y="263.184115"/>
     <use style="fill:#1f77b4;stroke:#1f77b4;" x="164.127935" xlink:href="#m31fce94ce3" y="303.604387"/>
     <use style="fill:#1f77b4;stroke:#1f77b4;" x="164.127935" xlink:href="#m31fce94ce3" y="242.215016"/>
     <use style="fill:#1f77b4;stroke:#1f77b4;" x="164.127935" xlink:href="#m31fce94ce3" y="171.375861"/>
     <use style="fill:#1f77b4;stroke:#1f77b4;" x="151.55969" xlink:href="#m31fce94ce3" y="250.183113"/>
     <use style="fill:#1f77b4;stroke:#1f77b4;" x="151.55969" xlink:href="#m31fce94ce3" y="213.426795"/>
     <use style="fill:#1f77b4;stroke:#1f77b4;" x="151.55969" xlink:href="#m31fce94ce3" y="335.029851"/>
     <use style="fill:#1f77b4;stroke:#1f77b4;" x="151.55969" xlink:href="#m31fce94ce3" y="254.253727"/>
     <use style="fill:#1f77b4;stroke:#1f77b4;" x="151.55969" xlink:href="#m31fce94ce3" y="185.653208"/>
     <use style="fill:#1f77b4;stroke:#1f77b4;" x="138.991446" xlink:href="#m31fce94ce3" y="242.855202"/>
     <use style="fill:#1f77b4;stroke:#1f77b4;" x="138.991446" xlink:href="#m31fce94ce3" y="209.976235"/>
     <use style="fill:#1f77b4;stroke:#1f77b4;" x="138.991446" xlink:href="#m31fce94ce3" y="335.750563"/>
     <use style="fill:#1f77b4;stroke:#1f77b4;" x="138.991446" xlink:href="#m31fce94ce3" y="266.509859"/>
     <use style="fill:#1f77b4;stroke:#1f77b4;" x="138.991446" xlink:href="#m31fce94ce3" y="224.237477"/>
     <use style="fill:#1f77b4;stroke:#1f77b4;" x="138.991446" xlink:href="#m31fce94ce3" y="175.522976"/>
     <use style="fill:#1f77b4;stroke:#1f77b4;" x="126.423202" xlink:href="#m31fce94ce3" y="277.872147"/>
     <use style="fill:#1f77b4;stroke:#1f77b4;" x="126.423202" xlink:href="#m31fce94ce3" y="154.159297"/>
     <use style="fill:#1f77b4;stroke:#1f77b4;" x="126.423202" xlink:href="#m31fce94ce3" y="328.978285"/>
     <use style="fill:#1f77b4;stroke:#1f77b4;" x="126.423202" xlink:href="#m31fce94ce3" y="311.979143"/>
     <use style="fill:#1f77b4;stroke:#1f77b4;" x="126.423202" xlink:href="#m31fce94ce3" y="247.69887"/>
     <use style="fill:#1f77b4;stroke:#1f77b4;" x="126.423202" xlink:href="#m31fce94ce3" y="182.238885"/>
     <use style="fill:#1f77b4;stroke:#1f77b4;" x="113.854957" xlink:href="#m31fce94ce3" y="274.171955"/>
     <use style="fill:#1f77b4;stroke:#1f77b4;" x="113.854957" xlink:href="#m31fce94ce3" y="103.705424"/>
     <use style="fill:#1f77b4;stroke:#1f77b4;" x="113.854957" xlink:href="#m31fce94ce3" y="370.876219"/>
     <use style="fill:#1f77b4;stroke:#1f77b4;" x="113.854957" xlink:href="#m31fce94ce3" y="303.000439"/>
     <use style="fill:#1f77b4;stroke:#1f77b4;" x="113.854957" xlink:href="#m31fce94ce3" y="268.937733"/>
     <use style="fill:#1f77b4;stroke:#1f77b4;" x="113.854957" xlink:href="#m31fce94ce3" y="245.911182"/>
     <use style="fill:#1f77b4;stroke:#1f77b4;" x="113.854957" xlink:href="#m31fce94ce3" y="161.169128"/>
     <use style="fill:#1f77b4;stroke:#1f77b4;" x="101.286713" xlink:href="#m31fce94ce3" y="282.808421"/>
     <use style="fill:#1f77b4;stroke:#1f77b4;" x="101.286713" xlink:href="#m31fce94ce3" y="96.33725"/>
     <use style="fill:#1f77b4;stroke:#1f77b4;" x="101.286713" xlink:href="#m31fce94ce3" y="271.740055"/>
     <use style="fill:#1f77b4;stroke:#1f77b4;" x="101.286713" xlink:href="#m31fce94ce3" y="346.210954"/>
     <use style="fill:#1f77b4;stroke:#1f77b4;" x="101.286713" xlink:href="#m31fce94ce3" y="347.181299"/>
     <use style="fill:#1f77b4;stroke:#1f77b4;" x="101.286713" xlink:href="#m31fce94ce3" y="203.449563"/>
     <use style="fill:#1f77b4;stroke:#1f77b4;" x="101.286713" xlink:href="#m31fce94ce3" y="237.584743"/>
     <use style="fill:#1f77b4;stroke:#1f77b4;" x="101.286713" xlink:href="#m31fce94ce3" y="159.15194"/>
     <use style="fill:#1f77b4;stroke:#1f77b4;" x="88.718469" xlink:href="#m31fce94ce3" y="244.99318"/>
     <use style="fill:#1f77b4;stroke:#1f77b4;" x="88.718469" xlink:href="#m31fce94ce3" y="186.716158"/>
     <use style="fill:#1f77b4;stroke:#1f77b4;" x="88.718469" xlink:href="#m31fce94ce3" y="178.272955"/>
     <use style="fill:#1f77b4;stroke:#1f77b4;" x="88.718469" xlink:href="#m31fce94ce3" y="356.313003"/>
     <use style="fill:#1f77b4;stroke:#1f77b4;" x="88.718469" xlink:href="#m31fce94ce3" y="312.502565"/>
     <use style="fill:#1f77b4;stroke:#1f77b4;" x="88.718469" xlink:href="#m31fce94ce3" y="284.551819"/>
     <use style="fill:#1f77b4;stroke:#1f77b4;" x="88.718469" xlink:href="#m31fce94ce3" y="224.712583"/>
     <use style="fill:#1f77b4;stroke:#1f77b4;" x="88.718469" xlink:href="#m31fce94ce3" y="258.642421"/>
     <use style="fill:#1f77b4;stroke:#1f77b4;" x="88.718469" xlink:href="#m31fce94ce3" y="159.18415"/>
     <use style="fill:#1f77b4;stroke:#1f77b4;" x="88.718469" xlink:href="#m31fce94ce3" y="183.519256"/>
     <use style="fill:#1f77b4;stroke:#1f77b4;" x="76.150225" xlink:href="#m31fce94ce3" y="223.778476"/>
     <use style="fill:#1f77b4;stroke:#1f77b4;" x="76.150225" xlink:href="#m31fce94ce3" y="219.377703"/>
     <use style="fill:#1f77b4;stroke:#1f77b4;" x="76.150225" xlink:href="#m31fce94ce3" y="28.666812"/>
     <use style="fill:#1f77b4;stroke:#1f77b4;" x="76.150225" xlink:href="#m31fce94ce3" y="343.638133"/>
     <use style="fill:#1f77b4;stroke:#1f77b4;" x="76.150225" xlink:href="#m31fce94ce3" y="380.813188"/>
     <use style="fill:#1f77b4;stroke:#1f77b4;" x="76.150225" xlink:href="#m31fce94ce3" y="289.290803"/>
     <use style="fill:#1f77b4;stroke:#1f77b4;" x="76.150225" xlink:href="#m31fce94ce3" y="334.421876"/>
     <use style="fill:#1f77b4;stroke:#1f77b4;" x="76.150225" xlink:href="#m31fce94ce3" y="200.313056"/>
     <use style="fill:#1f77b4;stroke:#1f77b4;" x="76.150225" xlink:href="#m31fce94ce3" y="257.885472"/>
     <use style="fill:#1f77b4;stroke:#1f77b4;" x="76.150225" xlink:href="#m31fce94ce3" y="192.095328"/>
     <use style="fill:#1f77b4;stroke:#1f77b4;" x="76.150225" xlink:href="#m31fce94ce3" y="153.607691"/>
     <use style="fill:#1f77b4;stroke:#1f77b4;" x="76.150225" xlink:href="#m31fce94ce3" y="195.807599"/>
    </g>
   </g>
   <g id="matplotlib.axis_1">
    <g id="xtick_1">
     <g id="line2d_1">
      <defs>
       <path d="M 0 0 
L 0 3.5 
" id="mfce74ec3e9" style="stroke:#000000;stroke-width:0.8;"/>
      </defs>
      <g>
       <use style="stroke:#000000;stroke-width:0.8;" x="138.991446" xlink:href="#mfce74ec3e9" y="398.78"/>
      </g>
     </g>
     <g id="text_1">
      <!-- 20 -->
      <defs>
       <path d="M 19.1875 8.296875 
L 53.609375 8.296875 
L 53.609375 0 
L 7.328125 0 
L 7.328125 8.296875 
Q 12.9375 14.109375 22.625 23.890625 
Q 32.328125 33.6875 34.8125 36.53125 
Q 39.546875 41.84375 41.421875 45.53125 
Q 43.3125 49.21875 43.3125 52.78125 
Q 43.3125 58.59375 39.234375 62.25 
Q 35.15625 65.921875 28.609375 65.921875 
Q 23.96875 65.921875 18.8125 64.3125 
Q 13.671875 62.703125 7.8125 59.421875 
L 7.8125 69.390625 
Q 13.765625 71.78125 18.9375 73 
Q 24.125 74.21875 28.421875 74.21875 
Q 39.75 74.21875 46.484375 68.546875 
Q 53.21875 62.890625 53.21875 53.421875 
Q 53.21875 48.921875 51.53125 44.890625 
Q 49.859375 40.875 45.40625 35.40625 
Q 44.1875 33.984375 37.640625 27.21875 
Q 31.109375 20.453125 19.1875 8.296875 
z
" id="DejaVuSans-50"/>
       <path d="M 31.78125 66.40625 
Q 24.171875 66.40625 20.328125 58.90625 
Q 16.5 51.421875 16.5 36.375 
Q 16.5 21.390625 20.328125 13.890625 
Q 24.171875 6.390625 31.78125 6.390625 
Q 39.453125 6.390625 43.28125 13.890625 
Q 47.125 21.390625 47.125 36.375 
Q 47.125 51.421875 43.28125 58.90625 
Q 39.453125 66.40625 31.78125 66.40625 
z
M 31.78125 74.21875 
Q 44.046875 74.21875 50.515625 64.515625 
Q 56.984375 54.828125 56.984375 36.375 
Q 56.984375 17.96875 50.515625 8.265625 
Q 44.046875 -1.421875 31.78125 -1.421875 
Q 19.53125 -1.421875 13.0625 8.265625 
Q 6.59375 17.96875 6.59375 36.375 
Q 6.59375 54.828125 13.0625 64.515625 
Q 19.53125 74.21875 31.78125 74.21875 
z
" id="DejaVuSans-48"/>
      </defs>
      <g transform="translate(132.628946 413.378437)scale(0.1 -0.1)">
       <use xlink:href="#DejaVuSans-50"/>
       <use x="63.623047" xlink:href="#DejaVuSans-48"/>
      </g>
     </g>
    </g>
    <g id="xtick_2">
     <g id="line2d_2">
      <g>
       <use style="stroke:#000000;stroke-width:0.8;" x="264.673889" xlink:href="#mfce74ec3e9" y="398.78"/>
      </g>
     </g>
     <g id="text_2">
      <!-- 40 -->
      <defs>
       <path d="M 37.796875 64.3125 
L 12.890625 25.390625 
L 37.796875 25.390625 
z
M 35.203125 72.90625 
L 47.609375 72.90625 
L 47.609375 25.390625 
L 58.015625 25.390625 
L 58.015625 17.1875 
L 47.609375 17.1875 
L 47.609375 0 
L 37.796875 0 
L 37.796875 17.1875 
L 4.890625 17.1875 
L 4.890625 26.703125 
z
" id="DejaVuSans-52"/>
      </defs>
      <g transform="translate(258.311389 413.378437)scale(0.1 -0.1)">
       <use xlink:href="#DejaVuSans-52"/>
       <use x="63.623047" xlink:href="#DejaVuSans-48"/>
      </g>
     </g>
    </g>
    <g id="xtick_3">
     <g id="line2d_3">
      <g>
       <use style="stroke:#000000;stroke-width:0.8;" x="390.356331" xlink:href="#mfce74ec3e9" y="398.78"/>
      </g>
     </g>
     <g id="text_3">
      <!-- 60 -->
      <defs>
       <path d="M 33.015625 40.375 
Q 26.375 40.375 22.484375 35.828125 
Q 18.609375 31.296875 18.609375 23.390625 
Q 18.609375 15.53125 22.484375 10.953125 
Q 26.375 6.390625 33.015625 6.390625 
Q 39.65625 6.390625 43.53125 10.953125 
Q 47.40625 15.53125 47.40625 23.390625 
Q 47.40625 31.296875 43.53125 35.828125 
Q 39.65625 40.375 33.015625 40.375 
z
M 52.59375 71.296875 
L 52.59375 62.3125 
Q 48.875 64.0625 45.09375 64.984375 
Q 41.3125 65.921875 37.59375 65.921875 
Q 27.828125 65.921875 22.671875 59.328125 
Q 17.53125 52.734375 16.796875 39.40625 
Q 19.671875 43.65625 24.015625 45.921875 
Q 28.375 48.1875 33.59375 48.1875 
Q 44.578125 48.1875 50.953125 41.515625 
Q 57.328125 34.859375 57.328125 23.390625 
Q 57.328125 12.15625 50.6875 5.359375 
Q 44.046875 -1.421875 33.015625 -1.421875 
Q 20.359375 -1.421875 13.671875 8.265625 
Q 6.984375 17.96875 6.984375 36.375 
Q 6.984375 53.65625 15.1875 63.9375 
Q 23.390625 74.21875 37.203125 74.21875 
Q 40.921875 74.21875 44.703125 73.484375 
Q 48.484375 72.75 52.59375 71.296875 
z
" id="DejaVuSans-54"/>
      </defs>
      <g transform="translate(383.993831 413.378437)scale(0.1 -0.1)">
       <use xlink:href="#DejaVuSans-54"/>
       <use x="63.623047" xlink:href="#DejaVuSans-48"/>
      </g>
     </g>
    </g>
    <g id="xtick_4">
     <g id="line2d_4">
      <g>
       <use style="stroke:#000000;stroke-width:0.8;" x="516.038774" xlink:href="#mfce74ec3e9" y="398.78"/>
      </g>
     </g>
     <g id="text_4">
      <!-- 80 -->
      <defs>
       <path d="M 31.78125 34.625 
Q 24.75 34.625 20.71875 30.859375 
Q 16.703125 27.09375 16.703125 20.515625 
Q 16.703125 13.921875 20.71875 10.15625 
Q 24.75 6.390625 31.78125 6.390625 
Q 38.8125 6.390625 42.859375 10.171875 
Q 46.921875 13.96875 46.921875 20.515625 
Q 46.921875 27.09375 42.890625 30.859375 
Q 38.875 34.625 31.78125 34.625 
z
M 21.921875 38.8125 
Q 15.578125 40.375 12.03125 44.71875 
Q 8.5 49.078125 8.5 55.328125 
Q 8.5 64.0625 14.71875 69.140625 
Q 20.953125 74.21875 31.78125 74.21875 
Q 42.671875 74.21875 48.875 69.140625 
Q 55.078125 64.0625 55.078125 55.328125 
Q 55.078125 49.078125 51.53125 44.71875 
Q 48 40.375 41.703125 38.8125 
Q 48.828125 37.15625 52.796875 32.3125 
Q 56.78125 27.484375 56.78125 20.515625 
Q 56.78125 9.90625 50.3125 4.234375 
Q 43.84375 -1.421875 31.78125 -1.421875 
Q 19.734375 -1.421875 13.25 4.234375 
Q 6.78125 9.90625 6.78125 20.515625 
Q 6.78125 27.484375 10.78125 32.3125 
Q 14.796875 37.15625 21.921875 38.8125 
z
M 18.3125 54.390625 
Q 18.3125 48.734375 21.84375 45.5625 
Q 25.390625 42.390625 31.78125 42.390625 
Q 38.140625 42.390625 41.71875 45.5625 
Q 45.3125 48.734375 45.3125 54.390625 
Q 45.3125 60.0625 41.71875 63.234375 
Q 38.140625 66.40625 31.78125 66.40625 
Q 25.390625 66.40625 21.84375 63.234375 
Q 18.3125 60.0625 18.3125 54.390625 
z
" id="DejaVuSans-56"/>
      </defs>
      <g transform="translate(509.676274 413.378437)scale(0.1 -0.1)">
       <use xlink:href="#DejaVuSans-56"/>
       <use x="63.623047" xlink:href="#DejaVuSans-48"/>
      </g>
     </g>
    </g>
    <g id="xtick_5">
     <g id="line2d_5">
      <g>
       <use style="stroke:#000000;stroke-width:0.8;" x="641.721216" xlink:href="#mfce74ec3e9" y="398.78"/>
      </g>
     </g>
     <g id="text_5">
      <!-- 100 -->
      <defs>
       <path d="M 12.40625 8.296875 
L 28.515625 8.296875 
L 28.515625 63.921875 
L 10.984375 60.40625 
L 10.984375 69.390625 
L 28.421875 72.90625 
L 38.28125 72.90625 
L 38.28125 8.296875 
L 54.390625 8.296875 
L 54.390625 0 
L 12.40625 0 
z
" id="DejaVuSans-49"/>
      </defs>
      <g transform="translate(632.177466 413.378437)scale(0.1 -0.1)">
       <use xlink:href="#DejaVuSans-49"/>
       <use x="63.623047" xlink:href="#DejaVuSans-48"/>
       <use x="127.246094" xlink:href="#DejaVuSans-48"/>
      </g>
     </g>
    </g>
    <g id="xtick_6">
     <g id="line2d_6">
      <g>
       <use style="stroke:#000000;stroke-width:0.8;" x="767.403659" xlink:href="#mfce74ec3e9" y="398.78"/>
      </g>
     </g>
     <g id="text_6">
      <!-- 120 -->
      <g transform="translate(757.859909 413.378437)scale(0.1 -0.1)">
       <use xlink:href="#DejaVuSans-49"/>
       <use x="63.623047" xlink:href="#DejaVuSans-50"/>
       <use x="127.246094" xlink:href="#DejaVuSans-48"/>
      </g>
     </g>
    </g>
    <g id="text_7">
     <!-- length of chunk in sentences -->
     <defs>
      <path d="M 9.421875 75.984375 
L 18.40625 75.984375 
L 18.40625 0 
L 9.421875 0 
z
" id="DejaVuSans-108"/>
      <path d="M 56.203125 29.59375 
L 56.203125 25.203125 
L 14.890625 25.203125 
Q 15.484375 15.921875 20.484375 11.0625 
Q 25.484375 6.203125 34.421875 6.203125 
Q 39.59375 6.203125 44.453125 7.46875 
Q 49.3125 8.734375 54.109375 11.28125 
L 54.109375 2.78125 
Q 49.265625 0.734375 44.1875 -0.34375 
Q 39.109375 -1.421875 33.890625 -1.421875 
Q 20.796875 -1.421875 13.15625 6.1875 
Q 5.515625 13.8125 5.515625 26.8125 
Q 5.515625 40.234375 12.765625 48.109375 
Q 20.015625 56 32.328125 56 
Q 43.359375 56 49.78125 48.890625 
Q 56.203125 41.796875 56.203125 29.59375 
z
M 47.21875 32.234375 
Q 47.125 39.59375 43.09375 43.984375 
Q 39.0625 48.390625 32.421875 48.390625 
Q 24.90625 48.390625 20.390625 44.140625 
Q 15.875 39.890625 15.1875 32.171875 
z
" id="DejaVuSans-101"/>
      <path d="M 54.890625 33.015625 
L 54.890625 0 
L 45.90625 0 
L 45.90625 32.71875 
Q 45.90625 40.484375 42.875 44.328125 
Q 39.84375 48.1875 33.796875 48.1875 
Q 26.515625 48.1875 22.3125 43.546875 
Q 18.109375 38.921875 18.109375 30.90625 
L 18.109375 0 
L 9.078125 0 
L 9.078125 54.6875 
L 18.109375 54.6875 
L 18.109375 46.1875 
Q 21.34375 51.125 25.703125 53.5625 
Q 30.078125 56 35.796875 56 
Q 45.21875 56 50.046875 50.171875 
Q 54.890625 44.34375 54.890625 33.015625 
z
" id="DejaVuSans-110"/>
      <path d="M 45.40625 27.984375 
Q 45.40625 37.75 41.375 43.109375 
Q 37.359375 48.484375 30.078125 48.484375 
Q 22.859375 48.484375 18.828125 43.109375 
Q 14.796875 37.75 14.796875 27.984375 
Q 14.796875 18.265625 18.828125 12.890625 
Q 22.859375 7.515625 30.078125 7.515625 
Q 37.359375 7.515625 41.375 12.890625 
Q 45.40625 18.265625 45.40625 27.984375 
z
M 54.390625 6.78125 
Q 54.390625 -7.171875 48.1875 -13.984375 
Q 42 -20.796875 29.203125 -20.796875 
Q 24.46875 -20.796875 20.265625 -20.09375 
Q 16.0625 -19.390625 12.109375 -17.921875 
L 12.109375 -9.1875 
Q 16.0625 -11.328125 19.921875 -12.34375 
Q 23.78125 -13.375 27.78125 -13.375 
Q 36.625 -13.375 41.015625 -8.765625 
Q 45.40625 -4.15625 45.40625 5.171875 
L 45.40625 9.625 
Q 42.625 4.78125 38.28125 2.390625 
Q 33.9375 0 27.875 0 
Q 17.828125 0 11.671875 7.65625 
Q 5.515625 15.328125 5.515625 27.984375 
Q 5.515625 40.671875 11.671875 48.328125 
Q 17.828125 56 27.875 56 
Q 33.9375 56 38.28125 53.609375 
Q 42.625 51.21875 45.40625 46.390625 
L 45.40625 54.6875 
L 54.390625 54.6875 
z
" id="DejaVuSans-103"/>
      <path d="M 18.3125 70.21875 
L 18.3125 54.6875 
L 36.8125 54.6875 
L 36.8125 47.703125 
L 18.3125 47.703125 
L 18.3125 18.015625 
Q 18.3125 11.328125 20.140625 9.421875 
Q 21.96875 7.515625 27.59375 7.515625 
L 36.8125 7.515625 
L 36.8125 0 
L 27.59375 0 
Q 17.1875 0 13.234375 3.875 
Q 9.28125 7.765625 9.28125 18.015625 
L 9.28125 47.703125 
L 2.6875 47.703125 
L 2.6875 54.6875 
L 9.28125 54.6875 
L 9.28125 70.21875 
z
" id="DejaVuSans-116"/>
      <path d="M 54.890625 33.015625 
L 54.890625 0 
L 45.90625 0 
L 45.90625 32.71875 
Q 45.90625 40.484375 42.875 44.328125 
Q 39.84375 48.1875 33.796875 48.1875 
Q 26.515625 48.1875 22.3125 43.546875 
Q 18.109375 38.921875 18.109375 30.90625 
L 18.109375 0 
L 9.078125 0 
L 9.078125 75.984375 
L 18.109375 75.984375 
L 18.109375 46.1875 
Q 21.34375 51.125 25.703125 53.5625 
Q 30.078125 56 35.796875 56 
Q 45.21875 56 50.046875 50.171875 
Q 54.890625 44.34375 54.890625 33.015625 
z
" id="DejaVuSans-104"/>
      <path id="DejaVuSans-32"/>
      <path d="M 30.609375 48.390625 
Q 23.390625 48.390625 19.1875 42.75 
Q 14.984375 37.109375 14.984375 27.296875 
Q 14.984375 17.484375 19.15625 11.84375 
Q 23.34375 6.203125 30.609375 6.203125 
Q 37.796875 6.203125 41.984375 11.859375 
Q 46.1875 17.53125 46.1875 27.296875 
Q 46.1875 37.015625 41.984375 42.703125 
Q 37.796875 48.390625 30.609375 48.390625 
z
M 30.609375 56 
Q 42.328125 56 49.015625 48.375 
Q 55.71875 40.765625 55.71875 27.296875 
Q 55.71875 13.875 49.015625 6.21875 
Q 42.328125 -1.421875 30.609375 -1.421875 
Q 18.84375 -1.421875 12.171875 6.21875 
Q 5.515625 13.875 5.515625 27.296875 
Q 5.515625 40.765625 12.171875 48.375 
Q 18.84375 56 30.609375 56 
z
" id="DejaVuSans-111"/>
      <path d="M 37.109375 75.984375 
L 37.109375 68.5 
L 28.515625 68.5 
Q 23.6875 68.5 21.796875 66.546875 
Q 19.921875 64.59375 19.921875 59.515625 
L 19.921875 54.6875 
L 34.71875 54.6875 
L 34.71875 47.703125 
L 19.921875 47.703125 
L 19.921875 0 
L 10.890625 0 
L 10.890625 47.703125 
L 2.296875 47.703125 
L 2.296875 54.6875 
L 10.890625 54.6875 
L 10.890625 58.5 
Q 10.890625 67.625 15.140625 71.796875 
Q 19.390625 75.984375 28.609375 75.984375 
z
" id="DejaVuSans-102"/>
      <path d="M 48.78125 52.59375 
L 48.78125 44.1875 
Q 44.96875 46.296875 41.140625 47.34375 
Q 37.3125 48.390625 33.40625 48.390625 
Q 24.65625 48.390625 19.8125 42.84375 
Q 14.984375 37.3125 14.984375 27.296875 
Q 14.984375 17.28125 19.8125 11.734375 
Q 24.65625 6.203125 33.40625 6.203125 
Q 37.3125 6.203125 41.140625 7.25 
Q 44.96875 8.296875 48.78125 10.40625 
L 48.78125 2.09375 
Q 45.015625 0.34375 40.984375 -0.53125 
Q 36.96875 -1.421875 32.421875 -1.421875 
Q 20.0625 -1.421875 12.78125 6.34375 
Q 5.515625 14.109375 5.515625 27.296875 
Q 5.515625 40.671875 12.859375 48.328125 
Q 20.21875 56 33.015625 56 
Q 37.15625 56 41.109375 55.140625 
Q 45.0625 54.296875 48.78125 52.59375 
z
" id="DejaVuSans-99"/>
      <path d="M 8.5 21.578125 
L 8.5 54.6875 
L 17.484375 54.6875 
L 17.484375 21.921875 
Q 17.484375 14.15625 20.5 10.265625 
Q 23.53125 6.390625 29.59375 6.390625 
Q 36.859375 6.390625 41.078125 11.03125 
Q 45.3125 15.671875 45.3125 23.6875 
L 45.3125 54.6875 
L 54.296875 54.6875 
L 54.296875 0 
L 45.3125 0 
L 45.3125 8.40625 
Q 42.046875 3.421875 37.71875 1 
Q 33.40625 -1.421875 27.6875 -1.421875 
Q 18.265625 -1.421875 13.375 4.4375 
Q 8.5 10.296875 8.5 21.578125 
z
M 31.109375 56 
z
" id="DejaVuSans-117"/>
      <path d="M 9.078125 75.984375 
L 18.109375 75.984375 
L 18.109375 31.109375 
L 44.921875 54.6875 
L 56.390625 54.6875 
L 27.390625 29.109375 
L 57.625 0 
L 45.90625 0 
L 18.109375 26.703125 
L 18.109375 0 
L 9.078125 0 
z
" id="DejaVuSans-107"/>
      <path d="M 9.421875 54.6875 
L 18.40625 54.6875 
L 18.40625 0 
L 9.421875 0 
z
M 9.421875 75.984375 
L 18.40625 75.984375 
L 18.40625 64.59375 
L 9.421875 64.59375 
z
" id="DejaVuSans-105"/>
      <path d="M 44.28125 53.078125 
L 44.28125 44.578125 
Q 40.484375 46.53125 36.375 47.5 
Q 32.28125 48.484375 27.875 48.484375 
Q 21.1875 48.484375 17.84375 46.4375 
Q 14.5 44.390625 14.5 40.28125 
Q 14.5 37.15625 16.890625 35.375 
Q 19.28125 33.59375 26.515625 31.984375 
L 29.59375 31.296875 
Q 39.15625 29.25 43.1875 25.515625 
Q 47.21875 21.78125 47.21875 15.09375 
Q 47.21875 7.46875 41.1875 3.015625 
Q 35.15625 -1.421875 24.609375 -1.421875 
Q 20.21875 -1.421875 15.453125 -0.5625 
Q 10.6875 0.296875 5.421875 2 
L 5.421875 11.28125 
Q 10.40625 8.6875 15.234375 7.390625 
Q 20.0625 6.109375 24.8125 6.109375 
Q 31.15625 6.109375 34.5625 8.28125 
Q 37.984375 10.453125 37.984375 14.40625 
Q 37.984375 18.0625 35.515625 20.015625 
Q 33.0625 21.96875 24.703125 23.78125 
L 21.578125 24.515625 
Q 13.234375 26.265625 9.515625 29.90625 
Q 5.8125 33.546875 5.8125 39.890625 
Q 5.8125 47.609375 11.28125 51.796875 
Q 16.75 56 26.8125 56 
Q 31.78125 56 36.171875 55.265625 
Q 40.578125 54.546875 44.28125 53.078125 
z
" id="DejaVuSans-115"/>
     </defs>
     <g transform="translate(358.895312 427.056562)scale(0.1 -0.1)">
      <use xlink:href="#DejaVuSans-108"/>
      <use x="27.783203" xlink:href="#DejaVuSans-101"/>
      <use x="89.306641" xlink:href="#DejaVuSans-110"/>
      <use x="152.685547" xlink:href="#DejaVuSans-103"/>
      <use x="216.162109" xlink:href="#DejaVuSans-116"/>
      <use x="255.371094" xlink:href="#DejaVuSans-104"/>
      <use x="318.75" xlink:href="#DejaVuSans-32"/>
      <use x="350.537109" xlink:href="#DejaVuSans-111"/>
      <use x="411.71875" xlink:href="#DejaVuSans-102"/>
      <use x="446.923828" xlink:href="#DejaVuSans-32"/>
      <use x="478.710938" xlink:href="#DejaVuSans-99"/>
      <use x="533.691406" xlink:href="#DejaVuSans-104"/>
      <use x="597.070312" xlink:href="#DejaVuSans-117"/>
      <use x="660.449219" xlink:href="#DejaVuSans-110"/>
      <use x="723.828125" xlink:href="#DejaVuSans-107"/>
      <use x="781.738281" xlink:href="#DejaVuSans-32"/>
      <use x="813.525391" xlink:href="#DejaVuSans-105"/>
      <use x="841.308594" xlink:href="#DejaVuSans-110"/>
      <use x="904.6875" xlink:href="#DejaVuSans-32"/>
      <use x="936.474609" xlink:href="#DejaVuSans-115"/>
      <use x="988.574219" xlink:href="#DejaVuSans-101"/>
      <use x="1050.097656" xlink:href="#DejaVuSans-110"/>
      <use x="1113.476562" xlink:href="#DejaVuSans-116"/>
      <use x="1152.685547" xlink:href="#DejaVuSans-101"/>
      <use x="1214.208984" xlink:href="#DejaVuSans-110"/>
      <use x="1277.587891" xlink:href="#DejaVuSans-99"/>
      <use x="1332.568359" xlink:href="#DejaVuSans-101"/>
      <use x="1394.091797" xlink:href="#DejaVuSans-115"/>
     </g>
    </g>
   </g>
   <g id="matplotlib.axis_2">
    <g id="ytick_1">
     <g id="line2d_7">
      <defs>
       <path d="M 0 0 
L -3.5 0 
" id="m32f3d1a47d" style="stroke:#000000;stroke-width:0.8;"/>
      </defs>
      <g>
       <use style="stroke:#000000;stroke-width:0.8;" x="40.603125" xlink:href="#m32f3d1a47d" y="365.662128"/>
      </g>
     </g>
     <g id="text_8">
      <!-- 10 -->
      <g transform="translate(20.878125 369.461347)scale(0.1 -0.1)">
       <use xlink:href="#DejaVuSans-49"/>
       <use x="63.623047" xlink:href="#DejaVuSans-48"/>
      </g>
     </g>
    </g>
    <g id="ytick_2">
     <g id="line2d_8">
      <g>
       <use style="stroke:#000000;stroke-width:0.8;" x="40.603125" xlink:href="#m32f3d1a47d" y="285.135636"/>
      </g>
     </g>
     <g id="text_9">
      <!-- 12 -->
      <g transform="translate(20.878125 288.934855)scale(0.1 -0.1)">
       <use xlink:href="#DejaVuSans-49"/>
       <use x="63.623047" xlink:href="#DejaVuSans-50"/>
      </g>
     </g>
    </g>
    <g id="ytick_3">
     <g id="line2d_9">
      <g>
       <use style="stroke:#000000;stroke-width:0.8;" x="40.603125" xlink:href="#m32f3d1a47d" y="204.609144"/>
      </g>
     </g>
     <g id="text_10">
      <!-- 14 -->
      <g transform="translate(20.878125 208.408363)scale(0.1 -0.1)">
       <use xlink:href="#DejaVuSans-49"/>
       <use x="63.623047" xlink:href="#DejaVuSans-52"/>
      </g>
     </g>
    </g>
    <g id="ytick_4">
     <g id="line2d_10">
      <g>
       <use style="stroke:#000000;stroke-width:0.8;" x="40.603125" xlink:href="#m32f3d1a47d" y="124.082652"/>
      </g>
     </g>
     <g id="text_11">
      <!-- 16 -->
      <g transform="translate(20.878125 127.881871)scale(0.1 -0.1)">
       <use xlink:href="#DejaVuSans-49"/>
       <use x="63.623047" xlink:href="#DejaVuSans-54"/>
      </g>
     </g>
    </g>
    <g id="ytick_5">
     <g id="line2d_11">
      <g>
       <use style="stroke:#000000;stroke-width:0.8;" x="40.603125" xlink:href="#m32f3d1a47d" y="43.55616"/>
      </g>
     </g>
     <g id="text_12">
      <!-- 18 -->
      <g transform="translate(20.878125 47.355379)scale(0.1 -0.1)">
       <use xlink:href="#DejaVuSans-49"/>
       <use x="63.623047" xlink:href="#DejaVuSans-56"/>
      </g>
     </g>
    </g>
    <g id="text_13">
     <!-- GFI -->
     <defs>
      <path d="M 59.515625 10.40625 
L 59.515625 29.984375 
L 43.40625 29.984375 
L 43.40625 38.09375 
L 69.28125 38.09375 
L 69.28125 6.78125 
Q 63.578125 2.734375 56.6875 0.65625 
Q 49.8125 -1.421875 42 -1.421875 
Q 24.90625 -1.421875 15.25 8.5625 
Q 5.609375 18.5625 5.609375 36.375 
Q 5.609375 54.25 15.25 64.234375 
Q 24.90625 74.21875 42 74.21875 
Q 49.125 74.21875 55.546875 72.453125 
Q 61.96875 70.703125 67.390625 67.28125 
L 67.390625 56.78125 
Q 61.921875 61.421875 55.765625 63.765625 
Q 49.609375 66.109375 42.828125 66.109375 
Q 29.4375 66.109375 22.71875 58.640625 
Q 16.015625 51.171875 16.015625 36.375 
Q 16.015625 21.625 22.71875 14.15625 
Q 29.4375 6.6875 42.828125 6.6875 
Q 48.046875 6.6875 52.140625 7.59375 
Q 56.25 8.5 59.515625 10.40625 
z
" id="DejaVuSans-71"/>
      <path d="M 9.8125 72.90625 
L 51.703125 72.90625 
L 51.703125 64.59375 
L 19.671875 64.59375 
L 19.671875 43.109375 
L 48.578125 43.109375 
L 48.578125 34.8125 
L 19.671875 34.8125 
L 19.671875 0 
L 9.8125 0 
z
" id="DejaVuSans-70"/>
      <path d="M 9.8125 72.90625 
L 19.671875 72.90625 
L 19.671875 0 
L 9.8125 0 
z
" id="DejaVuSans-73"/>
     </defs>
     <g transform="translate(14.798438 212.965)rotate(-90)scale(0.1 -0.1)">
      <use xlink:href="#DejaVuSans-71"/>
      <use x="77.490234" xlink:href="#DejaVuSans-70"/>
      <use x="135.009766" xlink:href="#DejaVuSans-73"/>
     </g>
    </g>
   </g>
   <g id="line2d_12">
    <path clip-path="url(#pae3a9b9796)" d="M 76.150225 234.974678 
L 88.718469 238.940809 
L 101.286713 243.058028 
L 113.854957 246.824583 
L 126.423202 250.487771 
L 138.991446 242.475385 
L 151.55969 247.709339 
L 164.127935 240.710781 
L 176.696179 244.964996 
L 189.264423 242.250247 
L 201.832667 239.838478 
L 233.253278 252.703592 
L 264.673889 243.763809 
L 296.094499 265.795186 
L 327.51511 257.577458 
L 390.356331 243.81548 
L 453.197552 279.116281 
L 516.038774 268.925654 
L 578.879995 267.709704 
L 641.721216 259.665107 
L 786.256025 243.845678 
" style="fill:none;stroke:#ff0000;stroke-linecap:square;stroke-width:1.5;"/>
   </g>
   <g id="patch_3">
    <path d="M 40.603125 398.78 
L 40.603125 10.7 
" style="fill:none;stroke:#000000;stroke-linecap:square;stroke-linejoin:miter;stroke-width:0.8;"/>
   </g>
   <g id="patch_4">
    <path d="M 821.803125 398.78 
L 821.803125 10.7 
" style="fill:none;stroke:#000000;stroke-linecap:square;stroke-linejoin:miter;stroke-width:0.8;"/>
   </g>
   <g id="patch_5">
    <path d="M 40.603125 398.78 
L 821.803125 398.78 
" style="fill:none;stroke:#000000;stroke-linecap:square;stroke-linejoin:miter;stroke-width:0.8;"/>
   </g>
   <g id="patch_6">
    <path d="M 40.603125 10.7 
L 821.803125 10.7 
" style="fill:none;stroke:#000000;stroke-linecap:square;stroke-linejoin:miter;stroke-width:0.8;"/>
   </g>
  </g>
 </g>
 <defs>
  <clipPath id="pae3a9b9796">
   <rect height="388.08" width="781.2" x="40.603125" y="10.7"/>
  </clipPath>
 </defs>
</svg>
